<svg width="188" xmlns="http://www.w3.org/2000/svg" viewBox="0 0 188 189"><g id="Layer_2" data-name="Layer 2"><g id="Layer_1-2" data-name="Layer 1"><path d="M180.39,121.38c-8.94-9.49-11.88-16.32-11.76-27.61.05-10.32,3.5-17.9,12.16-26.73C186,61.66,188,58.69,188,56.2c0-1.17-.46-1.68-2.54-2.6s-4-1.2-10.56-1.34c-11.09-.23-15.93-1.57-23-6.32-6.47-4.29-11.14-10.52-14.08-18.64-.91-2.54-1.22-5.43-1.56-12.92-.35-7.78-.63-10.15-1.49-11.89C132.62-1.86,129.8-.8,120.57,8c-4.45,4.23-6.81,6-10.43,7.81a35.05,35.05,0,0,1-32.31,0c-3.62-1.8-6-3.55-10.74-8.09C63.76,4.52,60.06,1.49,59,1a11,11,0,0,0-3.22-1c-2.59,0-4,5.09-4,14.69,0,11.12-3.27,19.61-10.39,26.85a32.59,32.59,0,0,1-8.44,6.31C26.58,51.11,22.56,52,13.05,52.31c-6.47.18-8.61.46-10.57,1.29S0,55,0,56.2c0,2.49,2,5.43,7.49,11.12,10.09,10.35,13.85,21.59,11.43,33.82-1.57,7.86-4.39,12.92-11.31,20.21C1.51,127.87,0,130,0,132.33c0,3.06,3.76,4.29,13.22,4.35,12.16,0,20.48,3.23,27.92,10.66,4.61,4.69,7,8.46,9,14.18,1,2.94,1.28,5.54,1.62,13,.4,9.72,1.14,12.95,3.45,14.29,1.57,1,5.59-1.52,10.69-6.55,5.47-5.37,8.71-7.74,13.61-10a36.35,36.35,0,0,1,28.92,0c5,2.26,8.26,4.69,13.62,10,4.84,4.81,8.77,7.29,10.68,6.66,2.08-.68,3-4.46,3.45-14.4.34-7.41.68-10.07,1.62-13a36.7,36.7,0,0,1,23-22.93c3.71-1.23,5.87-1.57,13.68-1.91a87.08,87.08,0,0,0,10.4-.86c3.1-1.26,3.81-3.4,2.25-6.49C186.66,128.38,183.61,124.81,180.39,121.38Z" fill="#f7bf72"/><path d="M99,89.44A18.9,18.9,0,0,0,96.5,80a2.2,2.2,0,0,0-3-.9,2.59,2.59,0,0,0-1.1,1.4,2.26,2.26,0,0,0,.2,1.6,15.61,15.61,0,0,1,1.9,7.31,15.1,15.1,0,1,1-15.1-15,15.55,15.55,0,0,1,5.9,1.2,2.36,2.36,0,0,0,3-1.2,2.25,2.25,0,0,0-1.2-2.91A18.74,18.74,0,0,0,79.5,70a19.39,19.39,0,0,0-2.2,38.66V116H73.6a2.21,2.21,0,0,0,0,4.41h3.5v3.41a2.2,2.2,0,0,0,4.4,0v-3.41H85A2.21,2.21,0,0,0,85,116H81.5v-7.31A19.32,19.32,0,0,0,99,89.44Z" fill="#482a1d"/><path d="M128.89,64.3a1.8,1.8,0,0,0-1.2-1.2,2.49,2.49,0,0,0-.8-.1h-8.2a2.21,2.21,0,0,0,0,4.41h2.7l-6.8,6.91a19.5,19.5,0,0,0-25.89,1.5,19.75,19.75,0,0,0-3.3,23.24,2.59,2.59,0,0,0,1.4,1.1,2.26,2.26,0,0,0,1.6-.2,2.19,2.19,0,0,0,.9-3A14.86,14.86,0,0,1,91.8,79a15.07,15.07,0,0,1,10.49-4.41A14.55,14.55,0,0,1,112.79,79a15,15,0,0,1,0,21.23,14.71,14.71,0,0,1-16.29,3.2,2.24,2.24,0,0,0-2.9,1.21,2.21,2.21,0,0,0,1.19,2.9,19.31,19.31,0,0,0,7.5,1.5,19.68,19.68,0,0,0,13.8-5.71,19.37,19.37,0,0,0,5.6-13.82,20,20,0,0,0-4.2-12.12l6.9-6.91v2.71a2.2,2.2,0,0,0,4.4,0V65.3A.87.87,0,0,0,128.89,64.3Z" fill="#482a1d"/><path d="M143,110.32a1.18,1.18,0,0,0-.91-.91,1.4,1.4,0,0,0-1.21.3c-1.63,1.61-3.25,3-5,2.31-.61-.3-.81-.8-1-1.81a5,5,0,0,0-1.12-2.81,1.18,1.18,0,0,0-1-.4,1.33,1.33,0,0,0-1,.6,13.45,13.45,0,0,1-4.56,4.72,5.06,5.06,0,0,1-1.12.51,4.1,4.1,0,0,0-2.94-2.41,1.18,1.18,0,0,0-1,.2,1,1,0,0,0-.51.9,3.27,3.27,0,0,0,1.62,3.22,3.18,3.18,0,0,0,1.32.6,1.27,1.27,0,0,1,.1.6,6.51,6.51,0,0,1-.4,4.22,3.58,3.58,0,0,1-2.94,2.11,2.66,2.66,0,0,1-2.84-1.41,1.43,1.43,0,0,0-1.62-.8,1.23,1.23,0,0,0-.81,1.41,15.44,15.44,0,0,0,3.34,6.22,3,3,0,0,0,2.23,1.31H122a1.94,1.94,0,0,0,1.62-2.21,1.26,1.26,0,0,0-.71-.9,1.08,1.08,0,0,0-1.22.2l-.2.2-.1-.1-.1-.2a6.12,6.12,0,0,1-1.12-1.51c.31,0,.51.1.81.1a5.92,5.92,0,0,0,5.17-3,8.8,8.8,0,0,0,.81-6.33v-.1c.1,0,.1,0,.21-.1a13.06,13.06,0,0,0,5.37-4.12,6.11,6.11,0,0,0,.3,1.3,3.84,3.84,0,0,0,2.74,2.21c2.83.71,5.06-1,7.09-3A1.43,1.43,0,0,0,143,110.32Z" fill="#482a1d"/><circle cx="96" cy="136" r="3" fill="none" stroke="#482a1d" stroke-width="2"/><rect x="48.24" y="112.24" width="6" height="6" rx="2" transform="translate(-66.48 69.99) rotate(-45)" fill="#482a1d"/><path d="M58.84,64.32a4.26,4.26,0,0,0-4.39.74,5.46,5.46,0,0,0-1.84,5.23,4.85,4.85,0,0,0-4.4,1.88,1,1,0,0,0-.1,1A1.3,1.3,0,0,0,49,74a1.07,1.07,0,0,0,.92-.42,2.8,2.8,0,0,1,1.84-1,2.23,2.23,0,0,1,1.64.52c.3.52.51,1,.81,1.47a1.09,1.09,0,0,0,.92.52,1,1,0,0,0,.52-.1.92.92,0,0,0,.61-1.16,4.26,4.26,0,0,0-1-1.88c-.82-2-.72-3.56.2-4.71a2.1,2.1,0,0,1,2.15-.84,1.45,1.45,0,0,1,1.12,1.47,1.17,1.17,0,0,0,.31.83.91.91,0,0,0,.71.32A1.09,1.09,0,0,0,61,67.88,3.63,3.63,0,0,0,58.84,64.32Z" fill="#482a1d"/><path d="M100.07,52A10.11,10.11,0,0,0,99,58,9.87,9.87,0,0,0,93,57a9.89,9.89,0,0,0,1.08-6A9.75,9.75,0,0,0,100.07,52Z" fill="#482a1d" stroke="#482a1d"/></g></g></svg>
