<svg xmlns="http://www.w3.org/2000/svg" width="180" viewBox="0 0 180 175"><g id="Layer_2" data-name="Layer 2"><g id="Layer_1-2" data-name="Layer 1"><path d="M23,136.24C9.36,136.47-.66,126.34.1,113c.34-5.9,3.12-10.7,7.54-14.56a14.19,14.19,0,0,0,5-8.05A13.57,13.57,0,0,0,8,76.78,22.34,22.34,0,0,1,.37,64C-2,51.68,7.6,39.32,20.28,38.68c2.21-.12,4.46.11,6.67-.16,8.07-1.05,13.14-7,12.83-15.12-.23-6.2,1.41-11.71,5.71-16.29a22.46,22.46,0,0,1,32.83,0c3,3.17,6.51,5.22,10.93,5.4A14.94,14.94,0,0,0,101.4,7.38a22.28,22.28,0,0,1,38.84,14,31.52,31.52,0,0,0,.27,6c1.37,6.66,7.27,11.15,14.28,11.31,2.89.07,5.9,0,8.68.68,8.34,2.11,13.71,7.52,15.8,15.76S179,70.32,172.8,76c-2.55,2.39-4.76,4.92-5.48,8.4-1.11,5.48.57,10,4.76,13.76A22.18,22.18,0,0,1,179.62,111c2.36,12.25-7.32,24.61-19.84,25.26-2.21.11-4.46-.12-6.67.15a14.4,14.4,0,0,0-13,15.27c.49,8.81-3.09,15.69-10.82,20.22-9.29,5.45-20.33,3.71-27.91-4.27-6-6.31-14.85-7-21.18-1.66-1,.87-1.86,1.89-2.81,2.79a22.32,22.32,0,0,1-24.53,4.35c-8.3-3.59-13.75-11.34-13.06-20.3C40.58,142.86,33.08,135.3,23,136.24Z" fill="#f7bf72"/><path d="M95,95.14c-.53-1.89-1-3.66-1.51-5.44C91.77,83.47,90,77.26,88.35,71a2.6,2.6,0,0,0-1.57-1.86A8.78,8.78,0,0,0,74.5,75.64a2.49,2.49,0,0,0,.73,2.2L87.82,91.73C90,94.12,92.16,96.51,94.28,99c-1.34-.69-2.91-.88-4-2.09C85,91.07,79.65,85.32,74.48,79.39a5.73,5.73,0,0,0-6.41-1.91,9,9,0,0,0-7,7.13c-.06.33-.06.68-.09,1a1.55,1.55,0,0,0,1.06,1.69l19,8.74,1.64.77c-.22.5-.41,1-.63,1.51-1.59-.73-3.17-1.45-4.73-2.19-5.21-2.4-10.43-4.78-15.61-7.24a5.38,5.38,0,0,1-2-1.7,25.46,25.46,0,0,1,.53-30.31C65.59,50.18,72.6,46.69,81.16,47c10.07.39,17.41,5.36,22.09,14.29.94,1.77.72,3.65.52,5.51-.56,5.13-1.14,10.24-1.72,15.42h-1.67l.66-6c.44-3.94.89-7.86,1.31-11.8.16-1.49-.19-2-1.55-2.6-4-1.7-9.61.52-11.4,4.5a3.12,3.12,0,0,0,0,2.21c2.16,7.8,4.25,15.61,6.51,23.38C96.28,93.34,95.63,94.06,95,95.14Z" fill="#482a1d"/><path d="M85.69,97.14a8,8,0,0,1,.76.25c4.51,2,9,3.94,13.51,5.85a7.1,7.1,0,0,1,4.48,4.91c.45,1.7,1.09,3.36,1.7,5a1.62,1.62,0,0,0,.78.83c1.48.67,3,1.29,4.53,1.9a2.36,2.36,0,0,1,1.6,1.91c.42,2.21.92,4.38,1.38,6.57a2.09,2.09,0,1,1-4.08.89c-.39-1.7-.76-3.41-1.07-5.11a1.19,1.19,0,0,0-.77-1c-2-.81-4-1.7-6-2.47a4.1,4.1,0,0,1-2.53-2.56q-1.5-3.94-3.11-7.84a1.75,1.75,0,0,0-.85-.89c-3.67-1.65-7.37-3.25-11-4.88a1.78,1.78,0,0,1-1.22-2.22A1.82,1.82,0,0,1,85.69,97.14Z" fill="#482a1d"/><path d="M107.12,110.78l4.09.78c1.81.36,3.61.73,5.42,1.08a2.24,2.24,0,0,1,2,1.94c.43,2.14.9,4.27,1.35,6.41a2.15,2.15,0,0,1-1.54,2.73,2.11,2.11,0,0,1-2.54-1.81c-.39-1.72-.77-3.46-1.11-5.19a2.23,2.23,0,0,0-1.41-1.72c-1.43-.6-2.84-1.28-4.32-1.77A2.51,2.51,0,0,1,107.12,110.78Z" fill="#482a1d"/><path d="M100.68,101.24a3.88,3.88,0,0,1-3.9-3.82,3.89,3.89,0,1,1,7.77,0A3.82,3.82,0,0,1,100.68,101.24Z" fill="#482a1d"/><path d="M102.27,91.87,98.71,92c.14-1.27.28-2.63.44-4,.08-.72.16-1.46.28-2.16a1.68,1.68,0,0,1,1.87-1.39,1.59,1.59,0,0,1,1.55,1.64C102.71,88.07,102.46,90,102.27,91.87Z" fill="#482a1d"/><path d="M62.9,109.57a1.2,1.2,0,0,0-.9-.77,3.1,3.1,0,0,1-1-.48,5.17,5.17,0,0,0,.4-1.14,2.28,2.28,0,0,0-1-2.49,1.45,1.45,0,0,0-1.4,0,2.16,2.16,0,0,0-1,1.63,3.44,3.44,0,0,0,.4,2,1.89,1.89,0,0,1-.5.39,2.27,2.27,0,0,1-2.9-.77,1.47,1.47,0,0,1,.5-2c.1-.19.2-.28.3-.28a1,1,0,0,0,.5-1.34,1.11,1.11,0,0,0-1.4-.57,1.44,1.44,0,0,0-.7.19l-.8.38a20.77,20.77,0,0,1-2.6,1.24c-1.5.67-2.5.77-3.2.19s-.3-1.53.2-2.58a13.51,13.51,0,0,1,2.4-3.44.89.89,0,0,0,.2-1,1.21,1.21,0,0,0-.9-.76,1.23,1.23,0,0,0-1.1.38,16.76,16.76,0,0,0-2.9,4.49c-.8,1.82-.6,3.35.5,4.4a4.72,4.72,0,0,0,4.7.77,13.91,13.91,0,0,0,1.8-.77c0,.29.1.58.1.77a4.35,4.35,0,0,0,4.3,2.86h.4a5.09,5.09,0,0,0,2.5-1.05,5.44,5.44,0,0,0,2,1,1,1,0,0,0,1-.29A.8.8,0,0,0,62.9,109.57Z" fill="#482a1d"/><path d="M125.76,80.34a3.94,3.94,0,0,0-4.3.74,5.36,5.36,0,0,0-1.8,5.23,4.7,4.7,0,0,0-4.39,1.84.85.85,0,0,0-.18,1,1,1,0,0,0,.81.65.93.93,0,0,0,.9-.37,2.7,2.7,0,0,1,2-1.11,2.6,2.6,0,0,1,1.79.56,5,5,0,0,0,.72,1.56,1,1,0,0,0,.89.55.81.81,0,0,0,.45-.09,1,1,0,0,0,.54-1.2,5.3,5.3,0,0,0-1-2c-.8-1.84-.71-3.49.27-4.68a2.06,2.06,0,0,1,2.24-.83,1.66,1.66,0,0,1,1.26,1.56,1.07,1.07,0,0,0,.27.74.81.81,0,0,0,.62.27,1.17,1.17,0,0,0,1.17-1A3.57,3.57,0,0,0,125.76,80.34Z" fill="#482a1d"/><path d="M117.07,48A10.11,10.11,0,0,0,116,54,9.87,9.87,0,0,0,110,53a10,10,0,0,0,1.08-6A9.75,9.75,0,0,0,117.07,48Z" fill="#482a1d" stroke="#482a1d"/><circle cx="82" cy="115" r="3" fill="none" stroke="#482a1d" stroke-width="2"/><rect x="41.24" y="72.24" width="6" height="6" rx="2" transform="translate(-40.25 53.32) rotate(-45)" fill="#482a1d"/></g></g></svg>
