<svg width="188" xmlns="http://www.w3.org/2000/svg" viewBox="0 0 188 188"><g id="Layer_2" data-name="Layer 2"><g id="Layer_1-2" data-name="Layer 1"><path d="M72.89,8.75a29.83,29.83,0,0,1,42.22,0l64.14,64.14a29.85,29.85,0,0,1,0,42.22l-64.14,64.14a29.85,29.85,0,0,1-42.22,0L8.75,115.11a29.83,29.83,0,0,1,0-42.22Z" fill="#f7bf72"/><path d="M68.56,81.27c7,13.52,17.09,23.78,30.93,30.23l-1.77.66c-2.25.85-4.5,1.74-6.77,2.55a1.85,1.85,0,0,1-1.25,0q-17.64-7.47-22.59-26a3.3,3.3,0,0,1,0-1.53C67.56,85.2,68.07,83.22,68.56,81.27Z" fill="#482a1d"/><path d="M65.62,93.21a41.12,41.12,0,0,0,21,23.13l-5.73,2.17c-3,1.15-6.07,2.28-9.08,3.45a1,1,0,0,1-1.19-.19,18.87,18.87,0,0,1-6.8-13.84c-.06-1.18-.18-2.38-.3-3.56a10.78,10.78,0,0,1,.25-3.87C64.47,98.17,65,95.79,65.62,93.21Z" fill="#482a1d"/><path d="M130.27,122.32a25.06,25.06,0,0,1-.7,2.49,5.22,5.22,0,0,1-5.39,3.36,5.32,5.32,0,0,1-4.78-4.2,5.89,5.89,0,0,1,3-6.18,27.55,27.55,0,0,1,2.77-1.31c-.25-.27-.54-.58-.85-.88a17.42,17.42,0,0,0-9-4.62c-.92-.18-1.42-.78-1.3-1.51a1.36,1.36,0,0,1,1.73-1.1,20.24,20.24,0,0,1,12.74,8,14.43,14.43,0,0,0,2.13,2.29A9.36,9.36,0,0,1,132.88,130c-.46.88-1.16,1.18-1.9.8a1.36,1.36,0,0,1-.46-2,6.51,6.51,0,0,0-.05-6.22A1.12,1.12,0,0,0,130.27,122.32Zm-2.7-.21c-.07-.57-.1-.93-.17-1.28-.28-1.47-1-1.87-2.38-1.4a4.77,4.77,0,0,0-2.6,2,2.64,2.64,0,0,0,.88,3.76,2.59,2.59,0,0,0,3.68-1.1A12.46,12.46,0,0,0,127.57,122.11Z" fill="#482a1d"/><path d="M70,57.41a3.31,3.31,0,0,1-.55.85c-.7.75-1.5,1.42-2.18,2.19a1.67,1.67,0,0,0-.37,1.14c.1,1,.4,2,.47,3A1.83,1.83,0,0,1,66.86,66a1.66,1.66,0,0,1-1.45,0c-1-.4-1.87-1-2.82-1.41a1.55,1.55,0,0,0-1.12,0c-1,.43-1.85,1-2.81,1.42a1.34,1.34,0,0,1-2-1.49c.07-1,.37-2,.47-3a1.76,1.76,0,0,0-.39-1.15c-.66-.75-1.41-1.41-2.13-2.1a1.42,1.42,0,0,1-.52-1.55,1.45,1.45,0,0,1,1.34-.94c1.05-.14,2.08-.29,3.11-.49a1.2,1.2,0,0,0,.74-.53c.5-.92.88-1.92,1.45-2.8A2.22,2.22,0,0,1,62,51.1c.65-.13,1.1.32,1.39.9a24.41,24.41,0,0,1,1.08,2.25,1.71,1.71,0,0,0,1.72,1.23c.88.07,1.76.22,2.63.37A1.39,1.39,0,0,1,70,57.41Z" fill="#482a1d"/><path d="M126,77.69c0,.66-.49,1-1.1,1.33-3.74,1.76-7.45,3.55-11.19,5.31L98,91.83a6,6,0,0,1-.83.36A1.32,1.32,0,0,1,96,89.86a2.84,2.84,0,0,1,.52-.27l27.33-13C125,76.05,126,76.52,126,77.69Z" fill="#482a1d"/><path d="M103.34,70.26c0-1.05,0-2.1,0-3.17a1.29,1.29,0,0,1,1.43-1.45q3.26,0,6.48,0a1.31,1.31,0,0,1,1.42,1.47q0,3.19,0,6.39A1.33,1.33,0,0,1,111.23,75c-2.16,0-4.33,0-6.48,0a1.28,1.28,0,0,1-1.4-1.4C103.32,72.47,103.34,71.36,103.34,70.26Z" fill="#482a1d"/><path d="M87.35,68.64a41.8,41.8,0,0,1-4,17.86c-.31.7-.6,1.43-.91,2.13-.39.86-1,1.2-1.77.91A1.35,1.35,0,0,1,80,87.6c1-2.69,2.24-5.32,3.1-8.07a35.79,35.79,0,0,0,.87-18.23c0-.22-.08-.44-.12-.65a1.33,1.33,0,0,1,1-1.64,1.29,1.29,0,0,1,1.55,1.15c.37,2.55.65,5.12.95,7.66A3.2,3.2,0,0,1,87.35,68.64Z" fill="#482a1d"/><path d="M122,98.92a1.38,1.38,0,0,1-1.94,1.25c-2-.57-3.91-1.23-5.91-1.66a41.21,41.21,0,0,0-16.52-.12c-1.11.22-2.23.4-3.36.57a1.34,1.34,0,1,1-.42-2.64A60.91,60.91,0,0,1,107.4,95a45,45,0,0,1,13.48,2.67C121.57,97.87,122,98.27,122,98.92Z" fill="#482a1d"/><path d="M61.37,110.61a22.4,22.4,0,0,0,7,12.66l-11.11,4.22C58.66,121.76,60,116.19,61.37,110.61Z" fill="#482a1d"/><path d="M87.62,91C86.37,91,85.7,89.89,86.2,89a2.17,2.17,0,0,1,.49-.56q6.42-5.81,12.88-11.58a1.77,1.77,0,0,1,1.23-.48,1.55,1.55,0,0,1,1,.86,1.62,1.62,0,0,1-.31,1.33,12.61,12.61,0,0,1-1.64,1.54c-3.78,3.4-7.55,6.79-11.35,10.17A4.07,4.07,0,0,1,87.62,91Z" fill="#482a1d"/><path d="M99.35,65.68a4,4,0,1,1-4-4A4,4,0,0,1,99.35,65.68Zm-4,1.3a1.33,1.33,0,1,0,0-2.65A1.32,1.32,0,0,0,94,65.66,1.35,1.35,0,0,0,95.35,67Z" fill="#482a1d"/><path d="M131.35,103a4,4,0,1,1-4-4A4,4,0,0,1,131.35,103Zm-4,1.34A1.33,1.33,0,1,0,126,103,1.35,1.35,0,0,0,127.38,104.29Z" fill="#482a1d"/><path d="M86,53.65A2.66,2.66,0,1,1,83.37,51,2.67,2.67,0,0,1,86,53.65Z" fill="#482a1d"/><path d="M122,53v.5a1.33,1.33,0,1,1-2.65,0,9.73,9.73,0,0,1,0-1.08A1.33,1.33,0,0,1,120.73,51,1.35,1.35,0,0,1,122,52.45Z" fill="#482a1d"/><path d="M117.33,57.66h-.41c-1,0-1.57-.53-1.57-1.35S116,55,117,55c.33,0,.67,0,1,0a1.34,1.34,0,0,1,1.4,1.35,1.36,1.36,0,0,1-1.43,1.31Z" fill="#482a1d"/><path d="M124,57.65a6.26,6.26,0,0,1-.75,0,1.32,1.32,0,0,1,0-2.63,8.55,8.55,0,0,1,1.34,0,1.34,1.34,0,1,1,0,2.66Z" fill="#482a1d"/><path d="M119.37,59.61a4.69,4.69,0,0,1,0-.75,1.3,1.3,0,0,1,1.28-1.2,1.29,1.29,0,0,1,1.35,1.2,10,10,0,0,1,0,1.34,1.33,1.33,0,1,1-2.65,0A2.91,2.91,0,0,1,119.37,59.61Z" fill="#482a1d"/><path d="M127.35,71.72c0,.22,0,.45,0,.67a1.34,1.34,0,0,1-1.3,1.26,1.31,1.31,0,0,1-1.33-1.23,8.35,8.35,0,0,1,0-1.5,1.32,1.32,0,0,1,2.63,0C127.37,71.16,127.35,71.44,127.35,71.72Z" fill="#482a1d"/><path d="M132.05,79c-1.38,0-2-.38-2-1.29s.63-1.37,2-1.37h.5A1.33,1.33,0,0,1,134,77.6,1.36,1.36,0,0,1,132.55,79Z" fill="#482a1d"/><path d="M124.68,83.63V83.3c0-1,.52-1.65,1.34-1.65s1.31.62,1.31,1.67c0,.29,0,.61,0,.91a1.33,1.33,0,1,1-2.65,0Z" fill="#482a1d"/><path d="M121.28,71.64a2.93,2.93,0,0,1,2.27,2.23A1.26,1.26,0,0,1,121.62,75a5,5,0,0,1-1.44-1.46A1.27,1.27,0,0,1,121.28,71.64Z" fill="#482a1d"/><path d="M132,73a3,3,0,0,1-2.2,2.2,1.27,1.27,0,0,1-1.2-1.89,5.19,5.19,0,0,1,1.5-1.49A1.27,1.27,0,0,1,132,73Z" fill="#482a1d"/><path d="M132,82.35a1.27,1.27,0,0,1-1.86,1.17,5.17,5.17,0,0,1-1.52-1.5,1.27,1.27,0,0,1,1.12-1.9A3,3,0,0,1,132,82.35Z" fill="#482a1d"/></g></g></svg>
