<svg width="182" xmlns="http://www.w3.org/2000/svg" viewBox="0 0 182 190"><g id="Layer_2" data-name="Layer 2"><g id="Layer_1-2" data-name="Layer 1"><path d="M135.85,175.18c-13.08-1.82-24,2.08-33.68,10.52-6.74,5.84-15.68,5.71-22.54-.26-9.46-8.31-20.21-11.82-32.78-10.52-8.55.91-16.07-4.94-18.14-13.51A41.94,41.94,0,0,0,8.37,133.49C.73,129-2,120.25,1.51,111.94a42.26,42.26,0,0,0,0-34.54C-2,69.21,1,60.64,9,55.84c10.49-6.23,16.84-15.19,19.56-27,2.33-9.61,9.85-14.81,19.69-13.9A39.18,39.18,0,0,0,78.2,5.45c8.68-7.27,16.84-7.27,25.52,0s18.92,10.78,30.58,9.61c9.07-1,17,4.29,19,13.12,2.85,12.34,9.33,21.56,20.08,28.05,7.9,4.67,10.63,13.5,7,21.94-4.93,11.43-4.8,22.47,0,33.9,3.63,8.57.77,17.27-7.13,21.94-10.62,6.37-17.1,15.33-19.95,27.4A17.33,17.33,0,0,1,135.85,175.18Z" fill="#f7bf72"/><path d="M87.83,90.18l-.92.91,4,4,.57-.52L92,94a4.13,4.13,0,0,0,.64-1,3.34,3.34,0,0,0,.27-1.55,2.48,2.48,0,0,0-.81-1.6,2.22,2.22,0,0,0-2.32-.69A5.11,5.11,0,0,0,87.83,90.18Z" fill="#482a1d"/><path d="M112.63,90.36l6.49,6.49c1.91,1.92,2.41,4.26,1.3,6.44a6.86,6.86,0,0,1-1.16,1.57q-8.2,8.24-16.44,16.42a5.36,5.36,0,0,1-7.89,0Q81.84,108.2,68.75,95.11a1.61,1.61,0,0,1-.42-1q0-11.58,0-23.16c0-.11,0-.22,0-.37s0-.13,0-.22h5.2l.07-.08s0,0,0-.07c0-.69,0-1.37,0-2.06,0-1.67,0-3.35-.11-5a6.13,6.13,0,0,0-12.18.68,23.53,23.53,0,0,0,.4,3.31c.08.44.15.89.22,1.33.18,1.24.37,2.48.56,3.72.45,3,.9,5.93,1.32,8.9a7.26,7.26,0,0,1-4.2,7.36,7.48,7.48,0,0,1-8.59-1.59A7.26,7.26,0,0,1,49,81.81c0-2.31,0-4.63,0-6.94a1.49,1.49,0,1,1,3,0c0,.92,0,1.84,0,2.75,0,1.38,0,2.76,0,4.13a4.53,4.53,0,0,0,4.09,4.44,4.35,4.35,0,0,0,4.76-3.46,9.78,9.78,0,0,0-.14-3c0-.2-.07-.41-.1-.62-.29-2-.59-4-.89-6-.43-2.83-.86-5.65-1.26-8.49-.57-4.09,2.66-8.38,6.93-9.37A9.12,9.12,0,0,1,76.65,64c0,1.33,0,2.64,0,4v2.42h.9c4.81,0,9.6,0,14.41,0a1.51,1.51,0,0,1,1.16.49Q102.88,80.64,112.63,90.36ZM75.19,80.16A2.9,2.9,0,0,0,78,78,2.69,2.69,0,0,0,76.77,75c-.34,1.28-.81,1.77-1.63,1.74s-1.28-.56-1.51-1.78a2.76,2.76,0,0,0-1.22,3.18A2.9,2.9,0,0,0,75.19,80.16ZM96.45,93.24A5.09,5.09,0,0,1,95,95.8L93.3,97.53l1.35,1.35a.43.43,0,0,0,.25.15.93.93,0,0,0,.25-.2L98.94,95l.13-.12a.31.31,0,0,1,.24-.1.34.34,0,0,1,.32.12l1,1a.44.44,0,0,1,.12.37c0,.15,0,.29-.07.42a.72.72,0,0,1-.13.22l-3.6,3.65a.33.33,0,0,0,0,.3.54.54,0,0,0,.15.29c.3.27,1.23,1.19,2.81,2.76.26.27.24.55-.07.87s-.68.78-1,1.06l-.69.64c-.23.23-.55.15-.94-.25l-2.24-2.24L82.72,91.68c-.19-.19-.29-.36-.27-.51a1.08,1.08,0,0,1,.32-.62c.1-.13.65-.7,1.65-1.7L86,87.27a5.11,5.11,0,0,1,2.69-1.4,6.46,6.46,0,0,1,3.23.17,6.59,6.59,0,0,1,2.78,1.65,6.18,6.18,0,0,1,1.61,2.64A5.44,5.44,0,0,1,96.45,93.24Z" fill="#482a1d" fill-rule="evenodd"/><path d="M67.89,114.32a.88.88,0,0,0-.82-.59,3.06,3.06,0,0,1-2.15-1.29,2.32,2.32,0,0,1-.41-2,6.16,6.16,0,0,0,.92-1.58,1.12,1.12,0,0,0-.41-1.49,1.27,1.27,0,0,0-1.53.1,6.25,6.25,0,0,0-1.34,2,4.45,4.45,0,0,1-4.61,2.28,2.29,2.29,0,0,1-2-1.68,1.64,1.64,0,0,1,.82-2,.78.78,0,0,0,.51-.79,1.34,1.34,0,0,0-.61-1.09,1.13,1.13,0,0,0-1.13-.1,3.83,3.83,0,0,0-2,4,4.79,4.79,0,0,0,3.18,3.75,6.67,6.67,0,0,0,6.15-1.08,5.64,5.64,0,0,0,4.2,3.26h.21a1.1,1.1,0,0,0,.92-.49A1,1,0,0,0,67.89,114.32Z" fill="#482a1d"/><path d="M87.67,128v.5a1.33,1.33,0,1,1-2.65,0,9.73,9.73,0,0,1,0-1.08A1.33,1.33,0,0,1,86.38,126a1.35,1.35,0,0,1,1.29,1.45Z" fill="#482a1d"/><path d="M83,132.66h-.41c-1,0-1.57-.53-1.57-1.34s.6-1.3,1.6-1.32c.33,0,.67,0,1,0a1.34,1.34,0,0,1,1.4,1.35,1.36,1.36,0,0,1-1.43,1.31Z" fill="#482a1d"/><path d="M89.62,132.65a6.26,6.26,0,0,1-.75,0,1.29,1.29,0,0,1-1.19-1.28,1.3,1.3,0,0,1,1.2-1.35,8.55,8.55,0,0,1,1.34,0,1.34,1.34,0,1,1,0,2.66Z" fill="#482a1d"/><path d="M85,134.61a4.7,4.7,0,0,1,0-.75,1.3,1.3,0,0,1,1.28-1.2,1.29,1.29,0,0,1,1.35,1.2,10,10,0,0,1,0,1.34,1.33,1.33,0,1,1-2.65,0A2.91,2.91,0,0,1,85,134.61Z" fill="#482a1d"/><circle cx="131" cy="103" r="3" fill="none" stroke="#482a1d" stroke-width="2"/><rect x="89.24" y="56.24" width="6" height="6" rx="2" transform="translate(-14.87 82.58) rotate(-45)" fill="#482a1d"/><path d="M128.77,64.46a16.93,16.93,0,0,0-4.47-2.21c-1.3-.37-2.8-.46-3.73.65a3.62,3.62,0,0,0-.28,3.86c.38.74.75,1.48,1.21,2.21a3.52,3.52,0,0,0-1.39.19,3.74,3.74,0,0,0-2,4,3.48,3.48,0,0,0,1.4,2.21,4.09,4.09,0,0,0-.94,2c-.09.73,1,.73,1.12,0a2.41,2.41,0,0,1,.75-1.38,3.05,3.05,0,0,0,1.3.27,1.75,1.75,0,0,0,1.86-.92c.38-.92-.55-1.47-1.3-1.47a3,3,0,0,0-2,.64,2.71,2.71,0,0,1-.74-.73,2.47,2.47,0,0,1,.65-3.32,1.92,1.92,0,0,1,2.61.37c.09.09.19.27.28.37a.54.54,0,1,0,.93-.56,4.48,4.48,0,0,0-.28-.64,31.34,31.34,0,0,1-1.86-3c-.65-1-1.21-2.3-.47-3.41s2.14-.55,3.08-.18a17.51,17.51,0,0,1,3.63,1.93C128.77,65.93,129.33,64.92,128.77,64.46Zm-6.61,10.78h0Z" fill="#482a1d" stroke="#482a1d"/></g></g></svg>
