<svg width="100" height="100" viewBox="0 0 100 100" fill="none" xmlns="http://www.w3.org/2000/svg">
<path d="M17.2388 73.1751C10.5737 73.2853 5.67732 68.3646 6.04967 61.8648C6.21723 59.0005 7.57631 56.6686 9.73594 54.7958C10.9647 53.7309 11.8583 52.4824 12.1748 50.885C12.6961 48.2593 11.8956 46.056 9.88488 44.2934C7.96728 42.6042 6.66405 40.6028 6.17999 38.1057C5.00709 32.1017 9.71732 26.0977 15.917 25.7855C16.9968 25.7305 18.0952 25.8406 19.175 25.7121C23.1219 25.198 25.5981 22.297 25.4491 18.3677C25.3374 15.3565 26.138 12.6758 28.2418 10.4542C32.5983 5.84556 39.8405 5.84556 44.2901 10.4725C45.7609 12.0148 47.4737 13.0063 49.6333 13.0981C52.0163 13.2083 53.9712 12.3086 55.5723 10.5827C58.0112 7.95707 61.0459 6.78197 64.6577 7.03902C70.094 7.40624 74.5063 11.9965 74.5622 17.3762C74.5808 18.3494 74.4877 19.3592 74.6925 20.2956C75.3627 23.5271 78.2485 25.7121 81.6741 25.7855C83.089 25.8223 84.5598 25.7672 85.9189 26.116C89.9961 27.1443 92.6212 29.7699 93.6451 33.7726C94.6505 37.7202 93.4962 41.1537 90.4802 43.9262C89.2328 45.0829 88.153 46.3131 87.7992 48.0023C87.2593 50.6646 88.0785 52.8863 90.1264 54.6857C92.044 56.3565 93.3287 58.3762 93.8127 60.8917C94.967 66.8406 90.2381 72.8446 84.113 73.1568C83.0332 73.2119 81.9347 73.1017 80.8549 73.2302C77.0755 73.6525 74.2829 76.7922 74.5063 80.648C74.7484 84.9261 72.9983 88.2678 69.2189 90.4711C64.6763 93.1151 59.2772 92.2705 55.5723 88.3964C52.6307 85.3301 48.3115 84.9812 45.221 87.5885C44.7369 88.0108 44.3087 88.5065 43.8433 88.9472C40.641 92.0135 35.9867 92.8213 31.8536 91.0587C27.7949 89.3144 25.1326 85.5504 25.4678 81.1989C25.8401 76.3883 22.1725 72.7161 17.2388 73.1751Z" fill="#F7BF72"/>
<path d="M52.4009 52.9063C52.1463 51.998 51.9066 51.1499 51.6745 50.2942C50.8507 47.3068 50.0194 44.3269 49.2106 41.3395C49.0908 40.9041 48.8586 40.6264 48.4542 40.4463C45.9304 39.3204 43.0547 40.8291 42.5604 43.5463C42.4855 43.9666 42.6428 44.3044 42.9124 44.6046C44.9269 46.8264 46.9414 49.0482 48.956 51.27C49.9969 52.4184 51.0379 53.5668 52.0564 54.7528C51.4123 54.4225 50.656 54.3324 50.1317 53.7545C47.6005 50.9547 45.0318 48.1925 42.5529 45.3477C41.6617 44.3269 40.6582 44.1017 39.4749 44.432C37.7225 44.9199 36.5318 46.0082 36.1349 47.8547C36.1049 48.0123 36.1049 48.1775 36.0899 48.3426C36.0525 48.7479 36.2397 48.9881 36.5992 49.1533C39.6322 50.5494 42.6652 51.953 45.6983 53.3491C45.9604 53.4692 46.215 53.5893 46.4846 53.7169C46.3798 53.9571 46.2899 54.1823 46.1851 54.445C45.4212 54.0922 44.6648 53.747 43.9159 53.3942C41.4146 52.2382 38.9058 51.0973 36.4195 49.9189C36.0525 49.7462 35.7155 49.431 35.4758 49.1007C32.3529 44.8523 32.4503 38.6974 35.7305 34.5541C38.2842 31.3265 41.6467 29.6526 45.7582 29.8102C50.5886 29.9979 54.1159 32.3848 56.3625 36.6708C56.8119 37.5189 56.707 38.4197 56.6097 39.3129C56.3401 41.7748 56.063 44.2293 55.7859 46.7138C55.5238 46.7138 55.2692 46.7138 54.9846 46.7138C55.0894 45.753 55.1943 44.7998 55.2991 43.8465C55.5088 41.955 55.726 40.071 55.9282 38.1795C56.0031 37.4664 55.8383 37.2112 55.1868 36.9335C53.2696 36.1153 50.5736 37.1812 49.7123 39.0952C49.5476 39.4555 49.6075 39.8008 49.7049 40.1535C50.7383 43.899 51.7419 47.6446 52.8278 51.375C53.015 52.0431 52.7004 52.3884 52.4009 52.9063Z" fill="#482A1D"/>
<path d="M47.9299 53.8671C47.9973 53.8897 48.1546 53.9272 48.2969 53.9872C50.4612 54.9255 52.6105 55.8788 54.7823 56.7945C55.8757 57.2599 56.6171 57.9729 56.9317 59.1514C57.1488 59.9695 57.4559 60.7652 57.748 61.5608C57.8079 61.7184 57.9651 61.8911 58.1224 61.9586C58.8339 62.2814 59.5603 62.5816 60.2942 62.8744C60.7286 63.047 60.9757 63.3172 61.0656 63.7901C61.2678 64.8485 61.5074 65.8918 61.7246 66.9426C61.8444 67.5356 61.5299 68.0385 60.9682 68.1736C60.4365 68.3012 59.9048 67.9559 59.77 67.3705C59.5828 66.5523 59.403 65.7342 59.2532 64.916C59.2083 64.6758 59.096 64.5482 58.8863 64.4581C57.9277 64.0678 56.9841 63.64 56.018 63.2722C55.4114 63.0395 55.0295 62.6417 54.8048 62.0412C54.3255 60.7802 53.8238 59.5267 53.3145 58.2807C53.2471 58.108 53.0749 57.9279 52.9026 57.8528C51.1427 57.0572 49.3678 56.2916 47.6004 55.511C47.0912 55.2858 46.8815 54.8955 47.0163 54.4451C47.1286 54.0923 47.4507 53.8596 47.9299 53.8671Z" fill="#482A1D"/>
<path d="M58.2198 60.4124C58.8713 60.54 59.5229 60.6601 60.1819 60.7877C61.0506 60.9603 61.9118 61.1405 62.7805 61.3056C63.3123 61.4032 63.6118 61.7109 63.7167 62.2364C63.9264 63.2647 64.151 64.2855 64.3682 65.3138C64.503 65.9593 64.2034 66.4923 63.6268 66.6274C63.0651 66.7625 62.5559 66.4022 62.4061 65.7567C62.2189 64.931 62.0391 64.0979 61.8744 63.2647C61.792 62.8594 61.5673 62.5966 61.2004 62.439C60.5114 62.1538 59.8374 61.8235 59.1259 61.5908C58.5568 61.3957 58.2572 61.0429 58.2198 60.4124Z" fill="#482A1D"/>
<path d="M55.1268 55.8337C54.1008 55.8337 53.2696 55.0231 53.2546 54.0023C53.2396 52.9814 54.1008 52.1182 55.1268 52.1182C56.1528 52.1182 56.9916 52.9664 56.9841 54.0023C56.9841 55.0231 56.1603 55.8337 55.1268 55.8337Z" fill="#482A1D"/>
<path d="M55.8907 51.3376C55.2916 51.3676 54.7524 51.3902 54.1832 51.4127C54.2506 50.8047 54.318 50.1517 54.3929 49.4986C54.4304 49.1534 54.4678 48.8006 54.5277 48.4628C54.6026 48.0275 54.9845 47.7572 55.4264 47.7948C55.8458 47.8248 56.2052 48.1626 56.1678 48.5829C56.1004 49.5137 55.9806 50.4519 55.8907 51.3376Z" fill="#482A1D"/>
</svg>
