<svg width="100" height="100" viewBox="0 0 100 100" fill="none" xmlns="http://www.w3.org/2000/svg">
<path d="M90.4395 62.5161C86.2522 58.097 84.8786 54.9158 84.932 49.6582C84.9586 44.8531 86.5722 41.3259 90.6261 37.2129C93.0798 34.7106 94 33.3263 94 32.1683C94 31.6226 93.7866 31.383 92.8131 30.957C91.8397 30.5311 90.9195 30.398 87.8657 30.3315C82.6783 30.225 80.4113 29.5994 77.0908 27.3899C74.0636 25.3933 71.8766 22.4916 70.5031 18.7115C70.0764 17.5268 69.9297 16.1825 69.7697 12.6951C69.6096 9.07471 69.4763 7.96994 69.0762 7.15801C68.0761 5.13482 66.7559 5.62731 62.4352 9.74023C60.3549 11.7102 59.2481 12.5221 57.5545 13.374C52.5937 15.8231 47.3796 15.8231 42.4322 13.374C40.7386 12.5354 39.6318 11.7235 37.4048 9.60713C35.8445 8.10305 34.1109 6.69214 33.6042 6.45255C33.0841 6.21297 32.4173 6.01331 32.0973 6C30.8838 6 30.2303 8.36926 30.2303 12.8416C30.2303 18.0193 28.6968 21.9725 25.3629 25.34C24.0694 26.6312 22.8826 27.523 21.4157 28.2817C18.4419 29.799 16.5616 30.225 12.1076 30.3581C9.08047 30.4379 8.08032 30.571 7.16018 30.957C6.21337 31.383 6 31.6093 6 32.1683C6 33.3263 6.92014 34.6973 9.5072 37.3461C14.2279 42.1644 15.9882 47.3954 14.8547 53.0923C14.1212 56.7526 12.801 59.1086 9.56054 62.5028C6.70677 65.5375 6 66.5358 6 67.614C6 69.0382 7.76027 69.6105 12.1876 69.6371C17.8818 69.6638 21.7757 71.1412 25.2562 74.6019C27.4166 76.7848 28.5501 78.5418 29.4702 81.2039C29.9236 82.5749 30.0703 83.7861 30.2303 87.2468C30.417 91.7724 30.7638 93.2765 31.8439 93.902C32.5774 94.3546 34.4576 93.1966 36.8447 90.854C39.4051 88.3516 40.9253 87.2468 43.219 86.1953C47.3529 84.3318 52.6204 84.3318 56.7544 86.1953C59.1014 87.2468 60.6216 88.3782 63.1287 90.854C65.3957 93.0901 67.2359 94.2481 68.1294 93.9553C69.1029 93.6358 69.5296 91.8789 69.743 87.2468C69.903 83.7994 70.063 82.5616 70.5031 81.2039C72.2367 76.1592 76.1973 72.2327 81.2514 70.5289C82.985 69.9566 83.9985 69.7969 87.6524 69.6371C90.0527 69.5307 92.2397 69.3443 92.5198 69.2378C93.9733 68.6522 94.3067 67.6539 93.5733 66.2164C93.3732 65.7771 91.9464 64.1133 90.4395 62.5161Z" fill="#F7BF72"/>
<path d="M52.4009 52.9062C52.1463 51.998 51.9066 51.1498 51.6745 50.2941C50.8507 47.3067 50.0194 44.3268 49.2106 41.3394C49.0908 40.9041 48.8586 40.6264 48.4542 40.4462C45.9304 39.3203 43.0547 40.829 42.5604 43.5462C42.4855 43.9665 42.6428 44.3043 42.9124 44.6046C44.9269 46.8263 46.9414 49.0481 48.956 51.2699C49.9969 52.4183 51.0379 53.5667 52.0564 54.7527C51.4123 54.4224 50.656 54.3324 50.1317 53.7544C47.6005 50.9547 45.0318 48.1924 42.5529 45.3477C41.6617 44.3268 40.6582 44.1017 39.4749 44.4319C37.7225 44.9198 36.5318 46.0082 36.1349 47.8547C36.1049 48.0123 36.1049 48.1774 36.0899 48.3426C36.0525 48.7479 36.2397 48.9881 36.5992 49.1532C39.6322 50.5493 42.6652 51.953 45.6983 53.3491C45.9604 53.4692 46.215 53.5893 46.4846 53.7169C46.3798 53.9571 46.2899 54.1822 46.1851 54.4449C45.4212 54.0922 44.6648 53.7469 43.9159 53.3941C41.4146 52.2382 38.9058 51.0973 36.4195 49.9188C36.0525 49.7462 35.7155 49.4309 35.4758 49.1007C32.3529 44.8523 32.4503 38.6973 35.7305 34.554C38.2842 31.3264 41.6467 29.6526 45.7582 29.8102C50.5886 29.9978 54.1159 32.3848 56.3625 36.6707C56.8119 37.5189 56.707 38.4196 56.6097 39.3128C56.3401 41.7748 56.063 44.2293 55.7859 46.7137C55.5238 46.7137 55.2692 46.7137 54.9846 46.7137C55.0894 45.753 55.1943 44.7997 55.2991 43.8464C55.5088 41.9549 55.726 40.0709 55.9282 38.1794C56.0031 37.4663 55.8383 37.2111 55.1868 36.9334C53.2696 36.1152 50.5736 37.1811 49.7123 39.0951C49.5476 39.4554 49.6075 39.8007 49.7049 40.1535C50.7383 43.899 51.7419 47.6445 52.8278 51.375C53.015 52.043 52.7004 52.3883 52.4009 52.9062Z" fill="#482A1D"/>
<path d="M47.9299 53.8671C47.9973 53.8896 48.1546 53.9271 48.2969 53.9872C50.4612 54.9254 52.6105 55.8787 54.7823 56.7944C55.8757 57.2598 56.6171 57.9729 56.9317 59.1513C57.1488 59.9695 57.4559 60.7651 57.748 61.5608C57.8079 61.7184 57.9651 61.891 58.1224 61.9586C58.8339 62.2813 59.5603 62.5816 60.2942 62.8743C60.7286 63.0469 60.9757 63.3172 61.0656 63.79C61.2678 64.8484 61.5074 65.8917 61.7246 66.9426C61.8444 67.5355 61.5299 68.0385 60.9682 68.1736C60.4365 68.3012 59.9048 67.9559 59.77 67.3704C59.5828 66.5523 59.403 65.7341 59.2532 64.9159C59.2083 64.6758 59.096 64.5482 58.8863 64.4581C57.9277 64.0678 56.9841 63.6399 56.018 63.2721C55.4114 63.0394 55.0295 62.6416 54.8048 62.0411C54.3255 60.7801 53.8238 59.5266 53.3145 58.2806C53.2471 58.108 53.0749 57.9278 52.9026 57.8528C51.1427 57.0571 49.3678 56.2915 47.6004 55.5109C47.0912 55.2857 46.8815 54.8954 47.0163 54.445C47.1286 54.0923 47.4507 53.8596 47.9299 53.8671Z" fill="#482A1D"/>
<path d="M58.2198 60.4123C58.8713 60.5399 59.5229 60.66 60.1819 60.7876C61.0506 60.9603 61.9118 61.1404 62.7805 61.3056C63.3123 61.4031 63.6118 61.7109 63.7167 62.2363C63.9264 63.2646 64.151 64.2854 64.3682 65.3138C64.503 65.9593 64.2034 66.4922 63.6268 66.6273C63.0651 66.7624 62.5559 66.4021 62.4061 65.7566C62.2189 64.931 62.0391 64.0978 61.8744 63.2646C61.792 62.8593 61.5673 62.5966 61.2004 62.439C60.5114 62.1537 59.8374 61.8235 59.1259 61.5908C58.5568 61.3956 58.2572 61.0428 58.2198 60.4123Z" fill="#482A1D"/>
<path d="M55.1268 55.8337C54.1008 55.8337 53.2696 55.023 53.2546 54.0022C53.2396 52.9814 54.1008 52.1182 55.1268 52.1182C56.1528 52.1182 56.9916 52.9664 56.9841 54.0022C56.9841 55.023 56.1603 55.8337 55.1268 55.8337Z" fill="#482A1D"/>
<path d="M55.8907 51.3376C55.2916 51.3676 54.7524 51.3901 54.1832 51.4126C54.2506 50.8046 54.318 50.1516 54.3929 49.4986C54.4304 49.1533 54.4678 48.8005 54.5277 48.4627C54.6026 48.0274 54.9845 47.7572 55.4264 47.7947C55.8458 47.8247 56.2052 48.1625 56.1678 48.5828C56.1004 49.5136 55.9806 50.4518 55.8907 51.3376Z" fill="#482A1D"/>
</svg>
