<svg width="100" height="100" viewBox="0 0 100 100" fill="none" xmlns="http://www.w3.org/2000/svg">
<path d="M70.7006 87.1354C64.6614 86.2934 59.6388 88.0977 55.1543 92.0071C52.0451 94.7137 47.9193 94.6535 44.7503 91.8869C40.3854 88.0376 35.4226 86.4137 29.6226 87.0151C25.6763 87.4361 22.2083 84.7296 21.2516 80.7601C19.9361 75.0463 16.8867 70.8362 11.864 67.8289C8.33625 65.7238 7.08059 61.6941 8.69501 57.8449C10.9671 52.4318 10.9671 47.2594 8.69501 41.8463C7.08059 38.0572 8.45583 34.0876 12.163 31.8623C17.0063 28.9753 19.9361 24.8253 21.1918 19.3522C22.2681 14.9014 25.7361 12.4956 30.2803 12.9167C35.5422 13.3978 40.0864 11.8942 44.0926 8.52608C48.0987 5.15797 51.8657 5.15797 55.8718 8.52608C59.9378 11.9543 64.6016 13.5181 69.983 12.9768C74.1686 12.4956 77.8159 14.9616 78.7726 19.0514C80.0881 24.7652 83.0777 29.0355 88.0406 32.0427C91.688 34.2079 92.9436 38.2978 91.2694 42.2072C88.9973 47.5 89.0571 52.6123 91.2694 57.905C92.9436 61.8746 91.6282 65.9043 87.9808 68.0695C83.0777 71.0166 80.0881 75.1666 78.7726 80.7601C77.8757 84.7296 74.4675 87.2557 70.7006 87.1354Z" fill="#F7BF72"/>
<path d="M52.4009 52.9062C52.1463 51.998 51.9066 51.1498 51.6745 50.2941C50.8507 47.3067 50.0194 44.3268 49.2106 41.3394C49.0908 40.9041 48.8586 40.6264 48.4542 40.4462C45.9304 39.3203 43.0547 40.829 42.5604 43.5462C42.4855 43.9665 42.6428 44.3043 42.9124 44.6046C44.9269 46.8263 46.9414 49.0481 48.956 51.2699C49.9969 52.4183 51.0379 53.5667 52.0564 54.7527C51.4123 54.4224 50.656 54.3324 50.1317 53.7544C47.6005 50.9547 45.0318 48.1924 42.5529 45.3477C41.6617 44.3268 40.6582 44.1017 39.4749 44.4319C37.7225 44.9198 36.5318 46.0082 36.1349 47.8547C36.1049 48.0123 36.1049 48.1774 36.0899 48.3426C36.0525 48.7479 36.2397 48.9881 36.5992 49.1532C39.6322 50.5493 42.6652 51.953 45.6983 53.3491C45.9604 53.4692 46.215 53.5893 46.4846 53.7169C46.3798 53.9571 46.2899 54.1822 46.1851 54.4449C45.4212 54.0922 44.6648 53.7469 43.9159 53.3941C41.4146 52.2382 38.9058 51.0973 36.4195 49.9188C36.0525 49.7462 35.7155 49.4309 35.4758 49.1007C32.3529 44.8523 32.4503 38.6973 35.7305 34.554C38.2842 31.3264 41.6467 29.6526 45.7582 29.8102C50.5886 29.9978 54.1159 32.3848 56.3625 36.6707C56.8119 37.5189 56.707 38.4196 56.6097 39.3128C56.3401 41.7748 56.063 44.2293 55.7859 46.7137C55.5238 46.7137 55.2692 46.7137 54.9846 46.7137C55.0894 45.753 55.1943 44.7997 55.2991 43.8464C55.5088 41.9549 55.726 40.0709 55.9282 38.1794C56.0031 37.4663 55.8383 37.2111 55.1868 36.9334C53.2696 36.1152 50.5736 37.1811 49.7123 39.0951C49.5476 39.4554 49.6075 39.8007 49.7049 40.1535C50.7383 43.899 51.7419 47.6445 52.8278 51.375C53.015 52.043 52.7004 52.3883 52.4009 52.9062Z" fill="#482A1D"/>
<path d="M47.9299 53.8671C47.9973 53.8896 48.1546 53.9271 48.2969 53.9872C50.4612 54.9254 52.6105 55.8787 54.7823 56.7944C55.8757 57.2598 56.6171 57.9729 56.9317 59.1513C57.1488 59.9695 57.4559 60.7651 57.748 61.5608C57.8079 61.7184 57.9651 61.891 58.1224 61.9586C58.8339 62.2813 59.5603 62.5816 60.2942 62.8743C60.7286 63.0469 60.9757 63.3172 61.0656 63.79C61.2678 64.8484 61.5074 65.8917 61.7246 66.9426C61.8444 67.5355 61.5299 68.0385 60.9682 68.1736C60.4365 68.3012 59.9048 67.9559 59.77 67.3704C59.5828 66.5523 59.403 65.7341 59.2532 64.9159C59.2083 64.6758 59.096 64.5482 58.8863 64.4581C57.9277 64.0678 56.9841 63.6399 56.018 63.2721C55.4114 63.0394 55.0295 62.6416 54.8048 62.0411C54.3255 60.7801 53.8238 59.5266 53.3145 58.2806C53.2471 58.108 53.0749 57.9278 52.9026 57.8528C51.1427 57.0571 49.3678 56.2915 47.6004 55.5109C47.0912 55.2857 46.8815 54.8954 47.0163 54.445C47.1286 54.0923 47.4507 53.8596 47.9299 53.8671Z" fill="#482A1D"/>
<path d="M58.2198 60.4123C58.8713 60.5399 59.5229 60.66 60.1819 60.7876C61.0506 60.9603 61.9118 61.1404 62.7805 61.3056C63.3123 61.4031 63.6118 61.7109 63.7167 62.2363C63.9264 63.2646 64.151 64.2854 64.3682 65.3138C64.503 65.9593 64.2034 66.4922 63.6268 66.6273C63.0651 66.7624 62.5559 66.4021 62.4061 65.7566C62.2189 64.931 62.0391 64.0978 61.8744 63.2646C61.792 62.8593 61.5673 62.5966 61.2004 62.439C60.5114 62.1537 59.8374 61.8235 59.1259 61.5908C58.5568 61.3956 58.2572 61.0428 58.2198 60.4123Z" fill="#482A1D"/>
<path d="M55.1268 55.8337C54.1008 55.8337 53.2696 55.023 53.2546 54.0022C53.2396 52.9814 54.1008 52.1182 55.1268 52.1182C56.1528 52.1182 56.9916 52.9664 56.9841 54.0022C56.9841 55.023 56.1603 55.8337 55.1268 55.8337Z" fill="#482A1D"/>
<path d="M55.8907 51.3376C55.2916 51.3676 54.7524 51.3901 54.1832 51.4126C54.2506 50.8046 54.318 50.1516 54.3929 49.4986C54.4304 49.1533 54.4678 48.8005 54.5277 48.4627C54.6026 48.0274 54.9845 47.7572 55.4264 47.7947C55.8458 47.8247 56.2052 48.1625 56.1678 48.5828C56.1004 49.5136 55.9806 50.4518 55.8907 51.3376Z" fill="#482A1D"/>
</svg>
