<svg width="30" height="20" viewBox="0 0 30 20" fill="none" xmlns="http://www.w3.org/2000/svg">
<path d="M18.7564 2.8957L11.0098 2.92236L11.2446 17.1047L18.9913 17.078L18.7564 2.8957Z" fill="#FF5F00"/>
<path d="M11.5201 10.0421C11.4722 7.1575 12.7643 4.59443 14.7883 2.9319C13.2606 1.73308 11.3453 1.01218 9.26909 1.0193C4.35047 1.03616 0.438241 5.08821 0.521238 10.0798C0.604234 15.0713 4.65076 19.0961 9.56937 19.0792C11.6456 19.0721 13.5367 18.3382 15.0244 17.129C12.9458 15.5056 11.5681 12.9266 11.5201 10.0421Z" fill="#EB001B"/>
<path d="M29.4806 9.9206C29.5635 14.9122 25.6513 18.9642 20.7327 18.9811C18.6565 18.9882 16.7412 18.2673 15.2135 17.0685C17.2622 15.4059 18.5296 12.8429 18.4816 9.9583C18.4337 7.07373 17.0564 4.51982 14.9774 2.87135C16.4651 1.66219 18.3562 0.928248 20.4324 0.921131C25.351 0.904269 29.398 4.95411 29.4806 9.9206Z" fill="#F79E1B"/>
</svg>
