<svg width="30" height="10" viewBox="0 0 30 10" fill="none" xmlns="http://www.w3.org/2000/svg">
<path d="M26.9163 0.654297H21.1406C21.4771 2.56084 23.3275 4.35524 25.3462 4.35524H29.9444C30.0004 4.18701 30.0004 3.90663 30.0004 3.73841C30.0004 2.05617 28.5986 0.654297 26.9163 0.654297Z" fill="url(#paint0_linear_1011_4654)"/>
<path d="M21.6445 4.69189V9.34609H24.4483V6.87881H26.9156C28.2614 6.87881 29.4389 5.92554 29.8315 4.69189H21.6445Z" fill="#4FAD50"/>
<path d="M11.7754 0.654297V9.28982H14.2427C14.2427 9.28982 14.8595 9.28981 15.196 8.67299C16.8782 5.36458 17.3829 4.35524 17.3829 4.35524H17.7193V9.28982H20.5231V0.654297H18.0558C18.0558 0.654297 17.4389 0.710375 17.1025 1.27112C15.7006 4.13094 14.9156 5.58888 14.9156 5.58888H14.5791V0.654297H11.7754Z" fill="#4FAD50"/>
<path d="M0 9.34596V0.710449H2.80374C2.80374 0.710449 3.58879 0.710447 4.03739 1.94409C5.15889 5.19643 5.27104 5.64503 5.27104 5.64503C5.27104 5.64503 5.49533 4.85998 6.50468 1.94409C6.95328 0.710447 7.73833 0.710449 7.73833 0.710449H10.5421V9.34596H7.73833V4.69176H7.40188L5.83179 9.34596H4.59814L3.02805 4.69176H2.6916V9.34596H0Z" fill="#4FAD50"/>
<defs>
<linearGradient id="paint0_linear_1011_4654" x1="21.1306" y1="2.53129" x2="29.9806" y2="2.53129" gradientUnits="userSpaceOnUse">
<stop stop-color="#27B1E6"/>
<stop offset="1" stop-color="#148ACA"/>
</linearGradient>
</defs>
</svg>
