<svg width="9" height="16" viewBox="0 0 9 16" fill="none" xmlns="http://www.w3.org/2000/svg">
<path d="M6.14179 11.6282C6.97017 11.4335 7.76079 11.0973 8.48061 10.6337C8.73437 10.4579 8.91156 10.1876 8.97467 9.88013C9.03779 9.57263 8.98189 9.25199 8.8188 8.98604C8.6557 8.7201 8.39822 8.5297 8.1008 8.45514C7.80339 8.38058 7.48939 8.4277 7.22522 8.58654C6.41246 9.10734 5.47357 9.38346 4.51543 9.38346C3.5573 9.38346 2.61841 9.10734 1.80565 8.58654C1.54179 8.41579 1.22277 8.35933 0.918438 8.42953C0.61411 8.49972 0.349288 8.69086 0.181972 8.96106V8.96356C0.0993084 9.09774 0.0432557 9.24735 0.0170263 9.40381C-0.00920303 9.56026 -0.0050933 9.7205 0.0291199 9.87532C0.0633331 10.0301 0.126977 10.1765 0.216404 10.306C0.305832 10.4356 0.419284 10.5457 0.550259 10.6302L0.552207 10.6327C1.27017 11.0964 2.05948 11.432 2.88664 11.6252L0.635998 13.9349C0.41563 14.1569 0.290031 14.4595 0.286743 14.7765C0.283455 15.0934 0.402748 15.3987 0.61846 15.6255L0.638433 15.646C0.862036 15.8825 1.16407 16 1.46611 16C1.76814 16 2.06969 15.8825 2.2928 15.646L4.51568 13.3773L6.7254 15.649C7.19501 16.1095 7.94084 16.099 8.39292 15.6175C8.60508 15.392 8.72367 15.0909 8.72367 14.7774C8.72367 14.464 8.60508 14.1628 8.39292 13.9374L6.14179 11.6282ZM4.51519 8.25852C5.58185 8.25786 6.60467 7.82277 7.3591 7.04877C8.11353 6.27477 8.53791 5.22512 8.53907 4.13026C8.53907 1.85412 6.73271 0 4.51519 0C2.29767 0 0.491313 1.85412 0.491313 4.13026C0.492474 5.22535 0.916774 6.27526 1.67113 7.04965C2.42549 7.82405 3.4483 8.25969 4.51519 8.26102V8.25852ZM4.51519 2.42215C4.95646 2.42242 5.37958 2.60246 5.69161 2.92274C6.00364 3.24301 6.17904 3.67732 6.1793 4.13026C6.17917 4.58356 6.00392 5.01831 5.69196 5.33917C5.38 5.66003 4.95681 5.84081 4.51519 5.84187C4.07338 5.84068 3.65001 5.65993 3.3377 5.33917C3.02538 5.01841 2.84954 4.58375 2.84864 4.13026C2.85018 3.67706 3.02626 3.24288 3.33847 2.92242C3.65067 2.60196 4.07367 2.42123 4.51519 2.41965V2.42215Z" fill="#F7BF72"/>
</svg>
