<svg width="667" height="483" viewBox="0 0 667 483" fill="none" xmlns="http://www.w3.org/2000/svg">
<path d="M279.473 54.6693C249.949 69.2684 221.313 89.8932 206.28 119.198C191.382 148.241 199.349 182.877 197.008 215.425C194.696 247.57 185.691 279.295 192.5 310.79C199.758 344.362 215.006 376.037 237.366 402.1C260.754 429.36 288.56 457.669 323.928 463.98C359.252 470.284 391.953 445.705 426.465 435.845C456.724 427.2 489.481 426.437 515.792 409.164C542.167 391.849 554.587 360.845 576.002 337.674C602.835 308.639 644.99 291.754 658.6 254.64C672.358 217.121 669.087 171.56 649.729 136.623C630.466 101.856 586.247 91.2812 554.694 67.112C526.314 45.3731 507.547 6.2813 472.234 0.661913C436.229 -5.06759 405.913 28.0095 370.796 37.8483C340.611 46.3056 307.575 40.773 279.473 54.6693Z" fill="#D964A3"/>
<path d="M350.877 475.737C384.167 469.097 418.178 456.229 440.957 431.104C463.532 406.203 464.829 369.643 475.834 337.908C486.703 306.565 504.125 277.426 505.738 244.298C507.458 208.985 500.716 173.427 485.396 141.551C469.373 108.212 449.228 72.6513 415.692 56.9437C382.198 41.2557 343.085 56.9701 306.091 57.5685C273.657 58.0932 240.835 50.115 210.032 60.2704C179.155 70.4508 158.524 97.9622 131.025 115.288C96.5674 136.997 50.0912 142.542 26.6481 175.81C2.94881 209.442 -5.93619 255.611 4.02894 295.509C13.9455 335.212 55.1591 357.519 80.137 389.963C102.603 419.145 110.873 463.015 144.539 478.021C178.865 493.32 217.868 468.52 255.458 468.104C287.769 467.747 319.19 482.058 350.877 475.737Z" fill="#FFEED5"/>
</svg>
