<svg width="30" height="10" viewBox="0 0 30 10" fill="none" xmlns="http://www.w3.org/2000/svg">
<path d="M27.9829 0.525879H26.0969C25.5268 0.525879 25.0882 0.701318 24.825 1.27149L21.2285 9.47325H23.7724C23.7724 9.47325 24.211 8.37676 24.2987 8.1136C24.5618 8.1136 27.0618 8.1136 27.4127 8.1136C27.5004 8.42062 27.7197 9.42939 27.7197 9.42939H30.0004L27.9829 0.525879ZM25.0004 6.27149C25.2197 5.74518 25.9654 3.77149 25.9654 3.77149C25.9654 3.81535 26.1847 3.24518 26.2724 2.93816L26.4478 3.72763C26.4478 3.72763 26.9303 5.87676 27.018 6.31535H25.0004V6.27149Z" fill="#3362AB"/>
<path d="M21.4034 6.53488C21.4034 8.37699 19.7367 9.60506 17.149 9.60506C16.0525 9.60506 14.9999 9.38576 14.4297 9.1226L14.7806 7.10506L15.0876 7.23664C15.8771 7.58751 16.4034 7.71909 17.3683 7.71909C18.07 7.71909 18.8157 7.45593 18.8157 6.8419C18.8157 6.44716 18.5086 6.184 17.5437 5.74541C16.6227 5.30681 15.3946 4.60506 15.3946 3.33313C15.3946 1.57874 17.1051 0.394531 19.5174 0.394531C20.4385 0.394531 21.2279 0.56997 21.7104 0.789268L21.3595 2.71909L21.1841 2.54365C20.7455 2.36822 20.1753 2.19278 19.342 2.19278C18.4209 2.23664 17.9823 2.63137 17.9823 2.98225C17.9823 3.37699 18.5086 3.684 19.342 4.07874C20.7455 4.73664 21.4034 5.48225 21.4034 6.53488Z" fill="#3362AB"/>
<path d="M0 0.613915L0.0438596 0.438477H3.81579C4.3421 0.438477 4.73684 0.613915 4.86842 1.18409L5.70175 5.13146C4.86842 3.0262 2.9386 1.31567 0 0.613915Z" fill="#F9B50B"/>
<path d="M11.0086 0.526282L7.19281 9.42979H4.60509L2.41211 1.97365C3.99106 2.98242 5.30685 4.56137 5.7893 5.65786L6.05246 6.57891L8.42088 0.482422H11.0086V0.526282Z" fill="#3362AB"/>
<path d="M12.0175 0.482422H14.4298L12.8947 9.42979H10.4824L12.0175 0.482422Z" fill="#3362AB"/>
</svg>
