<svg width="18" height="10" viewBox="0 0 18 10" fill="none" xmlns="http://www.w3.org/2000/svg">
<path fill-rule="evenodd" clip-rule="evenodd" d="M8.83383 9.93714H9.92517C9.92517 9.93714 10.2526 9.88428 10.4163 9.72571C10.58 9.56713 10.58 9.24999 10.58 9.24999C10.58 9.24999 10.58 7.87571 11.2348 7.66428C11.8896 7.45285 12.7627 9.03856 13.6357 9.61999C14.2906 10.0957 14.7817 9.98999 14.7817 9.98999L17.1826 9.93714C17.1826 9.93714 18.4377 9.88428 17.8374 8.87999C17.7829 8.82714 17.51 8.19285 16.0367 6.87142C14.5088 5.49714 14.7271 5.76142 16.5278 3.38285C17.6192 1.95571 18.0557 1.11 17.9466 0.687142C17.8374 0.317142 17.0189 0.422856 17.0189 0.422856H14.2906C14.2906 0.422856 14.0723 0.369999 13.9631 0.475714C13.7994 0.581428 13.7449 0.739999 13.7449 0.739999C13.7449 0.739999 13.3083 1.85 12.7627 2.80143C11.5622 4.75714 11.0711 4.86285 10.9074 4.75714C10.4708 4.49285 10.58 3.59428 10.58 3.01285C10.58 1.11 10.9074 0.317142 9.97974 0.105714C9.70691 0.0528565 9.48864 0 8.72469 0C7.74248 0 6.92398 -2.04784e-07 6.48744 0.211428C6.16003 0.369999 5.94177 0.687142 6.10547 0.687142C6.26917 0.687142 6.70571 0.792857 6.92398 1.05714C7.14225 1.53286 7.14224 2.32571 7.14224 2.32571C7.14224 2.32571 7.30595 4.59857 6.76027 4.86285C6.3783 5.07428 5.8872 4.65142 4.79585 2.85428C4.25018 1.95571 3.81364 0.89857 3.81364 0.89857C3.81364 0.89857 3.75908 0.687142 3.59537 0.581428C3.43167 0.475714 3.15884 0.422856 3.15884 0.422856H0.594177C0.594177 0.422856 0.212206 0.422857 0.0485042 0.581428C-0.0606303 0.74 0.0485042 1.00428 0.0485042 1.00428C0.0485042 1.00428 2.06749 5.55 4.35932 7.87571C6.48744 10.0957 8.83383 9.93714 8.83383 9.93714Z" fill="#F7BF72"/>
</svg>
