<svg width="40" height="46" viewBox="0 0 40 46" fill="none" xmlns="http://www.w3.org/2000/svg">
<path d="M38 23V28H26V17H35M29 22L32 25L39 17M38 7V12H26V1H35M29 6L32 9L39 1M23 36H7C5.34 36 4 34.66 4 33V27C4 26.5 4.06 25.91 4.17 25.75L5.21 24.18C5.59 23.6 5.29 22.82 4.62 22.66L2 22C1.45 22 1 21.55 1 21V19C1 18.45 1.45 18 2 18H6.46C6.79 18 7.11 18.17 7.29 18.45L8.61 20.43C8.8 20.7 10.76 22 11.99 22H22.99M23 12C18.56 12 15.13 12.55 13.12 12.83C12.43 12.93 11.46 13.45 11 14C10.54 14.54 8.14 19.71 8.14 19.71M7 26C8.28 27.28 10.02 28 11.83 28H14M5 35V39C5 39.55 5.45 40 6 40H13C13.55 40 14 39.55 14 39V36M23 32H14M26 34H38V45H26V34Z" stroke="white" stroke-width="2" stroke-miterlimit="10"/>
</svg>
