<svg width="49" height="60" viewBox="0 0 49 60" fill="none" xmlns="http://www.w3.org/2000/svg">
<path fill-rule="evenodd" clip-rule="evenodd" d="M12.3608 3.27872C20.0078 -1.16455 29.4073 -1.08689 36.9826 3.48215C44.4834 8.14425 49.0422 16.4647 48.9997 25.4152C48.8251 34.307 43.9368 42.6653 37.8264 49.1266C34.2996 52.8727 30.3543 56.1852 26.0711 58.9965C25.63 59.2516 25.1468 59.4223 24.6453 59.5004C24.1627 59.4798 23.6928 59.3372 23.2778 59.0854C16.7386 54.8613 11.0017 49.4694 6.3432 43.1691C2.44507 37.91 0.230426 31.5562 4.06609e-06 24.9706C-0.00505639 16.003 4.71371 7.72199 12.3608 3.27872ZM16.7797 28.6819C18.066 31.8531 21.1023 33.9217 24.4708 33.9217C26.6775 33.9375 28.7988 33.0536 30.362 31.4669C31.9252 29.8801 32.8004 27.7224 32.7926 25.4745C32.8043 22.0433 30.7843 18.9432 27.6756 17.6218C24.5669 16.3004 20.9828 17.0183 18.5967 19.4403C16.2107 21.8623 15.4933 25.5107 16.7797 28.6819Z" fill="black"/>
</svg>
