<svg width="41" height="41" viewBox="0 0 41 41" fill="none" xmlns="http://www.w3.org/2000/svg">
<path d="M40.5514 20.5C40.5514 31.5827 31.5826 40.5516 20.4998 40.5516C9.41699 40.5516 0.448157 31.5827 0.448157 20.5C0.448157 9.41716 9.41699 0.448332 20.4998 0.448332C31.5826 0.448332 40.5514 9.417 40.5514 20.5ZM20.4998 1.66554C10.0576 1.66554 1.66536 10.0577 1.66536 20.5C1.66536 30.9422 10.1217 39.3344 20.4998 39.3344C30.8779 39.3344 39.3342 30.878 39.3342 20.5C39.3342 10.1219 30.942 1.66554 20.4998 1.66554Z" fill="url(#paint0_linear_150_1815)"/>
<path d="M20.4998 1.66554C10.0576 1.66554 1.66536 10.0577 1.66536 20.5C1.66536 30.9422 10.1217 39.3344 20.4998 39.3344C30.8779 39.3344 39.3342 30.878 39.3342 20.5C39.3342 10.1219 30.942 1.66554 20.4998 1.66554ZM20.4999 38.1171C10.7624 38.1171 2.88269 30.2374 2.88269 20.4999C2.88269 10.7624 10.7624 2.88269 20.4999 2.88269C30.2374 2.88269 38.1171 10.7624 38.1171 20.4999C38.1171 30.2374 30.2374 38.1171 20.4999 38.1171Z" fill="url(#paint1_linear_150_1815)"/>
<path d="M20.4998 40.5516C31.5826 40.5516 40.5514 31.5827 40.5514 20.5C40.5514 9.417 31.5826 0.448332 20.4998 0.448332C9.41699 0.448332 0.448157 9.41716 0.448157 20.5C0.448157 31.5827 9.41699 40.5516 20.4998 40.5516ZM20.5 0C31.775 0 41 9.225 41 20.5C41 31.775 31.775 41 20.5 41C9.225 41 0 31.775 0 20.5C0 9.225 9.225 0 20.5 0Z" fill="url(#paint2_linear_150_1815)"/>
<path d="M1.40945 20.5642C1.40945 10.0578 9.92974 1.40945 20.5 1.40945C31.0703 1.40945 39.5906 9.99386 39.5906 20.5642C39.5906 31.1344 31.0703 39.5908 20.5 39.5908C9.92974 39.5908 1.40945 31.0703 1.40945 20.5642ZM7.36724 7.36724C3.97195 10.7625 1.85782 15.4392 1.85782 20.5642C1.85782 25.6892 3.97195 30.3658 7.30311 33.6969C10.6984 37.0283 15.375 39.1422 20.5 39.1422C25.625 39.1422 30.3017 37.0922 33.6328 33.6969C37.0281 30.3656 39.0781 25.6892 39.0781 20.5642C39.0781 15.4392 36.964 10.7625 33.6328 7.36724C30.3015 3.97195 25.625 1.85782 20.5 1.85782C15.375 1.85782 10.6984 3.97195 7.36724 7.36724Z" fill="white"/>
<path d="M20.4999 38.1812C15.7593 38.1812 11.339 36.3234 8.00766 32.9921C4.67633 29.6607 2.81854 25.2405 2.81854 20.4999C2.81854 15.7593 4.67633 11.339 8.00766 8.00766C11.339 4.67633 15.7593 2.81854 20.4999 2.81854C25.2405 2.81854 29.6607 4.67633 32.9921 8.00766C36.3234 11.339 38.1812 15.7593 38.1812 20.4999C38.1812 25.2405 36.3234 29.6607 32.9921 32.9921C29.6607 36.3234 25.2405 38.1812 20.4999 38.1812ZM20.4999 37.6687C25.0482 37.6687 29.4046 35.875 32.6077 32.6718C35.8107 29.4685 37.6046 25.1124 37.6046 20.564C37.6046 16.0156 35.8109 11.6593 32.6077 8.4562C29.3405 5.189 25.0482 3.45929 20.4999 3.45929C15.9515 3.45929 11.5952 5.25296 8.39208 8.4562C5.12487 11.5953 3.3312 15.9515 3.3312 20.4999C3.3312 25.0483 5.12504 29.4046 8.32812 32.6077C11.5953 35.8749 15.9513 37.6687 20.4999 37.6687Z" fill="url(#paint3_linear_150_1815)"/>
<path d="M36.0672 28.828C35.7469 28.5717 23.3828 18.7702 23.3828 18.7702L20.5 2.30611C20.3078 2.37023 20.0517 2.56244 19.9234 2.81861L17.8734 18.8342L5.12503 28.6358C5.12503 28.6358 4.8687 28.9561 4.74062 29.1483C4.67649 29.2764 4.67649 29.4686 4.67649 29.6608L20.4359 23.1905L36.1953 29.6608C36.3234 29.3405 36.1953 29.0202 36.0672 28.828Z" fill="white"/>
<path d="M20.6281 21.0125L20.5 23.9594L34.9781 29.7891C35.4906 30.0455 35.875 29.9172 36.2593 29.6611L20.8201 20.9486C20.756 20.8844 20.6281 20.9484 20.6281 21.0125Z" fill="#565F64"/>
<path d="M20.6281 21.0125C20.6281 21.0125 21.4608 22.4859 22.4217 23.5109C23.767 24.9843 25.5608 26.0093 25.5608 26.0093L34.9781 29.7891C35.4906 30.0455 35.875 29.9172 36.2593 29.6611L20.8201 20.9486C20.756 20.8844 20.6281 20.9484 20.6281 21.0125Z" fill="url(#paint4_linear_150_1815)"/>
<path d="M36.1954 29.0844C36.1954 29.0202 36.1312 28.9563 36.0672 28.828L22.8704 19.1547L21.0767 20.3077C21.0767 20.3077 21.2048 20.3719 21.2689 20.3077C21.4611 20.2436 21.8455 20.1797 22.2298 20.3077C22.5501 20.4358 36.1954 29.1483 36.1954 29.0844C36.1954 29.1271 36.1954 29.1271 36.1954 29.0844Z" fill="black"/>
<path d="M35.747 28.5077L23.447 18.7702L22.8704 19.1547L36.0673 28.8922C36.0032 28.7641 35.8751 28.6358 35.747 28.5077Z" fill="#333E46"/>
<path d="M20.8203 20.0515L20.7562 20.1157C20.7562 20.1157 20.7562 20.2438 20.8843 20.1798C20.9484 20.1157 22.8064 19.1547 23.447 18.7702L21.2046 3.39538C21.1404 2.81876 20.8843 2.56259 20.4357 2.37038L20.6921 20.1798L20.8203 20.0515Z" fill="#565F64"/>
<path d="M19.7312 3.39523V4.22802L18.3218 18.3858C18.3218 18.578 18.3859 18.7702 18.5779 18.8983L19.4107 19.5389L19.9874 3.90773L20.0515 2.69052C19.8593 2.8186 19.7953 3.07494 19.7312 3.39523ZM18.9625 19.7952L18.1937 19.1546L5.18914 28.5718C5.18914 28.5718 4.80473 28.8282 4.74077 29.0844L5.18914 28.828L18.8344 20.2436C19.0906 20.1155 19.1547 19.9874 18.9625 19.7952Z" fill="black"/>
<path d="M20.308 21.0124C20.308 20.9483 20.2439 20.8843 20.1799 20.9483L4.67684 29.7249C5.06126 29.9813 5.44551 30.0452 5.95801 29.853L20.4361 24.0233L20.308 21.0124Z" fill="#565F64"/>
<path d="M20.7562 20.1157C20.7562 20.1157 20.7564 20.1798 20.8205 20.1798L20.8843 20.1798C20.9484 20.1157 22.8064 19.1547 23.447 18.7702L23.1908 16.9125L21.2046 3.39538C21.2046 3.13905 21.1408 2.94696 21.0127 2.81871C21.0127 2.81871 21.9736 15.7593 21.9736 17.1687C21.9736 19.0265 20.7562 20.1157 20.7562 20.1157Z" fill="url(#paint5_linear_150_1815)"/>
<path d="M20.308 21.0124C20.308 20.9483 20.2439 20.8843 20.1799 20.9483L4.67684 29.7249C5.06126 29.9813 5.44551 30.0452 5.95801 29.853L20.4361 24.0233L20.308 21.0124Z" fill="url(#paint6_linear_150_1815)" fill-opacity="0.8"/>
<path d="M5.95772 29.7892L20.4358 23.9595L20.3077 21.1406C20.0515 21.9095 19.603 22.7422 18.3858 23.3828C17.4889 23.8953 8.90447 28.1234 5.82947 29.597C5.63726 29.725 5.38109 29.7892 5.25284 29.8533C5.50901 29.9814 5.70138 29.9174 5.95772 29.7892Z" fill="url(#paint7_linear_150_1815)"/>
<path d="M20.8203 20.0515L20.7562 20.1157C20.7562 20.1157 20.7562 20.2438 20.8843 20.1798C20.9484 20.1157 22.8064 19.1547 23.447 18.7702L21.2046 3.39538C21.1404 2.81876 20.8843 2.56259 20.4357 2.37038L20.6921 20.1798L20.8203 20.0515Z" fill="url(#paint8_linear_150_1815)"/>
<path d="M20.8203 20.0515L20.7562 20.1157C20.7562 20.1157 20.7562 20.2438 20.8843 20.1798C20.9484 20.1157 22.8064 19.1547 23.447 18.7702L21.2046 3.39538C21.1404 2.81876 20.8843 2.56259 20.4357 2.37038L20.6921 20.1798L20.8203 20.0515Z" fill="url(#paint9_linear_150_1815)"/>
<path d="M3.26699 28.4438C2.81861 27.4188 0.256113 22.4219 3.07478 12.8125H1.98566C1.40903 14.7344 0.960657 15.8875 0.704489 17.6172C0.704489 17.6172 0.576405 18.2578 0.512281 18.9625C0.448157 19.6672 0.448157 20.0516 0.448157 20.5C0.448157 24.3438 1.40903 26.5859 1.40903 26.5859C2.43403 29.789 4.22786 32.6717 6.66212 34.85C8.77624 36.7078 12.0433 38.1172 14.734 38.6297C14.2857 38.5656 6.59832 35.2984 3.26699 28.4438Z" fill="url(#paint10_linear_150_1815)"/>
<path d="M20.7563 20.8844H20.1797C20.2438 20.8844 20.3078 20.8844 20.3078 20.9485L20.4359 23.8954H20.5L20.6281 20.9485C20.6281 20.8844 20.6924 20.8204 20.7563 20.8844Z" fill="url(#paint11_linear_150_1815)"/>
<path d="M26.9062 1.47337C33.6328 4.03587 39.975 11.0828 39.975 19.9875C39.975 30.75 31.3906 39.5266 20.5 39.5266L20.4998 40.5516C31.3904 40.5516 40.5514 31.5827 40.5514 20.5C40.5514 11.6594 34.914 4.22808 26.9062 1.47337Z" fill="url(#paint12_linear_150_1815)"/>
<path d="M37.6688 12.9405C33.1845 2.62654 23.0626 2.04992 22.486 1.9858H22.4219C30.1735 3.39521 35.1063 8.45609 36.836 13.7733V13.8374C37.6048 15.8874 37.9891 18.0655 38.0532 20.4358C38.1173 22.678 37.6048 25.1764 36.6438 27.4827C36.5797 27.803 36.5157 28.1874 36.4516 28.1874H37.4766C40.5516 22.4218 39.2063 16.5921 37.6688 12.9405Z" fill="url(#paint13_linear_150_1815)"/>
<path d="M1.40945 20.5642C1.40945 10.0578 9.92974 1.40945 20.5 1.40945C31.0703 1.40945 39.5906 9.99386 39.5906 20.5642C39.5906 31.1344 31.0703 39.5908 20.5 39.5908C9.92974 39.5908 1.40945 31.0703 1.40945 20.5642ZM7.36724 7.36724C3.97195 10.7625 1.85782 15.4392 1.85782 20.5642C1.85782 25.6892 3.97195 30.3658 7.30311 33.6969C10.6984 37.0283 15.375 39.1422 20.5 39.1422C25.625 39.1422 30.3017 37.0922 33.6328 33.6969C37.0281 30.3656 39.0781 25.6892 39.0781 20.5642C39.0781 15.4392 36.964 10.7625 33.6328 7.36724C30.3015 3.97195 25.625 1.85782 20.5 1.85782C15.375 1.85782 10.6984 3.97195 7.36724 7.36724Z" fill="#FBFBFB"/>
<path d="M5.06073 28.7L18.1294 19.2828C18.8341 19.6673 19.9872 20.1798 20.1153 20.1798C20.2434 20.2439 20.2434 20.1156 20.2434 20.1156L18.6417 18.7703C18.4495 18.6423 18.3856 18.45 18.3856 18.2578L19.9234 2.81861C19.8593 2.88273 19.8589 3.01092 19.795 3.07505C19.7309 3.20313 19.7312 3.26714 19.7312 3.39523L17.4886 18.8345L5.18897 28.5078C5.12485 28.572 5.06073 28.6359 5.06073 28.7Z" fill="#333F47"/>
<defs>
<linearGradient id="paint0_linear_150_1815" x1="4.73832" y1="7.27968" x2="36.1739" y2="33.607" gradientUnits="userSpaceOnUse">
<stop stop-color="white"/>
<stop offset="0.1" stop-color="#CDD0D0"/>
<stop offset="0.2" stop-color="#A5ACAF"/>
<stop offset="0.3" stop-color="#98A0A4"/>
<stop offset="0.4" stop-color="#828A8F"/>
<stop offset="0.5" stop-color="#667075"/>
<stop offset="0.6" stop-color="#535C63"/>
<stop offset="0.7" stop-color="#475158"/>
<stop offset="0.8" stop-color="#434D54"/>
<stop offset="1" stop-color="#475157"/>
</linearGradient>
<linearGradient id="paint1_linear_150_1815" x1="4.74463" y1="7.23409" x2="36.1201" y2="33.5895" gradientUnits="userSpaceOnUse">
<stop stop-color="#0B1F2A"/>
<stop offset="0.2" stop-color="#333F47"/>
<stop offset="0.5" stop-color="#81898D"/>
<stop offset="0.7" stop-color="#B3B8B8"/>
<stop offset="0.8" stop-color="#DEE0DD"/>
<stop offset="1" stop-color="#FBFBFB"/>
</linearGradient>
<linearGradient id="paint2_linear_150_1815" x1="27.6184" y1="39.8247" x2="13.5896" y2="1.26154" gradientUnits="userSpaceOnUse">
<stop stop-color="#E1E3E1"/>
<stop offset="0.1" stop-color="#C1C5C4"/>
<stop offset="0.3" stop-color="#9BA1A2"/>
<stop offset="0.5" stop-color="#7D8487"/>
<stop offset="0.7" stop-color="#687074" stop-opacity="0"/>
<stop offset="0.8" stop-color="#5B6469" stop-opacity="0"/>
<stop offset="1" stop-color="#576065" stop-opacity="0"/>
</linearGradient>
<linearGradient id="paint3_linear_150_1815" x1="10.2009" y1="2.68534" x2="30.6995" y2="38.1865" gradientUnits="userSpaceOnUse">
<stop stop-color="#E1E3E1"/>
<stop offset="0.1" stop-color="#C1C5C4"/>
<stop offset="0.3" stop-color="#9BA1A2"/>
<stop offset="0.5" stop-color="#7D8487"/>
<stop offset="0.7" stop-color="#687074" stop-opacity="0"/>
<stop offset="0.8" stop-color="#5B6469" stop-opacity="0"/>
<stop offset="1" stop-color="#576065" stop-opacity="0"/>
</linearGradient>
<linearGradient id="paint4_linear_150_1815" x1="20.5377" y1="19.3768" x2="14.9581" y2="24.6721" gradientUnits="userSpaceOnUse">
<stop stop-color="#27343C"/>
<stop offset="1" stop-color="#00111E" stop-opacity="0"/>
</linearGradient>
<linearGradient id="paint5_linear_150_1815" x1="69.4273" y1="37.2535" x2="68.525" y2="27.8972" gradientUnits="userSpaceOnUse">
<stop offset="0.1" stop-color="#02131F"/>
<stop offset="0.9" stop-color="#02131F" stop-opacity="0"/>
</linearGradient>
<linearGradient id="paint6_linear_150_1815" x1="41.0218" y1="10.4408" x2="33.649" y2="11.6495" gradientUnits="userSpaceOnUse">
<stop offset="0.2" stop-color="#02131F"/>
<stop offset="0.9" stop-color="#02131F" stop-opacity="0"/>
</linearGradient>
<linearGradient id="paint7_linear_150_1815" x1="21.6659" y1="26.3566" x2="19.2316" y2="22.8364" gradientUnits="userSpaceOnUse">
<stop stop-color="#02131F"/>
<stop offset="0.1" stop-color="#02131F"/>
<stop offset="1" stop-color="#02131F" stop-opacity="0"/>
</linearGradient>
<linearGradient id="paint8_linear_150_1815" x1="31.6921" y1="19.7784" x2="11.4473" y2="33.8798" gradientUnits="userSpaceOnUse">
<stop offset="0.3" stop-color="#02131F"/>
<stop offset="0.8" stop-color="#02131F" stop-opacity="0"/>
</linearGradient>
<linearGradient id="paint9_linear_150_1815" x1="32.6516" y1="19.7047" x2="19.7754" y2="29.6054" gradientUnits="userSpaceOnUse">
<stop offset="0.4" stop-color="#27343C"/>
<stop offset="1" stop-color="#3B474E" stop-opacity="0"/>
</linearGradient>
<linearGradient id="paint10_linear_150_1815" x1="-2.06809" y1="12.9648" x2="30.6849" y2="47.1214" gradientUnits="userSpaceOnUse">
<stop stop-color="#25323B" stop-opacity="0"/>
<stop offset="0.1" stop-color="#27343C"/>
</linearGradient>
<linearGradient id="paint11_linear_150_1815" x1="17.4446" y1="41.1117" x2="17.4446" y2="-0.391421" gradientUnits="userSpaceOnUse">
<stop offset="0.3" stop-color="#A5ABAF"/>
<stop offset="1" stop-color="#A5ABAF" stop-opacity="0"/>
</linearGradient>
<linearGradient id="paint12_linear_150_1815" x1="20.4109" y1="-0.0568056" x2="20.4109" y2="40.9404" gradientUnits="userSpaceOnUse">
<stop stop-color="#6B7378"/>
<stop offset="0.2" stop-color="#333F47"/>
<stop offset="0.5" stop-color="#27343C"/>
<stop offset="0.8" stop-color="#333F47"/>
<stop offset="1" stop-color="#434D54"/>
</linearGradient>
<linearGradient id="paint13_linear_150_1815" x1="34.5229" y1="4.91709" x2="23.8064" y2="29.276" gradientUnits="userSpaceOnUse">
<stop offset="0.7" stop-color="#49545B"/>
<stop offset="0.8" stop-color="white" stop-opacity="0"/>
</linearGradient>
</defs>
</svg>
