<svg  class="main-svg-sprite main-svg-sprite--icons" xmlns="http://www.w3.org/2000/svg" xmlns:xlink="http://www.w3.org/1999/xlink"><symbol viewBox="0 0 8 14" id="arrow-left2" xmlns="http://www.w3.org/2000/svg"><path d="M7 1L1 7l6 6"/></symbol><symbol viewBox="0 0 6 10" id="arrow-right" xmlns="http://www.w3.org/2000/svg"><path d="M1.69 1.434l3.5 3.5-3.5 3.5" stroke="#000" stroke-width="1.5" stroke-linecap="round" stroke-linejoin="round"/></symbol><symbol viewBox="0 0 5 9" id="arrow-right2" xmlns="http://www.w3.org/2000/svg"><path d="M1.034 1.293L4.542 4.8 1.034 8.31"/></symbol><symbol viewBox="0 0 5 8" id="arrow-right3" xmlns="http://www.w3.org/2000/svg"><path d="M1 1l3 3-3 3"/></symbol><symbol viewBox="0 0 11 6" id="chevron-down" xmlns="http://www.w3.org/2000/svg"><path d="M10 .614l-4.5 4.5L1 .614"/></symbol><symbol viewBox="0 0 6 10" id="chevron-left" xmlns="http://www.w3.org/2000/svg"><path d="M5 1L1 5l4 4"/></symbol><symbol viewBox="0 0 6 10" id="chevron-right" xmlns="http://www.w3.org/2000/svg"><path d="M1 1l4 4-4 4"/></symbol><symbol viewBox="0 0 13.97 13.97" id="close" xmlns="http://www.w3.org/2000/svg"><g data-name="Layer 2"><path d="M14 1.41L8.39 7 14 12.56 12.56 14 7 8.39 1.41 14 0 12.56 5.58 7 0 1.41 1.41 0 7 5.58 12.56 0z" data-name="Layer 1"/></g></symbol><symbol viewBox="0 0 19 19" id="close-croos" xmlns="http://www.w3.org/2000/svg"><path d="M17.543 17.428L1.2 1.087m16.343 0L1.2 17.429"/></symbol><symbol viewBox="0 0 18 22" id="location" xmlns="http://www.w3.org/2000/svg"><path clip-rule="evenodd" d="M4.54 1.204a8.858 8.858 0 019.045.075c2.756 1.713 4.43 4.77 4.415 8.057-.064 3.267-1.86 6.337-4.105 8.71a24.074 24.074 0 01-4.318 3.626 1.51 1.51 0 01-.524.185 1.055 1.055 0 01-.502-.152 23.805 23.805 0 01-6.22-5.847A11.93 11.93 0 010 9.173c-.002-3.294 1.732-6.336 4.54-7.969zm1.624 9.332a3.057 3.057 0 002.825 1.925c.81.006 1.59-.319 2.164-.902a3.122 3.122 0 00.893-2.201 3.115 3.115 0 00-1.88-2.885 3.016 3.016 0 00-3.335.668 3.156 3.156 0 00-.667 3.395z"/></symbol><symbol viewBox="0 0 32 16" id="menu" xmlns="http://www.w3.org/2000/svg"><path d="M0 0h32v2H0zM0 7h32v2H0zM0 14h32v2H0z"/></symbol><symbol viewBox="0 0 22 22" id="phone" xmlns="http://www.w3.org/2000/svg"><path clip-rule="evenodd" d="M10.482 11.522c4.41 4.408 5.41-.691 8.217 2.114 2.706 2.706 4.262 3.248.833 6.675-.43.346-3.159 4.498-12.749-5.09-9.592-9.588-5.441-12.32-5.096-12.75C5.124-.965 5.657.6 8.363 3.305c2.808 2.807-2.29 3.81 2.12 8.218z"/></symbol><symbol viewBox="0 0 21.42 21.42" id="search" xmlns="http://www.w3.org/2000/svg"><g data-name="Layer 2"><path d="M13.43 15.43a8.49 8.49 0 112-2L21 19a1.39 1.39 0 010 2 1.39 1.39 0 01-2 0l-5.58-5.58zM8.5 15A6.5 6.5 0 102 8.5 6.5 6.5 0 008.5 15z" data-name="Layer 1"/></g></symbol></svg>