<?xml version="1.0" encoding="utf-8"?>
<!-- Generator: Adobe Illustrator 25.2.1, SVG Export Plug-In . SVG Version: 6.00 Build 0)  -->
<svg version="1.1" id="Layer_1" xmlns="http://www.w3.org/2000/svg" xmlns:xlink="http://www.w3.org/1999/xlink" x="0px" y="0px"
	 viewBox="0 0 16 13.3" style="enable-background:new 0 0 16 13.3;" xml:space="preserve">
<style type="text/css">
	.st0{fill:#D9D9D9;}
</style>
<path class="st0" d="M6.7,0.2c0.1-0.3,0.5-0.3,0.6,0l1.4,4.4c0,0.1,0.2,0.2,0.3,0.2h4.7c0.3,0,0.4,0.4,0.2,0.5l-3.8,2.7
	C10,8.2,9.9,8.4,10,8.5l1.4,4.4c0.1,0.3-0.2,0.5-0.5,0.3l-3.8-2.7c-0.1-0.1-0.2-0.1-0.4,0L3,13.3c-0.2,0.2-0.6-0.1-0.5-0.3L4,8.5
	c0-0.1,0-0.3-0.1-0.3L0.1,5.4C-0.1,5.2,0,4.9,0.3,4.9H5c0.1,0,0.2-0.1,0.3-0.2L6.7,0.2z"/>
</svg>
