<svg width="114.660156" height="48.468262" viewBox="0 0 114.66 48.4683" fill="none" xmlns="http://www.w3.org/2000/svg" xmlns:xlink="http://www.w3.org/1999/xlink">
	<desc>
			Created with Pixso.
	</desc>
	<defs/>
	<path id="404" d="M15.26 36.24Q14.36 36.11 13.41 35.66L12.48 36.82L25.59 38.8L26.52 37.63Q25.11 37.72 24.21 37.59Q23.24 37.44 22.94 36.98Q22.9 36.91 22.87 36.83Q22.86 36.8 22.85 36.77Q22.68 36.2 23.39 35.31L30.42 26.49L35.04 27.18L35.79 26.24L31.17 25.55L44.05 9.46L45.39 7.78Q46.96 5.81 48.18 4.81Q48.93 4.21 49.66 4.03Q50.13 3.92 50.6 3.99L51.05 3.42Q50.04 3.27 48.13 3.4Q46.24 3.54 43.76 4.07Q40.31 4.81 36.52 6.32Q32.73 7.81 26.4 11.54Q20.08 15.27 10.73 22L9.79 23.18Q16.18 24.35 26.2 25.85L19.17 34.68Q18.46 35.57 17.51 35.97Q17.46 35.99 17.41 36.01Q17.29 36.06 17.18 36.1Q16.27 36.39 15.26 36.24ZM76.26 45.41Q75.36 45.28 74.4 44.83L73.47 46L86.58 47.97L87.51 46.8Q86.11 46.9 85.21 46.76Q84.24 46.61 83.94 46.15Q83.89 46.08 83.86 46.01Q83.85 45.98 83.84 45.95Q83.67 45.37 84.38 44.48L91.41 35.66L96.03 36.35L96.78 35.42L92.16 34.72L105.04 18.63L106.39 16.95Q107.96 14.98 109.17 13.98Q109.92 13.38 110.65 13.21Q111.13 13.1 111.59 13.17L112.05 12.59Q111.03 12.44 109.13 12.58Q107.23 12.71 104.75 13.24Q101.31 13.98 97.51 15.49Q93.72 16.98 87.39 20.71Q81.08 24.45 71.73 31.17L70.78 32.35Q77.17 33.52 87.2 35.03L80.17 43.85Q79.46 44.74 78.51 45.14Q78.45 45.16 78.4 45.19Q78.29 45.23 78.17 45.27Q77.26 45.57 76.26 45.41ZM39.78 40.56Q41.31 41.69 43.95 42.08Q46.15 42.41 48.53 42.1Q50.9 41.78 53.46 40.81Q58.56 38.87 63.46 35.04Q68.38 31.2 72.31 26.27Q76.23 21.34 77.69 17.18Q79.16 13.01 77.78 10.29Q77.17 9.09 75.99 8.29Q74.47 7.26 72 6.89Q68.79 6.41 65.46 7.09Q61.71 7.87 57.8 10.12Q50.43 14.37 44.31 22.06Q40.3 27.09 38.6 31.38Q36.92 35.66 38.16 38.53Q38.68 39.74 39.78 40.56ZM49.7 40.85Q47.23 41.52 44.7 41.14Q41.89 40.72 40.93 39.38Q40.49 38.78 40.44 37.99Q40.28 35.44 42.53 31.94Q44.8 28.45 49.29 22.81Q53.74 17.23 56.82 14.01Q59.92 10.8 63.53 9.01Q64.42 8.57 65.33 8.28Q68.16 7.37 71.25 7.83Q73.98 8.24 74.96 9.54Q75.38 10.1 75.47 10.84Q75.78 13.25 73.64 16.76Q71.51 20.27 67.32 25.52Q63.1 30.83 59.64 34.33Q56.19 37.83 52.4 39.79Q51.06 40.48 49.7 40.85ZM42.54 5.59Q42.44 5.81 42.1 6.23L26.95 24.92Q24.65 24.62 18.98 23.66Q14.41 22.88 12.34 22.56Q12.21 22.55 12.18 22.48Q12.17 22.46 12.17 22.44Q12.17 22.41 12.19 22.39Q12.24 22.31 12.4 22.25L13.75 21.3Q23.11 14.63 30.41 10.26Q37.71 5.89 42.51 5.39Q42.54 5.39 42.56 5.39Q42.63 5.42 42.54 5.59ZM103.54 14.76Q103.43 14.98 103.09 15.4L87.94 34.09Q85.65 33.79 79.97 32.84Q75.41 32.05 73.34 31.74Q73.21 31.72 73.17 31.66Q73.16 31.63 73.16 31.61Q73.17 31.58 73.18 31.56Q73.23 31.49 73.39 31.42L74.75 30.47Q84.11 23.8 91.4 19.43Q98.71 15.06 103.5 14.57Q103.54 14.56 103.56 14.57Q103.63 14.59 103.54 14.76Z" fill="#D7C69C" fill-opacity="1.000000" fill-rule="evenodd"/>
</svg>
