<svg width="1094.000000" height="1184.000000" viewBox="0 0 1094 1184" fill="none" xmlns="http://www.w3.org/2000/svg" xmlns:xlink="http://www.w3.org/1999/xlink">
	<desc>
			Created with Pixso.
	</desc>
	<defs>
		<linearGradient x1="-58.499985" y1="592.000061" x2="927.000000" y2="592.000061" id="paint_linear_298_4281_0" gradientUnits="userSpaceOnUse">
			<stop offset="0.010000" stop-color="#541513"/>
			<stop offset="0.080000" stop-color="#8D5027"/>
			<stop offset="0.380000" stop-color="#CB9552"/>
			<stop offset="0.560000" stop-color="#FFF2DB"/>
			<stop offset="0.800000" stop-color="#D7B189"/>
			<stop offset="0.920000" stop-color="#AB6C2E"/>
			<stop offset="0.960000" stop-color="#9C530D"/>
		</linearGradient>
		<linearGradient x1="0.499947" y1="575.000000" x2="1180.000000" y2="575.000000" id="paint_linear_298_4282_0" gradientUnits="userSpaceOnUse">
			<stop offset="0.010000" stop-color="#541513"/>
			<stop offset="0.080000" stop-color="#8D5027"/>
			<stop offset="0.380000" stop-color="#CB9552"/>
			<stop offset="0.560000" stop-color="#FFF2DB"/>
			<stop offset="0.800000" stop-color="#D7B189"/>
			<stop offset="0.920000" stop-color="#AB6C2E"/>
			<stop offset="0.960000" stop-color="#9C530D"/>
		</linearGradient>
	</defs>
	<g opacity="0.070000">
		<path id="Vector" d="M4.04 556.36C15.95 456.95 54.26 362.55 114.98 282.95C175.71 203.35 256.63 141.46 349.35 103.71C440.99 66.95 540.83 55.5 638.41 70.54C687.5 78.37 735.27 92.96 780.37 113.88C765.95 96.84 701.87 21.22 566.71 0C566.71 0 779.61 25.96 899.32 189.5L897.46 188.34L899.32 189.92C896.84 188.13 894.3 186.48 891.76 184.83L857.42 163.27C789.53 123.89 714.02 99.42 635.94 91.49C612.61 89.3 589.18 88.45 565.75 88.95C554.08 89.7 542.33 89.7 530.73 91.21L513.35 92.93L496.04 95.61C356.77 117.31 231.73 193.21 148.19 306.75C65.01 419.85 28.96 560.83 47.65 699.99C60.26 792.46 96.68 880.06 153.34 954.21C209.99 1028.37 284.95 1086.52 370.85 1122.97C392.29 1132.26 414.34 1140.09 436.84 1146.39C448.18 1149.28 459.44 1152.51 471.18 1154.63C476.95 1155.73 482.65 1157.11 488.42 1158.06L505.87 1160.75C600.14 1174.44 696.36 1163.73 785.31 1129.63C698.03 1172.56 600.61 1190.62 503.74 1181.82C405.07 1173.17 310.61 1137.84 230.47 1079.63C149.84 1020.68 86.28 941.39 46.28 849.86C6.68 757.44 -7.89 656.21 4.04 556.36Z" fill="url(#paint_linear_298_4281_0)" fill-opacity="1.000000" fill-rule="nonzero"/>
		<path id="Vector" d="M229.87 310.51C168.11 420.91 168.11 559.39 233.23 668.01C301.24 781.21 439.58 856.91 580.53 854.45C721.49 851.99 858.26 769.67 913.16 650.59C939.51 594.87 946.61 532.03 933.33 471.87C918.76 410.46 881.78 356.62 829.57 320.82C763.69 275.87 664.39 264.94 601.46 313.31C637.84 287.62 686.97 279.56 731.85 287.9C776.21 296.75 816.86 318.7 848.51 350.89C881.73 383.67 904.69 425.34 914.6 470.85C924.63 521.95 918.69 574.88 897.58 622.51C865.96 693.33 809.68 750.38 739.13 783.12C665.81 817.02 583.25 825.7 504.43 807.79C458.01 797.46 414.21 777.79 375.7 749.99C337.2 722.19 304.82 686.84 280.55 646.12C256.28 605.39 240.63 560.16 234.57 513.19C228.51 466.23 232.16 418.53 245.31 373.02C260.85 313.38 293.13 259.38 338.36 217.33C386.28 173.58 448.37 148.39 513.35 146.35C418.17 204.07 365.95 309.9 360.8 414.42C358.13 467.5 366.77 521.81 392.92 569.16C419.78 618.71 465.09 655.79 519.12 672.45C574.02 688.51 639.41 678.26 681 641.3C635.37 672.52 570.04 674.3 518.98 651.2C494.37 639.59 472.36 623.15 454.29 602.86C436.21 582.58 422.43 558.87 413.78 533.15C396.55 483.35 397.72 429.38 409.39 378.21C427.57 298.76 473.48 221.84 547.87 177.77C622.26 133.71 726.98 129.2 796.98 178.93C805.15 184.01 811.9 191.06 816.6 199.43C819.73 208.2 821.33 217.44 821.34 226.75C823.61 250.01 832.49 272.15 846.93 290.56C841.17 280.06 837.92 268.37 837.46 256.4C837.53 250.3 839.57 244.38 843.28 239.52C846.98 234.66 852.16 231.12 858.05 229.42C867.54 228.29 877.15 230.18 885.5 234.82C911.19 246.19 935.41 260.62 957.62 277.79L942.46 302.72L971.9 269.38C862.79 153.25 687.86 92.58 522.34 113.14C356.82 133.71 205.71 234.82 134.07 373.22C90.56 458.28 76.32 555.19 93.51 649.09C101.71 699.97 118.34 749.14 142.71 794.6C167.87 838.06 200.37 876.86 238.79 909.3C294.28 957.39 358.99 993.76 429.01 1016.22C533.26 1048.56 644.71 1050 749.76 1020.32C852.7 991.15 940.19 924.68 1002.71 845.56C1065.23 766.45 1097.82 668.56 1093.64 572.3C1089.9 669.43 1052.85 762.35 988.64 835.59C925.69 907.78 842.77 959.92 750.24 985.48C648.28 1013.95 540.1 1011.33 439.65 977.96C350.26 948.39 271.72 893.03 214.02 818.92C152.2 736.5 124.9 633.43 137.84 531.38C143.32 488.44 154.87 446.49 172.15 406.77C180.66 386.96 190.49 367.74 201.59 349.25C212.57 331 226.85 315.09 237.9 296.91C235.15 301.29 232.47 305.86 229.87 310.51Z" fill="url(#paint_linear_298_4282_0)" fill-opacity="1.000000" fill-rule="nonzero"/>
	</g>
</svg>
