<svg width="20.000000" height="20.000000" viewBox="0 0 20 20" fill="none" xmlns="http://www.w3.org/2000/svg" xmlns:xlink="http://www.w3.org/1999/xlink">
	<desc>
			Created with Pixso.
	</desc>
	<defs>
		<clipPath id="clip26_1210">
			<rect id="eos-icons:counting" width="20.000000" height="20.000000" fill="white" fill-opacity="0"/>
		</clipPath>
	</defs>
	<rect id="eos-icons:counting" width="20.000000" height="20.000000" fill="#FFFFFF" fill-opacity="0"/>
	<g clip-path="url(#clip26_1210)">
		<path id="Vector" d="M1.66 1.66L3.33 1.66L3.33 18.33L1.66 18.33L1.66 1.66Z" fill="#B38F36" fill-opacity="1.000000" fill-rule="nonzero"/>
		<path id="Vector" d="M18.33 3.33L18.33 5L1.66 5L1.66 3.33L18.33 3.33Z" fill="#B38F36" fill-opacity="1.000000" fill-rule="nonzero"/>
		<path id="Vector" d="M16.66 1.66L18.33 1.66L18.33 18.33L16.66 18.33L16.66 1.66Z" fill="#B38F36" fill-opacity="1.000000" fill-rule="nonzero"/>
		<path id="Vector" d="M8.33 4.16C8.33 5.08 7.58 5.83 6.66 5.83C5.74 5.83 5 5.08 5 4.16C5 3.24 5.74 2.5 6.66 2.5C7.58 2.5 8.33 3.24 8.33 4.16Z" fill="#B38F36" fill-opacity="1.000000" fill-rule="evenodd"/>
		<path id="Vector" d="M18.33 8.33L18.33 10L1.66 10L1.66 8.33L18.33 8.33Z" fill="#B38F36" fill-opacity="1.000000" fill-rule="nonzero"/>
		<path id="Vector" d="M10 9.16C10 10.08 9.25 10.83 8.33 10.83C7.41 10.83 6.66 10.08 6.66 9.16C6.66 8.24 7.41 7.5 8.33 7.5C9.25 7.5 10 8.24 10 9.16Z" fill="#B38F36" fill-opacity="1.000000" fill-rule="evenodd"/>
		<path id="Vector" d="M15 9.16C15 10.08 14.25 10.83 13.33 10.83C12.41 10.83 11.66 10.08 11.66 9.16C11.66 8.24 12.41 7.5 13.33 7.5C14.25 7.5 15 8.24 15 9.16Z" fill="#B38F36" fill-opacity="1.000000" fill-rule="evenodd"/>
		<path id="Vector" d="M18.33 13.33L18.33 15L1.66 15L1.66 13.33L18.33 13.33ZM20 17.5L20 19.16L0 19.16L0 17.5L20 17.5Z" fill="#B38F36" fill-opacity="1.000000" fill-rule="nonzero"/>
		<path id="Vector" d="M8.33 14.16C8.33 15.08 7.58 15.83 6.66 15.83C5.74 15.83 5 15.08 5 14.16C5 13.24 5.74 12.5 6.66 12.5C7.58 12.5 8.33 13.24 8.33 14.16Z" fill="#B38F36" fill-opacity="1.000000" fill-rule="evenodd"/>
	</g>
</svg>
