<svg width="446.000000" height="533.000000" viewBox="0 0 446 533" fill="none" xmlns="http://www.w3.org/2000/svg" xmlns:xlink="http://www.w3.org/1999/xlink">
	<defs>
		<filter id="filter_361_7598_dd" x="0.000000" y="289.000000" width="446.000000" height="244.000000" filterUnits="userSpaceOnUse" color-interpolation-filters="sRGB">
			<feFlood flood-opacity="0" result="BackgroundImageFix"/>
			<feBlend mode="normal" in="SourceGraphic" in2="BackgroundImageFix" result="shape"/>
			<feGaussianBlur stdDeviation="26.6667" result="effect_layerBlur_1"/>
		</filter>
		<filter id="filter_361_7594_dd" x="179.000000" y="7.000000" width="173.000000" height="383.000000" filterUnits="userSpaceOnUse" color-interpolation-filters="sRGB">
			<feFlood flood-opacity="0" result="BackgroundImageFix"/>
			<feBlend mode="normal" in="SourceGraphic" in2="BackgroundImageFix" result="shape"/>
			<feColorMatrix in="SourceAlpha" type="matrix" values="0 0 0 0 0 0 0 0 0 0 0 0 0 0 0 0 0 0 127 0" result="hardAlpha"/>
			<feOffset dx="5" dy="-5"/>
			<feGaussianBlur stdDeviation="5"/>
			<feComposite in2="hardAlpha" operator="arithmetic" k2="-1" k3="1"/>
			<feColorMatrix type="matrix" values="0 0 0 0 0.82353 0 0 0 0 0.63922 0 0 0 0 0.16078 0 0 0 0.2 0"/>
			<feBlend mode="normal" in2="shape" result="effect_innerShadow_1"/>
		</filter>
		<clipPath id="clip361_7600">
			<rect id="Дверь" width="214.000000" height="390.000000" transform="translate(138.000000 0.000000)" fill="white" fill-opacity="0"/>
		</clipPath>
	</defs>
	<g filter="url(#filter_361_7598_dd)">
		<path id="Rectangle 61" d="M153.62 369L366 383L297 453L80 441L153.62 369Z" fill="#FFDB7E" fill-opacity="0.800000" fill-rule="nonzero"/>
	</g>
	<g clip-path="url(#clip361_7600)">
		<path id="Rectangle 59" d="M238 0L252 0C307.22 0 352 44.77 352 100L352 390L138 360.5L138 100C138 44.77 182.77 0 238 0Z" fill="#FFF2D1" fill-opacity="1.000000" fill-rule="nonzero"/>
		<g filter="url(#filter_361_7594_dd)">
			<path id="Rectangle 60" d="M179 93.5C179 45.72 217.72 7 265.5 7C313.27 7 352 45.72 352 93.5L352 390L179 329L179 93.5Z" fill="#FFDB7E" fill-opacity="1.000000" fill-rule="nonzero"/>
		</g>
	</g>
</svg>
