<svg width="347.000000" height="374.000000" viewBox="0 0 347 374" fill="none" xmlns="http://www.w3.org/2000/svg" xmlns:xlink="http://www.w3.org/1999/xlink">
	<defs>
		<filter id="filter_573_15234_dd" x="0.000000" y="143.000000" width="347.000000" height="231.000000" filterUnits="userSpaceOnUse" color-interpolation-filters="sRGB">
			<feFlood flood-opacity="0" result="BackgroundImageFix"/>
			<feBlend mode="normal" in="SourceGraphic" in2="BackgroundImageFix" result="shape"/>
			<feGaussianBlur stdDeviation="26.6667" result="effect_layerBlur_1"/>
		</filter>
		<filter id="filter_573_15237_dd" x="132.000000" y="15.000000" width="140.000000" height="233.000000" filterUnits="userSpaceOnUse" color-interpolation-filters="sRGB">
			<feFlood flood-opacity="0" result="BackgroundImageFix"/>
			<feBlend mode="normal" in="SourceGraphic" in2="BackgroundImageFix" result="shape"/>
			<feColorMatrix in="SourceAlpha" type="matrix" values="0 0 0 0 0 0 0 0 0 0 0 0 0 0 0 0 0 0 127 0" result="hardAlpha"/>
			<feOffset dx="5" dy="-5"/>
			<feGaussianBlur stdDeviation="5"/>
			<feComposite in2="hardAlpha" operator="arithmetic" k2="-1" k3="1"/>
			<feColorMatrix type="matrix" values="0 0 0 0 0.82353 0 0 0 0 0.63922 0 0 0 0 0.16078 0 0 0 0.2 0"/>
			<feBlend mode="normal" in2="shape" result="effect_innerShadow_1"/>
		</filter>
		<clipPath id="clip573_15235">
			<rect id="Дверь" width="170.601395" height="310.949158" transform="translate(101.238281 0.000000)" fill="white" fill-opacity="0"/>
		</clipPath>
	</defs>
	<g filter="url(#filter_573_15234_dd)">
		<path id="Rectangle 61" d="M128.14 223L267 234.83L221.88 294L80 283.85L128.14 223Z" fill="#FFDB7E" fill-opacity="0.800000" fill-rule="nonzero"/>
	</g>
	<g clip-path="url(#clip573_15235)">
		<path id="Rectangle 59" d="M101.23 85.5C101.23 38.27 139.51 0 186.73 0C233.95 0 272.23 38.27 272.23 85.5L272.23 248L101.23 229.24L101.23 85.5Z" fill="#FFF2D1" fill-opacity="1.000000" fill-rule="nonzero"/>
		<g filter="url(#filter_573_15237_dd)">
			<path id="Rectangle 60" d="M132 85C132 46.34 163.34 15 202 15C240.66 15 272 46.34 272 85L272 248L132 210.89L132 85Z" fill="#FFDB7E" fill-opacity="1.000000" fill-rule="nonzero"/>
		</g>
	</g>
</svg>
