<svg width="33.333008" height="33.333374" viewBox="0 0 33.333 33.3334" fill="none" xmlns="http://www.w3.org/2000/svg" xmlns:xlink="http://www.w3.org/1999/xlink">
	<desc>
			Created with Pixso.
	</desc>
	<defs/>
	<path id="Vector" d="M3.33 16.66C3.33 14.1 4.07 11.58 5.46 9.43C6.85 7.27 8.84 5.57 11.18 4.51C13.52 3.45 16.11 3.1 18.65 3.48C21.18 3.86 23.56 4.97 25.48 6.66C27.41 8.36 28.8 10.58 29.5 13.05C30.19 15.52 30.16 18.13 29.4 20.59C28.65 23.04 27.2 25.22 25.24 26.87C23.27 28.52 20.87 29.57 18.33 29.89L18.33 20L21.66 20C22.1 20 22.53 19.82 22.84 19.51C23.15 19.19 23.33 18.77 23.33 18.33C23.33 17.89 23.15 17.46 22.84 17.15C22.53 16.84 22.1 16.66 21.66 16.66L18.33 16.66L18.33 13.33C18.33 12.89 18.5 12.46 18.82 12.15C19.13 11.84 19.55 11.66 19.99 11.66L20.83 11.66C21.27 11.66 21.7 11.49 22.01 11.17C22.32 10.86 22.49 10.44 22.49 10C22.49 9.55 22.32 9.13 22.01 8.82C21.7 8.5 21.27 8.33 20.83 8.33L19.99 8.33C18.67 8.33 17.4 8.86 16.46 9.79C15.52 10.73 14.99 12 14.99 13.33L14.99 16.66L11.66 16.66C11.22 16.66 10.79 16.84 10.48 17.15C10.17 17.46 9.99 17.89 9.99 18.33C9.99 18.77 10.17 19.19 10.48 19.51C10.79 19.82 11.22 20 11.66 20L14.99 20L14.99 29.89C11.77 29.49 8.81 27.92 6.66 25.48C4.51 23.05 3.33 19.91 3.33 16.66ZM16.66 33.33C25.87 33.33 33.33 25.87 33.33 16.66C33.33 7.46 25.87 0 16.66 0C7.46 0 0 7.46 0 16.66C0 25.87 7.46 33.33 16.66 33.33Z" fill="#BBA370" fill-opacity="1.000000" fill-rule="evenodd"/>
</svg>
