<svg width="1168.610352" height="2598.497559" viewBox="0 0 1168.61 2598.5" fill="none" xmlns="http://www.w3.org/2000/svg" xmlns:xlink="http://www.w3.org/1999/xlink">
	<desc>
			Created with Pixso.
	</desc>
	<defs/>
	<path id="Vector 1" d="M400.58 0.24C219.58 15.24 46.6 74.37 343.58 252.24C634.08 426.24 657.96 554.3 584.08 658.74C488.58 793.74 277.58 806.74 154.58 852.24C-42.8 925.26 -59.42 1136.25 154.58 1157.25C449.58 1186.19 601.82 1247.56 737.58 1311.75C912.08 1394.25 966.58 1472.75 978.58 1498.75C1042.57 1614.25 833.08 1785.25 453.58 1902.75C149.98 1996.75 -59.42 2450.25 1168.57 2598.25" stroke="#ABA189" stroke-opacity="1.000000" stroke-width="0.500000"/>
	<circle id="Ellipse 54" cx="352.080536" cy="257.249268" r="5.000000" fill="#CEC7B5" fill-opacity="1.000000"/>
	<circle id="Ellipse 55" cx="504.080536" cy="733.249268" r="5.000000" fill="#CEC7B5" fill-opacity="1.000000"/>
	<circle id="Ellipse 56" cx="41.080536" cy="1114.249268" r="5.000000" fill="#CEC7B5" fill-opacity="1.000000"/>
	<circle id="Ellipse 57" cx="797.080566" cy="1343.249268" r="5.000000" fill="#CEC7B5" fill-opacity="1.000000"/>
	<circle id="Ellipse 58" cx="477.080536" cy="1895.249268" r="5.000000" fill="#CEC7B5" fill-opacity="1.000000"/>
</svg>
