<svg width="30.000000" height="30.000000" viewBox="0 0 30 30" fill="none" xmlns="http://www.w3.org/2000/svg" xmlns:xlink="http://www.w3.org/1999/xlink">
	<desc>
			Created with Pixso.
	</desc>
	<defs/>
	<path id="Vector" d="M25 0C26.32 0 27.59 0.52 28.53 1.46C29.47 2.4 30 3.67 30 5L30 25C30 26.32 29.47 27.59 28.53 28.53C27.59 29.47 26.32 30 25 30L5 30C3.67 30 2.4 29.47 1.46 28.53C0.52 27.59 0 26.32 0 25L0 5C0 3.67 0.52 2.4 1.46 1.46C2.4 0.52 3.67 0 5 0L25 0ZM25 3.33L5 3.33C4.55 3.33 4.13 3.5 3.82 3.82C3.5 4.13 3.33 4.55 3.33 5L3.33 25C3.33 25.44 3.5 25.86 3.82 26.17C4.13 26.49 4.55 26.66 5 26.66L25 26.66C25.44 26.66 25.86 26.49 26.17 26.17C26.49 25.86 26.66 25.44 26.66 25L26.66 5C26.66 4.55 26.49 4.13 26.17 3.82C25.86 3.5 25.44 3.33 25 3.33ZM8.33 11.66C8.74 11.66 9.13 11.81 9.44 12.08C9.74 12.35 9.94 12.73 9.98 13.13L10 13.33L10 21.66C10 22.09 9.83 22.5 9.54 22.8C9.25 23.11 8.85 23.3 8.43 23.32C8 23.35 7.58 23.21 7.26 22.94C6.93 22.67 6.72 22.28 6.67 21.86L6.66 21.66L6.66 13.33C6.66 12.89 6.84 12.46 7.15 12.15C7.46 11.84 7.89 11.66 8.33 11.66ZM13.33 10C13.72 10 14.1 10.13 14.4 10.38C14.7 10.63 14.9 10.98 14.97 11.36C15.3 11.17 15.65 10.99 16.01 10.84C17.12 10.37 18.78 10.1 20.29 10.58C21.08 10.83 21.87 11.29 22.45 12.09C22.98 12.8 23.26 13.66 23.32 14.63L23.33 15L23.33 21.66C23.33 22.09 23.16 22.5 22.87 22.8C22.58 23.11 22.18 23.3 21.76 23.32C21.33 23.35 20.92 23.21 20.59 22.94C20.27 22.67 20.06 22.28 20.01 21.86L20 21.66L20 15C20 14.45 19.86 14.19 19.77 14.07C19.65 13.92 19.48 13.81 19.29 13.76C18.71 13.57 17.87 13.67 17.32 13.91C16.48 14.26 15.72 14.82 15.2 15.34L15 15.56L15 21.66C15 22.09 14.83 22.5 14.54 22.8C14.25 23.11 13.85 23.3 13.43 23.32C13 23.35 12.58 23.21 12.26 22.94C11.93 22.67 11.72 22.28 11.67 21.86L11.66 21.66L11.66 11.66C11.66 11.22 11.84 10.8 12.15 10.48C12.46 10.17 12.89 10 13.33 10ZM8.33 6.66C8.77 6.66 9.19 6.84 9.51 7.15C9.82 7.46 10 7.89 10 8.33C10 8.77 9.82 9.19 9.51 9.51C9.19 9.82 8.77 10 8.33 10C7.89 10 7.46 9.82 7.15 9.51C6.84 9.19 6.66 8.77 6.66 8.33C6.66 7.89 6.84 7.46 7.15 7.15C7.46 6.84 7.89 6.66 8.33 6.66Z" fill="#BBA370" fill-opacity="1.000000" fill-rule="nonzero"/>
</svg>
