<svg width="179.000000" height="81.000000" viewBox="0 0 179 81" fill="none" xmlns="http://www.w3.org/2000/svg" xmlns:xlink="http://www.w3.org/1999/xlink">
	<desc>
			Created with Pixso.
	</desc>
	<defs>
		<clipPath id="clip2_3426">
			<rect id="logo_1" width="179.000000" height="81.000000" fill="white" fill-opacity="0"/>
		</clipPath>
		<linearGradient x1="-0.016166" y1="40.502056" x2="61.530342" y2="40.502056" id="paint_linear_2_3423_0" gradientUnits="userSpaceOnUse">
			<stop offset="0.010000" stop-color="#541513"/>
			<stop offset="0.080000" stop-color="#8D5027"/>
			<stop offset="0.380000" stop-color="#CB9552"/>
			<stop offset="0.560000" stop-color="#FFF2DB"/>
			<stop offset="0.800000" stop-color="#D7B189"/>
			<stop offset="0.920000" stop-color="#AB6C2E"/>
			<stop offset="0.960000" stop-color="#9C530D"/>
		</linearGradient>
		<linearGradient x1="6.098499" y1="39.528313" x2="75.108612" y2="39.528313" id="paint_linear_2_3424_0" gradientUnits="userSpaceOnUse">
			<stop offset="0.010000" stop-color="#541513"/>
			<stop offset="0.080000" stop-color="#8D5027"/>
			<stop offset="0.380000" stop-color="#CB9552"/>
			<stop offset="0.560000" stop-color="#FFF2DB"/>
			<stop offset="0.800000" stop-color="#D7B189"/>
			<stop offset="0.920000" stop-color="#AB6C2E"/>
			<stop offset="0.960000" stop-color="#9C530D"/>
		</linearGradient>
		<linearGradient x1="39.012573" y1="26.659449" x2="52.769474" y2="26.659449" id="paint_linear_2_3425_0" gradientUnits="userSpaceOnUse">
			<stop offset="0.010000" stop-color="#DEE3E6"/>
			<stop offset="0.250000" stop-color="#FFFDE5"/>
			<stop offset="0.400000" stop-color="#F0ECD8"/>
			<stop offset="0.600000" stop-color="#D6CDC1"/>
			<stop offset="0.790000" stop-color="#EDEDEE"/>
			<stop offset="1.000000" stop-color="#D8D5BB"/>
		</linearGradient>
	</defs>
	<rect id="logo_1" width="179.000000" height="81.000000" fill="#FFFFFF" fill-opacity="0"/>
	<g clip-path="url(#clip2_3426)">
		<path id="Vector" d="M73.77 25.56L73.62 25.56C73.58 25.43 73.52 25.31 73.45 25.2C73.36 25.06 73.26 24.94 73.13 24.83C73 24.71 72.84 24.61 72.66 24.54C72.46 24.46 72.24 24.42 72.02 24.42C71.81 24.42 71.61 24.45 71.42 24.52C71.26 24.59 71.11 24.68 70.99 24.81C70.87 24.93 70.78 25.08 70.73 25.25C70.67 25.43 70.64 25.62 70.64 25.81C70.64 26.14 70.74 26.47 70.92 26.75C71.12 27.07 71.35 27.36 71.61 27.63C71.88 27.92 72.18 28.21 72.5 28.5C72.82 28.79 73.12 29.09 73.41 29.41C73.67 29.71 73.91 30.04 74.1 30.4C74.28 30.74 74.38 31.12 74.38 31.5C74.37 31.81 74.32 32.11 74.22 32.4C74.12 32.69 73.96 32.97 73.75 33.2C73.52 33.45 73.24 33.64 72.93 33.78C72.55 33.93 72.14 34.01 71.72 34C71.48 34 71.23 33.97 70.99 33.93C70.77 33.88 70.55 33.82 70.34 33.75C70.16 33.68 69.98 33.61 69.81 33.52C69.67 33.45 69.54 33.38 69.42 33.29L69.58 31.79L69.76 31.79C69.8 32 69.89 32.21 70 32.4C70.11 32.59 70.25 32.76 70.42 32.91C70.59 33.06 70.78 33.18 70.99 33.26C71.21 33.35 71.45 33.4 71.69 33.39C71.9 33.4 72.11 33.36 72.31 33.29C72.49 33.23 72.65 33.12 72.78 32.99C72.92 32.86 73.02 32.7 73.09 32.52C73.16 32.34 73.19 32.15 73.19 31.96C73.19 31.69 73.14 31.42 73.04 31.17C72.93 30.92 72.79 30.68 72.62 30.47C72.45 30.25 72.25 30.03 72.04 29.84L71.38 29.22C71.15 29.02 70.91 28.8 70.71 28.58C70.5 28.37 70.31 28.13 70.14 27.88C69.96 27.64 69.82 27.37 69.72 27.09C69.62 26.79 69.56 26.47 69.57 26.15C69.56 25.81 69.63 25.48 69.77 25.17C69.9 24.89 70.09 24.64 70.32 24.43C70.55 24.23 70.82 24.07 71.1 23.96C71.39 23.86 71.7 23.8 72.01 23.8C72.22 23.8 72.43 23.82 72.63 23.86C72.81 23.89 72.98 23.93 73.15 23.98C73.3 24.03 73.44 24.09 73.55 24.13L73.83 24.26L73.77 25.56Z" fill="#6C6759" fill-opacity="1.000000" fill-rule="nonzero"/>
		<path id="Vector" d="M75.58 30.09C75.57 29.58 75.68 29.07 75.88 28.6C76.08 28.15 76.36 27.74 76.71 27.4C77.07 27.06 77.49 26.79 77.95 26.61C78.44 26.41 78.96 26.32 79.49 26.32C80.01 26.32 80.52 26.41 81 26.59C81.46 26.76 81.88 27.02 82.24 27.36C82.6 27.7 82.88 28.11 83.08 28.56C83.29 29.07 83.39 29.61 83.39 30.15C83.39 30.63 83.3 31.11 83.13 31.56C82.95 32.02 82.69 32.43 82.35 32.78C82.01 33.13 81.6 33.41 81.14 33.59C80.12 33.99 79 34.01 77.97 33.63C77.51 33.47 77.08 33.21 76.73 32.88C76.37 32.54 76.08 32.13 75.89 31.67C75.68 31.17 75.57 30.64 75.58 30.09ZM79.62 33.44C79.95 33.44 80.27 33.37 80.57 33.23C80.86 33.1 81.11 32.9 81.32 32.65C81.54 32.37 81.71 32.05 81.81 31.71C81.93 31.31 81.99 30.89 81.98 30.47C81.99 29.98 81.93 29.49 81.82 29.02C81.72 28.61 81.55 28.22 81.31 27.86C81.09 27.53 80.79 27.26 80.44 27.08C80.08 26.9 79.69 26.81 79.29 26.82C78.97 26.82 78.65 26.88 78.35 27.02C78.06 27.15 77.8 27.35 77.59 27.59C77.37 27.87 77.2 28.19 77.1 28.53C76.98 28.93 76.92 29.35 76.93 29.77C76.92 30.26 76.98 30.75 77.1 31.22C77.2 31.64 77.37 32.03 77.61 32.39C77.82 32.71 78.11 32.98 78.45 33.17C78.81 33.36 79.22 33.45 79.62 33.44Z" fill="#6C6759" fill-opacity="1.000000" fill-rule="nonzero"/>
		<path id="Vector" d="M84.8 26.44L85.06 26.44L85.31 26.44L85.58 26.44C85.72 26.44 85.92 26.44 86.17 26.41C86.42 26.38 86.73 26.38 87.11 26.38C87.42 26.38 87.74 26.42 88.05 26.5C88.31 26.57 88.56 26.69 88.79 26.85C88.99 26.99 89.16 27.19 89.28 27.41C89.39 27.64 89.45 27.89 89.44 28.14C89.45 28.35 89.41 28.57 89.34 28.77C89.28 28.94 89.19 29.1 89.06 29.24C88.93 29.39 88.77 29.5 88.59 29.59C88.41 29.69 88.22 29.76 88.02 29.81C88.3 29.85 88.58 29.93 88.85 30.04C89.09 30.13 89.3 30.27 89.5 30.43C89.67 30.58 89.81 30.77 89.9 30.98C90 31.2 90.05 31.44 90.04 31.69C90.06 32 90 32.31 89.87 32.59C89.73 32.88 89.53 33.12 89.27 33.3C88.58 33.71 87.78 33.89 86.98 33.84L86.57 33.84L86.07 33.81L85.56 33.79L85.16 33.79L84.8 33.79L84.8 33.76C84.83 33.64 84.86 33.51 84.88 33.39C84.91 33.2 84.93 33.02 84.94 32.83C84.94 32.61 84.97 32.36 84.98 32.04C84.99 31.73 84.98 31.38 84.98 30.97L84.98 29.26C84.98 28.84 84.98 28.49 84.98 28.18C84.98 27.88 84.98 27.61 84.94 27.39C84.93 27.21 84.91 27.02 84.88 26.83C84.86 26.71 84.83 26.58 84.8 26.46L84.8 26.44ZM86.18 29.73C86.26 29.74 86.34 29.74 86.43 29.73L86.65 29.73C87.05 29.75 87.44 29.61 87.75 29.35C87.89 29.2 88 29.02 88.07 28.82C88.14 28.63 88.17 28.42 88.15 28.21C88.15 28.02 88.12 27.83 88.07 27.64C88.02 27.48 87.94 27.33 87.83 27.2C87.73 27.07 87.6 26.98 87.45 26.91C87.29 26.84 87.11 26.81 86.93 26.81C86.82 26.8 86.71 26.8 86.6 26.81L86.36 26.84L86.18 26.89L86.18 29.73ZM87.09 30.2C86.87 30.2 86.68 30.2 86.53 30.22L86.18 30.27L86.18 31.96C86.18 32.22 86.18 32.44 86.18 32.62C86.18 32.8 86.18 32.94 86.18 33.05C86.18 33.15 86.18 33.25 86.18 33.32C86.31 33.36 86.43 33.38 86.56 33.39L86.88 33.39C87.37 33.43 87.86 33.28 88.24 32.97C88.4 32.8 88.52 32.6 88.59 32.38C88.67 32.16 88.69 31.92 88.67 31.69C88.67 31.49 88.64 31.28 88.57 31.09C88.5 30.91 88.4 30.75 88.26 30.61C88.12 30.48 87.94 30.37 87.75 30.3C87.53 30.23 87.3 30.19 87.07 30.2L87.09 30.2Z" fill="#6C6759" fill-opacity="1.000000" fill-rule="nonzero"/>
		<path id="Vector" d="M91.04 30.09C91.03 29.58 91.13 29.07 91.34 28.6C91.74 27.69 92.48 26.97 93.41 26.61C93.9 26.41 94.42 26.32 94.94 26.32C95.46 26.32 95.97 26.41 96.46 26.59C96.92 26.76 97.34 27.02 97.7 27.36C98.06 27.7 98.34 28.11 98.53 28.56C98.75 29.07 98.85 29.61 98.84 30.15C98.84 30.64 98.76 31.11 98.58 31.56C98.41 32.02 98.15 32.44 97.8 32.79C97.46 33.14 97.05 33.41 96.6 33.6C95.58 34 94.45 34.01 93.42 33.64C92.96 33.47 92.54 33.21 92.18 32.88C91.82 32.54 91.54 32.13 91.34 31.68C91.13 31.18 91.03 30.64 91.04 30.09ZM95.1 33.42C95.42 33.42 95.74 33.35 96.04 33.22C96.33 33.08 96.59 32.88 96.79 32.63C97.01 32.35 97.17 32.03 97.26 31.69C97.39 31.29 97.44 30.87 97.44 30.45C97.44 29.96 97.39 29.48 97.27 29C97.17 28.59 97 28.2 96.77 27.84C96.55 27.52 96.26 27.26 95.92 27.08C95.56 26.89 95.16 26.79 94.74 26.8C94.42 26.8 94.1 26.87 93.8 27C93.52 27.13 93.26 27.33 93.05 27.57C92.83 27.85 92.66 28.17 92.56 28.51C92.44 28.91 92.38 29.33 92.38 29.75C92.38 30.24 92.43 30.73 92.55 31.2C92.66 31.62 92.83 32.01 93.07 32.37C93.28 32.69 93.57 32.96 93.91 33.15C94.27 33.35 94.68 33.45 95.1 33.44L95.1 33.42Z" fill="#6C6759" fill-opacity="1.000000" fill-rule="nonzero"/>
		<path id="Vector" d="M112.41 25.5L112.35 25.53C111.98 25.19 111.54 24.92 111.07 24.74C110.55 24.54 109.99 24.45 109.43 24.45C108.89 24.45 108.36 24.54 107.85 24.72C107.39 24.89 106.97 25.16 106.62 25.5C106.27 25.86 106 26.29 105.82 26.76C105.62 27.3 105.53 27.87 105.54 28.45C105.53 29.11 105.62 29.77 105.81 30.4C105.97 30.97 106.25 31.5 106.62 31.96C106.99 32.41 107.45 32.76 107.97 33C108.56 33.26 109.2 33.39 109.85 33.38C110.11 33.38 110.37 33.35 110.63 33.3C110.88 33.25 111.13 33.16 111.37 33.06C111.61 32.95 111.83 32.82 112.05 32.67C112.26 32.52 112.45 32.34 112.62 32.15L112.69 32.2L112.15 33.61C111.78 33.74 111.41 33.85 111.02 33.91C110.61 33.98 110.2 34.02 109.78 34.02C109 34.02 108.22 33.9 107.47 33.65C106.81 33.43 106.2 33.08 105.67 32.62C105.17 32.17 104.77 31.62 104.5 31.01C104.21 30.35 104.07 29.64 104.08 28.93C104.08 28.5 104.14 28.07 104.25 27.65C104.35 27.23 104.51 26.83 104.72 26.46C104.94 26.08 105.2 25.73 105.51 25.41C105.83 25.09 106.19 24.82 106.58 24.59C107 24.35 107.45 24.17 107.91 24.05C108.43 23.92 108.96 23.85 109.48 23.86C110.32 23.85 111.14 23.99 111.93 24.26L112.41 25.5Z" fill="#6C6759" fill-opacity="1.000000" fill-rule="nonzero"/>
		<path id="Vector" d="M113.47 30.09C113.46 29.58 113.57 29.07 113.77 28.6C113.97 28.15 114.25 27.74 114.6 27.4C114.96 27.06 115.38 26.79 115.84 26.61C116.33 26.41 116.85 26.32 117.37 26.32C117.89 26.32 118.4 26.41 118.89 26.59C119.35 26.76 119.77 27.02 120.13 27.36C120.49 27.7 120.77 28.11 120.97 28.56C121.36 29.52 121.37 30.59 121.01 31.56C120.84 32.01 120.59 32.42 120.26 32.76C119.91 33.12 119.49 33.41 119.03 33.6C118.5 33.81 117.93 33.92 117.36 33.91C116.84 33.91 116.33 33.82 115.85 33.64C115.39 33.47 114.97 33.22 114.61 32.88C114.25 32.54 113.96 32.13 113.77 31.68C113.56 31.18 113.46 30.64 113.47 30.09ZM117.53 33.42C117.85 33.42 118.17 33.35 118.47 33.22C118.76 33.08 119.01 32.88 119.22 32.63C119.44 32.35 119.6 32.03 119.69 31.69C119.81 31.29 119.87 30.87 119.86 30.45C119.87 29.96 119.81 29.48 119.7 29C119.6 28.59 119.43 28.2 119.19 27.84C118.98 27.52 118.69 27.26 118.35 27.08C117.99 26.89 117.58 26.79 117.17 26.8C116.85 26.8 116.53 26.87 116.23 27C115.94 27.13 115.68 27.33 115.48 27.57C115.25 27.85 115.09 28.17 114.98 28.51C114.86 28.91 114.8 29.33 114.81 29.75C114.8 30.24 114.86 30.73 114.98 31.2C115.08 31.62 115.25 32.01 115.49 32.37C115.71 32.69 115.99 32.96 116.33 33.15C116.7 33.35 117.12 33.45 117.54 33.44L117.53 33.42Z" fill="#6C6759" fill-opacity="1.000000" fill-rule="nonzero"/>
		<path id="Vector" d="M129.23 33.88L128.98 33.88L123.56 28.55L123.56 30.97C123.56 31.38 123.56 31.74 123.56 32.04C123.56 32.35 123.56 32.61 123.58 32.83C123.59 33.02 123.61 33.2 123.63 33.39C123.65 33.51 123.67 33.64 123.71 33.76L123.71 33.78L122.68 33.78L122.68 33.76C122.71 33.64 122.74 33.51 122.76 33.39C122.78 33.24 122.8 33.05 122.81 32.83C122.83 32.61 122.84 32.36 122.84 32.04C122.84 31.73 122.84 31.38 122.84 30.97L122.84 29.26C122.84 28.85 122.84 28.49 122.84 28.19C122.84 27.89 122.84 27.62 122.81 27.4C122.79 27.18 122.78 27 122.76 26.85C122.74 26.72 122.71 26.6 122.68 26.48L122.68 26.45L123.1 26.45L128.5 31.81L128.5 29.26C128.5 28.85 128.5 28.49 128.5 28.19C128.5 27.89 128.5 27.62 128.5 27.4C128.5 27.18 128.48 27 128.46 26.85C128.45 26.72 128.42 26.6 128.38 26.48L128.38 26.45L129.4 26.45L129.4 26.48C129.36 26.6 129.34 26.72 129.32 26.85C129.3 27 129.28 27.18 129.27 27.4C129.26 27.62 129.25 27.87 129.24 28.19C129.24 28.5 129.24 28.85 129.24 29.26L129.23 33.88Z" fill="#6C6759" fill-opacity="1.000000" fill-rule="nonzero"/>
		<path id="Vector" d="M134.5 27.88L134.36 27.88C134.32 27.78 134.28 27.68 134.23 27.58C134.16 27.45 134.08 27.34 133.98 27.23C133.87 27.12 133.75 27.02 133.6 26.95C133.44 26.86 133.25 26.82 133.06 26.82C132.92 26.82 132.78 26.85 132.64 26.9C132.52 26.95 132.41 27.03 132.32 27.12C132.23 27.21 132.17 27.32 132.12 27.44C132.08 27.57 132.06 27.71 132.06 27.85C132.06 28.09 132.13 28.32 132.27 28.52C132.43 28.75 132.61 28.97 132.81 29.16C133.02 29.37 133.28 29.58 133.5 29.8C133.75 30.01 133.98 30.23 134.2 30.47C134.41 30.69 134.59 30.94 134.73 31.21C134.87 31.46 134.95 31.75 134.95 32.04C134.95 32.27 134.9 32.5 134.83 32.71C134.75 32.95 134.61 33.16 134.44 33.34C134.25 33.55 134.02 33.71 133.76 33.81C133.44 33.94 133.1 34.01 132.75 34C132.54 34 132.34 33.98 132.13 33.94C131.94 33.91 131.76 33.86 131.58 33.81C131.43 33.76 131.28 33.71 131.14 33.64C131.03 33.59 130.92 33.53 130.82 33.47L130.94 32.18L131.08 32.18C131.13 32.34 131.2 32.5 131.28 32.65C131.37 32.81 131.48 32.95 131.61 33.08C131.75 33.21 131.91 33.32 132.08 33.39C132.27 33.48 132.48 33.52 132.68 33.51C132.84 33.52 133 33.49 133.15 33.44C133.29 33.39 133.41 33.31 133.52 33.22C133.62 33.12 133.7 33 133.76 32.86C133.82 32.71 133.85 32.55 133.85 32.39C133.85 32.2 133.81 32 133.73 31.82C133.64 31.64 133.53 31.47 133.4 31.32C133.25 31.15 133.1 30.99 132.93 30.85C132.76 30.7 132.59 30.54 132.4 30.38C132.22 30.22 132.04 30.06 131.87 29.91C131.7 29.75 131.54 29.57 131.4 29.39C131.27 29.2 131.16 29 131.08 28.79C130.99 28.57 130.95 28.33 130.95 28.09C130.95 27.84 131.01 27.59 131.12 27.36C131.24 27.15 131.4 26.97 131.59 26.82C131.78 26.67 132 26.56 132.23 26.48C132.48 26.4 132.73 26.36 132.98 26.36C133.16 26.36 133.34 26.38 133.52 26.41C133.67 26.43 133.83 26.46 133.99 26.5C134.12 26.54 134.24 26.58 134.34 26.62L134.58 26.71L134.5 27.88Z" fill="#6C6759" fill-opacity="1.000000" fill-rule="nonzero"/>
		<path id="Vector" d="M141.99 29.21C141.99 28.8 141.99 28.45 141.99 28.15C141.99 27.85 141.99 27.59 141.96 27.37C141.93 27.16 141.93 26.97 141.91 26.82C141.89 26.7 141.87 26.58 141.84 26.46L141.84 26.43L142.85 26.43L142.85 26.46C142.81 26.58 142.79 26.7 142.77 26.83C142.77 26.98 142.74 27.16 142.73 27.38C142.71 27.6 142.7 27.85 142.7 28.17C142.69 28.48 142.7 28.83 142.7 29.24L142.7 31.19C142.71 31.62 142.63 32.05 142.47 32.45C142.33 32.78 142.11 33.07 141.84 33.3C141.56 33.52 141.24 33.68 140.9 33.77C140.5 33.88 140.09 33.93 139.68 33.93C139.27 33.93 138.85 33.88 138.45 33.78C138.09 33.69 137.75 33.53 137.45 33.31C137.17 33.09 136.94 32.8 136.79 32.48C136.62 32.09 136.53 31.66 136.55 31.24L136.55 29.26C136.55 28.85 136.55 28.49 136.55 28.19C136.55 27.89 136.55 27.62 136.51 27.4C136.47 27.18 136.47 27 136.45 26.85C136.43 26.72 136.4 26.6 136.36 26.48L136.36 26.45L137.91 26.45L137.91 26.48C137.87 26.6 137.84 26.72 137.83 26.84C137.8 26.99 137.78 27.17 137.77 27.39C137.77 27.61 137.74 27.86 137.73 28.17C137.72 28.47 137.73 28.82 137.73 29.23L137.73 31.27C137.72 31.61 137.78 31.95 137.91 32.27C138.02 32.51 138.18 32.72 138.38 32.89C138.59 33.05 138.82 33.16 139.07 33.22C139.32 33.28 139.59 33.31 139.85 33.31C140.12 33.31 140.39 33.28 140.64 33.22C140.89 33.16 141.13 33.05 141.33 32.89C141.54 32.73 141.7 32.51 141.8 32.27C141.93 31.95 142 31.61 141.99 31.27L141.99 29.21Z" fill="#6C6759" fill-opacity="1.000000" fill-rule="nonzero"/>
		<path id="Vector" d="M145.99 33.25C146.41 33.25 146.8 33.25 147.16 33.2C147.52 33.15 147.83 33.13 148.1 33.09C148.37 33.05 148.7 32.98 148.95 32.92L148.8 33.83L148.47 33.83C148.32 33.83 148.16 33.83 148 33.83L144.62 33.83L144.62 33.8C144.66 33.68 144.69 33.56 144.71 33.43C144.73 33.28 144.75 33.09 144.77 32.87C144.78 32.65 144.8 32.4 144.81 32.09C144.81 31.77 144.81 31.42 144.81 31.01L144.81 29.26C144.81 28.85 144.81 28.49 144.81 28.19C144.81 27.89 144.81 27.62 144.77 27.4C144.73 27.18 144.73 27 144.71 26.85C144.69 26.72 144.66 26.6 144.62 26.48L144.62 26.45L146.2 26.45L146.2 26.48C146.16 26.6 146.13 26.72 146.12 26.85C146.09 27 146.07 27.18 146.06 27.4C146.04 27.62 146.03 27.87 146.02 28.19C146.01 28.5 146.02 28.85 146.02 29.26L145.99 33.25Z" fill="#6C6759" fill-opacity="1.000000" fill-rule="nonzero"/>
		<path id="Vector" d="M152 26.96C151.59 26.96 151.22 26.96 150.88 27.01C150.54 27.06 150.25 27.08 150 27.12C149.76 27.17 149.47 27.23 149.24 27.29L149.37 26.41C149.44 26.41 149.56 26.41 149.71 26.41L150.18 26.41L150.65 26.41L154.5 26.41L154.97 26.41L155.44 26.41C155.59 26.41 155.7 26.41 155.77 26.41L155.91 27.29C155.69 27.23 155.44 27.18 155.16 27.12C154.88 27.07 154.63 27.04 154.29 27.01C153.95 26.97 153.57 26.96 153.15 26.96L153.15 30.97C153.15 31.38 153.15 31.74 153.15 32.04C153.15 32.35 153.15 32.61 153.19 32.83C153.22 33.05 153.22 33.24 153.24 33.39C153.26 33.51 153.29 33.64 153.33 33.76L153.33 33.79L151.75 33.79L151.75 33.76C151.78 33.64 151.81 33.51 151.83 33.39C151.86 33.24 151.87 33.05 151.89 32.83C151.91 32.61 151.92 32.36 151.94 32.04C151.94 31.73 151.94 31.38 151.94 30.97L152 26.96Z" fill="#6C6759" fill-opacity="1.000000" fill-rule="nonzero"/>
		<path id="Vector" d="M161.29 31.48L158.89 31.48L158.32 31.48L157.92 31.48L157.64 32.03C157.54 32.25 157.44 32.44 157.37 32.6C157.29 32.76 157.23 32.9 157.17 33.02C157.13 33.13 157.09 33.23 157.07 33.34C157.04 33.42 157.03 33.51 157.03 33.59C157.03 33.63 157.03 33.67 157.03 33.71C157.03 33.72 157.03 33.74 157.03 33.76L157.03 33.79L155.83 33.79L155.83 33.76C155.89 33.7 155.94 33.63 155.98 33.55C156.05 33.45 156.13 33.31 156.22 33.16C156.31 33 156.4 32.83 156.5 32.64C156.61 32.44 156.71 32.24 156.8 32.03L159.59 26.28L160.1 26.28L162.82 32.03C162.93 32.25 163.04 32.45 163.14 32.66C163.25 32.86 163.35 33.04 163.44 33.19C163.53 33.35 163.61 33.48 163.68 33.58C163.72 33.65 163.76 33.71 163.81 33.76L163.81 33.79L162.07 33.79C162.07 33.76 162.07 33.72 162.07 33.69L162.07 33.59C162.06 33.47 162.04 33.35 162 33.23C161.96 33.08 161.91 32.94 161.85 32.8C161.79 32.65 161.72 32.51 161.65 32.37L161.49 32.03L161.29 31.48ZM158.18 30.94L161.04 30.94L159.63 27.92L158.18 30.94Z" fill="#6C6759" fill-opacity="1.000000" fill-rule="nonzero"/>
		<path id="Vector" d="M171.24 33.88L170.97 33.88L165.55 28.55L165.55 30.97C165.55 31.38 165.55 31.74 165.55 32.04C165.55 32.35 165.55 32.61 165.57 32.83C165.6 33.05 165.6 33.24 165.62 33.39C165.64 33.51 165.66 33.64 165.7 33.76L165.7 33.78L164.7 33.78L164.7 33.76C164.73 33.64 164.76 33.51 164.78 33.39C164.8 33.24 164.82 33.05 164.83 32.83C164.85 32.61 164.86 32.36 164.86 32.04C164.86 31.73 164.86 31.38 164.86 30.97L164.86 29.26C164.86 28.85 164.86 28.49 164.86 28.19C164.86 27.89 164.86 27.62 164.83 27.4C164.8 27.18 164.8 27 164.78 26.85C164.76 26.72 164.73 26.6 164.7 26.48L164.7 26.45L165.12 26.45L170.54 31.81L170.54 29.26C170.54 28.85 170.54 28.49 170.54 28.19C170.54 27.89 170.54 27.62 170.52 27.4C170.5 27.18 170.49 27 170.48 26.85C170.46 26.72 170.44 26.6 170.4 26.48L170.4 26.45L171.42 26.45L171.42 26.48C171.38 26.6 171.35 26.72 171.34 26.85C171.34 27 171.3 27.18 171.28 27.4C171.27 27.62 171.26 27.87 171.26 28.19C171.25 28.5 171.26 28.85 171.26 29.26L171.24 33.88Z" fill="#6C6759" fill-opacity="1.000000" fill-rule="nonzero"/>
		<path id="Vector" d="M175.06 26.96C174.65 26.96 174.27 26.96 173.94 27.01C173.6 27.06 173.3 27.08 173.06 27.12C172.81 27.17 172.52 27.23 172.3 27.29L172.43 26.41C172.5 26.41 172.61 26.41 172.77 26.41L173.24 26.41L173.71 26.41L177.55 26.41L178.02 26.41L178.49 26.41C178.65 26.41 178.76 26.41 178.83 26.41L178.97 27.29C178.75 27.23 178.5 27.18 178.22 27.12C177.94 27.07 177.69 27.04 177.35 27.01C177.01 26.97 176.63 26.96 176.21 26.96L176.21 30.97C176.21 31.38 176.21 31.74 176.21 32.04C176.21 32.35 176.23 32.61 176.24 32.83C176.26 33.05 176.28 33.24 176.3 33.39C176.32 33.51 176.35 33.64 176.38 33.76L176.38 33.79L174.81 33.79L174.81 33.76C174.84 33.64 174.87 33.51 174.89 33.39C174.91 33.24 174.93 33.05 174.95 32.83C174.97 32.61 174.98 32.36 174.99 32.04C175 31.73 174.99 31.38 174.99 30.97L175.06 26.96Z" fill="#6C6759" fill-opacity="1.000000" fill-rule="nonzero"/>
		<path id="Vector" d="M97.02 46.09C97.02 46.07 97.02 46.04 97.02 46.02C97.02 45.99 97.02 45.96 97.02 45.93C97.01 45.83 97 45.72 96.97 45.61C96.94 45.47 96.89 45.32 96.82 45.18L96.26 43.92L95.57 43.92L93.93 43.92L93.31 43.92L92.79 45.13C92.74 45.24 92.69 45.37 92.63 45.5C92.58 45.63 92.56 45.77 92.55 45.92C92.55 45.95 92.55 45.98 92.55 46.01C92.55 46.03 92.55 46.05 92.55 46.07L91.61 46.07C91.7 45.97 91.77 45.87 91.83 45.76C91.91 45.6 92 45.42 92.1 45.19L94.76 39.28L95.14 39.28L97.66 44.96C97.72 45.1 97.78 45.22 97.84 45.35C97.9 45.48 97.96 45.59 98.02 45.69C98.08 45.79 98.13 45.87 98.17 45.94C98.2 45.99 98.23 46.03 98.26 46.07L97.02 46.09ZM94 43.49L96.09 43.49L94.79 40.5L93.51 43.47L94 43.49Z" fill="#6C6759" fill-opacity="1.000000" fill-rule="nonzero"/>
		<path id="Vector" d="M103.28 46.14L103.1 46.14L99.4 42.5L99.4 44.16C99.4 44.44 99.4 44.68 99.4 44.89C99.4 45.1 99.4 45.28 99.4 45.43C99.4 45.58 99.4 45.7 99.43 45.8C99.44 45.89 99.46 45.97 99.49 46.06L98.79 46.06C98.81 45.97 98.83 45.89 98.84 45.8C98.86 45.68 98.88 45.55 98.88 45.43C98.88 45.28 98.88 45.1 98.88 44.89C98.88 44.68 98.88 44.42 98.88 44.16L98.88 42.99C98.88 42.71 98.88 42.46 98.88 42.26C98.88 42.05 98.88 41.88 98.88 41.72C98.88 41.6 98.86 41.47 98.84 41.34C98.83 41.26 98.82 41.18 98.79 41.09L99.08 41.09L102.78 44.75L102.78 43C102.78 42.73 102.78 42.48 102.78 42.28C102.78 42.07 102.78 41.89 102.78 41.74C102.78 41.59 102.78 41.47 102.74 41.36C102.74 41.28 102.72 41.19 102.69 41.11L103.39 41.11C103.36 41.19 103.34 41.28 103.33 41.36C103.33 41.47 103.31 41.59 103.3 41.74C103.29 41.89 103.3 42.07 103.3 42.28C103.3 42.48 103.3 42.75 103.3 43L103.28 46.14Z" fill="#6C6759" fill-opacity="1.000000" fill-rule="nonzero"/>
		<path id="Vector" d="M109.08 46.14L108.9 46.14L105.2 42.5L105.2 44.16C105.2 44.44 105.2 44.68 105.2 44.89C105.2 45.1 105.2 45.28 105.2 45.43C105.2 45.58 105.2 45.7 105.23 45.8C105.24 45.89 105.26 45.97 105.28 46.06L104.59 46.06C104.61 45.97 104.63 45.89 104.64 45.8C104.64 45.7 104.67 45.58 104.68 45.43C104.69 45.28 104.68 45.1 104.68 44.89L104.68 42.26C104.68 42.05 104.68 41.88 104.68 41.72C104.68 41.57 104.66 41.45 104.64 41.34C104.63 41.26 104.61 41.18 104.59 41.09L104.87 41.09L108.57 44.75L108.57 43C108.57 42.73 108.57 42.48 108.57 42.28C108.57 42.07 108.57 41.89 108.57 41.74C108.57 41.59 108.57 41.47 108.54 41.36C108.53 41.28 108.52 41.19 108.49 41.11L109.18 41.11C109.16 41.19 109.14 41.28 109.13 41.36C109.13 41.47 109.1 41.59 109.09 41.74C109.09 41.89 109.09 42.07 109.09 42.28C109.09 42.48 109.09 42.75 109.09 43L109.08 46.14Z" fill="#6C6759" fill-opacity="1.000000" fill-rule="nonzero"/>
		<path id="Vector" d="M113.47 44.52L111.16 44.52L110.99 44.89C110.92 45.03 110.85 45.16 110.8 45.27C110.75 45.38 110.71 45.48 110.67 45.56C110.64 45.63 110.62 45.7 110.6 45.78C110.58 45.83 110.57 45.89 110.57 45.95C110.57 45.97 110.57 46 110.57 46.02C110.57 46.04 110.57 46.05 110.57 46.07L109.75 46.07C109.79 46.02 109.82 45.97 109.85 45.92C109.9 45.85 109.95 45.76 110.01 45.66L110.21 45.3C110.28 45.16 110.34 45.03 110.42 44.89L112.3 40.97L112.65 40.97L114.5 44.89C114.57 45.03 114.65 45.18 114.72 45.31L114.92 45.68C114.99 45.78 115.04 45.87 115.09 45.94C115.11 45.99 115.15 46.03 115.18 46.07L113.99 46.07C113.99 46.04 113.99 46.02 113.99 46L113.99 45.93C113.98 45.85 113.97 45.76 113.94 45.69C113.92 45.58 113.88 45.49 113.84 45.39C113.79 45.29 113.75 45.19 113.71 45.1L113.6 44.87L113.47 44.52ZM111.35 44.15L113.3 44.15L112.36 42.1L111.35 44.15Z" fill="#6C6759" fill-opacity="1.000000" fill-rule="nonzero"/>
		<path id="Vector" d="M121.46 40.5L121.35 40.5C121.32 40.41 121.28 40.33 121.23 40.26C121.18 40.16 121.1 40.08 121.02 40C120.92 39.92 120.82 39.85 120.7 39.81C120.43 39.71 120.13 39.71 119.85 39.81C119.74 39.85 119.64 39.91 119.56 40C119.48 40.08 119.41 40.19 119.38 40.3C119.34 40.42 119.31 40.55 119.32 40.68C119.32 40.91 119.38 41.13 119.51 41.32C119.64 41.54 119.8 41.74 119.98 41.92C120.17 42.12 120.37 42.32 120.59 42.51C120.81 42.71 121.01 42.92 121.2 43.14C121.39 43.34 121.54 43.57 121.67 43.81C121.8 44.04 121.86 44.3 121.86 44.56C121.86 44.77 121.82 44.97 121.76 45.17C121.69 45.37 121.58 45.56 121.43 45.72C121.27 45.89 121.08 46.02 120.87 46.11C120.61 46.22 120.33 46.27 120.05 46.26C119.88 46.26 119.71 46.24 119.55 46.21C119.4 46.18 119.25 46.14 119.11 46.09C118.98 46.05 118.86 46 118.74 45.93C118.64 45.88 118.55 45.83 118.48 45.78L118.59 44.75L118.7 44.75C118.74 44.9 118.8 45.04 118.87 45.17C118.95 45.3 119.05 45.42 119.16 45.52C119.27 45.62 119.4 45.7 119.55 45.76C119.7 45.82 119.86 45.85 120.02 45.85C120.16 45.85 120.31 45.83 120.45 45.78C120.57 45.73 120.68 45.66 120.77 45.57C120.87 45.48 120.94 45.37 120.99 45.25C121.03 45.12 121.06 44.99 121.06 44.86C121.06 44.67 121.02 44.49 120.95 44.32C120.87 44.15 120.78 43.99 120.67 43.85C120.55 43.69 120.42 43.55 120.27 43.41C120.13 43.27 119.98 43.14 119.8 42.99C119.63 42.85 119.5 42.71 119.33 42.56C119.19 42.41 119.05 42.25 118.94 42.09C118.82 41.92 118.73 41.73 118.66 41.54C118.58 41.34 118.55 41.12 118.55 40.9C118.55 40.67 118.6 40.45 118.69 40.24C118.78 40.05 118.91 39.88 119.07 39.74C119.22 39.59 119.4 39.49 119.6 39.42C119.8 39.34 120 39.3 120.21 39.3C120.36 39.3 120.5 39.31 120.64 39.34C120.76 39.36 120.88 39.39 120.99 39.43C121.08 39.46 121.17 39.49 121.26 39.53L121.46 39.61L121.46 40.5Z" fill="#6C6759" fill-opacity="1.000000" fill-rule="nonzero"/>
		<path id="Vector" d="M122.68 43.57C122.67 43.23 122.74 42.89 122.87 42.58C123.01 42.26 123.2 41.98 123.45 41.74C123.69 41.5 123.98 41.32 124.29 41.19C124.63 41.06 124.98 41 125.34 41C125.7 41 126.05 41.06 126.38 41.18C126.69 41.3 126.98 41.48 127.22 41.71C127.46 41.94 127.66 42.22 127.79 42.53C128.05 43.18 128.06 43.91 127.82 44.57C127.7 44.88 127.53 45.16 127.3 45.39C127.07 45.64 126.78 45.83 126.47 45.96C125.77 46.23 125 46.24 124.3 45.99C123.99 45.87 123.7 45.7 123.45 45.47C123.21 45.24 123.01 44.96 122.88 44.65C122.74 44.31 122.67 43.94 122.68 43.57ZM125.45 45.84C125.67 45.84 125.89 45.8 126.1 45.7C126.3 45.61 126.47 45.47 126.61 45.3C126.76 45.12 126.88 44.9 126.95 44.67C127.03 44.39 127.07 44.11 127.07 43.82C127.07 43.49 127.03 43.15 126.95 42.83C126.88 42.55 126.77 42.28 126.61 42.04C126.46 41.82 126.25 41.63 126.01 41.51C125.77 41.39 125.5 41.33 125.23 41.33C125.01 41.33 124.78 41.38 124.58 41.47C124.38 41.56 124.2 41.69 124.06 41.86C123.91 42.05 123.8 42.26 123.73 42.49C123.64 42.76 123.6 43.05 123.61 43.33C123.6 43.67 123.64 44 123.73 44.32C123.8 44.6 123.91 44.88 124.07 45.12C124.22 45.34 124.42 45.52 124.65 45.65C124.89 45.78 125.17 45.85 125.45 45.84Z" fill="#6C6759" fill-opacity="1.000000" fill-rule="nonzero"/>
		<path id="Vector" d="M128.95 41.08L129.48 41.08L129.88 41.08C130.05 41.08 130.26 41.08 130.52 41.08C130.73 41.08 130.94 41.1 131.15 41.16C131.33 41.21 131.5 41.29 131.65 41.4C131.79 41.49 131.9 41.62 131.98 41.77C132.06 41.93 132.1 42.1 132.1 42.28C132.1 42.43 132.08 42.57 132.03 42.71C131.99 42.83 131.92 42.94 131.84 43.04C131.75 43.14 131.65 43.22 131.54 43.28C131.41 43.34 131.28 43.39 131.15 43.43C131.34 43.46 131.53 43.51 131.72 43.58C131.88 43.65 132.02 43.74 132.15 43.85C132.27 43.96 132.37 44.08 132.43 44.23C132.5 44.37 132.53 44.54 132.53 44.7C132.54 44.91 132.5 45.12 132.41 45.32C132.32 45.51 132.18 45.67 132 45.8C131.53 46.07 130.98 46.2 130.44 46.16L130.16 46.16L129.82 46.16L129.47 46.16C129.36 46.16 129.27 46.16 129.2 46.16L128.95 46.16C128.97 46.08 128.99 46 129.01 45.91C129.01 45.81 129.04 45.68 129.05 45.53C129.06 45.38 129.05 45.21 129.05 45C129.05 44.79 129.05 44.53 129.05 44.26L129.05 43.09C129.05 42.82 129.05 42.57 129.05 42.36C129.05 42.16 129.05 41.97 129.05 41.82C129.05 41.67 129.02 41.55 129.01 41.44C129 41.36 128.97 41.27 128.95 41.19L128.95 41.08ZM129.89 43.32L130.06 43.32L130.21 43.32C130.48 43.34 130.75 43.25 130.95 43.07C131.05 42.96 131.13 42.84 131.17 42.71C131.22 42.57 131.24 42.43 131.23 42.29C131.23 42.16 131.21 42.03 131.17 41.9C131.14 41.79 131.09 41.69 131.02 41.6C130.94 41.51 130.85 41.45 130.75 41.4C130.64 41.36 130.52 41.33 130.4 41.33L130.17 41.33L130.01 41.33L129.92 41.44L129.89 43.32ZM130.51 43.64C130.36 43.64 130.23 43.64 130.13 43.64L129.89 43.67L129.89 44.82C129.89 45 129.89 45.15 129.89 45.29C129.89 45.44 129.89 45.51 129.89 45.58C129.89 45.65 129.89 45.72 129.89 45.77C129.97 45.79 130.06 45.81 130.14 45.81C130.22 45.82 130.29 45.82 130.36 45.81C130.7 45.84 131.03 45.74 131.3 45.53C131.44 45.35 131.53 45.14 131.57 44.92C131.61 44.69 131.59 44.46 131.52 44.25C131.48 44.12 131.41 44.01 131.32 43.92C131.21 43.83 131.09 43.76 130.96 43.71C130.82 43.66 130.67 43.64 130.51 43.64L130.51 43.64Z" fill="#6C6759" fill-opacity="1.000000" fill-rule="nonzero"/>
		<path id="Vector" d="M133.21 43.57C133.2 43.22 133.27 42.87 133.41 42.55C133.55 42.25 133.74 41.97 133.98 41.74C134.22 41.5 134.51 41.32 134.82 41.19C135.16 41.06 135.51 41 135.87 41C136.22 41 136.57 41.06 136.9 41.18C137.22 41.3 137.51 41.48 137.75 41.71C137.99 41.94 138.18 42.22 138.31 42.53C138.58 43.18 138.6 43.91 138.35 44.57C138.23 44.88 138.06 45.16 137.83 45.39C137.59 45.64 137.31 45.83 136.99 45.96C136.3 46.23 135.53 46.24 134.83 45.99C134.51 45.87 134.23 45.7 133.98 45.47C133.74 45.24 133.54 44.96 133.41 44.65C133.27 44.31 133.2 43.94 133.21 43.57ZM135.98 45.84C136.2 45.84 136.42 45.8 136.63 45.7C136.83 45.61 137 45.47 137.14 45.3C137.29 45.12 137.41 44.9 137.48 44.67C137.56 44.39 137.6 44.11 137.6 43.82C137.6 43.49 137.56 43.15 137.48 42.83C137.41 42.55 137.3 42.28 137.13 42.04C136.98 41.82 136.78 41.63 136.54 41.51C136.3 41.39 136.03 41.33 135.76 41.33C135.53 41.33 135.31 41.38 135.11 41.47C134.91 41.56 134.73 41.69 134.59 41.86C134.44 42.05 134.33 42.26 134.26 42.49C134.18 42.76 134.14 43.04 134.14 43.32C134.14 43.65 134.18 43.98 134.26 44.31C134.33 44.59 134.45 44.86 134.61 45.11C134.76 45.32 134.96 45.5 135.18 45.63C135.43 45.77 135.71 45.84 135.99 45.84L135.98 45.84Z" fill="#6C6759" fill-opacity="1.000000" fill-rule="nonzero"/>
		<path id="Vector" d="M140.43 45.73C140.72 45.73 140.98 45.73 141.23 45.69C141.47 45.65 141.7 45.64 141.87 45.61C142.04 45.59 142.27 45.54 142.45 45.5L142.34 46.12L142.12 46.12L141.79 46.12L139.48 46.12C139.51 46.03 139.53 45.95 139.55 45.86C139.55 45.76 139.57 45.64 139.58 45.49C139.59 45.34 139.61 45.16 139.61 44.95C139.62 44.74 139.61 44.48 139.61 44.22L139.61 43.05C139.61 42.77 139.61 42.52 139.61 42.32C139.61 42.11 139.61 41.94 139.58 41.79C139.56 41.64 139.56 41.51 139.55 41.4C139.53 41.32 139.51 41.24 139.48 41.16L140.56 41.16C140.53 41.24 140.51 41.32 140.5 41.4C140.5 41.51 140.48 41.64 140.46 41.79C140.45 41.94 140.46 42.11 140.44 42.32C140.42 42.52 140.44 42.79 140.44 43.05L140.43 45.73Z" fill="#6C6759" fill-opacity="1.000000" fill-rule="nonzero"/>
		<path id="Vector" d="M144.18 41.09L145.07 41.09L145.77 41.09C145.97 41.09 146.1 41.09 146.16 41.06L145.98 41.56C145.89 41.54 145.8 41.52 145.69 41.5C145.59 41.48 145.49 41.47 145.36 41.45C145.2 41.44 145.05 41.44 144.89 41.45L144.68 41.45L144.44 41.45L144.18 41.45L144.18 43.29C144.43 43.29 144.65 43.29 144.86 43.29C145.06 43.29 145.23 43.29 145.37 43.25C145.51 43.21 145.69 43.22 145.82 43.2L145.7 43.75L145.19 43.7L144.72 43.66L144.2 43.66L144.2 45.77C144.49 45.77 144.76 45.77 145 45.73C145.24 45.69 145.47 45.69 145.63 45.66C145.8 45.63 146.03 45.58 146.2 45.54L146.1 46.15L145.87 46.15L145.54 46.15L143.26 46.15C143.28 46.07 143.31 45.98 143.32 45.9C143.32 45.8 143.35 45.67 143.36 45.52C143.38 45.37 143.36 45.19 143.39 44.98C143.41 44.78 143.39 44.51 143.39 44.25L143.39 43.08C143.39 42.8 143.39 42.56 143.39 42.35C143.39 42.14 143.39 41.97 143.36 41.82C143.34 41.67 143.33 41.54 143.32 41.44C143.31 41.35 143.29 41.27 143.26 41.19L144.18 41.09Z" fill="#6C6759" fill-opacity="1.000000" fill-rule="nonzero"/>
		<path id="Vector" d="M147.74 41.09C147.74 41.11 147.74 41.14 147.74 41.16C147.74 41.19 147.74 41.22 147.74 41.25C147.74 41.36 147.76 41.47 147.78 41.58C147.83 41.75 147.88 41.9 147.95 42.05L149.19 44.88L150.43 42.11C150.46 42.05 150.49 41.99 150.52 41.92C150.54 41.86 150.57 41.79 150.6 41.72C150.62 41.64 150.64 41.57 150.66 41.5C150.67 41.43 150.68 41.36 150.68 41.28C150.68 41.25 150.68 41.21 150.68 41.18C150.68 41.16 150.68 41.14 150.68 41.12L151.53 41.12C151.45 41.22 151.37 41.33 151.31 41.45C151.2 41.64 151.1 41.84 151.02 42.04L149.14 46.17L148.84 46.17L147.13 42.28C147.07 42.14 147 42 146.93 41.87L146.74 41.52C146.68 41.41 146.62 41.33 146.58 41.26C146.55 41.21 146.52 41.16 146.48 41.12L147.74 41.09Z" fill="#6C6759" fill-opacity="1.000000" fill-rule="nonzero"/>
		<path id="Vector" d="M155.02 44.52L152.72 44.52L152.55 44.89L152.36 45.27C152.31 45.38 152.26 45.48 152.23 45.56C152.19 45.65 152.17 45.72 152.15 45.78C152.14 45.83 152.13 45.89 152.13 45.95C152.13 45.98 152.13 46.01 152.13 46.02C152.13 46.04 152.13 46.05 152.13 46.07L151.31 46.07C151.35 46.02 151.38 45.97 151.41 45.92L151.57 45.66L151.77 45.3L151.98 44.89L153.86 40.97L154.21 40.97L156.09 44.89C156.16 45.03 156.23 45.18 156.3 45.31L156.5 45.68C156.56 45.78 156.62 45.87 156.67 45.94C156.69 45.99 156.72 46.03 156.76 46.07L155.57 46.07C155.57 46.04 155.57 46.02 155.57 46L155.57 45.93C155.57 45.85 155.55 45.76 155.53 45.69C155.49 45.59 155.46 45.49 155.42 45.39C155.38 45.29 155.33 45.19 155.29 45.1L155.18 44.87L155.02 44.52ZM152.9 44.15L154.85 44.15L153.89 42.09L152.9 44.15Z" fill="#6C6759" fill-opacity="1.000000" fill-rule="nonzero"/>
		<path id="Vector" d="M0.26 38.06C1.07 31.25 3.69 24.79 7.85 19.34C12 13.89 17.54 9.65 23.89 7.06C30.16 4.55 36.99 3.76 43.67 4.79C47.03 5.33 50.3 6.33 53.38 7.76C52.4 6.59 48.01 1.42 38.76 -0.04C38.76 -0.04 53.33 1.74 61.53 12.94L61.4 12.86L61.53 12.97C61.36 12.84 61.18 12.73 61.01 12.62L58.66 11.14C54.01 8.45 48.84 6.77 43.5 6.23C41.9 6.08 40.3 6.02 38.7 6.05C37.9 6.1 37.09 6.1 36.3 6.21L35.11 6.33L33.93 6.51C24.4 8 15.84 13.19 10.12 20.97C4.43 28.71 1.96 38.37 3.24 47.9C4.1 54.23 6.6 60.23 10.47 65.3C14.35 70.38 19.48 74.36 25.36 76.86C26.83 77.5 28.34 78.03 29.88 78.46C30.65 78.66 31.42 78.88 32.23 79.03C32.62 79.1 33.01 79.2 33.41 79.26L34.6 79.45C41.05 80.39 47.64 79.65 53.72 77.32C47.75 80.26 41.08 81.49 34.45 80.89C27.7 80.3 21.24 77.88 15.75 73.89C10.23 69.86 5.88 64.43 3.15 58.16C0.44 51.83 -0.56 44.9 0.26 38.06Z" fill="url(#paint_linear_2_3423_0)" fill-opacity="1.000000" fill-rule="nonzero"/>
		<path id="Vector" d="M15.91 21.28C11.68 28.88 11.68 38.41 16.14 45.89C20.8 53.69 30.27 58.9 39.92 58.73C49.58 58.56 58.95 52.89 62.71 44.69C64.51 40.86 65 36.53 64.09 32.39C63.09 28.16 60.56 24.45 56.98 21.99C52.47 18.89 45.67 18.14 41.36 21.47C43.85 19.7 47.21 19.15 50.29 19.72C53.33 20.33 56.11 21.84 58.28 24.06C60.55 26.32 62.13 29.18 62.8 32.32C63.49 35.84 63.08 39.48 61.64 42.76C59.47 47.64 55.62 51.56 50.79 53.82C45.76 56.15 40.11 56.75 34.71 55.52C31.53 54.8 28.53 53.45 25.9 51.54C23.26 49.62 21.04 47.19 19.38 44.38C17.72 41.58 16.64 38.47 16.23 35.23C15.81 32 16.06 28.72 16.96 25.58C18.03 21.48 20.24 17.76 23.34 14.86C26.62 11.85 30.87 10.12 35.32 9.98C28.8 13.95 25.23 21.24 24.87 28.43C24.69 32.09 25.28 35.83 27.07 39.09C28.91 42.5 32.02 45.05 35.72 46.2C39.48 47.3 43.96 46.6 46.8 44.05C43.68 46.2 39.21 46.32 35.71 44.73C34.02 43.94 32.52 42.8 31.28 41.41C30.04 40.01 29.1 38.38 28.5 36.61C27.32 33.18 27.4 29.46 28.2 25.94C29.45 20.47 32.59 15.17 37.69 12.14C42.78 9.11 49.95 8.8 54.75 12.22C55.31 12.57 55.77 13.05 56.09 13.63C56.31 14.23 56.42 14.87 56.42 15.51C56.57 17.11 57.18 18.64 58.17 19.9C57.77 19.18 57.55 18.38 57.52 17.55C57.53 17.13 57.67 16.73 57.92 16.39C58.17 16.06 58.53 15.81 58.93 15.7C59.58 15.62 60.24 15.75 60.81 16.07C62.57 16.85 64.23 17.84 65.75 19.03L64.71 20.74L66.73 18.45C59.26 10.45 47.27 6.27 35.94 7.69C24.6 9.11 14.25 16.07 9.35 25.6C6.37 31.45 5.39 38.12 6.57 44.59C7.13 48.09 8.27 51.48 9.94 54.61C11.66 57.6 13.89 60.27 16.52 62.51C20.32 65.82 24.75 68.32 29.55 69.87C36.69 72.09 44.32 72.19 51.51 70.15C58.56 68.14 64.56 63.56 68.84 58.12C73.12 52.67 75.35 45.93 75.07 39.3C74.81 45.99 72.27 52.39 67.87 57.43C63.56 62.4 57.88 65.99 51.55 67.75C44.56 69.71 37.15 69.53 30.28 67.23C24.15 65.2 18.77 61.38 14.82 56.28C10.59 50.61 8.72 43.51 9.6 36.48C9.98 33.53 10.77 30.64 11.95 27.91C12.54 26.54 13.21 25.22 13.97 23.95C14.72 22.69 15.7 21.59 16.46 20.34C16.27 20.64 16.09 20.96 15.91 21.28Z" fill="url(#paint_linear_2_3424_0)" fill-opacity="1.000000" fill-rule="nonzero"/>
		<path id="Vector" d="M52.77 26.65C52.77 30.46 49.69 33.54 45.89 33.54C42.09 33.54 39.01 30.46 39.01 26.65C39.01 22.85 42.09 19.77 45.89 19.77C49.69 19.77 52.77 22.85 52.77 26.65Z" fill="url(#paint_linear_2_3425_0)" fill-opacity="1.000000" fill-rule="evenodd"/>
	</g>
</svg>
