<svg width="2618.176758" height="636.967773" viewBox="0 0 2618.18 636.968" fill="none" xmlns="http://www.w3.org/2000/svg" xmlns:xlink="http://www.w3.org/1999/xlink">
	<desc>
			Created with Pixso.
	</desc>
	<defs/>
	<path id="Vector 8" d="M1575.5 162.96L1605.93 183.56C1607.2 184.42 1608.84 184.48 1610.17 183.72L1636.48 168.62C1637.73 167.91 1639.27 167.92 1640.51 168.65L1647.25 172.64C1648.62 173.44 1650.33 173.37 1651.62 172.44L1669 159.96" stroke="#E0DCD3" stroke-opacity="1.000000" stroke-width="1.000000"/>
	<path id="Vector 9" d="M1063.5 283.46L1053.3 314.07C1053.1 314.66 1053.05 315.28 1053.13 315.9L1055.8 334.54C1055.93 335.46 1055.73 336.4 1055.25 337.19L1045.59 353C1045.19 353.63 1045 354.35 1045 355.09L1045 384.1C1045 384.98 1044.71 385.84 1044.17 386.54L1022.16 415.11C1021.73 415.67 1021.45 416.33 1021.36 417.03L1015.5 461.96" stroke="#E0DCD3" stroke-opacity="1.000000" stroke-width="1.000000"/>
	<path id="Vector 10" d="M1053.5 316.46L1032 327.45C1031.34 327.79 1030.8 328.29 1030.41 328.92L1017.42 349.97C1016.83 350.92 1015.88 351.58 1014.78 351.8L985.5 357.46" stroke="#E0DCD3" stroke-opacity="1.000000" stroke-width="1.000000"/>
	<path id="Vector 11" d="M1036.5 396.96L1043.5 416.46" stroke="#E0DCD3" stroke-opacity="1.000000" stroke-width="1.000000"/>
	<path id="Vector 12" d="M1056 335.46L1091.63 351.4C1093.06 352.05 1094 353.48 1094 355.06L1094 378.11C1094 379.56 1094.79 380.9 1096.06 381.61L1124.98 397.62C1125.94 398.16 1126.65 399.07 1126.92 400.15L1137 440.46" stroke="#E0DCD3" stroke-opacity="1.000000" stroke-width="1.000000"/>
	<path id="Vector 13" d="M1608 184.46L1568.35 209.78C1567.2 210.52 1566.5 211.79 1566.5 213.16L1566.5 246.73C1566.5 248.12 1565.78 249.41 1564.6 250.14L1515.5 280.46" stroke="#E0DCD3" stroke-opacity="1.000000" stroke-width="1.000000"/>
	<path id="Vector 14" d="M1109.5 388.96L1105.5 405.96" stroke="#E0DCD3" stroke-opacity="1.000000" stroke-width="1.000000"/>
	<path id="Vector 15" d="M1081 346.96L1081 357.33C1081 358.07 1080.79 358.8 1080.41 359.43L1077 364.96" stroke="#E0DCD3" stroke-opacity="1.000000" stroke-width="1.000000"/>
	<path id="Vector 16" d="M1131 415.96L1138 423.96" stroke="#E0DCD3" stroke-opacity="1.000000" stroke-width="1.000000"/>
	<path id="Vector 17" d="M1094 365.46L1098.5 372.46" stroke="#E0DCD3" stroke-opacity="1.000000" stroke-width="1.000000"/>
	<path id="Vector 18" d="M1538.5 266.96L1538.5 283.96" stroke="#E0DCD3" stroke-opacity="1.000000" stroke-width="1.000000"/>
	<path id="Vector 19" d="M1566.5 227.96L1572.5 232.96" stroke="#E0DCD3" stroke-opacity="1.000000" stroke-width="1.000000"/>
	<path id="Vector 20" d="M1597.5 190.96L1609.01 222.96L1613.15 234.5C1613.38 235.13 1613.76 235.7 1614.27 236.14L1626.25 246.71L1639 257.96M1609.01 222.96L1603 242.46M1626.25 246.71L1633 247.46" stroke="#E0DCD3" stroke-opacity="1.000000" stroke-width="1.000000"/>
	<path id="Vector 5" d="M1229 318.96L1608.82 147.48C1613.13 145.53 1618 145.18 1622.55 146.48L1962.64 243.64C1966.77 244.83 1971.17 244.64 1975.19 243.13L2618 0.46" stroke="#E0DCD3" stroke-opacity="1.000000" stroke-width="1.000000"/>
	<path id="Vector 6" d="M0.5 599.96L155.23 632.54C159.61 633.46 164.18 632.89 168.2 630.9L668.91 383.96C673.46 381.71 678.7 381.28 683.55 382.75L782.49 412.69C787.32 414.15 792.51 413.74 797.04 411.53L1055.77 285.5C1059.8 283.53 1064.39 282.98 1068.77 283.94L1269 327.46" stroke="#E0DCD3" stroke-opacity="1.000000" stroke-width="1.000000"/>
	<path id="Vector 21" d="M676 381.96L681.41 402.71C681.77 404.1 681.36 405.58 680.33 406.59L670.21 416.46L661.85 424.62C661.61 424.85 661.41 425.1 661.24 425.38L650.5 442.71L639.5 460.46M650.5 442.71L643 445.46M670.21 416.46L671 420.46" stroke="#E0DCD3" stroke-opacity="1.000000" stroke-width="1.000000"/>
</svg>
