<svg  class="main-svg-sprite main-svg-sprite--icons" xmlns="http://www.w3.org/2000/svg" xmlns:xlink="http://www.w3.org/1999/xlink"><symbol viewBox="0 0 9 40" id="arr-d" xmlns="http://www.w3.org/2000/svg"><path stroke="#373631" d="M4.5 0v40"/><path clip-rule="evenodd" d="M9 28.8c-2.803.514-5 5.312-5 11.154h1c0-2.974.594-5.616 1.509-7.479.781-1.591 1.68-2.41 2.491-2.647V28.8z"/><path clip-rule="evenodd" d="M0 28.8c2.803.514 5 5.312 5 11.154H4c0-2.974-.594-5.616-1.509-7.479C1.71 30.884.811 30.065 0 29.828V28.8z"/></symbol><symbol id="arr-l" viewBox="0 0 50 9" xml:space="preserve" xmlns="http://www.w3.org/2000/svg"><path d="M0 4h50v1H0z" id="bLine_371"/><path id="bSubtract" class="bst1" d="M14 9C13.4 6.2 7.4 4 .1 4v1C6.7 5 12.3 6.8 13 9h1z"/><path id="bSubtract_1_" class="bst1" d="M14 0C13.4 2.8 7.4 5 .1 5V4C6.7 4 12.3 2.2 13 0h1z"/></symbol><symbol viewBox="0 0 50 9" id="arr-r" xmlns="http://www.w3.org/2000/svg"><path class="cst0" d="M0 4h50v1H0z"/><path class="cst1" d="M36 0c.6 2.8 6.6 5 13.9 5V4C43.3 4 37.7 2.2 37 0h-1z"/><path class="cst1" d="M36 9c.6-2.8 6.6-5 13.9-5v1C43.3 5 37.7 6.8 37 9h-1z"/></symbol><symbol viewBox="0 0 11.46 11.46" id="arr-rt" xmlns="http://www.w3.org/2000/svg"><path d="M9.75 1H6.96c-.28 0-.5-.22-.5-.5 0-.29.22-.5.5-.5h4c.28 0 .5.21.5.5v4c0 .28-.22.5-.5.5s-.5-.22-.5-.5V1.7L.7 11.46l-.7-.71L9.75 1z"/></symbol><symbol viewBox="0 0 16.838 16.837" id="close" xmlns="http://www.w3.org/2000/svg"><path d="M.5.5l15.83 15.83m-15.83 0L16.33.5" stroke="#625C4E" stroke-linejoin="round"/></symbol><symbol viewBox="0 0 14 16" id="download" xmlns="http://www.w3.org/2000/svg"><path d="M1.167 13.833a.833.833 0 100 1.667h11.667a.833.833 0 100-1.667H1.167zm9.959-6.419a.834.834 0 00-1.18 0L7.834 9.528V1.332a.833.833 0 10-1.667 0v8.194L4.054 7.415a.833.833 0 10-1.178 1.18l3.535 3.534a.833.833 0 001.179 0l3.536-3.535a.834.834 0 000-1.179z"/></symbol><symbol viewBox="0 0 15 15" id="euro" xmlns="http://www.w3.org/2000/svg"><path d="M5.003 4.75C5.88 3.088 7.525 2 9.348 2c1.343 0 2.574.58 3.486 1.545a.917.917 0 001.332-1.257C12.938.986 11.24.167 9.348.167 6.434.167 4.008 2.089 3 4.75H1.583a.917.917 0 100 1.833h.97c-.07.61-.07 1.224 0 1.833h-.97a.917.917 0 000 1.834H3c1.007 2.66 3.434 4.583 6.348 4.583 1.89 0 3.591-.82 4.818-2.121a.917.917 0 00-1.332-1.258C11.922 12.42 10.69 13 9.348 13c-1.824 0-3.468-1.088-4.346-2.75h3.915a.916.916 0 100-1.834H4.402a6.248 6.248 0 010-1.833h4.515a.917.917 0 000-1.833H5.003z"/></symbol><symbol viewBox="0 0 14.402 14.335" id="search" xmlns="http://www.w3.org/2000/svg"><path d="M5.26 10.02C2.63 10.02.5 7.89.5 5.26S2.63.5 5.26.5s4.76 2.13 4.76 4.76-2.13 4.76-4.76 4.76z" stroke="#877F6A" stroke-linejoin="round"/><path d="M13.9 13.83L8.59 8.59" stroke="#877F6A" stroke-linejoin="round" stroke-linecap="round"/></symbol><symbol viewBox="0 0 10 41" id="to-top" xmlns="http://www.w3.org/2000/svg"><path stroke="#373631" d="M5 40.5V.5"/><path clip-rule="evenodd" d="M.5 14.5c2.803-.643 5-6.64 5-13.943h-1c0 3.773-.603 7.144-1.542 9.534-.47 1.198-1.006 2.1-1.55 2.685-.328.354-.633.566-.908.678V14.5z"/><path clip-rule="evenodd" d="M9.5 14.5c-2.803-.643-5-6.64-5-13.943h1c0 3.773.603 7.144 1.542 9.534.47 1.198 1.006 2.1 1.55 2.685.328.354.633.566.908.678V14.5z"/></symbol></svg>