<svg width="30.000000" height="30.001343" viewBox="0 0 30 30.0013" fill="none" xmlns="http://www.w3.org/2000/svg" xmlns:xlink="http://www.w3.org/1999/xlink">
	<desc>
			Created with Pixso.
	</desc>
	<defs/>
	<path id="Vector" d="M27.92 2.76C28.06 2.6 28.17 2.4 28.24 2.2C28.31 1.99 28.34 1.77 28.33 1.55C28.31 1.33 28.25 1.12 28.16 0.92C28.06 0.73 27.92 0.55 27.76 0.41C27.59 0.26 27.4 0.15 27.2 0.08C26.99 0.01 26.77 -0.02 26.55 0C26.33 0.01 26.12 0.07 25.92 0.17C25.73 0.27 25.55 0.4 25.41 0.56L16.89 10.3L9.66 0.66C9.51 0.45 9.31 0.29 9.07 0.17C8.84 0.06 8.59 0 8.33 0L1.66 0C1.35 0 1.05 0.08 0.79 0.24C0.52 0.41 0.31 0.64 0.17 0.92C0.03 1.19 -0.03 1.5 0 1.81C0.03 2.12 0.14 2.41 0.33 2.66L11.06 16.96L2.07 27.23C1.93 27.4 1.82 27.59 1.75 27.8C1.68 28 1.65 28.22 1.66 28.44C1.68 28.66 1.74 28.87 1.83 29.07C1.93 29.26 2.07 29.44 2.23 29.58C2.4 29.73 2.59 29.84 2.79 29.91C3 29.98 3.22 30.01 3.44 29.99C3.66 29.98 3.87 29.92 4.07 29.82C4.26 29.73 4.44 29.59 4.58 29.43L13.1 19.69L20.33 29.33C20.48 29.54 20.68 29.7 20.92 29.82C21.15 29.93 21.4 30 21.66 30L28.33 30C28.64 30 28.94 29.91 29.2 29.75C29.47 29.58 29.68 29.35 29.82 29.07C29.96 28.8 30.02 28.49 29.99 28.18C29.96 27.87 29.85 27.58 29.66 27.33L18.93 13.03L27.92 2.76ZM22.5 26.66L5 3.33L7.5 3.33L25 26.66L22.5 26.66Z" fill="#BBA370" fill-opacity="1.000000" fill-rule="evenodd"/>
</svg>
