<svg width="100%" height="335" xmlns="http://www.w3.org/2000/svg" xmlns:xlink="http://www.w3.org/1999/xlink">
	<defs>
		<pattern id="wbg" patternUnits="userSpaceOnUse" width="2541.000000" height="335.000000">
			<path id="Vector 3" d="M564.61 37.94C594.95 31.8 642.72 -8.33 683.13 6.39C733.64 24.79 815.16 26.37 840.16 16.38C865.17 6.39 901.17 11.12 924.68 26.37C948.18 41.62 1023.7 36.36 1056.71 26.37C1089.71 16.38 1113.72 -3.6 1154.73 6.39C1195.74 16.38 1232.24 36.36 1279.25 26.37C1326.26 16.38 1346.77 -3.6 1376.77 6.39C1406.78 16.38 1457.29 36.36 1487.29 26.37C1517.3 16.38 1558.31 6.39 1581.81 12.18C1604.26 17.7 1635.82 43.2 1687.83 31.63C1739.84 20.06 1743.84 6.39 1777.35 16.38C1810.86 26.37 1810.36 38.99 1847.86 37.94C1885.37 36.89 1885.87 16.38 1917.38 16.38C1942.58 16.38 1970.39 32.86 1979.89 42.14C1987.39 51.78 2011.6 63.18 2048.39 31.63C2094.4 -7.8 2131.92 65.28 2182.43 53.71C2232.94 42.14 2246.51 10.6 2276.45 10.6C2310.95 10.6 2345.46 50.03 2372.47 47.93C2399.47 45.82 2445.98 9.02 2471.49 16.38C2491.88 22.27 2526.33 43.72 2541 53.71L2541 335L0 335L0 37.94C22.5 19.54 58.51 2.19 72.01 12.7C104.42 37.94 141.83 45.3 157.53 45.3C189.53 45.3 201.04 19.54 227.04 12.7C253.05 5.87 294.55 13.23 340.56 37.94C415.58 78.42 451.58 -26.2 484.59 6.39C511 32.47 548.94 38.29 564.61 37.94Z" fill="#CEC7B5" fill-opacity="1.000000" fill-rule="evenodd"/>
		</pattern>
	</defs>
	<rect width="100%" height="100%" fill="url(#wbg)"/>
</svg>
