<svg width="22" height="24" viewBox="0 0 22 24" fill="none" xmlns="http://www.w3.org/2000/svg">
<path d="M3.50195 0.333496C2.7063 0.333496 1.94324 0.684685 1.38063 1.30981C0.818024 1.93493 0.501953 2.78277 0.501953 3.66683V20.3335C0.501953 21.2176 0.818024 22.0654 1.38063 22.6905C1.94324 23.3156 2.7063 23.6668 3.50195 23.6668H18.502C19.2976 23.6668 20.0607 23.3156 20.6233 22.6905C21.1859 22.0654 21.502 21.2176 21.502 20.3335V3.66683C21.502 2.78277 21.1859 1.93493 20.6233 1.30981C20.0607 0.684685 19.2976 0.333496 18.502 0.333496H3.50195ZM9.50195 17.6902L5.44145 13.1785L7.56245 10.8218L9.50195 12.9768L15.1915 6.65516L17.3125 9.01183L9.50195 17.6902Z" fill="white"/>
</svg>
