<svg width="20" height="20" viewBox="0 0 20 20" fill="none" xmlns="http://www.w3.org/2000/svg">
<path d="M3.65197 0.09375C1.62894 0.09375 0 1.6412 0 3.56304V15.6245C0 17.5463 1.62894 19.0938 3.65197 19.0938H10.5334V11.6659H8.46585V8.9917H10.5334V6.70695C10.5334 4.91192 11.755 3.26379 14.5691 3.26379C15.7085 3.26379 16.551 3.3677 16.551 3.3677L16.4848 5.86502C16.4848 5.86502 15.6255 5.85731 14.6879 5.85731C13.6731 5.85731 13.5103 6.30149 13.5103 7.03888V8.99172H16.5654L16.4323 11.666H13.5103V19.0938H16.3485C18.3715 19.0938 20.0005 17.5463 20.0005 15.6245V3.56306C20.0005 1.64122 18.3715 0.093769 16.3485 0.093769H3.65195L3.65197 0.09375Z" fill="white"/>
</svg>
