<svg width="22" height="20" viewBox="0 0 22 20" fill="none" xmlns="http://www.w3.org/2000/svg">
<path fill-rule="evenodd" clip-rule="evenodd" d="M6.84314 0.861641C7.91838 0.816641 8.2612 0.806641 11.0002 0.806641C13.7391 0.806641 14.0819 0.817474 15.1563 0.861641C16.2306 0.905807 16.9639 1.06164 17.6055 1.28747C18.2775 1.51831 18.887 1.87914 19.3912 2.34581C19.9045 2.80331 20.3005 3.35664 20.5535 3.96831C20.8028 4.55164 20.9733 5.21831 21.0228 6.19331C21.0723 7.17247 21.0833 7.48414 21.0833 9.97331C21.0833 12.4633 21.0714 12.775 21.0228 13.7525C20.9742 14.7275 20.8028 15.3941 20.5535 15.9775C20.3005 16.5892 19.9039 17.1435 19.3912 17.6016C18.887 18.0683 18.2775 18.4283 17.6055 18.6583C16.9639 18.885 16.2306 19.04 15.1581 19.085C14.0819 19.13 13.7391 19.14 11.0002 19.14C8.2612 19.14 7.91838 19.1291 6.84314 19.085C5.77066 19.0408 5.03734 18.885 4.39568 18.6583C3.72279 18.4283 3.11312 18.0677 2.60913 17.6016C2.09615 17.1439 1.69918 16.5899 1.4459 15.9783C1.19749 15.395 1.02699 14.7283 0.977491 13.7533C0.927992 12.7741 0.916992 12.4625 0.916992 9.97331C0.916992 7.48331 0.928909 7.17164 0.977491 6.19497C1.02607 5.21831 1.19749 4.55164 1.4459 3.96831C1.69956 3.35671 2.09683 2.80273 2.61005 2.34497C3.11333 1.87872 3.72238 1.51784 4.39477 1.28747C5.03642 1.06164 5.76975 0.906641 6.84223 0.861641H6.84314ZM15.0747 2.51164C14.0114 2.46747 13.6924 2.45831 11.0002 2.45831C8.30795 2.45831 7.98896 2.46747 6.92564 2.51164C5.94208 2.55247 5.40859 2.70164 5.05292 2.82747C4.58268 2.99414 4.24627 3.19164 3.89336 3.51247C3.55882 3.80835 3.30137 4.16854 3.13987 4.56664C3.00146 4.88997 2.83738 5.37497 2.79246 6.26914C2.74388 7.23581 2.7338 7.52581 2.7338 9.97331C2.7338 12.4208 2.74388 12.7108 2.79246 13.6775C2.83738 14.5716 3.00146 15.0566 3.13987 15.38C3.3012 15.7775 3.55878 16.1383 3.89336 16.4341C4.21877 16.7383 4.61568 16.9725 5.05292 17.1191C5.40859 17.245 5.94208 17.3941 6.92564 17.435C7.98896 17.4791 8.30704 17.4883 11.0002 17.4883C13.6933 17.4883 14.0114 17.4791 15.0747 17.435C16.0582 17.3941 16.5917 17.245 16.9474 17.1191C17.4176 16.9525 17.754 16.755 18.107 16.4341C18.4415 16.1383 18.6991 15.7775 18.8604 15.38C18.9989 15.0566 19.1629 14.5716 19.2079 13.6775C19.2564 12.7108 19.2665 12.4208 19.2665 9.97331C19.2665 7.52581 19.2564 7.23581 19.2079 6.26914C19.1629 5.37497 18.9989 4.88997 18.8604 4.56664C18.6771 4.13914 18.4599 3.83331 18.107 3.51247C17.7815 3.20837 17.3853 2.97432 16.9474 2.82747C16.5917 2.70164 16.0582 2.55247 15.0747 2.51164ZM9.71226 12.7991C10.4315 13.0713 11.2324 13.1081 11.9782 12.9031C12.7239 12.6981 13.3682 12.2641 13.8011 11.6752C14.2339 11.0863 14.4285 10.379 14.3515 9.67423C14.2745 8.96942 13.9307 8.31078 13.3789 7.81081C13.0271 7.4912 12.6017 7.24648 12.1334 7.09426C11.6651 6.94204 11.1655 6.88611 10.6706 6.93049C10.1757 6.97487 9.69774 7.11845 9.27117 7.35091C8.84461 7.58338 8.48005 7.89893 8.20373 8.27485C7.92742 8.65077 7.74622 9.07771 7.67319 9.52494C7.60015 9.97217 7.6371 10.4285 7.78137 10.8612C7.92564 11.2939 8.17365 11.6921 8.50753 12.0272C8.84141 12.3623 9.25286 12.626 9.71226 12.7991ZM7.33539 6.64164C7.81665 6.20412 8.388 5.85706 9.0168 5.62027C9.6456 5.38349 10.3195 5.26162 11.0002 5.26162C11.6808 5.26162 12.3547 5.38349 12.9835 5.62027C13.6123 5.85706 14.1837 6.20412 14.6649 6.64164C15.1462 7.07916 15.528 7.59857 15.7884 8.17022C16.0489 8.74187 16.1829 9.35456 16.1829 9.97331C16.1829 10.5921 16.0489 11.2047 15.7884 11.7764C15.528 12.348 15.1462 12.8675 14.6649 13.305C13.693 14.1886 12.3747 14.685 11.0002 14.685C9.6256 14.685 8.30734 14.1886 7.33539 13.305C6.36343 12.4214 5.81739 11.2229 5.81739 9.97331C5.81739 8.72369 6.36343 7.52525 7.33539 6.64164ZM17.3324 5.96331C17.4516 5.86103 17.5471 5.73804 17.6132 5.60162C17.6792 5.4652 17.7145 5.31811 17.7168 5.16908C17.7192 5.02005 17.6887 4.8721 17.6271 4.73398C17.5654 4.59587 17.4739 4.4704 17.358 4.36501C17.2421 4.25961 17.1041 4.17644 16.9522 4.1204C16.8002 4.06437 16.6375 4.03662 16.4735 4.03879C16.3096 4.04097 16.1478 4.07302 15.9978 4.13305C15.8477 4.19309 15.7124 4.27989 15.5999 4.38831C15.3811 4.59916 15.2613 4.87924 15.266 5.16908C15.2706 5.45892 15.3993 5.73571 15.6248 5.94068C15.8503 6.14565 16.1547 6.26266 16.4735 6.26689C16.7924 6.27111 17.1004 6.16221 17.3324 5.96331Z" fill="white"/>
</svg>
