<svg width="23" height="19" viewBox="0 0 23 19" fill="none" xmlns="http://www.w3.org/2000/svg">
<path d="M7.29224e-09 5.35691L11.1383 11.1498C11.25 11.2079 11.3741 11.2382 11.5 11.2382C11.6259 11.2382 11.75 11.2079 11.8617 11.1498L23 5.35795V15.4205C23.0001 16.2883 22.668 17.1233 22.072 17.7542C21.4759 18.385 20.6611 18.7638 19.7946 18.813L19.6023 18.8182H3.39773C2.52986 18.8182 1.69486 18.4862 1.06403 17.8902C0.433202 17.2941 0.0543623 16.4793 0.0052274 15.6128L7.29224e-09 15.4205V5.35691ZM3.39773 7.29224e-09H19.6023C20.4701 -5.6817e-05 21.3051 0.331988 21.936 0.92802C22.5668 1.52405 22.9456 2.33888 22.9948 3.20536L23 3.39773V3.59009L11.5 9.57009L7.29224e-09 3.59009V3.39773C-5.6817e-05 2.52986 0.331988 1.69486 0.92802 1.06403C1.52405 0.433202 2.33888 0.0543623 3.20536 0.0052274L3.39773 7.29224e-09H19.6023H3.39773Z" fill="white"/>
</svg>
