<svg  class="main-svg-sprite main-svg-sprite--icons" xmlns="http://www.w3.org/2000/svg" xmlns:xlink="http://www.w3.org/1999/xlink"><symbol viewBox="0 0 22 20" id="burger" xmlns="http://www.w3.org/2000/svg"><path stroke="#fff" stroke-width="2" d="M0 19h22M0 19h22M0 10h22M0 10h22M0 1h22M0 1h22"/></symbol><symbol viewBox="0 0 22 20" id="burger2" xmlns="http://www.w3.org/2000/svg"><path stroke="#000" stroke-width="2" d="M0 19h22M0 19h22M0 10h22M0 10h22M0 1h22M0 1h22"/></symbol><symbol viewBox="0 0 20 23" id="calendar" xmlns="http://www.w3.org/2000/svg"><path d="M19.464 7.188H.536A.537.537 0 010 6.647V5.031c0-1.19.96-2.156 2.143-2.156h2.143V.539c0-.298.24-.539.535-.539h1.786c.296 0 .536.241.536.54v2.335h5.714V.539c0-.298.24-.539.536-.539h1.786c.295 0 .535.241.535.54v2.335h2.143A2.15 2.15 0 0120 5.031v1.617c0 .298-.24.54-.536.54zM.536 8.624h18.928c.296 0 .536.241.536.54v11.679A2.15 2.15 0 0117.857 23H2.143A2.15 2.15 0 010 20.844V9.164c0-.298.24-.539.536-.539zm14.879 4.31l-1.257-1.276a.533.533 0 00-.758-.003l-4.734 4.725L6.613 14.3a.533.533 0 00-.757-.003l-1.268 1.266a.541.541 0 00-.003.762l3.688 3.74a.533.533 0 00.757.004l6.382-6.37c.21-.21.211-.552.003-.763z"/></symbol><symbol viewBox="0 0 20 20" id="cart-icon" xmlns="http://www.w3.org/2000/svg"><path d="M10 0C4.477 0 0 4.477 0 10s4.477 10 10 10 10-4.477 10-10S15.523 0 10 0zM4.96 4.225l1.78.559a.634.634 0 01.42.52l.1.98 8.059.9c.346.067.589.38.54.7l-.5 2.82a.615.615 0 01-.58.5H7.62l-.14.8h6.8c.355.013.616.284.62.6a.621.621 0 01-.62.6h-7.52c-.38-.031-.658-.332-.6-.7l.32-1.76-.5-4.92-1.38-.44a.62.62 0 01-.36-.3.631.631 0 01.26-.82.568.568 0 01.46-.04zm2.71 9.325a.937.937 0 110 1.875.937.937 0 010-1.875zm5.503 0a.937.937 0 110 1.875.937.937 0 010-1.875z"/></symbol><symbol viewBox="0 0 22 22" id="close" xmlns="http://www.w3.org/2000/svg"><path d="M21.89 18.788L14.102 11l7.788-7.788L18.788.11 11 7.876 3.234.11.11 3.234 7.876 11 .11 18.766l3.124 3.124L11 14.124l7.788 7.766 3.102-3.102z"/></symbol><symbol viewBox="0 0 25 18" id="gift" xmlns="http://www.w3.org/2000/svg"><path d="M3.825.148H7.3V3.77a2.605 2.605 0 00-3.326 3.326H.352V3.622A3.474 3.474 0 013.825.148zM9.036 10.06l1.99 1.992a.87.87 0 101.23-1.23l-1.992-1.99h14.403v5.21a3.473 3.473 0 01-3.474 3.474H9.037V10.06zM6.071 8.832l-1.992 1.99a.87.87 0 101.23 1.23l1.99-1.992v7.456H3.825a3.474 3.474 0 01-3.473-3.473v-5.21h5.72zM12.362 7.095A2.606 2.606 0 009.036 3.77V.15h12.158a3.473 3.473 0 013.473 3.473v3.473H12.362zM9.036 6.227v.868h.868a.869.869 0 10-.868-.868zM7.3 6.227v.868h-.87a.868.868 0 11.87-.868z"/></symbol><symbol viewBox="0 0 23 31" id="marker" xmlns="http://www.w3.org/2000/svg"><path d="M11.998 0C18.072 0 23 4.436 23 9.902c0 8.802-11.002 20.905-11.002 20.905S.995 18.704.995 9.902C.995 4.436 5.924 0 11.998 0zm0 15.403a4.4 4.4 0 100-8.801 4.4 4.4 0 000 8.801z"/></symbol><symbol viewBox="0 0 24 24" id="menu" xmlns="http://www.w3.org/2000/svg"><path d="M3 18h18v-2H3v2zm0-5h18v-2H3v2zm0-7v2h18V6H3z"/></symbol><symbol viewBox="0 0 32 32" id="search" xmlns="http://www.w3.org/2000/svg"><path d="M19.427 20.427a8.5 8.5 0 112-2l5.585 5.585c.55.55.546 1.431 0 1.976l-.023.023a1.398 1.398 0 01-1.976 0l-5.585-5.585zM14.5 20a6.5 6.5 0 100-13 6.5 6.5 0 000 13z"/></symbol><symbol viewBox="0 0 20 22" id="share" xmlns="http://www.w3.org/2000/svg"><path d="M3.68 7.39a3.65 3.65 0 012.475.975l6.57-3.754a3.695 3.695 0 111.078 1.802l-6.571 3.755c.069.262.107.534.113.806l6.455 3.69a3.662 3.662 0 11-1.197 2.697c.004-.302.045-.604.123-.895l-5.967-3.409A3.674 3.674 0 113.681 7.39z"/></symbol><symbol viewBox="0 0 24 24" id="time" xmlns="http://www.w3.org/2000/svg"><path d="M11.895 23.76C5.455 23.76.24 18.533.24 12.093.24 5.653 5.455.426 11.895.426c6.452 0 11.678 5.227 11.678 11.667 0 6.44-5.226 11.667-11.678 11.667zm3.85-17.162l-5.005 5.017v6.311h2.333v-5.355l4.329-4.328-1.657-1.645z"/></symbol></svg>