<svg width="20" height="19" viewBox="0 0 20 19" fill="none" xmlns="http://www.w3.org/2000/svg">
<path d="M13.0697 0.32373H6.93035C1.32788 0.32373 -0.000244141 1.55699 -0.000244141 6.75931V12.4602C-0.000244141 17.6625 1.32788 18.8957 6.93035 18.8957H13.0697C18.6722 18.8957 20.0003 17.6625 20.0003 12.4602V6.75931C20.0003 1.55699 18.659 0.32373 13.0697 0.32373ZM16.1459 13.5721H14.6941C14.1441 13.5721 13.9747 13.167 12.9853 12.2361C12.126 11.4625 11.7453 11.3598 11.5335 11.3598C11.2341 11.3598 11.1491 11.4382 11.1491 11.8194V13.0376C11.1491 13.3644 11.0385 13.5605 10.1072 13.5605C8.56722 13.5605 6.85848 12.6958 5.66036 11.0847C3.85349 8.72382 3.35912 6.95547 3.35912 6.58985C3.35912 6.39311 3.44349 6.20913 3.85036 6.20913H5.30536C5.67348 6.20913 5.81348 6.36641 5.9566 6.73203C6.67598 8.66056 7.8741 10.35 8.36847 10.35C8.55097 10.35 8.63534 10.2716 8.63534 9.83927V7.84748C8.57972 6.92878 8.0591 6.84985 8.0591 6.52369C8.0591 6.36641 8.19909 6.20913 8.42347 6.20913H10.7116C11.021 6.20913 11.1347 6.36641 11.1347 6.70476V9.39181C11.1347 9.68199 11.2747 9.78471 11.3591 9.78471C11.5416 9.78471 11.6978 9.68199 12.036 9.36744C13.0809 8.27927 13.8297 6.60145 13.8297 6.60145C13.9272 6.40471 14.0966 6.22074 14.4647 6.22074H15.9197C16.3559 6.22074 16.4534 6.42909 16.3559 6.71927C16.1734 7.50507 14.3928 9.83869 14.3928 9.83869C14.2397 10.0743 14.1809 10.177 14.3928 10.4399C14.5491 10.6367 15.0572 11.0447 15.3953 11.4103C16.0172 12.0661 16.4953 12.6163 16.6228 12.997C16.7659 13.3748 16.5547 13.5715 16.1441 13.5715L16.1459 13.5721Z" fill="white"/>
</svg>
