<svg width="22" height="22" viewBox="0 0 22 22" fill="none" xmlns="http://www.w3.org/2000/svg">
<path d="M11.6875 20.625C9.91146 20.625 8.24284 20.1953 6.68164 19.3359L0 22L2.66406 15.3184C1.80469 13.7572 1.375 12.0885 1.375 10.3125C1.375 8.90885 1.64714 7.57324 2.19141 6.30566C2.73568 5.03809 3.46973 3.94238 4.39355 3.01855C5.31738 2.09473 6.41309 1.36068 7.68066 0.816406C8.94824 0.272135 10.2839 0 11.6875 0C13.0911 0 14.4268 0.272135 15.6943 0.816406C16.9619 1.36068 18.0576 2.09473 18.9814 3.01855C19.9053 3.94238 20.6393 5.03809 21.1836 6.30566C21.7279 7.57324 22 8.90885 22 10.3125C22 11.7161 21.7279 13.0518 21.1836 14.3193C20.6393 15.5869 19.9053 16.6826 18.9814 17.6064C18.0576 18.5303 16.9619 19.2643 15.6943 19.8086C14.4268 20.3529 13.0911 20.625 11.6875 20.625ZM15.125 12.375H13.75L12.9766 13.0625C12.332 12.8906 11.5407 12.3356 10.6025 11.3975C9.66439 10.4593 9.10938 9.66797 8.9375 9.02344L9.625 8.25V6.875C9.625 6.63151 9.53906 6.38802 9.36719 6.14453C9.19531 5.90104 9.00553 5.72559 8.79785 5.61816C8.59017 5.51074 8.44336 5.5 8.35742 5.58594L7.34766 6.5957C6.78906 7.1543 6.70671 8.02441 7.10059 9.20605C7.49447 10.3877 8.24642 11.5335 9.35645 12.6436C10.4665 13.7536 11.6123 14.5055 12.7939 14.8994C13.9756 15.2933 14.8457 15.2109 15.4043 14.6523L16.4141 13.6426C16.5 13.5566 16.4893 13.4098 16.3818 13.2021C16.2744 12.9945 16.099 12.8047 15.8555 12.6328C15.612 12.4609 15.3685 12.375 15.125 12.375Z" fill="white"/>
</svg>
