<svg xmlns="http://www.w3.org/2000/svg" viewBox="0 0 470.53 494"><g id="Layer_2" data-name="Layer 2"><g id="Capa_1" data-name="Capa 1"><path stroke="#fff" stroke-width="22" fill="#fff" d="M277.51,385.34a124.2,124.2,0,0,1-109.64,65.05q-51,0-87.3-35.57T44.3,329.22A116.57,116.57,0,0,1,64.44,263.1a121.42,121.42,0,0,1,53.78-44.77l-4.69-35.43A155.28,155.28,0,0,0,37.82,240Q9,280.27,9,329.22a149.55,149.55,0,0,0,21.38,78A159.47,159.47,0,0,0,167.87,485a156.88,156.88,0,0,0,93.5-30q41.92-30,57.92-78.43l-28.13-55.17A114.55,114.55,0,0,1,277.51,385.34Z"/><path stroke="#fff" stroke-width="22" fill="#fff" d="M442.31,348.42,387.7,375.2,324.81,252.14q-4.69-9.46-15.72-9.46H183.59l-4.41-34.62H291.44V173.44H174.77L164.56,95.28q18.76,1.89,33.1-11.23T212,52.27a41.28,41.28,0,0,0-13-30.56A43,43,0,0,0,167.87,9a44.71,44.71,0,0,0-26.75,8.52,40.1,40.1,0,0,0-15.73,22.31q-2.2,7-1.65,11.36l26.48,210.69a17,17,0,0,0,5.92,11,17.31,17.31,0,0,0,11.73,4.46H298.05l65.93,129q4.69,9.45,15.73,9.46a16.86,16.86,0,0,0,8-1.89l70.6-34.62Z"/></g></g></svg>
