<svg width="133" height="28" viewBox="0 0 133 28" fill="none" xmlns="http://www.w3.org/2000/svg">
<rect x="94.0054" width="38.9947" height="26.4607" rx="5.87765" fill="url(#paint0_linear_199_2)"/>
<path d="M12.8968 10.5643C12.5402 10.0624 12.1043 9.69925 11.5892 9.47473C11.0874 9.237 10.4402 9.11814 9.6478 9.11814H6.37904C5.62623 9.11814 5.04512 9.2304 4.6357 9.45492C4.22628 9.67944 4.02157 10.003 4.02157 10.4256C4.02157 10.7558 4.14704 11.0332 4.39797 11.2577C4.66211 11.4822 5.17059 11.6605 5.92339 11.7926L11.3317 12.3275C12.0713 12.4463 12.6854 12.6444 13.1741 12.9218C13.676 13.1859 14.0722 13.5095 14.3627 13.8925C14.6533 14.2623 14.858 14.6717 14.9769 15.1208C15.0957 15.5698 15.1552 16.0321 15.1552 16.5075C15.1552 17.7358 14.6929 18.7197 13.7684 19.4593C12.8571 20.1857 11.5628 20.5489 9.88553 20.5489H6.53753C5.0055 20.5489 3.73762 20.298 2.73387 19.7961C1.73013 19.281 1.01034 18.5348 0.57451 17.5575L3.1499 15.933C3.50649 16.6858 3.96214 17.2075 4.51684 17.4981C5.08474 17.7886 5.77151 17.9339 6.57715 17.9339H9.92515C10.6912 17.9339 11.2657 17.8084 11.6487 17.5575C12.0317 17.2933 12.2232 16.9302 12.2232 16.4679C12.2232 16.0321 12.0779 15.6953 11.7874 15.4576C11.4968 15.2198 11.0412 15.0481 10.4204 14.9425L4.71494 14.2689C4.04138 14.1501 3.47347 13.9718 3.01122 13.734C2.54897 13.4963 2.17257 13.2123 1.88201 12.8822C1.60467 12.552 1.39995 12.1888 1.26788 11.7926C1.13581 11.3832 1.06978 10.9605 1.06978 10.5247C1.06978 9.25681 1.53863 8.26628 2.47634 7.55309C3.41404 6.83991 4.76117 6.48332 6.51771 6.48332H9.72705C10.9949 6.48332 12.0647 6.67482 12.9364 7.05783C13.8213 7.42763 14.5014 7.96912 14.9769 8.6823L12.8968 10.5643ZM30.0305 6.66161V9.51435H24.4241V20.3706H21.3733V9.51435H15.747V6.66161H30.0305ZM43.8058 6.66161H46.8566V14.0114C46.8566 15.134 46.6981 16.1113 46.3811 16.9434C46.0642 17.7622 45.6151 18.4424 45.034 18.9839C44.4529 19.5121 43.7595 19.9084 42.9539 20.1725C42.1483 20.4234 41.2502 20.5489 40.2596 20.5489H37.8031C36.8126 20.5489 35.9145 20.4234 35.1089 20.1725C34.3032 19.9084 33.6099 19.5121 33.0287 18.9839C32.4476 18.4424 31.9986 17.7622 31.6816 16.9434C31.3646 16.1113 31.2062 15.134 31.2062 14.0114V6.66161H34.257V14.0114C34.257 14.6849 34.3495 15.2594 34.5344 15.7349C34.7193 16.1972 34.9702 16.5736 35.2872 16.8641C35.6041 17.1547 35.9805 17.366 36.4164 17.4981C36.8522 17.6301 37.3145 17.6962 37.8031 17.6962H40.2596C40.7615 17.6962 41.2238 17.6301 41.6464 17.4981C42.0822 17.366 42.4586 17.1547 42.7756 16.8641C43.0926 16.5736 43.3435 16.1972 43.5284 15.7349C43.7133 15.2594 43.8058 14.6849 43.8058 14.0114V6.66161ZM57.4971 6.66161C58.6461 6.66161 59.6631 6.8201 60.5479 7.13707C61.446 7.45404 62.1988 7.90969 62.8064 8.50401C63.4271 9.09833 63.896 9.81812 64.2129 10.6634C64.5299 11.5086 64.6884 12.4595 64.6884 13.5161V13.5359C64.6884 14.5793 64.5299 15.5236 64.2129 16.3688C63.896 17.2141 63.4271 17.9339 62.8064 18.5282C62.1988 19.1225 61.446 19.5782 60.5479 19.8951C59.6631 20.2121 58.6461 20.3706 57.4971 20.3706H49.0379V6.66161H57.4971ZM52.069 17.5575H57.4971C58.8838 17.5575 59.9272 17.2009 60.6272 16.4877C61.3272 15.7613 61.6772 14.7774 61.6772 13.5359V13.5161C61.6772 12.2614 61.3272 11.2775 60.6272 10.5643C59.9272 9.83793 58.8838 9.47473 57.4971 9.47473H52.069V17.5575ZM66.4164 20.3706V6.66161H69.4474V20.3706H66.4164ZM71.162 13.5161V13.4963C71.162 12.4397 71.3271 11.4822 71.6573 10.6237C71.9874 9.75208 72.4629 9.01248 73.0836 8.40495C73.7176 7.78422 74.4836 7.30876 75.3817 6.97858C76.293 6.64841 77.3231 6.48332 78.4721 6.48332H81.5824C82.7314 6.48332 83.755 6.64841 84.6531 6.97858C85.5644 7.30876 86.3304 7.78422 86.9511 8.40495C87.585 9.01248 88.0671 9.75208 88.3973 10.6237C88.7275 11.4822 88.8925 12.4397 88.8925 13.4963V13.5161C88.8925 14.5859 88.7275 15.5566 88.3973 16.4283C88.0671 17.2867 87.585 18.0263 86.9511 18.6471C86.3304 19.2546 85.5644 19.7235 84.6531 20.0536C83.755 20.3838 82.7314 20.5489 81.5824 20.5489H78.4721C77.3231 20.5489 76.293 20.3838 75.3817 20.0536C74.4836 19.7235 73.7176 19.2546 73.0836 18.6471C72.4629 18.0263 71.9874 17.2867 71.6573 16.4283C71.3271 15.5566 71.162 14.5859 71.162 13.5161ZM74.1732 13.5161C74.1732 14.8104 74.543 15.8472 75.2826 16.6264C76.0222 17.3924 77.0854 17.7754 78.4721 17.7754H81.5824C82.9824 17.7754 84.0455 17.3924 84.7719 16.6264C85.5115 15.8472 85.8813 14.8104 85.8813 13.5161V13.4963C85.8813 12.2152 85.5115 11.1917 84.7719 10.4256C84.0455 9.64642 82.9824 9.25681 81.5824 9.25681H78.4721C77.0854 9.25681 76.0222 9.64642 75.2826 10.4256C74.543 11.1917 74.1732 12.2152 74.1732 13.4963V13.5161Z" fill="black"/>
<path d="M105.912 6.48332H108.825C109.591 6.48332 110.284 6.57577 110.905 6.76067C111.539 6.93236 112.074 7.1965 112.509 7.55309C112.958 7.89648 113.302 8.33231 113.54 8.8606C113.777 9.38888 113.896 10.0096 113.896 10.7228C113.896 11.6341 113.672 12.3869 113.223 12.9812C112.773 13.5623 112.133 14.0774 111.301 14.5265L105.833 17.399L104.803 17.8348H114.074V20.3706H100.801V17.5575L109.439 12.902C109.993 12.5454 110.39 12.2152 110.627 11.9114C110.878 11.5945 111.004 11.2115 111.004 10.7624C111.004 10.2606 110.819 9.87094 110.449 9.59359C110.079 9.31624 109.538 9.17757 108.825 9.17757H105.912C105.305 9.17757 104.77 9.30304 104.308 9.55397C103.859 9.7917 103.522 10.1879 103.297 10.7426L100.564 9.57378C100.973 8.47759 101.646 7.69177 102.584 7.21631C103.522 6.72765 104.631 6.48332 105.912 6.48332ZM127.981 6.66161V9.35587L120.869 20.3706H117.165L124.455 9.4153H114.669V6.66161H127.981Z" fill="white"/>
<defs>
<linearGradient id="paint0_linear_199_2" x1="64.5287" y1="-26.4309" x2="110.32" y2="-38.3427" gradientUnits="userSpaceOnUse">
<stop stop-color="#DBFF00"/>
<stop offset="1" stop-color="#09BA8F"/>
</linearGradient>
</defs>
</svg>
