<svg  class="main-svg-sprite main-svg-sprite--icons" xmlns="http://www.w3.org/2000/svg" xmlns:xlink="http://www.w3.org/1999/xlink"><symbol id="arr-d" viewBox="0 0 8 5" xml:space="preserve" xmlns="http://www.w3.org/2000/svg"><path d="M3.9 4.7c-.2 0-.3-.1-.5-.2l-2.9-3C.3 1.2.3.8.5.6c.3-.2.7-.2.9 0l2.4 2.5L6.2.6c.2-.3.7-.3.9 0 .3.2.3.7 0 .9l-2.9 3c0 .1-.2.2-.3.2z"/></symbol><symbol viewBox="0 0 15.24 25.93" id="arr-d2" xmlns="http://www.w3.org/2000/svg"><g data-name="Layer 2"><path d="M7.62 25.93a.92.92 0 01-.33-.06 1 1 0 01-.29-.21L.28 19a.94.94 0 010-1.33.92.92 0 011.32 0l5.08 5.08V.94a.94.94 0 011.88 0v21.79l5.08-5.08a.94.94 0 011.33 0A1 1 0 0115 19l-6.71 6.66-.09.07-.2.13a.8.8 0 01-.34.07z" data-name="Layer 1"/></g></symbol><symbol id="arr-l3" viewBox="0 0 36 21" xml:space="preserve" xmlns="http://www.w3.org/2000/svg"><path d="M10.4 20.9c-.3 0-.5-.1-.7-.3L.3 11.2c-.1-.1-.2-.2-.2-.3-.1-.2-.1-.3-.1-.5 0-.1 0-.3.1-.4 0-.1.1-.2.2-.3L9.7.3c.4-.4 1-.4 1.4 0s.4 1 0 1.4L3.4 9.4H35c.6 0 1 .4 1 1s-.4 1-1 1H3.4l7.7 7.7c.4.4.4 1 0 1.4-.1.3-.4.4-.7.4z"/></symbol><symbol id="arr-r" viewBox="0 0 4 6" xml:space="preserve" xmlns="http://www.w3.org/2000/svg"><path d="M.5 5.7c-.1 0-.3-.1-.4-.2-.1-.1-.1-.5.1-.7L2.1 3 .2 1.2C0 1 0 .7.2.5.4.3.7.3.9.5l2.3 2.2c.1.1.1.2.1.3s0 .3-.1.4L.9 5.6c-.1.1-.2.1-.4.1z"/></symbol><symbol viewBox="0 0 20 13" id="arr-r2" xmlns="http://www.w3.org/2000/svg"><path class="est0" d="M14 12.3c-.3 0-.5-.1-.7-.3-.4-.4-.4-1 0-1.4l3.3-3.3H1c-.6 0-1-.4-1-1s.4-1 1-1h15.5L13.3 2c-.4-.4-.4-1 0-1.4s1-.4 1.4 0l5 5c.1.1.2.2.2.3 0 .1.1.2.1.4 0 .1 0 .3-.1.4 0 .1-.1.2-.2.3l-5 5c-.2.2-.5.3-.7.3z"/></symbol><symbol id="arr-r3" viewBox="0 0 36 21" xml:space="preserve" xmlns="http://www.w3.org/2000/svg"><path d="M25.6 20.9c-.3 0-.5-.1-.7-.3-.4-.4-.4-1 0-1.4l7.7-7.7H1c-.6 0-1-.4-1-1s.4-1 1-1h31.6l-7.7-7.7c-.4-.4-.4-1 0-1.4s1-.4 1.4 0l9.4 9.4c.1.1.2.2.2.3 0 .1.1.2.1.4 0 .1 0 .3-.1.4 0 .1-.1.2-.2.3l-9.4 9.4c-.2.2-.5.3-.7.3z"/></symbol><symbol id="arr-r4" viewBox="0 0 17 13" xml:space="preserve" xmlns="http://www.w3.org/2000/svg"><path d="M1 13c-.6 0-1-.4-1-1 0-9 6-9 8-9h5.6l-1.3-1.3c-.4-.4-.4-1 0-1.4s1-.4 1.4 0l3 3c.1.1.2.2.2.3.1.1.1.3.1.4 0 .1 0 .3-.1.4 0 .1-.1.2-.2.3l-3 3c-.4.4-1 .4-1.4 0s-.4-1 0-1.4L13.6 5H8c-2.1 0-6 0-6 7 0 .6-.4 1-1 1z"/></symbol><symbol viewBox="0 0 21 20" id="close" xmlns="http://www.w3.org/2000/svg"><rect x="2.318" y=".126" width="25.536" height="2.394" rx="1.197" transform="rotate(45 2.318 .126)"/><rect width="25.536" height="2.394" rx="1.197" transform="scale(-1 1) rotate(45 -9.493 -22.489)"/></symbol><symbol viewBox="0 0 20 20" id="fullscreen" xmlns="http://www.w3.org/2000/svg"><path d="M19.92.62a1 1 0 00-.54-.54A1 1 0 0019 0h-6a1 1 0 100 2h3.59L2 16.59V13a1 1 0 10-2 0v6a1 1 0 00.08.38 1 1 0 00.54.54c.12.051.25.078.38.08h6a1 1 0 000-2H3.41L18 3.41V7a1 1 0 002 0V1a1.001 1.001 0 00-.08-.38z"/></symbol><symbol viewBox="0 0 18 18" id="icon" xmlns="http://www.w3.org/2000/svg"><path clip-rule="evenodd" d="M18 8a8 8 0 01-12.906 6.32l-3.387 3.387a1 1 0 01-1.414-1.414l3.387-3.387A8 8 0 1118 8zm-2 0A6 6 0 114 8a6 6 0 0112 0z"/></symbol><symbol viewBox="0 0 18 21" id="location-marker" xmlns="http://www.w3.org/2000/svg"><path d="M8.79 11.37a2.589 2.589 0 100-5.178 2.589 2.589 0 000 5.177zm-.92 8.945a1.293 1.293 0 001.84 0l5.294-5.308a8.79 8.79 0 10-12.428 0l5.295 5.308zM2.616 8.185a6.227 6.227 0 012.757-4.596 6.227 6.227 0 016.836 0 6.24 6.24 0 01.97 9.593L8.79 17.57l-4.389-4.388a6.175 6.175 0 01-1.786-4.997z"/></symbol><symbol viewBox="0 0 32 17" id="menu" xmlns="http://www.w3.org/2000/svg"><rect width="32" height="3" rx="1.5"/><rect y="7" width="32" height="3" rx="1.5"/><rect y="14" width="20" height="3" rx="1.5"/></symbol><symbol viewBox="0 0 24 4" id="minus" xmlns="http://www.w3.org/2000/svg"><rect x=".5" y="3.5" width="3" height="23" rx="1.5" transform="rotate(-90 .5 3.5)"/></symbol><symbol viewBox="0 0 21 21" id="phone" xmlns="http://www.w3.org/2000/svg"><path d="M5.42 0H2.21C.99 0 0 .99 0 2.21 0 12.589 8.412 21 18.79 21c1.22 0 2.21-.99 2.21-2.21v-3.21c0-.954-.58-1.812-1.467-2.167l-3.075-1.23a2.333 2.333 0 00-2.36.374l-.794.662c-.928.773-2.29.71-3.144-.142L7.923 10.84a2.333 2.333 0 01-.142-3.144l.662-.794a2.333 2.333 0 00.374-2.36l-1.23-3.075A2.333 2.333 0 005.42 0z"/></symbol><symbol viewBox="0 0 41 41" id="plus" xmlns="http://www.w3.org/2000/svg"><rect x="19" width="3" height="41" rx="1.5"/><rect y="22" width="3" height="41" rx="1.5" transform="rotate(-90 0 22)"/></symbol><symbol viewBox="0 0 23 22" id="plus2" xmlns="http://www.w3.org/2000/svg"><rect x="10" width="3" height="22" rx="1.5"/><rect x=".5" y="12.5" width="3" height="22" rx="1.5" transform="rotate(-90 .5 12.5)"/></symbol><symbol viewBox="0 0 18 18" id="search" xmlns="http://www.w3.org/2000/svg"><path clip-rule="evenodd" d="M18 8a8 8 0 01-12.906 6.32l-3.387 3.387a1 1 0 01-1.414-1.414l3.387-3.387A8 8 0 1118 8zm-2 0A6 6 0 114 8a6 6 0 0112 0z"/></symbol><symbol id="time" viewBox="0 0 20 20" xml:space="preserve" xmlns="http://www.w3.org/2000/svg"><path d="M10 20C4.5 20 0 15.5 0 10S4.5 0 10 0s10 4.5 10 10-4.5 10-10 10zm0-18c-4.4 0-8 3.6-8 8s3.6 8 8 8 8-3.6 8-8-3.6-8-8-8zm5 9h-5c-.6 0-1-.4-1-1V5c0-.6.4-1 1-1s1 .4 1 1v4h4c.6 0 1 .4 1 1s-.4 1-1 1z"/></symbol></svg>