<svg width="54" height="62" viewBox="0 0 54 62" fill="none" xmlns="http://www.w3.org/2000/svg">
<path d="M41.4975 23.2697L53.6652 15.9192L27.3102 0L0 15.9192L12.6118 23.2697L0 30.6203L12.6118 37.9708L0 45.3214L27.3186 61.2406L53.6652 45.3214L41.4975 37.9708L53.6652 30.6203L41.4975 23.2697ZM25.2488 45.3466L24.989 45.1954L25.2488 45.3466ZM27.2935 44.1033L16.7767 37.9708L27.2935 31.8384L37.4416 37.9708L27.2935 44.1033ZM27.2935 29.4022L16.7767 23.2697L27.2935 17.1373L37.4416 23.2697L27.2935 29.4022ZM4.17321 15.9192L27.2935 2.44458L37.3159 8.50144L26.9583 14.9111L14.6984 22.0601L4.17321 15.9192ZM4.17321 30.6203L14.6984 24.4878L25.2236 30.6203L14.6984 36.7528L4.17321 30.6203ZM49.6009 45.3214L27.2935 58.8044L17.0951 52.8568L27.3102 46.5395L39.4612 39.1973L49.6009 45.3214ZM29.3382 30.6203L39.4695 24.4962L49.6009 30.6203L39.4695 36.7444L29.3382 30.6203Z" fill="#E4000D"/>
</svg>
