<svg width="130" height="31" viewBox="0 0 130 31" fill="none" xmlns="http://www.w3.org/2000/svg">
<path d="M15.7073 30.0822V18.7005C13.7704 18.8997 12.0817 18.9993 10.6315 18.9993C7.18469 18.9993 4.65174 18.3819 3.03263 17.1571C1.12546 15.7331 0.171875 13.4528 0.171875 10.3162V1.54346H5.72452V9.33036C5.72452 11.2124 6.19137 12.5268 7.13502 13.2636C7.95948 13.891 9.31039 14.2096 11.1878 14.2096C12.8069 14.2096 14.3167 14.11 15.7073 13.9109V1.54346H21.26V30.0822H15.7073Z" fill="white"/>
<path d="M47.1166 30.0829L44.5936 24.0884H33.1109L30.5879 30.0829H24.5684L36.9053 0.946777H41.0872L53.0765 30.0829H47.1166ZM34.869 19.5577H42.9745L38.9615 9.29131L34.869 19.5577Z" fill="white"/>
<path d="M56.4238 1.54346H64.7081C66.4762 1.54346 67.9165 1.69282 69.0389 1.99155C70.1614 2.29028 71.2242 2.86783 72.2175 3.72419C74.1545 5.43691 75.118 7.73713 75.118 10.6149C75.118 13.2935 74.3333 15.4245 72.7738 16.9878C71.0951 18.6707 68.6913 19.5171 65.5623 19.5171H61.9765V30.0822H56.4238V1.54346ZM61.9665 6.3331V14.7175H64.2313C65.8504 14.7175 67.0622 14.4187 67.8569 13.8213C68.88 13.0247 69.3965 11.9094 69.3965 10.4855C69.3965 9.09138 68.8701 8.00599 67.8172 7.22929C66.9629 6.63183 65.6517 6.3331 63.8936 6.3331H61.9665Z" fill="white"/>
<path d="M84.7636 1.54346V13.6122L95.2232 1.54346H102.226L90.1871 14.7175L102.862 30.0822H95.5212L85.3993 17.2865L84.7636 17.9238V30.0722H79.2109V1.54346H84.7636Z" fill="white"/>
<path d="M111.902 1.54346V13.6122L122.362 1.54346H129.365L117.326 14.7175L130 30.0822H122.66L112.548 17.2865L111.912 17.9238V30.0722H106.359V1.54346H111.902Z" fill="white"/>
</svg>
