<svg xmlns="http://www.w3.org/2000/svg" viewBox="0 0 46 63"><g id="Layer_2" data-name="Layer 2"><g id="Layer_1-2" data-name="Layer 1"><path id="ae96eeecd750ec2a83543f00c9bc789d_b" data-name="ae96eeecd750ec2a83543f00c9bc789d  b" d="M23.51,51.52A.5.5,0,0,1,23,52a.5.5,0,0,1-.52-.48,6.22,6.22,0,0,0-4.83-6.14,23,23,0,1,1,10.68,0,6.22,6.22,0,0,0-4.83,6.14Z" fill="#ec483f"/><path id="ae96eeecd750ec2a83543f00c9bc789d_b-2" data-name="ae96eeecd750ec2a83543f00c9bc789d  b" d="M23.51,51.52A.5.5,0,0,1,23,52a.5.5,0,0,1-.52-.48,6.22,6.22,0,0,0-4.83-6.14,23,23,0,1,1,10.68,0,6.22,6.22,0,0,0-4.83,6.14Z" fill="#ec483f"/><path d="M23,63a4,4,0,1,1,4-4A4,4,0,0,1,23,63Z" fill="none"/><path d="M23,61a2,2,0,0,0,.09-4H23a2,2,0,0,0,0,4Z" fill="#ec483f" fill-rule="evenodd"/><path d="M21,29.46v4.8H32.4a.6.6,0,0,0,.6-.6h0V19.86a.6.6,0,0,0-.6-.6H27.45l-.16,2H31v1H27.21l-.16,2H31v1H27L26.6,30a.3.3,0,0,1-.32.28h0A.31.31,0,0,1,26,30V13.66a.4.4,0,0,0-.4-.4H25v-.6a.4.4,0,0,0-.4-.4H14.4a.4.4,0,0,0-.4.4h0v.6h-.6a.4.4,0,0,0-.4.4h0v20a.6.6,0,0,0,.6.6H18v-4.8a.2.2,0,0,1,.2-.2h2.6A.2.2,0,0,1,21,29.46Zm-4.5-3.2v-6h2v6Zm4-6v6h2v-6Zm-4-2v-3h2v3Zm4-3v3h2v-3Zm7.5,13v-1h3v1Z" fill="#fff" fill-rule="evenodd"/><path d="M27.53,18.26l.07-1h3a.4.4,0,0,1,.4.4v.6Z" fill="#fff"/></g></g></svg>