<svg  class="main-svg-sprite main-svg-sprite--icons" xmlns="http://www.w3.org/2000/svg" xmlns:xlink="http://www.w3.org/1999/xlink"><symbol id="arr-d" viewBox="0 0 18 10" xml:space="preserve" xmlns="http://www.w3.org/2000/svg"><path d="M9 9.8c-.2 0-.4-.1-.5-.2l-8-8C.2 1.3.2.8.5.5s.8-.3 1.1 0L9 7.9 16.5.4c.3-.3.8-.3 1.1 0s.3.8 0 1.1l-8 8c-.2.2-.4.3-.6.3z"/></symbol><symbol viewBox="0 0 19 11" id="arr-d2" xmlns="http://www.w3.org/2000/svg"><path clip-rule="evenodd" d="M9.5 10.667c-.294 0-.588-.11-.827-.329L.923 3.255C.376 2.755.301 1.86.758 1.26c.456-.6 1.27-.681 1.819-.181l6.937 6.34 6.926-6.112c.556-.49 1.37-.394 1.816.215.447.61.36 1.5-.196 1.992l-7.75 6.84a1.222 1.222 0 01-.81.313"/></symbol><symbol viewBox="0 0 18 34" id="arr-l" xmlns="http://www.w3.org/2000/svg"><path d="M17 34c-.3 0-.5-.1-.7-.3l-16-16c-.4-.4-.4-1 0-1.4l16-16c.4-.4 1-.4 1.4 0s.4 1 0 1.4L2.4 17l15.3 15.3c.4.4.4 1 0 1.4-.2.2-.4.3-.7.3z"/></symbol><symbol viewBox="0 0 18 34" id="arr-r" xmlns="http://www.w3.org/2000/svg"><path d="M1 34c-.3 0-.5-.1-.7-.3-.4-.4-.4-1 0-1.4L15.6 17 .3 1.7C-.1 1.3-.1.7.3.3s1-.4 1.4 0l16 16c.4.4.4 1 0 1.4l-16 16c-.2.2-.4.3-.7.3z"/></symbol><symbol viewBox="0 0 18 20" id="clip" xmlns="http://www.w3.org/2000/svg"><path d="M16.08 10.42L9.9 16.61a4.25 4.25 0 01-6-6l8-8a2.57 2.57 0 013.54 0 2.52 2.52 0 010 3.54l-6.9 6.89A.765.765 0 017.42 12l5.13-5.12a1.004 1.004 0 00-1.42-1.42L6 10.6a2.74 2.74 0 000 3.89 2.82 2.82 0 003.89 0l6.89-6.9a4.5 4.5 0 00-6.36-6.36l-8 8A6.25 6.25 0 0011.31 18l6.19-6.18a1.005 1.005 0 00-1.42-1.42v.02z"/></symbol><symbol id="close" viewBox="0 0 15 15" xml:space="preserve" xmlns="http://www.w3.org/2000/svg"><path d="M2 14.5c-.4 0-.8-.1-1.1-.4-.6-.6-.6-1.5 0-2.1l11-11c.6-.6 1.5-.6 2.1 0 .6.6.6 1.5 0 2.1l-11 11c-.2.3-.6.4-1 .4z"/><path class="fst0" d="M13 14.5c-.4 0-.8-.1-1.1-.4l-11-11C.3 2.5.3 1.6.9 1 1.5.4 2.4.4 3 1l11 11c.6.6.6 1.5 0 2.1-.2.3-.6.4-1 .4z"/></symbol><symbol viewBox="0 0 14 19" id="discount" xmlns="http://www.w3.org/2000/svg"><path d="M9.32.5a.5.5 0 00-.847-.36L6.695 1.85a35.551 35.551 0 00-6.63 8.715.5.5 0 00.435.746h4.31V18.5a.5.5 0 00.837.37l.795-.725a35.498 35.498 0 007.001-8.78l.492-.87a.5.5 0 00-.435-.747H9.32V.5z"/></symbol><symbol viewBox="0 0 9 11" id="fire" xmlns="http://www.w3.org/2000/svg"><path d="M4.542.034a.495.495 0 00-.506.086.424.424 0 00-.137.426c.066.254.101.519.101.79 0 .621-.18 1.056-.492 1.416-.316.367-.774.665-1.352 1.002a.165.165 0 00-.025.018l-.07.06C.821 4.527 0 5.733 0 7.107 0 9.256 2.015 11 4.5 11S9 9.257 9 7.106c0-.632-.174-1.228-.482-1.756a.168.168 0 00-.129-.078.181.181 0 00-.146.049l-.139.14c-.585.591-1.058 1.07-2.027 1.283a.117.117 0 01-.085-.008.145.145 0 01-.06-.071.213.213 0 01.05-.24c.517-.485.885-1.145 1.017-2.084C7.245 2.583 6.322.71 4.542.034z"/></symbol><symbol viewBox="0 0 14 18" id="location-marker" xmlns="http://www.w3.org/2000/svg"><path clip-rule="evenodd" d="M9.238 16.025c1.98-2.524 4.473-6.191 4.473-8.648C13.71 3.303 10.64 0 6.855 0S0 3.303 0 7.377c0 2.457 2.493 6.124 4.472 8.648C5.505 17.342 6.022 18 6.855 18c.834 0 1.35-.658 2.383-1.975zm-2.383-5.742a2.57 2.57 0 110-5.141 2.57 2.57 0 010 5.141z"/></symbol><symbol viewBox="0 0 31 20" id="menu" xmlns="http://www.w3.org/2000/svg"><path d="M2.498 0h26.916C30.286 0 31 .693 31 1.54v.165c0 .847-.713 1.54-1.586 1.54H2.498c-.873 0-1.585-.693-1.585-1.54V1.54C.913.693 1.625 0 2.498 0zM29.414 8.112H2.498c-.873 0-1.585.692-1.585 1.54v.165c0 .847.712 1.54 1.585 1.54h26.916c.872 0 1.586-.693 1.586-1.54V9.65c0-.847-.713-1.54-1.586-1.54zM19.121 16.224H2.498c-.873 0-1.585.692-1.585 1.54v.165c0 .846.712 1.54 1.585 1.54H19.12c.873 0 1.586-.694 1.586-1.54v-.166c0-.847-.713-1.54-1.586-1.54z"/></symbol><symbol viewBox="0 0 21 22" id="phone" xmlns="http://www.w3.org/2000/svg"><path d="M19.684 22C8.486 22.017-.012 13.007 0 1.378 0 .62.588 0 1.313 0h3.464c.65 0 1.203.5 1.298 1.175a17.683 17.683 0 001.333 4.67l.135.305a1 1 0 01-.302 1.2c-1.073.802-1.483 2.417-.647 3.678a15.9 15.9 0 003.88 4.065c1.203.875 2.745.446 3.511-.678a.903.903 0 011.146-.317l.29.14a15.752 15.752 0 004.458 1.397c.643.1 1.121.679 1.121 1.36v3.63c0 .76-.59 1.375-1.314 1.375h-.002z"/></symbol><symbol viewBox="0 0 28.25 31.39" id="play" xmlns="http://www.w3.org/2000/svg"><g data-name="Layer 2"><path d="M26.25 12.23a4 4 0 010 6.93L6 30.85a4 4 0 01-6-3.46V4A4 4 0 016 .54z" data-name="Layer 1"/></g></symbol><symbol viewBox="0 0 21.42 21.42" id="search" xmlns="http://www.w3.org/2000/svg"><g data-name="Layer 2"><path d="M13.43 15.43a8.49 8.49 0 112-2L21 19a1.39 1.39 0 010 2 1.39 1.39 0 01-2 0l-5.58-5.58zM8.5 15A6.5 6.5 0 102 8.5 6.5 6.5 0 008.5 15z" data-name="Layer 1"/></g></symbol></svg>