<svg width="40.000000" height="54.000000" viewBox="0 0 40 54" fill="none" xmlns="http://www.w3.org/2000/svg" xmlns:xlink="http://www.w3.org/1999/xlink">
	<path d="M26.58 20L22.63 16.05C22.24 15.65 22.24 15.03 22.63 14.63C23.03 14.24 23.65 14.24 24.05 14.63L29.7 20.29C30.1 20.68 30.1 21.31 29.7 21.7L24.05 27.36C23.65 27.75 23.03 27.75 22.63 27.36C22.24 26.96 22.24 26.34 22.63 25.94L26.58 22L9 22C8.43 22 8 21.56 8 21C8 20.43 8.43 20 9 20L26.58 20Z" fill="#7D7D80" fill-opacity="1.000000" fill-rule="evenodd"/>
	<path d="M0 13.42C0.35 7.07 3.84 -4.19 14.91 1.6C16.43 2.43 20.18 3.6 23 1.6C26.52 -0.91 38.46 -2.41 39 13.42M6.03 40.99C6.29 43.4 7.51 49.05 10.42 52.35C13.32 55.64 17.02 43.95 18.51 37.7C18.83 36.16 19.72 34 20.7 37.7C21.92 42.32 25.88 57.14 29.69 51.88C32.73 47.67 33.5 42.87 33.5 40.99" stroke="#7D7D80" stroke-opacity="1.000000" stroke-width="1.000000"/>
</svg>
