<svg width="40.000000" height="54.000000" viewBox="0 0 40 54" fill="none" xmlns="http://www.w3.org/2000/svg" xmlns:xlink="http://www.w3.org/1999/xlink">
	<g>
		<path d="M11.41 22L15.36 25.94C15.75 26.34 15.75 26.96 15.36 27.36C14.96 27.75 14.34 27.75 13.94 27.36L8.29 21.7C7.89 21.31 7.89 20.68 8.29 20.29L13.94 14.63C14.34 14.24 14.96 14.24 15.36 14.63C15.75 15.03 15.75 15.65 15.36 16.05L11.41 20L29 20C29.56 20 30 20.43 30 21C30 21.56 29.56 22 29 22L11.41 22Z" fill="#7D7D80" fill-opacity="1.000000" fill-rule="evenodd"/>
		<path d="M0 13.42C0.35 7.07 3.84 -4.19 14.91 1.6C16.43 2.43 20.18 3.6 23 1.6C26.52 -0.91 38.46 -2.41 39 13.42M6.03 40.99C6.29 43.4 7.51 49.05 10.42 52.35C13.32 55.64 17.02 43.95 18.51 37.7C18.83 36.16 19.72 34 20.7 37.7C21.92 42.32 25.88 57.14 29.69 51.88C32.73 47.67 33.5 42.87 33.5 40.99" stroke="#7D7D80" stroke-opacity="1.000000" stroke-width="1.000000"/>
	</g>
</svg>
