<svg  class="main-svg-sprite main-svg-sprite--icons" xmlns="http://www.w3.org/2000/svg" xmlns:xlink="http://www.w3.org/1999/xlink"><symbol viewBox="0 0 13 23" id="arr-d" xmlns="http://www.w3.org/2000/svg"><path d="M7 18.58l3.94-3.95c.4-.39 1.02-.39 1.42 0 .39.4.39 1.02 0 1.41L6.7 21.7c-.39.4-1.02.4-1.41 0l-5.66-5.66a.996.996 0 010-1.41c.4-.39 1.02-.39 1.42 0L5 18.58V1c0-.56.43-1 1-1 .56 0 1 .44 1 1v17.58z"/></symbol><symbol viewBox="0 0 13.41 9.33" id="arr-r" xmlns="http://www.w3.org/2000/svg"><g data-name="Layer 2"><g data-name="Layer 1"><path data-name="Line 50" d="M11 4L8.25 1.2a.69.69 0 010-1 .69.69 0 011 0l4 4a.69.69 0 010 1l-4 4a.7.7 0 01-1-1L11 5.37H.71A.71.71 0 11.71 4z"/></g></g></symbol><symbol viewBox="0 0 23 22" id="arr-rt" xmlns="http://www.w3.org/2000/svg"><path d="M19.29 4.22L2.06 21.46c-.6.59-1.53.59-2.13 0-.59-.6-.59-1.53 0-2.13L17.17 2.1H8.79c-.84 0-1.5-.66-1.5-1.5s.66-1.5 1.5-1.5h12c.84 0 1.5.66 1.5 1.5v12c0 .84-.66 1.5-1.5 1.5s-1.5-.66-1.5-1.5V4.22z"/></symbol><symbol viewBox="0 0 13.97 13.97" id="close" xmlns="http://www.w3.org/2000/svg"><g data-name="Layer 2"><path d="M14 1.41L8.39 7 14 12.56 12.56 14 7 8.39 1.41 14 0 12.56 5.58 7 0 1.41 1.41 0 7 5.58 12.56 0z" data-name="Layer 1"/></g></symbol><symbol viewBox="0 0 18 12" id="menu" xmlns="http://www.w3.org/2000/svg"><g data-name="Layer 2"><path d="M0 12h18v-2H0zm0-5h18V5H0zm0-7v2h18V0z" data-name="Layer 1"/></g></symbol><symbol viewBox="0 0 21.42 21.42" id="search" xmlns="http://www.w3.org/2000/svg"><g data-name="Layer 2"><path d="M13.43 15.43a8.49 8.49 0 112-2L21 19a1.39 1.39 0 010 2 1.39 1.39 0 01-2 0l-5.58-5.58zM8.5 15A6.5 6.5 0 102 8.5 6.5 6.5 0 008.5 15z" data-name="Layer 1"/></g></symbol></svg>