<svg width="506.000000" height="500.000000" viewBox="0 0 506 500" fill="none" xmlns="http://www.w3.org/2000/svg" xmlns:xlink="http://www.w3.org/1999/xlink">
	<desc>
			Created with Pixso.
	</desc>
	<defs/>
	<path id="Vector" d="M68.57 17.57C88.98 5.48 113.14 -0.61 140.66 -0.61C169.33 -0.61 193.55 14.68 209.55 24.11C228.34 35.17 239.89 41.09 252 41.09C264.07 41.09 275.65 35.17 294.44 24.11C310.47 14.66 334.66 -0.61 363.33 -0.61C390.88 -0.61 415.04 5.48 435.42 17.57C455.79 29.67 470.85 46.88 481.51 66.72C502.38 105.53 507.12 155.46 504.25 204.06C501.33 253.4 490.33 305 476.39 349.86C462.53 394.37 445.1 434.32 428.24 459.62C408.86 488.61 381.95 503.04 353.42 499.04C327.23 495.37 306.88 476.99 296.7 456.62C285.81 434.88 280.78 410.61 271.23 388.28C268.86 382.72 260.68 360.4 252.02 360.79C241.59 360.79 235.96 380.81 232.76 388.31C223.22 410.61 218.21 434.88 207.32 456.62C197.11 476.99 176.76 495.37 150.6 499.04C122.04 503.04 95.13 488.61 75.75 459.62C58.89 434.32 41.46 394.37 27.6 349.86C13.66 305 2.66 253.4 -0.23 204.08C-3.13 155.43 1.61 105.53 22.48 66.72C33.14 46.88 48.2 29.67 68.57 17.57ZM80.76 333.38C93.85 375.36 109.35 409.72 122.07 428.76C126.3 435.1 133.87 445.22 142.86 443.97C147.42 443.33 153.8 439.18 157.53 431.73C167.86 411.11 172.48 387.67 181.58 366.41C187.14 353.37 194.6 338.99 204.96 327.51C215.73 315.62 231.32 305.19 252 305.19C272.68 305.19 288.26 315.62 299.03 327.51C309.39 338.99 316.85 353.37 322.41 366.43C331.52 387.67 336.14 411.11 346.49 431.76C350.19 439.18 356.57 443.33 361.16 443.99C370.12 445.22 377.69 435.1 381.92 428.76C394.64 409.72 410.17 375.38 423.23 333.38C436.17 291.74 446.08 244.64 448.69 200.78C451.31 156.27 446.19 118.54 432.47 93.02C425.84 80.71 417.44 71.56 406.97 65.36C396.51 59.16 382.53 54.99 363.33 54.99C352.47 54.99 341.7 60.83 321.3 72.81C304.74 82.6 280.83 96.69 252 96.69C222.33 96.69 197.89 81.76 181.27 71.98C161.87 60.58 151.29 54.99 140.66 54.99C121.49 54.99 107.48 59.16 97.02 65.36C86.58 71.56 78.15 80.71 71.52 93.02C57.8 118.54 52.68 156.27 55.32 200.8C57.91 244.64 67.82 291.74 80.76 333.38Z" fill="#73CBE5" fill-opacity="1.000000" fill-rule="evenodd"/>
</svg>
