<svg width="1920" height="715" viewBox="0 0 1920 715" fill="none" xmlns="http://www.w3.org/2000/svg">
<path d="M-510.156 227.951C-324.471 216.83 -193.422 181.457 -107.539 150.832C-20.6933 119.863 41.8541 85.8899 156.146 67.6249C282.205 47.3305 364.571 56.4224 397.149 61.5366C442.316 68.6396 439.509 73.4697 513.398 89.9488C655.334 121.608 682.298 107.524 745.895 128.508C851.341 163.293 819.897 216.079 930.191 274.628C1010.06 317.044 1142.3 350.794 1261.92 327.394C1374.57 305.354 1387.25 250.011 1505.76 242.157C1554.45 238.93 1594.93 246.094 1675.88 260.422C1779.63 278.687 1849.29 301.214 1877.19 309.129C1959.84 332.61 2093.24 347.384 2311 301.011" stroke="#E0FB52" stroke-opacity="0.4" stroke-width="2" stroke-miterlimit="10"/>
<path d="M-511.398 245.851C-331.78 236.252 -197.499 204.227 -103.82 172.486C-27.7196 146.347 30.3196 117.691 110.304 97.2142C127.798 92.7495 146.228 88.4267 166.075 84.6926C291.142 61.1916 373.196 65.0678 407.447 67.4423C453.379 70.6082 453.379 74.2206 525.793 90.2329C576.829 101.496 613.178 107.93 641.333 112.151C689.193 119.315 713.152 119.802 750.918 133.582C765.01 138.681 778.235 144.926 790.33 152.192C846.271 185.779 843.889 228.357 936.689 273.492C1017.47 312.782 1148.83 342.493 1266.41 319.256C1275.73 317.411 1284.9 315.23 1293.91 312.721C1384.81 287.373 1405.23 242.786 1509.4 235.785C1520.37 235.036 1531.41 234.812 1542.43 235.115C1579.46 236.049 1617.74 242.665 1678.35 253.38C1778.78 271.239 1847.37 293.34 1878.13 302.087C1900.66 308.434 1923.9 313.417 1947.6 316.983C2029.6 329.484 2145.5 330.783 2308.56 298.88" stroke="#E0FB52" stroke-opacity="0.4" stroke-width="2" stroke-miterlimit="10"/>
<path d="M-512.648 265.337C-339.126 257.219 -201.471 228.807 -100.108 195.565C-19.6131 169.182 41.1197 139.045 119.63 117.533C137.549 112.601 156.121 107.609 176.053 103.327C300.127 76.5987 381.756 73.3719 417.821 74.9143C464.292 76.9437 467.383 76.5582 538.21 92.0834C587.799 102.982 624.007 110.348 651.623 115.524C698.15 124.189 720.521 125.935 755.849 140.242C769.311 145.752 781.964 152.218 793.616 159.542C847.657 192.906 850.323 232.927 943.236 274.003C1024.92 310.147 1155.4 335.82 1270.94 312.745C1280.73 310.716 1289.77 308.686 1298.25 306.251C1392.01 280.436 1412.77 237.919 1513.11 231.161C1524 230.394 1534.95 230.143 1545.89 230.41C1583.54 231.202 1621.76 237.635 1680.9 248.249C1778.04 265.621 1845.49 287.357 1879.15 296.733C1901.5 303.022 1924.52 308.017 1947.99 311.669C2029.25 324.455 2144.62 327.154 2306.07 298.417" stroke="#E0FB52" stroke-opacity="0.4" stroke-width="2" stroke-miterlimit="10"/>
<path d="M-513.867 286.135C-346.441 279.58 -205.497 254.516 -96.3649 220.056C-11.5886 193.268 51.9228 161.75 128.902 139.183C147.275 133.785 166.016 128.143 185.977 123.292C309.059 93.3783 390.121 87.1074 428.143 83.6979C475.181 79.4969 481.333 80.2072 550.601 95.2454C598.801 105.738 634.866 114.058 662.086 120.187C707.252 130.335 728.092 133.379 760.982 148.194C773.71 154.123 785.718 160.81 796.877 168.184C849.019 201.304 856.901 238.748 949.701 275.744C1032.41 308.743 1161.9 330.397 1275.4 307.465C1285.09 305.435 1294.08 303.406 1302.5 301.031C1399.07 274.648 1420.25 234.283 1516.71 227.565C1527.52 226.779 1538.4 226.501 1549.26 226.733C1587.54 227.362 1625.81 233.654 1683.4 244.065C1777.19 260.929 1843.57 282.279 1880.09 292.447C1902.3 298.641 1925.13 303.641 1948.39 307.404C2028.91 320.473 2143.74 324.593 2303.54 299.002" stroke="#E0FB52" stroke-opacity="0.4" stroke-width="2" stroke-miterlimit="10"/>
<path d="M-515.117 306.977C-353.759 301.944 -209.582 280.27 -92.6531 244.572C-3.56703 217.357 62.6946 184.439 138.199 160.857C156.998 154.992 175.881 148.68 195.927 143.282C318.016 110.243 398.341 98.9996 438.489 92.546C485.924 84.9153 495.196 83.9209 563.017 98.472C609.942 108.619 645.695 117.833 672.461 124.855C716.266 136.463 735.547 140.847 766.026 156.149C777.999 162.484 789.366 169.386 800.05 176.809C850.321 209.645 863.42 244.531 956.135 277.571C1039.86 307.403 1168.33 325.06 1279.82 302.289C1289.4 300.26 1298.33 298.23 1306.72 295.896C1406.13 268.966 1427.68 230.954 1520.28 224.156C1531.02 223.38 1541.81 223.075 1552.6 223.242C1591.45 223.729 1629.61 229.858 1685.86 240.066C1776.37 256.464 1841.64 277.449 1881.02 288.347C1903.08 294.481 1925.71 299.492 1948.76 303.345C2028.57 316.719 2142.86 322.218 2301.05 299.813" stroke="#E0FB52" stroke-opacity="0.4" stroke-width="2" stroke-miterlimit="10"/>
<path d="M-516.305 320.412C-361.014 316.901 -213.577 298.636 -88.8788 261.7C4.4886 234.039 73.5289 199.66 147.559 175.144C166.754 168.792 185.836 161.892 205.939 155.885C326.979 119.72 406.652 103.606 448.813 93.9665C496.673 83.048 509.234 80.1865 575.411 94.2709C611.956 102.077 647.828 111.415 682.841 122.237C725.371 135.286 743.035 141.05 771.02 156.737C783.24 163.617 792.937 170.943 803.428 178.067C851.827 210.538 870.171 243.009 962.717 271.989C1047.55 298.636 1174.94 312.315 1284.38 289.707C1293.88 287.677 1302.76 285.648 1311.09 283.354C1413.36 255.937 1435.28 219.934 1524.03 213.338C1534.68 212.56 1545.39 212.235 1556.09 212.364C1595.56 212.75 1633.67 218.656 1688.39 228.6C1775.58 244.47 1839.77 265.13 1881.99 276.759C1903.9 282.827 1926.36 287.844 1949.21 291.777C2028.29 305.455 2142.01 312.375 2298.58 293.116" stroke="#E0FB52" stroke-opacity="0.4" stroke-width="2" stroke-miterlimit="10"/>
<path d="M-517.609 329.993C-368.414 327.963 -217.717 313.087 -85.2217 274.954C12.4271 246.846 84.1893 210.966 156.802 185.658C176.423 178.799 195.646 171.29 215.834 164.714C335.966 125.485 415.015 104.521 459.162 91.6544C507.362 77.5498 523.183 72.7197 587.829 86.317C624.051 93.937 659.299 103.755 693.19 115.663C734.33 130.112 750.492 137.297 776.038 153.532C787.379 160.696 796.311 168.327 806.716 175.531C853.272 207.8 876.891 237.47 969.209 262.615C1055.2 286.035 1181.49 295.776 1288.89 273.31C1298.28 271.281 1307.07 269.251 1315.4 266.999C1420.54 239.155 1442.91 205.222 1527.68 198.87C1538.26 198.071 1548.89 197.719 1559.52 197.815C1599.56 198.058 1637.67 203.781 1690.89 213.604C1774.75 229.007 1837.84 249.281 1882.95 261.681C1904.72 267.673 1926.98 272.695 1949.61 276.72C2027.98 290.702 2141.16 299.044 2296.11 282.909" stroke="#E0FB52" stroke-opacity="0.4" stroke-width="2" stroke-miterlimit="10"/>
<path d="M-518.828 339.709C-375.729 339.242 -221.827 327.674 -81.4786 288.344C20.4231 259.769 94.8789 222.346 166.074 196.126C186.12 188.718 205.542 180.6 225.786 173.497C344.955 131.244 423.437 105.511 469.483 89.2753C518.335 72.0656 537.134 65.2061 600.22 78.3163C636.18 85.8565 670.845 96.2581 703.567 109.326C743.262 125.136 757.949 133.822 781.085 150.463C791.463 157.931 799.685 165.806 809.977 173.152C854.719 205.075 883.696 232.108 975.731 253.376C1062.92 273.529 1188.01 279.353 1293.29 257.07C1302.59 255.04 1311.32 253.011 1319.6 250.779C1427.6 222.366 1450.22 190.565 1531.26 184.253C1541.75 183.454 1552.29 183.075 1562.84 183.117C1603.5 183.117 1641.55 188.759 1693.27 198.419C1773.85 213.295 1835.8 233.244 1883.8 246.354C1905.42 252.295 1927.49 257.337 1949.92 261.453C2027.55 275.66 2140.2 285.421 2293.51 272.494" stroke="#E0FB52" stroke-opacity="0.4" stroke-width="2" stroke-miterlimit="10"/>
<path d="M-520.078 349.478C-383.047 350.533 -225.913 342.314 -77.7668 301.786C28.4163 272.745 105.566 233.759 175.371 206.747C195.786 198.853 215.435 190.187 235.707 182.394C353.94 137.117 431.912 106.614 479.829 87.0097C529.277 66.7153 551.081 57.7857 612.636 70.4089C648.322 77.862 682.409 88.7878 713.942 102.88C752.418 120.069 765.375 130.257 786.101 147.305C795.543 155.098 803.113 163.175 813.264 170.664C856.191 202.262 890.47 226.595 982.221 244.048C1070.66 260.872 1194.53 262.861 1297.85 240.72C1307.06 238.691 1315.74 236.661 1323.96 234.49C1434.85 205.651 1457.79 175.879 1535 169.689C1545.41 168.888 1555.88 168.482 1566.36 168.472C1607.61 168.289 1645.74 173.809 1695.9 183.266C1773.14 197.655 1834.01 217.26 1884.88 231.1C1906.33 237 1928.22 242.074 1950.43 246.301C2027.35 260.872 2139.46 271.973 2291.15 262.212" stroke="#E0FB52" stroke-opacity="0.4" stroke-width="2" stroke-miterlimit="10"/>
<path d="M-521.32 359.194C-390.356 361.71 -229.933 356.819 -73.9904 315.114C36.5875 285.586 116.26 245.017 184.733 217.254C205.545 208.812 225.392 199.598 245.721 191.237C362.991 142.997 440.48 107.746 490.24 84.6707C540.397 61.393 565.121 50.3122 625.117 62.4483C660.555 69.8756 694.071 81.377 724.353 96.5024C761.496 115.011 772.837 126.782 791.154 144.215C799.66 152.332 806.493 160.592 816.672 168.243C857.841 199.497 897.479 221.009 988.89 234.769C1078.57 248.224 1201.2 246.418 1302.51 224.439C1311.61 222.409 1320.23 220.38 1328.42 218.35C1442.17 189.065 1465.45 161.323 1538.77 155.295C1549.13 154.452 1559.54 154.018 1569.96 153.997C1611.81 153.794 1649.8 159.009 1698.6 168.203C1772.52 182.104 1832.29 201.364 1886.04 215.935C1905.47 221.212 1926.99 226.428 1951.06 231.095C2027.24 245.951 2138.81 258.472 2288.86 251.856" stroke="#E0FB52" stroke-opacity="0.4" stroke-width="2" stroke-miterlimit="10"/>
<path d="M-522.57 368.635C-397.816 372.694 -234.132 371.151 -70.3353 328.289C44.3821 298.274 126.805 256.082 193.974 227.588C215.154 218.598 235.228 208.856 255.614 199.886C372.033 148.683 449.097 108.703 500.502 82.1784C551.367 55.7956 578.983 42.6854 637.448 54.3344C672.679 61.7428 705.663 73.802 734.7 89.8903C770.567 109.738 780.065 123.112 796.141 140.89C803.712 149.333 809.864 157.796 819.816 165.589C859.227 196.457 904.196 215.27 995.238 225.254C1086.28 235.239 1207.58 229.719 1306.84 207.903C1315.86 205.873 1324.42 203.844 1332.56 201.814C1449.2 172.083 1472.82 146.37 1542.37 140.484C1552.62 139.627 1562.93 139.173 1573.25 139.125C1615.78 138.739 1653.66 143.813 1700.84 152.884C1771.47 166.279 1830.1 185.213 1886.75 200.495C1906.09 205.731 1927.44 210.926 1951.23 215.696C2026.67 230.835 2137.71 244.757 2286.14 241.328" stroke="#E0FB52" stroke-opacity="0.4" stroke-width="2" stroke-miterlimit="10"/>
<path d="M-523.797 377.945C-405.025 383.567 -238.251 385.292 -66.6 341.293C52.4839 310.852 137.374 266.934 203.238 237.792C224.815 228.233 245.116 217.984 265.616 208.405C381.127 154.219 457.794 109.571 510.815 79.4745C562.503 50.2099 593.039 34.8267 649.746 46.009C687.399 53.4368 721.593 68.7997 744.985 83.0667C779.604 104.213 787.515 119.231 801.096 137.354C807.674 146.122 813.174 154.787 822.985 162.743C860.666 193.184 910.88 209.197 1001.61 215.508C1093.84 221.982 1213.98 212.809 1311.2 191.155C1320.1 189.126 1328.61 187.096 1336.72 185.067C1456.23 154.868 1480.16 131.185 1545.8 125.462C1555.97 124.592 1566.2 124.111 1576.45 124.021C1619.51 123.432 1657.39 128.384 1703.24 137.273C1770.55 150.18 1828 168.77 1887.54 184.782C1906.79 189.958 1927.97 195.173 1951.45 200.003C2026.19 215.447 2136.68 230.77 2283.46 230.445" stroke="#E0FB52" stroke-opacity="0.4" stroke-width="2" stroke-miterlimit="10"/>
<path d="M-525.039 387.141C-412.335 394.305 -242.47 399.074 -62.8804 354.163C60.258 322.99 147.926 277.652 212.543 247.799C234.461 237.652 255.073 226.916 275.516 216.728C390.234 159.681 466.532 110.203 521.169 76.6967C573.708 44.4691 606.853 26.9346 662.255 37.6095C698.576 44.672 732.6 60.8467 755.452 76.169C788.824 98.6147 794.835 115.256 806.205 133.744C811.875 142.836 816.667 151.664 826.364 159.782C862.316 189.899 917.86 202.969 1008.25 205.79C1101.82 208.692 1220.64 195.927 1315.83 174.414C1324.65 172.399 1333.09 170.369 1341.15 168.326C1463.58 137.722 1487.82 116.027 1549.6 110.467C1559.69 109.573 1569.83 109.065 1579.99 108.945C1623.66 108.194 1661.54 113.003 1705.91 121.689C1769.88 134.089 1826.27 152.436 1888.73 169.097C1907.9 174.252 1928.88 179.427 1952.1 184.338C2026.11 200.087 2136.06 216.81 2281.23 219.691" stroke="#E0FB52" stroke-opacity="0.4" stroke-width="2" stroke-miterlimit="10"/>
<path d="M-526.289 396.197C-419.681 404.862 -246.555 412.98 -59.1686 366.891C68.2511 335.252 158.5 288.169 221.841 257.727C244.098 247.032 264.938 235.769 285.466 224.972C399.361 165.022 475.433 110.796 531.487 73.7582C584.933 38.5473 620.8 18.7805 674.53 28.9886C709.546 35.6655 743.428 52.6722 765.685 69.0904C797.866 92.835 801.978 111.141 811.051 129.974C815.644 139.411 819.925 148.422 829.452 156.681C863.901 186.392 924.747 198.569 1014.77 195.829C1109.41 192.948 1227.19 178.802 1320.36 157.453C1329.09 155.437 1337.47 153.407 1345.48 151.364C1470.86 120.476 1495.36 100.628 1553.28 95.2297C1563.29 94.3291 1573.36 93.8007 1583.45 93.6468C1627.71 92.7538 1665.68 97.3809 1708.43 105.823C1768.97 117.838 1824.37 135.961 1889.7 153.231C1908.78 158.345 1929.59 163.521 1952.5 168.513C2025.79 184.566 2135.21 202.689 2278.73 208.737" stroke="#E0FB52" stroke-opacity="0.4" stroke-width="2" stroke-miterlimit="10"/>
<path d="M-527.648 405.147C-427.108 415.294 -250.75 426.801 -55.5661 379.515C76.1349 347.409 168.793 298.601 231.001 267.469C253.683 256.185 274.75 244.455 295.277 232.969C408.407 170.056 484.054 111.202 541.724 70.6129C596.191 32.4593 634.837 10.5819 687.063 20.2826C720.747 26.5739 754.487 44.3924 776.178 61.9065C807.168 86.9093 809.294 106.879 816.241 126.037C819.813 135.819 823.528 144.992 832.913 153.435C865.519 182.74 931.412 189.965 1021.26 185.743C1117.15 181.299 1233.69 161.552 1324.81 140.365C1333.32 138.335 1341.83 136.306 1349.74 134.277C1477.98 102.922 1502.84 85.0828 1556.91 79.8671C1566.84 78.942 1576.82 78.3865 1586.83 78.203C1631.68 77.1477 1669.5 81.6328 1710.9 89.9129C1768.26 101.339 1822.44 119.015 1890.63 137.118C1909.66 142.191 1930.33 147.265 1953.01 152.44C2025.57 168.676 2134.47 188.3 2276.24 197.514" stroke="#E0FB52" stroke-opacity="0.4" stroke-width="2" stroke-miterlimit="10"/>
<path d="M-528.75 413.996C-434.305 425.706 -254.744 440.521 -51.7058 392.058C84.39 359.485 179.373 308.851 240.333 277.171C263.243 265.278 284.734 253.102 305.262 241.047C417.796 175.455 492.961 111.568 551.936 67.4886C607.281 26.2706 648.479 2.28253 699.373 11.5368C731.724 17.4425 765.379 36.0728 786.474 54.6625C816.302 81.0453 816.387 102.557 821.207 122.081C823.674 132.228 826.878 141.543 836.093 150.148C867.054 179.047 938.164 183.187 1027.68 175.618C1124.73 167.5 1240.16 144.263 1329.21 123.217C1337.72 121.188 1346.03 119.158 1353.94 117.291C1485.07 85.4695 1510.22 69.579 1560.46 64.5256C1570.38 63.6137 1580.35 63.0717 1590.35 62.9021C1631.94 61.7809 1673.51 65.5516 1713.4 74.064C1767.44 85.0027 1820.52 102.334 1891.6 121.167C1910.54 126.18 1931.01 131.315 1953.33 136.51C2057.65 160.404 2164.91 177.128 2273.66 186.455" stroke="#E0FB52" stroke-opacity="0.4" stroke-width="2" stroke-miterlimit="10"/>
<path d="M-530 422.779C-441.623 436.011 -258.829 454.174 -47.9941 404.514C92.2697 371.474 189.777 319.135 249.715 286.806C515.754 143.182 599.964 -17.2255 711.874 2.68337C742.893 8.20347 776.463 27.6456 796.934 47.3312C840.655 89.3407 813.095 121.203 839.464 146.774C904.109 209.484 1194.9 139.448 1358.33 100.097C1517.67 61.72 1523.57 49.3606 1593.66 47.3312C1716.01 43.7391 1779.6 78.9094 1953.75 120.391C2057.29 144.937 2163.51 163.265 2271.31 175.186" stroke="#E0FB52" stroke-opacity="0.4" stroke-width="2" stroke-miterlimit="10"/>
<path d="M-530 428.582C-439.269 443.052 -262.146 459.633 -60.5829 412.103C78.5467 379.206 171.914 326.359 236.248 292.366C493.242 156.738 573.397 9.84679 687.405 22.957C731.948 28.0712 777.172 38.3199 807.028 54.0278C865.691 84.916 843.887 112.537 877.911 137.235C952.395 191.34 1223.62 130.599 1379.23 94.495C1530.8 59.2029 1536.93 49.2181 1611.01 51.2475C1734.12 54.6164 1794.83 85.7481 1958.88 125.566C2061.23 150.395 2166.62 168.272 2273.66 178.961" stroke="#E0FB52" stroke-opacity="0.4" stroke-width="2" stroke-miterlimit="10"/>
<path d="M-530 434.627C-378.689 459.559 -220.743 454.472 -73.1718 419.914C64.8237 387.179 153.881 333.784 222.78 298.147C470.389 170.17 547.907 34.6032 662.965 43.4516C721.344 47.957 776.236 49.0935 817.122 60.9657C887.268 81.2602 873.601 103.787 916.358 127.937C998.044 174.026 1252.34 121.971 1400.15 89.1141C1543.7 56.9068 1550.08 49.0935 1628.39 55.3848C1751.96 65.2884 1810.05 93.0107 1964.01 130.982C2065.15 156.077 2169.68 173.504 2275.9 182.976" stroke="#E0FB52" stroke-opacity="0.4" stroke-width="2" stroke-miterlimit="10"/>
<path d="M-530 445.388C-383.095 470.619 -229.285 466.136 -85.7322 432.44C51.1007 399.847 135.877 345.905 209.312 308.644C447.026 188.054 523.24 78.1396 638.496 68.6621C710.598 62.7361 774.365 65.1715 827.244 72.5992C907.143 83.8018 902.493 99.7735 954.834 123.335C1041.48 162.341 1281.12 118.262 1421.05 88.4492C1556.8 59.5296 1563.13 53.5021 1645.75 64.2176C1769.71 80.2908 1825.25 104.949 1969.17 141.093C2069.1 166.485 2172.81 183.471 2278.22 191.707" stroke="#E0FB52" stroke-opacity="0.4" stroke-width="2" stroke-miterlimit="10"/>
<path d="M-530 461.763C-387.512 487.279 -237.841 483.381 -98.3211 450.52C37.3777 418.049 117.844 363.558 195.844 324.694C423.493 211.268 498.913 111.846 614.055 99.4257C699.597 90.212 775.13 76.1276 837.338 89.7858C922.936 108.578 926.14 109.877 993.281 124.286C1074.06 168.143 1309.87 120.045 1441.97 93.3373C1569.84 67.5634 1576.14 63.3015 1663.13 78.6239C1787.4 100.522 1840.42 122.521 1974.3 156.758C2073.03 182.438 2175.93 198.976 2280.52 205.972" stroke="#E0FB52" stroke-opacity="0.4" stroke-width="2" stroke-miterlimit="10"/>
<path d="M-530 478.526C-391.936 504.344 -246.395 501.088 -110.853 469.15C23.7114 436.841 99.84 381.742 182.433 341.295C399.789 234.83 474.359 144.987 589.473 130.74C688.709 118.482 771.274 99.0399 847.488 107.543C945.76 118.502 954.465 114.2 1031.78 125.808C1116.53 164.835 1338.6 122.216 1462.75 98.776C1582.75 76.1477 1589.04 73.4486 1680.37 93.5807C1805.12 121.019 1855.45 140.684 1979.32 172.973C2076.85 198.943 2178.96 215.036 2282.7 220.786" stroke="#E0FB52" stroke-opacity="0.4" stroke-width="2" stroke-miterlimit="10"/>
<path d="M-530 495.616C-396.392 521.684 -255.021 519.038 -123.499 488.006C9.9317 455.839 81.6655 400.131 168.909 358.121C375.888 258.455 449.606 177.703 565.146 162.279C677.793 147.241 768.893 134.902 857.525 125.506C966.969 113.897 982.676 118.707 1070.17 127.535C1159.03 161.853 1367.32 124.694 1483.79 104.44C1595.9 84.9576 1602.2 83.6993 1697.86 108.763C1822.84 141.518 1870.67 159.154 1984.45 189.433C2080.79 215.684 2182.12 231.332 2285 235.847" stroke="#E0FB52" stroke-opacity="0.4" stroke-width="2" stroke-miterlimit="10"/>
<path d="M-530 512.928C-424.441 534.785 -281.909 542.152 -136.059 507.104C-3.67782 475.282 63.5478 418.721 155.441 375.19C351.844 282.16 424.797 210.196 540.677 194.062C667.019 176.487 767.503 159.297 867.647 143.711C987.582 125.02 1013.67 111.97 1108.65 129.505C1207.06 147.668 1396.04 127.475 1504.69 110.347C1608.92 93.9896 1615.27 94.1113 1715.21 124.167C1840.82 162.057 1885.79 177.907 1989.73 206.116C2054.35 223.651 2151.82 246.584 2287.44 251.13" stroke="#E0FB52" stroke-opacity="0.4" stroke-width="2" stroke-miterlimit="10"/>
<path d="M-530 530.541C-421.974 553.595 -285.226 559.42 -148.648 526.482C-17.4008 494.822 45.3734 437.531 141.973 392.538C327.659 306.023 399.563 242.643 516.237 226.124C656.302 206.276 766.369 184.094 877.741 162.196C1008.48 136.483 1041.11 116.919 1147.1 131.754C1248.12 145.961 1424.73 130.374 1525.61 116.534C1622.02 103.302 1628.59 104.519 1732.59 139.872C1858.82 182.754 1900.84 197.021 1994.86 223.079C2058.54 240.736 2154.58 263.668 2289.74 266.713" stroke="#E0FB52" stroke-opacity="0.4" stroke-width="2" stroke-miterlimit="10"/>
<path d="M-530 548.363C-419.422 572.717 -288.543 576.897 -161.237 546.09C-31.1238 514.593 27.1423 456.551 128.505 410.118C303.388 329.995 374.328 275.119 491.768 258.416C645.698 236.519 765.377 209.182 887.835 180.912C1029.6 148.197 1068.59 122.565 1185.54 134.235C1289.32 144.585 1453.43 133.606 1546.51 122.951C1634.92 112.804 1641.92 115.138 1749.95 155.808C1876.97 203.601 1915.87 216.427 1999.99 240.273C2062.77 258.071 2157.3 281.085 2292.03 282.506" stroke="#E0FB52" stroke-opacity="0.4" stroke-width="2" stroke-miterlimit="10"/>
<path d="M-530 566.445C-417.069 591.955 -291.832 594.614 -173.826 565.938C-44.8468 534.583 8.85428 475.729 115.037 427.935C279.004 354.104 347.052 297.827 467.327 290.948C637.844 281.186 764.469 234.529 897.928 199.866C1050.84 160.17 1102.07 108.541 1223.99 136.953C1325.84 160.759 1482.01 136.953 1567.43 129.607C1647.9 122.605 1655.33 125.913 1767.33 171.961C1895.23 224.585 1930.84 236.153 2005.12 257.705C2066.96 275.666 2160.05 298.7 2294.33 298.558" stroke="#E0FB52" stroke-opacity="0.4" stroke-width="2" stroke-miterlimit="10"/>
<path d="M-530 585.114C-414.602 611.863 -295.15 612.877 -186.386 586.494C-58.5698 555.282 -9.49024 495.535 101.57 446.463C254.677 378.821 321.79 332.469 442.858 324.189C627.155 311.545 763.676 260.606 908.051 219.53C1072.22 172.853 1127.42 117.834 1262.47 140.382C1369.59 158.281 1510.78 141.153 1588.33 136.972C1660.89 133.055 1668.97 137.317 1784.68 188.845C1913.6 246.238 1945.81 256.649 2010.28 275.847C2071.16 293.99 2162.8 317.004 2296.65 315.3" stroke="#E0FB52" stroke-opacity="0.4" stroke-width="2" stroke-miterlimit="10"/>
<path d="M-530 604.965C-412.164 632.951 -298.495 632.403 -198.975 608.009C-72.2928 576.938 -27.9199 516.217 88.1018 465.948C230.038 404.435 296.498 368.068 418.418 358.387C616.55 342.659 762.939 287.661 918.144 240.172C1093.71 186.452 1153.48 129.202 1300.91 144.788C1413.02 156.64 1539.42 146.209 1609.26 145.295C1673.84 144.443 1682.66 149.638 1802.06 206.686C1932.06 268.807 1960.84 278.183 2015.42 294.967C2075.33 313.354 2165.69 336.286 2298.95 333.019" stroke="#E0FB52" stroke-opacity="0.4" stroke-width="2" stroke-miterlimit="10"/>
<path d="M-530 625.156C-409.697 654.38 -301.813 652.229 -211.564 629.986C-86.0158 599.037 -46.4346 537.22 74.634 485.895C205.484 430.41 271.122 404.088 393.949 393.048C605.805 374.012 762.258 315.158 928.238 261.256C1115.37 200.515 1180.19 141.864 1339.36 149.637C1456.18 155.339 1568.09 151.666 1630.15 154.081C1686.75 156.253 1696.44 162.341 1819.41 224.99C1950.66 291.82 1975.58 300.343 2020.55 314.549C2079.44 333.241 2168.27 356.051 2301.25 351.201" stroke="#E0FB52" stroke-opacity="0.4" stroke-width="2" stroke-miterlimit="10"/>
<path d="M-530 647.135C-407.23 677.577 -305.215 673.721 -224.153 653.731C-99.8238 622.721 -65.0911 559.829 61.1662 507.611C180.874 458.092 245.718 441.857 369.508 429.477C594.974 406.93 761.634 344.443 938.219 284.108C1136.69 216.345 1208.11 165.507 1377.69 156.253C1498.54 149.678 1596.61 158.891 1650.96 164.635C1699.65 169.789 1710.22 176.811 1836.68 245.041C1969.2 316.599 1990.3 324.19 2025.57 335.859C2083.35 354.997 2170.91 377.544 2303.43 371.131" stroke="#E0FB52" stroke-opacity="0.4" stroke-width="2" stroke-miterlimit="10"/>
<path d="M-530 668.888C-404.792 700.568 -308.532 695.129 -236.714 677.27C-113.547 646.402 -83.9176 582.008 47.6983 529.12C156.235 485.508 220.256 479.399 345.039 465.7C584.086 439.459 761.039 373.502 948.454 306.774C1158.52 231.949 1236.67 176.89 1416.28 162.684C1541.04 152.861 1625.45 165.789 1671.97 174.982C1712.77 183.1 1724.31 191.015 1854.14 264.907C1988.08 341.133 2005.15 347.972 2030.84 357.003C2087.32 376.851 2173.77 398.83 2305.87 390.854" stroke="#E0FB52" stroke-opacity="0.4" stroke-width="2" stroke-miterlimit="10"/>
<path d="M-530 690.666C-402.41 723.563 -311.68 716.562 -249.302 700.813C-127.383 670.087 -102.943 603.867 34.2305 550.634C131.596 512.846 194.767 516.946 320.599 501.928C573.085 471.79 760.472 402.485 958.548 329.425C1180.21 247.557 1265.3 188.196 1454.73 169.099C1583.88 156.09 1654.25 172.589 1692.9 185.334C1725.87 196.212 1738.26 205.202 1871.52 284.777C2006.91 365.691 2019.81 371.84 2035.97 378.131C2090.61 399.42 2176.49 420.141 2308.16 410.603" stroke="#E0FB52" stroke-opacity="0.4" stroke-width="2" stroke-miterlimit="10"/>
</svg>
