<svg width="24" height="26" viewBox="0 0 24 26" fill="none" xmlns="http://www.w3.org/2000/svg">
<path d="M10.8659 3.74219C9.56363 4.60938 9.9195 4.51953 8.15186 4.42188C7.46358 4.38281 6.97474 4.37109 6.96692 4.39062C6.9591 4.41016 6.68535 4.95312 6.35294 5.59766L5.7546 6.76953L4.54619 7.37891C3.88528 7.71484 3.33387 8.00781 3.32996 8.02734C3.32214 8.04688 3.34951 8.64844 3.39253 9.36719C3.43164 10.0859 3.45119 10.7109 3.43555 10.7539C3.4199 10.7969 3.0914 11.3086 2.71206 11.8867C2.32882 12.4688 2.00814 12.9688 2.00032 13.0039C1.98858 13.0352 2.30535 13.5508 2.70033 14.1562C3.09923 14.7539 3.43164 15.2734 3.44337 15.3086C3.45901 15.3438 3.43555 15.9492 3.39253 16.6562C3.35342 17.3633 3.31822 17.9609 3.31822 17.9883C3.31822 18.0117 3.84226 18.3008 4.48362 18.625C5.12106 18.9531 5.67638 19.25 5.7194 19.2852C5.75851 19.3203 6.05572 19.875 6.3764 20.5195C6.70099 21.1641 6.96692 21.6914 6.97083 21.6953C6.97083 21.6953 7.50268 21.668 8.14795 21.6289C8.79322 21.5898 9.41111 21.5586 9.52452 21.5586C9.72006 21.5547 9.74743 21.5703 10.819 22.2773C11.4212 22.6758 11.9492 23 11.9922 23C12.0352 23 12.5436 22.6875 13.1224 22.3086C13.6972 21.9297 14.2135 21.6016 14.2682 21.582C14.3308 21.5586 14.8235 21.5703 15.6878 21.6211L17.0096 21.6914L17.6275 20.4805L18.2415 19.2695L19.4382 18.6641C20.0991 18.332 20.6466 18.0508 20.6544 18.0391C20.6661 18.0273 20.6388 17.4375 20.5996 16.7305C20.5566 16.0195 20.5332 15.4023 20.5449 15.3516C20.5566 15.3008 20.893 14.7656 21.2918 14.1641C21.6946 13.5508 22.0114 13.0352 21.9997 13.0039C21.9919 12.9688 21.6712 12.4688 21.2879 11.8867C20.9086 11.3086 20.5801 10.7969 20.5645 10.7539C20.5488 10.7109 20.5684 10.1133 20.6075 9.42578C20.6466 8.73828 20.6779 8.14062 20.6818 8.09375C20.6818 8.02734 20.4862 7.91016 19.4695 7.39844L18.261 6.78516L17.6432 5.57422L17.0253 4.36719H16.8688C16.7828 4.36719 16.2822 4.39453 15.7543 4.42578C15.2263 4.45703 14.6749 4.48438 14.5302 4.48438H14.2604L13.1302 3.74219C12.5123 3.33203 11.9961 3 11.9922 3C11.9844 3.00391 11.4799 3.33594 10.8659 3.74219ZM13.0168 6.4375C13.6699 6.55078 14.4286 6.78906 14.933 7.04297C16.8962 8.03125 18.2337 9.83984 18.5935 12.0039C18.6756 12.5078 18.6795 13.5508 18.5974 14.0352C18.3549 15.4648 17.7683 16.6328 16.775 17.6641C15.1168 19.375 12.6687 20.0703 10.3497 19.4805C8.26918 18.9531 6.53283 17.3984 5.75851 15.3711C5.4652 14.6055 5.34397 13.9258 5.34397 13.0391C5.34006 12.0078 5.50822 11.2305 5.92276 10.3008C6.84177 8.24609 8.84406 6.73047 11.0223 6.44141C11.2061 6.41797 11.3978 6.39062 11.4525 6.38281C11.6246 6.35156 12.7548 6.39453 13.0168 6.4375Z" fill="#333946"/>
<path d="M11.0614 7.12061C9.76698 7.34326 8.72673 7.8667 7.81945 8.75342C6.65406 9.89404 6.02052 11.4019 6.01661 13.0308C6.0127 15.1479 7.11552 17.0659 8.98093 18.1909C9.86866 18.7222 10.8659 18.9878 12 18.9878C12.6922 18.9878 13.1028 18.9331 13.6972 18.7612C15.6643 18.1909 17.2795 16.5308 17.7878 14.562C18.3314 12.4526 17.7253 10.269 16.1805 8.75342C15.2537 7.84717 14.147 7.30029 12.833 7.10498C12.4576 7.04639 11.429 7.05811 11.0614 7.12061ZM14.9369 11.0581C15.0425 11.1362 15.0973 11.2769 15.0699 11.3979C15.0504 11.4839 14.6319 11.9019 13.3961 13.0698C12.4888 13.9253 11.6363 14.7222 11.5033 14.8472C11.1044 15.2104 11.1787 15.2456 9.99771 14.0425C9.4463 13.48 8.97311 12.9722 8.94573 12.9097C8.85188 12.6909 9.09434 12.4136 9.33289 12.4722C9.39546 12.4878 9.7748 12.8433 10.2949 13.3745L11.1592 14.2534L12.7978 12.7065C13.6972 11.855 14.4794 11.1245 14.5341 11.0854C14.6436 10.9995 14.8431 10.9839 14.9369 11.0581Z" fill="#333946"/>
</svg>
