<svg width="652" height="621" viewBox="0 0 652 621" fill="none" xmlns="http://www.w3.org/2000/svg">
<path opacity="0.4" d="M429.693 283.262C429.724 284.648 429.689 286.08 429.793 287.47C431.82 313.341 433.576 339.244 436.066 365.075C437.067 375.655 435.092 385.605 433.036 395.75C431.158 404.987 429.81 414.324 428.217 423.615C428.091 424.954 427.8 426.273 427.351 427.541C426.898 428.549 425.652 430.184 425.19 430.052C421.308 428.922 417.019 432.16 413.318 428.848C412.514 428.124 410.23 427.814 409.602 428.4C407.208 430.62 405.117 429.46 402.988 428.396C400.058 426.93 397.501 425.093 393.941 424.503C390.992 424.012 387.835 421.355 385.906 418.767C378.875 409.345 372.174 399.65 365.614 389.873C359.054 380.096 352.68 369.888 346.22 359.893C345.638 359.001 344.944 358.207 343.835 356.699C343.364 358.652 343.038 359.835 342.785 361.049C341.707 366.44 339.926 367.857 334.431 367.668C329.11 367.487 323.732 367.706 318.476 367.03C314.636 366.537 310.838 365.083 307.197 363.708C301.182 361.444 295.28 358.882 289.402 356.472C288.002 362.274 286.419 368.019 285.257 373.845C283.619 382.03 282.312 390.274 280.811 398.485C280.448 400.691 279.936 402.87 279.278 405.007C277.82 409.479 275.325 411.165 270.719 411.212C266.659 411.238 262.672 410.648 258.671 410.206C255.068 409.819 251.485 409.94 247.892 408.784C234.4 404.439 222.884 396.719 212.549 387.243C186.96 363.777 161.302 340.377 136.224 316.337C86.2024 268.429 41.2671 215.711 -2.11506 161.597C-8.30536 153.9 -14.3906 146.105 -20.6774 138.165C-17.938 135.773 -17.7027 133.369 -18.2141 130.393C-18.5116 128.826 -17.2885 126.977 -16.5775 124.675L-12.8156 127.65C-12.099 126.024 -10.972 124.518 -10.8803 122.962C-10.8387 121.326 -11.3688 119.732 -12.3764 118.466C-14.5994 115.862 -15.0161 114.424 -13.2881 111.044C-12.6419 111.558 -12.0278 112.037 -11.4216 112.521L-10.7672 112.218L-13.3449 104.587C-9.51752 106.255 -7.25042 110.44 -3.66101 106.234L-5.05635 103.616C-3.55829 103.289 -2.13834 103.004 -0.168486 102.597L3.57257 106.471L4.3934 105.869L-1.50559 97.5539L0.402589 95.4989L9.12593 105.523L9.94827 104.915C8.9139 103.521 7.96074 102.067 7.09377 100.559C6.3549 99.113 4.40824 97.5199 7.1102 95.7874C9.09745 98.0244 10.8766 100.48 13.1036 102.396C15.7337 104.657 19.04 105.992 21.1672 109.021C22.5587 111.011 24.5721 112.551 26.5429 114.185C25.67 110.942 22.3004 107.909 26.7595 103.851C92.4643 188.803 164.201 267.913 244.623 338.581C249.531 331.909 249.976 323.96 252.016 316.54C252.843 313.535 253.614 310.509 254.603 307.557C255.592 304.605 257.527 302.749 260.41 301.274C262.732 300.05 264.348 297.249 266.158 295.039C267.327 293.612 268.246 291.987 269.291 290.454C269.539 290.631 269.787 290.808 270.036 290.978L267.356 294.804L267.875 295.26L277.219 291.23C281.445 292.477 286.612 294 291.823 295.533C290.864 289.595 289.452 283.769 289.152 277.873C288.982 274.489 290.616 270.996 291.441 267.55L296.333 247.276L297.301 243.264C299.221 244.045 300.655 244.625 302.361 245.313L303.735 239.621C307.611 241.114 307.755 240.991 307.905 236.926C307.962 235.375 308.162 233.818 308.239 232.968C310.612 234.333 312.795 235.591 315.087 236.902L316.715 233.794C318.275 235.004 319.784 236.057 321.169 237.26C324.609 240.254 327.954 243.363 331.454 246.275C331.807 246.574 333.321 246.126 333.684 245.6C334.846 243.697 335.91 241.734 336.874 239.72L377.745 300.85L378.374 300.651C378.086 299.529 377.8 298.403 377.514 297.273L378.025 297.396C378.367 295.976 379.104 294.521 378.997 293.144C376.617 261.874 374.498 230.584 371.605 199.369C368.356 164.167 364.463 129.031 360.729 93.8779C359.764 86.0574 360.715 78.098 363.496 70.7071C365.783 64.6771 366.48 58.0362 367.99 51.6949C368.449 50.2306 369.02 48.8037 369.695 47.427L373.457 49.1412C375.471 47.9661 373.467 41.9346 378.687 45.0275C379.849 42.1998 377.835 38.3368 381.956 35.7339L380.39 39.7322L382.953 37.9593L385.96 42.4684L389.183 37.9326C390.21 39.2981 391.306 40.609 392.465 41.8604C394.56 43.9028 395.606 47.3806 399.6 46.9866C400.237 46.92 401.06 48.9723 401.792 50.052L403.883 53.203C405.232 50.4134 406.318 48.1531 407.465 45.9212C407.574 45.6947 407.73 45.4942 407.921 45.3335C408.113 45.1728 408.336 45.0556 408.575 44.9899C408.945 44.9688 409.454 45.4638 409.714 45.8711C411.222 48.4681 412.739 51.0601 414.129 53.7251C416.31 57.8764 418.967 61.8739 420.433 66.273C431.724 100.291 442.873 134.357 453.88 168.472C479.128 246.281 504.349 324.096 529.543 401.919C529.969 403.471 530.725 404.905 531.759 406.121C531.689 404.367 531.714 402.609 531.534 400.863C526.287 348.687 521.506 296.369 515.485 244.262C510.57 201.628 504.361 159.152 498.357 116.662C495.146 93.9302 491.347 71.2838 487.384 48.6735C486.505 43.6371 488.4 39.3943 489.121 34.8404C489.946 29.6571 491.657 24.6116 492.953 19.4936C493.684 16.6032 494.351 13.6975 495.2 10.1807L499.571 14.4677L501.589 6.10563C501.749 6.85491 501.983 7.58538 502.286 8.28618C502.599 8.78206 503.108 9.52536 503.505 9.50402C504.087 9.47218 505.039 8.94378 505.106 8.4706C505.59 6.27161 505.829 4.02057 506.185 1.6187C510.52 1.91345 509.73 6.75388 512.554 9.13751L513.875 0.497105L522.445 12.5857L523.334 8.89963L530.618 20.4919L533.999 6.48346C540.637 14.7292 542.333 24.0562 545.515 32.6256C551.298 48.2251 556.553 64.0278 562.039 79.735C562.504 81.06 563.049 82.3563 563.558 83.6644C563.897 83.6844 564.223 83.7078 564.588 83.7339L567.503 71.6532C568.809 71.8441 569.535 71.9435 570.331 72.0599C570.064 69.356 569.337 66.7409 569.7 64.2854C570.063 61.8299 569.329 58.6824 572.505 57.3122L571.637 52.3406L572.583 51.9486C573.446 52.6257 574.277 53.3291 575.193 53.9568C575.868 54.4643 576.6 54.9028 577.303 55.3758C577.794 54.433 578.599 53.5315 578.708 52.5514C578.876 51.1242 578.539 49.6369 579.044 48.0495L581.488 53.6566L582.162 53.4953L584.038 42.9212L584.919 42.6583L588.115 52.1819L591.247 49.0301C591.685 47.02 588.626 44.4901 592.238 42.4601C593.855 47.8539 597.222 51.9331 600.002 56.3737L600.964 55.9166L601.439 52.7163L607.242 63.6135C609.586 62.6078 610.785 61.3053 609.776 58.7116C608.263 54.9007 609.496 51.7523 612.906 49.1293C614.661 56.3894 616.48 63.7753 618.231 71.1653C632.245 130.522 639.17 190.98 643.863 251.809C645.921 278.453 648.783 305.036 650.992 331.668C651.315 335.509 650.106 339.511 649.506 343.425C648.698 348.51 647.819 353.581 646.868 358.64C646.516 360.519 645.684 362.317 645.386 364.195C644.426 370.215 643.623 376.258 642.755 382.292C642.288 385.488 641.489 385.888 638.745 384.461C638.144 384.15 637.062 383.792 636.812 384.07C633.774 387.141 632.039 384.669 630.169 382.646C629.8 382.247 629.412 381.864 629.311 381.75C626.732 382.637 624.227 384.368 622.11 383.982C619.851 383.574 617.968 381.156 615.595 379.37C609.132 381.484 604.134 375.846 601.496 369.221C596.576 356.876 592.335 344.267 587.866 331.707C583.804 320.314 579.811 308.888 575.756 297.496C575.249 296.021 574.467 294.662 573.451 293.494C573.531 295.209 573.527 296.959 573.69 298.638C578.242 348.094 582.8 397.556 587.363 447.023C589.986 475.637 592.226 504.295 595.243 532.866C597.269 552.08 595.175 570.755 590.891 589.487C589.332 596.312 588.477 603.301 587.244 610.198C586.977 612.075 586.532 613.923 585.913 615.715C584.325 619.859 583.235 620.375 578.861 619.74C578.225 619.726 577.589 619.805 576.973 619.973C576.114 620.118 574.957 620.741 574.448 620.384C568.67 616.33 560.454 622.011 555.302 615.585C555.01 615.247 554.603 615.035 554.161 614.992C545.172 614.891 540.878 608.1 537.432 601.52C532.836 592.586 528.935 583.295 525.766 573.73C516.776 547.17 508.31 520.427 499.58 493.772C487.967 458.325 476.327 422.895 464.66 387.482C453.858 354.386 443.115 321.266 432.433 288.121C431.895 286.461 431.128 284.877 430.465 283.256L429.693 283.262ZM342.741 257.855L341.548 258.683C353.574 277.055 365.595 295.433 377.61 313.815L378.367 313.309C367.391 294.196 355.122 275.991 342.741 257.855ZM560.152 95.5648L560.908 95.2304L549.189 60.9139L548.278 61.2454L560.152 95.5648ZM411.38 59.9671L410.322 60.4011L421.296 89.0174L422.165 88.6621L411.38 59.9671ZM509.301 360.274C509.049 360.365 508.798 360.456 508.56 360.543L513.95 376.682C514.179 376.599 514.409 376.517 514.637 376.441L509.301 360.274ZM35.0629 123.987L34.3364 124.645L42.2042 134.042L42.9769 133.36L35.0629 123.987ZM274.567 295.359C271.164 294.848 270.537 295.262 270.323 297.995C271.361 298.004 272.392 298.018 273.456 298.061L274.567 295.359ZM58.3691 153.801L59.1483 153.121L52.6841 145.551L51.9924 146.149C54.1153 148.702 56.2408 151.252 58.3691 153.801Z" fill="white" fill-opacity="0.5"/>
</svg>
