<?xml version="1.0" encoding="utf-8"?>
<!-- Generator: Adobe Illustrator 25.2.1, SVG Export Plug-In . SVG Version: 6.00 Build 0)  -->
<svg version="1.1" id="Layer_1" xmlns="http://www.w3.org/2000/svg" xmlns:xlink="http://www.w3.org/1999/xlink" x="0px" y="0px"
	 viewBox="0 0 1280 36.5" style="enable-background:new 0 0 1280 36.5;" xml:space="preserve">
<style type="text/css">
	.st0{fill:#E0FB52;}
</style>
<path class="st0" d="M1286.1,37.7c-74.5,0.3-186.9,0.6-324,0.9c0,0-135.9,0.3-258.6,0.5c-142.2,0.2-364.6,0-714.1-1.4
	c1.7-3.3,3.6-6.7,6-10.3c1.5-2.4,3.1-4.6,4.6-6.7c0-2.2,1.8-4,4-4h312c2.2,0,4,1.8,4,4V22c0,2.2,1.8,4,4,4h312c2.2,0,4-1.8,4-4V4
	c0-2.2,1.8-4,4-4h312c2.2,0,4,1.8,4,4v18c0,2.2,1.8,4,4,4h312c2.2,0,4,1.8,4,4C1282,32.6,1284,35.1,1286.1,37.7z"/>
<path class="st0" d="M1283,29.6"/>
</svg>
