<svg width="83" height="83" viewBox="0 0 83 83" fill="none" xmlns="http://www.w3.org/2000/svg">
<path d="M10.9048 58.449L11.6037 59.5297L10.5567 63.4888L13.1002 61.844L13.6085 62.63L8.56506 65.8913L8.0568 65.1053L10.251 63.6865L6.71557 63.0312L6.01672 61.9505L9.82368 62.7862L10.9048 58.449Z" fill="#333946"/>
<path d="M3.78932 58.1943C3.43432 57.3189 3.42393 56.4861 3.75815 55.6959C4.08108 54.9009 4.67222 54.3292 5.53159 53.9807C6.39095 53.6322 7.21735 53.6291 8.01079 53.9714C8.79294 54.3088 9.36151 54.9153 9.71651 55.7907C10.0683 56.6581 10.0827 57.4893 9.75973 58.2842C9.42877 59.0825 8.83361 59.6558 7.97424 60.0043C7.11488 60.3528 6.2925 60.3543 5.50709 60.0088C4.71365 59.6665 4.14106 59.0617 3.78932 58.1943ZM4.61226 56.107C4.38634 56.6569 4.39714 57.237 4.64466 57.8474C4.89219 58.4578 5.2885 58.8816 5.83359 59.1188C6.37869 59.356 6.96848 59.346 7.60296 59.0887C8.23744 58.8314 8.66764 58.4278 8.89357 57.878C9.11949 57.3281 9.10869 56.748 8.86116 56.1376C8.61364 55.5272 8.21733 55.1034 7.67224 54.8662C7.12714 54.629 6.53735 54.639 5.90287 54.8963C5.26839 55.1536 4.83818 55.5572 4.61226 56.107Z" fill="#333946"/>
<path d="M7.76826 52.845L1.56892 52.2054L1.42373 51.3466L4.76578 49.2786L4.76145 49.253L0.923179 48.3856L0.777996 47.5268L6.42261 44.885L6.58079 45.8207L2.29814 47.784L2.30247 47.8097L6.04885 48.6794L6.16586 49.3715L2.9157 51.4372L2.92004 51.4628L7.61007 51.9093L7.76826 52.845Z" fill="#333946"/>
<path d="M5.99701 45.3328L0.083396 43.3655L0.127689 42.4957L3.83834 41.2007L3.83967 41.1747L0.2804 39.4966L0.324693 38.6267L6.40754 37.2703L6.35928 38.218L1.75303 39.2071L1.7517 39.233L5.22075 40.8936L5.18505 41.5947L1.56462 42.9073L1.56329 42.9332L6.04527 44.385L5.99701 45.3328Z" fill="#333946"/>
<path d="M0.83599 32.9158C1.0545 31.9968 1.50657 31.3693 2.19218 31.0335C2.87137 30.6872 3.66627 30.6223 4.57688 30.8388L4.7413 30.8779L3.58659 35.7345C4.2294 35.8784 4.78662 35.8016 5.25826 35.5039C5.7299 35.2063 6.03889 34.7497 6.18524 34.1342C6.26543 33.7969 6.27536 33.4741 6.21504 33.1658C6.14829 32.8471 6.06351 32.6042 5.96067 32.4372C5.85142 32.2598 5.71365 32.0712 5.54738 31.8713L6.29817 31.355C7.07571 32.2436 7.33418 33.2359 7.07356 34.332C6.85505 35.2511 6.39718 35.9217 5.69995 36.3439C4.9963 36.7556 4.18073 36.8512 3.25325 36.6307C2.31734 36.4082 1.62686 35.959 1.18181 35.283C0.738765 34.5986 0.623492 33.8096 0.83599 32.9158ZM1.67134 33.1679C1.54705 33.6906 1.58936 34.1684 1.79826 34.6011C2.00917 35.0254 2.37642 35.3354 2.9 35.5312L3.81114 31.699C3.26149 31.6129 2.80002 31.6991 2.42673 31.9578C2.05545 32.208 1.80365 32.6114 1.67134 33.1679Z" fill="#333946"/>
<path d="M9.69654 32.2243L1.84793 28.6941L2.23188 27.8405L3.20407 28.2777L3.21473 28.254C2.64003 27.4824 2.56776 26.6184 2.99793 25.662C3.34633 24.8874 3.90086 24.3623 4.6615 24.0868C5.4257 23.8033 6.25043 23.8606 7.13567 24.2588C8.02091 24.657 8.61099 25.236 8.90592 25.9959C9.2044 26.7478 9.17944 27.5111 8.83104 28.2857C8.40087 29.242 7.70645 29.7612 6.7478 29.8432L6.73713 29.8669L10.0805 31.3707L9.69654 32.2243ZM6.68842 29.2463C7.23924 29.0569 7.64798 28.6658 7.91461 28.073C8.18124 27.4802 8.20268 26.9149 7.97892 26.3772C7.75517 25.8394 7.33899 25.4336 6.73038 25.1599C6.12178 24.8861 5.54206 24.8439 4.99124 25.0333C4.44041 25.2227 4.03168 25.6138 3.76504 26.2066C3.49841 26.7994 3.47697 27.3647 3.70073 27.9024C3.92448 28.4402 4.34067 28.846 4.94927 29.1197C5.55787 29.3935 6.13759 29.4357 6.68842 29.2463Z" fill="#333946"/>
<path d="M6.79672 18.8497L7.31096 18.0676L12.3293 21.3673L11.8151 22.1494L9.7947 20.8209L8.64481 22.5697C8.02106 23.5184 7.27469 23.707 6.40571 23.1356L4.71119 22.0214L5.22543 21.2394L6.84391 22.3036C7.29288 22.5988 7.66974 22.5146 7.97447 22.0512L9.08866 20.3567L6.79672 18.8497Z" fill="#333946"/>
<path d="M9.89918 14.3372C10.5409 13.644 11.2428 13.3194 12.005 13.3636C12.7667 13.3955 13.491 13.7294 14.1779 14.3652L14.3019 14.48L10.9109 18.1434C11.4001 18.5845 11.9233 18.7912 12.4803 18.7636C13.0373 18.7359 13.5307 18.49 13.9605 18.0257C14.196 17.7713 14.3632 17.495 14.462 17.1968C14.5604 16.8863 14.6058 16.6331 14.5983 16.4372C14.5902 16.229 14.5629 15.997 14.5162 15.7412L15.4238 15.6602C15.6647 16.8161 15.4025 17.8075 14.6371 18.6343C13.9954 19.3276 13.2672 19.6869 12.4525 19.7122C11.6374 19.7253 10.88 19.408 10.1804 18.7604C9.47438 18.1069 9.09354 17.3765 9.03784 16.5691C8.98802 15.7554 9.27513 15.0114 9.89918 14.3372ZM10.5031 14.9671C10.138 15.3614 9.94027 15.7983 9.90972 16.2779C9.88506 16.751 10.0527 17.2015 10.4127 17.6291L13.0884 14.7384C12.6519 14.3935 12.2076 14.242 11.7554 14.2839C11.309 14.3196 10.8916 14.5473 10.5031 14.9671Z" fill="#333946"/>
<path d="M19.0406 14.2999C18.2751 14.8825 17.4725 15.123 16.6328 15.0215C15.7932 14.9199 15.0846 14.4899 14.5073 13.7313C13.9299 12.9726 13.7041 12.1752 13.83 11.3388C13.9558 10.5024 14.4015 9.79291 15.167 9.21029C15.7394 8.77464 16.4049 8.5186 17.1636 8.44218L17.2897 9.35911C16.6489 9.43297 16.1181 9.62999 15.6974 9.95016C15.1664 10.3543 14.8692 10.8582 14.8059 11.4619C14.7373 12.0587 14.8998 12.6157 15.2935 13.1329C15.6871 13.6501 16.1833 13.9586 16.782 14.0584C17.3755 14.1513 17.9378 13.9957 18.4688 13.5915C18.8895 13.2713 19.2208 12.8122 19.4627 12.2142L20.3129 12.5801C20.0371 13.2909 19.613 13.8642 19.0406 14.2999Z" fill="#333946"/>
<path d="M25.9225 9.65409L24.7895 10.2646L20.9265 8.90545L22.3633 11.572L21.5393 12.016L18.6903 6.72873L19.5143 6.28472L20.7538 8.58501L21.6887 5.11303L22.8217 4.50252L21.6852 8.23078L25.9225 9.65409Z" fill="#333946"/>
<path d="M26.7004 2.58013C27.6008 2.29449 28.4319 2.34908 29.1936 2.74391C29.9609 3.12786 30.4848 3.7618 30.7652 4.64572C31.0456 5.52965 30.9843 6.35378 30.5812 7.1181C30.1837 7.87155 29.5348 8.39109 28.6343 8.67673C27.7421 8.95975 26.9124 8.90929 26.145 8.52534C25.3751 8.13313 24.8499 7.49506 24.5695 6.61113C24.2891 5.72721 24.3517 4.90721 24.7574 4.15115C25.1605 3.38682 25.8082 2.86315 26.7004 2.58013ZM28.7171 3.56336C28.1865 3.29524 27.6073 3.26076 26.9794 3.45992C26.3516 3.65908 25.8982 4.02113 25.6192 4.54606C25.3402 5.071 25.3042 5.65977 25.5112 6.31239C25.7182 6.96501 26.087 7.42538 26.6176 7.6935C27.1482 7.96162 27.7274 7.9961 28.3552 7.79694C28.9831 7.59778 29.4365 7.23573 29.7155 6.71079C29.9945 6.18586 30.0305 5.59708 29.8235 4.94447C29.6164 4.29185 29.2476 3.83148 28.7171 3.56336Z" fill="#333946"/>
<path d="M34.1549 0.605427C35.0914 0.482067 35.8388 0.680843 36.3969 1.20175C36.9625 1.71294 37.3064 2.43252 37.4287 3.36051L37.4507 3.52806L32.5015 4.17994C32.5961 4.83184 32.8665 5.32508 33.3127 5.65969C33.7589 5.99429 34.2956 6.12028 34.9228 6.03766C35.2665 5.99239 35.5717 5.88664 35.8382 5.72041C36.1123 5.54445 36.309 5.37867 36.4283 5.22309C36.5552 5.05778 36.6823 4.86183 36.8098 4.63523L37.5598 5.15273C37.0067 6.1959 36.1716 6.79105 35.0545 6.93817C34.118 7.06153 33.3282 6.87271 32.6853 6.37171C32.0498 5.86099 31.6698 5.13304 31.5453 4.18787C31.4197 3.23411 31.5934 2.42887 32.0663 1.77215C32.5479 1.1143 33.2441 0.725391 34.1549 0.605427ZM34.2171 1.47576C33.6843 1.54593 33.253 1.75571 32.9232 2.10511C32.6019 2.45338 32.4431 2.907 32.4468 3.46597L36.3521 2.9516C36.2367 2.40734 35.9916 2.00691 35.6169 1.75031C35.2508 1.49258 34.7842 1.40106 34.2171 1.47576Z" fill="#333946"/>
<path d="M47.4268 0.753088L46.6208 6.70476L45.6933 6.57915L46.3806 1.50348L43.1214 1.06209L42.434 6.13776L41.5065 6.01215L42.3125 0.0604799L47.4268 0.753088Z" fill="#333946"/>
<path d="M46.6514 8.97786L49.4051 0.824322L50.2919 1.12382L49.9508 2.13378L49.9755 2.1421C50.6878 1.49538 51.5408 1.33979 52.5343 1.67534C53.339 1.94711 53.9153 2.44819 54.2632 3.17858C54.6194 3.91175 54.6421 4.73815 54.3315 5.65778C54.0209 6.57742 53.5018 7.22079 52.7741 7.5879C52.0545 7.95778 51.2924 8.00684 50.4878 7.73507C49.4942 7.39952 48.9103 6.75864 48.7359 5.81242L48.7112 5.8041L47.5382 9.27736L46.6514 8.97786ZM49.3242 5.69553C49.566 6.22543 49.9948 6.59438 50.6107 6.80236C51.2265 7.01035 51.7912 6.97695 52.3048 6.70218C52.8184 6.4274 53.1819 5.97389 53.3955 5.34164C53.609 4.7094 53.5949 4.12832 53.353 3.59842C53.1112 3.06851 52.6824 2.69957 52.0666 2.49158C51.4507 2.28359 50.886 2.31699 50.3724 2.59176C49.8589 2.86654 49.4953 3.32005 49.2818 3.9523C49.0682 4.58455 49.0824 5.16562 49.3242 5.69553Z" fill="#333946"/>
<path d="M59.5064 4.43877C60.3328 4.8963 60.8157 5.5004 60.9548 6.25106C61.1058 6.99833 60.9546 7.78142 60.5013 8.60031L60.4194 8.74817L56.052 6.33038C55.7406 6.91083 55.6648 7.46821 55.8247 8.0025C55.9846 8.53679 56.3413 8.95715 56.8948 9.26357C57.1981 9.43147 57.5063 9.52781 57.8195 9.5526C58.1445 9.574 58.4012 9.55762 58.5897 9.50346C58.7899 9.44592 59.0087 9.36394 59.2459 9.25752L59.5414 10.1195C58.4765 10.6295 57.4511 10.6117 56.4654 10.066C55.639 9.60848 55.1161 8.98718 54.8969 8.20213C54.6895 7.41369 54.8167 6.60244 55.2784 5.76839C55.7443 4.92675 56.3626 4.38245 57.1333 4.1355C57.9116 3.89274 58.7026 3.99383 59.5064 4.43877ZM59.039 5.17561C58.5689 4.91536 58.0974 4.82768 57.6244 4.91257C57.1591 5.00165 56.7617 5.27204 56.4324 5.72373L59.8786 7.63151C60.1093 7.12525 60.1503 6.65758 60.0015 6.2285C59.8603 5.80361 59.5394 5.45265 59.039 5.17561Z" fill="#333946"/>
<path d="M63.8531 13.8271L64.4305 14.2916L62.8985 16.1959L62.2503 15.6744L63.2362 14.4487L59.4884 11.4337L58.5025 12.6594L57.8441 12.1297L59.376 10.2254L59.9736 10.7062C60.624 10.4508 61.2154 9.99221 61.7477 9.33043L63.6708 6.93995L67.1451 9.73491L63.8531 13.8271ZM62.4444 9.95765C61.9338 10.5924 61.3702 11.0511 60.7536 11.3336L63.1238 13.2404L65.878 9.81674L63.8623 8.19517L62.4444 9.95765Z" fill="#333946"/>
<path d="M72.4002 15.0023L67.8841 18.9617L67.2671 18.2579L71.1185 14.8812L69.1302 12.6134L66.442 14.9702C66.038 15.3244 65.6493 15.4924 65.2759 15.474C64.9147 15.4564 64.5884 15.2814 64.297 14.9491L63.9199 14.519L64.5651 13.9533L64.865 14.2955C65.1335 14.6017 65.4568 14.5892 65.8348 14.2578L69.1778 11.3268L72.4002 15.0023Z" fill="#333946"/>
<path d="M75.3685 18.6512C75.8447 19.4671 75.9738 20.2899 75.7556 21.1197C75.5494 21.9526 75.0458 22.6027 74.2449 23.0702C73.444 23.5377 72.6265 23.6586 71.7924 23.433C70.9701 23.2105 70.3209 22.6914 69.8447 21.8755C69.3728 21.0672 69.24 20.2465 69.4463 19.4136C69.66 18.5764 70.1673 17.924 70.9682 17.4566C71.7691 16.9891 72.5829 16.8703 73.4095 17.1003C74.2437 17.3259 74.8966 17.8429 75.3685 18.6512ZM74.8516 20.8345C74.9968 20.258 74.9034 19.6854 74.5714 19.1165C74.2393 18.5477 73.7866 18.1847 73.2133 18.0277C72.6399 17.8706 72.0576 17.9647 71.4663 18.3098C70.875 18.655 70.5067 19.1158 70.3615 19.6923C70.2163 20.2687 70.3098 20.8414 70.6418 21.4102C70.9738 21.9791 71.4265 22.342 71.9999 22.4991C72.5732 22.6561 73.1556 22.5621 73.7469 22.2169C74.3382 21.8718 74.7064 21.411 74.8516 20.8345Z" fill="#333946"/>
<path d="M74.84 32.7361L74.4542 31.5355L76.5723 28.0558L73.639 28.9983L73.3567 28.1195L76.29 27.177L72.5415 25.5822L72.1557 24.3817L76.1327 26.1352L77.9573 22.8044L78.347 24.0173L76.5623 27.0895L79.0748 26.2823L79.3571 27.161L76.8322 27.9723L80.0848 29.426L80.4746 30.6389L77.0553 29.0066L74.84 32.7361Z" fill="#333946"/>
<path d="M81.3965 34.1705C81.5199 35.1071 81.3211 35.8544 80.8002 36.4126C80.289 36.9782 79.5694 37.3221 78.6414 37.4443L78.4739 37.4664L77.822 32.5171C77.1701 32.6117 76.6769 32.8821 76.3423 33.3283C76.0077 33.7745 75.8817 34.3112 75.9643 34.9384C76.0096 35.2821 76.1153 35.5873 76.2815 35.8538C76.4575 36.1279 76.6233 36.3246 76.7789 36.444C76.9442 36.5708 77.1401 36.698 77.3667 36.8255L76.8492 37.5755C75.8061 37.0223 75.2109 36.1872 75.0638 35.0702C74.9404 34.1336 75.1292 33.3438 75.6302 32.7009C76.141 32.0654 76.8689 31.6855 77.8141 31.561C78.7678 31.4353 79.5731 31.609 80.2298 32.082C80.8877 32.5635 81.2766 33.2597 81.3965 34.1705ZM80.5262 34.2327C80.456 33.6999 80.2462 33.2686 79.8968 32.9388C79.5486 32.6175 79.095 32.4587 78.536 32.4624L79.0504 36.3677C79.5946 36.2523 79.995 36.0072 80.2516 35.6325C80.5094 35.2664 80.6009 34.7998 80.5262 34.2327Z" fill="#333946"/>
<path d="M81.6905 43.1644L81.6327 44.0986L75.6381 43.7278L75.6959 42.7936L78.4337 42.9629L78.6496 39.4726L75.9118 39.3032L75.9696 38.369L81.9642 38.7398L81.9064 39.6741L79.5189 39.5264L79.303 43.0167L81.6905 43.1644Z" fill="#333946"/>
<path d="M75.8167 45.1915L81.6278 46.7094L81.3879 47.6276L76.9605 46.4711L76.9539 46.4963L80.514 50.9733L80.2742 51.8915L74.4631 50.3737L74.703 49.4555L79.1304 50.6119L79.137 50.5868L75.5736 46.1223L75.8167 45.1915Z" fill="#333946"/>
<path d="M78.7597 56.9167C78.3625 57.7738 77.7945 58.2987 77.0557 58.4912C76.3212 58.6953 75.5293 58.6006 74.68 58.207L74.5267 58.136L76.6256 53.6067C76.0243 53.3376 75.4629 53.3019 74.9415 53.4997C74.42 53.6974 74.0263 54.0833 73.7603 54.6573C73.6145 54.9718 73.5405 55.2862 73.5382 55.6003C73.5401 55.926 73.5748 56.1809 73.6423 56.365C73.7141 56.5606 73.8115 56.7729 73.9346 57.0019L73.096 57.3584C72.5111 56.3327 72.4554 55.3087 72.9291 54.2865C73.3263 53.4294 73.9086 52.8634 74.6759 52.5886C75.4475 52.3252 76.2658 52.394 77.1307 52.7948C78.0036 53.1993 78.5907 53.777 78.8922 54.5281C79.1901 55.287 79.1459 56.0832 78.7597 56.9167ZM77.9912 56.5033C78.2172 56.0158 78.2709 55.5392 78.1523 55.0735C78.0302 54.6157 77.732 54.2388 77.2579 53.9427L75.6018 57.5166C76.1232 57.7105 76.5926 57.7178 77.01 57.5387C77.4237 57.3674 77.7507 57.0223 77.9912 56.5033Z" fill="#333946"/>
</svg>
