<svg width="73" height="46" viewBox="0 0 73 46" fill="none" xmlns="http://www.w3.org/2000/svg">
<g clip-path="url(#clip0_710_2243)">
<path d="M46.5489 32.4204C45.1596 33.424 43.7024 34.4028 42.1835 35.3481L41.9193 34.9236C41.1861 35.3799 40.4384 35.8284 39.6768 36.2681C38.9153 36.7077 38.153 37.1311 37.3912 37.5379L37.6267 37.9789C36.0486 38.8217 34.4724 39.5943 32.9086 40.2956L32.704 39.8394C31.0732 40.5708 29.4567 41.2239 27.8668 41.7977L28.0365 42.268C26.3312 42.8833 24.6555 43.4084 23.024 43.8416L22.8957 43.3583C21.1383 43.825 19.4351 44.1836 17.8049 44.4328L17.8804 44.927C16.0374 45.2087 14.2836 45.3527 12.6455 45.3562L12.6444 44.8562C10.7683 44.8603 9.0585 44.677 7.55318 44.3076L7.43401 44.7932C5.55034 44.331 3.95979 43.5821 2.73739 42.5392L3.06192 42.1588C2.42586 41.6162 1.89919 40.9918 1.49068 40.2842C1.08216 39.5767 0.804749 38.8084 0.652828 37.9862L0.161145 38.077C-0.130815 36.497 0.0159269 34.7451 0.557444 32.8827L1.03756 33.0222C1.47031 31.5339 2.16645 29.9616 3.10807 28.3388L2.6756 28.0879C3.49776 26.671 4.49934 25.2241 5.66479 23.7689L6.05505 24.0814C7.08595 22.7942 8.2481 21.4985 9.53093 20.2099L9.17659 19.8571C10.3675 18.6609 11.6601 17.4721 13.0456 16.303L13.3681 16.6851C14.6599 15.5951 16.0338 14.5217 17.4826 13.4751L17.1898 13.0698C18.5791 12.0662 20.0363 11.0874 21.5552 10.1421L21.8194 10.5666C22.5526 10.1103 23.3003 9.66182 24.0619 9.22214C24.8234 8.78246 25.5857 8.35915 26.3475 7.95232L26.1119 7.51128C27.69 6.66852 29.2663 5.89594 30.8301 5.19459L31.0347 5.6508C32.6654 4.91941 34.2819 4.26628 35.8719 3.69253L35.7022 3.22222C37.4075 2.60685 39.0832 2.08183 40.7147 1.6486L40.843 2.13186C42.6003 1.66519 44.3036 1.3066 45.9338 1.05744L45.8582 0.563179C47.7012 0.281494 49.4551 0.137551 51.0932 0.13397L51.0943 0.633969C52.9704 0.629868 54.6802 0.813168 56.1855 1.18257L56.3047 0.69698C58.1883 1.15923 59.7789 1.90809 61.0013 2.95097L60.6768 3.33135C61.3128 3.874 61.8395 4.4984 62.248 5.20597C62.6565 5.91354 62.9339 6.68184 63.0859 7.50401L63.5775 7.41316C63.8695 8.99322 63.7228 10.7451 63.1812 12.6076L62.7011 12.468C62.2684 13.9563 61.5722 15.5286 60.6306 17.1514L61.0631 17.4023C60.2409 18.8192 59.2393 20.2661 58.0739 21.7213L57.6836 21.4088C56.6527 22.696 55.4906 23.9917 54.2078 25.2803L54.5621 25.6331C53.3712 26.8293 52.0786 28.0181 50.6931 29.1872L50.3706 28.8051C49.0788 29.8951 47.7049 30.9685 46.2561 32.0151L46.5489 32.4204Z" stroke="#333946" stroke-opacity="0.5" stroke-dasharray="6 6"/>
<path d="M58.3416 8.12598C58.3416 8.12598 59.1504 15.6748 62.3006 18.825C65.4509 21.9752 72.9997 22.784 72.9997 22.784C72.9997 22.784 65.4509 23.5928 62.3006 26.743C59.1504 29.8932 58.3416 37.442 58.3416 37.442C58.3416 37.442 57.5329 29.8932 54.3826 26.743C51.2324 23.5928 43.6836 22.784 43.6836 22.784C43.6836 22.784 51.2324 21.9752 54.3826 18.825C57.5329 15.6748 58.3416 8.12598 58.3416 8.12598Z" fill="white"/>
<path d="M68.7051 22.4696C69.1646 22.5897 69.6082 22.694 70.0241 22.784C69.6082 22.8741 69.1646 22.9783 68.7051 23.0984C66.4144 23.6969 63.6238 24.7127 61.9471 26.3895C60.2703 28.0662 59.2545 30.8568 58.656 33.1475C58.536 33.607 58.4317 34.0505 58.3416 34.4665C58.2516 34.0505 58.1473 33.607 58.0272 33.1475C57.4287 30.8568 56.4129 28.0662 54.7362 26.3895C53.0594 24.7127 50.2689 23.6969 47.9782 23.0984C47.5187 22.9783 47.0751 22.8741 46.6592 22.784C47.0751 22.6939 47.5187 22.5897 47.9782 22.4696C50.2689 21.8711 53.0594 20.8553 54.7362 19.1786C56.4129 17.5018 57.4287 14.7113 58.0272 12.4205C58.1473 11.961 58.2516 11.5175 58.3416 11.1016C58.4317 11.5175 58.536 11.961 58.656 12.4205C59.2545 14.7113 60.2703 17.5018 61.9471 19.1786C63.6238 20.8553 66.4144 21.8711 68.7051 22.4696Z" stroke="#333946" stroke-opacity="0.5"/>
</g>
<defs>
<clipPath id="clip0_710_2243">
<rect width="73" height="46" fill="white"/>
</clipPath>
</defs>
</svg>
