<svg width="24" height="26" viewBox="0 0 24 26" fill="none" xmlns="http://www.w3.org/2000/svg">
<path d="M2.99375 1.10258C2.6375 1.24907 2.23437 1.66899 2.10312 2.04008L2 2.32328L2.00937 11.8057L2.02344 21.2881L2.14062 21.5322C2.28594 21.8447 2.61406 22.1865 2.91406 22.3379L3.14844 22.46L7.63436 22.4746L12.1156 22.4844L12.1344 20.8145L12.1484 19.1397L11.9984 18.8467C11.8062 18.4609 11.5859 17.8018 11.4828 17.2988C11.3844 16.8057 11.375 15.8242 11.464 15.3067C11.6562 14.1885 12.1859 13.0947 12.95 12.2354C14.2531 10.7754 16.1937 10.1114 18.0218 10.502C18.2093 10.541 18.3968 10.5899 18.4343 10.6045C18.4906 10.624 18.5 10.0821 18.5 6.47367C18.5 2.33793 18.5 2.32328 18.3968 2.04008C18.2609 1.65434 17.8718 1.24907 17.5015 1.10747L17.2297 1.00005L10.2359 1.00493C3.30781 1.00493 3.24218 1.00493 2.99375 1.10258ZM13.2031 5.03324C13.7047 5.34086 13.7047 6.03421 13.2031 6.34183C13.0437 6.44437 12.9828 6.44437 9.68748 6.44437C6.39218 6.44437 6.33124 6.44437 6.17187 6.34183C5.58124 5.98539 5.7078 5.12113 6.37343 4.95511C6.45312 4.9307 7.99061 4.91605 9.78123 4.92094C12.9781 4.9307 13.0437 4.9307 13.2031 5.03324ZM13.2031 8.15823C13.7047 8.46585 13.7047 9.15921 13.2031 9.46682C13.0437 9.56936 12.9828 9.56936 9.68748 9.56936C6.39218 9.56936 6.33124 9.56936 6.17187 9.46682C5.58124 9.11038 5.7078 8.24612 6.37343 8.08011C6.45312 8.05569 7.99061 8.04105 9.78123 8.04593C12.9781 8.05569 13.0437 8.05569 13.2031 8.15823ZM10.5781 11.2832C11.0797 11.5908 11.0797 12.2842 10.5781 12.5918C10.4187 12.6895 10.3484 12.6944 8.37499 12.6944C6.40155 12.6944 6.33124 12.6895 6.17187 12.5918C5.58124 12.2354 5.7078 11.3711 6.37343 11.2002C6.45312 11.1807 7.39999 11.166 8.46874 11.1709C10.339 11.1807 10.4187 11.1856 10.5781 11.2832Z" fill="#333946"/>
<path d="M15.9919 12.0397C14.8341 12.3327 13.8029 13.2116 13.2732 14.3444C12.9826 14.9743 12.8748 15.4772 12.8748 16.2341C12.8748 17.0104 12.9826 17.5036 13.2966 18.1628C13.8029 19.2272 14.6607 19.9841 15.781 20.36C16.3154 20.5407 17.2529 20.5846 17.8482 20.4577C19.4279 20.1257 20.7263 18.7829 21.0497 17.152C21.1576 16.61 21.1482 15.7263 21.031 15.2087C20.6794 13.6755 19.456 12.4011 17.9841 12.0349C17.4451 11.903 16.5263 11.903 15.9919 12.0397ZM18.4622 14.4567C18.7482 14.6081 18.9122 14.9987 18.8091 15.3014C18.7107 15.6091 17.1544 17.9821 16.9857 18.0895C16.8919 18.1481 16.7513 18.1872 16.6154 18.1872C16.4185 18.1872 16.3341 18.1432 15.6919 17.6989C14.9091 17.1618 14.7966 17.03 14.7966 16.6686C14.7966 16.2682 15.1107 15.9362 15.4998 15.9313C15.6404 15.9313 15.7576 15.9753 15.9357 16.0876C16.3341 16.3512 16.4279 16.405 16.4513 16.3805C16.4607 16.3659 16.7138 15.9704 17.0138 15.4968C17.3138 15.028 17.5997 14.6032 17.6513 14.5544C17.8716 14.3444 18.1763 14.3102 18.4622 14.4567Z" fill="#333946"/>
<path d="M13.625 23.1875C13.625 25.3945 13.6297 25.4922 13.7187 25.6484C13.8594 25.8828 14.0703 26 14.375 26C14.6187 26 14.6891 25.9658 15.8141 25.2969L17 24.5889L18.1812 25.2969C19.3109 25.9658 19.3812 26 19.625 26C19.9297 26 20.1406 25.8828 20.2812 25.6484C20.3703 25.4922 20.375 25.3945 20.375 23.1875V20.8828L20 21.1416C18.5 22.1719 16.4797 22.3379 14.7781 21.5811C14.5578 21.4785 14.2062 21.2832 14 21.1416L13.625 20.8828V23.1875Z" fill="#333946"/>
</svg>
