<svg width="12" height="15" viewBox="0 0 12 15" fill="none" xmlns="http://www.w3.org/2000/svg">
<path d="M0 0H12V15H0V0Z" fill="#D8D8D8"/>
<path d="M0 0H12V15H0V0ZM0.75 1.66667H11.25V14.2593H0.75V1.66667Z" fill="#536798"/>
<path d="M0.75 1.66666H11.25V14.2592H0.75V1.66666Z" fill="#E0F2FC"/>
<path d="M10.5 13.5185H11.25V14.2593H10.5V13.5185ZM0.75 13.5185H1.5V14.2593H0.75V13.5185Z" fill="#536798"/>
<path d="M6 11.1111C8.8995 11.1111 11.25 8.78964 11.25 5.92594C11.25 3.06224 8.8995 0.740753 6 0.740753C3.10051 0.740753 0.75 3.06224 0.75 5.92594C0.75 8.78964 3.10051 11.1111 6 11.1111Z" fill="#E0F2FC"/>
<path d="M6 11.1111C8.8995 11.1111 11.25 8.78964 11.25 5.92594C11.25 3.06224 8.8995 0.740753 6 0.740753C3.10051 0.740753 0.75 3.06224 0.75 5.92594C0.75 8.78964 3.10051 11.1111 6 11.1111Z" fill="white"/>
<path d="M2.96245 5.18517V4.42591H2.69995L2.6812 4.59258C2.66245 4.70369 2.66245 4.77777 2.6437 4.85184C2.62495 4.92591 2.6062 4.98147 2.58745 5.03702C2.5687 5.07406 2.54995 5.1111 2.51245 5.12962C2.47495 5.14814 2.4562 5.18517 2.4187 5.18517C2.3812 5.18517 2.36245 5.18517 2.32495 5.18517V5.01851C2.3437 5.01851 2.36245 5.01851 2.36245 5.01851C2.3812 5.01851 2.3812 4.99999 2.39995 4.98147C2.4187 4.96295 2.43745 4.92591 2.43745 4.88888C2.4562 4.85184 2.4562 4.79628 2.47495 4.72221C2.4937 4.64814 2.4937 4.55554 2.51245 4.44443L2.5312 4.25925H3.11245V5.18517H2.96245Z" fill="#727272"/>
<path d="M3.525 5.18518H3.375V4.27777H3.54375V4.92592L4.03125 4.27777H4.18125V5.18518H4.0125V4.53703L3.525 5.18518Z" fill="#727272"/>
<path d="M4.42505 5.18518V4.27777H4.5938V5.03703H4.98755V4.27777H5.1563V5.03703H5.28755V5.35185H5.13755V5.18518H4.42505Z" fill="#727272"/>
<path d="M5.4375 5.18518V4.27777H5.9625V4.42592H5.5875V4.64814H5.925V4.79629H5.5875V5.03703H5.9625V5.18518H5.4375Z" fill="#727272"/>
<path d="M6.76875 5.18518V4.79629H6.35625V5.18518H6.1875V4.27777H6.35625V4.64814H6.76875V4.27777H6.9375V5.18518H6.76875Z" fill="#727272"/>
<path d="M7.40615 5.20369C7.33115 5.20369 7.2749 5.18517 7.21865 5.16665C7.1624 5.12962 7.1249 5.09258 7.0874 5.05554L7.18115 4.94443C7.21865 4.98147 7.2374 4.99999 7.29365 5.01851C7.33115 5.03702 7.36865 5.05554 7.40615 5.05554C7.4624 5.05554 7.4999 5.03702 7.51865 5.01851C7.55615 4.99999 7.5749 4.96295 7.5749 4.92591C7.5749 4.88888 7.55615 4.85184 7.5374 4.83332C7.51865 4.8148 7.4624 4.79628 7.4249 4.79628H7.3124V4.64814H7.40615C7.44365 4.64814 7.48115 4.62962 7.4999 4.6111C7.51865 4.59258 7.5374 4.55554 7.5374 4.51851C7.5374 4.48147 7.51865 4.44443 7.4999 4.42591C7.48115 4.4074 7.44365 4.38888 7.40615 4.38888C7.33115 4.38888 7.2749 4.42591 7.21865 4.48147L7.1249 4.40739C7.1624 4.37036 7.1999 4.33332 7.25615 4.29628C7.3124 4.27777 7.36865 4.25925 7.4249 4.25925C7.4999 4.25925 7.5749 4.27777 7.63115 4.33332C7.6874 4.37036 7.70615 4.44443 7.70615 4.51851C7.70615 4.55554 7.6874 4.59258 7.66865 4.62962C7.6499 4.66665 7.6124 4.70369 7.5749 4.72221C7.63115 4.74073 7.66865 4.75925 7.6874 4.79628C7.70615 4.83332 7.7249 4.88888 7.7249 4.92591C7.7249 4.99999 7.6874 5.07406 7.63115 5.1111C7.5749 5.16665 7.4999 5.20369 7.40615 5.20369Z" fill="#727272"/>
<path d="M8.09995 5.18518H7.94995V4.27777H8.1187V4.92592L8.6062 4.27777H8.7562V5.18518H8.58745V4.53703L8.09995 5.18518Z" fill="#727272"/>
<path d="M9.4124 5.18518V4.87036H9.28115L9.05615 5.18518H8.86865L9.1124 4.83333C9.05615 4.81481 9.01865 4.77777 8.9999 4.74073C8.9624 4.7037 8.9624 4.64814 8.9624 4.59259C8.9624 4.49999 8.9999 4.42592 9.05615 4.37036C9.1124 4.31481 9.20615 4.27777 9.3374 4.27777C9.35615 4.27777 9.39365 4.27777 9.4499 4.27777C9.50615 4.27777 9.54365 4.27777 9.5624 4.27777V5.18518H9.4124ZM9.2624 4.72222H9.4124V4.42592C9.3749 4.42592 9.3374 4.42592 9.31865 4.42592C9.2624 4.42592 9.2249 4.44444 9.1874 4.46296C9.1499 4.49999 9.13115 4.53703 9.13115 4.57407C9.13115 4.6111 9.1499 4.64814 9.16865 4.66666C9.1874 4.68518 9.2249 4.72222 9.2624 4.72222Z" fill="#727272"/>
<path d="M3.75 8.20371H8.25M3.75 2.92593H8.25M1.6875 6.81482H2.625M7.3125 6.81482H10.35M3.1875 6.81482H3.75M6.9375 13.5741H7.875M8.25 13.5741H10.125M3.24375 9.31482H8.85M3.24375 10.0556H8.85M3.24375 10.7963H8.85M3.24375 11.537H8.85" stroke="#727272" stroke-width="0.246914" stroke-linecap="square"/>
<path d="M6 2.40741C6.31066 2.40741 6.5625 2.15868 6.5625 1.85185C6.5625 1.54503 6.31066 1.2963 6 1.2963C5.68934 1.2963 5.4375 1.54503 5.4375 1.85185C5.4375 2.15868 5.68934 2.40741 6 2.40741Z" fill="#EADCC8"/>
</svg>
