<svg width="171" height="38" viewBox="0 0 171 38" fill="none" xmlns="http://www.w3.org/2000/svg">
<path d="M31.4564 12.3536H37.0904L29.0046 36.334H24.3096L18.5713 19.1532L12.7808 36.334H8.08581L0 12.3536H5.63398L10.4855 29.6381L16.0673 12.3536H21.0231L26.6049 29.6381L31.4564 12.3536Z" fill="#333946"/>
<path d="M41.3322 15.2084C43.8362 12.7861 46.9835 11.575 50.7743 11.575C54.5651 11.575 57.7124 12.7861 60.2164 15.2084C62.7204 17.6306 63.9724 20.6758 63.9724 24.3438C63.9724 28.0118 62.7204 31.0569 60.2164 33.4792C57.7124 35.9014 54.5651 37.1126 50.7743 37.1126C46.9835 37.1126 43.8362 35.9014 41.3322 33.4792C38.8282 31.0569 37.5762 28.0118 37.5762 24.3438C37.5762 20.6758 38.8282 17.6306 41.3322 15.2084ZM56.3561 18.686C54.9302 17.2673 53.0696 16.5579 50.7743 16.5579C48.479 16.5579 46.601 17.2673 45.1403 18.686C43.7144 20.1048 43.0015 21.9907 43.0015 24.3438C43.0015 26.6968 43.7144 28.5827 45.1403 30.0015C46.601 31.4202 48.479 32.1296 50.7743 32.1296C53.0696 32.1296 54.9302 31.4202 56.3561 30.0015C57.8168 28.5827 58.5471 26.6968 58.5471 24.3438C58.5471 21.9907 57.8168 20.1048 56.3561 18.686Z" fill="#333946"/>
<path d="M82.2519 11.6269V17.596H81.4694C78.9306 17.596 77.0179 18.2535 75.7311 19.5684C74.4443 20.8488 73.8009 22.8904 73.8009 25.6933V36.334H68.6886V12.3536H73.8009V17.596H73.9053C74.4965 15.762 75.4703 14.3087 76.8266 13.236C78.2177 12.1632 79.9044 11.6269 81.8867 11.6269H82.2519Z" fill="#333946"/>
<path d="M107.713 36.334H100.984L91.2808 24.5514V36.334H86.1685V0H91.2808V22.579L99.8883 12.3536H106.618L96.4974 23.2537L107.713 36.334Z" fill="#333946"/>
<path d="M118.585 37.1126C114.968 37.1126 111.699 36.2648 108.777 34.5692L111.073 30.0534C113.716 31.576 116.272 32.3372 118.741 32.3372C121.245 32.3372 122.497 31.5933 122.497 30.1053C122.497 29.1364 121.645 28.2367 119.941 27.4062L115.559 25.2781C112.186 23.6863 110.499 21.3851 110.499 18.3746C110.499 16.1946 111.247 14.5163 112.742 13.3398C114.272 12.1632 116.376 11.575 119.054 11.575C121.836 11.575 124.619 12.1978 127.401 13.4436L125.314 17.8556C122.88 16.8174 120.741 16.2984 118.898 16.2984C116.915 16.2984 115.924 16.904 115.924 18.1151C115.924 18.7033 116.115 19.2051 116.498 19.6203C116.915 20.0356 117.646 20.4854 118.689 20.9699L123.175 23.098C126.375 24.586 127.975 26.8352 127.975 29.8458C127.975 32.2334 127.123 34.0501 125.418 35.2959C123.749 36.507 121.471 37.1126 118.585 37.1126Z" fill="#333946"/>
<path d="M142.337 37.1126C139.033 37.1126 136.251 35.9533 133.99 33.6349C131.73 31.3164 130.6 28.2194 130.6 24.3438C130.6 20.4681 131.73 17.3711 133.99 15.0526C136.251 12.7342 139.033 11.575 142.337 11.575C146.093 11.575 148.806 13.011 150.475 15.8831H150.579V12.3536H155.692V36.334H150.579V32.8044H150.475C148.806 35.6765 146.093 37.1126 142.337 37.1126ZM138.059 30.0015C139.416 31.4202 141.207 32.1296 143.433 32.1296C145.658 32.1296 147.449 31.4202 148.806 30.0015C150.162 28.5481 150.84 26.6622 150.84 24.3438C150.84 22.0253 150.162 20.1567 148.806 18.738C147.449 17.2846 145.658 16.5579 143.433 16.5579C141.207 16.5579 139.416 17.2846 138.059 18.738C136.703 20.1567 136.025 22.0253 136.025 24.3438C136.025 26.6622 136.703 28.5481 138.059 30.0015Z" fill="#333946"/>
<path d="M163.14 4.52592C163.14 4.05733 163.254 3.63017 163.483 3.24444C163.712 2.8587 164.019 2.55154 164.405 2.32296C164.79 2.09438 165.217 1.98009 165.686 1.98009C166.092 1.98009 166.466 2.06724 166.809 2.24153C167.155 2.41583 167.44 2.65441 167.666 2.95728C167.892 3.25729 168.032 3.59731 168.086 3.97733H167.049C166.992 3.68303 166.833 3.44302 166.573 3.25729C166.313 3.06871 166.017 2.97442 165.686 2.97442C165.4 2.97442 165.14 3.04443 164.906 3.18443C164.672 3.32444 164.485 3.51159 164.344 3.74588C164.204 3.98018 164.134 4.24019 164.134 4.52592C164.134 4.81165 164.204 5.07166 164.344 5.30596C164.485 5.54025 164.672 5.72741 164.906 5.86741C165.14 6.00742 165.4 6.07742 165.686 6.07742C166.017 6.07742 166.297 5.98456 166.526 5.79884C166.757 5.61026 166.903 5.36882 166.963 5.07452H168C167.946 5.45454 167.813 5.79598 167.602 6.09885C167.39 6.39887 167.119 6.63602 166.787 6.81031C166.459 6.98461 166.092 7.07175 165.686 7.07175C165.217 7.07175 164.79 6.95746 164.405 6.72888C164.019 6.5003 163.712 6.19314 163.483 5.80741C163.254 5.42168 163.14 4.99451 163.14 4.52592ZM165.643 9.05185C165.02 9.05185 164.434 8.9347 163.886 8.7004C163.34 8.4661 162.859 8.1418 162.442 7.7275C162.027 7.31033 161.702 6.82888 161.464 6.28315C161.23 5.73741 161.114 5.15166 161.117 4.52592C161.12 3.90018 161.239 3.31444 161.473 2.7687C161.71 2.22296 162.036 1.74294 162.45 1.32863C162.864 0.91147 163.344 0.585741 163.89 0.351445C164.436 0.117148 165.02 0 165.643 0C166.269 0 166.855 0.117148 167.4 0.351445C167.949 0.585741 168.429 0.91147 168.84 1.32863C169.255 1.74294 169.579 2.22296 169.813 2.7687C170.048 3.31444 170.166 3.90018 170.169 4.52592C170.172 5.15166 170.056 5.73741 169.822 6.28315C169.588 6.82888 169.263 7.31033 168.849 7.7275C168.435 8.1418 167.953 8.4661 167.405 8.7004C166.856 8.9347 166.269 9.05185 165.643 9.05185ZM165.643 8.05751C166.132 8.05751 166.59 7.96608 167.019 7.78322C167.447 7.60035 167.823 7.34748 168.146 7.02461C168.469 6.70174 168.722 6.32743 168.905 5.9017C169.088 5.47311 169.178 5.01594 169.175 4.53021C169.172 4.04161 169.079 3.58302 168.896 3.15443C168.713 2.72584 168.46 2.35011 168.137 2.02723C167.815 1.70436 167.44 1.4515 167.015 1.26863C166.589 1.08577 166.132 0.99433 165.643 0.99433C165.157 0.99433 164.702 1.08577 164.276 1.26863C163.85 1.4515 163.476 1.70579 163.153 2.03152C162.83 2.35439 162.576 2.73013 162.39 3.15872C162.207 3.58445 162.114 4.04161 162.112 4.53021C162.109 5.01309 162.199 5.46882 162.382 5.89741C162.564 6.32315 162.817 6.69745 163.14 7.02032C163.466 7.34319 163.842 7.59749 164.267 7.78322C164.696 7.96608 165.155 8.05751 165.643 8.05751Z" fill="#333946"/>
</svg>
