<svg width="24" height="26" viewBox="0 0 24 26" fill="none" xmlns="http://www.w3.org/2000/svg">
<path fill-rule="evenodd" clip-rule="evenodd" d="M11.5267 0.269265L11.53 0.639907L11.7746 0.639412C11.5469 1.17263 11.7221 1.10871 11.7194 1.61059C11.6984 1.60515 11.6703 1.56849 11.6592 1.58666C11.5238 1.80988 11.693 1.32766 10.9218 1.62258C9.95964 1.99099 10.2042 2.73141 10.5704 3.48685C10.8648 4.09517 10.9087 4.31325 10.3708 4.70201C10.0052 4.96633 9.5854 5.22249 9.09612 5.38519C9.17461 4.82422 9.79494 4.24155 8.97424 3.879C8.65123 3.73627 8.62802 3.72725 8.42234 3.84253C8.48261 3.39005 8.72884 2.74068 8.20432 2.74242C7.66937 2.74378 7.93533 3.47399 8.01667 3.81571C7.68828 3.73881 7.15333 3.89879 7.04644 4.24736C6.9183 4.66628 7.31253 5.07209 7.33972 5.42592C6.54463 5.36126 6.07306 4.92423 6.42073 4.14196C6.914 3.03251 6.8228 3.09668 5.88572 2.56303C5.4679 2.32492 5.25703 2.46678 5.02447 2.77233C4.68755 3.2145 4.85433 3.18 4.26119 3.34734C3.91915 3.44395 3.58583 3.6493 3.62966 4.05005C3.67957 4.50822 4.12698 4.42267 4.06241 4.93122C3.89587 4.93301 3.81074 4.89351 3.69835 4.89846C3.18598 4.92015 3.26359 5.40373 3.55737 5.68684L3.6117 5.39761C4.23539 5.40484 3.98701 5.56822 4.57143 5.26199C4.3808 5.73877 4.02541 6.36532 4.91227 6.44265C4.58717 5.57978 5.21143 5.7005 5.16703 5.02338C5.12978 4.45425 4.60849 4.45561 4.90386 3.61635C5.02858 3.54409 5.65322 3.30147 5.80305 3.25134C5.93594 3.97593 5.3681 4.42761 5.72899 4.94593C6.12094 5.50894 6.83994 5.29957 7.20716 5.61019C6.38468 6.23805 5.59048 5.88125 6.1334 7.37179C6.73052 7.17862 6.73147 6.89606 7.59297 7.19123L6.53338 7.51069C5.97977 7.71357 5.78553 7.67067 5.45551 7.3258C5.43919 7.82842 5.78237 8.15876 6.32637 8.11233C6.77138 8.07401 6.89471 7.66603 7.45629 7.56793C7.06055 7.71851 6.75696 8.08099 7.23872 8.3994C7.41278 8.12698 7.36547 7.82446 7.9149 7.74491C8.45036 7.66714 8.38268 7.91972 9.03236 7.83336C9.2851 8.21736 9.73315 8.65439 9.80557 9.31253C9.89741 10.1467 9.44253 10.5669 8.67255 10.3407C8.72846 10.6908 8.74073 10.7377 8.96905 10.8693C8.6074 11.0981 8.7776 10.7649 8.51955 11.208C8.2744 11.1132 8.37161 11.1123 8.12457 10.9789C7.81212 12.0895 8.3928 11.7775 8.41418 12.3481C8.02982 12.8227 7.16193 12.4726 6.95821 12.1147C6.57341 11.4382 7.54465 11.3157 7.45477 10.587C7.37318 9.9274 6.38829 9.21128 5.93644 8.75057L5.38239 8.17409C5.26785 8.18843 5.30396 8.20512 5.1602 8.33091C4.72815 7.80647 4.61058 7.76598 4.19428 6.9844C3.79253 7.07465 3.83048 6.90255 3.54788 6.51609C2.96139 5.71379 2.53377 4.81878 2.0109 3.96035L1.82843 3.73411C0.566947 4.62492 1.7758 6.20881 2.23366 6.96153C1.75835 6.7406 1.24022 5.87519 0.7818 5.77165C0.24647 6.51096 0.858773 7.65731 1.36735 7.9633C0.936568 7.88881 0.793437 7.76975 0.229772 7.7658C0.205801 8.69908 0.692114 8.72436 1.0642 9.28595C0.696858 9.25751 0.361012 9.14687 0.0301617 9.31439C-0.171726 9.8523 0.689711 10.3421 1.13264 10.5838C1.03289 10.627 0.332423 10.7057 0.0349051 10.8048C0.119594 11.5092 0.635128 11.6119 1.18937 11.9171C0.895077 12.1239 0.491113 12.1991 0.299788 12.5111C0.583897 12.9205 0.906019 13.0261 1.41384 13.0961C1.06553 13.4055 0.768012 13.4457 0.812349 14.0985C0.553286 14.0346 0.578964 13.9906 0.440261 14.0661C0.460754 15.1426 1.61686 14.8251 2.18584 16.2519C2.60562 17.3048 3.12242 18.4066 3.45598 19.4429C3.49861 19.5748 3.58906 19.7009 3.62796 19.8001C3.72789 20.0552 3.6752 20.2339 3.83977 20.5507C3.94774 20.7585 4.14513 20.9091 4.06867 21.205C3.97177 21.5804 3.68115 21.5679 3.9547 22.0639L4.02832 22.2106C4.1784 22.4984 4.17973 22.4031 4.40369 22.5951L4.89171 22.9211C5.28455 23.1907 4.84118 23.074 5.27702 23.5045C6.13112 24.3493 6.03625 23.31 5.80716 22.574C5.98318 22.3412 6.9634 21.7615 7.34814 21.6248C8.12855 21.3469 9.09953 21.6764 9.50957 21.3079C9.45069 20.9673 9.34905 21.0187 9.24241 20.716C9.65845 20.4283 9.78805 20.7509 10.0112 20.1333L9.37352 20.1367C8.7807 19.138 10.0939 18.7191 10.6582 19.4316C11.5341 20.5382 10.1846 20.44 10.0345 21.3266C10.2214 21.2415 10.3133 21.1373 10.5071 21.1224C10.6603 21.1101 10.4671 21.0389 10.7127 21.1577C10.2639 21.4364 9.6582 21.5899 9.22597 21.9115C9.12585 21.9859 8.69443 22.3275 8.55933 22.3772C8.09408 22.5493 8.05284 22.2192 8.16169 21.904C7.44345 21.9657 7.3993 22.5579 7.65192 23.0888C7.14656 23.5073 7.18704 23.8647 7.53396 24.3831C7.7158 24.6547 7.60745 24.6565 7.72092 24.8308L8.05316 24.4534C8.0653 24.4323 8.10382 24.3635 8.11559 24.3441L8.1894 24.2323C8.31893 25.1188 8.99922 25.2336 9.73423 24.8896C10.1366 25.5246 10.4382 25.6292 11.323 25.39C11.8759 25.992 12.1232 26.3963 12.6851 25.3765C13.246 25.4759 13.9177 25.738 14.2749 24.892C15.004 25.1187 15.6717 25.2219 15.8654 24.2327C16.067 24.4559 16.0113 24.6291 16.2732 24.797L16.5269 24.3616C16.8647 23.8187 16.8361 23.4666 16.3722 23.0617C16.7669 22.5663 16.5896 21.948 15.8833 21.8852C16.2285 23.0354 15.002 22.0277 14.8297 21.9018C14.3797 21.5731 13.755 21.4404 13.2987 21.1169C13.6467 21.0544 13.7564 21.2335 14.0001 21.3083C13.8949 20.648 13.5242 20.7687 13.2396 20.4354C12.9382 20.0828 13.2113 19.5593 13.4915 19.3053C14.612 18.2892 15.5567 20.459 14.0441 20.0796C14.0546 20.5597 14.458 20.5819 14.82 20.6663C14.8402 20.6713 14.8679 20.6808 14.8841 20.6851C14.9006 20.6891 14.9283 20.6948 14.9479 20.7054L14.7245 21.3877C15.1561 21.5197 15.7786 21.4901 16.2551 21.606C16.7726 21.732 17.1713 21.7923 17.6877 21.8969C18.3149 22.024 18.9035 22.754 19.5432 22.4593C19.9576 22.2683 19.9324 22.4073 20.2933 22.3008C20.4121 22.2656 20.6119 22.1067 20.8228 22.0052C21.3016 21.7752 20.9872 21.8729 21.2581 21.5472C21.4469 21.3199 21.9065 20.8684 21.9313 20.5338C21.9496 20.2894 21.5551 19.5161 21.4321 19.365C21.1145 18.9754 20.6976 19.027 20.4227 18.6163C20.5298 18.5564 20.3701 18.6393 20.5237 18.607L20.7272 18.5466L20.7224 18.1022L20.4233 18.1602L20.5767 17.8689L19.9354 17.8803C19.8706 18.0569 19.9067 17.916 20.0211 18.1628L19.7279 18.0196L19.7289 18.6983L20.0039 18.6222C19.7347 19.0366 19.1516 19.0598 18.8395 19.6154C18.7896 19.7049 18.5172 20.3692 18.511 20.4168C18.4591 20.8149 18.7435 20.7769 18.7863 21.206C18.3605 21.625 17.8968 21.4909 17.2591 21.2706C16.7201 21.0839 16.202 20.9991 16.139 20.4082L16.9827 20.6623C16.8616 20.3181 16.8521 20.3694 16.8771 19.9711C17.3573 20.2684 17.6653 20.2827 17.951 19.8109C17.7157 19.6855 17.4702 19.8002 17.4532 19.3714C17.43 18.7895 17.6427 18.324 17.0599 17.9111L16.4089 17.4984C16.1154 17.5441 15.9069 17.5673 15.6624 17.426C15.218 17.1693 15.5389 17.212 15.7118 17.083C15.3678 16.7093 15.3479 15.7332 15.7294 15.2982C15.9115 15.3724 16.2226 15.4952 16.4387 15.5919C16.4616 15.9941 16.3973 16.6514 16.6656 16.8935C17.0269 17.219 17.3849 17.0566 17.6388 16.7138C17.7388 16.354 17.5558 15.9087 17.5537 15.5291C18.009 16.8873 17.747 17.0097 18.7341 17.2941C19.0099 17.059 19.2792 16.885 19.0565 16.3799C18.8863 15.9932 18.6975 15.7091 18.5806 15.2995C18.7565 15.5599 18.9579 15.932 19.1535 16.2789C19.4415 16.789 19.4608 16.8901 20.1585 16.8652C20.8275 16.1067 19.8887 15.4407 19.4932 14.7693C19.8696 15.1265 20.7926 16.6967 21.4839 16.0924C21.7366 15.8719 21.5526 15.4253 21.4505 15.188C21.945 15.2827 22.1388 15.2871 22.5314 15.0619C22.4932 14.3818 22.2412 14.3482 21.8552 14.0288C22.6452 14.0862 22.5982 14.1289 23.2224 13.8233C23.149 13.4594 22.8319 13.3018 22.5968 13.0494C23.1666 12.9927 23.5102 12.787 23.7218 12.4582C23.3017 12.0109 23.2349 12.1659 22.7728 11.8769C23.299 11.605 23.8875 11.4762 23.952 10.7738C23.5232 10.5851 23.306 10.6033 22.81 10.573C23.283 10.3899 24.021 9.86077 23.9995 9.25418C23.597 9.14545 23.3776 9.18587 22.9754 9.24225L23.2441 8.9362C23.586 8.58571 23.7622 8.28789 23.7571 7.73434C23.2174 7.703 23.082 7.81562 22.6325 7.92664C23.3159 7.2005 23.5416 6.75309 23.2349 5.70372C22.8049 5.86159 22.0614 6.7555 21.6472 7.04034C22.5558 6.02973 23.2296 3.92487 22.0834 3.72045C21.4298 4.75418 20.9488 5.95271 20.1641 6.87876C19.9598 7.12058 20.0514 7.0459 19.7918 6.94304C19.2644 7.95841 19.1797 7.77779 18.8419 8.30723C18.6607 8.19189 18.7355 8.17835 18.6238 8.13527C18.5271 8.21111 18.5851 8.15894 18.4984 8.25809L18.089 8.74655C17.6625 9.18593 16.6126 9.91819 16.5405 10.5639C16.4551 11.3315 17.4269 11.3882 17.0419 12.0745C16.8238 12.4634 15.8001 12.8588 15.5735 12.2605C15.5556 11.9842 16.2388 11.9211 15.8679 10.9885C15.6717 11.043 15.6884 11.1008 15.4963 11.2055C15.1698 10.7672 15.4052 11.1068 15.0443 10.8496C15.2334 10.6805 15.2721 10.6943 15.3148 10.3487C14.9882 10.3821 14.7762 10.501 14.474 10.2321C14.2607 10.0423 14.1617 9.74091 14.1806 9.37354C14.2022 8.94325 14.8981 7.64137 15.0013 7.86884L15.4245 7.82774C16.0652 7.66646 16.417 7.66473 16.7258 8.30575L16.7794 8.41288C17.1149 7.98054 17.0349 7.73557 16.5542 7.55575C17.0822 7.63729 17.1726 8.05794 17.6751 8.09187C18.2041 8.12729 18.5461 7.77316 18.5334 7.30689C17.963 7.80734 17.6761 7.49727 16.9729 7.31239C16.7805 7.26176 16.5443 7.24074 16.3906 7.17052C17.2949 6.92771 17.2138 7.10061 17.7916 7.3436C18.2699 6.71167 18.0014 6.1146 17.2818 5.89188C17.0363 5.8156 16.9396 5.71831 16.7747 5.59245C17.144 5.29203 17.874 5.43439 18.222 4.96268C18.6456 4.38768 17.9361 3.82418 18.1705 3.30357C18.2514 3.22123 19.0016 3.54063 19.0908 3.56777C19.2768 4.65342 18.8503 4.35671 18.8111 4.99909C18.7689 5.69018 19.3877 5.62138 19.0478 6.43233C19.95 6.26697 19.6227 5.79477 19.4024 5.23405C19.787 5.42536 19.7083 5.47389 20.286 5.35273L20.3957 5.68641C20.6498 5.46592 20.718 5.28974 20.5843 4.92083C20.2046 4.80413 20.1622 4.97399 19.8946 4.84573C19.9142 4.34966 20.5249 4.30052 20.3009 3.72811C20.1228 3.27272 19.5127 3.40186 19.23 3.14415C18.9934 2.92823 18.8631 2.36287 18.3526 2.42932C18.1372 2.45732 17.4413 2.85578 17.3345 3.0615C17.1031 3.60201 17.6507 4.07273 17.693 4.57529C17.7356 5.08656 17.1316 5.38444 16.651 5.41115C16.6557 5.02895 17.0684 4.68513 16.9039 4.20353C16.8313 3.99095 16.1482 3.55831 15.9756 3.84161C15.966 3.62847 16.0392 3.38943 16.0631 3.19879C16.1004 2.89868 16.109 2.73321 15.7767 2.72251C15.1821 2.70323 15.5118 3.44605 15.5527 3.82461C15.2341 3.66803 14.707 3.92036 14.6103 4.21948C14.4705 4.65293 14.8164 5.02944 14.8804 5.37443C14.406 5.21421 13.9727 4.96664 13.6123 4.70504C13.0084 4.26683 13.0905 4.08194 13.4127 3.41138C13.7861 2.63387 13.9683 1.94939 12.9954 1.61108C12.9807 1.6057 12.6059 1.50055 12.5999 1.50018C12.3362 1.48794 12.5436 1.47738 12.3463 1.5683L12.2363 1.62857C12.2572 1.25459 12.4767 1.03163 12.1686 0.740541C12.18 0.731021 12.2017 0.704441 12.2069 0.717175L12.4204 0.638237L12.4225 0.193788C12.233 0.141369 12.3867 0.177841 12.158 0.237554C12.158 0.237554 12.2967 0.322797 12.1738 0L11.7713 0.10187C11.7164 0.233597 11.795 0.130923 11.7269 0.195767C11.7233 0.199476 11.7078 0.209676 11.703 0.212581C11.6975 0.216166 11.6769 0.223151 11.6703 0.226427L11.5804 0.254615C11.5709 0.257891 11.5432 0.260858 11.5267 0.269265ZM11.9882 20.277C12.8591 19.9069 14.1647 17.8398 14.593 16.6853C14.843 16.012 16.0406 11.6999 15.0215 11.4192L14.2945 11.3075C12.8801 11.0421 12.9547 10.7626 12.0434 10.2417C11.7191 10.3387 11.1811 10.8088 10.7077 11.0268C9.14058 11.7491 8.49362 10.5665 8.62043 13.0834C8.69323 14.5272 9.34506 16.87 10.0184 17.9882C10.4892 18.77 11.4036 19.8915 11.9882 20.277ZM2.55926 16.1844C2.65716 16.525 3.70834 18.6874 3.93136 18.9728C4.23235 19.3585 4.0569 19.1301 4.20174 19.5324C4.37099 20.0038 4.27985 19.35 4.7193 20.6531C5.2218 20.6736 5.33888 20.4432 5.58972 20.8199C6.03865 21.4941 6.26103 21.4598 7.29874 21.0502C7.6941 20.8942 7.91098 20.8818 7.90314 20.4432L7.06029 20.64L7.20134 20.0302C6.64248 20.2073 6.35287 20.3653 6.08324 19.833L6.53692 19.7292C6.63799 19.2307 6.22213 18.3008 7.06523 17.8632C7.52042 17.6266 7.29033 17.8882 7.63149 17.5166C8.14778 17.5982 8.56104 17.3851 8.53384 17.2356C8.49735 17.0378 8.51474 17.2494 8.304 17.0789C8.78089 16.607 8.52113 15.8201 8.33411 15.288C8.07568 15.4077 7.91503 15.5576 7.56881 15.5921C7.564 15.9485 7.61397 16.6648 7.36837 16.9039C6.97529 17.2861 6.63078 17.0354 6.36495 16.7217L6.23472 16.2324C5.99273 17.0551 6.05933 17.1809 5.20865 17.3218C5.00417 16.9116 4.6878 16.9878 4.98311 16.3362C5.14527 15.9777 5.3285 15.6831 5.4438 15.3079C4.46656 16.6929 4.99411 16.8828 3.87943 16.9071L3.59222 16.405C3.55415 16.1596 3.65155 16.0263 3.75622 15.8701C3.98834 15.5241 4.19681 15.2968 4.40502 14.9469C4.18947 15.116 3.91422 15.477 3.70107 15.7382C3.32917 16.1942 3.36845 16.2941 2.55926 16.1844ZM10.6268 12.8091C10.6463 12.8036 10.6728 12.7654 10.681 12.7821C10.6887 12.7977 10.7225 12.7609 10.7328 12.7573C10.954 12.6714 10.8796 12.6704 11.109 12.8181C11.5226 13.0842 11.4833 12.9923 11.616 13.2335C11.1025 13.4091 11.472 13.0549 10.9571 13.1162C10.8845 13.4731 10.8935 13.1559 11.0136 13.3587L11.1657 13.5479C11.0498 13.6124 10.6792 13.7528 10.6937 13.8677L10.7757 14.1578C9.8384 14.0846 10.1572 13.3879 10.1204 12.6159C9.74656 12.5212 9.61652 12.5044 9.28308 12.6581C9.12945 13.5942 9.44189 14.7888 10.8117 14.4363C11.1448 14.3509 11.3506 14.2418 11.603 14.6585C11.2643 14.7959 11.0688 15.048 10.6842 15.205C10.8093 15.5027 11.3168 15.8106 11.6202 15.9424L11.1506 16.3466C10.7573 16.6055 10.9784 16.4644 10.6633 16.3791L10.2493 17.1455L11.1704 17.0768C11.1178 16.7245 11.0509 16.8185 11.4045 16.5935C11.6065 16.465 11.7761 16.321 11.9803 16.2355C13.0356 16.9581 12.825 16.6242 12.7625 17.0492L13.6565 17.1897C13.5493 16.7982 13.4356 16.7344 13.3065 16.4197C12.9027 16.4113 13.3132 16.6746 12.791 16.3617C12.6815 16.2961 12.6516 16.2791 12.5653 16.2101L12.3205 15.9221C12.5487 15.8406 13.105 15.4555 13.2343 15.3015C13.0204 14.9937 12.5163 14.9172 12.3237 14.5233C12.8301 14.3289 12.4772 14.2827 13.1413 14.44C14.9498 14.868 14.6401 12.6842 14.632 12.6707C14.321 12.4338 14.1011 12.4862 13.7998 12.6497C13.7518 13.3612 14.0838 14.0043 13.1765 14.1621C13.0981 13.9953 13.1418 14.1304 13.2495 13.8182C13.0725 13.728 12.9157 13.6064 12.7489 13.498C12.8585 13.4065 13.2194 13.1488 12.8819 13.1188C12.5971 13.0935 12.6465 13.4473 12.3082 13.1956C13.0079 12.5493 13.0286 12.7668 13.2916 12.7703C13.4296 12.4609 13.573 12.3592 13.6409 12.0103L12.7949 12.1108C12.6706 12.4093 13.1093 12.2066 12.5236 12.5856C12.3297 12.7111 12.1741 12.8372 11.9739 12.9477C11.1033 12.5173 11.1183 12.4227 11.1674 12.1207L10.2875 11.9991C10.3069 12.3078 10.5243 12.5107 10.6268 12.8091ZM9.74504 5.49602L10.881 5.43173C10.8266 5.67769 10.462 5.88094 10.1166 5.95617C10.2752 6.06496 10.5547 6.06224 10.7222 5.94739C10.6673 6.15188 10.6929 6.06892 10.459 6.27013L10.2935 6.41916C10.8364 6.92592 11.2453 6.72657 11.561 6.93507L11.0696 7.1466C11.4507 7.95223 11.8191 8.3952 11.9694 9.49037C12.2724 8.8559 12.0971 8.47655 12.9086 7.15482L12.4165 6.96697C12.802 6.7058 13.1123 6.92784 13.6823 6.41286C13.5079 6.17166 13.4065 6.27847 13.2523 5.97613L13.9185 6.06948C13.5436 5.77301 13.2697 5.8143 13.0865 5.41924C13.3923 5.44922 13.9484 5.57842 14.1663 5.44929C12.4472 4.95162 12.9968 4.5636 11.9557 4.56589C11.5649 4.56663 11.6237 4.50729 11.3474 4.7038C10.9237 5.00577 10.2525 5.41102 9.74504 5.49602ZM11.297 15.305L11.9702 15.7777L12.6412 15.3182C12.4935 15.1158 12.2125 14.984 11.9776 14.8367C11.8031 14.9128 11.7755 14.9292 11.6217 15.0273L11.297 15.305Z" fill="#333946"/>
</svg>
