<svg  class="main-svg-sprite main-svg-sprite--icons" xmlns="http://www.w3.org/2000/svg" xmlns:xlink="http://www.w3.org/1999/xlink"><symbol viewBox="0 0 15.24 16.34" id="arrow-d" xmlns="http://www.w3.org/2000/svg"><g><path d="M7.81.57a.28.28 0 01.07.19V15l6.41-6.41a.26.26 0 01.37.37l-6.85 6.8a.25.25 0 01-.37 0L.58 8.91a.25.25 0 010-.37.25.25 0 01.37 0L7.36 15V.76A.25.25 0 017.62.5a.28.28 0 01.19.07z"/><path d="M7.62 16.34a.78.78 0 01-.54-.22L.23 9.26a.75.75 0 010-1.08.78.78 0 011.08 0l5.55 5.56V.76A.75.75 0 017.62 0a.73.73 0 01.54.22.73.73 0 01.22.54v13l5.55-5.56a.78.78 0 011.08 0 .75.75 0 010 1.08l-6.85 6.83a.75.75 0 01-.54.23zm6.68-7.79z"/></g></symbol><symbol viewBox="0 0 13 15" id="arrow-d-longer" xmlns="http://www.w3.org/2000/svg"><path d="M5.657 0v11.882L1.193 7.57 0 8.722 6.5 15 13 8.722 11.807 7.57l-4.464 4.312V0H5.657z"/></symbol><symbol viewBox="0 0 43 43" id="arrow-down-45" xmlns="http://www.w3.org/2000/svg"><path d="M4.317 42H42V4.33M1 1l40.993 40.98" stroke="#E0FB52" stroke-width="1.882"/></symbol><symbol viewBox="0 0 16.61 16.61" id="arrow-down2-45" xmlns="http://www.w3.org/2000/svg"><path d="M16.61 16.61H1.88v-1.89H13.4L0 1.33 1.33 0l13.39 13.39V1.88h1.89v14.73z"/></symbol><symbol viewBox="0 0 15 15" id="arrow-forward" xmlns="http://www.w3.org/2000/svg"><path d="M6.283.018a8.06 8.06 0 00-2.605.733A7.865 7.865 0 00.12 4.123c-.108.197-.117.243-.117.44-.003.25.058.39.233.545.165.153.291.2.53.2a.674.674 0 00.377-.083c.19-.1.26-.187.43-.504.321-.616.922-1.334 1.492-1.794A6.356 6.356 0 017.156 1.48a6.14 6.14 0 012.743.604 6.084 6.084 0 012.912 2.786c.441.868.628 1.65.628 2.624 0 .973-.187 1.756-.628 2.624-.815 1.61-2.345 2.794-4.153 3.222-.73.17-1.63.217-2.357.12-2.02-.27-3.739-1.425-4.71-3.16a2.315 2.315 0 00-.28-.408.805.805 0 00-1.057-.03c-.19.165-.25.306-.254.564 0 .214.006.229.19.566a7.493 7.493 0 001.701 2.09 7.974 7.974 0 003.917 1.82c.604.104 1.68.127 2.298.057a8.11 8.11 0 002.556-.733 7.554 7.554 0 002.133-1.502c1.214-1.193 1.953-2.67 2.164-4.321.07-.554.046-1.657-.046-2.15-.306-1.641-1.054-3.005-2.274-4.142a7.3 7.3 0 00-2.004-1.36A7.972 7.972 0 008.453.073C8.158.021 7.94.01 7.294.001c-.438-.003-.892.003-1.011.017z"/><path d="M7.849 4.46a.728.728 0 00-.503.645c-.027.332.012.387.708 1.062l.616.595H6.433c-1.38 0-2.277.012-2.345.03-.156.04-.361.222-.444.392a.732.732 0 00.175.86c.214.193.1.184 2.592.184h2.26l-.601.578c-.328.32-.626.627-.653.683a.99.99 0 00-.07.308c-.01.181-.004.222.076.366a.81.81 0 00.478.384.948.948 0 00.613-.07c.07-.041.613-.54 1.204-1.111 1-.965 1.08-1.05 1.171-1.24.2-.426.196-.857-.015-1.276-.101-.208-.175-.282-1.202-1.264-.723-.692-1.13-1.061-1.21-1.096-.163-.07-.463-.085-.613-.03z"/></symbol><symbol viewBox="0 0 20 21" id="arrow-left" xmlns="http://www.w3.org/2000/svg"><path d="M2 10.75l8-8m-8 8l8 8m-8-8h16.5"/><defs><clipPath id="fclip0_408_6348"><path transform="translate(0 .5)" d="M0 0h20v20H0z"/></clipPath></defs></symbol><symbol id="arrow-r" viewBox="0 0 11 9" xml:space="preserve" xmlns="http://www.w3.org/2000/svg"><path d="M8.7 3.5L6 .8l.1-.1 3.7 3.7-3.7 3.7L6 8l2.7-2.7.9-.9H.5v-.1h9.1l-.9-.8z"/><path class="gst0" d="M6.1 8.8L5.3 8l3.1-3H0V3.8h8.4L5.3.8l.8-.8 4 4h.7l-.3.3.1.1-.1.1.3.3h-.7z"/></symbol><symbol viewBox="0 0 8 14" id="arrow-r2" xmlns="http://www.w3.org/2000/svg"><path d="M1 14a1 1 0 01-.71-.29 1 1 0 010-1.42L5.59 7 .29 1.71A1 1 0 011.71.29l6 6a1 1 0 010 1.42l-6 6A1 1 0 011 14z"/></symbol><symbol viewBox="0 0 20 21" id="arrow-right" xmlns="http://www.w3.org/2000/svg"><g clip-path="url(#iclip0_408_6353)"><path d="M18.5 10.75l-8 8m8-8l-8-8m8 8H2"/></g><defs><clipPath id="iclip0_408_6353"><path transform="translate(0 .5)" d="M0 0h20v20H0z"/></clipPath></defs></symbol><symbol viewBox="0 0 21 10" id="burger" xmlns="http://www.w3.org/2000/svg"><path d="M1 1h19M1 9h19" stroke="#333946" stroke-width="2" stroke-linecap="round"/></symbol><symbol viewBox="0 0 24 17" id="button-play" xmlns="http://www.w3.org/2000/svg"><g clip-path="url(#kclip0_423_71320)"><path d="M1.167.405a1.516 1.516 0 00-.877.69l-.157.278V15.77l.112.208c.182.34.355.512.684.674l.31.157h21.603l.253-.122c.31-.146.593-.425.745-.735l.117-.233V1.475l-.107-.233a1.79 1.79 0 00-.775-.776L22.842.36 12.122.35C3.675.345 1.35.355 1.166.405zm12.338 2.378c1.875.496 3.421 1.91 4.12 3.77.34.893.427 2.16.224 3.159-.243 1.211-.811 2.23-1.718 3.107-.893.862-1.891 1.368-3.153 1.612-.472.091-1.562.076-2.048-.03-1.212-.254-2.16-.75-3.021-1.582-.907-.877-1.475-1.896-1.718-3.107-.65-3.173 1.424-6.3 4.638-6.995.684-.147 1.981-.117 2.676.066z"/><path d="M10.367 5.778c-.294.091-.512.269-.629.512-.096.198-.101.314-.101 2.291 0 2.074 0 2.079.116 2.302.071.136.213.289.37.39.234.162.269.172.609.152l.365-.015 1.632-.989c1.029-.623 1.683-1.049 1.774-1.155.304-.365.32-.979.035-1.349-.147-.187-3.254-2.068-3.558-2.154-.254-.07-.35-.066-.613.015z"/></g><defs><clipPath id="kclip0_423_71320"><path d="M0 0h24v17H0z"/></clipPath></defs></symbol><symbol viewBox="0 0 23 23" id="cart" xmlns="http://www.w3.org/2000/svg"><path d="M.369.103C.123.257 0 .488 0 .82c0 .334.123.565.369.719.153.092.261.103 1.127.103.527 0 1.075.025 1.224.056.328.072.625.323.733.626.04.118.21 1.022.368 2.013.16.985.65 4.004 1.102 6.694.865 5.246.82 5.04 1.173 5.282l.169.113 6.895-.01c6.802-.016 6.895-.016 7.033-.119.072-.056.169-.164.215-.236C20.495 15.913 23 5.924 23 5.713c0-.195-.18-.534-.348-.657-.139-.102-.23-.102-8.575-.118-4.646-.005-8.442-.025-8.442-.046 0-.21-.492-2.89-.574-3.121A2.694 2.694 0 003.284.082C3.058.015 2.756 0 1.772 0 .63 0 .528.01.37.103zm20.664 6.555c-.015.051-.456 1.812-.978 3.917a568 568 0 01-1.004 4.014l-.052.195h-5.86c-3.227 0-5.865-.01-5.865-.026 0-.015-.297-1.827-.666-4.03a409.4 409.4 0 01-.666-4.08c0-.067.82-.077 7.56-.077 7.172 0 7.557.005 7.531.087zM7.417 18.167A2.539 2.539 0 005.82 19.81c-.107.364-.107 1.083 0 1.447.22.76.86 1.407 1.614 1.643.42.133 1.106.133 1.526 0a2.506 2.506 0 001.614-1.643c.107-.364.107-1.083 0-1.447a2.506 2.506 0 00-1.614-1.643c-.415-.128-1.137-.128-1.542 0zm1.179 1.7c.666.405.379 1.436-.4 1.436a.755.755 0 01-.768-.77c0-.436.333-.77.768-.77.138 0 .297.041.4.103zM17.253 18.167a2.54 2.54 0 00-1.599 1.642c-.107.365-.107 1.083 0 1.448.22.76.861 1.406 1.614 1.643.39.123 1.096.128 1.485.015a2.482 2.482 0 001.63-1.596c.133-.396.143-1.099.025-1.51a2.506 2.506 0 00-1.614-1.642c-.414-.129-1.137-.129-1.541 0zm1.178 1.699c.666.405.379 1.437-.4 1.437a.755.755 0 01-.768-.77c0-.436.333-.77.768-.77.139 0 .297.041.4.103z"/></symbol><symbol viewBox="0 0 10 10" id="chevron-down" xmlns="http://www.w3.org/2000/svg"><path d="M1.667 3.75L5 7.083 8.333 3.75"/></symbol><symbol viewBox="0 0 24 24" id="chevron-right" xmlns="http://www.w3.org/2000/svg"><path d="M8 4l8 8-8 8"/></symbol><symbol viewBox="0 0 34 30" id="clip" xmlns="http://www.w3.org/2000/svg"><path d="M24.655.056c-.945.14-2.331.644-3.155 1.14-.693.42-1.555 1.242-7.772 7.444l-6.985 6.968-.374.794c-1.405 2.924-.122 6.24 2.874 7.454 1.536.626 3.455.449 4.906-.457.553-.346 9.083-8.753 9.308-9.183.075-.14.14-.448.14-.672 0-.972-.936-1.588-1.863-1.252-.14.056-2.22 2.055-4.616 4.437-4.822 4.801-4.747 4.745-5.9 4.745-1.067 0-1.928-.541-2.406-1.504-.337-.681-.355-1.615-.046-2.26.15-.318 1.994-2.205 7.069-7.249 6.264-6.24 6.91-6.856 7.463-7.127.852-.401 1.591-.57 2.528-.57.973 0 1.694.178 2.556.626 1.264.664 2.135 1.691 2.622 3.092.224.654.262.925.262 1.682 0 1.064-.16 1.756-.637 2.671-.309.607-.908 1.224-7.369 7.678-7.594 7.576-7.556 7.548-9.185 8.174-2.154.84-4.673.728-6.705-.28-.945-.477-1.357-.776-2.172-1.58-1.61-1.569-2.425-3.558-2.425-5.856 0-1.719.478-3.27 1.451-4.717.15-.234 2.36-2.504 4.897-5.044 3.961-3.98 4.626-4.68 4.71-4.998.272-1.027-.571-1.877-1.657-1.681-.31.047-.899.616-4.99 4.698-3.11 3.111-4.814 4.876-5.141 5.343C.01 15.487-.532 19.055.535 22.39c2.191 6.8 10.225 9.714 16.386 5.95.721-.44 1.573-1.261 7.997-7.641 3.96-3.933 7.378-7.398 7.612-7.716.534-.738 1.011-1.765 1.264-2.7.169-.606.206-.999.206-2.1 0-1.196-.028-1.449-.253-2.177-.711-2.354-2.181-4.12-4.298-5.156a9.631 9.631 0 00-1.61-.608c-.87-.224-2.378-.308-3.184-.186z"/></symbol><symbol viewBox="0 0 19 19" id="close" xmlns="http://www.w3.org/2000/svg"><path d="M8.543.016C6.05.283 3.79 1.476 2.2 3.37 1.08 4.701.386 6.211.078 7.98.008 8.384 0 8.581 0 9.503c0 .921.007 1.118.078 1.524.35 2.006 1.19 3.667 2.575 5.105 1.423 1.48 3.218 2.416 5.314 2.784.405.07.602.078 1.524.078 1.163 0 1.512-.038 2.426-.272 3.988-1.029 6.934-4.667 7.076-8.743.026-.729-.008-.874-.257-1.086a.823.823 0 00-1.207.168c-.086.13-.1.197-.127.654a9.338 9.338 0 01-.256 1.742 7.974 7.974 0 01-5.7 5.7c-.677.18-1.19.239-1.955.239-.766 0-1.279-.06-1.955-.238a7.974 7.974 0 01-5.7-5.7c-.179-.677-.238-1.19-.238-1.955 0-.766.06-1.278.238-1.955a7.974 7.974 0 015.7-5.7 7.985 7.985 0 013.85-.019c1.334.335 2.464.952 3.526 1.925.19.179.405.338.476.364.208.067.572.026.732-.078a.843.843 0 00.305-.984c-.123-.32-1.163-1.208-2.01-1.717-1.082-.65-2.126-1.03-3.475-1.26-.342-.06-2.029-.104-2.397-.063z"/><path d="M6.86 6.355a.834.834 0 00-.483 1.163c.033.063.48.543.992 1.055l.933.94-.933.937c-.513.517-.963 1-1 1.07-.089.168-.093.569-.007.725.078.145.238.305.383.383.156.085.557.081.724-.008.07-.037.554-.487 1.07-1l.937-.932.94.933c.513.512.996.962 1.066 1 .168.088.57.092.725.007a1.05 1.05 0 00.383-.383c.085-.156.082-.557-.008-.725-.037-.07-.486-.553-1-1.07l-.932-.936.933-.94c.513-.513.962-.996 1-1.067.089-.167.092-.569.007-.725a1.05 1.05 0 00-.383-.382c-.156-.086-.557-.082-.725.007-.07.037-.553.487-1.066 1l-.94.932-.937-.932c-.516-.513-.995-.96-1.066-.996-.149-.075-.465-.104-.613-.056z"/></symbol><symbol viewBox="0 0 11 7" id="eye" xmlns="http://www.w3.org/2000/svg"><path d="M5.143.01C3.553.132 1.829 1.173.369 2.896.043 3.282 0 3.351 0 3.503c0 .152.043.22.37.606C1.572 5.53 3.014 6.53 4.346 6.865c.384.096.71.135 1.116.135.414 0 .742-.04 1.141-.144 1.325-.34 2.755-1.335 3.952-2.747.327-.385.37-.454.37-.606 0-.152-.043-.22-.37-.607C9.353 1.476 7.91.477 6.579.141A4.79 4.79 0 005.143.01zm.906.782c1.116.2 2.256.87 3.363 1.98.363.367.66.694.66.73 0 .067-.871.967-1.227 1.267-.948.8-1.874 1.277-2.806 1.449-.25.045-.852.05-1.1.008-1.03-.169-2.09-.747-3.13-1.703-.369-.339-.955-.967-.955-1.02 0-.067.87-.967 1.226-1.267C3.12 1.36 4.148.863 5.153.751a5.35 5.35 0 01.896.041z"/><path d="M5.19 1.34c-.6.071-1.19.436-1.533.954a2.185 2.185 0 00.273 2.747c.845.851 2.22.851 3.065 0A2.18 2.18 0 005.708 1.34a1.829 1.829 0 00-.519.002zm.56.76c.084.016.242.076.353.13.471.236.79.746.79 1.273 0 .527-.319 1.037-.79 1.273-.44.216-.841.216-1.28 0a1.453 1.453 0 01-.79-1.273c0-.212.053-.418.162-.643.284-.574.93-.891 1.556-.76z"/></symbol><symbol viewBox="0 0 24 24" id="menu" xmlns="http://www.w3.org/2000/svg"><path d="M3 18h18v-2H3v2zm0-5h18v-2H3v2zm0-7v2h18V6H3z"/></symbol><symbol viewBox="0 0 21 20" id="note-icon" xmlns="http://www.w3.org/2000/svg"><path d="M9.413.023a10.106 10.106 0 00-6.58 3.04C-.921 6.937-.95 13.168 2.778 17.012c1.496 1.543 3.325 2.493 5.575 2.898.432.078.624.09 1.59.09 1.206 0 1.512-.031 2.454-.263.55-.134.668-.18.856-.361a.982.982 0 00.271-1.01.954.954 0 00-.506-.6c-.267-.134-.483-.13-1.057.012a7.575 7.575 0 01-1.998.243c-1.296 0-2.348-.243-3.514-.809-2.478-1.201-4.13-3.522-4.5-6.318-.067-.53-.027-1.821.079-2.367.51-2.698 2.285-4.9 4.813-5.988 1.108-.475 2.317-.683 3.605-.616 3.66.196 6.757 2.937 7.452 6.604.118.62.146 1.869.06 2.513a8.322 8.322 0 01-1.155 3.2c-.216.353-.271.561-.228.86.106.785 1.123 1.111 1.689.542.282-.287.914-1.508 1.201-2.317a11.64 11.64 0 00.436-1.724c.106-.604.145-2.014.078-2.662-.35-3.369-2.348-6.321-5.3-7.821C13.04.286 11.18-.102 9.413.023z"/><path d="M9.502 4.3a.957.957 0 00-.483.56c-.028.095-.036 1.265-.028 3.523l.012 3.38.118.193c.074.118.192.235.31.31.177.106.224.118.534.118.31 0 .357-.012.534-.118.118-.075.236-.192.31-.31l.118-.193V4.837l-.118-.192c-.18-.29-.428-.424-.8-.44-.26-.012-.327 0-.507.094zM9.502 13.88c-.366.184-.538.502-.51.958.019.341.164.593.439.765.177.106.224.118.534.118.31 0 .357-.012.534-.118.118-.074.236-.192.31-.31.106-.176.118-.224.118-.534 0-.31-.012-.357-.118-.534-.18-.29-.428-.424-.8-.44-.26-.011-.327 0-.507.095z"/></symbol><symbol viewBox="0 0 9 9" id="phone" xmlns="http://www.w3.org/2000/svg"><path d="M2.25 0H.5C.225 0 0 .225 0 .5A8.5 8.5 0 008.5 9c.275 0 .5-.225.5-.5V6.755c0-.275-.225-.5-.5-.5-.62 0-1.225-.1-1.785-.285a.512.512 0 00-.51.12l-1.1 1.1A7.574 7.574 0 011.81 3.895l1.1-1.1c.14-.14.18-.335.125-.51A5.68 5.68 0 012.75.5c0-.275-.225-.5-.5-.5z"/></symbol><symbol viewBox="0 0 18 17" id="remove" xmlns="http://www.w3.org/2000/svg"><path d="M15.694.013c.77.09 1.363.721 1.417 1.507a1.57 1.57 0 01-.175.866c-.104.205-.372.483-3.054 3.162l-2.938 2.938 2.968 2.97c3.108 3.116 3.102 3.109 3.222 3.522.074.255.071.715-.01.973a1.432 1.432 0 01-1.034.994c-.241.064-.809.064-1.037.003-.43-.114-.386-.073-3.504-3.192L8.61 10.819l-2.954 2.95c-3.119 3.116-3.045 3.048-3.478 3.173-.258.077-.805.077-1.06.003C.437 16.75 0 16.156 0 15.421c0-.363.084-.658.255-.916.067-.098 1.443-1.494 3.061-3.106l2.944-2.924-2.94-2.95C.538 2.735.377 2.567.286 2.359.007 1.721.142.98.618.513.988.15 1.317.026 1.857.049c.41.02.634.098.92.313.107.08 1.463 1.416 3.011 2.967l2.82 2.82 2.93-2.917C13.62 1.16 14.52.288 14.648.217a1.696 1.696 0 011.047-.204z"/></symbol><symbol viewBox="0 0 23 23" id="search" xmlns="http://www.w3.org/2000/svg"><path d="M10.542 18.208a7.667 7.667 0 100-15.333 7.667 7.667 0 000 15.333zM20.125 20.125l-4.169-4.169"/></symbol><symbol viewBox="0 0 20 23" id="signin" xmlns="http://www.w3.org/2000/svg"><g clip-path="url(#wclip0_710_2344)"><path d="M18.142 23H8.03c-.447 0-.876-.173-1.192-.481a1.622 1.622 0 01-.493-1.162v-2.464H8.03v2.464h10.112V1.643H8.03v2.464H6.345V1.643c0-.436.177-.854.493-1.162A1.708 1.708 0 018.03 0h10.112c.447 0 .876.173 1.192.481.316.308.494.726.494 1.162v19.714c0 .436-.178.854-.494 1.162a1.708 1.708 0 01-1.192.481z"/><path d="M8.866 15.444l2.997-3.085H0v-1.718h11.863L8.866 7.556l1.18-1.211 5.023 5.155-5.023 5.155-1.18-1.211z"/></g><defs><clipPath id="wclip0_710_2344"><path d="M0 0h20v23H0z"/></clipPath></defs></symbol><symbol viewBox="0 0 54 42" id="y-play" xmlns="http://www.w3.org/2000/svg"><path d="M51.895 3.605C49.946 1.045 46.347 0 39.475 0h-24.95C7.495 0 3.835 1.112 1.893 3.838 0 6.497 0 10.413 0 15.834v10.332C0 36.668 2.246 42 14.525 42h24.95c5.96 0 9.262-.922 11.399-3.182C53.065 36.501 54 32.717 54 26.166V15.834c0-5.717-.147-9.656-2.105-12.229zM34.668 22.427L23.34 28.97a1.61 1.61 0 01-.807.22c-.313 0-.626-.094-.902-.28-.522-.348-.84-.973-.84-1.646V14.219c0-.673.318-1.296.838-1.646a1.6 1.6 0 011.707-.063l11.33 6.502c.576.33.938.988.938 1.706.001.718-.36 1.376-.935 1.709z"/></symbol></svg>