<svg width="161" height="104" viewBox="0 0 161 104" fill="none" xmlns="http://www.w3.org/2000/svg">
<path d="M33.4707 51.9997V104H37.6248H41.7788V51.9997V-0.000198364H37.6248H33.4707V51.9997Z" fill="#E0FB52"/>
<path d="M58.2559 51.9997V104H66.2178H74.1798V51.9997V-0.000198364H66.2178H58.2559V51.9997Z" fill="#333946"/>
<path d="M55.625 51.9997V104H58.1867H60.7483V51.9997V-0.000198364H58.1867H55.625V51.9997Z" fill="#E0FB52"/>
<path d="M63.5137 51.9997V104H66.1446H68.7755V51.9997V-0.000198364H66.1446H63.5137V51.9997Z" fill="#E0FB52"/>
<path d="M131.367 51.9997V104H135.521H139.675V51.9997V-0.000198364H135.521H131.367V51.9997Z" fill="#E0FB52"/>
<path d="M145.076 51.9997V104H153.038H161V51.9997V-0.000198364H153.038H145.076V51.9997Z" fill="#333946"/>
<path d="M142.443 51.9997V104H145.005H147.567V51.9997V-0.000198364H145.005H142.443V51.9997Z" fill="#E0FB52"/>
<path d="M0 52.0001V104H4.15406H8.30812V52.0001V0.000289917H4.15406H0V52.0001Z" fill="#E0FB52"/>
<path d="M13.707 52.0001V104H21.669H29.6309V52.0001V0.000289917H21.669H13.707V52.0001Z" fill="#333946"/>
<path d="M11.0742 52.0001V104H13.6359H16.1976V52.0001V0.000289917H13.6359H11.0742V52.0001Z" fill="#E0FB52"/>
<path d="M150.336 51.9997V104H152.967H155.598V51.9997V-0.000198364H152.967H150.336V51.9997Z" fill="#E0FB52"/>
<path d="M82.0703 51.9997V104H86.2244H90.3784V51.9997V-0.000198364H86.2244H82.0703V51.9997Z" fill="#E0FB52"/>
<path d="M89.4102 51.9997V104H97.3721H105.334V51.9997V-0.000198364H97.3721H89.4102V51.9997Z" fill="#333946"/>
<path d="M104.229 51.9997V104H106.79H109.352V51.9997V-0.000198364H106.79H104.229V51.9997Z" fill="#E0FB52"/>
<path d="M112.258 51.9997V104H114.819H117.381V51.9997V-0.000198364H114.819H112.258V51.9997Z" fill="#E0FB52"/>
</svg>
