<svg width="419" height="282" viewBox="0 0 419 282" fill="none" xmlns="http://www.w3.org/2000/svg">
<path d="M87.1035 140.999V281.999H97.9144H108.725V140.999V-0.000183105H97.9144H87.1035V140.999Z" fill="#E0FB52"/>
<path d="M151.605 140.999V281.999H172.326H193.047V140.999V-0.000183105H172.326H151.605V140.999Z" fill="#333946"/>
<path d="M144.764 140.999V281.999H151.43H158.097V140.999V-0.000183105H151.43H144.764V140.999Z" fill="#E0FB52"/>
<path d="M165.297 140.999V281.999H172.144H178.991V140.999V-0.000183105H172.144H165.297V140.999Z" fill="#E0FB52"/>
<path d="M341.881 140.999V281.999H352.692H363.503V140.999V-0.000183105H352.692H341.881V140.999Z" fill="#E0FB52"/>
<path d="M377.559 140.999V281.999H398.279H419V140.999V-0.000183105H398.279H377.559V140.999Z" fill="#333946"/>
<path d="M370.705 140.999V281.999H377.372H384.039V140.999V-0.000183105H377.372H370.705V140.999Z" fill="#E0FB52"/>
<path d="M0 141V282H10.8109H21.6218V141V0.000793457H10.8109H0V141Z" fill="#E0FB52"/>
<path d="M35.6758 141V282H56.3967H77.1175V141V0.000793457H56.3967H35.6758V141Z" fill="#333946"/>
<path d="M28.8203 141V282H35.487H42.1537V141V0.000793457H35.487H28.8203V141Z" fill="#E0FB52"/>
<path d="M391.248 140.999V281.999H398.095H404.942V140.999V-0.000183105H398.095H391.248V140.999Z" fill="#E0FB52"/>
<path d="M213.586 140.999V281.999H224.397H235.208V140.999V-0.000183105H224.397H213.586V140.999Z" fill="#E0FB52"/>
<path d="M232.688 140.999V281.999H253.408H274.129V140.999V-0.000183105H253.408H232.688V140.999Z" fill="#333946"/>
<path d="M271.254 140.999V281.999H277.921H284.587V140.999V-0.000183105H277.921H271.254V140.999Z" fill="#E0FB52"/>
<path d="M292.15 140.999V281.999H298.817H305.484V140.999V-0.000183105H298.817H292.15V140.999Z" fill="#E0FB52"/>
</svg>
