<svg width="661" height="449" viewBox="0 0 661 449" fill="none" xmlns="http://www.w3.org/2000/svg">
<path d="M137.203 224.5V448.999H154.232H171.261V224.5V0.000953674H154.232H137.203V224.5Z" fill="#E0FB52"/>
<path d="M238.805 224.5V448.999H271.444H304.083V224.5V0.000953674H271.444H238.805V224.5Z" fill="#333946"/>
<path d="M228.027 224.5V448.999H238.529H249.03V224.5V0.000953674H238.529H228.027V224.5Z" fill="#E0FB52"/>
<path d="M260.375 224.5V448.999H271.16H281.945V224.5V0.000953674H271.16H260.375V224.5Z" fill="#E0FB52"/>
<path d="M538.527 224.5V448.999H555.556H572.586V224.5V0.000953674H555.556H538.527V224.5Z" fill="#E0FB52"/>
<path d="M594.725 224.5V448.999H627.364H660.003V224.5V0.000953674H627.364H594.725V224.5Z" fill="#333946"/>
<path d="M583.932 224.5V448.999H594.433H604.934V224.5V0.000953674H594.433H583.932V224.5Z" fill="#E0FB52"/>
<path d="M0 224.501V449H17.0291H34.0583V224.501V0.00193024H17.0291H0V224.501Z" fill="#E0FB52"/>
<path d="M56.1953 224.501V449H88.8345H121.474V224.501V0.00193024H88.8345H56.1953V224.501Z" fill="#333946"/>
<path d="M45.3984 224.501V449H55.8997H66.401V224.501V0.00193024H55.8997H45.3984V224.501Z" fill="#E0FB52"/>
<path d="M616.287 224.5V448.999H627.072H637.857V224.5V0.000953674H627.072H616.287V224.5Z" fill="#E0FB52"/>
<path d="M336.439 224.5V448.999H353.469H370.498V224.5V0.000953674H353.469H336.439V224.5Z" fill="#E0FB52"/>
<path d="M366.529 224.5V448.999H399.168H431.808V224.5V0.000953674H399.168H366.529V224.5Z" fill="#333946"/>
<path d="M427.273 224.5V448.999H437.775H448.276V224.5V0.000953674H437.775H427.273V224.5Z" fill="#E0FB52"/>
<path d="M460.189 224.5V448.999H470.691H481.192V224.5V0.000953674H470.691H460.189V224.5Z" fill="#E0FB52"/>
</svg>
