<svg width="504" height="339" viewBox="0 0 504 339" fill="none" xmlns="http://www.w3.org/2000/svg">
<path d="M104.773 169.499V338.999H117.777H130.781V169.499V-0.000244141H117.777H104.773V169.499Z" fill="#E0FB52"/>
<path d="M182.359 169.499V338.999H207.284H232.208V169.499V-0.000244141H207.284H182.359V169.499Z" fill="#333946"/>
<path d="M174.131 169.499V338.999H182.15H190.169V169.499V-0.000244141H182.15H174.131V169.499Z" fill="#E0FB52"/>
<path d="M198.83 169.499V338.999H207.066H215.302V169.499V-0.000244141H207.066H198.83V169.499Z" fill="#E0FB52"/>
<path d="M411.236 169.499V338.999H424.24H437.244V169.499V-0.000244141H424.24H411.236V169.499Z" fill="#E0FB52"/>
<path d="M454.15 169.499V338.999H479.075H503.999V169.499V-0.000244141H479.075H454.15V169.499Z" fill="#333946"/>
<path d="M445.908 169.499V338.999H453.927H461.946V169.499V-0.000244141H453.927H445.908V169.499Z" fill="#E0FB52"/>
<path d="M0 169.5V339H13.004H26.008V169.5V0.000732422H13.004H0V169.5Z" fill="#E0FB52"/>
<path d="M42.9121 169.5V339H67.8365H92.7608V169.5V0.000732422H67.8365H42.9121V169.5Z" fill="#333946"/>
<path d="M34.668 169.5V339H42.6871H50.7062V169.5V0.000732422H42.6871H34.668V169.5Z" fill="#E0FB52"/>
<path d="M470.617 169.499V338.999H478.853H487.089V169.499V-0.000244141H478.853H470.617V169.499Z" fill="#E0FB52"/>
<path d="M256.916 169.499V338.999H269.92H282.924V169.499V-0.000244141H269.92H256.916V169.499Z" fill="#E0FB52"/>
<path d="M279.893 169.499V338.999H304.817H329.741V169.499V-0.000244141H304.817H279.893V169.499Z" fill="#333946"/>
<path d="M326.281 169.499V338.999H334.3H342.32V169.499V-0.000244141H334.3H326.281V169.499Z" fill="#E0FB52"/>
<path d="M351.416 169.499V338.999H359.435H367.454V169.499V-0.000244141H359.435H351.416V169.499Z" fill="#E0FB52"/>
</svg>
