<svg xmlns="http://www.w3.org/2000/svg" width="3589.7" height="149.6" viewBox="0 0 3589.7 149.6">
  <g>
    <path d="M7.1,79.6l1.3-.3-.6,5.8-1.1.2L4.6,81.7l-.5,4.2L3,86.1l-3-5,1.3-.3,1.9,3.7.4-4.2,1.1-.2,2.1,3.6Z" fill="#333946"/>
    <path d="M23.9,76l1.3-.3-.7,5.8-1.1.2-2.1-3.6-.5,4.2-1.1.2-3-5,1.3-.3,1.9,3.7.4-4.2,1.1-.2,2.1,3.6Z" fill="#333946"/>
    <path d="M38.7,72.9l1.3-.3-.7,5.8-1.1.2L36.1,75l-.5,4.2-1.1.2-2.9-5.1,1.3-.3,1.9,3.7.5-4.2,1.1-.2L38.5,77Z" fill="#333946"/>
    <path d="M55.6,69.5l1.3-.3L56.2,75l-1.1.2L53,71.6l-.5,4.2-1.1.2-2.9-5.1,1.3-.3,1.9,3.7.5-4.2,1.1-.2,2,3.7Z" fill="#333946"/>
    <path d="M72.4,66.2l1.3-.2-.8,5.8-1.1.2-2.1-3.6-.5,4.2H68.1l-2.8-5,1.3-.2,1.9,3.7.5-4.2,1.1-.2,2,3.7Z" fill="#333946"/>
    <path d="M89.8,62.8l1.3-.2-.8,5.8-1.1.2-2-3.7L86.7,69l-1.1.2-2.9-5.1,1.3-.2,1.8,3.7.5-4.2,1.1-.2,2,3.7Z" fill="#333946"/>
    <path d="M107.2,59.5l1.3-.2-.8,5.8-1.1.2-2-3.7-.6,4.1-1.1.2L100,60.8l1.3-.2,1.8,3.7.5-4.2,1.1-.2,2,3.7Z" fill="#333946"/>
    <path d="M123.7,56.4l1.3-.2-.8,5.8-1.1.2-2-3.7-.6,4.1-1.1.2-2.8-5.1,1.3-.2,1.8,3.7.5-4.2,1.1-.2,2,3.7Z" fill="#333946"/>
    <path d="M138.7,53.6l1.3-.2-.8,5.8-1.1.2-2-3.7-.6,4.1-1.1.2-2.8-5.1,1.3-.2,1.8,3.7.6-4.2,1.1-.2,2,3.7Z" fill="#333946"/>
    <path d="M155.1,50.7l1.3-.2-.9,5.8-1.1.2-2-3.7-.6,4.1-1.1.2L147.9,52l1.3-.2,1.8,3.7.6-4.2,1.1-.2,2,3.7Z" fill="#333946"/>
    <path d="M172.8,47.6l1.3-.2-.9,5.8-1.1.2-2-3.7-.6,4.1-1.1.2-2.8-5.1,1.3-.2,1.8,3.7.6-4.2,1.1-.2,1.9,3.7Z" fill="#333946"/>
    <path d="M188.1,45l1.3-.2-.9,5.8-1.1.2-2-3.7-.7,4.1-1.1.2-2.8-5.2,1.3-.2,1.8,3.8.6-4.2,1.1-.2,1.9,3.7Z" fill="#333946"/>
    <path d="M204.2,42.3l1.3-.2-.9,5.8-1.1.2-2-3.7-.7,4.1-1.1.2L197,43.5l1.3-.2,1.8,3.8.6-4.2,1.1-.2,1.9,3.7Z" fill="#333946"/>
    <path d="M221.2,39.5l1.3-.2-1,5.8-1.1.2-1.9-3.7-.7,4.1-1.1.2L214,40.7l1.3-.2,1.7,3.8.6-4.1,1.1-.2,1.9,3.7Z" fill="#333946"/>
    <path d="M239,36.6l1.3-.2-1,5.8-1.1.2-1.9-3.7-.7,4.1-1.1.2-2.7-5.2,1.3-.2,1.7,3.8.6-4.1,1.1-.2,1.9,3.7Z" fill="#333946"/>
    <path d="M257.4,33.8l1.3-.2-1,5.8-1.1.2-1.9-3.7L254,40l-1.1.2L250.2,35l1.3-.2,1.7,3.8.7-4.1,1.1-.2,1.9,3.8Z" fill="#333946"/>
    <path d="M272.5,31.5l1.3-.2-1,5.8-1.1.2-1.9-3.7-.7,4.1-1.1.2-2.7-5.2,1.3-.2,1.7,3.8.7-4.1,1.1-.2,1.9,3.8Z" fill="#333946"/>
    <path d="M288.1,29.2l1.3-.2-1,5.8-1.1.2-1.9-3.7-.7,4.1-1.1.2L281,30.4l1.3-.2L284,34l.7-4.1,1.1-.2,1.8,3.8Z" fill="#333946"/>
    <path d="M308.1,26.3l1.3-.2-1.1,5.7-1.1.1-1.9-3.8-.8,4.1-1.1.1-2.6-5.2,1.3-.2,1.7,3.8.7-4.1h1.2l1.8,3.8Z" fill="#333946"/>
    <path d="M324.5,24l1.3-.2-1.1,5.7-1.1.1-1.8-3.8-.8,4.1-1.1.1-2.6-5.2,1.3-.2,1.6,3.8.7-4.1,1.1-.2,1.8,3.8Z" fill="#333946"/>
    <path d="M341.1,21.8l1.3-.2-1.1,5.7-1.1.1-1.8-3.8-.8,4.1-1.1.1-2.6-5.3,1.3-.2,1.6,3.8.8-4.1,1.1-.1,1.8,3.8Z" fill="#333946"/>
    <path d="M358.1,19.6l1.3-.2-1.2,5.7-1.1.1-1.8-3.8-.8,4.1-1.1.1-2.5-5.3,1.3-.2,1.6,3.8.8-4.1,1.1-.1,1.8,3.8Z" fill="#333946"/>
    <path d="M375.2,17.5l1.3-.2L375.3,23l-1.1.1-1.8-3.8-.8,4.1-1.1.1L368,18.2l1.3-.2,1.6,3.8.8-4.1,1.1-.1,1.8,3.8Z" fill="#333946"/>
    <path d="M392.6,15.5l1.3-.1-1.2,5.7-1.1.1-1.8-3.8-.9,4.1-1.1.1-2.5-5.3,1.3-.1,1.6,3.8.8-4.1,1.1-.1,1.7,3.8Z" fill="#333946"/>
    <path d="M405.7,14l1.3-.1-1.2,5.7-1.1.1L403,15.9l-.9,4.1-1.1.1-2.5-5.3,1.3-.1,1.5,3.9.8-4.1,1.1-.1,1.7,3.8Z" fill="#333946"/>
    <path d="M423.3,12.1l1.3-.1-1.3,5.7-1.1.1L420.5,14l-.9,4.1-1.1.1-2.4-5.3,1.3-.1,1.5,3.9.9-4.1,1.1-.1,1.7,3.8Z" fill="#333946"/>
    <path d="M440.8,10.3l1.3-.1-1.3,5.7-1.1.1L438,12.2l-.9,4.1-1.1.1-2.4-5.3,1.3-.1,1.5,3.9.9-4.1,1.1-.1,1.7,3.9Z" fill="#333946"/>
    <path d="M458.4,8.6l1.3-.1-1.4,5.7-1.1.1-1.7-3.8-1,4.1-1.1.1L451,9.3l1.3-.1,1.5,3.9.9-4.1,1.1-.1,1.6,3.9Z" fill="#333946"/>
    <path d="M475.9,7.1l1.3-.1-1.4,5.7-1.1.1L473.1,9l-1,4.1-1.1.1-2.3-5.4,1.3-.1,1.4,3.9.9-4.1,1.1-.1,1.6,3.9Z" fill="#333946"/>
    <path d="M493.4,5.7l1.3-.1-1.4,5.7-1.1.1-1.6-3.9-1,4.1-1.1.1-2.3-5.4,1.3-.1,1.4,3.9,1-4.1,1.1-.1,1.6,3.9Z" fill="#333946"/>
    <path d="M510.7,4.4l1.3-.1L510.5,10l-1.1.1-1.6-3.9-1.1,4.1-1.1.1L503.4,5l1.3-.1,1.4,3.9,1-4.1,1.1-.1,1.6,3.9Z" fill="#333946"/>
    <path d="M527.8,3.3l1.3-.1-1.5,5.6-1.1.1L524.9,5l-1.1,4-1.1.1-2.2-5.4,1.3-.1,1.4,3.9,1-4.1,1.1-.1,1.5,3.9Z" fill="#333946"/>
    <path d="M544.7,2.3l1.3-.1-1.6,5.6-1.1.1L541.8,4l-1.1,4-1.1.1-2.1-5.4,1.3-.1,1.3,3.9,1.1-4.1,1.1-.1,1.5,3.9Z" fill="#333946"/>
    <path d="M561.3,1.6l1.3-.1L561,7.1h-1.1l-1.5-3.9-1.2,4h-1.1L554,1.7l1.3-.1,1.3,3.9,1.1-4h1.1l1.5,3.9Z" fill="#333946"/>
    <path d="M577.6.9h1.3l-1.7,5.6h-1.1l-1.4-3.9-1.2,4h-1.1l-2-5.5h1.3l1.2,4,1.2-4h1.1l1.4,4Z" fill="#333946"/>
    <path d="M593.6.5h1.3l-1.7,5.6h-1.1l-1.4-3.9-1.2,4h-1.1l-2-5.5h1.3l1.2,4,1.2-4h1.1l1.4,4Z" fill="#333946"/>
    <path d="M613.1.1h1.3l-1.8,5.6h-1.1l-1.4-4-1.3,4h-1.1L605.8.2h1.3l1.2,4,1.2-4h1.1l1.3,4Z" fill="#333946"/>
    <path d="M628.1.1h1.3l-1.9,5.5h-1.1l-1.3-4-1.3,4h-1.1L620.9,0h1.3l1.1,4,1.3-4h1.1L627,4Z" fill="#333946"/>
    <path d="M646.6.3h1.3l-2,5.5h-1.1l-1.2-4-1.4,3.9h-1.1L639.3.1h1.3l1,4,1.4-4h1.1l1.2,4Z" fill="#333946"/>
    <path d="M664.3.7h1.3l-2.1,5.5h-1.1l-1.2-4-1.5,3.9h-1.1L656.9.5h1.3l1,4L660.6.6h1.1l1.1,4Z" fill="#333946"/>
    <path d="M683.5,1.5l1.3.1L682.6,7l-1.1-.1-1.1-4-1.5,3.9-1.1-.1-1.5-5.6,1.3.1.9,4.1L680,1.4l1.1.1,1.1,4.1Z" fill="#333946"/>
    <path d="M700.2,2.6l1.3.1-2.3,5.4L698.1,8l-1-4.1-1.6,3.9-1.1-.1L693,2l1.3.1.8,4.1,1.6-3.9,1.1.1,1,4.1Z" fill="#333946"/>
    <path d="M716.2,3.9l1.3.1-2.4,5.3L714,9.2l-.9-4.1-1.7,3.8-1.1-.1L709,3.1l1.3.1.7,4.1,1.7-3.7,1.1.1.9,4.1Z" fill="#333946"/>
    <path d="M731.7,5.5l1.3.1-2.5,5.3-1.1-.1-.9-4.1-1.8,3.8-1.1-.1-1.2-5.7,1.3.1.7,4.1,1.7-3.8,1.1.1.8,4.1Z" fill="#333946"/>
    <path d="M750.1,7.7l1.3.2-2.6,5.2-1.1-.1-.8-4.1-1.8,3.8-1.1-.1-1.1-5.7,1.3.2.6,4.1,1.8-3.8,1.1.2.7,4.1Z" fill="#333946"/>
    <path d="M767.8,10.2l1.3.2-2.7,5.2-1.1-.2-.7-4.1L762.7,15l-1.1-.2-1-5.8,1.3.2.5,4.1,1.9-3.8,1.1.2.7,4.1Z" fill="#333946"/>
    <path d="M784.8,13l1.3.2-2.8,5.1-1.1-.2-.6-4.1-2,3.7-1.1-.2-.9-5.8,1.3.2.4,4.1,2-3.7,1.1.2.6,4.2Z" fill="#333946"/>
    <path d="M801.3,16l1.3.2-2.9,5.1-1.1-.2-.5-4.2L796,20.5l-1.1-.2-.8-5.8,1.3.2.3,4.1,2-3.7,1.1.2.5,4.2Z" fill="#333946"/>
    <path d="M817.3,19.3l1.3.3-3,5-1.1-.2-.5-4.2-2.1,3.6-1.1-.2-.7-5.8,1.3.3.3,4.1,2.1-3.6,1.1.2.4,4.2Z" fill="#333946"/>
    <path d="M832.8,22.7l1.3.3L831,28l-1.1-.2-.4-4.2-2.2,3.6-1.1-.2-.6-5.8,1.3.3.2,4.1,2.1-3.6,1.1.3.4,4.2Z" fill="#333946"/>
    <path d="M851,27l1.3.3-3.1,4.9-1-.3-.3-4.2-2.2,3.5-1-.3-.5-5.8,1.3.3.1,4.1,2.2-3.6,1.1.3.3,4.2Z" fill="#333946"/>
    <path d="M865.7,30.7l1.3.3-3.2,4.9-1-.3-.3-4.2-2.3,3.5-1-.3-.4-5.8,1.3.3.1,4.1,2.3-3.5,1.1.3.2,4.2Z" fill="#333946"/>
    <path d="M883,35.4l1.2.3-3.3,4.8-1-.3-.2-4.2-2.4,3.5-1-.3-.3-5.8,1.2.3v4.1l2.3-3.5,1.1.3.2,4.2Z" fill="#333946"/>
    <path d="M899.9,40.2l1.2.4-3.3,4.8-1-.3-.2-4.2-2.4,3.4-1-.3-.2-5.8,1.2.4-.1,4.1,2.4-3.5,1.1.3.1,4.2Z" fill="#333946"/>
    <path d="M916.5,45.1l1.2.4-3.4,4.8-1-.3-.1-4.2-2.4,3.4-1-.3-.2-5.8,1.2.4-.1,4.1,2.4-3.4,1.1.3.1,4.2Z" fill="#333946"/>
    <path d="M932.9,50.2l1.2.4-3.4,4.7-1-.3-.1-4.2-2.5,3.4-1-.3-.1-5.8,1.2.4-.1,4.1,2.4-3.4,1.1.3v4.2Z" fill="#333946"/>
    <path d="M949,55.3l1.2.4-3.5,4.7-1-.3V55.9l-2.5,3.4-1-.3-.1-5.8,1.2.4-.2,4.1,2.4-3.4,1.1.3v4.2Z" fill="#333946"/>
    <path d="M964.9,60.4l1.2.4-3.5,4.7-1-.3V61l-2.5,3.4-1-.3V58.3l1.2.4-.2,4.1,2.5-3.4,1.1.4V64Z" fill="#333946"/>
    <path d="M980.7,65.6l1.2.4-3.5,4.7-1-.3V66.2l-2.5,3.4-1-.3V63.5l1.2.4-.2,4.1,2.5-3.4,1.1.4v4.2Z" fill="#333946"/>
    <path d="M996.4,70.9l1.2.4L994.1,76l-1-.3V71.5l-2.5,3.3-1-.3V68.7l1.2.4-.2,4.1,2.5-3.4,1.1.4v4.2Z" fill="#333946"/>
    <path d="M1012,76.1l1.2.4-3.5,4.7-1-.3V76.6l-2.5,3.4-1-.3V73.9l1.2.4-.2,4.1,2.5-3.4,1.1.4v4.2Z" fill="#333946"/>
    <path d="M1027.7,81.2l1.2.4-3.5,4.7-1-.3V81.8l-2.5,3.4-1-.3V79.1l1.2.4-.2,4.1,2.5-3.4,1.1.4v4.2Z" fill="#333946"/>
    <path d="M1046.3,87.3l1.2.4-3.5,4.7-1-.3V87.9l-2.5,3.4-1-.3-.1-5.8,1.2.4-.2,4.1,2.5-3.4,1.1.3v4.2Z" fill="#333946"/>
    <path d="M1062.1,92.3l1.2.4-3.4,4.7-1-.3-.1-4.2-2.5,3.4-1-.3-.1-5.8,1.2.4-.1,4.1,2.4-3.4,1.1.3v4.2Z" fill="#333946"/>
    <path d="M1078,97.3l1.2.4-3.4,4.8-1-.3-.1-4.2-2.4,3.4-1-.3-.2-5.8,1.2.4-.1,4.1,2.4-3.4,1.1.3.1,4.2Z" fill="#333946"/>
    <path d="M1094.2,102.1l1.2.4-3.3,4.8-1-.3-.2-4.2-2.4,3.4-1-.3-.2-5.8,1.2.4-.1,4.1,2.3-3.5,1.1.3.1,4.2Z" fill="#333946"/>
    <path d="M1110.6,106.8l1.2.3-3.3,4.8-1-.3-.2-4.2-2.3,3.5-1-.3-.3-5.8,1.2.3v4.1l2.3-3.5,1.1.3.2,4.2Z" fill="#333946"/>
    <path d="M1127.3,111.4l1.3.3-3.2,4.9-1-.3-.3-4.2-2.3,3.5-1.1-.3-.4-5.8,1.2.3.1,4.1,2.3-3.5,1.1.3.2,4.2Z" fill="#333946"/>
    <path d="M1144.3,115.8l1.3.3-3.1,4.9-1-.3-.3-4.2L1139,120l-1-.3-.5-5.8,1.2.3.1,4.1,2.2-3.6,1.1.3.3,4.2Z" fill="#333946"/>
    <path d="M1158.7,119.2l1.3.3-3,5-1.1-.2-.4-4.2-2.2,3.6-1.1-.2-.6-5.8,1.3.3.2,4.1,2.1-3.6,1.1.3.4,4.2Z" fill="#333946"/>
    <path d="M1176.5,123.2l1.3.3-3,5-1.1-.2-.5-4.2-2.1,3.6-1.1-.2-.7-5.8,1.3.3.3,4.1,2.1-3.6,1.1.2.4,4.2Z" fill="#333946"/>
    <path d="M1191.7,126.2l1.3.2-2.9,5.1-1.1-.2-.5-4.1-2.1,3.7-1.1-.2-.8-5.8,1.3.2.3,4.1,2-3.7,1.1.2.5,4.2Z" fill="#333946"/>
    <path d="M1210.6,129.7l1.3.2-2.8,5.2-1.1-.2-.7-4.1-2,3.7-1.1-.2-.9-5.8,1.3.2.4,4.1,1.9-3.7,1.1.2.6,4.2Z" fill="#333946"/>
    <path d="M1226.8,132.2l1.3.2-2.7,5.2-1.1-.2-.7-4.1-1.9,3.7-1.1-.2-1-5.8,1.3.2.5,4.1,1.8-3.8,1.1.2.7,4.1Z" fill="#333946"/>
    <path d="M1243.5,134.6l1.3.2-2.5,5.3-1.1-.1-.8-4.1-1.8,3.8-1.1-.1-1.1-5.7,1.3.2.6,4.1,1.8-3.8,1.1.1.8,4.1Z" fill="#333946"/>
    <path d="M1260.9,136.6l1.3.1-2.4,5.3-1.1-.1-.9-4.1-1.7,3.8-1.1-.1-1.3-5.7,1.3.1.7,4.1,1.7-3.8,1.1.1.9,4.1Z" fill="#333946"/>
    <path d="M1275.5,138l1.3.1-2.3,5.4-1.1-.1-1-4.1-1.7,3.8-1.1-.1-1.4-5.7,1.3.1.8,4.1,1.6-3.9,1.1.1,1,4.1Z" fill="#333946"/>
    <path d="M1294.1,139.4l1.3.1-2.2,5.4-1.1-.1-1.1-4-1.6,3.9-1.1-.1-1.5-5.6,1.3.1.9,4.1,1.5-3.9,1.1.1,1,4.1Z" fill="#333946"/>
    <path d="M1309.9,140.3l1.3.1-2.1,5.5H1308l-1.2-4-1.5,3.9h-1.1l-1.6-5.6,1.3.1.9,4,1.5-3.9h1.1l1.1,4Z" fill="#333946"/>
    <path d="M1326.3,140.8h1.3l-2,5.5h-1.1l-1.2-4-1.4,3.9h-1.1l-1.8-5.6h1.3l1,4,1.4-4h1.1l1.2,4Z" fill="#333946"/>
    <path d="M1345.4,141h1.3l-1.8,5.5h-1.1l-1.3-4-1.3,4h-1.1l-1.9-5.5h1.3l1.1,4,1.3-4h1.1l1.3,4Z" fill="#333946"/>
    <path d="M1362.4,140.9h1.3l-1.7,5.6h-1.1l-1.4-3.9-1.2,4h-1.1l-2-5.5h1.3l1.2,4,1.2-4h1.1l1.4,4Z" fill="#333946"/>
    <path d="M1378.7,140.3l1.3-.1-1.6,5.6-1.1.1-1.5-3.9-1.2,4-1.1.1-2.1-5.4,1.3-.1,1.3,3.9,1.1-4.1,1.1-.1,1.5,3.9Z" fill="#333946"/>
    <path d="M1398,139.2l1.3-.1-1.5,5.7-1.1.1-1.6-3.9-1,4.1-1.1.1-2.2-5.4,1.3-.1,1.4,3.9,1-4.1,1.1-.1,1.6,3.9Z" fill="#333946"/>
    <path d="M1413,138l1.3-.1-1.3,5.7-1.1.1-1.7-3.8-1,4.1-1.1.1-2.4-5.3,1.3-.1,1.5,3.9.9-4.1,1.1-.1,1.7,3.9Z" fill="#333946"/>
    <path d="M1431,136.2l1.3-.2-1.2,5.7-1.1.1-1.8-3.8-.9,4.1-1.1.1-2.5-5.3,1.3-.2,1.6,3.8.8-4.1,1.1-.1,1.7,3.8Z" fill="#333946"/>
    <path d="M1448.3,134l1.3-.2-1.1,5.7-1.1.1-1.9-3.7-.8,4.1-1.1.2L1441,135l1.3-.2,1.7,3.8.7-4.1,1.1-.2,1.8,3.8Z" fill="#333946"/>
    <path d="M1464.9,131.5l1.3-.2-1,5.8-1.1.2-1.9-3.7-.7,4.1-1.1.2-2.7-5.2,1.3-.2,1.8,3.8.6-4.2,1.1-.2,1.9,3.7Z" fill="#333946"/>
    <path d="M1481.1,128.7l1.3-.2-.8,5.8-1.1.2-2-3.7-.6,4.1-1.1.2L1474,130l1.3-.2,1.8,3.7.5-4.2,1.1-.2,2,3.7Z" fill="#333946"/>
    <path d="M1496.7,125.7l1.3-.3-.7,5.8-1.1.2-2.1-3.6-.5,4.2-1,.2-3-5.1,1.3-.3,1.9,3.7.5-4.2,1.1-.2,2.1,3.7Z" fill="#333946"/>
    <path d="M1515,121.8l1.3-.3-.6,5.8-1.1.2-2.2-3.6-.4,4.2-1.1.2-3-5,1.3-.3,2,3.6.4-4.2,1.1-.3,2.2,3.6Z" fill="#333946"/>
    <path d="M1529.8,118.3l1.3-.3-.5,5.8-1.1.3-2.2-3.5-.3,4.2-1.1.3-3.1-4.9,1.3-.3,2.1,3.6.3-4.2,1.1-.3,2.2,3.6Z" fill="#333946"/>
    <path d="M1547.3,113.9l1.2-.3-.4,5.8-1,.3-2.3-3.5-.3,4.2-1,.3-3.2-4.9,1.2-.3,2.1,3.6.2-4.2,1.1-.3,2.3,3.5Z" fill="#333946"/>
    <path d="M1564.3,109.2l1.2-.4-.3,5.8-1,.3-2.4-3.5-.2,4.2-1,.3-3.3-4.8,1.2-.4,2.2,3.5.1-4.2,1.1-.3,2.3,3.5Z" fill="#333946"/>
    <path d="M1581,104.4l1.2-.4-.2,5.8-1,.3-2.4-3.4-.1,4.2-1,.3-3.4-4.8,1.2-.4,2.2,3.5.1-4.2,1.1-.3,2.4,3.5Z" fill="#333946"/>
    <path d="M1597.4,99.3l1.2-.4-.1,5.8-1,.3-2.4-3.4-.1,4.2-1,.3-3.4-4.7,1.2-.4,2.3,3.5v-4.2l1.1-.3,2.4,3.4Z" fill="#333946"/>
    <path d="M1613.6,94.2l1.2-.4-.1,5.8-1,.3-2.5-3.4v4.2l-1,.3-3.5-4.7,1.2-.4,2.3,3.5V95.2l1.1-.4,2.5,3.4Z" fill="#333946"/>
    <path d="M1629.6,88.9l1.2-.4v5.8l-1,.3-2.5-3.3v4.2l-1,.3-3.5-4.7,1.2-.4,2.3,3.4V89.9l1.1-.4,2.5,3.4Z" fill="#333946"/>
    <path d="M1645.5,83.6l1.2-.4V89l-1,.3-2.5-3.3v4.2l-1,.3-3.5-4.6,1.2-.4,2.3,3.4-.1-4.2,1.1-.4,2.5,3.4Z" fill="#333946"/>
    <path d="M1661.3,78.2l1.2-.4v5.8l-1,.4-2.5-3.3v4.2l-1,.4-3.6-4.6,1.2-.4,2.4,3.4-.1-4.2,1.1-.4,2.5,3.4Z" fill="#333946"/>
    <path d="M1677,72.8l1.2-.4v5.8l-1,.4-2.5-3.3v4.2l-1,.4-3.6-4.6,1.2-.4,2.4,3.4-.1-4.2,1.1-.4,2.5,3.4Z" fill="#333946"/>
    <path d="M1692.7,67.3l1.2-.4.1,5.8-1,.4-2.5-3.3V74l-1,.4-3.6-4.6,1.2-.4,2.4,3.4-.1-4.2,1.1-.4,2.5,3.4Z" fill="#333946"/>
    <path d="M1708.5,61.9l1.2-.4v5.8l-1,.3-2.5-3.3v4.2l-1,.3-3.6-4.6,1.2-.4,2.3,3.4L1705,63l1.1-.4,2.5,3.4Z" fill="#333946"/>
    <path d="M1724.3,56.5l1.2-.4v5.8l-1,.3-2.5-3.3v4.2l-1,.3-3.5-4.7,1.2-.4,2.3,3.4-.1-4.2,1.1-.4,2.5,3.4Z" fill="#333946"/>
    <path d="M1740.3,51.2l1.2-.4v5.8l-1,.3-2.5-3.4v4.2l-1,.3-3.5-4.7,1.2-.4,2.3,3.4V52.1l1.1-.4,2.5,3.4Z" fill="#333946"/>
    <path d="M1756.4,45.9l1.2-.4-.1,5.8-1,.3-2.5-3.4-.1,4.2-1,.3-3.4-4.7,1.2-.4,2.3,3.5V46.9l1.1-.3,2.4,3.4Z" fill="#333946"/>
    <path d="M1772.8,40.8l1.2-.4-.2,5.8-1,.3-2.4-3.4-.1,4.2-1,.3-3.4-4.8,1.2-.4,2.2,3.5.1-4.2,1.1-.3,2.4,3.4Z" fill="#333946"/>
    <path d="M1789.4,35.8l1.2-.4-.2,5.8-1,.3-2.4-3.4-.2,4.2-1,.3-3.3-4.8,1.2-.4,2.2,3.5.1-4.2,1.1-.3,2.3,3.5Z" fill="#333946"/>
    <path d="M1806.3,31l1.3-.3-.3,5.8-1,.3-2.3-3.5-.2,4.2-1,.3-3.3-4.9,1.2-.3,2.1,3.6.2-4.2,1.1-.3,2.3,3.5Z" fill="#333946"/>
    <path d="M1823.6,26.4l1.2-.3-.4,5.8-1.1.3-2.3-3.5-.3,4.2-1.1.3-3.2-4.9,1.3-.3,2.1,3.6.3-4.2,1.1-.3,2.2,3.6Z" fill="#333946"/>
    <path d="M1838.3,22.8l1.3-.3-.5,5.8-1.1.2-2.2-3.6-.4,4.2-1.1.2-3.1-5,1.3-.3,2,3.6.3-4.2,1.1-.3,2.2,3.6Z" fill="#333946"/>
    <path d="M1856.4,18.7l1.3-.3-.7,5.8-1,.2-2.1-3.6-.5,4.2-1.1.2-3-5,1.3-.3,1.9,3.7.4-4.2,1.1-.2,2.1,3.6Z" fill="#333946"/>
    <path d="M1871.9,15.4l1.3-.2-.8,5.8-1.1.2-2.1-3.6-.6,4.2-1.1.2-2.9-5.1,1.3-.2,1.9,3.7.5-4.2,1.1-.2,2,3.7Z" fill="#333946"/>
    <path d="M1887.9,12.5l1.3-.2-.9,5.8-1.1.2-2-3.7-.6,4.1-1.1.2-2.8-5.1,1.3-.2,1.8,3.7.6-4.2,1.1-.2,1.9,3.7Z" fill="#333946"/>
    <path d="M1907.8,9.2l1.3-.2-1,5.8-1.1.2-1.9-3.7-.7,4.1-1.1.2-2.7-5.2,1.3-.2,1.7,3.8.7-4.1,1.1-.2,1.9,3.8Z" fill="#333946"/>
    <path d="M1921.5,7.3l1.3-.2-1.2,5.7-1.1.1-1.8-3.8-.8,4.1-1.1.1L1914.3,8l1.3-.2,1.6,3.8.8-4.1,1.1-.1,1.8,3.8Z" fill="#333946"/>
    <path d="M1939.2,5.2l1.3-.1-1.3,5.7-1.1.1-1.7-3.8-.9,4.1-1.1.1L1932,6l1.3-.1,1.5,3.9.9-4.1,1.1-.1,1.7,3.8Z" fill="#333946"/>
    <path d="M1957.6,3.5l1.3-.1-1.4,5.7-1.1.1-1.6-3.9-1,4.1-1.1.1-2.3-5.4,1.3-.1,1.4,3.9,1-4.1,1.1-.1,1.6,3.9Z" fill="#333946"/>
    <path d="M1973.1,2.4l1.3-.1-1.5,5.6-1.1.1-1.5-3.9-1.1,4-1.1.1-2.2-5.4,1.3-.1,1.3,3.9,1.1-4.1,1.1-.1,1.5,3.9Z" fill="#333946"/>
    <path d="M1989.2,1.6h1.3l-1.7,5.6h-1.1l-1.5-3.9-1.2,4h-1.1l-2-5.5h1.3l1.3,4,1.1-4h1.1l1.4,3.9Z" fill="#333946"/>
    <path d="M2006,1.1h1.3l-1.8,5.6h-1.1l-1.4-4-1.3,4h-1.1l-1.9-5.5h1.3l1.2,4,1.2-4h1.1l1.3,4Z" fill="#333946"/>
    <path d="M2025.2,1.1h1.3l-1.9,5.5h-1.1l-1.3-4-1.4,4h-1.1L2017.9,1h1.3l1.1,4,1.3-4h1.1l1.2,4Z" fill="#333946"/>
    <path d="M2042,1.4h1.3l-2.1,5.5h-1.1l-1.2-4-1.5,3.9h-1.1l-1.7-5.6h1.3l1,4,1.4-3.9h1.1l1.1,4Z" fill="#333946"/>
    <path d="M2061.8,2.3l1.3.1-2.2,5.4-1.1-.1-1.1-4-1.6,3.9-1.1-.1-1.5-5.6,1.3.1.9,4.1,1.5-3.9,1.1.1,1,4.1Z" fill="#333946"/>
    <path d="M2077.2,3.3l1.3.1-2.3,5.4-1.1-.1-1-4.1-1.6,3.9-1.1-.1L2070,2.7l1.3.1.8,4.1,1.6-3.9,1.1.1,1,4.1Z" fill="#333946"/>
    <path d="M2095.6,5l1.3.1-2.4,5.3-1.1-.1-.9-4.1-1.7,3.8-1.1-.1-1.3-5.7,1.3.1.7,4.1,1.7-3.8,1.1.1.9,4.1Z" fill="#333946"/>
    <path d="M2113.2,7l1.3.2-2.6,5.3-1.1-.1-.8-4.1-1.8,3.8-1.1-.1L2106,6.3l1.3.2.6,4.1,1.8-3.8,1.1.1.8,4.1Z" fill="#333946"/>
    <path d="M2130.3,9.4l1.3.2-2.7,5.2-1.1-.2-.7-4.1-1.9,3.7-1.1-.2-1-5.8,1.3.2.5,4.1,1.9-3.8,1.1.2.7,4.1Z" fill="#333946"/>
    <path d="M2146.7,12l1.3.2-2.8,5.1-1.1-.2-.6-4.1-2,3.7-1.1-.2-.9-5.8,1.3.2.4,4.1,2-3.7,1.1.2.6,4.2Z" fill="#333946"/>
    <path d="M2162.7,14.9l1.3.2-2.9,5.1L2160,20l-.5-4.2-2.1,3.6-1.1-.2-.8-5.8,1.3.2.3,4.1,2-3.7,1.1.2.5,4.2Z" fill="#333946"/>
    <path d="M2178.2,18.1l1.3.3-3,5-1.1-.2L2175,19l-2.1,3.6-1.1-.2-.7-5.8,1.3.3.2,4.1,2.1-3.6,1.1.2.4,4.2Z" fill="#333946"/>
    <path d="M2196.3,22.2l1.3.3-3.1,5-1.1-.3L2193,23l-2.2,3.6-1-.3-.5-5.8,1.3.3.2,4.1,2.2-3.6,1.1.3.3,4.2Z" fill="#333946"/>
    <path d="M2210.9,25.8l1.3.3L2209,31l-1.1-.3-.2-4.1-2.3,3.5-1-.3L2204,24l1.3.3.1,4.1,2.2-3.6,1.1.3.2,4.2Z" fill="#333946"/>
    <path d="M2228.3,30.3l1.2.3-3.3,4.9-1-.3L2225,31l-2.3,3.5-1-.3-.3-5.8,1.2.3v4.1l2.3-3.5,1.1.3.2,4.2Z" fill="#333946"/>
    <path d="M2245.2,35.1l1.2.4-3.3,4.8-1-.3-.2-4.2-2.4,3.4-1-.3-.2-5.8,1.2.4v4.1l2.4-3.5,1.1.3.1,4.2Z" fill="#333946"/>
    <path d="M2261.8,40l1.2.4-3.4,4.8-1-.3-.1-4.2-2.4,3.4-1-.3-.2-5.8,1.2.4-.1,4.1,2.4-3.4,1.1.3.1,4.2Z" fill="#333946"/>
    <path d="M2278.1,45.1l1.2.4-3.5,4.7-1-.3-.1-4.2-2.5,3.4-1-.3-.1-5.8,1.2.4-.2,4.1,2.4-3.4,1.1.3v4.2Z" fill="#333946"/>
    <path d="M2294.3,50.3l1.2.4-3.5,4.7-1-.3V50.9l-2.5,3.4-1-.3V48.2l1.2.4-.2,4.1,2.5-3.4,1.1.4v4.2Z" fill="#333946"/>
    <path d="M2310.3,55.6l1.2.4-3.5,4.7-1-.3V56.2l-2.5,3.3-1-.3V53.4l1.2.4-.2,4.1,2.5-3.4,1.1.4-.1,4.2Z" fill="#333946"/>
    <path d="M2326.1,61l1.2.4-3.6,4.6-1-.3V61.5l-2.6,3.3-1-.3V58.7l1.2.4-.2,4.1,2.5-3.4,1.1.4-.1,4.2Z" fill="#333946"/>
    <path d="M2341.8,66.4l1.2.4-3.6,4.6-1-.4.1-4.2-2.6,3.3-1-.4.1-5.8,1.2.4-.2,4.1,2.5-3.4,1.1.4-.1,4.2Z" fill="#333946"/>
    <path d="M2357.6,71.9l1.2.4-3.6,4.6-1-.4.1-4.2-2.6,3.3-1-.4.1-5.8,1.2.4-.2,4.1,2.5-3.4,1.1.4-.1,4.2Z" fill="#333946"/>
    <path d="M2373.3,77.3l1.2.4-3.6,4.6-1-.4V77.7l-2.6,3.3-1-.4.1-5.8,1.2.4-.2,4.1,2.5-3.4,1.1.4-.1,4.2Z" fill="#333946"/>
    <path d="M2391.9,83.7l1.2.4-3.5,4.7-1-.3V84.3l-2.5,3.3-1-.3V81.5l1.2.4-.2,4.1,2.5-3.4,1.1.4-.1,4.2Z" fill="#333946"/>
    <path d="M2407.8,89l1.2.4-3.5,4.7-1-.3V89.6l-2.5,3.3-1-.3V86.8l1.2.4-.2,4.1,2.5-3.4,1.1.4v4.2Z" fill="#333946"/>
    <path d="M2423.8,94.3l1.2.4-3.5,4.7-1-.3V94.9l-2.5,3.4-1-.3-.1-5.8,1.2.4-.2,4.1,2.4-3.4,1.1.3v4.2Z" fill="#333946"/>
    <path d="M2440,99.4l1.2.4-3.4,4.7-1-.3-.1-4.2-2.4,3.4-1-.3-.1-5.8,1.2.4-.1,4.1,2.4-3.4,1.1.3v4.2Z" fill="#333946"/>
    <path d="M2456.5,104.4l1.2.4-3.4,4.8-1-.3-.1-4.2-2.4,3.4-1-.3-.2-5.8,1.2.4-.1,4.1,2.4-3.5,1.1.3.1,4.2Z" fill="#333946"/>
    <path d="M2470.3,108.5l1.2.4-3.3,4.8-1-.3-.2-4.2-2.4,3.5-1-.3-.3-5.8,1.2.4v4.1l2.3-3.5,1.1.3.1,4.2Z" fill="#333946"/>
    <path d="M2487.3,113.2l1.2.3-3.2,4.9-1-.3-.3-4.2-2.3,3.5-1.1-.3-.4-5.8,1.3.3.1,4.1,2.3-3.5,1.1.3.2,4.2Z" fill="#333946"/>
    <path d="M2504.8,117.7l1.3.3-3.1,4.9-1.1-.3-.3-4.2-2.2,3.5-1.1-.3-.5-5.8,1.3.3.1,4.1,2.2-3.6,1.1.3.3,4.2Z" fill="#333946"/>
    <path d="M2519.5,121.2l1.3.3-3,5-1.1-.2-.4-4.2-2.2,3.6-1-.2-.6-5.8,1.3.3.2,4.1,2.1-3.6,1.1.3.4,4.2Z" fill="#333946"/>
    <path d="M2537.9,125.2l1.3.3-2.9,5.1-1.1-.2-.5-4.2-2.1,3.6-1.1-.2-.7-5.8,1.3.3.3,4.1,2.1-3.7,1.1.2.5,4.2Z" fill="#333946"/>
    <path d="M2553.6,128.3l1.3.2-2.8,5.1-1.1-.2-.6-4.1-2,3.7-1.1-.2-.8-5.8,1.3.2.4,4.1,2-3.7,1.1.2.5,4.2Z" fill="#333946"/>
    <path d="M2569.7,131.1l1.3.2-2.7,5.2-1.1-.2-.7-4.1-2,3.7-1.1-.2-1-5.8,1.3.2.5,4.1,1.9-3.7,1.1.2.6,4.1Z" fill="#333946"/>
    <path d="M2586.5,133.7l1.3.2-2.6,5.2-1.1-.1-.8-4.1-1.9,3.8-1.1-.1-1.1-5.7,1.3.2.6,4.1,1.8-3.8,1.1.2.7,4.1Z" fill="#333946"/>
    <path d="M2603.8,135.9l1.3.1-2.5,5.3-1.1-.1-.9-4.1-1.8,3.8-1.1-.1-1.2-5.7,1.3.1.7,4.1,1.7-3.8,1.1.1.8,4.1Z" fill="#333946"/>
    <path d="M2621.8,137.8l1.3.1-2.4,5.4-1.1-.1-1-4.1-1.7,3.8-1.1-.1-1.3-5.7,1.3.1.8,4.1,1.6-3.9,1.1.1.9,4.1Z" fill="#333946"/>
    <path d="M2636.8,139.1l1.3.1-2.2,5.4-1.1-.1-1.1-4.1-1.6,3.9-1.1-.1-1.5-5.7,1.3.1.8,4.1,1.6-3.9,1.1.1,1,4.1Z" fill="#333946"/>
    <path d="M2656.2,140.2l1.3.1-2.1,5.5h-1.1l-1.1-4-1.5,3.9h-1.1l-1.6-5.6,1.3.1.9,4,1.5-3.9,1.1.1,1.1,4Z" fill="#333946"/>
    <path d="M2672.6,140.8h1.3l-2,5.5h-1.1l-1.2-4-1.4,3.9h-1.1l-1.7-5.6h1.3l1,4,1.4-4h1.1l1.2,4Z" fill="#333946"/>
    <path d="M2691.6,141h1.3l-1.8,5.5H2690l-1.3-4-1.3,4h-1.1l-1.9-5.5h1.3l1.1,4,1.3-4h1.1l1.3,4Z" fill="#333946"/>
    <path d="M2708.7,140.8h1.3l-1.7,5.6h-1.1l-1.4-3.9-1.2,4h-1.1l-2-5.5h1.3l1.2,4,1.2-4h1.1l1.4,4Z" fill="#333946"/>
    <path d="M2725,140.3l1.3-.1-1.6,5.6-1.1.1-1.5-3.9-1.1,4-1.1.1-2.1-5.4,1.3-.1,1.3,3.9,1.1-4.1,1.1-.1,1.5,3.9Z" fill="#333946"/>
    <path d="M2740.7,139.4l1.3-.1-1.5,5.7-1.1.1-1.6-3.9-1,4.1-1.1.1-2.2-5.4,1.3-.1,1.4,3.9,1-4.1,1.1-.1,1.6,3.9Z" fill="#333946"/>
    <path d="M2759.3,138l1.3-.1-1.3,5.7-1.1.1-1.7-3.8-1,4.1-1.1.1-2.4-5.3,1.3-.1,1.5,3.9.9-4.1,1.1-.1,1.6,3.9Z" fill="#333946"/>
    <path d="M2773.8,136.5l1.3-.1-1.2,5.7-1.1.1-1.8-3.8-.9,4.1-1.1.1-2.5-5.3,1.3-.1,1.6,3.8.8-4.1,1.1-.1,1.7,3.8Z" fill="#333946"/>
    <path d="M2791.2,134.4l1.3-.2-1.1,5.7-1.1.1-1.9-3.8-.8,4.1-1.1.1-2.6-5.2,1.3-.2,1.6,3.8.7-4.1,1.1-.2,1.8,3.8Z" fill="#333946"/>
    <path d="M2807.9,131.9l1.3-.2-.9,5.8-1.1.2-1.9-3.7-.7,4.1-1.1.2-2.7-5.2,1.3-.2,1.7,3.8.6-4.1,1.1-.2,1.9,3.7Z" fill="#333946"/>
    <path d="M2824.1,129.2l1.3-.2-.8,5.8-1.1.2-2-3.7-.6,4.1-1.1.2-2.8-5.1,1.3-.2,1.8,3.7.5-4.2,1.1-.2,2,3.7Z" fill="#333946"/>
    <path d="M2843,125.5l1.3-.3-.7,5.8-1.1.2-2.1-3.6-.5,4.2-1.1.2-2.9-5.1,1.3-.3,1.9,3.7.4-4.2,1.1-.2,2.1,3.7Z" fill="#333946"/>
    <path d="M2858.2,122.3l1.3-.3-.6,5.8-1,.2-2.2-3.6-.4,4.2-1.1.2-3-5,1.3-.3,2,3.7.4-4.2,1.1-.3,2.1,3.6Z" fill="#333946"/>
    <path d="M2876.1,118.1l1.3-.3-.5,5.8-1,.3-2.2-3.5-.3,4.2-1.1.3-3.1-4.9,1.3-.3,2,3.6.3-4.2,1.1-.3,2.2,3.6Z" fill="#333946"/>
    <path d="M2893.5,113.6l1.2-.3-.4,5.8-1,.3-2.3-3.5-.3,4.2-1,.3-3.2-4.9,1.2-.3,2.1,3.6.2-4.2,1.1-.3,2.3,3.5Z" fill="#333946"/>
    <path d="M2907.6,109.8l1.2-.4-.3,5.8-1,.3-2.4-3.5-.2,4.2-1,.3-3.3-4.8,1.2-.4,2.2,3.5.1-4.2,1.1-.3,2.3,3.5Z" fill="#333946"/>
    <path d="M2924.3,105l1.2-.4-.2,5.8-1,.3-2.4-3.4-.1,4.2-1,.3-3.4-4.8,1.2-.4,2.2,3.5.1-4.2,1.1-.3,2.4,3.5Z" fill="#333946"/>
    <path d="M2940.8,100l1.2-.4-.1,5.8-1,.3-2.4-3.4-.1,4.2-1,.3-3.4-4.7,1.2-.4,2.3,3.5V101l1.1-.3,2.4,3.4Z" fill="#333946"/>
    <path d="M2957,94.8l1.2-.4-.1,5.8-1,.3-2.5-3.4v4.2l-1,.3-3.5-4.7,1.2-.4,2.3,3.5V95.8l1.1-.4,2.4,3.4Z" fill="#333946"/>
    <path d="M2973,89.6l1.2-.4V95l-1,.3-2.5-3.4v4.2l-1,.3-3.5-4.7,1.2-.4,2.3,3.4V90.5l1.1-.4,2.5,3.4Z" fill="#333946"/>
    <path d="M2988.9,84.3l1.2-.4v5.8l-1,.3-2.5-3.3v4.2l-1,.3-3.5-4.7,1.2-.4,2.3,3.4-.1-4.2,1.1-.4,2.5,3.4Z" fill="#333946"/>
    <path d="M3004.7,78.9l1.2-.4.1,5.8-1,.4-2.5-3.3v4.2l-1,.4-3.6-4.6,1.2-.4,2.4,3.4-.1-4.2,1.1-.4,2.5,3.4Z" fill="#333946"/>
    <path d="M3020.4,73.4l1.2-.4.1,5.8-1,.4-2.5-3.3v4.2l-1,.4-3.6-4.6,1.2-.4,2.4,3.4-.1-4.2,1.1-.4,2.5,3.4Z" fill="#333946"/>
    <path d="M3038.9,67l1.2-.4.1,5.8-1,.4-2.5-3.3v4.2l-1,.4-3.6-4.6,1.2-.4,2.4,3.4-.1-4.2,1.1-.4,2.5,3.4Z" fill="#333946"/>
    <path d="M3054.7,61.6l1.2-.4V67l-1,.3-2.5-3.3v4.2l-1,.3-3.6-4.6,1.2-.4,2.3,3.4-.1-4.2,1.1-.4,2.5,3.4Z" fill="#333946"/>
    <path d="M3070.5,56.2l1.2-.4v5.8l-1,.3-2.5-3.3v4.2l-1,.3-3.5-4.7,1.2-.4,2.3,3.4-.1-4.2,1.1-.4,2.5,3.4Z" fill="#333946"/>
    <path d="M3086.5,50.9l1.2-.4v5.8l-1,.3-2.5-3.4v4.2l-1,.3-3.5-4.7,1.2-.4,2.3,3.4V51.8l1.1-.4,2.5,3.4Z" fill="#333946"/>
    <path d="M3102.6,45.7l1.2-.4-.1,5.8-1,.3-2.5-3.4-.1,4.2-1,.3-3.4-4.7,1.2-.4,2.3,3.5V46.7l1.1-.3,2.4,3.4Z" fill="#333946"/>
    <path d="M3119,40.6l1.2-.4L3120,46l-1,.3-2.4-3.4-.1,4.2-1,.3-3.4-4.8,1.2-.4,2.2,3.5.1-4.2,1.1-.3,2.4,3.4Z" fill="#333946"/>
    <path d="M3135.6,35.6l1.2-.4-.2,5.8-1,.3-2.4-3.4-.2,4.2-1,.3-3.3-4.8,1.2-.4,2.2,3.5.1-4.2,1.1-.3,2.3,3.5Z" fill="#333946"/>
    <path d="M3149.6,31.6l1.2-.3-.3,5.8-1,.3-2.3-3.5-.2,4.2-1.1.3-3.3-4.9,1.2-.3,2.1,3.6.2-4.2,1.1-.3,2.3,3.5Z" fill="#333946"/>
    <path d="M3166.8,27l1.3-.3-.4,5.8-1.1.3-2.3-3.5-.3,4.2-1.1.3-3.2-4.9,1.3-.3,2.1,3.6.2-4.2,1.1-.3,2.2,3.6Z" fill="#333946"/>
    <path d="M3184.5,22.6l1.3-.3-.5,5.8-1.1.2-2.2-3.6-.4,4.2-1,.2-3.1-5,1.3-.3,2,3.6.3-4.2,1.1-.3,2.2,3.6Z" fill="#333946"/>
    <path d="M3199.5,19.1l1.3-.3-.6,5.8-1.1.2-2.1-3.6-.5,4.2-1.1.2-3-5,1.3-.3,1.9,3.7.4-4.2,1.1-.2,2.1,3.6Z" fill="#333946"/>
    <path d="M3218.2,15.3l1.3-.2-.8,5.8-1.1.2-2.1-3.6-.5,4.2-1.1.2-2.9-5.1,1.3-.2,1.9,3.7.5-4.2,1.1-.2,2,3.7Z" fill="#333946"/>
    <path d="M3234.2,12.3l1.3-.2-.9,5.8-1.1.2-2-3.7-.6,4.1-1.1.2-2.8-5.1,1.3-.2,1.8,3.7.6-4.2,1.1-.2,1.9,3.7Z" fill="#333946"/>
    <path d="M3250.7,9.6l1.3-.2-1,5.8-1.1.2-1.9-3.7-.7,4.1-1.1.2-2.7-5.2,1.3-.2,1.7,3.8.7-4.1,1.1-.2,1.9,3.8Z" fill="#333946"/>
    <path d="M3267.8,7.2l1.3-.2-1.2,5.7-1.1.1L3265,9l-.8,4.1-1.1.1-2.5-5.3,1.3-.2,1.6,3.8.8-4.1,1.1-.1,1.8,3.8Z" fill="#333946"/>
    <path d="M3285.5,5.1l1.3-.1-1.3,5.7-1.1.1L3282.7,7l-.9,4.1-1.1.1-2.4-5.3,1.3-.1,1.5,3.9.9-4.1,1.1-.1,1.7,3.8Z" fill="#333946"/>
    <path d="M3300.3,3.7l1.3-.1-1.4,5.7-1.1.1-1.6-3.9-1,4.1-1.1.1-2.3-5.4,1.3-.1,1.4,3.9,1-4.1,1.1-.1,1.6,3.9Z" fill="#333946"/>
    <path d="M3319.4,2.3l1.3-.1-1.5,5.6-1.1.1L3316.6,4l-1.1,4-1.1.1-2.2-5.4,1.3-.1,1.3,3.9,1.1-4.1,1.1-.1,1.5,3.9Z" fill="#333946"/>
    <path d="M3335.5,1.6h1.3l-1.7,5.6H3334l-1.5-3.9-1.2,4h-1.1l-2-5.5h1.3l1.3,4,1.1-4h1.1l1.4,3.9Z" fill="#333946"/>
    <path d="M3352.3,1.1h1.3l-1.8,5.6h-1.1l-1.4-4-1.3,4h-1.1L3345,1.2h1.3l1.2,4,1.2-4h1.1l1.3,4Z" fill="#333946"/>
    <path d="M3371.5,1.1h1.3l-1.9,5.5h-1.1l-1.3-4-1.4,4H3366L3364.2,1h1.3l1.1,4,1.3-4h1.1l1.2,4Z" fill="#333946"/>
    <path d="M3388.3,1.4h1.3l-2,5.5h-1.1l-1.2-4-1.5,3.9h-1.1L3381,1.2h1.3l1,4,1.4-3.9h1.1l1.1,4Z" fill="#333946"/>
    <path d="M3404.5,2.1l1.3.1-2.2,5.4-1.1-.1-1.1-4-1.6,3.9-1.1-.1-1.5-5.6,1.3.1.9,4.1,1.5-3.9,1.1.1,1,4.1Z" fill="#333946"/>
    <path d="M3423.5,3.4l1.3.1-2.3,5.4-1.1-.1-1-4.1-1.6,3.9-1.1-.1-1.4-5.7,1.3.1.8,4.1,1.6-3.9,1.1.1,1,4.1Z" fill="#333946"/>
    <path d="M3438.4,4.7l1.3.1-2.4,5.3-1.1-.1-.9-4.1-1.7,3.8-1.1-.1-1.3-5.7,1.3.1.7,4.1,1.7-3.8,1.1.1.9,4.1Z" fill="#333946"/>
    <path d="M3456.1,6.7l1.3.2-2.5,5.3-1.1-.1L3453,8l-1.8,3.8-1.1-.1L3448.9,6l1.3.2.6,4.1,1.8-3.8,1.1.1.8,4.1Z" fill="#333946"/>
    <path d="M3473.2,9l1.3.2-2.7,5.2-1.1-.2-.7-4.1-1.9,3.7-1.1-.2-1-5.8,1.3.2.5,4.1,1.9-3.8,1.1.2.7,4.1Z" fill="#333946"/>
    <path d="M3489.7,11.6l1.3.2-2.8,5.1-1.1-.2-.6-4.1-2,3.7-1.1-.2-.9-5.8,1.3.2.4,4.1,1.9-3.7,1.1.2.6,4.2Z" fill="#333946"/>
    <path d="M3505.7,14.5l1.3.2-2.9,5.1-1.1-.2-.5-4.2-2.1,3.6-1.1-.2-.8-5.8,1.3.2.3,4.1,2-3.7,1.1.2.5,4.2Z" fill="#333946"/>
    <path d="M3524.4,18.3l1.3.3-3,5-1.1-.2-.4-4.2-2.1,3.6-1.1-.2-.7-5.8,1.3.3.2,4.1,2.1-3.6,1.1.2.4,4.2Z" fill="#333946"/>
    <path d="M3539.5,21.7l1.3.3-3.1,5-1.1-.2-.4-4.2-2.2,3.6-1.1-.2-.5-5.8,1.3.3.2,4.1,2.2-3.6,1.1.3.3,4.2Z" fill="#333946"/>
    <path d="M3557.2,26l1.2.3-3.2,4.9-1-.3-.3-4.2-2.3,3.5-1.1-.3-.4-5.8,1.2.3.1,4.1,2.2-3.6,1.1.3.2,4.2Z" fill="#333946"/>
    <path d="M3574.5,30.6l1.2.3-3.3,4.9-1-.3-.2-4.2-2.3,3.5-1-.3-.3-5.8,1.2.3v4.1l2.3-3.5,1.1.3.2,4.2Z" fill="#333946"/>
    <path d="M3588.5,34.5l1.2.4-3.3,4.8-1-.3-.2-4.2-2.4,3.4-1-.3-.2-5.8,1.2.4V37l2.3-3.5,1.1.3.1,4.2Z" fill="#333946"/>
    <path d="M7.1,82.6l1.3-.3-.6,5.8-1.1.2L4.6,84.7l-.5,4.2L3,89.1l-3-5,1.3-.3,1.9,3.7.4-4.2,1.1-.2,2.1,3.6Z" fill="#e0fb52"/>
    <path d="M23.9,79l1.3-.3-.7,5.8-1.1.2-2.1-3.6-.5,4.2-1.1.2-3-5,1.3-.3,1.9,3.7.4-4.2,1.1-.2,2.1,3.6Z" fill="#e0fb52"/>
    <path d="M38.7,75.9l1.3-.3-.7,5.8-1.1.2L36.1,78l-.5,4.2-1.1.2-2.9-5.1,1.3-.3,1.9,3.7.5-4.2,1.1-.2L38.5,80Z" fill="#e0fb52"/>
    <path d="M55.6,72.5l1.3-.3L56.2,78l-1.1.2L53,74.6l-.5,4.2-1.1.2-2.9-5.1,1.3-.3,1.9,3.7.5-4.2,1.1-.2,2,3.7Z" fill="#e0fb52"/>
    <path d="M72.4,69.2l1.3-.2-.8,5.8-1.1.2-2.1-3.6-.5,4.2H68.1l-2.8-5,1.3-.2,1.9,3.7.5-4.2,1.1-.2,2,3.7Z" fill="#e0fb52"/>
    <path d="M89.8,65.8l1.3-.2-.8,5.8-1.1.2-2-3.7L86.7,72l-1.1.2-2.9-5.1,1.3-.2,1.8,3.7.5-4.2,1.1-.2,2,3.7Z" fill="#e0fb52"/>
    <path d="M107.2,62.5l1.3-.2-.8,5.8-1.1.2-2-3.7-.6,4.1-1.1.2L100,63.8l1.3-.2,1.8,3.7.5-4.2,1.1-.2,2,3.7Z" fill="#e0fb52"/>
    <path d="M123.7,59.4l1.3-.2-.8,5.8-1.1.2-2-3.7-.6,4.1-1.1.2-2.8-5.1,1.3-.2,1.8,3.7.5-4.2,1.1-.2,2,3.7Z" fill="#e0fb52"/>
    <path d="M138.7,56.6l1.3-.2-.8,5.8-1.1.2-2-3.7-.6,4.1-1.1.2-2.8-5.1,1.3-.2,1.8,3.7.6-4.2,1.1-.2,2,3.7Z" fill="#e0fb52"/>
    <path d="M155.1,53.7l1.3-.2-.9,5.8-1.1.2-2-3.7-.6,4.1-1.1.2L147.9,55l1.3-.2,1.8,3.7.6-4.2,1.1-.2,2,3.7Z" fill="#e0fb52"/>
    <path d="M172.8,50.6l1.3-.2-.9,5.8-1.1.2-2-3.7-.6,4.1-1.1.2-2.8-5.1,1.3-.2,1.8,3.7.6-4.2,1.1-.2,1.9,3.7Z" fill="#e0fb52"/>
    <path d="M188.1,48l1.3-.2-.9,5.8-1.1.2-2-3.7-.7,4.1-1.1.2-2.8-5.2,1.3-.2,1.8,3.8.6-4.2,1.1-.2,1.9,3.7Z" fill="#e0fb52"/>
    <path d="M204.2,45.3l1.3-.2-.9,5.8-1.1.2-2-3.7-.7,4.1-1.1.2L197,46.5l1.3-.2,1.8,3.8.6-4.2,1.1-.2,1.9,3.7Z" fill="#e0fb52"/>
    <path d="M221.2,42.5l1.3-.2-1,5.8-1.1.2-1.9-3.7-.7,4.1-1.1.2L214,43.7l1.3-.2,1.7,3.8.6-4.1,1.1-.2,1.9,3.7Z" fill="#e0fb52"/>
    <path d="M239,39.6l1.3-.2-1,5.8-1.1.2-1.9-3.7-.7,4.1-1.1.2-2.7-5.2,1.3-.2,1.7,3.8.6-4.1,1.1-.2,1.9,3.7Z" fill="#e0fb52"/>
    <path d="M257.4,36.8l1.3-.2-1,5.8-1.1.2-1.9-3.7L254,43l-1.1.2L250.2,38l1.3-.2,1.7,3.8.7-4.1,1.1-.2,1.9,3.8Z" fill="#e0fb52"/>
    <path d="M272.5,34.5l1.3-.2-1,5.8-1.1.2-1.9-3.7-.7,4.1-1.1.2-2.7-5.2,1.3-.2,1.7,3.8.7-4.1,1.1-.2,1.9,3.8Z" fill="#e0fb52"/>
    <path d="M288.1,32.2l1.3-.2-1,5.8-1.1.2-1.9-3.7-.7,4.1-1.1.2L281,33.4l1.3-.2L284,37l.7-4.1,1.1-.2,1.8,3.8Z" fill="#e0fb52"/>
    <path d="M308.1,29.3l1.3-.2-1.1,5.7-1.1.1-1.9-3.8-.8,4.1-1.1.1-2.6-5.2,1.3-.2,1.7,3.8.7-4.1h1.2l1.8,3.8Z" fill="#e0fb52"/>
    <path d="M324.5,27l1.3-.2-1.1,5.7-1.1.1-1.8-3.8-.8,4.1-1.1.1-2.6-5.2,1.3-.2,1.6,3.8.7-4.1,1.1-.2,1.8,3.8Z" fill="#e0fb52"/>
    <path d="M341.1,24.8l1.3-.2-1.1,5.7-1.1.1-1.8-3.8-.8,4.1-1.1.1-2.6-5.3,1.3-.2,1.6,3.8.8-4.1,1.1-.1,1.8,3.8Z" fill="#e0fb52"/>
    <path d="M358.1,22.6l1.3-.2-1.2,5.7-1.1.1-1.8-3.8-.8,4.1-1.1.1-2.5-5.3,1.3-.2,1.6,3.8.8-4.1,1.1-.1,1.8,3.8Z" fill="#e0fb52"/>
    <path d="M375.2,20.5l1.3-.2L375.3,26l-1.1.1-1.8-3.8-.8,4.1-1.1.1L368,21.2l1.3-.2,1.6,3.8.8-4.1,1.1-.1,1.8,3.8Z" fill="#e0fb52"/>
    <path d="M392.6,18.5l1.3-.1-1.2,5.7-1.1.1-1.8-3.8-.9,4.1-1.1.1-2.5-5.3,1.3-.1,1.6,3.8.8-4.1,1.1-.1,1.7,3.8Z" fill="#e0fb52"/>
    <path d="M405.7,17l1.3-.1-1.2,5.7-1.1.1L403,18.9l-.9,4.1-1.1.1-2.5-5.3,1.3-.1,1.5,3.9.8-4.1,1.1-.1,1.7,3.8Z" fill="#e0fb52"/>
    <path d="M423.3,15.1l1.3-.1-1.3,5.7-1.1.1L420.5,17l-.9,4.1-1.1.1-2.4-5.3,1.3-.1,1.5,3.9.9-4.1,1.1-.1,1.7,3.8Z" fill="#e0fb52"/>
    <path d="M440.8,13.3l1.3-.1-1.3,5.7-1.1.1L438,15.2l-.9,4.1-1.1.1-2.4-5.3,1.3-.1,1.5,3.9.9-4.1,1.1-.1,1.7,3.9Z" fill="#e0fb52"/>
    <path d="M458.4,11.6l1.3-.1-1.4,5.7-1.1.1-1.7-3.8-1,4.1-1.1.1L451,12.3l1.3-.1,1.5,3.9.9-4.1,1.1-.1,1.6,3.9Z" fill="#e0fb52"/>
    <path d="M475.9,10.1l1.3-.1-1.4,5.7-1.1.1L473.1,12l-1,4.1-1.1.1-2.3-5.4,1.3-.1,1.4,3.9.9-4.1,1.1-.1,1.6,3.9Z" fill="#e0fb52"/>
    <path d="M493.4,8.7l1.3-.1-1.4,5.7-1.1.1-1.6-3.9-1,4.1-1.1.1-2.3-5.4,1.3-.1,1.4,3.9,1-4.1,1.1-.1,1.6,3.9Z" fill="#e0fb52"/>
    <path d="M510.7,7.4l1.3-.1L510.5,13l-1.1.1-1.6-3.9-1.1,4.1-1.1.1L503.4,8l1.3-.1,1.4,3.9,1-4.1,1.1-.1,1.6,3.9Z" fill="#e0fb52"/>
    <path d="M527.8,6.3l1.3-.1-1.5,5.6-1.1.1L524.9,8l-1.1,4-1.1.1-2.2-5.4,1.3-.1,1.4,3.9,1-4.1,1.1-.1,1.5,3.9Z" fill="#e0fb52"/>
    <path d="M544.7,5.3l1.3-.1-1.6,5.6-1.1.1L541.8,7l-1.1,4-1.1.1-2.1-5.4,1.3-.1,1.3,3.9,1.1-4.1,1.1-.1,1.5,3.9Z" fill="#e0fb52"/>
    <path d="M561.3,4.6l1.3-.1L561,10.1h-1.1l-1.5-3.9-1.2,4h-1.1L554,4.7l1.3-.1,1.3,3.9,1.1-4h1.1l1.5,3.9Z" fill="#e0fb52"/>
    <path d="M577.6,3.9h1.3l-1.7,5.6h-1.1l-1.4-3.9-1.2,4h-1.1l-2-5.5h1.3l1.2,4,1.2-4h1.1l1.4,4Z" fill="#e0fb52"/>
    <path d="M593.6,3.5h1.3l-1.7,5.6h-1.1l-1.4-3.9-1.2,4h-1.1l-2-5.5h1.3l1.2,4,1.2-4h1.1l1.4,4Z" fill="#e0fb52"/>
    <path d="M613.1,3.1h1.3l-1.8,5.6h-1.1l-1.4-4-1.3,4h-1.1l-1.9-5.5h1.3l1.2,4,1.2-4h1.1l1.3,4Z" fill="#e0fb52"/>
    <path d="M628.1,3.1h1.3l-1.9,5.5h-1.1l-1.3-4-1.3,4h-1.1L620.9,3h1.3l1.1,4,1.3-4h1.1L627,7Z" fill="#e0fb52"/>
    <path d="M646.6,3.3h1.3l-2,5.5h-1.1l-1.2-4-1.4,3.9h-1.1l-1.8-5.6h1.3l1,4,1.4-4h1.1l1.2,4Z" fill="#e0fb52"/>
    <path d="M664.3,3.7h1.3l-2.1,5.5h-1.1l-1.2-4-1.5,3.9h-1.1l-1.7-5.6h1.3l1,4,1.4-3.9h1.1l1.1,4Z" fill="#e0fb52"/>
    <path d="M683.5,4.5l1.3.1L682.6,10l-1.1-.1-1.1-4-1.5,3.9-1.1-.1-1.5-5.6,1.3.1.9,4.1L680,4.4l1.1.1,1.1,4.1Z" fill="#e0fb52"/>
    <path d="M700.2,5.6l1.3.1-2.3,5.4-1.1-.1-1-4.1-1.6,3.9-1.1-.1L693,5l1.3.1.8,4.1,1.6-3.9,1.1.1,1,4.1Z" fill="#e0fb52"/>
    <path d="M716.2,6.9l1.3.1-2.4,5.3-1.1-.1-.9-4.1-1.7,3.8-1.1-.1L709,6.1l1.3.1.7,4.1,1.7-3.7,1.1.1.9,4.1Z" fill="#e0fb52"/>
    <path d="M731.7,8.5l1.3.1-2.5,5.3-1.1-.1-.9-4.1-1.8,3.8-1.1-.1-1.2-5.7,1.3.1.7,4.1,1.7-3.8,1.1.1.8,4.1Z" fill="#e0fb52"/>
    <path d="M750.1,10.7l1.3.2-2.6,5.2-1.1-.1-.8-4.1-1.8,3.8-1.1-.1-1.1-5.7,1.3.2.6,4.1,1.8-3.8,1.1.2.7,4.1Z" fill="#e0fb52"/>
    <path d="M767.8,13.2l1.3.2-2.7,5.2-1.1-.2-.7-4.1L762.7,18l-1.1-.2-1-5.8,1.3.2.5,4.1,1.9-3.8,1.1.2.7,4.1Z" fill="#e0fb52"/>
    <path d="M784.8,16l1.3.2-2.8,5.1-1.1-.2-.6-4.1-2,3.7-1.1-.2-.9-5.8,1.3.2.4,4.1,2-3.7,1.1.2.6,4.2Z" fill="#e0fb52"/>
    <path d="M801.3,19l1.3.2-2.9,5.1-1.1-.2-.5-4.2L796,23.5l-1.1-.2-.8-5.8,1.3.2.3,4.1,2-3.7,1.1.2.5,4.2Z" fill="#e0fb52"/>
    <path d="M817.3,22.3l1.3.3-3,5-1.1-.2-.5-4.2-2.1,3.6-1.1-.2-.7-5.8,1.3.3.3,4.1,2.1-3.6,1.1.2.4,4.2Z" fill="#e0fb52"/>
    <path d="M832.8,25.7l1.3.3L831,31l-1.1-.2-.4-4.2-2.2,3.6-1.1-.2-.6-5.8,1.3.3.2,4.1,2.1-3.6,1.1.3.4,4.2Z" fill="#e0fb52"/>
    <path d="M851,30l1.3.3-3.1,4.9-1-.3-.3-4.2-2.2,3.5-1-.3-.5-5.8,1.3.3.1,4.1,2.2-3.6,1.1.3.3,4.2Z" fill="#e0fb52"/>
    <path d="M865.7,33.7l1.3.3-3.2,4.9-1-.3-.3-4.2-2.3,3.5-1-.3-.4-5.8,1.3.3.1,4.1,2.3-3.5,1.1.3.2,4.2Z" fill="#e0fb52"/>
    <path d="M883,38.4l1.2.3-3.3,4.8-1-.3-.2-4.2-2.4,3.5-1-.3-.3-5.8,1.2.3v4.1l2.3-3.5,1.1.3.2,4.2Z" fill="#e0fb52"/>
    <path d="M899.9,43.2l1.2.4-3.3,4.8-1-.3-.2-4.2-2.4,3.4-1-.3-.2-5.8,1.2.4-.1,4.1,2.4-3.5,1.1.3.1,4.2Z" fill="#e0fb52"/>
    <path d="M916.5,48.1l1.2.4-3.4,4.8-1-.3-.1-4.2-2.4,3.4-1-.3-.2-5.8,1.2.4-.1,4.1,2.4-3.4,1.1.3.1,4.2Z" fill="#e0fb52"/>
    <path d="M932.9,53.2l1.2.4-3.4,4.7-1-.3-.1-4.2-2.5,3.4-1-.3-.1-5.8,1.2.4-.1,4.1,2.4-3.4,1.1.3v4.2Z" fill="#e0fb52"/>
    <path d="M949,58.3l1.2.4-3.5,4.7-1-.3V58.9l-2.5,3.4-1-.3-.1-5.8,1.2.4-.2,4.1,2.4-3.4,1.1.3v4.2Z" fill="#e0fb52"/>
    <path d="M964.9,63.4l1.2.4-3.5,4.7-1-.3V64l-2.5,3.4-1-.3V61.3l1.2.4-.2,4.1,2.5-3.4,1.1.4V67Z" fill="#e0fb52"/>
    <path d="M980.7,68.6l1.2.4-3.5,4.7-1-.3V69.2l-2.5,3.4-1-.3V66.5l1.2.4-.2,4.1,2.5-3.4,1.1.4v4.2Z" fill="#e0fb52"/>
    <path d="M996.4,73.9l1.2.4L994.1,79l-1-.3V74.5l-2.5,3.3-1-.3V71.7l1.2.4-.2,4.1,2.5-3.4,1.1.4v4.2Z" fill="#e0fb52"/>
    <path d="M1012,79.1l1.2.4-3.5,4.7-1-.3V79.6l-2.5,3.4-1-.3V76.9l1.2.4-.2,4.1,2.5-3.4,1.1.4v4.2Z" fill="#e0fb52"/>
    <path d="M1027.7,84.2l1.2.4-3.5,4.7-1-.3V84.8l-2.5,3.4-1-.3V82.1l1.2.4-.2,4.1,2.5-3.4,1.1.4v4.2Z" fill="#e0fb52"/>
    <path d="M1046.3,90.3l1.2.4-3.5,4.7-1-.3V90.9l-2.5,3.4-1-.3-.1-5.8,1.2.4-.2,4.1,2.5-3.4,1.1.3v4.2Z" fill="#e0fb52"/>
    <path d="M1062.1,95.3l1.2.4-3.4,4.7-1-.3-.1-4.2-2.5,3.4-1-.3-.1-5.8,1.2.4-.1,4.1,2.4-3.4,1.1.3v4.2Z" fill="#e0fb52"/>
    <path d="M1078,100.3l1.2.4-3.4,4.8-1-.3-.1-4.2-2.4,3.4-1-.3-.2-5.8,1.2.4-.1,4.1,2.4-3.4,1.1.3.1,4.2Z" fill="#e0fb52"/>
    <path d="M1094.2,105.1l1.2.4-3.3,4.8-1-.3-.2-4.2-2.4,3.4-1-.3-.2-5.8,1.2.4-.1,4.1,2.3-3.5,1.1.3.1,4.2Z" fill="#e0fb52"/>
    <path d="M1110.6,109.8l1.2.3-3.3,4.8-1-.3-.2-4.2-2.3,3.5-1-.3-.3-5.8,1.2.3v4.1l2.3-3.5,1.1.3.2,4.2Z" fill="#e0fb52"/>
    <path d="M1127.3,114.4l1.3.3-3.2,4.9-1-.3-.3-4.2-2.3,3.5-1.1-.3-.4-5.8,1.2.3.1,4.1,2.3-3.5,1.1.3.2,4.2Z" fill="#e0fb52"/>
    <path d="M1144.3,118.8l1.3.3-3.1,4.9-1-.3-.3-4.2L1139,123l-1-.3-.5-5.8,1.2.3.1,4.1,2.2-3.6,1.1.3.3,4.2Z" fill="#e0fb52"/>
    <path d="M1158.7,122.2l1.3.3-3,5-1.1-.2-.4-4.2-2.2,3.6-1.1-.2-.6-5.8,1.3.3.2,4.1,2.1-3.6,1.1.3.4,4.2Z" fill="#e0fb52"/>
    <path d="M1176.5,126.2l1.3.3-3,5-1.1-.2-.5-4.2-2.1,3.6-1.1-.2-.7-5.8,1.3.3.3,4.1,2.1-3.6,1.1.2.4,4.2Z" fill="#e0fb52"/>
    <path d="M1191.7,129.2l1.3.2-2.9,5.1-1.1-.2-.5-4.1-2.1,3.7-1.1-.2-.8-5.8,1.3.2.3,4.1,2-3.7,1.1.2.5,4.2Z" fill="#e0fb52"/>
    <path d="M1210.6,132.7l1.3.2-2.8,5.2-1.1-.2-.7-4.1-2,3.7-1.1-.2-.9-5.8,1.3.2.4,4.1,1.9-3.7,1.1.2.6,4.2Z" fill="#e0fb52"/>
    <path d="M1226.8,135.2l1.3.2-2.7,5.2-1.1-.2-.7-4.1-1.9,3.7-1.1-.2-1-5.8,1.3.2.5,4.1,1.8-3.8,1.1.2.7,4.1Z" fill="#e0fb52"/>
    <path d="M1243.5,137.6l1.3.2-2.5,5.3-1.1-.1-.8-4.1-1.8,3.8-1.1-.1-1.1-5.7,1.3.2.6,4.1,1.8-3.8,1.1.1.8,4.1Z" fill="#e0fb52"/>
    <path d="M1260.9,139.6l1.3.1-2.4,5.3-1.1-.1-.9-4.1-1.7,3.8-1.1-.1-1.3-5.7,1.3.1.7,4.1,1.7-3.8,1.1.1.9,4.1Z" fill="#e0fb52"/>
    <path d="M1275.5,141l1.3.1-2.3,5.4-1.1-.1-1-4.1-1.7,3.8-1.1-.1-1.4-5.7,1.3.1.8,4.1,1.6-3.9,1.1.1,1,4.1Z" fill="#e0fb52"/>
    <path d="M1294.1,142.4l1.3.1-2.2,5.4-1.1-.1-1.1-4-1.6,3.9-1.1-.1-1.5-5.6,1.3.1.9,4.1,1.5-3.9,1.1.1,1,4.1Z" fill="#e0fb52"/>
    <path d="M1309.9,143.3l1.3.1-2.1,5.5H1308l-1.2-4-1.5,3.9h-1.1l-1.6-5.6,1.3.1.9,4,1.5-3.9h1.1l1.1,4Z" fill="#e0fb52"/>
    <path d="M1326.3,143.8h1.3l-2,5.5h-1.1l-1.2-4-1.4,3.9h-1.1l-1.8-5.6h1.3l1,4,1.4-4h1.1l1.2,4Z" fill="#e0fb52"/>
    <path d="M1345.4,144h1.3l-1.8,5.5h-1.1l-1.3-4-1.3,4h-1.1l-1.9-5.5h1.3l1.1,4,1.3-4h1.1l1.3,4Z" fill="#e0fb52"/>
    <path d="M1362.4,143.9h1.3l-1.7,5.6h-1.1l-1.4-3.9-1.2,4h-1.1l-2-5.5h1.3l1.2,4,1.2-4h1.1l1.4,4Z" fill="#e0fb52"/>
    <path d="M1378.7,143.3l1.3-.1-1.6,5.6-1.1.1-1.5-3.9-1.2,4-1.1.1-2.1-5.4,1.3-.1,1.3,3.9,1.1-4.1,1.1-.1,1.5,3.9Z" fill="#e0fb52"/>
    <path d="M1398,142.2l1.3-.1-1.5,5.7-1.1.1-1.6-3.9-1,4.1-1.1.1-2.2-5.4,1.3-.1,1.4,3.9,1-4.1,1.1-.1,1.6,3.9Z" fill="#e0fb52"/>
    <path d="M1413,141l1.3-.1-1.3,5.7-1.1.1-1.7-3.8-1,4.1-1.1.1-2.4-5.3,1.3-.1,1.5,3.9.9-4.1,1.1-.1,1.7,3.9Z" fill="#e0fb52"/>
    <path d="M1431,139.2l1.3-.2-1.2,5.7-1.1.1-1.8-3.8-.9,4.1-1.1.1-2.5-5.3,1.3-.2,1.6,3.8.8-4.1,1.1-.1,1.7,3.8Z" fill="#e0fb52"/>
    <path d="M1448.3,137l1.3-.2-1.1,5.7-1.1.1-1.9-3.7-.8,4.1-1.1.2L1441,138l1.3-.2,1.7,3.8.7-4.1,1.1-.2,1.8,3.8Z" fill="#e0fb52"/>
    <path d="M1464.9,134.5l1.3-.2-1,5.8-1.1.2-1.9-3.7-.7,4.1-1.1.2-2.7-5.2,1.3-.2,1.8,3.8.6-4.2,1.1-.2,1.9,3.7Z" fill="#e0fb52"/>
    <path d="M1481.1,131.7l1.3-.2-.8,5.8-1.1.2-2-3.7-.6,4.1-1.1.2L1474,133l1.3-.2,1.8,3.7.5-4.2,1.1-.2,2,3.7Z" fill="#e0fb52"/>
    <path d="M1496.7,128.7l1.3-.3-.7,5.8-1.1.2-2.1-3.6-.5,4.2-1,.2-3-5.1,1.3-.3,1.9,3.7.5-4.2,1.1-.2,2.1,3.7Z" fill="#e0fb52"/>
    <path d="M1515,124.8l1.3-.3-.6,5.8-1.1.2-2.2-3.6-.4,4.2-1.1.2-3-5,1.3-.3,2,3.6.4-4.2,1.1-.3,2.2,3.6Z" fill="#e0fb52"/>
    <path d="M1529.8,121.3l1.3-.3-.5,5.8-1.1.3-2.2-3.5-.3,4.2-1.1.3-3.1-4.9,1.3-.3,2.1,3.6.3-4.2,1.1-.3,2.2,3.6Z" fill="#e0fb52"/>
    <path d="M1547.3,116.9l1.2-.3-.4,5.8-1,.3-2.3-3.5-.3,4.2-1,.3-3.2-4.9,1.2-.3,2.1,3.6.2-4.2,1.1-.3,2.3,3.5Z" fill="#e0fb52"/>
    <path d="M1564.3,112.2l1.2-.4-.3,5.8-1,.3-2.4-3.5-.2,4.2-1,.3-3.3-4.8,1.2-.4,2.2,3.5.1-4.2,1.1-.3,2.3,3.5Z" fill="#e0fb52"/>
    <path d="M1581,107.4l1.2-.4-.2,5.8-1,.3-2.4-3.4-.1,4.2-1,.3-3.4-4.8,1.2-.4,2.2,3.5.1-4.2,1.1-.3,2.4,3.5Z" fill="#e0fb52"/>
    <path d="M1597.4,102.3l1.2-.4-.1,5.8-1,.3-2.4-3.4-.1,4.2-1,.3-3.4-4.7,1.2-.4,2.3,3.5v-4.2l1.1-.3,2.4,3.4Z" fill="#e0fb52"/>
    <path d="M1613.6,97.2l1.2-.4-.1,5.8-1,.3-2.5-3.4v4.2l-1,.3-3.5-4.7,1.2-.4,2.3,3.5V98.2l1.1-.4,2.5,3.4Z" fill="#e0fb52"/>
    <path d="M1629.6,91.9l1.2-.4v5.8l-1,.3-2.5-3.3v4.2l-1,.3-3.5-4.7,1.2-.4,2.3,3.4V92.9l1.1-.4,2.5,3.4Z" fill="#e0fb52"/>
    <path d="M1645.5,86.6l1.2-.4V92l-1,.3-2.5-3.3v4.2l-1,.3-3.5-4.6,1.2-.4,2.3,3.4-.1-4.2,1.1-.4,2.5,3.4Z" fill="#e0fb52"/>
    <path d="M1661.3,81.2l1.2-.4v5.8l-1,.4-2.5-3.3v4.2l-1,.4-3.6-4.6,1.2-.4,2.4,3.4-.1-4.2,1.1-.4,2.5,3.4Z" fill="#e0fb52"/>
    <path d="M1677,75.8l1.2-.4v5.8l-1,.4-2.5-3.3v4.2l-1,.4-3.6-4.6,1.2-.4,2.4,3.4-.1-4.2,1.1-.4,2.5,3.4Z" fill="#e0fb52"/>
    <path d="M1692.7,70.3l1.2-.4.1,5.8-1,.4-2.5-3.3V77l-1,.4-3.6-4.6,1.2-.4,2.4,3.4-.1-4.2,1.1-.4,2.5,3.4Z" fill="#e0fb52"/>
    <path d="M1708.5,64.9l1.2-.4v5.8l-1,.3-2.5-3.3v4.2l-1,.3-3.6-4.6,1.2-.4,2.3,3.4L1705,66l1.1-.4,2.5,3.4Z" fill="#e0fb52"/>
    <path d="M1724.3,59.5l1.2-.4v5.8l-1,.3-2.5-3.3v4.2l-1,.3-3.5-4.7,1.2-.4,2.3,3.4-.1-4.2,1.1-.4,2.5,3.4Z" fill="#e0fb52"/>
    <path d="M1740.3,54.2l1.2-.4v5.8l-1,.3-2.5-3.4v4.2l-1,.3-3.5-4.7,1.2-.4,2.3,3.4V55.1l1.1-.4,2.5,3.4Z" fill="#e0fb52"/>
    <path d="M1756.4,48.9l1.2-.4-.1,5.8-1,.3-2.5-3.4-.1,4.2-1,.3-3.4-4.7,1.2-.4,2.3,3.5V49.9l1.1-.3,2.4,3.4Z" fill="#e0fb52"/>
    <path d="M1772.8,43.8l1.2-.4-.2,5.8-1,.3-2.4-3.4-.1,4.2-1,.3-3.4-4.8,1.2-.4,2.2,3.5.1-4.2,1.1-.3,2.4,3.4Z" fill="#e0fb52"/>
    <path d="M1789.4,38.8l1.2-.4-.2,5.8-1,.3-2.4-3.4-.2,4.2-1,.3-3.3-4.8,1.2-.4,2.2,3.5.1-4.2,1.1-.3,2.3,3.5Z" fill="#e0fb52"/>
    <path d="M1806.3,34l1.3-.3-.3,5.8-1,.3-2.3-3.5-.2,4.2-1,.3-3.3-4.9,1.2-.3,2.1,3.6.2-4.2,1.1-.3,2.3,3.5Z" fill="#e0fb52"/>
    <path d="M1823.6,29.4l1.2-.3-.4,5.8-1.1.3-2.3-3.5-.3,4.2-1.1.3-3.2-4.9,1.3-.3,2.1,3.6.3-4.2,1.1-.3,2.2,3.6Z" fill="#e0fb52"/>
    <path d="M1838.3,25.8l1.3-.3-.5,5.8-1.1.2-2.2-3.6-.4,4.2-1.1.2-3.1-5,1.3-.3,2,3.6.3-4.2,1.1-.3,2.2,3.6Z" fill="#e0fb52"/>
    <path d="M1856.4,21.7l1.3-.3-.7,5.8-1,.2-2.1-3.6-.5,4.2-1.1.2-3-5,1.3-.3,1.9,3.7.4-4.2,1.1-.2,2.1,3.6Z" fill="#e0fb52"/>
    <path d="M1871.9,18.4l1.3-.2-.8,5.8-1.1.2-2.1-3.6-.6,4.2-1.1.2-2.9-5.1,1.3-.2,1.9,3.7.5-4.2,1.1-.2,2,3.7Z" fill="#e0fb52"/>
    <path d="M1887.9,15.5l1.3-.2-.9,5.8-1.1.2-2-3.7-.6,4.1-1.1.2-2.8-5.1,1.3-.2,1.8,3.7.6-4.2,1.1-.2,1.9,3.7Z" fill="#e0fb52"/>
    <path d="M1907.8,12.2l1.3-.2-1,5.8-1.1.2-1.9-3.7-.7,4.1-1.1.2-2.7-5.2,1.3-.2,1.7,3.8.7-4.1,1.1-.2,1.9,3.8Z" fill="#e0fb52"/>
    <path d="M1921.5,10.3l1.3-.2-1.2,5.7-1.1.1-1.8-3.8-.8,4.1-1.1.1-2.5-5.3,1.3-.2,1.6,3.8.8-4.1,1.1-.1,1.8,3.8Z" fill="#e0fb52"/>
    <path d="M1939.2,8.2l1.3-.1-1.3,5.7-1.1.1-1.7-3.8-.9,4.1-1.1.1L1932,9l1.3-.1,1.5,3.9.9-4.1,1.1-.1,1.7,3.8Z" fill="#e0fb52"/>
    <path d="M1957.6,6.5l1.3-.1-1.4,5.7-1.1.1-1.6-3.9-1,4.1-1.1.1-2.3-5.4,1.3-.1,1.4,3.9,1-4.1,1.1-.1,1.6,3.9Z" fill="#e0fb52"/>
    <path d="M1973.1,5.4l1.3-.1-1.5,5.6-1.1.1-1.5-3.9-1.1,4-1.1.1-2.2-5.4,1.3-.1,1.3,3.9,1.1-4.1,1.1-.1,1.5,3.9Z" fill="#e0fb52"/>
    <path d="M1989.2,4.6h1.3l-1.7,5.6h-1.1l-1.5-3.9-1.2,4h-1.1l-2-5.5h1.3l1.3,4,1.1-4h1.1l1.4,3.9Z" fill="#e0fb52"/>
    <path d="M2006,4.1h1.3l-1.8,5.6h-1.1l-1.4-4-1.3,4h-1.1l-1.9-5.5h1.3l1.2,4,1.2-4h1.1l1.3,4Z" fill="#e0fb52"/>
    <path d="M2025.2,4.1h1.3l-1.9,5.5h-1.1l-1.3-4-1.4,4h-1.1L2017.9,4h1.3l1.1,4,1.3-4h1.1l1.2,4Z" fill="#e0fb52"/>
    <path d="M2042,4.4h1.3l-2.1,5.5h-1.1l-1.2-4-1.5,3.9h-1.1l-1.7-5.6h1.3l1,4,1.4-3.9h1.1l1.1,4Z" fill="#e0fb52"/>
    <path d="M2061.8,5.3l1.3.1-2.2,5.4-1.1-.1-1.1-4-1.6,3.9-1.1-.1-1.5-5.6,1.3.1.9,4.1,1.5-3.9,1.1.1,1,4.1Z" fill="#e0fb52"/>
    <path d="M2077.2,6.3l1.3.1-2.3,5.4-1.1-.1-1-4.1-1.6,3.9-1.1-.1L2070,5.7l1.3.1.8,4.1,1.6-3.9,1.1.1,1,4.1Z" fill="#e0fb52"/>
    <path d="M2095.6,8l1.3.1-2.4,5.3-1.1-.1-.9-4.1-1.7,3.8-1.1-.1-1.3-5.7,1.3.1.7,4.1,1.7-3.8,1.1.1.9,4.1Z" fill="#e0fb52"/>
    <path d="M2113.2,10l1.3.2-2.6,5.3-1.1-.1-.8-4.1-1.8,3.8-1.1-.1L2106,9.3l1.3.2.6,4.1,1.8-3.8,1.1.1.8,4.1Z" fill="#e0fb52"/>
    <path d="M2130.3,12.4l1.3.2-2.7,5.2-1.1-.2-.7-4.1-1.9,3.7-1.1-.2-1-5.8,1.3.2.5,4.1,1.9-3.8,1.1.2.7,4.1Z" fill="#e0fb52"/>
    <path d="M2146.7,15l1.3.2-2.8,5.1-1.1-.2-.6-4.1-2,3.7-1.1-.2-.9-5.8,1.3.2.4,4.1,2-3.7,1.1.2.6,4.2Z" fill="#e0fb52"/>
    <path d="M2162.7,17.9l1.3.2-2.9,5.1L2160,23l-.5-4.2-2.1,3.6-1.1-.2-.8-5.8,1.3.2.3,4.1,2-3.7,1.1.2.5,4.2Z" fill="#e0fb52"/>
    <path d="M2178.2,21.1l1.3.3-3,5-1.1-.2L2175,22l-2.1,3.6-1.1-.2-.7-5.8,1.3.3.2,4.1,2.1-3.6,1.1.2.4,4.2Z" fill="#e0fb52"/>
    <path d="M2196.3,25.2l1.3.3-3.1,5-1.1-.3L2193,26l-2.2,3.6-1-.3-.5-5.8,1.3.3.2,4.1,2.2-3.6,1.1.3.3,4.2Z" fill="#e0fb52"/>
    <path d="M2210.9,28.8l1.3.3L2209,34l-1.1-.3-.2-4.1-2.3,3.5-1-.3L2204,27l1.3.3.1,4.1,2.2-3.6,1.1.3.2,4.2Z" fill="#e0fb52"/>
    <path d="M2228.3,33.3l1.2.3-3.3,4.9-1-.3L2225,34l-2.3,3.5-1-.3-.3-5.8,1.2.3v4.1l2.3-3.5,1.1.3.2,4.2Z" fill="#e0fb52"/>
    <path d="M2245.2,38.1l1.2.4-3.3,4.8-1-.3-.2-4.2-2.4,3.4-1-.3-.2-5.8,1.2.4v4.1l2.4-3.5,1.1.3.1,4.2Z" fill="#e0fb52"/>
    <path d="M2261.8,43l1.2.4-3.4,4.8-1-.3-.1-4.2-2.4,3.4-1-.3-.2-5.8,1.2.4-.1,4.1,2.4-3.4,1.1.3.1,4.2Z" fill="#e0fb52"/>
    <path d="M2278.1,48.1l1.2.4-3.5,4.7-1-.3-.1-4.2-2.5,3.4-1-.3-.1-5.8,1.2.4-.2,4.1,2.4-3.4,1.1.3v4.2Z" fill="#e0fb52"/>
    <path d="M2294.3,53.3l1.2.4-3.5,4.7-1-.3V53.9l-2.5,3.4-1-.3V51.2l1.2.4-.2,4.1,2.5-3.4,1.1.4v4.2Z" fill="#e0fb52"/>
    <path d="M2310.3,58.6l1.2.4-3.5,4.7-1-.3V59.2l-2.5,3.3-1-.3V56.4l1.2.4-.2,4.1,2.5-3.4,1.1.4-.1,4.2Z" fill="#e0fb52"/>
    <path d="M2326.1,64l1.2.4-3.6,4.6-1-.3V64.5l-2.6,3.3-1-.3V61.7l1.2.4-.2,4.1,2.5-3.4,1.1.4-.1,4.2Z" fill="#e0fb52"/>
    <path d="M2341.8,69.4l1.2.4-3.6,4.6-1-.4.1-4.2-2.6,3.3-1-.4.1-5.8,1.2.4-.2,4.1,2.5-3.4,1.1.4-.1,4.2Z" fill="#e0fb52"/>
    <path d="M2357.6,74.9l1.2.4-3.6,4.6-1-.4.1-4.2-2.6,3.3-1-.4.1-5.8,1.2.4-.2,4.1,2.5-3.4,1.1.4-.1,4.2Z" fill="#e0fb52"/>
    <path d="M2373.3,80.3l1.2.4-3.6,4.6-1-.4V80.7l-2.6,3.3-1-.4.1-5.8,1.2.4-.2,4.1,2.5-3.4,1.1.4-.1,4.2Z" fill="#e0fb52"/>
    <path d="M2391.9,86.7l1.2.4-3.5,4.7-1-.3V87.3l-2.5,3.3-1-.3V84.5l1.2.4-.2,4.1,2.5-3.4,1.1.4-.1,4.2Z" fill="#e0fb52"/>
    <path d="M2407.8,92l1.2.4-3.5,4.7-1-.3V92.6l-2.5,3.3-1-.3V89.8l1.2.4-.2,4.1,2.5-3.4,1.1.4v4.2Z" fill="#e0fb52"/>
    <path d="M2423.8,97.3l1.2.4-3.5,4.7-1-.3V97.9l-2.5,3.4-1-.3-.1-5.8,1.2.4-.2,4.1,2.4-3.4,1.1.3v4.2Z" fill="#e0fb52"/>
    <path d="M2440,102.4l1.2.4-3.4,4.7-1-.3-.1-4.2-2.4,3.4-1-.3-.1-5.8,1.2.4-.1,4.1,2.4-3.4,1.1.3v4.2Z" fill="#e0fb52"/>
    <path d="M2456.5,107.4l1.2.4-3.4,4.8-1-.3-.1-4.2-2.4,3.4-1-.3-.2-5.8,1.2.4-.1,4.1,2.4-3.5,1.1.3.1,4.2Z" fill="#e0fb52"/>
    <path d="M2470.3,111.5l1.2.4-3.3,4.8-1-.3-.2-4.2-2.4,3.5-1-.3-.3-5.8,1.2.4v4.1l2.3-3.5,1.1.3.1,4.2Z" fill="#e0fb52"/>
    <path d="M2487.3,116.2l1.2.3-3.2,4.9-1-.3-.3-4.2-2.3,3.5-1.1-.3-.4-5.8,1.3.3.1,4.1,2.3-3.5,1.1.3.2,4.2Z" fill="#e0fb52"/>
    <path d="M2504.8,120.7l1.3.3-3.1,4.9-1.1-.3-.3-4.2-2.2,3.5-1.1-.3-.5-5.8,1.3.3.1,4.1,2.2-3.6,1.1.3.3,4.2Z" fill="#e0fb52"/>
    <path d="M2519.5,124.2l1.3.3-3,5-1.1-.2-.4-4.2-2.2,3.6-1-.2-.6-5.8,1.3.3.2,4.1,2.1-3.6,1.1.3.4,4.2Z" fill="#e0fb52"/>
    <path d="M2537.9,128.2l1.3.3-2.9,5.1-1.1-.2-.5-4.2-2.1,3.6-1.1-.2-.7-5.8,1.3.3.3,4.1,2.1-3.7,1.1.2.5,4.2Z" fill="#e0fb52"/>
    <path d="M2553.6,131.3l1.3.2-2.8,5.1-1.1-.2-.6-4.1-2,3.7-1.1-.2-.8-5.8,1.3.2.4,4.1,2-3.7,1.1.2.5,4.2Z" fill="#e0fb52"/>
    <path d="M2569.7,134.1l1.3.2-2.7,5.2-1.1-.2-.7-4.1-2,3.7-1.1-.2-1-5.8,1.3.2.5,4.1,1.9-3.7,1.1.2.6,4.1Z" fill="#e0fb52"/>
    <path d="M2586.5,136.7l1.3.2-2.6,5.2-1.1-.1-.8-4.1-1.9,3.8-1.1-.1-1.1-5.7,1.3.2.6,4.1,1.8-3.8,1.1.2.7,4.1Z" fill="#e0fb52"/>
    <path d="M2603.8,138.9l1.3.1-2.5,5.3-1.1-.1-.9-4.1-1.8,3.8-1.1-.1-1.2-5.7,1.3.1.7,4.1,1.7-3.8,1.1.1.8,4.1Z" fill="#e0fb52"/>
    <path d="M2621.8,140.8l1.3.1-2.4,5.4-1.1-.1-1-4.1-1.7,3.8-1.1-.1-1.3-5.7,1.3.1.8,4.1,1.6-3.9,1.1.1.9,4.1Z" fill="#e0fb52"/>
    <path d="M2636.8,142.1l1.3.1-2.2,5.4-1.1-.1-1.1-4.1-1.6,3.9-1.1-.1-1.5-5.7,1.3.1.8,4.1,1.6-3.9,1.1.1,1,4.1Z" fill="#e0fb52"/>
    <path d="M2656.2,143.2l1.3.1-2.1,5.5h-1.1l-1.1-4-1.5,3.9h-1.1l-1.6-5.6,1.3.1.9,4,1.5-3.9,1.1.1,1.1,4Z" fill="#e0fb52"/>
    <path d="M2672.6,143.8h1.3l-2,5.5h-1.1l-1.2-4-1.4,3.9h-1.1l-1.7-5.6h1.3l1,4,1.4-4h1.1l1.2,4Z" fill="#e0fb52"/>
    <path d="M2691.6,144h1.3l-1.8,5.5H2690l-1.3-4-1.3,4h-1.1l-1.9-5.5h1.3l1.1,4,1.3-4h1.1l1.3,4Z" fill="#e0fb52"/>
    <path d="M2708.7,143.8h1.3l-1.7,5.6h-1.1l-1.4-3.9-1.2,4h-1.1l-2-5.5h1.3l1.2,4,1.2-4h1.1l1.4,4Z" fill="#e0fb52"/>
    <path d="M2725,143.3l1.3-.1-1.6,5.6-1.1.1-1.5-3.9-1.1,4-1.1.1-2.1-5.4,1.3-.1,1.3,3.9,1.1-4.1,1.1-.1,1.5,3.9Z" fill="#e0fb52"/>
    <path d="M2740.7,142.4l1.3-.1-1.5,5.7-1.1.1-1.6-3.9-1,4.1-1.1.1-2.2-5.4,1.3-.1,1.4,3.9,1-4.1,1.1-.1,1.6,3.9Z" fill="#e0fb52"/>
    <path d="M2759.3,141l1.3-.1-1.3,5.7-1.1.1-1.7-3.8-1,4.1-1.1.1-2.4-5.3,1.3-.1,1.5,3.9.9-4.1,1.1-.1,1.6,3.9Z" fill="#e0fb52"/>
    <path d="M2773.8,139.5l1.3-.1-1.2,5.7-1.1.1-1.8-3.8-.9,4.1-1.1.1-2.5-5.3,1.3-.1,1.6,3.8.8-4.1,1.1-.1,1.7,3.8Z" fill="#e0fb52"/>
    <path d="M2791.2,137.4l1.3-.2-1.1,5.7-1.1.1-1.9-3.8-.8,4.1-1.1.1-2.6-5.2,1.3-.2,1.6,3.8.7-4.1,1.1-.2,1.8,3.8Z" fill="#e0fb52"/>
    <path d="M2807.9,134.9l1.3-.2-.9,5.8-1.1.2-1.9-3.7-.7,4.1-1.1.2-2.7-5.2,1.3-.2,1.7,3.8.6-4.1,1.1-.2,1.9,3.7Z" fill="#e0fb52"/>
    <path d="M2824.1,132.2l1.3-.2-.8,5.8-1.1.2-2-3.7-.6,4.1-1.1.2-2.8-5.1,1.3-.2,1.8,3.7.5-4.2,1.1-.2,2,3.7Z" fill="#e0fb52"/>
    <path d="M2843,128.5l1.3-.3-.7,5.8-1.1.2-2.1-3.6-.5,4.2-1.1.2-2.9-5.1,1.3-.3,1.9,3.7.4-4.2,1.1-.2,2.1,3.7Z" fill="#e0fb52"/>
    <path d="M2858.2,125.3l1.3-.3-.6,5.8-1,.2-2.2-3.6-.4,4.2-1.1.2-3-5,1.3-.3,2,3.7.4-4.2,1.1-.3,2.1,3.6Z" fill="#e0fb52"/>
    <path d="M2876.1,121.1l1.3-.3-.5,5.8-1,.3-2.2-3.5-.3,4.2-1.1.3-3.1-4.9,1.3-.3,2,3.6.3-4.2,1.1-.3,2.2,3.6Z" fill="#e0fb52"/>
    <path d="M2893.5,116.6l1.2-.3-.4,5.8-1,.3-2.3-3.5-.3,4.2-1,.3-3.2-4.9,1.2-.3,2.1,3.6.2-4.2,1.1-.3,2.3,3.5Z" fill="#e0fb52"/>
    <path d="M2907.6,112.8l1.2-.4-.3,5.8-1,.3-2.4-3.5-.2,4.2-1,.3-3.3-4.8,1.2-.4,2.2,3.5.1-4.2,1.1-.3,2.3,3.5Z" fill="#e0fb52"/>
    <path d="M2924.3,108l1.2-.4-.2,5.8-1,.3-2.4-3.4-.1,4.2-1,.3-3.4-4.8,1.2-.4,2.2,3.5.1-4.2,1.1-.3,2.4,3.5Z" fill="#e0fb52"/>
    <path d="M2940.8,103l1.2-.4-.1,5.8-1,.3-2.4-3.4-.1,4.2-1,.3-3.4-4.7,1.2-.4,2.3,3.5V104l1.1-.3,2.4,3.4Z" fill="#e0fb52"/>
    <path d="M2957,97.8l1.2-.4-.1,5.8-1,.3-2.5-3.4v4.2l-1,.3-3.5-4.7,1.2-.4,2.3,3.5V98.8l1.1-.4,2.4,3.4Z" fill="#e0fb52"/>
    <path d="M2973,92.6l1.2-.4V98l-1,.3-2.5-3.4v4.2l-1,.3-3.5-4.7,1.2-.4,2.3,3.4V93.5l1.1-.4,2.5,3.4Z" fill="#e0fb52"/>
    <path d="M2988.9,87.3l1.2-.4v5.8l-1,.3-2.5-3.3v4.2l-1,.3-3.5-4.7,1.2-.4,2.3,3.4-.1-4.2,1.1-.4,2.5,3.4Z" fill="#e0fb52"/>
    <path d="M3004.7,81.9l1.2-.4.1,5.8-1,.4-2.5-3.3v4.2l-1,.4-3.6-4.6,1.2-.4,2.4,3.4-.1-4.2,1.1-.4,2.5,3.4Z" fill="#e0fb52"/>
    <path d="M3020.4,76.4l1.2-.4.1,5.8-1,.4-2.5-3.3v4.2l-1,.4-3.6-4.6,1.2-.4,2.4,3.4-.1-4.2,1.1-.4,2.5,3.4Z" fill="#e0fb52"/>
    <path d="M3038.9,70l1.2-.4.1,5.8-1,.4-2.5-3.3v4.2l-1,.4-3.6-4.6,1.2-.4,2.4,3.4-.1-4.2,1.1-.4,2.5,3.4Z" fill="#e0fb52"/>
    <path d="M3054.7,64.6l1.2-.4V70l-1,.3-2.5-3.3v4.2l-1,.3-3.6-4.6,1.2-.4,2.3,3.4-.1-4.2,1.1-.4,2.5,3.4Z" fill="#e0fb52"/>
    <path d="M3070.5,59.2l1.2-.4v5.8l-1,.3-2.5-3.3v4.2l-1,.3-3.5-4.7,1.2-.4,2.3,3.4-.1-4.2,1.1-.4,2.5,3.4Z" fill="#e0fb52"/>
    <path d="M3086.5,53.9l1.2-.4v5.8l-1,.3-2.5-3.4v4.2l-1,.3-3.5-4.7,1.2-.4,2.3,3.4V54.8l1.1-.4,2.5,3.4Z" fill="#e0fb52"/>
    <path d="M3102.6,48.7l1.2-.4-.1,5.8-1,.3-2.5-3.4-.1,4.2-1,.3-3.4-4.7,1.2-.4,2.3,3.5V49.7l1.1-.3,2.4,3.4Z" fill="#e0fb52"/>
    <path d="M3119,43.6l1.2-.4L3120,49l-1,.3-2.4-3.4-.1,4.2-1,.3-3.4-4.8,1.2-.4,2.2,3.5.1-4.2,1.1-.3,2.4,3.4Z" fill="#e0fb52"/>
    <path d="M3135.6,38.6l1.2-.4-.2,5.8-1,.3-2.4-3.4-.2,4.2-1,.3-3.3-4.8,1.2-.4,2.2,3.5.1-4.2,1.1-.3,2.3,3.5Z" fill="#e0fb52"/>
    <path d="M3149.6,34.6l1.2-.3-.3,5.8-1,.3-2.3-3.5-.2,4.2-1.1.3-3.3-4.9,1.2-.3,2.1,3.6.2-4.2,1.1-.3,2.3,3.5Z" fill="#e0fb52"/>
    <path d="M3166.8,30l1.3-.3-.4,5.8-1.1.3-2.3-3.5-.3,4.2-1.1.3-3.2-4.9,1.3-.3,2.1,3.6.2-4.2,1.1-.3,2.2,3.6Z" fill="#e0fb52"/>
    <path d="M3184.5,25.6l1.3-.3-.5,5.8-1.1.2-2.2-3.6-.4,4.2-1,.2-3.1-5,1.3-.3,2,3.6.3-4.2,1.1-.3,2.2,3.6Z" fill="#e0fb52"/>
    <path d="M3199.5,22.1l1.3-.3-.6,5.8-1.1.2-2.1-3.6-.5,4.2-1.1.2-3-5,1.3-.3,1.9,3.7.4-4.2,1.1-.2,2.1,3.6Z" fill="#e0fb52"/>
    <path d="M3218.2,18.3l1.3-.2-.8,5.8-1.1.2-2.1-3.6-.5,4.2-1.1.2-2.9-5.1,1.3-.2,1.9,3.7.5-4.2,1.1-.2,2,3.7Z" fill="#e0fb52"/>
    <path d="M3234.2,15.3l1.3-.2-.9,5.8-1.1.2-2-3.7-.6,4.1-1.1.2-2.8-5.1,1.3-.2,1.8,3.7.6-4.2,1.1-.2,1.9,3.7Z" fill="#e0fb52"/>
    <path d="M3250.7,12.6l1.3-.2-1,5.8-1.1.2-1.9-3.7-.7,4.1-1.1.2-2.7-5.2,1.3-.2,1.7,3.8.7-4.1,1.1-.2,1.9,3.8Z" fill="#e0fb52"/>
    <path d="M3267.8,10.2l1.3-.2-1.2,5.7-1.1.1L3265,12l-.8,4.1-1.1.1-2.5-5.3,1.3-.2,1.6,3.8.8-4.1,1.1-.1,1.8,3.8Z" fill="#e0fb52"/>
    <path d="M3285.5,8.1l1.3-.1-1.3,5.7-1.1.1-1.7-3.8-.9,4.1-1.1.1-2.4-5.3,1.3-.1,1.5,3.9.9-4.1,1.1-.1,1.7,3.8Z" fill="#e0fb52"/>
    <path d="M3300.3,6.7l1.3-.1-1.4,5.7-1.1.1-1.6-3.9-1,4.1-1.1.1-2.3-5.4,1.3-.1,1.4,3.9,1-4.1,1.1-.1,1.6,3.9Z" fill="#e0fb52"/>
    <path d="M3319.4,5.3l1.3-.1-1.5,5.6-1.1.1L3316.6,7l-1.1,4-1.1.1-2.2-5.4,1.3-.1,1.3,3.9,1.1-4.1,1.1-.1,1.5,3.9Z" fill="#e0fb52"/>
    <path d="M3335.5,4.6h1.3l-1.7,5.6H3334l-1.5-3.9-1.2,4h-1.1l-2-5.5h1.3l1.3,4,1.1-4h1.1l1.4,3.9Z" fill="#e0fb52"/>
    <path d="M3352.3,4.1h1.3l-1.8,5.6h-1.1l-1.4-4-1.3,4h-1.1L3345,4.2h1.3l1.2,4,1.2-4h1.1l1.3,4Z" fill="#e0fb52"/>
    <path d="M3371.5,4.1h1.3l-1.9,5.5h-1.1l-1.3-4-1.4,4H3366L3364.2,4h1.3l1.1,4,1.3-4h1.1l1.2,4Z" fill="#e0fb52"/>
    <path d="M3388.3,4.4h1.3l-2,5.5h-1.1l-1.2-4-1.5,3.9h-1.1L3381,4.2h1.3l1,4,1.4-3.9h1.1l1.1,4Z" fill="#e0fb52"/>
    <path d="M3404.5,5.1l1.3.1-2.2,5.4-1.1-.1-1.1-4-1.6,3.9-1.1-.1-1.5-5.6,1.3.1.9,4.1,1.5-3.9,1.1.1,1,4.1Z" fill="#e0fb52"/>
    <path d="M3423.5,6.4l1.3.1-2.3,5.4-1.1-.1-1-4.1-1.6,3.9-1.1-.1-1.4-5.7,1.3.1.8,4.1,1.6-3.9,1.1.1,1,4.1Z" fill="#e0fb52"/>
    <path d="M3438.4,7.7l1.3.1-2.4,5.3-1.1-.1-.9-4.1-1.7,3.8-1.1-.1-1.3-5.7,1.3.1.7,4.1,1.7-3.8,1.1.1.9,4.1Z" fill="#e0fb52"/>
    <path d="M3456.1,9.7l1.3.2-2.5,5.3-1.1-.1L3453,11l-1.8,3.8-1.1-.1L3448.9,9l1.3.2.6,4.1,1.8-3.8,1.1.1.8,4.1Z" fill="#e0fb52"/>
    <path d="M3473.2,12l1.3.2-2.7,5.2-1.1-.2-.7-4.1-1.9,3.7-1.1-.2-1-5.8,1.3.2.5,4.1,1.9-3.8,1.1.2.7,4.1Z" fill="#e0fb52"/>
    <path d="M3489.7,14.6l1.3.2-2.8,5.1-1.1-.2-.6-4.1-2,3.7-1.1-.2-.9-5.8,1.3.2.4,4.1,1.9-3.7,1.1.2.6,4.2Z" fill="#e0fb52"/>
    <path d="M3505.7,17.5l1.3.2-2.9,5.1-1.1-.2-.5-4.2-2.1,3.6-1.1-.2-.8-5.8,1.3.2.3,4.1,2-3.7,1.1.2.5,4.2Z" fill="#e0fb52"/>
    <path d="M3524.4,21.3l1.3.3-3,5-1.1-.2-.4-4.2-2.1,3.6-1.1-.2-.7-5.8,1.3.3.2,4.1,2.1-3.6,1.1.2.4,4.2Z" fill="#e0fb52"/>
    <path d="M3539.5,24.7l1.3.3-3.1,5-1.1-.2-.4-4.2-2.2,3.6-1.1-.2-.5-5.8,1.3.3.2,4.1,2.2-3.6,1.1.3.3,4.2Z" fill="#e0fb52"/>
    <path d="M3557.2,29l1.2.3-3.2,4.9-1-.3-.3-4.2-2.3,3.5-1.1-.3-.4-5.8,1.2.3.1,4.1,2.2-3.6,1.1.3.2,4.2Z" fill="#e0fb52"/>
    <path d="M3574.5,33.6l1.2.3-3.3,4.9-1-.3-.2-4.2-2.3,3.5-1-.3-.3-5.8,1.2.3v4.1l2.3-3.5,1.1.3.2,4.2Z" fill="#e0fb52"/>
    <path d="M3588.5,37.5l1.2.4-3.3,4.8-1-.3-.2-4.2-2.4,3.4-1-.3-.2-5.8,1.2.4V40l2.3-3.5,1.1.3.1,4.2Z" fill="#e0fb52"/>
    <path d="M7.1,82.6l1.3-.3-.6,5.8-1.1.2L4.6,84.7l-.5,4.2L3,89.1l-3-5,1.3-.3,1.9,3.7.4-4.2,1.1-.2,2.1,3.6Z" fill="#e0fb52"/>
    <path d="M23.9,79l1.3-.3-.7,5.8-1.1.2-2.1-3.6-.5,4.2-1.1.2-3-5,1.3-.3,1.9,3.7.4-4.2,1.1-.2,2.1,3.6Z" fill="#e0fb52"/>
    <path d="M38.7,75.9l1.3-.3-.7,5.8-1.1.2L36.1,78l-.5,4.2-1.1.2-2.9-5.1,1.3-.3,1.9,3.7.5-4.2,1.1-.2L38.5,80Z" fill="#e0fb52"/>
    <path d="M55.6,72.5l1.3-.3L56.2,78l-1.1.2L53,74.6l-.5,4.2-1.1.2-2.9-5.1,1.3-.3,1.9,3.7.5-4.2,1.1-.2,2,3.7Z" fill="#e0fb52"/>
    <path d="M72.4,69.2l1.3-.2-.8,5.8-1.1.2-2.1-3.6-.5,4.2H68.1l-2.8-5,1.3-.2,1.9,3.7.5-4.2,1.1-.2,2,3.7Z" fill="#e0fb52"/>
    <path d="M89.8,65.8l1.3-.2-.8,5.8-1.1.2-2-3.7L86.7,72l-1.1.2-2.9-5.1,1.3-.2,1.8,3.7.5-4.2,1.1-.2,2,3.7Z" fill="#e0fb52"/>
    <path d="M107.2,62.5l1.3-.2-.8,5.8-1.1.2-2-3.7-.6,4.1-1.1.2L100,63.8l1.3-.2,1.8,3.7.5-4.2,1.1-.2,2,3.7Z" fill="#e0fb52"/>
    <path d="M123.7,59.4l1.3-.2-.8,5.8-1.1.2-2-3.7-.6,4.1-1.1.2-2.8-5.1,1.3-.2,1.8,3.7.5-4.2,1.1-.2,2,3.7Z" fill="#e0fb52"/>
    <path d="M138.7,56.6l1.3-.2-.8,5.8-1.1.2-2-3.7-.6,4.1-1.1.2-2.8-5.1,1.3-.2,1.8,3.7.6-4.2,1.1-.2,2,3.7Z" fill="#e0fb52"/>
    <path d="M155.1,53.7l1.3-.2-.9,5.8-1.1.2-2-3.7-.6,4.1-1.1.2L147.9,55l1.3-.2,1.8,3.7.6-4.2,1.1-.2,2,3.7Z" fill="#e0fb52"/>
    <path d="M172.8,50.6l1.3-.2-.9,5.8-1.1.2-2-3.7-.6,4.1-1.1.2-2.8-5.1,1.3-.2,1.8,3.7.6-4.2,1.1-.2,1.9,3.7Z" fill="#e0fb52"/>
    <path d="M188.1,48l1.3-.2-.9,5.8-1.1.2-2-3.7-.7,4.1-1.1.2-2.8-5.2,1.3-.2,1.8,3.8.6-4.2,1.1-.2,1.9,3.7Z" fill="#e0fb52"/>
    <path d="M204.2,45.3l1.3-.2-.9,5.8-1.1.2-2-3.7-.7,4.1-1.1.2L197,46.5l1.3-.2,1.8,3.8.6-4.2,1.1-.2,1.9,3.7Z" fill="#e0fb52"/>
    <path d="M221.2,42.5l1.3-.2-1,5.8-1.1.2-1.9-3.7-.7,4.1-1.1.2L214,43.7l1.3-.2,1.7,3.8.6-4.1,1.1-.2,1.9,3.7Z" fill="#e0fb52"/>
    <path d="M239,39.6l1.3-.2-1,5.8-1.1.2-1.9-3.7-.7,4.1-1.1.2-2.7-5.2,1.3-.2,1.7,3.8.6-4.1,1.1-.2,1.9,3.7Z" fill="#e0fb52"/>
    <path d="M257.4,36.8l1.3-.2-1,5.8-1.1.2-1.9-3.7L254,43l-1.1.2L250.2,38l1.3-.2,1.7,3.8.7-4.1,1.1-.2,1.9,3.8Z" fill="#e0fb52"/>
    <path d="M272.5,34.5l1.3-.2-1,5.8-1.1.2-1.9-3.7-.7,4.1-1.1.2-2.7-5.2,1.3-.2,1.7,3.8.7-4.1,1.1-.2,1.9,3.8Z" fill="#e0fb52"/>
    <path d="M288.1,32.2l1.3-.2-1,5.8-1.1.2-1.9-3.7-.7,4.1-1.1.2L281,33.4l1.3-.2L284,37l.7-4.1,1.1-.2,1.8,3.8Z" fill="#e0fb52"/>
    <path d="M308.1,29.3l1.3-.2-1.1,5.7-1.1.1-1.9-3.8-.8,4.1-1.1.1-2.6-5.2,1.3-.2,1.7,3.8.7-4.1h1.2l1.8,3.8Z" fill="#e0fb52"/>
    <path d="M324.5,27l1.3-.2-1.1,5.7-1.1.1-1.8-3.8-.8,4.1-1.1.1-2.6-5.2,1.3-.2,1.6,3.8.7-4.1,1.1-.2,1.8,3.8Z" fill="#e0fb52"/>
    <path d="M341.1,24.8l1.3-.2-1.1,5.7-1.1.1-1.8-3.8-.8,4.1-1.1.1-2.6-5.3,1.3-.2,1.6,3.8.8-4.1,1.1-.1,1.8,3.8Z" fill="#e0fb52"/>
    <path d="M358.1,22.6l1.3-.2-1.2,5.7-1.1.1-1.8-3.8-.8,4.1-1.1.1-2.5-5.3,1.3-.2,1.6,3.8.8-4.1,1.1-.1,1.8,3.8Z" fill="#e0fb52"/>
    <path d="M375.2,20.5l1.3-.2L375.3,26l-1.1.1-1.8-3.8-.8,4.1-1.1.1L368,21.2l1.3-.2,1.6,3.8.8-4.1,1.1-.1,1.8,3.8Z" fill="#e0fb52"/>
    <path d="M392.6,18.5l1.3-.1-1.2,5.7-1.1.1-1.8-3.8-.9,4.1-1.1.1-2.5-5.3,1.3-.1,1.6,3.8.8-4.1,1.1-.1,1.7,3.8Z" fill="#e0fb52"/>
    <path d="M405.7,17l1.3-.1-1.2,5.7-1.1.1L403,18.9l-.9,4.1-1.1.1-2.5-5.3,1.3-.1,1.5,3.9.8-4.1,1.1-.1,1.7,3.8Z" fill="#e0fb52"/>
    <path d="M423.3,15.1l1.3-.1-1.3,5.7-1.1.1L420.5,17l-.9,4.1-1.1.1-2.4-5.3,1.3-.1,1.5,3.9.9-4.1,1.1-.1,1.7,3.8Z" fill="#e0fb52"/>
    <path d="M440.8,13.3l1.3-.1-1.3,5.7-1.1.1L438,15.2l-.9,4.1-1.1.1-2.4-5.3,1.3-.1,1.5,3.9.9-4.1,1.1-.1,1.7,3.9Z" fill="#e0fb52"/>
    <path d="M458.4,11.6l1.3-.1-1.4,5.7-1.1.1-1.7-3.8-1,4.1-1.1.1L451,12.3l1.3-.1,1.5,3.9.9-4.1,1.1-.1,1.6,3.9Z" fill="#e0fb52"/>
    <path d="M475.9,10.1l1.3-.1-1.4,5.7-1.1.1L473.1,12l-1,4.1-1.1.1-2.3-5.4,1.3-.1,1.4,3.9.9-4.1,1.1-.1,1.6,3.9Z" fill="#e0fb52"/>
    <path d="M493.4,8.7l1.3-.1-1.4,5.7-1.1.1-1.6-3.9-1,4.1-1.1.1-2.3-5.4,1.3-.1,1.4,3.9,1-4.1,1.1-.1,1.6,3.9Z" fill="#e0fb52"/>
    <path d="M510.7,7.4l1.3-.1L510.5,13l-1.1.1-1.6-3.9-1.1,4.1-1.1.1L503.4,8l1.3-.1,1.4,3.9,1-4.1,1.1-.1,1.6,3.9Z" fill="#e0fb52"/>
    <path d="M527.8,6.3l1.3-.1-1.5,5.6-1.1.1L524.9,8l-1.1,4-1.1.1-2.2-5.4,1.3-.1,1.4,3.9,1-4.1,1.1-.1,1.5,3.9Z" fill="#e0fb52"/>
    <path d="M544.7,5.3l1.3-.1-1.6,5.6-1.1.1L541.8,7l-1.1,4-1.1.1-2.1-5.4,1.3-.1,1.3,3.9,1.1-4.1,1.1-.1,1.5,3.9Z" fill="#e0fb52"/>
    <path d="M561.3,4.6l1.3-.1L561,10.1h-1.1l-1.5-3.9-1.2,4h-1.1L554,4.7l1.3-.1,1.3,3.9,1.1-4h1.1l1.5,3.9Z" fill="#e0fb52"/>
    <path d="M577.6,3.9h1.3l-1.7,5.6h-1.1l-1.4-3.9-1.2,4h-1.1l-2-5.5h1.3l1.2,4,1.2-4h1.1l1.4,4Z" fill="#e0fb52"/>
    <path d="M593.6,3.5h1.3l-1.7,5.6h-1.1l-1.4-3.9-1.2,4h-1.1l-2-5.5h1.3l1.2,4,1.2-4h1.1l1.4,4Z" fill="#e0fb52"/>
    <path d="M613.1,3.1h1.3l-1.8,5.6h-1.1l-1.4-4-1.3,4h-1.1l-1.9-5.5h1.3l1.2,4,1.2-4h1.1l1.3,4Z" fill="#e0fb52"/>
    <path d="M628.1,3.1h1.3l-1.9,5.5h-1.1l-1.3-4-1.3,4h-1.1L620.9,3h1.3l1.1,4,1.3-4h1.1L627,7Z" fill="#e0fb52"/>
    <path d="M646.6,3.3h1.3l-2,5.5h-1.1l-1.2-4-1.4,3.9h-1.1l-1.8-5.6h1.3l1,4,1.4-4h1.1l1.2,4Z" fill="#e0fb52"/>
    <path d="M664.3,3.7h1.3l-2.1,5.5h-1.1l-1.2-4-1.5,3.9h-1.1l-1.7-5.6h1.3l1,4,1.4-3.9h1.1l1.1,4Z" fill="#e0fb52"/>
    <path d="M683.5,4.5l1.3.1L682.6,10l-1.1-.1-1.1-4-1.5,3.9-1.1-.1-1.5-5.6,1.3.1.9,4.1L680,4.4l1.1.1,1.1,4.1Z" fill="#e0fb52"/>
    <path d="M700.2,5.6l1.3.1-2.3,5.4-1.1-.1-1-4.1-1.6,3.9-1.1-.1L693,5l1.3.1.8,4.1,1.6-3.9,1.1.1,1,4.1Z" fill="#e0fb52"/>
    <path d="M716.2,6.9l1.3.1-2.4,5.3-1.1-.1-.9-4.1-1.7,3.8-1.1-.1L709,6.1l1.3.1.7,4.1,1.7-3.7,1.1.1.9,4.1Z" fill="#e0fb52"/>
    <path d="M731.7,8.5l1.3.1-2.5,5.3-1.1-.1-.9-4.1-1.8,3.8-1.1-.1-1.2-5.7,1.3.1.7,4.1,1.7-3.8,1.1.1.8,4.1Z" fill="#e0fb52"/>
    <path d="M750.1,10.7l1.3.2-2.6,5.2-1.1-.1-.8-4.1-1.8,3.8-1.1-.1-1.1-5.7,1.3.2.6,4.1,1.8-3.8,1.1.2.7,4.1Z" fill="#e0fb52"/>
    <path d="M767.8,13.2l1.3.2-2.7,5.2-1.1-.2-.7-4.1L762.7,18l-1.1-.2-1-5.8,1.3.2.5,4.1,1.9-3.8,1.1.2.7,4.1Z" fill="#e0fb52"/>
    <path d="M784.8,16l1.3.2-2.8,5.1-1.1-.2-.6-4.1-2,3.7-1.1-.2-.9-5.8,1.3.2.4,4.1,2-3.7,1.1.2.6,4.2Z" fill="#e0fb52"/>
    <path d="M801.3,19l1.3.2-2.9,5.1-1.1-.2-.5-4.2L796,23.5l-1.1-.2-.8-5.8,1.3.2.3,4.1,2-3.7,1.1.2.5,4.2Z" fill="#e0fb52"/>
    <path d="M817.3,22.3l1.3.3-3,5-1.1-.2-.5-4.2-2.1,3.6-1.1-.2-.7-5.8,1.3.3.3,4.1,2.1-3.6,1.1.2.4,4.2Z" fill="#e0fb52"/>
    <path d="M832.8,25.7l1.3.3L831,31l-1.1-.2-.4-4.2-2.2,3.6-1.1-.2-.6-5.8,1.3.3.2,4.1,2.1-3.6,1.1.3.4,4.2Z" fill="#e0fb52"/>
    <path d="M851,30l1.3.3-3.1,4.9-1-.3-.3-4.2-2.2,3.5-1-.3-.5-5.8,1.3.3.1,4.1,2.2-3.6,1.1.3.3,4.2Z" fill="#e0fb52"/>
    <path d="M865.7,33.7l1.3.3-3.2,4.9-1-.3-.3-4.2-2.3,3.5-1-.3-.4-5.8,1.3.3.1,4.1,2.3-3.5,1.1.3.2,4.2Z" fill="#e0fb52"/>
    <path d="M883,38.4l1.2.3-3.3,4.8-1-.3-.2-4.2-2.4,3.5-1-.3-.3-5.8,1.2.3v4.1l2.3-3.5,1.1.3.2,4.2Z" fill="#e0fb52"/>
    <path d="M899.9,43.2l1.2.4-3.3,4.8-1-.3-.2-4.2-2.4,3.4-1-.3-.2-5.8,1.2.4-.1,4.1,2.4-3.5,1.1.3.1,4.2Z" fill="#e0fb52"/>
    <path d="M916.5,48.1l1.2.4-3.4,4.8-1-.3-.1-4.2-2.4,3.4-1-.3-.2-5.8,1.2.4-.1,4.1,2.4-3.4,1.1.3.1,4.2Z" fill="#e0fb52"/>
    <path d="M932.9,53.2l1.2.4-3.4,4.7-1-.3-.1-4.2-2.5,3.4-1-.3-.1-5.8,1.2.4-.1,4.1,2.4-3.4,1.1.3v4.2Z" fill="#e0fb52"/>
    <path d="M949,58.3l1.2.4-3.5,4.7-1-.3V58.9l-2.5,3.4-1-.3-.1-5.8,1.2.4-.2,4.1,2.4-3.4,1.1.3v4.2Z" fill="#e0fb52"/>
    <path d="M964.9,63.4l1.2.4-3.5,4.7-1-.3V64l-2.5,3.4-1-.3V61.3l1.2.4-.2,4.1,2.5-3.4,1.1.4V67Z" fill="#e0fb52"/>
    <path d="M980.7,68.6l1.2.4-3.5,4.7-1-.3V69.2l-2.5,3.4-1-.3V66.5l1.2.4-.2,4.1,2.5-3.4,1.1.4v4.2Z" fill="#e0fb52"/>
    <path d="M996.4,73.9l1.2.4L994.1,79l-1-.3V74.5l-2.5,3.3-1-.3V71.7l1.2.4-.2,4.1,2.5-3.4,1.1.4v4.2Z" fill="#e0fb52"/>
    <path d="M1012,79.1l1.2.4-3.5,4.7-1-.3V79.6l-2.5,3.4-1-.3V76.9l1.2.4-.2,4.1,2.5-3.4,1.1.4v4.2Z" fill="#e0fb52"/>
    <path d="M1027.7,84.2l1.2.4-3.5,4.7-1-.3V84.8l-2.5,3.4-1-.3V82.1l1.2.4-.2,4.1,2.5-3.4,1.1.4v4.2Z" fill="#e0fb52"/>
    <path d="M1046.3,90.3l1.2.4-3.5,4.7-1-.3V90.9l-2.5,3.4-1-.3-.1-5.8,1.2.4-.2,4.1,2.5-3.4,1.1.3v4.2Z" fill="#e0fb52"/>
    <path d="M1062.1,95.3l1.2.4-3.4,4.7-1-.3-.1-4.2-2.5,3.4-1-.3-.1-5.8,1.2.4-.1,4.1,2.4-3.4,1.1.3v4.2Z" fill="#e0fb52"/>
    <path d="M1078,100.3l1.2.4-3.4,4.8-1-.3-.1-4.2-2.4,3.4-1-.3-.2-5.8,1.2.4-.1,4.1,2.4-3.4,1.1.3.1,4.2Z" fill="#e0fb52"/>
    <path d="M1094.2,105.1l1.2.4-3.3,4.8-1-.3-.2-4.2-2.4,3.4-1-.3-.2-5.8,1.2.4-.1,4.1,2.3-3.5,1.1.3.1,4.2Z" fill="#e0fb52"/>
    <path d="M1110.6,109.8l1.2.3-3.3,4.8-1-.3-.2-4.2-2.3,3.5-1-.3-.3-5.8,1.2.3v4.1l2.3-3.5,1.1.3.2,4.2Z" fill="#e0fb52"/>
    <path d="M1127.3,114.4l1.3.3-3.2,4.9-1-.3-.3-4.2-2.3,3.5-1.1-.3-.4-5.8,1.2.3.1,4.1,2.3-3.5,1.1.3.2,4.2Z" fill="#e0fb52"/>
    <path d="M1144.3,118.8l1.3.3-3.1,4.9-1-.3-.3-4.2L1139,123l-1-.3-.5-5.8,1.2.3.1,4.1,2.2-3.6,1.1.3.3,4.2Z" fill="#e0fb52"/>
    <path d="M1158.7,122.2l1.3.3-3,5-1.1-.2-.4-4.2-2.2,3.6-1.1-.2-.6-5.8,1.3.3.2,4.1,2.1-3.6,1.1.3.4,4.2Z" fill="#e0fb52"/>
    <path d="M1176.5,126.2l1.3.3-3,5-1.1-.2-.5-4.2-2.1,3.6-1.1-.2-.7-5.8,1.3.3.3,4.1,2.1-3.6,1.1.2.4,4.2Z" fill="#e0fb52"/>
    <path d="M1191.7,129.2l1.3.2-2.9,5.1-1.1-.2-.5-4.1-2.1,3.7-1.1-.2-.8-5.8,1.3.2.3,4.1,2-3.7,1.1.2.5,4.2Z" fill="#e0fb52"/>
    <path d="M1210.6,132.7l1.3.2-2.8,5.2-1.1-.2-.7-4.1-2,3.7-1.1-.2-.9-5.8,1.3.2.4,4.1,1.9-3.7,1.1.2.6,4.2Z" fill="#e0fb52"/>
    <path d="M1226.8,135.2l1.3.2-2.7,5.2-1.1-.2-.7-4.1-1.9,3.7-1.1-.2-1-5.8,1.3.2.5,4.1,1.8-3.8,1.1.2.7,4.1Z" fill="#e0fb52"/>
    <path d="M1243.5,137.6l1.3.2-2.5,5.3-1.1-.1-.8-4.1-1.8,3.8-1.1-.1-1.1-5.7,1.3.2.6,4.1,1.8-3.8,1.1.1.8,4.1Z" fill="#e0fb52"/>
    <path d="M1260.9,139.6l1.3.1-2.4,5.3-1.1-.1-.9-4.1-1.7,3.8-1.1-.1-1.3-5.7,1.3.1.7,4.1,1.7-3.8,1.1.1.9,4.1Z" fill="#e0fb52"/>
    <path d="M1275.5,141l1.3.1-2.3,5.4-1.1-.1-1-4.1-1.7,3.8-1.1-.1-1.4-5.7,1.3.1.8,4.1,1.6-3.9,1.1.1,1,4.1Z" fill="#e0fb52"/>
    <path d="M1294.1,142.4l1.3.1-2.2,5.4-1.1-.1-1.1-4-1.6,3.9-1.1-.1-1.5-5.6,1.3.1.9,4.1,1.5-3.9,1.1.1,1,4.1Z" fill="#e0fb52"/>
    <path d="M1309.9,143.3l1.3.1-2.1,5.5H1308l-1.2-4-1.5,3.9h-1.1l-1.6-5.6,1.3.1.9,4,1.5-3.9h1.1l1.1,4Z" fill="#e0fb52"/>
    <path d="M1326.3,143.8h1.3l-2,5.5h-1.1l-1.2-4-1.4,3.9h-1.1l-1.8-5.6h1.3l1,4,1.4-4h1.1l1.2,4Z" fill="#e0fb52"/>
    <path d="M1345.4,144h1.3l-1.8,5.5h-1.1l-1.3-4-1.3,4h-1.1l-1.9-5.5h1.3l1.1,4,1.3-4h1.1l1.3,4Z" fill="#e0fb52"/>
    <path d="M1362.4,143.9h1.3l-1.7,5.6h-1.1l-1.4-3.9-1.2,4h-1.1l-2-5.5h1.3l1.2,4,1.2-4h1.1l1.4,4Z" fill="#e0fb52"/>
    <path d="M1378.7,143.3l1.3-.1-1.6,5.6-1.1.1-1.5-3.9-1.2,4-1.1.1-2.1-5.4,1.3-.1,1.3,3.9,1.1-4.1,1.1-.1,1.5,3.9Z" fill="#e0fb52"/>
    <path d="M1398,142.2l1.3-.1-1.5,5.7-1.1.1-1.6-3.9-1,4.1-1.1.1-2.2-5.4,1.3-.1,1.4,3.9,1-4.1,1.1-.1,1.6,3.9Z" fill="#e0fb52"/>
    <path d="M1413,141l1.3-.1-1.3,5.7-1.1.1-1.7-3.8-1,4.1-1.1.1-2.4-5.3,1.3-.1,1.5,3.9.9-4.1,1.1-.1,1.7,3.9Z" fill="#e0fb52"/>
    <path d="M1431,139.2l1.3-.2-1.2,5.7-1.1.1-1.8-3.8-.9,4.1-1.1.1-2.5-5.3,1.3-.2,1.6,3.8.8-4.1,1.1-.1,1.7,3.8Z" fill="#e0fb52"/>
    <path d="M1448.3,137l1.3-.2-1.1,5.7-1.1.1-1.9-3.7-.8,4.1-1.1.2L1441,138l1.3-.2,1.7,3.8.7-4.1,1.1-.2,1.8,3.8Z" fill="#e0fb52"/>
    <path d="M1464.9,134.5l1.3-.2-1,5.8-1.1.2-1.9-3.7-.7,4.1-1.1.2-2.7-5.2,1.3-.2,1.8,3.8.6-4.2,1.1-.2,1.9,3.7Z" fill="#e0fb52"/>
    <path d="M1481.1,131.7l1.3-.2-.8,5.8-1.1.2-2-3.7-.6,4.1-1.1.2L1474,133l1.3-.2,1.8,3.7.5-4.2,1.1-.2,2,3.7Z" fill="#e0fb52"/>
    <path d="M1496.7,128.7l1.3-.3-.7,5.8-1.1.2-2.1-3.6-.5,4.2-1,.2-3-5.1,1.3-.3,1.9,3.7.5-4.2,1.1-.2,2.1,3.7Z" fill="#e0fb52"/>
    <path d="M1515,124.8l1.3-.3-.6,5.8-1.1.2-2.2-3.6-.4,4.2-1.1.2-3-5,1.3-.3,2,3.6.4-4.2,1.1-.3,2.2,3.6Z" fill="#e0fb52"/>
    <path d="M1529.8,121.3l1.3-.3-.5,5.8-1.1.3-2.2-3.5-.3,4.2-1.1.3-3.1-4.9,1.3-.3,2.1,3.6.3-4.2,1.1-.3,2.2,3.6Z" fill="#e0fb52"/>
    <path d="M1547.3,116.9l1.2-.3-.4,5.8-1,.3-2.3-3.5-.3,4.2-1,.3-3.2-4.9,1.2-.3,2.1,3.6.2-4.2,1.1-.3,2.3,3.5Z" fill="#e0fb52"/>
    <path d="M1564.3,112.2l1.2-.4-.3,5.8-1,.3-2.4-3.5-.2,4.2-1,.3-3.3-4.8,1.2-.4,2.2,3.5.1-4.2,1.1-.3,2.3,3.5Z" fill="#e0fb52"/>
    <path d="M1581,107.4l1.2-.4-.2,5.8-1,.3-2.4-3.4-.1,4.2-1,.3-3.4-4.8,1.2-.4,2.2,3.5.1-4.2,1.1-.3,2.4,3.5Z" fill="#e0fb52"/>
    <path d="M1597.4,102.3l1.2-.4-.1,5.8-1,.3-2.4-3.4-.1,4.2-1,.3-3.4-4.7,1.2-.4,2.3,3.5v-4.2l1.1-.3,2.4,3.4Z" fill="#e0fb52"/>
    <path d="M1613.6,97.2l1.2-.4-.1,5.8-1,.3-2.5-3.4v4.2l-1,.3-3.5-4.7,1.2-.4,2.3,3.5V98.2l1.1-.4,2.5,3.4Z" fill="#e0fb52"/>
    <path d="M1629.6,91.9l1.2-.4v5.8l-1,.3-2.5-3.3v4.2l-1,.3-3.5-4.7,1.2-.4,2.3,3.4V92.9l1.1-.4,2.5,3.4Z" fill="#e0fb52"/>
    <path d="M1645.5,86.6l1.2-.4V92l-1,.3-2.5-3.3v4.2l-1,.3-3.5-4.6,1.2-.4,2.3,3.4-.1-4.2,1.1-.4,2.5,3.4Z" fill="#e0fb52"/>
    <path d="M1661.3,81.2l1.2-.4v5.8l-1,.4-2.5-3.3v4.2l-1,.4-3.6-4.6,1.2-.4,2.4,3.4-.1-4.2,1.1-.4,2.5,3.4Z" fill="#e0fb52"/>
    <path d="M1677,75.8l1.2-.4v5.8l-1,.4-2.5-3.3v4.2l-1,.4-3.6-4.6,1.2-.4,2.4,3.4-.1-4.2,1.1-.4,2.5,3.4Z" fill="#e0fb52"/>
    <path d="M1692.7,70.3l1.2-.4.1,5.8-1,.4-2.5-3.3V77l-1,.4-3.6-4.6,1.2-.4,2.4,3.4-.1-4.2,1.1-.4,2.5,3.4Z" fill="#e0fb52"/>
    <path d="M1708.5,64.9l1.2-.4v5.8l-1,.3-2.5-3.3v4.2l-1,.3-3.6-4.6,1.2-.4,2.3,3.4L1705,66l1.1-.4,2.5,3.4Z" fill="#e0fb52"/>
    <path d="M1724.3,59.5l1.2-.4v5.8l-1,.3-2.5-3.3v4.2l-1,.3-3.5-4.7,1.2-.4,2.3,3.4-.1-4.2,1.1-.4,2.5,3.4Z" fill="#e0fb52"/>
    <path d="M1740.3,54.2l1.2-.4v5.8l-1,.3-2.5-3.4v4.2l-1,.3-3.5-4.7,1.2-.4,2.3,3.4V55.1l1.1-.4,2.5,3.4Z" fill="#e0fb52"/>
    <path d="M1756.4,48.9l1.2-.4-.1,5.8-1,.3-2.5-3.4-.1,4.2-1,.3-3.4-4.7,1.2-.4,2.3,3.5V49.9l1.1-.3,2.4,3.4Z" fill="#e0fb52"/>
    <path d="M1772.8,43.8l1.2-.4-.2,5.8-1,.3-2.4-3.4-.1,4.2-1,.3-3.4-4.8,1.2-.4,2.2,3.5.1-4.2,1.1-.3,2.4,3.4Z" fill="#e0fb52"/>
    <path d="M1789.4,38.8l1.2-.4-.2,5.8-1,.3-2.4-3.4-.2,4.2-1,.3-3.3-4.8,1.2-.4,2.2,3.5.1-4.2,1.1-.3,2.3,3.5Z" fill="#e0fb52"/>
    <path d="M1806.3,34l1.3-.3-.3,5.8-1,.3-2.3-3.5-.2,4.2-1,.3-3.3-4.9,1.2-.3,2.1,3.6.2-4.2,1.1-.3,2.3,3.5Z" fill="#e0fb52"/>
    <path d="M1823.6,29.4l1.2-.3-.4,5.8-1.1.3-2.3-3.5-.3,4.2-1.1.3-3.2-4.9,1.3-.3,2.1,3.6.3-4.2,1.1-.3,2.2,3.6Z" fill="#e0fb52"/>
    <path d="M1838.3,25.8l1.3-.3-.5,5.8-1.1.2-2.2-3.6-.4,4.2-1.1.2-3.1-5,1.3-.3,2,3.6.3-4.2,1.1-.3,2.2,3.6Z" fill="#e0fb52"/>
    <path d="M1856.4,21.7l1.3-.3-.7,5.8-1,.2-2.1-3.6-.5,4.2-1.1.2-3-5,1.3-.3,1.9,3.7.4-4.2,1.1-.2,2.1,3.6Z" fill="#e0fb52"/>
    <path d="M1871.9,18.4l1.3-.2-.8,5.8-1.1.2-2.1-3.6-.6,4.2-1.1.2-2.9-5.1,1.3-.2,1.9,3.7.5-4.2,1.1-.2,2,3.7Z" fill="#e0fb52"/>
    <path d="M1887.9,15.5l1.3-.2-.9,5.8-1.1.2-2-3.7-.6,4.1-1.1.2-2.8-5.1,1.3-.2,1.8,3.7.6-4.2,1.1-.2,1.9,3.7Z" fill="#e0fb52"/>
    <path d="M1907.8,12.2l1.3-.2-1,5.8-1.1.2-1.9-3.7-.7,4.1-1.1.2-2.7-5.2,1.3-.2,1.7,3.8.7-4.1,1.1-.2,1.9,3.8Z" fill="#e0fb52"/>
    <path d="M1921.5,10.3l1.3-.2-1.2,5.7-1.1.1-1.8-3.8-.8,4.1-1.1.1-2.5-5.3,1.3-.2,1.6,3.8.8-4.1,1.1-.1,1.8,3.8Z" fill="#e0fb52"/>
    <path d="M1939.2,8.2l1.3-.1-1.3,5.7-1.1.1-1.7-3.8-.9,4.1-1.1.1L1932,9l1.3-.1,1.5,3.9.9-4.1,1.1-.1,1.7,3.8Z" fill="#e0fb52"/>
    <path d="M1957.6,6.5l1.3-.1-1.4,5.7-1.1.1-1.6-3.9-1,4.1-1.1.1-2.3-5.4,1.3-.1,1.4,3.9,1-4.1,1.1-.1,1.6,3.9Z" fill="#e0fb52"/>
    <path d="M1973.1,5.4l1.3-.1-1.5,5.6-1.1.1-1.5-3.9-1.1,4-1.1.1-2.2-5.4,1.3-.1,1.3,3.9,1.1-4.1,1.1-.1,1.5,3.9Z" fill="#e0fb52"/>
    <path d="M1989.2,4.6h1.3l-1.7,5.6h-1.1l-1.5-3.9-1.2,4h-1.1l-2-5.5h1.3l1.3,4,1.1-4h1.1l1.4,3.9Z" fill="#e0fb52"/>
    <path d="M2006,4.1h1.3l-1.8,5.6h-1.1l-1.4-4-1.3,4h-1.1l-1.9-5.5h1.3l1.2,4,1.2-4h1.1l1.3,4Z" fill="#e0fb52"/>
    <path d="M2025.2,4.1h1.3l-1.9,5.5h-1.1l-1.3-4-1.4,4h-1.1L2017.9,4h1.3l1.1,4,1.3-4h1.1l1.2,4Z" fill="#e0fb52"/>
    <path d="M2042,4.4h1.3l-2.1,5.5h-1.1l-1.2-4-1.5,3.9h-1.1l-1.7-5.6h1.3l1,4,1.4-3.9h1.1l1.1,4Z" fill="#e0fb52"/>
    <path d="M2061.8,5.3l1.3.1-2.2,5.4-1.1-.1-1.1-4-1.6,3.9-1.1-.1-1.5-5.6,1.3.1.9,4.1,1.5-3.9,1.1.1,1,4.1Z" fill="#e0fb52"/>
    <path d="M2077.2,6.3l1.3.1-2.3,5.4-1.1-.1-1-4.1-1.6,3.9-1.1-.1L2070,5.7l1.3.1.8,4.1,1.6-3.9,1.1.1,1,4.1Z" fill="#e0fb52"/>
    <path d="M2095.6,8l1.3.1-2.4,5.3-1.1-.1-.9-4.1-1.7,3.8-1.1-.1-1.3-5.7,1.3.1.7,4.1,1.7-3.8,1.1.1.9,4.1Z" fill="#e0fb52"/>
    <path d="M2113.2,10l1.3.2-2.6,5.3-1.1-.1-.8-4.1-1.8,3.8-1.1-.1L2106,9.3l1.3.2.6,4.1,1.8-3.8,1.1.1.8,4.1Z" fill="#e0fb52"/>
    <path d="M2130.3,12.4l1.3.2-2.7,5.2-1.1-.2-.7-4.1-1.9,3.7-1.1-.2-1-5.8,1.3.2.5,4.1,1.9-3.8,1.1.2.7,4.1Z" fill="#e0fb52"/>
    <path d="M2146.7,15l1.3.2-2.8,5.1-1.1-.2-.6-4.1-2,3.7-1.1-.2-.9-5.8,1.3.2.4,4.1,2-3.7,1.1.2.6,4.2Z" fill="#e0fb52"/>
    <path d="M2162.7,17.9l1.3.2-2.9,5.1L2160,23l-.5-4.2-2.1,3.6-1.1-.2-.8-5.8,1.3.2.3,4.1,2-3.7,1.1.2.5,4.2Z" fill="#e0fb52"/>
    <path d="M2178.2,21.1l1.3.3-3,5-1.1-.2L2175,22l-2.1,3.6-1.1-.2-.7-5.8,1.3.3.2,4.1,2.1-3.6,1.1.2.4,4.2Z" fill="#e0fb52"/>
    <path d="M2196.3,25.2l1.3.3-3.1,5-1.1-.3L2193,26l-2.2,3.6-1-.3-.5-5.8,1.3.3.2,4.1,2.2-3.6,1.1.3.3,4.2Z" fill="#e0fb52"/>
    <path d="M2210.9,28.8l1.3.3L2209,34l-1.1-.3-.2-4.1-2.3,3.5-1-.3L2204,27l1.3.3.1,4.1,2.2-3.6,1.1.3.2,4.2Z" fill="#e0fb52"/>
    <path d="M2228.3,33.3l1.2.3-3.3,4.9-1-.3L2225,34l-2.3,3.5-1-.3-.3-5.8,1.2.3v4.1l2.3-3.5,1.1.3.2,4.2Z" fill="#e0fb52"/>
    <path d="M2245.2,38.1l1.2.4-3.3,4.8-1-.3-.2-4.2-2.4,3.4-1-.3-.2-5.8,1.2.4v4.1l2.4-3.5,1.1.3.1,4.2Z" fill="#e0fb52"/>
    <path d="M2261.8,43l1.2.4-3.4,4.8-1-.3-.1-4.2-2.4,3.4-1-.3-.2-5.8,1.2.4-.1,4.1,2.4-3.4,1.1.3.1,4.2Z" fill="#e0fb52"/>
    <path d="M2278.1,48.1l1.2.4-3.5,4.7-1-.3-.1-4.2-2.5,3.4-1-.3-.1-5.8,1.2.4-.2,4.1,2.4-3.4,1.1.3v4.2Z" fill="#e0fb52"/>
    <path d="M2294.3,53.3l1.2.4-3.5,4.7-1-.3V53.9l-2.5,3.4-1-.3V51.2l1.2.4-.2,4.1,2.5-3.4,1.1.4v4.2Z" fill="#e0fb52"/>
    <path d="M2310.3,58.6l1.2.4-3.5,4.7-1-.3V59.2l-2.5,3.3-1-.3V56.4l1.2.4-.2,4.1,2.5-3.4,1.1.4-.1,4.2Z" fill="#e0fb52"/>
    <path d="M2326.1,64l1.2.4-3.6,4.6-1-.3V64.5l-2.6,3.3-1-.3V61.7l1.2.4-.2,4.1,2.5-3.4,1.1.4-.1,4.2Z" fill="#e0fb52"/>
    <path d="M2341.8,69.4l1.2.4-3.6,4.6-1-.4.1-4.2-2.6,3.3-1-.4.1-5.8,1.2.4-.2,4.1,2.5-3.4,1.1.4-.1,4.2Z" fill="#e0fb52"/>
    <path d="M2357.6,74.9l1.2.4-3.6,4.6-1-.4.1-4.2-2.6,3.3-1-.4.1-5.8,1.2.4-.2,4.1,2.5-3.4,1.1.4-.1,4.2Z" fill="#e0fb52"/>
    <path d="M2373.3,80.3l1.2.4-3.6,4.6-1-.4V80.7l-2.6,3.3-1-.4.1-5.8,1.2.4-.2,4.1,2.5-3.4,1.1.4-.1,4.2Z" fill="#e0fb52"/>
    <path d="M2391.9,86.7l1.2.4-3.5,4.7-1-.3V87.3l-2.5,3.3-1-.3V84.5l1.2.4-.2,4.1,2.5-3.4,1.1.4-.1,4.2Z" fill="#e0fb52"/>
    <path d="M2407.8,92l1.2.4-3.5,4.7-1-.3V92.6l-2.5,3.3-1-.3V89.8l1.2.4-.2,4.1,2.5-3.4,1.1.4v4.2Z" fill="#e0fb52"/>
    <path d="M2423.8,97.3l1.2.4-3.5,4.7-1-.3V97.9l-2.5,3.4-1-.3-.1-5.8,1.2.4-.2,4.1,2.4-3.4,1.1.3v4.2Z" fill="#e0fb52"/>
    <path d="M2440,102.4l1.2.4-3.4,4.7-1-.3-.1-4.2-2.4,3.4-1-.3-.1-5.8,1.2.4-.1,4.1,2.4-3.4,1.1.3v4.2Z" fill="#e0fb52"/>
    <path d="M2456.5,107.4l1.2.4-3.4,4.8-1-.3-.1-4.2-2.4,3.4-1-.3-.2-5.8,1.2.4-.1,4.1,2.4-3.5,1.1.3.1,4.2Z" fill="#e0fb52"/>
    <path d="M2470.3,111.5l1.2.4-3.3,4.8-1-.3-.2-4.2-2.4,3.5-1-.3-.3-5.8,1.2.4v4.1l2.3-3.5,1.1.3.1,4.2Z" fill="#e0fb52"/>
    <path d="M2487.3,116.2l1.2.3-3.2,4.9-1-.3-.3-4.2-2.3,3.5-1.1-.3-.4-5.8,1.3.3.1,4.1,2.3-3.5,1.1.3.2,4.2Z" fill="#e0fb52"/>
    <path d="M2504.8,120.7l1.3.3-3.1,4.9-1.1-.3-.3-4.2-2.2,3.5-1.1-.3-.5-5.8,1.3.3.1,4.1,2.2-3.6,1.1.3.3,4.2Z" fill="#e0fb52"/>
    <path d="M2519.5,124.2l1.3.3-3,5-1.1-.2-.4-4.2-2.2,3.6-1-.2-.6-5.8,1.3.3.2,4.1,2.1-3.6,1.1.3.4,4.2Z" fill="#e0fb52"/>
    <path d="M2537.9,128.2l1.3.3-2.9,5.1-1.1-.2-.5-4.2-2.1,3.6-1.1-.2-.7-5.8,1.3.3.3,4.1,2.1-3.7,1.1.2.5,4.2Z" fill="#e0fb52"/>
    <path d="M2553.6,131.3l1.3.2-2.8,5.1-1.1-.2-.6-4.1-2,3.7-1.1-.2-.8-5.8,1.3.2.4,4.1,2-3.7,1.1.2.5,4.2Z" fill="#e0fb52"/>
    <path d="M2569.7,134.1l1.3.2-2.7,5.2-1.1-.2-.7-4.1-2,3.7-1.1-.2-1-5.8,1.3.2.5,4.1,1.9-3.7,1.1.2.6,4.1Z" fill="#e0fb52"/>
    <path d="M2586.5,136.7l1.3.2-2.6,5.2-1.1-.1-.8-4.1-1.9,3.8-1.1-.1-1.1-5.7,1.3.2.6,4.1,1.8-3.8,1.1.2.7,4.1Z" fill="#e0fb52"/>
    <path d="M2603.8,138.9l1.3.1-2.5,5.3-1.1-.1-.9-4.1-1.8,3.8-1.1-.1-1.2-5.7,1.3.1.7,4.1,1.7-3.8,1.1.1.8,4.1Z" fill="#e0fb52"/>
    <path d="M2621.8,140.8l1.3.1-2.4,5.4-1.1-.1-1-4.1-1.7,3.8-1.1-.1-1.3-5.7,1.3.1.8,4.1,1.6-3.9,1.1.1.9,4.1Z" fill="#e0fb52"/>
    <path d="M2636.8,142.1l1.3.1-2.2,5.4-1.1-.1-1.1-4.1-1.6,3.9-1.1-.1-1.5-5.7,1.3.1.8,4.1,1.6-3.9,1.1.1,1,4.1Z" fill="#e0fb52"/>
    <path d="M2656.2,143.2l1.3.1-2.1,5.5h-1.1l-1.1-4-1.5,3.9h-1.1l-1.6-5.6,1.3.1.9,4,1.5-3.9,1.1.1,1.1,4Z" fill="#e0fb52"/>
    <path d="M2672.6,143.8h1.3l-2,5.5h-1.1l-1.2-4-1.4,3.9h-1.1l-1.7-5.6h1.3l1,4,1.4-4h1.1l1.2,4Z" fill="#e0fb52"/>
    <path d="M2691.6,144h1.3l-1.8,5.5H2690l-1.3-4-1.3,4h-1.1l-1.9-5.5h1.3l1.1,4,1.3-4h1.1l1.3,4Z" fill="#e0fb52"/>
    <path d="M2708.7,143.8h1.3l-1.7,5.6h-1.1l-1.4-3.9-1.2,4h-1.1l-2-5.5h1.3l1.2,4,1.2-4h1.1l1.4,4Z" fill="#e0fb52"/>
    <path d="M2725,143.3l1.3-.1-1.6,5.6-1.1.1-1.5-3.9-1.1,4-1.1.1-2.1-5.4,1.3-.1,1.3,3.9,1.1-4.1,1.1-.1,1.5,3.9Z" fill="#e0fb52"/>
    <path d="M2740.7,142.4l1.3-.1-1.5,5.7-1.1.1-1.6-3.9-1,4.1-1.1.1-2.2-5.4,1.3-.1,1.4,3.9,1-4.1,1.1-.1,1.6,3.9Z" fill="#e0fb52"/>
    <path d="M2759.3,141l1.3-.1-1.3,5.7-1.1.1-1.7-3.8-1,4.1-1.1.1-2.4-5.3,1.3-.1,1.5,3.9.9-4.1,1.1-.1,1.6,3.9Z" fill="#e0fb52"/>
    <path d="M2773.8,139.5l1.3-.1-1.2,5.7-1.1.1-1.8-3.8-.9,4.1-1.1.1-2.5-5.3,1.3-.1,1.6,3.8.8-4.1,1.1-.1,1.7,3.8Z" fill="#e0fb52"/>
    <path d="M2791.2,137.4l1.3-.2-1.1,5.7-1.1.1-1.9-3.8-.8,4.1-1.1.1-2.6-5.2,1.3-.2,1.6,3.8.7-4.1,1.1-.2,1.8,3.8Z" fill="#e0fb52"/>
    <path d="M2807.9,134.9l1.3-.2-.9,5.8-1.1.2-1.9-3.7-.7,4.1-1.1.2-2.7-5.2,1.3-.2,1.7,3.8.6-4.1,1.1-.2,1.9,3.7Z" fill="#e0fb52"/>
    <path d="M2824.1,132.2l1.3-.2-.8,5.8-1.1.2-2-3.7-.6,4.1-1.1.2-2.8-5.1,1.3-.2,1.8,3.7.5-4.2,1.1-.2,2,3.7Z" fill="#e0fb52"/>
    <path d="M2843,128.5l1.3-.3-.7,5.8-1.1.2-2.1-3.6-.5,4.2-1.1.2-2.9-5.1,1.3-.3,1.9,3.7.4-4.2,1.1-.2,2.1,3.7Z" fill="#e0fb52"/>
    <path d="M2858.2,125.3l1.3-.3-.6,5.8-1,.2-2.2-3.6-.4,4.2-1.1.2-3-5,1.3-.3,2,3.7.4-4.2,1.1-.3,2.1,3.6Z" fill="#e0fb52"/>
    <path d="M2876.1,121.1l1.3-.3-.5,5.8-1,.3-2.2-3.5-.3,4.2-1.1.3-3.1-4.9,1.3-.3,2,3.6.3-4.2,1.1-.3,2.2,3.6Z" fill="#e0fb52"/>
    <path d="M2893.5,116.6l1.2-.3-.4,5.8-1,.3-2.3-3.5-.3,4.2-1,.3-3.2-4.9,1.2-.3,2.1,3.6.2-4.2,1.1-.3,2.3,3.5Z" fill="#e0fb52"/>
    <path d="M2907.6,112.8l1.2-.4-.3,5.8-1,.3-2.4-3.5-.2,4.2-1,.3-3.3-4.8,1.2-.4,2.2,3.5.1-4.2,1.1-.3,2.3,3.5Z" fill="#e0fb52"/>
    <path d="M2924.3,108l1.2-.4-.2,5.8-1,.3-2.4-3.4-.1,4.2-1,.3-3.4-4.8,1.2-.4,2.2,3.5.1-4.2,1.1-.3,2.4,3.5Z" fill="#e0fb52"/>
    <path d="M2940.8,103l1.2-.4-.1,5.8-1,.3-2.4-3.4-.1,4.2-1,.3-3.4-4.7,1.2-.4,2.3,3.5V104l1.1-.3,2.4,3.4Z" fill="#e0fb52"/>
    <path d="M2957,97.8l1.2-.4-.1,5.8-1,.3-2.5-3.4v4.2l-1,.3-3.5-4.7,1.2-.4,2.3,3.5V98.8l1.1-.4,2.4,3.4Z" fill="#e0fb52"/>
    <path d="M2973,92.6l1.2-.4V98l-1,.3-2.5-3.4v4.2l-1,.3-3.5-4.7,1.2-.4,2.3,3.4V93.5l1.1-.4,2.5,3.4Z" fill="#e0fb52"/>
    <path d="M2988.9,87.3l1.2-.4v5.8l-1,.3-2.5-3.3v4.2l-1,.3-3.5-4.7,1.2-.4,2.3,3.4-.1-4.2,1.1-.4,2.5,3.4Z" fill="#e0fb52"/>
    <path d="M3004.7,81.9l1.2-.4.1,5.8-1,.4-2.5-3.3v4.2l-1,.4-3.6-4.6,1.2-.4,2.4,3.4-.1-4.2,1.1-.4,2.5,3.4Z" fill="#e0fb52"/>
    <path d="M3020.4,76.4l1.2-.4.1,5.8-1,.4-2.5-3.3v4.2l-1,.4-3.6-4.6,1.2-.4,2.4,3.4-.1-4.2,1.1-.4,2.5,3.4Z" fill="#e0fb52"/>
    <path d="M3038.9,70l1.2-.4.1,5.8-1,.4-2.5-3.3v4.2l-1,.4-3.6-4.6,1.2-.4,2.4,3.4-.1-4.2,1.1-.4,2.5,3.4Z" fill="#e0fb52"/>
    <path d="M3054.7,64.6l1.2-.4V70l-1,.3-2.5-3.3v4.2l-1,.3-3.6-4.6,1.2-.4,2.3,3.4-.1-4.2,1.1-.4,2.5,3.4Z" fill="#e0fb52"/>
    <path d="M3070.5,59.2l1.2-.4v5.8l-1,.3-2.5-3.3v4.2l-1,.3-3.5-4.7,1.2-.4,2.3,3.4-.1-4.2,1.1-.4,2.5,3.4Z" fill="#e0fb52"/>
    <path d="M3086.5,53.9l1.2-.4v5.8l-1,.3-2.5-3.4v4.2l-1,.3-3.5-4.7,1.2-.4,2.3,3.4V54.8l1.1-.4,2.5,3.4Z" fill="#e0fb52"/>
    <path d="M3102.6,48.7l1.2-.4-.1,5.8-1,.3-2.5-3.4-.1,4.2-1,.3-3.4-4.7,1.2-.4,2.3,3.5V49.7l1.1-.3,2.4,3.4Z" fill="#e0fb52"/>
    <path d="M3119,43.6l1.2-.4L3120,49l-1,.3-2.4-3.4-.1,4.2-1,.3-3.4-4.8,1.2-.4,2.2,3.5.1-4.2,1.1-.3,2.4,3.4Z" fill="#e0fb52"/>
    <path d="M3135.6,38.6l1.2-.4-.2,5.8-1,.3-2.4-3.4-.2,4.2-1,.3-3.3-4.8,1.2-.4,2.2,3.5.1-4.2,1.1-.3,2.3,3.5Z" fill="#e0fb52"/>
    <path d="M3149.6,34.6l1.2-.3-.3,5.8-1,.3-2.3-3.5-.2,4.2-1.1.3-3.3-4.9,1.2-.3,2.1,3.6.2-4.2,1.1-.3,2.3,3.5Z" fill="#e0fb52"/>
    <path d="M3166.8,30l1.3-.3-.4,5.8-1.1.3-2.3-3.5-.3,4.2-1.1.3-3.2-4.9,1.3-.3,2.1,3.6.2-4.2,1.1-.3,2.2,3.6Z" fill="#e0fb52"/>
    <path d="M3184.5,25.6l1.3-.3-.5,5.8-1.1.2-2.2-3.6-.4,4.2-1,.2-3.1-5,1.3-.3,2,3.6.3-4.2,1.1-.3,2.2,3.6Z" fill="#e0fb52"/>
    <path d="M3199.5,22.1l1.3-.3-.6,5.8-1.1.2-2.1-3.6-.5,4.2-1.1.2-3-5,1.3-.3,1.9,3.7.4-4.2,1.1-.2,2.1,3.6Z" fill="#e0fb52"/>
    <path d="M3218.2,18.3l1.3-.2-.8,5.8-1.1.2-2.1-3.6-.5,4.2-1.1.2-2.9-5.1,1.3-.2,1.9,3.7.5-4.2,1.1-.2,2,3.7Z" fill="#e0fb52"/>
    <path d="M3234.2,15.3l1.3-.2-.9,5.8-1.1.2-2-3.7-.6,4.1-1.1.2-2.8-5.1,1.3-.2,1.8,3.7.6-4.2,1.1-.2,1.9,3.7Z" fill="#e0fb52"/>
    <path d="M3250.7,12.6l1.3-.2-1,5.8-1.1.2-1.9-3.7-.7,4.1-1.1.2-2.7-5.2,1.3-.2,1.7,3.8.7-4.1,1.1-.2,1.9,3.8Z" fill="#e0fb52"/>
    <path d="M3267.8,10.2l1.3-.2-1.2,5.7-1.1.1L3265,12l-.8,4.1-1.1.1-2.5-5.3,1.3-.2,1.6,3.8.8-4.1,1.1-.1,1.8,3.8Z" fill="#e0fb52"/>
    <path d="M3285.5,8.1l1.3-.1-1.3,5.7-1.1.1-1.7-3.8-.9,4.1-1.1.1-2.4-5.3,1.3-.1,1.5,3.9.9-4.1,1.1-.1,1.7,3.8Z" fill="#e0fb52"/>
    <path d="M3300.3,6.7l1.3-.1-1.4,5.7-1.1.1-1.6-3.9-1,4.1-1.1.1-2.3-5.4,1.3-.1,1.4,3.9,1-4.1,1.1-.1,1.6,3.9Z" fill="#e0fb52"/>
    <path d="M3319.4,5.3l1.3-.1-1.5,5.6-1.1.1L3316.6,7l-1.1,4-1.1.1-2.2-5.4,1.3-.1,1.3,3.9,1.1-4.1,1.1-.1,1.5,3.9Z" fill="#e0fb52"/>
    <path d="M3335.5,4.6h1.3l-1.7,5.6H3334l-1.5-3.9-1.2,4h-1.1l-2-5.5h1.3l1.3,4,1.1-4h1.1l1.4,3.9Z" fill="#e0fb52"/>
    <path d="M3352.3,4.1h1.3l-1.8,5.6h-1.1l-1.4-4-1.3,4h-1.1L3345,4.2h1.3l1.2,4,1.2-4h1.1l1.3,4Z" fill="#e0fb52"/>
    <path d="M3371.5,4.1h1.3l-1.9,5.5h-1.1l-1.3-4-1.4,4H3366L3364.2,4h1.3l1.1,4,1.3-4h1.1l1.2,4Z" fill="#e0fb52"/>
    <path d="M3388.3,4.4h1.3l-2,5.5h-1.1l-1.2-4-1.5,3.9h-1.1L3381,4.2h1.3l1,4,1.4-3.9h1.1l1.1,4Z" fill="#e0fb52"/>
    <path d="M3404.5,5.1l1.3.1-2.2,5.4-1.1-.1-1.1-4-1.6,3.9-1.1-.1-1.5-5.6,1.3.1.9,4.1,1.5-3.9,1.1.1,1,4.1Z" fill="#e0fb52"/>
    <path d="M3423.5,6.4l1.3.1-2.3,5.4-1.1-.1-1-4.1-1.6,3.9-1.1-.1-1.4-5.7,1.3.1.8,4.1,1.6-3.9,1.1.1,1,4.1Z" fill="#e0fb52"/>
    <path d="M3438.4,7.7l1.3.1-2.4,5.3-1.1-.1-.9-4.1-1.7,3.8-1.1-.1-1.3-5.7,1.3.1.7,4.1,1.7-3.8,1.1.1.9,4.1Z" fill="#e0fb52"/>
    <path d="M3456.1,9.7l1.3.2-2.5,5.3-1.1-.1L3453,11l-1.8,3.8-1.1-.1L3448.9,9l1.3.2.6,4.1,1.8-3.8,1.1.1.8,4.1Z" fill="#e0fb52"/>
    <path d="M3473.2,12l1.3.2-2.7,5.2-1.1-.2-.7-4.1-1.9,3.7-1.1-.2-1-5.8,1.3.2.5,4.1,1.9-3.8,1.1.2.7,4.1Z" fill="#e0fb52"/>
    <path d="M3489.7,14.6l1.3.2-2.8,5.1-1.1-.2-.6-4.1-2,3.7-1.1-.2-.9-5.8,1.3.2.4,4.1,1.9-3.7,1.1.2.6,4.2Z" fill="#e0fb52"/>
    <path d="M3505.7,17.5l1.3.2-2.9,5.1-1.1-.2-.5-4.2-2.1,3.6-1.1-.2-.8-5.8,1.3.2.3,4.1,2-3.7,1.1.2.5,4.2Z" fill="#e0fb52"/>
    <path d="M3524.4,21.3l1.3.3-3,5-1.1-.2-.4-4.2-2.1,3.6-1.1-.2-.7-5.8,1.3.3.2,4.1,2.1-3.6,1.1.2.4,4.2Z" fill="#e0fb52"/>
    <path d="M3539.5,24.7l1.3.3-3.1,5-1.1-.2-.4-4.2-2.2,3.6-1.1-.2-.5-5.8,1.3.3.2,4.1,2.2-3.6,1.1.3.3,4.2Z" fill="#e0fb52"/>
    <path d="M3557.2,29l1.2.3-3.2,4.9-1-.3-.3-4.2-2.3,3.5-1.1-.3-.4-5.8,1.2.3.1,4.1,2.2-3.6,1.1.3.2,4.2Z" fill="#e0fb52"/>
    <path d="M3574.5,33.6l1.2.3-3.3,4.9-1-.3-.2-4.2-2.3,3.5-1-.3-.3-5.8,1.2.3v4.1l2.3-3.5,1.1.3.2,4.2Z" fill="#e0fb52"/>
    <path d="M3588.5,37.5l1.2.4-3.3,4.8-1-.3-.2-4.2-2.4,3.4-1-.3-.2-5.8,1.2.4V40l2.3-3.5,1.1.3.1,4.2Z" fill="#e0fb52"/>
  </g>
</svg>
