<svg width="54" height="47" viewBox="0 0 54 47" fill="none" xmlns="http://www.w3.org/2000/svg">
<path opacity="0.1" d="M54 27C54 22.5598 52.905 18.1882 50.8119 14.2723C48.7188 10.3564 45.6923 7.01715 42.0004 4.55032C38.3085 2.08349 34.0653 0.565226 29.6465 0.130012C25.2277 -0.305201 20.7697 0.35607 16.6675 2.05525C12.5654 3.75443 8.94554 6.43908 6.12872 9.87138C3.3119 13.3037 1.38503 17.3777 0.518798 21.7326C-0.347438 26.0874 -0.126304 30.5887 1.16261 34.8377C2.45153 39.0867 4.76844 42.9522 7.90812 46.0919L15.6988 38.3012C13.8403 36.4427 12.4688 34.1546 11.7058 31.6394C10.9429 29.1243 10.812 26.4598 11.3247 23.882C11.8375 21.3042 12.9781 18.8926 14.6455 16.8609C16.3129 14.8292 18.4556 13.24 20.8838 12.2342C23.3121 11.2284 25.9509 10.837 28.5665 11.0946C31.1822 11.3522 33.694 12.2509 35.8793 13.7112C38.0647 15.1714 39.8562 17.148 41.0952 19.466C42.3342 21.7839 42.9824 24.3717 42.9824 27H54Z" fill="white"/>
</svg>
