<svg width="212" height="352" viewBox="0 0 212 352" fill="none" xmlns="http://www.w3.org/2000/svg">
<path d="M176.707 156.664L33.4779 155.737C30.4063 155.708 27.4712 154.464 25.3133 152.278C23.1555 150.092 21.9504 147.141 21.961 144.069C21.9894 140.997 23.2326 138.061 25.419 135.903C27.6054 133.745 30.5571 132.54 33.6291 132.552L176.858 133.479C179.93 133.508 182.866 134.751 185.024 136.937C187.182 139.124 188.387 142.075 188.375 145.147C188.347 148.219 187.104 151.155 184.917 153.313C182.731 155.471 179.779 156.676 176.707 156.664Z" fill="#4FA343"/>
<path d="M163.314 28.7963L50.0548 28.068C23.109 27.8889 0.902952 49.7925 0.743768 76.7383L0.453267 121.588C0.434133 126.485 2.35452 131.19 5.79459 134.675C9.23466 138.16 13.9145 140.141 18.8111 140.185L193.117 141.315C198.011 141.332 202.713 139.412 206.195 135.974C209.678 132.536 211.659 127.859 211.705 122.965L211.996 78.1073C212.163 51.1496 190.259 28.9714 163.314 28.7963Z" fill="#61B855"/>
<path d="M185.559 147.456L26.2956 146.421C19.4084 146.396 12.7915 149.099 7.89024 153.937C2.98902 158.776 0.201928 165.357 0.137831 172.244L0.002514 193.141C-0.395444 251.243 46.5039 351.62 104.598 351.998C162.7 352.396 210.853 252.6 211.251 194.51L211.386 173.613C211.412 166.725 208.709 160.107 203.869 155.205C199.03 150.304 192.446 147.518 185.559 147.456Z" fill="#61B855"/>
<path d="M182.64 93.1828C182.62 96.9671 181.189 100.608 178.627 103.393C176.065 106.179 172.557 107.909 168.788 108.246C126.52 111.951 82.6972 111.783 37.6126 107.354C33.836 106.98 30.3354 105.209 27.797 102.388C25.2586 99.5668 23.8656 95.8993 23.891 92.1043L23.9427 83.8626C23.9657 80.0896 25.3899 76.4598 27.9388 73.6778C30.4876 70.8958 33.9793 69.1601 37.7359 68.8079C81.6029 64.7368 125.474 64.2592 169.321 69.4566C173.029 69.907 176.442 71.7063 178.908 74.5114C181.375 77.3164 182.723 80.9312 182.696 84.6665L182.64 93.1828Z" fill="#4FA343"/>
<path d="M70.0972 88.3317C70.0815 90.238 69.5009 92.097 68.429 93.6735C67.3572 95.25 65.842 96.4734 64.075 97.1891C62.3081 97.9048 60.3686 98.0807 58.5017 97.6945C56.6348 97.3083 54.9243 96.3774 53.5863 95.0194C52.2483 93.6614 51.3429 91.9373 50.9845 90.0648C50.626 88.1924 50.8307 86.2558 51.5725 84.4996C52.3144 82.7435 53.5602 81.2467 55.1524 80.1983C56.7447 79.1499 58.612 78.5971 60.5184 78.6096C61.786 78.6179 63.0396 78.8761 64.2073 79.3694C65.375 79.8627 66.4341 80.5814 67.3238 81.4844C68.2134 82.3874 68.9164 83.457 69.3923 84.6319C69.8682 85.8068 70.1077 87.0641 70.0972 88.3317Z" fill="#65C358"/>
<path d="M155.781 88.885C155.769 90.7923 155.192 92.6532 154.122 94.2323C153.053 95.8115 151.539 97.038 149.772 97.7568C148.006 98.4755 146.066 98.6542 144.197 98.2702C142.329 97.8863 140.617 96.9569 139.277 95.5997C137.937 94.2424 137.029 92.5183 136.669 90.6453C136.309 88.7724 136.513 86.8347 137.254 85.0774C137.996 83.3201 139.241 81.822 140.834 80.7728C142.427 79.7236 144.295 79.1703 146.202 79.1828C148.758 79.2007 151.203 80.2326 152.999 82.0518C154.795 83.871 155.796 86.3287 155.781 88.885Z" fill="#65C358"/>
<path d="M60.6538 101.691C60.644 101.541 60.6942 101.393 60.7934 101.279C60.8926 101.166 61.0328 101.097 61.1831 101.086C61.2584 101.082 61.3338 101.093 61.405 101.118C61.4761 101.142 61.5417 101.181 61.5979 101.231C61.6541 101.282 61.6998 101.343 61.7324 101.411C61.7651 101.479 61.7839 101.552 61.788 101.628C61.7923 101.702 61.7816 101.777 61.7566 101.848C61.7315 101.918 61.6927 101.983 61.6423 102.038C61.5918 102.093 61.5309 102.138 61.463 102.169C61.395 102.201 61.3215 102.218 61.2468 102.221H61.2189C61.0745 102.223 60.9348 102.169 60.8294 102.07C60.724 101.971 60.661 101.836 60.6538 101.691ZM57.7567 101.994C57.609 101.962 57.4795 101.874 57.3955 101.749C57.3116 101.623 57.2799 101.47 57.307 101.321C57.3368 101.172 57.4243 101.042 57.5504 100.957C57.6764 100.873 57.8308 100.842 57.9796 100.871C58.1277 100.902 58.2579 100.99 58.342 101.116C58.4261 101.242 58.4575 101.395 58.4293 101.544C58.4035 101.674 58.3335 101.791 58.2312 101.875C58.1289 101.959 58.0006 102.005 57.8681 102.006C57.8204 101.994 57.7965 101.982 57.7567 101.982V101.994ZM63.9768 101.198C63.9535 101.127 63.9448 101.052 63.9511 100.977C63.9574 100.903 63.9787 100.83 64.0136 100.764C64.0485 100.698 64.0964 100.64 64.1543 100.593C64.2122 100.545 64.2791 100.51 64.3509 100.489C64.4214 100.466 64.4959 100.457 64.5699 100.463C64.644 100.469 64.7162 100.489 64.7822 100.523C64.8482 100.557 64.9067 100.604 64.9543 100.661C65.0019 100.718 65.0375 100.785 65.0592 100.856C65.0828 100.927 65.092 101.002 65.0863 101.077C65.0807 101.152 65.0602 101.225 65.0262 101.292C64.9922 101.359 64.9452 101.419 64.888 101.467C64.8309 101.516 64.7646 101.553 64.6931 101.576C64.6351 101.585 64.576 101.585 64.518 101.576C64.4004 101.579 64.2848 101.545 64.1877 101.478C64.0906 101.412 64.0168 101.316 63.9768 101.206V101.198ZM54.4258 100.871C54.3588 100.839 54.2989 100.794 54.2494 100.738C54.1999 100.683 54.1619 100.618 54.1375 100.548C54.1131 100.478 54.1028 100.403 54.1072 100.329C54.1116 100.255 54.1306 100.182 54.1631 100.115C54.1939 100.047 54.2381 99.9855 54.2932 99.9346C54.3482 99.8837 54.413 99.8444 54.4836 99.8191C54.5542 99.7939 54.6292 99.7831 54.704 99.7875C54.7789 99.7919 54.8521 99.8114 54.9193 99.8447C54.9865 99.8762 55.0467 99.9208 55.0964 99.9759C55.1461 100.031 55.1843 100.095 55.2088 100.166C55.2333 100.236 55.2435 100.31 55.2389 100.384C55.2343 100.458 55.2149 100.53 55.1819 100.597C55.1373 100.696 55.0645 100.78 54.9724 100.838C54.8804 100.896 54.7733 100.926 54.6646 100.923C54.5865 100.93 54.5078 100.921 54.4337 100.895L54.4258 100.871ZM67.0769 99.9204C66.9951 99.791 66.9681 99.6346 67.0017 99.4853C67.0352 99.3361 67.1267 99.2063 67.256 99.1244C67.3863 99.0451 67.5425 99.0199 67.6911 99.0541C67.8398 99.0883 67.9693 99.1792 68.0519 99.3075C68.1326 99.4371 68.159 99.5932 68.1255 99.7422C68.092 99.8911 68.0012 100.021 67.8728 100.103C67.7788 100.158 67.6712 100.186 67.5624 100.183C67.4677 100.185 67.3742 100.162 67.2906 100.118C67.207 100.073 67.1362 100.008 67.0848 99.9283L67.0769 99.9204ZM51.4809 98.9772C51.3691 98.8789 51.2997 98.7412 51.2871 98.5928C51.2745 98.4445 51.3197 98.2971 51.4133 98.1813C51.5132 98.0718 51.6509 98.0044 51.7987 97.9926C51.9464 97.9807 52.0931 98.0254 52.2092 98.1176C52.3203 98.2165 52.389 98.3545 52.4009 98.5028C52.4127 98.6511 52.3669 98.7982 52.2728 98.9135C52.2181 98.9771 52.1503 99.028 52.074 99.0631C51.9978 99.0981 51.915 99.1163 51.8311 99.1165C51.7054 99.1129 51.5847 99.0666 51.4889 98.9852L51.4809 98.9772ZM69.7591 97.9186C69.6578 97.8109 69.6014 97.6686 69.6014 97.5207C69.6014 97.3728 69.6578 97.2305 69.7591 97.1227C69.865 97.0177 70.008 96.9588 70.1571 96.9588C70.3062 96.9588 70.4492 97.0177 70.555 97.1227C70.66 97.2286 70.7189 97.3716 70.7189 97.5207C70.7189 97.6698 70.66 97.8128 70.555 97.9186C70.5045 97.9736 70.443 98.0173 70.3744 98.0468C70.3058 98.0763 70.2317 98.0909 70.1571 98.0898C70.008 98.0831 69.8665 98.0222 69.7591 97.9186ZM49.0971 96.4223C49.0093 96.2996 48.9734 96.1472 48.9972 95.9982C49.021 95.8492 49.1027 95.7156 49.2245 95.6264C49.3475 95.5396 49.4996 95.5043 49.6484 95.5281C49.7971 95.5519 49.9306 95.6329 50.0204 95.7537C50.0643 95.8149 50.0956 95.8841 50.1124 95.9575C50.1292 96.0309 50.1312 96.1069 50.1182 96.181C50.1052 96.2551 50.0776 96.3259 50.0368 96.3893C49.9961 96.4526 49.9432 96.5071 49.8811 96.5497C49.7869 96.6233 49.6704 96.6626 49.5508 96.6611C49.4631 96.6583 49.3773 96.6353 49.3 96.5939C49.2227 96.5525 49.1559 96.4938 49.1051 96.4223H49.0971ZM71.8683 95.2921C71.7373 95.2184 71.6406 95.0961 71.5989 94.9517C71.5572 94.8073 71.5739 94.6523 71.6454 94.5201C71.6823 94.4524 71.7324 94.3929 71.7927 94.3449C71.853 94.297 71.9222 94.2615 71.9964 94.2408C72.0706 94.22 72.1482 94.2143 72.2246 94.224C72.301 94.2337 72.3747 94.2586 72.4414 94.2972C72.5731 94.3702 72.6706 94.4925 72.7123 94.6372C72.7541 94.7819 72.7368 94.9373 72.6642 95.0692C72.6144 95.1605 72.5407 95.2366 72.4509 95.2891C72.3612 95.3417 72.2588 95.3689 72.1548 95.3677C72.0568 95.3686 71.9604 95.3424 71.8763 95.2921H71.8683ZM47.4337 93.3342C47.3812 93.1926 47.3859 93.0361 47.4469 92.8979C47.5078 92.7598 47.6201 92.6507 47.76 92.594C47.9016 92.5415 48.058 92.5462 48.1962 92.6071C48.3344 92.6681 48.4434 92.7804 48.5002 92.9203C48.5537 93.0618 48.5495 93.2187 48.4884 93.3571C48.4274 93.4956 48.3144 93.6045 48.1739 93.6605C48.1043 93.6833 48.032 93.6967 47.959 93.7003C47.8452 93.6974 47.7347 93.6612 47.6413 93.5961C47.5479 93.531 47.4757 93.4399 47.4337 93.3342ZM73.2651 92.2159C73.193 92.1975 73.1253 92.1648 73.066 92.1197C73.0067 92.0747 72.957 92.0182 72.92 91.9537C72.8829 91.8891 72.8591 91.8178 72.85 91.7439C72.8409 91.67 72.8468 91.5951 72.8672 91.5234C72.9098 91.3812 73.0054 91.2606 73.1342 91.1866C73.263 91.1126 73.4152 91.0907 73.5596 91.1255C73.7042 91.1646 73.8273 91.2595 73.9019 91.3894C73.9765 91.5192 73.9965 91.6733 73.9576 91.8179C73.9197 91.9361 73.8445 92.0387 73.7434 92.1105C73.6422 92.1822 73.5205 92.2192 73.3965 92.2159C73.3532 92.2246 73.3092 92.2299 73.2651 92.2318V92.2159ZM46.6019 89.9396C46.5839 89.7892 46.6261 89.6379 46.7193 89.5186C46.8125 89.3993 46.9492 89.3217 47.0994 89.3028C47.2501 89.286 47.4014 89.3291 47.5206 89.4229C47.6398 89.5168 47.7172 89.6538 47.7361 89.8043C47.7519 89.9537 47.7088 90.1035 47.6159 90.2217C47.523 90.3399 47.3876 90.4171 47.2386 90.437H47.167C47.0276 90.4417 46.8913 90.3954 46.7836 90.3067C46.6759 90.2181 46.6042 90.0932 46.582 89.9555L46.6019 89.9396ZM73.301 88.3477V88.3079C73.3009 88.2331 73.3158 88.1589 73.3447 88.0898C73.3736 88.0208 73.4159 87.9581 73.4693 87.9055C73.5226 87.8529 73.5858 87.8115 73.6553 87.7836C73.7248 87.7556 73.7991 87.7418 73.874 87.7428C74.0232 87.7459 74.1653 87.8071 74.2701 87.9134C74.3749 88.0197 74.4341 88.1627 74.4351 88.3119V88.3438V88.3756C74.4351 88.4499 74.4204 88.5236 74.3917 88.5922C74.363 88.6608 74.3209 88.723 74.268 88.7752C74.215 88.8274 74.1522 88.8686 74.0832 88.8963C74.0142 88.924 73.9404 88.9378 73.866 88.9367C73.789 88.9389 73.7123 88.9254 73.6406 88.897C73.5689 88.8686 73.5037 88.826 73.449 88.7716C73.3943 88.7173 73.3512 88.6524 73.3223 88.5809C73.2934 88.5094 73.2794 88.4328 73.281 88.3557L73.301 88.3477ZM47.1153 87.0942C46.9656 87.0752 46.8292 86.9984 46.7355 86.8801C46.6418 86.7618 46.5981 86.6115 46.6139 86.4614C46.6237 86.3871 46.648 86.3155 46.6856 86.2507C46.7231 86.1859 46.7731 86.1291 46.8326 86.0836C46.8921 86.0382 46.96 86.0049 47.0324 85.9857C47.1048 85.9665 47.1804 85.9619 47.2546 85.9719C47.3287 85.9808 47.4002 86.0042 47.4652 86.0409C47.5302 86.0775 47.5872 86.1267 47.6331 86.1855C47.679 86.2443 47.7128 86.3117 47.7325 86.3836C47.7522 86.4555 47.7575 86.5307 47.748 86.6047C47.7297 86.7436 47.6614 86.8711 47.556 86.9633C47.4505 87.0556 47.3151 87.1063 47.175 87.1061L47.1153 87.0942ZM72.9109 85.1044C72.8732 84.9603 72.8938 84.8072 72.9683 84.6783C73.0429 84.5494 73.1652 84.4551 73.3089 84.4159C73.454 84.3779 73.6082 84.3983 73.7384 84.4727C73.8686 84.5471 73.9644 84.6696 74.0053 84.8139C74.0424 84.9594 74.0216 85.1137 73.9474 85.2442C73.8732 85.3748 73.7514 85.4716 73.6074 85.5143C73.5584 85.5182 73.5091 85.5182 73.4601 85.5143C73.3333 85.521 73.208 85.4845 73.1047 85.4107C73.0013 85.337 72.926 85.2304 72.891 85.1084L72.9109 85.1044ZM47.8157 83.807C47.6763 83.7488 47.5653 83.6383 47.5066 83.4991C47.4478 83.36 47.4459 83.2034 47.5013 83.0628C47.5595 82.9235 47.6701 82.8125 47.8092 82.7537C47.9483 82.6949 48.105 82.6931 48.2455 82.7485C48.3849 82.8067 48.4959 82.9172 48.5547 83.0564C48.6134 83.1955 48.6153 83.3521 48.5599 83.4927C48.5137 83.5973 48.4386 83.6866 48.3435 83.75C48.2483 83.8135 48.137 83.8484 48.0226 83.8508C47.9456 83.848 47.8692 83.8346 47.7958 83.811L47.8157 83.807ZM71.733 82.1197C71.6965 82.0545 71.6733 81.9826 71.6648 81.9084C71.6563 81.8342 71.6626 81.7589 71.6833 81.6871C71.704 81.6153 71.7388 81.5484 71.7856 81.4901C71.8323 81.4318 71.8902 81.3834 71.9559 81.3476C72.0207 81.3105 72.0923 81.2866 72.1665 81.2775C72.2407 81.2684 72.316 81.2742 72.3879 81.2946C72.4598 81.315 72.527 81.3496 72.5853 81.3963C72.6437 81.443 72.6922 81.5008 72.7279 81.5665C72.7644 81.6317 72.7875 81.7036 72.7961 81.7778C72.8046 81.8521 72.7983 81.9273 72.7776 81.9991C72.7569 82.0709 72.7221 82.1378 72.6753 82.1961C72.6285 82.2544 72.5707 82.3028 72.505 82.3386C72.42 82.3862 72.324 82.4109 72.2265 82.4102C72.1231 82.4124 72.0211 82.387 71.9309 82.3366C71.8406 82.2863 71.7654 82.2128 71.7131 82.1237L71.733 82.1197ZM49.3279 80.8064C49.207 80.7166 49.126 80.5831 49.1023 80.4344C49.0785 80.2857 49.1138 80.1336 49.2006 80.0105C49.2916 79.8909 49.4257 79.8114 49.5743 79.7891C49.7229 79.7668 49.8744 79.8034 49.9965 79.8911C50.0572 79.9349 50.1087 79.9903 50.148 80.0541C50.1872 80.1178 50.2135 80.1887 50.2254 80.2626C50.2372 80.3366 50.2343 80.4121 50.2169 80.485C50.1995 80.5578 50.1679 80.6264 50.1238 80.687C50.0701 80.76 50 80.8192 49.9191 80.86C49.8382 80.9008 49.7488 80.922 49.6582 80.9218C49.532 80.927 49.408 80.8876 49.308 80.8104L49.3279 80.8064ZM69.8467 79.5091C69.7458 79.3997 69.6917 79.255 69.6962 79.1062C69.7007 78.9575 69.7633 78.8164 69.8706 78.7132C69.9817 78.6159 70.1256 78.5644 70.2732 78.5688C70.4208 78.5732 70.5613 78.6333 70.6665 78.737C70.7669 78.847 70.8202 78.9919 70.815 79.1407C70.8097 79.2895 70.7464 79.4303 70.6386 79.533C70.5296 79.632 70.3879 79.6873 70.2407 79.6882C70.1634 79.6884 70.087 79.673 70.0158 79.6429C69.9447 79.6128 69.8804 79.5686 69.8268 79.5131L69.8467 79.5091ZM51.5406 78.2675C51.4503 78.1495 51.4083 78.0016 51.4231 77.8538C51.4379 77.7059 51.5083 77.5693 51.6202 77.4715C51.7373 77.3799 51.8851 77.3366 52.0332 77.3507C52.1813 77.3647 52.3183 77.4351 52.4161 77.5472C52.5073 77.6648 52.5499 77.8129 52.5351 77.961C52.5202 78.1091 52.4492 78.2458 52.3365 78.3431C52.2339 78.4316 52.1019 78.4785 51.9664 78.4744C51.8798 78.4771 51.7936 78.4603 51.7144 78.4251C51.6352 78.39 51.5649 78.3375 51.5088 78.2714L51.5406 78.2675ZM67.3873 77.4715C67.3231 77.4311 67.2676 77.3783 67.2242 77.3161C67.1807 77.254 67.1501 77.1838 67.1342 77.1096C67.1182 77.0355 67.1173 76.9588 67.1313 76.8843C67.1454 76.8098 67.1743 76.7388 67.2162 76.6756C67.2559 76.6108 67.3083 76.5546 67.3702 76.5104C67.432 76.4661 67.5021 76.4347 67.5763 76.418C67.6505 76.4013 67.7273 76.3997 67.8021 76.4132C67.877 76.4266 67.9484 76.455 68.0121 76.4965C68.1405 76.5791 68.2313 76.7088 68.2648 76.8578C68.2983 77.0067 68.2719 77.1629 68.1912 77.2925C68.1372 77.3711 68.0647 77.4352 67.98 77.4789C67.8952 77.5227 67.801 77.5447 67.7057 77.5432C67.5878 77.5496 67.4709 77.519 67.3714 77.4556L67.3873 77.4715ZM54.3064 76.3772C54.2424 76.2399 54.2354 76.0829 54.2869 75.9405C54.3383 75.798 54.4441 75.6817 54.581 75.617C54.6494 75.5856 54.7234 75.568 54.7987 75.5653C54.874 75.5625 54.949 75.5745 55.0196 75.6008C55.0902 75.627 55.1549 75.6669 55.2101 75.7182C55.2653 75.7695 55.3098 75.8311 55.3411 75.8996C55.3919 76.0361 55.3884 76.1868 55.3314 76.3208C55.2744 76.4548 55.1682 76.5618 55.0347 76.6199C54.9612 76.6592 54.8792 76.6797 54.7959 76.6796C54.6878 76.6811 54.5815 76.652 54.4893 76.5957C54.397 76.5393 54.3226 76.4581 54.2746 76.3612L54.3064 76.3772ZM64.4902 76.0946C64.3473 76.0447 64.2294 75.9413 64.1611 75.8063C64.0928 75.6712 64.0795 75.5149 64.124 75.3703C64.1469 75.2984 64.184 75.2319 64.2331 75.1747C64.2823 75.1175 64.3424 75.0708 64.41 75.0373C64.4777 75.0039 64.5513 74.9844 64.6266 74.9801C64.7019 74.9758 64.7773 74.9867 64.8483 75.0122C64.9206 75.0333 64.9878 75.0689 65.0459 75.1169C65.1039 75.165 65.1515 75.2243 65.1858 75.2914C65.2201 75.3585 65.2403 75.4318 65.2452 75.507C65.2501 75.5821 65.2397 75.6575 65.2144 75.7285C65.1794 75.8437 65.1083 75.9446 65.0116 76.0162C64.9148 76.0879 64.7976 76.1265 64.6772 76.1264C64.6015 76.1277 64.5266 76.1113 64.4583 76.0787L64.4902 76.0946ZM57.4224 75.1952C57.4087 75.122 57.4097 75.0467 57.4253 74.9739C57.441 74.9011 57.471 74.8321 57.5136 74.7709C57.5562 74.7098 57.6105 74.6578 57.6734 74.6179C57.7364 74.578 57.8066 74.5511 57.8801 74.5386C57.9533 74.5242 58.0286 74.5244 58.1017 74.5392C58.1748 74.554 58.2443 74.5832 58.306 74.625C58.3678 74.6668 58.4207 74.7204 58.4617 74.7828C58.5026 74.8451 58.5308 74.915 58.5447 74.9883C58.5704 75.1374 58.537 75.2906 58.4516 75.4155C58.3661 75.5403 58.2353 75.6269 58.087 75.6569C58.05 75.6608 58.0126 75.6608 57.9756 75.6569C57.8445 75.6548 57.718 75.6079 57.6174 75.5238C57.5167 75.4398 57.4479 75.3238 57.4224 75.1952ZM61.2945 75.4698C61.2192 75.4648 61.1457 75.4449 61.078 75.4113C61.0104 75.3777 60.9501 75.3311 60.9006 75.2742C60.851 75.2172 60.8132 75.1511 60.7893 75.0795C60.7654 75.0079 60.7559 74.9322 60.7613 74.857C60.7745 74.7063 60.8459 74.5668 60.9603 74.468C61.0747 74.3691 61.2232 74.3188 61.3741 74.3277C61.5247 74.3399 61.6647 74.4103 61.7642 74.524C61.8638 74.6376 61.9151 74.7856 61.9074 74.9365C61.8946 75.0805 61.829 75.2147 61.7232 75.3132C61.6174 75.4116 61.4789 75.4674 61.3343 75.4698H61.2945Z" fill="#5EC150"/>
<path d="M146.286 102.236C146.277 102.086 146.328 101.939 146.427 101.825C146.526 101.712 146.665 101.643 146.815 101.631C146.891 101.626 146.967 101.636 147.038 101.66C147.11 101.685 147.176 101.723 147.232 101.774C147.289 101.824 147.334 101.886 147.367 101.954C147.399 102.023 147.417 102.097 147.42 102.173C147.424 102.247 147.413 102.321 147.388 102.391C147.363 102.461 147.324 102.525 147.275 102.581C147.225 102.636 147.164 102.68 147.097 102.712C147.03 102.744 146.957 102.762 146.883 102.766H146.851C146.707 102.767 146.568 102.713 146.463 102.614C146.357 102.515 146.294 102.38 146.286 102.236ZM143.389 102.535C143.242 102.502 143.113 102.414 143.029 102.289C142.945 102.163 142.913 102.011 142.939 101.862C142.97 101.714 143.058 101.584 143.184 101.501C143.31 101.417 143.463 101.387 143.612 101.416C143.686 101.431 143.756 101.46 143.819 101.501C143.881 101.543 143.935 101.596 143.977 101.659C144.019 101.721 144.048 101.792 144.062 101.866C144.077 101.939 144.076 102.015 144.061 102.089C144.036 102.218 143.967 102.335 143.865 102.418C143.764 102.502 143.636 102.547 143.504 102.547C143.463 102.545 143.422 102.541 143.381 102.535H143.389ZM149.609 101.763C149.586 101.692 149.577 101.617 149.583 101.542C149.59 101.468 149.611 101.395 149.646 101.329C149.681 101.263 149.728 101.205 149.786 101.157C149.844 101.11 149.911 101.075 149.983 101.054C150.053 101.03 150.128 101.021 150.202 101.026C150.277 101.032 150.349 101.052 150.415 101.087C150.481 101.121 150.54 101.168 150.587 101.225C150.635 101.283 150.67 101.349 150.691 101.42C150.715 101.491 150.725 101.567 150.72 101.641C150.714 101.716 150.694 101.789 150.66 101.856C150.625 101.923 150.578 101.982 150.521 102.03C150.463 102.078 150.397 102.115 150.325 102.137C150.267 102.146 150.208 102.146 150.15 102.137C150.032 102.14 149.916 102.105 149.818 102.038C149.721 101.971 149.648 101.874 149.609 101.763ZM140.058 101.432C139.99 101.401 139.93 101.357 139.88 101.302C139.829 101.247 139.791 101.183 139.766 101.113C139.741 101.042 139.731 100.968 139.735 100.894C139.739 100.82 139.758 100.747 139.791 100.68C139.822 100.612 139.866 100.55 139.921 100.499C139.976 100.448 140.041 100.409 140.111 100.383C140.182 100.358 140.257 100.346 140.332 100.35C140.407 100.354 140.48 100.373 140.547 100.406C140.614 100.438 140.674 100.482 140.724 100.538C140.773 100.593 140.811 100.657 140.835 100.727C140.86 100.797 140.87 100.871 140.866 100.945C140.861 101.019 140.842 101.091 140.81 101.158C140.767 101.258 140.694 101.343 140.602 101.401C140.51 101.459 140.402 101.488 140.293 101.484C140.215 101.485 140.139 101.467 140.07 101.432H140.058ZM152.717 100.497C152.676 100.433 152.648 100.362 152.636 100.287C152.623 100.212 152.625 100.135 152.642 100.061C152.659 99.9868 152.69 99.9169 152.735 99.8551C152.779 99.7934 152.835 99.7411 152.9 99.7013C153.029 99.6195 153.186 99.5925 153.335 99.626C153.484 99.6596 153.614 99.7511 153.696 99.8804C153.777 100.01 153.803 100.166 153.77 100.315C153.736 100.464 153.645 100.594 153.517 100.676C153.424 100.735 153.316 100.763 153.206 100.756C153.11 100.758 153.014 100.736 152.928 100.691C152.842 100.645 152.77 100.579 152.717 100.497ZM137.125 99.55C137.011 99.4528 136.941 99.3149 136.928 99.166C136.915 99.017 136.962 98.8691 137.057 98.7541C137.156 98.6432 137.294 98.5744 137.442 98.5618C137.59 98.5492 137.737 98.5939 137.853 98.6865C137.964 98.7853 138.033 98.9229 138.046 99.071C138.058 99.219 138.014 99.3662 137.921 99.4824C137.866 99.5471 137.798 99.5988 137.721 99.6339C137.644 99.669 137.56 99.6866 137.475 99.6854C137.344 99.6825 137.219 99.6298 137.125 99.5381V99.55ZM155.399 98.4835C155.299 98.3753 155.243 98.2332 155.243 98.0856C155.243 97.938 155.299 97.7958 155.399 97.6876C155.505 97.5826 155.648 97.5237 155.797 97.5237C155.946 97.5237 156.089 97.5826 156.195 97.6876C156.3 97.7934 156.359 97.9365 156.359 98.0856C156.359 98.2346 156.3 98.3777 156.195 98.4835C156.144 98.5375 156.082 98.5806 156.014 98.61C155.945 98.6394 155.872 98.6546 155.797 98.6546C155.646 98.6459 155.504 98.5805 155.399 98.4716V98.4835ZM134.737 96.9912C134.651 96.8676 134.616 96.7152 134.641 96.5665C134.665 96.4177 134.747 96.2845 134.869 96.1953C134.992 96.1078 135.144 96.0726 135.294 96.0972C135.443 96.1217 135.576 96.2042 135.664 96.3266C135.709 96.3873 135.741 96.4563 135.758 96.5296C135.776 96.6029 135.778 96.679 135.766 96.7533C135.753 96.8275 135.726 96.8985 135.685 96.962C135.644 97.0254 135.591 97.08 135.529 97.1225C135.432 97.1938 135.315 97.2328 135.195 97.2339C135.104 97.2306 135.015 97.2058 134.935 97.1615C134.856 97.1172 134.788 97.0548 134.737 96.9792V96.9912ZM157.508 95.861C157.441 95.8237 157.382 95.7734 157.334 95.7131C157.287 95.6528 157.251 95.5836 157.231 95.5096C157.21 95.4355 157.204 95.3581 157.214 95.2818C157.223 95.2055 157.247 95.1318 157.286 95.065C157.361 94.9346 157.484 94.8384 157.628 94.7968C157.773 94.7552 157.929 94.7715 158.062 94.8422C158.13 94.8783 158.19 94.9279 158.239 94.9881C158.288 95.0483 158.323 95.1177 158.344 95.1922C158.365 95.2667 158.371 95.3447 158.36 95.4213C158.35 95.498 158.324 95.5718 158.284 95.6381C158.235 95.7298 158.162 95.8061 158.072 95.8581C157.982 95.9101 157.879 95.936 157.775 95.9326C157.68 95.9291 157.588 95.9003 157.508 95.849V95.861ZM133.07 93.9189C133.016 93.7779 133.02 93.6214 133.08 93.4831C133.14 93.3447 133.252 93.2355 133.392 93.1787C133.533 93.1271 133.689 93.1317 133.827 93.1917C133.965 93.2518 134.074 93.3625 134.132 93.5011C134.185 93.6422 134.181 93.7982 134.121 93.9363C134.061 94.0744 133.949 94.1838 133.81 94.2413C133.739 94.2638 133.665 94.2772 133.591 94.2811C133.477 94.2784 133.366 94.2413 133.273 94.1745C133.18 94.1078 133.109 94.0146 133.07 93.907V93.9189ZM158.901 92.7848C158.829 92.7668 158.761 92.7344 158.701 92.6895C158.642 92.6446 158.592 92.5881 158.555 92.5234C158.517 92.4587 158.494 92.3872 158.485 92.3131C158.476 92.239 158.482 92.1639 158.503 92.0923C158.545 91.9495 158.64 91.8283 158.77 91.7542C158.899 91.68 159.051 91.6586 159.196 91.6944C159.34 91.7335 159.463 91.8284 159.538 91.9582C159.613 92.0881 159.633 92.2422 159.594 92.3868C159.559 92.5087 159.485 92.6159 159.384 92.692C159.283 92.7682 159.159 92.8091 159.033 92.8086C158.988 92.8065 158.944 92.7984 158.901 92.7848ZM132.214 90.5084C132.198 90.359 132.241 90.2092 132.334 90.091C132.427 89.9728 132.563 89.8956 132.712 89.8757C132.862 89.8577 133.013 89.8999 133.133 89.9931C133.252 90.0863 133.329 90.2229 133.348 90.3731C133.366 90.5234 133.324 90.6748 133.231 90.7941C133.138 90.9134 133.001 90.991 132.851 91.0099H132.779C132.641 91.0074 132.508 90.9555 132.404 90.8635C132.3 90.7716 132.233 90.6457 132.214 90.5084ZM158.913 88.9166V88.8927V88.8529C158.914 88.7784 158.929 88.7047 158.958 88.636C158.987 88.5674 159.03 88.5052 159.083 88.4531C159.136 88.4009 159.199 88.3598 159.268 88.3321C159.338 88.3045 159.412 88.2908 159.486 88.2918C159.636 88.2939 159.778 88.3548 159.883 88.4613C159.989 88.5678 160.047 88.7113 160.047 88.8609V88.8927V88.9246C160.047 88.9988 160.032 89.0722 160.003 89.1405C159.974 89.2089 159.932 89.2709 159.879 89.323C159.826 89.3751 159.764 89.4163 159.695 89.4442C159.626 89.4721 159.552 89.4862 159.478 89.4857C159.326 89.4857 159.18 89.4254 159.072 89.3181C158.964 89.2107 158.902 89.065 158.901 88.9126L158.913 88.9166ZM132.728 87.6591C132.578 87.6411 132.442 87.565 132.348 87.4474C132.254 87.3297 132.21 87.1799 132.226 87.0303C132.246 86.88 132.324 86.7437 132.445 86.6513C132.565 86.5588 132.716 86.5176 132.867 86.5368C132.941 86.5457 133.012 86.5691 133.077 86.6058C133.142 86.6424 133.199 86.6916 133.245 86.7504C133.291 86.8092 133.325 86.8765 133.345 86.9485C133.364 87.0204 133.37 87.0956 133.36 87.1696C133.344 87.3088 133.278 87.4373 133.172 87.5299C133.067 87.6226 132.931 87.6729 132.791 87.671C132.769 87.6655 132.748 87.6575 132.728 87.6471V87.6591ZM158.523 85.6693C158.485 85.5252 158.506 85.3721 158.581 85.2432C158.655 85.1143 158.777 85.02 158.921 84.9808C159.067 84.9427 159.221 84.963 159.352 85.0373C159.483 85.1117 159.58 85.2342 159.622 85.3788C159.657 85.5264 159.633 85.682 159.554 85.8121C159.476 85.9423 159.35 86.0367 159.204 86.0752C159.156 86.0792 159.108 86.0792 159.06 86.0752C158.938 86.0749 158.819 86.0342 158.722 85.9594C158.624 85.8846 158.555 85.7798 158.523 85.6613V85.6693ZM133.432 84.3679C133.293 84.3097 133.182 84.1992 133.123 84.06C133.064 83.9209 133.062 83.7643 133.118 83.6237C133.175 83.4837 133.285 83.372 133.425 83.3131C133.564 83.2542 133.721 83.2529 133.862 83.3094C133.931 83.3374 133.995 83.3788 134.048 83.4315C134.102 83.4841 134.145 83.5468 134.174 83.616C134.203 83.6852 134.218 83.7595 134.219 83.8346C134.219 83.9097 134.205 83.9841 134.176 84.0536C134.131 84.1586 134.056 84.2482 133.961 84.3111C133.865 84.3741 133.753 84.4077 133.639 84.4077C133.568 84.4031 133.499 84.3897 133.432 84.3679ZM157.349 82.6766C157.278 82.5444 157.261 82.3894 157.303 82.245C157.344 82.1006 157.441 81.9783 157.572 81.9046C157.637 81.8681 157.709 81.8449 157.783 81.8364C157.858 81.8279 157.933 81.8341 158.005 81.8549C158.076 81.8756 158.143 81.9104 158.202 81.9572C158.26 82.0039 158.308 82.0618 158.344 82.1274C158.381 82.1925 158.405 82.2644 158.414 82.3387C158.422 82.4131 158.416 82.4885 158.395 82.5604C158.375 82.6324 158.34 82.6995 158.293 82.7577C158.246 82.8159 158.187 82.8641 158.121 82.8995C158.035 82.9446 157.94 82.9679 157.843 82.9671C157.741 82.9678 157.642 82.9411 157.554 82.89C157.467 82.8389 157.394 82.7652 157.345 82.6766H157.349ZM134.948 81.3673C134.827 81.2781 134.745 81.1449 134.72 80.9961C134.696 80.8474 134.73 80.6949 134.817 80.5714C134.908 80.4518 135.042 80.3724 135.191 80.3501C135.339 80.3278 135.491 80.3644 135.613 80.452C135.673 80.4959 135.725 80.5512 135.764 80.615C135.803 80.6787 135.83 80.7496 135.842 80.8236C135.853 80.8975 135.851 80.973 135.833 81.0459C135.816 81.1187 135.784 81.1874 135.74 81.2479C135.686 81.3206 135.616 81.3795 135.535 81.4196C135.454 81.4597 135.365 81.48 135.274 81.4788C135.155 81.4791 135.039 81.4399 134.944 81.3673H134.948ZM155.463 80.066C155.362 79.9566 155.308 79.812 155.312 79.6632C155.317 79.5144 155.379 79.3733 155.487 79.2701C155.6 79.1675 155.748 79.113 155.9 79.1182C156.053 79.1234 156.197 79.1879 156.303 79.2979C156.403 79.4079 156.456 79.5528 156.451 79.7016C156.446 79.8504 156.383 79.9912 156.275 80.0939C156.166 80.1928 156.024 80.2468 155.877 80.2451C155.798 80.2471 155.72 80.2321 155.648 80.2012C155.576 80.1703 155.512 80.1242 155.459 80.066H155.463ZM137.157 78.8244C137.065 78.7072 137.022 78.5594 137.036 78.4114C137.05 78.2633 137.12 78.1262 137.232 78.0285C137.35 77.9382 137.498 77.8962 137.646 77.911C137.794 77.9257 137.931 77.9962 138.028 78.1081C138.12 78.2252 138.163 78.373 138.149 78.5211C138.135 78.6692 138.065 78.8062 137.953 78.904C137.847 78.9902 137.715 79.0367 137.579 79.0353C137.495 79.0341 137.413 79.0145 137.338 78.9781C137.263 78.9416 137.197 78.8891 137.145 78.8244H137.157ZM153 78.0285C152.935 77.988 152.88 77.9352 152.836 77.8731C152.793 77.8109 152.762 77.7407 152.746 77.6665C152.73 77.5924 152.729 77.5158 152.744 77.4413C152.758 77.3667 152.786 77.2958 152.828 77.2325C152.868 77.1678 152.921 77.1116 152.982 77.0673C153.044 77.023 153.114 76.9914 153.188 76.9744C153.262 76.9573 153.339 76.9552 153.414 76.9681C153.489 76.981 153.56 77.0087 153.624 77.0495C153.753 77.1321 153.844 77.2615 153.878 77.4102C153.912 77.5589 153.887 77.7151 153.807 77.8454C153.752 77.9233 153.68 77.9871 153.595 78.0313C153.511 78.0756 153.417 78.0992 153.322 78.1001C153.204 78.1038 153.088 78.0734 152.988 78.0125L153 78.0285ZM139.919 76.9341C139.857 76.7959 139.851 76.6391 139.902 76.4966C139.953 76.3541 140.057 76.2371 140.193 76.17C140.262 76.1387 140.336 76.1213 140.412 76.1188C140.487 76.1163 140.562 76.1287 140.633 76.1553C140.703 76.182 140.768 76.2223 140.823 76.274C140.878 76.3256 140.922 76.3877 140.953 76.4565C140.984 76.5241 141.002 76.5972 141.005 76.6716C141.007 76.746 140.995 76.8201 140.969 76.8898C140.942 76.9594 140.903 77.0231 140.851 77.0772C140.8 77.1312 140.739 77.1746 140.671 77.2047C140.597 77.2444 140.515 77.265 140.432 77.2644C140.32 77.2658 140.21 77.2335 140.116 77.1718C140.023 77.1101 139.95 77.0218 139.907 76.9182L139.919 76.9341ZM150.102 76.6476C149.959 76.5985 149.84 76.4952 149.772 76.3599C149.703 76.2246 149.691 76.0679 149.736 75.9233C149.759 75.8514 149.796 75.7849 149.845 75.7279C149.895 75.6708 149.955 75.6243 150.023 75.5912C150.09 75.558 150.164 75.539 150.239 75.5352C150.315 75.5314 150.39 75.5429 150.461 75.5691C150.533 75.5897 150.6 75.625 150.658 75.6726C150.716 75.7202 150.763 75.7792 150.798 75.846C150.832 75.9128 150.852 75.9858 150.857 76.0607C150.862 76.1356 150.852 76.2107 150.827 76.2814C150.793 76.3973 150.722 76.4989 150.625 76.5707C150.528 76.6426 150.41 76.6808 150.289 76.6794C150.22 76.6735 150.152 76.6532 150.09 76.6197L150.102 76.6476ZM143.07 75.7681C143.056 75.6948 143.057 75.6194 143.072 75.5463C143.088 75.4733 143.118 75.4041 143.16 75.3428C143.203 75.2816 143.257 75.2295 143.321 75.1898C143.384 75.15 143.454 75.1234 143.528 75.1114C143.601 75.097 143.676 75.097 143.749 75.1116C143.822 75.1262 143.891 75.155 143.953 75.1964C144.015 75.2378 144.068 75.291 144.109 75.3529C144.15 75.4148 144.178 75.4842 144.193 75.5572C144.218 75.7062 144.185 75.8595 144.1 75.9844C144.014 76.1092 143.883 76.1958 143.735 76.2257C143.698 76.2297 143.661 76.2297 143.624 76.2257C143.488 76.2275 143.357 76.1807 143.253 76.0938C143.149 76.0069 143.08 75.8857 143.059 75.7521L143.07 75.7681ZM146.943 76.0387C146.791 76.0284 146.65 75.9586 146.55 75.8445C146.45 75.7303 146.399 75.5812 146.409 75.4298C146.423 75.2788 146.494 75.1389 146.608 75.0394C146.722 74.94 146.871 74.8887 147.022 74.8965C147.173 74.9097 147.313 74.981 147.413 75.0953C147.512 75.2096 147.563 75.3581 147.555 75.5094C147.539 75.6539 147.47 75.7871 147.36 75.8823C147.25 75.9775 147.108 76.0276 146.962 76.0228H146.923L146.943 76.0387Z" fill="#5EC150"/>
<path d="M15.8534 5.38451C15.8471 6.44328 15.5269 7.47639 14.9334 8.35316C14.3398 9.22994 13.4995 9.91098 12.5189 10.3101C11.5382 10.7093 10.4612 10.8087 9.42406 10.5956C8.38692 10.3826 7.43626 9.86677 6.69233 9.11337C5.94839 8.35997 5.4446 7.40285 5.2447 6.3631C5.0448 5.32335 5.15777 4.24767 5.5693 3.27213C5.98083 2.29658 6.67243 1.465 7.55664 0.882579C8.44085 0.300156 9.47794 -0.00694674 10.5367 0.000119246C11.9556 0.00958865 13.3127 0.582076 14.3097 1.59173C15.3066 2.60139 15.8619 3.9656 15.8534 5.38451Z" fill="#4FA343"/>
<path d="M193.799 5.38451C193.805 6.44328 194.125 7.47639 194.719 8.35316C195.313 9.22994 196.153 9.91098 197.133 10.3101C198.114 10.7093 199.191 10.8087 200.228 10.5956C201.265 10.3826 202.216 9.86677 202.96 9.11337C203.704 8.35997 204.208 7.40285 204.408 6.3631C204.608 5.32335 204.495 4.24767 204.083 3.27213C203.672 2.29658 202.98 1.465 202.096 0.882579C201.211 0.300156 200.174 -0.00694674 199.116 0.000119246C197.697 0.00958865 196.34 0.582076 195.343 1.59173C194.346 2.60139 193.79 3.9656 193.799 5.38451Z" fill="#4FA343"/>
<path d="M11.6904 8.04918C11.6515 7.94825 11.5618 7.86331 11.4411 7.81305C11.3204 7.7628 11.1786 7.75134 11.0468 7.78119C10.9151 7.81104 10.8042 7.87976 10.7386 7.97224C10.673 8.06471 10.6581 8.17338 10.6971 8.27431L18.1754 39.9448C18.2604 40.299 18.4584 40.6316 18.7516 40.9131C19.0448 41.1946 19.4242 41.4163 19.8561 41.5584C20.288 41.7005 20.759 41.7587 21.2274 41.7278C21.6957 41.6969 22.1468 41.5779 22.5406 41.3812L24.9401 40.1699C25.9086 39.6831 26.6238 38.9516 26.9612 38.1026C27.2986 37.2536 27.237 36.3409 26.787 35.5231L11.6904 8.04918Z" fill="#4FA343"/>
<path d="M197.962 8.04918C198.001 7.94825 198.091 7.86331 198.211 7.81305C198.332 7.7628 198.474 7.75134 198.606 7.78119C198.737 7.81104 198.848 7.87976 198.914 7.97224C198.979 8.06471 198.994 8.17338 198.955 8.27431L191.477 39.9448C191.392 40.299 191.194 40.6316 190.901 40.9131C190.608 41.1946 190.228 41.4163 189.796 41.5584C189.364 41.7005 188.893 41.7587 188.425 41.7278C187.957 41.6969 187.506 41.5779 187.112 41.3812L184.712 40.1699C183.744 39.6831 183.029 38.9516 182.691 38.1026C182.354 37.2536 182.415 36.3409 182.865 35.5231L197.962 8.04918Z" fill="#4FA343"/>
<path d="M46.6917 55.3683C45.2257 55.3676 43.817 54.7989 42.7615 53.7815C41.7061 52.7642 41.0859 51.3774 41.0313 49.9124C40.9767 48.4475 41.4919 47.0184 42.4687 45.9253C43.4456 44.8322 44.808 44.1602 46.2698 44.0504C87.4864 40.6637 125.137 40.7871 161.367 44.4483C162.863 44.5987 164.237 45.3371 165.189 46.501C166.14 47.6649 166.59 49.1589 166.439 50.6545C166.289 52.1501 165.551 53.5246 164.387 54.4758C163.223 55.427 161.729 55.8769 160.233 55.7265C124.695 52.1448 87.7212 52.0294 47.213 55.3604C47.026 55.3643 46.8588 55.3683 46.6917 55.3683Z" fill="#4FA343"/>
<path d="M103.94 113.955C81.0373 113.804 57.9597 112.523 34.8582 110.099C26.3896 109.212 20.0462 101.682 20.1059 92.5891L20.1656 83.3843C20.2213 74.3547 26.6045 66.9128 35.0094 66.0731C84.5831 61.1265 129.417 61.3374 172.082 66.7258C180.34 67.7685 186.52 75.2819 186.464 84.2041L186.401 93.6994C186.341 102.781 179.934 110.227 171.489 111.019C149.036 113.128 126.491 114.108 103.94 113.955ZM107.159 63.6058C83.1033 63.5107 59.0593 64.693 35.1288 67.1476C27.2691 67.9436 21.2998 74.9197 21.244 83.4042L21.1844 92.5891C21.1286 101.137 27.0582 108.209 34.9816 109.041C80.9577 113.856 126.858 114.17 171.402 109.972C179.297 109.228 185.29 102.236 185.33 93.7074L185.394 84.2081C185.446 75.8271 179.663 68.7713 171.943 67.7963C150.451 65.1127 128.818 63.7134 107.159 63.6058Z" fill="#4FA343"/>
</svg>
