<svg width="162" height="229" viewBox="0 0 162 229" fill="none" xmlns="http://www.w3.org/2000/svg">
<path d="M-1.42927e-05 2.05L-1.29396e-07 226.471C-5.79327e-08 227.603 1.69353 228.521 3.78263 228.521L6.23761 228.521C8.3267 228.521 10.0202 227.603 10.0202 226.471L10.0202 2.05C10.0202 0.917648 8.32669 -0.000290169 6.2376 -0.000290106L3.78261 -0.000290032C1.69352 -0.000289968 -1.43641e-05 0.917648 -1.42927e-05 2.05Z" fill="#274EDA"/>
<path d="M0.000761188 226.472L0.000756989 159.939L10.021 159.939L10.021 226.472C10.031 226.746 9.93979 227.018 9.75263 227.273C9.56546 227.527 9.28619 227.759 8.93126 227.953C8.57634 228.148 8.15297 228.303 7.68615 228.408C7.21934 228.512 6.71853 228.565 6.2133 228.563L3.70824 228.563C3.21147 228.558 2.72151 228.5 2.26631 228.392C1.81111 228.284 1.39958 228.128 1.05529 227.934C0.710998 227.74 0.440672 227.511 0.25973 227.26C0.078788 227.009 -0.00920646 226.742 0.000761188 226.472Z" fill="#2147CD"/>
<path d="M37.7773 2.05L37.7773 226.471C37.7773 227.603 39.4709 228.521 41.56 228.521L44.0149 228.521C46.104 228.521 47.7976 227.603 47.7976 226.471L47.7976 2.05C47.7976 0.917648 46.104 -0.000290169 44.0149 -0.000290106L41.56 -0.000290032C39.4709 -0.000289968 37.7773 0.917648 37.7773 2.05Z" fill="#274EDA"/>
<path d="M37.7783 226.472L37.7783 114.262L47.7985 114.262L47.7985 226.472C47.8086 226.746 47.7173 227.018 47.5301 227.273C47.343 227.527 47.0637 227.759 46.7088 227.953C46.3539 228.148 45.9305 228.303 45.4637 228.408C44.9968 228.512 44.496 228.565 43.9908 228.563L41.4858 228.563C40.4825 228.563 39.5204 228.347 38.811 227.963C38.1016 227.578 37.7031 227.057 37.7031 226.513L37.7783 226.472Z" fill="#2147CD"/>
<path d="M75.5508 2.05L75.5508 226.471C75.5508 227.603 77.2444 228.521 79.3334 228.521L81.7884 228.521C83.8775 228.521 85.571 227.603 85.571 226.471L85.571 2.05C85.571 0.917648 83.8775 -0.000290169 81.7884 -0.000290106L79.3334 -0.000290032C77.2443 -0.000289968 75.5508 0.917648 75.5508 2.05Z" fill="#274EDA"/>
<path d="M75.5515 226.472L75.5515 68.5576L85.5718 68.5576L85.5718 226.472C85.5818 226.746 85.4906 227.018 85.3034 227.273C85.1163 227.527 84.837 227.759 84.4821 227.953C84.1272 228.148 83.7038 228.303 83.237 228.408C82.7702 228.512 82.2694 228.565 81.7641 228.563L79.2591 228.563C78.7623 228.558 78.2723 228.5 77.8171 228.392C77.3619 228.284 76.9504 228.128 76.6061 227.934C76.2619 227.74 75.9915 227.511 75.8105 227.26C75.6296 227.009 75.5416 226.742 75.5515 226.472Z" fill="#2147CD"/>
<path d="M113.328 2.05L113.328 226.471C113.328 227.603 115.022 228.521 117.111 228.521L119.566 228.521C121.655 228.521 123.348 227.603 123.348 226.471L123.348 2.05C123.348 0.917648 121.655 -0.000290169 119.566 -0.000290106L117.111 -0.000290032C115.022 -0.000289968 113.328 0.917648 113.328 2.05Z" fill="#274EDA"/>
<path d="M113.329 226.472L113.329 114.262L123.349 114.262L123.349 226.472C123.359 226.745 123.269 227.016 123.083 227.27C122.897 227.523 122.62 227.754 122.268 227.949C121.916 228.143 121.495 228.298 121.032 228.404C120.568 228.509 120.07 228.564 119.566 228.563L117.061 228.563C116.562 228.56 116.07 228.503 115.612 228.396C115.154 228.289 114.739 228.133 114.392 227.939C114.045 227.745 113.773 227.515 113.59 227.263C113.408 227.012 113.319 226.743 113.329 226.472Z" fill="#2147CD"/>
<path d="M151.105 2.05L151.105 226.471C151.105 227.603 152.799 228.521 154.888 228.521L157.343 228.521C159.432 228.521 161.126 227.603 161.126 226.471L161.126 2.05C161.126 0.917648 159.432 -0.000290169 157.343 -0.000290106L154.888 -0.000290032C152.799 -0.000289968 151.105 0.917648 151.105 2.05Z" fill="#274EDA"/>
<path d="M151.105 226.472L151.105 114.262L161.125 114.262L161.125 226.472C161.135 226.745 161.045 227.016 160.859 227.27C160.673 227.523 160.396 227.754 160.044 227.949C159.692 228.143 159.271 228.298 158.807 228.404C158.344 228.509 157.846 228.564 157.342 228.563L154.837 228.563C153.834 228.563 152.872 228.347 152.163 227.963C151.453 227.578 151.055 227.057 151.055 226.513L151.105 226.472Z" fill="#2147CD"/>
</svg>
