<svg width="103" height="90" viewBox="0 0 103 90" fill="none" xmlns="http://www.w3.org/2000/svg">
<path d="M96.3 25.3573L22.536 5.59229C21.1891 5.23295 19.7547 5.42297 18.5478 6.12062C17.3409 6.81827 16.4604 7.96647 16.0996 9.31297L2.03251 61.8121C1.67343 63.158 1.86291 64.5914 2.55942 65.7978C3.25593 67.0042 4.40258 67.885 5.74774 68.247L79.5117 88.012C80.8582 88.3728 82.2929 88.1843 83.5005 87.488C84.7081 86.7916 85.5899 85.6444 85.9522 84.2983L100.019 31.7992C100.38 30.4517 100.191 29.0161 99.4938 27.808C98.7963 26.5999 97.6475 25.7183 96.3 25.3573ZM94.2597 41.0173L16.4784 20.1759L19.1688 10.1353C19.3114 9.60284 19.6595 9.14865 20.1365 8.87235C20.6136 8.59605 21.1807 8.52022 21.7136 8.66145L95.4776 28.4265C96.0103 28.5707 96.4641 28.9199 96.74 29.3978C97.0159 29.8757 97.0915 30.4434 96.9501 30.9768L94.2597 41.0173Z" fill="#5C2BE9"/>
<path d="M63.6211 61.5502L51.4102 58.2783L48.1383 70.4892L60.3492 73.7611L63.6211 61.5502Z" fill="#6734FB"/>
<path d="M31.5194 33.3227L19.3086 30.0508L16.0367 42.2617L28.2475 45.5335L31.5194 33.3227Z" fill="#6734FB"/>
<path d="M50.0272 38.2816L37.8164 35.0098L34.5445 47.2206L46.7553 50.4925L50.0272 38.2816Z" fill="#6734FB"/>
<path d="M68.5273 43.2392L56.3164 39.9673L53.0445 52.1782L65.2554 55.4501L68.5273 43.2392Z" fill="#6734FB"/>
<path d="M87.0351 48.1982L74.8242 44.9263L71.5523 57.1371L83.7632 60.409L87.0351 48.1982Z" fill="#6734FB"/>
<path d="M26.6132 51.6332L14.4023 48.3613L11.1304 60.5722L23.3413 63.8441L26.6132 51.6332Z" fill="#6734FB"/>
<path d="M45.121 56.5927L32.9102 53.3208L29.6383 65.5317L41.8491 68.8036L45.121 56.5927Z" fill="#6734FB"/>
<path d="M82.1289 66.5092L69.918 63.2373L66.6461 75.4482L78.857 78.7201L82.1289 66.5092Z" fill="#6734FB"/>
<path d="M50.0545 16.6845L46.8922 15.8371C46.2959 15.6774 45.683 16.0312 45.5232 16.6275L44.6759 19.7899C44.5161 20.3862 44.8699 20.9991 45.4662 21.1589L48.6286 22.0062C49.2249 22.166 49.8378 21.8121 49.9975 21.2158L50.8449 18.0535C51.0047 17.4572 50.6508 16.8443 50.0545 16.6845Z" fill="#5C2BE9"/>
<path d="M51.3229 9.0235L49.6239 8.56825C49.303 8.48228 48.9733 8.6727 48.8873 8.99354L46.1015 19.3903C46.0155 19.7112 46.2059 20.041 46.5267 20.1269L48.2257 20.5822C48.5466 20.6681 48.8764 20.4777 48.9624 20.1569L51.7482 9.76012C51.8342 9.43927 51.6437 9.10947 51.3229 9.0235Z" fill="#5C2BE9"/>
<path d="M70.0897 22.0522L66.9273 21.2048C66.331 21.045 65.7181 21.3989 65.5584 21.9952L64.711 25.1576C64.5512 25.7539 64.9051 26.3668 65.5014 26.5265L68.6637 27.3739C69.26 27.5337 69.873 27.1798 70.0328 26.5835L70.8801 23.4212C71.0399 22.8249 70.686 22.2119 70.0897 22.0522Z" fill="#5C2BE9"/>
<path d="M71.3542 14.3902L69.6552 13.935C69.3344 13.849 69.0045 14.0394 68.9186 14.3602L66.1327 24.757C66.0468 25.0779 66.2372 25.4077 66.5581 25.4936L68.257 25.9489C68.5779 26.0349 68.9077 25.8445 68.9937 25.5236L71.7795 15.1268C71.8655 14.806 71.675 14.4762 71.3542 14.3902Z" fill="#5C2BE9"/>
</svg>
