<svg width="73" height="72" viewBox="0 0 73 72" fill="none" xmlns="http://www.w3.org/2000/svg">
<path d="M58.0077 24.8569L63.7053 23.3302C60.8315 14.3142 54.1778 7.4867 45.9619 4.11587L42.9901 9.26315C49.8838 11.8586 55.5434 17.4258 58.0077 24.8569Z" fill="#5C2BE9"/>
<path d="M17.7995 16.0293L12.6341 13.0471C7.20434 20.0742 4.8558 29.3139 6.87498 38.5589L12.5726 37.0322C10.9912 29.3645 13.1089 21.7134 17.7995 16.0293Z" fill="#5C2BE9"/>
<path d="M52.7699 27.7883C50.4227 19.0283 43.8069 12.9691 35.1261 13.2189L34.607 11.2818C33.9735 8.91723 31.5534 7.52001 29.1888 8.15358C26.8243 8.78716 25.4271 11.2072 26.0606 13.5718L26.5797 15.509C18.937 19.6332 16.2372 28.1884 18.5844 36.9484L22.4011 51.1923L18.2301 58.4166L18.9934 61.2654L64.5741 49.0521L63.8108 46.2033L56.5866 42.0323L52.7699 27.7883Z" fill="#5C2BE9"/>
<path d="M44.0757 63.705C44.4746 63.5982 44.8477 63.4524 45.1989 63.282C46.9477 62.4012 48.1282 60.7109 48.4005 58.8212C48.5021 58.0612 48.4604 57.2785 48.2467 56.4809L36.8516 59.5342C37.6949 62.6821 40.9278 64.5485 44.0757 63.705Z" fill="#5C2BE9"/>
</svg>
