<svg width="180" height="228" viewBox="0 0 180 228" fill="none" xmlns="http://www.w3.org/2000/svg">
<path d="M94.6862 138.117C94.8868 138.185 95.1038 138.189 95.3067 138.128C95.5096 138.067 95.6883 137.944 95.8178 137.776L103.388 127.972C109.227 128.536 115.12 128.144 120.834 126.812L129.642 135.513C129.793 135.661 129.987 135.759 130.196 135.793C130.405 135.826 130.62 135.794 130.81 135.7L144.128 129.11C144.319 129.017 144.475 128.866 144.576 128.68C144.677 128.493 144.718 128.28 144.692 128.069L143.12 115.789C147.645 112.055 151.532 107.609 154.627 102.625L167.014 102.549C167.225 102.547 167.431 102.479 167.603 102.355C167.775 102.231 167.904 102.057 167.972 101.856L172.729 87.7773C172.797 87.5766 172.8 87.3598 172.739 87.1571C172.678 86.9543 172.555 86.7756 172.388 86.6457L162.585 79.0711C163.149 73.2314 162.757 67.3388 161.425 61.6252L170.125 52.8189C170.274 52.6681 170.372 52.4745 170.405 52.2653C170.439 52.056 170.406 51.8414 170.312 51.6515L163.72 38.3329C163.627 38.1421 163.476 37.9852 163.29 37.8842C163.103 37.7831 162.89 37.7429 162.679 37.7693L150.399 39.3432C146.665 34.8182 142.219 30.9323 137.235 27.8382L137.158 15.4496C137.157 15.2377 137.09 15.0315 136.966 14.8598C136.842 14.688 136.667 14.5593 136.466 14.4915L122.389 9.73431C122.189 9.66669 121.972 9.66319 121.769 9.7243C121.566 9.78542 121.388 9.9081 121.258 10.0754L113.681 19.8783C107.842 19.3147 101.95 19.7066 96.2373 21.0386L87.4287 12.3384C87.2777 12.1898 87.0841 12.0919 86.875 12.0583C86.6658 12.0247 86.4513 12.0571 86.2613 12.1509L72.9429 18.741C72.7517 18.8335 72.5944 18.9838 72.4932 19.1706C72.3921 19.3574 72.3522 19.5713 72.3793 19.782L73.9509 32.0616C69.424 35.7967 65.5369 40.2455 62.443 45.2327L50.0543 45.309C49.8428 45.3102 49.6369 45.3773 49.4652 45.5009C49.2935 45.6245 49.1646 45.7986 49.0965 45.9988L44.339 60.0781C44.2716 60.279 44.2685 60.496 44.33 60.6988C44.3915 60.9016 44.5147 61.0802 44.6824 61.2099L54.4833 68.7842C53.9193 74.6241 54.3119 80.5169 55.6457 86.2304L46.9455 95.039C46.7968 95.1894 46.6986 95.3823 46.6646 95.5911C46.6307 95.7998 46.6626 96.014 46.7559 96.2038L53.3482 109.522C53.441 109.713 53.5914 109.871 53.7781 109.972C53.9648 110.073 54.1786 110.113 54.3892 110.086L66.6691 108.512C70.4019 113.038 74.8485 116.924 79.8335 120.017L79.9098 132.406C79.9111 132.618 79.9785 132.824 80.1026 132.996C80.2266 133.167 80.4012 133.296 80.6019 133.364L94.6862 138.117Z" fill="#61B855"/>
<path d="M116.467 86.581C113.19 88.6382 109.243 89.3445 105.456 88.5514C101.669 87.7582 98.3366 85.5274 96.1605 82.3281C93.9844 79.1288 93.1337 75.2103 93.7873 71.3966C94.441 67.583 96.5481 64.1714 99.6654 61.8794C102.783 59.5873 106.667 58.5935 110.502 59.1068C114.337 59.62 117.824 61.6005 120.229 64.6316C122.634 67.6628 123.77 71.5084 123.397 75.3597C123.025 79.211 121.174 82.7678 118.233 85.2823C117.676 85.7573 117.086 86.1914 116.467 86.581ZM102.468 64.2119C101.988 64.5137 101.53 64.85 101.099 65.2182C98.8573 67.1389 97.4475 69.8537 97.1658 72.792C96.884 75.7304 97.7523 78.6637 99.5881 80.9752C101.424 83.2868 104.084 84.7968 107.01 85.1878C109.936 85.5788 112.899 84.8205 115.278 83.0721C117.656 81.3237 119.264 78.7215 119.764 75.8122C120.264 72.903 119.616 69.9132 117.958 67.4714C116.299 65.0295 113.759 63.3256 110.87 62.7177C107.982 62.1099 104.97 62.6455 102.468 64.2119Z" fill="#4FA343"/>
<path d="M128.195 104.696C127.129 105.366 126.03 105.981 124.901 106.54C124.543 106.715 124.171 106.886 123.821 107.053C122.032 107.867 120.181 108.537 118.286 109.058L118.209 109.079C118.135 109.097 118.064 109.118 117.99 109.137C117.847 109.174 117.704 109.212 117.561 109.247C117.383 109.292 117.195 109.28 117.025 109.212C116.854 109.143 116.71 109.022 116.612 108.867C116.563 108.792 116.526 108.71 116.503 108.624C116.446 108.4 116.481 108.162 116.6 107.964C116.719 107.766 116.911 107.623 117.135 107.566C124.073 105.812 130.308 101.975 135.001 96.5723C139.694 91.1692 142.619 84.4588 143.385 77.3434C144.104 70.7377 142.917 64.0641 139.963 58.1119C139.431 57.035 138.844 55.9857 138.205 54.9681C133.587 47.6472 126.42 42.2975 118.088 39.9527C109.756 37.608 100.85 38.4345 93.0921 42.2726C75.7942 50.8319 68.695 71.8555 77.2551 89.1442C77.7844 90.2107 78.3632 91.2448 78.9916 92.2464C81.7133 96.5868 85.3581 100.274 89.6668 103.046C89.773 103.112 89.8644 103.2 89.9351 103.303C90.0397 103.471 90.0841 103.67 90.0609 103.867C90.0378 104.063 89.9485 104.246 89.8077 104.385C89.6669 104.524 89.483 104.611 89.2862 104.632C89.0894 104.653 88.8914 104.606 88.7247 104.499C83.1447 100.901 78.6444 95.8576 75.7026 89.9054C66.72 71.7539 74.1772 49.6768 92.3305 40.6991C100.476 36.6703 109.825 35.8029 118.572 38.2643C127.32 40.7257 134.845 46.3413 139.694 54.0265C140.363 55.0944 140.978 56.1952 141.537 57.3248C145.569 65.4699 146.438 74.8203 143.976 83.5688C141.514 92.3173 135.897 99.8426 128.209 104.69L128.195 104.696Z" fill="#4FA343"/>
<path d="M38.3197 215.82C38.4537 215.865 38.5986 215.867 38.7341 215.826C38.8697 215.786 38.989 215.703 39.0756 215.592L44.1463 209.032C48.0533 209.409 51.9956 209.147 55.8183 208.255L61.7144 214.074C61.815 214.174 61.9442 214.24 62.0842 214.263C62.2241 214.286 62.3676 214.264 62.4948 214.201L71.4071 209.791C71.5327 209.727 71.6357 209.626 71.7023 209.501C71.769 209.377 71.7961 209.235 71.78 209.095L70.7266 200.877C73.7545 198.378 76.3549 195.402 78.4255 192.067L86.7146 192.017C86.8561 192.014 86.9934 191.968 87.108 191.885C87.2226 191.802 87.3091 191.686 87.3559 191.553L90.5393 182.132C90.5847 181.998 90.5871 181.853 90.5463 181.718C90.5054 181.582 90.4233 181.463 90.3113 181.376L83.7513 176.308C84.1287 172.4 83.8665 168.457 82.9751 164.634L88.7959 158.74C88.8958 158.639 88.9618 158.51 88.9846 158.37C89.0075 158.23 88.9861 158.087 88.9234 157.96L84.5131 149.047C84.449 148.921 84.348 148.818 84.2235 148.751C84.0991 148.684 83.9571 148.656 83.8167 148.672L75.5995 149.725C73.1003 146.698 70.1244 144.097 66.7888 142.027L66.7369 133.737C66.7363 133.596 66.6914 133.458 66.6086 133.343C66.5258 133.228 66.4091 133.142 66.275 133.096L56.8543 129.913C56.7202 129.867 56.5753 129.865 56.4398 129.906C56.3043 129.947 56.1849 130.029 56.0983 130.141L51.03 136.701C47.1222 136.323 43.1791 136.586 39.3557 137.477L33.462 131.656C33.3601 131.558 33.2308 131.494 33.0913 131.472C32.9519 131.449 32.8089 131.47 32.6815 131.531L23.7694 135.939C23.6429 136.003 23.5392 136.105 23.472 136.229C23.4049 136.354 23.3777 136.497 23.394 136.638L24.4473 144.855C21.4196 147.353 18.8193 150.328 16.7487 153.663L8.45746 153.71C8.3158 153.711 8.17788 153.756 8.06295 153.839C7.94802 153.921 7.86182 154.038 7.81639 154.172L4.63296 163.593C4.58757 163.727 4.58516 163.872 4.62602 164.007C4.6669 164.143 4.74902 164.262 4.86096 164.349L11.4208 169.42C11.0436 173.327 11.3059 177.269 12.1972 181.092L6.37624 186.987C6.27604 187.088 6.21001 187.217 6.18753 187.358C6.16505 187.498 6.18727 187.641 6.25102 187.768L10.6523 196.677C10.7169 196.803 10.8184 196.907 10.9433 196.973C11.0683 197.04 11.2106 197.067 11.3513 197.05L19.5684 195.997C22.0634 199.023 25.0346 201.623 28.3653 203.694L28.4172 211.984C28.4178 212.126 28.4627 212.263 28.5455 212.378C28.6283 212.493 28.745 212.579 28.8792 212.625L38.3197 215.82Z" fill="#61B855"/>
<path d="M52.978 181.498C50.7383 182.904 48.0409 183.386 45.4529 182.844C42.8649 182.302 40.5879 180.778 39.1007 178.591C37.6134 176.405 37.0318 173.727 37.4781 171.121C37.9243 168.515 39.3637 166.183 41.4936 164.616C43.6235 163.049 46.278 162.369 48.8989 162.719C51.5199 163.069 53.9031 164.421 55.5476 166.492C57.1921 168.562 57.9697 171.19 57.7169 173.822C57.4642 176.454 56.2007 178.885 54.1922 180.605C53.809 180.931 53.4033 181.23 52.978 181.498ZM43.6102 166.524C43.3016 166.724 43.0079 166.947 42.7314 167.189C41.2516 168.487 40.3424 170.315 40.2008 172.278C40.0592 174.241 40.6965 176.181 41.9747 177.677C43.253 179.174 45.0693 180.106 47.0303 180.273C48.9913 180.44 50.9392 179.828 52.4521 178.569C53.8862 177.341 54.8032 175.616 55.0191 173.74C55.235 171.864 54.734 169.975 53.6165 168.453C52.4989 166.931 50.8474 165.888 48.9929 165.532C47.1384 165.176 45.2179 165.534 43.6162 166.534L43.6102 166.524Z" fill="#4FA343"/>
<path d="M61.1243 194.114C60.4028 194.567 59.6527 194.986 58.874 195.372C57.3283 196.138 55.7088 196.745 54.0404 197.183L53.8142 197.241C53.539 197.311 53.2488 197.291 52.9854 197.186C52.7219 197.08 52.4987 196.894 52.3479 196.653C52.272 196.534 52.2162 196.403 52.1825 196.266C52.1394 196.094 52.1304 195.916 52.1561 195.742C52.1817 195.567 52.2416 195.399 52.3321 195.248C52.4227 195.096 52.5422 194.964 52.6839 194.859C52.8255 194.753 52.9865 194.677 53.1577 194.634C54.7196 194.241 56.2354 193.684 57.6797 192.972C57.76 192.933 57.8381 192.894 57.9233 192.853C61.2773 191.162 64.1523 188.655 66.2842 185.562C67.4425 183.88 68.3683 182.049 69.0366 180.119L69.055 180.072L69.1037 179.925C70.067 177.108 70.4617 174.128 70.2651 171.158C70.0684 168.187 69.2843 165.285 67.9582 162.62C67.6137 161.923 67.2345 161.244 66.8221 160.586C63.7242 155.679 58.8612 152.148 53.2361 150.722C47.6111 149.295 41.6532 150.082 36.5915 152.92C31.5297 155.758 27.7503 160.431 26.0328 165.974C24.3154 171.517 24.7908 177.508 27.3612 182.71C27.7014 183.398 28.076 184.068 28.4836 184.718C30.2464 187.527 32.6063 189.914 35.3955 191.709C35.5441 191.804 35.6723 191.928 35.773 192.074C35.8736 192.219 35.9447 192.382 35.9822 192.555C36.0196 192.727 36.0227 192.906 35.9912 193.08C35.9598 193.253 35.8944 193.419 35.7988 193.568C35.7032 193.716 35.5793 193.845 35.4342 193.945C35.289 194.046 35.1255 194.117 34.9528 194.155C34.7802 194.192 34.6019 194.195 34.4281 194.164C34.2543 194.132 34.0883 194.067 33.9398 193.971C30.7506 191.917 28.0632 189.173 26.0759 185.942C24.0886 182.711 22.8521 179.074 22.4576 175.302C22.0631 171.529 22.5207 167.715 23.7966 164.143C25.0726 160.57 27.1343 157.33 29.8296 154.661C32.525 151.991 35.7853 149.961 39.3699 148.72C42.9546 147.479 46.7722 147.058 50.5411 147.489C54.31 147.92 57.9341 149.192 61.1459 151.211C64.3577 153.229 67.0754 155.943 69.0984 159.152C69.5601 159.888 69.9844 160.648 70.3697 161.427C73.1421 167.054 73.7315 173.509 72.0241 179.546C70.3168 185.583 66.4336 190.773 61.1243 194.114Z" fill="#4FA343"/>
</svg>
