<svg width="178" height="178" viewBox="0 0 178 178" fill="none" xmlns="http://www.w3.org/2000/svg">
<path opacity="0.2" d="M107.439 18.7459C93.6049 15.039 78.9822 15.5177 65.4201 20.1214C51.8579 24.7252 39.9655 33.2471 31.2467 44.6097C22.5279 55.9723 17.3743 69.6651 16.4376 83.9566C15.5009 98.2482 18.8231 112.497 25.9842 124.9C33.1453 137.303 43.8237 147.305 56.6689 153.639C69.5141 159.974 83.9492 162.357 98.1489 160.488C112.349 158.618 125.675 152.58 136.443 143.137C147.211 133.693 154.937 121.269 158.644 107.435C161.106 98.2494 161.735 88.6687 160.494 79.2401C159.253 69.8115 156.168 60.7197 151.413 52.4839C146.658 44.248 140.327 37.0296 132.782 31.2408C125.237 25.452 116.625 21.2062 107.439 18.7459ZM78.0205 128.537C70.138 126.425 63.0589 122.023 57.6785 115.888C52.298 109.752 48.8579 102.159 47.7931 94.0679C46.7283 85.9771 48.0868 77.7523 51.6967 70.4336C55.3066 63.1149 61.0057 57.0311 68.0734 52.9515C75.141 48.8719 83.2597 46.9799 91.4028 47.5147C99.5458 48.0494 107.347 50.987 113.821 55.9558C120.294 60.9246 125.149 67.7015 127.771 75.4295C130.392 83.1574 130.663 91.4893 128.55 99.3713C127.147 104.604 124.728 109.51 121.43 113.808C118.131 118.106 114.019 121.712 109.327 124.421C104.634 127.129 99.4545 128.887 94.083 129.593C88.7115 130.299 83.2534 129.941 78.0205 128.537Z" fill="#000"/>
<mask id="mask0_1439_2548" style="mask-type:luminance" maskUnits="userSpaceOnUse" x="16" y="16" width="146" height="146">
<path d="M107.431 18.7422C93.5971 15.0354 78.9744 15.5141 65.4122 20.1178C51.8501 24.7215 39.9577 33.2435 31.2389 44.6061C22.5201 55.9686 17.3665 69.6614 16.4298 83.953C15.4931 98.2445 18.8153 112.493 25.9764 124.896C33.1375 137.3 43.8159 147.301 56.661 153.636C69.5062 159.97 83.9414 162.353 98.141 160.484C112.341 158.615 125.667 152.576 136.435 143.133C147.203 133.69 154.929 121.266 158.636 107.431C161.098 98.2458 161.727 88.6651 160.486 79.2364C159.246 69.8078 156.16 60.716 151.405 52.4802C146.65 44.2444 140.319 37.0259 132.774 31.2371C125.229 25.4483 116.617 21.2025 107.431 18.7422ZM78.0127 128.534C70.1302 126.422 63.0511 122.019 57.6707 115.884C52.2902 109.748 48.85 102.155 47.7853 94.0643C46.7205 85.9735 48.079 77.7487 51.6889 70.43C55.2988 63.1113 60.9979 57.0274 68.0656 52.9478C75.1332 48.8683 83.2519 46.9763 91.3949 47.511C99.538 48.0458 107.339 50.9833 113.813 55.9521C120.286 60.921 125.141 67.6979 127.763 75.4258C130.384 83.1537 130.656 91.4856 128.542 99.3677C127.14 104.601 124.72 109.506 121.422 113.805C118.124 118.103 114.011 121.709 109.319 124.417C104.626 127.126 99.4467 128.883 94.0752 129.589C88.7037 130.296 83.2456 129.937 78.0127 128.534Z" fill="white"/>
</mask>
<g mask="url(#mask0_1439_2548)">
<path opacity="0.2" d="M202.908 102.806L-4.86719 47.1331L-28.4289 135.067L179.347 190.74L202.908 102.806Z" fill="#000"/>
</g>
</svg>
