<svg width="148" height="195" viewBox="0 0 148 195" fill="none" xmlns="http://www.w3.org/2000/svg">
<path d="M133.84 20.6597H14.2697C6.44919 20.6597 0.109375 26.9995 0.109375 34.82V180.091C0.109375 187.911 6.44919 194.251 14.2697 194.251H133.84C141.661 194.251 148 187.911 148 180.091V34.82C148 26.9995 141.661 20.6597 133.84 20.6597Z" fill="url(#paint0_linear_2165_1469)"/>
<path d="M133.84 20.6597H14.2697C6.44919 20.6597 0.109375 26.9995 0.109375 34.82V180.091C0.109375 187.911 6.44919 194.251 14.2697 194.251H133.84C141.661 194.251 148 187.911 148 180.091V34.82C148 26.9995 141.661 20.6597 133.84 20.6597Z" fill="#5C2BE9"/>
<path d="M78.8927 123.068H67.1641V125.239H78.8927V123.068Z" fill="#6734FB"/>
<path d="M90.8861 142.975H22.6328V147.181H90.8861V142.975Z" fill="#6734FB"/>
<path d="M77.8259 163.167H22.6328V167.372H77.8259V163.167Z" fill="#6734FB"/>
<path d="M54.9894 153.071H22.6328V157.277H54.9894V153.071Z" fill="#6734FB"/>
<path d="M108.743 37.9707V40.0952H121.25V51.834H123.374V37.9707H108.743ZM23.8071 51.834H25.9316V40.0952H38.4284V37.9707H23.7969L23.8071 51.834ZM121.25 112.405V124.146H108.743V126.27H123.374V112.405H121.25ZM25.9316 112.405H23.8071V126.27H38.4387V124.146H25.9418L25.9316 112.405Z" fill="#6734FB"/>
<path d="M116.753 167.682C114.279 167.682 111.859 166.949 109.802 165.574C107.744 164.199 106.141 162.245 105.194 159.958C104.247 157.672 104 155.156 104.483 152.729C104.967 150.302 106.159 148.073 107.91 146.324C109.66 144.575 111.89 143.384 114.318 142.903C116.745 142.421 119.261 142.671 121.546 143.619C123.832 144.568 125.785 146.173 127.158 148.232C128.531 150.291 129.263 152.71 129.26 155.185C129.253 158.499 127.933 161.675 125.589 164.017C123.245 166.36 120.067 167.678 116.753 167.682ZM116.753 145.087C114.758 145.087 112.808 145.679 111.149 146.787C109.49 147.896 108.197 149.471 107.434 151.314C106.67 153.158 106.47 155.186 106.86 157.143C107.249 159.1 108.21 160.897 109.62 162.308C111.031 163.719 112.829 164.679 114.785 165.069C116.742 165.458 118.77 165.258 120.614 164.495C122.457 163.731 124.032 162.438 125.141 160.779C126.249 159.12 126.841 157.17 126.841 155.175C126.838 152.5 125.775 149.936 123.883 148.045C121.992 146.154 119.428 145.09 116.753 145.087Z" fill="#6734FB"/>
<path d="M115.956 160.098L110.273 154.415L111.986 152.702L115.956 156.675L121.523 151.106L123.235 152.819L115.956 160.098Z" fill="#6734FB"/>
<path d="M118.714 103.667H104.685C103.761 96.9491 102.636 89.2809 102.636 89.2809C102.636 89.2809 102.069 95.6093 101.378 103.667H45.2449C44.7327 96.4205 44.1161 90.9998 43.8928 90.8892C43.5711 90.7273 41.5675 97.156 39.9061 103.667H24.707C28.6159 86.8287 35.9071 59.813 40.1232 58.1863C46.1217 55.8795 70.591 48.3384 70.591 48.3384H84.5547C84.5547 48.3384 109.366 55.4186 111.675 63.1154C113.494 69.2553 117.542 89.4817 118.714 103.667Z" fill="#5424DC"/>
<path d="M78.1979 3.04885C78.1979 3.04885 91.2357 5.09751 89.2607 25.5022C87.2858 45.9069 75.7683 44.2311 75 44.2106C74.2318 44.1901 63.4476 44.5814 62.6076 19.6758C62.5974 19.6758 62.2286 1.25832 78.1979 3.04885Z" fill="#6734FB"/>
<path d="M84.2866 38.1955C84.2866 38.1955 83.928 46.595 84.7414 48.4019C85.5547 50.2089 73.9818 56.0537 66.918 49.5512C66.918 49.5512 68.6225 40.4326 68.1472 37.1998C67.6719 33.9671 84.2866 38.1955 84.2866 38.1955Z" fill="#6734FB"/>
<path d="M89.4533 19.7417C89.4533 19.7417 90.8874 18.2155 91.4036 19.7602C91.9199 21.3049 89.189 28.2027 89.3672 28.5121C89.3672 28.5121 89.107 29.1103 88.7649 28.7805C88.4228 28.4506 89.4533 19.7417 89.4533 19.7417Z" fill="#6734FB"/>
<path d="M62.7503 19.4834C62.7503 19.4834 61.3531 17.9305 60.8 19.4629C60.2468 20.9953 62.8487 27.9464 62.6663 28.2537C62.6663 28.2537 62.9163 28.856 63.2645 28.5344C63.6128 28.2128 62.7503 19.4834 62.7503 19.4834Z" fill="#6734FB"/>
<path d="M89.4473 22.8695L87.5809 25.3648C87.5809 25.3648 87.6321 19.8928 87.333 19.0365C87.0339 18.1801 86.575 15.5538 86.3251 14.9392C86.0752 14.3246 75.1291 11.2516 65.4594 15.8344C65.4594 15.8344 65.8856 19.7699 64.9596 20.1202C64.0336 20.4706 64.4863 26.5264 64.4863 26.5264L62.9519 24.7953C62.9519 24.7953 60.6021 9.10456 61.1819 7.46562C61.7616 5.82669 63.6116 -4.0069 83.4467 1.83385C83.4467 1.83385 89.6316 0.524752 90.8731 4.79417C92.1146 9.06359 89.4473 22.8695 89.4473 22.8695Z" fill="#5C2BE9"/>
<path d="M84.7419 48.4082C84.7419 48.4082 87.6838 49.0351 75.3734 60.8334C75.3734 60.8334 66.642 51.1739 66.9247 49.5657C67.2074 47.9575 84.7419 48.4082 84.7419 48.4082Z" fill="#6734FB"/>
<path d="M75.3711 60.8335L78.7309 66.5779L88.6956 49.658L84.3791 46.6465L75.3711 60.8335Z" fill="#4A20C1"/>
<path d="M75.3732 60.8335L67.2195 47.8613L62.5977 50.8319L70.8845 66.5779L75.3732 60.8335Z" fill="#4A20C1"/>
<path d="M72.8417 96.7709C72.942 98.6844 72.9871 101.032 72.9932 103.667H72.5302C72.5302 101.042 72.4811 98.7008 72.3807 96.7935C71.6247 82.4016 75.1116 64.8917 75.1341 60.7861L75.5848 60.8763C75.5623 64.9798 72.0857 82.4467 72.8417 96.7709Z" fill="#4A20C1"/>
<path d="M69.3672 41.8099C69.3672 41.8099 72.4648 45.0877 76.8407 44.2109C81.2167 43.3341 83.1588 41.3428 83.1588 41.3428C83.1588 41.3428 81.4318 45.6737 76.3736 46.0711C71.3155 46.4685 69.3672 41.8099 69.3672 41.8099Z" fill="#5C2BE9"/>
<defs>
<linearGradient id="paint0_linear_2165_1469" x1="74.056" y1="219.739" x2="74.056" y2="62.2783" gradientUnits="userSpaceOnUse">
<stop stop-color="#D1D7E0"/>
<stop offset="1" stop-color="#EBEBFF"/>
</linearGradient>
</defs>
</svg>
