<svg width="127" height="127" viewBox="0 0 127 127" fill="none" xmlns="http://www.w3.org/2000/svg">
<path d="M91.8228 93.49L91.9521 93.008L83.2922 86.8972C83.9059 83.0414 83.9137 79.1134 83.3152 75.2552L92 69.1763L91.8742 68.696C90.8276 64.7536 89.2675 60.9658 87.234 57.4298L86.9859 56.9973L76.5394 58.7997C74.2464 55.6379 71.4734 52.8537 68.3207 50.5481L70.1693 40.113L69.7369 39.8613C66.2087 37.8146 62.4272 36.2398 58.4892 35.1772L58.0089 35.0461L51.8994 43.7071C48.0409 43.0935 44.1103 43.0857 40.2494 43.6841L34.1754 35L33.6951 35.1294C29.7514 36.1755 25.9621 37.7348 22.4244 39.7674L21.9919 40.0155L23.798 50.4612C20.6354 52.7539 17.8504 55.5267 15.5439 58.6792L5.10805 56.8325L4.85816 57.2632C2.80944 60.7897 1.23552 64.5713 0.17724 68.51L0.0460841 68.992L8.7078 75.0992C8.09408 78.9568 8.0863 82.8866 8.68476 86.7466L0 92.8219L0.127608 93.3039C0.653299 95.2724 1.30451 97.2052 2.07725 99.0904C2.8543 100.974 3.75365 102.804 4.76954 104.57L5.0159 105.003L15.4624 103.198C17.7545 106.36 20.5263 109.144 23.6775 111.45L21.8342 121.889L22.2649 122.139C25.794 124.184 29.5752 125.759 33.5125 126.825L33.9946 126.954L40.1059 118.293C43.962 118.907 47.8903 118.914 51.7488 118.316L57.8263 127L58.3084 126.871C62.2517 125.827 66.0401 124.267 69.5756 122.233L70.0063 121.983L68.2055 111.539C71.3668 109.246 74.151 106.474 76.4578 103.323L86.8937 105.167L87.1454 104.737C89.1941 101.209 90.7697 97.4271 91.8316 93.4883L91.8228 93.49ZM36.9811 102.638C32.7018 100.855 29.0475 97.8419 26.4804 93.9814C23.9132 90.1209 22.5485 85.586 22.5587 80.95C22.5689 76.3141 23.9536 71.7852 26.5378 67.9361C29.1219 64.087 32.7894 61.0905 37.0766 59.3254C41.3638 57.5604 46.0781 57.1061 50.6235 58.0199C55.1689 58.9338 59.3412 61.1748 62.6129 64.4596C65.8846 67.7444 68.1088 71.9255 69.0043 76.4742C69.8998 81.0229 69.4263 85.735 67.6437 90.0146C66.4601 92.8573 64.7279 95.439 62.5462 97.612C60.3644 99.7851 57.7758 101.507 54.9283 102.679C52.0807 103.852 49.0301 104.451 45.9506 104.444C42.8712 104.437 39.8233 103.824 36.9811 102.638Z" fill="#5C2BE9"/>
<path d="M126.772 27.7906C127.046 25.8046 127.073 23.7923 126.853 21.7996C125.479 21.7288 124.154 21.2656 123.035 20.465C121.916 19.6643 121.049 18.5598 120.538 17.282C120.028 16.0043 119.894 14.607 120.152 13.2555C120.411 11.9039 121.052 10.6549 121.998 9.65618C120.785 8.05958 119.379 6.61939 117.812 5.3685C116.791 6.28775 115.528 6.89564 114.172 7.12041C112.817 7.34517 111.425 7.17742 110.162 6.63697C108.899 6.09652 107.817 5.20592 107.043 4.07034C106.27 2.93475 105.838 1.60159 105.797 0.228248C103.812 -0.045795 101.8 -0.0731852 99.8081 0.146709C99.7376 1.52129 99.2745 2.84684 98.4737 3.96634C97.673 5.08583 96.5682 5.95236 95.2901 6.46325C94.012 6.97414 92.6142 7.10798 91.2624 6.84893C89.9106 6.58987 88.6614 5.94878 87.6628 5.00159C86.068 6.2151 84.6296 7.62134 83.3803 9.18824C84.3002 10.2101 84.9082 11.4741 85.1325 12.8306C85.3568 14.1871 85.188 15.5794 84.6461 16.843C84.1041 18.1067 83.2117 19.1887 82.0742 19.9612C80.9368 20.7336 79.602 21.1643 78.2276 21.2023C77.9545 23.1878 77.927 25.1993 78.146 27.1915C79.5206 27.2621 80.8462 27.7252 81.9658 28.5259C83.0853 29.3266 83.9518 30.4315 84.4627 31.7095C84.9735 32.9876 85.1074 34.3853 84.8484 35.7371C84.5893 37.0889 83.9482 38.3381 83.001 39.3367C84.2145 40.9315 85.6208 42.3698 87.1877 43.6191C88.2096 42.6992 89.4736 42.0912 90.8301 41.8669C92.1866 41.6427 93.579 41.8115 94.8426 42.3534C96.1062 42.8953 97.1883 43.7878 97.9608 44.9252C98.7333 46.0626 99.1639 47.3974 99.2019 48.7717C101.187 49.0458 103.199 49.0732 105.191 48.8533C105.261 47.4781 105.723 46.1517 106.524 45.0314C107.324 43.911 108.429 43.0436 109.708 42.5319C110.986 42.0202 112.384 41.8857 113.737 42.1444C115.089 42.4031 116.339 43.044 117.338 43.9913C118.933 42.7774 120.372 41.3712 121.623 39.8047C120.702 38.7831 120.093 37.5193 119.869 36.1627C119.644 34.8061 119.812 33.4135 120.354 32.1497C120.896 30.8858 121.789 29.8037 122.926 29.0312C124.064 28.2587 125.399 27.8282 126.774 27.7906H126.772ZM99.1204 32.3708C97.5621 31.7028 96.2369 30.5878 95.3124 29.1666C94.3878 27.7455 93.9056 26.0821 93.9264 24.3869C93.9473 22.6916 94.4703 21.0406 95.4296 19.6427C96.3888 18.2447 97.741 17.1626 99.3152 16.5332C100.889 15.9037 102.615 15.7553 104.274 16.1065C105.932 16.4578 107.449 17.293 108.633 18.5065C109.817 19.72 110.615 21.2574 110.925 22.9241C111.235 24.5909 111.044 26.3122 110.376 27.8704C109.48 29.9592 107.791 31.6067 105.681 32.4507C103.57 33.2946 101.211 33.2659 99.1221 32.3708H99.1204Z" fill="#5C2BE9"/>
</svg>
