<svg width="213" height="213" viewBox="0 0 213 213" fill="none" xmlns="http://www.w3.org/2000/svg">
<path opacity="0.91" d="M129.125 23.0017C112.572 18.5664 95.0762 19.1392 78.8492 24.6475C62.6221 30.1559 48.3929 40.3524 37.9609 53.9477C27.5289 67.5429 21.3626 83.9263 20.2418 101.026C19.1211 118.126 23.0961 135.174 31.6643 150.015C40.2326 164.855 53.0092 176.822 68.3784 184.401C83.7477 191.98 101.019 194.832 118.009 192.595C134.999 190.358 150.944 183.134 163.828 171.835C176.712 160.536 185.956 145.67 190.391 129.118C193.337 118.127 194.09 106.664 192.605 95.3828C191.121 84.1015 187.428 73.2232 181.739 63.369C176.05 53.5149 168.475 44.8781 159.447 37.9518C150.42 31.0255 140.116 25.9454 129.125 23.0017ZM93.9256 154.367C84.4943 151.84 76.0241 146.573 69.5864 139.231C63.1487 131.89 59.0326 122.805 57.7586 113.124C56.4846 103.444 58.11 93.6027 62.4292 84.8459C66.7485 76.0891 73.5675 68.8098 82.0239 63.9286C90.4803 59.0474 100.194 56.7836 109.937 57.4234C119.68 58.0633 129.015 61.578 136.76 67.5232C144.506 73.4684 150.314 81.5769 153.451 90.8234C156.588 100.07 156.913 110.039 154.384 119.47C152.706 125.731 149.811 131.601 145.865 136.743C141.918 141.886 136.997 146.201 131.383 149.441C125.769 152.682 119.571 154.785 113.144 155.63C106.717 156.475 100.187 156.046 93.9256 154.367Z" fill="#2147CD"/>
</svg>
