<svg width="135" height="28" viewBox="0 0 135 28" fill="none" xmlns="http://www.w3.org/2000/svg">
<path d="M21.276 5.75599H13.104V26.96H8.172V5.75599H0V1.39999H21.276V5.75599Z" fill="#65C358"/>
<path d="M19.5913 21.38C19.5913 20.156 19.9273 19.088 20.5993 18.176C21.2953 17.24 22.2553 16.52 23.4793 16.016C24.7033 15.512 26.1073 15.26 27.6913 15.26C28.4833 15.26 29.2873 15.32 30.1033 15.44C30.9193 15.56 31.6273 15.752 32.2273 16.016V15.008C32.2273 13.808 31.8673 12.884 31.1473 12.236C30.4513 11.588 29.4073 11.264 28.0153 11.264C26.9833 11.264 25.9993 11.444 25.0633 11.804C24.1273 12.164 23.1433 12.692 22.1113 13.388L20.5633 10.22C21.8113 9.40399 23.0833 8.79199 24.3793 8.38399C25.6993 7.97599 27.0793 7.77199 28.5193 7.77199C31.2073 7.77199 33.2953 8.44399 34.7833 9.78799C36.2953 11.132 37.0513 13.052 37.0513 15.548V21.56C37.0513 22.064 37.1353 22.424 37.3033 22.64C37.4953 22.856 37.7953 22.988 38.2033 23.036V26.96C37.7713 27.032 37.3753 27.092 37.0153 27.14C36.6793 27.188 36.3913 27.212 36.1513 27.212C35.1913 27.212 34.4593 26.996 33.9553 26.564C33.4753 26.132 33.1753 25.604 33.0553 24.98L32.9473 24.008C32.1313 25.064 31.1113 25.88 29.8873 26.456C28.6633 27.032 27.4153 27.32 26.1433 27.32C24.8953 27.32 23.7673 27.068 22.7593 26.564C21.7753 26.036 20.9953 25.328 20.4193 24.44C19.8673 23.528 19.5913 22.508 19.5913 21.38ZM31.3273 22.352C31.5913 22.064 31.8073 21.776 31.9753 21.488C32.1433 21.2 32.2273 20.936 32.2273 20.696V18.788C31.6513 18.548 31.0273 18.368 30.3553 18.248C29.6833 18.104 29.0473 18.032 28.4473 18.032C27.1993 18.032 26.1673 18.308 25.3513 18.86C24.5593 19.388 24.1633 20.096 24.1633 20.984C24.1633 21.464 24.2953 21.92 24.5593 22.352C24.8233 22.784 25.2073 23.132 25.7113 23.396C26.2153 23.66 26.8153 23.792 27.5113 23.792C28.2313 23.792 28.9393 23.66 29.6353 23.396C30.3313 23.108 30.8953 22.76 31.3273 22.352Z" fill="#65C358"/>
<path d="M41.5232 0.679993H46.3472V20.912C46.3472 21.776 46.4912 22.364 46.7792 22.676C47.0672 22.964 47.4632 23.108 47.9672 23.108C48.3512 23.108 48.7472 23.06 49.1552 22.964C49.5632 22.868 49.9232 22.748 50.2352 22.604L50.8832 26.276C50.2352 26.588 49.4792 26.828 48.6152 26.996C47.7512 27.164 46.9712 27.248 46.2752 27.248C44.7632 27.248 43.5872 26.852 42.7472 26.06C41.9312 25.244 41.5232 24.092 41.5232 22.604V0.679993Z" fill="#65C358"/>
<path d="M51.689 21.38C51.689 20.156 52.025 19.088 52.697 18.176C53.393 17.24 54.353 16.52 55.577 16.016C56.801 15.512 58.205 15.26 59.789 15.26C60.581 15.26 61.385 15.32 62.201 15.44C63.017 15.56 63.725 15.752 64.325 16.016V15.008C64.325 13.808 63.965 12.884 63.245 12.236C62.549 11.588 61.505 11.264 60.113 11.264C59.081 11.264 58.097 11.444 57.161 11.804C56.225 12.164 55.241 12.692 54.209 13.388L52.661 10.22C53.909 9.40399 55.181 8.79199 56.477 8.38399C57.797 7.97599 59.177 7.77199 60.617 7.77199C63.305 7.77199 65.393 8.44399 66.881 9.78799C68.393 11.132 69.149 13.052 69.149 15.548V21.56C69.149 22.064 69.233 22.424 69.401 22.64C69.593 22.856 69.893 22.988 70.301 23.036V26.96C69.869 27.032 69.473 27.092 69.113 27.14C68.777 27.188 68.489 27.212 68.249 27.212C67.289 27.212 66.557 26.996 66.053 26.564C65.573 26.132 65.273 25.604 65.153 24.98L65.045 24.008C64.229 25.064 63.209 25.88 61.985 26.456C60.761 27.032 59.513 27.32 58.241 27.32C56.993 27.32 55.865 27.068 54.857 26.564C53.873 26.036 53.093 25.328 52.517 24.44C51.965 23.528 51.689 22.508 51.689 21.38ZM63.425 22.352C63.689 22.064 63.905 21.776 64.073 21.488C64.241 21.2 64.325 20.936 64.325 20.696V18.788C63.749 18.548 63.125 18.368 62.453 18.248C61.781 18.104 61.145 18.032 60.545 18.032C59.297 18.032 58.265 18.308 57.449 18.86C56.657 19.388 56.261 20.096 56.261 20.984C56.261 21.464 56.393 21.92 56.657 22.352C56.921 22.784 57.305 23.132 57.809 23.396C58.313 23.66 58.913 23.792 59.609 23.792C60.329 23.792 61.037 23.66 61.733 23.396C62.429 23.108 62.993 22.76 63.425 22.352Z" fill="#65C358"/>
<path d="M84.8888 12.272C83.4249 12.272 82.1168 12.56 80.9648 13.136C79.8128 13.688 78.9848 14.492 78.4808 15.548V26.96H73.6568V8.09599H78.0848V12.128C78.7568 10.832 79.6088 9.81199 80.6408 9.06799C81.6728 8.32399 82.7648 7.91599 83.9168 7.84399C84.1808 7.84399 84.3848 7.84399 84.5288 7.84399C84.6728 7.84399 84.7928 7.85599 84.8888 7.87999V12.272Z" fill="#65C358"/>
<path d="M87.5787 26.96V8.09599H92.4027V26.96H87.5787ZM87.5787 5.46799V0.679993H92.4027V5.46799H87.5787Z" fill="#65C358"/>
<path d="M105.538 27.32C104.002 27.32 102.622 27.068 101.398 26.564C100.174 26.036 99.1305 25.316 98.2665 24.404C97.4025 23.468 96.7305 22.412 96.2505 21.236C95.7945 20.06 95.5665 18.824 95.5665 17.528C95.5665 15.752 95.9625 14.132 96.7545 12.668C97.5705 11.18 98.7225 9.99199 100.211 9.10399C101.699 8.21599 103.463 7.77199 105.503 7.77199C107.543 7.77199 109.295 8.21599 110.758 9.10399C112.222 9.99199 113.314 11.156 114.035 12.596L109.319 14.036C108.911 13.34 108.37 12.812 107.699 12.452C107.027 12.068 106.283 11.876 105.466 11.876C104.554 11.876 103.715 12.116 102.947 12.596C102.202 13.052 101.615 13.712 101.183 14.576C100.751 15.416 100.535 16.4 100.535 17.528C100.535 18.632 100.751 19.616 101.183 20.48C101.639 21.32 102.238 21.992 102.982 22.496C103.727 22.976 104.554 23.216 105.466 23.216C106.043 23.216 106.583 23.12 107.087 22.928C107.615 22.736 108.083 22.472 108.491 22.136C108.898 21.8 109.199 21.416 109.391 20.984L114.106 22.424C113.674 23.36 113.039 24.2 112.199 24.944C111.382 25.688 110.41 26.276 109.283 26.708C108.178 27.116 106.93 27.32 105.538 27.32Z" fill="#65C358"/>
<path d="M115.779 21.38C115.779 20.156 116.115 19.088 116.787 18.176C117.483 17.24 118.443 16.52 119.667 16.016C120.891 15.512 122.295 15.26 123.879 15.26C124.671 15.26 125.475 15.32 126.291 15.44C127.107 15.56 127.815 15.752 128.415 16.016V15.008C128.415 13.808 128.055 12.884 127.335 12.236C126.639 11.588 125.595 11.264 124.203 11.264C123.171 11.264 122.187 11.444 121.251 11.804C120.315 12.164 119.331 12.692 118.299 13.388L116.751 10.22C117.999 9.40399 119.271 8.79199 120.567 8.38399C121.887 7.97599 123.267 7.77199 124.707 7.77199C127.395 7.77199 129.483 8.44399 130.971 9.78799C132.483 11.132 133.239 13.052 133.239 15.548V21.56C133.239 22.064 133.323 22.424 133.491 22.64C133.683 22.856 133.983 22.988 134.391 23.036V26.96C133.959 27.032 133.563 27.092 133.203 27.14C132.867 27.188 132.579 27.212 132.339 27.212C131.379 27.212 130.647 26.996 130.143 26.564C129.663 26.132 129.363 25.604 129.243 24.98L129.135 24.008C128.319 25.064 127.299 25.88 126.075 26.456C124.851 27.032 123.603 27.32 122.331 27.32C121.083 27.32 119.955 27.068 118.947 26.564C117.963 26.036 117.183 25.328 116.607 24.44C116.055 23.528 115.779 22.508 115.779 21.38ZM127.515 22.352C127.779 22.064 127.995 21.776 128.163 21.488C128.331 21.2 128.415 20.936 128.415 20.696V18.788C127.839 18.548 127.215 18.368 126.543 18.248C125.871 18.104 125.235 18.032 124.635 18.032C123.387 18.032 122.355 18.308 121.539 18.86C120.747 19.388 120.351 20.096 120.351 20.984C120.351 21.464 120.483 21.92 120.747 22.352C121.011 22.784 121.395 23.132 121.899 23.396C122.403 23.66 123.003 23.792 123.699 23.792C124.419 23.792 125.127 23.66 125.823 23.396C126.519 23.108 127.083 22.76 127.515 22.352Z" fill="#65C358"/>
</svg>
