<svg width="54" height="54" viewBox="0 0 54 54" fill="none" xmlns="http://www.w3.org/2000/svg">
<path opacity="0.1" fill-rule="evenodd" clip-rule="evenodd" d="M23.5716 3.23762C31.5396 2.135 38.8904 4.94915 43.9701 10.0303C46.202 12.2563 47.9721 14.9014 49.1785 17.8137C50.385 20.7259 51.004 23.8479 51 27.0002C51 33.6269 48.3134 39.6268 43.9701 43.9701C41.7441 46.2021 39.0989 47.9721 36.1867 49.1785C33.2744 50.385 30.1524 51.004 27.0002 51C23.8479 51.004 20.7259 50.385 17.8137 49.1785C14.9014 47.9721 12.2563 46.2021 10.0303 43.9701C4.94915 38.889 2.135 31.5396 3.23762 23.5716H23.5716V3.23762Z" fill="white" stroke="white" stroke-width="5"/>
</svg>
