<svg  class="main-svg-sprite main-svg-sprite--icons" xmlns="http://www.w3.org/2000/svg" xmlns:xlink="http://www.w3.org/1999/xlink"><symbol viewBox="0 0 16.4 9.2" id="arrow-down" xmlns="http://www.w3.org/2000/svg"><g data-name="Layer 2"><path d="M8.2 9.2a.91.91 0 01-.7-.3L.3 1.7A1 1 0 01.3.3a1 1 0 011.4 0l6.5 6.5L14.7.3a1 1 0 011.4 0 1 1 0 010 1.4L8.9 8.9a.91.91 0 01-.7.3z" data-name="Layer 1"/></g></symbol><symbol viewBox="0 0 24 24" id="close" xmlns="http://www.w3.org/2000/svg"><path class="bst0" d="M3 22c-.3 0-.5-.1-.7-.3-.4-.4-.4-1 0-1.4l18-18c.4-.4 1-.4 1.4 0s.4 1 0 1.4l-18 18c-.2.2-.4.3-.7.3z"/><path class="bst0" d="M21 22c-.3 0-.5-.1-.7-.3l-18-18c-.4-.4-.4-1 0-1.4s1-.4 1.4 0l18 18c.4.4.4 1 0 1.4-.2.2-.4.3-.7.3z"/></symbol><symbol viewBox="0 0 20 20" id="email" xmlns="http://www.w3.org/2000/svg"><path d="M3.335 3.333h13.333c.917 0 1.667.75 1.667 1.667v10c0 .916-.75 1.666-1.667 1.666H3.335c-.917 0-1.667-.75-1.667-1.666V5c0-.917.75-1.667 1.667-1.667z" stroke="#fff" stroke-width="2" stroke-linecap="round" stroke-linejoin="round"/><path d="M18.335 5L10 10.833 1.668 5" stroke="#212121" stroke-width="2" stroke-linecap="round" stroke-linejoin="round"/></symbol><symbol viewBox="0 0 14.67 14.67" id="error" xmlns="http://www.w3.org/2000/svg"><g data-name="Layer 2"><g data-name="Layer 1"><path d="M7.33 14.67a7.34 7.34 0 117.34-7.34 7.34 7.34 0 01-7.34 7.34zm0-13.34a6 6 0 106 6 6 6 0 00-6-6z"/><path d="M5.33 10a.67.67 0 01-.47-1.14l4-4a.68.68 0 011 0 .66.66 0 010 .94l-4 4a.69.69 0 01-.53.2z"/><path d="M9.33 10a.67.67 0 01-.47-.2l-4-4a.66.66 0 010-.94.68.68 0 01.95 0l4 4a.66.66 0 010 .94.67.67 0 01-.48.2z"/></g></g></symbol><symbol viewBox="0 0 24 24" id="menu" xmlns="http://www.w3.org/2000/svg"><path d="M23 12.98H1a1 1 0 010-2h22a1 1 0 010 2zM23 5.313H1a1 1 0 010-2h22a1 1 0 010 2zM23 20.646H1a1 1 0 010-2h22a1 1 0 010 2z"/></symbol><symbol viewBox="0 0 53.07 53.07" id="pac-man" xmlns="http://www.w3.org/2000/svg"><path d="M23.17 2.77a23.93 23.93 0 0120.4 6.8 24.23 24.23 0 015.2 7.8 24 24 0 011.8 9.2 23.9 23.9 0 01-14.8 22.2 24.41 24.41 0 01-18.4 0 24.23 24.23 0 01-7.8-5.2 23.93 23.93 0 01-6.8-20.4h20.3V2.77z"/><path d="M26.57 53.07a27.65 27.65 0 01-10.2-2 26.13 26.13 0 01-8.6-5.8 26.32 26.32 0 01-7.5-22.5l.3-2.2h20v-20l2.2-.3a26.32 26.32 0 0122.5 7.5 27.76 27.76 0 015.8 8.6 26.75 26.75 0 012 10.1 26.25 26.25 0 01-7.8 18.7 27.76 27.76 0 01-8.6 5.8 25 25 0 01-10.1 2.1zm0-5a21 21 0 008.2-1.6 22.11 22.11 0 007-4.7 21.33 21.33 0 006.3-15.2 21 21 0 00-1.6-8.2 22.11 22.11 0 00-4.7-7 21.62 21.62 0 00-16.1-6.3v20.6H5.07a21.62 21.62 0 006.3 16.1 22.11 22.11 0 007 4.7 20.67 20.67 0 008.2 1.6z"/></symbol><symbol viewBox="0 0 17 16" id="telegram" xmlns="http://www.w3.org/2000/svg"><path d="M7.224 10.284l-.007-.01-.006-.007c-.274-.343-.228-.775.122-1.03l.022-.016.02-.019 7.53-6.874-.625-.778-8.827 6.211c-.326.2-.717.273-1.104.158L.762 6.778A.378.378 0 01.5 6.439c-.005-.125.054-.242.214-.3h.002l14.021-5.074h0l.008-.003c.707-.27 1.465.438 1.204 1.227l-4.254 12.27s0 0 0 0c-.197.557-.891.627-1.194.203h0l-.004-.005-3.273-4.473zM5.3 13.852v-.026l-.13-2.427 1.386 1.877-.709.788a.313.313 0 01-.547-.212z" stroke="#fff"/></symbol><symbol viewBox="0 0 28 30" id="triangle" xmlns="http://www.w3.org/2000/svg"><path d="M21.501.75c4.688 1.5 8.438 24.375 4.688 27.938-3.938 3.562-26.25-4.5-26.063-9.375C.126 14.438 16.44-.75 21.314.563L21.5.75z"/></symbol><symbol viewBox="0 0 95 57" id="worm" xmlns="http://www.w3.org/2000/svg"><g class="ist0"><path class="ist1" d="M3.1 56.9c-.3 0-.5 0-.8-.1-1.5-.4-2.3-2-1.9-3.4l4.8-16.1c.3-1.1.8-2 1.5-2.9.7-.9 1.6-1.6 2.5-2.1s2-.8 3.1-1c1.1-.1 2.2 0 3.3.3l7 2.1c.7.2 1.3.2 1.9-.1.6-.2 1.1-.7 1.4-1.2l4.6-8.1c.8-1.4 2-2.5 3.4-3.2 1.4-.7 3-1 4.6-.9l7 .6c.7.1 1.4-.1 2-.6.6-.4 1-1.1 1.1-1.8l1.3-6.9c.3-1.5.9-2.8 1.9-3.9 1-1.1 2.2-2 3.6-2.4s2.9-.6 4.4-.3 2.8 1 3.9 2l5.2 4.6c1.1 1 2.4.7 2.9.5 1-.4 1.7-1.2 1.9-2.3l.4-2.4c.4-1.1.9-2.3 1.6-3.3.8-1.1 1.8-1.9 2.9-2.5 1.1-.6 2.4-.9 3.7-1 1.3 0 2.6.3 3.8.8L93 4.6c1.4.7 2 2.3 1.3 3.7-.6 1.4-2.3 2-3.7 1.3l-6.9-3.3c-.4-.2-.9-.3-1.3-.3s-.9.1-1.3.3c-.4.2-.7.5-1 .9-.3.4-.4.8-.5 1.2l-.4 2.3c-.4 3-2.5 5.6-5.4 6.6-2.9 1.1-6.1.5-8.4-1.6l-5.2-4.6c-.4-.3-.9-.6-1.4-.7-.5-.1-1-.1-1.5.1s-.9.5-1.2.8c-.3.4-.6.8-.7 1.3l-1.3 6.9c-.4 2-1.5 3.9-3.2 5.1-1.7 1.3-3.7 1.8-5.8 1.7l-7-.6c-.6 0-1.1.1-1.6.3-.5.3-.9.6-1.2 1.1l-4.6 8c-1 1.6-2.5 2.9-4.2 3.6-1.8.7-3.7.7-5.5.2l-7-2.1c-.4-.1-.8-.2-1.1-.1-.4 0-.7.1-1.1.3-.3.2-.6.4-.9.7-.2.3-.4.6-.5 1L5.7 55c-.3 1.2-1.4 1.9-2.6 1.9z"/></g></symbol></svg>