<svg width="656" height="410" viewBox="0 0 656 410" fill="none" xmlns="http://www.w3.org/2000/svg">
<g clip-path="url(#clip0_1497_3977)">
<path d="M55.9992 406.3H55.1992V407C55.1992 408.2 56.1992 409.3 57.4992 409.3H79.9992C81.1992 409.3 82.2992 408.3 82.2992 407V406.2H55.9992V406.3ZM4.29922 327V326.2H3.49922C2.29922 326.2 1.19922 327.2 1.19922 328.5V351C1.19922 352.2 2.19922 353.3 3.49922 353.3H4.29922V327ZM85.9992 406.3H85.1992V407C85.1992 408.2 86.1992 409.3 87.4992 409.3H109.999C111.199 409.3 112.299 408.3 112.299 407V406.2H85.9992V406.3Z" fill="#EBECEC" stroke="#DDDEDF" stroke-width="1.5"/>
<path fill-rule="evenodd" clip-rule="evenodd" d="M3.5 28C3.5 13 15.5 1 30.5 1H628C643 1 655 13 655 28V380C655 395 643 407 628 407H30.5C15.5 407 3.5 395 3.5 380V28Z" fill="#EEF0F1"/>
<mask id="mask0_1497_3977" style="mask-type:luminance" maskUnits="userSpaceOnUse" x="3" y="1" width="652" height="406">
<path fill-rule="evenodd" clip-rule="evenodd" d="M3.5 28C3.5 13 15.5 1 30.5 1H628C643 1 655 13 655 28V380C655 395 643 407 628 407H30.5C15.5 407 3.5 395 3.5 380V28Z" fill="white"/>
</mask>
<g mask="url(#mask0_1497_3977)">
<path fill-rule="evenodd" clip-rule="evenodd" d="M622 17.5C622 13.1239 623.738 8.92709 626.833 5.83274C629.927 2.73839 634.124 1 638.5 1C642.876 1 647.073 2.73839 650.167 5.83274C653.262 8.92709 655 13.1239 655 17.5V408H622V17.5Z" fill="url(#paint0_linear_1497_3977)"/>
<path opacity="0.5" fill-rule="evenodd" clip-rule="evenodd" d="M3.50098 6.3C3.50098 3.3 5.90098 1 8.80098 1H649.801C651.193 1 652.529 1.55312 653.513 2.53769C654.498 3.52226 655.051 4.85761 655.051 6.25C655.051 7.64239 654.498 8.97775 653.513 9.96231C652.529 10.9469 651.193 11.5 649.801 11.5H8.80098C8.10124 11.5136 7.40596 11.3858 6.75679 11.1243C6.10762 10.8627 5.51793 10.4728 5.02304 9.97794C4.52816 9.48305 4.13827 8.89336 3.87673 8.24419C3.61519 7.59502 3.48739 6.89974 3.50098 6.2V6.3Z" fill="url(#paint1_linear_1497_3977)"/>
<path opacity="0.5" fill-rule="evenodd" clip-rule="evenodd" d="M3.5 402.8C3.5 399.8 5.9 397.5 8.8 397.5H649.8C651.192 397.5 652.528 398.053 653.512 399.038C654.497 400.022 655.05 401.358 655.05 402.75C655.05 404.142 654.497 405.478 653.512 406.462C652.528 407.447 651.192 408 649.8 408H8.8C7.39435 408 6.04628 407.442 5.05233 406.448C4.05839 405.454 3.5 404.106 3.5 402.7V402.8Z" fill="url(#paint2_linear_1497_3977)"/>
<path fill-rule="evenodd" clip-rule="evenodd" d="M14 15.1C14 11.9 10 10.5 8 13L5.7 18.4C4.25856 21.7486 3.51019 25.3544 3.5 29V411H14V15.1Z" fill="url(#paint3_linear_1497_3977)"/>
</g>
<path fill-rule="evenodd" clip-rule="evenodd" d="M14 32.5C14 26.9305 16.2125 21.589 20.1508 17.6508C24.089 13.7125 29.4305 11.5 35 11.5H623.5C629.07 11.5 634.411 13.7125 638.349 17.6508C642.288 21.589 644.5 26.9305 644.5 32.5V376.5C644.5 382.07 642.288 387.411 638.349 391.349C634.411 395.288 629.07 397.5 623.5 397.5H35C29.4305 397.5 24.089 395.288 20.1508 391.349C16.2125 387.411 14 382.07 14 376.5V32.5Z" fill="url(#paint4_linear_1497_3977)"/>
<path d="M626 11.5H32C22.0589 11.5 14 19.5589 14 29.5V379.5C14 389.441 22.0589 397.5 32 397.5H626C635.941 397.5 644 389.441 644 379.5V29.5C644 19.5589 635.941 11.5 626 11.5Z" fill="white"/>
<mask id="mask1_1497_3977" style="mask-type:luminance" maskUnits="userSpaceOnUse" x="14" y="11" width="630" height="387">
<path d="M626 11.5H32C22.0589 11.5 14 19.5589 14 29.5V379.5C14 389.441 22.0589 397.5 32 397.5H626C635.941 397.5 644 389.441 644 379.5V29.5C644 19.5589 635.941 11.5 626 11.5Z" fill="white"/>
</mask>
<g mask="url(#mask1_1497_3977)">
<path d="M14 11.5H106.5V397.5H14V11.5Z" fill="#F9F9F9"/>
<path d="M213 66H129C125.41 66 122.5 68.9101 122.5 72.5C122.5 76.0899 125.41 79 129 79H213C216.59 79 219.5 76.0899 219.5 72.5C219.5 68.9101 216.59 66 213 66Z" fill="#F9F9F9"/>
<path d="M289 25H135.5C128.32 25 122.5 30.8203 122.5 38C122.5 45.1797 128.32 51 135.5 51H289C296.18 51 302 45.1797 302 38C302 30.8203 296.18 25 289 25Z" fill="#F9F9F9"/>
<path d="M571.5 25.5H531.5C528.186 25.5 525.5 28.1863 525.5 31.5C525.5 34.8137 528.186 37.5 531.5 37.5H571.5C574.814 37.5 577.5 34.8137 577.5 31.5C577.5 28.1863 574.814 25.5 571.5 25.5Z" stroke="#EAEAF5"/>
<path d="M601 31.5C601 27.9101 598.09 25 594.5 25C590.91 25 588 27.9101 588 31.5C588 35.0899 590.91 38 594.5 38C598.09 38 601 35.0899 601 31.5Z" fill="#F9F9F9"/>
<path d="M624 31.5C624 27.9101 621.09 25 617.5 25C613.91 25 611 27.9101 611 31.5C611 35.0899 613.91 38 617.5 38C621.09 38 624 35.0899 624 31.5Z" fill="#F9F9F9"/>
<path opacity="0.5" d="M74.5 74H40.5C36.9101 74 34 76.9101 34 80.5C34 84.0899 36.9101 87 40.5 87H74.5C78.0899 87 81 84.0899 81 80.5C81 76.9101 78.0899 74 74.5 74Z" fill="#D8D8D8"/>
<path d="M47.5 38C47.5 34.4101 44.5899 31.5 41 31.5C37.4101 31.5 34.5 34.4101 34.5 38C34.5 41.5899 37.4101 44.5 41 44.5C44.5899 44.5 47.5 41.5899 47.5 38Z" fill="#65C358"/>
<path d="M74.5 32H59C55.6863 32 53 34.6863 53 38C53 41.3137 55.6863 44 59 44H74.5C77.8137 44 80.5 41.3137 80.5 38C80.5 34.6863 77.8137 32 74.5 32Z" fill="#65C358"/>
<path opacity="0.5" d="M65.5 102H40.5C36.9101 102 34 104.91 34 108.5C34 112.09 36.9101 115 40.5 115H65.5C69.0899 115 72 112.09 72 108.5C72 104.91 69.0899 102 65.5 102Z" fill="#D8D8D8"/>
<path opacity="0.5" d="M51 130H40.5C36.9101 130 34 132.91 34 136.5C34 140.09 36.9101 143 40.5 143H51C54.5899 143 57.5 140.09 57.5 136.5C57.5 132.91 54.5899 130 51 130Z" fill="#D8D8D8"/>
<path opacity="0.5" d="M74.5 158H40.5C36.9101 158 34 160.91 34 164.5C34 168.09 36.9101 171 40.5 171H74.5C78.0899 171 81 168.09 81 164.5C81 160.91 78.0899 158 74.5 158Z" fill="#D8D8D8"/>
<path opacity="0.5" d="M74.5 186H40.5C36.9101 186 34 188.91 34 192.5C34 196.09 36.9101 199 40.5 199H74.5C78.0899 199 81 196.09 81 192.5C81 188.91 78.0899 186 74.5 186Z" fill="#D8D8D8"/>
<path opacity="0.5" d="M51 214H40.5C36.9101 214 34 216.91 34 220.5C34 224.09 36.9101 227 40.5 227H51C54.5899 227 57.5 224.09 57.5 220.5C57.5 216.91 54.5899 214 51 214Z" fill="#D8D8D8"/>
<path opacity="0.5" d="M74.5 242H40.5C36.9101 242 34 244.91 34 248.5C34 252.09 36.9101 255 40.5 255H74.5C78.0899 255 81 252.09 81 248.5C81 244.91 78.0899 242 74.5 242Z" fill="#D8D8D8"/>
<path opacity="0.5" d="M65.5 270H40.5C36.9101 270 34 272.91 34 276.5C34 280.09 36.9101 283 40.5 283H65.5C69.0899 283 72 280.09 72 276.5C72 272.91 69.0899 270 65.5 270Z" fill="#D8D8D8"/>
<path opacity="0.5" d="M74.5 298H40.5C36.9101 298 34 300.91 34 304.5C34 308.09 36.9101 311 40.5 311H74.5C78.0899 311 81 308.09 81 304.5C81 300.91 78.0899 298 74.5 298Z" fill="#D8D8D8"/>
<path opacity="0.5" d="M51 326H40.5C36.9101 326 34 328.91 34 332.5C34 336.09 36.9101 339 40.5 339H51C54.5899 339 57.5 336.09 57.5 332.5C57.5 328.91 54.5899 326 51 326Z" fill="#D8D8D8"/>
<path d="M65.5 354.5H40.5C37.1863 354.5 34.5 357.186 34.5 360.5C34.5 363.814 37.1863 366.5 40.5 366.5H65.5C68.8137 366.5 71.5 363.814 71.5 360.5C71.5 357.186 68.8137 354.5 65.5 354.5Z" stroke="#EAEAF5"/>
<path d="M587.5 94H450C444.477 94 440 98.4772 440 104V234.5C440 240.023 444.477 244.5 450 244.5H587.5C593.023 244.5 597.5 240.023 597.5 234.5V104C597.5 98.4772 593.023 94 587.5 94Z" stroke="#EAEAF5"/>
<path opacity="0.5" d="M482 106H461C457.41 106 454.5 108.91 454.5 112.5C454.5 116.09 457.41 119 461 119H482C485.59 119 488.5 116.09 488.5 112.5C488.5 108.91 485.59 106 482 106Z" fill="#D8D8D8"/>
<path d="M532 181C544.979 181 555.5 170.479 555.5 157.5C555.5 144.521 544.979 134 532 134C519.021 134 508.5 144.521 508.5 157.5C508.5 170.479 519.021 181 532 181Z" stroke="white" stroke-width="13.5"/>
<path d="M239.619 95H134.381C127.543 95 122 99.4345 122 104.905V137.095C122 142.565 127.543 147 134.381 147H239.619C246.457 147 252 142.565 252 137.095V104.905C252 99.4345 246.457 95 239.619 95Z" stroke="#EAEAF5"/>
<path d="M386.619 95H281.381C274.543 95 269 99.4345 269 104.905V137.095C269 142.565 274.543 147 281.381 147H386.619C393.457 147 399 142.565 399 137.095V104.905C399 99.4345 393.457 95 386.619 95Z" fill="#F9F9F9"/>
<path d="M239.619 230H134.381C127.543 230 122 234.435 122 239.905V272.095C122 277.565 127.543 282 134.381 282H239.619C246.457 282 252 277.565 252 272.095V239.905C252 234.435 246.457 230 239.619 230Z" stroke="#EAEAF5"/>
<path d="M239.925 162H134.075C126.854 162 121 166.657 121 172.402V204.598C121 210.343 126.854 215 134.075 215H239.925C247.146 215 253 210.343 253 204.598V172.402C253 166.657 247.146 162 239.925 162Z" fill="#F9F9F9"/>
<path d="M386.925 162H281.075C273.854 162 268 166.657 268 172.402V204.598C268 210.343 273.854 215 281.075 215H386.925C394.146 215 400 210.343 400 204.598V172.402C400 166.657 394.146 162 386.925 162Z" fill="#F9F9F9"/>
<path d="M386.925 229H281.075C273.854 229 268 233.657 268 239.402V271.598C268 277.343 273.854 282 281.075 282H386.925C394.146 282 400 277.343 400 271.598V239.402C400 233.657 394.146 229 386.925 229Z" fill="#F9F9F9"/>
<path d="M239.925 297H134.075C126.854 297 121 301.657 121 307.402V339.598C121 345.343 126.854 350 134.075 350H239.925C247.146 350 253 345.343 253 339.598V307.402C253 301.657 247.146 297 239.925 297Z" fill="#F9F9F9"/>
<path d="M386.925 297H281.075C273.854 297 268 301.657 268 307.402V339.598C268 345.343 273.854 350 281.075 350H386.925C394.146 350 400 345.343 400 339.598V307.402C400 301.657 394.146 297 386.925 297Z" fill="#F9F9F9"/>
<path d="M152.5 175.8H142.5C138.082 175.8 134.5 179.382 134.5 183.8V193.8C134.5 198.218 138.082 201.8 142.5 201.8H152.5C156.918 201.8 160.5 198.218 160.5 193.8V183.8C160.5 179.382 156.918 175.8 152.5 175.8Z" fill="#65C358"/>
<path d="M299.5 175.8H289.5C285.082 175.8 281.5 179.382 281.5 183.8V193.8C281.5 198.218 285.082 201.8 289.5 201.8H299.5C303.918 201.8 307.5 198.218 307.5 193.8V183.8C307.5 179.382 303.918 175.8 299.5 175.8Z" fill="#1A4BFA"/>
<path d="M299.5 242.8H289.5C285.082 242.8 281.5 246.382 281.5 250.8V260.8C281.5 265.218 285.082 268.8 289.5 268.8H299.5C303.918 268.8 307.5 265.218 307.5 260.8V250.8C307.5 246.382 303.918 242.8 299.5 242.8Z" fill="#65C358"/>
<path d="M152.5 310.8H142.5C138.082 310.8 134.5 314.382 134.5 318.8V328.8C134.5 333.218 138.082 336.8 142.5 336.8H152.5C156.918 336.8 160.5 333.218 160.5 328.8V318.8C160.5 314.382 156.918 310.8 152.5 310.8Z" fill="#65C358"/>
<path d="M299.5 310.8H289.5C285.082 310.8 281.5 314.382 281.5 318.8V328.8C281.5 333.218 285.082 336.8 289.5 336.8H299.5C303.918 336.8 307.5 333.218 307.5 328.8V318.8C307.5 314.382 303.918 310.8 299.5 310.8Z" fill="#1A4BFA"/>
<path d="M152.5 107.5H142.5C138.082 107.5 134.5 111.082 134.5 115.5V125.5C134.5 129.918 138.082 133.5 142.5 133.5H152.5C156.918 133.5 160.5 129.918 160.5 125.5V115.5C160.5 111.082 156.918 107.5 152.5 107.5Z" fill="#1A4BFA"/>
<path d="M299.5 107.5H289.5C285.082 107.5 281.5 111.082 281.5 115.5V125.5C281.5 129.918 285.082 133.5 289.5 133.5H299.5C303.918 133.5 307.5 129.918 307.5 125.5V115.5C307.5 111.082 303.918 107.5 299.5 107.5Z" fill="#65C358"/>
<path d="M152.5 242.5H142.5C138.082 242.5 134.5 246.082 134.5 250.5V260.5C134.5 264.918 138.082 268.5 142.5 268.5H152.5C156.918 268.5 160.5 264.918 160.5 260.5V250.5C160.5 246.082 156.918 242.5 152.5 242.5Z" fill="#1A4BFA"/>
<path opacity="0.5" d="M198 182.3H177C173.41 182.3 170.5 185.21 170.5 188.8C170.5 192.39 173.41 195.3 177 195.3H198C201.59 195.3 204.5 192.39 204.5 188.8C204.5 185.21 201.59 182.3 198 182.3Z" fill="#D8D8D8"/>
<path opacity="0.5" d="M345 182.3H324C320.41 182.3 317.5 185.21 317.5 188.8C317.5 192.39 320.41 195.3 324 195.3H345C348.59 195.3 351.5 192.39 351.5 188.8C351.5 185.21 348.59 182.3 345 182.3Z" fill="#D8D8D8"/>
<path opacity="0.5" d="M345 249.3H324C320.41 249.3 317.5 252.21 317.5 255.8C317.5 259.39 320.41 262.3 324 262.3H345C348.59 262.3 351.5 259.39 351.5 255.8C351.5 252.21 348.59 249.3 345 249.3Z" fill="#D8D8D8"/>
<path opacity="0.5" d="M198 317.3H177C173.41 317.3 170.5 320.21 170.5 323.8C170.5 327.39 173.41 330.3 177 330.3H198C201.59 330.3 204.5 327.39 204.5 323.8C204.5 320.21 201.59 317.3 198 317.3Z" fill="#D8D8D8"/>
<path opacity="0.5" d="M345 317.3H324C320.41 317.3 317.5 320.21 317.5 323.8C317.5 327.39 320.41 330.3 324 330.3H345C348.59 330.3 351.5 327.39 351.5 323.8C351.5 320.21 348.59 317.3 345 317.3Z" fill="#D8D8D8"/>
<path opacity="0.5" d="M234.5 182.3H213.5C209.91 182.3 207 185.21 207 188.8C207 192.39 209.91 195.3 213.5 195.3H234.5C238.09 195.3 241 192.39 241 188.8C241 185.21 238.09 182.3 234.5 182.3Z" fill="#D8D8D8"/>
<path opacity="0.5" d="M381.5 182.3H360.5C356.91 182.3 354 185.21 354 188.8C354 192.39 356.91 195.3 360.5 195.3H381.5C385.09 195.3 388 192.39 388 188.8C388 185.21 385.09 182.3 381.5 182.3Z" fill="#D8D8D8"/>
<path opacity="0.5" d="M381.5 249.3H360.5C356.91 249.3 354 252.21 354 255.8C354 259.39 356.91 262.3 360.5 262.3H381.5C385.09 262.3 388 259.39 388 255.8C388 252.21 385.09 249.3 381.5 249.3Z" fill="#D8D8D8"/>
<path opacity="0.5" d="M234.5 317.3H213.5C209.91 317.3 207 320.21 207 323.8C207 327.39 209.91 330.3 213.5 330.3H234.5C238.09 330.3 241 327.39 241 323.8C241 320.21 238.09 317.3 234.5 317.3Z" fill="#D8D8D8"/>
<path opacity="0.5" d="M381.5 317.3H360.5C356.91 317.3 354 320.21 354 323.8C354 327.39 356.91 330.3 360.5 330.3H381.5C385.09 330.3 388 327.39 388 323.8C388 320.21 385.09 317.3 381.5 317.3Z" fill="#D8D8D8"/>
<path opacity="0.5" d="M198 114H177C173.41 114 170.5 116.91 170.5 120.5C170.5 124.09 173.41 127 177 127H198C201.59 127 204.5 124.09 204.5 120.5C204.5 116.91 201.59 114 198 114Z" fill="#ECECEC"/>
<path opacity="0.5" d="M345 114H324C320.41 114 317.5 116.91 317.5 120.5C317.5 124.09 320.41 127 324 127H345C348.59 127 351.5 124.09 351.5 120.5C351.5 116.91 348.59 114 345 114Z" fill="#ECECEC"/>
<path opacity="0.5" d="M198 249H177C173.41 249 170.5 251.91 170.5 255.5C170.5 259.09 173.41 262 177 262H198C201.59 262 204.5 259.09 204.5 255.5C204.5 251.91 201.59 249 198 249Z" fill="#ECECEC"/>
<path opacity="0.5" d="M234.5 114H213.5C209.91 114 207 116.91 207 120.5C207 124.09 209.91 127 213.5 127H234.5C238.09 127 241 124.09 241 120.5C241 116.91 238.09 114 234.5 114Z" fill="#ECECEC"/>
<path opacity="0.5" d="M381.5 114H360.5C356.91 114 354 116.91 354 120.5C354 124.09 356.91 127 360.5 127H381.5C385.09 127 388 124.09 388 120.5C388 116.91 385.09 114 381.5 114Z" fill="#ECECEC"/>
<path opacity="0.5" d="M234.5 249H213.5C209.91 249 207 251.91 207 255.5C207 259.09 209.91 262 213.5 262H234.5C238.09 262 241 259.09 241 255.5C241 251.91 238.09 249 234.5 249Z" fill="#ECECEC"/>
</g>
<path d="M551.408 190.168H485.592C483.056 190.168 481 192.183 481 194.668C481 197.154 483.056 199.168 485.592 199.168H551.408C553.944 199.168 556 197.154 556 194.668C556 192.183 553.944 190.168 551.408 190.168Z" fill="#D8D8D8"/>
<path d="M535.552 210.168H501.448C498.992 210.168 497 212.183 497 214.668C497 217.154 498.992 219.168 501.448 219.168H535.552C538.008 219.168 540 217.154 540 214.668C540 212.183 538.008 210.168 535.552 210.168Z" fill="#D8D8D8"/>
<path d="M519.254 124C533.386 124 544.843 135.457 544.843 149.589C544.843 163.722 533.386 175.179 519.254 175.179C505.121 175.179 493.664 163.722 493.664 149.589C493.664 135.457 505.121 124 519.254 124ZM519.252 155.293C513.779 155.293 508.79 157.095 505.295 158.787C508.485 163.062 513.544 165.846 519.252 165.846C524.957 165.846 530.018 163.062 533.206 158.787C529.714 157.095 524.725 155.293 519.252 155.293ZM519.252 131.788C516.785 131.791 514.42 132.772 512.676 134.516C510.931 136.261 509.95 138.625 509.946 141.092C509.949 143.559 510.931 145.925 512.675 147.669C514.42 149.414 516.785 150.395 519.252 150.398C521.719 150.395 524.083 149.413 525.827 147.669C527.572 145.925 528.553 143.56 528.556 141.094C528.553 138.627 527.572 136.262 525.828 134.517C524.084 132.773 521.719 131.791 519.252 131.788Z" fill="#1A4BFA"/>
<g filter="url(#filter0_d_1497_3977)">
<path d="M591 118C603.15 118 613 108.15 613 96C613 83.8497 603.15 74 591 74C578.85 74 569 83.8497 569 96C569 108.15 578.85 118 591 118Z" fill="black"/>
</g>
<path d="M591 118C603.15 118 613 108.15 613 96C613 83.8497 603.15 74 591 74C578.85 74 569 83.8497 569 96C569 108.15 578.85 118 591 118Z" fill="white"/>
<path fill-rule="evenodd" clip-rule="evenodd" d="M590.997 100.5L585.708 103.281L586.717 97.391L582.438 93.219L588.352 92.359L590.997 87L593.643 92.36L599.557 93.219L595.277 97.391L596.287 103.281L590.997 100.5Z" fill="#FFC230"/>
<path d="M478.601 264.568L473.285 267.363L474.301 261.443L470 257.25L475.942 256.387L478.601 251L481.26 256.387L487.203 257.25L482.902 261.443L483.919 267.363L478.601 264.568Z" fill="#FFC95C"/>
<path d="M498.804 264.568L493.489 267.363L494.504 261.443L490.203 257.25L496.145 256.387L498.804 251L501.463 256.387L507.406 257.25L503.105 261.443L504.123 267.363L498.804 264.568Z" fill="#FFC95C"/>
<path d="M519.008 264.568L513.692 267.363L514.707 261.443L510.406 257.25L516.348 256.387L519.008 251L521.667 256.387L527.609 257.25L523.308 261.443L524.326 267.363L519.008 264.568Z" fill="#FFC95C"/>
<path d="M539.211 264.568L533.895 267.363L534.91 261.443L530.609 257.25L536.552 256.387L539.211 251L541.87 256.387L547.812 257.25L543.511 261.443L544.529 267.363L539.211 264.568Z" fill="#FFC95C"/>
<path d="M559.41 264.568L554.094 267.363L555.109 261.443L550.809 257.25L556.751 256.387L559.41 251L562.069 256.387L568.011 257.25L563.71 261.443L564.728 267.363L559.41 264.568Z" fill="#F1F1FB"/>
<rect x="459" y="314" width="139" height="10" rx="5" fill="#6734FB"/>
<rect x="459" y="295" width="37" height="10" rx="5" fill="#F1F1FB"/>
<rect x="459" y="333" width="37" height="10" rx="5" fill="#F1F1FB"/>
<line x1="105.5" y1="12" x2="105.5" y2="398" stroke="#65C358"/>
</g>
<defs>
<filter id="filter0_d_1497_3977" x="517" y="64" width="124" height="124" filterUnits="userSpaceOnUse" color-interpolation-filters="sRGB">
<feFlood flood-opacity="0" result="BackgroundImageFix"/>
<feColorMatrix in="SourceAlpha" type="matrix" values="0 0 0 0 0 0 0 0 0 0 0 0 0 0 0 0 0 0 127 0" result="hardAlpha"/>
<feOffset dx="-12" dy="30"/>
<feGaussianBlur stdDeviation="20"/>
<feColorMatrix type="matrix" values="0 0 0 0 0.160784 0 0 0 0 0.188235 0 0 0 0 0.313726 0 0 0 0.0882867 0"/>
<feBlend mode="normal" in2="BackgroundImageFix" result="effect1_dropShadow_1497_3977"/>
<feBlend mode="normal" in="SourceGraphic" in2="effect1_dropShadow_1497_3977" result="shape"/>
</filter>
<linearGradient id="paint0_linear_1497_3977" x1="622" y1="338.2" x2="655" y2="338.2" gradientUnits="userSpaceOnUse">
<stop stop-color="#F8F9F9" stop-opacity="0"/>
<stop offset="1" stop-color="white" stop-opacity="0.8"/>
</linearGradient>
<linearGradient id="paint1_linear_1497_3977" x1="769.001" y1="11.5" x2="769.001" y2="1" gradientUnits="userSpaceOnUse">
<stop stop-color="#F8F9F9" stop-opacity="0"/>
<stop offset="1" stop-color="white"/>
</linearGradient>
<linearGradient id="paint2_linear_1497_3977" x1="769" y1="408" x2="769" y2="397.5" gradientUnits="userSpaceOnUse">
<stop stop-color="#E1E1E1"/>
<stop offset="1" stop-color="white" stop-opacity="0"/>
</linearGradient>
<linearGradient id="paint3_linear_1497_3977" x1="14" y1="341.5" x2="3.5" y2="341.5" gradientUnits="userSpaceOnUse">
<stop stop-color="#DEDFE1" stop-opacity="0"/>
<stop offset="1" stop-color="#DEDFE1"/>
</linearGradient>
<linearGradient id="paint4_linear_1497_3977" x1="14" y1="11.5" x2="14" y2="397.5" gradientUnits="userSpaceOnUse">
<stop stop-color="white"/>
<stop offset="0.9" stop-color="white"/>
<stop offset="1" stop-color="white"/>
</linearGradient>
<clipPath id="clip0_1497_3977">
<rect width="656" height="409" fill="white" transform="translate(0 1)"/>
</clipPath>
</defs>
</svg>
