<svg width="657" height="410" viewBox="0 0 657 410" fill="none" xmlns="http://www.w3.org/2000/svg">
<g clip-path="url(#clip0_1498_5662)">
<path d="M56.4992 405.3H55.6992V406C55.6992 407.2 56.6992 408.3 57.9992 408.3H80.4992C81.6992 408.3 82.7992 407.3 82.7992 406V405.2H56.4992V405.3ZM4.79922 326V325.2H3.99922C2.79922 325.2 1.69922 326.2 1.69922 327.5V350C1.69922 351.2 2.69922 352.3 3.99922 352.3H4.79922V326ZM86.4992 405.3H85.6992V406C85.6992 407.2 86.6992 408.3 87.9992 408.3H110.499C111.699 408.3 112.799 407.3 112.799 406V405.2H86.4992V405.3Z" fill="#EBECEC" stroke="#DDDEDF" stroke-width="1.5"/>
<path fill-rule="evenodd" clip-rule="evenodd" d="M4 27C4 12 16 0 31 0H628.5C643.5 0 655.5 12 655.5 27V379C655.5 394 643.5 406 628.5 406H31C16 406 4 394 4 379V27Z" fill="#EEF0F1"/>
<mask id="mask0_1498_5662" style="mask-type:luminance" maskUnits="userSpaceOnUse" x="4" y="0" width="652" height="406">
<path fill-rule="evenodd" clip-rule="evenodd" d="M4 27C4 12 16 0 31 0H628.5C643.5 0 655.5 12 655.5 27V379C655.5 394 643.5 406 628.5 406H31C16 406 4 394 4 379V27Z" fill="white"/>
</mask>
<g mask="url(#mask0_1498_5662)">
<path fill-rule="evenodd" clip-rule="evenodd" d="M622.5 16.5C622.5 12.1239 624.238 7.92709 627.333 4.83274C630.427 1.73839 634.624 0 639 0C643.376 0 647.573 1.73839 650.667 4.83274C653.762 7.92709 655.5 12.1239 655.5 16.5V407H622.5V16.5Z" fill="url(#paint0_linear_1498_5662)"/>
<path opacity="0.5" fill-rule="evenodd" clip-rule="evenodd" d="M4.00098 5.3C4.00098 2.3 6.40098 0 9.30098 0H650.301C651.693 0 653.029 0.553123 654.013 1.53769C654.998 2.52226 655.551 3.85761 655.551 5.25C655.551 6.64239 654.998 7.97775 654.013 8.96231C653.029 9.94688 651.693 10.5 650.301 10.5H9.30098C8.60124 10.5136 7.90596 10.3858 7.25679 10.1243C6.60762 9.86271 6.01793 9.47282 5.52304 8.97794C5.02816 8.48305 4.63827 7.89336 4.37673 7.24419C4.11519 6.59502 3.98739 5.89974 4.00098 5.2V5.3Z" fill="url(#paint1_linear_1498_5662)"/>
<path opacity="0.5" fill-rule="evenodd" clip-rule="evenodd" d="M4 401.8C4 398.8 6.4 396.5 9.3 396.5H650.3C651.692 396.5 653.028 397.053 654.012 398.038C654.997 399.022 655.55 400.358 655.55 401.75C655.55 403.142 654.997 404.478 654.012 405.462C653.028 406.447 651.692 407 650.3 407H9.3C7.89435 407 6.54628 406.442 5.55233 405.448C4.55839 404.454 4 403.106 4 401.7V401.8Z" fill="url(#paint2_linear_1498_5662)"/>
<path fill-rule="evenodd" clip-rule="evenodd" d="M14.5 14.1C14.5 10.9 10.5 9.49998 8.5 12L6.2 17.4C4.75856 20.7486 4.01019 24.3544 4 28V410H14.5V14.1Z" fill="url(#paint3_linear_1498_5662)"/>
</g>
<path fill-rule="evenodd" clip-rule="evenodd" d="M14.5 31.5C14.5 25.9305 16.7125 20.589 20.6508 16.6508C24.589 12.7125 29.9305 10.5 35.5 10.5H624C629.57 10.5 634.911 12.7125 638.849 16.6508C642.788 20.589 645 25.9305 645 31.5V375.5C645 381.07 642.788 386.411 638.849 390.349C634.911 394.288 629.57 396.5 624 396.5H35.5C29.9305 396.5 24.589 394.288 20.6508 390.349C16.7125 386.411 14.5 381.07 14.5 375.5V31.5Z" fill="url(#paint4_linear_1498_5662)"/>
<path d="M626.5 10.5H32.5C22.5589 10.5 14.5 18.5589 14.5 28.5V378.5C14.5 388.441 22.5589 396.5 32.5 396.5H626.5C636.441 396.5 644.5 388.441 644.5 378.5V28.5C644.5 18.5589 636.441 10.5 626.5 10.5Z" fill="white"/>
<mask id="mask1_1498_5662" style="mask-type:luminance" maskUnits="userSpaceOnUse" x="14" y="10" width="631" height="387">
<path d="M626.5 10.5H32.5C22.5589 10.5 14.5 18.5589 14.5 28.5V378.5C14.5 388.441 22.5589 396.5 32.5 396.5H626.5C636.441 396.5 644.5 388.441 644.5 378.5V28.5C644.5 18.5589 636.441 10.5 626.5 10.5Z" fill="white"/>
</mask>
<g mask="url(#mask1_1498_5662)">
<path d="M14.5 10.5H107V396.5H14.5V10.5Z" fill="#F9F9F9"/>
<path d="M213.5 65H129.5C125.91 65 123 67.9101 123 71.5C123 75.0899 125.91 78 129.5 78H213.5C217.09 78 220 75.0899 220 71.5C220 67.9101 217.09 65 213.5 65Z" fill="#F9F9F9"/>
<path d="M289.5 24H136C128.82 24 123 29.8203 123 37C123 44.1797 128.82 50 136 50H289.5C296.68 50 302.5 44.1797 302.5 37C302.5 29.8203 296.68 24 289.5 24Z" fill="#F9F9F9"/>
<path d="M572 24.5H532C528.686 24.5 526 27.1863 526 30.5C526 33.8137 528.686 36.5 532 36.5H572C575.314 36.5 578 33.8137 578 30.5C578 27.1863 575.314 24.5 572 24.5Z" stroke="#EAEAF5"/>
<path d="M601.5 30.5C601.5 26.9101 598.59 24 595 24C591.41 24 588.5 26.9101 588.5 30.5C588.5 34.0899 591.41 37 595 37C598.59 37 601.5 34.0899 601.5 30.5Z" fill="#F9F9F9"/>
<path d="M624.5 30.5C624.5 26.9101 621.59 24 618 24C614.41 24 611.5 26.9101 611.5 30.5C611.5 34.0899 614.41 37 618 37C621.59 37 624.5 34.0899 624.5 30.5Z" fill="#F9F9F9"/>
<path d="M271 229.5H133.5C127.701 229.5 123 234.201 123 240V370.5C123 376.299 127.701 381 133.5 381H271C276.799 381 281.5 376.299 281.5 370.5V240C281.5 234.201 276.799 229.5 271 229.5Z" fill="#F9F9F9"/>
<path opacity="0.5" d="M178.5 242H144.5C140.91 242 138 244.91 138 248.5C138 252.09 140.91 255 144.5 255H178.5C182.09 255 185 252.09 185 248.5C185 244.91 182.09 242 178.5 242Z" fill="#D8D8D8"/>
<path opacity="0.5" d="M75 73H41C37.4101 73 34.5 75.9101 34.5 79.5C34.5 83.0899 37.4101 86 41 86H75C78.5899 86 81.5 83.0899 81.5 79.5C81.5 75.9101 78.5899 73 75 73Z" fill="#D8D8D8"/>
<path d="M48 37C48 33.4101 45.0899 30.5 41.5 30.5C37.9101 30.5 35 33.4101 35 37C35 40.5899 37.9101 43.5 41.5 43.5C45.0899 43.5 48 40.5899 48 37Z" fill="#65C358"/>
<path d="M75 31H59.5C56.1863 31 53.5 33.6863 53.5 37C53.5 40.3137 56.1863 43 59.5 43H75C78.3137 43 81 40.3137 81 37C81 33.6863 78.3137 31 75 31Z" fill="#65C358"/>
<path opacity="0.5" d="M66 101H41C37.4101 101 34.5 103.91 34.5 107.5C34.5 111.09 37.4101 114 41 114H66C69.5899 114 72.5 111.09 72.5 107.5C72.5 103.91 69.5899 101 66 101Z" fill="#D8D8D8"/>
<path opacity="0.5" d="M51.5 129H41C37.4101 129 34.5 131.91 34.5 135.5C34.5 139.09 37.4101 142 41 142H51.5C55.0899 142 58 139.09 58 135.5C58 131.91 55.0899 129 51.5 129Z" fill="#D8D8D8"/>
<path opacity="0.5" d="M75 157H41C37.4101 157 34.5 159.91 34.5 163.5C34.5 167.09 37.4101 170 41 170H75C78.5899 170 81.5 167.09 81.5 163.5C81.5 159.91 78.5899 157 75 157Z" fill="#D8D8D8"/>
<path opacity="0.5" d="M75 185H41C37.4101 185 34.5 187.91 34.5 191.5C34.5 195.09 37.4101 198 41 198H75C78.5899 198 81.5 195.09 81.5 191.5C81.5 187.91 78.5899 185 75 185Z" fill="#D8D8D8"/>
<path opacity="0.5" d="M51.5 213H41C37.4101 213 34.5 215.91 34.5 219.5C34.5 223.09 37.4101 226 41 226H51.5C55.0899 226 58 223.09 58 219.5C58 215.91 55.0899 213 51.5 213Z" fill="#D8D8D8"/>
<path opacity="0.5" d="M75 241H41C37.4101 241 34.5 243.91 34.5 247.5C34.5 251.09 37.4101 254 41 254H75C78.5899 254 81.5 251.09 81.5 247.5C81.5 243.91 78.5899 241 75 241Z" fill="#D8D8D8"/>
<path opacity="0.5" d="M66 269H41C37.4101 269 34.5 271.91 34.5 275.5C34.5 279.09 37.4101 282 41 282H66C69.5899 282 72.5 279.09 72.5 275.5C72.5 271.91 69.5899 269 66 269Z" fill="#D8D8D8"/>
<path opacity="0.5" d="M75 297H41C37.4101 297 34.5 299.91 34.5 303.5C34.5 307.09 37.4101 310 41 310H75C78.5899 310 81.5 307.09 81.5 303.5C81.5 299.91 78.5899 297 75 297Z" fill="#D8D8D8"/>
<path opacity="0.5" d="M51.5 325H41C37.4101 325 34.5 327.91 34.5 331.5C34.5 335.09 37.4101 338 41 338H51.5C55.0899 338 58 335.09 58 331.5C58 327.91 55.0899 325 51.5 325Z" fill="#D8D8D8"/>
<path d="M66 353.5H41C37.6863 353.5 35 356.186 35 359.5C35 362.814 37.6863 365.5 41 365.5H66C69.3137 365.5 72 362.814 72 359.5C72 356.186 69.3137 353.5 66 353.5Z" stroke="#EAEAF5"/>
<path opacity="0.5" d="M258 335H144.5C140.91 335 138 337.91 138 341.5C138 345.09 140.91 348 144.5 348H258C261.59 348 264.5 345.09 264.5 341.5C264.5 337.91 261.59 335 258 335Z" fill="#D8D8D8"/>
<path opacity="0.5" d="M229.5 355.5H144.5C140.91 355.5 138 358.41 138 362C138 365.59 140.91 368.5 144.5 368.5H229.5C233.09 368.5 236 365.59 236 362C236 358.41 233.09 355.5 229.5 355.5Z" fill="#D8D8D8"/>
<path d="M202.5 317C215.479 317 226 306.479 226 293.5C226 280.521 215.479 270 202.5 270C189.521 270 179 280.521 179 293.5C179 306.479 189.521 317 202.5 317Z" stroke="white" stroke-width="13.5"/>
<path d="M202.5 317C215.479 317 226 306.479 226 293.5C226 280.521 215.479 270 202.5 270C189.521 270 179 280.521 179 293.5C179 306.479 189.521 317 202.5 317Z" stroke="#EFEFEF" stroke-width="13.5"/>
<path d="M442.5 229.5H305C299.201 229.5 294.5 234.201 294.5 240V370.5C294.5 376.299 299.201 381 305 381H442.5C448.299 381 453 376.299 453 370.5V240C453 234.201 448.299 229.5 442.5 229.5Z" fill="#F9F9F9"/>
<path opacity="0.5" d="M384 242H316C312.41 242 309.5 244.91 309.5 248.5C309.5 252.09 312.41 255 316 255H384C387.59 255 390.5 252.09 390.5 248.5C390.5 244.91 387.59 242 384 242Z" fill="#D8D8D8"/>
<path opacity="0.5" d="M343.5 335H316C312.41 335 309.5 337.91 309.5 341.5C309.5 345.09 312.41 348 316 348H343.5C347.09 348 350 345.09 350 341.5C350 337.91 347.09 335 343.5 335Z" fill="#D8D8D8"/>
<path opacity="0.5" d="M424 355.5H316C312.41 355.5 309.5 358.41 309.5 362C309.5 365.59 312.41 368.5 316 368.5H424C427.59 368.5 430.5 365.59 430.5 362C430.5 358.41 427.59 355.5 424 355.5Z" fill="#D8D8D8"/>
<path d="M374 317C386.979 317 397.5 306.479 397.5 293.5C397.5 280.521 386.979 270 374 270C361.021 270 350.5 280.521 350.5 293.5C350.5 306.479 361.021 317 374 317Z" stroke="white" stroke-width="13.5"/>
<path d="M374 270C361.021 270 350.5 280.521 350.5 293.5C350.5 306.479 361.021 317 374 317C386.979 317 397.5 306.479 397.5 293.5C397.5 280.521 386.979 270 374 270Z" stroke="#1A4BFA" stroke-width="13.5"/>
<path d="M614 230H476.5C470.977 230 466.5 234.477 466.5 240V370.5C466.5 376.023 470.977 380.5 476.5 380.5H614C619.523 380.5 624 376.023 624 370.5V240C624 234.477 619.523 230 614 230Z" stroke="#EAEAF5"/>
<path opacity="0.5" d="M508.5 242H487.5C483.91 242 481 244.91 481 248.5C481 252.09 483.91 255 487.5 255H508.5C512.09 255 515 252.09 515 248.5C515 244.91 512.09 242 508.5 242Z" fill="#D8D8D8"/>
<path opacity="0.5" d="M585 335H487.5C483.91 335 481 337.91 481 341.5C481 345.09 483.91 348 487.5 348H585C588.59 348 591.5 345.09 591.5 341.5C591.5 337.91 588.59 335 585 335Z" fill="#D8D8D8"/>
<path opacity="0.5" d="M533 355.5H487.5C483.91 355.5 481 358.41 481 362C481 365.59 483.91 368.5 487.5 368.5H533C536.59 368.5 539.5 365.59 539.5 362C539.5 358.41 536.59 355.5 533 355.5Z" fill="#D8D8D8"/>
<path d="M545.5 317C558.479 317 569 306.479 569 293.5C569 280.521 558.479 270 545.5 270C532.521 270 522 280.521 522 293.5C522 306.479 532.521 317 545.5 317Z" stroke="white" stroke-width="13.5"/>
<path d="M522 293.5C522 306.479 532.521 317 545.5 317C558.479 317 569 306.479 569 293.5C569 280.521 558.479 270 545.5 270C532.521 270 522 280.521 522 293.5Z" stroke="#65C358" stroke-width="13.5"/>
<path d="M493 93.5H408C402.477 93.5 398 97.9772 398 103.5V136C398 141.523 402.477 146 408 146H493C498.523 146 503 141.523 503 136V103.5C503 97.9772 498.523 93.5 493 93.5Z" stroke="#EAEAF5"/>
<path d="M493 161H408C402.201 161 397.5 165.701 397.5 171.5V204C397.5 209.799 402.201 214.5 408 214.5H493C498.799 214.5 503.5 209.799 503.5 204V171.5C503.5 165.701 498.799 161 493 161Z" fill="#F9F9F9"/>
<path d="M429 174.8H419C414.582 174.8 411 178.382 411 182.8V192.8C411 197.218 414.582 200.8 419 200.8H429C433.418 200.8 437 197.218 437 192.8V182.8C437 178.382 433.418 174.8 429 174.8Z" fill="white"/>
<path opacity="0.5" d="M429 106.5H419C414.582 106.5 411 110.082 411 114.5V124.5C411 128.918 414.582 132.5 419 132.5H429C433.418 132.5 437 128.918 437 124.5V114.5C437 110.082 433.418 106.5 429 106.5Z" fill="#ECECEC"/>
<path d="M614 93H529C523.201 93 518.5 97.701 518.5 103.5V136C518.5 141.799 523.201 146.5 529 146.5H614C619.799 146.5 624.5 141.799 624.5 136V103.5C624.5 97.701 619.799 93 614 93Z" fill="#F9F9F9"/>
<path d="M614 161H529C523.201 161 518.5 165.701 518.5 171.5V204C518.5 209.799 523.201 214.5 529 214.5H614C619.799 214.5 624.5 209.799 624.5 204V171.5C624.5 165.701 619.799 161 614 161Z" fill="#F9F9F9"/>
<path d="M550 174.8H540C535.582 174.8 532 178.382 532 182.8V192.8C532 197.218 535.582 200.8 540 200.8H550C554.418 200.8 558 197.218 558 192.8V182.8C558 178.382 554.418 174.8 550 174.8Z" fill="white"/>
<path d="M550 106.5H540C535.582 106.5 532 110.082 532 114.5V124.5C532 128.918 535.582 132.5 540 132.5H550C554.418 132.5 558 128.918 558 124.5V114.5C558 110.082 554.418 106.5 550 106.5Z" fill="white"/>
<path opacity="0.5" d="M474.5 181.3H453.5C449.91 181.3 447 184.21 447 187.8C447 191.39 449.91 194.3 453.5 194.3H474.5C478.09 194.3 481 191.39 481 187.8C481 184.21 478.09 181.3 474.5 181.3Z" fill="#D8D8D8"/>
<path opacity="0.5" d="M474.5 113H453.5C449.91 113 447 115.91 447 119.5C447 123.09 449.91 126 453.5 126H474.5C478.09 126 481 123.09 481 119.5C481 115.91 478.09 113 474.5 113Z" fill="#ECECEC"/>
<path opacity="0.5" d="M595.5 181.3H574.5C570.91 181.3 568 184.21 568 187.8C568 191.39 570.91 194.3 574.5 194.3H595.5C599.09 194.3 602 191.39 602 187.8C602 184.21 599.09 181.3 595.5 181.3Z" fill="#D8D8D8"/>
<path opacity="0.5" d="M595.5 113H574.5C570.91 113 568 115.91 568 119.5C568 123.09 570.91 126 574.5 126H595.5C599.09 126 602 123.09 602 119.5C602 115.91 599.09 113 595.5 113Z" fill="#D8D8D8"/>
<g filter="url(#filter0_d_1498_5662)">
<path d="M372 93H133.5C127.701 93 123 97.701 123 103.5V204C123 209.799 127.701 214.5 133.5 214.5H372C377.799 214.5 382.5 209.799 382.5 204V103.5C382.5 97.701 377.799 93 372 93Z" fill="white"/>
</g>
<path fill-rule="evenodd" clip-rule="evenodd" d="M146 107.5C146.057 107.347 146.159 107.215 146.293 107.122C146.427 107.028 146.587 106.978 146.75 106.978C146.913 106.978 147.073 107.028 147.207 107.122C147.341 107.215 147.443 107.347 147.5 107.5V200C147.443 200.153 147.341 200.285 147.207 200.378C147.073 200.472 146.913 200.522 146.75 200.522C146.587 200.522 146.427 200.472 146.293 200.378C146.159 200.285 146.057 200.153 146 200V107.5ZM172.5 107.5C172.557 107.347 172.659 107.215 172.793 107.122C172.927 107.028 173.087 106.978 173.25 106.978C173.413 106.978 173.573 107.028 173.707 107.122C173.841 107.215 173.943 107.347 174 107.5V200C173.943 200.153 173.841 200.285 173.707 200.378C173.573 200.472 173.413 200.522 173.25 200.522C173.087 200.522 172.927 200.472 172.793 200.378C172.659 200.285 172.557 200.153 172.5 200V107.5ZM199 107.5C199.057 107.347 199.159 107.215 199.293 107.122C199.427 107.028 199.587 106.978 199.75 106.978C199.913 106.978 200.073 107.028 200.207 107.122C200.341 107.215 200.443 107.347 200.5 107.5V200C200.443 200.153 200.341 200.285 200.207 200.378C200.073 200.472 199.913 200.522 199.75 200.522C199.587 200.522 199.427 200.472 199.293 200.378C199.159 200.285 199.057 200.153 199 200V107.5ZM225.5 107.5C225.557 107.347 225.659 107.215 225.793 107.122C225.927 107.028 226.087 106.978 226.25 106.978C226.413 106.978 226.573 107.028 226.707 107.122C226.841 107.215 226.943 107.347 227 107.5V200C226.943 200.153 226.841 200.285 226.707 200.378C226.573 200.472 226.413 200.522 226.25 200.522C226.087 200.522 225.927 200.472 225.793 200.378C225.659 200.285 225.557 200.153 225.5 200V107.5ZM252 107.5C252.057 107.347 252.159 107.215 252.293 107.122C252.427 107.028 252.587 106.978 252.75 106.978C252.913 106.978 253.073 107.028 253.207 107.122C253.341 107.215 253.443 107.347 253.5 107.5V200C253.443 200.153 253.341 200.285 253.207 200.378C253.073 200.472 252.913 200.522 252.75 200.522C252.587 200.522 252.427 200.472 252.293 200.378C252.159 200.285 252.057 200.153 252 200V107.5ZM278.5 107.5C278.557 107.347 278.659 107.215 278.793 107.122C278.927 107.028 279.087 106.978 279.25 106.978C279.413 106.978 279.573 107.028 279.707 107.122C279.841 107.215 279.943 107.347 280 107.5V200C279.943 200.153 279.841 200.285 279.707 200.378C279.573 200.472 279.413 200.522 279.25 200.522C279.087 200.522 278.927 200.472 278.793 200.378C278.659 200.285 278.557 200.153 278.5 200V107.5ZM305 107.5C305.057 107.347 305.159 107.215 305.293 107.122C305.427 107.028 305.587 106.978 305.75 106.978C305.913 106.978 306.073 107.028 306.207 107.122C306.341 107.215 306.443 107.347 306.5 107.5V200C306.443 200.153 306.341 200.285 306.207 200.378C306.073 200.472 305.913 200.522 305.75 200.522C305.587 200.522 305.427 200.472 305.293 200.378C305.159 200.285 305.057 200.153 305 200V107.5ZM331.5 107.5C331.557 107.347 331.659 107.215 331.793 107.122C331.927 107.028 332.087 106.978 332.25 106.978C332.413 106.978 332.573 107.028 332.707 107.122C332.841 107.215 332.943 107.347 333 107.5V200C332.943 200.153 332.841 200.285 332.707 200.378C332.573 200.472 332.413 200.522 332.25 200.522C332.087 200.522 331.927 200.472 331.793 200.378C331.659 200.285 331.557 200.153 331.5 200V107.5ZM358 107.5C358.057 107.347 358.159 107.215 358.293 107.122C358.427 107.028 358.587 106.978 358.75 106.978C358.913 106.978 359.073 107.028 359.207 107.122C359.341 107.215 359.443 107.347 359.5 107.5V200C359.443 200.153 359.341 200.285 359.207 200.378C359.073 200.472 358.913 200.522 358.75 200.522C358.587 200.522 358.427 200.472 358.293 200.378C358.159 200.285 358.057 200.153 358 200V107.5Z" fill="#F9F9F9"/>
<path d="M138 202.625L160.8 171.225C161.809 169.844 163.082 168.676 164.543 167.787C166.005 166.899 167.628 166.307 169.319 166.047C171.01 165.787 172.735 165.863 174.396 166.271C176.058 166.679 177.622 167.411 179 168.425L192.7 178.425C195.058 180.189 197.944 181.099 200.887 181.009C203.83 180.918 206.655 179.831 208.9 177.925L225.2 163.925C227.083 162.332 229.38 161.307 231.824 160.971C234.268 160.634 236.756 161 239 162.025L253.8 168.725C256.732 170.054 260.053 170.247 263.119 169.268C266.186 168.289 268.78 166.207 270.4 163.425L278.5 149.425C279.662 147.444 281.327 145.806 283.327 144.677C285.328 143.549 287.591 142.971 289.887 143.001C292.184 143.032 294.431 143.67 296.4 144.851C298.37 146.032 299.991 147.714 301.1 149.725L308.9 163.725C313.9 172.725 326.9 172.525 331.7 163.425L334.3 158.625C335.265 156.85 336.63 155.324 338.288 154.168C339.945 153.012 341.849 152.259 343.849 151.968C345.848 151.677 347.888 151.856 349.807 152.49C351.725 153.125 353.469 154.199 354.9 155.625L367.5 168.125" stroke="#6734FB" stroke-width="9.5" stroke-linecap="round"/>
</g>
<line x1="106" y1="13" x2="106" y2="397" stroke="#65C358"/>
</g>
<defs>
<filter id="filter0_d_1498_5662" x="73" y="65" width="359.5" height="221.5" filterUnits="userSpaceOnUse" color-interpolation-filters="sRGB">
<feFlood flood-opacity="0" result="BackgroundImageFix"/>
<feColorMatrix in="SourceAlpha" type="matrix" values="0 0 0 0 0 0 0 0 0 0 0 0 0 0 0 0 0 0 127 0" result="hardAlpha"/>
<feOffset dy="22"/>
<feGaussianBlur stdDeviation="25"/>
<feColorMatrix type="matrix" values="0 0 0 0 0.0904099 0 0 0 0 0.0904099 0 0 0 0 0.0904099 0 0 0 0.0618171 0"/>
<feBlend mode="normal" in2="BackgroundImageFix" result="effect1_dropShadow_1498_5662"/>
<feBlend mode="normal" in="SourceGraphic" in2="effect1_dropShadow_1498_5662" result="shape"/>
</filter>
<linearGradient id="paint0_linear_1498_5662" x1="622.5" y1="337.2" x2="655.5" y2="337.2" gradientUnits="userSpaceOnUse">
<stop stop-color="#F8F9F9" stop-opacity="0"/>
<stop offset="1" stop-color="white" stop-opacity="0.8"/>
</linearGradient>
<linearGradient id="paint1_linear_1498_5662" x1="769.501" y1="10.5" x2="769.501" y2="0" gradientUnits="userSpaceOnUse">
<stop stop-color="#F8F9F9" stop-opacity="0"/>
<stop offset="1" stop-color="white"/>
</linearGradient>
<linearGradient id="paint2_linear_1498_5662" x1="769.5" y1="407" x2="769.5" y2="396.5" gradientUnits="userSpaceOnUse">
<stop stop-color="#E1E1E1"/>
<stop offset="1" stop-color="white" stop-opacity="0"/>
</linearGradient>
<linearGradient id="paint3_linear_1498_5662" x1="14.5" y1="340.5" x2="4" y2="340.5" gradientUnits="userSpaceOnUse">
<stop stop-color="#DEDFE1" stop-opacity="0"/>
<stop offset="1" stop-color="#DEDFE1"/>
</linearGradient>
<linearGradient id="paint4_linear_1498_5662" x1="14.5" y1="10.5" x2="14.5" y2="396.5" gradientUnits="userSpaceOnUse">
<stop stop-color="white"/>
<stop offset="0.9" stop-color="white"/>
<stop offset="1" stop-color="white"/>
</linearGradient>
<clipPath id="clip0_1498_5662">
<rect width="656" height="409" fill="white" transform="translate(0.5)"/>
</clipPath>
</defs>
</svg>
