<svg width="656" height="418" viewBox="0 0 656 418" fill="none" xmlns="http://www.w3.org/2000/svg">
<path d="M358.955 222.017C384.553 175.961 439.73 149.13 483.482 196.227C527.237 243.323 554.391 243.878 568.746 269.114C583.101 294.348 577.35 342.547 516.969 390.165C456.588 437.785 432.41 389.598 361.198 363.306C289.986 337.015 333.355 268.074 358.955 222.017Z" fill="#F2F5FF"/>
<g filter="url(#filter0_d_1498_4987)">
<path d="M438.957 34.6665H226.335C209.398 34.6665 195.668 48.3964 195.668 65.3332V333.155C195.668 350.092 209.398 363.822 226.335 363.822H438.957C455.894 363.822 469.624 350.092 469.624 333.155V65.3332C469.624 48.3964 455.894 34.6665 438.957 34.6665Z" fill="black"/>
</g>
<path d="M438.957 34.6665H226.335C209.398 34.6665 195.668 48.3964 195.668 65.3332V333.155C195.668 350.092 209.398 363.822 226.335 363.822H438.957C455.894 363.822 469.624 350.092 469.624 333.155V65.3332C469.624 48.3964 455.894 34.6665 438.957 34.6665Z" fill="white"/>
<g filter="url(#filter1_d_1498_4987)">
<path d="M469.618 147.111C503.492 147.111 530.952 119.651 530.952 85.7777C530.952 51.9042 503.492 24.4443 469.618 24.4443C435.745 24.4443 408.285 51.9042 408.285 85.7777C408.285 119.651 435.745 147.111 469.618 147.111Z" fill="black"/>
</g>
<path d="M469.618 147.111C503.492 147.111 530.952 119.651 530.952 85.7777C530.952 51.9042 503.492 24.4443 469.618 24.4443C435.745 24.4443 408.285 51.9042 408.285 85.7777C408.285 119.651 435.745 147.111 469.618 147.111Z" fill="#345FFB"/>
<path fill-rule="evenodd" clip-rule="evenodd" d="M464.511 50.3533C476.389 48.7095 487.347 52.9047 494.92 60.4794C498.247 63.7978 500.886 67.7411 502.685 72.0825C504.483 76.424 505.406 81.0781 505.4 85.7774C505.4 95.6561 501.395 104.601 494.92 111.075C491.602 114.403 487.658 117.041 483.317 118.84C478.975 120.638 474.321 121.561 469.622 121.555C464.923 121.561 460.269 120.638 455.927 118.84C451.586 117.041 447.643 114.403 444.324 111.075C436.749 103.501 432.554 92.5445 434.198 80.6662H464.511V50.3533Z" fill="white" stroke="white" stroke-width="5"/>
<path d="M291.943 327.65V333.496H291.204V328.573L289.715 329.116V328.449L291.827 327.65H291.943Z" fill="#383868"/>
<path d="M295.05 330.729L294.459 330.577L294.75 327.682H297.733V328.365H295.377L295.201 329.946C295.308 329.885 295.442 329.828 295.605 329.775C295.77 329.721 295.959 329.695 296.172 329.695C296.44 329.695 296.681 329.741 296.894 329.835C297.107 329.925 297.288 330.056 297.437 330.226C297.589 330.396 297.705 330.601 297.785 330.841C297.865 331.08 297.905 331.348 297.905 331.643C297.905 331.923 297.866 332.18 297.789 332.414C297.714 332.648 297.601 332.853 297.449 333.029C297.298 333.202 297.106 333.337 296.874 333.432C296.645 333.528 296.375 333.576 296.064 333.576C295.83 333.576 295.607 333.544 295.397 333.48C295.189 333.414 295.003 333.314 294.838 333.181C294.676 333.045 294.542 332.877 294.439 332.678C294.337 332.475 294.274 332.238 294.247 331.967H294.95C294.982 332.185 295.046 332.369 295.141 332.518C295.237 332.667 295.362 332.78 295.517 332.857C295.674 332.932 295.856 332.969 296.064 332.969C296.239 332.969 296.395 332.939 296.531 332.877C296.667 332.816 296.781 332.728 296.874 332.614C296.968 332.499 297.038 332.361 297.086 332.198C297.137 332.036 297.162 331.854 297.162 331.651C297.162 331.468 297.137 331.297 297.086 331.14C297.035 330.983 296.96 330.846 296.858 330.729C296.76 330.612 296.639 330.521 296.495 330.458C296.351 330.391 296.186 330.358 296 330.358C295.752 330.358 295.565 330.391 295.437 330.458C295.312 330.524 295.183 330.615 295.05 330.729Z" fill="#383868"/>
<path d="M324.65 327.65V333.496H323.911V328.573L322.422 329.116V328.449L324.534 327.65H324.65Z" fill="#383868"/>
<path d="M329.657 327.674H329.721V328.301H329.657C329.266 328.301 328.939 328.365 328.675 328.493C328.411 328.618 328.202 328.787 328.048 329C327.894 329.21 327.782 329.447 327.713 329.711C327.646 329.974 327.613 330.242 327.613 330.513V331.368C327.613 331.626 327.643 331.855 327.705 332.055C327.766 332.252 327.85 332.418 327.956 332.554C328.063 332.69 328.183 332.792 328.316 332.861C328.451 332.931 328.592 332.965 328.739 332.965C328.909 332.965 329.061 332.933 329.194 332.869C329.327 332.803 329.439 332.711 329.53 332.594C329.623 332.474 329.693 332.333 329.741 332.171C329.789 332.008 329.813 331.83 329.813 331.635C329.813 331.462 329.792 331.296 329.749 331.136C329.707 330.974 329.641 330.83 329.553 330.705C329.466 330.577 329.355 330.477 329.222 330.406C329.092 330.331 328.936 330.294 328.755 330.294C328.55 330.294 328.358 330.344 328.18 330.446C328.004 330.544 327.859 330.674 327.745 330.837C327.633 330.997 327.569 331.171 327.553 331.36L327.162 331.356C327.199 331.058 327.268 330.804 327.369 330.593C327.473 330.38 327.601 330.207 327.753 330.074C327.907 329.938 328.079 329.84 328.268 329.779C328.459 329.715 328.662 329.683 328.875 329.683C329.165 329.683 329.415 329.737 329.625 329.847C329.836 329.956 330.009 330.102 330.144 330.286C330.28 330.467 330.38 330.672 330.444 330.901C330.51 331.127 330.544 331.36 330.544 331.6C330.544 331.874 330.505 332.131 330.428 332.37C330.351 332.61 330.235 332.82 330.081 333.001C329.929 333.182 329.741 333.323 329.518 333.424C329.294 333.526 329.034 333.576 328.739 333.576C328.425 333.576 328.151 333.512 327.916 333.384C327.682 333.254 327.488 333.081 327.333 332.865C327.179 332.65 327.063 332.41 326.986 332.147C326.909 331.883 326.87 331.615 326.87 331.344V330.997C326.87 330.587 326.911 330.185 326.994 329.791C327.076 329.397 327.219 329.04 327.421 328.721C327.626 328.401 327.91 328.147 328.272 327.958C328.634 327.769 329.096 327.674 329.657 327.674Z" fill="#383868"/>
<path d="M357.365 327.65V333.496H356.626V328.573L355.137 329.116V328.449L357.249 327.65H357.365Z" fill="#383868"/>
<path d="M363.295 327.682V328.098L360.887 333.496H360.108L362.512 328.289H359.365V327.682H363.295Z" fill="#383868"/>
<path d="M388.029 327.65V333.496H387.29V328.572L385.801 329.115V328.449L387.913 327.65H388.029Z" fill="#383868"/>
<path d="M393.867 331.923C393.867 332.277 393.784 332.577 393.619 332.825C393.457 333.07 393.236 333.256 392.956 333.384C392.679 333.512 392.367 333.576 392.018 333.576C391.669 333.576 391.355 333.512 391.076 333.384C390.796 333.256 390.575 333.07 390.413 332.825C390.25 332.577 390.169 332.277 390.169 331.923C390.169 331.691 390.213 331.479 390.301 331.288C390.391 331.093 390.518 330.924 390.68 330.781C390.845 330.637 391.04 330.526 391.263 330.449C391.49 330.369 391.738 330.329 392.01 330.329C392.367 330.329 392.685 330.399 392.964 330.537C393.244 330.673 393.463 330.86 393.623 331.1C393.786 331.34 393.867 331.614 393.867 331.923ZM393.124 331.907C393.124 331.691 393.077 331.501 392.984 331.336C392.891 331.168 392.761 331.037 392.593 330.944C392.425 330.851 392.231 330.804 392.01 330.804C391.784 330.804 391.588 330.851 391.423 330.944C391.261 331.037 391.134 331.168 391.044 331.336C390.953 331.501 390.908 331.691 390.908 331.907C390.908 332.13 390.952 332.322 391.04 332.482C391.13 332.639 391.258 332.76 391.423 332.845C391.591 332.927 391.789 332.969 392.018 332.969C392.247 332.969 392.444 332.927 392.609 332.845C392.774 332.76 392.9 332.639 392.988 332.482C393.079 332.322 393.124 332.13 393.124 331.907ZM393.731 329.195C393.731 329.477 393.656 329.732 393.507 329.958C393.358 330.184 393.155 330.363 392.896 330.493C392.638 330.623 392.345 330.689 392.018 330.689C391.685 330.689 391.388 330.623 391.128 330.493C390.869 330.363 390.667 330.184 390.521 329.958C390.374 329.732 390.301 329.477 390.301 329.195C390.301 328.857 390.374 328.57 390.521 328.333C390.67 328.096 390.873 327.915 391.132 327.79C391.39 327.665 391.684 327.602 392.014 327.602C392.347 327.602 392.642 327.665 392.9 327.79C393.159 327.915 393.361 328.096 393.507 328.333C393.656 328.57 393.731 328.857 393.731 329.195ZM392.992 329.207C392.992 329.013 392.951 328.841 392.868 328.692C392.786 328.543 392.671 328.426 392.525 328.341C392.379 328.253 392.208 328.209 392.014 328.209C391.82 328.209 391.649 328.25 391.503 328.333C391.359 328.413 391.246 328.527 391.163 328.676C391.084 328.825 391.044 329.002 391.044 329.207C391.044 329.407 391.084 329.581 391.163 329.73C391.246 329.879 391.36 329.995 391.507 330.078C391.653 330.16 391.824 330.202 392.018 330.202C392.212 330.202 392.381 330.16 392.525 330.078C392.671 329.995 392.786 329.879 392.868 329.73C392.951 329.581 392.992 329.407 392.992 329.207Z" fill="#383868"/>
<path d="M418.693 327.65V333.496H417.954V328.572L416.465 329.115V328.449L418.577 327.65H418.693Z" fill="#383868"/>
<path d="M421.6 332.877H421.676C422.102 332.877 422.448 332.817 422.714 332.697C422.98 332.577 423.185 332.416 423.329 332.214C423.473 332.012 423.571 331.784 423.624 331.531C423.678 331.276 423.704 331.013 423.704 330.745V329.854C423.704 329.591 423.674 329.356 423.612 329.151C423.554 328.946 423.471 328.775 423.365 328.636C423.261 328.498 423.143 328.393 423.009 328.321C422.876 328.249 422.735 328.213 422.586 328.213C422.416 328.213 422.263 328.248 422.127 328.317C421.994 328.383 421.881 328.478 421.788 328.6C421.697 328.723 421.628 328.867 421.58 329.032C421.532 329.197 421.508 329.376 421.508 329.571C421.508 329.744 421.529 329.911 421.572 330.074C421.615 330.236 421.68 330.383 421.768 330.513C421.855 330.643 421.965 330.747 422.095 330.824C422.228 330.899 422.384 330.936 422.562 330.936C422.727 330.936 422.882 330.904 423.025 330.84C423.172 330.774 423.301 330.685 423.413 330.573C423.527 330.458 423.618 330.329 423.684 330.186C423.754 330.042 423.793 329.891 423.804 329.734H424.155C424.155 329.955 424.112 330.174 424.024 330.389C423.939 330.602 423.819 330.796 423.664 330.972C423.51 331.148 423.329 331.289 423.121 331.395C422.914 331.499 422.687 331.551 422.442 331.551C422.155 331.551 421.906 331.495 421.696 331.383C421.485 331.272 421.312 331.123 421.177 330.936C421.044 330.75 420.944 330.542 420.877 330.313C420.813 330.082 420.781 329.847 420.781 329.611C420.781 329.334 420.82 329.074 420.897 328.832C420.974 328.59 421.089 328.377 421.241 328.193C421.392 328.007 421.58 327.862 421.804 327.758C422.03 327.654 422.291 327.602 422.586 327.602C422.919 327.602 423.202 327.669 423.437 327.802C423.671 327.935 423.861 328.113 424.008 328.337C424.157 328.56 424.266 328.812 424.335 329.091C424.404 329.371 424.439 329.658 424.439 329.954V330.221C424.439 330.522 424.419 330.828 424.379 331.14C424.342 331.449 424.269 331.744 424.159 332.026C424.053 332.309 423.897 332.561 423.692 332.785C423.487 333.006 423.22 333.182 422.89 333.312C422.562 333.44 422.158 333.504 421.676 333.504H421.6V332.877Z" fill="#383868"/>
<path d="M247.21 330.651V327.379H247.819V330.651C247.819 330.956 247.757 331.213 247.632 331.422C247.507 331.632 247.335 331.792 247.115 331.902C246.897 332.01 246.646 332.063 246.363 332.063C246.079 332.063 245.827 332.015 245.607 331.917C245.387 331.82 245.215 331.672 245.09 331.473C244.965 331.274 244.903 331.024 244.903 330.721H245.515C245.515 330.916 245.551 331.075 245.623 331.2C245.695 331.325 245.794 331.417 245.921 331.476C246.05 331.536 246.198 331.565 246.363 331.565C246.523 331.565 246.667 331.531 246.794 331.464C246.923 331.394 247.025 331.291 247.099 331.156C247.173 331.018 247.21 330.85 247.21 330.651ZM250.869 331.207V328.566H251.46V332H250.898L250.869 331.207ZM250.98 330.483L251.225 330.477C251.225 330.705 251.201 330.917 251.152 331.111C251.105 331.304 251.029 331.471 250.923 331.613C250.818 331.755 250.679 331.866 250.508 331.946C250.336 332.024 250.128 332.063 249.882 332.063C249.715 332.063 249.562 332.039 249.422 331.99C249.285 331.942 249.166 331.867 249.067 331.765C248.967 331.664 248.89 331.531 248.835 331.368C248.782 331.205 248.756 331.01 248.756 330.781V328.566H249.343V330.788C249.343 330.942 249.36 331.07 249.394 331.172C249.43 331.271 249.477 331.35 249.536 331.41C249.598 331.467 249.665 331.507 249.74 331.53C249.816 331.554 249.894 331.565 249.974 331.565C250.224 331.565 250.422 331.518 250.568 331.422C250.714 331.325 250.819 331.195 250.882 331.032C250.948 330.867 250.98 330.684 250.98 330.483ZM252.942 329.299V332H252.355V328.566H252.91L252.942 329.299ZM252.802 330.153L252.558 330.143C252.56 329.908 252.595 329.692 252.663 329.493C252.73 329.292 252.826 329.117 252.948 328.969C253.071 328.821 253.217 328.707 253.386 328.626C253.558 328.544 253.747 328.502 253.954 328.502C254.124 328.502 254.276 328.526 254.411 328.572C254.547 328.617 254.662 328.689 254.757 328.788C254.855 328.888 254.929 329.017 254.979 329.175C255.03 329.332 255.056 329.523 255.056 329.75V332H254.465V329.743C254.465 329.564 254.439 329.42 254.386 329.312C254.333 329.202 254.256 329.122 254.154 329.074C254.053 329.023 253.928 328.998 253.78 328.998C253.634 328.998 253.5 329.028 253.38 329.09C253.261 329.151 253.159 329.236 253.072 329.344C252.987 329.451 252.921 329.575 252.872 329.715C252.826 329.852 252.802 329.998 252.802 330.153Z" fill="#383868"/>
<path d="M221.74 108.895V114.74H221.001V109.817L219.512 110.36V109.693L221.624 108.895H221.74Z" fill="#383868"/>
<path d="M227.562 111.37V112.257C227.562 112.733 227.519 113.135 227.434 113.463C227.349 113.79 227.226 114.054 227.067 114.253C226.907 114.453 226.714 114.598 226.488 114.689C226.264 114.776 226.011 114.82 225.729 114.82C225.505 114.82 225.299 114.792 225.11 114.736C224.921 114.681 224.751 114.591 224.599 114.469C224.45 114.344 224.322 114.181 224.216 113.982C224.109 113.782 224.028 113.54 223.972 113.255C223.916 112.97 223.888 112.637 223.888 112.257V111.37C223.888 110.894 223.931 110.494 224.016 110.172C224.104 109.85 224.228 109.592 224.387 109.398C224.547 109.201 224.739 109.06 224.962 108.974C225.189 108.889 225.441 108.847 225.721 108.847C225.947 108.847 226.155 108.875 226.344 108.931C226.536 108.984 226.706 109.07 226.855 109.19C227.004 109.307 227.13 109.464 227.234 109.661C227.341 109.856 227.422 110.094 227.478 110.376C227.534 110.658 227.562 110.99 227.562 111.37ZM226.819 112.377V111.247C226.819 110.986 226.803 110.757 226.771 110.56C226.742 110.36 226.698 110.19 226.639 110.049C226.581 109.908 226.506 109.793 226.416 109.705C226.328 109.617 226.225 109.553 226.108 109.514C225.994 109.471 225.865 109.45 225.721 109.45C225.545 109.45 225.389 109.483 225.254 109.549C225.118 109.613 225.004 109.716 224.91 109.857C224.82 109.998 224.751 110.183 224.703 110.412C224.655 110.641 224.631 110.919 224.631 111.247V112.377C224.631 112.637 224.645 112.868 224.675 113.067C224.707 113.267 224.753 113.44 224.814 113.586C224.876 113.73 224.95 113.849 225.038 113.942C225.126 114.035 225.227 114.104 225.342 114.149C225.459 114.192 225.588 114.213 225.729 114.213C225.91 114.213 226.068 114.179 226.204 114.11C226.34 114.04 226.453 113.933 226.543 113.786C226.637 113.637 226.706 113.447 226.751 113.215C226.796 112.981 226.819 112.701 226.819 112.377Z" fill="#383868"/>
<path d="M232.162 111.37V112.257C232.162 112.733 232.119 113.135 232.034 113.463C231.949 113.79 231.826 114.054 231.667 114.253C231.507 114.453 231.314 114.598 231.088 114.689C230.864 114.776 230.611 114.82 230.329 114.82C230.105 114.82 229.899 114.792 229.71 114.736C229.521 114.681 229.351 114.591 229.199 114.469C229.05 114.344 228.922 114.181 228.816 113.982C228.709 113.782 228.628 113.54 228.572 113.255C228.516 112.97 228.488 112.637 228.488 112.257V111.37C228.488 110.894 228.531 110.494 228.616 110.172C228.704 109.85 228.828 109.592 228.987 109.398C229.147 109.201 229.339 109.06 229.562 108.974C229.789 108.889 230.041 108.847 230.321 108.847C230.547 108.847 230.755 108.875 230.944 108.931C231.136 108.984 231.306 109.07 231.455 109.19C231.604 109.307 231.73 109.464 231.834 109.661C231.941 109.856 232.022 110.094 232.078 110.376C232.134 110.658 232.162 110.99 232.162 111.37ZM231.419 112.377V111.247C231.419 110.986 231.403 110.757 231.371 110.56C231.342 110.36 231.298 110.19 231.239 110.049C231.181 109.908 231.106 109.793 231.016 109.705C230.928 109.617 230.825 109.553 230.708 109.514C230.594 109.471 230.465 109.45 230.321 109.45C230.145 109.45 229.989 109.483 229.854 109.549C229.718 109.613 229.604 109.716 229.51 109.857C229.42 109.998 229.351 110.183 229.303 110.412C229.255 110.641 229.231 110.919 229.231 111.247V112.377C229.231 112.637 229.245 112.868 229.275 113.067C229.307 113.267 229.353 113.44 229.414 113.586C229.476 113.73 229.55 113.849 229.638 113.942C229.726 114.035 229.827 114.104 229.942 114.149C230.059 114.192 230.188 114.213 230.329 114.213C230.51 114.213 230.668 114.179 230.804 114.11C230.94 114.04 231.053 113.933 231.143 113.786C231.237 113.637 231.306 113.447 231.351 113.215C231.396 112.981 231.419 112.701 231.419 112.377Z" fill="#383868"/>
<path d="M236.762 111.37V112.257C236.762 112.733 236.719 113.135 236.634 113.463C236.549 113.79 236.426 114.054 236.267 114.253C236.107 114.453 235.914 114.598 235.688 114.689C235.464 114.776 235.211 114.82 234.929 114.82C234.705 114.82 234.499 114.792 234.31 114.736C234.121 114.681 233.951 114.591 233.799 114.469C233.65 114.344 233.522 114.181 233.416 113.982C233.309 113.782 233.228 113.54 233.172 113.255C233.116 112.97 233.088 112.637 233.088 112.257V111.37C233.088 110.894 233.131 110.494 233.216 110.172C233.304 109.85 233.428 109.592 233.587 109.398C233.747 109.201 233.939 109.06 234.162 108.974C234.389 108.889 234.641 108.847 234.921 108.847C235.147 108.847 235.355 108.875 235.544 108.931C235.736 108.984 235.906 109.07 236.055 109.19C236.204 109.307 236.33 109.464 236.434 109.661C236.541 109.856 236.622 110.094 236.678 110.376C236.734 110.658 236.762 110.99 236.762 111.37ZM236.019 112.377V111.247C236.019 110.986 236.003 110.757 235.971 110.56C235.942 110.36 235.898 110.19 235.839 110.049C235.781 109.908 235.706 109.793 235.616 109.705C235.528 109.617 235.425 109.553 235.308 109.514C235.194 109.471 235.065 109.45 234.921 109.45C234.745 109.45 234.589 109.483 234.454 109.549C234.318 109.613 234.204 109.716 234.11 109.857C234.02 109.998 233.951 110.183 233.903 110.412C233.855 110.641 233.831 110.919 233.831 111.247V112.377C233.831 112.637 233.845 112.868 233.875 113.067C233.907 113.267 233.953 113.44 234.014 113.586C234.076 113.73 234.15 113.849 234.238 113.942C234.326 114.035 234.427 114.104 234.542 114.149C234.659 114.192 234.788 114.213 234.929 114.213C235.11 114.213 235.268 114.179 235.404 114.11C235.54 114.04 235.653 113.933 235.743 113.786C235.837 113.637 235.906 113.447 235.951 113.215C235.996 112.981 236.019 112.701 236.019 112.377Z" fill="#383868"/>
<path d="M224.404 148.773L223.813 148.621L224.105 145.726H227.088V146.409H224.732L224.556 147.99C224.662 147.929 224.797 147.872 224.959 147.819C225.124 147.765 225.313 147.739 225.526 147.739C225.795 147.739 226.036 147.785 226.249 147.879C226.462 147.969 226.643 148.1 226.792 148.27C226.944 148.44 227.06 148.645 227.139 148.885C227.219 149.124 227.259 149.392 227.259 149.687C227.259 149.967 227.221 150.224 227.143 150.458C227.069 150.692 226.956 150.897 226.804 151.073C226.652 151.246 226.461 151.381 226.229 151.476C226 151.572 225.73 151.62 225.418 151.62C225.184 151.62 224.962 151.588 224.752 151.524C224.544 151.458 224.358 151.358 224.193 151.225C224.03 151.089 223.897 150.921 223.793 150.722C223.692 150.519 223.628 150.282 223.602 150.011H224.304C224.336 150.229 224.4 150.413 224.496 150.562C224.592 150.711 224.717 150.824 224.871 150.901C225.028 150.976 225.211 151.013 225.418 151.013C225.594 151.013 225.75 150.983 225.886 150.921C226.021 150.86 226.136 150.772 226.229 150.658C226.322 150.543 226.393 150.405 226.441 150.242C226.491 150.08 226.516 149.898 226.516 149.695C226.516 149.512 226.491 149.341 226.441 149.184C226.39 149.027 226.314 148.89 226.213 148.773C226.115 148.656 225.993 148.565 225.85 148.502C225.706 148.435 225.541 148.402 225.355 148.402C225.107 148.402 224.919 148.435 224.791 148.502C224.666 148.568 224.537 148.659 224.404 148.773Z" fill="#383868"/>
<path d="M231.719 148.17V149.057C231.719 149.533 231.677 149.935 231.592 150.262C231.506 150.59 231.384 150.853 231.224 151.053C231.065 151.253 230.872 151.398 230.645 151.488C230.422 151.576 230.169 151.62 229.887 151.62C229.663 151.62 229.457 151.592 229.268 151.536C229.079 151.48 228.908 151.391 228.757 151.269C228.608 151.144 228.48 150.981 228.373 150.782C228.267 150.582 228.186 150.34 228.13 150.055C228.074 149.77 228.046 149.437 228.046 149.057V148.17C228.046 147.694 228.088 147.294 228.174 146.972C228.261 146.65 228.385 146.392 228.545 146.198C228.705 146.001 228.896 145.859 229.12 145.774C229.346 145.689 229.599 145.646 229.879 145.646C230.105 145.646 230.313 145.674 230.502 145.73C230.693 145.784 230.864 145.87 231.013 145.99C231.162 146.107 231.288 146.264 231.392 146.461C231.498 146.655 231.58 146.894 231.636 147.176C231.691 147.458 231.719 147.789 231.719 148.17ZM230.977 149.176V148.046C230.977 147.785 230.961 147.556 230.929 147.36C230.9 147.16 230.856 146.989 230.797 146.848C230.738 146.707 230.664 146.593 230.573 146.505C230.486 146.417 230.383 146.353 230.266 146.313C230.152 146.271 230.022 146.249 229.879 146.249C229.703 146.249 229.547 146.283 229.411 146.349C229.276 146.413 229.161 146.516 229.068 146.657C228.978 146.798 228.908 146.983 228.86 147.212C228.812 147.441 228.789 147.719 228.789 148.046V149.176C228.789 149.437 228.803 149.667 228.832 149.867C228.864 150.067 228.911 150.24 228.972 150.386C229.033 150.53 229.108 150.648 229.196 150.742C229.284 150.835 229.385 150.904 229.499 150.949C229.616 150.992 229.746 151.013 229.887 151.013C230.068 151.013 230.226 150.979 230.362 150.909C230.498 150.84 230.611 150.732 230.701 150.586C230.794 150.437 230.864 150.246 230.909 150.015C230.954 149.781 230.977 149.501 230.977 149.176Z" fill="#383868"/>
<path d="M236.319 148.17V149.057C236.319 149.533 236.277 149.935 236.192 150.262C236.106 150.59 235.984 150.853 235.824 151.053C235.665 151.253 235.472 151.398 235.245 151.488C235.022 151.576 234.769 151.62 234.487 151.62C234.263 151.62 234.057 151.592 233.868 151.536C233.679 151.48 233.508 151.391 233.357 151.269C233.208 151.144 233.08 150.981 232.973 150.782C232.867 150.582 232.786 150.34 232.73 150.055C232.674 149.77 232.646 149.437 232.646 149.057V148.17C232.646 147.694 232.688 147.294 232.774 146.972C232.861 146.65 232.985 146.392 233.145 146.198C233.305 146.001 233.496 145.859 233.72 145.774C233.946 145.689 234.199 145.646 234.479 145.646C234.705 145.646 234.913 145.674 235.102 145.73C235.293 145.784 235.464 145.87 235.613 145.99C235.762 146.107 235.888 146.264 235.992 146.461C236.098 146.655 236.18 146.894 236.236 147.176C236.291 147.458 236.319 147.789 236.319 148.17ZM235.577 149.176V148.046C235.577 147.785 235.561 147.556 235.529 147.36C235.5 147.16 235.456 146.989 235.397 146.848C235.338 146.707 235.264 146.593 235.173 146.505C235.086 146.417 234.983 146.353 234.866 146.313C234.752 146.271 234.622 146.249 234.479 146.249C234.303 146.249 234.147 146.283 234.011 146.349C233.876 146.413 233.761 146.516 233.668 146.657C233.578 146.798 233.508 146.983 233.46 147.212C233.413 147.441 233.389 147.719 233.389 148.046V149.176C233.389 149.437 233.403 149.667 233.432 149.867C233.464 150.067 233.511 150.24 233.572 150.386C233.633 150.53 233.708 150.648 233.796 150.742C233.884 150.835 233.985 150.904 234.099 150.949C234.216 150.992 234.346 151.013 234.487 151.013C234.668 151.013 234.826 150.979 234.962 150.909C235.098 150.84 235.211 150.732 235.301 150.586C235.394 150.437 235.464 150.246 235.509 150.015C235.554 149.781 235.577 149.501 235.577 149.176Z" fill="#383868"/>
<path d="M227.519 187.734V188.341H223.713V187.809L225.618 185.689C225.852 185.428 226.033 185.207 226.161 185.026C226.292 184.843 226.382 184.679 226.433 184.535C226.486 184.389 226.513 184.24 226.513 184.088C226.513 183.896 226.473 183.723 226.393 183.569C226.316 183.412 226.201 183.287 226.049 183.193C225.898 183.1 225.714 183.054 225.498 183.054C225.24 183.054 225.024 183.104 224.851 183.205C224.681 183.304 224.553 183.442 224.468 183.621C224.383 183.799 224.34 184.004 224.34 184.236H223.602C223.602 183.908 223.673 183.609 223.817 183.337C223.961 183.066 224.174 182.85 224.456 182.69C224.738 182.528 225.086 182.447 225.498 182.447C225.866 182.447 226.18 182.512 226.441 182.642C226.702 182.77 226.901 182.951 227.04 183.185C227.181 183.417 227.251 183.689 227.251 184C227.251 184.17 227.222 184.343 227.163 184.519C227.107 184.692 227.029 184.865 226.928 185.038C226.829 185.211 226.713 185.382 226.58 185.549C226.45 185.717 226.31 185.882 226.161 186.045L224.604 187.734H227.519Z" fill="#383868"/>
<path d="M231.959 184.97V185.857C231.959 186.333 231.916 186.735 231.831 187.063C231.746 187.39 231.624 187.654 231.464 187.853C231.304 188.053 231.111 188.198 230.885 188.289C230.661 188.376 230.408 188.42 230.126 188.42C229.903 188.42 229.696 188.392 229.507 188.337C229.318 188.281 229.148 188.191 228.996 188.069C228.847 187.944 228.719 187.781 228.613 187.582C228.506 187.382 228.425 187.14 228.369 186.855C228.313 186.57 228.285 186.238 228.285 185.857V184.97C228.285 184.494 228.328 184.095 228.413 183.772C228.501 183.45 228.625 183.192 228.785 182.998C228.944 182.801 229.136 182.66 229.36 182.575C229.586 182.489 229.839 182.447 230.118 182.447C230.345 182.447 230.552 182.475 230.741 182.531C230.933 182.584 231.103 182.67 231.252 182.79C231.401 182.907 231.528 183.064 231.632 183.261C231.738 183.456 231.819 183.694 231.875 183.976C231.931 184.258 231.959 184.59 231.959 184.97ZM231.216 185.977V184.847C231.216 184.586 231.2 184.357 231.168 184.16C231.139 183.96 231.095 183.79 231.037 183.649C230.978 183.508 230.904 183.393 230.813 183.305C230.725 183.217 230.623 183.154 230.506 183.114C230.391 183.071 230.262 183.05 230.118 183.05C229.943 183.05 229.787 183.083 229.651 183.15C229.515 183.213 229.401 183.316 229.308 183.457C229.217 183.598 229.148 183.783 229.1 184.012C229.052 184.241 229.028 184.519 229.028 184.847V185.977C229.028 186.238 229.043 186.468 229.072 186.667C229.104 186.867 229.151 187.04 229.212 187.187C229.273 187.33 229.348 187.449 229.435 187.542C229.523 187.635 229.624 187.704 229.739 187.75C229.856 187.792 229.985 187.813 230.126 187.813C230.307 187.813 230.466 187.779 230.601 187.71C230.737 187.64 230.85 187.533 230.941 187.386C231.034 187.237 231.103 187.047 231.148 186.815C231.194 186.581 231.216 186.301 231.216 185.977Z" fill="#383868"/>
<path d="M236.559 184.97V185.857C236.559 186.333 236.516 186.735 236.431 187.063C236.346 187.39 236.224 187.654 236.064 187.853C235.904 188.053 235.711 188.198 235.485 188.289C235.261 188.376 235.008 188.42 234.726 188.42C234.503 188.42 234.296 188.392 234.107 188.337C233.918 188.281 233.748 188.191 233.596 188.069C233.447 187.944 233.319 187.781 233.213 187.582C233.106 187.382 233.025 187.14 232.969 186.855C232.913 186.57 232.885 186.238 232.885 185.857V184.97C232.885 184.494 232.928 184.095 233.013 183.772C233.101 183.45 233.225 183.192 233.385 182.998C233.544 182.801 233.736 182.66 233.96 182.575C234.186 182.489 234.439 182.447 234.718 182.447C234.945 182.447 235.152 182.475 235.341 182.531C235.533 182.584 235.703 182.67 235.852 182.79C236.001 182.907 236.128 183.064 236.232 183.261C236.338 183.456 236.419 183.694 236.475 183.976C236.531 184.258 236.559 184.59 236.559 184.97ZM235.816 185.977V184.847C235.816 184.586 235.8 184.357 235.768 184.16C235.739 183.96 235.695 183.79 235.637 183.649C235.578 183.508 235.504 183.393 235.413 183.305C235.325 183.217 235.223 183.154 235.106 183.114C234.991 183.071 234.862 183.05 234.718 183.05C234.543 183.05 234.387 183.083 234.251 183.15C234.115 183.213 234.001 183.316 233.908 183.457C233.817 183.598 233.748 183.783 233.7 184.012C233.652 184.241 233.628 184.519 233.628 184.847V185.977C233.628 186.238 233.643 186.468 233.672 186.667C233.704 186.867 233.751 187.04 233.812 187.187C233.873 187.33 233.948 187.449 234.035 187.542C234.123 187.635 234.224 187.704 234.339 187.75C234.456 187.792 234.585 187.813 234.726 187.813C234.907 187.813 235.066 187.779 235.201 187.71C235.337 187.64 235.45 187.533 235.541 187.386C235.634 187.237 235.703 187.047 235.748 186.815C235.794 186.581 235.816 186.301 235.816 185.977Z" fill="#383868"/>
<path d="M225.83 219.294V225.14H225.091V220.217L223.602 220.76V220.093L225.714 219.294H225.83Z" fill="#383868"/>
<path d="M231.652 221.77V222.657C231.652 223.133 231.609 223.535 231.524 223.863C231.439 224.19 231.316 224.454 231.156 224.653C230.997 224.853 230.804 224.998 230.577 225.088C230.354 225.176 230.101 225.22 229.819 225.22C229.595 225.22 229.389 225.192 229.2 225.136C229.011 225.08 228.84 224.991 228.689 224.869C228.54 224.744 228.412 224.581 228.305 224.382C228.199 224.182 228.118 223.94 228.062 223.655C228.006 223.37 227.978 223.037 227.978 222.657V221.77C227.978 221.294 228.021 220.894 228.106 220.572C228.194 220.25 228.317 219.992 228.477 219.798C228.637 219.601 228.828 219.46 229.052 219.374C229.278 219.289 229.531 219.247 229.811 219.247C230.037 219.247 230.245 219.275 230.434 219.33C230.625 219.384 230.796 219.47 230.945 219.59C231.094 219.707 231.22 219.864 231.324 220.061C231.431 220.255 231.512 220.494 231.568 220.776C231.624 221.058 231.652 221.39 231.652 221.77ZM230.909 222.776V221.646C230.909 221.386 230.893 221.157 230.861 220.96C230.832 220.76 230.788 220.59 230.729 220.448C230.671 220.307 230.596 220.193 230.506 220.105C230.418 220.017 230.315 219.953 230.198 219.913C230.084 219.871 229.955 219.85 229.811 219.85C229.635 219.85 229.479 219.883 229.344 219.949C229.208 220.013 229.093 220.116 229 220.257C228.91 220.398 228.84 220.583 228.793 220.812C228.745 221.041 228.721 221.319 228.721 221.646V222.776C228.721 223.037 228.735 223.268 228.765 223.467C228.797 223.667 228.843 223.84 228.904 223.986C228.966 224.13 229.04 224.249 229.128 224.342C229.216 224.435 229.317 224.504 229.431 224.549C229.549 224.592 229.678 224.613 229.819 224.613C230 224.613 230.158 224.579 230.294 224.509C230.43 224.44 230.543 224.332 230.633 224.186C230.727 224.037 230.796 223.847 230.841 223.615C230.886 223.381 230.909 223.101 230.909 222.776Z" fill="#383868"/>
<path d="M236.252 221.77V222.657C236.252 223.133 236.209 223.535 236.124 223.863C236.039 224.19 235.916 224.454 235.756 224.653C235.597 224.853 235.404 224.998 235.177 225.088C234.954 225.176 234.701 225.22 234.419 225.22C234.195 225.22 233.989 225.192 233.8 225.136C233.611 225.08 233.44 224.991 233.289 224.869C233.14 224.744 233.012 224.581 232.905 224.382C232.799 224.182 232.718 223.94 232.662 223.655C232.606 223.37 232.578 223.037 232.578 222.657V221.77C232.578 221.294 232.621 220.894 232.706 220.572C232.794 220.25 232.917 219.992 233.077 219.798C233.237 219.601 233.428 219.46 233.652 219.374C233.878 219.289 234.131 219.247 234.411 219.247C234.637 219.247 234.845 219.275 235.034 219.33C235.225 219.384 235.396 219.47 235.545 219.59C235.694 219.707 235.82 219.864 235.924 220.061C236.031 220.255 236.112 220.494 236.168 220.776C236.224 221.058 236.252 221.39 236.252 221.77ZM235.509 222.776V221.646C235.509 221.386 235.493 221.157 235.461 220.96C235.432 220.76 235.388 220.59 235.329 220.448C235.271 220.307 235.196 220.193 235.106 220.105C235.018 220.017 234.915 219.953 234.798 219.913C234.684 219.871 234.555 219.85 234.411 219.85C234.235 219.85 234.079 219.883 233.944 219.949C233.808 220.013 233.693 220.116 233.6 220.257C233.51 220.398 233.44 220.583 233.393 220.812C233.345 221.041 233.321 221.319 233.321 221.646V222.776C233.321 223.037 233.335 223.268 233.365 223.467C233.397 223.667 233.443 223.84 233.504 223.986C233.566 224.13 233.64 224.249 233.728 224.342C233.816 224.435 233.917 224.504 234.031 224.549C234.149 224.592 234.278 224.613 234.419 224.613C234.6 224.613 234.758 224.579 234.894 224.509C235.03 224.44 235.143 224.332 235.233 224.186C235.327 224.037 235.396 223.847 235.441 223.615C235.486 223.381 235.509 223.101 235.509 222.776Z" fill="#383868"/>
<path d="M229.174 259.173L228.583 259.021L228.874 256.126H231.857V256.809H229.501L229.325 258.391C229.432 258.329 229.566 258.272 229.729 258.219C229.894 258.166 230.083 258.139 230.296 258.139C230.565 258.139 230.806 258.186 231.018 258.279C231.231 258.369 231.412 258.5 231.562 258.67C231.713 258.84 231.829 259.045 231.909 259.285C231.989 259.525 232.029 259.792 232.029 260.088C232.029 260.367 231.99 260.624 231.913 260.858C231.838 261.093 231.725 261.297 231.574 261.473C231.422 261.646 231.23 261.781 230.999 261.876C230.77 261.972 230.499 262.02 230.188 262.02C229.954 262.02 229.731 261.988 229.521 261.924C229.313 261.858 229.127 261.758 228.962 261.625C228.8 261.489 228.667 261.321 228.563 261.122C228.462 260.919 228.398 260.683 228.371 260.411H229.074C229.106 260.629 229.17 260.813 229.266 260.962C229.361 261.111 229.486 261.224 229.641 261.301C229.798 261.376 229.98 261.413 230.188 261.413C230.364 261.413 230.519 261.383 230.655 261.321C230.791 261.26 230.905 261.172 230.999 261.058C231.092 260.943 231.162 260.805 231.21 260.643C231.261 260.48 231.286 260.298 231.286 260.096C231.286 259.912 231.261 259.742 231.21 259.584C231.16 259.427 231.084 259.29 230.983 259.173C230.884 259.056 230.763 258.966 230.619 258.902C230.475 258.835 230.31 258.802 230.124 258.802C229.876 258.802 229.689 258.835 229.561 258.902C229.436 258.968 229.307 259.059 229.174 259.173Z" fill="#383868"/>
<path d="M236.489 258.57V259.457C236.489 259.933 236.446 260.335 236.361 260.663C236.276 260.99 236.154 261.254 235.994 261.453C235.834 261.653 235.641 261.798 235.415 261.888C235.191 261.976 234.938 262.02 234.656 262.02C234.433 262.02 234.226 261.992 234.037 261.936C233.848 261.88 233.678 261.791 233.526 261.669C233.377 261.544 233.249 261.381 233.143 261.182C233.036 260.982 232.955 260.74 232.899 260.455C232.843 260.17 232.815 259.837 232.815 259.457V258.57C232.815 258.094 232.858 257.694 232.943 257.372C233.031 257.05 233.155 256.792 233.314 256.598C233.474 256.401 233.666 256.26 233.889 256.174C234.116 256.089 234.369 256.047 234.648 256.047C234.874 256.047 235.082 256.075 235.271 256.13C235.463 256.184 235.633 256.27 235.782 256.39C235.931 256.507 236.058 256.664 236.162 256.861C236.268 257.056 236.349 257.294 236.405 257.576C236.461 257.858 236.489 258.19 236.489 258.57ZM235.746 259.576V258.446C235.746 258.186 235.73 257.957 235.698 257.76C235.669 257.56 235.625 257.39 235.567 257.249C235.508 257.107 235.433 256.993 235.343 256.905C235.255 256.817 235.153 256.753 235.036 256.713C234.921 256.671 234.792 256.65 234.648 256.65C234.472 256.65 234.317 256.683 234.181 256.749C234.045 256.813 233.931 256.916 233.838 257.057C233.747 257.198 233.678 257.383 233.63 257.612C233.582 257.841 233.558 258.119 233.558 258.446V259.576C233.558 259.837 233.573 260.068 233.602 260.267C233.634 260.467 233.681 260.64 233.742 260.786C233.803 260.93 233.878 261.049 233.965 261.142C234.053 261.235 234.154 261.304 234.269 261.349C234.386 261.392 234.515 261.413 234.656 261.413C234.837 261.413 234.996 261.379 235.131 261.309C235.267 261.24 235.38 261.132 235.471 260.986C235.564 260.837 235.633 260.647 235.678 260.415C235.724 260.181 235.746 259.901 235.746 259.576Z" fill="#383868"/>
<path d="M238.504 294.566V295.271C238.504 295.649 238.47 295.969 238.402 296.229C238.334 296.489 238.237 296.699 238.11 296.857C237.983 297.016 237.83 297.131 237.65 297.203C237.472 297.273 237.271 297.308 237.047 297.308C236.869 297.308 236.705 297.286 236.555 297.241C236.405 297.197 236.269 297.126 236.149 297.029C236.03 296.929 235.929 296.8 235.844 296.642C235.759 296.483 235.695 296.29 235.65 296.064C235.606 295.838 235.584 295.573 235.584 295.271V294.566C235.584 294.187 235.618 293.87 235.685 293.614C235.755 293.358 235.854 293.153 235.98 292.998C236.107 292.841 236.26 292.729 236.438 292.662C236.617 292.594 236.818 292.56 237.041 292.56C237.22 292.56 237.385 292.582 237.536 292.627C237.688 292.669 237.823 292.738 237.942 292.833C238.06 292.926 238.161 293.051 238.243 293.208C238.328 293.362 238.393 293.551 238.437 293.776C238.481 294 238.504 294.263 238.504 294.566ZM237.913 295.366V294.468C237.913 294.26 237.901 294.078 237.875 293.922C237.852 293.763 237.817 293.628 237.771 293.515C237.724 293.403 237.665 293.312 237.593 293.242C237.523 293.173 237.441 293.122 237.348 293.09C237.257 293.056 237.155 293.039 237.041 293.039C236.901 293.039 236.777 293.066 236.669 293.119C236.561 293.169 236.47 293.251 236.396 293.363C236.324 293.475 236.269 293.622 236.231 293.804C236.193 293.986 236.174 294.207 236.174 294.468V295.366C236.174 295.573 236.186 295.756 236.209 295.915C236.234 296.073 236.271 296.211 236.32 296.327C236.369 296.442 236.428 296.536 236.498 296.61C236.568 296.684 236.648 296.739 236.739 296.775C236.832 296.809 236.935 296.826 237.047 296.826C237.191 296.826 237.317 296.798 237.425 296.743C237.532 296.688 237.622 296.602 237.694 296.486C237.768 296.368 237.823 296.216 237.859 296.032C237.895 295.846 237.913 295.624 237.913 295.366Z" fill="#383868"/>
<path d="M204.529 404.029C238.402 404.029 265.862 376.57 265.862 342.696C265.862 308.823 238.402 281.363 204.529 281.363C170.655 281.363 143.195 308.823 143.195 342.696C143.195 376.57 170.655 404.029 204.529 404.029Z" fill="white"/>
<path fill-rule="evenodd" clip-rule="evenodd" d="M159.211 310.901C159.249 310.796 159.319 310.705 159.41 310.641C159.501 310.577 159.609 310.543 159.72 310.543C159.83 310.543 159.939 310.577 160.029 310.641C160.12 310.705 160.19 310.796 160.228 310.901V374.34C160.19 374.445 160.12 374.536 160.029 374.6C159.939 374.664 159.83 374.698 159.72 374.698C159.609 374.698 159.501 374.664 159.41 374.6C159.319 374.536 159.249 374.445 159.211 374.34V310.901ZM177.185 310.901C177.223 310.796 177.293 310.705 177.384 310.641C177.475 310.577 177.583 310.543 177.693 310.543C177.804 310.543 177.912 310.577 178.003 310.641C178.094 310.705 178.164 310.796 178.202 310.901V374.34C178.164 374.445 178.094 374.536 178.003 374.6C177.912 374.664 177.804 374.698 177.693 374.698C177.583 374.698 177.475 374.664 177.384 374.6C177.293 374.536 177.223 374.445 177.185 374.34V310.901ZM195.158 310.901C195.197 310.796 195.266 310.705 195.357 310.641C195.448 310.577 195.556 310.543 195.667 310.543C195.778 310.543 195.886 310.577 195.977 310.641C196.068 310.705 196.137 310.796 196.176 310.901V374.34C196.137 374.445 196.068 374.536 195.977 374.6C195.886 374.664 195.778 374.698 195.667 374.698C195.556 374.698 195.448 374.664 195.357 374.6C195.266 374.536 195.197 374.445 195.158 374.34V310.901ZM213.132 310.901C213.171 310.796 213.24 310.705 213.331 310.641C213.422 310.577 213.53 310.543 213.641 310.543C213.752 310.543 213.86 310.577 213.951 310.641C214.042 310.705 214.111 310.796 214.15 310.901V374.34C214.111 374.445 214.042 374.536 213.951 374.6C213.86 374.664 213.752 374.698 213.641 374.698C213.53 374.698 213.422 374.664 213.331 374.6C213.24 374.536 213.171 374.445 213.132 374.34V310.901ZM231.106 310.901C231.145 310.796 231.214 310.705 231.305 310.641C231.396 310.577 231.504 310.543 231.615 310.543C231.725 310.543 231.834 310.577 231.924 310.641C232.015 310.705 232.085 310.796 232.123 310.901V374.34C232.085 374.445 232.015 374.536 231.924 374.6C231.834 374.664 231.725 374.698 231.615 374.698C231.504 374.698 231.396 374.664 231.305 374.6C231.214 374.536 231.145 374.445 231.106 374.34V310.901ZM249.08 310.901C249.118 310.796 249.188 310.705 249.279 310.641C249.37 310.577 249.478 310.543 249.588 310.543C249.699 310.543 249.807 310.577 249.898 310.641C249.989 310.705 250.059 310.796 250.097 310.901V374.34C250.059 374.445 249.989 374.536 249.898 374.6C249.807 374.664 249.699 374.698 249.588 374.698C249.478 374.698 249.37 374.664 249.279 374.6C249.188 374.536 249.118 374.445 249.08 374.34V310.901Z" fill="#F9F9F9"/>
<path d="M162.77 327.473L171.091 339.204C171.459 339.72 171.923 340.156 172.457 340.488C172.99 340.82 173.583 341.041 174.2 341.138C174.817 341.235 175.446 341.207 176.053 341.054C176.659 340.902 177.23 340.628 177.733 340.25L182.733 336.514C183.593 335.855 184.647 335.514 185.721 335.548C186.795 335.582 187.826 335.989 188.645 336.7L194.594 341.931C195.281 342.526 196.12 342.909 197.011 343.035C197.903 343.16 198.812 343.024 199.63 342.641L205.032 340.138C206.102 339.641 207.314 339.569 208.433 339.935C209.552 340.301 210.499 341.078 211.09 342.118L214.046 347.348C214.47 348.088 215.078 348.7 215.808 349.122C216.538 349.543 217.364 349.759 218.202 349.748C219.04 349.737 219.86 349.498 220.579 349.057C221.298 348.616 221.89 347.987 222.294 347.236L225.141 342.006C226.966 338.643 231.71 338.718 233.462 342.118L234.411 343.911C234.763 344.574 235.261 345.144 235.866 345.576C236.471 346.008 237.166 346.289 237.896 346.398C238.626 346.507 239.37 346.44 240.07 346.203C240.77 345.966 241.407 345.565 241.929 345.032L246.527 340.362" stroke="#6734FB" stroke-width="9.5" stroke-linecap="round"/>
<path d="M304.024 173.689C304.024 169.173 300.362 165.511 295.846 165.511C291.329 165.511 287.668 169.173 287.668 173.689V302.489C287.668 307.005 291.329 310.667 295.846 310.667C300.362 310.667 304.024 307.005 304.024 302.489V173.689Z" fill="#65C358"/>
<path d="M334.688 116.445C334.688 111.928 331.026 108.267 326.51 108.267C321.993 108.267 318.332 111.928 318.332 116.445V302.489C318.332 307.006 321.993 310.667 326.51 310.667C331.026 310.667 334.688 307.006 334.688 302.489V116.445Z" fill="#65C358"/>
<path d="M367.399 304.533C367.399 300.017 363.737 296.355 359.221 296.355C354.704 296.355 351.043 300.017 351.043 304.533C351.043 309.05 354.704 312.711 359.221 312.711C363.737 312.711 367.399 309.05 367.399 304.533Z" fill="#65C358"/>
<path d="M398.07 161.422C398.07 156.906 394.409 153.245 389.893 153.245C385.376 153.245 381.715 156.906 381.715 161.422V304.534C381.715 309.05 385.376 312.711 389.893 312.711C394.409 312.711 398.07 309.05 398.07 304.534V161.422Z" fill="#65C358"/>
<path d="M428.734 198.222C428.734 193.706 425.073 190.044 420.557 190.044C416.04 190.044 412.379 193.706 412.379 198.222V302.489C412.379 307.005 416.04 310.667 420.557 310.667C425.073 310.667 428.734 307.005 428.734 302.489V198.222Z" fill="#65C358"/>
<defs>
<filter id="filter0_d_1498_4987" x="169.668" y="8.6665" width="353.957" height="409.156" filterUnits="userSpaceOnUse" color-interpolation-filters="sRGB">
<feFlood flood-opacity="0" result="BackgroundImageFix"/>
<feColorMatrix in="SourceAlpha" type="matrix" values="0 0 0 0 0 0 0 0 0 0 0 0 0 0 0 0 0 0 127 0" result="hardAlpha"/>
<feOffset dx="14" dy="14"/>
<feGaussianBlur stdDeviation="20"/>
<feColorMatrix type="matrix" values="0 0 0 0 0.160784 0 0 0 0 0.188235 0 0 0 0 0.313726 0 0 0 0.134151 0"/>
<feBlend mode="normal" in2="BackgroundImageFix" result="effect1_dropShadow_1498_4987"/>
<feBlend mode="normal" in="SourceGraphic" in2="effect1_dropShadow_1498_4987" result="shape"/>
</filter>
<filter id="filter1_d_1498_4987" x="382.285" y="0.444336" width="202.668" height="202.667" filterUnits="userSpaceOnUse" color-interpolation-filters="sRGB">
<feFlood flood-opacity="0" result="BackgroundImageFix"/>
<feColorMatrix in="SourceAlpha" type="matrix" values="0 0 0 0 0 0 0 0 0 0 0 0 0 0 0 0 0 0 127 0" result="hardAlpha"/>
<feOffset dx="14" dy="16"/>
<feGaussianBlur stdDeviation="20"/>
<feColorMatrix type="matrix" values="0 0 0 0 0.160784 0 0 0 0 0.188235 0 0 0 0 0.313726 0 0 0 0.134151 0"/>
<feBlend mode="normal" in2="BackgroundImageFix" result="effect1_dropShadow_1498_4987"/>
<feBlend mode="normal" in="SourceGraphic" in2="effect1_dropShadow_1498_4987" result="shape"/>
</filter>
</defs>
</svg>
