<svg width="656" height="419" viewBox="0 0 656 419" fill="none" xmlns="http://www.w3.org/2000/svg">
<g clip-path="url(#clip0_1498_5436)">
<path d="M404.689 63.4767C430.288 17.4202 485.464 -9.41024 529.216 37.6864C572.971 84.783 600.125 85.3375 614.48 110.573C628.836 135.808 623.084 184.007 562.703 231.625C502.322 279.244 478.144 231.057 406.932 204.765C335.72 178.475 379.089 109.533 404.689 63.4767Z" fill="#F2F5FF"/>
<path d="M589.633 164.235H399.7C377.222 164.235 359 182.459 359 204.939V342.881C359 365.361 377.222 383.585 399.7 383.585H589.633C612.111 383.585 630.333 365.361 630.333 342.881V204.939C630.333 182.459 612.111 164.235 589.633 164.235Z" fill="#1A4BFA"/>
<path opacity="0.324" d="M425.701 254.689C441.311 254.689 453.965 242.033 453.965 226.422C453.965 210.811 441.311 198.155 425.701 198.155C410.092 198.155 397.438 210.811 397.438 226.422C397.438 242.033 410.092 254.689 425.701 254.689Z" fill="white"/>
<path opacity="0.324" d="M425.701 342.881C441.311 342.881 453.965 330.226 453.965 314.614C453.965 299.003 441.311 286.348 425.701 286.348C410.092 286.348 397.438 299.003 397.438 314.614C397.438 330.226 410.092 342.881 425.701 342.881Z" fill="white"/>
<path opacity="0.221" d="M543.283 198.155H475.45C472.328 198.155 469.797 200.686 469.797 203.809C469.797 206.931 472.328 209.462 475.45 209.462H543.283C546.405 209.462 548.936 206.931 548.936 203.809C548.936 200.686 546.405 198.155 543.283 198.155Z" fill="white"/>
<path opacity="0.221" d="M574.939 286.348H475.45C472.328 286.348 469.797 288.879 469.797 292.001C469.797 295.123 472.328 297.654 475.45 297.654H574.939C578.06 297.654 580.591 295.123 580.591 292.001C580.591 288.879 578.06 286.348 574.939 286.348Z" fill="white"/>
<path opacity="0.221" d="M531.977 220.769H475.45C472.328 220.769 469.797 223.3 469.797 226.422C469.797 229.545 472.328 232.076 475.45 232.076H531.977C535.099 232.076 537.63 229.545 537.63 226.422C537.63 223.3 535.099 220.769 531.977 220.769Z" fill="white"/>
<path opacity="0.221" d="M554.589 308.961H475.45C472.328 308.961 469.797 311.492 469.797 314.614C469.797 317.737 472.328 320.268 475.45 320.268H554.589C557.71 320.268 560.241 317.737 560.241 314.614C560.241 311.492 557.71 308.961 554.589 308.961Z" fill="white"/>
<g filter="url(#filter0_d_1498_5436)">
<path d="M478.84 256.95L473.524 259.745L474.539 253.825L470.238 249.633L476.18 248.769L478.84 243.382L481.499 248.769L487.441 249.633L483.14 253.825L484.158 259.745L478.84 256.95Z" fill="black"/>
</g>
<path d="M478.84 256.95L473.524 259.745L474.539 253.825L470.238 249.633L476.18 248.769L478.84 243.382L481.499 248.769L487.441 249.633L483.14 253.825L484.158 259.745L478.84 256.95Z" fill="white"/>
<g filter="url(#filter1_d_1498_5436)">
<path d="M478.84 345.142L473.524 347.937L474.539 342.017L470.238 337.825L476.18 336.961L478.84 331.574L481.499 336.961L487.441 337.825L483.14 342.017L484.158 347.937L478.84 345.142Z" fill="black"/>
</g>
<path d="M478.84 345.142L473.524 347.937L474.539 342.017L470.238 337.825L476.18 336.961L478.84 331.574L481.499 336.961L487.441 337.825L483.14 342.017L484.158 347.937L478.84 345.142Z" fill="white"/>
<g filter="url(#filter2_d_1498_5436)">
<path d="M499.191 256.95L493.875 259.745L494.89 253.825L490.59 249.633L496.532 248.769L499.191 243.382L501.85 248.769L507.792 249.633L503.492 253.825L504.509 259.745L499.191 256.95Z" fill="black"/>
</g>
<path d="M499.191 256.95L493.875 259.745L494.89 253.825L490.59 249.633L496.532 248.769L499.191 243.382L501.85 248.769L507.792 249.633L503.492 253.825L504.509 259.745L499.191 256.95Z" fill="white"/>
<g filter="url(#filter3_d_1498_5436)">
<path d="M499.191 345.142L493.875 347.937L494.89 342.017L490.59 337.825L496.532 336.961L499.191 331.574L501.85 336.961L507.792 337.825L503.492 342.017L504.509 347.937L499.191 345.142Z" fill="black"/>
</g>
<path d="M499.191 345.142L493.875 347.937L494.89 342.017L490.59 337.825L496.532 336.961L499.191 331.574L501.85 336.961L507.792 337.825L503.492 342.017L504.509 347.937L499.191 345.142Z" fill="white"/>
<g filter="url(#filter4_d_1498_5436)">
<path d="M519.539 256.95L514.223 259.745L515.238 253.825L510.938 249.633L516.88 248.769L519.539 243.382L522.198 248.769L528.14 249.633L523.839 253.825L524.857 259.745L519.539 256.95Z" fill="black"/>
</g>
<path d="M519.539 256.95L514.223 259.745L515.238 253.825L510.938 249.633L516.88 248.769L519.539 243.382L522.198 248.769L528.14 249.633L523.839 253.825L524.857 259.745L519.539 256.95Z" fill="white"/>
<g filter="url(#filter5_d_1498_5436)">
<path d="M519.539 345.142L514.223 347.937L515.238 342.017L510.938 337.825L516.88 336.961L519.539 331.574L522.198 336.961L528.14 337.825L523.839 342.017L524.857 347.937L519.539 345.142Z" fill="black"/>
</g>
<path d="M519.539 345.142L514.223 347.937L515.238 342.017L510.938 337.825L516.88 336.961L519.539 331.574L522.198 336.961L528.14 337.825L523.839 342.017L524.857 347.937L519.539 345.142Z" fill="white"/>
<g filter="url(#filter6_d_1498_5436)">
<path d="M539.89 256.95L534.574 259.745L535.59 253.825L531.289 249.633L537.231 248.769L539.89 243.382L542.549 248.769L548.492 249.633L544.191 253.825L545.208 259.745L539.89 256.95Z" fill="black"/>
</g>
<path d="M539.89 256.95L534.574 259.745L535.59 253.825L531.289 249.633L537.231 248.769L539.89 243.382L542.549 248.769L548.492 249.633L544.191 253.825L545.208 259.745L539.89 256.95Z" fill="white"/>
<g opacity="0.255">
<g filter="url(#filter7_d_1498_5436)">
<path d="M539.89 345.142L534.574 347.937L535.59 342.017L531.289 337.825L537.231 336.961L539.89 331.574L542.549 336.961L548.492 337.825L544.191 342.017L545.208 347.937L539.89 345.142Z" fill="black"/>
</g>
<path d="M539.89 345.142L534.574 347.937L535.59 342.017L531.289 337.825L537.231 336.961L539.89 331.574L542.549 336.961L548.492 337.825L544.191 342.017L545.208 347.937L539.89 345.142Z" fill="white"/>
</g>
<path opacity="0.255" d="M560.242 256.95L554.926 259.745L555.941 253.825L551.641 249.633L557.583 248.769L560.242 243.382L562.901 248.769L568.843 249.633L564.543 253.825L565.56 259.745L560.242 256.95ZM560.242 345.143L554.926 347.938L555.941 342.017L551.641 337.825L557.583 336.961L560.242 331.575L562.901 336.961L568.843 337.825L564.543 342.017L565.56 347.938L560.242 345.143Z" fill="white"/>
<g filter="url(#filter8_d_1498_5436)">
<path d="M399.705 35.3389H74.1054C57.8713 35.3389 44.7109 48.5005 44.7109 64.7363V284.086C44.7109 300.322 57.8713 313.483 74.1054 313.483H399.705C415.94 313.483 429.1 300.322 429.1 284.086V64.7363C429.1 48.5005 415.94 35.3389 399.705 35.3389Z" fill="black"/>
</g>
<path d="M399.705 35.3389H74.1054C57.8713 35.3389 44.7109 48.5005 44.7109 64.7363V284.086C44.7109 300.322 57.8713 313.483 74.1054 313.483H399.705C415.94 313.483 429.1 300.322 429.1 284.086V64.7363C429.1 48.5005 415.94 35.3389 399.705 35.3389Z" fill="white"/>
<path d="M124.983 137.099C140.592 137.099 153.247 124.444 153.247 108.833C153.247 93.2214 140.592 80.5659 124.983 80.5659C109.373 80.5659 96.7188 93.2214 96.7188 108.833C96.7188 124.444 109.373 137.099 124.983 137.099Z" fill="#F1F1FB"/>
<path d="M274.212 80.5659H174.723C171.601 80.5659 169.07 83.097 169.07 86.2193C169.07 89.3415 171.601 91.8726 174.723 91.8726H274.212C277.334 91.8726 279.865 89.3415 279.865 86.2193C279.865 83.097 277.334 80.5659 274.212 80.5659Z" fill="#F1F1FB"/>
<path d="M374.831 80.5659H320.565C316.818 80.5659 313.781 83.6032 313.781 87.3499V94.1339C313.781 97.8807 316.818 100.918 320.565 100.918H374.831C378.578 100.918 381.615 97.8807 381.615 94.1339V87.3499C381.615 83.6032 378.578 80.5659 374.831 80.5659Z" fill="#6734FB"/>
<path d="M231.251 103.179H174.723C171.601 103.179 169.07 105.71 169.07 108.833C169.07 111.955 171.601 114.486 174.723 114.486H231.251C234.373 114.486 236.904 111.955 236.904 108.833C236.904 105.71 234.373 103.179 231.251 103.179Z" fill="#F1F1FB"/>
<g filter="url(#filter9_d_1498_5436)">
<path d="M178.117 139.361L172.801 142.156L173.816 136.235L169.516 132.043L175.458 131.179L178.117 125.792L180.776 131.179L186.718 132.043L182.418 136.235L183.435 142.156L178.117 139.361Z" fill="black"/>
</g>
<path d="M178.117 139.361L172.801 142.156L173.816 136.235L169.516 132.043L175.458 131.179L178.117 125.792L180.776 131.179L186.718 132.043L182.418 136.235L183.435 142.156L178.117 139.361Z" fill="#FFC95C"/>
<g filter="url(#filter10_d_1498_5436)">
<path d="M198.468 139.361L193.153 142.156L194.168 136.235L189.867 132.043L195.809 131.179L198.468 125.792L201.128 131.179L207.07 132.043L202.769 136.235L203.787 142.156L198.468 139.361Z" fill="black"/>
</g>
<path d="M198.468 139.361L193.153 142.156L194.168 136.235L189.867 132.043L195.809 131.179L198.468 125.792L201.128 131.179L207.07 132.043L202.769 136.235L203.787 142.156L198.468 139.361Z" fill="#FFC95C"/>
<g filter="url(#filter11_d_1498_5436)">
<path d="M218.816 139.361L213.5 142.156L214.515 136.235L210.215 132.043L216.157 131.179L218.816 125.792L221.475 131.179L227.417 132.043L223.117 136.235L224.134 142.156L218.816 139.361Z" fill="black"/>
</g>
<path d="M218.816 139.361L213.5 142.156L214.515 136.235L210.215 132.043L216.157 131.179L218.816 125.792L221.475 131.179L227.417 132.043L223.117 136.235L224.134 142.156L218.816 139.361Z" fill="#FFC95C"/>
<g filter="url(#filter12_d_1498_5436)">
<path d="M239.164 139.361L233.848 142.156L234.863 136.235L230.562 132.043L236.505 131.179L239.164 125.792L241.823 131.179L247.765 132.043L243.464 136.235L244.482 142.156L239.164 139.361Z" fill="black"/>
</g>
<path d="M239.164 139.361L233.848 142.156L234.863 136.235L230.562 132.043L236.505 131.179L239.164 125.792L241.823 131.179L247.765 132.043L243.464 136.235L244.482 142.156L239.164 139.361Z" fill="#FFC95C"/>
<path d="M259.515 139.361L254.199 142.156L255.215 136.235L250.914 132.043L256.856 131.179L259.515 125.792L262.174 131.179L268.117 132.043L263.816 136.235L264.833 142.156L259.515 139.361Z" fill="#F1F1FB"/>
<path d="M161.158 227.553C169.275 227.553 175.855 220.972 175.855 212.854C175.855 204.736 169.275 198.155 161.158 198.155C153.041 198.155 146.461 204.736 146.461 212.854C146.461 220.972 153.041 227.553 161.158 227.553Z" fill="white"/>
<path d="M359.005 220.769C365.249 220.769 370.31 215.706 370.31 209.462C370.31 203.217 365.249 198.155 359.005 198.155C352.761 198.155 347.699 203.217 347.699 209.462C347.699 215.706 352.761 220.769 359.005 220.769Z" fill="white"/>
<path d="M196.541 191H145.459C140.235 191 136 195.253 136 200.5C136 205.747 140.235 210 145.459 210H196.541C201.765 210 206 205.747 206 200.5C206 195.253 201.765 191 196.541 191Z" fill="#F1F1FB"/>
<path d="M118 200.5C118 195.253 113.747 191 108.5 191C103.253 191 99 195.253 99 200.5C99 205.747 103.253 210 108.5 210C113.747 210 118 205.747 118 200.5Z" fill="#F1F1FB"/>
<path d="M229.614 222H141.386C136.202 222 132 226.179 132 231.333V240.667C132 245.821 136.202 250 141.386 250H229.614C234.798 250 239 245.821 239 240.667V231.333C239 226.179 234.798 222 229.614 222Z" fill="#65C358" stroke="white" stroke-width="5"/>
<path d="M120 236C120 229.925 114.851 225 108.5 225C102.149 225 97 229.925 97 236C97 242.075 102.149 247 108.5 247C114.851 247 120 242.075 120 236Z" fill="#65C358"/>
<path d="M105 236.618L106.876 238.47C107.22 238.81 107.676 239 108.15 239C108.623 239 109.079 238.81 109.424 238.47L118 230" stroke="white" stroke-width="2" stroke-linecap="round"/>
<path d="M192.571 262H145.429C140.221 262 136 266.253 136 271.5C136 276.747 140.221 281 145.429 281H192.571C197.779 281 202 276.747 202 271.5C202 266.253 197.779 262 192.571 262Z" fill="#F1F1FB"/>
<path d="M118 271.5C118 266.253 113.747 262 108.5 262C103.253 262 99 266.253 99 271.5C99 276.747 103.253 281 108.5 281C113.747 281 118 276.747 118 271.5Z" fill="#F1F1FB"/>
<path fill-rule="evenodd" clip-rule="evenodd" d="M266 191.522C266.057 191.369 266.159 191.236 266.293 191.143C266.427 191.05 266.587 191 266.75 191C266.913 191 267.073 191.05 267.207 191.143C267.341 191.236 267.443 191.369 267.5 191.522V284.022C267.443 284.175 267.341 284.307 267.207 284.4C267.073 284.493 266.913 284.543 266.75 284.543C266.587 284.543 266.427 284.493 266.293 284.4C266.159 284.307 266.057 284.175 266 284.022V191.522ZM292.5 191.522C292.557 191.369 292.659 191.236 292.793 191.143C292.927 191.05 293.087 191 293.25 191C293.413 191 293.573 191.05 293.707 191.143C293.841 191.236 293.943 191.369 294 191.522V284.022C293.943 284.175 293.841 284.307 293.707 284.4C293.573 284.493 293.413 284.543 293.25 284.543C293.087 284.543 292.927 284.493 292.793 284.4C292.659 284.307 292.557 284.175 292.5 284.022V191.522ZM319 191.522C319.057 191.369 319.159 191.236 319.293 191.143C319.427 191.05 319.587 191 319.75 191C319.913 191 320.073 191.05 320.207 191.143C320.341 191.236 320.443 191.369 320.5 191.522V284.022C320.443 284.175 320.341 284.307 320.207 284.4C320.073 284.493 319.913 284.543 319.75 284.543C319.587 284.543 319.427 284.493 319.293 284.4C319.159 284.307 319.057 284.175 319 284.022V191.522ZM345.5 191.522C345.557 191.369 345.659 191.236 345.793 191.143C345.927 191.05 346.087 191 346.25 191C346.413 191 346.573 191.05 346.707 191.143C346.841 191.236 346.943 191.369 347 191.522V284.022C346.943 284.175 346.841 284.307 346.707 284.4C346.573 284.493 346.413 284.543 346.25 284.543C346.087 284.543 345.927 284.493 345.793 284.4C345.659 284.307 345.557 284.175 345.5 284.022V191.522ZM372 191.522C372.057 191.369 372.159 191.236 372.293 191.143C372.427 191.05 372.587 191 372.75 191C372.913 191 373.073 191.05 373.207 191.143C373.341 191.236 373.443 191.369 373.5 191.522V284.022C373.443 284.175 373.341 284.307 373.207 284.4C373.073 284.493 372.913 284.543 372.75 284.543C372.587 284.543 372.427 284.493 372.293 284.4C372.159 284.307 372.057 284.175 372 284.022V191.522ZM398.5 191.522C398.557 191.369 398.659 191.236 398.793 191.143C398.927 191.05 399.087 191 399.25 191C399.413 191 399.573 191.05 399.707 191.143C399.841 191.236 399.943 191.369 400 191.522V284.022C399.943 284.175 399.841 284.307 399.707 284.4C399.573 284.493 399.413 284.543 399.25 284.543C399.087 284.543 398.927 284.493 398.793 284.4C398.659 284.307 398.557 284.175 398.5 284.022V191.522Z" fill="#F9F9F9"/>
<path d="M272 248L284.22 231.148C284.761 230.407 285.442 229.78 286.226 229.303C287.009 228.826 287.879 228.509 288.785 228.369C289.691 228.23 290.616 228.27 291.507 228.489C292.397 228.708 293.235 229.101 293.974 229.645L301.316 235.012C302.58 235.959 304.127 236.448 305.704 236.399C307.282 236.35 308.796 235.767 309.999 234.744L318.735 227.23C319.744 226.375 320.975 225.825 322.285 225.645C323.594 225.464 324.928 225.66 326.131 226.21L334.063 229.806C335.634 230.519 337.414 230.623 339.057 230.098C340.701 229.572 342.091 228.455 342.959 226.962L347.301 219.448C347.923 218.385 348.816 217.506 349.888 216.9C350.96 216.295 352.173 215.984 353.404 216.001C354.634 216.017 355.839 216.36 356.894 216.993C357.95 217.627 358.819 218.53 359.413 219.609L363.593 227.123C366.273 231.953 373.241 231.846 375.813 226.962L377.207 224.386C377.724 223.433 378.455 222.614 379.344 221.994C380.232 221.374 381.253 220.969 382.324 220.813C383.396 220.657 384.489 220.753 385.517 221.093C386.545 221.434 387.48 222.01 388.247 222.776L395 229.484" stroke="#1A4BFA" stroke-width="9.5" stroke-linecap="round"/>
</g>
<defs>
<filter id="filter0_d_1498_5436" x="444.238" y="219.382" width="97.2031" height="96.3633" filterUnits="userSpaceOnUse" color-interpolation-filters="sRGB">
<feFlood flood-opacity="0" result="BackgroundImageFix"/>
<feColorMatrix in="SourceAlpha" type="matrix" values="0 0 0 0 0 0 0 0 0 0 0 0 0 0 0 0 0 0 127 0" result="hardAlpha"/>
<feOffset dx="14" dy="16"/>
<feGaussianBlur stdDeviation="20"/>
<feColorMatrix type="matrix" values="0 0 0 0 0.160784 0 0 0 0 0.188235 0 0 0 0 0.313726 0 0 0 0.134151 0"/>
<feBlend mode="normal" in2="BackgroundImageFix" result="effect1_dropShadow_1498_5436"/>
<feBlend mode="normal" in="SourceGraphic" in2="effect1_dropShadow_1498_5436" result="shape"/>
</filter>
<filter id="filter1_d_1498_5436" x="444.238" y="307.574" width="97.2031" height="96.3633" filterUnits="userSpaceOnUse" color-interpolation-filters="sRGB">
<feFlood flood-opacity="0" result="BackgroundImageFix"/>
<feColorMatrix in="SourceAlpha" type="matrix" values="0 0 0 0 0 0 0 0 0 0 0 0 0 0 0 0 0 0 127 0" result="hardAlpha"/>
<feOffset dx="14" dy="16"/>
<feGaussianBlur stdDeviation="20"/>
<feColorMatrix type="matrix" values="0 0 0 0 0.160784 0 0 0 0 0.188235 0 0 0 0 0.313726 0 0 0 0.134151 0"/>
<feBlend mode="normal" in2="BackgroundImageFix" result="effect1_dropShadow_1498_5436"/>
<feBlend mode="normal" in="SourceGraphic" in2="effect1_dropShadow_1498_5436" result="shape"/>
</filter>
<filter id="filter2_d_1498_5436" x="464.59" y="219.382" width="97.2031" height="96.3633" filterUnits="userSpaceOnUse" color-interpolation-filters="sRGB">
<feFlood flood-opacity="0" result="BackgroundImageFix"/>
<feColorMatrix in="SourceAlpha" type="matrix" values="0 0 0 0 0 0 0 0 0 0 0 0 0 0 0 0 0 0 127 0" result="hardAlpha"/>
<feOffset dx="14" dy="16"/>
<feGaussianBlur stdDeviation="20"/>
<feColorMatrix type="matrix" values="0 0 0 0 0.160784 0 0 0 0 0.188235 0 0 0 0 0.313726 0 0 0 0.134151 0"/>
<feBlend mode="normal" in2="BackgroundImageFix" result="effect1_dropShadow_1498_5436"/>
<feBlend mode="normal" in="SourceGraphic" in2="effect1_dropShadow_1498_5436" result="shape"/>
</filter>
<filter id="filter3_d_1498_5436" x="464.59" y="307.574" width="97.2031" height="96.3633" filterUnits="userSpaceOnUse" color-interpolation-filters="sRGB">
<feFlood flood-opacity="0" result="BackgroundImageFix"/>
<feColorMatrix in="SourceAlpha" type="matrix" values="0 0 0 0 0 0 0 0 0 0 0 0 0 0 0 0 0 0 127 0" result="hardAlpha"/>
<feOffset dx="14" dy="16"/>
<feGaussianBlur stdDeviation="20"/>
<feColorMatrix type="matrix" values="0 0 0 0 0.160784 0 0 0 0 0.188235 0 0 0 0 0.313726 0 0 0 0.134151 0"/>
<feBlend mode="normal" in2="BackgroundImageFix" result="effect1_dropShadow_1498_5436"/>
<feBlend mode="normal" in="SourceGraphic" in2="effect1_dropShadow_1498_5436" result="shape"/>
</filter>
<filter id="filter4_d_1498_5436" x="484.938" y="219.382" width="97.2031" height="96.3633" filterUnits="userSpaceOnUse" color-interpolation-filters="sRGB">
<feFlood flood-opacity="0" result="BackgroundImageFix"/>
<feColorMatrix in="SourceAlpha" type="matrix" values="0 0 0 0 0 0 0 0 0 0 0 0 0 0 0 0 0 0 127 0" result="hardAlpha"/>
<feOffset dx="14" dy="16"/>
<feGaussianBlur stdDeviation="20"/>
<feColorMatrix type="matrix" values="0 0 0 0 0.160784 0 0 0 0 0.188235 0 0 0 0 0.313726 0 0 0 0.134151 0"/>
<feBlend mode="normal" in2="BackgroundImageFix" result="effect1_dropShadow_1498_5436"/>
<feBlend mode="normal" in="SourceGraphic" in2="effect1_dropShadow_1498_5436" result="shape"/>
</filter>
<filter id="filter5_d_1498_5436" x="484.938" y="307.574" width="97.2031" height="96.3633" filterUnits="userSpaceOnUse" color-interpolation-filters="sRGB">
<feFlood flood-opacity="0" result="BackgroundImageFix"/>
<feColorMatrix in="SourceAlpha" type="matrix" values="0 0 0 0 0 0 0 0 0 0 0 0 0 0 0 0 0 0 127 0" result="hardAlpha"/>
<feOffset dx="14" dy="16"/>
<feGaussianBlur stdDeviation="20"/>
<feColorMatrix type="matrix" values="0 0 0 0 0.160784 0 0 0 0 0.188235 0 0 0 0 0.313726 0 0 0 0.134151 0"/>
<feBlend mode="normal" in2="BackgroundImageFix" result="effect1_dropShadow_1498_5436"/>
<feBlend mode="normal" in="SourceGraphic" in2="effect1_dropShadow_1498_5436" result="shape"/>
</filter>
<filter id="filter6_d_1498_5436" x="505.289" y="219.382" width="97.2031" height="96.3633" filterUnits="userSpaceOnUse" color-interpolation-filters="sRGB">
<feFlood flood-opacity="0" result="BackgroundImageFix"/>
<feColorMatrix in="SourceAlpha" type="matrix" values="0 0 0 0 0 0 0 0 0 0 0 0 0 0 0 0 0 0 127 0" result="hardAlpha"/>
<feOffset dx="14" dy="16"/>
<feGaussianBlur stdDeviation="20"/>
<feColorMatrix type="matrix" values="0 0 0 0 0.160784 0 0 0 0 0.188235 0 0 0 0 0.313726 0 0 0 0.134151 0"/>
<feBlend mode="normal" in2="BackgroundImageFix" result="effect1_dropShadow_1498_5436"/>
<feBlend mode="normal" in="SourceGraphic" in2="effect1_dropShadow_1498_5436" result="shape"/>
</filter>
<filter id="filter7_d_1498_5436" x="505.289" y="307.574" width="97.2031" height="96.3633" filterUnits="userSpaceOnUse" color-interpolation-filters="sRGB">
<feFlood flood-opacity="0" result="BackgroundImageFix"/>
<feColorMatrix in="SourceAlpha" type="matrix" values="0 0 0 0 0 0 0 0 0 0 0 0 0 0 0 0 0 0 127 0" result="hardAlpha"/>
<feOffset dx="14" dy="16"/>
<feGaussianBlur stdDeviation="20"/>
<feColorMatrix type="matrix" values="0 0 0 0 0.160784 0 0 0 0 0.188235 0 0 0 0 0.313726 0 0 0 0.134151 0"/>
<feBlend mode="normal" in2="BackgroundImageFix" result="effect1_dropShadow_1498_5436"/>
<feBlend mode="normal" in="SourceGraphic" in2="effect1_dropShadow_1498_5436" result="shape"/>
</filter>
<filter id="filter8_d_1498_5436" x="18.7109" y="15.3389" width="464.391" height="358.145" filterUnits="userSpaceOnUse" color-interpolation-filters="sRGB">
<feFlood flood-opacity="0" result="BackgroundImageFix"/>
<feColorMatrix in="SourceAlpha" type="matrix" values="0 0 0 0 0 0 0 0 0 0 0 0 0 0 0 0 0 0 127 0" result="hardAlpha"/>
<feOffset dx="14" dy="20"/>
<feGaussianBlur stdDeviation="20"/>
<feColorMatrix type="matrix" values="0 0 0 0 0.160784 0 0 0 0 0.188235 0 0 0 0 0.313726 0 0 0 0.134151 0"/>
<feBlend mode="normal" in2="BackgroundImageFix" result="effect1_dropShadow_1498_5436"/>
<feBlend mode="normal" in="SourceGraphic" in2="effect1_dropShadow_1498_5436" result="shape"/>
</filter>
<filter id="filter9_d_1498_5436" x="143.516" y="101.792" width="97.2031" height="96.3633" filterUnits="userSpaceOnUse" color-interpolation-filters="sRGB">
<feFlood flood-opacity="0" result="BackgroundImageFix"/>
<feColorMatrix in="SourceAlpha" type="matrix" values="0 0 0 0 0 0 0 0 0 0 0 0 0 0 0 0 0 0 127 0" result="hardAlpha"/>
<feOffset dx="14" dy="16"/>
<feGaussianBlur stdDeviation="20"/>
<feColorMatrix type="matrix" values="0 0 0 0 0.160784 0 0 0 0 0.188235 0 0 0 0 0.313726 0 0 0 0.134151 0"/>
<feBlend mode="normal" in2="BackgroundImageFix" result="effect1_dropShadow_1498_5436"/>
<feBlend mode="normal" in="SourceGraphic" in2="effect1_dropShadow_1498_5436" result="shape"/>
</filter>
<filter id="filter10_d_1498_5436" x="163.867" y="101.792" width="97.2031" height="96.3633" filterUnits="userSpaceOnUse" color-interpolation-filters="sRGB">
<feFlood flood-opacity="0" result="BackgroundImageFix"/>
<feColorMatrix in="SourceAlpha" type="matrix" values="0 0 0 0 0 0 0 0 0 0 0 0 0 0 0 0 0 0 127 0" result="hardAlpha"/>
<feOffset dx="14" dy="16"/>
<feGaussianBlur stdDeviation="20"/>
<feColorMatrix type="matrix" values="0 0 0 0 0.160784 0 0 0 0 0.188235 0 0 0 0 0.313726 0 0 0 0.134151 0"/>
<feBlend mode="normal" in2="BackgroundImageFix" result="effect1_dropShadow_1498_5436"/>
<feBlend mode="normal" in="SourceGraphic" in2="effect1_dropShadow_1498_5436" result="shape"/>
</filter>
<filter id="filter11_d_1498_5436" x="184.215" y="101.792" width="97.2031" height="96.3633" filterUnits="userSpaceOnUse" color-interpolation-filters="sRGB">
<feFlood flood-opacity="0" result="BackgroundImageFix"/>
<feColorMatrix in="SourceAlpha" type="matrix" values="0 0 0 0 0 0 0 0 0 0 0 0 0 0 0 0 0 0 127 0" result="hardAlpha"/>
<feOffset dx="14" dy="16"/>
<feGaussianBlur stdDeviation="20"/>
<feColorMatrix type="matrix" values="0 0 0 0 0.160784 0 0 0 0 0.188235 0 0 0 0 0.313726 0 0 0 0.134151 0"/>
<feBlend mode="normal" in2="BackgroundImageFix" result="effect1_dropShadow_1498_5436"/>
<feBlend mode="normal" in="SourceGraphic" in2="effect1_dropShadow_1498_5436" result="shape"/>
</filter>
<filter id="filter12_d_1498_5436" x="204.562" y="101.792" width="97.2031" height="96.3633" filterUnits="userSpaceOnUse" color-interpolation-filters="sRGB">
<feFlood flood-opacity="0" result="BackgroundImageFix"/>
<feColorMatrix in="SourceAlpha" type="matrix" values="0 0 0 0 0 0 0 0 0 0 0 0 0 0 0 0 0 0 127 0" result="hardAlpha"/>
<feOffset dx="14" dy="16"/>
<feGaussianBlur stdDeviation="20"/>
<feColorMatrix type="matrix" values="0 0 0 0 0.160784 0 0 0 0 0.188235 0 0 0 0 0.313726 0 0 0 0.134151 0"/>
<feBlend mode="normal" in2="BackgroundImageFix" result="effect1_dropShadow_1498_5436"/>
<feBlend mode="normal" in="SourceGraphic" in2="effect1_dropShadow_1498_5436" result="shape"/>
</filter>
<clipPath id="clip0_1498_5436">
<rect width="646" height="419" fill="white"/>
</clipPath>
</defs>
</svg>
