<svg width="656" height="410" viewBox="0 0 656 410" fill="none" xmlns="http://www.w3.org/2000/svg">
<path d="M542.064 117.068C508.022 56.0224 434.645 20.4597 376.46 82.8843C318.273 145.309 282.162 146.044 263.072 179.493C243.981 212.94 251.63 276.826 331.928 339.942C412.226 403.059 444.379 339.189 539.081 304.34C633.783 269.493 576.108 178.114 542.064 117.068Z" fill="#F2F5FF"/>
<path d="M443.427 95.2334H250.16C249.253 95.2328 248.354 95.0532 247.515 94.7048C246.677 94.3564 245.915 93.846 245.274 93.2028C244.633 92.5596 244.125 91.7963 243.779 90.9565C243.433 90.1167 243.256 89.2169 243.258 88.3085V45.837C243.258 34.3817 252.548 25.0645 263.966 25.0645H429.622C441.04 25.0645 450.33 34.3838 450.33 45.8391V88.3106C450.331 89.2188 450.154 90.1184 449.808 90.9579C449.462 91.7975 448.954 92.5606 448.312 93.2035C447.671 93.8465 446.91 94.3567 446.072 94.705C445.233 95.0533 444.335 95.2328 443.427 95.2334Z" fill="#F8F8F8"/>
<path d="M429.617 25.0645H346.789V95.2334H443.422C444.33 95.2328 445.229 95.0532 446.067 94.7048C446.906 94.3564 447.667 93.846 448.309 93.2028C448.95 92.5596 449.458 91.7963 449.804 90.9565C450.15 90.1167 450.327 89.2169 450.325 88.3085V45.837C450.325 34.3817 441.035 25.0645 429.617 25.0645Z" fill="#E7E7E7"/>
<path fill-rule="evenodd" clip-rule="evenodd" d="M242.991 171.401C242.992 171.396 242.993 171.391 242.993 171.386L229.262 105.758C228.295 99.5278 229.952 93.2956 233.817 88.7238C235.772 86.4203 238.204 84.5703 240.945 83.3027C243.687 82.035 246.671 81.38 249.691 81.3833H443.509C449.585 81.3833 455.382 84.0156 459.386 88.7238C463.25 93.2935 464.908 99.5278 463.94 105.483L450.21 171.421L463.94 237.049C464.908 243.282 463.25 249.514 459.386 254.083C457.431 256.387 454.999 258.237 452.257 259.505C449.516 260.772 446.531 261.427 443.511 261.424H249.691C246.671 261.427 243.687 260.772 240.945 259.505C238.204 258.237 235.771 256.387 233.817 254.083C229.952 249.514 228.295 243.282 229.262 237.326L242.991 171.401Z" fill="#65C358"/>
<path fill-rule="evenodd" clip-rule="evenodd" d="M242.993 171.388L242.991 171.401H450.214L463.94 105.481C464.908 99.5261 463.25 93.2939 459.386 88.7221C457.431 86.4186 454.999 84.5686 452.257 83.301C449.516 82.0333 446.531 81.3783 443.511 81.3816H249.691C243.617 81.3816 237.82 84.0138 233.817 88.7221C229.952 93.2918 228.295 99.5261 229.262 105.758L242.993 171.388Z" fill="#58B64B"/>
<path d="M277.575 66.612C281.387 66.612 284.477 63.5116 284.477 59.6871C284.477 55.8626 281.387 52.7622 277.575 52.7622C273.762 52.7622 270.672 55.8626 270.672 59.6871C270.672 63.5116 273.762 66.612 277.575 66.612Z" fill="white"/>
<path d="M415.621 66.612C419.434 66.612 422.524 63.5116 422.524 59.6871C422.524 55.8626 419.434 52.7622 415.621 52.7622C411.809 52.7622 408.719 55.8626 408.719 59.6871C408.719 63.5116 411.809 66.612 415.621 66.612Z" fill="white"/>
<path opacity="0.254" d="M287.703 147.062C296.264 147.062 303.203 141.044 303.203 133.621C303.203 126.199 296.264 120.181 287.703 120.181C279.143 120.181 272.203 126.199 272.203 133.621C272.203 141.044 279.143 147.062 287.703 147.062Z" fill="#E3E7EA"/>
<path opacity="0.254" d="M287.703 221.501C296.264 221.501 303.203 215.483 303.203 208.06C303.203 200.638 296.264 194.62 287.703 194.62C279.143 194.62 272.203 200.638 272.203 208.06C272.203 215.483 279.143 221.501 287.703 221.501Z" fill="white"/>
<path opacity="0.254" d="M345.57 147.062C354.131 147.062 361.07 141.044 361.07 133.621C361.07 126.199 354.131 120.181 345.57 120.181C337.01 120.181 330.07 126.199 330.07 133.621C330.07 141.044 337.01 147.062 345.57 147.062Z" fill="#E3E7EA"/>
<path opacity="0.254" d="M345.57 221.501C354.131 221.501 361.07 215.483 361.07 208.06C361.07 200.638 354.131 194.62 345.57 194.62C337.01 194.62 330.07 200.638 330.07 208.06C330.07 215.483 337.01 221.501 345.57 221.501Z" fill="white"/>
<path opacity="0.254" d="M403.434 147.062C411.994 147.062 418.934 141.044 418.934 133.621C418.934 126.199 411.994 120.181 403.434 120.181C394.873 120.181 387.934 126.199 387.934 133.621C387.934 141.044 394.873 147.062 403.434 147.062Z" fill="#E3E7EA"/>
<path opacity="0.254" d="M403.434 221.501C411.994 221.501 418.934 215.483 418.934 208.06C418.934 200.638 411.994 194.62 403.434 194.62C394.873 194.62 387.934 200.638 387.934 208.06C387.934 215.483 394.873 221.501 403.434 221.501Z" fill="white"/>
<path d="M283.078 132.587L286.24 135.751C286.432 135.943 286.66 136.096 286.911 136.2C287.162 136.304 287.431 136.357 287.702 136.357C287.974 136.357 288.243 136.304 288.494 136.2C288.745 136.096 288.973 135.943 289.164 135.751L302.17 122.741" stroke="white" stroke-width="3" stroke-linecap="round"/>
<g filter="url(#filter0_d_1497_4516)">
<path d="M284.608 188.416H108.941C94.1028 188.416 82.0742 200.451 82.0742 215.296V322.819C82.0742 337.665 94.1028 349.7 108.941 349.7H284.608C299.446 349.7 311.474 337.665 311.474 322.819V215.296C311.474 200.451 299.446 188.416 284.608 188.416Z" fill="black"/>
</g>
<path d="M284.608 188.416H108.941C94.1028 188.416 82.0742 200.45 82.0742 215.296V322.819C82.0742 337.665 94.1028 349.7 108.941 349.7H284.608C299.446 349.7 311.474 337.665 311.474 322.819V215.296C311.474 200.45 299.446 188.416 284.608 188.416Z" fill="white"/>
<path d="M230.876 219.431H175.076C169.369 219.431 164.742 224.06 164.742 229.77C164.742 235.48 169.369 240.109 175.076 240.109H230.876C236.582 240.109 241.209 235.48 241.209 229.77C241.209 224.06 236.582 219.431 230.876 219.431Z" fill="#F1F1FB"/>
<path d="M144.069 229.77C144.069 224.06 139.443 219.431 133.736 219.431C128.029 219.431 123.402 224.06 123.402 229.77C123.402 235.48 128.029 240.109 133.736 240.109C139.443 240.109 144.069 235.48 144.069 229.77Z" fill="#F1F1FB"/>
<path d="M267.041 253.55H169.908C164.201 253.55 159.574 258.179 159.574 263.889V274.227C159.574 279.937 164.201 284.566 169.908 284.566H267.041C272.748 284.566 277.374 279.937 277.374 274.227V263.889C277.374 258.179 272.748 253.55 267.041 253.55Z" fill="#345FFB" stroke="white" stroke-width="5"/>
<path d="M146.14 269.057C146.14 262.205 140.588 256.651 133.74 256.651C126.892 256.651 121.34 262.205 121.34 269.057C121.34 275.909 126.892 281.464 133.74 281.464C140.588 281.464 146.14 275.909 146.14 269.057Z" fill="#64C257"/>
<path d="M129.605 269.887L131.693 271.856C132.076 272.218 132.583 272.419 133.111 272.419C133.638 272.419 134.145 272.218 134.528 271.856L144.072 262.855" stroke="white" stroke-width="2" stroke-linecap="round"/>
<path d="M226.742 298.006H175.076C169.369 298.006 164.742 302.635 164.742 308.345C164.742 314.055 169.369 318.684 175.076 318.684H226.742C232.449 318.684 237.076 314.055 237.076 308.345C237.076 302.635 232.449 298.006 226.742 298.006Z" fill="#F1F1FB"/>
<path d="M144.069 308.345C144.069 302.635 139.443 298.006 133.736 298.006C128.029 298.006 123.402 302.635 123.402 308.345C123.402 314.055 128.029 318.684 133.736 318.684C139.443 318.684 144.069 314.055 144.069 308.345Z" fill="#F1F1FB"/>
<defs>
<filter id="filter0_d_1497_4516" x="56.0742" y="158.416" width="309.398" height="241.284" filterUnits="userSpaceOnUse" color-interpolation-filters="sRGB">
<feFlood flood-opacity="0" result="BackgroundImageFix"/>
<feColorMatrix in="SourceAlpha" type="matrix" values="0 0 0 0 0 0 0 0 0 0 0 0 0 0 0 0 0 0 127 0" result="hardAlpha"/>
<feOffset dx="14" dy="10"/>
<feGaussianBlur stdDeviation="20"/>
<feColorMatrix type="matrix" values="0 0 0 0 0.160784 0 0 0 0 0.188235 0 0 0 0 0.313726 0 0 0 0.134151 0"/>
<feBlend mode="normal" in2="BackgroundImageFix" result="effect1_dropShadow_1497_4516"/>
<feBlend mode="normal" in="SourceGraphic" in2="effect1_dropShadow_1497_4516" result="shape"/>
</filter>
</defs>
</svg>
