<svg width="20" height="20" viewBox="0 0 20 20" fill="none" xmlns="http://www.w3.org/2000/svg">
<g clip-path="url(#clip0_2128_240)">
<path d="M9.99982 0.3125C8.44292 0.312529 6.90897 0.687799 5.52789 1.40652C4.14682 2.12524 2.95931 3.16624 2.06597 4.44134C1.17262 5.71643 0.59976 7.18805 0.395905 8.73155C0.192049 10.275 0.363207 11.8449 0.89488 13.3082C1.42655 14.7715 2.30308 16.0851 3.4502 17.1378C4.59733 18.1904 5.98126 18.951 7.48476 19.3553C8.98827 19.7595 10.5671 19.7954 12.0874 19.4599C13.6077 19.1245 15.0248 18.4275 16.2186 17.4281L15.8186 16.9469C14.2374 18.2711 12.2519 19.0164 10.19 19.0596C8.12803 19.1029 6.113 18.4416 4.4777 17.1849C2.8424 15.9282 1.68465 14.1513 1.1957 12.1477C0.706739 10.1441 0.915813 8.03364 1.78839 6.16492C2.66096 4.2962 4.14484 2.781 5.99492 1.86958C7.84501 0.958165 9.95063 0.705054 11.964 1.15206C13.9774 1.59906 15.7781 2.71943 17.0687 4.32812C18.3592 5.93682 19.0625 7.9376 19.0623 10C19.0675 11.7605 18.5533 13.4834 17.5842 14.9531L17.5498 14.0156L16.9248 14.0406L16.9998 15.9375C17.0016 15.9874 17.0153 16.0361 17.0398 16.0796C17.0642 16.1231 17.0987 16.1601 17.1404 16.1875C17.1907 16.22 17.2493 16.2373 17.3092 16.2375C17.3498 16.238 17.3902 16.2306 17.4279 16.2156L19.1936 15.4938L18.9561 14.9125L18.1248 15.2656C19.1497 13.7011 19.693 11.8703 19.6873 10C19.6873 7.43072 18.6667 4.96666 16.8499 3.1499C15.0332 1.33314 12.5691 0.3125 9.99982 0.3125Z" fill="#1A4BFA"/>
<path d="M8.4375 4.375C8.4375 4.29212 8.40458 4.21263 8.34597 4.15403C8.28737 4.09542 8.20788 4.0625 8.125 4.0625H5.625C5.54212 4.0625 5.46263 4.09542 5.40403 4.15403C5.34542 4.21263 5.3125 4.29212 5.3125 4.375V6.875C5.3125 6.95788 5.34542 7.03737 5.40403 7.09597C5.46263 7.15458 5.54212 7.1875 5.625 7.1875H8.125C8.20788 7.1875 8.28737 7.15458 8.34597 7.09597C8.40458 7.03737 8.4375 6.95788 8.4375 6.875V4.375ZM5.9375 4.6875H7.37188L5.9375 6.12188V4.6875ZM7.8125 6.5625H6.37812L7.8125 5.12812V6.5625Z" fill="#1A4BFA"/>
<path d="M8.4375 8.75C8.4375 8.66712 8.40458 8.58763 8.34597 8.52903C8.28737 8.47042 8.20788 8.4375 8.125 8.4375H5.625C5.54212 8.4375 5.46263 8.47042 5.40403 8.52903C5.34542 8.58763 5.3125 8.66712 5.3125 8.75V11.25C5.3125 11.3329 5.34542 11.4124 5.40403 11.471C5.46263 11.5296 5.54212 11.5625 5.625 11.5625H8.125C8.20788 11.5625 8.28737 11.5296 8.34597 11.471C8.40458 11.4124 8.4375 11.3329 8.4375 11.25V8.75ZM5.9375 9.0625H7.37188L5.9375 10.4969V9.0625ZM7.8125 10.9375H6.37812L7.8125 9.50312V10.9375Z" fill="#1A4BFA"/>
<path d="M8.125 12.8125H5.625C5.54212 12.8125 5.46263 12.8454 5.40403 12.904C5.34542 12.9626 5.3125 13.0421 5.3125 13.125V15.625C5.3125 15.7079 5.34542 15.7874 5.40403 15.846C5.46263 15.9046 5.54212 15.9375 5.625 15.9375H8.125C8.20788 15.9375 8.28737 15.9046 8.34597 15.846C8.40458 15.7874 8.4375 15.7079 8.4375 15.625V13.125C8.4375 13.0421 8.40458 12.9626 8.34597 12.904C8.28737 12.8454 8.20788 12.8125 8.125 12.8125ZM5.9375 13.4375H7.37188L5.9375 14.8719V13.4375ZM7.8125 15.3125H6.37812L7.8125 13.8781V15.3125Z" fill="#1A4BFA"/>
<path d="M9.375 4.6875H15V5.3125H9.375V4.6875Z" fill="#1A4BFA"/>
<path d="M9.375 5.9375H12.5V6.5625H9.375V5.9375Z" fill="#1A4BFA"/>
<path d="M9.375 9.0625H15V9.6875H9.375V9.0625Z" fill="#1A4BFA"/>
<path d="M9.375 10.3125H12.5V10.9375H9.375V10.3125Z" fill="#1A4BFA"/>
<path d="M9.375 13.4375H15V14.0625H9.375V13.4375Z" fill="#1A4BFA"/>
<path d="M9.375 14.6875H12.5V15.3125H9.375V14.6875Z" fill="#1A4BFA"/>
</g>
<defs>
<clipPath id="clip0_2128_240">
<rect width="20" height="20" fill="#1A4BFA"/>
</clipPath>
</defs>
</svg>
