<svg width="20" height="20" viewBox="0 0 20 20" fill="none" xmlns="http://www.w3.org/2000/svg">
<path d="M4.07422 2.19849C3.04016 2.19849 2.19922 3.03942 2.19922 4.07349C2.19922 5.10755 3.04016 5.94849 4.07422 5.94849C5.10828 5.94849 5.94922 5.10755 5.94922 4.07349C5.94922 3.03942 5.10828 2.19849 4.07422 2.19849ZM4.07422 5.32349C3.38484 5.32349 2.82422 4.76286 2.82422 4.07349C2.82422 3.38411 3.38484 2.82349 4.07422 2.82349C4.76359 2.82349 5.32422 3.38411 5.32422 4.07349C5.32422 4.76286 4.76359 5.32349 4.07422 5.32349Z" fill="#1A4BFA"/>
<path d="M18.0317 15.2209L17.5898 14.7791L15.3108 17.0581L14.9067 16.6541L14.4648 17.0959L15.3108 17.9419L18.0317 15.2209Z" fill="#1A4BFA"/>
<path d="M10.9375 3.75H11.5625V4.375H10.9375V3.75Z" fill="#1A4BFA"/>
<path d="M14.6875 3.75H15.3125V4.375H14.6875V3.75Z" fill="#1A4BFA"/>
<path d="M13.4375 3.75H14.0625V4.375H13.4375V3.75Z" fill="#1A4BFA"/>
<path d="M12.1875 3.75H12.8125V4.375H12.1875V3.75Z" fill="#1A4BFA"/>
<path d="M7.5 11.5625H12.5C13.0169 11.5625 13.4375 11.1419 13.4375 10.625V10.3125H17.5C18.7059 10.3125 19.6875 9.3313 19.6875 8.12505V5.93755C19.6875 4.7313 18.7059 3.75005 17.5 3.75005H16.5625V3.43755C16.5625 2.92067 16.1419 2.50005 15.625 2.50005H10.625C10.1081 2.50005 9.6875 2.92067 9.6875 3.43755V3.75005H7.82344V3.21005L7.00313 2.98599C6.97625 2.91411 6.94625 2.84255 6.91375 2.77192L7.33594 2.03255L6.11469 0.811299L5.37562 1.23317C5.30469 1.20067 5.23344 1.17067 5.16156 1.1438L4.93719 0.323486H3.21L2.98563 1.1438C2.91375 1.17067 2.8425 1.20036 2.77187 1.23317L2.0325 0.811299L0.81125 2.03255L1.23313 2.77192C1.20063 2.84255 1.17063 2.91411 1.14375 2.98599L0.323437 3.21005V4.93692L1.14375 5.1613C1.17063 5.23317 1.20063 5.30474 1.23313 5.37536L0.810938 6.11474L2.03219 7.33567L2.77156 6.9138C2.84219 6.9463 2.91344 6.9763 2.98531 7.00317L3.20969 7.82349H4.93688L5.16125 7.00317C5.23281 6.9763 5.30438 6.9463 5.37531 6.9138L6.11438 7.33536L7.33563 6.11442L6.91344 5.37505C6.94594 5.30442 6.97594 5.23286 7.00281 5.16099L7.82312 4.93661V4.37505H9.6875V4.68755C9.6875 5.20442 10.1081 5.62505 10.625 5.62505H15.625C16.1419 5.62505 16.5625 5.20442 16.5625 4.68755V4.37505H17.5C18.3616 4.37505 19.0625 5.07599 19.0625 5.93755V8.12505C19.0625 8.98661 18.3616 9.68755 17.5 9.68755H13.4375V9.37505C13.4375 8.85817 13.0169 8.43755 12.5 8.43755H7.5C6.98313 8.43755 6.5625 8.85817 6.5625 9.37505V9.68755H2.5C1.29406 9.68755 0.3125 10.6691 0.3125 11.875V14.375C0.3125 15.581 1.29406 16.5625 2.5 16.5625H3.4375V16.875C3.4375 17.3919 3.85812 17.8125 4.375 17.8125H9.375C9.89188 17.8125 10.3125 17.3919 10.3125 16.875V16.5625H12.8284C12.9869 18.3119 14.46 19.6875 16.25 19.6875C18.1453 19.6875 19.6875 18.1454 19.6875 16.25C19.6875 14.3547 18.1453 12.8125 16.25 12.8125C14.46 12.8125 12.9869 14.1882 12.8284 15.9375H10.3125V15.625C10.3125 15.1082 9.89188 14.6875 9.375 14.6875H4.375C3.85812 14.6875 3.4375 15.1082 3.4375 15.625V15.9375H2.5C1.63844 15.9375 0.9375 15.2366 0.9375 14.375V11.875C0.9375 11.0135 1.63844 10.3125 2.5 10.3125H6.5625V10.625C6.5625 11.1419 6.98313 11.5625 7.5 11.5625ZM7.19844 4.46005L6.51312 4.64755L6.46281 4.81161C6.41781 4.9563 6.35781 5.10036 6.28406 5.23974L6.20344 5.39161L6.55656 6.01005L6.01031 6.55661L5.39156 6.2038L5.24 6.28411C5.10094 6.35786 4.95687 6.41786 4.81187 6.46255L4.64812 6.51317L4.46031 7.19849H3.6875L3.49969 6.51317L3.33594 6.46255C3.19156 6.41786 3.0475 6.35817 2.90781 6.28411L2.75594 6.2038L2.1375 6.55661L1.59063 6.01005L1.94375 5.39161L1.86312 5.23974C1.78937 5.10036 1.72906 4.9563 1.68437 4.81161L1.63406 4.64755L0.94875 4.46005V3.68692L1.63406 3.49974L1.68469 3.33567C1.72937 3.19099 1.78937 3.04692 1.86312 2.90786L1.94375 2.75567L1.59063 2.13724L2.13687 1.59067L2.75531 1.94349L2.90719 1.86317C3.0475 1.78911 3.19156 1.7288 3.33531 1.68442L3.49906 1.6338L3.68688 0.948486H4.45969L4.6475 1.6338L4.81125 1.68442C4.95563 1.72911 5.09969 1.78911 5.23938 1.86317L5.39094 1.94349L6.00969 1.59067L6.55594 2.13724L6.20281 2.75567L6.28344 2.90755C6.35719 3.04661 6.4175 3.19067 6.46187 3.33536L6.5125 3.49942L7.19781 3.68661V4.46005H7.19844ZM15.9375 4.68755C15.9375 4.85974 15.7975 5.00005 15.625 5.00005H10.625C10.4525 5.00005 10.3125 4.85974 10.3125 4.68755V3.43755C10.3125 3.26536 10.4525 3.12505 10.625 3.12505H15.625C15.7975 3.12505 15.9375 3.26536 15.9375 3.43755V4.68755ZM16.25 13.4375C17.8009 13.4375 19.0625 14.6991 19.0625 16.25C19.0625 17.801 17.8009 19.0625 16.25 19.0625C14.6991 19.0625 13.4375 17.801 13.4375 16.25C13.4375 14.6991 14.6991 13.4375 16.25 13.4375ZM4.0625 15.625C4.0625 15.4525 4.2025 15.3125 4.375 15.3125H9.375C9.5475 15.3125 9.6875 15.4525 9.6875 15.625V16.875C9.6875 17.0475 9.5475 17.1875 9.375 17.1875H4.375C4.2025 17.1875 4.0625 17.0475 4.0625 16.875V15.625ZM7.1875 9.37505C7.1875 9.20286 7.3275 9.06255 7.5 9.06255H12.5C12.6725 9.06255 12.8125 9.20286 12.8125 9.37505V10.625C12.8125 10.7975 12.6725 10.9375 12.5 10.9375H7.5C7.3275 10.9375 7.1875 10.7975 7.1875 10.625V9.37505Z" fill="#1A4BFA"/>
<path d="M10.3125 9.6875H10.9375V10.3125H10.3125V9.6875Z" fill="#1A4BFA"/>
<path d="M9.0625 9.6875H9.6875V10.3125H9.0625V9.6875Z" fill="#1A4BFA"/>
<path d="M7.8125 9.6875H8.4375V10.3125H7.8125V9.6875Z" fill="#1A4BFA"/>
<path d="M11.5625 9.6875H12.1875V10.3125H11.5625V9.6875Z" fill="#1A4BFA"/>
<path d="M5.9375 15.9375H6.5625V16.5625H5.9375V15.9375Z" fill="#1A4BFA"/>
<path d="M8.4375 15.9375H9.0625V16.5625H8.4375V15.9375Z" fill="#1A4BFA"/>
<path d="M7.1875 15.9375H7.8125V16.5625H7.1875V15.9375Z" fill="#1A4BFA"/>
<path d="M4.6875 15.9375H5.3125V16.5625H4.6875V15.9375Z" fill="#1A4BFA"/>
</svg>
