<svg width="20" height="20" viewBox="0 0 20 20" fill="none" xmlns="http://www.w3.org/2000/svg">
<g clip-path="url(#clip0_2128_1165)">
<path d="M5.82813 14.202H14.1719C14.3433 14.2018 14.5077 14.1336 14.6289 14.0124C14.7501 13.8912 14.8183 13.7268 14.8185 13.5554V7.7575C14.8183 7.58605 14.7501 7.42168 14.6289 7.30045C14.5077 7.17921 14.3433 7.11102 14.1719 7.11082H12.2803V6.25641C12.2802 6.13487 12.2318 6.01834 12.1459 5.9324C12.0599 5.84646 11.9434 5.79811 11.8219 5.79797H8.17813C8.05659 5.79811 7.94006 5.84646 7.85412 5.9324C7.76818 6.01834 7.71983 6.13487 7.71969 6.25641V7.11082H5.82813C5.65668 7.11102 5.49231 7.17921 5.37108 7.30045C5.24986 7.42168 5.18167 7.58605 5.18148 7.7575V13.5554C5.18167 13.7268 5.24986 13.8912 5.37108 14.0124C5.49231 14.1336 5.65668 14.2018 5.82813 14.202ZM14.1721 13.577H5.82813C5.82243 13.5769 5.81701 13.5745 5.81298 13.5705C5.80896 13.5665 5.80663 13.561 5.80648 13.5554V10.6632C5.99881 10.776 6.21779 10.8354 6.44078 10.8352H8.57652V11.0742C8.57668 11.2235 8.63605 11.3667 8.74162 11.4722C8.84718 11.5778 8.99031 11.6372 9.13961 11.6373H10.8606C11.0099 11.6371 11.153 11.5778 11.2585 11.4722C11.3641 11.3666 11.4234 11.2235 11.4236 11.0742V10.8352H13.5593C13.7823 10.8354 14.0013 10.776 14.1936 10.6632V13.5554C14.1935 13.5611 14.1911 13.5665 14.1871 13.5705C14.183 13.5746 14.1776 13.5769 14.1719 13.577H14.1721ZM9.20141 11.0123V10.0332H10.7986V11.0123H9.20141ZM8.34469 6.42297H11.6553V7.11082H8.34469V6.42297ZM5.80637 7.7575C5.80651 7.7518 5.80883 7.74637 5.81286 7.74234C5.81688 7.7383 5.82231 7.73597 5.82801 7.73582H14.1719C14.1776 7.73597 14.183 7.7383 14.187 7.74234C14.1911 7.74637 14.1934 7.7518 14.1935 7.7575V9.57594C14.1933 9.74411 14.1264 9.90533 14.0075 10.0242C13.8886 10.1432 13.7274 10.21 13.5592 10.2102H11.4236V9.97129C11.4234 9.82199 11.3641 9.67886 11.2585 9.57329C11.1529 9.46771 11.0098 9.40833 10.8605 9.40816H9.13949C8.9902 9.40833 8.84706 9.46771 8.7415 9.57329C8.63594 9.67886 8.57656 9.82199 8.57641 9.97129V10.2102H6.44066C6.2725 10.21 6.11127 10.1432 5.99235 10.0242C5.87344 9.90533 5.80655 9.74411 5.80637 9.57594V7.7575ZM8.84508 12.7016C8.84508 12.7845 8.81215 12.864 8.75355 12.9226C8.69494 12.9812 8.61546 13.0141 8.53258 13.0141H6.64289C6.56001 13.0141 6.48053 12.9812 6.42192 12.9226C6.36332 12.864 6.33039 12.7845 6.33039 12.7016C6.33039 12.6188 6.36332 12.5393 6.42192 12.4807C6.48053 12.4221 6.56001 12.3891 6.64289 12.3891H8.53258C8.61546 12.3891 8.69494 12.4221 8.75355 12.4807C8.81215 12.5393 8.84508 12.6188 8.84508 12.7016ZM0.739375 12.1371L2.13 12.3871C2.28626 12.9026 2.49299 13.4014 2.74719 13.8763L1.94051 15.0371C1.82014 15.21 1.76444 15.4198 1.78318 15.6297C1.80191 15.8396 1.89387 16.0362 2.04297 16.1851L3.81488 17.957C3.96378 18.1061 4.1604 18.1981 4.3703 18.2169C4.58019 18.2356 4.78999 18.1799 4.96293 18.0595L6.12352 17.2528C6.5984 17.507 7.09721 17.7137 7.6127 17.87L7.8627 19.2606C7.89986 19.468 8.00883 19.6558 8.17052 19.791C8.33221 19.9262 8.53631 20.0002 8.74707 20H11.2529C11.4637 20.0001 11.6677 19.9261 11.8294 19.791C11.991 19.6558 12.1 19.468 12.1371 19.2606L12.3871 17.87C12.9026 17.7137 13.4014 17.507 13.8763 17.2528L15.0369 18.0595C15.2099 18.1799 15.4197 18.2356 15.6296 18.2169C15.8394 18.1982 16.0361 18.1062 16.185 17.9571L17.957 16.1851C18.1061 16.0362 18.1981 15.8396 18.2168 15.6297C18.2355 15.4198 18.1798 15.21 18.0595 15.0371L17.2528 13.8765C17.507 13.4016 17.7137 12.9028 17.87 12.3873L19.2606 12.1373C19.4681 12.1001 19.6558 11.9912 19.791 11.8295C19.9262 11.6678 20.0002 11.4637 20 11.2529V8.74707C20.0001 8.53634 19.9261 8.33228 19.791 8.17063C19.6558 8.00897 19.468 7.90002 19.2606 7.86285L17.87 7.61285C17.7137 7.09737 17.507 6.59856 17.2528 6.12367L18.0595 4.96309C18.1799 4.79013 18.2356 4.58034 18.2169 4.37045C18.1981 4.16056 18.1062 3.96395 17.9571 3.81504L16.1851 2.04297C16.0362 1.89388 15.8396 1.80192 15.6297 1.7832C15.4198 1.76447 15.21 1.82017 15.0371 1.94055L13.8764 2.74723C13.4016 2.493 12.9028 2.28626 12.3873 2.13004L12.1373 0.739414C12.1001 0.531956 11.9912 0.344188 11.8295 0.209C11.6678 0.0738124 11.4637 -0.000174331 11.2529 3.08458e-07H8.74707C8.53635 -0.000140912 8.33229 0.0738514 8.17064 0.20902C8.00898 0.344189 7.90002 0.531919 7.86285 0.739336L7.61285 2.12996C7.09738 2.28622 6.59859 2.49295 6.12371 2.74715L4.96293 1.94055C4.78998 1.82015 4.58019 1.76444 4.3703 1.78316C4.1604 1.80189 3.96379 1.89386 3.81488 2.04297L2.04297 3.81488C1.89387 3.96379 1.80191 4.16041 1.78318 4.3703C1.76446 4.58019 1.82017 4.78998 1.94055 4.96293L2.74723 6.12352C2.49302 6.5984 2.28629 7.09721 2.13004 7.6127L0.739414 7.8627C0.531956 7.89986 0.344188 8.00883 0.209 8.17052C0.0738124 8.33221 -0.000174331 8.53631 3.08458e-07 8.74707V11.2529C-0.000148446 11.4636 0.0738452 11.6677 0.209023 11.8294C0.3442 11.991 0.531944 12.1 0.739375 12.1371ZM0.625 8.74707C0.624293 8.68276 0.646576 8.62031 0.687835 8.57097C0.729095 8.52163 0.786617 8.48865 0.850039 8.47797L2.43137 8.19348C2.4893 8.18305 2.5431 8.15648 2.58659 8.11682C2.63008 8.07716 2.66148 8.02602 2.67719 7.9693C2.84261 7.37216 3.08079 6.79762 3.38637 6.25859C3.41542 6.20737 3.4294 6.14898 3.4267 6.09015C3.42401 6.03132 3.40474 5.97445 3.37113 5.92609L2.45375 4.60621C2.41647 4.55381 2.39913 4.48981 2.40486 4.42575C2.41059 4.3617 2.43901 4.30179 2.485 4.25684L4.25688 2.48492C4.30183 2.43892 4.36175 2.4105 4.42581 2.40477C4.48988 2.39904 4.55388 2.41638 4.60629 2.45367L5.92609 3.37109C5.97445 3.4047 6.03131 3.42396 6.09013 3.42665C6.14895 3.42935 6.20733 3.41537 6.25855 3.38633C6.79758 3.08073 7.37212 2.84255 7.96926 2.67715C8.02599 2.66145 8.07713 2.63005 8.1168 2.58656C8.15647 2.54307 8.18305 2.48926 8.19348 2.43133L8.47797 0.849961C8.48867 0.786553 8.52166 0.729049 8.57099 0.687806C8.62033 0.646562 8.68277 0.62429 8.74707 0.625H11.2529C11.3172 0.624292 11.3797 0.646569 11.429 0.687821C11.4784 0.729072 11.5113 0.786585 11.522 0.85L11.8065 2.43137C11.817 2.4893 11.8435 2.54311 11.8832 2.5866C11.9229 2.63009 11.974 2.66149 12.0307 2.67719C12.6279 2.84257 13.2024 3.08075 13.7414 3.38637C13.7926 3.41542 13.851 3.4294 13.9099 3.4267C13.9687 3.42401 14.0255 3.40474 14.0739 3.37113L15.3938 2.45375C15.4462 2.41647 15.5102 2.39913 15.5742 2.40486C15.6383 2.41059 15.6982 2.43901 15.7432 2.485L17.5151 4.25691C17.5611 4.30188 17.5895 4.36178 17.5952 4.42583C17.6009 4.48989 17.5836 4.55388 17.5463 4.60629L16.6289 5.92609C16.5953 5.97445 16.576 6.03131 16.5733 6.09013C16.5707 6.14895 16.5846 6.20733 16.6137 6.25855C16.9193 6.79758 17.1574 7.37212 17.3229 7.96926C17.3385 8.02599 17.37 8.07713 17.4134 8.1168C17.4569 8.15647 17.5107 8.18305 17.5687 8.19348L19.15 8.47797C19.2134 8.48866 19.2709 8.52165 19.3122 8.57098C19.3534 8.62032 19.3757 8.68277 19.375 8.74707V11.2529C19.3757 11.3172 19.3534 11.3797 19.3122 11.429C19.2709 11.4784 19.2134 11.5113 19.15 11.522L17.5686 11.8065C17.5107 11.8169 17.4569 11.8435 17.4134 11.8832C17.3699 11.9228 17.3385 11.974 17.3228 12.0307C17.1574 12.6278 16.9192 13.2024 16.6136 13.7414C16.5846 13.7926 16.5706 13.851 16.5733 13.9099C16.576 13.9687 16.5953 14.0255 16.6289 14.0739L17.5463 15.3938C17.5836 15.4462 17.6009 15.5102 17.5952 15.5742C17.5894 15.6383 17.561 15.6982 17.515 15.7432L15.7431 17.5151C15.6982 17.5611 15.6383 17.5895 15.5742 17.5952C15.5102 17.6009 15.4462 17.5836 15.3937 17.5463L14.0739 16.6289C14.0256 16.5953 13.9687 16.576 13.9099 16.5733C13.8511 16.5707 13.7927 16.5846 13.7414 16.6137C13.2024 16.9193 12.6279 17.1574 12.0307 17.3228C11.974 17.3385 11.9229 17.3699 11.8832 17.4134C11.8435 17.4569 11.8169 17.5107 11.8065 17.5687L11.522 19.15C11.5113 19.2135 11.4784 19.271 11.429 19.3122C11.3797 19.3535 11.3172 19.3757 11.2529 19.375H8.74707C8.68276 19.3757 8.62031 19.3535 8.57097 19.3122C8.52163 19.2709 8.48865 19.2134 8.47797 19.15L8.19348 17.5687C8.18305 17.5107 8.15648 17.4569 8.11682 17.4134C8.07716 17.37 8.02602 17.3386 7.9693 17.3229C7.37216 17.1574 6.79762 16.9193 6.25859 16.6137C6.20737 16.5846 6.14898 16.5706 6.09015 16.5733C6.03132 16.576 5.97445 16.5953 5.92609 16.6289L4.60621 17.5463C4.5538 17.5836 4.48981 17.6009 4.42575 17.5952C4.3617 17.5895 4.3018 17.5611 4.25684 17.5151L2.48492 15.7432C2.43894 15.6982 2.41053 15.6383 2.4048 15.5742C2.39907 15.5102 2.4164 15.4462 2.45367 15.3938L3.37109 14.0739C3.4047 14.0256 3.42396 13.9687 3.42665 13.9099C3.42935 13.8511 3.41537 13.7927 3.38633 13.7414C3.08074 13.2024 2.84256 12.6279 2.67715 12.0307C2.66145 11.974 2.63005 11.9229 2.58656 11.8832C2.54307 11.8435 2.48926 11.817 2.43133 11.8065L0.85 11.522C0.786578 11.5113 0.72906 11.4783 0.687808 11.429C0.646556 11.3797 0.624282 11.3172 0.625 11.2529V8.74707Z" fill="#1A4BFA"/>
</g>
<defs>
<clipPath id="clip0_2128_1165">
<rect width="20" height="20" fill="white"/>
</clipPath>
</defs>
</svg>
