<svg width="20" height="20" viewBox="0 0 20 20" fill="none" xmlns="http://www.w3.org/2000/svg">
<path d="M19 16.5998C17.0105 15.5448 15.4845 14.9532 14.1261 14.7264L14.2667 14.5331C14.3334 14.4664 14.3667 14.3664 14.3334 14.2664L14.021 13.0169C14.1342 12.8569 14.241 12.6914 14.341 12.5213C15.5832 12.0985 16.2114 11.3839 16.3169 10.3317C16.8625 10.3033 17.3333 9.81628 17.3333 9.26644V6.76644C17.3333 6.21909 16.8979 5.73405 16.3275 5.70159C16.2541 3.77597 15.405 -0.000244141 10 -0.000244141C4.59488 -0.000244141 3.7459 3.77612 3.6725 5.70171C3.13137 5.73366 2.66668 6.188 2.66668 6.7664V9.2664C2.66668 9.83308 3.16668 10.3331 3.76668 10.3331H4.26668C4.45043 10.3331 4.62703 10.2803 4.78086 10.1899C4.96988 11.1932 5.38703 12.18 5.97906 13.0169L5.66668 14.2664C5.66668 14.3331 5.66668 14.4331 5.73336 14.5331L5.87395 14.7264C4.51551 14.9532 2.98949 15.5447 1.00004 16.5997C0.36668 16.8998 0 17.5331 0 18.2331V19.6664C0 19.8664 0.13332 19.9998 0.33332 19.9998H8.33332H8.46664H11.5333H11.6666H19.6666C19.8666 19.9998 20 19.8664 20 19.6664V18.2331C20 17.5664 19.6 16.9331 19 16.5998ZM10.0018 15.8373L10.8 17.6664H9.18887L10.0018 15.8373ZM8.94668 18.3331H11.052L11.2471 19.3331H8.74664L8.94668 18.3331ZM13.5 13.6664L13.6333 14.2664L13.2928 14.734C13.2711 14.7517 13.251 14.7733 13.2333 14.7998L11.8468 16.7196L11.4069 17.3236L10.5082 15.3017C11.6043 15.168 12.5803 14.6094 13.3628 13.8091C13.4091 13.7624 13.4548 13.715 13.5 13.6664ZM14.8016 11.5929C14.9896 11.1354 15.1313 10.6599 15.2209 10.1806C15.3479 10.2575 15.4923 10.3089 15.6481 10.3263C15.5904 10.7975 15.381 11.2423 14.8016 11.5929ZM16.6333 6.73308V9.23308C16.6333 9.43308 16.4666 9.63308 16.2333 9.63308H15.7333C15.5333 9.63308 15.3333 9.4664 15.3333 9.23308V8.99976V6.73308C15.3333 6.53308 15.5 6.33308 15.7333 6.33308H16.2333C16.4333 6.33308 16.6333 6.49976 16.6333 6.73308ZM10 0.666436C12.0546 0.666436 15.5124 1.33714 15.6611 5.70519C15.5214 5.71952 15.3876 5.76198 15.2666 5.82722C14.861 3.2889 12.6479 1.33308 10 1.33308C7.35242 1.33308 5.13961 3.28835 4.73355 5.82612C4.61434 5.76175 4.48121 5.71921 4.33887 5.70507C4.48762 1.33714 7.94547 0.666436 10 0.666436ZM4.63332 9.23308C4.63332 9.43308 4.46664 9.63308 4.23332 9.63308H3.73332C3.53332 9.63308 3.33332 9.4664 3.33332 9.23308V6.73308C3.33332 6.53308 3.5 6.33308 3.73332 6.33308H4.23332C4.43332 6.33308 4.63332 6.49976 4.63332 6.73308V9.23308ZM5.33332 6.66644C5.33332 4.09976 7.43332 1.99976 10 1.99976C12.5667 1.99976 14.6667 4.09976 14.6667 6.66644V8.99976C14.6667 10.1026 14.3796 11.1122 13.9141 11.9641C13.1185 12.1949 11.9739 12.3331 10.3334 12.3331C10.1334 12.3331 10 12.4664 10 12.6664C10 12.8664 10.1334 12.9997 10.3334 12.9997C11.5343 12.9997 12.5388 12.926 13.3613 12.7718C13.3409 12.7922 13.3204 12.8126 13.3 12.8331C13.1323 13.0567 12.9553 13.2605 12.7704 13.4444C11.9855 14.1756 11.0494 14.6185 10.1473 14.6624C10.1019 14.6429 10.051 14.6331 10 14.6331C9.94875 14.6331 9.90258 14.6431 9.86117 14.6628C9.30898 14.6375 8.74387 14.4625 8.2082 14.1631C7.66551 13.8513 7.155 13.4018 6.7 12.8331C6.66668 12.7998 6.63332 12.7664 6.6 12.7331L6.58055 12.7266C5.83195 11.7448 5.33332 10.4532 5.33332 8.99976V6.66644ZM9.49172 15.3017L8.59309 17.3236L8.15316 16.7196L6.76664 14.7998C6.75602 14.7891 6.7443 14.7786 6.73211 14.7683L6.36664 14.2664L6.49996 13.6664C6.54508 13.715 6.59086 13.7624 6.63703 13.809C7.41961 14.6094 8.3957 15.168 9.49172 15.3017ZM0.66668 18.2331C0.66668 17.7998 0.9 17.3998 1.3 17.1998C3.42473 16.071 4.95422 15.5045 6.31672 15.3353L8.30586 18.0703L8.05332 19.3331H0.66668V18.2331ZM19.3333 19.3331H11.9467L11.6941 18.0703L13.7048 15.3056C15.0625 15.5105 16.6195 16.0766 18.7 17.1664C19.1 17.3997 19.3334 17.7997 19.3334 18.2331L19.3333 19.3331Z" fill="#1A4BFA"/>
</svg>
