<svg width="20" height="20" viewBox="0 0 20 20" fill="none" xmlns="http://www.w3.org/2000/svg">
<path d="M17.9167 1.25H2.08332C0.93457 1.25 0 2.18457 0 3.33332V14.1666C0 15.3154 0.93457 16.25 2.08332 16.25H7.72164L9.67996 18.6C9.75914 18.695 9.87621 18.75 9.99996 18.75C10.1237 18.75 10.2408 18.695 10.32 18.6L12.2783 16.25H17.9166C19.0654 16.25 20 15.3154 20 14.1667V3.33332C20 2.18457 19.0654 1.25 17.9167 1.25ZM19.1667 14.1667C19.1667 14.8559 18.6059 15.4167 17.9167 15.4167H12.0833C11.9596 15.4167 11.8425 15.4717 11.7633 15.5667L10 17.6825L8.23668 15.5667C8.1575 15.4717 8.04043 15.4167 7.91668 15.4167H2.08332C1.39414 15.4167 0.83332 14.8559 0.83332 14.1667V3.33332C0.83332 2.64414 1.39414 2.08332 2.08332 2.08332H17.9166C18.6058 2.08332 19.1666 2.64414 19.1666 3.33332V14.1667H19.1667Z" fill="#1A4BFA"/>
<path d="M9.99871 6.66669C9.07953 6.66669 8.33203 7.41419 8.33203 8.33337C8.33203 9.25251 9.07953 10 9.99871 10C10.9179 10 11.6654 9.25251 11.6654 8.33333C11.6654 7.41419 10.9179 6.66669 9.99871 6.66669ZM9.99871 9.16669C9.53914 9.16669 9.16539 8.79294 9.16539 8.33337C9.16539 7.8738 9.53914 7.50005 9.99871 7.50005C10.4583 7.50005 10.832 7.8738 10.832 8.33337C10.832 8.79294 10.4583 9.16669 9.99871 9.16669Z" fill="#1A4BFA"/>
<path d="M14.9987 6.66669C14.0795 6.66669 13.332 7.41419 13.332 8.33337C13.332 9.25251 14.0795 10 14.9987 10C15.9179 10 16.6654 9.25251 16.6654 8.33333C16.6654 7.41419 15.9179 6.66669 14.9987 6.66669ZM14.9987 9.16669C14.5391 9.16669 14.1654 8.79294 14.1654 8.33337C14.1654 7.8738 14.5391 7.50005 14.9987 7.50005C15.4583 7.50005 15.832 7.8738 15.832 8.33337C15.832 8.79294 15.4583 9.16669 14.9987 9.16669Z" fill="#1A4BFA"/>
<path d="M4.99871 6.66669C4.07953 6.66669 3.33203 7.41419 3.33203 8.33337C3.33203 9.25251 4.07953 10 4.99871 10C5.91789 10 6.66539 9.25251 6.66539 8.33333C6.66539 7.41419 5.91789 6.66669 4.99871 6.66669ZM4.99871 9.16669C4.53914 9.16669 4.16539 8.79294 4.16539 8.33337C4.16539 7.8738 4.53914 7.50005 4.99871 7.50005C5.45828 7.50005 5.83203 7.8738 5.83203 8.33337C5.83203 8.79294 5.45828 9.16669 4.99871 9.16669Z" fill="#1A4BFA"/>
</svg>
