<svg width="41" height="40" viewBox="0 0 41 40" fill="none" xmlns="http://www.w3.org/2000/svg">
<g clip-path="url(#clip0_2170_1136)">
<path d="M35.9875 20.2049L31.6357 13.4847C31.2985 12.9638 30.7266 12.6528 30.106 12.6528H10.9055C10.2859 12.6528 9.71455 12.9631 9.37713 13.4826L5.01182 20.2037C4.56572 20.8904 4.63463 21.7971 5.17939 22.4085L19.1374 38.0788C19.4828 38.4667 19.9788 38.6892 20.4981 38.6892C20.4981 38.6892 20.4982 38.6892 20.4981 38.6892C21.0174 38.6892 21.5136 38.4667 21.8591 38.0789L35.8186 22.4077C36.3626 21.797 36.432 20.8912 35.9875 20.2049ZM29.2245 14.2153L25.5646 19.8746L21.9026 14.2153H29.2245ZM24.1288 20.5318H16.8675L20.4981 14.921L24.1288 20.5318ZM19.0937 14.2154L15.4417 19.8592L11.791 14.2154H19.0937ZM10.3464 14.8588L14.016 20.5318H6.66182L10.3464 14.8588ZM6.99182 22.0943H14.8547L19.0122 35.5892L6.99182 22.0943ZM20.4981 35.1055L16.4896 22.0943H24.5067L20.4981 35.1055ZM21.984 35.5897L26.1417 22.0944H34.0053L21.984 35.5897ZM27.0005 20.5318L30.6667 14.8627L34.3377 20.5318H27.0005Z" fill="white"/>
<path d="M2.86977 20.5317H1.28125C0.849844 20.5317 0.5 20.8815 0.5 21.313C0.5 21.7445 0.849844 22.0942 1.28125 22.0942H2.86977C3.30117 22.0942 3.65102 21.7445 3.65102 21.313C3.65102 20.8815 3.30117 20.5317 2.86977 20.5317Z" fill="white"/>
<path d="M39.7213 20.5317H38.1328C37.7014 20.5317 37.3516 20.8815 37.3516 21.313C37.3516 21.7445 37.7014 22.0942 38.1328 22.0942H39.7213C40.1527 22.0942 40.5026 21.7445 40.5026 21.313C40.5026 20.8815 40.1527 20.5317 39.7213 20.5317Z" fill="white"/>
<path d="M34.6515 7.1751C34.3463 6.87002 33.8518 6.87002 33.5465 7.1751L30.9515 9.77018C30.6464 10.0753 30.6464 10.5699 30.9515 10.875C31.1041 11.0276 31.304 11.1038 31.504 11.1038C31.704 11.1038 31.9038 11.0275 32.0564 10.875L34.6515 8.27994C34.9565 7.97486 34.9565 7.48025 34.6515 7.1751Z" fill="white"/>
<path d="M10.0811 9.75609L7.48607 7.16094C7.18107 6.85586 6.68654 6.85586 6.38115 7.16094C6.07607 7.46602 6.07607 7.9607 6.38115 8.26578L8.97623 10.8609C9.12881 11.0134 9.32873 11.0897 9.52865 11.0897C9.72857 11.0897 9.9285 11.0134 10.0811 10.8609C10.3862 10.5559 10.3862 10.0611 10.0811 9.75609Z" fill="white"/>
<path d="M20.5195 1.31299C20.0881 1.31299 19.7383 1.66275 19.7383 2.09424V7.18549C19.7383 7.61697 20.088 7.96674 20.5195 7.96674C20.9509 7.96674 21.3008 7.61697 21.3008 7.18549V2.09424C21.3008 1.66283 20.9509 1.31299 20.5195 1.31299Z" fill="white"/>
<path d="M21.0718 9.27578C20.9266 9.13047 20.725 9.04688 20.5195 9.04688C20.3141 9.04688 20.1125 9.13047 19.9672 9.27578C19.8219 9.42109 19.7383 9.62266 19.7383 9.82812C19.7383 10.0344 19.8218 10.2352 19.9672 10.3805C20.1125 10.5266 20.3141 10.6094 20.5195 10.6094C20.725 10.6094 20.9266 10.5266 21.0718 10.3805C21.2179 10.2352 21.3008 10.0336 21.3008 9.82812C21.3008 9.62266 21.2179 9.42117 21.0718 9.27578Z" fill="white"/>
</g>
<defs>
<clipPath id="clip0_2170_1136">
<rect width="40" height="40" fill="white" transform="translate(0.5 0.000976562)"/>
</clipPath>
</defs>
</svg>
