<svg width="41" height="40" viewBox="0 0 41 40" fill="none" xmlns="http://www.w3.org/2000/svg">
<path d="M27.345 17.3784C27.5227 16.934 27.6561 16.4451 27.6561 15.9562V14.9784C27.6561 13.0228 26.0561 11.4673 24.145 11.4673C22.3672 11.4673 20.9005 12.7562 20.6783 14.4451C20.4561 14.4006 20.2783 14.4006 20.0561 14.4006C19.8339 14.4006 19.6116 14.4451 19.4339 14.4451C19.1672 12.7562 17.7005 11.4673 15.9672 11.4673C14.0116 11.4673 12.4561 13.0673 12.4561 14.9784V15.9562C12.4561 16.4895 12.5894 16.9784 12.7672 17.3784C11.2561 18.4451 10.3672 20.134 10.3672 21.9562V23.4673C10.3672 24.4895 11.2116 25.3784 12.2783 25.3784H14.5005V26.4006C14.5005 27.4228 15.345 28.3117 16.4116 28.3117H23.8783C24.945 28.3117 25.7894 27.4673 25.7894 26.4006V25.3784H28.0116C29.0783 25.3784 29.9227 24.534 29.9227 23.4673V21.9562C29.7894 20.134 28.8561 18.4451 27.345 17.3784ZM24.145 12.8006C25.345 12.8006 26.3227 13.7784 26.3227 14.9784V15.9562C26.3227 17.1562 25.345 18.134 24.145 18.134C23.9227 18.134 23.745 18.0895 23.5672 18.0451V17.9117C23.5672 16.6673 22.945 15.6006 21.9672 14.9784C21.9672 13.734 22.945 12.8006 24.145 12.8006ZM22.2339 17.9117V18.8895C22.2339 20.0895 21.2561 21.0673 20.0561 21.0673C18.8561 21.0673 17.8783 20.0895 17.8783 18.8895V17.9117C17.8783 16.7117 18.8561 15.734 20.0561 15.734C21.2561 15.6895 22.2339 16.7117 22.2339 17.9117ZM13.745 14.9784C13.745 13.7784 14.7227 12.8006 15.9227 12.8006C17.1227 12.8006 18.1005 13.7784 18.1005 14.9784C17.1227 15.6006 16.5005 16.7117 16.5005 17.9117V18.0451C16.3227 18.0895 16.1005 18.134 15.9227 18.134C14.7227 18.134 13.745 17.1562 13.745 15.9562V14.9784ZM11.6561 23.5117V22.0006C11.6561 20.5784 12.3672 19.2895 13.5227 18.4895C14.145 19.1117 15.0339 19.4673 15.9672 19.4673C16.1894 19.4673 16.4116 19.4228 16.5894 19.4228C16.6339 19.734 16.7227 20.0451 16.8561 20.3562C15.6116 21.2451 14.7672 22.5784 14.5005 24.0895H12.2339C11.8783 24.0451 11.6561 23.8228 11.6561 23.5117ZM24.3227 26.4451C24.3227 26.7562 24.0561 27.0228 23.745 27.0228H16.3227C16.0116 27.0228 15.745 26.7562 15.745 26.4451V24.934C15.745 23.5117 16.4561 22.2228 17.6116 21.4228C18.2339 22.0451 19.1227 22.4006 20.0561 22.4006C20.9894 22.4006 21.8783 22.0451 22.5005 21.4228C23.6561 22.2228 24.3672 23.5117 24.3672 24.934V26.4451H24.3227ZM28.4561 23.5117C28.4561 23.8228 28.1894 24.0895 27.8783 24.0895H25.6116C25.3894 22.5784 24.545 21.2451 23.2561 20.3562C23.3894 20.0895 23.4783 19.7784 23.5227 19.4228C23.745 19.4673 23.9227 19.4673 24.145 19.4673C25.0783 19.4673 25.9672 19.1117 26.5894 18.4895C27.745 19.2895 28.4561 20.5784 28.4561 22.0006V23.5117Z" fill="white"/>
<path d="M39.8333 19.2005H34.7222C34.3667 11.6449 28.2778 5.55603 20.7222 5.20048V0.711589C20.7222 0.356033 20.4111 0.0449219 20.0556 0.0449219C19.7 0.0449219 19.3889 0.356033 19.3889 0.711589V5.24492C11.8333 5.60048 5.7 11.6894 5.38889 19.2449H1.16667C0.811111 19.2449 0.5 19.556 0.5 19.9116C0.5 20.2671 0.811111 20.5783 1.16667 20.5783H5.34444C5.7 28.1338 11.7889 34.2227 19.3444 34.5783V39.3338C19.3444 39.6894 19.6556 40.0005 20.0111 40.0005C20.3667 40.0005 20.6778 39.6894 20.6778 39.3338V34.5338C28.2333 34.1783 34.3667 28.0894 34.6778 20.5338H39.7889C40.1444 20.5338 40.4556 20.2227 40.4556 19.8671C40.4556 19.5116 40.1889 19.2005 39.8333 19.2005ZM20.0556 33.2005C12.6778 33.2005 6.67778 27.2005 6.67778 19.8671C6.67778 12.5338 12.6778 6.53381 20.0556 6.53381C27.4333 6.53381 33.4333 12.5338 33.4333 19.8671C33.3889 27.2449 27.3889 33.2005 20.0556 33.2005Z" fill="white"/>
</svg>
