<svg width="41" height="40" viewBox="0 0 41 40" fill="none" xmlns="http://www.w3.org/2000/svg">
<path d="M38.5 33.1995C34.5211 31.0895 31.4691 29.9064 28.7522 29.4528L29.0334 29.0662C29.1667 28.9329 29.2334 28.7329 29.1667 28.5329L28.542 26.0339C28.7684 25.7138 28.982 25.3829 29.182 25.0426C31.6664 24.1971 32.9227 22.7678 33.1338 20.6634C34.2251 20.6065 35.1666 19.6326 35.1666 18.5329V13.5329C35.1666 12.4382 34.2958 11.4681 33.1549 11.4032C33.0081 7.55193 31.31 -0.000488281 20.5 -0.000488281C9.68977 -0.000488281 7.9918 7.55225 7.845 11.4034C6.76273 11.4673 5.83336 12.376 5.83336 13.5328V18.5328C5.83336 19.6662 6.83336 20.6662 8.03336 20.6662H9.03336C9.40086 20.6662 9.75406 20.5605 10.0617 20.3797C10.4398 22.3864 11.2741 24.3601 12.4581 26.0338L11.8334 28.5328C11.8334 28.6662 11.8334 28.8662 11.9667 29.0662L12.2479 29.4527C9.53102 29.9064 6.47898 31.0894 2.50008 33.1994C1.23336 33.7995 0.5 35.0662 0.5 36.4662V39.3328C0.5 39.7329 0.766641 39.9995 1.16664 39.9995H17.1666H17.4333H23.5666H23.8333H39.8333C40.2333 39.9995 40.4999 39.7329 40.4999 39.3329V36.4662C40.5 35.1329 39.7 33.8662 38.5 33.1995ZM20.5037 31.6746L22.1 35.3329H18.8777L20.5037 31.6746ZM18.3934 36.6662H22.6041L22.9943 38.6662H17.9933L18.3934 36.6662ZM27.5 27.3329L27.7666 28.5329L27.0856 29.468C27.0422 29.5035 27.002 29.5465 26.9666 29.5995L24.1936 33.4391L23.3137 34.6472L21.5165 30.6034C23.7085 30.3361 25.6605 29.2189 27.2256 27.6181C27.3181 27.5248 27.4097 27.4301 27.5 27.3329ZM30.1032 23.1858C30.4792 22.2708 30.7627 21.3198 30.9419 20.3612C31.1957 20.515 31.4847 20.6177 31.7963 20.6526C31.6807 21.5949 31.262 22.4846 30.1032 23.1858ZM33.7666 13.4662V18.4662C33.7666 18.8662 33.4333 19.2662 32.9666 19.2662H31.9666C31.5666 19.2662 31.1666 18.9328 31.1666 18.4662V17.9995V13.4662C31.1666 13.0662 31.5 12.6662 31.9666 12.6662H32.9666C33.3666 12.6662 33.7666 12.9995 33.7666 13.4662ZM20.5 1.33287C24.6091 1.33287 31.5248 2.67428 31.8222 11.4104C31.5428 11.439 31.2752 11.524 31.0332 11.6544C30.222 6.57779 25.7959 2.66615 20.5 2.66615C15.2048 2.66615 10.7792 6.5767 9.96711 11.6522C9.72867 11.5235 9.46242 11.4384 9.17773 11.4101C9.47523 2.67428 16.3909 1.33287 20.5 1.33287ZM9.76664 18.4662C9.76664 18.8662 9.43328 19.2662 8.96664 19.2662H7.96664C7.56664 19.2662 7.16664 18.9328 7.16664 18.4662V13.4662C7.16664 13.0662 7.5 12.6662 7.96664 12.6662H8.96664C9.36664 12.6662 9.76664 12.9995 9.76664 13.4662V18.4662ZM11.1666 13.3329C11.1666 8.19951 15.3666 3.99951 20.5 3.99951C25.6334 3.99951 29.8334 8.19951 29.8334 13.3329V17.9995C29.8334 20.2051 29.2591 22.2244 28.3282 23.9282C26.737 24.3897 24.4478 24.6662 21.1667 24.6662C20.7667 24.6662 20.5001 24.9328 20.5001 25.3328C20.5001 25.7328 20.7667 25.9994 21.1667 25.9994C23.5687 25.9994 25.5775 25.8519 27.2226 25.5436C27.1817 25.5844 27.1409 25.6253 27.1 25.6662C26.7646 26.1133 26.4106 26.5211 26.0408 26.8887C24.471 28.3512 22.5987 29.237 20.7945 29.3247C20.7037 29.2858 20.602 29.2662 20.5 29.2662C20.3975 29.2662 20.3052 29.2862 20.2223 29.3256C19.118 29.275 17.9877 28.9249 16.9164 28.3262C15.831 27.7026 14.81 26.8036 13.9 25.6662C13.8334 25.5995 13.7666 25.5328 13.7 25.4662L13.6611 25.4532C12.1639 23.4896 11.1666 20.9064 11.1666 17.9995V13.3329ZM19.4834 30.6034L17.6862 34.6472L16.8063 33.4391L14.0333 29.5995C14.012 29.5783 13.9886 29.5572 13.9642 29.5365L13.2333 28.5329L13.4999 27.3329C13.5902 27.4301 13.6817 27.5247 13.7741 27.6179C15.3392 29.2187 17.2914 30.336 19.4834 30.6034ZM1.83336 36.4662C1.83336 35.5995 2.3 34.7995 3.1 34.3995C7.34945 32.142 10.4084 31.009 13.1334 30.6705L17.1117 36.1407L16.6066 38.6662H1.83336V36.4662ZM39.1666 38.6662H24.3934L23.8883 36.1407L27.9097 30.6112C30.6251 31.021 33.739 32.1532 37.9001 34.3328C38.7001 34.7994 39.1667 35.5994 39.1667 36.4662L39.1666 38.6662Z" fill="white"/>
</svg>
