<svg width="41" height="40" viewBox="0 0 41 40" fill="none" xmlns="http://www.w3.org/2000/svg">
<path d="M39.94 15.9858L35.816 15.5547C35.4893 14.4283 35.0386 13.3416 34.4723 12.3145L37.0845 9.09227C37.1818 8.97226 37.2312 8.82048 37.2231 8.66619C37.2151 8.51191 37.1502 8.36606 37.041 8.2568L32.2432 3.45898C32.134 3.34972 31.9881 3.2848 31.8338 3.27675C31.6795 3.2687 31.5277 3.31809 31.4077 3.41539L28.1854 6.02773C27.1584 5.46136 26.0717 5.01068 24.9452 4.68398L24.5142 0.56C24.4981 0.406326 24.4257 0.264052 24.3109 0.160636C24.1961 0.0572194 24.0471 -7.36991e-06 23.8926 7.11896e-10H17.1074C16.9529 -7.36991e-06 16.8039 0.0572194 16.6891 0.160636C16.5743 0.264052 16.5019 0.406326 16.4858 0.56L16.0547 4.68398C14.9282 5.01064 13.8415 5.46131 12.8145 6.02773L9.59227 3.41539C9.47224 3.31809 9.32042 3.2687 9.16612 3.27675C9.01182 3.2848 8.86597 3.34972 8.75672 3.45898L3.95891 8.2568C3.84956 8.36609 3.7846 8.51203 3.77658 8.66642C3.76855 8.82081 3.81804 8.9727 3.91547 9.09273L6.52773 12.315C5.96139 13.342 5.51071 14.4287 5.18398 15.5552L1.06 15.9859C0.90634 16.0019 0.764076 16.0743 0.660662 16.1891C0.557247 16.3039 0.500012 16.4529 0.5 16.6074V23.3926C0.499993 23.5471 0.557219 23.6961 0.660636 23.8109C0.764052 23.9257 0.906326 23.9981 1.06 24.0142L5.18398 24.4453C5.51066 25.5717 5.96134 26.6584 6.52773 27.6855L3.91547 30.9077C3.81817 31.0277 3.76877 31.1795 3.77679 31.3338C3.78481 31.4881 3.84969 31.6339 3.95891 31.7432L8.7568 36.541C8.86607 36.6504 9.012 36.7154 9.16639 36.7234C9.32078 36.7315 9.47268 36.682 9.59273 36.5846L12.815 33.9723C13.842 34.5386 14.9287 34.9893 16.0552 35.316L16.4862 39.4399C16.5022 39.5935 16.5746 39.7358 16.6893 39.8392C16.804 39.9426 16.953 39.9999 17.1074 40H23.8926C24.0471 40 24.1961 39.9428 24.3109 39.8394C24.4257 39.7359 24.4981 39.5937 24.5142 39.44L24.9452 35.3161C26.0717 34.9895 27.1584 34.5388 28.1854 33.9723L31.4077 36.5846C31.5278 36.6819 31.6796 36.7313 31.8339 36.7233C31.9882 36.7153 32.134 36.6503 32.2433 36.5411L37.0411 31.7433C37.1503 31.634 37.2152 31.4882 37.2232 31.3338C37.2313 31.1795 37.1819 31.0277 37.0845 30.9077L34.4723 27.6855C35.0386 26.6584 35.4893 25.5717 35.816 24.4453L39.9399 24.0142C40.0936 23.9982 40.2359 23.9258 40.3393 23.811C40.4428 23.6962 40.5 23.5471 40.5 23.3926V16.6074C40.5 16.4529 40.4428 16.3039 40.3394 16.1891C40.2359 16.0743 40.0937 16.0019 39.94 15.9858ZM39.25 22.8295L35.2616 23.2464C35.1351 23.2596 35.0156 23.3112 34.9192 23.3941C34.8227 23.4771 34.7538 23.5875 34.7218 23.7106C34.3818 25.016 33.8626 26.2679 33.1791 27.4308C33.1146 27.5405 33.0852 27.6673 33.0947 27.7942C33.1043 27.9211 33.1524 28.0421 33.2325 28.1409L35.759 31.2578L31.7578 35.259L28.6406 32.7324C28.5418 32.6523 28.4208 32.6042 28.2939 32.5946C28.1669 32.5851 28.0401 32.6145 27.9304 32.679C26.7678 33.3626 25.5161 33.8818 24.2109 34.2218C24.0878 34.2538 23.9774 34.3227 23.8944 34.4192C23.8115 34.5157 23.7599 34.6352 23.7467 34.7617L23.3295 38.75H17.6705L17.2536 34.7617C17.2404 34.6352 17.1888 34.5157 17.1059 34.4192C17.0229 34.3227 16.9125 34.2538 16.7894 34.2218C15.484 33.8818 14.2321 33.3626 13.0692 32.679C12.9595 32.6145 12.8327 32.5851 12.7058 32.5947C12.5789 32.6042 12.4579 32.6523 12.3591 32.7324L9.24219 35.2591L5.24102 31.2578L7.76758 28.1413C7.84774 28.0425 7.89582 27.9215 7.90537 27.7946C7.91492 27.6676 7.88549 27.5408 7.82102 27.4311C7.13743 26.2682 6.61822 25.0163 6.2782 23.7109C6.24616 23.5878 6.17731 23.4774 6.08085 23.3944C5.98438 23.3115 5.8649 23.26 5.73836 23.2467L1.75 22.8295V17.1705L5.73836 16.7536C5.86491 16.7404 5.9844 16.6888 6.08086 16.6058C6.17733 16.5229 6.24618 16.4124 6.2782 16.2893C6.61823 14.984 7.13744 13.732 7.82102 12.5691C7.88544 12.4594 7.91484 12.3326 7.90527 12.2057C7.89571 12.0788 7.84764 11.9579 7.7675 11.8591L5.24102 8.74219L9.24219 4.74102L12.3594 7.26758C12.4582 7.34773 12.5792 7.39579 12.7061 7.40533C12.8331 7.41486 12.9599 7.38542 13.0696 7.32094C14.2324 6.6374 15.4842 6.1182 16.7895 5.77812C16.9126 5.74607 17.023 5.67721 17.1059 5.58075C17.1888 5.48428 17.2404 5.36481 17.2536 5.23828L17.6705 1.25H23.3295L23.7464 5.23828C23.7596 5.36483 23.8112 5.48433 23.8941 5.58081C23.9771 5.6773 24.0875 5.74616 24.2106 5.7782C25.516 6.11819 26.7679 6.6374 27.9308 7.32102C28.0405 7.38547 28.1673 7.41489 28.2942 7.40534C28.4211 7.39579 28.5421 7.34773 28.6409 7.26758L31.7578 4.74094L35.7593 8.7425L33.2325 11.8594C33.1524 11.9582 33.1043 12.0792 33.0947 12.2061C33.0852 12.333 33.1146 12.4598 33.1791 12.5695C33.8626 13.7322 34.3817 14.9839 34.7218 16.2891C34.7538 16.4122 34.8227 16.5226 34.9192 16.6056C35.0156 16.6885 35.1351 16.74 35.2616 16.7533L39.25 17.1705V22.8295ZM20.5 9.92188C18.5067 9.92188 16.5582 10.5129 14.9009 11.6203C13.2436 12.7277 11.9518 14.3017 11.189 16.1433C10.4262 17.9848 10.2267 20.0112 10.6155 21.9661C11.0044 23.9211 11.9642 25.7169 13.3737 27.1263C14.7831 28.5358 16.5789 29.4956 18.5339 29.8845C20.4888 30.2733 22.5152 30.0738 24.3567 29.311C26.1983 28.5482 27.7723 27.2564 28.8797 25.5991C29.9871 23.9418 30.5781 21.9933 30.5781 20C30.5751 17.328 29.5123 14.7664 27.623 12.877C25.7336 10.9877 23.172 9.92489 20.5 9.92188ZM20.5 28.8281C18.754 28.8281 17.0471 28.3104 15.5954 27.3403C14.1436 26.3703 13.0121 24.9915 12.3439 23.3784C11.6757 21.7652 11.5009 19.9902 11.8415 18.2777C12.1821 16.5652 13.0229 14.9922 14.2576 13.7576C15.4922 12.5229 17.0652 11.6821 18.7777 11.3415C20.4902 11.0009 22.2652 11.1757 23.8784 11.8439C25.4915 12.5121 26.8703 13.6436 27.8403 15.0954C28.8104 16.5471 29.3281 18.254 29.3281 20C29.3255 22.3406 28.3945 24.5845 26.7395 26.2395C25.0845 27.8945 22.8406 28.8255 20.5 28.8281ZM21.125 13.713V20C21.1251 20.144 21.0754 20.2837 20.9844 20.3953L17.9038 24.1679C17.7989 24.2963 17.6474 24.3778 17.4824 24.3944C17.3175 24.4111 17.1527 24.3615 17.0243 24.2567C16.8959 24.1518 16.8145 24.0003 16.7978 23.8354C16.7812 23.6704 16.8307 23.5057 16.9355 23.3773L19.875 19.7773V13.713C19.875 13.5473 19.9408 13.3883 20.0581 13.2711C20.1753 13.1539 20.3342 13.088 20.5 13.088C20.6658 13.088 20.8247 13.1539 20.9419 13.2711C21.0592 13.3883 21.125 13.5473 21.125 13.713ZM20.5 7.63109C13.6797 7.63109 8.13109 13.1797 8.13109 20C8.13109 26.8203 13.6797 32.3689 20.5 32.3689C27.3203 32.3689 32.8689 26.8203 32.8689 20C32.8689 13.1797 27.3203 7.63109 20.5 7.63109ZM20.5 31.1189C14.369 31.1189 9.38109 26.131 9.38109 20C9.38109 13.869 14.369 8.88109 20.5 8.88109C26.631 8.88109 31.6189 13.869 31.6189 20C31.6189 26.131 26.631 31.1189 20.5 31.1189Z" fill="white"/>
</svg>
