<svg width="12" height="32" viewBox="0 0 12 32" fill="none" xmlns="http://www.w3.org/2000/svg">
<path d="M0.875 11.8114V15.3805C0.875 16.4749 1.76234 17.3589 2.85343 17.3589H3.59288V30.0216C3.59288 31.1159 4.48022 32 5.57131 32H9.14038C10.2348 32 11.1188 31.1127 11.1188 30.0216V11.8114C11.1188 10.7171 10.2315 9.83301 9.14038 9.83301H7.98356H6.10043H2.85343C1.75905 9.83301 0.875 10.7203 0.875 11.8114Z" fill="white"/>
<path d="M7.36 7.5325C9.44005 7.5325 11.1263 5.8463 11.1263 3.76625C11.1263 1.68621 9.44005 0 7.36 0C5.27996 0 3.59375 1.68621 3.59375 3.76625C3.59375 5.8463 5.27996 7.5325 7.36 7.5325Z" fill="white"/>
</svg>
