<svg width="28" height="28" viewBox="0 0 28 28" fill="none" xmlns="http://www.w3.org/2000/svg">
<path d="M12.7012 27.2668C9.27895 26.9334 6.42339 25.5001 4.13451 22.9668C1.84562 20.4334 0.701172 17.4445 0.701172 14.0001C0.701172 10.5556 1.84562 7.56676 4.13451 5.03343C6.42339 2.5001 9.27895 1.06676 12.7012 0.733429V4.73343C10.3901 5.04454 8.47895 6.07787 6.96784 7.83343C5.45673 9.58898 4.70117 11.6445 4.70117 14.0001C4.70117 16.3556 5.45673 18.4112 6.96784 20.1668C8.47895 21.9223 10.3901 22.9556 12.7012 23.2668V27.2668ZM15.3678 27.2668V23.2668C17.4567 23.0001 19.2234 22.1334 20.6678 20.6668C22.1123 19.2001 22.9901 17.4223 23.3012 15.3334H27.3012C26.9901 18.5112 25.7178 21.2168 23.4845 23.4501C21.2512 25.6834 18.5456 26.9556 15.3678 27.2668ZM23.3012 12.6668C22.9901 10.5779 22.1123 8.8001 20.6678 7.33343C19.2234 5.86676 17.4567 5.0001 15.3678 4.73343V0.733429C18.5456 1.04454 21.2512 2.31676 23.4845 4.5501C25.7178 6.78343 26.9901 9.48898 27.3012 12.6668H23.3012Z" fill="white"/>
</svg>
