<svg width="28" height="32" viewBox="0 0 28 32" fill="none" xmlns="http://www.w3.org/2000/svg">
<path d="M10.2188 22.6555H17.7794V29.6128H10.2188V22.6555Z" fill="white"/>
<path d="M25.9683 2.92017V22.7173C25.9683 23.1383 25.6265 23.48 25.2055 23.48H2.79207C2.37102 23.48 2.0293 23.1383 2.0293 22.7173V2.92017H25.9683Z" fill="white"/>
<path d="M27.2372 3.31654H0.762776C0.341495 3.31654 0 2.97505 0 2.55377V1.57528C0 1.154 0.341495 0.8125 0.762776 0.8125H27.2372C27.6585 0.8125 28 1.154 28 1.57528V2.55384C28 2.97505 27.6585 3.31654 27.2372 3.31654Z" fill="white"/>
<path d="M9.48053 17.3639H7.02592C6.81532 17.3639 6.64453 17.1931 6.64453 16.9825C6.64453 16.7719 6.81532 16.6011 7.02592 16.6011H9.48053C9.69114 16.6011 9.86192 16.7719 9.86192 16.9825C9.86192 17.1931 9.69114 17.3639 9.48053 17.3639Z" fill="#6734FB"/>
<path d="M12.5316 18.9122H7.02592C6.81532 18.9122 6.64453 18.7414 6.64453 18.5308C6.64453 18.3202 6.81532 18.1494 7.02592 18.1494H12.5316C12.7422 18.1494 12.913 18.3202 12.913 18.5308C12.913 18.7414 12.7422 18.9122 12.5316 18.9122Z" fill="#6734FB"/>
<path d="M12.5316 20.46H7.02592C6.81532 20.46 6.64453 20.2893 6.64453 20.0787C6.64453 19.8681 6.81532 19.6973 7.02592 19.6973H12.5316C12.7422 19.6973 12.913 19.8681 12.913 20.0787C12.913 20.2893 12.7422 20.46 12.5316 20.46Z" fill="#6734FB"/>
<path d="M17.9278 17.3643H15.4732C15.2626 17.3643 15.0918 17.1936 15.0918 16.983C15.0918 16.7723 15.2626 16.6016 15.4732 16.6016H17.9278C18.1384 16.6016 18.3092 16.7723 18.3092 16.983C18.3092 17.1936 18.1384 17.3643 17.9278 17.3643Z" fill="#6734FB"/>
<path d="M20.9789 18.9122H15.4732C15.2626 18.9122 15.0918 18.7414 15.0918 18.5308C15.0918 18.3202 15.2626 18.1494 15.4732 18.1494H20.9789C21.1895 18.1494 21.3603 18.3202 21.3603 18.5308C21.3603 18.7414 21.1895 18.9122 20.9789 18.9122Z" fill="#6734FB"/>
<path d="M20.9789 20.4603H15.4732C15.2626 20.4603 15.0918 20.2895 15.0918 20.0789C15.0918 19.8683 15.2626 19.6975 15.4732 19.6975H20.9789C21.1895 19.6975 21.3603 19.8683 21.3603 20.0789C21.3603 20.2895 21.1895 20.4603 20.9789 20.4603Z" fill="#6734FB"/>
<path d="M13.4516 11.8531H8.66475C8.11441 11.8531 7.64019 11.431 7.61311 10.8814C7.58413 10.294 8.05377 9.80669 8.63508 9.80669H19.3269C20.4845 9.80669 21.4642 8.90082 21.4985 7.74369C21.5342 6.5414 20.5666 5.552 19.3722 5.552H12.1173C11.815 5.552 11.5514 5.78495 11.5424 6.08709C11.533 6.39975 11.7837 6.65612 12.0942 6.65612H19.3425C19.8927 6.65612 20.367 7.07809 20.3941 7.62775C20.4231 8.21531 19.9535 8.70257 19.3722 8.70257H8.68031C7.52273 8.70257 6.54309 9.60845 6.50877 10.7655C6.47314 11.9678 7.44073 12.9571 8.63516 12.9571H13.4516C13.7565 12.9571 14.0037 12.71 14.0037 12.4051C14.0036 12.1002 13.7564 11.8531 13.4516 11.8531Z" fill="#6734FB"/>
<path d="M21.0758 12.0476L18.7433 10.9081C18.3353 10.7088 17.966 11.2391 18.2943 11.5528L18.6084 11.8527H15.8801C15.5753 11.8527 15.3281 12.0998 15.3281 12.4047C15.3281 12.7096 15.5753 12.9567 15.8801 12.9567H18.6084L18.2943 13.2567C17.966 13.5702 18.3354 14.1005 18.7433 13.9013L21.0758 12.7618C21.3731 12.6166 21.3731 12.1928 21.0758 12.0476Z" fill="#6734FB"/>
<path d="M7.18063 6.65605H9.81114C10.116 6.65605 10.3632 6.40891 10.3632 6.10402C10.3632 5.79914 10.116 5.552 9.81114 5.552H7.15752C6.84699 5.552 6.59634 5.80837 6.60572 6.12103C6.6148 6.42317 6.87834 6.65605 7.18063 6.65605Z" fill="#6734FB"/>
<path d="M11.1744 10.4932C11.8587 10.4932 12.4133 9.93851 12.4133 9.25428C12.4133 8.57006 11.8587 8.01538 11.1744 8.01538C10.4902 8.01538 9.93555 8.57006 9.93555 9.25428C9.93555 9.93851 10.4902 10.4932 11.1744 10.4932Z" fill="#6734FB"/>
<path d="M11.1751 9.80595C11.4799 9.80595 11.7271 9.5588 11.7271 9.25393C11.7271 8.94905 11.4799 8.7019 11.1751 8.7019C10.8702 8.7019 10.623 8.94905 10.623 9.25393C10.623 9.5588 10.8702 9.80595 11.1751 9.80595Z" fill="white"/>
<path d="M16.4928 7.34255C17.177 7.34255 17.7317 6.78787 17.7317 6.10365C17.7317 5.41942 17.177 4.86475 16.4928 4.86475C15.8086 4.86475 15.2539 5.41942 15.2539 6.10365C15.2539 6.78787 15.8086 7.34255 16.4928 7.34255Z" fill="#6734FB"/>
<path d="M16.4895 6.65531C16.7944 6.65531 17.0415 6.40816 17.0415 6.10329C17.0415 5.79842 16.7944 5.55127 16.4895 5.55127C16.1846 5.55127 15.9375 5.79842 15.9375 6.10329C15.9375 6.40816 16.1846 6.65531 16.4895 6.65531Z" fill="white"/>
<path d="M21.1557 31.4376H6.84233C6.63172 31.4376 6.46094 31.2668 6.46094 31.0562V29.9944C6.46094 29.7838 6.63172 29.613 6.84233 29.613H21.1557C21.3663 29.613 21.5371 29.7838 21.5371 29.9944V31.0561C21.5371 31.2668 21.3664 31.4376 21.1557 31.4376Z" fill="white"/>
<path d="M12.002 27.9402V26.4009C12.002 26.1903 12.1727 26.0195 12.3833 26.0195C12.5939 26.0195 12.7647 26.1903 12.7647 26.4009V27.9402C12.7647 28.1508 12.5939 28.3216 12.3833 28.3216C12.1727 28.3216 12.002 28.1508 12.002 27.9402Z" fill="#6734FB"/>
<path d="M13.6172 27.9404V27.3164C13.6172 27.1058 13.788 26.9351 13.9986 26.9351C14.2092 26.9351 14.38 27.1058 14.38 27.3164V27.9404C14.38 28.151 14.2092 28.3218 13.9986 28.3218C13.788 28.3218 13.6172 28.151 13.6172 27.9404Z" fill="#6734FB"/>
<path d="M15.2441 27.9402V26.4009C15.2441 26.1903 15.4149 26.0195 15.6255 26.0195C15.8361 26.0195 16.0069 26.1903 16.0069 26.4009V27.9402C16.0069 28.1508 15.8361 28.3216 15.6255 28.3216C15.4149 28.3216 15.2441 28.1508 15.2441 27.9402Z" fill="#6734FB"/>
</svg>
