<svg width="281" height="276" viewBox="0 0 281 276" fill="none" xmlns="http://www.w3.org/2000/svg">
<rect y="0.698608" width="280.246" height="274.603" rx="15" fill="white"/>
<rect x="17.8672" y="104.145" width="246.39" height="28.2126" rx="14.1063" fill="#F1F6FE"/>
<circle cx="141.063" cy="118.251" r="10.3446" fill="#1A4BFA"/>
<circle cx="106.267" cy="216.055" r="2.82126" fill="#1A4BFA"/>
<circle cx="70.5322" cy="216.055" r="2.82126" fill="#1A4BFA"/>
<circle cx="176.798" cy="172.796" r="2.82126" fill="#1A4BFA"/>
<path d="M35.4724 247.983H29.6044V246.867L31.7884 244.659C32.2204 244.219 32.5724 243.843 32.8444 243.531C33.1244 243.211 33.3284 242.915 33.4564 242.643C33.5924 242.371 33.6604 242.075 33.6604 241.755C33.6604 241.363 33.5484 241.071 33.3244 240.879C33.1004 240.679 32.8044 240.579 32.4364 240.579C32.0764 240.579 31.7404 240.655 31.4284 240.807C31.1164 240.951 30.7924 241.159 30.4564 241.431L29.6284 240.435C29.8684 240.227 30.1244 240.039 30.3964 239.871C30.6684 239.695 30.9764 239.555 31.3204 239.451C31.6644 239.347 32.0644 239.295 32.5204 239.295C33.0724 239.295 33.5444 239.395 33.9364 239.595C34.3364 239.787 34.6444 240.055 34.8604 240.399C35.0764 240.743 35.1844 241.143 35.1844 241.599C35.1844 241.951 35.1324 242.279 35.0284 242.583C34.9244 242.879 34.7724 243.171 34.5724 243.459C34.3724 243.747 34.1284 244.039 33.8404 244.335C33.5524 244.631 33.2284 244.951 32.8684 245.295L31.5124 246.603V246.675H35.4724V247.983ZM40.1076 239.307C40.6036 239.307 41.0516 239.383 41.4516 239.535C41.8516 239.687 42.1716 239.915 42.4116 240.219C42.6516 240.523 42.7716 240.903 42.7716 241.359C42.7716 241.703 42.6996 242.007 42.5556 242.271C42.4196 242.527 42.2316 242.751 41.9916 242.943C41.7596 243.135 41.4956 243.307 41.1996 243.459C41.5276 243.619 41.8316 243.807 42.1116 244.023C42.3916 244.231 42.6156 244.479 42.7836 244.767C42.9596 245.047 43.0476 245.379 43.0476 245.763C43.0476 246.235 42.9236 246.647 42.6756 246.999C42.4356 247.351 42.0956 247.623 41.6556 247.815C41.2156 248.007 40.7036 248.103 40.1196 248.103C39.4876 248.103 38.9516 248.011 38.5116 247.827C38.0716 247.643 37.7356 247.379 37.5036 247.035C37.2716 246.691 37.1556 246.283 37.1556 245.811C37.1556 245.419 37.2316 245.079 37.3836 244.791C37.5436 244.503 37.7516 244.255 38.0076 244.047C38.2636 243.831 38.5436 243.651 38.8476 243.507C38.5836 243.347 38.3436 243.167 38.1276 242.967C37.9116 242.759 37.7396 242.527 37.6116 242.271C37.4916 242.007 37.4316 241.699 37.4316 241.347C37.4316 240.899 37.5516 240.523 37.7916 240.219C38.0396 239.915 38.3636 239.687 38.7636 239.535C39.1716 239.383 39.6196 239.307 40.1076 239.307ZM38.5956 245.739C38.5956 246.091 38.7196 246.383 38.9676 246.615C39.2156 246.839 39.5916 246.951 40.0956 246.951C40.4316 246.951 40.7076 246.903 40.9236 246.807C41.1476 246.703 41.3156 246.559 41.4276 246.375C41.5476 246.191 41.6076 245.979 41.6076 245.739C41.6076 245.499 41.5396 245.287 41.4036 245.103C41.2676 244.919 41.0916 244.755 40.8756 244.611C40.6596 244.467 40.4196 244.335 40.1556 244.215L39.9876 244.131C39.6996 244.259 39.4516 244.403 39.2436 244.563C39.0356 244.715 38.8756 244.887 38.7636 245.079C38.6516 245.271 38.5956 245.491 38.5956 245.739ZM40.0956 240.447C39.7436 240.447 39.4516 240.535 39.2196 240.711C38.9956 240.887 38.8836 241.135 38.8836 241.455C38.8836 241.687 38.9396 241.887 39.0516 242.055C39.1636 242.223 39.3116 242.367 39.4956 242.487C39.6876 242.607 39.8956 242.723 40.1196 242.835C40.3436 242.731 40.5436 242.619 40.7196 242.499C40.9036 242.379 41.0476 242.235 41.1516 242.067C41.2636 241.899 41.3196 241.695 41.3196 241.455C41.3196 241.135 41.2036 240.887 40.9716 240.711C40.7476 240.535 40.4556 240.447 40.0956 240.447Z" fill="#173343"/>
<path d="M70.2693 247.983H64.4013V246.867L66.5853 244.659C67.0173 244.219 67.3693 243.843 67.6413 243.531C67.9213 243.211 68.1253 242.915 68.2533 242.643C68.3893 242.371 68.4573 242.075 68.4573 241.755C68.4573 241.363 68.3453 241.071 68.1213 240.879C67.8973 240.679 67.6013 240.579 67.2333 240.579C66.8733 240.579 66.5373 240.655 66.2253 240.807C65.9133 240.951 65.5893 241.159 65.2533 241.431L64.4253 240.435C64.6653 240.227 64.9213 240.039 65.1933 239.871C65.4653 239.695 65.7733 239.555 66.1173 239.451C66.4613 239.347 66.8613 239.295 67.3173 239.295C67.8693 239.295 68.3413 239.395 68.7333 239.595C69.1333 239.787 69.4413 240.055 69.6573 240.399C69.8733 240.743 69.9813 241.143 69.9813 241.599C69.9813 241.951 69.9293 242.279 69.8253 242.583C69.7213 242.879 69.5693 243.171 69.3693 243.459C69.1693 243.747 68.9253 244.039 68.6373 244.335C68.3493 244.631 68.0253 244.951 67.6653 245.295L66.3093 246.603V246.675H70.2693V247.983ZM77.8325 243.075C77.8325 243.563 77.7965 244.051 77.7245 244.539C77.6525 245.019 77.5285 245.475 77.3525 245.907C77.1765 246.331 76.9325 246.711 76.6205 247.047C76.3085 247.375 75.9085 247.635 75.4205 247.827C74.9405 248.011 74.3565 248.103 73.6685 248.103C73.5085 248.103 73.3165 248.095 73.0925 248.079C72.8765 248.063 72.6965 248.039 72.5525 248.007V246.759C72.7045 246.799 72.8685 246.831 73.0445 246.855C73.2285 246.879 73.4085 246.891 73.5845 246.891C74.1285 246.891 74.5765 246.819 74.9285 246.675C75.2885 246.523 75.5685 246.315 75.7685 246.051C75.9765 245.779 76.1285 245.463 76.2245 245.103C76.3205 244.735 76.3765 244.343 76.3925 243.927H76.3205C76.2005 244.111 76.0565 244.279 75.8885 244.431C75.7285 244.583 75.5245 244.703 75.2765 244.791C75.0365 244.879 74.7325 244.923 74.3645 244.923C73.8765 244.923 73.4485 244.819 73.0805 244.611C72.7205 244.403 72.4405 244.103 72.2405 243.711C72.0405 243.311 71.9405 242.827 71.9405 242.259C71.9405 241.643 72.0565 241.115 72.2885 240.675C72.5205 240.235 72.8485 239.899 73.2725 239.667C73.7045 239.427 74.2085 239.307 74.7845 239.307C75.2165 239.307 75.6165 239.387 75.9845 239.547C76.3525 239.699 76.6725 239.931 76.9445 240.243C77.2245 240.547 77.4405 240.935 77.5925 241.407C77.7525 241.879 77.8325 242.435 77.8325 243.075ZM74.8085 240.555C74.4005 240.555 74.0685 240.691 73.8125 240.963C73.5565 241.235 73.4285 241.659 73.4285 242.235C73.4285 242.707 73.5365 243.079 73.7525 243.351C73.9765 243.615 74.3165 243.747 74.7725 243.747C75.0845 243.747 75.3525 243.679 75.5765 243.543C75.8085 243.407 75.9885 243.239 76.1165 243.039C76.2445 242.839 76.3085 242.627 76.3085 242.403C76.3085 242.187 76.2765 241.971 76.2125 241.755C76.1485 241.531 76.0525 241.327 75.9245 241.143C75.8045 240.959 75.6485 240.815 75.4565 240.711C75.2725 240.607 75.0565 240.555 74.8085 240.555Z" fill="#173343"/>
<path d="M104.728 241.371C104.728 241.755 104.648 242.091 104.488 242.379C104.336 242.667 104.124 242.903 103.852 243.087C103.58 243.263 103.264 243.391 102.904 243.471V243.507C103.592 243.587 104.112 243.799 104.464 244.143C104.816 244.487 104.992 244.943 104.992 245.511C104.992 246.007 104.872 246.451 104.632 246.843C104.392 247.235 104.02 247.543 103.516 247.767C103.02 247.991 102.38 248.103 101.596 248.103C101.132 248.103 100.7 248.063 100.3 247.983C99.9002 247.911 99.5242 247.795 99.1722 247.635V246.303C99.5322 246.487 99.9162 246.627 100.324 246.723C100.732 246.819 101.116 246.867 101.476 246.867C102.172 246.867 102.664 246.743 102.952 246.495C103.24 246.239 103.384 245.887 103.384 245.439C103.384 245.151 103.312 244.915 103.168 244.731C103.024 244.547 102.788 244.411 102.46 244.323C102.14 244.227 101.72 244.179 101.2 244.179H100.48V242.967H101.212C101.716 242.967 102.112 242.911 102.4 242.799C102.696 242.687 102.904 242.531 103.024 242.331C103.152 242.131 103.216 241.899 103.216 241.635C103.216 241.291 103.104 241.023 102.88 240.831C102.656 240.639 102.32 240.543 101.872 240.543C101.584 240.543 101.324 240.575 101.092 240.639C100.86 240.703 100.648 240.787 100.456 240.891C100.264 240.987 100.084 241.091 99.9162 241.203L99.1962 240.159C99.4122 239.999 99.6562 239.855 99.9282 239.727C100.2 239.591 100.504 239.487 100.84 239.415C101.176 239.335 101.544 239.295 101.944 239.295C102.832 239.295 103.516 239.483 103.996 239.859C104.484 240.227 104.728 240.731 104.728 241.371ZM112.627 243.687C112.627 244.383 112.575 245.003 112.471 245.547C112.367 246.091 112.195 246.555 111.955 246.939C111.723 247.315 111.419 247.603 111.043 247.803C110.675 248.003 110.223 248.103 109.687 248.103C109.015 248.103 108.463 247.927 108.031 247.575C107.599 247.223 107.279 246.719 107.071 246.063C106.863 245.399 106.759 244.607 106.759 243.687C106.759 242.767 106.855 241.979 107.047 241.323C107.239 240.667 107.547 240.163 107.971 239.811C108.403 239.459 108.975 239.283 109.687 239.283C110.359 239.283 110.911 239.459 111.343 239.811C111.775 240.155 112.095 240.659 112.303 241.323C112.519 241.979 112.627 242.767 112.627 243.687ZM108.283 243.699C108.283 244.395 108.327 244.979 108.415 245.451C108.503 245.915 108.647 246.267 108.847 246.507C109.055 246.739 109.335 246.855 109.687 246.855C110.039 246.855 110.315 246.739 110.515 246.507C110.723 246.275 110.871 245.923 110.959 245.451C111.055 244.979 111.103 244.395 111.103 243.699C111.103 242.995 111.055 242.411 110.959 241.947C110.871 241.475 110.723 241.123 110.515 240.891C110.315 240.651 110.039 240.531 109.687 240.531C109.335 240.531 109.055 240.651 108.847 240.891C108.647 241.123 108.503 241.471 108.415 241.935C108.327 242.399 108.283 242.987 108.283 243.699Z" fill="#173343"/>
<path d="M139.523 241.371C139.523 241.755 139.443 242.091 139.283 242.379C139.131 242.667 138.919 242.903 138.647 243.087C138.375 243.263 138.059 243.391 137.699 243.471V243.507C138.387 243.587 138.907 243.799 139.259 244.143C139.611 244.487 139.787 244.943 139.787 245.511C139.787 246.007 139.667 246.451 139.427 246.843C139.187 247.235 138.815 247.543 138.311 247.767C137.815 247.991 137.175 248.103 136.391 248.103C135.927 248.103 135.495 248.063 135.095 247.983C134.695 247.911 134.319 247.795 133.967 247.635V246.303C134.327 246.487 134.711 246.627 135.119 246.723C135.527 246.819 135.911 246.867 136.271 246.867C136.967 246.867 137.459 246.743 137.747 246.495C138.035 246.239 138.179 245.887 138.179 245.439C138.179 245.151 138.107 244.915 137.963 244.731C137.819 244.547 137.583 244.411 137.255 244.323C136.935 244.227 136.515 244.179 135.995 244.179H135.275V242.967H136.007C136.511 242.967 136.907 242.911 137.195 242.799C137.491 242.687 137.699 242.531 137.819 242.331C137.947 242.131 138.011 241.899 138.011 241.635C138.011 241.291 137.899 241.023 137.675 240.831C137.451 240.639 137.115 240.543 136.667 240.543C136.379 240.543 136.119 240.575 135.887 240.639C135.655 240.703 135.443 240.787 135.251 240.891C135.059 240.987 134.879 241.091 134.711 241.203L133.991 240.159C134.207 239.999 134.451 239.855 134.723 239.727C134.995 239.591 135.299 239.487 135.635 239.415C135.971 239.335 136.339 239.295 136.739 239.295C137.627 239.295 138.311 239.483 138.791 239.859C139.279 240.227 139.523 240.731 139.523 241.371ZM145.754 247.983H144.242V242.643C144.242 242.467 144.242 242.287 144.242 242.103C144.25 241.919 144.258 241.735 144.266 241.551C144.274 241.359 144.282 241.183 144.29 241.023C144.21 241.103 144.11 241.199 143.99 241.311C143.87 241.415 143.746 241.523 143.618 241.635L142.658 242.403L141.902 241.467L144.494 239.415H145.754V247.983Z" fill="#173343"/>
<path opacity="0.49632" d="M176.756 247.983H175.244V242.643C175.244 242.467 175.244 242.287 175.244 242.103C175.252 241.919 175.26 241.735 175.268 241.551C175.276 241.359 175.284 241.183 175.292 241.023C175.212 241.103 175.112 241.199 174.992 241.311C174.872 241.415 174.748 241.523 174.62 241.635L173.66 242.403L172.904 241.467L175.496 239.415H176.756V247.983Z" fill="#93A0B9"/>
<path opacity="0.49632" d="M213.245 247.983H207.377V246.867L209.561 244.659C209.993 244.219 210.345 243.843 210.617 243.531C210.897 243.211 211.101 242.915 211.229 242.643C211.365 242.371 211.433 242.075 211.433 241.755C211.433 241.363 211.321 241.071 211.097 240.879C210.873 240.679 210.577 240.579 210.209 240.579C209.849 240.579 209.513 240.655 209.201 240.807C208.889 240.951 208.565 241.159 208.229 241.431L207.401 240.435C207.641 240.227 207.897 240.039 208.169 239.871C208.441 239.695 208.749 239.555 209.093 239.451C209.437 239.347 209.837 239.295 210.293 239.295C210.845 239.295 211.317 239.395 211.709 239.595C212.109 239.787 212.417 240.055 212.633 240.399C212.849 240.743 212.957 241.143 212.957 241.599C212.957 241.951 212.905 242.279 212.801 242.583C212.697 242.879 212.545 243.171 212.345 243.459C212.145 243.747 211.901 244.039 211.613 244.335C211.325 244.631 211.001 244.951 210.641 245.295L209.285 246.603V246.675H213.245V247.983Z" fill="#93A0B9"/>
<path opacity="0.49632" d="M247.703 241.371C247.703 241.755 247.623 242.091 247.463 242.379C247.311 242.667 247.099 242.903 246.827 243.087C246.555 243.263 246.239 243.391 245.879 243.471V243.507C246.567 243.587 247.087 243.799 247.439 244.143C247.791 244.487 247.967 244.943 247.967 245.511C247.967 246.007 247.847 246.451 247.607 246.843C247.367 247.235 246.995 247.543 246.491 247.767C245.995 247.991 245.355 248.103 244.571 248.103C244.107 248.103 243.675 248.063 243.275 247.983C242.875 247.911 242.499 247.795 242.147 247.635V246.303C242.507 246.487 242.891 246.627 243.299 246.723C243.707 246.819 244.091 246.867 244.451 246.867C245.147 246.867 245.639 246.743 245.927 246.495C246.215 246.239 246.359 245.887 246.359 245.439C246.359 245.151 246.287 244.915 246.143 244.731C245.999 244.547 245.763 244.411 245.435 244.323C245.115 244.227 244.695 244.179 244.175 244.179H243.455V242.967H244.187C244.691 242.967 245.087 242.911 245.375 242.799C245.671 242.687 245.879 242.531 245.999 242.331C246.127 242.131 246.191 241.899 246.191 241.635C246.191 241.291 246.079 241.023 245.855 240.831C245.631 240.639 245.295 240.543 244.847 240.543C244.559 240.543 244.299 240.575 244.067 240.639C243.835 240.703 243.623 240.787 243.431 240.891C243.239 240.987 243.059 241.091 242.891 241.203L242.171 240.159C242.387 239.999 242.631 239.855 242.903 239.727C243.175 239.591 243.479 239.487 243.815 239.415C244.151 239.335 244.519 239.295 244.919 239.295C245.807 239.295 246.491 239.483 246.971 239.859C247.459 240.227 247.703 240.731 247.703 241.371Z" fill="#93A0B9"/>
<path d="M35.4724 206.604H29.6044V205.488L31.7884 203.28C32.2204 202.84 32.5724 202.464 32.8444 202.152C33.1244 201.832 33.3284 201.536 33.4564 201.264C33.5924 200.992 33.6604 200.696 33.6604 200.376C33.6604 199.984 33.5484 199.692 33.3244 199.5C33.1004 199.3 32.8044 199.2 32.4364 199.2C32.0764 199.2 31.7404 199.276 31.4284 199.428C31.1164 199.572 30.7924 199.78 30.4564 200.052L29.6284 199.056C29.8684 198.848 30.1244 198.66 30.3964 198.492C30.6684 198.316 30.9764 198.176 31.3204 198.072C31.6644 197.968 32.0644 197.916 32.5204 197.916C33.0724 197.916 33.5444 198.016 33.9364 198.216C34.3364 198.408 34.6444 198.676 34.8604 199.02C35.0764 199.364 35.1844 199.764 35.1844 200.22C35.1844 200.572 35.1324 200.9 35.0284 201.204C34.9244 201.5 34.7724 201.792 34.5724 202.08C34.3724 202.368 34.1284 202.66 33.8404 202.956C33.5524 203.252 33.2284 203.572 32.8684 203.916L31.5124 205.224V205.296H35.4724V206.604ZM43.0356 202.308C43.0356 203.004 42.9836 203.624 42.8796 204.168C42.7756 204.712 42.6036 205.176 42.3636 205.56C42.1316 205.936 41.8276 206.224 41.4516 206.424C41.0836 206.624 40.6316 206.724 40.0956 206.724C39.4236 206.724 38.8716 206.548 38.4396 206.196C38.0076 205.844 37.6876 205.34 37.4796 204.684C37.2716 204.02 37.1676 203.228 37.1676 202.308C37.1676 201.388 37.2636 200.6 37.4556 199.944C37.6476 199.288 37.9556 198.784 38.3796 198.432C38.8116 198.08 39.3836 197.904 40.0956 197.904C40.7676 197.904 41.3196 198.08 41.7516 198.432C42.1836 198.776 42.5036 199.28 42.7116 199.944C42.9276 200.6 43.0356 201.388 43.0356 202.308ZM38.6916 202.32C38.6916 203.016 38.7356 203.6 38.8236 204.072C38.9116 204.536 39.0556 204.888 39.2556 205.128C39.4636 205.36 39.7436 205.476 40.0956 205.476C40.4476 205.476 40.7236 205.36 40.9236 205.128C41.1316 204.896 41.2796 204.544 41.3676 204.072C41.4636 203.6 41.5116 203.016 41.5116 202.32C41.5116 201.616 41.4636 201.032 41.3676 200.568C41.2796 200.096 41.1316 199.744 40.9236 199.512C40.7236 199.272 40.4476 199.152 40.0956 199.152C39.7436 199.152 39.4636 199.272 39.2556 199.512C39.0556 199.744 38.9116 200.092 38.8236 200.556C38.7356 201.02 38.6916 201.608 38.6916 202.32Z" fill="#173343"/>
<path d="M70.2693 206.604H64.4013V205.488L66.5853 203.28C67.0173 202.84 67.3693 202.464 67.6413 202.152C67.9213 201.832 68.1253 201.536 68.2533 201.264C68.3893 200.992 68.4573 200.696 68.4573 200.376C68.4573 199.984 68.3453 199.692 68.1213 199.5C67.8973 199.3 67.6013 199.2 67.2333 199.2C66.8733 199.2 66.5373 199.276 66.2253 199.428C65.9133 199.572 65.5893 199.78 65.2533 200.052L64.4253 199.056C64.6653 198.848 64.9213 198.66 65.1933 198.492C65.4653 198.316 65.7733 198.176 66.1173 198.072C66.4613 197.968 66.8613 197.916 67.3173 197.916C67.8693 197.916 68.3413 198.016 68.7333 198.216C69.1333 198.408 69.4413 198.676 69.6573 199.02C69.8733 199.364 69.9813 199.764 69.9813 200.22C69.9813 200.572 69.9293 200.9 69.8253 201.204C69.7213 201.5 69.5693 201.792 69.3693 202.08C69.1693 202.368 68.9253 202.66 68.6373 202.956C68.3493 203.252 68.0253 203.572 67.6653 203.916L66.3093 205.224V205.296H70.2693V206.604ZM76.1645 206.604H74.6525V201.264C74.6525 201.088 74.6525 200.908 74.6525 200.724C74.6605 200.54 74.6685 200.356 74.6765 200.172C74.6845 199.98 74.6925 199.804 74.7005 199.644C74.6205 199.724 74.5205 199.82 74.4005 199.932C74.2805 200.036 74.1565 200.144 74.0285 200.256L73.0685 201.024L72.3125 200.088L74.9045 198.036H76.1645V206.604Z" fill="#173343"/>
<path d="M105.064 206.604H99.1962V205.488L101.38 203.28C101.812 202.84 102.164 202.464 102.436 202.152C102.716 201.832 102.92 201.536 103.048 201.264C103.184 200.992 103.252 200.696 103.252 200.376C103.252 199.984 103.14 199.692 102.916 199.5C102.692 199.3 102.396 199.2 102.028 199.2C101.668 199.2 101.332 199.276 101.02 199.428C100.708 199.572 100.384 199.78 100.048 200.052L99.2202 199.056C99.4602 198.848 99.7162 198.66 99.9882 198.492C100.26 198.316 100.568 198.176 100.912 198.072C101.256 197.968 101.656 197.916 102.112 197.916C102.664 197.916 103.136 198.016 103.528 198.216C103.928 198.408 104.236 198.676 104.452 199.02C104.668 199.364 104.776 199.764 104.776 200.22C104.776 200.572 104.724 200.9 104.62 201.204C104.516 201.5 104.364 201.792 104.164 202.08C103.964 202.368 103.72 202.66 103.432 202.956C103.144 203.252 102.82 203.572 102.46 203.916L101.104 205.224V205.296H105.064V206.604ZM112.315 199.992C112.315 200.376 112.235 200.712 112.075 201C111.923 201.288 111.711 201.524 111.439 201.708C111.167 201.884 110.851 202.012 110.491 202.092V202.128C111.179 202.208 111.699 202.42 112.051 202.764C112.403 203.108 112.579 203.564 112.579 204.132C112.579 204.628 112.459 205.072 112.219 205.464C111.979 205.856 111.607 206.164 111.103 206.388C110.607 206.612 109.967 206.724 109.183 206.724C108.719 206.724 108.287 206.684 107.887 206.604C107.487 206.532 107.111 206.416 106.759 206.256V204.924C107.119 205.108 107.503 205.248 107.911 205.344C108.319 205.44 108.703 205.488 109.063 205.488C109.759 205.488 110.251 205.364 110.539 205.116C110.827 204.86 110.971 204.508 110.971 204.06C110.971 203.772 110.899 203.536 110.755 203.352C110.611 203.168 110.375 203.032 110.047 202.944C109.727 202.848 109.307 202.8 108.787 202.8H108.067V201.588H108.799C109.303 201.588 109.699 201.532 109.987 201.42C110.283 201.308 110.491 201.152 110.611 200.952C110.739 200.752 110.803 200.52 110.803 200.256C110.803 199.912 110.691 199.644 110.467 199.452C110.243 199.26 109.907 199.164 109.459 199.164C109.171 199.164 108.911 199.196 108.679 199.26C108.447 199.324 108.235 199.408 108.043 199.512C107.851 199.608 107.671 199.712 107.503 199.824L106.783 198.78C106.999 198.62 107.243 198.476 107.515 198.348C107.787 198.212 108.091 198.108 108.427 198.036C108.763 197.956 109.131 197.916 109.531 197.916C110.419 197.916 111.103 198.104 111.583 198.48C112.071 198.848 112.315 199.352 112.315 199.992Z" fill="#173343"/>
<path d="M139.859 206.604H133.991V205.488L136.175 203.28C136.607 202.84 136.959 202.464 137.231 202.152C137.511 201.832 137.715 201.536 137.843 201.264C137.979 200.992 138.047 200.696 138.047 200.376C138.047 199.984 137.935 199.692 137.711 199.5C137.487 199.3 137.191 199.2 136.823 199.2C136.463 199.2 136.127 199.276 135.815 199.428C135.503 199.572 135.179 199.78 134.843 200.052L134.015 199.056C134.255 198.848 134.511 198.66 134.783 198.492C135.055 198.316 135.363 198.176 135.707 198.072C136.051 197.968 136.451 197.916 136.907 197.916C137.459 197.916 137.931 198.016 138.323 198.216C138.723 198.408 139.031 198.676 139.247 199.02C139.463 199.364 139.571 199.764 139.571 200.22C139.571 200.572 139.519 200.9 139.415 201.204C139.311 201.5 139.159 201.792 138.959 202.08C138.759 202.368 138.515 202.66 138.227 202.956C137.939 203.252 137.615 203.572 137.255 203.916L135.899 205.224V205.296H139.859V206.604ZM147.71 204.768H146.594V206.604H145.106V204.768H141.29V203.64L145.142 198.012H146.594V203.532H147.71V204.768ZM145.106 201.612C145.106 201.444 145.106 201.272 145.106 201.096C145.114 200.912 145.122 200.732 145.13 200.556C145.138 200.38 145.146 200.22 145.154 200.076C145.162 199.932 145.17 199.82 145.178 199.74H145.13C145.058 199.892 144.978 200.052 144.89 200.22C144.81 200.38 144.718 200.532 144.614 200.676L142.67 203.532H145.106V201.612Z" fill="#173343"/>
<path d="M174.654 206.604H168.786V205.488L170.97 203.28C171.402 202.84 171.754 202.464 172.026 202.152C172.306 201.832 172.51 201.536 172.638 201.264C172.774 200.992 172.842 200.696 172.842 200.376C172.842 199.984 172.73 199.692 172.506 199.5C172.282 199.3 171.986 199.2 171.618 199.2C171.258 199.2 170.922 199.276 170.61 199.428C170.298 199.572 169.974 199.78 169.638 200.052L168.81 199.056C169.05 198.848 169.306 198.66 169.578 198.492C169.85 198.316 170.158 198.176 170.502 198.072C170.846 197.968 171.246 197.916 171.702 197.916C172.254 197.916 172.726 198.016 173.118 198.216C173.518 198.408 173.826 198.676 174.042 199.02C174.258 199.364 174.366 199.764 174.366 200.22C174.366 200.572 174.314 200.9 174.21 201.204C174.106 201.5 173.954 201.792 173.754 202.08C173.554 202.368 173.31 202.66 173.022 202.956C172.734 203.252 172.41 203.572 172.05 203.916L170.694 205.224V205.296H174.654V206.604ZM179.349 201.216C179.893 201.216 180.373 201.316 180.789 201.516C181.205 201.716 181.529 202.008 181.761 202.392C182.001 202.768 182.121 203.232 182.121 203.784C182.121 204.392 181.993 204.916 181.737 205.356C181.481 205.796 181.105 206.136 180.609 206.376C180.113 206.608 179.505 206.724 178.785 206.724C178.337 206.724 177.917 206.684 177.525 206.604C177.133 206.524 176.793 206.408 176.505 206.256V204.912C176.801 205.072 177.157 205.204 177.573 205.308C177.989 205.412 178.381 205.464 178.749 205.464C179.133 205.464 179.461 205.412 179.733 205.308C180.005 205.196 180.213 205.028 180.357 204.804C180.501 204.572 180.573 204.28 180.573 203.928C180.573 203.448 180.421 203.084 180.117 202.836C179.813 202.588 179.341 202.464 178.701 202.464C178.477 202.464 178.233 202.484 177.969 202.524C177.713 202.564 177.501 202.604 177.333 202.644L176.685 202.284L177.009 198.036H181.521V199.356H178.341L178.161 201.336C178.297 201.312 178.457 201.288 178.641 201.264C178.833 201.232 179.069 201.216 179.349 201.216Z" fill="#173343"/>
<path d="M209.451 206.604H203.583V205.488L205.767 203.28C206.199 202.84 206.551 202.464 206.823 202.152C207.103 201.832 207.307 201.536 207.435 201.264C207.571 200.992 207.639 200.696 207.639 200.376C207.639 199.984 207.527 199.692 207.303 199.5C207.079 199.3 206.783 199.2 206.415 199.2C206.055 199.2 205.719 199.276 205.407 199.428C205.095 199.572 204.771 199.78 204.435 200.052L203.607 199.056C203.847 198.848 204.103 198.66 204.375 198.492C204.647 198.316 204.955 198.176 205.299 198.072C205.643 197.968 206.043 197.916 206.499 197.916C207.051 197.916 207.523 198.016 207.915 198.216C208.315 198.408 208.623 198.676 208.839 199.02C209.055 199.364 209.163 199.764 209.163 200.22C209.163 200.572 209.111 200.9 209.007 201.204C208.903 201.5 208.751 201.792 208.551 202.08C208.351 202.368 208.107 202.66 207.819 202.956C207.531 203.252 207.207 203.572 206.847 203.916L205.491 205.224V205.296H209.451V206.604ZM211.17 202.956C211.17 202.46 211.202 201.972 211.266 201.492C211.338 201.012 211.462 200.56 211.638 200.136C211.814 199.704 212.058 199.324 212.37 198.996C212.69 198.66 213.09 198.4 213.57 198.216C214.05 198.024 214.634 197.928 215.322 197.928C215.49 197.928 215.682 197.936 215.898 197.952C216.114 197.968 216.294 197.992 216.438 198.024V199.272C216.286 199.224 216.118 199.192 215.934 199.176C215.758 199.152 215.582 199.14 215.406 199.14C214.862 199.14 214.41 199.216 214.05 199.368C213.698 199.512 213.418 199.72 213.21 199.992C213.01 200.264 212.862 200.58 212.766 200.94C212.678 201.292 212.622 201.684 212.598 202.116H212.67C212.79 201.924 212.934 201.752 213.102 201.6C213.278 201.448 213.49 201.328 213.738 201.24C213.986 201.152 214.274 201.108 214.602 201.108C215.098 201.108 215.53 201.216 215.898 201.432C216.266 201.64 216.55 201.944 216.75 202.344C216.958 202.736 217.062 203.216 217.062 203.784C217.062 204.392 216.946 204.916 216.714 205.356C216.482 205.796 216.154 206.136 215.73 206.376C215.306 206.608 214.802 206.724 214.218 206.724C213.786 206.724 213.386 206.648 213.018 206.496C212.65 206.344 212.326 206.116 212.046 205.812C211.766 205.5 211.55 205.108 211.398 204.636C211.246 204.156 211.17 203.596 211.17 202.956ZM214.182 205.488C214.598 205.488 214.934 205.352 215.19 205.08C215.446 204.8 215.574 204.372 215.574 203.796C215.574 203.332 215.462 202.968 215.238 202.704C215.014 202.432 214.678 202.296 214.23 202.296C213.918 202.296 213.646 202.364 213.414 202.5C213.19 202.628 213.014 202.796 212.886 203.004C212.758 203.204 212.694 203.412 212.694 203.628C212.694 203.852 212.722 204.072 212.778 204.288C212.842 204.504 212.938 204.704 213.066 204.888C213.194 205.072 213.35 205.22 213.534 205.332C213.726 205.436 213.942 205.488 214.182 205.488Z" fill="#173343"/>
<path d="M244.246 206.604H238.378V205.488L240.562 203.28C240.994 202.84 241.346 202.464 241.618 202.152C241.898 201.832 242.102 201.536 242.23 201.264C242.366 200.992 242.434 200.696 242.434 200.376C242.434 199.984 242.322 199.692 242.098 199.5C241.874 199.3 241.578 199.2 241.21 199.2C240.85 199.2 240.514 199.276 240.202 199.428C239.89 199.572 239.566 199.78 239.23 200.052L238.402 199.056C238.642 198.848 238.898 198.66 239.17 198.492C239.442 198.316 239.75 198.176 240.094 198.072C240.438 197.968 240.838 197.916 241.294 197.916C241.846 197.916 242.318 198.016 242.71 198.216C243.11 198.408 243.418 198.676 243.634 199.02C243.85 199.364 243.958 199.764 243.958 200.22C243.958 200.572 243.906 200.9 243.802 201.204C243.698 201.5 243.546 201.792 243.346 202.08C243.146 202.368 242.902 202.66 242.614 202.956C242.326 203.252 242.002 203.572 241.642 203.916L240.286 205.224V205.296H244.246V206.604ZM246.889 206.604L250.225 199.344H245.845V198.036H251.845V199.056L248.509 206.604H246.889Z" fill="#173343"/>
<path d="M33.7804 165.226H32.2684V159.886C32.2684 159.71 32.2684 159.53 32.2684 159.346C32.2764 159.162 32.2844 158.978 32.2924 158.794C32.3004 158.602 32.3084 158.426 32.3164 158.266C32.2364 158.346 32.1364 158.442 32.0164 158.554C31.8964 158.658 31.7724 158.766 31.6444 158.878L30.6844 159.646L29.9284 158.71L32.5204 156.658H33.7804V165.226ZM42.7236 158.614C42.7236 158.998 42.6436 159.334 42.4836 159.622C42.3316 159.91 42.1196 160.146 41.8476 160.33C41.5756 160.506 41.2596 160.634 40.8996 160.714V160.75C41.5876 160.83 42.1076 161.042 42.4596 161.386C42.8116 161.73 42.9876 162.186 42.9876 162.754C42.9876 163.25 42.8676 163.694 42.6276 164.086C42.3876 164.478 42.0156 164.786 41.5116 165.01C41.0156 165.234 40.3756 165.346 39.5916 165.346C39.1276 165.346 38.6956 165.306 38.2956 165.226C37.8956 165.154 37.5196 165.038 37.1676 164.878V163.546C37.5276 163.73 37.9116 163.87 38.3196 163.966C38.7276 164.062 39.1116 164.11 39.4716 164.11C40.1676 164.11 40.6596 163.986 40.9476 163.738C41.2356 163.482 41.3796 163.13 41.3796 162.682C41.3796 162.394 41.3076 162.158 41.1636 161.974C41.0196 161.79 40.7836 161.654 40.4556 161.566C40.1356 161.47 39.7156 161.422 39.1956 161.422H38.4756V160.21H39.2076C39.7116 160.21 40.1076 160.154 40.3956 160.042C40.6916 159.93 40.8996 159.774 41.0196 159.574C41.1476 159.374 41.2116 159.142 41.2116 158.878C41.2116 158.534 41.0996 158.266 40.8756 158.074C40.6516 157.882 40.3156 157.786 39.8676 157.786C39.5796 157.786 39.3196 157.818 39.0876 157.882C38.8556 157.946 38.6436 158.03 38.4516 158.134C38.2596 158.23 38.0796 158.334 37.9116 158.446L37.1916 157.402C37.4076 157.242 37.6516 157.098 37.9236 156.97C38.1956 156.834 38.4996 156.73 38.8356 156.658C39.1716 156.578 39.5396 156.538 39.9396 156.538C40.8276 156.538 41.5116 156.726 41.9916 157.102C42.4796 157.47 42.7236 157.974 42.7236 158.614Z" fill="#173343"/>
<path d="M68.5773 165.226H67.0653V159.886C67.0653 159.71 67.0653 159.53 67.0653 159.346C67.0733 159.162 67.0813 158.978 67.0893 158.794C67.0973 158.602 67.1053 158.426 67.1133 158.266C67.0333 158.346 66.9333 158.442 66.8133 158.554C66.6933 158.658 66.5693 158.766 66.4413 158.878L65.4813 159.646L64.7253 158.71L67.3173 156.658H68.5773V165.226ZM78.1205 163.39H77.0045V165.226H75.5165V163.39H71.7005V162.262L75.5525 156.634H77.0045V162.154H78.1205V163.39ZM75.5165 160.234C75.5165 160.066 75.5165 159.894 75.5165 159.718C75.5245 159.534 75.5325 159.354 75.5405 159.178C75.5485 159.002 75.5565 158.842 75.5645 158.698C75.5725 158.554 75.5805 158.442 75.5885 158.362H75.5405C75.4685 158.514 75.3885 158.674 75.3005 158.842C75.2205 159.002 75.1285 159.154 75.0245 159.298L73.0805 162.154H75.5165V160.234Z" fill="#173343"/>
<path d="M103.372 165.226H101.86V159.886C101.86 159.71 101.86 159.53 101.86 159.346C101.868 159.162 101.876 158.978 101.884 158.794C101.892 158.602 101.9 158.426 101.908 158.266C101.828 158.346 101.728 158.442 101.608 158.554C101.488 158.658 101.364 158.766 101.236 158.878L100.276 159.646L99.5202 158.71L102.112 156.658H103.372V165.226ZM109.759 159.838C110.303 159.838 110.783 159.938 111.199 160.138C111.615 160.338 111.939 160.63 112.171 161.014C112.411 161.39 112.531 161.854 112.531 162.406C112.531 163.014 112.403 163.538 112.147 163.978C111.891 164.418 111.515 164.758 111.019 164.998C110.523 165.23 109.915 165.346 109.195 165.346C108.747 165.346 108.327 165.306 107.935 165.226C107.543 165.146 107.203 165.03 106.915 164.878V163.534C107.211 163.694 107.567 163.826 107.983 163.93C108.399 164.034 108.791 164.086 109.159 164.086C109.543 164.086 109.871 164.034 110.143 163.93C110.415 163.818 110.623 163.65 110.767 163.426C110.911 163.194 110.983 162.902 110.983 162.55C110.983 162.07 110.831 161.706 110.527 161.458C110.223 161.21 109.751 161.086 109.111 161.086C108.887 161.086 108.643 161.106 108.379 161.146C108.123 161.186 107.911 161.226 107.743 161.266L107.095 160.906L107.419 156.658H111.931V157.978H108.751L108.571 159.958C108.707 159.934 108.867 159.91 109.051 159.886C109.243 159.854 109.479 159.838 109.759 159.838Z" fill="#173343"/>
<path d="M138.167 165.226H136.655V159.886C136.655 159.71 136.655 159.53 136.655 159.346C136.663 159.162 136.671 158.978 136.679 158.794C136.687 158.602 136.695 158.426 136.703 158.266C136.623 158.346 136.523 158.442 136.403 158.554C136.283 158.658 136.159 158.766 136.031 158.878L135.071 159.646L134.315 158.71L136.907 156.658H138.167V165.226ZM141.578 161.578C141.578 161.082 141.61 160.594 141.674 160.114C141.746 159.634 141.87 159.182 142.046 158.758C142.222 158.326 142.466 157.946 142.778 157.618C143.098 157.282 143.498 157.022 143.978 156.838C144.458 156.646 145.042 156.55 145.73 156.55C145.898 156.55 146.09 156.558 146.306 156.574C146.522 156.59 146.702 156.614 146.846 156.646V157.894C146.694 157.846 146.526 157.814 146.342 157.798C146.166 157.774 145.99 157.762 145.814 157.762C145.27 157.762 144.818 157.838 144.458 157.99C144.106 158.134 143.826 158.342 143.618 158.614C143.418 158.886 143.27 159.202 143.174 159.562C143.086 159.914 143.03 160.306 143.006 160.738H143.078C143.198 160.546 143.342 160.374 143.51 160.222C143.686 160.07 143.898 159.95 144.146 159.862C144.394 159.774 144.682 159.73 145.01 159.73C145.506 159.73 145.938 159.838 146.306 160.054C146.674 160.262 146.958 160.566 147.158 160.966C147.366 161.358 147.47 161.838 147.47 162.406C147.47 163.014 147.354 163.538 147.122 163.978C146.89 164.418 146.562 164.758 146.138 164.998C145.714 165.23 145.21 165.346 144.626 165.346C144.194 165.346 143.794 165.27 143.426 165.118C143.058 164.966 142.734 164.738 142.454 164.434C142.174 164.122 141.958 163.73 141.806 163.258C141.654 162.778 141.578 162.218 141.578 161.578ZM144.59 164.11C145.006 164.11 145.342 163.974 145.598 163.702C145.854 163.422 145.982 162.994 145.982 162.418C145.982 161.954 145.87 161.59 145.646 161.326C145.422 161.054 145.086 160.918 144.638 160.918C144.326 160.918 144.054 160.986 143.822 161.122C143.598 161.25 143.422 161.418 143.294 161.626C143.166 161.826 143.102 162.034 143.102 162.25C143.102 162.474 143.13 162.694 143.186 162.91C143.25 163.126 143.346 163.326 143.474 163.51C143.602 163.694 143.758 163.842 143.942 163.954C144.134 164.058 144.35 164.11 144.59 164.11Z" fill="#173343"/>
<path d="M172.962 165.226H171.45V159.886C171.45 159.71 171.45 159.53 171.45 159.346C171.458 159.162 171.466 158.978 171.474 158.794C171.482 158.602 171.49 158.426 171.498 158.266C171.418 158.346 171.318 158.442 171.198 158.554C171.078 158.658 170.954 158.766 170.826 158.878L169.866 159.646L169.11 158.71L171.702 156.658H172.962V165.226ZM177.297 165.226L180.633 157.966H176.253V156.658H182.253V157.678L178.917 165.226H177.297Z" fill="#173343"/>
<path d="M207.759 165.226H206.247V159.886C206.247 159.71 206.247 159.53 206.247 159.346C206.255 159.162 206.263 158.978 206.271 158.794C206.279 158.602 206.287 158.426 206.295 158.266C206.215 158.346 206.115 158.442 205.995 158.554C205.875 158.658 205.751 158.766 205.623 158.878L204.663 159.646L203.907 158.71L206.499 156.658H207.759V165.226ZM214.086 156.55C214.582 156.55 215.03 156.626 215.43 156.778C215.83 156.93 216.15 157.158 216.39 157.462C216.63 157.766 216.75 158.146 216.75 158.602C216.75 158.946 216.678 159.25 216.534 159.514C216.398 159.77 216.21 159.994 215.97 160.186C215.738 160.378 215.474 160.55 215.178 160.702C215.506 160.862 215.81 161.05 216.09 161.266C216.37 161.474 216.594 161.722 216.762 162.01C216.938 162.29 217.026 162.622 217.026 163.006C217.026 163.478 216.902 163.89 216.654 164.242C216.414 164.594 216.074 164.866 215.634 165.058C215.194 165.25 214.682 165.346 214.098 165.346C213.466 165.346 212.93 165.254 212.49 165.07C212.05 164.886 211.714 164.622 211.482 164.278C211.25 163.934 211.134 163.526 211.134 163.054C211.134 162.662 211.21 162.322 211.362 162.034C211.522 161.746 211.73 161.498 211.986 161.29C212.242 161.074 212.522 160.894 212.826 160.75C212.562 160.59 212.322 160.41 212.106 160.21C211.89 160.002 211.718 159.77 211.59 159.514C211.47 159.25 211.41 158.942 211.41 158.59C211.41 158.142 211.53 157.766 211.77 157.462C212.018 157.158 212.342 156.93 212.742 156.778C213.15 156.626 213.598 156.55 214.086 156.55ZM212.574 162.982C212.574 163.334 212.698 163.626 212.946 163.858C213.194 164.082 213.57 164.194 214.074 164.194C214.41 164.194 214.686 164.146 214.902 164.05C215.126 163.946 215.294 163.802 215.406 163.618C215.526 163.434 215.586 163.222 215.586 162.982C215.586 162.742 215.518 162.53 215.382 162.346C215.246 162.162 215.07 161.998 214.854 161.854C214.638 161.71 214.398 161.578 214.134 161.458L213.966 161.374C213.678 161.502 213.43 161.646 213.222 161.806C213.014 161.958 212.854 162.13 212.742 162.322C212.63 162.514 212.574 162.734 212.574 162.982ZM214.074 157.69C213.722 157.69 213.43 157.778 213.198 157.954C212.974 158.13 212.862 158.378 212.862 158.698C212.862 158.93 212.918 159.13 213.03 159.298C213.142 159.466 213.29 159.61 213.474 159.73C213.666 159.85 213.874 159.966 214.098 160.078C214.322 159.974 214.522 159.862 214.698 159.742C214.882 159.622 215.026 159.478 215.13 159.31C215.242 159.142 215.298 158.938 215.298 158.698C215.298 158.378 215.182 158.13 214.95 157.954C214.726 157.778 214.434 157.69 214.074 157.69Z" fill="#173343"/>
<path d="M242.554 165.226H241.042V159.886C241.042 159.71 241.042 159.53 241.042 159.346C241.05 159.162 241.058 158.978 241.066 158.794C241.074 158.602 241.082 158.426 241.09 158.266C241.01 158.346 240.91 158.442 240.79 158.554C240.67 158.658 240.546 158.766 240.418 158.878L239.458 159.646L238.702 158.71L241.294 156.658H242.554V165.226ZM251.809 160.318C251.809 160.806 251.773 161.294 251.701 161.782C251.629 162.262 251.505 162.718 251.329 163.15C251.153 163.574 250.909 163.954 250.597 164.29C250.285 164.618 249.885 164.878 249.397 165.07C248.917 165.254 248.333 165.346 247.645 165.346C247.485 165.346 247.293 165.338 247.069 165.322C246.853 165.306 246.673 165.282 246.529 165.25V164.002C246.681 164.042 246.845 164.074 247.021 164.098C247.205 164.122 247.385 164.134 247.561 164.134C248.105 164.134 248.553 164.062 248.905 163.918C249.265 163.766 249.545 163.558 249.745 163.294C249.953 163.022 250.105 162.706 250.201 162.346C250.297 161.978 250.353 161.586 250.369 161.17H250.297C250.177 161.354 250.033 161.522 249.865 161.674C249.705 161.826 249.501 161.946 249.253 162.034C249.013 162.122 248.709 162.166 248.341 162.166C247.853 162.166 247.425 162.062 247.057 161.854C246.697 161.646 246.417 161.346 246.217 160.954C246.017 160.554 245.917 160.07 245.917 159.502C245.917 158.886 246.033 158.358 246.265 157.918C246.497 157.478 246.825 157.142 247.249 156.91C247.681 156.67 248.185 156.55 248.761 156.55C249.193 156.55 249.593 156.63 249.961 156.79C250.329 156.942 250.649 157.174 250.921 157.486C251.201 157.79 251.417 158.178 251.569 158.65C251.729 159.122 251.809 159.678 251.809 160.318ZM248.785 157.798C248.377 157.798 248.045 157.934 247.789 158.206C247.533 158.478 247.405 158.902 247.405 159.478C247.405 159.95 247.513 160.322 247.729 160.594C247.953 160.858 248.293 160.99 248.749 160.99C249.061 160.99 249.329 160.922 249.553 160.786C249.785 160.65 249.965 160.482 250.093 160.282C250.221 160.082 250.285 159.87 250.285 159.646C250.285 159.43 250.253 159.214 250.189 158.998C250.125 158.774 250.029 158.57 249.901 158.386C249.781 158.202 249.625 158.058 249.433 157.954C249.249 157.85 249.033 157.798 248.785 157.798Z" fill="#173343"/>
<path d="M33.398 120.199C33.398 119.703 33.43 119.215 33.494 118.735C33.566 118.255 33.69 117.803 33.866 117.379C34.042 116.947 34.286 116.567 34.598 116.239C34.918 115.903 35.318 115.643 35.798 115.459C36.278 115.267 36.862 115.171 37.55 115.171C37.718 115.171 37.91 115.179 38.126 115.195C38.342 115.211 38.522 115.235 38.666 115.267V116.515C38.514 116.467 38.346 116.435 38.162 116.419C37.986 116.395 37.81 116.383 37.634 116.383C37.09 116.383 36.638 116.459 36.278 116.611C35.926 116.755 35.646 116.963 35.438 117.235C35.238 117.507 35.09 117.823 34.994 118.183C34.906 118.535 34.85 118.927 34.826 119.359H34.898C35.018 119.167 35.162 118.995 35.33 118.843C35.506 118.691 35.718 118.571 35.966 118.483C36.214 118.395 36.502 118.351 36.83 118.351C37.326 118.351 37.758 118.459 38.126 118.675C38.494 118.883 38.778 119.187 38.978 119.587C39.186 119.979 39.29 120.459 39.29 121.027C39.29 121.635 39.174 122.159 38.942 122.599C38.71 123.039 38.382 123.379 37.958 123.619C37.534 123.851 37.03 123.967 36.446 123.967C36.014 123.967 35.614 123.891 35.246 123.739C34.878 123.587 34.554 123.359 34.274 123.055C33.994 122.743 33.778 122.351 33.626 121.879C33.474 121.399 33.398 120.839 33.398 120.199ZM36.41 122.731C36.826 122.731 37.162 122.595 37.418 122.323C37.674 122.043 37.802 121.615 37.802 121.039C37.802 120.575 37.69 120.211 37.466 119.947C37.242 119.675 36.906 119.539 36.458 119.539C36.146 119.539 35.874 119.607 35.642 119.743C35.418 119.871 35.242 120.039 35.114 120.247C34.986 120.447 34.922 120.655 34.922 120.871C34.922 121.095 34.95 121.315 35.006 121.531C35.07 121.747 35.166 121.947 35.294 122.131C35.422 122.315 35.578 122.463 35.762 122.575C35.954 122.679 36.17 122.731 36.41 122.731Z" fill="#173343"/>
<path d="M69.1189 123.847L72.4549 116.587H68.0749V115.279H74.0749V116.299L70.7389 123.847H69.1189Z" fill="#173343"/>
<path d="M105.906 115.171C106.402 115.171 106.85 115.247 107.25 115.399C107.65 115.551 107.97 115.779 108.21 116.083C108.45 116.387 108.57 116.767 108.57 117.223C108.57 117.567 108.498 117.871 108.354 118.135C108.218 118.391 108.03 118.615 107.79 118.807C107.558 118.999 107.294 119.171 106.998 119.323C107.326 119.483 107.63 119.671 107.91 119.887C108.19 120.095 108.414 120.343 108.582 120.631C108.758 120.911 108.846 121.243 108.846 121.627C108.846 122.099 108.722 122.511 108.474 122.863C108.234 123.215 107.894 123.487 107.454 123.679C107.014 123.871 106.502 123.967 105.918 123.967C105.286 123.967 104.75 123.875 104.31 123.691C103.87 123.507 103.534 123.243 103.302 122.899C103.07 122.555 102.954 122.147 102.954 121.675C102.954 121.283 103.03 120.943 103.182 120.655C103.342 120.367 103.55 120.119 103.806 119.911C104.062 119.695 104.342 119.515 104.646 119.371C104.382 119.211 104.142 119.031 103.926 118.831C103.71 118.623 103.538 118.391 103.41 118.135C103.29 117.871 103.23 117.563 103.23 117.211C103.23 116.763 103.35 116.387 103.59 116.083C103.838 115.779 104.162 115.551 104.562 115.399C104.97 115.247 105.418 115.171 105.906 115.171ZM104.394 121.603C104.394 121.955 104.518 122.247 104.766 122.479C105.014 122.703 105.39 122.815 105.894 122.815C106.23 122.815 106.506 122.767 106.722 122.671C106.946 122.567 107.114 122.423 107.226 122.239C107.346 122.055 107.406 121.843 107.406 121.603C107.406 121.363 107.338 121.151 107.202 120.967C107.066 120.783 106.89 120.619 106.674 120.475C106.458 120.331 106.218 120.199 105.954 120.079L105.786 119.995C105.498 120.123 105.25 120.267 105.042 120.427C104.834 120.579 104.674 120.751 104.562 120.943C104.45 121.135 104.394 121.355 104.394 121.603ZM105.894 116.311C105.542 116.311 105.25 116.399 105.018 116.575C104.794 116.751 104.682 116.999 104.682 117.319C104.682 117.551 104.738 117.751 104.85 117.919C104.962 118.087 105.11 118.231 105.294 118.351C105.486 118.471 105.694 118.587 105.918 118.699C106.142 118.595 106.342 118.483 106.518 118.363C106.702 118.243 106.846 118.099 106.95 117.931C107.062 117.763 107.118 117.559 107.118 117.319C107.118 116.999 107.002 116.751 106.77 116.575C106.546 116.399 106.254 116.311 105.894 116.311Z" fill="#173343"/>
<path d="M143.629 118.939C143.629 119.427 143.593 119.915 143.521 120.403C143.449 120.883 143.325 121.339 143.149 121.771C142.973 122.195 142.729 122.575 142.417 122.911C142.105 123.239 141.705 123.499 141.217 123.691C140.737 123.875 140.153 123.967 139.465 123.967C139.305 123.967 139.113 123.959 138.889 123.943C138.673 123.927 138.493 123.903 138.349 123.871V122.623C138.501 122.663 138.665 122.695 138.841 122.719C139.025 122.743 139.205 122.755 139.381 122.755C139.925 122.755 140.373 122.683 140.725 122.539C141.085 122.387 141.365 122.179 141.565 121.915C141.773 121.643 141.925 121.327 142.021 120.967C142.117 120.599 142.173 120.207 142.189 119.791H142.117C141.997 119.975 141.853 120.143 141.685 120.295C141.525 120.447 141.321 120.567 141.073 120.655C140.833 120.743 140.529 120.787 140.161 120.787C139.673 120.787 139.245 120.683 138.877 120.475C138.517 120.267 138.237 119.967 138.037 119.575C137.837 119.175 137.737 118.691 137.737 118.123C137.737 117.507 137.853 116.979 138.085 116.539C138.317 116.099 138.645 115.763 139.069 115.531C139.501 115.291 140.005 115.171 140.581 115.171C141.013 115.171 141.413 115.251 141.781 115.411C142.149 115.563 142.469 115.795 142.741 116.107C143.021 116.411 143.237 116.799 143.389 117.271C143.549 117.743 143.629 118.299 143.629 118.939ZM140.605 116.419C140.197 116.419 139.865 116.555 139.609 116.827C139.353 117.099 139.225 117.523 139.225 118.099C139.225 118.571 139.333 118.943 139.549 119.215C139.773 119.479 140.113 119.611 140.569 119.611C140.881 119.611 141.149 119.543 141.373 119.407C141.605 119.271 141.785 119.103 141.913 118.903C142.041 118.703 142.105 118.491 142.105 118.267C142.105 118.051 142.073 117.835 142.009 117.619C141.945 117.395 141.849 117.191 141.721 117.007C141.601 116.823 141.445 116.679 141.253 116.575C141.069 116.471 140.853 116.419 140.605 116.419Z" fill="white"/>
<path d="M172.962 123.847H171.45V118.507C171.45 118.331 171.45 118.151 171.45 117.967C171.458 117.783 171.466 117.599 171.474 117.415C171.482 117.223 171.49 117.047 171.498 116.887C171.418 116.967 171.318 117.063 171.198 117.175C171.078 117.279 170.954 117.387 170.826 117.499L169.866 118.267L169.11 117.331L171.702 115.279H172.962V123.847ZM182.217 119.551C182.217 120.247 182.165 120.867 182.061 121.411C181.957 121.955 181.785 122.419 181.545 122.803C181.313 123.179 181.009 123.467 180.633 123.667C180.265 123.867 179.813 123.967 179.277 123.967C178.605 123.967 178.053 123.791 177.621 123.439C177.189 123.087 176.869 122.583 176.661 121.927C176.453 121.263 176.349 120.471 176.349 119.551C176.349 118.631 176.445 117.843 176.637 117.187C176.829 116.531 177.137 116.027 177.561 115.675C177.993 115.323 178.565 115.147 179.277 115.147C179.949 115.147 180.501 115.323 180.933 115.675C181.365 116.019 181.685 116.523 181.893 117.187C182.109 117.843 182.217 118.631 182.217 119.551ZM177.873 119.563C177.873 120.259 177.917 120.843 178.005 121.315C178.093 121.779 178.237 122.131 178.437 122.371C178.645 122.603 178.925 122.719 179.277 122.719C179.629 122.719 179.905 122.603 180.105 122.371C180.313 122.139 180.461 121.787 180.549 121.315C180.645 120.843 180.693 120.259 180.693 119.563C180.693 118.859 180.645 118.275 180.549 117.811C180.461 117.339 180.313 116.987 180.105 116.755C179.905 116.515 179.629 116.395 179.277 116.395C178.925 116.395 178.645 116.515 178.437 116.755C178.237 116.987 178.093 117.335 178.005 117.799C177.917 118.263 177.873 118.851 177.873 119.563Z" fill="#173343"/>
<path d="M207.759 123.847H206.247V118.507C206.247 118.331 206.247 118.151 206.247 117.967C206.255 117.783 206.263 117.599 206.271 117.415C206.279 117.223 206.287 117.047 206.295 116.887C206.215 116.967 206.115 117.063 205.995 117.175C205.875 117.279 205.751 117.387 205.623 117.499L204.663 118.267L203.907 117.331L206.499 115.279H207.759V123.847ZM215.346 123.847H213.834V118.507C213.834 118.331 213.834 118.151 213.834 117.967C213.842 117.783 213.85 117.599 213.858 117.415C213.866 117.223 213.874 117.047 213.882 116.887C213.802 116.967 213.702 117.063 213.582 117.175C213.462 117.279 213.338 117.387 213.21 117.499L212.25 118.267L211.494 117.331L214.086 115.279H215.346V123.847Z" fill="#173343"/>
<path d="M242.554 123.847H241.042V118.507C241.042 118.331 241.042 118.151 241.042 117.967C241.05 117.783 241.058 117.599 241.066 117.415C241.074 117.223 241.082 117.047 241.09 116.887C241.01 116.967 240.91 117.063 240.79 117.175C240.67 117.279 240.546 117.387 240.418 117.499L239.458 118.267L238.702 117.331L241.294 115.279H242.554V123.847ZM251.833 123.847H245.965V122.731L248.149 120.523C248.581 120.083 248.933 119.707 249.205 119.395C249.485 119.075 249.689 118.779 249.817 118.507C249.953 118.235 250.021 117.939 250.021 117.619C250.021 117.227 249.909 116.935 249.685 116.743C249.461 116.543 249.165 116.443 248.797 116.443C248.437 116.443 248.101 116.519 247.789 116.671C247.477 116.815 247.153 117.023 246.817 117.295L245.989 116.299C246.229 116.091 246.485 115.903 246.757 115.735C247.029 115.559 247.337 115.419 247.681 115.315C248.025 115.211 248.425 115.159 248.881 115.159C249.433 115.159 249.905 115.259 250.297 115.459C250.697 115.651 251.005 115.919 251.221 116.263C251.437 116.607 251.545 117.007 251.545 117.463C251.545 117.815 251.493 118.143 251.389 118.447C251.285 118.743 251.133 119.035 250.933 119.323C250.733 119.611 250.489 119.903 250.201 120.199C249.913 120.495 249.589 120.815 249.229 121.159L247.873 122.467V122.539H251.833V123.847Z" fill="#173343"/>
<path d="M37.574 82.4684H36.062V77.1284C36.062 76.9524 36.062 76.7724 36.062 76.5884C36.07 76.4044 36.078 76.2204 36.086 76.0364C36.094 75.8444 36.102 75.6684 36.11 75.5084C36.03 75.5884 35.93 75.6844 35.81 75.7964C35.69 75.9004 35.566 76.0084 35.438 76.1204L34.478 76.8884L33.722 75.9524L36.314 73.9004H37.574V82.4684Z" fill="#173343"/>
<path d="M74.0629 82.4684H68.1949V81.3524L70.3789 79.1444C70.8109 78.7044 71.1629 78.3284 71.4349 78.0164C71.7149 77.6964 71.9189 77.4004 72.0469 77.1284C72.1829 76.8564 72.2509 76.5604 72.2509 76.2404C72.2509 75.8484 72.1389 75.5564 71.9149 75.3644C71.6909 75.1644 71.3949 75.0644 71.0269 75.0644C70.6669 75.0644 70.3309 75.1404 70.0189 75.2924C69.7069 75.4364 69.3829 75.6444 69.0469 75.9164L68.2189 74.9204C68.4589 74.7124 68.7149 74.5244 68.9869 74.3564C69.2589 74.1804 69.5669 74.0404 69.9109 73.9364C70.2549 73.8324 70.6549 73.7804 71.1109 73.7804C71.6629 73.7804 72.1349 73.8804 72.5269 74.0804C72.9269 74.2724 73.2349 74.5404 73.4509 74.8844C73.6669 75.2284 73.7749 75.6284 73.7749 76.0844C73.7749 76.4364 73.7229 76.7644 73.6189 77.0684C73.5149 77.3644 73.3629 77.6564 73.1629 77.9444C72.9629 78.2324 72.7189 78.5244 72.4309 78.8204C72.1429 79.1164 71.8189 79.4364 71.4589 79.7804L70.1029 81.0884V81.1604H74.0629V82.4684Z" fill="#173343"/>
<path d="M108.522 75.8564C108.522 76.2404 108.442 76.5764 108.282 76.8644C108.13 77.1524 107.918 77.3884 107.646 77.5724C107.374 77.7484 107.058 77.8764 106.698 77.9564V77.9924C107.386 78.0724 107.906 78.2844 108.258 78.6284C108.61 78.9724 108.786 79.4284 108.786 79.9964C108.786 80.4924 108.666 80.9364 108.426 81.3284C108.186 81.7204 107.814 82.0284 107.31 82.2524C106.814 82.4764 106.174 82.5884 105.39 82.5884C104.926 82.5884 104.494 82.5484 104.094 82.4684C103.694 82.3964 103.318 82.2804 102.966 82.1204V80.7884C103.326 80.9724 103.71 81.1124 104.118 81.2084C104.526 81.3044 104.91 81.3524 105.27 81.3524C105.966 81.3524 106.458 81.2284 106.746 80.9804C107.034 80.7244 107.178 80.3724 107.178 79.9244C107.178 79.6364 107.106 79.4004 106.962 79.2164C106.818 79.0324 106.582 78.8964 106.254 78.8084C105.934 78.7124 105.514 78.6644 104.994 78.6644H104.274V77.4524H105.006C105.51 77.4524 105.906 77.3964 106.194 77.2844C106.49 77.1724 106.698 77.0164 106.818 76.8164C106.946 76.6164 107.01 76.3844 107.01 76.1204C107.01 75.7764 106.898 75.5084 106.674 75.3164C106.45 75.1244 106.114 75.0284 105.666 75.0284C105.378 75.0284 105.118 75.0604 104.886 75.1244C104.654 75.1884 104.442 75.2724 104.25 75.3764C104.058 75.4724 103.878 75.5764 103.71 75.6884L102.99 74.6444C103.206 74.4844 103.45 74.3404 103.722 74.2124C103.994 74.0764 104.298 73.9724 104.634 73.9004C104.97 73.8204 105.338 73.7804 105.738 73.7804C106.626 73.7804 107.31 73.9684 107.79 74.3444C108.278 74.7124 108.522 75.2164 108.522 75.8564Z" fill="#173343"/>
<path d="M143.917 80.6324H142.801V82.4684H141.313V80.6324H137.497V79.5044L141.349 73.8764H142.801V79.3964H143.917V80.6324ZM141.313 77.4764C141.313 77.3084 141.313 77.1364 141.313 76.9604C141.321 76.7764 141.329 76.5964 141.337 76.4204C141.345 76.2444 141.353 76.0844 141.361 75.9404C141.369 75.7964 141.377 75.6844 141.385 75.6044H141.337C141.265 75.7564 141.185 75.9164 141.097 76.0844C141.017 76.2444 140.925 76.3964 140.821 76.5404L138.877 79.3964H141.313V77.4764Z" fill="#173343"/>
<path d="M175.556 77.0804C176.1 77.0804 176.58 77.1804 176.996 77.3804C177.412 77.5804 177.736 77.8724 177.968 78.2564C178.208 78.6324 178.328 79.0964 178.328 79.6484C178.328 80.2564 178.2 80.7804 177.944 81.2204C177.688 81.6604 177.312 82.0004 176.816 82.2404C176.32 82.4724 175.712 82.5884 174.992 82.5884C174.544 82.5884 174.124 82.5484 173.732 82.4684C173.34 82.3884 173 82.2724 172.712 82.1204V80.7764C173.008 80.9364 173.364 81.0684 173.78 81.1724C174.196 81.2764 174.588 81.3284 174.956 81.3284C175.34 81.3284 175.668 81.2764 175.94 81.1724C176.212 81.0604 176.42 80.8924 176.564 80.6684C176.708 80.4364 176.78 80.1444 176.78 79.7924C176.78 79.3124 176.628 78.9484 176.324 78.7004C176.02 78.4524 175.548 78.3284 174.908 78.3284C174.684 78.3284 174.44 78.3484 174.176 78.3884C173.92 78.4284 173.708 78.4684 173.54 78.5084L172.892 78.1484L173.216 73.9004H177.728V75.2204H174.548L174.368 77.2004C174.504 77.1764 174.664 77.1524 174.848 77.1284C175.04 77.0964 175.276 77.0804 175.556 77.0804Z" fill="#173343"/>
<path d="M207.377 78.8204C207.377 78.3244 207.409 77.8364 207.473 77.3564C207.545 76.8764 207.669 76.4244 207.845 76.0004C208.021 75.5684 208.265 75.1884 208.577 74.8604C208.897 74.5244 209.297 74.2644 209.777 74.0804C210.257 73.8884 210.841 73.7924 211.529 73.7924C211.697 73.7924 211.889 73.8004 212.105 73.8164C212.321 73.8324 212.501 73.8564 212.645 73.8884V75.1364C212.493 75.0884 212.325 75.0564 212.141 75.0404C211.965 75.0164 211.789 75.0044 211.613 75.0044C211.069 75.0044 210.617 75.0804 210.257 75.2324C209.905 75.3764 209.625 75.5844 209.417 75.8564C209.217 76.1284 209.069 76.4444 208.973 76.8044C208.885 77.1564 208.829 77.5484 208.805 77.9804H208.877C208.997 77.7884 209.141 77.6164 209.309 77.4644C209.485 77.3124 209.697 77.1924 209.945 77.1044C210.193 77.0164 210.481 76.9724 210.809 76.9724C211.305 76.9724 211.737 77.0804 212.105 77.2964C212.473 77.5044 212.757 77.8084 212.957 78.2084C213.165 78.6004 213.269 79.0804 213.269 79.6484C213.269 80.2564 213.153 80.7804 212.921 81.2204C212.689 81.6604 212.361 82.0004 211.937 82.2404C211.513 82.4724 211.009 82.5884 210.425 82.5884C209.993 82.5884 209.593 82.5124 209.225 82.3604C208.857 82.2084 208.533 81.9804 208.253 81.6764C207.973 81.3644 207.757 80.9724 207.605 80.5004C207.453 80.0204 207.377 79.4604 207.377 78.8204ZM210.389 81.3524C210.805 81.3524 211.141 81.2164 211.397 80.9444C211.653 80.6644 211.781 80.2364 211.781 79.6604C211.781 79.1964 211.669 78.8324 211.445 78.5684C211.221 78.2964 210.885 78.1604 210.437 78.1604C210.125 78.1604 209.853 78.2284 209.621 78.3644C209.397 78.4924 209.221 78.6604 209.093 78.8684C208.965 79.0684 208.901 79.2764 208.901 79.4924C208.901 79.7164 208.929 79.9364 208.985 80.1524C209.049 80.3684 209.145 80.5684 209.273 80.7524C209.401 80.9364 209.557 81.0844 209.741 81.1964C209.933 81.3004 210.149 81.3524 210.389 81.3524Z" fill="#173343"/>
<path d="M243.095 82.4684L246.431 75.2084H242.051V73.9004H248.051V74.9204L244.715 82.4684H243.095Z" fill="#173343"/>
<path opacity="0.601619" d="M29.3906 41.09V32.522H35.8226V41.09H34.7546V33.47H30.4706V41.09H29.3906ZM39.32 34.658V37.334H42.812V34.658H43.868V41.09H42.812V38.222H39.32V41.09H38.264V34.658H39.32Z" fill="#93A0B9"/>
<path opacity="0.601619" d="M68.0886 32.522C68.8006 32.522 69.3966 32.59 69.8766 32.726C70.3646 32.862 70.7286 33.086 70.9686 33.398C71.2166 33.71 71.3406 34.126 71.3406 34.646C71.3406 34.982 71.2766 35.282 71.1486 35.546C71.0286 35.802 70.8446 36.018 70.5966 36.194C70.3566 36.362 70.0606 36.478 69.7086 36.542V36.602C70.0686 36.658 70.3926 36.762 70.6806 36.914C70.9766 37.066 71.2086 37.282 71.3766 37.562C71.5446 37.842 71.6286 38.206 71.6286 38.654C71.6286 39.174 71.5086 39.618 71.2686 39.986C71.0286 40.346 70.6846 40.622 70.2366 40.814C69.7966 40.998 69.2686 41.09 68.6526 41.09H65.6406V32.522H68.0886ZM68.3046 36.17C69.0406 36.17 69.5446 36.054 69.8166 35.822C70.0886 35.582 70.2246 35.23 70.2246 34.766C70.2246 34.294 70.0566 33.958 69.7206 33.758C69.3926 33.55 68.8646 33.446 68.1366 33.446H66.7206V36.17H68.3046ZM66.7206 37.07V40.178H68.4486C69.2086 40.178 69.7366 40.03 70.0326 39.734C70.3286 39.438 70.4766 39.05 70.4766 38.57C70.4766 38.266 70.4086 38.002 70.2726 37.778C70.1446 37.554 69.9246 37.382 69.6126 37.262C69.3086 37.134 68.8926 37.07 68.3646 37.07H66.7206ZM77.9813 35.546H75.8813V41.09H74.8373V35.546H72.7613V34.658H77.9813V35.546Z" fill="#93A0B9"/>
<path opacity="0.601619" d="M103.381 33.35C102.925 33.35 102.513 33.43 102.145 33.59C101.777 33.742 101.465 33.97 101.209 34.274C100.953 34.57 100.757 34.934 100.621 35.366C100.485 35.79 100.417 36.27 100.417 36.806C100.417 37.51 100.525 38.122 100.741 38.642C100.965 39.162 101.293 39.562 101.725 39.842C102.165 40.122 102.713 40.262 103.369 40.262C103.745 40.262 104.101 40.23 104.437 40.166C104.773 40.102 105.101 40.022 105.421 39.926V40.862C105.101 40.982 104.769 41.07 104.425 41.126C104.089 41.182 103.685 41.21 103.213 41.21C102.341 41.21 101.613 41.03 101.029 40.67C100.445 40.31 100.005 39.798 99.709 39.134C99.421 38.47 99.277 37.69 99.277 36.794C99.277 36.146 99.365 35.554 99.541 35.018C99.725 34.482 99.989 34.018 100.333 33.626C100.685 33.234 101.117 32.934 101.629 32.726C102.141 32.51 102.729 32.402 103.393 32.402C103.833 32.402 104.257 32.446 104.665 32.534C105.073 32.622 105.437 32.746 105.757 32.906L105.325 33.818C105.061 33.698 104.765 33.59 104.437 33.494C104.117 33.398 103.765 33.35 103.381 33.35ZM110.447 34.538C111.239 34.538 111.875 34.814 112.355 35.366C112.843 35.918 113.087 36.75 113.087 37.862C113.087 38.59 112.975 39.206 112.751 39.71C112.535 40.206 112.227 40.582 111.827 40.838C111.435 41.086 110.971 41.21 110.435 41.21C110.107 41.21 109.815 41.166 109.559 41.078C109.303 40.99 109.083 40.878 108.899 40.742C108.723 40.598 108.571 40.442 108.443 40.274H108.371C108.387 40.41 108.403 40.582 108.419 40.79C108.435 40.998 108.443 41.178 108.443 41.33V43.97H107.387V34.658H108.251L108.395 35.534H108.443C108.571 35.35 108.723 35.182 108.899 35.03C109.083 34.878 109.299 34.758 109.547 34.67C109.803 34.582 110.103 34.538 110.447 34.538ZM110.255 35.426C109.823 35.426 109.475 35.51 109.211 35.678C108.947 35.838 108.755 36.082 108.635 36.41C108.515 36.738 108.451 37.154 108.443 37.658V37.862C108.443 38.39 108.499 38.838 108.611 39.206C108.723 39.574 108.911 39.854 109.175 40.046C109.447 40.238 109.815 40.334 110.279 40.334C110.671 40.334 110.991 40.226 111.239 40.01C111.495 39.794 111.683 39.502 111.803 39.134C111.931 38.758 111.995 38.33 111.995 37.85C111.995 37.114 111.851 36.526 111.563 36.086C111.283 35.646 110.847 35.426 110.255 35.426Z" fill="#93A0B9"/>
<path opacity="0.601619" d="M140.991 41.09H139.911V37.574C139.447 37.734 139.011 37.866 138.603 37.97C138.203 38.066 137.755 38.114 137.259 38.114C136.459 38.114 135.839 37.93 135.399 37.562C134.959 37.186 134.739 36.646 134.739 35.942V32.522H135.819V35.786C135.819 36.25 135.939 36.598 136.179 36.83C136.427 37.054 136.823 37.166 137.367 37.166C137.839 37.166 138.263 37.122 138.639 37.034C139.015 36.946 139.439 36.826 139.911 36.674V32.522H140.991V41.09ZM147.858 35.546H145.758V41.09H144.714V35.546H142.638V34.658H147.858V35.546Z" fill="#93A0B9"/>
<path opacity="0.601619" d="M169.539 41.09V32.522H175.971V41.09H174.903V33.47H170.619V41.09H169.539ZM182.852 35.546H180.752V41.09H179.708V35.546H177.632V34.658H182.852V35.546Z" fill="#93A0B9"/>
<path opacity="0.601619" d="M207.867 33.35C207.411 33.35 206.999 33.43 206.631 33.59C206.263 33.742 205.951 33.97 205.695 34.274C205.439 34.57 205.243 34.934 205.107 35.366C204.971 35.79 204.903 36.27 204.903 36.806C204.903 37.51 205.011 38.122 205.227 38.642C205.451 39.162 205.779 39.562 206.211 39.842C206.651 40.122 207.199 40.262 207.855 40.262C208.231 40.262 208.587 40.23 208.923 40.166C209.259 40.102 209.587 40.022 209.907 39.926V40.862C209.587 40.982 209.255 41.07 208.911 41.126C208.575 41.182 208.171 41.21 207.699 41.21C206.827 41.21 206.099 41.03 205.515 40.67C204.931 40.31 204.491 39.798 204.195 39.134C203.907 38.47 203.763 37.69 203.763 36.794C203.763 36.146 203.851 35.554 204.027 35.018C204.211 34.482 204.475 34.018 204.819 33.626C205.171 33.234 205.603 32.934 206.115 32.726C206.627 32.51 207.215 32.402 207.879 32.402C208.319 32.402 208.743 32.446 209.151 32.534C209.559 32.622 209.923 32.746 210.243 32.906L209.811 33.818C209.547 33.698 209.251 33.59 208.923 33.494C208.603 33.398 208.251 33.35 207.867 33.35ZM211.537 37.226C211.537 36.29 211.629 35.494 211.813 34.838C212.005 34.174 212.297 33.646 212.689 33.254C213.089 32.854 213.601 32.586 214.225 32.45C214.745 32.338 215.253 32.238 215.749 32.15C216.245 32.062 216.709 31.982 217.141 31.91L217.321 32.834C217.113 32.866 216.881 32.906 216.625 32.954C216.369 32.994 216.109 33.038 215.845 33.086C215.581 33.126 215.325 33.17 215.077 33.218C214.837 33.258 214.625 33.298 214.441 33.338C214.177 33.394 213.941 33.49 213.733 33.626C213.525 33.754 213.345 33.93 213.193 34.154C213.049 34.378 212.933 34.654 212.845 34.982C212.757 35.31 212.705 35.698 212.689 36.146H212.761C212.873 35.994 213.025 35.838 213.217 35.678C213.417 35.518 213.653 35.382 213.925 35.27C214.205 35.158 214.521 35.102 214.873 35.102C215.433 35.102 215.897 35.226 216.265 35.474C216.641 35.714 216.921 36.05 217.105 36.482C217.297 36.914 217.393 37.418 217.393 37.994C217.393 38.706 217.269 39.302 217.021 39.782C216.773 40.262 216.429 40.622 215.989 40.862C215.549 41.094 215.037 41.21 214.453 41.21C214.013 41.21 213.613 41.126 213.253 40.958C212.893 40.782 212.585 40.526 212.329 40.19C212.073 39.854 211.877 39.438 211.741 38.942C211.605 38.446 211.537 37.874 211.537 37.226ZM214.537 40.334C214.889 40.334 215.193 40.262 215.449 40.118C215.713 39.974 215.917 39.738 216.061 39.41C216.205 39.082 216.277 38.646 216.277 38.102C216.277 37.446 216.153 36.93 215.905 36.554C215.665 36.17 215.265 35.978 214.705 35.978C214.353 35.978 214.033 36.058 213.745 36.218C213.457 36.37 213.217 36.546 213.025 36.746C212.833 36.946 212.697 37.114 212.617 37.25C212.617 37.642 212.645 38.022 212.701 38.39C212.757 38.758 212.853 39.09 212.989 39.386C213.133 39.674 213.329 39.906 213.577 40.082C213.833 40.25 214.153 40.334 214.537 40.334Z" fill="#93A0B9"/>
<path opacity="0.601619" d="M242.036 32.522C242.748 32.522 243.344 32.59 243.824 32.726C244.312 32.862 244.676 33.086 244.916 33.398C245.164 33.71 245.288 34.126 245.288 34.646C245.288 34.982 245.224 35.282 245.096 35.546C244.976 35.802 244.792 36.018 244.544 36.194C244.304 36.362 244.008 36.478 243.656 36.542V36.602C244.016 36.658 244.34 36.762 244.628 36.914C244.924 37.066 245.156 37.282 245.324 37.562C245.492 37.842 245.576 38.206 245.576 38.654C245.576 39.174 245.456 39.618 245.216 39.986C244.976 40.346 244.632 40.622 244.184 40.814C243.744 40.998 243.216 41.09 242.6 41.09H239.588V32.522H242.036ZM242.252 36.17C242.988 36.17 243.492 36.054 243.764 35.822C244.036 35.582 244.172 35.23 244.172 34.766C244.172 34.294 244.004 33.958 243.668 33.758C243.34 33.55 242.812 33.446 242.084 33.446H240.668V36.17H242.252ZM240.668 37.07V40.178H242.396C243.156 40.178 243.684 40.03 243.98 39.734C244.276 39.438 244.424 39.05 244.424 38.57C244.424 38.266 244.356 38.002 244.22 37.778C244.092 37.554 243.872 37.382 243.56 37.262C243.256 37.134 242.84 37.07 242.312 37.07H240.668ZM250.069 41.21C249.501 41.21 248.993 41.094 248.545 40.862C248.105 40.63 247.757 40.27 247.501 39.782C247.253 39.294 247.129 38.67 247.129 37.91C247.129 37.118 247.261 36.474 247.525 35.978C247.789 35.482 248.145 35.118 248.593 34.886C249.049 34.654 249.565 34.538 250.141 34.538C250.469 34.538 250.785 34.574 251.089 34.646C251.393 34.71 251.641 34.79 251.833 34.886L251.509 35.762C251.317 35.69 251.093 35.622 250.837 35.558C250.581 35.494 250.341 35.462 250.117 35.462C249.685 35.462 249.329 35.554 249.049 35.738C248.769 35.922 248.561 36.194 248.425 36.554C248.289 36.914 248.221 37.362 248.221 37.898C248.221 38.41 248.289 38.846 248.425 39.206C248.561 39.566 248.765 39.838 249.037 40.022C249.309 40.206 249.649 40.298 250.057 40.298C250.409 40.298 250.717 40.262 250.981 40.19C251.253 40.118 251.501 40.03 251.725 39.926V40.862C251.509 40.974 251.269 41.058 251.005 41.114C250.749 41.178 250.437 41.21 250.069 41.21Z" fill="#93A0B9"/>
</svg>
