<svg width="34" height="34" viewBox="0 0 34 34" fill="none" xmlns="http://www.w3.org/2000/svg">
<g clip-path="url(#clip0_1737_1493)">
<path d="M22.1951 16.5365H21.4261V11.4721L21.4108 11.4131C21.3666 11.243 21.2632 10.8445 19.6695 10.3929C19.0844 10.2271 18.4593 10.105 17.8821 10.0395C18.6959 9.79514 19.2907 9.03943 19.2907 8.14714V6.90287C19.2907 5.81344 18.4043 4.92712 17.3149 4.92712H16.6876C15.5982 4.92712 14.7118 5.81344 14.7118 6.90287V8.14707C14.7118 9.03943 15.3067 9.79514 16.1204 10.0395C15.5432 10.105 14.9181 10.227 14.333 10.3928C12.7393 10.8444 12.6359 11.2429 12.5917 11.4131L12.5764 11.472V16.5365H11.8074C11.2806 16.5365 10.8535 16.9635 10.8535 17.4903C10.8535 18.0171 11.2806 18.4442 11.8074 18.4442H22.1951C22.7219 18.4442 23.149 18.0171 23.149 17.4904C23.149 16.9636 22.7219 16.5365 22.1951 16.5365Z" fill="white"/>
<path d="M14.8406 21.9774C14.8405 20.8963 13.9608 20.0168 12.8795 20.0168H9.7327V16.2891C9.7327 15.3024 9.20038 14.4381 8.40805 13.9669C8.92319 13.61 9.26149 13.015 9.26149 12.3422V11.2425C9.26149 10.1531 8.37517 9.26672 7.28575 9.26672H6.77703C5.6876 9.26672 4.80128 10.153 4.80128 11.2425V12.3421C4.80128 13.0149 5.13958 13.6099 5.65472 13.9669C4.86239 14.4381 4.33008 15.3024 4.33008 16.2891V21.2372C4.33008 22.7263 5.54191 23.9377 7.03139 23.9377C7.04003 23.9377 7.04862 23.9375 7.05848 23.9372C7.06776 23.9375 7.07717 23.9377 7.08665 23.9377H10.9185V27.1127C10.9185 28.1937 11.7982 29.0732 12.8795 29.0732C13.9609 29.0732 14.8406 28.1937 14.8406 27.1127V22.0877C14.8406 22.0699 14.8401 22.0522 14.8394 22.0326C14.8401 22.0143 14.8406 21.9959 14.8406 21.9774Z" fill="white"/>
<path d="M8.09154 25.6112H6.73669C4.4725 25.6112 2.63036 23.769 2.63036 21.5048V15.9364C2.63036 15.4096 2.20329 14.9825 1.67651 14.9825C1.14973 14.9825 0.722656 15.4096 0.722656 15.9364V21.5048C0.722656 24.821 3.42053 27.5188 6.73669 27.5188H8.09154C8.61832 27.5188 9.04539 27.0918 9.04539 26.565C9.04539 26.0382 8.61832 25.6112 8.09154 25.6112Z" fill="white"/>
<path d="M28.3498 13.9669C28.865 13.61 29.2033 13.015 29.2033 12.3422V11.2425C29.2033 10.1531 28.317 9.26672 27.2275 9.26672H26.7188C25.6294 9.26672 24.7431 10.153 24.7431 11.2425V12.3422C24.7431 13.015 25.0814 13.61 25.5965 13.9669C24.8042 14.4381 24.2719 15.3024 24.2719 16.2891V20.0168H21.1251C20.0438 20.0168 19.1641 20.8963 19.1641 21.9773C19.1641 21.9951 19.1645 22.0129 19.1652 22.0324C19.1646 22.0507 19.1641 22.0691 19.1641 22.0876V27.1126C19.1641 28.1937 20.0438 29.0731 21.1251 29.0731C22.2065 29.0731 23.0862 28.1937 23.0862 27.1126V23.9377H26.918C26.9266 23.9377 26.9352 23.9375 26.9458 23.9372C26.9549 23.9375 26.964 23.9377 26.9732 23.9377C28.4627 23.9377 29.6745 22.7263 29.6745 21.2372V16.2891C29.6745 15.3024 29.1422 14.4381 28.3498 13.9669Z" fill="white"/>
<path d="M32.3279 14.9825C31.8011 14.9825 31.374 15.4096 31.374 15.9364V21.5048C31.374 23.769 29.5319 25.6111 27.2677 25.6111H25.9128C25.3861 25.6111 24.959 26.0382 24.959 26.565C24.959 27.0918 25.3861 27.5188 25.9128 27.5188H27.2677C30.5838 27.5188 33.2817 24.821 33.2817 21.5048V15.9364C33.2817 15.4096 32.8547 14.9825 32.3279 14.9825Z" fill="white"/>
</g>
<defs>
<clipPath id="clip0_1737_1493">
<rect width="32.5581" height="32.5581" fill="white" transform="translate(0.722656 0.721069)"/>
</clipPath>
</defs>
</svg>
