<svg width="450" height="281" viewBox="0 0 450 281" fill="none" xmlns="http://www.w3.org/2000/svg">
<g clip-path="url(#clip0_1453_1202)">
<path d="M38.4137 278.458H37.8649V278.939C37.8649 279.763 38.5509 280.519 39.4427 280.519H54.8771C55.7003 280.519 56.4549 279.832 56.4549 278.939V278.389H38.4137V278.458ZM2.94879 223.976V223.426H2.40001C1.57684 223.426 0.822266 224.113 0.822266 225.006V240.465C0.822266 241.289 1.50824 242.045 2.40001 242.045H2.94879V223.976ZM58.993 278.458H58.4442V278.939C58.4442 279.763 59.1302 280.519 60.022 280.519H75.4564C76.2796 280.519 77.0342 279.832 77.0342 278.939V278.389H58.993V278.458Z" fill="#EBECEC" stroke="#DDDEDF" stroke-width="1.5"/>
<path fill-rule="evenodd" clip-rule="evenodd" d="M2.40039 18.5502C2.40039 8.24462 10.6321 0.00012207 20.9217 0.00012207H430.792C441.082 0.00012207 449.314 8.24462 449.314 18.5502V260.389C449.314 270.695 441.082 278.939 430.792 278.939H20.9217C10.6321 278.939 2.40039 270.695 2.40039 260.389V18.5502Z" fill="#EEF0F1"/>
<mask id="mask0_1453_1202" style="mask-type:luminance" maskUnits="userSpaceOnUse" x="2" y="0" width="448" height="279">
<path fill-rule="evenodd" clip-rule="evenodd" d="M2.40039 18.5502C2.40039 8.24462 10.6321 0.00012207 20.9217 0.00012207H430.792C441.082 0.00012207 449.314 8.24462 449.314 18.5502V260.389C449.314 270.695 441.082 278.939 430.792 278.939H20.9217C10.6321 278.939 2.40039 270.695 2.40039 260.389V18.5502Z" fill="white"/>
</mask>
<g mask="url(#mask0_1453_1202)">
<path fill-rule="evenodd" clip-rule="evenodd" d="M426.676 11.3363C426.676 8.32976 427.868 5.44636 429.991 3.32041C432.114 1.19447 434.993 0.00012207 437.994 0.00012207C440.996 0.00012207 443.875 1.19447 445.998 3.32041C448.12 5.44636 449.313 8.32976 449.313 11.3363V279.626H426.676V11.3363Z" fill="url(#paint0_linear_1453_1202)"/>
<path opacity="0.5" fill-rule="evenodd" clip-rule="evenodd" d="M2.40106 3.64144C2.40106 1.58032 4.04741 0.00012207 6.03673 0.00012207H445.747C446.702 0.00012207 447.618 0.380141 448.294 1.05658C448.969 1.73302 449.348 2.65046 449.348 3.60709C449.348 4.56372 448.969 5.48116 448.294 6.1576C447.618 6.83404 446.702 7.21406 445.747 7.21406H6.03673C5.55673 7.2234 5.07978 7.13559 4.63447 6.9559C4.18916 6.77621 3.78464 6.50834 3.44516 6.16834C3.10568 5.82833 2.83823 5.42319 2.65882 4.97718C2.47941 4.53118 2.39174 4.05349 2.40106 3.57274V3.64144Z" fill="url(#paint1_linear_1453_1202)"/>
<path opacity="0.5" fill-rule="evenodd" clip-rule="evenodd" d="M2.40039 276.053C2.40039 273.992 4.04673 272.412 6.03606 272.412H445.746C446.702 272.412 447.618 272.792 448.293 273.469C448.968 274.145 449.348 275.062 449.348 276.019C449.348 276.976 448.968 277.893 448.293 278.57C447.618 279.246 446.702 279.626 445.746 279.626H6.03606C5.07182 279.626 4.14707 279.242 3.46525 278.56C2.78343 277.877 2.40039 276.95 2.40039 275.985V276.053Z" fill="url(#paint2_linear_1453_1202)"/>
<path fill-rule="evenodd" clip-rule="evenodd" d="M9.60313 9.68744C9.60313 7.48891 6.85923 6.52705 5.48728 8.24465L3.90954 11.9547C2.92075 14.2553 2.40738 16.7326 2.40039 19.2373V281.687H9.60313V9.68744Z" fill="url(#paint3_linear_1453_1202)"/>
</g>
<path fill-rule="evenodd" clip-rule="evenodd" d="M9.60352 21.642C9.60352 17.8155 11.1212 14.1457 13.8228 11.4399C16.5243 8.73419 20.1884 7.21411 24.009 7.21411H427.706C431.526 7.21411 435.19 8.73419 437.892 11.4399C440.593 14.1457 442.111 17.8155 442.111 21.642V257.984C442.111 261.811 440.593 265.481 437.892 268.186C435.19 270.892 431.526 272.412 427.706 272.412H24.009C20.1884 272.412 16.5243 270.892 13.8228 268.186C11.1212 265.481 9.60352 261.811 9.60352 257.984V21.642Z" fill="url(#paint4_linear_1453_1202)"/>
<path d="M429.421 7.21411H21.9511C15.1317 7.21411 9.60352 12.7509 9.60352 19.5809V260.045C9.60352 266.875 15.1317 272.412 21.9511 272.412H429.421C436.24 272.412 441.768 266.875 441.768 260.045V19.5809C441.768 12.7509 436.24 7.21411 429.421 7.21411Z" fill="white"/>
<mask id="mask1_1453_1202" style="mask-type:luminance" maskUnits="userSpaceOnUse" x="9" y="7" width="433" height="266">
<path d="M429.421 7.21411H21.9511C15.1317 7.21411 9.60352 12.7509 9.60352 19.5809V260.045C9.60352 266.875 15.1317 272.412 21.9511 272.412H429.421C436.24 272.412 441.768 266.875 441.768 260.045V19.5809C441.768 12.7509 436.24 7.21411 429.421 7.21411Z" fill="white"/>
</mask>
<g mask="url(#mask1_1453_1202)">
<path d="M9.60352 7.21411H73.0563V272.412H9.60352V7.21411Z" fill="#F9F9F9"/>
<path d="M146.112 44.6578H88.4901C86.0275 44.6578 84.0312 46.6572 84.0312 49.1236C84.0312 51.59 86.0275 53.5894 88.4901 53.5894H146.112C148.575 53.5894 150.571 51.59 150.571 49.1236C150.571 46.6572 148.575 44.6578 146.112 44.6578Z" fill="#F9F9F9"/>
<path d="M198.246 16.4891H92.9489C88.0238 16.4891 84.0312 20.4879 84.0312 25.4207C84.0312 30.3534 88.0238 34.3522 92.9489 34.3522H198.246C203.171 34.3522 207.164 30.3534 207.164 25.4207C207.164 20.4879 203.171 16.4891 198.246 16.4891Z" fill="#F9F9F9"/>
<path d="M392.035 16.8326H364.596C362.323 16.8326 360.48 18.6782 360.48 20.9549C360.48 23.2315 362.323 25.0771 364.596 25.0771H392.035C394.308 25.0771 396.151 23.2315 396.151 20.9549C396.151 18.6782 394.308 16.8326 392.035 16.8326Z" stroke="#EAEAF5"/>
<path d="M412.271 20.9549C412.271 18.4885 410.275 16.4891 407.812 16.4891C405.35 16.4891 403.354 18.4885 403.354 20.9549C403.354 23.4213 405.35 25.4207 407.812 25.4207C410.275 25.4207 412.271 23.4213 412.271 20.9549Z" fill="#F9F9F9"/>
<path d="M428.049 20.9549C428.049 18.4885 426.052 16.4891 423.59 16.4891C421.127 16.4891 419.131 18.4885 419.131 20.9549C419.131 23.4213 421.127 25.4207 423.59 25.4207C426.052 25.4207 428.049 23.4213 428.049 20.9549Z" fill="#F9F9F9"/>
<path d="M185.556 157.676H91.234C87.256 157.676 84.0312 160.906 84.0312 164.89V254.549C84.0312 258.533 87.256 261.763 91.234 261.763H185.556C189.534 261.763 192.758 258.533 192.758 254.549V164.89C192.758 160.906 189.534 157.676 185.556 157.676Z" fill="#F9F9F9"/>
<path opacity="0.5" d="M122.104 166.264H98.7811C96.3186 166.264 94.3223 168.264 94.3223 170.73C94.3223 173.196 96.3186 175.196 98.7811 175.196H122.104C124.567 175.196 126.563 173.196 126.563 170.73C126.563 168.264 124.567 166.264 122.104 166.264Z" fill="#D8D8D8"/>
<path opacity="0.5" d="M51.1043 50.1542H27.7811C25.3186 50.1542 23.3223 52.1536 23.3223 54.6199C23.3223 57.0863 25.3186 59.0857 27.7811 59.0857H51.1043C53.5668 59.0857 55.5631 57.0863 55.5631 54.6199C55.5631 52.1536 53.5668 50.1542 51.1043 50.1542Z" fill="#D8D8D8"/>
<path d="M32.5837 25.4207C32.5837 22.9543 30.5874 20.955 28.1249 20.955C25.6623 20.955 23.666 22.9543 23.666 25.4207C23.666 27.8871 25.6623 29.8865 28.1249 29.8865C30.5874 29.8865 32.5837 27.8871 32.5837 25.4207Z" fill="#65C358"/>
<path d="M51.1059 21.2985H40.4733C38.2002 21.2985 36.3574 23.1441 36.3574 25.4207C36.3574 27.6974 38.2002 29.543 40.4733 29.543H51.1059C53.379 29.543 55.2218 27.6974 55.2218 25.4207C55.2218 23.1441 53.379 21.2985 51.1059 21.2985Z" fill="#65C358"/>
<path opacity="0.5" d="M44.9305 69.3914H27.7811C25.3186 69.3914 23.3223 71.3908 23.3223 73.8571C23.3223 76.3235 25.3186 78.3229 27.7811 78.3229H44.9305C47.393 78.3229 49.3893 76.3235 49.3893 73.8571C49.3893 71.3908 47.393 69.3914 44.9305 69.3914Z" fill="#D8D8D8"/>
<path opacity="0.5" d="M34.9839 88.6285H27.7811C25.3186 88.6285 23.3223 90.6279 23.3223 93.0943C23.3223 95.5607 25.3186 97.5601 27.7811 97.5601H34.9839C37.4464 97.5601 39.4427 95.5607 39.4427 93.0943C39.4427 90.6279 37.4464 88.6285 34.9839 88.6285Z" fill="#D8D8D8"/>
<path opacity="0.5" d="M51.1043 107.866H27.7811C25.3186 107.866 23.3223 109.865 23.3223 112.331C23.3223 114.798 25.3186 116.797 27.7811 116.797H51.1043C53.5668 116.797 55.5631 114.798 55.5631 112.331C55.5631 109.865 53.5668 107.866 51.1043 107.866Z" fill="#D8D8D8"/>
<path opacity="0.5" d="M51.1043 127.103H27.7811C25.3186 127.103 23.3223 129.102 23.3223 131.569C23.3223 134.035 25.3186 136.034 27.7811 136.034H51.1043C53.5668 136.034 55.5631 134.035 55.5631 131.569C55.5631 129.102 53.5668 127.103 51.1043 127.103Z" fill="#D8D8D8"/>
<path opacity="0.5" d="M34.9839 146.34H27.7811C25.3186 146.34 23.3223 148.339 23.3223 150.806C23.3223 153.272 25.3186 155.272 27.7811 155.272H34.9839C37.4464 155.272 39.4427 153.272 39.4427 150.806C39.4427 148.339 37.4464 146.34 34.9839 146.34Z" fill="#D8D8D8"/>
<path opacity="0.5" d="M51.1043 165.577H27.7811C25.3186 165.577 23.3223 167.577 23.3223 170.043C23.3223 172.509 25.3186 174.509 27.7811 174.509H51.1043C53.5668 174.509 55.5631 172.509 55.5631 170.043C55.5631 167.577 53.5668 165.577 51.1043 165.577Z" fill="#D8D8D8"/>
<path opacity="0.5" d="M44.9305 184.814H27.7811C25.3186 184.814 23.3223 186.814 23.3223 189.28C23.3223 191.746 25.3186 193.746 27.7811 193.746H44.9305C47.393 193.746 49.3893 191.746 49.3893 189.28C49.3893 186.814 47.393 184.814 44.9305 184.814Z" fill="#D8D8D8"/>
<path opacity="0.5" d="M51.1043 204.052H27.7811C25.3186 204.052 23.3223 206.051 23.3223 208.517C23.3223 210.984 25.3186 212.983 27.7811 212.983H51.1043C53.5668 212.983 55.5631 210.984 55.5631 208.517C55.5631 206.051 53.5668 204.052 51.1043 204.052Z" fill="#D8D8D8"/>
<path opacity="0.5" d="M34.9839 223.289H27.7811C25.3186 223.289 23.3223 225.288 23.3223 227.754C23.3223 230.221 25.3186 232.22 27.7811 232.22H34.9839C37.4464 232.22 39.4427 230.221 39.4427 227.754C39.4427 225.288 37.4464 223.289 34.9839 223.289Z" fill="#D8D8D8"/>
<path d="M44.9313 242.869H27.7819C25.5087 242.869 23.666 244.715 23.666 246.992C23.666 249.268 25.5087 251.114 27.7819 251.114H44.9313C47.2044 251.114 49.0471 249.268 49.0471 246.992C49.0471 244.715 47.2044 242.869 44.9313 242.869Z" stroke="#EAEAF5"/>
<path opacity="0.5" d="M176.639 230.159H98.7811C96.3186 230.159 94.3223 232.158 94.3223 234.625C94.3223 237.091 96.3186 239.091 98.7811 239.091H176.639C179.102 239.091 181.098 237.091 181.098 234.625C181.098 232.158 179.102 230.159 176.639 230.159Z" fill="#D8D8D8"/>
<path opacity="0.5" d="M157.089 244.243H98.7811C96.3186 244.243 94.3223 246.243 94.3223 248.709C94.3223 251.176 96.3186 253.175 98.7811 253.175H157.089C159.552 253.175 161.548 251.176 161.548 248.709C161.548 246.243 159.552 244.243 157.089 244.243Z" fill="#D8D8D8"/>
<path d="M138.568 217.792C147.471 217.792 154.688 210.564 154.688 201.647C154.688 192.73 147.471 185.501 138.568 185.501C129.665 185.501 122.447 192.73 122.447 201.647C122.447 210.564 129.665 217.792 138.568 217.792Z" stroke="white" stroke-width="13.5"/>
<path d="M138.568 217.792C147.471 217.792 154.688 210.564 154.688 201.647C154.688 192.73 147.471 185.501 138.568 185.501C129.665 185.501 122.447 192.73 122.447 201.647C122.447 210.564 129.665 217.792 138.568 217.792Z" stroke="#EFEFEF" stroke-width="13.5"/>
<path d="M303.2 157.676H208.879C204.901 157.676 201.676 160.906 201.676 164.89V254.549C201.676 258.533 204.901 261.763 208.879 261.763H303.2C307.178 261.763 310.403 258.533 310.403 254.549V164.89C310.403 160.906 307.178 157.676 303.2 157.676Z" fill="#F9F9F9"/>
<path opacity="0.5" d="M263.072 166.264H216.426C213.963 166.264 211.967 168.264 211.967 170.73C211.967 173.196 213.963 175.196 216.426 175.196H263.072C265.535 175.196 267.531 173.196 267.531 170.73C267.531 168.264 265.535 166.264 263.072 166.264Z" fill="#D8D8D8"/>
<path opacity="0.5" d="M235.29 230.159H216.426C213.963 230.159 211.967 232.158 211.967 234.625C211.967 237.091 213.963 239.091 216.426 239.091H235.29C237.753 239.091 239.749 237.091 239.749 234.625C239.749 232.158 237.753 230.159 235.29 230.159Z" fill="#D8D8D8"/>
<path opacity="0.5" d="M290.511 244.243H216.426C213.963 244.243 211.967 246.243 211.967 248.709C211.967 251.176 213.963 253.175 216.426 253.175H290.511C292.974 253.175 294.97 251.176 294.97 248.709C294.97 246.243 292.974 244.243 290.511 244.243Z" fill="#D8D8D8"/>
<path d="M256.212 217.792C265.115 217.792 272.333 210.564 272.333 201.647C272.333 192.73 265.115 185.501 256.212 185.501C247.309 185.501 240.092 192.73 240.092 201.647C240.092 210.564 247.309 217.792 256.212 217.792Z" stroke="white" stroke-width="13.5"/>
<path d="M256.212 185.501C247.309 185.501 240.091 192.73 240.091 201.647C240.091 210.564 247.309 217.792 256.212 217.792C265.115 217.792 272.332 210.564 272.332 201.647C272.332 192.73 265.115 185.501 256.212 185.501Z" stroke="#1A4BFA" stroke-width="13.5"/>
<path d="M420.845 158.02H326.524C322.735 158.02 319.664 161.096 319.664 164.89V254.549C319.664 258.344 322.735 261.42 326.524 261.42H420.845C424.634 261.42 427.705 258.344 427.705 254.549V164.89C427.705 161.096 424.634 158.02 420.845 158.02Z" stroke="#EAEAF5"/>
<path opacity="0.5" d="M348.476 166.264H334.07C331.608 166.264 329.611 168.264 329.611 170.73C329.611 173.196 331.608 175.196 334.07 175.196H348.476C350.938 175.196 352.934 173.196 352.934 170.73C352.934 168.264 350.938 166.264 348.476 166.264Z" fill="#D8D8D8"/>
<path opacity="0.5" d="M400.953 230.159H334.07C331.608 230.159 329.611 232.158 329.611 234.625C329.611 237.091 331.608 239.091 334.07 239.091H400.953C403.415 239.091 405.412 237.091 405.412 234.625C405.412 232.158 403.415 230.159 400.953 230.159Z" fill="#D8D8D8"/>
<path opacity="0.5" d="M365.282 244.243H334.07C331.608 244.243 329.611 246.243 329.611 248.709C329.611 251.176 331.608 253.175 334.07 253.175H365.282C367.745 253.175 369.741 251.176 369.741 248.709C369.741 246.243 367.745 244.243 365.282 244.243Z" fill="#D8D8D8"/>
<path d="M373.857 217.792C382.76 217.792 389.977 210.564 389.977 201.647C389.977 192.73 382.76 185.501 373.857 185.501C364.954 185.501 357.736 192.73 357.736 201.647C357.736 210.564 364.954 217.792 373.857 217.792Z" stroke="white" stroke-width="13.5"/>
<path d="M357.736 201.647C357.736 210.564 364.953 217.792 373.856 217.792C382.759 217.792 389.977 210.564 389.977 201.647C389.977 192.73 382.759 185.501 373.856 185.501C364.953 185.501 357.736 192.73 357.736 201.647Z" stroke="#65C358" stroke-width="13.5"/>
<path d="M337.843 64.2385H279.536C275.747 64.2385 272.676 67.3145 272.676 71.1089V93.4378C272.676 97.2322 275.747 100.308 279.536 100.308H337.843C341.632 100.308 344.703 97.2322 344.703 93.4378V71.1089C344.703 67.3145 341.632 64.2385 337.843 64.2385Z" stroke="#EAEAF5"/>
<path d="M337.843 110.614H279.535C275.557 110.614 272.332 113.844 272.332 117.828V140.157C272.332 144.141 275.557 147.371 279.535 147.371H337.843C341.821 147.371 345.045 144.141 345.045 140.157V117.828C345.045 113.844 341.821 110.614 337.843 110.614Z" fill="#F9F9F9"/>
<path d="M293.941 120.095H287.082C284.051 120.095 281.594 122.556 281.594 125.591V132.462C281.594 135.497 284.051 137.958 287.082 137.958H293.941C296.972 137.958 299.429 135.497 299.429 132.462V125.591C299.429 122.556 296.972 120.095 293.941 120.095Z" fill="white"/>
<path opacity="0.5" d="M293.941 73.17H287.082C284.051 73.17 281.594 75.6308 281.594 78.6664V85.5368C281.594 88.5723 284.051 91.0331 287.082 91.0331H293.941C296.972 91.0331 299.429 88.5723 299.429 85.5368V78.6664C299.429 75.6308 296.972 73.17 293.941 73.17Z" fill="#ECECEC"/>
<path d="M420.847 63.895H362.539C358.561 63.895 355.336 67.1248 355.336 71.109V93.4378C355.336 97.422 358.561 100.652 362.539 100.652H420.847C424.825 100.652 428.049 97.422 428.049 93.4378V71.109C428.049 67.1248 424.825 63.895 420.847 63.895Z" fill="#F9F9F9"/>
<path d="M420.847 110.614H362.539C358.561 110.614 355.336 113.844 355.336 117.828V140.157C355.336 144.141 358.561 147.371 362.539 147.371H420.847C424.825 147.371 428.049 144.141 428.049 140.157V117.828C428.049 113.844 424.825 110.614 420.847 110.614Z" fill="#F9F9F9"/>
<path d="M376.943 120.095H370.084C367.053 120.095 364.596 122.556 364.596 125.591V132.462C364.596 135.497 367.053 137.958 370.084 137.958H376.943C379.974 137.958 382.431 135.497 382.431 132.462V125.591C382.431 122.556 379.974 120.095 376.943 120.095Z" fill="white"/>
<path d="M376.943 73.17H370.084C367.053 73.17 364.596 75.6308 364.596 78.6664V85.5368C364.596 88.5723 367.053 91.0331 370.084 91.0331H376.943C379.974 91.0331 382.431 88.5723 382.431 85.5368V78.6664C382.431 75.6308 379.974 73.17 376.943 73.17Z" fill="white"/>
<path opacity="0.5" d="M325.151 124.561H310.746C308.283 124.561 306.287 126.56 306.287 129.027C306.287 131.493 308.283 133.492 310.746 133.492H325.151C327.614 133.492 329.61 131.493 329.61 129.027C329.61 126.56 327.614 124.561 325.151 124.561Z" fill="#D8D8D8"/>
<path opacity="0.5" d="M325.151 77.6359H310.746C308.283 77.6359 306.287 79.6353 306.287 82.1016C306.287 84.568 308.283 86.5674 310.746 86.5674H325.151C327.614 86.5674 329.61 84.568 329.61 82.1016C329.61 79.6353 327.614 77.6359 325.151 77.6359Z" fill="#ECECEC"/>
<path opacity="0.5" d="M408.155 124.561H393.75C391.287 124.561 389.291 126.56 389.291 129.027C389.291 131.493 391.287 133.492 393.75 133.492H408.155C410.618 133.492 412.614 131.493 412.614 129.027C412.614 126.56 410.618 124.561 408.155 124.561Z" fill="#D8D8D8"/>
<path opacity="0.5" d="M408.155 77.6359H393.75C391.287 77.6359 389.291 79.6353 389.291 82.1016C389.291 84.568 391.287 86.5674 393.75 86.5674H408.155C410.618 86.5674 412.614 84.568 412.614 82.1016C412.614 79.6353 410.618 77.6359 408.155 77.6359Z" fill="#D8D8D8"/>
<g filter="url(#filter0_d_1453_1202)">
<path d="M254.839 63.895H91.234C87.256 63.895 84.0312 67.1248 84.0312 71.109V140.157C84.0312 144.141 87.256 147.371 91.234 147.371H254.839C258.817 147.371 262.042 144.141 262.042 140.157V71.109C262.042 67.1248 258.817 63.895 254.839 63.895Z" fill="white"/>
</g>
<path fill-rule="evenodd" clip-rule="evenodd" d="M99.8086 73.8571C99.8476 73.752 99.9178 73.6612 100.01 73.5972C100.102 73.5331 100.211 73.4988 100.323 73.4988C100.435 73.4988 100.544 73.5331 100.636 73.5972C100.728 73.6612 100.799 73.752 100.838 73.8571V137.408C100.799 137.514 100.728 137.604 100.636 137.668C100.544 137.733 100.435 137.767 100.323 137.767C100.211 137.767 100.102 137.733 100.01 137.668C99.9178 137.604 99.8476 137.514 99.8086 137.408V73.8571ZM117.987 73.8571C118.026 73.752 118.096 73.6612 118.188 73.5972C118.28 73.5331 118.389 73.4988 118.501 73.4988C118.613 73.4988 118.723 73.5331 118.815 73.5972C118.907 73.6612 118.977 73.752 119.016 73.8571V137.408C118.977 137.514 118.907 137.604 118.815 137.668C118.723 137.733 118.613 137.767 118.501 137.767C118.389 137.767 118.28 137.733 118.188 137.668C118.096 137.604 118.026 137.514 117.987 137.408V73.8571ZM136.165 73.8571C136.204 73.752 136.274 73.6612 136.366 73.5972C136.458 73.5331 136.568 73.4988 136.68 73.4988C136.792 73.4988 136.901 73.5331 136.993 73.5972C137.085 73.6612 137.155 73.752 137.194 73.8571V137.408C137.155 137.514 137.085 137.604 136.993 137.668C136.901 137.733 136.792 137.767 136.68 137.767C136.568 137.767 136.458 137.733 136.366 137.668C136.274 137.604 136.204 137.514 136.165 137.408V73.8571ZM154.344 73.8571C154.383 73.752 154.453 73.6612 154.545 73.5972C154.637 73.5331 154.746 73.4988 154.858 73.4988C154.97 73.4988 155.08 73.5331 155.171 73.5972C155.263 73.6612 155.334 73.752 155.373 73.8571V137.408C155.334 137.514 155.263 137.604 155.171 137.668C155.08 137.733 154.97 137.767 154.858 137.767C154.746 137.767 154.637 137.733 154.545 137.668C154.453 137.604 154.383 137.514 154.344 137.408V73.8571ZM172.522 73.8571C172.561 73.752 172.631 73.6612 172.723 73.5972C172.815 73.5331 172.924 73.4988 173.036 73.4988C173.149 73.4988 173.258 73.5331 173.35 73.5972C173.442 73.6612 173.512 73.752 173.551 73.8571V137.408C173.512 137.514 173.442 137.604 173.35 137.668C173.258 137.733 173.149 137.767 173.036 137.767C172.924 137.767 172.815 137.733 172.723 137.668C172.631 137.604 172.561 137.514 172.522 137.408V73.8571ZM190.7 73.8571C190.739 73.752 190.81 73.6612 190.901 73.5972C190.993 73.5331 191.103 73.4988 191.215 73.4988C191.327 73.4988 191.436 73.5331 191.528 73.5972C191.62 73.6612 191.69 73.752 191.729 73.8571V137.408C191.69 137.514 191.62 137.604 191.528 137.668C191.436 137.733 191.327 137.767 191.215 137.767C191.103 137.767 190.993 137.733 190.901 137.668C190.81 137.604 190.739 137.514 190.7 137.408V73.8571ZM208.879 73.8571C208.918 73.752 208.988 73.6612 209.08 73.5972C209.172 73.5331 209.281 73.4988 209.393 73.4988C209.505 73.4988 209.615 73.5331 209.707 73.5972C209.799 73.6612 209.869 73.752 209.908 73.8571V137.408C209.869 137.514 209.799 137.604 209.707 137.668C209.615 137.733 209.505 137.767 209.393 137.767C209.281 137.767 209.172 137.733 209.08 137.668C208.988 137.604 208.918 137.514 208.879 137.408V73.8571ZM227.057 73.8571C227.096 73.752 227.166 73.6612 227.258 73.5972C227.35 73.5331 227.46 73.4988 227.572 73.4988C227.684 73.4988 227.793 73.5331 227.885 73.5972C227.977 73.6612 228.047 73.752 228.086 73.8571V137.408C228.047 137.514 227.977 137.604 227.885 137.668C227.793 137.733 227.684 137.767 227.572 137.767C227.46 137.767 227.35 137.733 227.258 137.668C227.166 137.604 227.096 137.514 227.057 137.408V73.8571ZM245.235 73.8571C245.274 73.752 245.345 73.6612 245.437 73.5972C245.529 73.5331 245.638 73.4988 245.75 73.4988C245.862 73.4988 245.971 73.5331 246.063 73.5972C246.155 73.6612 246.225 73.752 246.264 73.8571V137.408C246.225 137.514 246.155 137.604 246.063 137.668C245.971 137.733 245.862 137.767 245.75 137.767C245.638 137.767 245.529 137.733 245.437 137.668C245.345 137.604 245.274 137.514 245.235 137.408V73.8571Z" fill="#F9F9F9"/>
<path d="M94.3223 135.691L109.963 114.118C110.655 113.169 111.528 112.366 112.53 111.756C113.533 111.145 114.646 110.739 115.806 110.56C116.966 110.382 118.15 110.434 119.289 110.714C120.429 110.995 121.502 111.498 122.447 112.194L131.845 119.065C133.463 120.276 135.443 120.902 137.462 120.84C139.48 120.777 141.418 120.03 142.958 118.721L154.139 109.102C155.431 108.008 157.007 107.304 158.683 107.073C160.36 106.841 162.067 107.093 163.606 107.797L173.758 112.4C175.77 113.313 178.048 113.446 180.151 112.773C182.255 112.101 184.034 110.67 185.145 108.759L190.702 99.1403C191.499 97.7792 192.641 96.6538 194.013 95.8785C195.385 95.1033 196.938 94.7059 198.513 94.7269C200.088 94.7478 201.63 95.1863 202.981 95.9977C204.332 96.8092 205.444 97.9646 206.205 99.3465L211.555 108.965C214.985 115.148 223.903 115.011 227.196 108.759L228.979 105.461C229.641 104.241 230.578 103.193 231.715 102.399C232.852 101.605 234.158 101.087 235.53 100.887C236.901 100.687 238.301 100.81 239.616 101.246C240.932 101.683 242.129 102.42 243.11 103.4L251.754 111.988" stroke="#6734FB" stroke-width="9.5" stroke-linecap="round"/>
</g>
<line x1="72.5273" y1="8.93164" x2="72.5273" y2="272.756" stroke="#65C358"/>
</g>
<defs>
<filter id="filter0_d_1453_1202" x="34.0312" y="35.895" width="278.01" height="183.476" filterUnits="userSpaceOnUse" color-interpolation-filters="sRGB">
<feFlood flood-opacity="0" result="BackgroundImageFix"/>
<feColorMatrix in="SourceAlpha" type="matrix" values="0 0 0 0 0 0 0 0 0 0 0 0 0 0 0 0 0 0 127 0" result="hardAlpha"/>
<feOffset dy="22"/>
<feGaussianBlur stdDeviation="25"/>
<feColorMatrix type="matrix" values="0 0 0 0 0.0904099 0 0 0 0 0.0904099 0 0 0 0 0.0904099 0 0 0 0.0618171 0"/>
<feBlend mode="normal" in2="BackgroundImageFix" result="effect1_dropShadow_1453_1202"/>
<feBlend mode="normal" in="SourceGraphic" in2="effect1_dropShadow_1453_1202" result="shape"/>
</filter>
<linearGradient id="paint0_linear_1453_1202" x1="426.676" y1="231.671" x2="449.313" y2="231.671" gradientUnits="userSpaceOnUse">
<stop stop-color="#F8F9F9" stop-opacity="0"/>
<stop offset="1" stop-color="white" stop-opacity="0.8"/>
</linearGradient>
<linearGradient id="paint1_linear_1453_1202" x1="527.515" y1="7.21406" x2="527.515" y2="0.00012207" gradientUnits="userSpaceOnUse">
<stop stop-color="#F8F9F9" stop-opacity="0"/>
<stop offset="1" stop-color="white"/>
</linearGradient>
<linearGradient id="paint2_linear_1453_1202" x1="527.515" y1="279.626" x2="527.515" y2="272.412" gradientUnits="userSpaceOnUse">
<stop stop-color="#E1E1E1"/>
<stop offset="1" stop-color="white" stop-opacity="0"/>
</linearGradient>
<linearGradient id="paint3_linear_1453_1202" x1="9.60313" y1="233.938" x2="2.40039" y2="233.938" gradientUnits="userSpaceOnUse">
<stop stop-color="#DEDFE1" stop-opacity="0"/>
<stop offset="1" stop-color="#DEDFE1"/>
</linearGradient>
<linearGradient id="paint4_linear_1453_1202" x1="9.60352" y1="7.21411" x2="9.60352" y2="272.412" gradientUnits="userSpaceOnUse">
<stop stop-color="white"/>
<stop offset="0.9" stop-color="white"/>
<stop offset="1" stop-color="white"/>
</linearGradient>
<clipPath id="clip0_1453_1202">
<rect width="450" height="281" fill="white"/>
</clipPath>
</defs>
</svg>
