<svg width="32" height="32" viewBox="0 0 32 32" fill="none" xmlns="http://www.w3.org/2000/svg">
<path d="M28.7919 13.1931H31.9999C31.7593 8.05216 29.2249 3.52886 25.3834 0.601562L23.0977 2.88728C26.3538 5.22111 28.5433 8.94239 28.7919 13.1931Z" fill="white"/>
<path d="M8.9103 2.89532L6.61654 0.601562C2.77496 3.52886 0.240602 8.05216 0 13.1931H3.20805C3.45662 8.94239 5.64609 5.22111 8.9103 2.89532Z" fill="white"/>
<path d="M25.6241 13.995C25.6241 9.06269 23.0016 4.94841 18.4061 3.85765V2.76698C18.4061 1.43562 17.3314 0.360962 16.0001 0.360962C14.6687 0.360962 13.5941 1.43562 13.5941 2.76698V3.85773C8.99857 4.94848 6.37601 9.06277 6.37601 13.9951V22.0151L3.16797 25.2231V26.8271H28.8321V25.2231L25.6241 22.0151V13.995Z" fill="white"/>
<path d="M16.0009 31.6391C16.2255 31.6391 16.4421 31.6151 16.6506 31.575C17.6932 31.3584 18.5513 30.6366 18.9603 29.6823C19.1207 29.2973 19.209 28.8803 19.209 28.4312H12.793C12.7929 30.2036 14.2285 31.6391 16.0009 31.6391Z" fill="white"/>
</svg>
