<svg width="32" height="32" viewBox="0 0 32 32" fill="none" xmlns="http://www.w3.org/2000/svg">
<path d="M0 10.7826V27.8261C0 29.5523 1.40425 30.9565 3.13044 30.9565H6.26088V10.7826H0Z" fill="white"/>
<path d="M28.8696 1.04346H3.13044C1.40425 1.04346 0 2.44771 0 4.17389V8.69564H32V4.17389C32 2.44771 30.5957 1.04346 28.8696 1.04346ZM5.21737 5.91302C4.64112 5.91302 4.17387 5.44583 4.17387 4.86952C4.17387 4.29327 4.64106 3.82602 5.21737 3.82602C5.79369 3.82602 6.26088 4.29321 6.26088 4.86952C6.26088 5.44577 5.79369 5.91302 5.21737 5.91302ZM9.39131 5.91302C8.81506 5.91302 8.34781 5.44583 8.34781 4.86952C8.34781 4.29327 8.815 3.82602 9.39131 3.82602C9.96762 3.82602 10.4348 4.29321 10.4348 4.86952C10.4348 5.44577 9.96756 5.91302 9.39131 5.91302ZM13.5652 5.91302C12.9889 5.91302 12.5217 5.44583 12.5217 4.86952C12.5217 4.29327 12.9889 3.82602 13.5652 3.82602C14.1414 3.82602 14.6087 4.29321 14.6087 4.86952C14.6087 5.44577 14.1415 5.91302 13.5652 5.91302Z" fill="white"/>
<path d="M8.34766 10.7826V30.9565H28.8694C30.5956 30.9565 31.9998 29.5523 31.9998 27.8261V10.7826H8.34766ZM26.7825 25.3913H13.565C12.989 25.3913 12.5215 24.9242 12.5215 24.3478C12.5215 23.7713 12.989 23.3043 13.565 23.3043H26.7824C27.3585 23.3043 27.8259 23.7713 27.8259 24.3478C27.8259 24.9242 27.3585 25.3913 26.7825 25.3913ZM26.7825 21.2173H13.565C12.989 21.2173 12.5215 20.7503 12.5215 20.1738C12.5215 19.5974 12.989 19.1303 13.565 19.1303H26.7824C27.3585 19.1303 27.8259 19.5974 27.8259 20.1738C27.8259 20.7503 27.3585 21.2173 26.7825 21.2173ZM26.7825 17.0435H13.565C12.989 17.0435 12.5215 16.5764 12.5215 16C12.5215 15.4235 12.989 14.9565 13.565 14.9565H26.7824C27.3585 14.9565 27.8259 15.4235 27.8259 16C27.8259 16.5764 27.3585 17.0435 26.7825 17.0435Z" fill="white"/>
</svg>
