<svg width="32" height="32" viewBox="0 0 32 32" fill="none" xmlns="http://www.w3.org/2000/svg">
<g clip-path="url(#clip0_1737_1580)">
<path d="M26.308 11.2424C26.3081 11.266 26.3118 11.2889 26.3118 11.3125C26.3118 18.5497 20.0038 24.4375 12.2493 24.4375H8.25977C9.92914 28.8559 14.4381 32 19.7493 32H31.0618C31.4472 32 31.7933 31.7638 31.9343 31.4049C32.0753 31.0461 31.9819 30.6377 31.699 30.375L29.1346 27.9964C30.9895 25.9703 31.9993 23.3691 31.9993 20.6875C31.9993 16.8027 29.7444 13.2797 26.308 11.2424Z" fill="white"/>
<path d="M0.300312 20.9374C0.0174375 21.2002 -0.076 21.6085 0.065 21.9674C0.206 22.3263 0.552063 22.5625 0.9375 22.5625H12.25C18.97 22.5625 24.4375 17.5161 24.4375 11.3125C24.4375 5.10887 18.97 0 12.25 0C5.53 0 0 5.10887 0 11.3125C0 13.9941 1.00981 16.5328 2.86469 18.5589L0.300312 20.9374ZM6.625 5.6875H17.875C18.3932 5.6875 18.8125 6.10681 18.8125 6.625C18.8125 7.14319 18.3932 7.5625 17.875 7.5625H6.625C6.10681 7.5625 5.6875 7.14319 5.6875 6.625C5.6875 6.10681 6.10681 5.6875 6.625 5.6875ZM6.625 9.4375H17.875C18.3932 9.4375 18.8125 9.85681 18.8125 10.375C18.8125 10.8932 18.3932 11.3125 17.875 11.3125H6.625C6.10681 11.3125 5.6875 10.8932 5.6875 10.375C5.6875 9.85681 6.10681 9.4375 6.625 9.4375ZM6.625 13.1875H17.875C18.3932 13.1875 18.8125 13.6068 18.8125 14.125C18.8125 14.6432 18.3932 15.0625 17.875 15.0625H6.625C6.10681 15.0625 5.6875 14.6432 5.6875 14.125C5.6875 13.6068 6.10681 13.1875 6.625 13.1875Z" fill="white"/>
</g>
<defs>
<clipPath id="clip0_1737_1580">
<rect width="32" height="32" fill="white"/>
</clipPath>
</defs>
</svg>
