<svg width="32" height="32" viewBox="0 0 32 32" fill="none" xmlns="http://www.w3.org/2000/svg">
<g clip-path="url(#clip0_1737_1298)">
<path d="M15.3145 2.62231C15.3145 2.2373 15.6279 1.92383 16.0129 1.92383C16.3982 1.92383 16.7117 2.2373 16.7117 2.62231V3.00024H18.6355V2.62231C18.6355 1.17651 17.459 0 16.0129 0C14.5671 0 13.3906 1.17651 13.3906 2.62231V3.00024H15.3145V2.62231Z" fill="white"/>
<path d="M23.77 5.05957H20.5012V8.08032C20.5012 8.61157 20.0706 9.04224 19.5393 9.04224H12.4858C11.9546 9.04224 11.5239 8.61157 11.5239 8.08032V5.05957H8.25464C6.83911 5.05957 5.6875 6.21118 5.6875 7.62671V29.4331C5.6875 30.8486 6.83911 32.0002 8.25464 32.0002H23.77C25.1855 32.0002 26.3372 30.8486 26.3372 29.4331V7.62671C26.3372 6.21118 25.1855 5.05957 23.77 5.05957ZM10.5371 24.4329H14.8298C15.3611 24.4329 15.7917 24.8635 15.7917 25.3948C15.7917 25.926 15.3611 26.3567 14.8298 26.3567H10.5371C10.0059 26.3567 9.5752 25.926 9.5752 25.3948C9.5752 24.8635 10.0059 24.4329 10.5371 24.4329ZM9.5752 20.1611C9.5752 19.6299 10.0059 19.199 10.5371 19.199H14.8298C15.3611 19.199 15.7917 19.6299 15.7917 20.1611C15.7917 20.6921 15.3611 21.123 14.8298 21.123H10.5371C10.0059 21.123 9.5752 20.6921 9.5752 20.1611ZM17.7122 13.1311C18.0876 12.7554 18.6968 12.7554 19.0725 13.1311L19.5083 13.5669L20.8079 12.2673C21.1833 11.8918 21.7925 11.8918 22.1682 12.2673C22.5439 12.6428 22.5439 13.252 22.1682 13.6277L20.1885 15.6074C20.0081 15.7878 19.7634 15.8892 19.5083 15.8892C19.2532 15.8892 19.0085 15.7878 18.8281 15.6074L17.7122 14.4915C17.3364 14.1157 17.3364 13.5066 17.7122 13.1311ZM17.7122 18.3647C18.0876 17.9893 18.6968 17.9893 19.0725 18.3647L19.5083 18.8008L20.8079 17.5012C21.1833 17.1255 21.7925 17.1255 22.1682 17.5012C22.5439 17.8767 22.5439 18.4858 22.1682 18.8616L20.1885 20.8411C20.0007 21.0291 19.7544 21.123 19.5083 21.123C19.2622 21.123 19.0159 21.0291 18.8281 20.8411L17.7122 19.7251C17.3364 19.3496 17.3364 18.7405 17.7122 18.3647ZM17.7122 23.5986C18.0876 23.2229 18.6968 23.2229 19.0725 23.5986L19.5083 24.0344L20.8079 22.7349C21.1833 22.3594 21.7925 22.3594 22.1682 22.7349C22.5439 23.1104 22.5439 23.7195 22.1682 24.0952L20.1885 26.075C20.0007 26.2627 19.7544 26.3567 19.5083 26.3567C19.2622 26.3567 19.0159 26.2627 18.8281 26.075L17.7122 24.959C17.3364 24.5833 17.3364 23.9744 17.7122 23.5986ZM14.8301 13.9653C15.3613 13.9653 15.792 14.396 15.792 14.9272C15.792 15.4585 15.3613 15.8892 14.8301 15.8892H10.5371C10.0059 15.8892 9.5752 15.4585 9.5752 14.9272C9.5752 14.396 10.0059 13.9653 10.5371 13.9653H14.8301Z" fill="white"/>
<path d="M13.4492 4.92383H18.5789V7.11792H13.4492V4.92383Z" fill="white"/>
</g>
<defs>
<clipPath id="clip0_1737_1298">
<rect width="32" height="32" fill="white"/>
</clipPath>
</defs>
</svg>
