<svg width="33" height="33" viewBox="0 0 33 33" fill="none" xmlns="http://www.w3.org/2000/svg">
<path fill-rule="evenodd" clip-rule="evenodd" d="M10.4579 13.4776C9.89047 13.4779 9.3359 13.6461 8.86429 13.9608C8.39267 14.2755 8.02517 14.7226 7.80825 15.2456C7.59133 15.7686 7.53473 16.344 7.6456 16.8991C7.75647 17.4542 8.02984 17.964 8.43114 18.3642C8.83245 18.7643 9.34367 19.0368 9.90019 19.1471C10.4567 19.2575 11.0335 19.2008 11.5577 18.9842C12.0819 18.7676 12.53 18.4008 12.8453 17.9302C13.1605 17.4596 13.3289 16.9063 13.329 16.3403C13.3285 15.581 13.0258 14.853 12.4874 14.3162C11.949 13.7794 11.2191 13.4778 10.4579 13.4776ZM10.4579 18.1385C10.1012 18.1388 9.75251 18.0334 9.45587 17.8359C9.15922 17.6384 8.92796 17.3576 8.79135 17.0289C8.65473 16.7003 8.61889 16.3386 8.68836 15.9897C8.75784 15.6407 8.9295 15.3201 9.18164 15.0685C9.43378 14.8169 9.75507 14.6455 10.1049 14.5761C10.4547 14.5066 10.8172 14.5422 11.1468 14.6784C11.4763 14.8145 11.7579 15.0451 11.956 15.3409C12.1541 15.6367 12.2599 15.9845 12.2598 16.3403C12.2594 16.817 12.0694 17.274 11.7316 17.6111C11.3938 17.9482 10.9357 18.1379 10.4579 18.1385ZM23.0617 13.4776C22.4941 13.4773 21.9392 13.6449 21.4672 13.9592C20.9952 14.2735 20.6272 14.7204 20.4098 15.2434C20.1923 15.7663 20.1353 16.3419 20.2458 16.8972C20.3563 17.4525 20.6294 17.9626 21.0306 18.3631C21.4318 18.7635 21.943 19.0363 22.4996 19.1469C23.0562 19.2575 23.6332 19.201 24.1576 18.9845C24.682 18.768 25.1302 18.4012 25.4456 17.9305C25.761 17.4599 25.9295 16.9065 25.9296 16.3403C25.9283 15.5818 25.6259 14.8546 25.0883 14.3181C24.5508 13.7815 23.8221 13.4793 23.0617 13.4776ZM23.0617 18.1385C22.705 18.1388 22.3563 18.0334 22.0597 17.8359C21.763 17.6384 21.5317 17.3576 21.3951 17.0289C21.2585 16.7003 21.2227 16.3386 21.2921 15.9897C21.3616 15.6407 21.5333 15.3201 21.7854 15.0685C22.0376 14.8169 22.3589 14.6455 22.7086 14.5761C23.0584 14.5066 23.421 14.5422 23.7505 14.6784C24.08 14.8145 24.3617 15.0451 24.5598 15.3409C24.7579 15.6367 24.8636 15.9845 24.8636 16.3403C24.8631 16.817 24.6732 17.274 24.3354 17.6111C23.9976 17.9482 23.5395 18.1379 23.0617 18.1385ZM20.8132 22.6386C20.8496 22.6982 20.8739 22.7645 20.8847 22.8335C20.8954 22.9025 20.8923 22.973 20.8757 23.0409C20.859 23.1087 20.8291 23.1726 20.7876 23.2289C20.7462 23.2852 20.694 23.3328 20.634 23.3689C19.4658 24.0753 18.1258 24.4487 16.7598 24.4487C15.3937 24.4487 14.0537 24.0753 12.8855 23.3689C12.7645 23.2957 12.6776 23.1775 12.6439 23.0404C12.6102 22.9032 12.6325 22.7584 12.7059 22.6376C12.7793 22.5169 12.8977 22.4302 13.0352 22.3966C13.1727 22.363 13.3179 22.3852 13.439 22.4584C14.4402 23.0642 15.5887 23.3846 16.7597 23.3846C17.9307 23.3846 19.0793 23.0642 20.0805 22.4584C20.1405 22.4221 20.207 22.398 20.2763 22.3874C20.3457 22.3768 20.4164 22.38 20.4845 22.3967C20.5526 22.4135 20.6167 22.4435 20.6732 22.485C20.7296 22.5265 20.7773 22.5787 20.8135 22.6386L20.8132 22.6386ZM1.47046 24.8231C1.28225 24.8234 1.10165 24.7491 0.968378 24.6165C0.835103 24.4839 0.760064 24.304 0.759766 24.1163V12.8531C0.760048 12.6654 0.835081 12.4854 0.96836 12.3529C1.10164 12.2203 1.28225 12.146 1.47046 12.1463H2.42956V24.8231H1.47046ZM30.0239 26.8094C30.0234 27.1543 29.8856 27.4849 29.641 27.7286C29.3963 27.9723 29.0647 28.1092 28.7189 28.1093H16.8415C16.7477 28.1093 16.6556 28.1339 16.5743 28.1805L8.69373 32.7181V28.6416C8.69405 28.5718 8.68053 28.5026 8.65395 28.438C8.62738 28.3735 8.58828 28.3148 8.53889 28.2653C8.4895 28.2159 8.4308 28.1767 8.36617 28.1499C8.30154 28.1232 8.23225 28.1095 8.16228 28.1095H4.80064C4.45488 28.1095 4.12327 27.9726 3.8786 27.7289C3.63392 27.4852 3.49618 27.1546 3.4956 26.8097V10.1598C3.49619 9.8149 3.63394 9.48432 3.87861 9.24062C4.12328 8.99691 4.45489 8.86 4.80064 8.85991H28.7189C29.0647 8.85998 29.3963 8.99689 29.6409 9.2406C29.8856 9.4843 30.0234 9.81489 30.0239 10.1598V26.8094ZM32.7598 24.1163C32.7595 24.304 32.6844 24.4839 32.5512 24.6165C32.4179 24.7491 32.2373 24.8234 32.0491 24.8231H31.09V12.1463H32.0491C32.2373 12.146 32.4179 12.2203 32.5512 12.3529C32.6845 12.4854 32.7595 12.6654 32.7598 12.8531V24.1163ZM17.2944 5.43234C17.8676 5.30129 18.3725 4.96425 18.7125 4.48554C19.0525 4.00684 19.2039 3.42 19.1378 2.83704C19.0717 2.25407 18.7927 1.7158 18.3541 1.32496C17.9154 0.934116 17.3479 0.718079 16.7598 0.718079C16.1716 0.718079 15.6041 0.934116 15.1655 1.32496C14.7268 1.7158 14.4478 2.25407 14.3817 2.83704C14.3156 3.42 14.467 4.00684 14.8071 4.48554C15.1471 4.96425 15.6519 5.30129 16.2252 5.43234V7.79576H17.2944V5.43234Z" fill="white"/>
</svg>
