<svg width="22" height="20" viewBox="0 0 22 20" xmlns="http://www.w3.org/2000/svg">
<path fill-rule="evenodd" clip-rule="evenodd" d="M15.939 1C17.28 1 18.57 1.53 19.519 2.481C20.469 3.43 21 4.71 21 6.05V13.95C21 16.74 18.73 19 15.939 19H6.06C3.269 19 1 16.74 1 13.95V6.05C1 3.26 3.259 1 6.06 1H15.939ZM17.53 7.54L17.61 7.46C17.849 7.17 17.849 6.75 17.599 6.46C17.46 6.311 17.269 6.22 17.07 6.2C16.86 6.189 16.66 6.26 16.509 6.4L12 10C11.42 10.481 10.589 10.481 10 10L5.5 6.4C5.189 6.17 4.759 6.2 4.5 6.47C4.23 6.74 4.2 7.17 4.429 7.47L4.56 7.6L9.11 11.15C9.67 11.59 10.349 11.83 11.06 11.83C11.769 11.83 12.46 11.59 13.019 11.15L17.53 7.54Z" />
</svg>
