<svg width="19" height="18" viewBox="0 0 19 18" fill="none" xmlns="http://www.w3.org/2000/svg">
<path fill-rule="evenodd" clip-rule="evenodd" d="M13.8572 0.957031C15.0816 0.957031 16.2595 1.44094 17.1259 2.30925C17.9933 3.17573 18.4782 4.34442 18.4782 5.5679V12.7809C18.4782 15.3283 16.4055 17.3918 13.8572 17.3918H4.83729C2.28898 17.3918 0.217285 15.3283 0.217285 12.7809V5.5679C0.217285 3.02051 2.27985 0.957031 4.83729 0.957031H13.8572ZM15.3098 6.92841L15.3829 6.85537C15.6011 6.59059 15.6011 6.20711 15.3728 5.94233C15.2459 5.80628 15.0715 5.7232 14.8898 5.70494C14.6981 5.69489 14.5155 5.75972 14.3776 5.88754L10.2607 9.1745C9.73113 9.61368 8.97239 9.61368 8.43461 9.1745L4.32592 5.88754C4.04196 5.67754 3.64935 5.70494 3.41287 5.95146C3.16635 6.19798 3.13896 6.59059 3.34805 6.8645L3.46766 6.9832L7.622 10.2245C8.13331 10.6262 8.75326 10.8454 9.40244 10.8454C10.0498 10.8454 10.6807 10.6262 11.1911 10.2245L15.3098 6.92841Z" fill="white"/>
</svg>
