<svg width="22" height="20" viewBox="0 0 22 20" xmlns="http://www.w3.org/2000/svg">
<path d="M0.347292 9.34633C3.96718 7.70143 14.509 2.94113 19.666 1.08885C20.4441 0.810774 21.2981 1.20668 21.578 1.97964C21.6634 2.2153 21.6871 2.4651 21.6491 2.71018L19.3387 17.6604C19.2011 18.5559 18.3614 19.1733 17.4552 19.0366C17.2227 19.0036 17.0045 18.9188 16.8052 18.7915L10.1205 14.4978C9.32823 13.9888 9.10525 12.9425 9.61289 12.1554C9.6888 12.0376 9.78368 11.9244 9.8928 11.8302L16.0556 5.96227C16.3166 5.71247 15.9797 5.30243 15.6808 5.50981L6.89915 11.6134C6.07365 12.1884 5.01567 12.3062 4.08105 11.9339L0.371014 10.4351C0.0673793 10.3125 -0.0796937 9.96847 0.0436578 9.66682C0.100589 9.52072 0.209708 9.4076 0.347292 9.34633Z" />
</svg>
