<svg width="24" height="14" viewBox="0 0 24 14" fill="none" xmlns="http://www.w3.org/2000/svg">
<path d="M13.207 13.501C13.207 13.501 13.6243 13.4554 13.838 13.2301C14.0337 13.0236 14.0269 12.634 14.0269 12.634C14.0269 12.634 14.0009 10.8145 14.8615 10.5458C15.7097 10.2816 16.7988 12.3054 17.9546 13.0836C18.8277 13.6719 19.4904 13.5431 19.4904 13.5431L22.5789 13.501C22.5789 13.501 24.1939 13.4033 23.4283 12.1566C23.3649 12.0545 22.9815 11.2341 21.1325 9.54895C19.1952 7.78499 19.4553 8.07029 21.7873 5.01859C23.2077 3.16026 23.7754 2.02573 23.5979 1.54061C23.4294 1.07658 22.3844 1.1998 22.3844 1.1998L18.9079 1.22089C18.9079 1.22089 18.6501 1.18648 18.459 1.2986C18.2724 1.4085 18.1514 1.66494 18.1514 1.66494C18.1514 1.66494 17.6017 3.10253 16.8678 4.32588C15.3195 6.90578 14.7009 7.04232 14.4476 6.88247C13.8584 6.50836 14.0054 5.38159 14.0054 4.5812C14.0054 2.08012 14.3922 1.03773 13.2533 0.767969C12.8756 0.67805 12.5974 0.619214 11.6304 0.609223C10.3898 0.597012 9.34032 0.613663 8.74546 0.898962C8.34963 1.08879 8.04429 1.51285 8.23089 1.53728C8.46047 1.56725 8.98069 1.67493 9.25664 2.04349C9.61288 2.51973 9.60044 3.58765 9.60044 3.58765C9.60044 3.58765 9.80513 6.53167 9.12206 6.8969C8.65385 7.14778 8.01149 6.63602 6.63063 4.2948C5.9238 3.09587 5.39001 1.7704 5.39001 1.7704C5.39001 1.7704 5.28709 1.52285 5.10275 1.38963C4.87996 1.22867 4.56895 1.17871 4.56895 1.17871L1.26552 1.1998C1.26552 1.1998 0.769047 1.21312 0.586969 1.42516C0.425246 1.61276 0.574528 2.00241 0.574528 2.00241C0.574528 2.00241 3.16095 7.94262 6.09005 10.9366C8.77599 13.6808 11.825 13.501 11.825 13.501H13.207Z"/>
</svg>
