<svg width="22" height="20" viewBox="0 0 22 20" xmlns="http://www.w3.org/2000/svg">
<path d="M10.76 1C5.942 1 2 4.942 2 9.76C2 11.439 2.438 12.972 3.241 14.286L2.073 18.52L6.453 17.352C7.694 18.082 9.227 18.52 10.76 18.52C15.578 18.52 19.52 14.578 19.52 9.76C19.52 4.942 15.578 1 10.76 1ZM7.767 5.672C7.913 5.672 8.059 5.672 8.205 5.672C8.351 5.672 8.497 5.672 8.716 6.037C8.862 6.475 9.3 7.57 9.3 7.643C9.3 7.716 9.373 7.862 9.3 8.008C9.3 8.154 9.227 8.3 9.154 8.373C9.081 8.519 8.935 8.665 8.862 8.738C8.716 8.884 8.57 9.03 8.716 9.249C8.862 9.468 9.3 10.198 9.957 10.782C10.76 11.512 11.49 11.731 11.709 11.877C11.928 11.95 12.074 11.95 12.147 11.804C12.293 11.658 12.658 11.147 12.804 10.928C12.95 10.709 13.096 10.782 13.315 10.855C13.534 10.928 14.556 11.439 14.775 11.585C14.994 11.731 15.14 11.731 15.213 11.804C15.286 11.877 15.286 12.315 15.067 12.826C14.921 13.337 13.972 13.848 13.607 13.848C13.242 13.921 12.804 13.994 10.979 13.337C8.789 12.461 7.402 10.198 7.256 10.052C7.183 9.906 6.38 8.884 6.38 7.789C6.38 6.694 6.964 6.183 7.11 5.964C7.402 5.745 7.621 5.672 7.767 5.672Z" />
</svg>
