<svg width="22" height="20" viewBox="0 0 22 20" xmlns="http://www.w3.org/2000/svg">
<path fill-rule="evenodd" clip-rule="evenodd" d="M19.2388 2.94982C20.1683 3.20486 20.9002 3.95632 21.1486 4.91061C21.6 6.64014 21.6 10.2488 21.6 10.2488C21.6 10.2488 21.6 13.8574 21.1486 15.587C20.9002 16.5413 20.1683 17.2928 19.2388 17.548C17.5545 18.0113 10.8 18.0113 10.8 18.0113C10.8 18.0113 4.04546 18.0113 2.36103 17.548C1.43161 17.2928 0.699668 16.5413 0.451268 15.587C0 13.8574 0 10.2488 0 10.2488C0 10.2488 0 6.64014 0.451268 4.91061C0.699668 3.95632 1.43161 3.20486 2.36103 2.94982C4.04546 2.48633 10.8 2.48633 10.8 2.48633C10.8 2.48633 17.5545 2.48633 19.2388 2.94982ZM8.77491 6.21142V12.9614L14.1749 9.58655L8.77491 6.21142Z" />
</svg>
