<svg width="33.333252" height="33.250000" viewBox="0 0 33.3333 33.25" fill="none" xmlns="http://www.w3.org/2000/svg" xmlns:xlink="http://www.w3.org/1999/xlink">
	<path d="M33.33 16.66C33.33 7.46 25.86 0 16.66 0C7.46 0 0 7.46 0 16.66C0 24.73 5.73 31.45 13.33 33L13.33 21.66L10 21.66L10 16.66L13.33 16.66L13.33 12.5C13.33 9.28 15.95 6.66 19.16 6.66L23.33 6.66L23.33 11.66L20 11.66C19.08 11.66 18.33 12.41 18.33 13.33L18.33 16.66L23.33 16.66L23.33 21.66L18.33 21.66L18.33 33.25C26.75 32.41 33.33 25.31 33.33 16.66Z" fill="#D4D4D4" fill-opacity="1.000000" fill-rule="nonzero"/>
</svg>
