<svg width="31.668213" height="31.667480" viewBox="0 0 31.6682 31.6675" fill="none" xmlns="http://www.w3.org/2000/svg" xmlns:xlink="http://www.w3.org/1999/xlink">
	<desc>
			Created with Pixso.
	</desc>
	<defs/>
	<path id="Vector" d="M17.46 0C18.61 -0.01 19.77 0 20.92 0.03L21.23 0.04C21.58 0.06 21.93 0.07 22.36 0.09C24.04 0.17 25.19 0.44 26.2 0.83C27.25 1.23 28.13 1.77 29.01 2.65C29.81 3.44 30.43 4.4 30.83 5.46C31.22 6.47 31.49 7.62 31.57 9.3C31.59 9.72 31.6 10.08 31.62 10.43L31.62 10.74C31.65 11.89 31.66 13.05 31.66 14.2L31.66 15.38L31.66 17.46C31.67 18.61 31.65 19.77 31.63 20.92L31.62 21.23C31.6 21.58 31.59 21.93 31.57 22.36C31.49 24.04 31.22 25.19 30.83 26.2C30.43 27.26 29.81 28.21 29.01 29.01C28.21 29.81 27.26 30.43 26.2 30.83C25.19 31.22 24.04 31.49 22.36 31.57C21.93 31.59 21.58 31.6 21.23 31.61L20.92 31.62C19.77 31.65 18.61 31.66 17.46 31.66L16.28 31.66L14.2 31.66C13.05 31.67 11.89 31.65 10.74 31.63L10.43 31.62C10.05 31.6 9.68 31.59 9.3 31.57C7.62 31.49 6.47 31.22 5.46 30.83C4.4 30.43 3.44 29.81 2.65 29.01C1.85 28.21 1.22 27.26 0.83 26.2C0.44 25.19 0.17 24.04 0.09 22.36C0.07 21.98 0.06 21.61 0.04 21.23L0.04 20.92C0.01 19.77 -0.01 18.61 0 17.46L0 14.2C-0.01 13.05 0 11.89 0.03 10.74L0.04 10.43C0.05 10.08 0.07 9.72 0.09 9.3C0.17 7.62 0.43 6.47 0.83 5.46C1.22 4.4 1.85 3.44 2.66 2.66C3.45 1.85 4.4 1.22 5.46 0.83C6.47 0.44 7.62 0.17 9.3 0.09L10.43 0.04L10.74 0.04C11.89 0.01 13.05 -0.01 14.2 0L17.46 0ZM15.83 7.91C14.78 7.9 13.74 8.09 12.77 8.48C11.79 8.87 10.91 9.46 10.16 10.19C9.41 10.93 8.82 11.81 8.41 12.77C8.01 13.74 7.8 14.78 7.8 15.83C7.8 16.88 8.01 17.92 8.41 18.89C8.82 19.85 9.41 20.73 10.16 21.47C10.91 22.2 11.79 22.78 12.77 23.18C13.74 23.57 14.78 23.76 15.83 23.75C17.93 23.75 19.94 22.91 21.43 21.43C22.91 19.94 23.75 17.93 23.75 15.83C23.75 13.73 22.91 11.72 21.43 10.23C19.94 8.75 17.93 7.91 15.83 7.91ZM15.83 11.08C16.46 11.07 17.09 11.18 17.67 11.42C18.26 11.65 18.79 12 19.24 12.44C19.69 12.88 20.05 13.41 20.3 13.99C20.54 14.57 20.67 15.2 20.67 15.83C20.67 16.46 20.54 17.08 20.3 17.67C20.05 18.25 19.7 18.78 19.25 19.22C18.79 19.66 18.26 20.01 17.67 20.24C17.09 20.48 16.46 20.59 15.83 20.58C14.57 20.58 13.36 20.08 12.47 19.19C11.58 18.3 11.08 17.09 11.08 15.83C11.08 14.57 11.58 13.36 12.47 12.47C13.36 11.58 14.57 11.08 15.83 11.08L15.83 11.08ZM24.14 5.54C23.63 5.56 23.15 5.78 22.79 6.14C22.44 6.51 22.24 7 22.24 7.52C22.24 8.03 22.44 8.52 22.79 8.89C23.15 9.26 23.63 9.47 24.14 9.49C24.67 9.49 25.17 9.29 25.54 8.91C25.91 8.54 26.12 8.04 26.12 7.51C26.12 6.99 25.91 6.49 25.54 6.12C25.17 5.74 24.67 5.54 24.14 5.54L24.14 5.54Z" fill="#D4D4D4" fill-opacity="1.000000" fill-rule="nonzero"/>
</svg>
