<svg width="20" height="20" viewBox="0 0 20 20" fill="none" xmlns="http://www.w3.org/2000/svg">
<path fill-rule="evenodd" clip-rule="evenodd" d="M10.4499 0.5C5.2031 0.5 0.949951 4.75315 0.949951 10C0.949951 11.7955 1.4487 13.477 2.31605 14.9096L1.46865 17.79C1.42 17.9554 1.41679 18.1308 1.45938 18.2978C1.50197 18.4649 1.58878 18.6174 1.71067 18.7393C1.83257 18.8612 1.98505 18.948 2.1521 18.9906C2.31914 19.0331 2.49457 19.0299 2.65995 18.9813L5.54035 18.1339C7.02109 19.0298 8.71926 19.5023 10.4499 19.5C15.6968 19.5 19.9499 15.2468 19.9499 10C19.9499 4.75315 15.6968 0.5 10.4499 0.5ZM8.30105 12.1498C10.2229 14.0707 12.0573 14.3244 12.7052 14.3481C13.6904 14.3842 14.6499 13.6318 15.0232 12.7588C15.0704 12.6502 15.0875 12.5309 15.0728 12.4134C15.0581 12.296 15.0121 12.1846 14.9396 12.0909C14.419 11.4259 13.7151 10.9481 13.0273 10.4731C12.8837 10.3738 12.7072 10.334 12.5349 10.362C12.3626 10.3899 12.2078 10.4836 12.1029 10.6232L11.5329 11.4924C11.503 11.5392 11.4563 11.5727 11.4024 11.5861C11.3485 11.5995 11.2916 11.5919 11.2432 11.5646C10.8565 11.3433 10.2932 10.9671 9.8885 10.5624C9.4838 10.1577 9.1304 9.62 8.93185 9.25805C8.90723 9.21206 8.90011 9.15871 8.91182 9.10788C8.92352 9.05705 8.95325 9.01219 8.9955 8.9816L9.8733 8.3299C9.99857 8.22097 10.0794 8.06978 10.1004 7.90512C10.1215 7.74045 10.0812 7.5738 9.9873 7.4369C9.5617 6.8137 9.0658 6.0214 8.34665 5.49605C8.25384 5.42879 8.14512 5.38685 8.03118 5.37436C7.91725 5.36187 7.80203 5.37925 7.69685 5.4248C6.82285 5.7991 6.06665 6.7586 6.10275 7.74565C6.1265 8.39355 6.38015 10.228 8.30105 12.1498Z" fill="#ED1C24"/>
</svg>
