<svg width="20" height="20" viewBox="0 0 20 20" fill="none" xmlns="http://www.w3.org/2000/svg">
<path fill-rule="evenodd" clip-rule="evenodd" d="M10.2998 0.5C15.5467 0.5 19.7998 4.75315 19.7998 9.99999C19.7998 15.2468 15.5467 19.5 10.2998 19.5C8.68287 19.5024 7.09231 19.0903 5.67996 18.303L5.39021 18.1339L2.50981 18.9813C2.35306 19.0275 2.18712 19.0329 2.0277 18.997C1.86829 18.961 1.72069 18.885 1.59889 18.7761C1.4771 18.6671 1.38515 18.5289 1.33176 18.3744C1.27837 18.22 1.26531 18.0544 1.29381 17.8935L1.31851 17.79L2.16591 14.9096C1.27002 13.4288 0.797511 11.7307 0.799813 9.99999C0.799813 4.75315 5.05296 0.5 10.2998 0.5ZM8.20316 7.90335L5.35316 10.7533C5.26243 10.841 5.19005 10.9458 5.14026 11.0617C5.09048 11.1776 5.06427 11.3023 5.06317 11.4284C5.06208 11.5546 5.08611 11.6796 5.13388 11.7964C5.18165 11.9132 5.25219 12.0192 5.34138 12.1084C5.43058 12.1976 5.53665 12.2682 5.6534 12.3159C5.77015 12.3637 5.89525 12.3877 6.02139 12.3866C6.14753 12.3855 6.27219 12.3593 6.38809 12.3095C6.504 12.2598 6.60882 12.1874 6.69646 12.0966L8.87481 9.91829L11.0532 12.0966C11.2313 12.2747 11.4729 12.3748 11.7248 12.3748C11.9767 12.3748 12.2183 12.2747 12.3965 12.0966L15.2465 9.24664C15.4195 9.06747 15.5153 8.8275 15.5131 8.57841C15.5109 8.32933 15.411 8.09106 15.2349 7.91492C15.0587 7.73878 14.8205 7.63887 14.5714 7.63671C14.3223 7.63454 14.0823 7.7303 13.9032 7.90335L11.7248 10.0817L9.54646 7.90335C9.36831 7.72525 9.12671 7.6252 8.87481 7.6252C8.6229 7.6252 8.38131 7.72525 8.20316 7.90335Z" fill="#ED1C24"/>
</svg>
