<svg width="22.000000" height="27.499512" viewBox="0 0 22 27.4995" fill="none" xmlns="http://www.w3.org/2000/svg" xmlns:xlink="http://www.w3.org/1999/xlink">
	<desc>
			Created with Pixso.
	</desc>
	<defs/>
	<path id="Vector" d="M13.75 0C14.47 0 15.17 0.28 15.69 0.8C16.21 1.32 16.5 2.02 16.5 2.75C16.5 3.7 16.82 4.62 17.42 5.35C18.03 6.09 18.86 6.6 19.79 6.79C20.51 6.93 21.13 7.36 21.54 7.96C21.94 8.57 22.09 9.31 21.94 10.03C21.79 10.74 21.37 11.37 20.76 11.78C20.16 12.18 19.41 12.32 18.7 12.18C17.94 12.02 17.2 11.78 16.5 11.44L16.5 19.25C16.5 20.79 16.06 22.3 15.25 23.61C14.43 24.92 13.26 25.97 11.88 26.65C10.49 27.33 8.94 27.61 7.41 27.45C5.87 27.3 4.41 26.71 3.19 25.77C1.97 24.82 1.04 23.55 0.51 22.11C-0.03 20.66 -0.15 19.09 0.16 17.58C0.48 16.07 1.21 14.67 2.27 13.56C3.33 12.44 4.69 11.64 6.18 11.26C6.89 11.09 7.63 11.2 8.24 11.57C8.86 11.94 9.31 12.54 9.49 13.24C9.67 13.94 9.57 14.68 9.21 15.31C8.85 15.93 8.25 16.39 7.56 16.58C6.91 16.75 6.35 17.15 5.98 17.71C5.61 18.26 5.45 18.93 5.53 19.59C5.62 20.25 5.94 20.86 6.44 21.3C6.94 21.74 7.58 21.99 8.25 22C8.97 22 9.67 21.71 10.19 21.19C10.71 20.67 11 19.97 11 19.25L11 2.75C11 2.02 11.28 1.32 11.8 0.8C12.32 0.28 13.02 0 13.75 0Z" fill="#D4D4D4" fill-opacity="1.000000" fill-rule="evenodd"/>
</svg>
