<svg width="37.500000" height="26.250000" viewBox="0 0 37.5 26.25" fill="none" xmlns="http://www.w3.org/2000/svg" xmlns:xlink="http://www.w3.org/1999/xlink">
	<path d="M15 18.75L24.73 13.12L15 7.5L15 18.75ZM36.67 4.06C36.91 4.95 37.08 6.13 37.2 7.63C37.33 9.13 37.38 10.42 37.38 11.54L37.5 13.12C37.5 17.23 37.2 20.25 36.67 22.18C36.2 23.86 35.11 24.95 33.43 25.42C32.55 25.66 30.93 25.83 28.46 25.95C26.02 26.08 23.79 26.13 21.73 26.13L18.75 26.25C10.89 26.25 6 25.95 4.06 25.42C2.38 24.95 1.29 23.86 0.82 22.18C0.58 21.29 0.41 20.11 0.3 18.61C0.16 17.11 0.11 15.82 0.11 14.7L0 13.12C0 9.01 0.3 6 0.82 4.06C1.29 2.38 2.38 1.29 4.06 0.82C4.94 0.58 6.56 0.41 9.03 0.29C11.47 0.16 13.7 0.11 15.76 0.11L18.75 0C26.6 0 31.5 0.29 33.43 0.82C35.11 1.29 36.2 2.38 36.67 4.06Z" fill="#D4D4D4" fill-opacity="1.000000" fill-rule="nonzero"/>
</svg>
