<svg width="17.250000" height="16.291687" viewBox="0 0 17.25 16.2917" fill="none" xmlns="http://www.w3.org/2000/svg" xmlns:xlink="http://www.w3.org/1999/xlink">
	<desc>
			Created with Pixso.
	</desc>
	<defs/>
	<path id="Vector" d="M1.43 13.41C1.81 13.41 2.18 13.56 2.45 13.83C2.72 14.1 2.87 14.47 2.87 14.85C2.87 15.23 2.72 15.6 2.45 15.87C2.18 16.14 1.81 16.29 1.43 16.29C1.05 16.29 0.69 16.14 0.42 15.87C0.15 15.6 0 15.23 0 14.85C0 14.47 0.15 14.1 0.42 13.83C0.69 13.56 1.05 13.41 1.43 13.41ZM16.29 13.89C16.54 13.89 16.79 13.99 16.96 14.17C17.14 14.35 17.25 14.6 17.25 14.85C17.25 15.1 17.14 15.35 16.96 15.53C16.79 15.71 16.54 15.81 16.29 15.81L5.75 15.81C5.49 15.81 5.25 15.71 5.07 15.53C4.89 15.35 4.79 15.1 4.79 14.85C4.79 14.6 4.89 14.35 5.07 14.17C5.25 13.99 5.49 13.89 5.75 13.89L16.29 13.89ZM1.43 6.7C1.81 6.7 2.18 6.85 2.45 7.12C2.72 7.39 2.87 7.76 2.87 8.14C2.87 8.52 2.72 8.89 2.45 9.16C2.18 9.43 1.81 9.58 1.43 9.58C1.05 9.58 0.69 9.43 0.42 9.16C0.15 8.89 0 8.52 0 8.14C0 7.76 0.15 7.39 0.42 7.12C0.69 6.85 1.05 6.7 1.43 6.7ZM16.29 7.18C16.53 7.18 16.77 7.28 16.94 7.44C17.12 7.61 17.23 7.84 17.24 8.08C17.26 8.33 17.18 8.57 17.02 8.76C16.86 8.94 16.64 9.06 16.4 9.09L16.29 9.1L5.75 9.1C5.5 9.1 5.27 9.01 5.09 8.84C4.91 8.67 4.8 8.44 4.79 8.2C4.78 7.95 4.85 7.71 5.01 7.53C5.17 7.34 5.39 7.22 5.63 7.19L5.75 7.18L16.29 7.18ZM1.43 0C1.81 0 2.18 0.15 2.45 0.42C2.72 0.69 2.87 1.05 2.87 1.43C2.87 1.81 2.72 2.18 2.45 2.45C2.18 2.72 1.81 2.87 1.43 2.87C1.05 2.87 0.69 2.72 0.42 2.45C0.15 2.18 0 1.81 0 1.43C0 1.05 0.15 0.69 0.42 0.42C0.69 0.15 1.05 0 1.43 0ZM16.29 0.47C16.53 0.47 16.77 0.57 16.94 0.74C17.12 0.9 17.23 1.13 17.24 1.38C17.26 1.62 17.18 1.86 17.02 2.05C16.86 2.23 16.64 2.36 16.4 2.38L16.29 2.39L5.75 2.39C5.5 2.39 5.27 2.3 5.09 2.13C4.91 1.96 4.8 1.73 4.79 1.49C4.78 1.24 4.85 1 5.01 0.82C5.17 0.63 5.39 0.51 5.63 0.48L5.75 0.47L16.29 0.47Z" fill="#D2A329" fill-opacity="1.000000" fill-rule="nonzero"/>
</svg>
