<svg width="19.000000" height="19.000000" viewBox="0 0 19 19" fill="none" xmlns="http://www.w3.org/2000/svg" xmlns:xlink="http://www.w3.org/1999/xlink">
	<desc>
			Created with Pixso.
	</desc>
	<defs/>
	<path id="Vector" d="M14 9C15.32 9 16.59 9.52 17.53 10.46C18.47 11.4 19 12.67 19 14C19 15.32 18.47 16.59 17.53 17.53C16.59 18.47 15.32 19 14 19C12.67 19 11.4 18.47 10.46 17.53C9.52 16.59 9 15.32 9 14C9 12.67 9.52 11.4 10.46 10.46C11.4 9.52 12.67 9 14 9ZM13 0C13.26 0 13.51 0.1 13.7 0.29C13.89 0.48 14 0.73 14 1L14 2L16 2C16.53 2 17.03 2.21 17.41 2.58C17.78 2.96 18 3.46 18 4L18 7L16 7L16 4L2 4L2 16L7 16L7 18L2 18C1.46 18 0.96 17.78 0.58 17.41C0.21 17.03 0 16.53 0 16L0 4C0 3.46 0.21 2.96 0.58 2.58C0.96 2.21 1.46 2 2 2L4 2L4 1C4 0.73 4.1 0.48 4.29 0.29C4.48 0.1 4.73 0 5 0C5.26 0 5.51 0.1 5.7 0.29C5.89 0.48 6 0.73 6 1L6 2L12 2L12 1C12 0.73 12.1 0.48 12.29 0.29C12.48 0.1 12.73 0 13 0ZM14 11C13.2 11 12.44 11.31 11.87 11.87C11.31 12.44 11 13.2 11 14C11 14.79 11.31 15.55 11.87 16.12C12.44 16.68 13.2 17 14 17C14.79 17 15.55 16.68 16.12 16.12C16.68 15.55 17 14.79 17 14C17 13.2 16.68 12.44 16.12 11.87C15.55 11.31 14.79 11 14 11ZM14 11.5C14.26 11.5 14.51 11.6 14.7 11.79C14.89 11.98 15 12.23 15 12.5L15 13C15.26 13 15.51 13.1 15.7 13.29C15.89 13.48 16 13.73 16 14C16 14.26 15.89 14.51 15.7 14.7C15.51 14.89 15.26 15 15 15L14 15C13.73 15 13.48 14.89 13.29 14.7C13.1 14.51 13 14.26 13 14L13 12.5C13 12.23 13.1 11.98 13.29 11.79C13.48 11.6 13.73 11.5 14 11.5ZM5.5 11C5.75 11 6 11.09 6.18 11.27C6.37 11.44 6.48 11.68 6.49 11.94C6.51 12.19 6.42 12.44 6.26 12.64C6.1 12.83 5.87 12.96 5.61 12.99L5.5 13L5 13C4.74 12.99 4.5 12.9 4.31 12.72C4.12 12.55 4.01 12.31 4 12.05C3.98 11.8 4.07 11.55 4.23 11.35C4.39 11.16 4.62 11.03 4.88 11L5 11L5.5 11ZM8 7C8.26 7 8.51 7.1 8.7 7.29C8.89 7.48 9 7.73 9 8C9 8.26 8.89 8.51 8.7 8.7C8.51 8.89 8.26 9 8 9L5 9C4.73 9 4.48 8.89 4.29 8.7C4.1 8.51 4 8.26 4 8C4 7.73 4.1 7.48 4.29 7.29C4.48 7.1 4.73 7 5 7L8 7Z" fill="#D2A329" fill-opacity="1.000000" fill-rule="nonzero"/>
</svg>
