<svg width="18.628662" height="18.629639" viewBox="0 0 18.6287 18.6296" fill="none" xmlns="http://www.w3.org/2000/svg" xmlns:xlink="http://www.w3.org/1999/xlink">
	<desc>
			Created with Pixso.
	</desc>
	<defs/>
	<path id="Vector" d="M13.4 0.61C13.04 0.25 12.57 0.04 12.07 0C11.57 -0.04 11.08 0.11 10.68 0.41L7.64 2.69C6.38 3.63 4.9 4.25 3.34 4.47L1.07 4.79C0.31 4.9 -0.24 5.72 0.12 6.52C0.47 7.28 1.57 9.26 4.67 12.48L0.31 16.83C0.21 16.93 0.13 17.04 0.08 17.17C0.03 17.3 0 17.44 0 17.57C-0.01 17.71 0.02 17.85 0.07 17.98C0.13 18.11 0.2 18.22 0.3 18.32C0.4 18.42 0.51 18.49 0.64 18.55C0.77 18.6 0.91 18.63 1.05 18.62C1.18 18.62 1.32 18.59 1.45 18.54C1.57 18.49 1.69 18.41 1.79 18.31L6.14 13.95C9.36 17.05 11.34 18.15 12.1 18.5C12.9 18.86 13.72 18.31 13.83 17.55L14.15 15.28C14.37 13.72 14.99 12.24 15.93 10.98L18.21 7.94C18.51 7.54 18.65 7.05 18.62 6.55C18.58 6.05 18.37 5.57 18.01 5.22L13.4 0.61L13.4 0.61ZM11.93 2.08L16.54 6.69L14.27 9.73C13.11 11.27 12.36 13.08 12.09 14.98L11.94 16.03C10.92 15.38 9.23 14.11 6.87 11.75C4.51 9.39 3.24 7.7 2.59 6.68L3.64 6.53C5.54 6.26 7.35 5.51 8.89 4.36L11.93 2.08Z" fill="#D2A329" fill-opacity="1.000000" fill-rule="evenodd"/>
</svg>
