<svg width="18.000000" height="18.000000" viewBox="0 0 18 18" fill="none" xmlns="http://www.w3.org/2000/svg" xmlns:xlink="http://www.w3.org/1999/xlink">
	<path d="M13 0C14.32 0 15.59 0.52 16.53 1.46C17.47 2.4 18 3.67 18 5L18 13C18 14.32 17.47 15.59 16.53 16.53C15.59 17.47 14.32 18 13 18L5 18C3.67 18 2.4 17.47 1.46 16.53C0.52 15.59 0 14.32 0 13L0 5C0 3.67 0.52 2.4 1.46 1.46C2.4 0.52 3.67 0 5 0L13 0ZM9 5C7.93 5 6.92 5.42 6.17 6.17C5.42 6.92 5 7.93 5 9C5 10.06 5.42 11.07 6.17 11.82C6.92 12.57 7.93 13 9 13C10.06 13 11.07 12.57 11.82 11.82C12.57 11.07 13 10.06 13 9C13 7.93 12.57 6.92 11.82 6.17C11.07 5.42 10.06 5 9 5ZM9 7C9.53 7 10.03 7.21 10.41 7.58C10.78 7.96 11 8.46 11 9C11 9.53 10.78 10.03 10.41 10.41C10.03 10.78 9.53 11 9 11C8.46 11 7.96 10.78 7.58 10.41C7.21 10.03 7 9.53 7 9C7 8.46 7.21 7.96 7.58 7.58C7.96 7.21 8.46 7 9 7ZM13.5 3.5C13.23 3.5 12.98 3.6 12.79 3.79C12.6 3.98 12.5 4.23 12.5 4.5C12.5 4.76 12.6 5.01 12.79 5.2C12.98 5.39 13.23 5.5 13.5 5.5C13.76 5.5 14.01 5.39 14.2 5.2C14.39 5.01 14.5 4.76 14.5 4.5C14.5 4.23 14.39 3.98 14.2 3.79C14.01 3.6 13.76 3.5 13.5 3.5Z" fill="#B8B09B" fill-opacity="1.000000" fill-rule="nonzero"/>
</svg>
