<svg width="14.998291" height="12.750000" viewBox="0 0 14.9983 12.75" fill="none" xmlns="http://www.w3.org/2000/svg" xmlns:xlink="http://www.w3.org/1999/xlink">
	<desc>
			Created with Pixso.
	</desc>
	<defs/>
	<path id="Vector" d="M14.24 11.25C14.44 11.25 14.62 11.32 14.76 11.45C14.9 11.58 14.98 11.76 14.99 11.95C15 12.14 14.94 12.33 14.82 12.48C14.7 12.62 14.52 12.72 14.33 12.74L14.24 12.75L0.74 12.75C0.55 12.74 0.37 12.67 0.23 12.54C0.09 12.41 0.01 12.23 0 12.04C-0.02 11.85 0.05 11.66 0.17 11.51C0.29 11.37 0.47 11.27 0.66 11.25L0.74 11.25L14.24 11.25ZM12.74 0C13.12 0 13.49 0.14 13.76 0.4C14.04 0.65 14.21 1.01 14.24 1.38L14.24 1.5L14.24 9C14.24 9.37 14.1 9.74 13.84 10.02C13.59 10.29 13.23 10.46 12.86 10.49L12.74 10.5L2.24 10.5C1.87 10.5 1.5 10.35 1.22 10.09C0.95 9.84 0.78 9.48 0.75 9.11L0.74 9L0.74 1.5C0.74 1.12 0.89 0.75 1.14 0.47C1.4 0.2 1.75 0.03 2.13 0L2.24 0L12.74 0ZM12.74 1.5L2.24 1.5L2.24 9L12.74 9L12.74 1.5Z" fill="#7A7664" fill-opacity="1.000000" fill-rule="evenodd"/>
</svg>
