<svg width="16.000977" height="19.956970" viewBox="0 0 16.001 19.957" fill="none" xmlns="http://www.w3.org/2000/svg" xmlns:xlink="http://www.w3.org/1999/xlink">
	<desc>
			Created with Pixso.
	</desc>
	<defs/>
	<path id="Vector" d="M8 0C9.65 0 11.27 0.51 12.62 1.47C13.97 2.43 15 3.78 15.54 5.35C16.09 6.91 16.14 8.61 15.69 10.2C15.23 11.79 14.29 13.2 13 14.24L13 18.85C13 19.03 12.95 19.2 12.87 19.36C12.79 19.52 12.67 19.65 12.52 19.75C12.38 19.86 12.21 19.92 12.03 19.94C11.86 19.96 11.68 19.94 11.51 19.88L8 18.56L4.48 19.88C4.32 19.94 4.14 19.97 3.96 19.94C3.78 19.92 3.62 19.86 3.47 19.76C3.32 19.65 3.2 19.52 3.12 19.36C3.04 19.2 3 19.03 3 18.85L3 14.24C1.7 13.21 0.76 11.79 0.3 10.2C-0.15 8.61 -0.1 6.91 0.45 5.35C1 3.78 2.02 2.43 3.37 1.47C4.72 0.51 6.34 -0.01 8 0ZM11 15.41C10.04 15.8 9.02 16 8 16C6.97 16 5.95 15.8 5 15.41L5 17.55L7.29 16.69C7.75 16.52 8.25 16.52 8.7 16.69L11 17.55L11 15.41ZM8 2C6.41 2 4.88 2.63 3.75 3.75C2.63 4.88 2 6.4 2 8C2 9.59 2.63 11.11 3.75 12.24C4.88 13.36 6.41 14 8 14C9.59 14 11.11 13.36 12.24 12.24C13.36 11.11 14 9.59 14 8C14 6.4 13.36 4.88 12.24 3.75C11.11 2.63 9.59 2 8 2ZM8 4C9.06 4 10.07 4.42 10.83 5.17C11.58 5.92 12 6.93 12 8C12 9.06 11.58 10.07 10.83 10.82C10.07 11.57 9.06 12 8 12C6.94 12 5.92 11.57 5.17 10.82C4.42 10.07 4 9.06 4 8C4 6.93 4.42 5.92 5.17 5.17C5.92 4.42 6.94 4 8 4ZM8 6C7.47 6 6.96 6.21 6.58 6.58C6.21 6.96 6 7.46 6 8C6 8.53 6.21 9.03 6.58 9.41C6.96 9.78 7.47 10 8 10C8.53 10 9.04 9.78 9.41 9.41C9.79 9.03 10 8.53 10 8C10 7.46 9.79 6.96 9.41 6.58C9.04 6.21 8.53 6 8 6Z" fill="#D2A329" fill-opacity="1.000000" fill-rule="evenodd"/>
</svg>
