<svg width="33.497971" height="28.616699" viewBox="0 0 33.498 28.6167" fill="none" xmlns="http://www.w3.org/2000/svg" xmlns:xlink="http://www.w3.org/1999/xlink">
	<desc>
			Created with Pixso.
	</desc>
	<defs/>
	<path id="Vector" d="M30.02 0.19C30.44 0.02 30.89 -0.04 31.33 0.02C31.77 0.08 32.19 0.26 32.54 0.53C32.89 0.81 33.16 1.17 33.32 1.59C33.49 2.01 33.53 2.46 33.46 2.9L29.68 25.83C29.31 28.04 26.89 29.31 24.86 28.21C23.16 27.29 20.64 25.87 18.37 24.38C17.24 23.64 13.77 21.27 14.2 19.58C14.56 18.13 20.4 12.7 23.73 9.47C25.04 8.21 24.44 7.47 22.9 8.64C19.06 11.54 12.9 15.94 10.86 17.18C9.07 18.28 8.13 18.46 7.01 18.28C4.97 17.94 3.07 17.41 1.52 16.77C-0.57 15.9 -0.46 13.03 1.52 12.19L30.02 0.19Z" fill="#BBA370" fill-opacity="1.000000" fill-rule="evenodd"/>
</svg>
