<svg width="14.249268" height="14.646729" viewBox="0 0 14.2493 14.6467" fill="none" xmlns="http://www.w3.org/2000/svg" xmlns:xlink="http://www.w3.org/1999/xlink">
	<desc>
			Created with Pixso.
	</desc>
	<defs/>
	<path id="Vector" d="M7.13 1.14C8.02 1.14 8.9 1.32 9.72 1.66C10.53 1.99 11.28 2.49 11.91 3.12C12.53 3.75 13.03 4.49 13.37 5.31C13.71 6.13 13.88 7.01 13.88 7.89C13.88 8.78 13.71 9.66 13.37 10.47C13.03 11.29 12.53 12.04 11.91 12.66C11.28 13.29 10.53 13.79 9.72 14.13C8.9 14.47 8.02 14.64 7.13 14.64C5.34 14.64 3.63 13.93 2.36 12.66C1.09 11.4 0.38 9.68 0.38 7.89C0.38 6.1 1.09 4.38 2.36 3.12C3.63 1.85 5.34 1.14 7.13 1.14ZM7.13 2.64C6.44 2.64 5.76 2.78 5.12 3.04C4.49 3.31 3.91 3.69 3.42 4.18C2.93 4.67 2.55 5.25 2.28 5.88C2.02 6.52 1.88 7.2 1.88 7.89C1.88 8.58 2.02 9.26 2.28 9.9C2.55 10.54 2.93 11.12 3.42 11.6C3.91 12.09 4.49 12.48 5.12 12.74C5.76 13.01 6.44 13.14 7.13 13.14C8.53 13.14 9.86 12.59 10.84 11.6C11.83 10.62 12.38 9.28 12.38 7.89C12.38 6.5 11.83 5.16 10.84 4.18C9.86 3.19 8.53 2.64 7.13 2.64ZM7.13 4.14C7.32 4.14 7.49 4.21 7.63 4.33C7.77 4.45 7.86 4.62 7.88 4.8L7.88 4.89L7.88 7.58L9.24 8.94C9.38 9.07 9.46 9.26 9.46 9.45C9.47 9.64 9.4 9.83 9.28 9.97C9.15 10.11 8.97 10.2 8.78 10.22C8.59 10.24 8.4 10.18 8.25 10.06L8.18 10L6.6 8.42C6.48 8.3 6.41 8.15 6.39 7.98L6.38 7.88L6.38 4.89C6.38 4.69 6.46 4.5 6.6 4.36C6.74 4.22 6.93 4.14 7.13 4.14ZM10.61 0.37C10.66 0.28 10.72 0.21 10.8 0.15C10.88 0.09 10.97 0.05 11.06 0.02C11.16 0 11.26 -0.01 11.36 0C11.45 0.01 11.55 0.05 11.63 0.1C12.57 0.64 13.4 1.34 14.09 2.18C14.21 2.33 14.26 2.53 14.24 2.72C14.22 2.92 14.12 3.09 13.97 3.22C13.82 3.34 13.63 3.4 13.43 3.39C13.24 3.37 13.06 3.28 12.93 3.13C12.36 2.43 11.66 1.85 10.88 1.39C10.71 1.29 10.58 1.13 10.53 0.94C10.48 0.75 10.51 0.54 10.61 0.37ZM2.63 0.1C2.72 0.05 2.81 0.02 2.91 0C3.01 -0.01 3.11 0 3.2 0.02C3.3 0.05 3.39 0.09 3.46 0.15C3.54 0.21 3.61 0.29 3.66 0.37C3.71 0.46 3.74 0.55 3.75 0.65C3.76 0.75 3.76 0.84 3.73 0.94C3.71 1.03 3.66 1.12 3.6 1.2C3.54 1.28 3.47 1.35 3.38 1.4C2.6 1.85 1.91 2.44 1.34 3.13C1.28 3.21 1.2 3.28 1.11 3.33C1.02 3.38 0.93 3.41 0.83 3.42C0.73 3.43 0.63 3.42 0.53 3.39C0.44 3.36 0.35 3.32 0.27 3.25C0.19 3.19 0.13 3.11 0.08 3.02C0.03 2.93 0.01 2.83 0 2.73C-0.01 2.63 0 2.53 0.03 2.44C0.06 2.34 0.11 2.26 0.18 2.18C0.87 1.34 1.7 0.64 2.63 0.1Z" fill="#7A7664" fill-opacity="1.000000" fill-rule="nonzero"/>
</svg>
