<svg width="33.333344" height="33.333496" viewBox="0 0 33.3333 33.3335" fill="none" xmlns="http://www.w3.org/2000/svg" xmlns:xlink="http://www.w3.org/1999/xlink">
	<desc>
			Created with Pixso.
	</desc>
	<defs/>
	<path id="Vector" d="M16.66 0C7.46 0 0 7.46 0 16.66C0 19.81 0.87 22.76 2.39 25.27L0.91 30.33C0.82 30.62 0.81 30.93 0.89 31.22C0.96 31.51 1.12 31.78 1.33 31.99C1.54 32.21 1.81 32.36 2.1 32.43C2.4 32.51 2.7 32.5 3 32.42L8.05 30.93C10.65 32.5 13.63 33.33 16.66 33.33C25.87 33.33 33.33 25.87 33.33 16.66C33.33 7.46 25.87 0 16.66 0ZM12.89 20.43C16.26 23.8 19.48 24.25 20.62 24.29C22.35 24.35 24.03 23.03 24.69 21.5C24.77 21.31 24.8 21.1 24.77 20.9C24.75 20.69 24.67 20.49 24.54 20.33C23.63 19.16 22.39 18.33 21.18 17.49C20.93 17.32 20.62 17.25 20.32 17.3C20.02 17.35 19.75 17.51 19.56 17.75L18.56 19.28C18.51 19.36 18.43 19.42 18.33 19.44C18.24 19.47 18.14 19.45 18.05 19.41C17.37 19.02 16.39 18.36 15.68 17.65C14.97 16.94 14.35 16 14 15.36C13.96 15.28 13.94 15.19 13.96 15.1C13.98 15.01 14.04 14.93 14.11 14.87L15.65 13.73C15.87 13.54 16.01 13.28 16.05 12.99C16.09 12.7 16.01 12.41 15.85 12.16C15.1 11.07 14.23 9.68 12.97 8.76C12.81 8.64 12.62 8.57 12.42 8.55C12.22 8.52 12.02 8.56 11.83 8.64C10.3 9.29 8.97 10.98 9.04 12.71C9.08 13.84 9.52 17.06 12.89 20.43Z" fill="#BBA370" fill-opacity="1.000000" fill-rule="evenodd"/>
</svg>
