<svg width="50" height="44" viewBox="0 0 50 44" fill="none" xmlns="http://www.w3.org/2000/svg">
<path d="M45.3625 13.925L49.27 10.0175L45.735 6.48248L41.465 10.75C38.84 9.17498 35.78 8.24998 32.5 8.24998C22.8525 8.24998 15 16.1 15 25.75C15 35.4 22.8525 43.25 32.5 43.25C42.1475 43.25 50 35.4 50 25.75C49.998 21.365 48.3419 17.1422 45.3625 13.925ZM32.5 38.25C25.6075 38.25 20 32.6425 20 25.75C20 18.8575 25.6075 13.25 32.5 13.25C39.3925 13.25 45 18.8575 45 25.75C45 32.6425 39.3925 38.25 32.5 38.25Z" fill="#D85757"/>
<path d="M30 18.25H35V28.25H30V18.25ZM27.5 0.75H37.5V5.75H27.5V0.75ZM2.5 13.25H12.5V18.25H2.5V13.25ZM2.5 33.25H12.5V38.25H2.5V33.25ZM0 23.25H9.975V28.25H0V23.25Z" fill="#D85757"/>
</svg>
