<svg width="48" height="36" viewBox="0 0 48 36" fill="none" xmlns="http://www.w3.org/2000/svg">
<path d="M14.0539 33.5263C16.4955 33.5263 18.4749 31.5469 18.4749 29.1053C18.4749 26.6636 16.4955 24.6842 14.0539 24.6842C11.6122 24.6842 9.63281 26.6636 9.63281 29.1053C9.63281 31.5469 11.6122 33.5263 14.0539 33.5263Z" stroke="#D85757" stroke-width="4.42105" stroke-linecap="round" stroke-linejoin="round"/>
<path d="M36.1554 33.5263C38.5971 33.5263 40.5765 31.5469 40.5765 29.1053C40.5765 26.6636 38.5971 24.6842 36.1554 24.6842C33.7137 24.6842 31.7344 26.6636 31.7344 29.1053C31.7344 31.5469 33.7137 33.5263 36.1554 33.5263Z" stroke="#D85757" stroke-width="4.42105" stroke-linecap="round" stroke-linejoin="round"/>
<path d="M9.63158 29.1052H5.21053V20.2631M3 2.57892H27.3158V29.1052M18.4737 29.1052H31.7368M40.5789 29.1052H45V15.8421H27.3158M27.3158 4.78944H38.3684L45 15.8421M5.21053 11.421H14.0526" stroke="#D85757" stroke-width="4.42105" stroke-linecap="round" stroke-linejoin="round"/>
</svg>
