<svg width="39" height="46" viewBox="0 0 39 46" fill="none" xmlns="http://www.w3.org/2000/svg">
<path d="M3.03285 0.991211H26.4867L38.9182 13.3745V42.3975C38.9182 43.9226 37.6816 45.1579 36.1578 45.1579H3.03285C1.50906 45.1579 0.272461 43.9226 0.272461 42.3975V3.7516C0.272461 2.22652 1.5092 0.991211 3.03285 0.991211Z" fill="#37A856"/>
<path d="M38.8789 13.4133H29.2575C27.7337 13.4133 26.4971 12.1767 26.4971 10.6529V1.01904L38.8789 13.4133Z" fill="#207537"/>
<path d="M14.0981 26.3232C14.0981 26.3506 14.0844 26.5425 14.057 26.8989H8.4783C8.57882 27.3558 8.8164 27.7167 9.19106 27.9817C9.56571 28.2467 10.0317 28.3792 10.5892 28.3792C10.973 28.3792 11.3111 28.3244 11.6035 28.2147C11.905 28.0959 12.1837 27.9132 12.4396 27.6664L13.5773 28.9001C12.8828 29.6951 11.8685 30.0926 10.5343 30.0926C9.70278 30.0926 8.96718 29.9327 8.32752 29.6128C7.68787 29.2839 7.19442 28.8315 6.84718 28.2558C6.49994 27.6802 6.32632 27.0268 6.32632 26.2958C6.32632 25.5739 6.49537 24.9251 6.83347 24.3494C7.18071 23.7645 7.65132 23.3122 8.24528 22.9924C8.84839 22.6634 9.52002 22.4989 10.2602 22.4989C10.9821 22.4989 11.6355 22.6543 12.2203 22.965C12.8051 23.2757 13.262 23.7234 13.591 24.3083C13.9291 24.8839 14.0981 25.5556 14.0981 26.3232ZM10.2739 24.1164C9.78959 24.1164 9.38295 24.2534 9.05399 24.5276C8.72502 24.8017 8.52399 25.1764 8.45089 25.6515H12.0832C12.0101 25.1855 11.8091 24.8154 11.4801 24.5413C11.1511 24.258 10.7491 24.1164 10.2739 24.1164ZM20.0087 29.9829L18.3913 27.7213L16.719 29.9829H14.3889L17.2262 26.2683L14.4848 22.6086H16.8835L18.4461 24.7606L20.0498 22.6086H22.3252L19.5838 26.2135L22.4348 29.9829H20.0087ZM30.4688 26.3232C30.4688 26.3506 30.4551 26.5425 30.4276 26.8989H24.8489C24.9495 27.3558 25.187 27.7167 25.5617 27.9817C25.9364 28.2467 26.4024 28.3792 26.9598 28.3792C27.3436 28.3792 27.6817 28.3244 27.9741 28.2147C28.2757 28.0959 28.5544 27.9132 28.8102 27.6664L29.9479 28.9001C29.2534 29.6951 28.2391 30.0926 26.905 30.0926C26.0734 30.0926 25.3378 29.9327 24.6982 29.6128C24.0585 29.2839 23.5651 28.8315 23.2178 28.2558C22.8706 27.6802 22.697 27.0268 22.697 26.2958C22.697 25.5739 22.866 24.9251 23.2041 24.3494C23.5514 23.7645 24.022 23.3122 24.6159 22.9924C25.219 22.6634 25.8907 22.4989 26.6308 22.4989C27.3527 22.4989 28.0061 22.6543 28.5909 22.965C29.1757 23.2757 29.6326 23.7234 29.9616 24.3083C30.2997 24.8839 30.4688 25.5556 30.4688 26.3232ZM26.6445 24.1164C26.1602 24.1164 25.7536 24.2534 25.4246 24.5276C25.0957 24.8017 24.8946 25.1764 24.8215 25.6515H28.4539C28.3807 25.1855 28.1797 24.8154 27.8507 24.5413C27.5218 24.258 27.1197 24.1164 26.6445 24.1164ZM31.8924 19.8124H34.0306V29.9829H31.8924V19.8124Z" fill="white"/>
</svg>
