<svg width="40" height="46" viewBox="0 0 40 46" fill="none" xmlns="http://www.w3.org/2000/svg">
<path d="M3.63637 0.991211H27.0902L39.5217 13.3745V42.3975C39.5217 43.9226 38.2851 45.1579 36.7613 45.1579H3.63637C2.11258 45.1579 0.875977 43.9226 0.875977 42.3975V3.7516C0.875977 2.22652 2.11272 0.991211 3.63637 0.991211Z" fill="#4C6DE2"/>
<path d="M39.4815 13.4133H29.86C28.3362 13.4133 27.0996 12.1767 27.0996 10.6529V1.01904L39.4815 13.4133Z" fill="#2C47A7"/>
<path d="M14.7525 21.8469L12.0797 29.2212H10.0236L8.36509 24.6431L6.65173 29.2212H4.5957L1.93656 21.8469H3.95147L5.69225 26.8362L7.50156 21.8469H9.31087L11.0654 26.8362L12.861 21.8469H14.7525ZM19.0548 29.3308C18.278 29.3308 17.579 29.1709 16.9576 28.8511C16.3454 28.5221 15.8656 28.0698 15.5184 27.4941C15.1711 26.9184 14.9975 26.2651 14.9975 25.534C14.9975 24.803 15.1711 24.1496 15.5184 23.5739C15.8656 22.9983 16.3454 22.5505 16.9576 22.2307C17.579 21.9017 18.278 21.7372 19.0548 21.7372C19.8315 21.7372 20.526 21.9017 21.1382 22.2307C21.7504 22.5505 22.2302 22.9983 22.5774 23.5739C22.9247 24.1496 23.0983 24.803 23.0983 25.534C23.0983 26.2651 22.9247 26.9184 22.5774 27.4941C22.2302 28.0698 21.7504 28.5221 21.1382 28.8511C20.526 29.1709 19.8315 29.3308 19.0548 29.3308ZM19.0548 27.5764C19.603 27.5764 20.0508 27.3936 20.398 27.0281C20.7544 26.6534 20.9326 26.1554 20.9326 25.534C20.9326 24.9127 20.7544 24.4192 20.398 24.0537C20.0508 23.679 19.603 23.4917 19.0548 23.4917C18.5065 23.4917 18.0542 23.679 17.6978 24.0537C17.3414 24.4192 17.1632 24.9127 17.1632 25.534C17.1632 26.1554 17.3414 26.6534 17.6978 27.0281C18.0542 27.3936 18.5065 27.5764 19.0548 27.5764ZM26.5699 22.8201C26.8257 22.4637 27.1684 22.1941 27.5979 22.0114C28.0365 21.8286 28.5391 21.7372 29.1057 21.7372V23.711C28.8681 23.6927 28.7082 23.6836 28.6259 23.6836C28.0137 23.6836 27.5339 23.8572 27.1867 24.2045C26.8395 24.5426 26.6658 25.0543 26.6658 25.7396V29.2212H24.5276V21.8469H26.5699V22.8201ZM37.8215 19.0507V29.2212H35.7792V28.3714C35.2492 29.011 34.4816 29.3308 33.4764 29.3308C32.782 29.3308 32.1514 29.1755 31.5849 28.8648C31.0275 28.5541 30.5889 28.1109 30.269 27.5352C29.9492 26.9596 29.7893 26.2925 29.7893 25.534C29.7893 24.7756 29.9492 24.1085 30.269 23.5328C30.5889 22.9571 31.0275 22.5139 31.5849 22.2033C32.1514 21.8926 32.782 21.7372 33.4764 21.7372C34.4177 21.7372 35.1533 22.0342 35.6833 22.6282V19.0507H37.8215ZM33.8465 27.5764C34.3857 27.5764 34.8334 27.3936 35.1898 27.0281C35.5462 26.6534 35.7244 26.1554 35.7244 25.534C35.7244 24.9127 35.5462 24.4192 35.1898 24.0537C34.8334 23.679 34.3857 23.4917 33.8465 23.4917C33.2983 23.4917 32.8459 23.679 32.4896 24.0537C32.1332 24.4192 31.955 24.9127 31.955 25.534C31.955 26.1554 32.1332 26.6534 32.4896 27.0281C32.8459 27.3936 33.2983 27.5764 33.8465 27.5764Z" fill="white"/>
</svg>
