<svg width="39" height="46" viewBox="0 0 39 46" fill="none" xmlns="http://www.w3.org/2000/svg">
<path d="M2.88832 0.991211H26.3421L38.7737 13.3745V42.3975C38.7737 43.9226 37.5371 45.1579 36.0133 45.1579H2.88832C1.36453 45.1579 0.12793 43.9226 0.12793 42.3975V3.7516C0.12793 2.22652 1.36467 0.991211 2.88832 0.991211Z" fill="#E2A64C"/>
<path d="M38.7344 13.4133H29.1129C27.5891 13.4133 26.3525 12.1767 26.3525 10.6529V1.01904L38.7344 13.4133Z" fill="#A87830"/>
<path d="M28.0184 31.2606V17.9345C28.0184 16.8874 27.1617 16.0308 26.1147 16.0308H12.7885C11.7414 16.0308 10.8848 16.8874 10.8848 17.9345V31.2606C10.8848 32.3077 11.7414 33.1644 12.7885 33.1644H26.1147C27.1617 33.1644 28.0184 32.3077 28.0184 31.2606ZM16.12 26.0254L18.4997 28.8905L21.8312 24.5976L26.1147 30.3088H12.7885L16.12 26.0254Z" fill="white"/>
</svg>
