<svg width="25" height="25" viewBox="0 0 25 25" fill="none" xmlns="http://www.w3.org/2000/svg">
<path fill-rule="evenodd" clip-rule="evenodd" d="M0.722626 0.130996C0.430628 0.276474 0.234269 0.48186 0.0948763 0.787602C0.00609809 0.982368 0.00218517 1.472 0.001118 12.5027L0 24.0146L0.131008 24.2774C0.276498 24.5694 0.481903 24.7658 0.787672 24.9051C0.982456 24.9939 1.47213 24.9978 12.5039 24.9989L24.0167 25L24.2796 24.869C24.5716 24.7235 24.768 24.5181 24.9074 24.2124C24.9961 24.0176 25 23.5294 25 12.5C25 1.47058 24.9961 0.982368 24.9074 0.787602C24.768 0.48186 24.5716 0.276474 24.2796 0.130996L24.0167 0H12.5011H0.985505L0.722626 0.130996ZM9.29961 2.7185V4.82724H4.95471H0.609811L0.610116 3.08689C0.61037 1.33059 0.632577 1.07353 0.801647 0.865955C1.00629 0.614787 1.01386 0.61438 5.29773 0.611992L9.29961 0.609756V2.7185ZM16.9222 12.5V24.3902H13.4412H9.96024V12.5V0.609756H13.4412H16.9222V12.5ZM24.0231 0.724949C24.1135 0.774339 24.2278 0.888669 24.2772 0.979014C24.3623 1.13471 24.367 1.73852 24.367 12.5C24.367 23.2615 24.3623 23.8653 24.2772 24.021C24.0832 24.376 24.2094 24.3633 20.7209 24.379L17.5829 24.3932V12.5V0.606758L20.7209 0.620986C23.6089 0.634045 23.8719 0.642327 24.0231 0.724949ZM9.29961 7.54573V9.60366H4.95471H0.609811V7.54573V5.4878H4.95471H9.29961V7.54573ZM15.5349 9.74492C15.4583 9.82947 15.4485 9.98867 15.4485 11.1448C15.4485 12.3815 15.4538 12.4545 15.5502 12.5508C15.692 12.6926 15.8773 12.6795 16.0038 12.5185C16.1038 12.3915 16.1091 12.3227 16.1084 11.1593C16.1076 9.76956 16.091 9.68928 15.8005 9.66469C15.6755 9.65412 15.595 9.67846 15.5349 9.74492ZM18.4243 9.76743C18.3577 9.8624 18.3451 10.0845 18.3451 11.1648C18.3451 12.3815 18.3505 12.4545 18.4468 12.5508C18.5027 12.6067 18.6056 12.6524 18.6755 12.6524C18.7453 12.6524 18.8482 12.6067 18.9041 12.5508C19.0004 12.4545 19.0058 12.3815 19.0058 11.1648C19.0058 9.71606 18.9923 9.65447 18.6755 9.65447C18.5552 9.65447 18.4795 9.68852 18.4243 9.76743ZM9.29961 12.3476V14.4309H4.95471H0.609811V12.3476V10.2642H4.95471H9.29961V12.3476ZM9.29961 17.1494V19.2073H4.95471H0.609811V17.1494V15.0915H4.95471H9.29961V17.1494ZM9.29961 22.1302V24.3926L5.2215 24.3787C1.43407 24.3658 1.13171 24.3584 0.979102 24.2751C0.638573 24.089 0.636846 24.0775 0.620279 21.8623L0.60539 19.8679H4.95248H9.29961V22.1302Z" fill="black"/>
</svg>
