<svg width="23" height="16" viewBox="0 0 23 16" fill="none" xmlns="http://www.w3.org/2000/svg">
<path fill-rule="evenodd" clip-rule="evenodd" d="M1.59685 0.0343308C0.980013 0.121438 0.491616 0.467038 0.175913 1.03972L0.0233745 1.31643V3.41035C0.0233745 5.45123 0.026387 5.51049 0.142722 5.75118C0.320729 6.11945 0.709606 6.48725 1.10599 6.66219L1.44743 6.81296L2.96734 6.82976L4.48725 6.84651V7.41673V7.98691L2.57419 8.00193C0.427916 8.01879 0.560135 7.99497 0.190866 8.43077L0.0233745 8.62838L0.00683364 9.68371C-0.00926917 10.7096 -0.00609245 10.7456 0.120594 10.9746C0.207078 11.1309 0.340282 11.263 0.516153 11.3672L0.781302 11.5243L1.89486 11.542L3.00842 11.5598V13.6263C3.00842 14.8742 3.02967 15.7307 3.06204 15.7886C3.1546 15.9538 3.42989 16 4.32293 16C5.26111 16 5.48053 15.9579 5.57512 15.7594C5.61828 15.6688 5.63745 15.0021 5.63745 13.5895V11.5504H11.498H17.3585V13.5895C17.3585 15.0021 17.3777 15.6688 17.4209 15.7594C17.5155 15.9579 17.7349 16 18.6731 16C19.5661 16 19.8414 15.9538 19.9339 15.7886C19.9663 15.7307 19.9876 14.8742 19.9876 13.6263V11.5598L21.1011 11.542L22.2147 11.5243L22.4798 11.3672C22.6539 11.2641 22.7889 11.1309 22.8725 10.9795C22.9924 10.7624 23 10.6925 23 9.79636C23 8.74935 22.9668 8.58216 22.7051 8.31173C22.3988 7.99513 22.367 7.99078 20.3453 7.99078H18.5087V7.41867V6.84651L20.0286 6.82976L21.5486 6.81296L21.89 6.66219C22.2864 6.48725 22.6753 6.11945 22.8533 5.75118C22.9696 5.51049 22.9726 5.45123 22.9726 3.41035V1.31643L22.7849 0.985543C22.5574 0.584559 22.2175 0.287432 21.8031 0.127248L21.4938 0.00773791L11.6897 0.000618524C6.29744 -0.00330756 1.75569 0.0118736 1.59685 0.0343308ZM21.38 0.764531C21.6359 0.821276 21.812 0.939581 22.0383 1.20692L22.2058 1.40469V3.40595V5.40721L22.0589 5.61942C21.9631 5.75773 21.8115 5.87949 21.6236 5.96895L21.3353 6.10626L11.501 6.10574L1.66652 6.10521L1.38247 5.97885C1.1859 5.89137 1.051 5.78395 0.944302 5.62995L0.790175 5.40742L0.773689 3.54514C0.764651 2.5209 0.77221 1.60492 0.790504 1.5096C0.82479 1.33083 1.13189 0.963034 1.33318 0.859647C1.396 0.827348 1.52137 0.783899 1.61175 0.763065C1.85636 0.706634 21.1253 0.7081 21.38 0.764531ZM6.29471 7.38878V7.93843H5.77438H5.25405V7.38878V6.83913H5.77438H6.29471V7.38878ZM15.9345 7.41496V7.99078H11.498H7.06151V7.41496V6.83913H11.498H15.9345V7.41496ZM17.7419 7.38878V7.93843H17.2216H16.7013V7.38878V6.83913H17.2216H17.7419V7.38878ZM22.0749 8.74281C22.2045 8.80453 22.206 8.81432 22.2213 9.71973C22.2361 10.6003 22.2323 10.6377 22.1193 10.726C22.0085 10.8125 21.4206 10.8176 11.498 10.8176C1.57543 10.8176 0.987516 10.8125 0.876659 10.726C0.763665 10.6377 0.759886 10.6003 0.774729 9.71973C0.790011 8.81432 0.791489 8.80453 0.921079 8.74281C1.11086 8.65246 21.8851 8.65246 22.0749 8.74281ZM4.87065 13.4088V15.2671H4.32293H3.77522V13.4088V11.5504H4.32293H4.87065V13.4088ZM19.2208 13.4088V15.2671H18.6731H18.1253V13.4088V11.5504H18.6731H19.2208V13.4088Z" fill="black"/>
</svg>
