<svg width="26" height="23" viewBox="0 0 26 23" fill="none" xmlns="http://www.w3.org/2000/svg">
<path fill-rule="evenodd" clip-rule="evenodd" d="M0.914599 0.0669458C0.617792 0.161007 0.233376 0.546697 0.109498 0.874673C0.00378136 1.15459 4.47147e-08 1.26643 0.000319592 4.13006C0.000479366 5.9856 0.0209304 7.1681 0.0550155 7.28949C0.14875 7.62385 0.427289 7.96934 0.745611 8.14617L1.03853 8.30887H4.95299H8.86745L9.0841 8.19397C9.20329 8.13082 9.39135 7.97984 9.50202 7.85845C9.89831 7.42401 9.87935 7.60923 9.87935 4.16762V1.08147L9.75281 0.80414C9.61184 0.495261 9.35678 0.246417 9.03069 0.0997064C8.82628 0.00775491 8.59871 0.00253226 4.95299 0.00654161C2.38026 0.00933761 1.03267 0.0294899 0.914599 0.0669458ZM11.4505 2.06893V4.13792L10.838 5.23168C10.1931 6.38343 10.1351 6.55757 10.332 6.7526C10.4354 6.85495 10.5096 6.85811 12.8047 6.85811H15.1708L15.2811 6.7191C15.3419 6.64266 15.3916 6.52861 15.3916 6.46562C15.3916 6.40263 15.104 5.83926 14.7525 5.2137L14.1134 4.07625V2.03813V0H12.7819H11.4505V2.06893ZM16.4684 0.136002C16.1562 0.290098 15.9578 0.498954 15.7959 0.844075C15.6869 1.07635 15.6845 1.14752 15.6845 4.14124C15.6845 6.61043 15.6987 7.2409 15.7581 7.40761C15.8502 7.66605 16.1977 8.04441 16.4809 8.1946C16.6953 8.30829 16.7151 8.30892 20.4936 8.32343C22.9996 8.33303 24.3606 8.31931 24.4963 8.28312C24.8409 8.19122 25.192 7.91627 25.3729 7.59668L25.5372 7.30653L25.5522 4.27915C25.569 0.875464 25.5682 0.866549 25.2022 0.464347C25.0936 0.34491 24.8848 0.191816 24.7383 0.124132L24.472 0.00105512L20.608 0.000527459L16.7439 0L16.4684 0.136002ZM4.58018 4.14124V7.64943H2.8999C1.043 7.64943 0.996723 7.6421 0.796739 7.31713C0.69688 7.15496 0.692726 7.03088 0.692567 4.17817C0.692354 1.01885 0.689265 1.05916 0.947459 0.827721C1.00588 0.775336 1.1222 0.712136 1.20592 0.687288C1.28959 0.662441 2.08303 0.640073 2.96913 0.637593L4.58018 0.633057V4.14124ZM8.87698 0.768689C9.22119 1.01901 9.21347 0.941566 9.21352 4.12974C9.21363 7.25689 9.21656 7.22307 8.92337 7.49117L8.7791 7.62306L7.02584 7.6383L5.27254 7.65355V4.14061V0.627623L6.99964 0.643555C8.64915 0.658695 8.73345 0.66434 8.87698 0.768689ZM13.4743 2.24208V3.85109H12.8085H12.1428V2.24208V0.633057H12.8085H13.4743V2.24208ZM20.2913 4.1433V7.65355L18.538 7.6383L16.7847 7.62306L16.6405 7.49117C16.3474 7.22312 16.3502 7.25588 16.3502 4.14124C16.3502 1.08648 16.3531 1.04861 16.6034 0.827827C16.6629 0.775389 16.78 0.712136 16.8638 0.687288C16.9474 0.662441 17.7528 0.640073 18.6536 0.637593L20.2913 0.633057V4.1433ZM24.517 0.754603C24.5976 0.806989 24.7102 0.925687 24.7673 1.01838C24.8669 1.18018 24.8711 1.30594 24.8713 4.12974C24.8715 7.37669 24.8749 7.3414 24.5418 7.54255C24.3748 7.64342 24.2766 7.64906 22.6746 7.64922L20.9836 7.64943V4.1385V0.62757L22.677 0.643502C24.2031 0.657851 24.385 0.668824 24.517 0.754603ZM3.47364 3.6167C3.36734 3.69046 3.35525 3.7439 3.35525 4.14045C3.35525 4.63281 3.41495 4.74792 3.67033 4.74792C3.92202 4.74792 3.99435 4.60928 3.99435 4.1269C3.99435 3.74432 3.98178 3.69009 3.87595 3.6167C3.81087 3.57155 3.72033 3.53457 3.6748 3.53457C3.62926 3.53457 3.53873 3.57155 3.47364 3.6167ZM5.91227 3.62894C5.7116 3.78995 5.69748 4.4755 5.89092 4.6671C6.00207 4.7772 6.24876 4.76892 6.35607 4.65144C6.4939 4.50056 6.48085 3.78188 6.3377 3.64007C6.20583 3.50945 6.06582 3.50581 5.91227 3.62894ZM19.1315 3.6167C19.0253 3.6903 19.0131 3.744 19.0131 4.13608C19.0131 4.62005 19.0828 4.74792 19.3463 4.74792C19.5921 4.74792 19.6522 4.62854 19.6522 4.14045C19.6522 3.7439 19.6401 3.69046 19.5338 3.6167C19.4687 3.57155 19.3782 3.53457 19.3326 3.53457C19.2871 3.53457 19.1966 3.57155 19.1315 3.6167ZM21.5814 3.6167C21.475 3.69046 21.463 3.7439 21.463 4.14045C21.463 4.63281 21.5227 4.74792 21.778 4.74792C22.0297 4.74792 22.1021 4.60928 22.1021 4.1269C22.1021 3.74432 22.0895 3.69009 21.9837 3.6167C21.9186 3.57155 21.828 3.53457 21.7825 3.53457C21.737 3.53457 21.6464 3.57155 21.5814 3.6167ZM14.0513 5.34141L14.5345 6.19868L12.8246 6.21261C11.8841 6.22026 11.1059 6.21783 11.0952 6.20722C11.0783 6.1905 11.5039 5.40804 11.9105 4.70836L12.0408 4.48415H12.8044H13.5681L14.0513 5.34141ZM0.945222 12.0503C0.695283 12.139 0.415732 12.3478 0.263627 12.5593C-0.00106503 12.9275 6.78885e-08 12.9079 6.78885e-08 17.5209C6.78885e-08 21.7027 0.00330208 21.8452 0.106196 22.1176C0.230447 22.4467 0.512981 22.7398 0.852127 22.8915C1.09078 22.9983 1.14265 22.9987 12.9949 22.9994L24.8981 23L25.1644 22.8769C25.5149 22.7149 25.8029 22.3923 25.907 22.045C26.0281 21.6409 26.0323 13.3486 25.9115 12.9477C25.8138 12.6231 25.5773 12.3352 25.2536 12.1467L25.0046 12.0017L13.0748 11.9906C3.20134 11.9814 1.11059 11.9917 0.945222 12.0503ZM7.82892 13.5316V14.402H4.26064H0.692354V13.7927C0.692354 13.105 0.748381 12.9333 1.02783 12.7645C1.19207 12.6653 1.31936 12.6615 4.51361 12.6613L7.82892 12.6611V13.5316ZM17.4686 17.5146V22.368H12.9949H8.52127V17.5146V12.6611H12.9949H17.4686V17.5146ZM24.9621 12.7645C25.2777 12.9551 25.2975 13.0518 25.2975 14.3994V15.6154H21.7292H18.161V14.1383V12.6611L21.4763 12.6613C24.6705 12.6615 24.7978 12.6653 24.9621 12.7645ZM3.89838 13.1755C3.73131 13.3186 3.71101 13.4695 3.8375 13.6288C3.9356 13.7524 3.98625 13.769 4.26452 13.769C4.50919 13.769 4.60415 13.7452 4.6867 13.6635C4.82917 13.5224 4.82096 13.3696 4.66247 13.2127C4.49822 13.0499 4.06928 13.0291 3.89838 13.1755ZM21.1434 13.1198C20.9125 13.2015 20.8541 13.5518 21.0488 13.6868C21.1352 13.7469 21.3002 13.769 21.6612 13.769C22.0843 13.769 22.1706 13.7538 22.2618 13.6635C22.4043 13.5224 22.3961 13.3696 22.2376 13.2127C22.119 13.0951 22.0661 13.0835 21.6651 13.0873C21.4221 13.0896 21.1873 13.1042 21.1434 13.1198ZM9.53317 14.1383C9.47459 14.1963 9.42666 14.3031 9.42666 14.3757C9.42666 14.4482 9.47459 14.555 9.53317 14.6131C9.63745 14.7163 9.71068 14.7186 12.9949 14.7186C16.2792 14.7186 16.3524 14.7163 16.4567 14.6131C16.5153 14.555 16.5632 14.4482 16.5632 14.3757C16.5632 14.3031 16.5153 14.1963 16.4567 14.1383C16.3524 14.035 16.2792 14.0328 12.9949 14.0328C9.71068 14.0328 9.63745 14.035 9.53317 14.1383ZM3.88783 18.7048V22.3746L2.54056 22.3581C1.05019 22.3399 1.01126 22.3315 0.796526 21.9827C0.696508 21.8202 0.692726 21.6912 0.692567 18.4246L0.692354 15.0351H2.29009H3.88783V18.7048ZM7.82892 18.7015V22.368H6.20455H4.58018V18.7015V15.0351H6.20455H7.82892V18.7015ZM8.94734 18.9126V21.9987H12.9949H17.0425V18.9126V15.8264H12.9949H8.94734V18.9126ZM25.2975 17.5937V18.9389H21.7292H18.161V17.5937V16.2485H21.7292H25.2975V17.5937ZM16.3502 18.8862V21.3129H12.9949H9.63969V18.8862V16.4595H12.9949H16.3502V18.8862ZM21.0185 16.8725C20.9021 16.9999 20.9065 17.213 21.0278 17.3217C21.1043 17.3903 21.2357 17.4091 21.6403 17.4091C22.0843 17.4091 22.17 17.3945 22.2618 17.3035C22.3898 17.1768 22.397 17.0511 22.2854 16.8933C22.2089 16.785 22.1604 16.776 21.6546 16.776C21.1914 16.776 21.093 16.7909 21.0185 16.8725ZM25.2973 20.7194C25.2972 21.7114 25.2874 21.8299 25.1934 21.9827C24.9606 22.3608 25.1674 22.34 21.4787 22.3563L18.161 22.3711V20.9979V19.6248H21.7292H25.2975L25.2973 20.7194ZM21.1168 20.1071C20.9722 20.192 20.9321 20.2598 20.9312 20.4211C20.9297 20.6713 21.0693 20.7326 21.6403 20.7326C22.0843 20.7326 22.17 20.718 22.2618 20.6271C22.3956 20.4946 22.3972 20.3575 22.2666 20.1977C22.1755 20.0863 22.1153 20.0717 21.694 20.0589C21.4012 20.05 21.183 20.0682 21.1168 20.1071Z" fill="black"/>
</svg>
