<svg width="43" height="14" viewBox="0 0 43 14" fill="none" xmlns="http://www.w3.org/2000/svg">
<path fill-rule="evenodd" clip-rule="evenodd" d="M10.6225 13.6772H6.95854L4.21101 3.70634C4.0806 3.24768 3.8037 2.8422 3.3964 2.65109C2.37992 2.17083 1.25982 1.78861 0.0379028 1.59584V1.21196H5.94028C6.75489 1.21196 7.36585 1.78861 7.46768 2.45832L8.89325 9.65066L12.5554 1.21196H16.1176L10.6225 13.6772ZM18.154 13.6772H14.6937L17.5431 1.21196H21.0034L18.154 13.6772ZM25.4803 4.66584C25.5821 3.9945 26.1931 3.61064 26.9059 3.61064C28.026 3.51426 29.2461 3.70702 30.2644 4.1856L30.8753 1.50191C29.857 1.11805 28.737 0.925293 27.7205 0.925293C24.362 0.925293 21.9181 2.65183 21.9181 5.04804C21.9181 6.87095 23.6492 7.82811 24.8711 8.40473C26.1931 8.97969 26.7022 9.36355 26.6004 9.9385C26.6004 10.8009 25.5821 11.1848 24.5656 11.1848C23.3437 11.1848 22.1218 10.8973 21.0035 10.4171L20.3925 13.1024C21.6145 13.581 22.9364 13.7738 24.1583 13.7738C27.9241 13.8685 30.2644 12.1436 30.2644 9.55464C30.2644 6.29433 25.4803 6.10324 25.4803 4.66584ZM42.3745 13.6772L39.627 1.21196H36.6758C36.0648 1.21196 35.4539 1.59584 35.2502 2.17083L30.1624 13.6772H33.7246L34.4356 11.8559H38.8123L39.2197 13.6772H42.3745ZM37.185 4.56977L38.2014 9.26719H35.3521L37.185 4.56977Z" fill="#172B85"/>
</svg>
