<svg width="36" height="21" viewBox="0 0 36 21" fill="none" xmlns="http://www.w3.org/2000/svg">
<path fill-rule="evenodd" clip-rule="evenodd" d="M18.2326 17.8438C16.3507 19.3532 13.9096 20.2643 11.2421 20.2643C5.29015 20.2643 0.465149 15.728 0.465149 10.1322C0.465149 4.53632 5.29015 0 11.2421 0C13.9096 0 16.3507 0.911149 18.2326 2.42047C20.1145 0.911149 22.5556 0 25.2231 0C31.175 0 36 4.53632 36 10.1322C36 15.728 31.175 20.2643 25.2231 20.2643C22.5556 20.2643 20.1145 19.3532 18.2326 17.8438Z" fill="#ED0006"/>
<path fill-rule="evenodd" clip-rule="evenodd" d="M18.2325 17.8439C20.5497 15.9854 22.019 13.2201 22.019 10.1322C22.019 7.0442 20.5497 4.27889 18.2325 2.42047C20.1144 0.911146 22.5555 0 25.223 0C31.175 0 36 4.53632 36 10.1322C36 15.728 31.175 20.2643 25.223 20.2643C22.5555 20.2643 20.1144 19.3532 18.2325 17.8439Z" fill="#F9A000"/>
<path fill-rule="evenodd" clip-rule="evenodd" d="M18.2326 17.8437C20.5498 15.9853 22.019 13.22 22.019 10.1321C22.019 7.04413 20.5498 4.27883 18.2326 2.42041C15.9155 4.27883 14.4462 7.04413 14.4462 10.1321C14.4462 13.22 15.9155 15.9853 18.2326 17.8437Z" fill="#FF5E00"/>
</svg>
