<svg width="415" height="160" viewBox="0 0 415 160" fill="none" xmlns="http://www.w3.org/2000/svg">
<rect x="18.3828" y="138.288" width="377.391" height="0.892178" fill="#9D9D9D"/>
<path d="M17.4907 123.669C28.1969 124.561 81.7275 116.532 93.3258 56.7557C102.604 8.93496 146.41 22.8529 190.127 29.0981C209.309 31.8384 230.364 38.0199 261.055 41.5887C299.419 46.0495 338.675 41.5887 350.273 82.6288C361.871 123.669 373.47 123.669 395.774 123.669" stroke="#25BEDE" stroke-width="2.67653"/>
<line x1="172.283" y1="138.284" x2="173.19" y2="24.0854" stroke="#9D9D9D" stroke-width="0.892178" stroke-dasharray="7.14 7.14"/>
<line x1="91.9875" y1="138.288" x2="91.9875" y2="57.0994" stroke="#9D9D9D" stroke-width="0.892178" stroke-dasharray="7.14 7.14"/>
<line x1="33.9958" y1="138.288" x2="33.9958" y2="121.336" stroke="#9D9D9D" stroke-width="0.892178" stroke-dasharray="7.14 7.14"/>
<line x1="253.471" y1="138.288" x2="253.471" y2="41.9324" stroke="#9D9D9D" stroke-width="0.892178" stroke-dasharray="7.14 7.14"/>
<line x1="323.953" y1="138.288" x2="323.953" y2="50.8542" stroke="#9D9D9D" stroke-width="0.892178" stroke-dasharray="7.14 7.14"/>
<line x1="380.161" y1="136.503" x2="380.161" y2="124.013" stroke="#9D9D9D" stroke-width="0.892178" stroke-dasharray="7.14 7.14"/>
<circle cx="34.4419" cy="121.336" r="5.35307" fill="#25BEDE"/>
<circle cx="34.4419" cy="121.336" r="5.35307" stroke="#D85757"/>
<circle cx="92.4336" cy="57.0994" r="5.35307" fill="#25BEDE"/>
<circle cx="92.4336" cy="57.0994" r="5.35307" stroke="#D85757"/>
<circle cx="173.622" cy="25.8733" r="5.35307" fill="#25BEDE"/>
<circle cx="173.622" cy="25.8733" r="5.35307" stroke="#D85757"/>
<circle cx="253.918" cy="40.9324" r="5.35307" fill="#25BEDE"/>
<circle cx="253.918" cy="40.9324" r="5.35307" stroke="#D85757"/>
<circle cx="324.4" cy="50.8543" r="5.35307" fill="#25BEDE"/>
<circle cx="324.4" cy="50.8543" r="5.35307" stroke="#D85757"/>
<circle cx="380.607" cy="123.121" r="5.35307" fill="#25BEDE"/>
<circle cx="380.607" cy="123.121" r="5.35307" stroke="#D85757"/>
<path d="M24.3748 153.033C23.661 153.739 22.7831 154.093 21.7411 154.093C20.699 154.093 19.8175 153.739 19.0966 153.033C18.3829 152.326 18.026 151.448 18.026 150.399C18.026 149.343 18.3865 148.465 19.1073 147.765C19.8282 147.059 20.7061 146.705 21.7411 146.705C22.776 146.705 23.6539 147.059 24.3748 147.765C25.0956 148.465 25.4561 149.343 25.4561 150.399C25.4561 151.448 25.0956 152.326 24.3748 153.033ZM23.7966 148.311C23.2328 147.74 22.5476 147.455 21.7411 147.455C20.9345 147.455 20.2493 147.74 19.6855 148.311C19.1216 148.882 18.8397 149.578 18.8397 150.399C18.8397 151.22 19.1216 151.916 19.6855 152.487C20.2493 153.058 20.9345 153.343 21.7411 153.343C22.5476 153.343 23.2328 153.058 23.7966 152.487C24.3605 151.916 24.6424 151.22 24.6424 150.399C24.6424 149.578 24.3605 148.882 23.7966 148.311ZM26.7188 149.521H27.4897V151.341L29.2883 149.521H30.2304L28.3033 151.502L30.466 153.964H29.4596L27.7252 152.016L27.4897 152.24V153.964H26.7188V149.521ZM34.1475 150.228H32.7557V153.964H31.9849V150.228H30.5931V149.521H34.1475V150.228ZM34.4436 153.964L35.8247 152.133C35.7819 152.133 35.7212 152.126 35.6427 152.112C35.5713 152.098 35.4643 152.062 35.3215 152.005C35.1788 151.948 35.061 151.873 34.9682 151.78C34.7327 151.559 34.6149 151.263 34.6149 150.891C34.6149 150.47 34.747 150.138 35.0111 149.896C35.2751 149.646 35.7105 149.521 36.3172 149.521H37.8696V153.964H37.0988V152.176H36.6277L35.3644 153.964H34.4436ZM37.0988 151.534V150.206H36.3814C36.046 150.206 35.814 150.246 35.6855 150.324C35.5 150.445 35.4072 150.627 35.4072 150.87C35.4072 151.113 35.5 151.291 35.6855 151.405C35.8212 151.491 36.0495 151.534 36.3707 151.534H37.0988ZM42.7538 146.47H43.6103C43.5317 146.734 43.3961 146.959 43.2034 147.144C43.0178 147.323 42.8465 147.444 42.6895 147.508C42.5396 147.573 42.3612 147.63 42.1542 147.68C42.1185 147.687 42.0329 147.708 41.8973 147.744C41.7617 147.772 41.6582 147.797 41.5868 147.819C41.5154 147.84 41.4226 147.869 41.3084 147.904C41.1942 147.94 41.0907 147.983 40.998 148.033C40.9052 148.083 40.8195 148.136 40.741 148.194C40.4698 148.4 40.2485 148.69 40.0772 149.061C39.9131 149.425 39.8238 149.814 39.8096 150.228H39.831C40.1522 149.685 40.691 149.414 41.4476 149.414C42.1114 149.414 42.661 149.639 43.0964 150.088C43.5389 150.538 43.7601 151.095 43.7601 151.759C43.7601 152.43 43.5353 152.986 43.0856 153.429C42.636 153.871 42.0507 154.093 41.3298 154.093C40.7089 154.093 40.1986 153.907 39.7989 153.536C39.2992 153.079 39.0494 152.315 39.0494 151.245C39.0494 149.382 39.4705 148.161 40.3128 147.583C40.377 147.54 40.4448 147.501 40.5162 147.465C40.5876 147.423 40.6625 147.387 40.741 147.358C40.8267 147.323 40.898 147.294 40.9551 147.273C41.0122 147.244 41.0907 147.219 41.1907 147.198C41.2977 147.169 41.3691 147.151 41.4048 147.144C41.4476 147.13 41.5261 147.112 41.6403 147.091C41.7617 147.062 41.8366 147.044 41.8652 147.037C42.1506 146.973 42.3576 146.898 42.4861 146.812C42.6146 146.72 42.7038 146.605 42.7538 146.47ZM42.5075 150.538C42.2077 150.246 41.8402 150.099 41.4048 150.099C40.9694 150.099 40.5983 150.249 40.2913 150.549C39.9916 150.841 39.8417 151.245 39.8417 151.759C39.8417 152.273 39.9951 152.676 40.3021 152.968C40.609 153.261 40.9765 153.407 41.4048 153.407C41.833 153.407 42.2006 153.261 42.5075 152.968C42.8144 152.676 42.9679 152.273 42.9679 151.759C42.9679 151.238 42.8144 150.831 42.5075 150.538ZM45.7131 153.343V156.427H44.9422V149.521H45.7131V150.142C46.1056 149.657 46.6124 149.414 47.2334 149.414C47.8971 149.414 48.4217 149.65 48.8072 150.121C49.1997 150.585 49.396 151.134 49.396 151.769C49.396 152.412 49.2033 152.961 48.8179 153.418C48.4324 153.868 47.915 154.093 47.2655 154.093C46.616 154.093 46.0985 153.843 45.7131 153.343ZM47.1584 153.407C47.5938 153.407 47.9435 153.25 48.2076 152.936C48.4717 152.615 48.6037 152.226 48.6037 151.769C48.6037 151.255 48.4574 150.849 48.1648 150.549C47.8722 150.249 47.5331 150.099 47.1477 150.099C46.7623 150.099 46.4197 150.249 46.1199 150.549C45.8201 150.849 45.6703 151.252 45.6703 151.759C45.6703 152.223 45.8059 152.615 46.0771 152.936C46.3555 153.25 46.7159 153.407 47.1584 153.407ZM50.5776 153.964V149.521H51.3484V151.223H52.1407C52.7545 151.223 53.2042 151.37 53.4897 151.662C53.7181 151.891 53.8323 152.201 53.8323 152.594C53.8323 153.008 53.7002 153.34 53.4361 153.589C53.1721 153.839 52.7367 153.964 52.13 153.964H50.5776ZM51.3484 153.279H52.0658C52.3869 153.279 52.6153 153.24 52.7509 153.161C52.9437 153.033 53.04 152.844 53.04 152.594C53.04 152.337 52.9472 152.151 52.7617 152.037C52.6332 151.951 52.4048 151.909 52.0765 151.909H51.3484V153.279ZM93.3311 146.823V149.724H96.9926V146.823H97.7849V153.964H96.9926V150.474H93.3311V153.964H92.5389V146.823H93.3311ZM103.193 153.429C102.75 153.871 102.19 154.093 101.512 154.093C100.834 154.093 100.27 153.871 99.8202 153.429C99.3777 152.986 99.1564 152.43 99.1564 151.759C99.1564 151.081 99.3777 150.52 99.8202 150.078C100.27 149.635 100.834 149.414 101.512 149.414C102.19 149.414 102.75 149.635 103.193 150.078C103.642 150.52 103.867 151.081 103.867 151.759C103.867 152.43 103.642 152.986 103.193 153.429ZM102.614 150.538C102.315 150.246 101.947 150.099 101.512 150.099C101.076 150.099 100.705 150.249 100.398 150.549C100.099 150.841 99.9487 151.245 99.9487 151.759C99.9487 152.273 100.102 152.676 100.409 152.968C100.716 153.261 101.084 153.407 101.512 153.407C101.94 153.407 102.308 153.261 102.614 152.968C102.921 152.676 103.075 152.273 103.075 151.759C103.075 151.238 102.921 150.831 102.614 150.538ZM104.535 153.964L105.916 152.133C105.874 152.133 105.813 152.126 105.734 152.112C105.663 152.098 105.556 152.062 105.413 152.005C105.27 151.948 105.153 151.873 105.06 151.78C104.824 151.559 104.707 151.263 104.707 150.891C104.707 150.47 104.839 150.138 105.103 149.896C105.367 149.646 105.802 149.521 106.409 149.521H107.961V153.964H107.19V152.176H106.719L105.456 153.964H104.535ZM107.19 151.534V150.206H106.473C106.138 150.206 105.906 150.246 105.777 150.324C105.592 150.445 105.499 150.627 105.499 150.87C105.499 151.113 105.592 151.291 105.777 151.405C105.913 151.491 106.141 151.534 106.462 151.534H107.19ZM112.845 146.47H113.702C113.623 146.734 113.488 146.959 113.295 147.144C113.11 147.323 112.938 147.444 112.781 147.508C112.631 147.573 112.453 147.63 112.246 147.68C112.21 147.687 112.125 147.708 111.989 147.744C111.853 147.772 111.75 147.797 111.678 147.819C111.607 147.84 111.514 147.869 111.4 147.904C111.286 147.94 111.182 147.983 111.09 148.033C110.997 148.083 110.911 148.136 110.833 148.194C110.561 148.4 110.34 148.69 110.169 149.061C110.005 149.425 109.916 149.814 109.901 150.228H109.923C110.244 149.685 110.783 149.414 111.539 149.414C112.203 149.414 112.753 149.639 113.188 150.088C113.631 150.538 113.852 151.095 113.852 151.759C113.852 152.43 113.627 152.986 113.177 153.429C112.728 153.871 112.142 154.093 111.422 154.093C110.801 154.093 110.29 153.907 109.891 153.536C109.391 153.079 109.141 152.315 109.141 151.245C109.141 149.382 109.562 148.161 110.404 147.583C110.469 147.54 110.536 147.501 110.608 147.465C110.679 147.423 110.754 147.387 110.833 147.358C110.918 147.323 110.99 147.294 111.047 147.273C111.104 147.244 111.182 147.219 111.282 147.198C111.389 147.169 111.461 147.151 111.496 147.144C111.539 147.13 111.618 147.112 111.732 147.091C111.853 147.062 111.928 147.044 111.957 147.037C112.242 146.973 112.449 146.898 112.578 146.812C112.706 146.72 112.795 146.605 112.845 146.47ZM112.599 150.538C112.299 150.246 111.932 150.099 111.496 150.099C111.061 150.099 110.69 150.249 110.383 150.549C110.083 150.841 109.933 151.245 109.933 151.759C109.933 152.273 110.087 152.676 110.394 152.968C110.701 153.261 111.068 153.407 111.496 153.407C111.925 153.407 112.292 153.261 112.599 152.968C112.906 152.676 113.06 152.273 113.06 151.759C113.06 151.238 112.906 150.831 112.599 150.538ZM115.805 153.343V156.427H115.034V149.521H115.805V150.142C116.197 149.657 116.704 149.414 117.325 149.414C117.989 149.414 118.513 149.65 118.899 150.121C119.291 150.585 119.488 151.134 119.488 151.769C119.488 152.412 119.295 152.961 118.91 153.418C118.524 153.868 118.007 154.093 117.357 154.093C116.708 154.093 116.19 153.843 115.805 153.343ZM117.25 153.407C117.685 153.407 118.035 153.25 118.299 152.936C118.563 152.615 118.695 152.226 118.695 151.769C118.695 151.255 118.549 150.849 118.256 150.549C117.964 150.249 117.625 150.099 117.239 150.099C116.854 150.099 116.511 150.249 116.212 150.549C115.912 150.849 115.762 151.252 115.762 151.759C115.762 152.223 115.898 152.615 116.169 152.936C116.447 153.25 116.808 153.407 117.25 153.407ZM120.669 153.964V149.521H121.44V151.223H122.232C122.846 151.223 123.296 151.37 123.581 151.662C123.81 151.891 123.924 152.201 123.924 152.594C123.924 153.008 123.792 153.34 123.528 153.589C123.264 153.839 122.828 153.964 122.222 153.964H120.669ZM121.44 153.279H122.157C122.479 153.279 122.707 153.24 122.843 153.161C123.035 153.033 123.132 152.844 123.132 152.594C123.132 152.337 123.039 152.151 122.853 152.037C122.725 151.951 122.496 151.909 122.168 151.909H121.44V153.279ZM175.745 146.823H180.092V153.215H180.906V155.463H180.156V153.964H175.103V155.463H174.354V153.215C174.596 153.222 174.818 153.136 175.017 152.958C175.217 152.772 175.374 152.537 175.489 152.251C175.66 151.816 175.745 151.191 175.745 150.378V146.823ZM176.538 147.573V150.378C176.538 151.255 176.452 151.919 176.281 152.369C176.159 152.69 175.977 152.972 175.735 153.215H179.3V147.573H176.538ZM185.077 152.476L185.72 152.829C185.57 153.115 185.388 153.354 185.174 153.547C184.767 153.911 184.275 154.093 183.696 154.093C183.097 154.093 182.579 153.9 182.144 153.514C181.716 153.122 181.502 152.54 181.502 151.769C181.502 151.091 181.694 150.531 182.08 150.088C182.472 149.639 182.997 149.414 183.654 149.414C184.396 149.414 184.956 149.685 185.334 150.228C185.634 150.656 185.773 151.213 185.752 151.898H182.294C182.301 152.347 182.44 152.711 182.711 152.99C182.983 153.268 183.315 153.407 183.707 153.407C184.057 153.407 184.36 153.3 184.617 153.086C184.817 152.915 184.97 152.711 185.077 152.476ZM182.347 151.255H184.96C184.895 150.906 184.742 150.627 184.499 150.42C184.264 150.206 183.982 150.099 183.654 150.099C183.332 150.099 183.047 150.21 182.797 150.431C182.554 150.645 182.404 150.92 182.347 151.255ZM186.934 149.521H187.705V151.341L189.504 149.521H190.446L188.519 151.502L190.682 153.964H189.675L187.941 152.016L187.705 152.24V153.964H186.934V149.521ZM194.856 150.153V149.521H195.626V153.964H194.856V153.343C194.47 153.843 193.963 154.093 193.335 154.093C192.736 154.093 192.225 153.886 191.804 153.472C191.383 153.058 191.173 152.48 191.173 151.737C191.173 151.009 191.38 150.442 191.794 150.035C192.215 149.621 192.729 149.414 193.335 149.414C193.978 149.414 194.484 149.66 194.856 150.153ZM193.421 150.099C193.014 150.099 192.668 150.246 192.382 150.538C192.104 150.824 191.965 151.223 191.965 151.737C191.965 152.23 192.093 152.633 192.35 152.947C192.614 153.254 192.971 153.407 193.421 153.407C193.871 153.407 194.227 153.247 194.492 152.926C194.763 152.604 194.898 152.212 194.898 151.748C194.898 151.22 194.749 150.813 194.449 150.527C194.149 150.242 193.806 150.099 193.421 150.099ZM200.512 146.47H201.369C201.29 146.734 201.155 146.959 200.962 147.144C200.776 147.323 200.605 147.444 200.448 147.508C200.298 147.573 200.12 147.63 199.913 147.68C199.877 147.687 199.791 147.708 199.656 147.744C199.52 147.772 199.417 147.797 199.345 147.819C199.274 147.84 199.181 147.869 199.067 147.904C198.953 147.94 198.849 147.983 198.757 148.033C198.664 148.083 198.578 148.136 198.5 148.194C198.228 148.4 198.007 148.69 197.836 149.061C197.672 149.425 197.582 149.814 197.568 150.228H197.59C197.911 149.685 198.45 149.414 199.206 149.414C199.87 149.414 200.42 149.639 200.855 150.088C201.297 150.538 201.519 151.095 201.519 151.759C201.519 152.43 201.294 152.986 200.844 153.429C200.395 153.871 199.809 154.093 199.088 154.093C198.467 154.093 197.957 153.907 197.557 153.536C197.058 153.079 196.808 152.315 196.808 151.245C196.808 149.382 197.229 148.161 198.071 147.583C198.136 147.54 198.203 147.501 198.275 147.465C198.346 147.423 198.421 147.387 198.5 147.358C198.585 147.323 198.657 147.294 198.714 147.273C198.771 147.244 198.849 147.219 198.949 147.198C199.056 147.169 199.128 147.151 199.163 147.144C199.206 147.13 199.285 147.112 199.399 147.091C199.52 147.062 199.595 147.044 199.624 147.037C199.909 146.973 200.116 146.898 200.245 146.812C200.373 146.72 200.462 146.605 200.512 146.47ZM200.266 150.538C199.966 150.246 199.599 150.099 199.163 150.099C198.728 150.099 198.357 150.249 198.05 150.549C197.75 150.841 197.6 151.245 197.6 151.759C197.6 152.273 197.754 152.676 198.061 152.968C198.368 153.261 198.735 153.407 199.163 153.407C199.592 153.407 199.959 153.261 200.266 152.968C200.573 152.676 200.726 152.273 200.726 151.759C200.726 151.238 200.573 150.831 200.266 150.538ZM203.472 153.343V156.427H202.701V149.521H203.472V150.142C203.864 149.657 204.371 149.414 204.992 149.414C205.656 149.414 206.18 149.65 206.566 150.121C206.958 150.585 207.155 151.134 207.155 151.769C207.155 152.412 206.962 152.961 206.576 153.418C206.191 153.868 205.674 154.093 205.024 154.093C204.375 154.093 203.857 153.843 203.472 153.343ZM204.917 153.407C205.352 153.407 205.702 153.25 205.966 152.936C206.23 152.615 206.362 152.226 206.362 151.769C206.362 151.255 206.216 150.849 205.923 150.549C205.631 150.249 205.292 150.099 204.906 150.099C204.521 150.099 204.178 150.249 203.879 150.549C203.579 150.849 203.429 151.252 203.429 151.759C203.429 152.223 203.564 152.615 203.836 152.936C204.114 153.25 204.474 153.407 204.917 153.407ZM208.336 153.964V149.521H209.107V151.223H209.899C210.513 151.223 210.963 151.37 211.248 151.662C211.477 151.891 211.591 152.201 211.591 152.594C211.591 153.008 211.459 153.34 211.195 153.589C210.931 153.839 210.495 153.964 209.889 153.964H208.336ZM209.107 153.279H209.824C210.146 153.279 210.374 153.24 210.51 153.161C210.702 153.033 210.799 152.844 210.799 152.594C210.799 152.337 210.706 152.151 210.52 152.037C210.392 151.951 210.163 151.909 209.835 151.909H209.107V153.279ZM254.695 153.964L256.794 150.795C256.309 150.745 255.909 150.595 255.595 150.345C255.181 150.01 254.974 149.525 254.974 148.889C254.974 148.304 255.138 147.829 255.466 147.465C255.852 147.037 256.444 146.823 257.244 146.823H258.914V153.964H258.121V150.838H257.693L255.659 153.964H254.695ZM258.121 147.573H257.351C256.78 147.573 256.373 147.697 256.13 147.947C255.902 148.19 255.788 148.497 255.788 148.868C255.788 149.289 255.923 149.61 256.194 149.832C256.451 150.031 256.815 150.131 257.286 150.131H258.121V147.573ZM260.56 153.964V149.521H261.331V151.341H263.429V149.521H264.2V153.964H263.429V152.048H261.331V153.964H260.56ZM265.652 149.521H267.332C267.739 149.521 268.05 149.607 268.264 149.778C268.521 149.985 268.649 150.263 268.649 150.613C268.649 150.999 268.489 151.295 268.168 151.502C268.389 151.559 268.574 151.659 268.724 151.801C268.96 152.03 269.078 152.315 269.078 152.658C269.078 153.086 268.924 153.422 268.617 153.664C268.353 153.864 268.003 153.964 267.568 153.964H265.652V149.521ZM266.422 151.33H267.236C267.443 151.33 267.607 151.288 267.729 151.202C267.871 151.095 267.943 150.941 267.943 150.742C267.943 150.563 267.871 150.42 267.729 150.313C267.622 150.242 267.415 150.206 267.108 150.206H266.422V151.33ZM266.422 153.279H267.375C267.704 153.279 267.936 153.229 268.071 153.129C268.243 153.001 268.328 152.836 268.328 152.637C268.328 152.422 268.253 152.255 268.103 152.133C267.968 152.026 267.736 151.973 267.407 151.973H266.422V153.279ZM273.656 150.153V149.521H274.427V153.964H273.656V153.343C273.271 153.843 272.764 154.093 272.136 154.093C271.537 154.093 271.026 153.886 270.605 153.472C270.184 153.058 269.974 152.48 269.974 151.737C269.974 151.009 270.181 150.442 270.595 150.035C271.016 149.621 271.53 149.414 272.136 149.414C272.779 149.414 273.285 149.66 273.656 150.153ZM272.222 150.099C271.815 150.099 271.469 150.246 271.183 150.538C270.905 150.824 270.766 151.223 270.766 151.737C270.766 152.23 270.894 152.633 271.151 152.947C271.415 153.254 271.772 153.407 272.222 153.407C272.671 153.407 273.028 153.247 273.292 152.926C273.564 152.604 273.699 152.212 273.699 151.748C273.699 151.22 273.549 150.813 273.25 150.527C272.95 150.242 272.607 150.099 272.222 150.099ZM276.658 153.343V156.427H275.887V149.521H276.658V150.142C277.051 149.657 277.557 149.414 278.178 149.414C278.842 149.414 279.367 149.65 279.752 150.121C280.145 150.585 280.341 151.134 280.341 151.769C280.341 152.412 280.148 152.961 279.763 153.418C279.377 153.868 278.86 154.093 278.21 154.093C277.561 154.093 277.044 153.843 276.658 153.343ZM278.103 153.407C278.539 153.407 278.889 153.25 279.153 152.936C279.417 152.615 279.549 152.226 279.549 151.769C279.549 151.255 279.402 150.849 279.11 150.549C278.817 150.249 278.478 150.099 278.093 150.099C277.707 150.099 277.365 150.249 277.065 150.549C276.765 150.849 276.615 151.252 276.615 151.759C276.615 152.223 276.751 152.615 277.022 152.936C277.3 153.25 277.661 153.407 278.103 153.407ZM281.523 153.964V149.521H282.293V151.223H283.086C283.7 151.223 284.149 151.37 284.435 151.662C284.663 151.891 284.777 152.201 284.777 152.594C284.777 153.008 284.645 153.34 284.381 153.589C284.117 153.839 283.682 153.964 283.075 153.964H281.523ZM282.293 153.279H283.011C283.332 153.279 283.56 153.24 283.696 153.161C283.889 153.033 283.985 152.844 283.985 152.594C283.985 152.337 283.892 152.151 283.707 152.037C283.578 151.951 283.35 151.909 283.021 151.909H282.293V153.279ZM326.567 153.964V152.958H326.375C325.868 152.958 325.415 152.897 325.015 152.776C324.622 152.654 324.308 152.501 324.073 152.315C323.837 152.13 323.641 151.909 323.484 151.652C323.334 151.395 323.231 151.148 323.173 150.913C323.123 150.67 323.098 150.424 323.098 150.174C323.098 149.924 323.123 149.682 323.173 149.446C323.231 149.203 323.334 148.954 323.484 148.697C323.641 148.44 323.837 148.218 324.073 148.033C324.308 147.847 324.622 147.694 325.015 147.573C325.415 147.451 325.868 147.391 326.375 147.391H326.567V146.534H327.36V147.391H327.552C328.059 147.391 328.509 147.451 328.901 147.573C329.301 147.694 329.619 147.847 329.854 148.033C330.09 148.218 330.282 148.44 330.432 148.697C330.589 148.954 330.693 149.203 330.743 149.446C330.8 149.682 330.828 149.924 330.828 150.174C330.828 150.424 330.8 150.67 330.743 150.913C330.693 151.148 330.589 151.395 330.432 151.652C330.282 151.909 330.09 152.13 329.854 152.315C329.619 152.501 329.301 152.654 328.901 152.776C328.509 152.897 328.059 152.958 327.552 152.958H327.36V153.964H326.567ZM326.567 152.208V148.14H326.353C325.889 148.14 325.49 148.201 325.154 148.322C324.819 148.443 324.565 148.611 324.394 148.825C324.223 149.032 324.098 149.246 324.019 149.468C323.948 149.689 323.912 149.924 323.912 150.174C323.912 150.424 323.948 150.659 324.019 150.881C324.098 151.102 324.223 151.32 324.394 151.534C324.565 151.741 324.819 151.905 325.154 152.026C325.49 152.148 325.889 152.208 326.353 152.208H326.567ZM327.36 148.14V152.208H327.574C328.038 152.208 328.437 152.148 328.773 152.026C329.108 151.905 329.362 151.741 329.533 151.534C329.704 151.32 329.825 151.102 329.897 150.881C329.975 150.659 330.015 150.424 330.015 150.174C330.015 149.924 329.975 149.689 329.897 149.468C329.825 149.246 329.704 149.032 329.533 148.825C329.362 148.611 329.108 148.443 328.773 148.322C328.437 148.201 328.038 148.14 327.574 148.14H327.36ZM335.392 152.476L336.034 152.829C335.884 153.115 335.702 153.354 335.488 153.547C335.081 153.911 334.589 154.093 334.011 154.093C333.411 154.093 332.894 153.9 332.458 153.514C332.03 153.122 331.816 152.54 331.816 151.769C331.816 151.091 332.009 150.531 332.394 150.088C332.787 149.639 333.311 149.414 333.968 149.414C334.71 149.414 335.271 149.685 335.649 150.228C335.949 150.656 336.088 151.213 336.066 151.898H332.608C332.615 152.347 332.755 152.711 333.026 152.99C333.297 153.268 333.629 153.407 334.022 153.407C334.371 153.407 334.675 153.3 334.932 153.086C335.131 152.915 335.285 152.711 335.392 152.476ZM332.662 151.255H335.274C335.21 150.906 335.056 150.627 334.814 150.42C334.578 150.206 334.296 150.099 333.968 150.099C333.647 150.099 333.361 150.21 333.112 150.431C332.869 150.645 332.719 150.92 332.662 151.255ZM337.249 149.521H338.93C339.337 149.521 339.647 149.607 339.861 149.778C340.118 149.985 340.247 150.263 340.247 150.613C340.247 150.999 340.086 151.295 339.765 151.502C339.986 151.559 340.172 151.659 340.322 151.801C340.557 152.03 340.675 152.315 340.675 152.658C340.675 153.086 340.521 153.422 340.214 153.664C339.95 153.864 339.601 153.964 339.165 153.964H337.249V149.521ZM338.02 151.33H338.833C339.04 151.33 339.205 151.288 339.326 151.202C339.469 151.095 339.54 150.941 339.54 150.742C339.54 150.563 339.469 150.42 339.326 150.313C339.219 150.242 339.012 150.206 338.705 150.206H338.02V151.33ZM338.02 153.279H338.973C339.301 153.279 339.533 153.229 339.668 153.129C339.84 153.001 339.925 152.836 339.925 152.637C339.925 152.422 339.85 152.255 339.701 152.133C339.565 152.026 339.333 151.973 339.005 151.973H338.02V153.279ZM342.62 153.343V156.427H341.849V149.521H342.62V150.142C343.013 149.657 343.519 149.414 344.14 149.414C344.804 149.414 345.329 149.65 345.714 150.121C346.107 150.585 346.303 151.134 346.303 151.769C346.303 152.412 346.11 152.961 345.725 153.418C345.339 153.868 344.822 154.093 344.172 154.093C343.523 154.093 343.005 153.843 342.62 153.343ZM344.065 153.407C344.501 153.407 344.85 153.25 345.115 152.936C345.379 152.615 345.511 152.226 345.511 151.769C345.511 151.255 345.364 150.849 345.072 150.549C344.779 150.249 344.44 150.099 344.055 150.099C343.669 150.099 343.327 150.249 343.027 150.549C342.727 150.849 342.577 151.252 342.577 151.759C342.577 152.223 342.713 152.615 342.984 152.936C343.262 153.25 343.623 153.407 344.065 153.407ZM350.889 150.153V149.521H351.66V153.964H350.889V153.343C350.504 153.843 349.997 154.093 349.369 154.093C348.769 154.093 348.259 153.886 347.838 153.472C347.417 153.058 347.206 152.48 347.206 151.737C347.206 151.009 347.413 150.442 347.827 150.035C348.248 149.621 348.762 149.414 349.369 149.414C350.011 149.414 350.518 149.66 350.889 150.153ZM349.454 150.099C349.048 150.099 348.701 150.246 348.416 150.538C348.138 150.824 347.998 151.223 347.998 151.737C347.998 152.23 348.127 152.633 348.384 152.947C348.648 153.254 349.005 153.407 349.454 153.407C349.904 153.407 350.261 153.247 350.525 152.926C350.796 152.604 350.932 152.212 350.932 151.748C350.932 151.22 350.782 150.813 350.482 150.527C350.182 150.242 349.84 150.099 349.454 150.099ZM356.482 149.521V153.964H355.711V150.228H354.126V152.23C354.126 152.808 354.012 153.236 353.784 153.514C353.527 153.829 353.17 153.986 352.713 153.986C352.656 153.986 352.577 153.978 352.477 153.964V153.258C352.549 153.272 352.606 153.279 352.649 153.279C352.899 153.279 353.084 153.183 353.206 152.99C353.305 152.833 353.355 152.579 353.355 152.23V149.521H356.482ZM357.94 153.964V149.521H358.711V151.223H359.503C360.117 151.223 360.566 151.37 360.852 151.662C361.08 151.891 361.194 152.201 361.194 152.594C361.194 153.008 361.062 153.34 360.798 153.589C360.534 153.839 360.099 153.964 359.492 153.964H357.94ZM358.711 153.279H359.428C359.749 153.279 359.977 153.24 360.113 153.161C360.306 153.033 360.402 152.844 360.402 152.594C360.402 152.337 360.309 152.151 360.124 152.037C359.995 151.951 359.767 151.909 359.439 151.909H358.711V153.279ZM381.26 153.964H379.418L380.628 146.823H382.459L383.904 150.635L385.435 146.823H387.287L388.358 153.964H386.506L385.981 149.853L384.257 153.964H383.519L381.87 149.853L381.26 153.964ZM393.08 149.639V149.178H394.793V153.964H393.08V153.44C392.751 153.896 392.255 154.125 391.591 154.125C390.921 154.125 390.346 153.871 389.868 153.365C389.411 152.879 389.183 152.294 389.183 151.609C389.183 150.824 389.429 150.185 389.921 149.692C390.371 149.243 390.946 149.018 391.645 149.018C392.23 149.018 392.708 149.225 393.08 149.639ZM392.03 150.474C391.745 150.474 391.495 150.577 391.281 150.784C391.053 151.006 390.938 151.266 390.938 151.566C390.938 151.88 391.049 152.141 391.27 152.347C391.499 152.562 391.756 152.669 392.041 152.669C392.334 152.669 392.591 152.558 392.812 152.337C393.026 152.123 393.133 151.866 393.133 151.566C393.133 151.259 393.022 150.999 392.801 150.784C392.58 150.577 392.323 150.474 392.03 150.474ZM397.685 153.504V156.416H395.973V149.178H397.685V149.703C398.049 149.246 398.538 149.018 399.152 149.018C399.823 149.018 400.391 149.25 400.854 149.714C401.34 150.199 401.583 150.817 401.583 151.566C401.583 152.33 401.326 152.961 400.812 153.461C400.362 153.903 399.816 154.125 399.174 154.125C398.581 154.125 398.085 153.918 397.685 153.504ZM398.735 150.474C398.435 150.474 398.178 150.581 397.964 150.795C397.743 151.016 397.632 151.28 397.632 151.587C397.632 151.873 397.743 152.126 397.964 152.347C398.178 152.562 398.435 152.669 398.735 152.669C399.042 152.669 399.295 152.562 399.495 152.347C399.716 152.126 399.827 151.873 399.827 151.587C399.827 151.28 399.716 151.016 399.495 150.795C399.295 150.581 399.042 150.474 398.735 150.474ZM403.33 153.964V150.581H402.088V149.178H406.285V150.581H405.043V153.964H403.33Z" fill="black"/>
<path d="M16.4452 98.6448V99.9028H13.6883L13.2467 101.388C13.4251 101.37 13.5634 101.361 13.6616 101.361C14.5002 101.361 15.1872 101.625 15.7225 102.151C16.3024 102.713 16.5924 103.476 16.5924 104.44C16.5924 105.412 16.289 106.202 15.6823 106.808C15.0667 107.415 14.2415 107.718 13.2066 107.718C12.5285 107.718 11.9575 107.584 11.4936 107.317C11.0653 107.058 10.7129 106.715 10.4363 106.286L11.4668 105.43C11.5917 105.733 11.8192 105.992 12.1493 106.206C12.4527 106.411 12.8408 106.514 13.3136 106.514C13.8757 106.514 14.3307 106.349 14.6786 106.019C15.0623 105.635 15.2541 105.131 15.2541 104.506C15.2541 103.882 15.0757 103.4 14.7188 103.061C14.3708 102.731 13.8846 102.566 13.2601 102.566C12.9032 102.566 12.5553 102.628 12.2162 102.753C11.9129 102.869 11.6497 103.003 11.4267 103.155L12.7515 98.6448H16.4452ZM23.4893 106.755C22.9272 107.397 22.2536 107.718 21.4685 107.718C20.6834 107.718 20.0098 107.397 19.4477 106.755C18.6893 105.889 18.3102 104.676 18.3102 103.115C18.3102 101.544 18.6893 100.327 19.4477 99.4612C20.0098 98.8188 20.6834 98.4976 21.4685 98.4976C22.2536 98.4976 22.9272 98.8188 23.4893 99.4612C24.2476 100.327 24.6268 101.544 24.6268 103.115C24.6268 104.676 24.2476 105.889 23.4893 106.755ZM22.6729 100.438C22.3517 99.9474 21.9502 99.702 21.4685 99.702C20.9867 99.702 20.5852 99.9474 20.264 100.438C19.8536 101.045 19.6484 101.932 19.6484 103.101C19.6484 104.261 19.8536 105.153 20.264 105.778C20.5852 106.268 20.9867 106.514 21.4685 106.514C21.9502 106.514 22.3517 106.268 22.6729 105.778C23.0833 105.153 23.2885 104.261 23.2885 103.101C23.2885 101.932 23.0833 101.045 22.6729 100.438ZM34.2189 106.755C33.6568 107.397 32.9832 107.718 32.1981 107.718C31.413 107.718 30.7394 107.397 30.1773 106.755C29.419 105.889 29.0398 104.676 29.0398 103.115C29.0398 101.544 29.419 100.327 30.1773 99.4612C30.7394 98.8188 31.413 98.4976 32.1981 98.4976C32.9832 98.4976 33.6568 98.8188 34.2189 99.4612C34.9773 100.327 35.3564 101.544 35.3564 103.115C35.3564 104.676 34.9773 105.889 34.2189 106.755ZM33.4026 100.438C33.0814 99.9474 32.6799 99.702 32.1981 99.702C31.7163 99.702 31.3149 99.9474 30.9937 100.438C30.5833 101.045 30.3781 101.932 30.3781 103.101C30.3781 104.261 30.5833 105.153 30.9937 105.778C31.3149 106.268 31.7163 106.514 32.1981 106.514C32.6799 106.514 33.0814 106.268 33.4026 105.778C33.813 105.153 34.0182 104.261 34.0182 103.101C34.0182 101.932 33.813 101.045 33.4026 100.438ZM41.8251 106.755C41.263 107.397 40.5894 107.718 39.8043 107.718C39.0192 107.718 38.3456 107.397 37.7835 106.755C37.0252 105.889 36.646 104.676 36.646 103.115C36.646 101.544 37.0252 100.327 37.7835 99.4612C38.3456 98.8188 39.0192 98.4976 39.8043 98.4976C40.5894 98.4976 41.263 98.8188 41.8251 99.4612C42.5834 100.327 42.9626 101.544 42.9626 103.115C42.9626 104.676 42.5834 105.889 41.8251 106.755ZM41.0087 100.438C40.6875 99.9474 40.2861 99.702 39.8043 99.702C39.3225 99.702 38.921 99.9474 38.5998 100.438C38.1894 101.045 37.9842 101.932 37.9842 103.101C37.9842 104.261 38.1894 105.153 38.5998 105.778C38.921 106.268 39.3225 106.514 39.8043 106.514C40.2861 106.514 40.6875 106.268 41.0087 105.778C41.4191 105.153 41.6243 104.261 41.6243 103.101C41.6243 101.932 41.4191 101.045 41.0087 100.438ZM49.4312 106.755C48.8692 107.397 48.1956 107.718 47.4104 107.718C46.6253 107.718 45.9517 107.397 45.3897 106.755C44.6313 105.889 44.2521 104.676 44.2521 103.115C44.2521 101.544 44.6313 100.327 45.3897 99.4612C45.9517 98.8188 46.6253 98.4976 47.4104 98.4976C48.1956 98.4976 48.8692 98.8188 49.4312 99.4612C50.1896 100.327 50.5688 101.544 50.5688 103.115C50.5688 104.676 50.1896 105.889 49.4312 106.755ZM48.6149 100.438C48.2937 99.9474 47.8922 99.702 47.4104 99.702C46.9287 99.702 46.5272 99.9474 46.206 100.438C45.7956 101.045 45.5904 101.932 45.5904 103.101C45.5904 104.261 45.7956 105.153 46.206 105.778C46.5272 106.268 46.9287 106.514 47.4104 106.514C47.8922 106.514 48.2937 106.268 48.6149 105.778C49.0253 105.153 49.2305 104.261 49.2305 103.101C49.2305 101.932 49.0253 101.045 48.6149 100.438ZM54.9765 98.6448C55.7973 98.6448 56.4486 98.8054 56.9303 99.1266C57.2961 99.3585 57.5727 99.6664 57.7601 100.05C57.9474 100.434 58.0411 100.822 58.0411 101.214C58.0411 101.964 57.8047 102.575 57.3318 103.048C56.7876 103.592 56.0069 103.864 54.9898 103.864H54.3742V104.854H56.4887V105.791H54.3742V107.571H53.0092V105.791H52.0323V104.854H53.0092V103.864H52.0323V102.686H53.0092V98.6448H54.9765ZM54.3742 99.9028V102.686H54.9898C55.6144 102.686 56.0783 102.535 56.3816 102.231C56.6136 101.999 56.7296 101.683 56.7296 101.281C56.7296 100.889 56.6047 100.567 56.3549 100.318C56.0694 100.041 55.6099 99.9028 54.9765 99.9028H54.3742Z" fill="black"/>
<path d="M45.8871 37.9766V39.2346H43.1302L42.6886 40.72C42.867 40.7022 43.0053 40.6933 43.1035 40.6933C43.9421 40.6933 44.6291 40.9565 45.1644 41.4829C45.7443 42.0449 46.0343 42.8077 46.0343 43.7713C46.0343 44.7438 45.7309 45.5333 45.1242 46.14C44.5086 46.7467 43.6834 47.05 42.6484 47.05C41.9704 47.05 41.3994 46.9162 40.9355 46.6486C40.5072 46.3898 40.1548 46.0463 39.8782 45.6181L40.9087 44.7616C41.0336 45.0649 41.2611 45.3237 41.5912 45.5378C41.8946 45.743 42.2827 45.8456 42.7555 45.8456C43.3176 45.8456 43.7726 45.6805 44.1205 45.3504C44.5042 44.9668 44.696 44.4627 44.696 43.8382C44.696 43.2137 44.5176 42.7319 44.1607 42.3929C43.8127 42.0628 43.3265 41.8977 42.702 41.8977C42.3451 41.8977 41.9972 41.9602 41.6581 42.0851C41.3548 42.2011 41.0916 42.3349 40.8686 42.4866L42.1934 37.9766H45.8871ZM52.9311 46.0865C52.3691 46.7289 51.6955 47.05 50.9104 47.05C50.1252 47.05 49.4517 46.7289 48.8896 46.0865C48.1312 45.2211 47.7521 44.0077 47.7521 42.4464C47.7521 40.8762 48.1312 39.6584 48.8896 38.7929C49.4517 38.1506 50.1252 37.8294 50.9104 37.8294C51.6955 37.8294 52.3691 38.1506 52.9311 38.7929C53.6895 39.6584 54.0687 40.8762 54.0687 42.4464C54.0687 44.0077 53.6895 45.2211 52.9311 46.0865ZM52.1148 39.7699C51.7936 39.2792 51.3921 39.0338 50.9104 39.0338C50.4286 39.0338 50.0271 39.2792 49.7059 39.7699C49.2955 40.3766 49.0903 41.2643 49.0903 42.433C49.0903 43.5929 49.2955 44.485 49.7059 45.1096C50.0271 45.6003 50.4286 45.8456 50.9104 45.8456C51.3921 45.8456 51.7936 45.6003 52.1148 45.1096C52.5252 44.485 52.7304 43.5929 52.7304 42.433C52.7304 41.2643 52.5252 40.3766 52.1148 39.7699ZM63.6608 46.0865C63.0987 46.7289 62.4251 47.05 61.64 47.05C60.8549 47.05 60.1813 46.7289 59.6192 46.0865C58.8609 45.2211 58.4817 44.0077 58.4817 42.4464C58.4817 40.8762 58.8609 39.6584 59.6192 38.7929C60.1813 38.1506 60.8549 37.8294 61.64 37.8294C62.4251 37.8294 63.0987 38.1506 63.6608 38.7929C64.4192 39.6584 64.7983 40.8762 64.7983 42.4464C64.7983 44.0077 64.4192 45.2211 63.6608 46.0865ZM62.8445 39.7699C62.5233 39.2792 62.1218 39.0338 61.64 39.0338C61.1582 39.0338 60.7568 39.2792 60.4356 39.7699C60.0252 40.3766 59.82 41.2643 59.82 42.433C59.82 43.5929 60.0252 44.485 60.4356 45.1096C60.7568 45.6003 61.1582 45.8456 61.64 45.8456C62.1218 45.8456 62.5233 45.6003 62.8445 45.1096C63.2549 44.485 63.4601 43.5929 63.4601 42.433C63.4601 41.2643 63.2549 40.3766 62.8445 39.7699ZM71.267 46.0865C70.7049 46.7289 70.0313 47.05 69.2462 47.05C68.4611 47.05 67.7875 46.7289 67.2254 46.0865C66.467 45.2211 66.0879 44.0077 66.0879 42.4464C66.0879 40.8762 66.467 39.6584 67.2254 38.7929C67.7875 38.1506 68.4611 37.8294 69.2462 37.8294C70.0313 37.8294 70.7049 38.1506 71.267 38.7929C72.0253 39.6584 72.4045 40.8762 72.4045 42.4464C72.4045 44.0077 72.0253 45.2211 71.267 46.0865ZM70.4506 39.7699C70.1294 39.2792 69.728 39.0338 69.2462 39.0338C68.7644 39.0338 68.3629 39.2792 68.0417 39.7699C67.6313 40.3766 67.4261 41.2643 67.4261 42.433C67.4261 43.5929 67.6313 44.485 68.0417 45.1096C68.3629 45.6003 68.7644 45.8456 69.2462 45.8456C69.728 45.8456 70.1294 45.6003 70.4506 45.1096C70.861 44.485 71.0662 43.5929 71.0662 42.433C71.0662 41.2643 70.861 40.3766 70.4506 39.7699ZM78.8731 46.0865C78.3111 46.7289 77.6375 47.05 76.8523 47.05C76.0672 47.05 75.3936 46.7289 74.8316 46.0865C74.0732 45.2211 73.694 44.0077 73.694 42.4464C73.694 40.8762 74.0732 39.6584 74.8316 38.7929C75.3936 38.1506 76.0672 37.8294 76.8523 37.8294C77.6375 37.8294 78.3111 38.1506 78.8731 38.7929C79.6315 39.6584 80.0107 40.8762 80.0107 42.4464C80.0107 44.0077 79.6315 45.2211 78.8731 46.0865ZM78.0568 39.7699C77.7356 39.2792 77.3341 39.0338 76.8523 39.0338C76.3706 39.0338 75.9691 39.2792 75.6479 39.7699C75.2375 40.3766 75.0323 41.2643 75.0323 42.433C75.0323 43.5929 75.2375 44.485 75.6479 45.1096C75.9691 45.6003 76.3706 45.8456 76.8523 45.8456C77.3341 45.8456 77.7356 45.6003 78.0568 45.1096C78.4672 44.485 78.6724 43.5929 78.6724 42.433C78.6724 41.2643 78.4672 40.3766 78.0568 39.7699ZM84.4184 37.9766C85.2392 37.9766 85.8905 38.1372 86.3722 38.4584C86.738 38.6903 87.0146 38.9981 87.202 39.3818C87.3893 39.7654 87.483 40.1535 87.483 40.5461C87.483 41.2955 87.2466 41.9066 86.7737 42.3795C86.2295 42.9237 85.4488 43.1958 84.4317 43.1958H83.8161V44.1862H85.9306V45.1229H83.8161V46.9028H82.4511V45.1229H81.4742V44.1862H82.4511V43.1958H81.4742V42.0182H82.4511V37.9766H84.4184ZM83.8161 39.2346V42.0182H84.4317C85.0563 42.0182 85.5202 41.8665 85.8235 41.5631C86.0555 41.3312 86.1715 41.0145 86.1715 40.613C86.1715 40.2204 86.0466 39.8992 85.7968 39.6494C85.5113 39.3729 85.0518 39.2346 84.4184 39.2346H83.8161Z" fill="black"/>
<path d="M155.625 4.07376V5.33173H152.868L152.426 6.81721C152.605 6.79937 152.743 6.79044 152.841 6.79044C153.68 6.79044 154.367 7.05364 154.902 7.58002C155.482 8.14209 155.772 8.9049 155.772 9.86846C155.772 10.8409 155.469 11.6305 154.862 12.2372C154.246 12.8439 153.421 13.1472 152.386 13.1472C151.708 13.1472 151.137 13.0134 150.673 12.7457C150.245 12.487 149.893 12.1435 149.616 11.7153L150.646 10.8588C150.771 11.1621 150.999 11.4208 151.329 11.635C151.632 11.8402 152.02 11.9428 152.493 11.9428C153.055 11.9428 153.51 11.7777 153.858 11.4476C154.242 11.064 154.434 10.5599 154.434 9.93537C154.434 9.31085 154.255 8.82907 153.898 8.49004C153.551 8.15994 153.064 7.99488 152.44 7.99488C152.083 7.99488 151.735 8.05734 151.396 8.18224C151.093 8.29822 150.829 8.43205 150.606 8.58372L151.931 4.07376H155.625ZM162.669 12.1837C162.107 12.826 161.433 13.1472 160.648 13.1472C159.863 13.1472 159.189 12.826 158.627 12.1837C157.869 11.3182 157.49 10.1049 157.49 8.54357C157.49 6.97334 157.869 5.75552 158.627 4.89011C159.189 4.24774 159.863 3.92655 160.648 3.92655C161.433 3.92655 162.107 4.24774 162.669 4.89011C163.427 5.75552 163.806 6.97334 163.806 8.54357C163.806 10.1049 163.427 11.3182 162.669 12.1837ZM161.853 5.86704C161.531 5.37634 161.13 5.13099 160.648 5.13099C160.166 5.13099 159.765 5.37634 159.444 5.86704C159.033 6.47372 158.828 7.36144 158.828 8.53019C158.828 9.69002 159.033 10.5822 159.444 11.2067C159.765 11.6974 160.166 11.9428 160.648 11.9428C161.13 11.9428 161.531 11.6974 161.853 11.2067C162.263 10.5822 162.468 9.69002 162.468 8.53019C162.468 7.36144 162.263 6.47372 161.853 5.86704ZM173.399 12.1837C172.837 12.826 172.163 13.1472 171.378 13.1472C170.593 13.1472 169.919 12.826 169.357 12.1837C168.599 11.3182 168.22 10.1049 168.22 8.54357C168.22 6.97334 168.599 5.75552 169.357 4.89011C169.919 4.24774 170.593 3.92655 171.378 3.92655C172.163 3.92655 172.837 4.24774 173.399 4.89011C174.157 5.75552 174.536 6.97334 174.536 8.54357C174.536 10.1049 174.157 11.3182 173.399 12.1837ZM172.582 5.86704C172.261 5.37634 171.86 5.13099 171.378 5.13099C170.896 5.13099 170.495 5.37634 170.173 5.86704C169.763 6.47372 169.558 7.36144 169.558 8.53019C169.558 9.69002 169.763 10.5822 170.173 11.2067C170.495 11.6974 170.896 11.9428 171.378 11.9428C171.86 11.9428 172.261 11.6974 172.582 11.2067C172.993 10.5822 173.198 9.69002 173.198 8.53019C173.198 7.36144 172.993 6.47372 172.582 5.86704ZM181.005 12.1837C180.443 12.826 179.769 13.1472 178.984 13.1472C178.199 13.1472 177.525 12.826 176.963 12.1837C176.205 11.3182 175.826 10.1049 175.826 8.54357C175.826 6.97334 176.205 5.75552 176.963 4.89011C177.525 4.24774 178.199 3.92655 178.984 3.92655C179.769 3.92655 180.443 4.24774 181.005 4.89011C181.763 5.75552 182.142 6.97334 182.142 8.54357C182.142 10.1049 181.763 11.3182 181.005 12.1837ZM180.188 5.86704C179.867 5.37634 179.466 5.13099 178.984 5.13099C178.502 5.13099 178.101 5.37634 177.78 5.86704C177.369 6.47372 177.164 7.36144 177.164 8.53019C177.164 9.69002 177.369 10.5822 177.78 11.2067C178.101 11.6974 178.502 11.9428 178.984 11.9428C179.466 11.9428 179.867 11.6974 180.188 11.2067C180.599 10.5822 180.804 9.69002 180.804 8.53019C180.804 7.36144 180.599 6.47372 180.188 5.86704ZM188.611 12.1837C188.049 12.826 187.375 13.1472 186.59 13.1472C185.805 13.1472 185.131 12.826 184.569 12.1837C183.811 11.3182 183.432 10.1049 183.432 8.54357C183.432 6.97334 183.811 5.75552 184.569 4.89011C185.131 4.24774 185.805 3.92655 186.59 3.92655C187.375 3.92655 188.049 4.24774 188.611 4.89011C189.369 5.75552 189.748 6.97334 189.748 8.54357C189.748 10.1049 189.369 11.3182 188.611 12.1837ZM187.795 5.86704C187.473 5.37634 187.072 5.13099 186.59 5.13099C186.108 5.13099 185.707 5.37634 185.386 5.86704C184.975 6.47372 184.77 7.36144 184.77 8.53019C184.77 9.69002 184.975 10.5822 185.386 11.2067C185.707 11.6974 186.108 11.9428 186.59 11.9428C187.072 11.9428 187.473 11.6974 187.795 11.2067C188.205 10.5822 188.41 9.69002 188.41 8.53019C188.41 7.36144 188.205 6.47372 187.795 5.86704ZM194.156 4.07376C194.977 4.07376 195.628 4.23435 196.11 4.55554C196.476 4.78751 196.752 5.09531 196.94 5.47894C197.127 5.86258 197.221 6.25068 197.221 6.64323C197.221 7.39266 196.984 8.00381 196.511 8.47666C195.967 9.02089 195.187 9.293 194.17 9.293H193.554V10.2833H195.668V11.2201H193.554V13H192.189V11.2201H191.212V10.2833H192.189V9.293H191.212V8.11533H192.189V4.07376H194.156ZM193.554 5.33173V8.11533H194.17C194.794 8.11533 195.258 7.96366 195.561 7.66032C195.793 7.42835 195.909 7.11163 195.909 6.71015C195.909 6.31759 195.784 5.99641 195.535 5.7466C195.249 5.47002 194.79 5.33173 194.156 5.33173H193.554Z" fill="black"/>
<path d="M235.921 21.0252V22.2831H233.164L232.722 23.7686C232.901 23.7508 233.039 23.7419 233.137 23.7419C233.976 23.7419 234.663 24.0051 235.198 24.5314C235.778 25.0935 236.068 25.8563 236.068 26.8199C236.068 27.7923 235.765 28.5819 235.158 29.1886C234.542 29.7953 233.717 30.0986 232.682 30.0986C232.004 30.0986 231.433 29.9648 230.969 29.6971C230.541 29.4384 230.189 29.0949 229.912 28.6667L230.942 27.8102C231.067 28.1135 231.295 28.3723 231.625 28.5864C231.928 28.7916 232.316 28.8942 232.789 28.8942C233.351 28.8942 233.806 28.7291 234.154 28.399C234.538 28.0154 234.73 27.5113 234.73 26.8868C234.73 26.2623 234.551 25.7805 234.194 25.4415C233.846 25.1114 233.36 24.9463 232.736 24.9463C232.379 24.9463 232.031 25.0088 231.692 25.1337C231.388 25.2496 231.125 25.3835 230.902 25.5351L232.227 21.0252H235.921ZM242.965 29.1351C242.403 29.7774 241.729 30.0986 240.944 30.0986C240.159 30.0986 239.485 29.7774 238.923 29.1351C238.165 28.2697 237.786 27.0563 237.786 25.495C237.786 23.9248 238.165 22.7069 238.923 21.8415C239.485 21.1992 240.159 20.878 240.944 20.878C241.729 20.878 242.403 21.1992 242.965 21.8415C243.723 22.7069 244.102 23.9248 244.102 25.495C244.102 27.0563 243.723 28.2697 242.965 29.1351ZM242.148 22.8185C241.827 22.3278 241.426 22.0824 240.944 22.0824C240.462 22.0824 240.061 22.3278 239.74 22.8185C239.329 23.4251 239.124 24.3129 239.124 25.4816C239.124 26.6414 239.329 27.5336 239.74 28.1581C240.061 28.6488 240.462 28.8942 240.944 28.8942C241.426 28.8942 241.827 28.6488 242.148 28.1581C242.559 27.5336 242.764 26.6414 242.764 25.4816C242.764 24.3129 242.559 23.4251 242.148 22.8185ZM253.694 29.1351C253.132 29.7774 252.459 30.0986 251.674 30.0986C250.889 30.0986 250.215 29.7774 249.653 29.1351C248.895 28.2697 248.515 27.0563 248.515 25.495C248.515 23.9248 248.895 22.7069 249.653 21.8415C250.215 21.1992 250.889 20.878 251.674 20.878C252.459 20.878 253.132 21.1992 253.694 21.8415C254.453 22.7069 254.832 23.9248 254.832 25.495C254.832 27.0563 254.453 28.2697 253.694 29.1351ZM252.878 22.8185C252.557 22.3278 252.155 22.0824 251.674 22.0824C251.192 22.0824 250.79 22.3278 250.469 22.8185C250.059 23.4251 249.854 24.3129 249.854 25.4816C249.854 26.6414 250.059 27.5336 250.469 28.1581C250.79 28.6488 251.192 28.8942 251.674 28.8942C252.155 28.8942 252.557 28.6488 252.878 28.1581C253.289 27.5336 253.494 26.6414 253.494 25.4816C253.494 24.3129 253.289 23.4251 252.878 22.8185ZM261.301 29.1351C260.739 29.7774 260.065 30.0986 259.28 30.0986C258.495 30.0986 257.821 29.7774 257.259 29.1351C256.501 28.2697 256.122 27.0563 256.122 25.495C256.122 23.9248 256.501 22.7069 257.259 21.8415C257.821 21.1992 258.495 20.878 259.28 20.878C260.065 20.878 260.739 21.1992 261.301 21.8415C262.059 22.7069 262.438 23.9248 262.438 25.495C262.438 27.0563 262.059 28.2697 261.301 29.1351ZM260.484 22.8185C260.163 22.3278 259.762 22.0824 259.28 22.0824C258.798 22.0824 258.397 22.3278 258.075 22.8185C257.665 23.4251 257.46 24.3129 257.46 25.4816C257.46 26.6414 257.665 27.5336 258.075 28.1581C258.397 28.6488 258.798 28.8942 259.28 28.8942C259.762 28.8942 260.163 28.6488 260.484 28.1581C260.895 27.5336 261.1 26.6414 261.1 25.4816C261.1 24.3129 260.895 23.4251 260.484 22.8185ZM268.907 29.1351C268.345 29.7774 267.671 30.0986 266.886 30.0986C266.101 30.0986 265.427 29.7774 264.865 29.1351C264.107 28.2697 263.728 27.0563 263.728 25.495C263.728 23.9248 264.107 22.7069 264.865 21.8415C265.427 21.1992 266.101 20.878 266.886 20.878C267.671 20.878 268.345 21.1992 268.907 21.8415C269.665 22.7069 270.044 23.9248 270.044 25.495C270.044 27.0563 269.665 28.2697 268.907 29.1351ZM268.09 22.8185C267.769 22.3278 267.368 22.0824 266.886 22.0824C266.404 22.0824 266.003 22.3278 265.682 22.8185C265.271 23.4251 265.066 24.3129 265.066 25.4816C265.066 26.6414 265.271 27.5336 265.682 28.1581C266.003 28.6488 266.404 28.8942 266.886 28.8942C267.368 28.8942 267.769 28.6488 268.09 28.1581C268.501 27.5336 268.706 26.6414 268.706 25.4816C268.706 24.3129 268.501 23.4251 268.09 22.8185ZM274.452 21.0252C275.273 21.0252 275.924 21.1858 276.406 21.507C276.772 21.7389 277.048 22.0467 277.236 22.4304C277.423 22.814 277.517 23.2021 277.517 23.5947C277.517 24.3441 277.28 24.9552 276.807 25.4281C276.263 25.9723 275.483 26.2444 274.465 26.2444H273.85V27.2347H275.964V28.1715H273.85V29.9514H272.485V28.1715H271.508V27.2347H272.485V26.2444H271.508V25.0667H272.485V21.0252H274.452ZM273.85 22.2831V25.0667H274.465C275.09 25.0667 275.554 24.9151 275.857 24.6117C276.089 24.3798 276.205 24.063 276.205 23.6616C276.205 23.269 276.08 22.9478 275.83 22.698C275.545 22.4214 275.085 22.2831 274.452 22.2831H273.85Z" fill="black"/>
<path d="M306.403 29.9471V31.205H303.646L303.204 32.6905C303.383 32.6727 303.521 32.6637 303.619 32.6637C304.458 32.6637 305.145 32.9269 305.68 33.4533C306.26 34.0154 306.55 34.7782 306.55 35.7417C306.55 36.7142 306.247 37.5038 305.64 38.1105C305.024 38.7172 304.199 39.0205 303.164 39.0205C302.486 39.0205 301.915 38.8867 301.451 38.619C301.023 38.3603 300.67 38.0168 300.394 37.5886L301.424 36.7321C301.549 37.0354 301.777 37.2941 302.107 37.5083C302.41 37.7135 302.798 37.8161 303.271 37.8161C303.833 37.8161 304.288 37.651 304.636 37.3209C305.02 36.9373 305.212 36.4332 305.212 35.8087C305.212 35.1841 305.033 34.7024 304.676 34.3633C304.328 34.0332 303.842 33.8682 303.218 33.8682C302.861 33.8682 302.513 33.9306 302.174 34.0555C301.87 34.1715 301.607 34.3053 301.384 34.457L302.709 29.9471H306.403ZM313.447 38.0569C312.885 38.6993 312.211 39.0205 311.426 39.0205C310.641 39.0205 309.967 38.6993 309.405 38.0569C308.647 37.1915 308.268 35.9782 308.268 34.4169C308.268 32.8466 308.647 31.6288 309.405 30.7634C309.967 30.121 310.641 29.7998 311.426 29.7998C312.211 29.7998 312.885 30.121 313.447 30.7634C314.205 31.6288 314.584 32.8466 314.584 34.4169C314.584 35.9782 314.205 37.1915 313.447 38.0569ZM312.63 31.7403C312.309 31.2496 311.908 31.0043 311.426 31.0043C310.944 31.0043 310.543 31.2496 310.222 31.7403C309.811 32.347 309.606 33.2347 309.606 34.4035C309.606 35.5633 309.811 36.4555 310.222 37.08C310.543 37.5707 310.944 37.8161 311.426 37.8161C311.908 37.8161 312.309 37.5707 312.63 37.08C313.041 36.4555 313.246 35.5633 313.246 34.4035C313.246 33.2347 313.041 32.347 312.63 31.7403ZM324.176 38.0569C323.614 38.6993 322.941 39.0205 322.156 39.0205C321.371 39.0205 320.697 38.6993 320.135 38.0569C319.377 37.1915 318.997 35.9782 318.997 34.4169C318.997 32.8466 319.377 31.6288 320.135 30.7634C320.697 30.121 321.371 29.7998 322.156 29.7998C322.941 29.7998 323.614 30.121 324.176 30.7634C324.935 31.6288 325.314 32.8466 325.314 34.4169C325.314 35.9782 324.935 37.1915 324.176 38.0569ZM323.36 31.7403C323.039 31.2496 322.637 31.0043 322.156 31.0043C321.674 31.0043 321.272 31.2496 320.951 31.7403C320.541 32.347 320.336 33.2347 320.336 34.4035C320.336 35.5633 320.541 36.4555 320.951 37.08C321.272 37.5707 321.674 37.8161 322.156 37.8161C322.637 37.8161 323.039 37.5707 323.36 37.08C323.77 36.4555 323.976 35.5633 323.976 34.4035C323.976 33.2347 323.77 32.347 323.36 31.7403ZM331.783 38.0569C331.221 38.6993 330.547 39.0205 329.762 39.0205C328.977 39.0205 328.303 38.6993 327.741 38.0569C326.983 37.1915 326.603 35.9782 326.603 34.4169C326.603 32.8466 326.983 31.6288 327.741 30.7634C328.303 30.121 328.977 29.7998 329.762 29.7998C330.547 29.7998 331.221 30.121 331.783 30.7634C332.541 31.6288 332.92 32.8466 332.92 34.4169C332.92 35.9782 332.541 37.1915 331.783 38.0569ZM330.966 31.7403C330.645 31.2496 330.244 31.0043 329.762 31.0043C329.28 31.0043 328.879 31.2496 328.557 31.7403C328.147 32.347 327.942 33.2347 327.942 34.4035C327.942 35.5633 328.147 36.4555 328.557 37.08C328.879 37.5707 329.28 37.8161 329.762 37.8161C330.244 37.8161 330.645 37.5707 330.966 37.08C331.377 36.4555 331.582 35.5633 331.582 34.4035C331.582 33.2347 331.377 32.347 330.966 31.7403ZM339.389 38.0569C338.827 38.6993 338.153 39.0205 337.368 39.0205C336.583 39.0205 335.909 38.6993 335.347 38.0569C334.589 37.1915 334.21 35.9782 334.21 34.4169C334.21 32.8466 334.589 31.6288 335.347 30.7634C335.909 30.121 336.583 29.7998 337.368 29.7998C338.153 29.7998 338.827 30.121 339.389 30.7634C340.147 31.6288 340.526 32.8466 340.526 34.4169C340.526 35.9782 340.147 37.1915 339.389 38.0569ZM338.572 31.7403C338.251 31.2496 337.85 31.0043 337.368 31.0043C336.886 31.0043 336.485 31.2496 336.164 31.7403C335.753 32.347 335.548 33.2347 335.548 34.4035C335.548 35.5633 335.753 36.4555 336.164 37.08C336.485 37.5707 336.886 37.8161 337.368 37.8161C337.85 37.8161 338.251 37.5707 338.572 37.08C338.983 36.4555 339.188 35.5633 339.188 34.4035C339.188 33.2347 338.983 32.347 338.572 31.7403ZM344.934 29.9471C345.755 29.9471 346.406 30.1076 346.888 30.4288C347.254 30.6608 347.53 30.9686 347.718 31.3522C347.905 31.7359 347.999 32.124 347.999 32.5165C347.999 33.266 347.762 33.8771 347.289 34.35C346.745 34.8942 345.964 35.1663 344.947 35.1663H344.332V36.1566H346.446V37.0934H344.332V38.8733H342.967V37.0934H341.99V36.1566H342.967V35.1663H341.99V33.9886H342.967V29.9471H344.934ZM344.332 31.205V33.9886H344.947C345.572 33.9886 346.036 33.8369 346.339 33.5336C346.571 33.3016 346.687 32.9849 346.687 32.5834C346.687 32.1909 346.562 31.8697 346.312 31.6199C346.027 31.3433 345.567 31.205 344.934 31.205H344.332Z" fill="black"/>
<path d="M367.963 98.6448V99.9028H365.206L364.765 101.388C364.943 101.37 365.081 101.361 365.18 101.361C366.018 101.361 366.705 101.625 367.241 102.151C367.82 102.713 368.11 103.476 368.11 104.44C368.11 105.412 367.807 106.202 367.2 106.808C366.585 107.415 365.76 107.718 364.725 107.718C364.047 107.718 363.476 107.584 363.012 107.317C362.583 107.058 362.231 106.715 361.954 106.286L362.985 105.43C363.11 105.733 363.337 105.992 363.667 106.206C363.971 106.411 364.359 106.514 364.832 106.514C365.394 106.514 365.849 106.349 366.197 106.019C366.58 105.635 366.772 105.131 366.772 104.506C366.772 103.882 366.594 103.4 366.237 103.061C365.889 102.731 365.403 102.566 364.778 102.566C364.421 102.566 364.073 102.628 363.734 102.753C363.431 102.869 363.168 103.003 362.945 103.155L364.27 98.6448H367.963ZM375.007 106.755C374.445 107.397 373.772 107.718 372.987 107.718C372.201 107.718 371.528 107.397 370.966 106.755C370.207 105.889 369.828 104.676 369.828 103.115C369.828 101.544 370.207 100.327 370.966 99.4612C371.528 98.8188 372.201 98.4976 372.987 98.4976C373.772 98.4976 374.445 98.8188 375.007 99.4612C375.766 100.327 376.145 101.544 376.145 103.115C376.145 104.676 375.766 105.889 375.007 106.755ZM374.191 100.438C373.87 99.9474 373.468 99.702 372.987 99.702C372.505 99.702 372.103 99.9474 371.782 100.438C371.372 101.045 371.166 101.932 371.166 103.101C371.166 104.261 371.372 105.153 371.782 105.778C372.103 106.268 372.505 106.514 372.987 106.514C373.468 106.514 373.87 106.268 374.191 105.778C374.601 105.153 374.807 104.261 374.807 103.101C374.807 101.932 374.601 101.045 374.191 100.438ZM385.737 106.755C385.175 107.397 384.501 107.718 383.716 107.718C382.931 107.718 382.257 107.397 381.695 106.755C380.937 105.889 380.558 104.676 380.558 103.115C380.558 101.544 380.937 100.327 381.695 99.4612C382.257 98.8188 382.931 98.4976 383.716 98.4976C384.501 98.4976 385.175 98.8188 385.737 99.4612C386.495 100.327 386.874 101.544 386.874 103.115C386.874 104.676 386.495 105.889 385.737 106.755ZM384.921 100.438C384.599 99.9474 384.198 99.702 383.716 99.702C383.234 99.702 382.833 99.9474 382.512 100.438C382.101 101.045 381.896 101.932 381.896 103.101C381.896 104.261 382.101 105.153 382.512 105.778C382.833 106.268 383.234 106.514 383.716 106.514C384.198 106.514 384.599 106.268 384.921 105.778C385.331 105.153 385.536 104.261 385.536 103.101C385.536 101.932 385.331 101.045 384.921 100.438ZM393.343 106.755C392.781 107.397 392.107 107.718 391.322 107.718C390.537 107.718 389.864 107.397 389.302 106.755C388.543 105.889 388.164 104.676 388.164 103.115C388.164 101.544 388.543 100.327 389.302 99.4612C389.864 98.8188 390.537 98.4976 391.322 98.4976C392.107 98.4976 392.781 98.8188 393.343 99.4612C394.101 100.327 394.481 101.544 394.481 103.115C394.481 104.676 394.101 105.889 393.343 106.755ZM392.527 100.438C392.206 99.9474 391.804 99.702 391.322 99.702C390.841 99.702 390.439 99.9474 390.118 100.438C389.708 101.045 389.502 101.932 389.502 103.101C389.502 104.261 389.708 105.153 390.118 105.778C390.439 106.268 390.841 106.514 391.322 106.514C391.804 106.514 392.206 106.268 392.527 105.778C392.937 105.153 393.142 104.261 393.142 103.101C393.142 101.932 392.937 101.045 392.527 100.438ZM400.949 106.755C400.387 107.397 399.714 107.718 398.929 107.718C398.143 107.718 397.47 107.397 396.908 106.755C396.149 105.889 395.77 104.676 395.77 103.115C395.77 101.544 396.149 100.327 396.908 99.4612C397.47 98.8188 398.143 98.4976 398.929 98.4976C399.714 98.4976 400.387 98.8188 400.949 99.4612C401.708 100.327 402.087 101.544 402.087 103.115C402.087 104.676 401.708 105.889 400.949 106.755ZM400.133 100.438C399.812 99.9474 399.41 99.702 398.929 99.702C398.447 99.702 398.045 99.9474 397.724 100.438C397.314 101.045 397.108 101.932 397.108 103.101C397.108 104.261 397.314 105.153 397.724 105.778C398.045 106.268 398.447 106.514 398.929 106.514C399.41 106.514 399.812 106.268 400.133 105.778C400.543 105.153 400.749 104.261 400.749 103.101C400.749 101.932 400.543 101.045 400.133 100.438ZM406.495 98.6448C407.315 98.6448 407.967 98.8054 408.448 99.1266C408.814 99.3585 409.091 99.6664 409.278 100.05C409.465 100.434 409.559 100.822 409.559 101.214C409.559 101.964 409.323 102.575 408.85 103.048C408.306 103.592 407.525 103.864 406.508 103.864H405.892V104.854H408.007V105.791H405.892V107.571H404.527V105.791H403.55V104.854H404.527V103.864H403.55V102.686H404.527V98.6448H406.495ZM405.892 99.9028V102.686H406.508C407.132 102.686 407.596 102.535 407.9 102.231C408.132 101.999 408.248 101.683 408.248 101.281C408.248 100.889 408.123 100.567 407.873 100.318C407.587 100.041 407.128 99.9028 406.495 99.9028H405.892Z" fill="black"/>
</svg>
