<svg width="26" height="25" viewBox="0 0 26 25" fill="none" xmlns="http://www.w3.org/2000/svg">
<path d="M13.1317 0.261719C9.91238 0.261719 6.82206 1.54167 4.54748 3.81777C2.27055 6.09477 0.991109 9.18282 0.990479 12.4029C0.990479 15.6217 2.271 18.712 4.54748 20.9881C6.82206 23.2642 9.91238 24.5442 13.1317 24.5442C16.351 24.5442 19.4413 23.2642 21.7159 20.9881C23.9924 18.712 25.2729 15.6217 25.2729 12.4029C25.2729 9.18419 23.9924 6.09387 21.7159 3.81777C19.4413 1.54167 16.351 0.261719 13.1317 0.261719Z" fill="url(#paint0_linear_1851_448)"/>
<path d="M6.18247 12.2104C10.027 10.5358 12.59 9.43172 13.8715 8.89831C17.5346 7.37514 18.2949 7.1106 18.7914 7.10164C18.9006 7.09989 19.1437 7.12688 19.3024 7.25513C19.4342 7.3633 19.4713 7.50958 19.4899 7.61228C19.5063 7.71488 19.529 7.94873 19.5105 8.13127C19.3127 10.2163 18.4535 15.2759 18.0168 17.6113C17.8334 18.5994 17.4687 18.9307 17.1164 18.963C16.35 19.0335 15.769 18.457 15.0273 17.971C13.8673 17.2101 13.2122 16.7367 12.0852 15.9944C10.7831 15.1364 11.6278 14.6648 12.3695 13.8943C12.5632 13.6926 15.9379 10.6238 16.0018 10.3455C16.01 10.3106 16.0183 10.1808 15.94 10.1124C15.8638 10.0438 15.7504 10.0673 15.668 10.0859C15.5506 10.1122 13.6984 11.3377 10.1053 13.762C9.57988 14.1234 9.10395 14.2996 8.67541 14.2903C8.20567 14.2802 7.29914 14.0241 6.62543 13.8053C5.80131 13.5368 5.14408 13.3949 5.20177 12.9389C5.23061 12.7016 5.5582 12.4587 6.18247 12.2104Z" fill="white"/>
<defs>
<linearGradient id="paint0_linear_1851_448" x1="13.1317" y1="0.261719" x2="13.1317" y2="24.5442" gradientUnits="userSpaceOnUse">
<stop stop-color="#2AABEE"/>
<stop offset="1" stop-color="#229ED9"/>
</linearGradient>
</defs>
</svg>
