<svg width="29" height="22" viewBox="0 0 29 22" fill="none" xmlns="http://www.w3.org/2000/svg">
<path d="M15.0145 20.9781L9.11512 20.8689C7.20502 20.8308 5.29017 20.9068 3.41753 20.5126C0.568813 19.9237 0.366999 17.0361 0.155823 14.614C-0.135157 11.2088 -0.0225097 7.74183 0.526606 4.36506C0.836601 2.47034 2.05655 1.33975 3.94317 1.21672C10.3119 0.770224 16.7229 0.823138 23.0775 1.03144C23.7487 1.05054 24.4244 1.15491 25.0862 1.27371C28.3528 1.85315 28.4324 5.1254 28.6442 7.88002C28.8554 10.6631 28.7662 13.4604 28.3626 16.2245C28.0387 18.5131 27.4192 20.4323 24.8045 20.6176C21.5286 20.8598 18.3278 21.0549 15.0426 20.9928C15.0427 20.9781 15.0239 20.9781 15.0145 20.9781ZM11.5462 15.184C14.015 13.7496 16.4366 12.3391 18.8912 10.9144C16.4178 9.47999 14.0008 8.06952 11.5462 6.64476V15.184Z" fill="#FF0000"/>
</svg>
