<svg  class="main-svg-sprite main-svg-sprite--icons" xmlns="http://www.w3.org/2000/svg" xmlns:xlink="http://www.w3.org/1999/xlink"><symbol viewBox="0 0 12 12" id="close" xmlns="http://www.w3.org/2000/svg"><path d="M11.082 2.244a.939.939 0 00-.658-1.612.937.937 0 00-.667.286L6 4.674 2.244.918A.937.937 0 10.919 2.243L4.672 6 .916 9.756a.938.938 0 001.325 1.325L6 7.325l3.756 3.757a.938.938 0 001.325-1.324L7.327 6l3.755-3.756z"/></symbol><symbol viewBox="0 0 21 24" id="copy" xmlns="http://www.w3.org/2000/svg"><path d="M19.125 3.75H4.875A1.125 1.125 0 003.75 4.875v18A1.125 1.125 0 004.875 24h14.25a1.125 1.125 0 001.125-1.125v-18a1.125 1.125 0 00-1.125-1.125zM18.75 22.5H5.25V5.25h13.5V22.5z"/><path d="M16.5 1.125A1.125 1.125 0 0015.375 0H1.125A1.125 1.125 0 000 1.125v18a1.125 1.125 0 001.125 1.125H1.5V1.5h15v-.375z"/></symbol><symbol viewBox="0 0 19 23" id="play-icon" xmlns="http://www.w3.org/2000/svg"><path d="M19 11.5L.25 22.325V.675L19 11.5z"/></symbol><symbol viewBox="0 0 27 25" id="touch-icon" xmlns="http://www.w3.org/2000/svg"><path d="M22.141 14.406v4.219c0 2.945-.97 4.922-1.012 5.002a.704.704 0 11-1.258-.629c.008-.016.864-1.78.864-4.373v-4.219a1.64 1.64 0 00-3.282 0v.469a.703.703 0 01-1.406 0v-2.344a1.64 1.64 0 00-3.281 0v1.406a.703.703 0 01-1.406 0V5.97a1.64 1.64 0 00-3.281 0v12.656a.703.703 0 01-1.3.372l-2.19-3.516a1.64 1.64 0 10-2.854 1.62l3.434 5.86a.703.703 0 11-1.214.703l-3.436-5.86a3.05 3.05 0 015.273-3.061l.88 1.421V5.969a3.047 3.047 0 016.094 0v3.996a3.047 3.047 0 014.62 1.92 3.048 3.048 0 014.755 2.521zM26.125 3.86h-6.74l2.55-2.55a.703.703 0 00-.995-.993l-3.75 3.75a.703.703 0 000 .993l3.75 3.75a.703.703 0 00.995-.993l-2.55-2.55h6.74a.703.703 0 000-1.407z"/></symbol></svg>