<svg  class="main-svg-sprite main-svg-sprite--icons" xmlns="http://www.w3.org/2000/svg" xmlns:xlink="http://www.w3.org/1999/xlink"><symbol viewBox="0 0 60.502 6.661" id="arr-l" xmlns="http://www.w3.org/2000/svg"><path d="M1.7 3.83L3.68 5.8c.2.2.2.51 0 .71-.2.2-.51.2-.71 0L.14 3.68a.513.513 0 010-.71L2.97.14c.2-.19.51-.19.71 0 .2.2.2.51 0 .71L1.7 2.83h58.8v1H1.7z"/></symbol><symbol viewBox="0 0 60.502 6.661" id="arr-r" xmlns="http://www.w3.org/2000/svg"><path d="M58.79 2.83L56.81.85a.513.513 0 010-.71c.2-.19.51-.19.71 0l2.83 2.83c.2.2.2.51 0 .71l-2.83 2.83c-.2.2-.51.2-.71 0a.513.513 0 010-.71l1.98-1.97H0v-1h58.79z"/></symbol><symbol viewBox="0 0 12.493 8.92" id="check-mark" xmlns="http://www.w3.org/2000/svg"><path d="M12.21.27c.18.18.28.41.28.66 0 .25-.1.49-.28.67L5.19 8.62c-.1.1-.21.17-.33.22-.12.05-.25.08-.38.08s-.26-.03-.38-.08-.23-.12-.33-.22L.28 5.13a.904.904 0 01-.21-.3.922.922 0 01-.07-.36c-.01-.13.02-.25.06-.37.05-.11.12-.22.21-.31.09-.08.19-.15.31-.2a.889.889 0 01.72.01c.12.05.22.12.31.21l2.87 2.87L10.89.27c.08-.09.19-.16.3-.2.12-.05.24-.07.36-.07s.25.02.36.07c.11.04.22.11.3.2z"/></symbol><symbol viewBox="0 0 17.777 17.778" id="check-mark2" xmlns="http://www.w3.org/2000/svg"><path d="M8.88 0C7.13 0 5.41.52 3.95 1.49a8.873 8.873 0 00-3.78 9.13 8.886 8.886 0 002.43 4.55 8.886 8.886 0 004.55 2.43c1.72.35 3.51.17 5.14-.5a8.923 8.923 0 003.98-3.28c.98-1.46 1.5-3.18 1.5-4.94A8.879 8.879 0 008.88 0zm5.81 5.9l-7.3 7.3-4.31-4.32a.747.747 0 01-.23-.55c0-.21.08-.41.23-.56.15-.14.35-.23.55-.23.21 0 .41.09.56.23l3.21 3.21 6.19-6.18c.07-.07.16-.13.25-.17a.815.815 0 01.61 0 .782.782 0 01.42.43c.04.09.06.19.06.3 0 .1-.02.2-.06.3-.04.09-.1.18-.17.25l-.01-.01z"/></symbol><symbol viewBox="0 0 12 12" id="close" xmlns="http://www.w3.org/2000/svg"><path d="M11.082 2.244a.939.939 0 00-.658-1.612.937.937 0 00-.667.286L6 4.674 2.244.918A.937.937 0 10.919 2.243L4.672 6 .916 9.756a.938.938 0 001.325 1.325L6 7.325l3.756 3.757a.938.938 0 001.325-1.324L7.327 6l3.755-3.756z"/></symbol><symbol viewBox="0 0 21 24" id="copy" xmlns="http://www.w3.org/2000/svg"><path d="M19.125 3.75H4.875A1.125 1.125 0 003.75 4.875v18A1.125 1.125 0 004.875 24h14.25a1.125 1.125 0 001.125-1.125v-18a1.125 1.125 0 00-1.125-1.125zM18.75 22.5H5.25V5.25h13.5V22.5z"/><path d="M16.5 1.125A1.125 1.125 0 0015.375 0H1.125A1.125 1.125 0 000 1.125v18a1.125 1.125 0 001.125 1.125H1.5V1.5h15v-.375z"/></symbol><symbol viewBox="0 0 19 19" id="loupe" xmlns="http://www.w3.org/2000/svg"><path d="M2.99 7.5c0-.6.12-1.18.35-1.73.22-.54.55-1.04.97-1.46a4.6 4.6 0 011.46-.97C6.32 3.11 6.9 3 7.49 3c.6 0 1.18.11 1.73.34a4.6 4.6 0 011.46.97c.41.42.75.92.97 1.46.23.55.34 1.13.34 1.73 0 1.19-.47 2.33-1.31 3.18-.85.84-1.99 1.32-3.19 1.32a4.53 4.53 0 01-3.18-1.32A4.53 4.53 0 012.99 7.5zM7.49 0C6.32 0 5.17.27 4.13.79a7.432 7.432 0 00-2.65 2.23C.78 3.96.31 5.05.11 6.2c-.2 1.15-.13 2.33.2 3.45.34 1.12.93 2.15 1.74 3a7.455 7.455 0 006.33 2.29c1.16-.14 2.27-.54 3.25-1.19l4.8 4.81c.28.28.67.44 1.06.44.4 0 .78-.16 1.07-.44a1.53 1.53 0 000-2.13l-4.81-4.8a7.455 7.455 0 001.24-3.79c.06-1.36-.25-2.7-.89-3.9a7.416 7.416 0 00-2.76-2.88A7.438 7.438 0 007.49 0z"/></symbol><symbol viewBox="0 0 18 19.999" id="marker" xmlns="http://www.w3.org/2000/svg"><path d="M9 1.99c-.4 0-.79.08-1.15.23-.37.15-.7.37-.98.65A2.966 2.966 0 006 4.99c0 .4.07.79.22 1.15.15.37.38.7.65.98.28.27.61.49.98.65.36.15.75.22 1.15.22.79 0 1.55-.31 2.12-.87.56-.57.88-1.33.88-2.13 0-.79-.32-1.55-.88-2.12-.57-.56-1.33-.88-2.12-.88zm-5 3c0-.94.26-1.87.77-2.67A5.019 5.019 0 019.6.03c.94.12 1.82.49 2.56 1.09.73.6 1.28 1.39 1.58 2.29a5.016 5.016 0 01-1.28 5.19c-.68.66-1.54 1.1-2.46 1.29v5.1a1 1 0 01-.3.71c-.19.19-.44.29-.7.29a.99.99 0 01-1-1v-5.1a5.02 5.02 0 01-2.88-1.73C4.39 7.26 4 6.15 4 4.99zm2.48 9.1c.02.13.02.27-.01.39a.993.993 0 01-.46.62c-.11.07-.23.11-.36.13-1.28.2-2.3.49-2.96.82-1.22.6.2 1.03.95 1.26 1.32.41 3.22.68 5.36.68 2.13 0 4.03-.27 5.35-.68.75-.24 2.17-.66.95-1.26-.66-.33-1.68-.62-2.96-.82a.866.866 0 01-.37-.13.894.894 0 01-.29-.26.95.95 0 01-.17-.35 1.08 1.08 0 01-.02-.4c.02-.13.07-.25.14-.37.07-.11.16-.21.26-.29.11-.07.23-.13.36-.16.13-.03.26-.03.4-.01 1.38.21 2.62.54 3.53.99.89.44 1.82 1.16 1.82 2.24 0 .82-.53 1.4-1.04 1.78-2.15 1.59-5.43 1.72-7.96 1.72-2.29 0-4.39-.28-5.96-.77C1.79 18.83 0 18.06 0 16.49c0-1.08.92-1.8 1.81-2.24.91-.45 2.15-.78 3.53-.99.13-.02.27-.02.39.01.13.04.25.09.36.17.1.08.19.18.26.29.07.11.11.23.13.36z"/></symbol><symbol viewBox="0 0 18 12" id="menu" xmlns="http://www.w3.org/2000/svg"><g data-name="Layer 2"><path d="M0 12h18v-2H0zm0-5h18V5H0zm0-7v2h18V0z" data-name="Layer 1"/></g></symbol><symbol viewBox="0 0 19 23" id="play-icon" xmlns="http://www.w3.org/2000/svg"><path d="M19 11.5L.25 22.325V.675L19 11.5z"/></symbol><symbol viewBox="0 0 21.42 21.42" id="search" xmlns="http://www.w3.org/2000/svg"><g data-name="Layer 2"><path d="M13.43 15.43a8.49 8.49 0 112-2L21 19a1.39 1.39 0 010 2 1.39 1.39 0 01-2 0l-5.58-5.58zM8.5 15A6.5 6.5 0 102 8.5 6.5 6.5 0 008.5 15z" data-name="Layer 1"/></g></symbol><symbol viewBox="0 0 16.5 18.334" id="time" xmlns="http://www.w3.org/2000/svg"><path d="M8.24 0c.86 0 1.7.09 2.5.28.12.03.24.07.33.14.1.07.19.16.25.27.07.1.11.21.13.33.02.12.02.24-.01.36-.02.12-.07.23-.15.33-.07.1-.16.18-.26.25a.985.985 0 01-.7.11 9.09 9.09 0 00-1.37-.22h-.07c1.42.11 2.79.59 3.98 1.39l.55-.55c.09-.09.19-.15.3-.2.11-.05.23-.07.35-.07.12 0 .24.02.35.07a.927.927 0 01.57.85c0 .12-.03.24-.07.35-.05.11-.12.21-.2.29l-.45.46a8.281 8.281 0 012.2 5c.15 1.86-.35 3.73-1.4 5.28a8.234 8.234 0 01-4.4 3.24c-1.79.55-3.71.48-5.45-.21a8.309 8.309 0 01-4.14-3.57A8.267 8.267 0 01.09 8.8c.29-1.85 1.2-3.54 2.59-4.81A8.233 8.233 0 017.7 1.85h-.12c-.48.04-.95.11-1.42.22-.24.05-.48 0-.68-.13a.925.925 0 01-.41-.56.93.93 0 01.68-1.1C6.55.09 7.39 0 8.24 0zm0 3.66c-.84 0-1.67.17-2.45.49-.78.32-1.49.8-2.08 1.39-.6.6-1.07 1.3-1.39 2.08-.33.78-.49 1.62-.49 2.46 0 .84.16 1.68.49 2.45.32.78.79 1.49 1.39 2.09.59.59 1.3 1.06 2.08 1.39.78.32 1.61.49 2.45.49a6.418 6.418 0 006.42-6.42c0-1.7-.67-3.34-1.88-4.54a6.418 6.418 0 00-4.54-1.88zm0 1.84c.23 0 .45.08.61.23.17.15.28.35.3.57l.01.11v3.67c0 .23-.09.46-.25.63-.16.17-.38.27-.61.28a.887.887 0 01-.64-.21.928.928 0 01-.33-.59V6.41a.908.908 0 01.91-.91z"/></symbol><symbol viewBox="0 0 27 25" id="touch-icon" xmlns="http://www.w3.org/2000/svg"><path d="M22.141 14.406v4.219c0 2.945-.97 4.922-1.012 5.002a.704.704 0 11-1.258-.629c.008-.016.864-1.78.864-4.373v-4.219a1.64 1.64 0 00-3.282 0v.469a.703.703 0 01-1.406 0v-2.344a1.64 1.64 0 00-3.281 0v1.406a.703.703 0 01-1.406 0V5.97a1.64 1.64 0 00-3.281 0v12.656a.703.703 0 01-1.3.372l-2.19-3.516a1.64 1.64 0 10-2.854 1.62l3.434 5.86a.703.703 0 11-1.214.703l-3.436-5.86a3.05 3.05 0 015.273-3.061l.88 1.421V5.969a3.047 3.047 0 016.094 0v3.996a3.047 3.047 0 014.62 1.92 3.048 3.048 0 014.755 2.521zM26.125 3.86h-6.74l2.55-2.55a.703.703 0 00-.995-.993l-3.75 3.75a.703.703 0 000 .993l3.75 3.75a.703.703 0 00.995-.993l-2.55-2.55h6.74a.703.703 0 000-1.407z"/></symbol><symbol viewBox="0 0 5.216 4.435" id="traingle" xmlns="http://www.w3.org/2000/svg"><path d="M3.44 3.98l1.6-2.43A.995.995 0 004.21 0H1a1 1 0 00-.84 1.55l1.61 2.43a1 1 0 001.67 0z"/></symbol><symbol viewBox="0 0 18 16" id="wallet" xmlns="http://www.w3.org/2000/svg"><path d="M13 0c.25 0 .5.09.68.27.19.17.3.41.31.67.02.25-.07.5-.23.7a1 1 0 01-.65.35L13 2H2.5a.43.43 0 00-.34.13c-.1.08-.15.2-.16.32-.02.12.02.25.1.35.07.1.18.16.3.19l.1.01H16a1.99 1.99 0 011.99 1.84L18 5v9c0 .5-.2.99-.54 1.36-.34.37-.81.59-1.31.63L16 16H2c-.51 0-1-.2-1.37-.54A1.99 1.99 0 010 14.15V2.5C-.01 1.86.24 1.25.67.79 1.1.32 1.7.04 2.33 0H13zM2 4.94V14h14V5H2.5c-.12 0-.23-.01-.34-.03L2 4.94zM12.5 8c.39 0 .77.15 1.06.43.28.29.44.67.44 1.07 0 .39-.16.77-.44 1.06-.29.28-.67.44-1.06.44-.4 0-.78-.16-1.07-.44a1.53 1.53 0 010-2.13c.29-.28.67-.43 1.07-.43z"/></symbol></svg>