<svg width="66" height="38" viewBox="0 0 66 38" fill="none" xmlns="http://www.w3.org/2000/svg">
<path d="M8.91271 20.1807C13.6897 18.4856 16.0003 17.2659 16.8286 14.5064C17.1145 15.8418 17.1088 16.4679 16.5484 17.0984C13.5367 20.1106 8.14224 20.5309 8.91271 20.1807Z" fill="#85868A"/>
<path d="M42.9595 5.75005C43.0378 7.15734 42.8268 7.91529 42.329 9.25264C42.5299 9.80549 43.7144 6.94091 43.5199 5.04953C43.4695 4.55914 43.0257 4.20073 42.329 3.64849C41.837 3.42478 41.4999 3.94258 41.9087 4.27895C42.6656 4.91015 42.9242 5.24722 42.9595 5.75005Z" fill="#85868A"/>
<path d="M37.2837 6.8007C37.5556 8.05438 38.1019 8.80032 38.1943 9.46268C38.2868 10.125 36.5306 7.64138 36.3029 6.73065C36.0753 5.81992 36.0174 3.88411 36.443 4.62909C36.561 5.13035 36.6501 5.34546 36.9334 5.32961C36.9334 5.32961 38.9651 5.24961 39.4555 5.25965C39.9459 5.26968 41.8375 5.33969 41.2068 5.39975C40.5761 5.45982 38.6146 5.60982 38.6146 5.60982C37.354 5.67993 37.0967 5.98184 37.2837 6.8007Z" fill="#85868A"/>
<path d="M36.7233 3.96768C44.1492 2.87785 49.263 2.17733 54.6567 10.5837L55.2872 10.8639C52.5657 6.37821 50.944 3.98529 45.8301 2.52773C40.4056 1.1224 35.6729 4.90936 30.5588 0.56627C28.3854 -1.47458 28.0373 2.6677 26.7059 2.52773C24.8849 2.24739 24.6047 2.59765 23.5536 4.76939C23.0646 5.54863 23.1336 4.90936 22.4331 3.85858C21.2422 2.38749 20.9625 5.32968 19.0702 5.1897C14.7419 4.58159 15.7782 9.95311 15.8486 11.0739C16.1284 11.7745 15.0777 5.67994 19.4914 6.38046C20.962 6.61387 21.1026 4.419 22.2926 4.76939C23.3442 5.39973 23.0723 6.7564 23.5536 6.24048C24.9 4.00999 25.3524 3.64443 25.9353 3.64856C28.1774 3.92863 27.687 3.1275 28.6674 1.96731C29.2002 1.33671 29.4675 1.12491 30.4891 1.61692C31.5107 2.10892 33.4313 4.20884 36.7233 3.96768Z" fill="#85868A"/>
<path fill-rule="evenodd" clip-rule="evenodd" d="M57.5994 30.3381C69.1577 20.2508 48.2122 3.64847 37.7046 18.9196C48.5624 21.6518 49.333 35.312 40.2965 37.0631C33.7114 38.3392 32.7016 28.8672 36.7237 31.9495C40.5765 35.5221 44.4707 30.0581 42.7483 25.9248C39.946 19.2 31.4698 19.6203 27.2669 24.1735C35.533 27.1159 34.0617 35.5922 29.5786 37.0631C23.9742 38.6044 22.9234 30.8985 26.5661 33.6307C27.687 34.4714 31.3997 35.312 30.4892 29.4274C29.8586 27.4661 28.2474 26.2052 25.7255 25.5746C24.2787 26.6597 23.1675 28.5327 22.0247 30.459C19.6259 34.5021 17.0878 38.7802 11.0148 36.5027C9.54349 37.2734 2.25808 38.044 0.0866873 31.3188C-0.177348 28.6532 0.114014 27.3732 1.62783 25.5746C3.02887 24.524 3.75527 24.0641 5.901 24.1735C7.80357 24.7309 7.94321 24.9204 8.70286 26.4854C9.26328 28.5169 7.58203 28.7971 6.25104 27.1159C0.857042 25.7148 0.646886 36.5027 9.26328 35.5221C5.97306 30.4775 10.0336 27.3963 12.4857 28.3768C14.6479 29.4908 14.1669 31.1088 13.1862 30.8985C10.5943 28.7971 9.68359 31.5992 9.68359 31.5992C9.45164 33.263 9.89375 34.6116 11.0148 35.1719C13.0843 34.6859 14.5583 32.6673 16.1487 30.4892C18.3035 27.5382 20.6721 24.2945 25.025 24.1735C25.9357 23.1229 29.9987 18.5695 34.6924 18.9196C41.0632 6.90125 56.2584 7.25085 63.2035 17.1683C70.909 29.5677 60.121 40.0755 51.2246 36.0824C47.8619 34.573 46.4609 29.7779 48.8429 28.5168C49.5903 28.3106 50.3757 28.8822 51.2899 29.5475C52.86 30.6902 54.8099 32.1092 57.5994 30.3381ZM16.9824 31.1397C15.5951 32.9237 14.1825 34.7402 12.2756 35.8724C16.0584 36.8531 17.8798 35.1719 20.1214 31.5992C21.3824 29.2175 22.223 27.8164 23.624 25.855C20.6852 26.3783 18.8569 28.7293 16.9824 31.1397Z" fill="#25BEDE"/>
</svg>
