<svg width="184" height="18" viewBox="0 0 184 18" fill="none" xmlns="http://www.w3.org/2000/svg">
<path d="M87.3976 17.9225C87.0125 17.9225 86.7285 17.5278 86.5456 17.1235L81.5109 5.88433L80.606 16.8106C80.5963 17.0454 80.4942 17.2668 80.322 17.4267C80.2401 17.5073 80.1431 17.5709 80.0365 17.6139C79.93 17.6568 79.816 17.6783 79.7011 17.677C79.4458 17.677 79.2009 17.5756 79.0204 17.395C78.8398 17.2145 78.7384 16.9696 78.7384 16.7143C78.7384 16.6229 78.7384 16.5699 78.7384 16.5555L79.7877 1.78819C79.82 1.466 79.9417 1.15925 80.1391 0.902537L80.4134 0.719628C80.533 0.665826 80.6626 0.637947 80.7937 0.63781C81.1595 0.63781 81.4483 1.09507 81.6457 1.49938L87.4216 14.1825L93.5586 1.49938C93.7464 1.09507 94.04 0.705189 94.4154 0.705189C94.5447 0.703305 94.6728 0.729586 94.7909 0.782204L94.8919 0.835158C95.0492 0.943183 95.179 1.08651 95.2709 1.25367C95.3628 1.42082 95.4144 1.60718 95.4214 1.79782L96.1819 16.5892C96.202 16.7285 96.1913 16.8705 96.1505 17.0052C96.1098 17.1399 96.04 17.2641 95.946 17.3689C95.8655 17.4645 95.7663 17.5427 95.6545 17.5987C95.5428 17.6546 95.4208 17.6872 95.296 17.6944C95.1712 17.7016 95.0462 17.6833 94.9288 17.6406C94.8113 17.5979 94.7038 17.5316 94.6127 17.4459C94.4365 17.2852 94.3238 17.0666 94.2951 16.8298L93.5923 5.8362L88.3265 17.0657L88.2736 17.1427C88.0955 17.5278 87.8019 17.9225 87.3976 17.9225Z" fill="#26BEDD"/>
<path d="M181.386 15.3139H172.544L171.736 17.0419C171.669 17.2079 171.551 17.3481 171.399 17.4414C171.255 17.5335 171.088 17.5835 170.917 17.5858C170.795 17.5914 170.673 17.5711 170.56 17.5263C170.446 17.4815 170.343 17.4132 170.258 17.3258C170.177 17.2479 170.113 17.1545 170.069 17.0511C170.025 16.9477 170.002 16.8365 170.003 16.7242C170.007 16.6122 170.03 16.5017 170.07 16.3969L176.145 1.38411C176.238 1.19834 176.393 1.05046 176.583 0.965357L176.635 0.941296C176.697 0.911396 176.764 0.894983 176.833 0.89316H177.073C177.248 0.88842 177.419 0.946477 177.555 1.05681C177.678 1.14931 177.781 1.26551 177.858 1.39855L183.932 16.4113C183.972 16.5161 183.995 16.6266 184 16.7386C184 16.8497 183.977 16.9596 183.934 17.062C183.891 17.1645 183.829 17.2574 183.75 17.3355C183.664 17.4241 183.56 17.4935 183.446 17.5391C183.331 17.5848 183.208 17.6056 183.085 17.6002C182.915 17.5972 182.748 17.5473 182.604 17.4558C182.452 17.3583 182.33 17.2198 182.253 17.0563L181.386 15.3139ZM173.257 13.5522H180.669L176.977 4.13252L173.257 13.5522Z" fill="#26BEDD"/>
<path d="M45.0304 15.3234H36.1883L35.3797 17.0899C35.3149 17.2581 35.1965 17.4003 35.0427 17.4942C34.9002 17.5898 34.7329 17.6417 34.5614 17.6435C34.4437 17.6467 34.3265 17.6265 34.2166 17.5841C34.1067 17.5416 34.0063 17.4778 33.9212 17.3964C33.8362 17.3149 33.7681 17.2173 33.721 17.1094C33.6739 17.0014 33.6487 16.8852 33.6469 16.7674C33.652 16.6539 33.6747 16.5419 33.7142 16.4353L39.7742 1.20595C39.8662 1.01789 40.0212 0.868007 40.2122 0.782372L40.2652 0.758311C40.3271 0.728462 40.394 0.710495 40.4625 0.705357C40.5427 0.700926 40.623 0.700926 40.7032 0.705357C40.8782 0.699748 41.0492 0.757905 41.1845 0.869008C41.3088 0.961996 41.4121 1.08007 41.4878 1.21557L47.5622 16.4498C47.6017 16.5563 47.6244 16.6683 47.6296 16.7819C47.6289 17.009 47.539 17.2268 47.3793 17.3884C47.2938 17.4776 47.1905 17.5477 47.076 17.5942C46.9615 17.6406 46.8385 17.6623 46.715 17.6579C46.5436 17.6555 46.3764 17.6037 46.2337 17.5087C46.0794 17.4113 45.9572 17.2707 45.8823 17.1044L45.0304 15.3234ZM36.9151 13.5377H44.3132L40.6214 3.97361L36.9151 13.5377Z" fill="#26BEDD"/>
<path d="M12.0829 15.3812H3.24082L2.437 17.1477C2.36732 17.3125 2.25083 17.4532 2.10196 17.5525C1.9531 17.6517 1.77839 17.7051 1.59948 17.706C1.4814 17.7099 1.36374 17.69 1.25352 17.6475C1.14329 17.6049 1.04276 17.5407 0.957879 17.4585C0.873002 17.3763 0.805527 17.2779 0.759466 17.1691C0.713404 17.0603 0.689695 16.9434 0.689758 16.8252C0.692437 16.7103 0.713567 16.5965 0.752334 16.4883L6.82675 1.12895C6.91737 0.939891 7.07278 0.789601 7.26477 0.705371L7.31771 0.676492C7.3796 0.646643 7.44654 0.62869 7.51506 0.623553H7.75573C7.93161 0.617459 8.10337 0.677579 8.23706 0.792022C8.36255 0.883663 8.46612 1.00202 8.54029 1.13857L14.6195 16.4979C14.6583 16.6061 14.6794 16.7199 14.6821 16.8348C14.6802 16.9524 14.6552 17.0685 14.6085 17.1764C14.5617 17.2843 14.4942 17.3819 14.4097 17.4637C14.3252 17.5455 14.2255 17.6098 14.1161 17.6531C14.0068 17.6963 13.89 17.7176 13.7724 17.7157C13.601 17.713 13.4339 17.6613 13.2911 17.5665C13.1378 17.4671 13.0173 17.3248 12.9445 17.1573L12.0829 15.3812ZM3.97245 13.581H11.3705L7.6739 3.95437L3.97245 13.581Z" fill="#26BEDD"/>
<path d="M52.0005 2.84727H47.7936C47.6868 2.84827 47.5809 2.82743 47.4824 2.78605C47.3839 2.74467 47.2949 2.68361 47.2209 2.60661C47.143 2.53018 47.0815 2.43871 47.0401 2.33775C46.9987 2.2368 46.9783 2.12847 46.9802 2.01938C46.9792 1.91255 47 1.80664 47.0414 1.70815C47.0828 1.60966 47.1439 1.52065 47.2209 1.44659C47.2942 1.36866 47.3831 1.30698 47.4817 1.26552C47.5804 1.22407 47.6866 1.20377 47.7936 1.20593H57.9016C58.0097 1.2043 58.1169 1.2253 58.2164 1.26758C58.3159 1.30985 58.4054 1.37248 58.4792 1.45141C58.5541 1.52855 58.6131 1.61969 58.6527 1.71962C58.6923 1.81955 58.7119 1.92632 58.7103 2.03382C58.7136 2.14226 58.6949 2.25025 58.6552 2.35121C58.6155 2.45217 58.5556 2.54398 58.4792 2.62105C58.3241 2.76979 58.1165 2.85112 57.9016 2.84727H53.5696V16.7145C53.5722 16.93 53.4891 17.1378 53.3386 17.2921C53.2612 17.3697 53.1688 17.4306 53.0669 17.4712C52.9651 17.5117 52.8561 17.531 52.7466 17.5279C52.6418 17.5324 52.5374 17.5136 52.4408 17.4728C52.3443 17.432 52.258 17.3703 52.1882 17.2921C52.046 17.1336 51.9686 16.9274 51.9716 16.7145L52.0005 2.84727Z" fill="#26BEDD"/>
<path d="M67.8075 17.5953C67.0607 17.5991 66.3171 17.4987 65.5981 17.2969C64.9036 17.1028 64.237 16.8196 63.6151 16.4546C63.0049 16.093 62.445 15.6528 61.9497 15.1453C60.9182 14.0857 60.1808 12.7755 59.8102 11.3439C59.4397 9.91236 59.4487 8.40892 59.8366 6.98193C60.0262 6.28425 60.3061 5.61433 60.6693 4.98921C61.3796 3.75619 62.3937 2.72553 63.6151 1.99533C64.235 1.62631 64.9021 1.34295 65.5981 1.153C66.3178 0.955177 67.0611 0.856389 67.8075 0.859378C68.9179 0.850789 70.0178 1.07374 71.0372 1.514C72.0244 1.9339 72.9203 2.54206 73.6749 3.30454C74.4317 4.06742 75.0361 4.96753 75.4558 5.95669C75.8962 6.98283 76.1191 8.08909 76.1105 9.20568C76.1122 9.95703 76.0118 10.7051 75.812 11.4294C75.6157 12.1286 75.3345 12.8011 74.9745 13.4318C74.2574 14.6734 73.2309 15.7082 71.9951 16.4353C71.374 16.7987 70.7092 17.0817 70.0168 17.2776C69.2988 17.4863 68.5551 17.5932 67.8075 17.5953V17.5953ZM67.8075 15.9251C68.6925 15.9309 69.5691 15.7539 70.3826 15.4053C71.1692 15.0647 71.882 14.5742 72.4812 13.9613C73.0855 13.3507 73.5675 12.6302 73.9011 11.8386C74.2542 11.0128 74.4329 10.123 74.4258 9.22494C74.4333 8.33462 74.2546 7.45256 73.9011 6.63537C73.5664 5.8472 73.0845 5.13006 72.4812 4.52233C71.881 3.91057 71.1684 3.42029 70.3826 3.07833C69.5674 2.73213 68.6908 2.55371 67.8051 2.55371C66.9194 2.55371 66.0428 2.73213 65.2275 3.07833C64.4397 3.41671 63.7265 3.90744 63.1289 4.52233C62.5291 5.13089 62.0505 5.84798 61.7186 6.63537C61.369 7.45358 61.192 8.33517 61.1988 9.22494C61.1925 10.1224 61.3694 11.0118 61.7186 11.8386C62.0488 12.6297 62.5275 13.3503 63.1289 13.9613C63.7392 14.582 64.4676 15.0742 65.2711 15.409C66.0746 15.7438 66.937 15.9144 67.8075 15.9106V15.9251Z" fill="#26BEDD"/>
<path d="M113.283 17.0177C113.285 17.1302 113.265 17.2421 113.223 17.3464C113.18 17.4507 113.117 17.5453 113.037 17.6242C112.958 17.7037 112.863 17.7665 112.759 17.8086C112.655 17.8508 112.543 17.8716 112.431 17.8697C112.32 17.8713 112.211 17.8503 112.109 17.8081C112.007 17.7659 111.915 17.7033 111.839 17.6242C111.758 17.5455 111.694 17.4511 111.651 17.3468C111.608 17.2425 111.586 17.1305 111.588 17.0177V4.27204L101.235 17.4702C101.166 17.5745 101.078 17.6644 100.975 17.7349C100.857 17.8164 100.718 17.8631 100.575 17.8697H100.508C100.391 17.8769 100.275 17.8572 100.167 17.8122C100.059 17.7671 99.9636 17.6978 99.887 17.6098C99.7458 17.445 99.6689 17.2347 99.6704 17.0177V1.80762C99.6664 1.58378 99.7512 1.36747 99.9063 1.20596C99.9826 1.12331 100.076 1.05814 100.18 1.01494C100.284 0.971736 100.396 0.951524 100.508 0.955669C100.621 0.952695 100.733 0.97343 100.838 1.01654C100.942 1.05965 101.036 1.12418 101.114 1.20596C101.195 1.28393 101.259 1.37751 101.302 1.48097C101.345 1.58442 101.366 1.69558 101.365 1.80762V14.5533L111.757 1.28779C111.837 1.18566 111.939 1.10283 112.056 1.04536C112.173 0.987893 112.301 0.957247 112.431 0.955669C112.548 0.95208 112.664 0.97438 112.771 1.02098C112.879 1.06757 112.974 1.13732 113.051 1.22521C113.199 1.38938 113.281 1.60161 113.283 1.82206V17.0177Z" fill="#26BEDD"/>
<path d="M145.297 17.6581C144.229 17.6717 143.169 17.4611 142.186 17.04C141.204 16.6188 140.321 15.9964 139.594 15.2129C138.825 14.4361 138.221 13.5133 137.815 12.499C137.409 11.4846 137.21 10.3993 137.23 9.30693C137.228 7.85556 137.596 6.42758 138.299 5.15784C138.977 3.89335 139.972 2.82683 141.187 2.06288C142.437 1.26768 143.893 0.856045 145.375 0.878802C146.451 0.871822 147.517 1.09052 148.503 1.5208C149.49 1.95108 150.375 2.58338 151.102 3.37692C151.236 3.48592 151.331 3.6351 151.374 3.8024C151.416 3.96971 151.404 4.14624 151.338 4.30589C151.297 4.46711 151.214 4.61482 151.099 4.73462C150.983 4.85441 150.838 4.94218 150.679 4.98937C150.522 5.03643 150.354 5.03839 150.196 4.99498C150.038 4.95158 149.895 4.86458 149.784 4.7439C149.217 4.14616 148.535 3.66926 147.779 3.34189C147.023 3.01451 146.209 2.84343 145.385 2.83893C144.561 2.83443 143.745 2.99662 142.985 3.31572C142.226 3.63483 141.539 4.10425 140.965 4.69577C139.775 5.92346 139.121 7.5732 139.146 9.28287C139.127 10.1106 139.273 10.9339 139.576 11.7043C139.88 12.4747 140.334 13.1767 140.913 13.7689C141.463 14.394 142.142 14.8927 142.903 15.2308C143.664 15.5689 144.489 15.7385 145.322 15.7279C146.151 15.7417 146.974 15.5814 147.738 15.2572C148.501 14.933 149.188 14.4522 149.755 13.8459C149.839 13.7598 149.94 13.6922 150.052 13.6474C150.164 13.6027 150.284 13.5817 150.404 13.586C150.651 13.5852 150.888 13.6821 151.064 13.8555C151.156 13.9385 151.23 14.0403 151.28 14.154C151.329 14.2677 151.354 14.3908 151.353 14.5149C151.356 14.6437 151.333 14.7719 151.286 14.8917C151.239 15.0116 151.168 15.1208 151.078 15.2129C150.34 16.0035 149.444 16.6298 148.448 17.0511C147.452 17.4724 146.379 17.6792 145.297 17.6581Z" fill="#26BEDD"/>
<path d="M28.9102 10.5438V1.23005C28.9075 1.1319 28.9439 1.0367 29.0113 0.965327C29.0439 0.929232 29.0841 0.900965 29.1291 0.882628C29.1742 0.864291 29.2227 0.856358 29.2712 0.859434H30.3879C30.4904 0.856503 30.5902 0.892631 30.6671 0.960509C30.7035 0.995095 30.7322 1.03699 30.7513 1.08344C30.7703 1.1299 30.7794 1.17986 30.7778 1.23005V17.1959C30.7778 17.4413 30.6478 17.5665 30.3879 17.5665H29.2712C29.2214 17.5731 29.1707 17.568 29.1232 17.5516C29.0757 17.5352 29.0327 17.5078 28.9976 17.4718C28.9626 17.4358 28.9364 17.3921 28.9212 17.3442C28.9061 17.2963 28.9023 17.2455 28.9102 17.1959V12.4932H19.3461V17.1959C19.3461 17.4413 19.2162 17.5665 18.9563 17.5665H17.8396C17.7897 17.5731 17.7391 17.568 17.6916 17.5516C17.6441 17.5352 17.6011 17.5078 17.566 17.4718C17.5309 17.4358 17.5048 17.3921 17.4896 17.3442C17.4744 17.2963 17.4706 17.2455 17.4786 17.1959V1.23005C17.4765 1.1329 17.5109 1.03849 17.5748 0.965327C17.6087 0.929657 17.65 0.901726 17.6956 0.88345C17.7413 0.865174 17.7904 0.856983 17.8396 0.859434H18.9755C19.0738 0.859434 19.1681 0.89848 19.2376 0.967986C19.3071 1.03749 19.3461 1.13176 19.3461 1.23005V10.5438H28.9102Z" fill="#26BEDD"/>
<path d="M165.772 10.6401V1.32145C165.77 1.27223 165.778 1.22314 165.796 1.17725C165.814 1.13136 165.841 1.08967 165.876 1.05484C165.911 1.02001 165.952 0.992794 165.998 0.974889C166.044 0.956985 166.093 0.948789 166.142 0.950829H167.293C167.397 0.948102 167.498 0.984127 167.577 1.0519C167.615 1.0852 167.646 1.12663 167.667 1.17322C167.688 1.21982 167.698 1.27043 167.697 1.32145V17.2873C167.697 17.5376 167.562 17.6579 167.293 17.6579H166.142C166.092 17.6651 166.041 17.6605 165.992 17.6445C165.944 17.6284 165.9 17.6013 165.864 17.5654C165.828 17.5294 165.801 17.4855 165.785 17.4373C165.769 17.389 165.765 17.3376 165.772 17.2873V12.5846H155.929V17.2873C155.929 17.5376 155.799 17.6579 155.529 17.6579H154.379C154.328 17.6651 154.277 17.6605 154.229 17.6445C154.18 17.6284 154.136 17.6013 154.101 17.5654C154.065 17.5294 154.037 17.4855 154.021 17.4373C154.005 17.389 154.001 17.3376 154.008 17.2873V1.32145C154.005 1.2233 154.042 1.12809 154.109 1.05672C154.144 1.02142 154.186 0.99379 154.233 0.975565C154.279 0.95734 154.329 0.948915 154.379 0.950829H155.548C155.648 0.949708 155.745 0.987695 155.818 1.05672C155.854 1.09019 155.883 1.1312 155.902 1.17691C155.921 1.22262 155.93 1.27194 155.929 1.32145V10.6401H165.772Z" fill="#26BEDD"/>
<path d="M121.754 1.11933H127.53C127.601 1.11468 127.673 1.12608 127.74 1.15273C127.806 1.17938 127.866 1.22061 127.915 1.27336C128.012 1.39794 128.06 1.55378 128.05 1.71136V17.1477C128.05 17.5135 127.881 17.6964 127.539 17.6964H126.76C126.413 17.6964 126.24 17.5135 126.24 17.1477V14.0527H121.754C121.076 14.0571 120.404 13.9363 119.771 13.6966L118.264 17.2247C118.23 17.3598 118.153 17.48 118.045 17.567C117.936 17.654 117.802 17.7028 117.662 17.7061H116.815C116.699 17.7072 116.586 17.6662 116.498 17.5905C116.456 17.5531 116.422 17.507 116.4 17.4555C116.378 17.404 116.367 17.3483 116.368 17.2921C116.367 17.2389 116.379 17.1863 116.401 17.1381L118.264 12.8687C117.487 12.2677 116.859 11.4951 116.43 10.6112C115.967 9.67812 115.73 8.64932 115.737 7.60769C115.737 6.74883 115.901 5.89784 116.218 5.09995C116.513 4.32904 116.953 3.62162 117.513 3.01578C118.056 2.42838 118.71 1.95541 119.439 1.62472C120.166 1.29396 120.955 1.12168 121.754 1.11933V1.11933ZM126.23 12.1563V3.01096H121.754C121.189 3.00761 120.631 3.12753 120.117 3.36234C119.602 3.59789 119.139 3.93328 118.755 4.34907C118.357 4.77762 118.044 5.27729 117.831 5.82195C117.61 6.38447 117.497 6.98391 117.499 7.58844C117.495 8.78071 117.944 9.92998 118.755 10.8037C119.138 11.2224 119.601 11.5597 120.117 11.7953C120.631 12.0279 121.189 12.1477 121.754 12.1467L126.23 12.1563Z" fill="#26BEDD"/>
</svg>
