<svg width="54" height="62" viewBox="0 0 54 62" fill="none" xmlns="http://www.w3.org/2000/svg">
<path d="M10.527 61.069H9.77699V61.819H10.527V61.069ZM43.4076 61.069V61.819H44.1576V61.069H43.4076ZM2.97438 38.7933L2.56673 38.1637L2.26179 38.3612L2.22769 38.7229L2.97438 38.7933ZM17.2292 29.5628L17.7609 29.0339L17.3321 28.6027L16.8215 28.9332L17.2292 29.5628ZM36.7708 29.5628L37.1785 28.9332L36.6691 28.6034L36.2402 29.0327L36.7708 29.5628ZM51.0256 38.7933L51.7723 38.7229L51.7382 38.3612L51.4333 38.1637L51.0256 38.7933ZM17.1442 13.287C17.1774 12.8741 16.8696 12.5125 16.4567 12.4793C16.0438 12.4461 15.6822 12.7539 15.649 13.1668L17.1442 13.287ZM17.5622 16.5765L18.1514 16.1124L18.1507 16.1115L17.5622 16.5765ZM22.4149 17.7715L22.7046 18.4633L22.7066 18.4624L22.4149 17.7715ZM31.597 17.7715L31.3041 18.4619L31.3052 18.4624L31.597 17.7715ZM36.4497 16.5765L37.0377 17.042L37.0382 17.0415L36.4497 16.5765ZM37.6153 13.2269H36.8653V13.257L36.8677 13.287L37.6153 13.2269ZM34.4991 4.01993L33.9781 4.55948L33.9785 4.55983L34.4991 4.01993ZM19.5247 4.01993L19.0038 3.48038L19.0033 3.48078L19.5247 4.01993ZM16.4026 12.7324H15.6526V13.356L16.2657 13.4698L16.4026 12.7324ZM27.4649 13.7C27.879 13.6895 28.2062 13.3454 28.1958 12.9313C28.1853 12.5172 27.8412 12.19 27.4271 12.2005L27.4649 13.7ZM10.527 61.819H27V60.319H10.527V61.819ZM27 60.319H26.9346V61.819H27V60.319ZM26.9346 61.819H43.4076V60.319H26.9346V61.819ZM36.0922 29.5628V36.2855H37.5922V29.5628H36.0922ZM36.0922 36.2855C36.0922 40.3852 32.7362 43.7182 28.5759 43.7182V45.2182C33.5502 45.2182 37.5922 41.228 37.5922 36.2855H36.0922ZM28.5759 43.7182H25.3586V45.2182H28.5759V43.7182ZM25.3586 43.7182C21.1984 43.7182 17.8424 40.3852 17.8424 36.2855H16.3424C16.3424 41.228 20.3844 45.2182 25.3586 45.2182V43.7182ZM17.8424 36.2855V29.5628H16.3424V36.2855H17.8424ZM15.6407 13.3858V15.0577H17.1407V13.3858H15.6407ZM15.6407 15.0577C15.6407 22.3097 20.748 28.4172 27 28.4172V26.9172C21.7982 26.9172 17.1407 21.722 17.1407 15.0577H15.6407ZM27 28.4172C33.2514 28.4172 38.3593 22.3222 38.3593 15.0636H36.8593C36.8593 21.7331 32.2024 26.9172 27 26.9172V28.4172ZM38.3593 15.0636V13.427H36.8593V15.0636H38.3593ZM1.75 61.069C1.75 60.7784 1.8684 59.2681 2.05573 57.0914C2.24066 54.9427 2.48732 52.2014 2.73408 49.5005C2.98082 46.7998 3.22757 44.1406 3.41264 42.1564C3.50518 41.1644 3.58229 40.3412 3.63627 39.7659C3.66325 39.4783 3.68446 39.2528 3.69891 39.0991C3.70614 39.0222 3.71168 38.9634 3.71542 38.9237C3.71728 38.9039 3.7187 38.8889 3.71964 38.8788C3.72012 38.8738 3.72048 38.87 3.72071 38.8675C3.72083 38.8662 3.72092 38.8653 3.72098 38.8646C3.72101 38.8643 3.72104 38.8641 3.72105 38.8639C3.72107 38.8638 3.72107 38.8637 2.97438 38.7933C2.22769 38.7229 2.22768 38.723 2.22767 38.7231C2.22765 38.7233 2.22763 38.7235 2.2276 38.7239C2.22754 38.7245 2.22745 38.7255 2.22733 38.7267C2.22709 38.7293 2.22673 38.7331 2.22626 38.7381C2.22531 38.7482 2.22389 38.7632 2.22202 38.7831C2.21828 38.8228 2.21274 38.8817 2.20551 38.9586C2.19104 39.1124 2.16983 39.3381 2.14283 39.6258C2.08883 40.2012 2.01169 41.0248 1.91913 42.0171C1.734 44.0018 1.48716 46.662 1.2403 49.364C0.993469 52.0657 0.746529 54.8101 0.56126 56.9628C0.378399 59.0875 0.25 60.6943 0.25 61.069H1.75ZM3.38203 39.4228L17.6368 30.1923L16.8215 28.9332L2.56673 38.1637L3.38203 39.4228ZM16.6974 30.0917C19.4945 32.904 23.0952 34.3452 27 34.3452V32.8452C23.483 32.8452 20.2685 31.5551 17.7609 29.0339L16.6974 30.0917ZM27 34.3452C30.9062 34.3452 34.5058 32.8912 37.3014 30.0928L36.2402 29.0327C33.7312 31.5443 30.5155 32.8452 27 32.8452V34.3452ZM36.3632 30.1923L50.618 39.4228L51.4333 38.1637L37.1785 28.9332L36.3632 30.1923ZM51.0256 38.7933C50.2789 38.8637 50.2789 38.8638 50.2789 38.8639C50.279 38.8641 50.279 38.8643 50.279 38.8646C50.2791 38.8653 50.2792 38.8662 50.2793 38.8675C50.2795 38.87 50.2799 38.8738 50.2804 38.8788C50.2813 38.8889 50.2827 38.9039 50.2846 38.9237C50.2883 38.9634 50.2939 39.0222 50.3011 39.0991C50.3155 39.2528 50.3367 39.4783 50.3637 39.7659C50.4177 40.3412 50.4948 41.1644 50.5874 42.1564C50.7724 44.1406 51.0192 46.7998 51.2659 49.5005C51.5127 52.2014 51.7593 54.9427 51.9443 57.0914C52.1316 59.2681 52.25 60.7784 52.25 61.069H53.75C53.75 60.6943 53.6216 59.0875 53.4387 56.9628C53.2535 54.8101 53.0065 52.0657 52.7597 49.364C52.5128 46.662 52.266 44.0018 52.0809 42.0171C51.9883 41.0248 51.9112 40.2012 51.8572 39.6258C51.8302 39.3381 51.809 39.1124 51.7945 38.9586C51.7873 38.8817 51.7817 38.8228 51.778 38.7831C51.7761 38.7632 51.7747 38.7482 51.7737 38.7381C51.7733 38.7331 51.7729 38.7293 51.7727 38.7267C51.7725 38.7255 51.7725 38.7245 51.7724 38.7239C51.7724 38.7235 51.7723 38.7233 51.7723 38.7231C51.7723 38.723 51.7723 38.7229 51.0256 38.7933ZM43.4076 49.0516H35.296V50.5516H43.4076V49.0516ZM43.4076 52.619H35.296V54.119H43.4076V52.619ZM10.527 50.5516H18.6386V49.0516H10.527V50.5516ZM10.527 54.119H18.6386V52.619H10.527V54.119ZM16.3966 13.2269C15.649 13.1668 15.649 13.1671 15.649 13.1674C15.649 13.1675 15.6489 13.1679 15.6489 13.1681C15.6489 13.1686 15.6488 13.169 15.6488 13.1696C15.6487 13.1706 15.6486 13.1717 15.6486 13.173C15.6484 13.1755 15.6482 13.1784 15.6479 13.1817C15.6475 13.1883 15.647 13.1967 15.6465 13.2066C15.6454 13.2264 15.6443 13.2528 15.6435 13.2852C15.6419 13.3499 15.6417 13.439 15.6462 13.5489C15.6551 13.7684 15.6827 14.0729 15.7561 14.4333C15.9029 15.1541 16.235 16.1066 16.9737 17.0415L18.1507 16.1115C17.587 15.3981 17.3363 14.6758 17.2259 14.1339C17.1707 13.8628 17.1511 13.6391 17.145 13.488C17.1419 13.4127 17.1422 13.356 17.1431 13.3212C17.1435 13.3039 17.144 13.2921 17.1443 13.2862C17.1445 13.2833 17.1446 13.2819 17.1446 13.282C17.1446 13.282 17.1446 13.2825 17.1445 13.2833C17.1445 13.2837 17.1444 13.2842 17.1444 13.2849C17.1443 13.2852 17.1443 13.2855 17.1443 13.2858C17.1443 13.286 17.1443 13.2863 17.1442 13.2864C17.1442 13.2867 17.1442 13.287 16.3966 13.2269ZM16.973 17.0405C18.33 18.7636 20.7121 19.2977 22.7046 18.4633L22.1252 17.0797C20.716 17.6699 19.0662 17.2739 18.1514 16.1124L16.973 17.0405ZM22.7066 18.4624C23.9342 17.9441 25.5588 17.4148 27.0059 17.4148V15.9148C25.2537 15.9148 23.4052 16.5393 22.1232 17.0806L22.7066 18.4624ZM27.0059 17.4148C28.4592 17.4148 30.0839 17.9443 31.3041 18.4619L31.8899 17.0811C30.6123 16.5391 28.764 15.9148 27.0059 15.9148V17.4148ZM31.3052 18.4624C33.3019 19.3055 35.6768 18.761 37.0377 17.042L35.8616 16.111C34.9389 17.2765 33.2937 17.6739 31.8887 17.0806L31.3052 18.4624ZM37.0382 17.0415C37.7768 16.1066 38.109 15.1541 38.2558 14.4333C38.3292 14.0729 38.3568 13.7684 38.3657 13.5489C38.3701 13.439 38.3699 13.3499 38.3684 13.2852C38.3676 13.2528 38.3665 13.2264 38.3654 13.2066C38.3649 13.1967 38.3644 13.1883 38.364 13.1817C38.3637 13.1784 38.3635 13.1755 38.3633 13.173C38.3632 13.1717 38.3632 13.1706 38.3631 13.1696C38.363 13.169 38.363 13.1686 38.363 13.1681C38.3629 13.1679 38.3629 13.1675 38.3629 13.1674C38.3629 13.1671 38.3629 13.1668 37.6153 13.2269C36.8677 13.287 36.8677 13.2867 36.8676 13.2864C36.8676 13.2863 36.8676 13.286 36.8676 13.2859C36.8676 13.2855 36.8675 13.2852 36.8675 13.2849C36.8675 13.2842 36.8674 13.2837 36.8674 13.2833C36.8673 13.2825 36.8673 13.282 36.8673 13.282C36.8673 13.2819 36.8674 13.2833 36.8676 13.2862C36.8679 13.2921 36.8684 13.3039 36.8688 13.3212C36.8697 13.356 36.87 13.4127 36.8669 13.488C36.8608 13.6391 36.8412 13.8628 36.786 14.1339C36.6756 14.6758 36.4249 15.3981 35.8612 16.1115L37.0382 17.0415ZM38.3653 13.2269V11.6551H36.8653V13.2269H38.3653ZM38.3653 11.6551C38.3653 8.62633 37.2463 5.62701 35.0197 3.48003L33.9785 4.55983C35.879 6.39233 36.8653 8.98548 36.8653 11.6551H38.3653ZM35.02 3.48038C32.9529 1.48454 30.1277 0.25 27.0119 0.25V1.75C29.7241 1.75 32.1797 2.82309 33.9781 4.55948L35.02 3.48038ZM27.0119 0.25C23.8961 0.25 21.0709 1.48454 19.0038 3.48038L20.0457 4.55948C21.844 2.82309 24.2997 1.75 27.0119 1.75V0.25ZM19.0033 3.48078C16.7848 5.62615 15.6526 8.6242 15.6526 11.6551H17.1526C17.1526 8.98761 18.1494 6.39319 20.0461 4.55908L19.0033 3.48078ZM15.6526 11.6551V12.7324H17.1526V11.6551H15.6526ZM16.2657 13.4698C16.3222 13.4803 16.442 13.4914 16.5508 13.5011C16.6865 13.5132 16.8804 13.529 17.1307 13.5468C17.6316 13.5824 18.3607 13.6261 19.3054 13.6636C21.1949 13.7385 23.9482 13.7887 27.4649 13.7L27.4271 12.2005C23.9443 12.2883 21.2234 12.2385 19.3649 12.1647C18.4356 12.1279 17.7221 12.0851 17.2371 12.0506C16.9945 12.0334 16.8096 12.0182 16.6839 12.007C16.5311 11.9934 16.5067 11.9889 16.5394 11.995L16.2657 13.4698ZM9.77699 33.9014V61.069H11.277V33.9014H9.77699ZM44.1576 61.069V33.9014H42.6576V61.069H44.1576Z" fill="white"/>
</svg>
