<svg width="43" height="64" viewBox="0 0 43 64" fill="none" xmlns="http://www.w3.org/2000/svg">
<path d="M24.7189 4.49595V4.29893C24.7189 2.48022 23.2438 1 21.42 1C19.6013 1 18.1211 2.47517 18.1211 4.29893V4.49595M14.4281 7.27453H4.2181C2.43981 7.27453 1 8.71434 1 10.4926V59.8351C1 61.6134 2.43981 63.0532 4.2181 63.0532H38.6219C40.4002 63.0532 41.84 61.6134 41.84 59.8351V10.4926C41.84 8.71434 40.4002 7.27453 38.6219 7.27453H27.937M5.76905 12.0436V58.2892H28.4927L37.071 49.7059V12.0436M16.7621 22.0818L12.9782 26.088L11.1494 24.2592M20.0711 24.5977H33.1203M20.0711 36.005H33.1203M16.7621 33.671L12.9782 37.6772L11.1494 35.8484M16.5297 45.0379L12.7508 49.0441L10.917 47.2153M14.4281 5.41541V12.3669C14.4281 13.0237 14.9586 13.5541 15.6153 13.5541H16.0902C16.6863 13.5541 17.1915 13.1095 17.2673 12.5185L17.2875 12.372C17.5603 10.3006 19.3234 8.7497 21.415 8.7497C23.5065 8.7497 25.2746 10.3006 25.5424 12.372L25.5626 12.5185C25.6384 13.1095 26.1436 13.5541 26.7397 13.5541C27.3965 13.5541 27.9269 13.0237 27.9269 12.3669V5.41541C27.9269 4.91021 27.5177 4.49595 27.0075 4.49595H15.3476C14.8424 4.49595 14.4281 4.90516 14.4281 5.41541Z" stroke="white" stroke-width="1.5" stroke-miterlimit="10"/>
</svg>
