<svg width="53" height="61" viewBox="0 0 53 61" fill="none" xmlns="http://www.w3.org/2000/svg">
<path d="M50.4145 30.3816V37.0592H34.3882V22.3684H46.4079M38.3947 29.046L42.4013 33.0526L51.75 22.3684M50.4145 9.01316V15.6908H34.3882V1H46.4079M38.3947 7.67763L42.4013 11.6842L51.75 1M30.3816 47.7434H9.01316C6.79618 47.7434 5.00658 45.9538 5.00658 43.7368V35.7237C5.00658 35.0559 5.08671 34.268 5.23362 34.0543L6.62257 31.9575C7.13007 31.1829 6.72941 30.1412 5.83461 29.9275L2.33553 29.046C1.60099 29.046 1 28.4451 1 27.7105V25.0395C1 24.3049 1.60099 23.7039 2.33553 23.7039H8.29197C8.7327 23.7039 9.16007 23.931 9.40046 24.3049L11.1634 26.9493C11.4171 27.3099 14.0347 29.046 15.6774 29.046H30.3682M30.3814 15.6908C24.4517 15.6908 19.8708 16.4253 17.1864 16.7993C16.2649 16.9328 14.9695 17.6273 14.3551 18.3618C13.7408 19.083 10.5355 25.9877 10.5355 25.9877M9.01316 34.3881C10.7226 36.0976 13.0464 37.0592 15.4638 37.0592H18.3618M6.34211 46.4079V51.75C6.34211 52.4845 6.94309 53.0855 7.67763 53.0855H17.0263C17.7609 53.0855 18.3618 52.4845 18.3618 51.75V47.7434M30.3816 42.4013H18.3618M34.3882 45.0724H50.4145V59.7631H34.3882V45.0724Z" stroke="white" stroke-width="1.5" stroke-miterlimit="10"/>
</svg>
