<svg width="57" height="51" viewBox="0 0 57 51" fill="none" xmlns="http://www.w3.org/2000/svg">
<path d="M8.61401 3.75243C8.13718 3.75243 7.75364 4.13597 7.75364 4.6128V45.9828C7.75364 46.4597 8.13718 46.8432 8.61401 46.8432C9.09083 46.8432 9.47437 46.4597 9.47437 45.9828V4.6128C9.47437 4.13597 9.09083 3.75243 8.61401 3.75243Z" fill="white"/>
<path d="M13.517 3.75243C13.0402 3.75243 12.6567 4.13597 12.6567 4.6128V45.9828C12.6567 46.4597 13.0402 46.8432 13.517 46.8432C13.9939 46.8432 14.3774 46.4597 14.3774 45.9828V4.6128C14.3774 4.13597 13.9939 3.75243 13.517 3.75243Z" fill="white"/>
<path d="M5.46279 5.44206L4.08414 6.82072C3.74207 7.16279 3.74207 7.70181 4.08414 8.04389C4.24999 8.20974 4.46767 8.30303 4.69572 8.30303C4.92377 8.30303 5.14145 8.22011 5.30731 8.04389L6.68596 6.66523C7.02803 6.33352 7.02803 5.78413 6.68596 5.44206C6.34389 5.11036 5.80487 5.09999 5.46279 5.44206Z" fill="white"/>
<path d="M5.46279 9.62986L4.08414 11.0085C3.74207 11.3506 3.74207 11.8896 4.08414 12.2317C4.24999 12.3975 4.47804 12.4805 4.69572 12.4805C4.9134 12.4805 5.14145 12.3975 5.30731 12.2317L6.68596 10.853C7.02803 10.511 7.02803 9.97193 6.68596 9.62986C6.34389 9.28779 5.80487 9.28779 5.46279 9.62986Z" fill="white"/>
<path d="M5.46279 13.8177L4.08414 15.1963C3.74207 15.5384 3.74207 16.0774 4.08414 16.4195C4.24999 16.5853 4.47804 16.6683 4.69572 16.6683C4.9134 16.6683 5.14145 16.5853 5.30731 16.4195L6.68596 15.0408C7.02803 14.6988 7.02803 14.1597 6.68596 13.8177C6.34389 13.4756 5.80487 13.4756 5.46279 13.8177Z" fill="white"/>
<path d="M5.46279 18.0158L4.08414 19.3945C3.74207 19.7365 3.74207 20.2756 4.08414 20.6176C4.24999 20.7835 4.47804 20.8664 4.69572 20.8664C4.9134 20.8664 5.14145 20.7835 5.30731 20.6176L6.68596 19.239C7.02803 18.8969 7.02803 18.3579 6.68596 18.0158C6.34389 17.6737 5.80487 17.6737 5.46279 18.0158Z" fill="white"/>
<path d="M5.46279 22.2036L4.08414 23.5823C3.74207 23.914 3.74207 24.4634 4.08414 24.8054C4.24999 24.9713 4.47804 25.0542 4.69572 25.0542C4.9134 25.0542 5.14145 24.9713 5.30731 24.8054L6.68596 23.4268C7.02803 23.0847 7.02803 22.5457 6.68596 22.2036C6.34389 21.8615 5.80487 21.8615 5.46279 22.2036Z" fill="white"/>
<path d="M5.46279 26.4018L4.08414 27.7804C3.74207 28.1225 3.74207 28.6615 4.08414 29.0036C4.24999 29.1695 4.46767 29.2627 4.69572 29.2627C4.92377 29.2627 5.14145 29.1798 5.30731 29.0036L6.68596 27.6249C7.02803 27.2829 7.02803 26.7438 6.68596 26.4018C6.34389 26.0597 5.80487 26.0597 5.46279 26.4018Z" fill="white"/>
<path d="M5.46279 30.5896L4.08414 31.9682C3.74207 32.3103 3.74207 32.8493 4.08414 33.1914C4.24999 33.3573 4.47804 33.4402 4.69572 33.4402C4.9134 33.4402 5.14145 33.3573 5.30731 33.1914L6.68596 31.8127C7.02803 31.4707 7.02803 30.9316 6.68596 30.5896C6.34389 30.2475 5.80487 30.2475 5.46279 30.5896Z" fill="white"/>
<path d="M5.46279 34.7877L4.08414 36.1664C3.74207 36.5085 3.74207 37.0475 4.08414 37.3896C4.24999 37.5554 4.46767 37.6383 4.69572 37.6383C4.92377 37.6383 5.14145 37.5554 5.30731 37.3896L6.68596 36.0109C7.02803 35.6792 7.02803 35.1298 6.68596 34.7877C6.34389 34.4457 5.80487 34.4457 5.46279 34.7877Z" fill="white"/>
<path d="M5.46279 38.9755L4.08414 40.3542C3.74207 40.6963 3.74207 41.2353 4.08414 41.5774C4.24999 41.7432 4.47804 41.8261 4.69572 41.8261C4.9134 41.8261 5.14145 41.7432 5.30731 41.5774L6.68596 40.1987C7.02803 39.8566 7.02803 39.3072 6.68596 38.9755C6.34389 38.6335 5.80487 38.6335 5.46279 38.9755Z" fill="white"/>
<path d="M5.46279 43.1633L4.08414 44.542C3.74207 44.8737 3.74207 45.4231 4.08414 45.7652C4.24999 45.931 4.47804 46.0139 4.69572 46.0139C4.9134 46.0139 5.14145 45.931 5.30731 45.7652L6.68596 44.3865C7.02803 44.0444 7.02803 43.5054 6.68596 43.1633C6.34389 42.8213 5.80487 42.8213 5.46279 43.1633Z" fill="white"/>
<path d="M17.1036 5.44206C16.7616 5.09999 16.2225 5.11036 15.8805 5.44206C15.5384 5.78413 15.5384 6.32316 15.8805 6.66523L17.2591 8.04389C17.425 8.20974 17.6426 8.30303 17.8707 8.30303C18.0987 8.30303 18.3164 8.22011 18.4823 8.04389C18.8244 7.70181 18.8244 7.16279 18.4823 6.82072L17.1036 5.44206Z" fill="white"/>
<path d="M17.1036 9.62986C16.7616 9.28779 16.2225 9.28779 15.8805 9.62986C15.5384 9.97193 15.5384 10.511 15.8805 10.853L17.2591 12.2317C17.425 12.3975 17.6426 12.4805 17.8707 12.4805C18.0987 12.4805 18.3164 12.3975 18.4823 12.2317C18.8244 11.8896 18.8244 11.3506 18.4823 11.0085L17.1036 9.62986Z" fill="white"/>
<path d="M17.1036 13.8177C16.7616 13.4756 16.2225 13.4756 15.8805 13.8177C15.5384 14.1597 15.5384 14.7091 15.8805 15.0408L17.2591 16.4195C17.425 16.5853 17.6426 16.6683 17.8707 16.6683C18.0987 16.6683 18.3164 16.5853 18.4823 16.4195C18.8244 16.0878 18.8244 15.5384 18.4823 15.1963L17.1036 13.8177Z" fill="white"/>
<path d="M17.1036 18.0158C16.7616 17.6737 16.2225 17.6737 15.8805 18.0158C15.5384 18.3475 15.5384 18.8969 15.8805 19.239L17.2591 20.6176C17.425 20.7835 17.6426 20.8664 17.8707 20.8664C18.0987 20.8664 18.3164 20.7835 18.4823 20.6176C18.8244 20.2756 18.8244 19.7365 18.4823 19.3945L17.1036 18.0158Z" fill="white"/>
<path d="M17.1036 22.2036C16.7616 21.8615 16.2225 21.8615 15.8805 22.2036C15.5384 22.5353 15.5384 23.0847 15.8805 23.4268L17.2591 24.8054C17.425 24.9713 17.6426 25.0542 17.8707 25.0542C18.0987 25.0542 18.3164 24.9713 18.4823 24.8054C18.8244 24.4634 18.8244 23.9243 18.4823 23.5823L17.1036 22.2036Z" fill="white"/>
<path d="M17.1036 26.4018C16.7616 26.0597 16.2225 26.0597 15.8805 26.4018C15.5384 26.7438 15.5384 27.2829 15.8805 27.6249L17.2591 29.0036C17.425 29.1695 17.6426 29.2627 17.8707 29.2627C18.0987 29.2627 18.3164 29.1798 18.4823 29.0036C18.8244 28.6615 18.8244 28.1225 18.4823 27.7804L17.1036 26.4018Z" fill="white"/>
<path d="M17.1036 30.5896C16.7616 30.2475 16.2225 30.2475 15.8805 30.5896C15.5384 30.9316 15.5384 31.4707 15.8805 31.8127L17.2591 33.1914C17.425 33.3573 17.6426 33.4402 17.8707 33.4402C18.0987 33.4402 18.3164 33.3573 18.4823 33.1914C18.8244 32.8493 18.8244 32.3103 18.4823 31.9682L17.1036 30.5896Z" fill="white"/>
<path d="M17.1036 34.7877C16.7616 34.4457 16.2225 34.4457 15.8805 34.7877C15.5384 35.1298 15.5384 35.6688 15.8805 36.0109L17.2591 37.3896C17.425 37.5554 17.6426 37.6383 17.8707 37.6383C18.0987 37.6383 18.3164 37.5554 18.4823 37.3896C18.8244 37.0475 18.8244 36.5085 18.4823 36.1664L17.1036 34.7877Z" fill="white"/>
<path d="M17.1036 38.9755C16.7616 38.6335 16.2225 38.6335 15.8805 38.9755C15.5384 39.3176 15.5384 39.8566 15.8805 40.1987L17.2591 41.5774C17.425 41.7432 17.6426 41.8261 17.8707 41.8261C18.0987 41.8261 18.3164 41.7432 18.4823 41.5774C18.8244 41.2457 18.8244 40.6963 18.4823 40.3542L17.1036 38.9755Z" fill="white"/>
<path d="M17.1036 43.1633C16.7616 42.8213 16.2225 42.8213 15.8805 43.1633C15.5384 43.495 15.5384 44.0444 15.8805 44.3865L17.2591 45.7652C17.425 45.931 17.6426 46.0139 17.8707 46.0139C18.0987 46.0139 18.3164 45.931 18.4823 45.7652C18.8244 45.4231 18.8244 44.8841 18.4823 44.542L17.1036 43.1633Z" fill="white"/>
<path d="M55.82 14.6055C51.6322 14.6055 47.9938 17.0414 46.2523 20.5658H41.7639V18.275L42.1993 18.2128C43.0908 18.0884 43.7956 17.2798 43.7956 16.378V15.2378C43.7956 14.3359 43.0908 13.6311 42.1993 13.6311C42.1164 13.6311 42.0334 13.6311 41.9402 13.6518L41.7639 13.6829V12.5219L42.1993 12.4597C43.0908 12.3353 43.7956 11.5268 43.7956 10.625V9.48474C43.7956 8.58291 43.0908 7.87803 42.1993 7.87803C42.1578 7.87803 41.992 7.8884 41.9505 7.89876L41.7743 7.92986V6.77925L42.2097 6.71706C43.1011 6.5823 43.806 5.77377 43.806 4.88231V3.74207C43.806 2.84024 43.1011 2.13536 42.2097 2.13536C42.1267 2.13536 42.0438 2.13536 41.9505 2.15609L41.7743 2.18719V0.860364C41.7743 0.383536 41.3908 0 40.9139 0H35.4304C34.9536 0 34.57 0.383536 34.57 0.860364V3.26524L34.1347 3.32743C33.2432 3.45182 32.5383 4.26036 32.5383 5.16218V6.30243C32.5383 7.20425 33.2432 7.90913 34.1347 7.90913C34.2176 7.90913 34.3005 7.90913 34.3938 7.8884L34.57 7.8573V9.00791L34.1451 9.0701C33.2536 9.19449 32.5487 10.003 32.5487 10.9049V12.0347C32.5487 12.9366 33.2536 13.6414 34.1451 13.6414C34.228 13.6414 34.3109 13.6414 34.4042 13.6207L34.5804 13.5896V14.7402L34.1451 14.8128C33.2536 14.9372 32.5487 15.7457 32.5487 16.6475V17.7878C32.5487 18.6896 33.2536 19.3945 34.1451 19.3945C34.1865 19.3945 34.3524 19.3841 34.3938 19.3737L34.57 19.3426V20.5347H26.7127V16.9378C26.7127 15.103 25.2201 13.6103 23.3853 13.6103H22.8567V4.80975C22.8567 2.39451 20.8872 0.424999 18.4719 0.424999H4.38475C1.96951 0.424999 0 2.39451 0 4.80975V46.4286C0 48.8438 1.96951 50.8133 4.38475 50.8133H18.4512C20.8664 50.8133 22.8359 48.8438 22.8359 46.4286V37.6072H23.3646C25.1993 37.6072 26.692 36.1146 26.692 34.2798V30.6829H46.584C48.4395 33.8548 51.881 36.0005 55.8096 36.0005C56.2865 36.0005 56.67 35.617 56.67 35.1402V15.4658C56.67 14.989 56.2865 14.6055 55.8096 14.6055H55.82ZM36.2804 1.73109H40.0432V2.4256L36.2804 3.00609V1.73109ZM34.2487 6.16767V5.17255C34.2487 5.17255 34.3109 5.04816 34.3731 5.04816L40.3853 4.13597L42.0645 3.87682V4.87194C42.0645 4.87194 42.0023 4.99633 41.9402 4.99633L40.7688 5.17255L35.2853 6.01218L34.2487 6.16767ZM36.2804 7.60852L36.4981 7.57742L40.0432 7.0384V8.18901L36.2804 8.7695V7.60852ZM34.1243 11.9622V11.9414L34.1761 12.8018L34.1243 11.9518V11.9622ZM34.2487 11.9207V10.9256C34.2487 10.9256 34.3109 10.8012 34.3731 10.8012L37.7938 10.2829L41.0383 9.78535L42.0749 9.62986V10.625C42.0749 10.625 42.0127 10.739 41.9505 10.7494L40.7792 10.9256L35.928 11.6616L34.2487 11.9207ZM36.2804 13.3616L40.0432 12.7914V13.942L36.2804 14.5225V13.3616ZM34.2487 17.6841V16.689C34.2487 16.689 34.3109 16.5646 34.3731 16.5646L40.3853 15.6524L42.0645 15.3933V16.3884C42.0645 16.3884 42.0023 16.5128 41.9402 16.5128L40.7688 16.689L35.9176 17.425L34.2383 17.6841H34.2487ZM40.0328 18.5548V20.1926H36.27V19.125L37.6694 18.9073L40.0225 18.5548H40.0328ZM21.1048 46.4389C21.1048 47.9005 19.9128 49.0926 18.4408 49.0926H4.38475C2.92316 49.0926 1.73109 47.9005 1.73109 46.4389V4.80975C1.73109 3.3378 2.92316 2.15609 4.38475 2.15609H18.4512C19.9231 2.15609 21.1152 3.34816 21.1152 4.80975V46.4286L21.1048 46.4389ZM24.9609 34.2798C24.9609 35.1609 24.2457 35.8865 23.3542 35.8865H22.8256V15.3622H23.3542C24.2353 15.3622 24.9609 16.0774 24.9609 16.9689V34.2798ZM45.7651 28.9518H26.7024V22.3073H45.5682C45.5578 22.3591 45.5475 22.4213 45.5267 22.4835C45.4231 22.8463 45.3505 23.2195 45.2883 23.5926C45.2676 23.717 45.2469 23.8311 45.2261 23.9554C45.1743 24.4012 45.1328 24.8573 45.1328 25.3134C45.1328 25.6554 45.1536 25.9975 45.1847 26.3396C45.1847 26.4432 45.2158 26.5469 45.2261 26.6506C45.2572 26.8786 45.2883 27.1067 45.3298 27.3347C45.3505 27.4695 45.3816 27.5938 45.4127 27.7286C45.4542 27.9152 45.506 28.1018 45.5578 28.2884C45.5993 28.4438 45.6511 28.589 45.703 28.7445C45.7341 28.817 45.7444 28.8896 45.7755 28.9621L45.7651 28.9518ZM54.9493 34.228C51.8603 33.9274 49.2273 32.0512 47.859 29.4182C47.7036 29.1073 47.5584 28.7859 47.434 28.4646C47.4133 28.4231 47.4029 28.3713 47.3822 28.3195C47.2889 28.0707 47.2164 27.8115 47.1438 27.5524C47.1231 27.4591 47.092 27.3554 47.0712 27.2621C47.0194 27.0341 46.978 26.806 46.9469 26.578C46.9365 26.4847 46.9158 26.381 46.9054 26.2774C46.8743 25.956 46.8432 25.6243 46.8432 25.303C46.8432 25.0024 46.8536 24.7121 46.8847 24.4219C46.8847 24.3286 46.9158 24.225 46.9261 24.1317C46.9469 23.9347 46.9779 23.7481 47.009 23.5615C47.0298 23.4579 47.0609 23.3439 47.092 23.2402C47.1334 23.064 47.1749 22.8878 47.2267 22.7115C47.2578 22.6079 47.2993 22.4939 47.3408 22.3902C47.3926 22.2243 47.4548 22.0585 47.5273 21.8926C48.7712 18.8969 51.5907 16.7097 54.9389 16.3884V34.228H54.9493Z" fill="white"/>
</svg>
