<svg width="20" height="18" viewBox="0 0 20 18" fill="none" xmlns="http://www.w3.org/2000/svg">
<path d="M0.312911 8.43265C3.57444 6.9506 13.0726 2.66156 17.7191 0.992652C18.4202 0.742105 19.1896 1.09882 19.4418 1.79525C19.5187 2.00758 19.5401 2.23265 19.5059 2.45347L17.4242 15.9236C17.3002 16.7305 16.5436 17.2868 15.7272 17.1636C15.5177 17.1339 15.3211 17.0574 15.1415 16.9428L9.11861 13.0742C8.40475 12.6155 8.20384 11.6728 8.66123 10.9636C8.72962 10.8574 8.81511 10.7555 8.91343 10.6706L14.4661 5.38361C14.7013 5.15854 14.3978 4.78909 14.1285 4.97594L6.21615 10.4753C5.47237 10.9933 4.51913 11.0995 3.67703 10.764L0.334284 9.41361C0.0607088 9.3032 -0.0718041 8.9932 0.0393358 8.72142C0.0906311 8.58977 0.188947 8.48786 0.312911 8.43265Z" fill="white"/>
</svg>
