<svg width="24" height="14" viewBox="0 0 24 14" fill="none" xmlns="http://www.w3.org/2000/svg">
<path d="M13.2223 13.634C13.2223 13.634 13.6356 13.5889 13.8472 13.3658C14.041 13.1613 14.0342 12.7755 14.0342 12.7755C14.0342 12.7755 14.0085 10.9737 14.8607 10.7077C15.7007 10.4461 16.7791 12.4501 17.9236 13.2207C18.7882 13.8033 19.4445 13.6758 19.4445 13.6758L22.5029 13.634C22.5029 13.634 24.1021 13.5373 23.3439 12.3028C23.2812 12.2016 22.9016 11.3893 21.0706 9.72054C19.1522 7.97377 19.4097 8.25629 21.719 5.23435C23.1256 3.39415 23.6878 2.27067 23.5119 1.79029C23.3451 1.33078 22.3103 1.45281 22.3103 1.45281L18.8677 1.47369C18.8677 1.47369 18.6124 1.43961 18.4231 1.55064C18.2383 1.65947 18.1185 1.91341 18.1185 1.91341C18.1185 1.91341 17.5742 3.33698 16.8474 4.5484C15.3143 7.10314 14.7017 7.23835 14.4508 7.08005C13.8674 6.70959 14.013 5.59382 14.013 4.80123C14.013 2.32454 14.396 1.29231 13.2682 1.02518C12.8942 0.936141 12.6187 0.877878 11.6612 0.867985C10.4327 0.855893 9.39339 0.872382 8.80433 1.1549C8.41236 1.34288 8.10999 1.7628 8.29478 1.78699C8.52212 1.81667 9.03727 1.9233 9.31052 2.28826C9.66329 2.75986 9.65097 3.81737 9.65097 3.81737C9.65097 3.81737 9.85367 6.73268 9.17725 7.09434C8.71362 7.34278 8.07752 6.83601 6.71012 4.51762C6.01019 3.33039 5.4816 2.01784 5.4816 2.01784C5.4816 2.01784 5.37969 1.7727 5.19714 1.64078C4.97652 1.48139 4.66855 1.43192 4.66855 1.43192L1.39733 1.45281C1.39733 1.45281 0.905698 1.466 0.725395 1.67596C0.56525 1.86174 0.713076 2.24759 0.713076 2.24759C0.713076 2.24759 3.27428 8.12987 6.17481 11.0946C8.83457 13.8121 11.8538 13.634 11.8538 13.634H13.2223Z" fill="#929292"/>
</svg>
