<svg width="20" height="19" viewBox="0 0 20 19" fill="none" xmlns="http://www.w3.org/2000/svg">
<path d="M10.046 0C4.90126 0 0.691895 4.20937 0.691895 9.35415C0.691895 11.147 1.1596 12.784 2.01707 14.1871L0.769846 18.7083L5.44692 17.4611C6.77209 18.2406 8.40907 18.7083 10.046 18.7083C15.1908 18.7083 19.4002 14.4989 19.4002 9.35415C19.4002 4.20937 15.1908 0 10.046 0ZM6.85004 4.98888C7.00594 4.98888 7.16185 4.98888 7.31775 4.98888C7.47365 4.98888 7.62955 4.98888 7.86341 5.37863C8.01931 5.84634 8.48702 7.01561 8.48702 7.09356C8.48702 7.17151 8.56497 7.32741 8.48702 7.48332C8.48702 7.63922 8.40907 7.79512 8.33111 7.87307C8.25316 8.02898 8.09726 8.18488 8.01931 8.26283C7.86341 8.41873 7.7075 8.57463 7.86341 8.80849C8.01931 9.04234 8.48702 9.82185 9.18858 10.4455C10.046 11.225 10.8256 11.4588 11.0594 11.6147C11.2933 11.6927 11.4492 11.6927 11.5271 11.5368C11.683 11.3809 12.0728 10.8352 12.2287 10.6014C12.3846 10.3675 12.5405 10.4455 12.7743 10.5234C13.0082 10.6014 14.0995 11.147 14.3334 11.3029C14.5672 11.4588 14.7231 11.4588 14.8011 11.5368C14.879 11.6147 14.879 12.0824 14.6452 12.6281C14.4893 13.1738 13.4759 13.7194 13.0861 13.7194C12.6964 13.7974 12.2287 13.8753 10.2799 13.1738C7.94136 12.2383 6.46028 9.82185 6.30438 9.66595C6.22643 9.51005 5.36897 8.41873 5.36897 7.24946C5.36897 6.0802 5.99258 5.53454 6.14848 5.30068C6.46029 5.06683 6.69414 4.98888 6.85004 4.98888Z" fill="white"/>
</svg>
