<svg width="25" height="18" viewBox="0 0 25 18" fill="none" xmlns="http://www.w3.org/2000/svg">
<path d="M24.2007 2.93994C23.9279 1.89184 23.124 1.06651 22.1032 0.786403C20.2534 0.277344 12.8348 0.277344 12.8348 0.277344C12.8348 0.277344 5.41629 0.277344 3.56627 0.786403C2.54549 1.06651 1.74159 1.89184 1.46877 2.93994C0.973145 4.83949 0.973145 8.80292 0.973145 8.80292C0.973145 8.80292 0.973145 12.7662 1.46877 14.6659C1.74159 15.714 2.54549 16.5393 3.56627 16.8196C5.41629 17.3285 12.8348 17.3285 12.8348 17.3285C12.8348 17.3285 20.2534 17.3285 22.1032 16.8196C23.124 16.5393 23.9279 15.714 24.2007 14.6659C24.6965 12.7662 24.6965 8.80292 24.6965 8.80292C24.6965 8.80292 24.6965 4.83949 24.2007 2.93994Z" fill="#9B9B9B"/>
<path d="M10.6108 12.8801V5.46655L16.5417 9.17347L10.6108 12.8801Z" fill="white"/>
</svg>
