<svg width="39" height="39" viewBox="0 0 39 39" fill="none" xmlns="http://www.w3.org/2000/svg">
<path d="M10.8333 32.5H14.0833V28.1667H18.4167V24.9167H14.0833V20.5833H10.8333V24.9167H6.5V28.1667H10.8333V32.5ZM21.6667 30.875H32.5V27.625H21.6667V30.875ZM21.6667 25.4583H32.5V22.2083H21.6667V25.4583ZM24.05 17.225L27.0833 14.1917L30.1167 17.225L32.3917 14.95L29.3583 11.8083L32.3917 8.775L30.1167 6.5L27.0833 9.53333L24.05 6.5L21.775 8.775L24.8083 11.8083L21.775 14.95L24.05 17.225ZM7.04167 13.4333H17.875V10.1833H7.04167V13.4333ZM4.33333 39C3.14167 39 2.12117 38.5761 1.27183 37.7282C0.423944 36.8788 0 35.8583 0 34.6667V4.33333C0 3.14167 0.423944 2.12117 1.27183 1.27183C2.12117 0.423944 3.14167 0 4.33333 0H34.6667C35.8583 0 36.8788 0.423944 37.7282 1.27183C38.5761 2.12117 39 3.14167 39 4.33333V34.6667C39 35.8583 38.5761 36.8788 37.7282 37.7282C36.8788 38.5761 35.8583 39 34.6667 39H4.33333ZM4.33333 34.6667H34.6667V4.33333H4.33333V34.6667ZM4.33333 4.33333V34.6667V4.33333Z" fill="#D85757"/>
</svg>
