<svg width="39" height="46" viewBox="0 0 39 46" fill="none" xmlns="http://www.w3.org/2000/svg">
<path d="M2.76234 0.991211H26.2162L38.6477 13.3745V42.3975C38.6477 43.9226 37.4111 45.1579 35.8873 45.1579H2.76234C1.23855 45.1579 0.00195312 43.9226 0.00195312 42.3975V3.7516C0.00195312 2.22652 1.23869 0.991211 2.76234 0.991211Z" fill="#E2574C"/>
<path d="M38.6074 13.4133H28.986C27.4622 13.4133 26.2256 12.1767 26.2256 10.6529V1.01904L38.6074 13.4133Z" fill="#B53629"/>
<path d="M10.9629 21.7372C11.6482 21.7372 12.2696 21.8971 12.827 22.217C13.3936 22.5277 13.8368 22.9708 14.1566 23.5465C14.4764 24.1131 14.6363 24.7756 14.6363 25.534C14.6363 26.2925 14.4764 26.9596 14.1566 27.5352C13.8368 28.1018 13.3936 28.545 12.827 28.8648C12.2696 29.1755 11.6482 29.3308 10.9629 29.3308C10.0217 29.3308 9.2815 29.0339 8.74236 28.4399V31.8803H6.60408V21.8469H8.64641V22.6967C9.17641 22.0571 9.94857 21.7372 10.9629 21.7372ZM10.5928 27.5764C11.1411 27.5764 11.5888 27.3936 11.9361 27.0281C12.2924 26.6534 12.4706 26.1554 12.4706 25.534C12.4706 24.9127 12.2924 24.4192 11.9361 24.0537C11.5888 23.679 11.1411 23.4917 10.5928 23.4917C10.0445 23.4917 9.59219 23.679 9.23581 24.0537C8.88857 24.4192 8.71495 24.9127 8.71495 25.534C8.71495 26.1554 8.88857 26.6534 9.23581 27.0281C9.59219 27.3936 10.0445 27.5764 10.5928 27.5764ZM23.5791 19.0507V29.2212H21.5368V28.3714C21.0068 29.011 20.2392 29.3308 19.234 29.3308C18.5395 29.3308 17.909 29.1755 17.3425 28.8648C16.7851 28.5541 16.3464 28.1109 16.0266 27.5352C15.7068 26.9596 15.5469 26.2925 15.5469 25.534C15.5469 24.7756 15.7068 24.1085 16.0266 23.5328C16.3464 22.9571 16.7851 22.5139 17.3425 22.2033C17.909 21.8926 18.5395 21.7372 19.234 21.7372C20.1752 21.7372 20.9108 22.0342 21.4408 22.6282V19.0507H23.5791ZM19.6041 27.5764C20.1433 27.5764 20.591 27.3936 20.9474 27.0281C21.3038 26.6534 21.482 26.1554 21.482 25.534C21.482 24.9127 21.3038 24.4192 20.9474 24.0537C20.591 23.679 20.1433 23.4917 19.6041 23.4917C19.0558 23.4917 18.6035 23.679 18.2471 24.0537C17.8908 24.4192 17.7126 24.9127 17.7126 25.534C17.7126 26.1554 17.8908 26.6534 18.2471 27.0281C18.6035 27.3936 19.0558 27.5764 19.6041 27.5764ZM27.902 22.0114H29.7936V23.6562H27.9569V29.2212H25.8186V23.6562H24.6809V22.0114H25.8186V21.6824C25.8186 20.8417 26.0653 20.1746 26.5588 19.6812C27.0613 19.1877 27.765 18.941 28.6696 18.941C28.9894 18.941 29.291 18.9776 29.5743 19.0507C29.8667 19.1146 30.1088 19.2106 30.3007 19.3385L29.7388 20.8874C29.492 20.7138 29.2042 20.627 28.8752 20.627C28.2264 20.627 27.902 20.9833 27.902 21.6961V22.0114Z" fill="white"/>
</svg>
