<svg width="26" height="26" viewBox="0 0 26 26" fill="none" xmlns="http://www.w3.org/2000/svg">
<path fill-rule="evenodd" clip-rule="evenodd" d="M3.86505 0.0443274C3.79922 0.070259 3.72187 0.151996 3.69321 0.225901C3.66254 0.305148 3.64113 1.12417 3.64113 2.22036V4.08038L3.34963 4.13977C2.97369 4.21632 2.41263 4.49524 2.0976 4.76213C1.7766 5.03415 1.40853 5.58043 1.25911 6.00669C1.09752 6.46755 1.04925 7.39642 1.17689 7.58754C1.26392 7.71782 1.26662 7.71818 2.07846 7.71818H2.89268L2.95233 7.89555C3.03592 8.14387 3.42682 8.48192 3.71906 8.55857L3.95838 8.62138V10.518C3.95838 12.1507 3.96985 12.4307 4.0407 12.5299L4.12298 12.6452H13H21.877L21.9593 12.5299C22.0321 12.4279 22.0416 11.9404 22.0416 8.30304C22.0416 4.26061 22.0398 4.18971 21.9359 4.08775C21.831 3.98485 21.7596 3.98402 13.0793 3.98402H4.3285V2.0948V0.205519L4.18918 0.0980578C4.03409 -0.0216428 4.03288 -0.0218502 3.86505 0.0443274ZM21.3542 8.34054V12.0228H20.5401H19.7261L18.2098 10.7522C17.0384 9.77057 16.6613 9.48184 16.552 9.48293C16.4505 9.48397 16.0522 9.75548 15.1445 10.4424C14.4482 10.9693 13.8731 11.4005 13.8665 11.4005C13.86 11.4005 13.1805 10.759 12.3566 9.97507C11.072 8.7527 10.8358 8.54955 10.699 8.54882C10.5634 8.5481 10.2454 8.80809 8.575 10.2854L6.61043 12.0228H5.62812H4.64575V10.2593V8.49587L4.84837 8.31632C4.95983 8.21752 5.09429 8.04259 5.14722 7.92745L5.24345 7.71818H5.97186C6.56358 7.71818 6.71591 7.70288 6.78343 7.6367C6.84889 7.57244 6.8665 7.43418 6.8665 6.98457C6.8665 6.10456 6.63301 5.51274 6.05603 4.93053L5.78616 4.65824H13.5702H21.3542V8.34054ZM4.3874 4.76223C5.42518 4.95221 6.232 5.90794 6.232 6.94728V7.09582H4.00427H1.7766L1.80155 6.71406C1.86273 5.77917 2.57453 4.9855 3.53538 4.78075C3.9083 4.70129 4.03896 4.69844 4.3874 4.76223ZM2.85186 5.52524C2.56856 5.76838 2.26638 6.17047 2.26638 6.30444C2.26638 6.40028 2.50712 6.62905 2.6079 6.62905C2.653 6.62905 2.89501 6.42834 3.14569 6.18297C3.62907 5.70988 3.68834 5.57877 3.50735 5.38262C3.3528 5.2151 3.16599 5.25571 2.85186 5.52524ZM13.6345 6.93598C12.7261 7.12201 12.246 8.06717 12.6493 8.87572C13.153 9.88555 14.6187 9.88 15.14 8.86628C15.262 8.62895 15.3017 8.18319 15.2248 7.91402C15.1899 7.79203 15.0812 7.58391 14.9832 7.45145C14.6997 7.06849 14.1023 6.84019 13.6345 6.93598ZM14.2012 7.6492C14.4521 7.766 14.5858 7.99482 14.586 8.30776C14.5862 8.53197 14.5633 8.58269 14.381 8.76157C14.1986 8.94039 14.1469 8.9629 13.9183 8.96269C13.5947 8.96249 13.3657 8.83075 13.2412 8.5732C13.073 8.22566 13.2185 7.83695 13.5854 7.65345C13.8123 7.53993 13.9642 7.53889 14.2012 7.6492ZM4.39285 7.83368C4.31042 7.91454 4.21175 7.94923 4.06413 7.94923C3.9165 7.94923 3.81784 7.91454 3.7354 7.83368L3.61765 7.71818H4.06413H4.5106L4.39285 7.83368ZM12.1253 10.6751L13.5197 11.9969L12.0739 12.0107C11.2787 12.0183 9.95667 12.0183 9.13595 12.0107L7.64376 11.9969L9.14541 10.6641C9.97132 9.93103 10.6659 9.33621 10.689 9.34228C10.712 9.3484 11.3583 9.94815 12.1253 10.6751ZM17.647 11.147L18.6636 11.9969L16.5878 12.0105C14.7603 12.0224 14.5022 12.0143 14.4302 11.9427C14.3577 11.8707 14.3574 11.856 14.4276 11.8143C14.4712 11.7885 14.9471 11.4294 15.4851 11.0163C16.0231 10.6032 16.5009 10.2724 16.5469 10.2812C16.5929 10.2899 17.0879 10.6795 17.647 11.147ZM2.97263 14.3604C2.61868 14.4946 2.27553 14.795 2.07952 15.1422L1.92269 15.4199L1.90683 17.1121L1.89097 18.8043L1.64245 18.8371C1.05147 18.9151 0.472752 19.3374 0.192991 19.8946L0.0191909 20.2408L0.00465026 23.018C-0.00766961 25.3731 0.00174214 25.8107 0.066514 25.8976C0.14001 25.9962 0.211603 26 1.97599 26H3.80911L3.91016 25.8776C3.98783 25.7835 4.01125 25.6723 4.01125 25.3978V25.0405H13H21.9887V25.3978C21.9887 25.6723 22.0122 25.7835 22.0898 25.8776L22.1909 26H24.024C25.7884 26 25.86 25.9962 25.9335 25.8976C25.9983 25.8107 26.0077 25.3731 25.9953 23.018L25.9808 20.2408L25.807 19.8946C25.5158 19.3145 24.9186 18.8956 24.2923 18.8322L24.0046 18.8031L23.9881 17.1634L23.9716 15.5236L23.8334 15.2384C23.6671 14.895 23.3773 14.6023 23.0198 14.4163L22.7554 14.2789L18.3852 14.2648C14.0868 14.2509 14.0101 14.2524 13.7244 14.3573C13.5633 14.4164 13.3258 14.5626 13.1911 14.6857L12.9483 14.9074L12.7844 14.7415C12.6942 14.6502 12.4976 14.5089 12.3476 14.4272L12.0747 14.2789L7.65963 14.268C3.36449 14.2575 3.23716 14.26 2.97263 14.3604ZM11.8741 14.9534C12.1916 15.0459 12.488 15.3356 12.5732 15.6366C12.6093 15.764 12.6294 16.756 12.6296 18.415L12.6299 20.9952H8.32786H4.02585L3.99037 20.6554C3.91206 19.9056 3.51835 19.3315 2.86693 19.0169L2.52409 18.8513L2.54064 17.2394C2.55513 15.8291 2.56861 15.6068 2.64861 15.4634C2.77837 15.2308 3.09768 14.989 3.34799 14.9337C3.46558 14.9077 5.37178 14.8839 7.58391 14.8809C11.0236 14.8761 11.6449 14.8866 11.8741 14.9534ZM22.4805 14.9235C22.742 14.9831 22.9976 15.1577 23.1568 15.3854C23.284 15.5675 23.2842 15.5695 23.2995 17.2381L23.3147 18.9085L23.031 19.0656C22.4433 19.3909 22.0832 19.9514 22.0096 20.6554L21.9742 20.9952H17.6457H13.3172V18.3216C13.3172 15.9596 13.3272 15.6288 13.403 15.4821C13.5618 15.1744 13.7788 15.0093 14.1368 14.9238C14.3655 14.8692 22.2407 14.8689 22.4805 14.9235ZM5.37077 16.4837C5.19227 16.6215 5.14457 16.8463 5.25101 17.0482C5.40451 17.3394 5.74841 17.4037 6.00316 17.1887C6.32686 16.9156 6.1134 16.3794 5.68099 16.3794C5.58476 16.3794 5.44517 16.4263 5.37077 16.4837ZM9.21204 16.4551C8.82415 16.7215 9.01756 17.3129 9.49264 17.3129C9.92056 17.3129 10.1316 16.7748 9.81016 16.5035C9.64159 16.3613 9.37944 16.3401 9.21204 16.4551ZM16.0627 16.531C15.9572 16.6344 15.9081 16.7345 15.9081 16.8461C15.9081 17.0689 16.1565 17.3129 16.3834 17.3129C16.6183 17.3129 16.7514 17.2283 16.8386 17.0235C16.9041 16.8698 16.9041 16.8225 16.8386 16.6688C16.6987 16.3404 16.3247 16.2739 16.0627 16.531ZM19.8697 16.531C19.7642 16.6344 19.7151 16.7345 19.7151 16.8461C19.7151 17.0689 19.9635 17.3129 20.1904 17.3129C20.4253 17.3129 20.5584 17.2283 20.6456 17.0235C20.7111 16.8698 20.7111 16.8225 20.6456 16.6688C20.5057 16.3404 20.1317 16.2739 19.8697 16.531ZM5.80075 16.817C5.82465 16.9381 5.74301 17.0134 5.63277 16.9719C5.52977 16.9331 5.51454 16.7628 5.61072 16.7251C5.71409 16.6846 5.78093 16.7169 5.80075 16.817ZM9.60775 16.817C9.63165 16.9381 9.55001 17.0134 9.43977 16.9719C9.33677 16.9331 9.32154 16.7628 9.41772 16.7251C9.52109 16.6846 9.58792 16.7169 9.60775 16.817ZM16.459 16.722C16.5674 16.7628 16.5671 16.9296 16.4586 16.9704C16.3482 17.0119 16.2782 16.9659 16.2782 16.8517C16.2782 16.7078 16.3274 16.6725 16.459 16.722ZM20.266 16.722C20.3744 16.7628 20.3741 16.9296 20.2656 16.9704C20.1552 17.0119 20.0852 16.9659 20.0852 16.8517C20.0852 16.7078 20.1344 16.6725 20.266 16.722ZM5.42994 18.637C5.25831 18.7283 5.15087 19.0088 5.21971 19.1855C5.32229 19.4486 5.58048 19.5737 5.84443 19.4882C6.01781 19.4321 6.17913 19.2234 6.17913 19.0553C6.17913 18.9041 6.05106 18.7045 5.90708 18.6315C5.72562 18.5395 5.61046 18.5408 5.42994 18.637ZM9.2619 18.6197C9.10951 18.6919 8.96479 18.9935 9.01106 19.1424C9.14203 19.5641 9.71218 19.6529 9.90771 19.2819C10.0026 19.102 10.0055 19.0191 9.92294 18.8414C9.81301 18.6048 9.50872 18.5027 9.2619 18.6197ZM16.1379 18.6578C15.8312 18.8412 15.8574 19.3054 16.1838 19.471C16.498 19.6304 16.8653 19.4059 16.8756 19.0481C16.8801 18.8933 16.848 18.8267 16.7111 18.7067C16.5122 18.5324 16.3681 18.5201 16.1379 18.6578ZM19.9853 18.63C19.8448 18.7064 19.7199 18.8972 19.717 19.0399C19.7137 19.2029 19.8635 19.4225 20.0217 19.4868C20.3369 19.6149 20.688 19.3806 20.688 19.0423C20.688 18.8976 20.6498 18.8222 20.518 18.7066C20.3333 18.5448 20.1821 18.523 19.9853 18.63ZM5.79906 19.0381C5.82011 19.1453 5.66751 19.2175 5.58693 19.1385C5.50635 19.0594 5.58 18.9098 5.68924 18.9304C5.73989 18.9399 5.78933 18.9884 5.79906 19.0381ZM9.60606 19.0381C9.6271 19.1453 9.47451 19.2175 9.39393 19.1385C9.31334 19.0594 9.387 18.9098 9.49624 18.9304C9.54689 18.9399 9.59633 18.9884 9.60606 19.0381ZM16.5162 19.0503C16.5162 19.2048 16.3098 19.1894 16.2872 19.0332C16.2727 18.9326 16.2905 18.9152 16.393 18.9295C16.4751 18.9409 16.5162 18.9812 16.5162 19.0503ZM20.3232 19.0503C20.3232 19.2048 20.1168 19.1894 20.0942 19.0332C20.0797 18.9326 20.0975 18.9152 20.2 18.9295C20.2821 18.9409 20.3232 18.9812 20.3232 19.0503ZM2.49665 19.5625C2.74484 19.6642 3.04671 19.9391 3.18159 20.1864C3.29548 20.3952 3.2977 20.4402 3.31262 22.8752L3.32779 25.3517H1.97509H0.622442L0.63804 22.9012C0.653479 20.4807 0.655171 20.4477 0.772501 20.2141C1.01393 19.7336 1.40594 19.4964 1.96404 19.4932C2.16126 19.4921 2.40094 19.5233 2.49665 19.5625ZM24.6569 19.635C24.9885 19.8138 25.2405 20.1362 25.315 20.4769C25.3519 20.6454 25.3727 21.5756 25.3727 23.0463V25.3517H24.0225H22.6722L22.6874 22.8752C22.7023 20.4402 22.7045 20.3952 22.8184 20.1864C22.9499 19.9454 23.2507 19.6676 23.4916 19.5647C23.5811 19.5265 23.8209 19.4948 24.0244 19.4944C24.329 19.4937 24.441 19.5186 24.6569 19.635ZM21.9887 23.0179V24.3663H13H4.01125V23.0179V21.6694H13H21.9887V23.0179Z" fill="black"/>
</svg>
