<svg width="29" height="15" viewBox="0 0 29 15" fill="none" xmlns="http://www.w3.org/2000/svg">
<path fill-rule="evenodd" clip-rule="evenodd" d="M12.9097 0.0356985C12.5029 0.158427 12.1414 0.458091 11.9295 0.848213C11.829 1.03317 11.8183 1.23441 11.8023 3.22947L11.785 5.40869H10.6275C9.57421 5.40869 9.44709 5.41954 9.21576 5.52922C8.90439 5.67689 8.59084 6.02476 8.49925 6.32413C8.45016 6.48461 8.43083 7.69008 8.43083 10.5932V14.6386L8.57292 14.8006C8.7149 14.9625 8.71579 14.9626 9.57504 14.9813L10.4351 15L10.6117 14.827L10.7883 14.654V13.1486V11.6433H18.7154H26.6425V13.1409V14.6386L26.7847 14.8006L26.927 14.9626H27.8213H28.7155L28.8578 14.8006L29 14.6386L28.9987 10.5288C28.9973 5.9377 29.0186 6.1801 28.5799 5.77243C28.2227 5.44044 28.0665 5.40869 26.7917 5.40869H25.6406V3.32276C25.6406 1.89095 25.6188 1.16577 25.5713 1.01025C25.4835 0.723349 25.1094 0.304131 24.7935 0.138626L24.5502 0.0111641L18.8038 0.00111934C15.6433 -0.0044225 12.9909 0.0111643 12.9097 0.0356985ZM2.56178 0.275267C2.46188 0.303669 2.33899 0.372769 2.28866 0.428823C2.16141 0.570486 1.24046 3.07349 1.24046 3.27768C1.24046 3.38003 1.3067 3.51673 1.41244 3.63264C1.57776 3.81391 1.60416 3.82199 2.09464 3.84173L2.60486 3.86222L2.48946 3.98605C2.2817 4.20888 2.16613 4.50658 2.13908 4.88868C2.11497 5.22927 2.13106 5.29941 2.31129 5.6396C2.46029 5.92079 2.58164 6.06187 2.79546 6.20244L3.08084 6.39006H1.87468C0.717682 6.39006 0.660394 6.39542 0.469673 6.52133C0.360285 6.59349 0.209876 6.74115 0.135379 6.84939L0 7.04619L0.0160899 10.3405L0.0322388 13.6349L0.169504 13.8233C0.458651 14.2204 0.375609 14.2102 3.48008 14.2299C5.01982 14.2396 6.39342 14.2313 6.53257 14.2115C6.82908 14.1692 7.17045 13.9043 7.29033 13.6232C7.35386 13.4742 7.36995 12.8039 7.36995 10.3007V7.16499L7.23734 6.91076C6.98922 6.43514 6.94307 6.42134 5.53452 6.4012L4.29678 6.38353L4.53653 6.21341C5.26082 5.69946 5.42773 4.8515 4.9498 4.1134L4.7793 3.85004H5.16298C5.67261 3.85004 5.93506 3.73875 6.04769 3.47476C6.15619 3.22041 6.15172 3.20327 5.58108 1.6904C5.34262 1.05823 5.09114 0.483549 5.02218 0.41341C4.95322 0.343213 4.81342 0.269495 4.71152 0.249521C4.4364 0.195603 2.77171 0.215577 2.56178 0.275267ZM24.6057 0.910674C24.7217 1.01049 24.839 1.18159 24.8726 1.30034C24.9079 1.42474 24.9328 2.31576 24.933 3.46038L24.9333 5.40869H24.6092H24.285V4.67647C24.285 3.83498 24.2 3.57653 23.8229 3.27104C23.4522 2.97068 23.1769 2.92623 21.6958 2.92779C20.9642 2.9286 20.2499 2.95538 20.1084 2.98731C19.714 3.07638 19.3695 3.33962 19.1928 3.68702C19.0528 3.96227 19.0396 4.04926 19.0396 4.69841V5.40869H18.7528H18.4661L18.4381 4.69541C18.4058 3.87487 18.2965 3.5688 17.9292 3.27069C17.541 2.95556 17.2646 2.91532 15.6348 2.93639C14.2396 2.95446 14.1662 2.96104 13.9193 3.09006C13.3093 3.40878 13.1489 3.74359 13.1471 4.70153L13.1458 5.40869H12.8511H12.5564L12.5573 3.34493C12.5583 1.08957 12.5577 1.09356 12.9049 0.864377L13.1043 0.732758H18.7515H24.3988L24.6057 0.910674ZM4.90371 2.0172L5.29594 3.07072L3.70139 3.08608C2.82434 3.09456 2.09676 3.09162 2.0845 3.07961C2.06694 3.06247 2.60604 1.55162 2.80342 1.06469C2.83972 0.975156 2.93898 0.963668 3.67793 0.963668H4.51149L4.90371 2.0172ZM17.3323 3.76443C17.6136 3.90691 17.684 4.11409 17.684 4.79966V5.40869H15.798H13.912L13.9139 4.73039C13.9158 4.02074 13.9352 3.95747 14.2051 3.77523C14.3324 3.68927 14.5284 3.67686 15.7551 3.67686C16.8951 3.67686 17.1919 3.69337 17.3323 3.76443ZM23.2317 3.76726C23.4942 3.90027 23.5778 4.15675 23.5778 4.82957V5.40869H21.6549H19.732L19.7581 4.75925C19.8017 3.67657 19.7949 3.68044 21.6505 3.67842C22.8107 3.67715 23.084 3.69251 23.2317 3.76726ZM4.11719 4.31337C4.46192 4.51922 4.57803 4.99392 4.36673 5.33341C3.93419 6.02822 2.89071 5.76637 2.89071 4.96303C2.89071 4.69939 3.08096 4.38131 3.30504 4.27024C3.52417 4.16166 3.8963 4.1814 4.11719 4.31337ZM28.0706 6.31888L28.2633 6.50753L28.2817 7.94968L28.3002 9.39189H18.7486H9.19701V7.96157C9.19701 6.73348 9.21057 6.51221 9.29296 6.39698C9.5118 6.09103 9.06193 6.10419 18.8174 6.1177L27.8779 6.13028L28.0706 6.31888ZM6.59015 8.48268L6.60601 9.79598H3.65801H0.71002V8.57989C0.71002 7.84819 0.73442 7.31912 0.771315 7.25164C0.830959 7.14253 0.91247 7.13982 3.70345 7.15443L6.5743 7.16938L6.59015 8.48268ZM2.69356 7.76565C2.56472 7.90506 2.56961 8.13828 2.70381 8.25725C2.79405 8.33726 2.95595 8.35279 3.6985 8.35279C4.67816 8.35279 4.73739 8.33241 4.73739 7.99517C4.73739 7.69602 4.62129 7.66006 3.65477 7.66006C2.89289 7.66006 2.77961 7.67253 2.69356 7.76565ZM28.2928 10.5176V10.8928H18.7449H9.19701V10.5176V10.1423H18.7449H28.2928V10.5176ZM6.60377 11.9492C6.60377 12.9633 6.58414 13.3712 6.53304 13.4213C6.48 13.4732 5.75813 13.4905 3.64717 13.4905C0.924257 13.4905 0.830016 13.4869 0.77102 13.3789C0.733948 13.311 0.71002 12.7342 0.71002 11.9068V10.5464H3.65689H6.60377V11.9492ZM2.71389 11.1814C2.64906 11.2449 2.59602 11.3618 2.59602 11.4412C2.59602 11.5206 2.64906 11.6375 2.71389 11.701C2.82057 11.8055 2.91033 11.8164 3.65954 11.8164C4.45992 11.8164 4.49215 11.8118 4.63201 11.6747C4.71158 11.5968 4.7767 11.4917 4.7767 11.4412C4.7767 11.3907 4.71158 11.2856 4.63201 11.2077C4.49215 11.0707 4.45992 11.066 3.65954 11.066C2.91033 11.066 2.82057 11.077 2.71389 11.1814ZM10.0811 12.9421V14.241H9.63904H9.19701V12.9421V11.6433H9.63904H10.0811V12.9421ZM28.2928 12.9421V14.241H27.8213H27.3498V12.9421V11.6433H27.8213H28.2928V12.9421Z" fill="black"/>
</svg>
