<svg width="12" height="23" viewBox="0 0 12 23" fill="none" xmlns="http://www.w3.org/2000/svg">
<path fill-rule="evenodd" clip-rule="evenodd" d="M1.24112 0.103921C1.19924 0.161047 1.16493 0.240518 1.16493 0.280488C1.16493 0.320457 1.19924 0.399929 1.24112 0.457055C1.31506 0.557937 1.3433 0.560976 2.20019 0.560976H3.08311L3.06603 3.28404L3.0489 6.00711L2.86026 6.33435C2.75652 6.51433 2.66844 6.66514 2.66447 6.66944C2.66051 6.67379 2.47011 6.70165 2.24139 6.73138C1.7381 6.79678 1.60534 6.88719 1.60534 7.16464C1.60534 7.32503 1.64234 7.38431 1.9059 7.64652L2.2064 7.94552L2.15057 8.21123C2.06708 8.60826 2.07917 8.82055 2.19133 8.92769C2.36867 9.09711 2.50377 9.09215 2.93097 8.90063L3.32851 8.72242L3.68094 8.89576C4.16309 9.13287 4.38407 9.12759 4.52045 8.87562C4.58255 8.76094 4.58505 8.68068 4.5369 8.35176L4.47998 7.96338L4.80432 7.66106C5.05002 7.43204 5.12861 7.32737 5.12861 7.22915C5.12861 6.93506 4.98866 6.83862 4.44818 6.76032L4.07652 6.70646L3.86645 6.32177L3.65637 5.93713L3.69077 3.24903L3.72517 0.560976H4.69603H5.66689V7.00275V13.4445L5.21243 13.4993C2.69839 13.8027 0.635757 15.6233 0.11216 18.0011C-0.180907 19.332 0.108343 20.8371 0.886251 22.0295C1.21299 22.5303 1.31859 22.626 1.54432 22.626C1.71632 22.626 1.76722 22.5918 2.13305 22.2307C2.60262 21.7671 2.96028 21.5049 3.46034 21.2576C3.84037 21.0696 3.90281 21.0755 3.90452 21.2991C3.90613 21.5165 4.24657 22.0533 4.56097 22.3342C5.17451 22.8825 5.93641 23.0759 6.71726 22.8816C7.33779 22.7272 7.91904 22.282 8.19899 21.7469L8.34858 21.4609L8.65926 21.6864C9.01717 21.9463 9.38638 22.3093 9.65204 22.6626C9.863 22.9431 9.95093 23 10.1734 23C10.3661 23 10.628 22.7478 11.0286 22.1764C11.4608 21.56 11.7433 20.9089 11.9173 20.1279C12.0294 19.6249 12.0271 18.4886 11.9131 18.0055C11.4251 15.9382 9.92549 14.3606 7.84446 13.7257C7.44428 13.6036 6.69538 13.4634 6.44342 13.4634H6.30303V7.0122V0.560976H7.45299H8.60294V4.65526V8.74949L8.43353 8.947C8.34036 9.05564 8.194 9.28761 8.10836 9.46249C7.89521 9.89767 7.85513 10.4948 8.01079 10.9157C8.23716 11.5277 8.73433 11.9991 9.37361 12.208C10.0205 12.4193 11.0399 12.3123 11.4296 11.9921C11.6702 11.7943 11.569 11.4123 11.256 11.3372C10.777 11.2224 10.2176 10.7765 10.0109 10.3449C9.9251 10.1657 9.90332 10.0322 9.902 9.67683C9.90043 9.27349 9.91497 9.20173 10.0603 8.89506C10.2111 8.57643 10.2163 8.54843 10.1508 8.39883C10.0429 8.15205 9.84044 8.1061 9.47779 8.24601L9.19015 8.35704V4.45901V0.560976H9.91658C10.5582 0.560976 10.6525 0.550972 10.724 0.475474C10.831 0.362577 10.8269 0.173715 10.7155 0.0773679C10.6336 0.00649795 10.2339 0 5.97165 0H1.31727L1.24112 0.103921ZM3.46685 6.88364C3.56129 7.11214 3.70536 7.24131 3.90085 7.27268C4.26277 7.33074 4.26232 7.32994 4.04515 7.52731C3.84487 7.70935 3.84467 7.70986 3.86469 8.01003L3.8847 8.31048L3.62388 8.18828C3.34696 8.05855 3.32807 8.06005 2.8697 8.24788C2.79738 8.27752 2.79141 8.24943 2.81563 7.99428L2.84289 7.70738L2.6359 7.5059L2.42895 7.30446L2.70856 7.27109C3.01093 7.235 3.15685 7.13084 3.26964 6.87069C3.34681 6.69272 3.38909 6.69548 3.46685 6.88364ZM9.29091 9.21487C9.18266 9.66341 9.27055 10.2573 9.51278 10.7139C9.63438 10.9431 10.1528 11.4856 10.4135 11.6563C10.5327 11.7344 10.5247 11.736 10.1082 11.7201C9.73665 11.7059 9.63751 11.6828 9.35159 11.5435C8.41552 11.0873 8.25874 9.97214 9.02446 9.21692C9.16852 9.07481 9.29854 8.97009 9.31337 8.98426C9.3282 8.99842 9.31812 9.1022 9.29091 9.21487ZM6.96364 14.1242C7.64075 14.2361 8.4397 14.5437 9.06782 14.9342C9.49462 15.1996 10.3026 15.9931 10.5782 16.4177C11.5609 17.9312 11.6541 19.7775 10.8262 21.3295C10.6349 21.688 10.3208 22.1509 10.2083 22.2401C10.1529 22.2841 10.0998 22.2459 9.93288 22.0417C9.44926 21.4501 8.52215 20.8019 7.75599 20.5196C6.94363 20.2204 6.70229 20.1792 5.74029 20.1761C4.9293 20.1734 4.81871 20.1834 4.34566 20.3024C3.41772 20.5358 2.47989 21.0446 1.82555 21.6697L1.5612 21.9223L1.46637 21.795C1.29089 21.5594 0.980157 20.9226 0.856157 20.5446C0.594555 19.7471 0.560741 18.7291 0.769054 17.9215C1.15931 16.4087 2.35301 15.0687 3.84144 14.4727C4.8491 14.0691 5.91249 13.9505 6.96364 14.1242ZM6.74344 20.8463C7.15473 20.9336 7.65831 21.1002 7.73964 21.1758C7.80683 21.2384 7.47794 21.7769 7.26733 21.9491C6.90977 22.2415 6.67625 22.3196 6.15623 22.321C5.75506 22.322 5.65446 22.3054 5.42221 22.2002C4.93033 21.9774 4.52814 21.4702 4.5205 21.0631L4.51693 20.873L4.78607 20.819C5.22897 20.7303 6.26437 20.7447 6.74344 20.8463Z" fill="black"/>
</svg>
