<svg width="21" height="26" viewBox="0 0 21 26" fill="none" xmlns="http://www.w3.org/2000/svg">
<path fill-rule="evenodd" clip-rule="evenodd" d="M5.92227 0.110143C5.24754 0.339037 4.78098 0.756763 4.45323 1.42542L4.25893 1.82179L4.2443 6.20813C4.23016 10.4678 4.23284 10.6044 4.33698 10.9382C4.47252 11.3727 4.62471 11.6175 4.97791 11.9696C5.28857 12.2793 5.7668 12.5346 6.20352 12.6242C6.36787 12.6579 7.07277 12.6825 7.87762 12.6825H9.26786V13.026V13.3695L6.01339 13.3697C2.89436 13.3699 2.75186 13.3742 2.58959 13.4718C2.49648 13.5278 2.40445 13.6228 2.38511 13.683C2.36577 13.7431 2.33036 13.7923 2.30641 13.7923C2.20988 13.7923 1.81586 13.3558 1.67593 13.0938L1.52679 12.8146L1.51077 10.5288L1.49475 8.24306H1.79443C2.04123 8.24306 2.11736 8.22018 2.22563 8.11332C2.34873 7.99192 2.35714 7.94769 2.35714 7.42389C2.35714 6.90009 2.34873 6.85586 2.22563 6.73446C2.0963 6.60683 2.07927 6.60472 1.17857 6.60472C0.277875 6.60472 0.260839 6.60683 0.131518 6.73446C0.00803581 6.85628 0 6.89914 0 7.43869C0 7.97094 0.0091071 8.02173 0.123964 8.12817C0.218357 8.21564 0.314304 8.24306 0.52575 8.24306H0.803571L0.804 10.3174C0.804214 11.4655 0.828804 12.5452 0.859018 12.7353C0.966964 13.4138 1.46748 14.1209 2.05907 14.4305L2.30357 14.5585L2.30668 14.8756C2.31573 15.8058 2.85889 16.7035 3.65293 17.1005C4.19925 17.3736 4.34148 17.3861 6.89518 17.3861H9.26786V18.0488C9.26786 18.6196 9.25345 18.7315 9.1642 18.8548C9.08582 18.9631 8.98768 19.4427 8.76182 20.8214C8.59757 21.8242 8.46343 22.7112 8.4637 22.7924C8.46407 22.8782 8.51941 22.9945 8.59575 23.0699L8.72721 23.1995L8.127 23.5851C7.79689 23.7972 7.49062 23.993 7.44643 24.0201C7.40223 24.0474 7.19545 24.0837 6.98695 24.1009C6.59132 24.1335 6.43479 24.2096 6.23802 24.465C6.0772 24.6738 6.09123 25.231 6.26304 25.4569C6.62277 25.9299 7.36045 25.9025 7.73614 25.4022C7.82255 25.2871 7.84859 25.1735 7.84988 24.9058L7.85148 24.5587L8.88113 23.9056C9.44743 23.5464 9.92282 23.2525 9.9375 23.2525C9.95223 23.2525 9.96429 23.4896 9.96429 23.7796V24.3066L9.72654 24.5413C9.36938 24.8936 9.34205 25.3207 9.6518 25.7092C9.87755 25.9923 10.3821 26.0859 10.7511 25.9131C11.3156 25.6488 11.3722 24.7896 10.8472 24.4542L10.6621 24.3359L10.6614 23.7642C10.6607 23.1976 10.6618 23.1927 10.7842 23.2093C10.8521 23.2185 11.3791 23.4986 11.9553 23.8318L13.0029 24.4376L12.9244 24.623C12.687 25.1834 13.119 25.7892 13.7561 25.7892C14.2748 25.7892 14.625 25.4598 14.625 24.9718C14.625 24.4997 14.3733 24.191 13.919 24.1057C13.73 24.0702 13.0428 23.708 12.3296 23.268L12.2038 23.1904L12.3158 23.113C12.5556 22.9472 12.5549 22.9263 12.2408 20.9933C12.0766 19.9831 11.9071 19.0607 11.864 18.9434C11.8108 18.7984 11.7857 18.5152 11.7857 18.0582V17.3861L14.1027 17.3853C15.9838 17.3847 16.4845 17.3695 16.7642 17.3044C17.85 17.0519 18.6429 16.0602 18.6429 14.9545V14.5952L18.9318 14.4343C19.5623 14.0832 20.0314 13.4241 20.141 12.7353C20.1712 12.5452 20.1958 11.4655 20.196 10.3174L20.1964 8.24306H20.4818C20.7107 8.24306 20.7901 8.21891 20.8835 8.12077C20.9882 8.01084 21 7.94087 21 7.43129C21 6.89962 20.9918 6.85607 20.8685 6.73446C20.7392 6.60683 20.7221 6.60472 19.8214 6.60472C18.9207 6.60472 18.9037 6.60683 18.7744 6.73446C18.6513 6.85586 18.6429 6.90009 18.6429 7.42389C18.6429 7.94769 18.6513 7.99192 18.7744 8.11332C18.8826 8.22018 18.9588 8.24306 19.2056 8.24306H19.5052L19.4892 10.5288L19.4732 12.8146L19.3456 13.0508C19.1697 13.3763 19.0339 13.5494 18.8475 13.6853L18.6887 13.8011L18.5112 13.5985L18.3338 13.3959L15.0597 13.3815L11.7857 13.3671V13.0248V12.6825H13.1673C14.6633 12.6825 14.912 12.65 15.44 12.3861C15.7956 12.2083 16.2872 11.7234 16.4674 11.3726C16.7659 10.7915 16.7662 10.7855 16.7671 6.36087C16.7675 3.80642 16.7474 2.17927 16.7132 2.00101C16.6306 1.5716 16.3771 1.08861 16.0614 0.759247C15.7306 0.414242 15.4428 0.236032 14.9933 0.0980408C14.687 0.00402071 14.4349 -0.00142283 10.4551 0.000215521C6.35138 0.00195957 6.23271 0.00486631 5.92227 0.110143ZM10.1839 2.01998C10.1869 2.78303 10.2059 3.46675 10.2264 3.53942C10.2775 3.72159 10.5113 3.82935 10.6731 3.74532C10.7399 3.71055 10.8124 3.65595 10.834 3.62398C10.8557 3.592 10.8737 2.90591 10.8742 2.09926L10.875 0.632671H12.582C14.3353 0.632671 14.7028 0.6638 15.0806 0.844229C15.3927 0.993266 15.7427 1.35222 15.9049 1.68967L16.0446 1.98034V6.34047V10.7006L15.8874 11.0068C15.7037 11.3644 15.3629 11.6936 15.0094 11.8548C14.773 11.9626 14.6675 11.9699 13.1315 11.9851C11.811 11.9982 11.5087 11.9882 11.5287 11.9323C12.1476 10.1919 12.1849 10.0578 12.0898 9.9146C12.0205 9.81033 11.9528 9.77571 11.8178 9.77571C11.719 9.77571 11.6102 9.8089 11.576 9.84949C11.5419 9.89008 11.3494 10.3836 11.1483 10.9461L10.7826 11.969H10.5529H10.3233L9.96166 10.9502C9.76275 10.3899 9.57059 9.89642 9.53454 9.85356C9.49848 9.81075 9.38818 9.77571 9.28934 9.77571C9.15439 9.77571 9.08663 9.81033 9.01736 9.9146C8.92211 10.058 8.95639 10.1813 9.5782 11.9315C9.59775 11.9865 9.27664 11.9967 7.92177 11.9844L6.24107 11.969L5.93813 11.8289C5.38827 11.5746 5.02896 11.0959 4.92707 10.482C4.85304 10.0362 4.85877 2.53548 4.93345 2.13704C5.07327 1.39101 5.58691 0.860243 6.31993 0.704494C6.51273 0.663482 7.23766 0.639964 8.39732 0.63711L10.1786 0.632671L10.1839 2.01998ZM1.66071 7.45032V7.60887H1.15179H0.642857V7.45032V7.29177H1.15179H1.66071V7.45032ZM20.3571 7.45032V7.60887H19.8482H19.3393V7.45032V7.29177H19.8482H20.3571V7.45032ZM11.0893 13.026V13.3695H10.5268H9.96429V13.026V12.6825H10.5268H11.0893V13.026ZM17.9989 14.4397C17.9958 15.5527 17.7012 16.1448 16.9578 16.5319L16.6875 16.6726H10.5H4.3125L4.00639 16.5243C3.66182 16.3574 3.33793 16.0256 3.15632 15.6535C3.05502 15.4459 3.0307 15.2915 3.01098 14.7304L2.98736 14.0566H10.4937H18L17.9989 14.4397ZM11.0893 18.0203V18.6545H10.5268H9.96429V18.0203V17.3861H10.5268H11.0893V18.0203ZM11.5321 20.9088C11.6724 21.7706 11.7785 22.4845 11.7677 22.4951C11.7569 22.5057 11.1711 22.5081 10.4659 22.5003L9.18375 22.4861L9.37907 21.297C9.48648 20.643 9.60402 19.9355 9.64023 19.7247L9.70613 19.3416L10.4914 19.3417L11.2768 19.3419L11.5321 20.9088ZM7.14579 24.8512C7.21457 24.9589 7.13802 25.1186 7.00521 25.1445C6.92196 25.1607 6.75 25.0254 6.75 24.9436C6.75 24.8619 6.92196 24.7266 7.00521 24.7428C7.05005 24.7515 7.11332 24.8003 7.14579 24.8512ZM13.898 24.8153C13.9443 24.861 13.9821 24.9188 13.9821 24.9436C13.9821 25.0115 13.8231 25.1551 13.748 25.1551C13.6556 25.1551 13.5536 25.0441 13.5536 24.9436C13.5536 24.8432 13.6556 24.7323 13.748 24.7323C13.7841 24.7323 13.8516 24.7696 13.898 24.8153ZM10.4695 25.0137C10.5808 25.094 10.5477 25.2842 10.4137 25.335C10.2116 25.4115 10.0374 25.1569 10.1893 25.0071C10.2724 24.9251 10.3491 24.9269 10.4695 25.0137Z" fill="black"/>
</svg>
