<svg width="49" height="14" viewBox="0 0 49 14" fill="none" xmlns="http://www.w3.org/2000/svg">
<path d="M13.0211 0.22461V0.230588C13.0152 0.230588 11.1331 0.224609 10.6312 2.02388C10.1711 3.67371 8.87461 8.22668 8.83876 8.35221H8.48027C8.48027 8.35221 7.15386 3.69762 6.68782 2.0179C6.18594 0.218631 4.29789 0.22461 4.29789 0.22461H0V13.9094H4.29989V5.78176H4.65837L7.1678 13.9094H10.1532L12.6627 5.78774H13.0211V13.9094H17.321V0.22461H13.0211ZM28.729 0.22461C28.729 0.22461 27.4683 0.338184 26.8768 1.6593L23.8316 8.35221H23.4731V0.22461H19.1732V13.9094H23.2341C23.2341 13.9094 24.5546 13.7899 25.1461 12.4748L28.1315 5.78182H28.49V13.9094H32.7899V0.22461H28.729ZM34.7018 6.43936V13.9094H39.0017V9.54774H43.6601C45.6916 9.54774 47.4103 8.25059 48.0496 6.44136H34.7018V6.43936Z" fill="#4DB45E"/>
<path d="M43.662 0.224609H34.0983C34.5763 2.83086 36.53 4.92104 39.0554 5.60249C39.6417 5.76136 40.2464 5.84178 40.8538 5.84166H48.2248C48.2905 5.53082 48.3203 5.21401 48.3203 4.88524C48.3204 2.31081 46.2352 0.224609 43.662 0.224609Z" fill="url(#paint0_linear_156_1604)"/>
<defs>
<linearGradient id="paint0_linear_156_1604" x1="34.0983" y1="3.03312" x2="48.3204" y2="3.03312" gradientUnits="userSpaceOnUse">
<stop offset="0.3" stop-color="#00B4E6"/>
<stop offset="1" stop-color="#088CCB"/>
</linearGradient>
</defs>
</svg>
