<svg width="16" height="21" viewBox="0 0 16 21" fill="none" xmlns="http://www.w3.org/2000/svg">
<path d="M6.97083 0.0702284C3.55338 0.459791 0.147977 3.2831 0.00742327 7.3161C-0.0809245 9.77854 0.60377 11.6259 2.8988 12.1446C3.89472 10.3506 2.57754 9.95487 2.37273 8.65701C1.53142 3.33846 8.38038 -0.28858 11.9645 3.42457C14.4443 5.99568 12.8118 13.9059 8.81208 13.0837C4.981 12.2984 10.6875 6.00183 7.62943 4.76548C5.14364 3.76082 3.82244 7.83893 5.00108 9.86466C4.31036 13.3482 2.8225 16.6307 3.42488 21C5.37857 19.5525 6.03716 16.7804 6.57728 13.8895C7.55915 14.4984 8.08321 15.132 9.33614 15.2304C13.9563 15.5953 16.5365 10.5208 15.906 5.83986C15.3458 1.68999 11.2898 -0.421851 6.97083 0.0702284Z" fill="#CB2027"/>
</svg>
