<svg width="28" height="17" viewBox="0 0 28 17" fill="none" xmlns="http://www.w3.org/2000/svg">
<path fill-rule="evenodd" clip-rule="evenodd" d="M13.233 16.67H14.8447C14.8447 16.67 15.3315 16.6138 15.5801 16.332C15.8089 16.0732 15.8015 15.5874 15.8015 15.5874C15.8015 15.5874 15.7701 13.3129 16.7738 12.9779C17.7632 12.648 19.0338 15.1762 20.3805 16.1483C21.3988 16.884 22.1726 16.7227 22.1726 16.7227L25.7735 16.67C25.7735 16.67 27.6571 16.5479 26.764 14.9903C26.6908 14.8628 26.2438 13.838 24.0867 11.7321C21.8289 9.52807 22.1313 9.88457 24.851 6.07204C26.5074 3.75017 27.1696 2.33265 26.9628 1.72552C26.7655 1.14727 25.5472 1.30011 25.5472 1.30011L21.4929 1.32668C21.4929 1.32668 21.1924 1.28356 20.9694 1.42369C20.7516 1.56113 20.6114 1.88145 20.6114 1.88145C20.6114 1.88145 19.9697 3.67818 19.1139 5.2062C17.3086 8.43047 16.5867 8.60064 16.2917 8.40044C15.6053 7.93384 15.7767 6.52594 15.7767 5.52574C15.7767 2.40118 16.2273 1.09838 14.8992 0.761131C14.4585 0.6491 14.1342 0.575182 13.0071 0.563247C11.5605 0.547463 10.3361 0.567867 9.64277 0.925135C9.18155 1.16267 8.82575 1.69203 9.04245 1.72244C9.3104 1.76017 9.91731 1.89453 10.2391 2.35536C10.6545 2.94979 10.6399 4.28492 10.6399 4.28492C10.6399 4.28492 10.8786 7.96309 10.0824 8.42008C9.53589 8.73346 8.78622 8.09361 7.1767 5.16847C6.35199 3.6701 5.72934 2.01388 5.72934 2.01388C5.72934 2.01388 5.60928 1.70435 5.39514 1.5388C5.13525 1.33823 4.77213 1.27432 4.77213 1.27432L0.91946 1.30088C0.91946 1.30088 0.341103 1.31782 0.128795 1.58231C-0.0600868 1.81754 0.113786 2.30416 0.113786 2.30416C0.113786 2.30416 3.13003 9.72595 6.54527 13.4661C9.67682 16.8952 13.233 16.67 13.233 16.67Z" fill="#4D76A1"/>
</svg>
