<svg width="25" height="25" viewBox="0 0 25 25" fill="none" xmlns="http://www.w3.org/2000/svg">
<path d="M0.350264 12.2284C0.349668 14.3796 0.911763 16.4801 1.98057 18.3315L0.248047 24.6573L6.72166 22.9599C8.51217 23.9346 10.5183 24.4454 12.557 24.4455H12.5623C19.2923 24.4455 24.7706 18.9691 24.7735 12.238C24.7748 8.97629 23.5057 5.90918 21.1999 3.60166C18.8946 1.29433 15.8286 0.022973 12.5618 0.0214844C5.83108 0.0214844 0.353142 5.49754 0.350363 12.2284" fill="#60DE76"/>
<path d="M9.4027 6.93775C9.16591 6.41148 8.91672 6.40086 8.69155 6.39163C8.50716 6.38369 8.29637 6.38429 8.08579 6.38429C7.875 6.38429 7.53253 6.46358 7.24304 6.77966C6.95326 7.09604 6.13672 7.86058 6.13672 9.41557C6.13672 10.9707 7.26934 12.4734 7.42723 12.6845C7.58532 12.8952 9.61378 16.1884 12.8264 17.4553C15.4963 18.5081 16.0397 18.2987 16.6191 18.2459C17.1987 18.1933 18.4892 17.4816 18.7525 16.7435C19.016 16.0056 19.016 15.373 18.937 15.2408C18.858 15.1092 18.6472 15.0301 18.3311 14.8721C18.0149 14.714 16.461 13.9493 16.1713 13.8438C15.8816 13.7385 15.6709 13.6859 15.4601 14.0023C15.2493 14.3183 14.644 15.0301 14.4596 15.2408C14.2753 15.4521 14.0908 15.4784 13.7748 15.3203C13.4585 15.1617 12.4406 14.8284 11.233 13.7517C10.2934 12.914 9.65904 11.8794 9.47465 11.5629C9.29026 11.2469 9.4549 11.0757 9.61339 10.9182C9.7554 10.7765 9.92956 10.5491 10.0878 10.3646C10.2453 10.18 10.2979 10.0483 10.4033 9.83753C10.5088 9.62655 10.456 9.44196 10.3771 9.28388C10.2979 9.12579 9.68375 7.56276 9.4027 6.93785" fill="white"/>
</svg>
