<svg width="245" height="67" viewBox="0 0 245 67" fill="none" xmlns="http://www.w3.org/2000/svg">
<path d="M31.8497 4.5C30.3046 12.5793 28.966 20.8382 27.9084 28.9906H28.0149C30.0518 24.7405 32.8265 20.7634 35.1273 16.6415L36.9302 13.5283C37.1433 13.1504 37.5894 12.6252 37.5858 12.1792C37.5804 11.5236 36.5851 10.6168 36.201 10.1038C34.8877 8.34997 33.5751 5.86829 31.8497 4.5Z" fill="#69C22C"/>
<path d="M39.7323 14.7736C37.0145 17.8139 34.5202 21.0689 31.9349 24.217C30.7263 25.6887 28.9094 27.2682 28.1214 28.9906C30.2177 28.0371 32.198 26.7087 34.1932 25.5672C37.4583 23.6989 40.7634 21.8883 43.9932 19.9623C43.0977 18.2533 41.2149 16.0358 39.7323 14.7736Z" fill="#07752C"/>
<path d="M34.6193 27.3302V27.434C39.3373 27.437 44.0634 27.6415 48.7867 27.6415L52.6214 27.7452C53.0678 27.7473 53.7661 27.8713 54.1777 27.6827C54.7607 27.4155 55.0482 26.2009 55.312 25.6698C56.2919 23.697 57.9796 21.2854 58.3736 19.1321C56.2779 19.6045 54.2215 20.537 52.1954 21.2395C46.3907 23.2521 40.5604 25.7503 34.6193 27.3302Z" fill="#FAC500"/>
<path d="M34.5128 27.5377V27.6415L44.7388 33.6189C46.5903 34.7011 48.4292 35.987 50.3845 36.8774C51.1124 34.7941 52.2169 32.8398 52.941 30.7547C50.329 30.1278 47.5997 29.8267 44.9519 29.3617C41.4877 28.7531 38.0024 27.9768 34.5128 27.5377Z" fill="#EE7D07"/>
<path d="M13.9541 31.066C12.9264 32.9458 12.0984 35.1704 11.3975 37.1887C17.5229 38.313 23.7493 39.4329 29.9323 40.1981C27.8654 38.5123 25.0236 37.3232 22.6888 36.0032C19.8326 34.3881 16.9856 32.3386 13.9541 31.066Z" fill="#043292"/>
<path d="M25.7201 17.3629C23.5353 17.4358 21.1437 17.8495 18.9991 18.2673C21.0623 23.9973 23.1799 29.8104 25.5912 35.4095C26.0564 32.8228 25.6926 29.8306 25.6986 27.2009C25.7062 23.9836 26.1046 20.5568 25.7201 17.3629Z" fill="#078697"/>
<path d="M39.0932 32.7264C39.2001 32.979 39.2858 33.1793 39.3062 33.4528C39.7419 33.5885 39.9247 34.1209 40.1424 34.4906L41.8842 37.3962C43.566 40.1475 45.2168 42.921 46.8533 45.6981C47.4653 46.7366 48.175 48.6381 49.1466 49.371C49.6878 49.7792 51.2289 49.3307 51.8758 49.256C54.1708 48.9913 56.5962 48.61 58.9062 48.6038C58.5014 47.9222 57.6135 47.4148 56.9888 46.923L43.7801 36.3989C42.2483 35.1856 40.7677 33.7457 39.0932 32.7264Z" fill="#F24D17"/>
<path d="M39.0932 32.934V50.8868C41.3331 50.7931 43.5806 50.2268 45.8041 49.9528C45.4193 48.3711 44.6251 46.7963 44.0148 45.283L41.2452 38.2264C40.5917 36.606 40.1606 34.3238 39.0932 32.934Z" fill="#F20809"/>
<path d="M37.1759 38.9528C34.559 42.6798 32.3508 46.8909 29.9537 50.783L27.9085 54.1038C27.6543 54.5165 27.1623 55.0633 27.1248 55.5566C27.0737 56.228 28.0075 57.1034 28.3701 57.6321C29.5957 59.419 30.9003 62.0785 32.5955 63.4434C32.7923 61.0335 33.5008 58.5529 33.9801 56.1792L35.9615 45.9057C36.3015 44.2501 36.639 42.5879 36.9362 40.9245C37.0398 40.3448 37.382 39.513 37.1759 38.9528Z" fill="#D41D79"/>
<path d="M20.9845 47.566C21.1629 48.2349 21.7227 48.7844 22.1427 49.3302C23.067 50.5307 24.1114 51.6882 24.9258 52.9623C25.9209 52.2487 26.6903 51.0725 27.4962 50.1604L32.9439 43.934C34.2104 42.4869 36.1665 40.9008 36.9628 39.1604C35.5176 39.6727 34.1595 40.594 32.8084 41.3076C28.8874 43.3784 25.0244 45.7285 20.9845 47.566Z" fill="#93124B"/>
<path d="M10.0128 40.1981C9.13887 43.1533 7.32201 46.1353 5.96492 48.9151C8.20077 48.3206 10.4004 47.3692 12.5693 46.5723L23.2214 42.7485C25.3737 41.9643 27.5909 40.9216 29.8258 40.4057C29.2702 40.1785 28.507 40.3019 27.9084 40.3019H23.8606L10.0128 40.1981Z" fill="#0561C4"/>
<path d="M15.6314 18.6038C12.5674 19.3441 9.00806 19.3022 5.8584 19.5472C7.50483 21.1363 9.45042 22.5164 11.2432 23.9477L19.9686 31.0229C21.7417 32.4467 23.7772 33.7959 25.3534 35.4235C25.2775 34.8411 24.7862 34.2589 24.4869 33.7539L22.463 30.3388L15.6314 18.6038Z" fill="#07C7BA"/>
<path d="M134.963 19.5799C131.915 20.2872 132.987 25.4493 136.135 24.7465C139.385 24.0209 138.341 18.796 134.963 19.5799Z" fill="#F3F3F3"/>
<path d="M97.9998 26.8926V30.3171H100.876C100.876 32.7041 100.654 35.2126 100.952 37.5813C101.079 38.5864 101.166 39.5723 101.87 40.3816C103.385 42.1254 106.764 41.7982 108.439 40.4528C108.851 40.1219 109.651 39.4897 109.712 38.9304C109.761 38.4886 108.883 37.6141 108.439 37.6011C107.719 37.5803 107.017 38.6634 106.449 37.5793C106.095 36.9047 106.202 35.9274 106.202 35.1945V30.3171H109.717V26.8926C108.918 26.8926 107.12 27.2225 106.449 26.7859C106.065 26.5366 106.202 25.8228 106.202 25.4398V21.4964C105.488 21.4964 103.64 21.1714 103.07 21.6031C102.635 21.9326 102.55 23.3597 102.322 23.8832C101.554 25.6452 99.95 26.7414 97.9998 26.8926Z" fill="#F3F3F3"/>
<path d="M159.463 26.8926V30.3171H162.339C162.339 32.6989 162.1 35.2197 162.416 37.5813C162.548 38.5746 162.639 39.584 163.333 40.3816C164.826 42.1001 168.103 41.7823 169.795 40.5373C170.25 40.2025 171.124 39.5314 171.178 38.9304C171.205 38.6294 170.945 38.404 170.753 38.204C170.55 37.9916 170.236 37.5353 169.892 37.5727C169.187 37.6494 168.475 38.6564 167.912 37.5793C167.573 36.9313 167.665 35.9041 167.665 35.1945V30.3171H171.18V26.8926C170.381 26.8926 168.583 27.2225 167.912 26.7859C167.529 26.5366 167.665 25.8228 167.665 25.4398V21.4964C166.965 21.4964 165.1 21.1716 164.548 21.6031C164.116 21.9413 164.071 23.2621 163.844 23.7794C163.048 25.5898 161.484 26.7359 159.463 26.8926Z" fill="#F3F3F3"/>
<path d="M91.0759 27.9304V26.8926H84.2585V29.6945C84.7474 29.6948 85.3446 29.6369 85.6242 30.1209C85.9057 30.608 85.7498 31.4363 85.7498 31.9775V36.0247C85.7498 36.5911 85.886 37.3691 85.6094 37.8881C85.3311 38.4104 84.787 38.41 84.2585 38.4115V41.2134H92.7803V38.4115C92.2419 38.4114 91.6163 38.483 91.2738 37.9851C90.9341 37.4912 91.0759 36.6926 91.0759 36.1285C91.0759 34.6408 90.5458 31.9283 91.3963 30.633C91.9481 29.793 93.3359 29.9038 93.836 30.7338C94.1633 31.2773 94.0585 31.9964 94.0585 32.6002H96.7216C96.7216 30.4976 97.5449 26.6547 94.3781 26.5829C94.0145 26.5746 93.6641 26.5917 93.3129 26.6892C92.4121 26.9393 91.8846 27.5635 91.0759 27.9304Z" fill="#F3F3F3"/>
<path d="M157.865 35.5058H151.793C151.792 37.0389 150.309 39.1372 148.728 37.4666C148.165 36.8714 148.075 35.865 148.065 35.0907C148.049 33.7489 147.757 31.7747 148.683 30.6477C150.07 28.9581 151.781 30.8873 151.793 32.3926H157.759C157.005 26.9468 150.017 25.1358 145.509 27.5477C143.077 28.8489 141.602 31.6773 141.79 34.3643C142.093 38.7085 145.178 41.4723 149.663 41.5243C153.424 41.5679 157.853 39.7803 157.865 35.5058Z" fill="#F3F3F3"/>
<path d="M200.154 27.9304V26.8926H193.337V29.6945C193.826 29.6948 194.423 29.6369 194.702 30.1209C194.984 30.608 194.828 31.4363 194.828 31.9775V36.0247C194.828 36.5911 194.964 37.3691 194.687 37.8881C194.409 38.4104 193.865 38.41 193.337 38.4115V41.2134H201.859V38.4115C201.321 38.4114 200.694 38.483 200.352 37.9851C200.012 37.4912 200.154 36.6926 200.154 36.1285C200.154 34.6526 199.598 31.7796 200.548 30.536C201.136 29.7666 202.442 29.9496 202.914 30.7338C203.241 31.2773 203.137 31.9964 203.137 32.6002H205.8C205.8 30.4976 206.623 26.6547 203.456 26.5829C203.093 26.5746 202.743 26.5917 202.391 26.6892C201.49 26.9393 200.963 27.5635 200.154 27.9304Z" fill="#F3F3F3"/>
<path d="M230.406 37.27H225.187C225.319 40.2576 227.634 41.143 230.3 41.4505C233.577 41.8285 238.37 41.2302 238.988 37.3737C239.555 33.8339 236.738 32.7249 233.815 31.9335C233.158 31.7557 230.358 31.3786 230.96 30.2243C231.281 29.6076 232.373 29.5809 232.963 29.7623C233.551 29.9426 233.65 30.6537 234.158 30.803C235.536 31.2077 237.591 30.836 239.035 30.836C238.845 26.5309 234.054 26.2684 230.619 26.669C228.733 26.889 226.583 27.4854 225.818 29.3832C224.42 32.8505 227.745 34.737 230.619 35.607C231.496 35.8725 233.216 36.099 233.689 36.9683C234.005 37.5492 233.495 38.1339 232.963 38.3479C231.955 38.7522 230.543 38.4623 230.406 37.27Z" fill="#F3F3F3"/>
<path d="M131.448 26.8926V29.6945C131.94 29.6948 132.504 29.6366 132.783 30.1209C133.091 30.6531 132.939 31.4922 132.939 32.0813V36.0247C132.939 36.5911 133.075 37.3691 132.798 37.8881C132.52 38.4104 131.976 38.41 131.448 38.4115V41.2134H139.65V38.4115C139.107 38.4067 138.587 38.3475 138.36 37.7873C138.139 37.2428 138.265 36.4961 138.265 35.9209V32.0813C138.265 31.5002 138.11 30.6479 138.406 30.1209C138.662 29.6649 139.188 29.6957 139.65 29.6945V26.8926H131.448Z" fill="#F3F3F3"/>
<path d="M173.524 26.8926V29.3832C175.68 29.3845 175.015 31.8813 175.015 33.4304C175.015 36.6353 174.15 40.971 178.53 41.495C179.153 41.5695 179.832 41.556 180.448 41.4412C181.795 41.19 182.851 40.5223 184.069 39.9681L184.282 41.2134H190.78V38.4115C188.983 38.4065 189.289 36.9449 189.289 35.6096V26.8926H182.578V29.6945C183.041 29.6957 183.575 29.6673 183.837 30.1209C184.118 30.608 184.016 32.7607 184.016 33.3019C184.016 34.7835 184.176 36.6226 183.313 37.6561C182.208 38.604 180.574 37.8683 180.373 36.5436C179.907 33.4637 180.341 30.0084 180.341 26.8926H173.524Z" fill="#F3F3F3"/>
<path fill-rule="evenodd" clip-rule="evenodd" d="M217.304 35.9209H223.269C223.18 40.1401 218.053 41.8444 214.428 41.507C209.885 41.0841 207.29 37.8638 207.399 33.5341C207.539 27.9473 214.481 24.8619 219.328 27.3409C222.115 28.7663 223.269 31.7536 223.269 34.6756H213.576C213.576 34.7563 213.575 34.8391 213.575 34.9236C213.568 35.8204 213.561 36.9006 214.237 37.5591C215.621 38.9046 217.183 37.3668 217.304 35.9209ZM213.789 31.8737H217.198C217.19 29.183 213.906 29.2542 213.789 31.8737Z" fill="#F3F3F3"/>
<path fill-rule="evenodd" clip-rule="evenodd" d="M112.274 26.8926H118.239C118.249 26.935 118.259 26.9885 118.271 27.0491C118.34 27.4022 118.456 27.9946 118.796 28.0171C119.176 28.0424 119.712 27.7017 120.206 27.3882C120.504 27.1994 120.786 27.0205 121.009 26.937C122.88 26.2367 125.43 26.4197 126.974 27.742C130.494 30.758 129.985 38.1776 126.015 40.6689C123.855 42.0246 121.371 41.5719 119.198 40.6945C119.198 41.1315 119.192 41.5698 119.186 42.0085C119.173 42.9205 119.161 43.8343 119.202 44.7417C119.204 44.7872 119.206 44.8365 119.207 44.8884C119.222 45.3286 119.244 45.9648 119.551 46.2449C119.901 46.5629 120.491 46.5374 120.991 46.5159C121.11 46.5107 121.224 46.5058 121.328 46.5058V49.3077H112.274V46.5058C113.934 46.5048 113.859 45.0554 113.791 43.7267C113.778 43.4686 113.765 43.215 113.765 42.9775V32.9115C113.765 32.6684 113.778 32.4173 113.792 32.1677C113.859 30.9139 113.924 29.6955 112.274 29.6945V26.8926ZM119.258 34.4068C119.149 32.7431 119.007 30.5667 120.795 30.1645C121.598 29.9842 122.349 30.2688 122.653 31.0436C123.229 32.5125 123.104 34.9246 122.771 36.4398C122.616 37.15 122.189 37.7468 121.435 37.9254C120.793 38.0773 119.775 37.9966 119.414 37.3629C119.203 36.9929 119.245 36.3994 119.28 35.8906C119.292 35.7131 119.304 35.5459 119.304 35.4021C119.304 35.1109 119.282 34.7712 119.258 34.4068Z" fill="#F3F3F3"/>
<path fill-rule="evenodd" clip-rule="evenodd" d="M65.9901 25.6822V22.2577H73.8727C74.0158 22.2577 74.2232 22.2415 74.462 22.2228C75.2295 22.1626 76.3216 22.0771 76.6493 22.4241C77.1147 22.9171 77.3429 23.9791 77.534 24.8682C77.6086 25.2151 77.6775 25.5358 77.7526 25.786L80.2938 34.0879C80.3734 34.3464 80.4435 34.6244 80.5151 34.9079C80.8647 36.2931 81.2475 37.8101 82.927 37.8238V41.2483H73.3401V37.8238C73.4107 37.8238 73.4848 37.8259 73.5609 37.8282C73.9183 37.8387 74.3188 37.8505 74.6009 37.643C75.1442 37.1495 74.1542 36.6641 73.8727 36.5538C73.1778 36.2816 72.3129 36.336 71.902 36.3113C70.6062 36.2336 69.452 36.3982 68.8661 36.6576C67.7062 37.1713 68.886 37.7679 69.3988 37.8238V41.2483H62.1553V37.8238C63.7486 37.8195 64.0904 36.8266 64.5138 35.597C64.5553 35.4765 64.5976 35.3537 64.6419 35.2294L66.7712 29.1068C66.8286 28.939 66.933 28.7029 67.0521 28.4337C67.3979 27.6519 67.8675 26.5905 67.6691 26.1086C67.4696 25.624 66.7694 25.6531 66.2556 25.6745C66.159 25.6785 66.0689 25.6822 65.9901 25.6822ZM71.0318 28.8692C71.2455 28.3189 71.4569 27.7742 71.6357 27.2389H71.8488C71.9828 28.1232 72.2886 28.9782 72.5944 29.8332C72.9002 30.6882 73.206 31.5433 73.3401 32.4276H69.9314C70.1113 31.2406 70.5765 30.0422 71.0318 28.8692Z" fill="#F3F3F3"/>
</svg>
