<svg  class="main-svg-sprite main-svg-sprite--icons" xmlns="http://www.w3.org/2000/svg" xmlns:xlink="http://www.w3.org/1999/xlink"><symbol viewBox="0 0 9.9 5.6" id="arr-d" xmlns="http://www.w3.org/2000/svg"><g data-name="Layer 2"><g data-name="Layer 1"><path d="M5 5.6l-.63-.79L9.13 0l.77.65z"/><path d="M5.58 4.81L5 5.6 0 .65.76 0z"/></g></g></symbol><symbol viewBox="0 0 12 6" id="arr-d2" xmlns="http://www.w3.org/2000/svg"><path d="M11.734.248a.788.788 0 010 1.18l-4.45 4.083c-.71.652-1.86.652-2.57 0L.265 1.426a.788.788 0 010-1.181.967.967 0 011.286 0L5.36 3.74a.967.967 0 001.286 0L10.448.248a.967.967 0 011.286 0z"/></symbol><symbol viewBox="0 0 7 13" id="arr-r" xmlns="http://www.w3.org/2000/svg"><g clip-path="url(#cclip0_3009_9404)"><path d="M6.681 6.502l-.707.707L.317 1.552l.707-.707z"/><path d="M5.977 5.791l.707.707-5.657 5.657-.707-.707z"/></g><defs><clipPath id="cclip0_3009_9404"><path transform="translate(0 .5)" d="M0 0h7v12H0z"/></clipPath></defs></symbol><symbol viewBox="0 0 14 23" id="arr-t" xmlns="http://www.w3.org/2000/svg"><path d="M7 1.44v19.623M7 1.439L1.165 6.345M6.999 1.44l5.834 4.906" stroke="#F3F3F3" stroke-width="2" stroke-linecap="round" stroke-linejoin="round"/></symbol><symbol viewBox="0 0 18 21" id="cart-icon" xmlns="http://www.w3.org/2000/svg"><path class="est0" d="M15.8 20.5H2.2c-.6 0-1.1-.3-1.5-.7-.4-.5-.5-1-.4-1.6L2 8.2c.2-1 1-1.7 2-1.7h1c-.3-1.3-.3-3.2.7-4.6C6.2 1.3 7.2.5 9 .5c1.8 0 2.8.8 3.3 1.4 1.1 1.4 1.1 3.3.9 4.6h1c1 0 1.8.7 2 1.7l1.7 10c.1.6-.1 1.2-.4 1.6-.5.4-1.1.7-1.7.7zm-12-12l-1.7 10h13.6L14 8.5h-2v-1 1H3.8zm3-2h4.3c.1-1.1.2-2.5-.5-3.3-.3-.5-.8-.7-1.6-.7s-1.3.2-1.7.7c-.6.8-.6 2.2-.5 3.3z"/></symbol><symbol id="cart-icon2" viewBox="0 0 85 76" xml:space="preserve" xmlns="http://www.w3.org/2000/svg"><path d="M75.6 46H28.1v-3h47.5c1.4 0 2.6-1 2.8-2.4l3.2-25.7c.1-.8-.1-1.6-.7-2.2s-1.3-.9-2.1-.9H16.7v-3h62.2c1.7 0 3.2.7 4.3 2 1.1 1.2 1.6 2.9 1.4 4.5L81.4 41c-.4 2.8-2.9 5-5.8 5z"/><path class="fst0" d="M75.1 58.8H33.5c-2.6 0-4.9-1.8-5.6-4.3L14.6 5.3c-.3-1.2-1.4-2.1-2.7-2.1H2.4C1.6 3.2.9 2.5.9 1.7S1.6.2 2.4.2H12c2.6 0 4.9 1.8 5.6 4.3l13.3 49.3c.3 1.2 1.4 2.1 2.7 2.1h41.6c.8 0 1.5.7 1.5 1.5s-.8 1.4-1.6 1.4zM36.6 75.9c-3.2 0-5.8-2.6-5.8-5.8s2.6-5.8 5.8-5.8 5.8 2.6 5.8 5.8-2.6 5.8-5.8 5.8zm0-8.5c-1.5 0-2.8 1.2-2.8 2.8S35 73 36.6 73s2.8-1.2 2.8-2.8-1.3-2.8-2.8-2.8zM68.7 75.9c-3.2 0-5.8-2.6-5.8-5.8s2.6-5.8 5.8-5.8 5.8 2.6 5.8 5.8-2.6 5.8-5.8 5.8zm0-8.5c-1.5 0-2.8 1.2-2.8 2.8s1.2 2.8 2.8 2.8 2.8-1.2 2.8-2.8-1.3-2.8-2.8-2.8z"/></symbol><symbol viewBox="0 0 40 40" id="close" xmlns="http://www.w3.org/2000/svg"><path d="M30.56 7.518l1.92 1.92L9.441 32.477l-1.92-1.92z"/><path d="M32.48 30.556l-1.92 1.92L7.523 9.436l1.92-1.919z"/></symbol><symbol viewBox="0 0 31 31" id="close2" xmlns="http://www.w3.org/2000/svg"><path d="M5.401 23.662A1.37 1.37 0 107.338 25.6l-1.937-1.937zm11.067-7.194a1.37 1.37 0 10-1.936-1.936l1.936 1.936zm-1.936-1.936a1.37 1.37 0 001.936 1.936l-1.936-1.936zm11.067-7.194a1.37 1.37 0 00-1.937-1.937L25.6 7.338zm-9.13 7.194a1.37 1.37 0 00-1.937 1.936l1.936-1.936zm7.193 11.067a1.37 1.37 0 001.937-1.937L23.662 25.6zm-9.13-9.13a1.37 1.37 0 101.936-1.937l-1.936 1.936zM7.338 5.4a1.37 1.37 0 00-1.937 1.937l1.937-1.937zm0 20.198l9.13-9.13-1.936-1.937-9.13 9.13L7.337 25.6zm9.13-9.13l9.13-9.131-1.936-1.937-9.13 9.13 1.936 1.937zm-1.936 0l9.13 9.13 1.937-1.937-9.13-9.13-1.937 1.936zm1.936-1.937l-9.13-9.13-1.937 1.936 9.13 9.13 1.937-1.936z"/></symbol><symbol viewBox="0 0 30 18" id="menu" xmlns="http://www.w3.org/2000/svg"><path d="M.938.25C.42.25 0 .81 0 1.5s.42 1.25.938 1.25h28.125c.517 0 .937-.56.937-1.25S29.58.25 29.062.25H.938zM.938 7.75C.42 7.75 0 8.31 0 9s.42 1.25.938 1.25h28.125c.517 0 .937-.56.937-1.25s-.42-1.25-.938-1.25H.938zM.938 15.25C.42 15.25 0 15.81 0 16.5s.42 1.25.938 1.25h28.125c.517 0 .937-.56.937-1.25s-.42-1.25-.938-1.25H.938z"/></symbol><symbol viewBox="0 0 20 20" id="play-icon" xmlns="http://www.w3.org/2000/svg"><circle cx="10" cy="10" r="10"/><path d="M7.58 13.727V5.933l6.75 3.897-6.75 3.897z" stroke="#F3F3F3" stroke-width=".5"/></symbol><symbol viewBox="0 0 21.42 21.42" id="search" xmlns="http://www.w3.org/2000/svg"><g data-name="Layer 2"><path d="M13.43 15.43a8.49 8.49 0 112-2L21 19a1.39 1.39 0 010 2 1.39 1.39 0 01-2 0l-5.58-5.58zM8.5 15A6.5 6.5 0 102 8.5 6.5 6.5 0 008.5 15z" data-name="Layer 1"/></g></symbol></svg>