<svg width="79.923218" height="79.760986" viewBox="0 0 79.9232 79.761" fill="none" xmlns="http://www.w3.org/2000/svg" xmlns:xlink="http://www.w3.org/1999/xlink">
	<desc>
			Created with Pixso.
	</desc>
	<defs/>
	<path id="Vector" d="M74.6965 36.678C73.5699 33.8579 71.9499 31.2246 69.9232 28.9213L69.9232 16.538C69.9232 14.4779 68.9966 12.5646 67.3765 11.2847C65.7832 10.028 63.7466 9.57458 61.7732 10.038C55.6899 11.4879 51.1265 14.9346 48.6832 19.8579L30.8065 19.8579C22.2032 19.8579 14.4799 23.7179 9.40991 29.7546C5.40985 29.1713 5.89319 23.1846 9.91986 23.1913C14.2766 23.1746 14.2799 16.5413 9.91986 16.5247C-0.696777 16.4913 -3.84344 31.2113 5.69324 35.5546C-0.170105 47.6213 4.92987 63.1613 16.5865 69.5946L16.5865 69.8579C16.5932 81.028 32.3865 83.5846 36.0165 73.1913L43.8265 73.1913C47.4565 83.5913 63.2499 81.0212 63.2565 69.8579L63.2565 69.5513C68.4565 66.5413 72.4932 61.8846 74.6965 56.3713C77.4332 55.788 79.9232 53.5447 79.9232 49.8579L79.9232 43.1913C79.9232 39.5046 77.4299 37.2612 74.6965 36.678ZM59.9232 43.1913C55.5632 43.1713 55.5632 36.5446 59.9232 36.5247C64.2832 36.5446 64.2832 43.1713 59.9232 43.1913ZM20.0966 14.8979C18.2232 -3.73877 45.8965 -5.54211 46.5899 13.1913L30.8099 13.1913C27.0732 13.1913 23.4766 13.808 20.0966 14.8979Z" fill="#69D6B7" fill-opacity="1.000000" fill-rule="nonzero"/>
</svg>
