<svg width="80.000000" height="80.000000" viewBox="0 0 80 80" fill="none" xmlns="http://www.w3.org/2000/svg" xmlns:xlink="http://www.w3.org/1999/xlink">
	<desc>
			Created with Pixso.
	</desc>
	<defs>
		<clipPath id="clip1448_485">
			<rect id="mode-landscape" width="80.000000" height="80.000000" fill="white" fill-opacity="0"/>
		</clipPath>
	</defs>
	<g clip-path="url(#clip1448_485)">
		<path id="Vector" d="M61.6666 26.7034C61.6666 31.3059 57.9357 35.0369 53.3334 35.0369C48.731 35.0369 45 31.3059 45 26.7034C45 22.1011 48.731 18.3701 53.3334 18.3701C57.9357 18.3701 61.6666 22.1011 61.6666 26.7034Z" fill="#FFFFFF" fill-opacity="1.000000" fill-rule="evenodd"/>
		<path id="Vector" d="M76.6667 53.3335C75.7827 53.3335 74.9348 53.6846 74.3097 54.3098C73.6846 54.9348 73.3334 55.7827 73.3334 56.6667L73.3334 63.3335C73.3334 65.9856 72.2798 68.5293 70.4044 70.4045C68.5291 72.28 65.9856 73.3335 63.3334 73.3335L56.6667 73.3335C55.7826 73.3335 54.9348 73.6846 54.3097 74.3098C53.6846 74.9348 53.3334 75.7827 53.3334 76.6667C53.3334 77.5508 53.6846 78.3987 54.3097 79.0239C54.9348 79.6489 55.7826 80.0002 56.6667 80.0002L63.3334 80.0002C67.7521 79.9949 71.9882 78.2373 75.1127 75.1128C78.2371 71.9883 79.9948 67.7522 80 63.3335L80 56.6667C80 55.7827 79.6488 54.9348 79.0237 54.3098C78.3986 53.6846 77.5508 53.3335 76.6667 53.3335Z" fill="#FFFFFF" fill-opacity="1.000000" fill-rule="nonzero"/>
		<path id="Vector" d="M3.33337 26.6667C4.21741 26.6667 5.06519 26.3154 5.69031 25.6904C6.31543 25.0652 6.66663 24.2173 6.66663 23.3333L6.66663 16.6667C6.66663 14.0144 7.72021 11.4709 9.59558 9.5957C11.4709 7.72021 14.0145 6.66675 16.6666 6.66675L23.3334 6.66675C24.2174 6.66675 25.0652 6.31543 25.6903 5.69043C26.3154 5.06519 26.6666 4.21729 26.6666 3.33325C26.6666 2.44922 26.3154 1.60132 25.6903 0.976318C25.0652 0.351074 24.2174 0 23.3334 0L16.6666 0C12.248 0.00537109 8.01184 1.76294 4.88745 4.88745C1.76294 8.01196 0.00524902 12.248 0 16.6667L0 23.3333C0 24.2173 0.351196 25.0652 0.976318 25.6904C1.60144 26.3154 2.44922 26.6667 3.33337 26.6667Z" fill="#FFFFFF" fill-opacity="1.000000" fill-rule="nonzero"/>
		<path id="Vector" d="M23.3334 73.3335L16.6666 73.3335C14.0145 73.3335 11.4709 72.28 9.59558 70.4045C7.72021 68.5293 6.66663 65.9856 6.66663 63.3335L6.66663 56.6667C6.66663 55.7827 6.31543 54.9348 5.69031 54.3098C5.06519 53.6846 4.21741 53.3335 3.33337 53.3335C2.44922 53.3335 1.60144 53.6846 0.976318 54.3098C0.351196 54.9348 0 55.7827 0 56.6667L0 63.3335C0.00524902 67.7522 1.76294 71.9883 4.88745 75.1128C8.01184 78.2373 12.248 79.9949 16.6666 80.0002L23.3334 80.0002C24.2174 80.0002 25.0652 79.6489 25.6903 79.0239C26.3154 78.3987 26.6666 77.5508 26.6666 76.6667C26.6666 75.7827 26.3154 74.9348 25.6903 74.3098C25.0652 73.6846 24.2174 73.3335 23.3334 73.3335Z" fill="#FFFFFF" fill-opacity="1.000000" fill-rule="nonzero"/>
		<path id="Vector" d="M63.3334 0L56.6667 0C55.7826 0 54.9348 0.351074 54.3097 0.976318C53.6846 1.60132 53.3334 2.44922 53.3334 3.33325C53.3334 4.21729 53.6846 5.06519 54.3097 5.69043C54.9348 6.31543 55.7826 6.66675 56.6667 6.66675L63.3334 6.66675C65.9856 6.66675 68.5291 7.72021 70.4044 9.5957C72.2798 11.4709 73.3334 14.0144 73.3334 16.6667L73.3334 23.3333C73.3334 24.2173 73.6846 25.0652 74.3097 25.6904C74.9348 26.3154 75.7827 26.6667 76.6667 26.6667C77.5508 26.6667 78.3986 26.3154 79.0237 25.6904C79.6488 25.0652 80 24.2173 80 23.3333L80 16.6667C79.9948 12.248 78.2371 8.01196 75.1127 4.88745C71.9882 1.76294 67.7521 0.00537109 63.3334 0Z" fill="#FFFFFF" fill-opacity="1.000000" fill-rule="nonzero"/>
		<path id="Vector" d="M62.3567 57.6433L37.0701 32.3567C35.1948 30.4819 32.6517 29.4287 30 29.4287C27.3484 29.4287 24.8053 30.4819 22.9301 32.3567L15.2867 40C14.0364 41.2498 13.3337 42.9453 13.3334 44.7131L13.3334 53.3333C13.3334 55.9854 14.387 58.5291 16.2623 60.4043C18.1377 62.2798 20.6812 63.3333 23.3334 63.3333L60 63.3333C60.6592 63.333 61.3036 63.1375 61.8516 62.7712C62.3997 62.405 62.8268 61.8845 63.079 61.2754C63.3312 60.6665 63.3972 59.9963 63.2687 59.3499C63.1401 58.7034 62.8228 58.1094 62.3567 57.6433Z" fill="#FFFFFF" fill-opacity="1.000000" fill-rule="nonzero"/>
	</g>
</svg>
