<svg width="79.890015" height="79.903320" viewBox="0 0 79.89 79.9033" fill="none" xmlns="http://www.w3.org/2000/svg" xmlns:xlink="http://www.w3.org/1999/xlink">
	<desc>
			Created with Pixso.
	</desc>
	<defs/>
	<path id="Vector" d="M53.2234 34.78C53.2234 38.91 46.92 45.4 41.5601 49.54C36.8467 45.8733 29.89 39.22 29.89 34.78C29.89 32.15 31.76 30.0133 34.0566 30.0133C36.13 30.0133 38.2234 31.26 38.2234 34.0433L38.2234 36.6801L44.89 36.6801L44.89 34.0433C44.89 31.26 46.9833 30.0133 49.0566 30.0133C51.3534 30.0133 53.2234 32.1533 53.2234 34.78ZM79.89 0L79.89 5.35339C79.89 26.89 77.8633 48.85 63.16 63.5533C56.6967 70.0167 48.2067 73.25 39.7167 73.25C32.2866 73.25 24.8567 70.7766 18.7866 65.83L4.71338 79.9033L0 75.1899L14.0634 61.1267C9.19995 55.2134 6.55664 47.8633 6.55664 40.11C6.55664 31.2533 10.0067 22.9266 16.27 16.6633C25.7833 7.14331 37.4033 6.97998 48.6367 6.81995C50.6533 6.79333 52.6967 6.76331 54.76 6.68335C61.2733 6.42664 68.2467 5.72668 75.0867 2.36328L79.89 0ZM59.89 34.78C59.89 28.4734 55.03 23.3467 49.0566 23.3467C46.09 23.3467 43.4734 24.4066 41.5566 26.1866C39.64 24.41 37.0233 23.3467 34.0566 23.3467C28.0834 23.3467 23.2234 28.4767 23.2234 34.78C23.2234 44.72 37.9734 55.25 39.6566 56.4166L41.5566 57.7367L43.4567 56.4166C45.14 55.25 59.89 44.72 59.89 34.78Z" fill="#69D6B7" fill-opacity="1.000000" fill-rule="nonzero"/>
</svg>
