<svg width="80.011414" height="80.015381" viewBox="0 0 80.0114 80.0154" fill="none" xmlns="http://www.w3.org/2000/svg" xmlns:xlink="http://www.w3.org/1999/xlink">
	<desc>
			Created with Pixso.
	</desc>
	<defs/>
	<path id="Vector" d="M76.08 57.2788L70.71 51.9087L62.97 59.6487C62.32 60.2988 61.4667 60.6255 60.6133 60.6255C59.76 60.6255 58.9067 60.2988 58.2567 59.6487C56.9533 58.3455 56.9533 56.2388 58.2567 54.9355L65.9967 47.1956L61.2833 42.4822L53.54 50.2256C52.89 50.8755 52.0367 51.2021 51.1833 51.2021C50.33 51.2021 49.4767 50.8755 48.8267 50.2256C47.5233 48.9221 47.5233 46.8154 48.8267 45.5122L56.57 37.7688L51.8567 33.0554L44.1133 40.7988C43.4633 41.4487 42.61 41.7754 41.7567 41.7754C40.9033 41.7754 40.05 41.4487 39.4 40.7988C38.0967 39.4954 38.0967 37.3889 39.4 36.0854L47.1433 28.342L42.4266 23.6289L34.6866 31.3689C34.0367 32.0188 33.1833 32.3455 32.33 32.3455C31.4767 32.3455 30.6234 32.0188 29.9733 31.3689C28.67 30.0654 28.67 27.9587 29.9733 26.6555L37.7133 18.9155L32.8267 14.0288L25.0833 21.7722C24.4333 22.4221 23.58 22.7488 22.7267 22.7488C21.8734 22.7488 21.02 22.4221 20.37 21.7722C19.0667 20.4688 19.0667 18.3621 20.37 17.0588L28.1133 9.31543L22.7433 3.94556C18.8533 0.0554199 13.2867 -1.05786 8.22333 1.05225C3.15002 3.14868 0 7.86206 0 13.3555L0 63.3254C0 72.5288 7.48669 80.0154 16.69 80.0154L66.66 80.0154C72.1467 80.0154 76.8633 76.8655 78.9633 71.7922C81.0634 66.7188 79.96 61.1621 76.08 57.2788ZM41.4133 57.9587C40.8967 59.2056 39.68 60.0154 38.3333 60.0154L23.3333 60.0154C21.4933 60.0154 20 58.5254 20 56.6821L20 41.6821C20 40.3354 20.8134 39.1155 22.0566 38.6021C23.3033 38.0789 24.7367 38.3689 25.69 39.3254L40.69 54.3254C41.6433 55.2788 41.93 56.7122 41.4133 57.9587Z" fill="#FFFFFF" fill-opacity="1.000000" fill-rule="nonzero"/>
</svg>
