<svg width="80.000000" height="80.000000" viewBox="0 0 80 80" fill="none" xmlns="http://www.w3.org/2000/svg" xmlns:xlink="http://www.w3.org/1999/xlink">
	<desc>
			Created with Pixso.
	</desc>
	<defs>
		<clipPath id="clip1444_934">
			<rect id="brightness 1" width="80.000000" height="80.000000" fill="white" fill-opacity="0"/>
		</clipPath>
	</defs>
	<g clip-path="url(#clip1444_934)">
		<path id="Vector" d="M40 56.6666C30.8 56.6666 23.3333 49.2 23.3333 40C23.3333 30.8 30.8 23.3334 40 23.3334C49.2 23.3334 56.6667 30.8 56.6667 40C56.6667 49.2 49.2 56.6666 40 56.6666ZM43.3333 13.3334L43.3333 3.33337C43.3333 1.5 41.8333 0 40 0C38.1667 0 36.6667 1.5 36.6667 3.33337L36.6667 13.3334C36.6667 15.1666 38.1667 16.6666 40 16.6666C41.8333 16.6666 43.3333 15.1666 43.3333 13.3334ZM43.3333 76.6666L43.3333 66.6666C43.3333 64.8334 41.8333 63.3334 40 63.3334C38.1667 63.3334 36.6667 64.8334 36.6667 66.6666L36.6667 76.6666C36.6667 78.5 38.1667 80 40 80C41.8333 80 43.3333 78.5 43.3333 76.6666ZM16.6667 40C16.6667 38.1666 15.1667 36.6666 13.3333 36.6666L3.33331 36.6666C1.5 36.6666 0 38.1666 0 40C0 41.8334 1.5 43.3334 3.33331 43.3334L13.3333 43.3334C15.1667 43.3334 16.6667 41.8334 16.6667 40ZM80 40C80 38.1666 78.5 36.6666 76.6667 36.6666L66.6667 36.6666C64.8333 36.6666 63.3333 38.1666 63.3333 40C63.3333 41.8334 64.8333 43.3334 66.6667 43.3334L76.6667 43.3334C78.5 43.3334 80 41.8334 80 40ZM22.3666 22.3667C23.6667 21.0667 23.6667 18.9667 22.3666 17.6666L15.7 11C14.4 9.69995 12.3 9.69995 11 11C9.70001 12.3 9.70001 14.4 11 15.7L17.6667 22.3667C18.3333 23.0333 19.1667 23.3334 20.0333 23.3334C20.9 23.3334 21.7333 23 22.4 22.3667L22.3666 22.3667ZM69.0333 69.0333C70.3333 67.7333 70.3333 65.6333 69.0333 64.3334L62.3666 57.6666C61.0667 56.3667 58.9667 56.3667 57.6667 57.6666C56.3667 58.9667 56.3667 61.0667 57.6667 62.3667L64.3333 69.0333C65 69.7 65.8333 70 66.7 70C67.5667 70 68.4 69.6666 69.0667 69.0333L69.0333 69.0333ZM15.7 69.0333L22.3666 62.3667C23.6667 61.0667 23.6667 58.9667 22.3666 57.6666C21.0667 56.3667 18.9667 56.3667 17.6667 57.6666L11 64.3334C9.70001 65.6333 9.70001 67.7333 11 69.0333C11.6667 69.7 12.5 70 13.3666 70C14.2333 70 15.0667 69.6666 15.7333 69.0333L15.7 69.0333ZM62.3666 22.3667L69.0333 15.7C70.3333 14.4 70.3333 12.3 69.0333 11C67.7333 9.69995 65.6333 9.69995 64.3333 11L57.6667 17.6666C56.3667 18.9667 56.3667 21.0667 57.6667 22.3667C58.3333 23.0333 59.1667 23.3334 60.0333 23.3334C60.9 23.3334 61.7333 23 62.4 22.3667L62.3666 22.3667Z" fill="#69D6B7" fill-opacity="1.000000" fill-rule="nonzero"/>
	</g>
</svg>
