<svg width="66.666687" height="80.000000" viewBox="0 0 66.6667 80" fill="none" xmlns="http://www.w3.org/2000/svg" xmlns:xlink="http://www.w3.org/1999/xlink">
	<desc>
			Created with Pixso.
	</desc>
	<defs/>
	<path id="Vector" d="M40 23.3333L40 1.53345C43.0835 2.69775 45.8843 4.50439 48.2167 6.83325L59.83 18.4534C62.1616 20.783 63.9696 23.583 65.1334 26.6667L43.3333 26.6667C42.4493 26.6667 41.6014 26.3154 40.9763 25.6904C40.3512 25.0652 40 24.2173 40 23.3333ZM66.6667 34.95L66.6667 63.3333C66.6614 67.752 64.9037 71.988 61.7793 75.1125C58.6548 78.2371 54.4186 79.9946 50 80L16.6667 80C12.248 79.9946 8.01184 78.2371 4.88739 75.1125C1.76294 71.988 0.00531006 67.752 0 63.3333L0 16.6667C0.00531006 12.248 1.76294 8.01196 4.88739 4.88745C8.01184 1.76294 12.248 0.00537109 16.6667 0L31.7167 0C32.26 0 32.7967 0.0432129 33.3333 0.0800781L33.3333 23.3333C33.3333 25.9856 34.3869 28.5291 36.2623 30.4043C38.1376 32.2798 40.6812 33.3333 43.3333 33.3333L66.5867 33.3333C66.6234 33.8701 66.6667 34.4067 66.6667 34.95ZM40 63.3333C40 62.4492 39.6488 61.6013 39.0237 60.9763C38.3986 60.3511 37.5507 60 36.6667 60L20 60C19.116 60 18.2681 60.3511 17.643 60.9763C17.0179 61.6013 16.6667 62.4492 16.6667 63.3333C16.6667 64.2173 17.0179 65.0652 17.643 65.6904C18.2681 66.3154 19.116 66.6667 20 66.6667L36.6667 66.6667C37.5507 66.6667 38.3986 66.3154 39.0237 65.6904C39.6488 65.0652 40 64.2173 40 63.3333ZM50 50C50 49.116 49.6488 48.2681 49.0237 47.6431C48.3986 47.0178 47.5507 46.6667 46.6667 46.6667L20 46.6667C19.116 46.6667 18.2681 47.0178 17.643 47.6431C17.0179 48.2681 16.6667 49.116 16.6667 50C16.6667 50.884 17.0179 51.7319 17.643 52.3569C18.2681 52.9822 19.116 53.3333 20 53.3333L46.6667 53.3333C47.5507 53.3333 48.3986 52.9822 49.0237 52.3569C49.6488 51.7319 50 50.884 50 50Z" fill="#FFFFFF" fill-opacity="1.000000" fill-rule="nonzero"/>
</svg>
