<svg width="66.666656" height="80.000000" viewBox="0 0 66.6667 80" fill="none" xmlns="http://www.w3.org/2000/svg" xmlns:xlink="http://www.w3.org/1999/xlink">
	<desc>
			Created with Pixso.
	</desc>
	<defs/>
	<path id="Vector" d="M21.7033 43.6133C23.9733 39.4967 28.3067 36.6666 33.3333 36.6666C40.2 36.6666 45.8033 41.9033 46.5233 48.58C45.61 49.2234 44.1633 50 42.4267 50C39.63 50 36.3333 48.0566 35.3067 47.3101C34.75 46.9033 29.7233 43.3334 24.2433 43.3334C23.34 43.3334 22.5033 43.45 21.7033 43.6133ZM66.6667 16.6666L66.6667 63.3334C66.6667 72.5233 59.19 80 50 80L16.6667 80C7.47665 80 0 72.5233 0 63.3334L0 16.6666C0 7.47668 7.47665 0 16.6667 0L50 0C59.19 0 66.6667 7.47668 66.6667 16.6666ZM26.6667 15C26.6667 17.76 28.9067 20 31.6667 20C34.4267 20 36.6667 17.76 36.6667 15C36.6667 12.24 34.4267 10 31.6667 10C28.9067 10 26.6667 12.24 26.6667 15ZM15 20C17.76 20 20 17.76 20 15C20 12.24 17.76 10 15 10C12.24 10 10 12.24 10 15C10 17.76 12.24 20 15 20ZM53.3333 50C53.3333 38.97 44.3633 30 33.3333 30C22.3033 30 13.3333 38.97 13.3333 50C13.3333 61.03 22.3033 70 33.3333 70C44.3633 70 53.3333 61.03 53.3333 50ZM42.4267 56.6666C36.9433 56.6666 31.92 53.0967 31.3633 52.6899C30.3367 51.9434 27.04 50 24.2433 50C22.5067 50 21.0567 50.7733 20.1467 51.42C20.8667 58.1 26.47 63.3334 33.3367 63.3334C38.3633 63.3334 42.6967 60.5067 44.9667 56.3867C44.1667 56.55 43.33 56.6666 42.4267 56.6666Z" fill="#69D6B7" fill-opacity="1.000000" fill-rule="nonzero"/>
</svg>
