<svg width="66.666626" height="80.001221" viewBox="0 0 66.6666 80.0012" fill="none" xmlns="http://www.w3.org/2000/svg" xmlns:xlink="http://www.w3.org/1999/xlink">
	<desc>
			Created with Pixso.
	</desc>
	<defs/>
	<path id="Vector" d="M55.27 7.13416L34.3867 0.170776C33.7029 -0.0568848 32.9637 -0.0568848 32.28 0.170776L11.3967 7.13416C8.07642 8.23706 5.18811 10.3583 3.14221 13.1965C1.09619 16.0347 -0.00317383 19.4454 0 22.9441L0 40.0009C0 65.2108 30.6666 79.1342 31.98 79.7141C32.4061 79.9034 32.8671 80.0012 33.3334 80.0012C33.7996 80.0012 34.2606 79.9034 34.6866 79.7141C36 79.1342 66.6666 65.2108 66.6666 40.0009L66.6666 22.9441C66.6699 19.4454 65.5704 16.0347 63.5245 13.1965C61.4786 10.3583 58.5903 8.23706 55.27 7.13416ZM49.0601 32.3907L34.8199 46.6309C34.2373 47.2174 33.5438 47.6825 32.7799 47.9989C32.016 48.3153 31.1969 48.4768 30.37 48.4741L30.26 48.4741C29.4163 48.4612 28.584 48.2773 27.8134 47.9336C27.0428 47.5898 26.35 47.0933 25.7767 46.4741L18.09 38.4741C17.7571 38.1653 17.4908 37.7916 17.3075 37.3762C17.1241 36.9607 17.0277 36.5122 17.0239 36.0581C17.0201 35.604 17.1093 35.1539 17.2856 34.7355C17.4622 34.3171 17.7222 33.9391 18.0499 33.6248C18.3777 33.3104 18.7661 33.0664 19.1917 32.9076C19.6171 32.7489 20.0704 32.6787 20.5239 32.7014C20.9775 32.7241 21.4216 32.8392 21.8291 33.0398C22.2365 33.2404 22.5986 33.522 22.8933 33.8674L30.3733 41.6675L44.3334 27.6675C44.962 27.0603 45.8041 26.7242 46.678 26.7319C47.552 26.7395 48.3881 27.0901 49.0061 27.7081C49.6241 28.326 49.9746 29.1621 49.9823 30.0361C49.9899 30.9102 49.6539 31.7521 49.0466 32.3809L49.0601 32.3907Z" fill="#69D6B7" fill-opacity="1.000000" fill-rule="nonzero"/>
</svg>
