<svg width="80.000000" height="76.666748" viewBox="0 0 80 76.6667" fill="none" xmlns="http://www.w3.org/2000/svg" xmlns:xlink="http://www.w3.org/1999/xlink">
	<desc>
			Created with Pixso.
	</desc>
	<defs/>
	<path id="Vector" d="M71.6667 76.6667L8.33334 76.6667C7.23898 76.6667 6.15536 76.4512 5.14432 76.0322C4.13327 75.6135 3.2146 74.9998 2.44077 74.2258C1.66696 73.4521 1.05313 72.5334 0.634338 71.5225C0.215546 70.5112 0 69.4277 0 68.3333C0 66.1233 0.87796 64.0037 2.44077 62.4407C4.00357 60.8779 6.1232 60 8.33334 60L71.6667 60C72.761 60 73.8447 60.2156 74.8557 60.6343C75.8668 61.0532 76.7854 61.667 77.5592 62.4407C78.333 63.2146 78.9469 64.1333 79.3657 65.1443C79.7845 66.1553 80 67.239 80 68.3333C80 69.4277 79.7845 70.5112 79.3657 71.5225C78.9469 72.5334 78.333 73.4521 77.5592 74.2258C76.7854 74.9998 75.8668 75.6135 74.8557 76.0322C73.8447 76.4512 72.761 76.6667 71.6667 76.6667ZM80 43.3333C80 41.5652 79.2976 39.8696 78.0474 38.6194C76.7971 37.3691 75.1014 36.6667 73.3333 36.6667L6.66666 36.6667C4.89856 36.6667 3.20285 37.3691 1.95264 38.6194C0.702393 39.8696 0 41.5652 0 43.3333C0 45.1016 0.702393 46.7971 1.95264 48.0474C3.20285 49.2976 4.89856 50 6.66666 50L73.3333 50C75.1014 50 76.7971 49.2976 78.0474 48.0474C79.2976 46.7971 80 45.1016 80 43.3333ZM80 21.6667C80 20.3406 79.4732 19.0688 78.5355 18.1311C77.5978 17.1934 76.3261 16.6667 75 16.6667L5 16.6667C3.67392 16.6667 2.40216 17.1934 1.46448 18.1311C0.526794 19.0688 0 20.3406 0 21.6667C0 22.9927 0.526794 24.2644 1.46448 25.2021C2.40216 26.1399 3.67392 26.6667 5 26.6667L75 26.6667C76.3261 26.6667 77.5978 26.1399 78.5355 25.2021C79.4732 24.2644 80 22.9927 80 21.6667ZM80 3.33325C80 2.44922 79.6488 1.60132 79.0237 0.976318C78.3986 0.351074 77.5507 0 76.6667 0L3.33334 0C2.44928 0 1.60144 0.351074 0.976318 0.976318C0.351196 1.60132 0 2.44922 0 3.33325C0 4.21729 0.351196 5.06519 0.976318 5.69043C1.60144 6.31543 2.44928 6.66675 3.33334 6.66675L76.6667 6.66675C77.5507 6.66675 78.3986 6.31543 79.0237 5.69043C79.6488 5.06519 80 4.21729 80 3.33325Z" fill="#FFFFFF" fill-opacity="1.000000" fill-rule="nonzero"/>
</svg>
