<svg width="32.000000" height="32.000000" viewBox="0 0 32 32" fill="none" xmlns="http://www.w3.org/2000/svg" xmlns:xlink="http://www.w3.org/1999/xlink">
	<desc>
			Created with Pixso.
	</desc>
	<defs>
		<clipPath id="clip1453_649">
			<rect id="time-fast" width="32.000000" height="32.000000" fill="white" fill-opacity="0"/>
		</clipPath>
	</defs>
	<g clip-path="url(#clip1453_649)">
		<path id="Vector" d="M13.3333 30.667C13.3333 31.0205 13.1929 31.3594 12.9428 31.6099C12.6927 31.8599 12.3536 32 12 32L1.33331 32C0.979736 32 0.640564 31.8599 0.390503 31.6099C0.140503 31.3594 0 31.0205 0 30.667C0 30.313 0.140503 29.9741 0.390503 29.7241C0.640564 29.4741 0.979736 29.3335 1.33331 29.3335L12 29.3335C12.3536 29.3335 12.6927 29.4741 12.9428 29.7241C13.1929 29.9741 13.3333 30.313 13.3333 30.667Z" fill="#FFFFFF" fill-opacity="1.000000" fill-rule="nonzero"/>
		<path id="Vector" d="M1.33331 26.6665L9.33331 26.6665C9.68695 26.6665 10.0261 26.5264 10.2761 26.2764C10.5262 26.0259 10.6667 25.687 10.6667 25.3335C10.6667 24.9795 10.5262 24.6406 10.2761 24.3906C10.0261 24.1406 9.68695 24 9.33331 24L1.33331 24C0.979736 24 0.640564 24.1406 0.390503 24.3906C0.140503 24.6406 0 24.9795 0 25.3335C0 25.687 0.140503 26.0259 0.390503 26.2764C0.640564 26.5264 0.979736 26.6665 1.33331 26.6665Z" fill="#FFFFFF" fill-opacity="1.000000" fill-rule="nonzero"/>
		<path id="Vector" d="M1.33331 21.333L6.66669 21.333C7.02026 21.333 7.35944 21.1929 7.6095 20.9429C7.8595 20.6924 8 20.3535 8 20C8 19.646 7.8595 19.3071 7.6095 19.0571C7.35944 18.8071 7.02026 18.6665 6.66669 18.6665L1.33331 18.6665C0.979736 18.6665 0.640564 18.8071 0.390503 19.0571C0.140503 19.3071 0 19.646 0 20C0 20.3535 0.140503 20.6924 0.390503 20.9429C0.640564 21.1929 0.979736 21.333 1.33331 21.333Z" fill="#FFFFFF" fill-opacity="1.000000" fill-rule="nonzero"/>
		<path id="Vector" d="M16 0C11.7565 0 7.68689 1.68555 4.68628 4.68652C1.68573 7.68701 0 11.7563 0 16C0 16.0815 0.0106812 16.1602 0.0120239 16.2412C0.435486 16.0859 0.882324 16.0044 1.33331 16L6.66669 16C7.32117 15.9976 7.96619 16.1567 8.54474 16.4629C9.12329 16.769 9.61755 17.2129 9.98389 17.7554C10.3502 18.2979 10.5774 18.9219 10.6453 19.5728C10.7133 20.2241 10.6198 20.8818 10.3734 21.4878C10.9193 21.6313 11.4283 21.8892 11.8665 22.2451C12.3047 22.6011 12.662 23.0459 12.9144 23.5508C13.1668 24.0557 13.3086 24.6084 13.3302 25.1724C13.3519 25.7363 13.2529 26.2988 13.04 26.8213C13.5732 26.9575 14.072 27.2036 14.504 27.5449C14.9359 27.8857 15.2916 28.3135 15.5478 28.8003C15.8041 29.2871 15.9552 29.8228 15.9916 30.3716C16.0279 30.9209 15.9485 31.4717 15.7587 31.9878C15.84 31.9878 15.9186 32 16 32C20.2435 32 24.3131 30.3145 27.3137 27.3135C30.3143 24.313 32 20.2437 32 16C32 11.7563 30.3143 7.68701 27.3137 4.68652C24.3131 1.68555 20.2435 0 16 0ZM20.9427 20.9429C20.6926 21.1929 20.3536 21.333 20 21.333C19.6464 21.333 19.3074 21.1929 19.0573 20.9429L15.0573 16.9429C14.8073 16.6929 14.6667 16.3535 14.6667 16L14.6667 9.3335C14.6667 8.97949 14.8071 8.64062 15.0572 8.39062C15.3073 8.14062 15.6464 8 16 8C16.3536 8 16.6927 8.14062 16.9428 8.39062C17.1929 8.64062 17.3333 8.97949 17.3333 9.3335L17.3333 15.4482L20.9427 19.0571C21.1926 19.3071 21.3331 19.6465 21.3331 20C21.3331 20.3535 21.1926 20.6929 20.9427 20.9429Z" fill="#FFFFFF" fill-opacity="1.000000" fill-rule="nonzero"/>
	</g>
</svg>
