<svg width="32.000000" height="32.000000" viewBox="0 0 32 32" fill="none" xmlns="http://www.w3.org/2000/svg" xmlns:xlink="http://www.w3.org/1999/xlink">
	<desc>
			Created with Pixso.
	</desc>
	<defs/>
	<path id="Vector" d="M16 0C7.16345 0 0 7.16357 0 16C0 24.8364 7.16345 32 16 32C24.8365 32 32 24.8364 32 16C31.9904 7.16748 24.8326 0.00976562 16 0ZM21.3333 19.4492C21.8751 19.9482 21.9102 20.7915 21.4114 21.3335C20.9127 21.875 20.0693 21.9102 19.5275 21.4116C19.5003 21.3867 19.4743 21.3604 19.4493 21.3335L16 17.8853L12.552 21.3335C12.0223 21.8447 11.1782 21.8301 10.6667 21.3003C10.1677 20.7837 10.1677 19.9648 10.6667 19.4482L14.1147 16L10.6667 12.5518C10.1552 12.0225 10.1698 11.1782 10.6995 10.6665C11.2162 10.1675 12.0353 10.1675 12.552 10.6665L16 14.1147L19.4493 10.6665C19.948 10.125 20.7915 10.0898 21.3333 10.5884C21.8751 11.0874 21.9102 11.9307 21.4114 12.4727C21.3865 12.4995 21.3604 12.5259 21.3333 12.5508L17.8853 16L21.3333 19.4492Z" fill="#FFFFFF" fill-opacity="1.000000" fill-rule="nonzero"/>
</svg>
