<svg width="32.000000" height="32.000000" viewBox="0 0 32 32" fill="none" xmlns="http://www.w3.org/2000/svg" xmlns:xlink="http://www.w3.org/1999/xlink">
	<desc>
			Created with Pixso.
	</desc>
	<defs/>
	<path id="Vector" d="M29.3333 24.2295L29.3333 7.77051C30.8853 7.22021 32 5.73877 32 4C32 1.79443 30.2053 0 28 0C26.2614 0 24.78 1.11475 24.2293 2.6665L7.77069 2.6665C7.21997 1.11475 5.73865 0 4 0C1.79468 0 0 1.79443 0 4C0 5.73877 1.11469 7.22021 2.66669 7.77051L2.66669 24.2295C1.11469 24.7798 0 26.2612 0 28C0 30.2056 1.79468 32 4 32C5.73865 32 7.21997 30.8853 7.77069 29.3335L24.2293 29.3335C24.78 30.8853 26.2614 32 28 32C30.2053 32 32 30.2056 32 28C32 26.2612 30.8853 24.7798 29.3333 24.2295ZM24.2293 26.6665L7.77069 26.6665C7.36798 25.5322 6.46802 24.6318 5.33331 24.2295L5.33331 7.77051C6.46802 7.36816 7.36798 6.46777 7.77069 5.3335L24.2293 5.3335C24.632 6.46777 25.532 7.36816 26.6667 7.77051L26.6667 24.2295C25.532 24.6318 24.632 25.5322 24.2293 26.6665Z" fill="#FFFFFF" fill-opacity="1.000000" fill-rule="nonzero"/>
</svg>
