<svg width="31.973175" height="31.949219" viewBox="0 0 31.9732 31.9492" fill="none" xmlns="http://www.w3.org/2000/svg" xmlns:xlink="http://www.w3.org/1999/xlink">
	<desc>
			Created with Pixso.
	</desc>
	<defs/>
	<path id="Vector" d="M31.9732 15.9741C31.9732 13.8062 31.0212 11.7607 29.4065 10.4751C29.5932 8.3125 28.8198 6.19385 27.2865 4.65918C25.7532 3.12744 23.6398 2.35156 21.5838 2.58594C18.8985 -0.821777 13.0972 -0.88623 10.4745 2.53955C6.16383 2.02734 2.01851 6.08594 2.5865 10.3633C-0.821487 13.0488 -0.886826 18.8501 2.53984 21.4741C2.35316 23.6367 3.12651 25.7554 4.65984 27.29C6.19318 28.8218 8.30917 29.5981 10.3625 29.3633C13.0478 32.7715 18.8492 32.8354 21.4718 29.4102C23.6318 29.5952 25.7518 28.8247 27.2865 27.29C28.8185 25.7568 29.5918 23.6367 29.3598 21.5874C31.0212 20.1899 31.9732 18.1445 31.9732 15.9766L31.9732 15.9741ZM10.6398 11.9741C10.6478 10.23 13.2985 10.23 13.3065 11.9741C13.2985 13.7178 10.6478 13.7178 10.6398 11.9741ZM14.4158 20.7139C14.0052 21.3315 13.1718 21.4888 12.5665 21.0835C11.9532 20.6753 11.7878 19.8472 12.1972 19.2339L17.5305 11.2339C17.9385 10.6221 18.7652 10.4541 19.3798 10.8647C19.9932 11.2725 20.1585 12.1006 19.7492 12.7139L14.4158 20.7139ZM19.9732 21.3071C18.2292 21.2993 18.2292 18.6484 19.9732 18.6406C21.7172 18.6484 21.7172 21.2993 19.9732 21.3071Z" fill="#FFFFFF" fill-opacity="1.000000" fill-rule="nonzero"/>
</svg>
