<svg width="32.001083" height="32.000488" viewBox="0 0 32.0011 32.0005" fill="none" xmlns="http://www.w3.org/2000/svg" xmlns:xlink="http://www.w3.org/1999/xlink">
	<desc>
			Created with Pixso.
	</desc>
	<defs/>
	<path id="Vector" d="M22.6664 32.0005L19.9998 32.0005C19.2637 32.0005 18.6664 31.4043 18.6664 30.667C18.6664 29.9297 19.2637 29.334 19.9998 29.334L22.6664 29.334C23.4024 29.334 23.9998 29.9297 23.9998 30.667C23.9998 31.4043 23.4024 32.0005 22.6664 32.0005ZM15.9998 30.667C15.9998 29.9297 15.4024 29.334 14.6664 29.334L11.9998 29.334C11.2637 29.334 10.6664 29.9297 10.6664 30.667C10.6664 31.4043 11.2637 32.0005 11.9998 32.0005L14.6664 32.0005C15.4024 32.0005 15.9998 31.4043 15.9998 30.667ZM31.9998 30.667C31.9998 29.9297 31.4024 29.334 30.6664 29.334L27.9998 29.334C27.2638 29.334 26.6664 29.9297 26.6664 30.667C26.6664 31.4043 27.2638 32.0005 27.9998 32.0005L30.6664 32.0005C31.4024 32.0005 31.9998 31.4043 31.9998 30.667ZM30.9091 1.05518C29.5024 -0.353027 27.0398 -0.348633 25.6411 1.0498L13.4718 13.0991L18.8451 18.375L30.9091 6.33008C31.6131 5.62598 32.0011 4.68994 32.0011 3.69238C32.0011 2.69531 31.6131 1.75928 30.9104 1.05518L30.9091 1.05518ZM16.8824 20.1846C15.9091 23.5112 13.2504 26.4443 10.0744 27.8486C8.07841 28.73 5.96376 29.2217 3.78775 29.3101C3.50108 29.3218 3.00642 29.3101 2.44508 29.3101C1.41441 29.3101 0.827759 28.8779 0.51709 28.5151C0.0410919 27.959 -0.0509186 27.2539 0.0224152 26.7793C0.0664215 26.498 0.199753 26.2378 0.40242 26.0352L11.5757 14.9727L16.8811 20.1831L16.8824 20.1846Z" fill="#FFFFFF" fill-opacity="1.000000" fill-rule="nonzero"/>
</svg>
