<svg width="32.000000" height="32.000000" viewBox="0 0 32 32" fill="none" xmlns="http://www.w3.org/2000/svg" xmlns:xlink="http://www.w3.org/1999/xlink">
	<desc>
			Created with Pixso.
	</desc>
	<defs>
		<clipPath id="clip1453_584">
			<rect id="home" width="32.000000" height="32.000000" fill="white" fill-opacity="0"/>
		</clipPath>
	</defs>
	<g clip-path="url(#clip1453_584)">
		<path id="Vector" d="M16 18.6665C14.9391 18.6665 13.9217 19.0879 13.1716 19.8379C12.4214 20.5884 12 21.6055 12 22.6665L12 32.0347L20 32.0347L20 22.6665C20 21.6055 19.5786 20.5884 18.8284 19.8379C18.0783 19.0879 17.0609 18.6665 16 18.6665Z" fill="#FFFFFF" fill-opacity="1.000000" fill-rule="nonzero"/>
		<path id="Vector" d="M17.784 1.11035C17.2943 0.669434 16.6588 0.425781 16 0.425781C15.3412 0.425781 14.7057 0.669434 14.216 1.11035L0 13.9053L0 27.772C0 28.9033 0.449524 29.9888 1.24969 30.7886C2.0498 31.5889 3.13507 32.0386 4.26666 32.0386L9.33331 32.0386L9.33331 22.6665C9.33331 20.8984 10.0357 19.2026 11.2859 17.9521C12.5362 16.7021 14.2319 15.9995 16 15.9995C17.7681 15.9995 19.4638 16.7021 20.7141 17.9521C21.9643 19.2026 22.6667 20.8984 22.6667 22.6665L22.6667 32.0342L27.7333 32.0342C28.8649 32.0342 29.9502 31.585 30.7503 30.7847C31.5505 29.9844 32 28.8994 32 27.7676L32 13.9009L17.784 1.11035Z" fill="#FFFFFF" fill-opacity="1.000000" fill-rule="nonzero"/>
	</g>
</svg>
