<svg width="26.666626" height="32.000000" viewBox="0 0 26.6666 32" fill="none" xmlns="http://www.w3.org/2000/svg" xmlns:xlink="http://www.w3.org/1999/xlink">
	<desc>
			Created with Pixso.
	</desc>
	<defs/>
	<path id="Vector" d="M17.3333 10.667L26.0533 10.667C25.5878 9.43262 24.8646 8.31348 23.932 7.38086L19.2867 2.7334C18.3538 1.80176 17.2335 1.0791 16 0.613281L16 9.33301C16 10.0693 16.5969 10.667 17.3333 10.667Z" fill="#FFFFFF" fill-opacity="1.000000" fill-rule="nonzero"/>
	<path id="Vector" d="M26.6346 13.333L17.3333 13.333C15.1242 13.333 13.3333 11.542 13.3333 9.33301L13.3333 0.0322266C13.1187 0.0175781 12.904 0 12.6866 0L6.66663 0C2.98657 0.00488281 0.00439453 2.98633 0 6.66699L0 25.333C0.00439453 29.0137 2.98657 31.9961 6.66663 32L19.9999 32C23.68 31.9961 26.6622 29.0137 26.6666 25.333L26.6666 13.9805C26.6666 13.7627 26.6493 13.5479 26.6346 13.333Z" fill="#FFFFFF" fill-opacity="1.000000" fill-rule="nonzero"/>
</svg>
