<svg width="32.077698" height="16.007812" viewBox="0 0 32.0777 16.0078" fill="none" xmlns="http://www.w3.org/2000/svg" xmlns:xlink="http://www.w3.org/1999/xlink">
	<desc>
			Created with Pixso.
	</desc>
	<defs/>
	<path id="Vector" d="M7.70135 13.7021L3.92139 9.85547C3.77734 9.71094 3.59467 9.51562 3.40271 9.30273L28.676 9.30273C28.4814 9.5166 28.2987 9.71387 28.1427 9.86328L24.372 13.7021C24.2411 13.8252 24.1364 13.9727 24.0641 14.1377C23.9919 14.3018 23.9537 14.4795 23.9517 14.6592C23.9497 14.8389 23.9841 15.0166 24.0527 15.1826C24.1213 15.3486 24.2227 15.499 24.3509 15.625C24.4791 15.751 24.6313 15.8496 24.7986 15.915C24.9658 15.9805 25.1446 16.0117 25.3242 16.0068C25.5037 16.001 25.6804 15.96 25.8434 15.8848C26.0066 15.8086 26.1528 15.7012 26.2734 15.5684L30.0387 11.7402C30.3054 11.4736 30.6867 11.0566 31.0734 10.6201C31.7205 9.88965 32.0777 8.94629 32.0777 7.96973C32.0777 6.99316 31.7205 6.05078 31.0734 5.31934C30.688 4.88281 30.3093 4.46973 30.0467 4.20703L26.28 0.368164C26.0291 0.132812 25.6967 0.00292969 25.3524 0.00683594C25.0081 0.0107422 24.6786 0.147461 24.433 0.388672C24.1873 0.629883 24.0444 0.957031 24.0343 1.30078C24.0242 1.64551 24.1476 1.97949 24.3787 2.23535L28.1573 6.08203C28.3013 6.22559 28.4827 6.42188 28.676 6.63379L3.40271 6.63379C3.59735 6.4209 3.78137 6.22168 3.93604 6.07422L7.70135 2.23828C7.93652 1.9834 8.06323 1.64648 8.05469 1.30078C8.04608 0.954102 7.90295 0.624023 7.65552 0.381836C7.40808 0.138672 7.07581 0.00195312 6.72919 0C6.38257 -0.00195312 6.04883 0.130859 5.79871 0.371094L2.0387 4.19922C1.77203 4.46582 1.38934 4.88281 1.00269 5.31934C0.356934 6.04785 0.000305176 6.98828 0 7.96191L0 7.97754C0.000915527 8.95215 0.358521 9.89258 1.00537 10.6221C1.39069 11.0566 1.76801 11.4697 2.0307 11.7324L5.80133 15.5713C6.05151 15.8115 6.38525 15.9443 6.73187 15.9424C7.07849 15.9404 7.41071 15.8037 7.65814 15.5605C7.90558 15.3184 8.04877 14.9883 8.05731 14.6416C8.06592 14.2949 7.93915 13.959 7.70404 13.7041L7.70135 13.7021Z" fill="#FFFFFF" fill-opacity="1.000000" fill-rule="nonzero"/>
</svg>
