<svg width="31.973145" height="31.949219" viewBox="0 0 31.9731 31.9492" fill="none" xmlns="http://www.w3.org/2000/svg" xmlns:xlink="http://www.w3.org/1999/xlink">
	<desc>
			Created with Pixso.
	</desc>
	<defs/>
	<path id="Vector" d="M31.9731 15.9736C31.9731 13.8057 31.0212 11.7607 29.4065 10.4756C29.5932 8.3125 28.8198 6.19434 27.2865 4.65918C25.7532 3.12695 23.6398 2.35156 21.5839 2.58594C18.8985 -0.822266 13.0972 -0.885742 10.4745 2.53906C6.16382 2.02734 2.01849 6.08594 2.58649 10.3633C-0.821472 13.0488 -0.886841 18.8496 2.53986 21.4736C2.35315 23.6367 3.12653 25.7549 4.65985 27.29C6.19318 28.8223 8.30914 29.5977 10.3625 29.3633C13.0479 32.7715 18.8492 32.835 21.4719 29.4102C23.6318 29.5957 25.7518 28.8242 27.2865 27.29C28.8185 25.7568 29.5919 23.6367 29.3599 21.5869C31.0212 20.1904 31.9731 18.1445 31.9731 15.9766L31.9731 15.9736ZM10.6398 11.9736C10.6478 10.2305 13.2985 10.2305 13.3065 11.9736C13.2985 13.7178 10.6478 13.7178 10.6398 11.9736ZM14.4158 20.7139C14.0052 21.3311 13.1718 21.4883 12.5665 21.083C11.9532 20.6758 11.7878 19.8477 12.1971 19.2344L17.5305 11.2344C17.9385 10.6221 18.7652 10.4541 19.3798 10.8643C19.9932 11.2725 20.1585 12.1006 19.7491 12.7139L14.4158 20.7139ZM19.9731 21.3076C18.2292 21.2998 18.2292 18.6484 19.9731 18.6406C21.7172 18.6484 21.7172 21.2998 19.9731 21.3076Z" fill="#FFFFFF" fill-opacity="1.000000" fill-rule="nonzero"/>
</svg>
