<svg width="32.000000" height="26.666992" viewBox="0 0 32 26.667" fill="none" xmlns="http://www.w3.org/2000/svg" xmlns:xlink="http://www.w3.org/1999/xlink">
	<desc>
			Created with Pixso.
	</desc>
	<defs/>
	<path id="Vector" d="M28 5.33301L6.66669 5.33301C5.52136 5.33301 4.43732 4.83691 3.68665 4.00098C4.41998 3.18262 5.48535 2.66699 6.66669 2.66699L30.6667 2.66699C32.4106 2.6582 32.4093 0.00683594 30.6667 0L6.66669 0C2.98535 0 0 2.98535 0 6.66699L0 20C0 23.6816 2.98535 26.667 6.66669 26.667L28 26.667C30.2094 26.667 32 24.876 32 22.667L32 9.33301C32 7.12402 30.2094 5.33301 28 5.33301ZM26.6667 17.333C24.9227 17.3252 24.9227 14.6748 26.6667 14.667C28.4106 14.6748 28.4106 17.3252 26.6667 17.333Z" fill="#FFFFFF" fill-opacity="1.000000" fill-rule="nonzero"/>
</svg>
