<svg width="66.666687" height="80.000000" viewBox="0 0 66.6667 80" fill="none" xmlns="http://www.w3.org/2000/svg" xmlns:xlink="http://www.w3.org/1999/xlink">
	<desc>
			Created with Pixso.
	</desc>
	<defs/>
	<path id="Vector" d="M40 23.3335L40 1.5332C43.0835 2.69775 45.8843 4.50439 48.2167 6.8335L59.83 18.4531C62.1616 20.7827 63.9696 23.583 65.1334 26.6665L43.3333 26.6665C42.4493 26.6665 41.6014 26.3154 40.9763 25.6904C40.3512 25.0654 40 24.2173 40 23.3335ZM66.6667 34.9502L66.6667 63.3335C66.6614 67.752 64.9037 71.9883 61.7793 75.1128C58.6548 78.2373 54.4186 79.9946 50 80L16.6667 80C12.248 79.9946 8.01184 78.2373 4.88739 75.1128C1.76294 71.9883 0.00531006 67.752 0 63.3335L0 16.6665C0.00531006 12.248 1.76294 8.01172 4.88739 4.88721C8.01184 1.76318 12.248 0.00537109 16.6667 0L31.7167 0C32.26 0 32.7967 0.043457 33.3333 0.0800781L33.3333 23.3335C33.3333 25.9854 34.3869 28.5288 36.2623 30.4043C38.1376 32.2798 40.6812 33.3335 43.3333 33.3335L66.5867 33.3335C66.6234 33.8701 66.6667 34.4067 66.6667 34.9502ZM40 63.3335C40 62.4492 39.6488 61.6016 39.0237 60.9761C38.3986 60.3511 37.5507 60 36.6667 60L20 60C19.116 60 18.2681 60.3511 17.643 60.9761C17.0179 61.6016 16.6667 62.4492 16.6667 63.3335C16.6667 64.2173 17.0179 65.0654 17.643 65.6904C18.2681 66.3154 19.116 66.6665 20 66.6665L36.6667 66.6665C37.5507 66.6665 38.3986 66.3154 39.0237 65.6904C39.6488 65.0654 40 64.2173 40 63.3335ZM50 50C50 49.1157 49.6488 48.2681 49.0237 47.6431C48.3986 47.0181 47.5507 46.6665 46.6667 46.6665L20 46.6665C19.116 46.6665 18.2681 47.0181 17.643 47.6431C17.0179 48.2681 16.6667 49.1157 16.6667 50C16.6667 50.8843 17.0179 51.7319 17.643 52.3569C18.2681 52.9819 19.116 53.3335 20 53.3335L46.6667 53.3335C47.5507 53.3335 48.3986 52.9819 49.0237 52.3569C49.6488 51.7319 50 50.8843 50 50Z" fill="#69D6B7" fill-opacity="1.000000" fill-rule="nonzero"/>
</svg>
