<svg width="80.006836" height="80.013184" viewBox="0 0 80.0068 80.0132" fill="none" xmlns="http://www.w3.org/2000/svg" xmlns:xlink="http://www.w3.org/1999/xlink">
	<desc>
			Created with Pixso.
	</desc>
	<defs/>
	<path id="Vector" d="M77.4099 54.1729C77.0352 55.1592 76.4183 56.0356 75.6162 56.7212C74.8142 57.4067 73.8525 57.8799 72.8199 58.0962C71.7704 58.3276 70.6793 58.2896 69.6484 57.9858C68.6174 57.6821 67.6801 57.123 66.9233 56.3599L66.59 56.0264C64.9209 54.3574 62.793 53.2231 60.4771 52.7676C58.1611 52.3125 55.7621 52.5566 53.5853 53.4692C51.4087 54.3818 49.5529 55.9214 48.2543 57.8926C46.9557 59.8633 46.2731 62.1763 46.2933 64.5366L46.4266 79.5898L43.3467 79.8462C42.2433 79.9399 41.1366 80.0132 40.0133 80.0132C32.0419 80.0156 24.2515 77.6367 17.6416 73.1807C11.0317 68.7251 5.90393 62.396 2.91614 55.0059C-0.0717773 47.6157 -0.783325 39.501 0.872559 31.7036C2.52856 23.9062 6.47656 16.7812 12.21 11.2432C16.0593 7.49219 20.6317 4.56348 25.6487 2.63574C30.6658 0.708008 36.0227 -0.178711 41.3933 0.0297852C51.5425 0.503418 61.1432 4.77295 68.2926 11.9922C75.442 19.2114 79.6182 28.853 79.9933 39.0063C80.1282 44.1821 79.2506 49.334 77.4099 54.1729ZM56.7766 26.8398C55.8209 27.0938 54.962 27.6255 54.3085 28.3672C53.6548 29.1094 53.236 30.0283 53.1047 31.0088C52.9735 31.9888 53.1359 32.9858 53.5713 33.8735C54.0066 34.7612 54.6954 35.5 55.5507 35.9966C56.406 36.4927 57.3892 36.7246 58.376 36.6621C59.3629 36.5996 60.3091 36.2461 61.095 35.646C61.8809 35.0459 62.4712 34.2261 62.7914 33.2905C63.1115 32.355 63.147 31.3457 62.8933 30.3896C62.7249 29.7549 62.433 29.1597 62.0344 28.6377C61.6359 28.1157 61.1384 27.6772 60.5703 27.3477C60.0023 27.0181 59.375 26.8037 58.724 26.7163C58.0731 26.6294 57.4114 26.6709 56.7766 26.8398ZM40.11 16.8398C39.1543 17.0938 38.2953 17.6255 37.6417 18.3672C36.9882 19.1094 36.5693 20.0283 36.4381 21.0088C36.3069 21.9888 36.4692 22.9858 36.9045 23.8735C37.34 24.7612 38.0288 25.5 38.884 25.9966C39.7393 26.4927 40.7225 26.7246 41.7094 26.6621C42.6962 26.5996 43.6425 26.2461 44.4283 25.646C45.2142 25.0459 45.8046 24.2261 46.1246 23.2905C46.4447 22.355 46.4802 21.3457 46.2267 20.3896C46.0582 19.7549 45.7664 19.1597 45.3678 18.6377C44.9692 18.1157 44.4717 17.6772 43.9037 17.3477C43.3357 17.0181 42.7083 16.8037 42.0574 16.7163C41.4064 16.6294 40.7446 16.6709 40.11 16.8398ZM23.4432 26.8398C22.4877 27.0938 21.6287 27.6255 20.9751 28.3672C20.3215 29.1094 19.9026 30.0283 19.7714 31.0088C19.6403 31.9888 19.8025 32.9858 20.2379 33.8735C20.6733 34.7612 21.3622 35.5 22.2174 35.9966C23.0726 36.4927 24.0558 36.7246 25.0427 36.6621C26.0295 36.5996 26.9757 36.2461 27.7617 35.646C28.5476 35.0459 29.1379 34.2261 29.458 33.2905C29.7781 32.355 29.8136 31.3457 29.5599 30.3896C29.3915 29.7549 29.0997 29.1597 28.7012 28.6377C28.3025 28.1157 27.8051 27.6772 27.2371 27.3477C26.6691 27.0181 26.0416 26.8037 25.3906 26.7163C24.7397 26.6294 24.078 26.6709 23.4432 26.8398ZM23.4432 46.8398C22.4877 47.0938 21.6287 47.6255 20.9751 48.3672C20.3215 49.1094 19.9026 50.0283 19.7714 51.0088C19.6403 51.9888 19.8025 52.9858 20.2379 53.8735C20.6733 54.7612 21.3622 55.5 22.2174 55.9966C23.0726 56.4927 24.0558 56.7246 25.0427 56.6621C26.0295 56.5996 26.9757 56.2461 27.7617 55.646C28.5476 55.0459 29.1379 54.2261 29.458 53.2905C29.7781 52.355 29.8136 51.3457 29.5599 50.3896C29.3915 49.7549 29.0997 49.1597 28.7012 48.6377C28.3025 48.1157 27.8051 47.6772 27.2371 47.3477C26.6691 47.0181 26.0416 46.8037 25.3906 46.7163C24.7397 46.6294 24.078 46.6709 23.4432 46.8398Z" fill="#69D6B7" fill-opacity="1.000000" fill-rule="nonzero"/>
</svg>
