<svg width="80.000000" height="80.000000" viewBox="0 0 80 80" fill="none" xmlns="http://www.w3.org/2000/svg" xmlns:xlink="http://www.w3.org/1999/xlink">
	<desc>
			Created with Pixso.
	</desc>
	<defs>
		<clipPath id="clip1448_511">
			<rect id="mode-landscape" width="80.000000" height="80.000000" fill="white" fill-opacity="0"/>
		</clipPath>
	</defs>
	<g clip-path="url(#clip1448_511)">
		<path id="Vector" d="M61.6667 26.7036C61.6667 31.3057 57.9357 35.0366 53.3333 35.0366C48.731 35.0366 45 31.3057 45 26.7036C45 22.1011 48.731 18.3701 53.3333 18.3701C57.9357 18.3701 61.6667 22.1011 61.6667 26.7036Z" fill="#69D6B7" fill-opacity="1.000000" fill-rule="evenodd"/>
		<path id="Vector" d="M76.6667 53.3335C75.7826 53.3335 74.9348 53.6846 74.3097 54.3096C73.6845 54.9351 73.3333 55.7827 73.3333 56.667L73.3333 63.3335C73.3333 65.9858 72.2798 68.5293 70.4044 70.4048C68.5291 72.2798 65.9855 73.3335 63.3333 73.3335L56.6667 73.3335C55.7826 73.3335 54.9348 73.6846 54.3097 74.3096C53.6845 74.9351 53.3333 75.7827 53.3333 76.667C53.3333 77.5508 53.6845 78.3989 54.3097 79.0239C54.9348 79.6489 55.7826 80 56.6667 80L63.3333 80C67.752 79.9946 71.9882 78.2373 75.1126 75.1128C78.2371 71.9883 79.9947 67.752 80 63.3335L80 56.667C80 55.7827 79.6488 54.9351 79.0237 54.3096C78.3986 53.6846 77.5507 53.3335 76.6667 53.3335Z" fill="#69D6B7" fill-opacity="1.000000" fill-rule="nonzero"/>
		<path id="Vector" d="M3.33334 26.6665C4.21738 26.6665 5.06525 26.3154 5.69037 25.6904C6.31549 25.0654 6.66666 24.2173 6.66666 23.3335L6.66666 16.6665C6.66666 14.0146 7.72025 11.4712 9.59561 9.5957C11.471 7.72021 14.0145 6.6665 16.6667 6.6665L23.3333 6.6665C24.2174 6.6665 25.0652 6.31543 25.6904 5.69043C26.3155 5.06543 26.6667 4.21729 26.6667 3.3335C26.6667 2.44922 26.3155 1.60156 25.6904 0.976074C25.0652 0.351074 24.2174 0 23.3333 0L16.6667 0C12.248 0.00537109 8.01187 1.76318 4.88739 4.88721C1.76294 8.01172 0.00527954 12.248 0 16.6665L0 23.3335C0 24.2173 0.351196 25.0654 0.976318 25.6904C1.60144 26.3154 2.44928 26.6665 3.33334 26.6665Z" fill="#69D6B7" fill-opacity="1.000000" fill-rule="nonzero"/>
		<path id="Vector" d="M23.3333 73.3335L16.6667 73.3335C14.0145 73.3335 11.471 72.2798 9.59561 70.4048C7.72025 68.5293 6.66666 65.9858 6.66666 63.3335L6.66666 56.667C6.66666 55.7827 6.31549 54.9351 5.69037 54.3096C5.06525 53.6846 4.21738 53.3335 3.33334 53.3335C2.44928 53.3335 1.60144 53.6846 0.976318 54.3096C0.351196 54.9351 0 55.7827 0 56.667L0 63.3335C0.00527954 67.752 1.76294 71.9883 4.88739 75.1128C8.01187 78.2373 12.248 79.9946 16.6667 80L23.3333 80C24.2174 80 25.0652 79.6489 25.6904 79.0239C26.3155 78.3989 26.6667 77.5508 26.6667 76.667C26.6667 75.7827 26.3155 74.9351 25.6904 74.3096C25.0652 73.6846 24.2174 73.3335 23.3333 73.3335Z" fill="#69D6B7" fill-opacity="1.000000" fill-rule="nonzero"/>
		<path id="Vector" d="M63.3333 0L56.6667 0C55.7826 0 54.9348 0.351074 54.3097 0.976074C53.6845 1.60156 53.3333 2.44922 53.3333 3.3335C53.3333 4.21729 53.6845 5.06543 54.3097 5.69043C54.9348 6.31543 55.7826 6.6665 56.6667 6.6665L63.3333 6.6665C65.9855 6.6665 68.5291 7.72021 70.4044 9.5957C72.2798 11.4712 73.3333 14.0146 73.3333 16.6665L73.3333 23.3335C73.3333 24.2173 73.6845 25.0654 74.3097 25.6904C74.9348 26.3154 75.7826 26.6665 76.6667 26.6665C77.5507 26.6665 78.3986 26.3154 79.0237 25.6904C79.6488 25.0654 80 24.2173 80 23.3335L80 16.6665C79.9947 12.248 78.2371 8.01172 75.1126 4.88721C71.9882 1.76318 67.752 0.00537109 63.3333 0Z" fill="#69D6B7" fill-opacity="1.000000" fill-rule="nonzero"/>
		<path id="Vector" d="M62.3567 57.6431L37.07 32.3564C35.1947 30.4819 32.6516 29.4287 30 29.4287C27.3484 29.4287 24.8053 30.4819 22.93 32.3564L15.2867 40C14.0363 41.25 13.3337 42.9453 13.3333 44.7134L13.3333 53.333C13.3333 55.9854 14.3869 58.5288 16.2623 60.4043C18.1376 62.2798 20.6812 63.333 23.3333 63.333L60 63.333C60.6592 63.333 61.3035 63.1377 61.8515 62.7715C62.3996 62.4048 62.8267 61.8843 63.0789 61.2754C63.3312 60.6665 63.3972 59.9961 63.2686 59.3496C63.1401 58.7031 62.8227 58.1094 62.3567 57.6431Z" fill="#69D6B7" fill-opacity="1.000000" fill-rule="nonzero"/>
	</g>
</svg>
