<svg width="80.000000" height="76.666504" viewBox="0 0 80 76.6665" fill="none" xmlns="http://www.w3.org/2000/svg" xmlns:xlink="http://www.w3.org/1999/xlink">
	<desc>
			Created with Pixso.
	</desc>
	<defs/>
	<path id="Vector" d="M71.6667 76.6665L8.33331 76.6665C7.23901 76.6665 6.15533 76.4512 5.14429 76.0322C4.13324 75.6138 3.2146 74.9995 2.4408 74.2261C1.66693 73.4521 1.0531 72.5332 0.634338 71.5225C0.215576 70.5112 0 69.4277 0 68.3335C0 66.123 0.877991 64.0034 2.4408 62.4409C4.0036 60.8779 6.12317 60 8.33331 60L71.6667 60C72.761 60 73.8447 60.2153 74.8557 60.6343C75.8668 61.0532 76.7854 61.667 77.5592 62.4409C78.3331 63.2148 78.9469 64.1333 79.3657 65.1445C79.7844 66.1553 80 67.2388 80 68.3335C80 69.4277 79.7844 70.5112 79.3657 71.5225C78.9469 72.5332 78.3331 73.4521 77.5592 74.2261C76.7854 74.9995 75.8668 75.6138 74.8557 76.0322C73.8447 76.4512 72.761 76.6665 71.6667 76.6665ZM80 43.3335C80 41.5654 79.2976 39.8696 78.0474 38.6191C76.7971 37.3691 75.1014 36.6665 73.3333 36.6665L6.66669 36.6665C4.89856 36.6665 3.20288 37.3691 1.95264 38.6191C0.702393 39.8696 0 41.5654 0 43.3335C0 45.1016 0.702393 46.7974 1.95264 48.0474C3.20288 49.2979 4.89856 50 6.66669 50L73.3333 50C75.1014 50 76.7971 49.2979 78.0474 48.0474C79.2976 46.7974 80 45.1016 80 43.3335ZM80 21.6665C80 20.3408 79.4732 19.0688 78.5355 18.1313C77.5978 17.1934 76.326 16.6665 75 16.6665L5 16.6665C3.67389 16.6665 2.40216 17.1934 1.46448 18.1313C0.526794 19.0688 0 20.3408 0 21.6665C0 22.9927 0.526794 24.2646 1.46448 25.2021C2.40216 26.1396 3.67389 26.6665 5 26.6665L75 26.6665C76.326 26.6665 77.5978 26.1396 78.5355 25.2021C79.4732 24.2646 80 22.9927 80 21.6665ZM80 3.3335C80 2.44922 79.6488 1.60156 79.0237 0.976074C78.3986 0.351074 77.5507 0 76.6667 0L3.33331 0C2.44928 0 1.60144 0.351074 0.976318 0.976074C0.351196 1.60156 0 2.44922 0 3.3335C0 4.21729 0.351196 5.06543 0.976318 5.69043C1.60144 6.31543 2.44928 6.6665 3.33331 6.6665L76.6667 6.6665C77.5507 6.6665 78.3986 6.31543 79.0237 5.69043C79.6488 5.06543 80 4.21729 80 3.3335Z" fill="#69D6B7" fill-opacity="1.000000" fill-rule="nonzero"/>
</svg>
