<svg width="80.011353" height="80.015625" viewBox="0 0 80.0114 80.0156" fill="none" xmlns="http://www.w3.org/2000/svg" xmlns:xlink="http://www.w3.org/1999/xlink">
	<desc>
			Created with Pixso.
	</desc>
	<defs/>
	<path id="Vector" d="M76.08 57.2788L70.71 51.9087L62.97 59.6489C62.3201 60.2988 61.4667 60.6255 60.6133 60.6255C59.76 60.6255 58.9066 60.2988 58.2567 59.6489C56.9534 58.3457 56.9534 56.2388 58.2567 54.9355L65.9967 47.1953L61.2833 42.4819L53.54 50.2256C52.89 50.8755 52.0366 51.2021 51.1833 51.2021C50.33 51.2021 49.4767 50.8755 48.8267 50.2256C47.5233 48.9224 47.5233 46.8154 48.8267 45.5122L56.5699 37.7686L51.8567 33.0557L44.1133 40.7988C43.4634 41.4487 42.61 41.7754 41.7567 41.7754C40.9033 41.7754 40.05 41.4487 39.4 40.7988C38.0967 39.4956 38.0967 37.3887 39.4 36.0854L47.1433 28.3423L42.4266 23.6289L34.6866 31.3687C34.0366 32.0186 33.1833 32.3457 32.33 32.3457C31.4767 32.3457 30.6233 32.0186 29.9734 31.3687C28.67 30.0654 28.67 27.959 29.9734 26.6553L37.7134 18.9155L32.8267 14.0288L25.0834 21.772C24.4333 22.4224 23.58 22.749 22.7267 22.749C21.8733 22.749 21.02 22.4224 20.37 21.772C19.0667 20.4688 19.0667 18.3623 20.37 17.0586L28.1133 9.31543L22.7433 3.94531C18.8534 0.0556641 13.2866 -1.05811 8.22339 1.05225C3.15002 3.14893 0 7.8623 0 13.3555L0 63.3257C0 72.5288 7.48669 80.0156 16.6899 80.0156L66.66 80.0156C72.1467 80.0156 76.8633 76.8652 78.9634 71.792C81.0634 66.7188 79.96 61.1621 76.08 57.2788ZM41.4133 57.959C40.8967 59.2056 39.6801 60.0156 38.3334 60.0156L23.3334 60.0156C21.4933 60.0156 20 58.5254 20 56.6821L20 41.6821C20 40.3354 20.8134 39.1152 22.0566 38.6021C23.3033 38.0786 24.7367 38.3687 25.6899 39.3257L40.6899 54.3257C41.6433 55.2788 41.9301 56.7119 41.4133 57.959Z" fill="#69D6B7" fill-opacity="1.000000" fill-rule="nonzero"/>
</svg>
