<svg width="30.119995" height="30.120001" viewBox="0 0 30.12 30.12" fill="none" xmlns="http://www.w3.org/2000/svg" xmlns:xlink="http://www.w3.org/1999/xlink">
	<desc>
			Created with Pixso.
	</desc>
	<defs/>
	<path id="Vector" d="M21.217 9.015C21.223 9.015 21.231 9.015 21.239 9.015C21.448 9.015 21.642 9.08 21.801 9.192L21.798 9.19C21.9139 9.291 21.9919 9.433 22.011 9.593L22.011 9.596C22.031 9.718 22.042 9.858 22.042 10.001C22.042 10.066 22.04 10.13 22.035 10.194L22.035 10.185C21.8101 12.554 20.834 18.299 20.338 20.951C20.1281 22.074 19.715 22.45 19.3149 22.486C18.446 22.567 17.786 21.912 16.944 21.36C15.626 20.495 14.881 19.957 13.6021 19.114C12.123 18.141 13.082 17.604 13.924 16.73C14.145 16.5 17.976 13.015 18.051 12.699C18.0551 12.68 18.057 12.659 18.057 12.637C18.057 12.559 18.028 12.488 17.981 12.434C17.929 12.4 17.864 12.381 17.796 12.381C17.751 12.381 17.708 12.39 17.668 12.405L17.67 12.404C17.538 12.434 15.4326 13.8253 11.354 16.578C10.9091 16.929 10.347 17.151 9.73499 17.177L9.729 17.177C8.86206 17.072 8.07495 16.879 7.328 16.604L7.40198 16.628C6.46399 16.322 5.71899 16.161 5.78296 15.643C5.81702 15.3737 6.18835 15.098 6.89697 14.816C11.2623 12.914 14.1733 11.6603 15.63 11.055C17.2371 10.202 19.1 9.5 21.059 9.045L21.2159 9.014L21.217 9.015ZM15.025 0C6.72302 0.0200005 0 6.755 0 15.06C0 23.377 6.74194 30.12 15.0601 30.12C23.3781 30.12 30.12 23.378 30.12 15.06C30.12 6.755 23.397 0.0200005 15.097 0L15.095 0C15.0717 0 15.0483 0 15.025 0Z" fill="#2A2E84" fill-opacity="1.000000" fill-rule="nonzero"/>
</svg>
