<svg width="32.000000" height="32.000000" viewBox="0 0 32 32" fill="none" xmlns="http://www.w3.org/2000/svg" xmlns:xlink="http://www.w3.org/1999/xlink">
	<desc>
			Created with Pixso.
	</desc>
	<defs>
		<clipPath id="clip1444_929">
			<rect id="whatsapp-128-svgrepo-com" width="32.000000" height="32.000000" fill="white" fill-opacity="0"/>
		</clipPath>
	</defs>
	<g clip-path="url(#clip1444_929)">
		<path id="whatsapp-[#128]" d="M25.3136 22.5938C24.928 23.6853 23.3953 24.5883 22.1729 24.8523C21.3361 25.03 20.2448 25.1705 16.568 23.6469C12.4384 21.936 6.70398 15.8416 6.70398 11.7859C6.70398 9.72131 7.89441 7.31719 9.97595 7.31719C10.9777 7.31719 11.1984 7.33672 11.528 8.12734C11.9136 9.05883 12.8544 11.3538 12.9664 11.5891C13.4288 12.5541 12.496 13.1191 11.8192 13.9594C11.6031 14.2122 11.3584 14.4857 11.632 14.9562C11.9041 15.4172 12.8448 16.9505 14.2272 18.1812C16.0128 19.7721 17.4608 20.28 17.9792 20.4961C18.3647 20.6561 18.8256 20.6189 19.1072 20.318C19.464 19.9323 19.9072 19.2923 20.3584 18.6617C20.6768 18.2104 21.0817 18.154 21.5056 18.3141C21.792 18.4133 25.432 20.1037 25.5856 20.3742C25.6992 20.5711 25.6992 21.5022 25.3136 22.5938ZM16.0032 0L15.9952 0C7.17444 0 0 7.17656 0 16C0 19.4987 1.12805 22.7445 3.04639 25.3773L1.05286 31.3227L7.20166 29.3578C9.7312 31.0319 12.7504 32 16.0032 32C24.824 32 32 24.8234 32 16C32 7.17656 24.824 0 16.0032 0Z" fill="#69D6B7" fill-opacity="1.000000" fill-rule="evenodd"/>
	</g>
</svg>
