<svg width="28" height="31" viewBox="0 0 28 31" fill="none" xmlns="http://www.w3.org/2000/svg">
<path d="M12.2424 25.0068V18.6403C11.5242 18.3864 10.8457 17.9892 10.2711 17.4146C8.21171 15.3552 8.21171 12.0163 10.2711 9.95686C10.8469 9.38117 11.5225 8.96645 12.2423 8.71256L12.2422 13.6858L14 15.4436L15.7578 13.6858V8.71238C16.4776 8.96621 17.1532 9.38117 17.7289 9.95686C19.7883 12.0163 19.7883 15.3552 17.7289 17.4146C17.1543 17.9892 16.4758 18.3864 15.7577 18.6403V25.0068" stroke="url(#paint0_linear_0_1229)" stroke-width="1.5" stroke-miterlimit="10"/>
<path d="M26.3047 4.89453V13.1913C26.3047 20.7675 21.2774 27.5117 14 29.5859C6.72266 27.5117 1.69531 20.7675 1.69531 13.1913V4.89453L5.21094 1.37891H22.7891L26.3047 4.89453Z" stroke="url(#paint1_linear_0_1229)" stroke-width="1.5" stroke-miterlimit="10"/>
<path d="M14 25.8076C8.77807 23.8747 5.21094 18.8244 5.21094 13.1914V6.35151L6.66746 4.89498H21.3325L22.7891 6.35151V13.1914C22.7891 18.8244 19.2219 23.8747 14 25.8076Z" stroke="url(#paint2_linear_0_1229)" stroke-width="1.5" stroke-miterlimit="10"/>
<defs>
<linearGradient id="paint0_linear_0_1229" x1="8.72656" y1="25.0068" x2="19.7636" y2="24.9314" gradientUnits="userSpaceOnUse">
<stop offset="0" stop-color="#D46412"/>
<stop offset="1" stop-color="#FCA85B"/>
</linearGradient>
<linearGradient id="paint1_linear_0_1229" x1="1.69531" y1="29.5859" x2="27.4473" y2="29.3488" gradientUnits="userSpaceOnUse">
<stop offset="0" stop-color="#D46412"/>
<stop offset="1" stop-color="#FCA85B"/>
</linearGradient>
<linearGradient id="paint2_linear_0_1229" x1="5.21094" y1="25.8076" x2="23.6053" y2="25.6444" gradientUnits="userSpaceOnUse">
<stop offset="0" stop-color="#D46412"/>
<stop offset="1" stop-color="#FCA85B"/>
</linearGradient>
</defs>
</svg>
