<svg width="28" height="31" viewBox="0 0 28 31" fill="none" xmlns="http://www.w3.org/2000/svg">
<path d="M22.9019 20.9178C24.9692 21.6884 26.3623 23.6687 26.3623 25.903V29.6207" stroke="url(#paint0_linear_0_1170)" stroke-width="1.5" stroke-miterlimit="10" stroke-linecap="round" stroke-linejoin="round"/>
<path d="M17.085 19.2207L19.3941 19.8883" stroke="url(#paint1_linear_0_1170)" stroke-width="1.5" stroke-miterlimit="10" stroke-linecap="round" stroke-linejoin="round"/>
<path d="M8.60596 19.8813L10.9534 19.2059" stroke="url(#paint2_linear_0_1170)" stroke-width="1.5" stroke-miterlimit="10" stroke-linecap="round" stroke-linejoin="round"/>
<path d="M1.6377 29.6211V25.8916C1.6377 23.6679 3.01764 21.6959 5.06844 20.9177" stroke="url(#paint3_linear_0_1170)" stroke-width="1.5" stroke-miterlimit="10" stroke-linecap="round" stroke-linejoin="round"/>
<path d="M17.0892 17.4872V19.2062L17.0715 19.2272C15.4695 21.1244 12.5425 21.1144 10.9536 19.2062V17.4872" stroke="url(#paint4_linear_0_1170)" stroke-width="1.5" stroke-miterlimit="10" stroke-linecap="round" stroke-linejoin="round"/>
<path d="M22.9017 29.6211V20.3329C22.7765 20.2862 22.6491 20.2435 22.5191 20.2059L19.3939 19.3024V26.5123H8.60599V19.2949L5.48723 20.1922C5.355 20.2302 5.22546 20.2736 5.09814 20.3211V29.621" stroke="url(#paint5_linear_0_1170)" stroke-width="1.5" stroke-miterlimit="10" stroke-linecap="round" stroke-linejoin="round"/>
<path d="M20.2225 10.663V13.1775C20.2225 15.5576 18.2931 17.4871 15.913 17.4871H12.0869C9.7068 17.4871 7.77734 15.5576 7.77734 13.1775V10.663" stroke="url(#paint6_linear_0_1170)" stroke-width="1.5" stroke-miterlimit="10" stroke-linecap="round" stroke-linejoin="round"/>
<path d="M7.77734 7.30845V6.80042C7.77734 4.4203 9.7068 2.49084 12.0869 2.49084H15.913C18.2931 2.49084 20.2225 4.4203 20.2225 6.80042V7.30845" stroke="url(#paint7_linear_0_1170)" stroke-width="1.5" stroke-miterlimit="10" stroke-linecap="round" stroke-linejoin="round"/>
<path d="M14 2.49092V1.37878" stroke="url(#paint8_linear_0_1170)" stroke-width="1.5" stroke-miterlimit="10" stroke-linecap="round" stroke-linejoin="round"/>
<path d="M16.5297 6.58294V4.28672C16.5297 3.29493 15.7257 2.49097 14.7339 2.49097H13.2665C12.2747 2.49097 11.4707 3.29493 11.4707 4.28672V6.57685" stroke="url(#paint9_linear_0_1170)" stroke-width="1.5" stroke-miterlimit="10" stroke-linecap="round" stroke-linejoin="round"/>
<path d="M19.5911 10.6898C15.9331 9.677 12.0672 9.677 8.40927 10.6898C7.63056 10.9054 6.91994 10.1749 7.14838 9.39993L7.76467 7.30901C11.9991 6.14683 16.0014 6.14683 20.2358 7.30901L20.8521 9.39993C21.0804 10.1749 20.3698 10.9054 19.5911 10.6898Z" stroke="url(#paint10_linear_0_1170)" stroke-width="1.5" stroke-miterlimit="10" stroke-linecap="round" stroke-linejoin="round"/>
<defs>
<linearGradient id="paint0_linear_0_1170" x1="22.9019" y1="20.9178" x2="26.5232" y2="20.933" gradientUnits="userSpaceOnUse">
<stop offset="0" stop-color="#D46412"/>
<stop offset="1" stop-color="#FCA85B"/>
</linearGradient>
<linearGradient id="paint1_linear_0_1170" x1="17.085" y1="19.2207" x2="19.4983" y2="19.3088" gradientUnits="userSpaceOnUse">
<stop offset="0" stop-color="#D46412"/>
<stop offset="1" stop-color="#FCA85B"/>
</linearGradient>
<linearGradient id="paint2_linear_0_1170" x1="8.60596" y1="19.2059" x2="11.0593" y2="19.2959" gradientUnits="userSpaceOnUse">
<stop offset="0" stop-color="#D46412"/>
<stop offset="1" stop-color="#FCA85B"/>
</linearGradient>
<linearGradient id="paint3_linear_0_1170" x1="1.6377" y1="20.9177" x2="5.22796" y2="20.9327" gradientUnits="userSpaceOnUse">
<stop offset="0" stop-color="#D46412"/>
<stop offset="1" stop-color="#FCA85B"/>
</linearGradient>
<linearGradient id="paint4_linear_0_1170" x1="10.9536" y1="17.4872" x2="17.3719" y2="17.6188" gradientUnits="userSpaceOnUse">
<stop offset="0" stop-color="#D46412"/>
<stop offset="1" stop-color="#FCA85B"/>
</linearGradient>
<linearGradient id="paint5_linear_0_1170" x1="5.09814" y1="19.2949" x2="23.7237" y2="19.6338" gradientUnits="userSpaceOnUse">
<stop offset="0" stop-color="#D46412"/>
<stop offset="1" stop-color="#FCA85B"/>
</linearGradient>
<linearGradient id="paint6_linear_0_1170" x1="7.77734" y1="10.663" x2="20.7966" y2="10.9135" gradientUnits="userSpaceOnUse">
<stop offset="0" stop-color="#D46412"/>
<stop offset="1" stop-color="#FCA85B"/>
</linearGradient>
<linearGradient id="paint7_linear_0_1170" x1="7.77734" y1="2.49084" x2="20.7918" y2="2.84566" gradientUnits="userSpaceOnUse">
<stop offset="0" stop-color="#D46412"/>
<stop offset="1" stop-color="#FCA85B"/>
</linearGradient>
<linearGradient id="paint8_linear_0_1170" x1="14" y1="1.37878" x2="15.0464" y2="1.38871" gradientUnits="userSpaceOnUse">
<stop offset="0" stop-color="#D46412"/>
<stop offset="1" stop-color="#FCA85B"/>
</linearGradient>
<linearGradient id="paint9_linear_0_1170" x1="11.4707" y1="2.49097" x2="16.7641" y2="2.56003" gradientUnits="userSpaceOnUse">
<stop offset="0" stop-color="#D46412"/>
<stop offset="1" stop-color="#FCA85B"/>
</linearGradient>
<linearGradient id="paint10_linear_0_1170" x1="7.10498" y1="6.43738" x2="21.5204" y2="6.92635" gradientUnits="userSpaceOnUse">
<stop offset="0" stop-color="#D46412"/>
<stop offset="1" stop-color="#FCA85B"/>
</linearGradient>
</defs>
</svg>
