<svg width="22" height="20" viewBox="0 0 22 20" fill="none" xmlns="http://www.w3.org/2000/svg">
<path d="M20.5782 1.33887C20.3129 1.13118 20.0039 0.986496 19.6744 0.915758C19.345 0.845019 19.0038 0.850072 18.6766 0.930536L14.5582 1.96887C14.3889 2.0039 14.2142 2.0039 14.0449 1.96887L8.23492 0.522203C7.8818 0.440516 7.5147 0.440516 7.16158 0.522203L2.24992 1.75887C1.77008 1.87713 1.34378 2.15291 1.03921 2.54208C0.734636 2.93126 0.569393 3.41135 0.569916 3.90554V16.9139C0.566826 17.2516 0.642134 17.5854 0.789916 17.889C0.937699 18.1927 1.15392 18.4579 1.42158 18.6639C1.68691 18.8716 1.99596 19.0162 2.3254 19.087C2.65484 19.1577 2.99605 19.1527 3.32325 19.0722L7.44158 18.0339C7.6109 17.9988 7.7856 17.9988 7.95492 18.0339L13.7649 19.4805C13.9414 19.5179 14.1212 19.5374 14.3016 19.5389C14.4819 19.5368 14.6617 19.5172 14.8382 19.4805L19.7499 18.2439C20.2297 18.1256 20.656 17.8498 20.9606 17.4607C21.2652 17.0715 21.4304 16.5914 21.4299 16.0972V3.08887C21.433 2.75117 21.3577 2.41736 21.2099 2.1137C21.0621 1.81004 20.8459 1.5448 20.5782 1.33887ZM7.11492 16.9139L3.04325 17.9289C2.88845 17.9703 2.72616 17.9753 2.56909 17.9436C2.41202 17.9118 2.26443 17.8441 2.13788 17.7458C2.01133 17.6475 1.90924 17.5213 1.83962 17.3769C1.77 17.2326 1.73474 17.0741 1.73658 16.9139V3.90554C1.73728 3.67226 1.81564 3.44587 1.9593 3.26207C2.10295 3.07828 2.30372 2.94756 2.52992 2.89054L7.11492 1.73554V16.9139ZM13.7182 18.2672L8.28158 16.9139V1.73554L13.7182 3.08887V18.2672ZM20.2632 16.0972C20.2626 16.3305 20.1842 16.5569 20.0405 16.7407C19.8969 16.9245 19.6961 17.0552 19.4699 17.1122L14.8849 18.2672V3.08887L18.9566 2.07387C19.1125 2.0338 19.2755 2.02979 19.4331 2.06213C19.5908 2.09448 19.739 2.16233 19.8666 2.26054C19.9921 2.3587 20.0932 2.48454 20.162 2.62823C20.2308 2.77192 20.2654 2.92957 20.2632 3.08887V16.0972Z" fill="url(#paint0_linear_0_1443)"/>
<defs>
<linearGradient id="paint0_linear_0_1443" x1="0.569824" y1="0.460938" x2="22.3975" y2="0.712823" gradientUnits="userSpaceOnUse">
<stop offset="0" stop-color="#D46412"/>
<stop offset="1" stop-color="#FCA85B"/>
</linearGradient>
</defs>
</svg>
