<svg width="74" height="74" viewBox="0 0 74 74" fill="none" xmlns="http://www.w3.org/2000/svg">
<path d="M64.5928 11.8397L65.2903 11.1421C65.6756 10.7566 65.6756 10.1323 65.2903 9.74698C64.905 9.36168 64.2805 9.36168 63.8952 9.74698L63.1976 10.4446L62.5 9.74698C62.1145 9.36168 61.4902 9.36168 61.1049 9.74698C60.7196 10.1323 60.7196 10.7568 61.1049 11.1421L61.8025 11.8397L61.1049 12.5373C60.7196 12.9228 60.7196 13.5471 61.1049 13.9324C61.2975 14.1251 61.5501 14.2215 61.8025 14.2215C62.055 14.2215 62.3074 14.1251 62.5 13.9324L63.1976 13.2348L63.8952 13.9324C64.0878 14.1251 64.3404 14.2215 64.5928 14.2215C64.8451 14.2215 65.0977 14.1251 65.2903 13.9324C65.6756 13.5471 65.6756 12.9226 65.2903 12.5373L64.5928 11.8397Z" fill="#155172"/>
<path d="M60.2372 25.653C60.7821 25.653 61.2238 25.2113 61.2238 24.6664C61.2238 24.1214 60.7821 23.6797 60.2372 23.6797C59.6922 23.6797 59.2505 24.1214 59.2505 24.6664C59.2505 25.2113 59.6922 25.653 60.2372 25.653Z" fill="#155172"/>
<path d="M57.5211 40.3566C58.2571 41.0551 59.2206 41.4399 60.2364 41.4399C61.3155 41.4399 62.3592 40.9915 63.1009 40.2091C63.8266 39.4442 64.2109 38.442 64.183 37.3884C64.1552 36.3347 63.7176 35.3549 62.9537 34.6297L54.3174 26.4416V15.7866C54.3174 15.2417 53.8761 14.7999 53.3307 14.7999H46.424C45.8787 14.7999 45.4374 15.2417 45.4374 15.7866V18.0224L39.0181 11.9364C37.4957 10.4934 35.1109 10.4904 33.5868 11.9364L9.6522 34.6297C8.88729 35.3547 8.4497 36.3347 8.42183 37.3884C8.39395 38.442 8.77826 39.4442 9.50395 40.2096C10.2294 40.9742 11.2094 41.4111 12.2627 41.439C12.2992 41.4399 12.3349 41.4404 12.3705 41.4404C13.385 41.4404 14.3448 41.0579 15.0838 40.3568L16.824 38.7069V62.1599C16.824 62.7048 17.2653 63.1466 17.8107 63.1466H23.7307V64.1333C23.7307 64.4502 23.8829 64.748 24.1402 64.9335C24.3109 65.0563 24.5131 65.1199 24.7174 65.1199C24.8224 65.1199 24.9275 65.1032 25.0296 65.0694L30.7972 63.1466H31.0343H55.304C55.8494 63.1466 56.2907 62.7048 56.2907 62.1599V50.3199H59.744C60.56 50.3199 61.224 50.984 61.224 51.7999C61.224 52.6159 60.56 53.2799 59.744 53.2799H59.2507C58.7053 53.2799 58.264 53.7217 58.264 54.2666C58.264 54.8115 58.7053 55.2533 59.2507 55.2533H59.744C61.6481 55.2533 63.1974 53.704 63.1974 51.7999C63.1974 49.8959 61.6481 48.3466 59.744 48.3466H56.2907V39.1898L57.5211 40.3566ZM47.4107 16.7733H52.344V24.5707L47.4107 19.8934V16.7733ZM13.7254 38.9252C13.3428 39.2888 12.8359 39.4782 12.3157 39.4666C11.7886 39.4525 11.2992 39.234 10.9359 38.8514C10.5728 38.4683 10.3809 37.9674 10.3954 37.4407C10.4087 36.9136 10.6275 36.4242 11.0101 36.0614L34.9454 13.368C35.326 13.0072 35.8147 12.8266 36.3021 12.8266C36.7905 12.8266 37.2791 13.0072 37.6597 13.368L61.596 36.0614C61.9776 36.4242 62.1964 36.9136 62.2097 37.4407C62.2243 37.9674 62.0324 38.4683 61.6693 38.8514C60.9426 39.6166 59.6429 39.6506 58.8797 38.9252L36.9824 18.1627C36.6008 17.8014 36.0053 17.8004 35.6237 18.1627L13.7254 38.9252ZM29.6507 61.4488L25.704 62.7645V38.862L29.6507 40.1777V61.4488ZM31.624 61.1733V40.4533H41.4907V44.3999H37.544C36.9987 44.3999 36.5574 44.8417 36.5574 45.3866C36.5574 45.9315 36.9987 46.3733 37.544 46.3733H41.4907V48.3466H37.544C36.9987 48.3466 36.5574 48.7884 36.5574 49.3333C36.5574 49.8782 36.9987 50.3199 37.544 50.3199H41.4907V52.2933H37.544C36.9987 52.2933 36.5574 52.7351 36.5574 53.2799C36.5574 53.8248 36.9987 54.2666 37.544 54.2666H41.4907V61.1733H31.624ZM54.3174 61.1733H43.464V54.2666H46.424C46.9684 54.2666 47.4107 54.7094 47.4107 55.2533V56.2399C47.4107 56.7838 46.9684 57.2266 46.424 57.2266C45.8787 57.2266 45.4374 57.6684 45.4374 58.2133C45.4374 58.7582 45.8787 59.1999 46.424 59.1999C48.0562 59.1999 49.384 57.8721 49.384 56.2399V55.2533C49.384 53.6211 48.0562 52.2933 46.424 52.2933H43.464V50.3199H54.3174V61.1733ZM54.3174 37.4933V48.3466H43.464V46.3733H47.904C49.8081 46.3733 51.3574 44.824 51.3574 42.9199C51.3574 41.0159 49.8081 39.4666 47.904 39.4666H47.4107C46.8653 39.4666 46.424 39.9084 46.424 40.4533C46.424 40.9982 46.8653 41.4399 47.4107 41.4399H47.904C48.72 41.4399 49.384 42.104 49.384 42.9199C49.384 43.7359 48.72 44.3999 47.904 44.3999H43.464V39.4666C43.464 38.9217 43.0227 38.4799 42.4774 38.4799H30.7972L25.0294 36.5572C24.7277 36.4565 24.3974 36.5066 24.1399 36.6931C23.8826 36.8786 23.7305 37.1763 23.7305 37.4933V61.1733H18.7971V36.9733C18.7971 36.9324 18.7786 36.8976 18.7739 36.8579L36.3028 20.238L54.3467 37.3465C54.3393 37.3966 54.3174 37.4412 54.3174 37.4933Z" fill="#155172"/>
<path d="M19.7842 14.7999C21.4164 14.7999 22.7442 13.4721 22.7442 11.8399C22.7442 10.2077 21.4164 8.87988 19.7842 8.87988C18.152 8.87988 16.8242 10.2077 16.8242 11.8399C16.8242 13.4721 18.152 14.7999 19.7842 14.7999ZM19.7842 10.8532C20.3286 10.8532 20.7709 11.296 20.7709 11.8399C20.7709 12.3838 20.3286 12.8265 19.7842 12.8265C19.2398 12.8265 18.7976 12.3838 18.7976 11.8399C18.7976 11.296 19.2398 10.8532 19.7842 10.8532Z" fill="#155172"/>
</svg>
