<svg width="75" height="74" viewBox="0 0 75 74" fill="none" xmlns="http://www.w3.org/2000/svg">
<path d="M64.993 10.8535H10.0075C8.30107 10.8535 6.91357 12.241 6.91357 13.9475V15.7868V27.727C6.91357 32.0244 10.4093 35.5202 14.7068 35.5202H49.3402V60.842C49.3402 62.1128 50.374 63.1469 51.6451 63.1469H65.7821C67.0529 63.1469 68.0869 62.1131 68.0869 60.842V30.9184C68.0869 30.5082 67.9702 30.1283 67.7815 29.7941C67.9668 29.1221 68.0869 28.4334 68.0869 27.727V15.7868V13.9475C68.0869 12.241 66.6994 10.8535 64.993 10.8535ZM49.3738 30.5868H19.3636L17.3902 26.6402H57.6105L56.6233 28.6135H51.6451C50.4877 28.6135 49.5361 29.4736 49.3738 30.5868ZM51.3136 30.9184C51.3136 30.7353 51.4621 30.5868 51.6451 30.5868H65.7821C65.9651 30.5868 66.1136 30.7353 66.1136 30.9184V56.2402H51.3136V30.9184ZM10.0075 12.8268H64.993C65.6106 12.8268 66.1136 13.3298 66.1136 13.9475V14.8002H8.88691V13.9475C8.88691 13.3298 9.38986 12.8268 10.0075 12.8268ZM14.7068 33.5468C11.4981 33.5468 8.88691 30.9356 8.88691 27.727V16.7735H66.1136V27.727C66.1136 28.0351 66.0842 28.339 66.0369 28.6392C65.952 28.6295 65.8694 28.6135 65.7821 28.6135H58.8298L60.0895 26.0948C60.2427 25.7894 60.2264 25.4261 60.0461 25.135C59.8667 24.844 59.5488 24.6668 59.2069 24.6668H15.7936C15.4514 24.6668 15.1345 24.8442 14.9544 25.135C14.7743 25.4258 14.7578 25.7892 14.911 26.0948L17.871 32.0148C18.0387 32.3493 18.3796 32.5602 18.7536 32.5602H49.3402V33.5468H14.7068ZM65.7821 61.1735H58.7136H51.6451C51.4621 61.1735 51.3136 61.025 51.3136 60.842V58.2135H58.7136H66.1136V60.842C66.1136 61.025 65.9651 61.1735 65.7821 61.1735Z" fill="#155172"/>
<path d="M61.6734 21.7071C62.4907 21.7071 63.1534 21.0445 63.1534 20.2271C63.1534 19.4097 62.4907 18.7471 61.6734 18.7471C60.856 18.7471 60.1934 19.4097 60.1934 20.2271C60.1934 21.0445 60.856 21.7071 61.6734 21.7071Z" fill="#155172"/>
<path d="M56.7403 21.7071C57.5576 21.7071 58.2203 21.0445 58.2203 20.2271C58.2203 19.4097 57.5576 18.7471 56.7403 18.7471C55.9229 18.7471 55.2603 19.4097 55.2603 20.2271C55.2603 21.0445 55.9229 21.7071 56.7403 21.7071Z" fill="#155172"/>
<path d="M58.7134 61.1734C59.5308 61.1734 60.1934 60.5108 60.1934 59.6934C60.1934 58.876 59.5308 58.2134 58.7134 58.2134C57.896 58.2134 57.2334 58.876 57.2334 59.6934C57.2334 60.5108 57.896 61.1734 58.7134 61.1734Z" fill="#155172"/>
<path d="M33.5535 37.4937C33.0081 37.4937 32.5668 37.9349 32.5668 38.4803V47.8537C32.5668 49.2143 31.4608 50.3203 30.1002 50.3203C28.7395 50.3203 27.6335 49.2143 27.6335 47.8537C27.6335 47.3083 27.1922 46.867 26.6468 46.867C26.1014 46.867 25.6602 47.3083 25.6602 47.8537C25.6602 50.3021 27.6517 52.2937 30.1002 52.2937C32.5486 52.2937 34.5402 50.3021 34.5402 47.8537V38.4803C34.5402 37.9349 34.0989 37.4937 33.5535 37.4937Z" fill="#155172"/>
<path d="M46.3801 46.867C45.8348 46.867 45.3935 47.3083 45.3935 47.8537C45.3935 49.2143 44.2874 50.3203 42.9268 50.3203C41.5662 50.3203 40.4601 49.2143 40.4601 47.8537V38.4803C40.4601 37.9349 40.0189 37.4937 39.4735 37.4937C38.9281 37.4937 38.4868 37.9349 38.4868 38.4803V47.8537C38.4868 50.3021 40.4784 52.2937 42.9268 52.2937C45.3752 52.2937 47.3668 50.3021 47.3668 47.8537C47.3668 47.3083 46.9255 46.867 46.3801 46.867Z" fill="#155172"/>
<path d="M36.5135 44.4003C37.0589 44.4003 37.5002 43.959 37.5002 43.4137V38.4803C37.5002 37.9349 37.0589 37.4937 36.5135 37.4937C35.9681 37.4937 35.5269 37.9349 35.5269 38.4803V43.4137C35.5269 43.959 35.9681 44.4003 36.5135 44.4003Z" fill="#155172"/>
<path d="M42.4335 53.2801C41.8881 53.2801 41.4469 53.7213 41.4469 54.2667C41.4469 55.3545 40.5613 56.2401 39.4735 56.2401C38.3857 56.2401 37.5002 55.3545 37.5002 54.2667V46.3734C37.5002 45.828 37.0589 45.3867 36.5135 45.3867C35.9681 45.3867 35.5269 45.828 35.5269 46.3734V54.2667C35.5269 56.4433 37.2969 58.2134 39.4735 58.2134C41.6501 58.2134 43.4202 56.4433 43.4202 54.2667C43.4202 53.7213 42.9789 53.2801 42.4335 53.2801Z" fill="#155172"/>
<path d="M31.5803 47.3601V40.4535C31.5803 39.9081 31.139 39.4668 30.5936 39.4668C30.0482 39.4668 29.6069 39.9081 29.6069 40.4535V47.3601C29.6069 47.9055 30.0482 48.3468 30.5936 48.3468C31.139 48.3468 31.5803 47.9055 31.5803 47.3601Z" fill="#155172"/>
<path d="M60.1938 46.0516V38.9735C60.1938 37.6129 59.0877 36.5068 57.7271 36.5068C56.3665 36.5068 55.2604 37.6129 55.2604 38.9735V46.0516C53.5116 47.0585 52.5375 49.0424 52.8535 51.0957C53.181 53.2289 54.979 54.9624 57.1267 55.2177C57.3233 55.2409 57.5199 55.2525 57.7155 55.2525C58.9237 55.2525 60.0963 54.8142 61.0031 54.0086C62.0563 53.073 62.6604 51.7289 62.6604 50.3202C62.6604 48.5348 61.7113 46.9246 60.1938 46.0516ZM59.6918 52.5335C59.0519 53.1031 58.2175 53.3603 57.3601 53.2582C56.0747 53.106 54.9995 52.0703 54.8039 50.7955C54.593 49.4216 55.3386 48.0994 56.6173 47.5812C56.9903 47.43 57.234 47.0686 57.234 46.6668V38.9735C57.234 38.7017 57.4555 38.4802 57.7273 38.4802C57.9992 38.4802 58.2207 38.7017 58.2207 38.9735V46.6665C58.2207 47.0684 58.4644 47.4297 58.8364 47.5809C59.9607 48.0365 60.6871 49.112 60.6871 50.3202C60.6871 51.1652 60.3247 51.9716 59.6918 52.5335Z" fill="#155172"/>
<path d="M64.1404 33.5471H63.1537V32.5604C63.1537 32.015 62.7124 31.5737 62.167 31.5737C61.6217 31.5737 61.1804 32.015 61.1804 32.5604V33.5471H60.1937C59.6483 33.5471 59.207 33.9884 59.207 34.5337C59.207 35.0791 59.6483 35.5204 60.1937 35.5204H61.1804V36.5071C61.1804 37.0524 61.6217 37.4937 62.167 37.4937C62.7124 37.4937 63.1537 37.0524 63.1537 36.5071V35.5204H64.1404C64.6857 35.5204 65.127 35.0791 65.127 34.5337C65.127 33.9884 64.6857 33.5471 64.1404 33.5471Z" fill="#155172"/>
</svg>
