<svg width="74" height="74" viewBox="0 0 74 74" fill="none" xmlns="http://www.w3.org/2000/svg">
<path d="M10.649 19.2203C10.8417 19.4129 11.0943 19.5094 11.3466 19.5094C11.5989 19.5094 11.8515 19.4129 12.0442 19.2203L12.8266 18.4379L13.609 19.2203C13.8017 19.4129 14.0543 19.5094 14.3066 19.5094C14.5589 19.5094 14.8115 19.4129 15.0042 19.2203C15.3895 18.835 15.3895 18.2104 15.0042 17.8251L14.2217 17.0427L15.0042 16.2603C15.3895 15.875 15.3895 15.2504 15.0042 14.8651C14.6189 14.4798 13.9943 14.4798 13.609 14.8651L12.8266 15.6476L12.0442 14.8651C11.6589 14.4798 11.0343 14.4798 10.649 14.8651C10.2637 15.2504 10.2637 15.875 10.649 16.2603L11.4314 17.0427L10.649 17.8251C10.2635 18.2104 10.2635 18.8347 10.649 19.2203Z" fill="#155172"/>
<path d="M60.6797 57.9893C59.0475 57.9893 57.7197 59.3171 57.7197 60.9493C57.7197 62.5815 59.0475 63.9093 60.6797 63.9093C62.3119 63.9093 63.6397 62.5815 63.6397 60.9493C63.6397 59.3171 62.3119 57.9893 60.6797 57.9893ZM60.6797 61.9359C60.1358 61.9359 59.6931 61.4932 59.6931 60.9493C59.6931 60.4054 60.1358 59.9626 60.6797 59.9626C61.2236 59.9626 61.6664 60.4054 61.6664 60.9493C61.6664 61.4932 61.2236 61.9359 60.6797 61.9359Z" fill="#155172"/>
<path d="M20.3245 12.2003C20.9072 12.2003 21.3793 11.7279 21.3793 11.1456C21.3793 10.5632 20.9069 10.0908 20.3245 10.0908C19.7421 10.0908 19.2695 10.5632 19.2695 11.1456C19.2695 11.7279 19.7419 12.2003 20.3245 12.2003Z" fill="#155172"/>
<path d="M36.0132 12.6025C21.8679 12.6025 10.3599 24.1105 10.3599 38.2559C10.3599 52.4012 21.8679 63.9092 36.0132 63.9092C50.1585 63.9092 61.6665 52.4012 61.6665 38.2559C61.6665 24.1105 50.1585 12.6025 36.0132 12.6025ZM36.0132 61.9359C22.9561 61.9359 12.3332 51.3129 12.3332 38.2559C12.3332 25.1988 22.9561 14.5759 36.0132 14.5759C49.0703 14.5759 59.6932 25.1988 59.6932 38.2559C59.6932 51.3129 49.0703 61.9359 36.0132 61.9359Z" fill="#155172"/>
<path d="M36.0133 16.5493C24.0443 16.5493 14.3066 26.287 14.3066 38.256C14.3066 50.225 24.0443 59.9627 36.0133 59.9627C47.9823 59.9627 57.72 50.225 57.72 38.256C57.72 26.287 47.9823 16.5493 36.0133 16.5493ZM36.0133 57.9893C25.1326 57.9893 16.28 49.1367 16.28 38.256C16.28 27.3753 25.1326 18.5226 36.0133 18.5226C46.894 18.5226 55.7466 27.3753 55.7466 38.256C55.7466 49.1367 46.894 57.9893 36.0133 57.9893Z" fill="#155172"/>
<path d="M26.8415 45.2865C26.7061 44.7589 26.1718 44.4394 25.6405 44.5768C25.1124 44.7122 24.7949 45.2502 24.9308 45.7778C25.4405 47.7603 26.6595 49.4855 28.3635 50.6364C28.5327 50.7506 28.7248 50.8056 28.9145 50.8056C29.2315 50.8056 29.5423 50.6535 29.733 50.371C30.0378 49.9196 29.9194 49.3064 29.4675 49.0013C28.1641 48.1207 27.2313 46.801 26.8415 45.2865Z" fill="#155172"/>
<path d="M42.9199 22.4692C41.1856 22.4692 38.5327 25.3577 36.6748 28.5895C35.2448 27.1534 34.0275 26.4159 33.0532 26.4159C29.3416 26.4159 21.7065 38.0349 21.7065 43.6826C21.7065 49.9393 26.7965 55.0292 33.0532 55.0292C39.3099 55.0292 44.3999 49.9393 44.3999 43.6826C44.3999 43.4813 44.3885 43.2699 44.3718 43.0548C48.3053 42.3641 51.3065 38.9313 51.3065 34.8026C51.3065 30.5379 45.8202 22.4692 42.9199 22.4692ZM33.0532 53.0559C27.8848 53.0559 23.6799 48.851 23.6799 43.6826C23.6799 38.1518 31.1055 28.3892 33.0532 28.3892C33.2789 28.3892 34.179 28.7851 35.7189 30.4437C34.9989 32.0229 34.5332 33.5717 34.5332 34.8026C34.5332 39.2524 38.0194 42.8937 42.4026 43.1631C42.4177 43.3434 42.4265 43.5178 42.4265 43.6826C42.4265 48.851 38.2216 53.0559 33.0532 53.0559ZM42.9199 41.2159C39.3837 41.2159 36.5065 38.3388 36.5065 34.8026C36.5065 30.9292 41.6532 24.5851 42.9088 24.4421C44.1865 24.5851 49.3332 30.9292 49.3332 34.8026C49.3332 38.3388 46.4561 41.2159 42.9199 41.2159Z" fill="#155172"/>
<path d="M41.4667 37.9364C40.5205 37.4966 39.8088 36.6313 39.5636 35.6214C39.4351 35.0916 38.8979 34.7633 38.3722 34.8955C37.8429 35.024 37.5175 35.5575 37.6463 36.0869C38.0316 37.6752 39.1495 39.0353 40.6352 39.7257C40.7696 39.7884 40.9112 39.8177 41.0505 39.8177C41.4225 39.8177 41.779 39.6063 41.9457 39.2469C42.1753 38.7524 41.961 38.1658 41.4667 37.9364Z" fill="#155172"/>
</svg>
