<svg width="75" height="74" viewBox="0 0 75 74" fill="none" xmlns="http://www.w3.org/2000/svg">
<g clip-path="url(#clip0_0_451)">
<g clip-path="url(#clip1_0_451)">
<path d="M59.7455 35.9094C59.8871 35.9802 60.0375 36.0135 60.1858 36.0135C60.5481 36.0135 60.8959 35.814 61.0693 35.4682L63.0427 31.5215C63.1766 31.2536 63.1813 30.9401 63.0562 30.6678C62.9319 30.396 62.6902 30.1957 62.3991 30.1229L58.4525 29.1362C57.9234 28.9998 57.3888 29.3257 57.2566 29.854C57.1237 30.3831 57.4456 30.9186 57.9744 31.0508L59.301 31.3826C54.6027 33.5619 49.954 34.4674 45.4793 34.0446C41.3737 33.6591 38.396 32.2751 35.5201 30.9302V23.2394C38.2085 24.4816 41.2709 25.765 45.2943 26.1427C46.0757 26.2159 46.8618 26.2529 47.6512 26.2529C51.6881 26.2529 55.8205 25.2821 59.9746 23.3783L59.3042 24.7189C59.0605 25.2066 59.2578 25.7991 59.7455 26.0428C59.8871 26.1136 60.0375 26.1469 60.1858 26.1469C60.5481 26.1469 60.8959 25.9473 61.0693 25.6015L63.0427 21.6548C63.1766 21.3869 63.1813 21.0734 63.0562 20.8011C62.9319 20.5293 62.6902 20.329 62.3991 20.2562L58.4525 19.2696C57.9234 19.1341 57.3888 19.459 57.2566 19.9874C57.1237 20.5165 57.4456 21.052 57.9744 21.1842L59.301 21.5159C54.6027 23.6952 49.954 24.5998 45.4793 24.178C41.3737 23.7924 38.395 22.4084 35.5201 21.0631V10.3602C35.5201 9.81532 35.0788 9.37354 34.5334 9.37354H27.6268C27.0814 9.37354 26.6401 9.81532 26.6401 10.3602V18.2824C25.9736 18.2373 25.3049 18.218 24.6137 18.255C20.0573 18.5012 15.5401 20.5757 11.1869 24.4207C10.7784 24.7816 10.74 25.4049 11.1011 25.8134C11.2957 26.0341 11.5675 26.1469 11.8401 26.1469C12.0722 26.1469 12.3056 26.0655 12.4933 25.8997C16.5046 22.3563 20.619 20.4471 24.7198 20.2254C25.3754 20.1906 26.0084 20.2111 26.6401 20.2599V28.1491C25.9706 28.1037 25.2945 28.0847 24.6137 28.1214C20.0571 28.3676 15.5401 30.4421 11.1867 34.2871C10.7782 34.648 10.7397 35.2713 11.1008 35.6798C11.2957 35.9008 11.5675 36.0135 11.8401 36.0135C12.0722 36.0135 12.3056 35.9321 12.4933 35.7664C16.5046 32.223 20.6187 30.3138 24.7195 30.0921C25.3767 30.057 26.0089 30.0773 26.6398 30.1261V38.0152C25.9726 37.9696 25.3041 37.9509 24.6135 37.9883C20.0568 38.2345 15.5398 40.309 11.1864 44.154C10.7779 44.5149 10.7395 45.1382 11.1006 45.5467C11.2957 45.7675 11.5675 45.8802 11.8401 45.8802C12.0722 45.8802 12.3056 45.7988 12.4933 45.633C16.5046 42.0897 20.6187 40.1805 24.7195 39.9587C25.3757 39.9239 26.0081 39.9437 26.6398 39.9923V47.8829C25.9736 47.8377 25.3046 47.8188 24.6135 47.855C20.0568 48.1012 15.5398 50.1757 11.1864 54.0207C10.7779 54.3816 10.7395 55.0049 11.1006 55.4134C11.2957 55.6341 11.5675 55.7469 11.8401 55.7469C12.0722 55.7469 12.3056 55.6655 12.4933 55.4997C16.5046 51.9563 20.6187 50.0471 24.7195 49.8254C25.3744 49.7891 26.0081 49.8101 26.6398 49.8594V63.6402C26.6398 64.1851 27.0811 64.6269 27.6265 64.6269H34.5332C35.0786 64.6269 35.5198 64.1851 35.5198 63.6402V52.8394C38.2085 54.0816 41.2711 55.3645 45.294 55.7427C46.0755 55.8159 46.8608 55.8529 47.6509 55.8529C51.6879 55.8529 55.8203 54.8821 59.9744 52.9783L59.3039 54.3189C59.0602 54.8066 59.2576 55.3991 59.7452 55.6428C59.8868 55.7136 60.0373 55.7469 60.1855 55.7469C60.5479 55.7469 60.8957 55.5473 61.0691 55.2015L63.0424 51.2548C63.1764 50.9869 63.1811 50.6734 63.056 50.4011C62.9317 50.1293 62.6899 49.929 62.3989 49.8562L58.4522 48.8696C57.9231 48.7356 57.3886 49.059 57.2564 49.5874C57.1234 50.1165 57.4453 50.652 57.9742 50.7842L59.3007 51.1159C54.6025 53.2952 49.9538 54.2003 45.479 53.778C41.373 53.3924 38.395 52.0081 35.5198 50.6631V42.9727C38.2085 44.215 41.2716 45.4984 45.294 45.876C46.0755 45.9493 46.8616 45.9863 47.6509 45.9863C51.6879 45.9863 55.8203 45.0154 59.9744 43.1116L59.3039 44.4522C59.0602 44.9399 59.2576 45.5324 59.7452 45.7761C59.8868 45.8469 60.0373 45.8802 60.1855 45.8802C60.5479 45.8802 60.8957 45.6806 61.0691 45.3348L63.0424 41.3882C63.1764 41.1203 63.1811 40.8068 63.056 40.5344C62.9317 40.2626 62.6899 40.0623 62.3989 39.9896L58.4522 39.0029C57.9231 38.8694 57.3886 39.1923 57.2564 39.7207C57.1234 40.2498 57.4453 40.7853 57.9742 40.9175L59.3007 41.2493C54.6025 43.4286 49.9538 44.3326 45.479 43.9113C41.3735 43.5258 38.3947 42.1417 35.5198 40.7969V33.1068C38.2085 34.349 41.2716 35.6319 45.294 36.0096C46.0755 36.0828 46.8616 36.1198 47.6509 36.1198C51.6879 36.1198 55.8203 35.149 59.9744 33.2452L59.3039 34.5858C59.0605 35.0732 59.2581 35.6657 59.7455 35.9094ZM28.6134 62.6535V59.3702L29.0518 59.5894C29.1933 59.6602 29.3438 59.6935 29.4921 59.6935C29.8544 59.6935 30.2022 59.494 30.3756 59.1482C30.6193 58.6605 30.422 58.068 29.9343 57.8243L28.6134 57.1637V55.4235L29.0518 55.6428C29.1933 55.7136 29.3438 55.7469 29.4921 55.7469C29.8544 55.7469 30.2022 55.5473 30.3756 55.2015C30.6193 54.7138 30.422 54.1213 29.9343 53.8776L28.6134 53.2171V51.4768L29.0518 51.6961C29.1933 51.7669 29.3438 51.8002 29.4921 51.8002C29.8544 51.8002 30.2022 51.6007 30.3756 51.2548C30.6193 50.7672 30.422 50.1747 29.9343 49.931L28.6134 49.2704V47.5302L29.0518 47.7494C29.1933 47.8202 29.3438 47.8535 29.4921 47.8535C29.8544 47.8535 30.2022 47.654 30.3756 47.3082C30.6193 46.8205 30.422 46.228 29.9343 45.9843L28.6134 45.3237V43.5835L29.0518 43.8028C29.1933 43.8736 29.3438 43.9069 29.4921 43.9069C29.8544 43.9069 30.2022 43.7073 30.3756 43.3615C30.6193 42.8738 30.422 42.2813 29.9343 42.0376L28.6134 41.3771V39.6368L29.0518 39.8561C29.1933 39.9269 29.3438 39.9602 29.4921 39.9602C29.8544 39.9602 30.2022 39.7606 30.3756 39.4148C30.6193 38.9272 30.422 38.3347 29.9343 38.091L28.6134 37.4304V35.6902L29.0518 35.9094C29.1933 35.9802 29.3438 36.0135 29.4921 36.0135C29.8544 36.0135 30.2022 35.814 30.3756 35.4682C30.6193 34.9805 30.422 34.388 29.9343 34.1443L28.6134 33.4837V31.7435L29.0518 31.9628C29.1933 32.0336 29.3438 32.0669 29.4921 32.0669C29.8544 32.0669 30.2022 31.8673 30.3756 31.5215C30.6193 31.0338 30.422 30.4413 29.9343 30.1976L28.6134 29.5371V27.7968L29.0518 28.0161C29.1933 28.0869 29.3438 28.1202 29.4921 28.1202C29.8544 28.1202 30.2022 27.9206 30.3756 27.5748C30.6193 27.0872 30.422 26.4947 29.9343 26.251L28.6134 25.5904V23.8502L29.0518 24.0694C29.1933 24.1402 29.3438 24.1735 29.4921 24.1735C29.8544 24.1735 30.2022 23.974 30.3756 23.6282C30.6193 23.1405 30.422 22.548 29.9343 22.3043L28.6134 21.6437V19.9035L29.0518 20.1228C29.1933 20.1936 29.3438 20.2269 29.4921 20.2269C29.8544 20.2269 30.2022 20.0273 30.3756 19.6815C30.6193 19.1938 30.422 18.6013 29.9343 18.3576L28.6134 17.6971V15.9568L29.0518 16.1761C29.1933 16.2469 29.3438 16.2802 29.4921 16.2802C29.8544 16.2802 30.2022 16.0806 30.3756 15.7348C30.6193 15.2472 30.422 14.6547 29.9343 14.411L28.6134 13.7504V11.3469H33.5468V13.6969L32.1188 14.411C31.6311 14.6547 31.4338 15.2474 31.6775 15.7348C31.8509 16.0806 32.1987 16.2802 32.5611 16.2802C32.7096 16.2802 32.8598 16.2469 33.0014 16.1761L33.5468 15.9035V17.6438L32.1188 18.3579C31.6311 18.6016 31.4338 19.1943 31.6775 19.6817C31.8509 20.0276 32.1987 20.2271 32.5611 20.2271C32.7096 20.2271 32.8598 20.1938 33.0014 20.123L33.5468 19.8502V21.5904L32.1188 22.3045C31.6311 22.5482 31.4338 23.141 31.6775 23.6284C31.8509 23.9742 32.1987 24.1738 32.5611 24.1738C32.7096 24.1738 32.8598 24.1405 33.0014 24.0697L33.5468 23.7969V25.5371L32.1188 26.2512C31.6311 26.4949 31.4338 27.0877 31.6775 27.5751C31.8509 27.9209 32.1987 28.1204 32.5611 28.1204C32.7096 28.1204 32.8598 28.0871 33.0014 28.0164L33.5468 27.7438V29.484L32.1188 30.1981C31.6311 30.4418 31.4338 31.0346 31.6775 31.522C31.8509 31.8678 32.1987 32.0674 32.5611 32.0674C32.7096 32.0674 32.8598 32.0341 33.0014 31.9633L33.5468 31.6907V33.4309L32.1188 34.145C31.6311 34.3887 31.4338 34.9815 31.6775 35.4689C31.8509 35.8147 32.1987 36.0143 32.5611 36.0143C32.7096 36.0143 32.8598 35.981 33.0014 35.9102L33.5468 35.6376V37.3778L32.1188 38.0919C31.6311 38.3357 31.4338 38.9284 31.6775 39.4158C31.8509 39.7616 32.1987 39.9612 32.5611 39.9612C32.7096 39.9612 32.8598 39.9279 33.0014 39.8571L33.5468 39.5845V41.3248L32.1188 42.0389C31.6311 42.2826 31.4338 42.8753 31.6775 43.3627C31.8509 43.7085 32.1987 43.9081 32.5611 43.9081C32.7096 43.9081 32.8598 43.8748 33.0014 43.804L33.5468 43.5314V45.2717L32.1188 45.9858C31.6311 46.2295 31.4338 46.8222 31.6775 47.3096C31.8509 47.6555 32.1987 47.855 32.5611 47.855C32.7096 47.855 32.8598 47.8217 33.0014 47.7509L33.5468 47.4784V49.2186L32.1188 49.9327C31.6311 50.1764 31.4338 50.7691 31.6775 51.2565C31.8509 51.6024 32.1987 51.8019 32.5611 51.8019C32.7096 51.8019 32.8598 51.7686 33.0014 51.6978L33.5468 51.4253V53.1655L32.1188 53.8796C31.6311 54.1233 31.4338 54.716 31.6775 55.2035C31.8509 55.5493 32.1987 55.7488 32.5611 55.7488C32.7096 55.7488 32.8598 55.7155 33.0014 55.6447L33.5468 55.3722V57.1124L32.1188 57.8265C31.6311 58.0702 31.4338 58.663 31.6775 59.1504C31.8509 59.4962 32.1987 59.6958 32.5611 59.6958C32.7096 59.6958 32.8598 59.6625 33.0014 59.5917L33.5468 59.3191V62.6535H28.6134Z" fill="#155172"/>
<path d="M42.7157 17.9644C42.9084 18.1571 43.161 18.2535 43.4133 18.2535C43.6656 18.2535 43.9182 18.1571 44.1109 17.9644L44.8933 17.182L45.6757 17.9644C45.8684 18.1571 46.121 18.2535 46.3733 18.2535C46.6256 18.2535 46.8782 18.1571 47.0709 17.9644C47.4562 17.5791 47.4562 16.9546 47.0709 16.5693L46.2885 15.7869L47.0709 15.0044C47.4562 14.6191 47.4562 13.9946 47.0709 13.6093C46.6856 13.224 46.061 13.224 45.6757 13.6093L44.8933 14.3917L44.1109 13.6093C43.7256 13.224 43.101 13.224 42.7157 13.6093C42.3304 13.9946 42.3304 14.6191 42.7157 15.0044L43.4982 15.7869L42.7157 16.5693C42.3304 16.9546 42.3304 17.5791 42.7157 17.9644Z" fill="#155172"/>
<path d="M53.2803 15.2935C54.9125 15.2935 56.2403 13.9657 56.2403 12.3335C56.2403 10.7013 54.9125 9.37354 53.2803 9.37354C51.6481 9.37354 50.3203 10.7013 50.3203 12.3335C50.3203 13.9657 51.6481 15.2935 53.2803 15.2935ZM53.2803 11.3469C53.8247 11.3469 54.267 11.7896 54.267 12.3335C54.267 12.8774 53.8247 13.3202 53.2803 13.3202C52.7359 13.3202 52.2936 12.8774 52.2936 12.3335C52.2936 11.7896 52.7359 11.3469 53.2803 11.3469Z" fill="#155172"/>
<path d="M52.3914 61.1279C51.8088 61.1279 51.3364 61.6003 51.3364 62.1827C51.3364 62.7651 51.8088 63.2374 52.3914 63.2374C52.974 63.2374 53.4462 62.7651 53.4462 62.1827C53.4462 61.6003 52.974 61.1279 52.3914 61.1279Z" fill="#155172"/>
</g>
</g>
<defs>
<clipPath id="clip0_0_451">
<rect width="74" height="74" fill="white" transform="translate(0.5)"/>
</clipPath>
<clipPath id="clip1_0_451">
<rect width="74" height="74" fill="white"/>
</clipPath>
</defs>
</svg>
