<svg width="66" height="65" viewBox="0 0 66 65" fill="none" xmlns="http://www.w3.org/2000/svg">
<path d="M19.934 9.03356C20.4127 9.03356 20.8007 8.64551 20.8007 8.16689V6.43356C20.8007 5.95494 20.4127 5.56689 19.934 5.56689C19.4554 5.56689 19.0674 5.95494 19.0674 6.43356V8.16689C19.0674 8.64551 19.4554 9.03356 19.934 9.03356Z" fill="url(#paint0_linear_0_558)"/>
<path d="M19.934 10.7671C19.4554 10.7671 19.0674 11.1551 19.0674 11.6338V13.3671C19.0674 13.8457 19.4554 14.2338 19.934 14.2338C20.4127 14.2338 20.8007 13.8457 20.8007 13.3671V11.6338C20.8007 11.1551 20.4127 10.7671 19.934 10.7671Z" fill="url(#paint1_linear_0_558)"/>
<path d="M16.4673 10.767H18.2006C18.6792 10.767 19.0673 10.379 19.0673 9.90036C19.0673 9.42174 18.6792 9.03369 18.2006 9.03369H16.4673C15.9886 9.03369 15.6006 9.42174 15.6006 9.90036C15.6006 10.379 15.9886 10.767 16.4673 10.767Z" fill="url(#paint2_linear_0_558)"/>
<path d="M21.6674 10.767H23.4008C23.8794 10.767 24.2674 10.379 24.2674 9.90036C24.2674 9.42174 23.8794 9.03369 23.4008 9.03369H21.6674C21.1888 9.03369 20.8008 9.42174 20.8008 9.90036C20.8008 10.379 21.1888 10.767 21.6674 10.767Z" fill="url(#paint3_linear_0_558)"/>
<path d="M12.1342 19.4335C12.6129 19.4335 13.0009 19.0455 13.0009 18.5669C13.0009 18.0882 12.6129 17.7002 12.1342 17.7002C11.6556 17.7002 11.2676 18.0882 11.2676 18.5669C11.2676 19.0455 11.6556 19.4335 12.1342 19.4335Z" fill="url(#paint4_linear_0_558)"/>
<path d="M37.7008 52.3667C36.0284 52.3667 34.6675 53.7276 34.6675 55.4C34.6675 57.0725 36.0284 58.4334 37.7008 58.4334C39.3733 58.4334 40.7341 57.0725 40.7341 55.4C40.7341 53.7276 39.3733 52.3667 37.7008 52.3667ZM37.7008 56.7C36.9839 56.7 36.4008 56.117 36.4008 55.4C36.4008 54.6831 36.9839 54.1 37.7008 54.1C38.4178 54.1 39.0008 54.6831 39.0008 55.4C39.0008 56.117 38.4178 56.7 37.7008 56.7Z" fill="url(#paint5_linear_0_558)"/>
<path d="M27.7621 32.7311C27.2852 32.771 26.9309 33.1898 26.9708 33.6671C27.2269 36.7319 27.215 39.5193 26.9344 41.9525C26.479 45.9071 23.4632 49.1068 19.4288 49.9137C18.1691 50.1654 16.9714 50.6284 15.8686 51.2899L12.9782 53.0241C12.616 53.2404 12.1835 53.2425 11.8221 53.0254C11.4581 52.8075 11.2534 52.4237 11.2746 51.9989C11.8163 40.904 16.2118 19.0363 23.9175 18.7631C23.9219 18.7626 23.926 18.7626 23.9303 18.7626C24.3881 18.7626 24.5959 19.6614 24.9564 21.6926C25.1055 22.5318 25.2743 23.4827 25.5222 24.5381C25.6318 25.0035 26.0972 25.293 26.5645 25.1835C27.0304 25.0739 27.3194 24.6072 27.21 24.1412C26.9725 23.1328 26.8083 22.2068 26.6633 21.3897C26.2415 19.0122 25.8996 16.9502 23.856 17.0306C13.3687 17.4028 9.89854 44.6406 9.54299 51.9141C9.49142 52.973 10.0233 53.9686 10.9314 54.5124C11.3842 54.7837 11.8912 54.9191 12.3984 54.9191C12.9072 54.9191 13.4161 54.7828 13.8703 54.5102L16.7602 52.776C17.692 52.2175 18.7043 51.826 19.769 51.6132C24.5428 50.6581 28.1146 46.8554 28.6567 42.1505C28.95 39.6042 28.9639 36.7013 28.6981 33.5224C28.6584 33.0455 28.2424 32.6906 27.7621 32.7311Z" fill="url(#paint6_linear_0_558)"/>
<path d="M42.1448 17.0305C40.1122 16.9616 39.7589 19.0126 39.337 21.39C39.1918 22.2069 39.0276 23.1327 38.7904 24.1411C38.6807 24.6069 38.9698 25.0738 39.4358 25.1834C39.9038 25.2935 40.3686 25.0036 40.4782 24.538C40.7263 23.4826 40.8951 22.5321 41.0439 21.6929C41.4079 19.6426 41.6122 18.7413 42.0833 18.763C49.7888 19.0364 54.1845 40.9039 54.7262 51.9988C54.7474 52.4236 54.5425 52.8074 54.1787 53.0253C53.8173 53.2411 53.3844 53.2407 53.0221 53.024L50.1313 51.2898C49.0289 50.6283 47.8314 50.1656 46.5715 49.9136C42.5378 49.1065 39.5218 45.907 39.0664 41.9519C38.7858 39.5211 38.7735 36.7333 39.03 33.667C39.0699 33.1897 38.7156 32.7707 38.2387 32.731C37.7543 32.6916 37.3424 33.0454 37.3027 33.5223C37.0369 36.7034 37.051 39.6059 37.3441 42.1504C37.8862 46.8553 41.4573 50.658 46.2313 51.6131C47.296 51.8259 48.3083 52.2174 49.2398 52.7759L52.1301 54.5102C52.5842 54.7827 53.0932 54.919 53.6019 54.919C54.1098 54.919 54.6172 54.7831 55.0694 54.5123C55.9774 53.9685 56.5094 52.9729 56.4578 51.914C56.102 44.6408 52.6319 17.4029 42.1448 17.0305Z" fill="url(#paint7_linear_0_558)"/>
<path d="M45.6867 38.3468C46.0409 39.4106 47.0324 40.1254 48.153 40.1254C48.4323 40.1254 48.7089 40.0806 48.9757 39.9917C50.3352 39.538 51.073 38.063 50.6202 36.7027C49.9262 34.6217 48.8025 32.7947 47.2742 31.2603L48.2275 30.5277C48.7781 30.1046 49.131 29.4927 49.2216 28.8042C49.3117 28.1156 49.1284 27.4331 48.7053 26.8821C48.2821 26.3316 47.6702 25.9786 46.9817 25.888C46.289 25.7949 45.6097 25.9812 45.0596 26.4044L42.8063 28.1351C40.1081 26.8316 37.3417 26.2828 35.5458 26.0523V11.6338C35.5458 11.1551 35.1577 10.7671 34.6791 10.7671C34.2005 10.7671 33.8125 11.1551 33.8125 11.6338V26.8266C33.8125 27.2732 34.1518 27.6467 34.5961 27.6894C36.2526 27.848 39.4822 28.3496 42.5036 29.9222C42.802 30.0771 43.1634 30.0461 43.4316 29.8405L46.1163 27.7782C46.2992 27.637 46.526 27.5744 46.7561 27.6064C46.9856 27.6365 47.1895 27.7546 47.3307 27.9381C47.6219 28.3169 47.5504 28.862 47.1713 29.153L45.4074 30.508C45.2013 30.6662 45.077 30.9093 45.0692 31.1695C45.0616 31.4293 45.1708 31.6791 45.3671 31.8496C47.0551 33.3156 48.2693 35.1326 48.9754 37.2507C49.1265 37.704 48.8803 38.196 48.4271 38.3472C47.9803 38.497 47.4783 38.2419 47.3309 37.7989C44.6536 29.767 33.9607 29.3532 33.1046 29.3337C33.0673 29.3298 33.026 29.3274 32.9924 29.3274C32.9662 29.3287 32.9319 29.3304 32.8951 29.3337C32.0915 29.3515 21.3533 29.7475 18.6692 37.7989C18.5219 38.2419 18.0196 38.4954 17.5731 38.3472C17.1198 38.1962 16.8735 37.704 17.0247 37.2511C17.731 35.1328 18.945 33.3156 20.6331 31.8496C20.8294 31.6791 20.9386 31.4295 20.931 31.1695C20.9234 30.9093 20.799 30.6664 20.5928 30.508L18.8289 29.153C18.4497 28.8618 18.3782 28.3169 18.6694 27.9381C18.8107 27.7544 19.0148 27.6363 19.244 27.6064C19.4754 27.575 19.7014 27.6378 19.8843 27.7787L22.5709 29.8424C22.8387 30.048 23.2001 30.0786 23.4989 29.9241C26.4831 28.3719 29.6668 27.8632 31.2989 27.6987C31.7416 27.6539 32.0785 27.281 32.0785 26.8364V11.6338C32.0785 11.1551 31.6904 10.7671 31.2118 10.7671C30.7332 10.7671 30.3451 11.1551 30.3451 11.6338V26.0657C28.5763 26.3019 25.8552 26.8533 23.1964 28.1373L20.9405 26.4044C20.39 25.9816 19.707 25.7975 19.0185 25.888C18.3299 25.9786 17.718 26.3316 17.2949 26.8821C16.8717 27.4331 16.6884 28.1156 16.7786 28.8042C16.8691 29.4927 17.2221 30.1046 17.7726 30.5277L18.726 31.2603C17.1974 32.7947 16.074 34.6217 15.38 36.7032C14.9271 38.0628 15.6647 39.538 17.0253 39.9917C17.2918 40.0806 17.5683 40.1254 17.8472 40.1254C18.9678 40.1254 19.9588 39.4106 20.3135 38.3472C22.684 31.2358 32.8485 31.0668 32.9454 31.0662C32.9644 31.0662 32.9835 31.0657 33.0021 31.0644C33.0186 31.0653 33.0335 31.0662 33.0461 31.0662C33.1488 31.0668 43.3155 31.2341 45.6867 38.3468Z" fill="url(#paint8_linear_0_558)"/>
<defs>
<linearGradient id="paint0_linear_0_558" x1="19.0674" y1="5.56689" x2="20.8813" y2="5.57647" gradientUnits="userSpaceOnUse">
<stop stop-color="#D46412"/>
<stop offset="1" stop-color="#FCA85B"/>
</linearGradient>
<linearGradient id="paint1_linear_0_558" x1="19.0674" y1="10.7671" x2="20.8813" y2="10.7767" gradientUnits="userSpaceOnUse">
<stop stop-color="#D46412"/>
<stop offset="1" stop-color="#FCA85B"/>
</linearGradient>
<linearGradient id="paint2_linear_0_558" x1="15.6006" y1="9.03369" x2="19.2269" y2="9.11023" gradientUnits="userSpaceOnUse">
<stop stop-color="#D46412"/>
<stop offset="1" stop-color="#FCA85B"/>
</linearGradient>
<linearGradient id="paint3_linear_0_558" x1="20.8008" y1="9.03369" x2="24.4271" y2="9.11023" gradientUnits="userSpaceOnUse">
<stop stop-color="#D46412"/>
<stop offset="1" stop-color="#FCA85B"/>
</linearGradient>
<linearGradient id="paint4_linear_0_558" x1="11.2676" y1="17.7002" x2="13.0813" y2="17.7193" gradientUnits="userSpaceOnUse">
<stop stop-color="#D46412"/>
<stop offset="1" stop-color="#FCA85B"/>
</linearGradient>
<linearGradient id="paint5_linear_0_558" x1="34.6675" y1="52.3667" x2="41.0156" y2="52.4337" gradientUnits="userSpaceOnUse">
<stop stop-color="#D46412"/>
<stop offset="1" stop-color="#FCA85B"/>
</linearGradient>
<linearGradient id="paint6_linear_0_558" x1="9.53955" y1="17.0283" x2="29.787" y2="17.1374" gradientUnits="userSpaceOnUse">
<stop stop-color="#D46412"/>
<stop offset="1" stop-color="#FCA85B"/>
</linearGradient>
<linearGradient id="paint7_linear_0_558" x1="37.1133" y1="17.0288" x2="57.3607" y2="17.1379" gradientUnits="userSpaceOnUse">
<stop stop-color="#D46412"/>
<stop offset="1" stop-color="#FCA85B"/>
</linearGradient>
<linearGradient id="paint8_linear_0_558" x1="15.2466" y1="10.7671" x2="52.3992" y2="11.2413" gradientUnits="userSpaceOnUse">
<stop stop-color="#D46412"/>
<stop offset="1" stop-color="#FCA85B"/>
</linearGradient>
</defs>
</svg>
