<svg width="66" height="65" viewBox="0 0 66 65" fill="none" xmlns="http://www.w3.org/2000/svg">
<path d="M15.2334 9.39928C15.712 9.39928 16.1 9.01123 16.1 8.53262V6.79928C16.1 6.32067 15.712 5.93262 15.2334 5.93262C14.7547 5.93262 14.3667 6.32067 14.3667 6.79928V8.53262C14.3667 9.01102 14.7547 9.39928 15.2334 9.39928Z" fill="url(#paint0_linear_0_519)"/>
<path d="M15.2334 11.1328C14.7547 11.1328 14.3667 11.5209 14.3667 11.9995V13.7328C14.3667 14.2114 14.7547 14.5995 15.2334 14.5995C15.712 14.5995 16.1 14.2114 16.1 13.7328V11.9995C16.1 11.5209 15.712 11.1328 15.2334 11.1328Z" fill="url(#paint1_linear_0_519)"/>
<path d="M11.7666 11.1327H13.4999C13.9785 11.1327 14.3666 10.7447 14.3666 10.2661C14.3666 9.78746 13.9785 9.39941 13.4999 9.39941H11.7666C11.288 9.39941 10.8999 9.78746 10.8999 10.2661C10.8999 10.7447 11.288 11.1327 11.7666 11.1327Z" fill="url(#paint2_linear_0_519)"/>
<path d="M16.9663 11.1327H18.6996C19.1782 11.1327 19.5663 10.7447 19.5663 10.2661C19.5663 9.78746 19.1782 9.39941 18.6996 9.39941H16.9663C16.4877 9.39941 16.0996 9.78746 16.0996 10.2661C16.0996 10.7447 16.4877 11.1327 16.9663 11.1327Z" fill="url(#paint3_linear_0_519)"/>
<path d="M54.6666 50.9995C52.9942 50.9995 51.6333 52.3604 51.6333 54.0328C51.6333 55.7053 52.9942 57.0662 54.6666 57.0662C56.3391 57.0662 57.7 55.7053 57.7 54.0328C57.7 52.3604 56.3391 50.9995 54.6666 50.9995ZM54.6666 55.3328C53.9497 55.3328 53.3666 54.7498 53.3666 54.0328C53.3666 53.3159 53.9497 52.7328 54.6666 52.7328C55.3836 52.7328 55.9666 53.3159 55.9666 54.0328C55.9666 54.7498 55.3834 55.3328 54.6666 55.3328Z" fill="url(#paint4_linear_0_519)"/>
<path d="M56.904 44.5239C56.3922 44.5239 55.9775 44.9388 55.9775 45.4506C55.9775 45.9624 56.3925 46.3771 56.904 46.3771C57.4156 46.3771 57.8307 45.9622 57.8307 45.4506C57.8307 44.9391 57.4158 44.5239 56.904 44.5239Z" fill="url(#paint5_linear_0_519)"/>
<path d="M28.3044 11.7106C28.8162 11.7106 29.2311 11.2957 29.2311 10.7841C29.2311 10.2726 28.8162 9.85742 28.3044 9.85742C27.7926 9.85742 27.3779 10.2723 27.3779 10.7841C27.3779 11.2959 27.7926 11.7106 28.3044 11.7106Z" fill="url(#paint6_linear_0_519)"/>
<path d="M45.1494 20.6661H48.1667C48.6453 20.6661 49.0334 20.278 49.0334 19.7994V13.7327C49.0334 11.3436 47.0892 9.39941 44.7 9.39941C42.3108 9.39941 40.3667 11.3436 40.3667 13.7327V15.8834C40.3667 18.5204 42.5121 20.6661 45.1494 20.6661ZM42.1 13.7327C42.1 12.2991 43.2663 11.1327 44.7 11.1327C46.1337 11.1327 47.3 12.2991 47.3 13.7327V18.9327H45.1494C43.4681 18.9327 42.1 17.5647 42.1 15.8834V13.7327Z" fill="url(#paint7_linear_0_519)"/>
<path d="M56.8264 30.9343L47.1848 29.9712L45.7361 26.3496C44.9364 24.3504 43.6254 22.5833 41.9445 21.2389L40.4802 20.0676C38.3339 18.3503 35.6388 17.3796 32.8902 17.3339L26.1854 17.2225C25.0737 17.1959 23.9925 17.5755 23.128 18.2668L16.6759 23.4287C16.199 23.81 15.9527 24.4002 16.0166 25.0076C16.081 25.6153 16.4456 26.1407 16.9925 26.4142C17.5469 26.6904 18.1922 26.6629 18.7182 26.3405L25.8936 21.9556L32.6356 23.0792L22.4354 39.3403L13.5919 39.9911C12.2449 40.0902 10.9288 40.5226 9.78636 41.2413L7.83896 42.4655C7.52068 42.6657 7.36792 43.0479 7.46022 43.4117C7.55209 43.7761 7.86864 44.0391 8.24348 44.0643L24.0281 45.1014C25.3027 45.1818 26.5709 44.7316 27.5045 43.8556L31.3287 40.2674L37.5431 45.1753L34.2864 51.6888C33.694 52.8741 33.5898 54.2218 33.993 55.4848L34.6261 57.4653C34.7277 57.7823 35.0014 58.0133 35.3316 58.0594C35.3719 58.0653 35.412 58.0679 35.4518 58.0679C35.7391 58.0679 36.0108 57.9253 36.1729 57.682L43.1017 47.2887C44.1499 45.717 43.9408 43.6067 42.6049 42.2707L36.5672 36.2331L40.8213 29.8518L42.1132 33.0814C42.7797 34.7482 44.4292 35.7791 46.2184 35.6281L56.7889 34.7836C57.786 34.7036 58.5671 33.8577 58.5671 32.8572C58.5665 31.8605 57.8183 31.0337 56.8264 30.9343ZM41.6589 46.3273L35.7289 55.223L35.6438 54.9572C35.3788 54.1278 35.4471 53.2425 35.8364 52.4642L39.4084 45.3201C39.5921 44.9528 39.4927 44.5067 39.17 44.2523L31.8166 38.4441C31.481 38.1783 30.9995 38.1974 30.6867 38.4925L26.3182 42.5914C25.7335 43.1397 24.9361 43.4255 24.141 43.3714L11.045 42.511C11.8664 42.0607 12.7833 41.7886 13.7191 41.7193L22.9998 41.0363C23.2749 41.0164 23.5241 40.8663 23.6706 40.6327L26.4755 36.1613L35.1247 37.2421L41.3787 43.4962C42.1323 44.2499 42.25 45.4407 41.6589 46.3273ZM56.6498 33.0556L46.0793 33.9006C45.0586 33.9841 44.1048 33.3949 43.7222 32.4377L41.8184 27.6778C41.6985 27.379 41.4236 27.1712 41.1031 27.1378C40.7812 27.1062 40.4709 27.2516 40.2924 27.5192L34.9866 35.4778L27.4913 34.5413L34.7949 22.8985C34.9489 22.653 34.9702 22.3467 34.8512 22.0826C34.7323 21.818 34.489 21.6306 34.2034 21.5831L25.86 20.1926C25.6544 20.1575 25.4427 20.1993 25.2655 20.3081L17.8141 24.8615C17.8141 24.862 17.7586 24.782 17.7582 24.782L24.2103 19.6206C24.7608 19.181 25.4433 18.9292 26.1568 18.9558L32.8611 19.0672C35.228 19.1066 37.5492 19.9423 39.3975 21.4209L40.8618 22.5922C42.3091 23.75 43.4382 25.2721 44.1265 26.9935L45.7701 31.103C45.8904 31.4031 46.1675 31.6113 46.4886 31.6434L56.6533 32.6591C56.7558 32.6693 56.8327 32.7547 56.8327 32.8572C56.8331 32.9605 56.7523 33.0476 56.6498 33.0556Z" fill="url(#paint8_linear_0_519)"/>
<defs>
<linearGradient id="paint0_linear_0_519" x1="14.3667" y1="5.93262" x2="16.1806" y2="5.94219" gradientUnits="userSpaceOnUse">
<stop stop-color="#D46412"/>
<stop offset="1" stop-color="#FCA85B"/>
</linearGradient>
<linearGradient id="paint1_linear_0_519" x1="14.3667" y1="11.1328" x2="16.1806" y2="11.1424" gradientUnits="userSpaceOnUse">
<stop stop-color="#D46412"/>
<stop offset="1" stop-color="#FCA85B"/>
</linearGradient>
<linearGradient id="paint2_linear_0_519" x1="10.8999" y1="9.39941" x2="14.5262" y2="9.47596" gradientUnits="userSpaceOnUse">
<stop stop-color="#D46412"/>
<stop offset="1" stop-color="#FCA85B"/>
</linearGradient>
<linearGradient id="paint3_linear_0_519" x1="16.0996" y1="9.39941" x2="19.7259" y2="9.47596" gradientUnits="userSpaceOnUse">
<stop stop-color="#D46412"/>
<stop offset="1" stop-color="#FCA85B"/>
</linearGradient>
<linearGradient id="paint4_linear_0_519" x1="51.6333" y1="50.9995" x2="57.9815" y2="51.0665" gradientUnits="userSpaceOnUse">
<stop stop-color="#D46412"/>
<stop offset="1" stop-color="#FCA85B"/>
</linearGradient>
<linearGradient id="paint5_linear_0_519" x1="55.9775" y1="44.5239" x2="57.9167" y2="44.5444" gradientUnits="userSpaceOnUse">
<stop stop-color="#D46412"/>
<stop offset="1" stop-color="#FCA85B"/>
</linearGradient>
<linearGradient id="paint6_linear_0_519" x1="27.3779" y1="9.85742" x2="29.3171" y2="9.87789" gradientUnits="userSpaceOnUse">
<stop stop-color="#D46412"/>
<stop offset="1" stop-color="#FCA85B"/>
</linearGradient>
<linearGradient id="paint7_linear_0_519" x1="40.3667" y1="9.39941" x2="49.4359" y2="9.47304" gradientUnits="userSpaceOnUse">
<stop stop-color="#D46412"/>
<stop offset="1" stop-color="#FCA85B"/>
</linearGradient>
<linearGradient id="paint8_linear_0_519" x1="7.43359" y1="17.2212" x2="60.9364" y2="17.9281" gradientUnits="userSpaceOnUse">
<stop stop-color="#D46412"/>
<stop offset="1" stop-color="#FCA85B"/>
</linearGradient>
</defs>
</svg>
