<svg width="30" height="30" viewBox="0 0 30 30" fill="none" xmlns="http://www.w3.org/2000/svg">
<g clip-path="url(#clip0_549_519)">
<g clip-path="url(#clip1_549_519)">
<path d="M24.0431 13.5534C24.5706 13.0253 24.5706 12.1667 24.0429 11.6386L15.3923 2.98778C14.8806 2.47608 13.9888 2.47608 13.4771 2.98778H13.4773L4.82626 11.6386C4.29876 12.1667 4.29876 13.0253 4.82646 13.5534L12.8347 21.5618V26.996C12.8347 27.2171 13.0138 27.396 13.2347 27.396C13.4556 27.396 13.6347 27.2171 13.6347 26.996V22.3338C13.8659 22.5047 14.1419 22.6011 14.4347 22.6011C14.7275 22.6011 15.0036 22.5046 15.2347 22.3337V26.996C15.2347 27.2171 15.4138 27.396 15.6347 27.396C15.8556 27.396 16.0347 27.2171 16.0347 26.996V21.5616L24.0431 13.5534ZM14.0429 21.6386L5.39226 12.9878C5.17626 12.7718 5.17626 12.4202 5.39206 12.2042L14.0429 3.55338H14.0431C14.1476 3.44868 14.2867 3.39088 14.4347 3.39088C14.5827 3.39088 14.7218 3.44868 14.8265 3.55338L23.4771 12.2042C23.6931 12.4202 23.6931 12.7718 23.4773 12.9878L14.8263 21.6386C14.6173 21.8479 14.2523 21.8479 14.0429 21.6386Z" fill="black"/>
<path d="M24.0431 13.5534C24.5706 13.0253 24.5706 12.1667 24.0429 11.6386L15.3923 2.98778C14.8806 2.47608 13.9888 2.47608 13.4771 2.98778H13.4773L4.82626 11.6386C4.29876 12.1667 4.29876 13.0253 4.82646 13.5534L12.8347 21.5618V26.996C12.8347 27.2171 13.0138 27.396 13.2347 27.396C13.4556 27.396 13.6347 27.2171 13.6347 26.996V22.3338C13.8659 22.5047 14.1419 22.6011 14.4347 22.6011C14.7275 22.6011 15.0036 22.5046 15.2347 22.3337V26.996C15.2347 27.2171 15.4138 27.396 15.6347 27.396C15.8556 27.396 16.0347 27.2171 16.0347 26.996V21.5616L24.0431 13.5534ZM14.0429 21.6386L5.39226 12.9878C5.17626 12.7718 5.17626 12.4202 5.39206 12.2042L14.0429 3.55338H14.0431C14.1476 3.44868 14.2867 3.39088 14.4347 3.39088C14.5827 3.39088 14.7218 3.44868 14.8265 3.55338L23.4771 12.2042C23.6931 12.4202 23.6931 12.7718 23.4773 12.9878L14.8263 21.6386C14.6173 21.8479 14.2523 21.8479 14.0429 21.6386Z" fill="url(#paint0_linear_549_519)"/>
<path d="M5.26744 6.46272C5.50364 6.46272 5.69504 6.27122 5.69504 6.03502C5.69504 5.79882 5.50364 5.60742 5.26744 5.60742C5.03124 5.60742 4.83984 5.79892 4.83984 6.03502C4.83974 6.27122 5.03124 6.46272 5.26744 6.46272Z" fill="black"/>
<path d="M5.26744 6.46272C5.50364 6.46272 5.69504 6.27122 5.69504 6.03502C5.69504 5.79882 5.50364 5.60742 5.26744 5.60742C5.03124 5.60742 4.83984 5.79892 4.83984 6.03502C4.83974 6.27122 5.03124 6.46272 5.26744 6.46272Z" fill="url(#paint1_linear_549_519)"/>
<path d="M18.8675 22.4077C18.6313 22.4077 18.4399 22.5992 18.4399 22.8353C18.4399 23.0715 18.6313 23.263 18.8675 23.263C19.1037 23.263 19.2951 23.0715 19.2951 22.8353C19.2951 22.5992 19.1037 22.4077 18.8675 22.4077Z" fill="black"/>
<path d="M18.8675 22.4077C18.6313 22.4077 18.4399 22.5992 18.4399 22.8353C18.4399 23.0715 18.6313 23.263 18.8675 23.263C19.1037 23.263 19.2951 23.0715 19.2951 22.8353C19.2951 22.5992 19.1037 22.4077 18.8675 22.4077Z" fill="url(#paint2_linear_549_519)"/>
<path d="M14.7175 4.39352C14.5613 4.23732 14.3081 4.23732 14.1519 4.39352L6.23238 12.313C6.07618 12.4692 6.07618 12.7224 6.23238 12.8786L14.1519 20.7981C14.23 20.8762 14.3324 20.9153 14.4347 20.9153C14.537 20.9153 14.6394 20.8762 14.7175 20.7981L22.637 12.8786C22.7932 12.7224 22.7932 12.4692 22.637 12.313L14.7175 4.39352ZM14.4347 19.9497L7.08078 12.5958L14.4347 5.24192L21.7886 12.5958L14.4347 19.9497Z" fill="black"/>
<path d="M14.7175 4.39352C14.5613 4.23732 14.3081 4.23732 14.1519 4.39352L6.23238 12.313C6.07618 12.4692 6.07618 12.7224 6.23238 12.8786L14.1519 20.7981C14.23 20.8762 14.3324 20.9153 14.4347 20.9153C14.537 20.9153 14.6394 20.8762 14.7175 20.7981L22.637 12.8786C22.7932 12.7224 22.7932 12.4692 22.637 12.313L14.7175 4.39352ZM14.4347 19.9497L7.08078 12.5958L14.4347 5.24192L21.7886 12.5958L14.4347 19.9497Z" fill="url(#paint3_linear_549_519)"/>
<path d="M12.0347 10.5962H10.4347C10.2138 10.5962 10.0347 10.7751 10.0347 10.9962C10.0347 11.2173 10.2138 11.3962 10.4347 11.3962H11.6347V13.0247C11.6347 13.2294 11.4679 13.3962 11.263 13.3962H10.8347V12.9962C10.8347 12.7751 10.6556 12.5962 10.4347 12.5962C10.2138 12.5962 10.0347 12.7751 10.0347 12.9962V13.7962C10.0347 14.0173 10.2138 14.1962 10.4347 14.1962H11.263C11.9091 14.1962 12.4347 13.6708 12.4347 13.0247V10.9962C12.4347 10.7751 12.2556 10.5962 12.0347 10.5962Z" fill="black"/>
<path d="M12.0347 10.5962H10.4347C10.2138 10.5962 10.0347 10.7751 10.0347 10.9962C10.0347 11.2173 10.2138 11.3962 10.4347 11.3962H11.6347V13.0247C11.6347 13.2294 11.4679 13.3962 11.263 13.3962H10.8347V12.9962C10.8347 12.7751 10.6556 12.5962 10.4347 12.5962C10.2138 12.5962 10.0347 12.7751 10.0347 12.9962V13.7962C10.0347 14.0173 10.2138 14.1962 10.4347 14.1962H11.263C11.9091 14.1962 12.4347 13.6708 12.4347 13.0247V10.9962C12.4347 10.7751 12.2556 10.5962 12.0347 10.5962Z" fill="url(#paint4_linear_549_519)"/>
<path d="M12.8347 11.7677V13.0247C12.8347 13.6708 13.3603 14.1962 14.0064 14.1962H14.463C15.1091 14.1962 15.6347 13.6708 15.6347 13.0247V11.7677C15.6347 11.1216 15.1091 10.5962 14.463 10.5962H14.0064C13.3603 10.5962 12.8347 11.1216 12.8347 11.7677ZM14.8347 11.7677V13.0247C14.8347 13.2294 14.6679 13.3962 14.463 13.3962H14.0064C13.8015 13.3962 13.6347 13.2294 13.6347 13.0247V11.7677C13.6347 11.563 13.8015 11.3962 14.0064 11.3962H14.463C14.6679 11.3962 14.8347 11.563 14.8347 11.7677Z" fill="black"/>
<path d="M12.8347 11.7677V13.0247C12.8347 13.6708 13.3603 14.1962 14.0064 14.1962H14.463C15.1091 14.1962 15.6347 13.6708 15.6347 13.0247V11.7677C15.6347 11.1216 15.1091 10.5962 14.463 10.5962H14.0064C13.3603 10.5962 12.8347 11.1216 12.8347 11.7677ZM14.8347 11.7677V13.0247C14.8347 13.2294 14.6679 13.3962 14.463 13.3962H14.0064C13.8015 13.3962 13.6347 13.2294 13.6347 13.0247V11.7677C13.6347 11.563 13.8015 11.3962 14.0064 11.3962H14.463C14.6679 11.3962 14.8347 11.563 14.8347 11.7677Z" fill="url(#paint5_linear_549_519)"/>
<path d="M16.4347 14.1962H17.663C18.3091 14.1962 18.8347 13.6708 18.8347 13.0247V12.9181C18.8347 12.6861 18.7639 12.4704 18.6429 12.2914C18.7609 12.1482 18.8347 11.9674 18.8347 11.7677C18.8347 11.1216 18.3091 10.5962 17.663 10.5962H16.4347C16.2138 10.5962 16.0347 10.7751 16.0347 10.9962V12.1962V13.7962C16.0347 14.0173 16.2138 14.1962 16.4347 14.1962ZM18.0347 13.0247C18.0347 13.2294 17.8679 13.3962 17.663 13.3962H16.8347V12.5962H17.7128C17.8903 12.5962 18.0347 12.7407 18.0347 12.9181V13.0247ZM16.8347 11.3962H17.663C17.8679 11.3962 18.0347 11.563 18.0347 11.7677C18.0347 11.7833 18.022 11.7962 18.0064 11.7962H17.7128H16.8347V11.3962Z" fill="black"/>
<path d="M16.4347 14.1962H17.663C18.3091 14.1962 18.8347 13.6708 18.8347 13.0247V12.9181C18.8347 12.6861 18.7639 12.4704 18.6429 12.2914C18.7609 12.1482 18.8347 11.9674 18.8347 11.7677C18.8347 11.1216 18.3091 10.5962 17.663 10.5962H16.4347C16.2138 10.5962 16.0347 10.7751 16.0347 10.9962V12.1962V13.7962C16.0347 14.0173 16.2138 14.1962 16.4347 14.1962ZM18.0347 13.0247C18.0347 13.2294 17.8679 13.3962 17.663 13.3962H16.8347V12.5962H17.7128C17.8903 12.5962 18.0347 12.7407 18.0347 12.9181V13.0247ZM16.8347 11.3962H17.663C17.8679 11.3962 18.0347 11.563 18.0347 11.7677C18.0347 11.7833 18.022 11.7962 18.0064 11.7962H17.7128H16.8347V11.3962Z" fill="url(#paint6_linear_549_519)"/>
<path d="M25.0004 6.79588L25.4524 6.34388C25.6086 6.18768 25.6086 5.93448 25.4524 5.77828C25.2962 5.62208 25.043 5.62208 24.8868 5.77828L24.4348 6.23028L23.9828 5.77828C23.8266 5.62208 23.5734 5.62208 23.4172 5.77828C23.261 5.93448 23.261 6.18768 23.4172 6.34388L23.8692 6.79588L23.4172 7.24788C23.261 7.40408 23.261 7.65728 23.4172 7.81348C23.4953 7.89158 23.5977 7.93068 23.7 7.93068C23.8023 7.93068 23.9047 7.89158 23.9828 7.81348L24.4348 7.36148L24.8868 7.81348C24.9649 7.89158 25.0673 7.93068 25.1696 7.93068C25.2719 7.93068 25.3743 7.89158 25.4524 7.81348C25.6086 7.65728 25.6086 7.40408 25.4524 7.24788L25.0004 6.79588Z" fill="black"/>
<path d="M25.0004 6.79588L25.4524 6.34388C25.6086 6.18768 25.6086 5.93448 25.4524 5.77828C25.2962 5.62208 25.043 5.62208 24.8868 5.77828L24.4348 6.23028L23.9828 5.77828C23.8266 5.62208 23.5734 5.62208 23.4172 5.77828C23.261 5.93448 23.261 6.18768 23.4172 6.34388L23.8692 6.79588L23.4172 7.24788C23.261 7.40408 23.261 7.65728 23.4172 7.81348C23.4953 7.89158 23.5977 7.93068 23.7 7.93068C23.8023 7.93068 23.9047 7.89158 23.9828 7.81348L24.4348 7.36148L24.8868 7.81348C24.9649 7.89158 25.0673 7.93068 25.1696 7.93068C25.2719 7.93068 25.3743 7.89158 25.4524 7.81348C25.6086 7.65728 25.6086 7.40408 25.4524 7.24788L25.0004 6.79588Z" fill="url(#paint7_linear_549_519)"/>
<path d="M23.4347 17.7959C22.6628 17.7959 22.0347 18.424 22.0347 19.1959C22.0347 19.9678 22.6628 20.5959 23.4347 20.5959C24.2066 20.5959 24.8347 19.9678 24.8347 19.1959C24.8347 18.424 24.2066 17.7959 23.4347 17.7959ZM23.4347 19.7959C23.1038 19.7959 22.8347 19.5268 22.8347 19.1959C22.8347 18.865 23.1038 18.5959 23.4347 18.5959C23.7656 18.5959 24.0347 18.865 24.0347 19.1959C24.0347 19.5268 23.7656 19.7959 23.4347 19.7959Z" fill="black"/>
<path d="M23.4347 17.7959C22.6628 17.7959 22.0347 18.424 22.0347 19.1959C22.0347 19.9678 22.6628 20.5959 23.4347 20.5959C24.2066 20.5959 24.8347 19.9678 24.8347 19.1959C24.8347 18.424 24.2066 17.7959 23.4347 17.7959ZM23.4347 19.7959C23.1038 19.7959 22.8347 19.5268 22.8347 19.1959C22.8347 18.865 23.1038 18.5959 23.4347 18.5959C23.7656 18.5959 24.0347 18.865 24.0347 19.1959C24.0347 19.5268 23.7656 19.7959 23.4347 19.7959Z" fill="url(#paint8_linear_549_519)"/>
</g>
</g>
<defs>
<linearGradient id="paint0_linear_549_519" x1="4.43066" y1="2.604" x2="25.3679" y2="2.78233" gradientUnits="userSpaceOnUse">
<stop stop-color="#D46412"/>
<stop offset="1" stop-color="#FCA85B"/>
</linearGradient>
<linearGradient id="paint1_linear_549_519" x1="4.83984" y1="5.60742" x2="5.73473" y2="5.61687" gradientUnits="userSpaceOnUse">
<stop stop-color="#D46412"/>
<stop offset="1" stop-color="#FCA85B"/>
</linearGradient>
<linearGradient id="paint2_linear_549_519" x1="18.4399" y1="22.4077" x2="19.3348" y2="22.4172" gradientUnits="userSpaceOnUse">
<stop stop-color="#D46412"/>
<stop offset="1" stop-color="#FCA85B"/>
</linearGradient>
<linearGradient id="paint3_linear_549_519" x1="6.11523" y1="4.27637" x2="23.5262" y2="4.46012" gradientUnits="userSpaceOnUse">
<stop stop-color="#D46412"/>
<stop offset="1" stop-color="#FCA85B"/>
</linearGradient>
<linearGradient id="paint4_linear_549_519" x1="10.0347" y1="10.5962" x2="12.5462" y2="10.6139" gradientUnits="userSpaceOnUse">
<stop stop-color="#D46412"/>
<stop offset="1" stop-color="#FCA85B"/>
</linearGradient>
<linearGradient id="paint5_linear_549_519" x1="12.8347" y1="10.5962" x2="15.7648" y2="10.6202" gradientUnits="userSpaceOnUse">
<stop stop-color="#D46412"/>
<stop offset="1" stop-color="#FCA85B"/>
</linearGradient>
<linearGradient id="paint6_linear_549_519" x1="16.0347" y1="10.5962" x2="18.9647" y2="10.6202" gradientUnits="userSpaceOnUse">
<stop stop-color="#D46412"/>
<stop offset="1" stop-color="#FCA85B"/>
</linearGradient>
<linearGradient id="paint7_linear_549_519" x1="23.3" y1="5.66113" x2="25.6749" y2="5.6862" gradientUnits="userSpaceOnUse">
<stop stop-color="#D46412"/>
<stop offset="1" stop-color="#FCA85B"/>
</linearGradient>
<linearGradient id="paint8_linear_549_519" x1="22.0347" y1="17.7959" x2="24.9646" y2="17.8268" gradientUnits="userSpaceOnUse">
<stop stop-color="#D46412"/>
<stop offset="1" stop-color="#FCA85B"/>
</linearGradient>
<clipPath id="clip0_549_519">
<rect width="30" height="30" fill="white"/>
</clipPath>
<clipPath id="clip1_549_519">
<rect width="30" height="30" fill="white"/>
</clipPath>
</defs>
</svg>
