<svg width="65" height="65" viewBox="0 0 65 65" fill="none" xmlns="http://www.w3.org/2000/svg">
<path d="M56.356 54.5999H54.6617L57.029 51.6793C57.2398 51.4195 57.2821 51.0622 57.1382 50.7606C56.9943 50.459 56.6904 50.2666 56.356 50.2666H52.8894C52.4103 50.2666 52.0227 50.6547 52.0227 51.1333C52.0227 51.6119 52.4103 51.9999 52.8894 51.9999H54.538L52.1707 54.9206C51.9599 55.1804 51.9176 55.5377 52.0615 55.8393C52.2054 56.1409 52.5093 56.3333 52.8437 56.3333H56.356C56.8351 56.3333 57.2227 55.9452 57.2227 55.4666C57.2227 54.988 56.8351 54.5999 56.356 54.5999Z" fill="#155172"/>
<path d="M56.356 54.5999H54.6617L57.029 51.6793C57.2398 51.4195 57.2821 51.0622 57.1382 50.7606C56.9943 50.459 56.6904 50.2666 56.356 50.2666H52.8894C52.4103 50.2666 52.0227 50.6547 52.0227 51.1333C52.0227 51.6119 52.4103 51.9999 52.8894 51.9999H54.538L52.1707 54.9206C51.9599 55.1804 51.9176 55.5377 52.0615 55.8393C52.2054 56.1409 52.5093 56.3333 52.8437 56.3333H56.356C56.8351 56.3333 57.2227 55.9452 57.2227 55.4666C57.2227 54.988 56.8351 54.5999 56.356 54.5999Z" fill="url(#paint0_linear_0_547)"/>
<path d="M13.0225 12.1331C13.0225 11.6545 12.6344 11.2664 12.1558 11.2664H10.4619L12.8292 8.34534C13.0396 8.08599 13.0818 7.72827 12.9384 7.42711C12.7945 7.12529 12.4901 6.93311 12.1558 6.93311H8.68915C8.21053 6.93311 7.82248 7.32116 7.82248 7.79977C7.82248 8.27839 8.21053 8.66644 8.68915 8.66644H10.3378L7.97068 11.5875C7.7603 11.8469 7.71805 12.2046 7.86148 12.5058C8.00535 12.8076 8.30955 12.9998 8.64386 12.9998H12.1558C12.6344 12.9998 13.0225 12.6117 13.0225 12.1331Z" fill="#155172"/>
<path d="M13.0225 12.1331C13.0225 11.6545 12.6344 11.2664 12.1558 11.2664H10.4619L12.8292 8.34534C13.0396 8.08599 13.0818 7.72827 12.9384 7.42711C12.7945 7.12529 12.4901 6.93311 12.1558 6.93311H8.68915C8.21053 6.93311 7.82248 7.32116 7.82248 7.79977C7.82248 8.27839 8.21053 8.66644 8.68915 8.66644H10.3378L7.97068 11.5875C7.7603 11.8469 7.71805 12.2046 7.86148 12.5058C8.00535 12.8076 8.30955 12.9998 8.64386 12.9998H12.1558C12.6344 12.9998 13.0225 12.6117 13.0225 12.1331Z" fill="url(#paint1_linear_0_547)"/>
<path d="M54.6225 11.2665C55.1012 11.2665 55.4892 10.8785 55.4892 10.3999C55.4892 9.92122 55.1012 9.5332 54.6225 9.5332C54.1439 9.5332 53.7559 9.92122 53.7559 10.3999C53.7559 10.8785 54.1439 11.2665 54.6225 11.2665Z" fill="#155172"/>
<path d="M54.6225 11.2665C55.1012 11.2665 55.4892 10.8785 55.4892 10.3999C55.4892 9.92122 55.1012 9.5332 54.6225 9.5332C54.1439 9.5332 53.7559 9.92122 53.7559 10.3999C53.7559 10.8785 54.1439 11.2665 54.6225 11.2665Z" fill="url(#paint2_linear_0_547)"/>
<path d="M52.5014 46.7084C52.6241 46.7693 52.7562 46.7998 52.8891 46.7998C53.0472 46.7998 53.2056 46.7563 53.3445 46.6702C53.6002 46.5123 53.7557 46.2334 53.7557 45.9331C53.7557 43.386 52.9042 42.0327 52.2525 41.3703C52.9499 39.9061 54.3006 36.2943 52.8271 32.611C51.3232 28.8509 51.8978 22.8508 52.0012 21.9011C52.9499 20.4014 53.7557 18.3248 53.7557 15.5996C53.7557 15.2733 53.5705 14.9758 53.2793 14.828C52.9881 14.6811 52.6377 14.7108 52.3727 14.9034C52.2492 14.9938 49.2894 17.0968 44.0211 15.7484C43.5412 13.741 42.1573 11.9964 39.977 10.7415C35.7663 8.31742 29.5575 8.25112 25.5323 10.5879C23.9671 11.497 22.1874 13.0616 21.3524 15.6577C15.8835 17.1823 12.8005 14.9973 12.6757 14.9065C12.4129 14.7089 12.0613 14.677 11.7681 14.8244C11.4745 14.9715 11.2891 15.2713 11.2891 15.5998C11.2891 18.325 12.0948 20.4016 13.0436 21.9013C13.147 22.851 13.722 28.8511 12.2177 32.6112C10.7446 36.2945 12.0946 39.9063 12.7923 41.3706C12.1406 42.0329 11.2891 43.3862 11.2891 45.9334C11.2891 46.2326 11.4448 46.5097 11.6988 46.6681C11.8385 46.7552 11.9976 46.7989 12.157 46.7989C12.2881 46.7989 12.4194 46.7697 12.5405 46.7101C12.5574 46.7021 14.0509 45.9877 16.7278 45.7609C16.0291 47.0607 15.6224 48.5301 15.6224 50.0715V57.1998C15.6224 57.6784 16.0104 58.0665 16.4891 58.0665H47.6891C48.1681 58.0665 48.5557 57.6784 48.5557 57.1998V50.071C48.5557 48.5082 48.1382 47.0193 47.4208 45.7065C50.6706 45.8261 52.4848 46.6997 52.5014 46.7084ZM51.926 17.0844C51.6924 18.8394 51.0636 20.2029 50.3822 21.2143L47.943 23.6539C47.6332 23.9634 47.6037 24.455 47.8728 24.7999C48.141 25.1448 48.6261 25.2345 49.0018 25.0099C49.0595 24.9752 49.5037 24.7018 50.0995 24.1644C50.0005 26.6561 50.0893 30.4345 51.2175 33.2555C52.7647 37.1235 50.4355 41.116 50.4126 41.1541C50.2923 41.3539 50.2696 41.5998 50.3279 41.8254C50.387 42.0509 50.5454 42.2489 50.7477 42.3649C50.7909 42.3893 51.6356 42.8946 51.926 44.6594C50.7512 44.3116 48.8419 43.9162 46.2892 43.9606C46.2591 43.961 46.2337 43.9758 46.2045 43.9792C45.4076 43.0981 44.4427 42.3633 43.3295 41.8574L36.4046 38.7099C36.4079 38.4828 36.4111 38.2345 36.4139 37.999C39.7335 36.4143 42.257 33.4596 43.2805 29.8987C43.8391 29.9174 44.3866 29.7588 44.9099 29.4329C45.7148 28.932 46.2591 28.1151 46.3657 27.248C46.4731 26.3796 46.204 25.5088 45.6294 24.8584C45.2435 24.4229 44.7459 24.1116 44.1983 23.9532C44.1882 22.6878 44.2215 17.5619 44.2215 17.5619C47.7772 18.3296 50.4149 17.7058 51.926 17.0844ZM22.3053 25.3104C22.5202 25.0944 22.5926 25.0107 22.6099 23.3227C24.4845 23.2308 26.2209 22.6352 27.5794 21.6249C28.9831 23.7209 31.1921 25.2127 33.7836 25.7814C34.5597 25.9519 35.3443 26.0362 36.1305 26.0358C38.2933 26.0358 40.4617 25.3882 42.4797 24.1555C42.5103 25.0714 42.5853 25.1542 42.7406 25.3102C42.9031 25.474 43.1248 25.5667 43.3559 25.5667C43.7284 25.5667 44.0837 25.7266 44.3301 26.0059C44.5805 26.2891 44.6923 26.6546 44.6458 27.0359C44.6018 27.388 44.3589 27.7338 43.994 27.9611C43.6292 28.1879 43.3204 28.2239 42.9267 28.085C42.6914 28.0012 42.4342 28.0241 42.2158 28.145C41.9992 28.2661 41.8443 28.4746 41.791 28.7177C40.947 32.5923 38.0831 35.7576 34.3177 36.9785L33.9327 37.1029C32.8578 37.4515 31.7576 37.4665 30.752 37.1423C26.9194 35.9084 24.0353 32.6874 23.2254 28.7376C23.1756 28.4943 23.0239 28.2839 22.8086 28.1604C22.6758 28.0837 22.5267 28.0449 22.3765 28.0449C22.2834 28.0449 22.1904 28.0597 22.1003 28.0902C21.7664 28.2035 21.4566 28.2198 21.0347 27.9353C20.6506 27.6755 20.4034 27.2844 20.3901 26.9154C20.3774 26.5579 20.5065 26.2201 20.7537 25.9641C21.0014 25.7075 21.3335 25.5667 21.6893 25.5667C21.9198 25.5665 22.1428 25.4737 22.3053 25.3104ZM29.5146 39.2173C29.5118 39.1508 29.5077 38.8533 29.5034 38.5095C29.743 38.6029 29.974 38.7121 30.2205 38.7916C30.8764 39.0033 31.5595 39.1086 32.2518 39.1086C32.9874 39.1086 33.7329 38.9896 34.4668 38.7515L34.673 38.685C34.6698 38.9493 34.6667 39.161 34.6648 39.2065C34.6412 39.5662 34.8425 39.9035 35.1709 40.0524L37.3688 41.0514L35.5291 43.9951C34.7827 45.1884 33.497 45.9011 32.0895 45.9011C30.682 45.9015 29.3959 45.1889 28.6499 43.9951L26.8102 41.0512L29.0081 40.0524C29.3287 39.9068 29.5289 39.5699 29.5146 39.2173ZM26.4029 12.0874C29.9317 10.0371 35.3967 10.1045 39.1121 12.2436C40.6524 13.1307 42.4891 14.7336 42.4891 17.3331C42.4891 17.3331 42.4644 21.2 42.4624 22.079C39.8628 23.9751 36.9296 24.6972 34.155 24.0884C31.6988 23.5493 29.663 22.0216 28.5691 19.8963C28.4421 19.65 28.2051 19.4794 27.9314 19.4368C27.6567 19.3958 27.3796 19.4855 27.1846 19.6818C26.0659 20.8057 24.4379 21.4808 22.6138 21.5876C22.6123 20.9331 22.6036 18.92 22.6036 18.92C22.5893 15.1043 24.6619 13.0984 26.4029 12.0874ZM13.119 44.6594C13.4089 42.8946 14.2507 42.3906 14.2769 42.375C14.4923 42.2671 14.6526 42.0741 14.7204 41.8431C14.7882 41.6122 14.7564 41.3623 14.6333 41.1554C14.6097 41.1156 12.2801 37.123 13.8275 33.2551C14.9557 30.4341 15.0445 26.6557 14.9455 24.164C15.5414 24.7013 15.9857 24.9748 16.0432 25.0094C16.418 25.2341 16.9027 25.1453 17.1722 24.7995C17.4417 24.4545 17.4116 23.9629 17.102 23.6535L14.6996 21.2507C14.0061 20.2334 13.3597 18.8563 13.1208 17.0848C14.6502 17.714 17.3315 18.3452 20.9528 17.5327C20.901 17.9753 20.8685 18.4358 20.8705 18.9261C20.8705 18.9261 20.8768 23.2577 20.8646 23.9454C20.3535 24.0884 19.887 24.3655 19.5066 24.7596C18.9298 25.3572 18.6284 26.1443 18.6577 26.9765C18.691 27.9032 19.2171 28.7987 20.0651 29.3714C20.6014 29.7336 21.1591 29.9219 21.7222 29.8998C22.6285 33.2113 24.8273 35.9905 27.7603 37.6781C27.7653 38.1388 27.7694 38.4733 27.7724 38.7095L20.8484 41.8566C19.7432 42.359 18.7855 43.0874 17.9919 43.96C15.8204 43.9972 14.1725 44.3467 13.119 44.6594ZM46.8224 56.3331H42.4891V52.8665C42.4891 52.3879 42.1014 51.9998 41.6224 51.9998C41.1433 51.9998 40.7557 52.3879 40.7557 52.8665V56.3331H23.4224V52.8665C23.4224 52.3879 23.0343 51.9998 22.5557 51.9998C22.0771 51.9998 21.6891 52.3879 21.6891 52.8665V56.3331H17.3557V50.071C17.3557 47.2024 19.0082 44.5976 21.5656 43.4347L25.2179 41.7747L27.1794 44.9137C28.2445 46.6174 30.0803 47.6348 32.0891 47.6344C34.0982 47.6344 35.9332 46.6172 36.9979 44.9133L38.9596 41.7744L42.6117 43.4345C45.1694 44.5974 46.8224 47.2022 46.8224 50.0708V56.3331Z" fill="#155172"/>
<path d="M52.5014 46.7084C52.6241 46.7693 52.7562 46.7998 52.8891 46.7998C53.0472 46.7998 53.2056 46.7563 53.3445 46.6702C53.6002 46.5123 53.7557 46.2334 53.7557 45.9331C53.7557 43.386 52.9042 42.0327 52.2525 41.3703C52.9499 39.9061 54.3006 36.2943 52.8271 32.611C51.3232 28.8509 51.8978 22.8508 52.0012 21.9011C52.9499 20.4014 53.7557 18.3248 53.7557 15.5996C53.7557 15.2733 53.5705 14.9758 53.2793 14.828C52.9881 14.6811 52.6377 14.7108 52.3727 14.9034C52.2492 14.9938 49.2894 17.0968 44.0211 15.7484C43.5412 13.741 42.1573 11.9964 39.977 10.7415C35.7663 8.31742 29.5575 8.25112 25.5323 10.5879C23.9671 11.497 22.1874 13.0616 21.3524 15.6577C15.8835 17.1823 12.8005 14.9973 12.6757 14.9065C12.4129 14.7089 12.0613 14.677 11.7681 14.8244C11.4745 14.9715 11.2891 15.2713 11.2891 15.5998C11.2891 18.325 12.0948 20.4016 13.0436 21.9013C13.147 22.851 13.722 28.8511 12.2177 32.6112C10.7446 36.2945 12.0946 39.9063 12.7923 41.3706C12.1406 42.0329 11.2891 43.3862 11.2891 45.9334C11.2891 46.2326 11.4448 46.5097 11.6988 46.6681C11.8385 46.7552 11.9976 46.7989 12.157 46.7989C12.2881 46.7989 12.4194 46.7697 12.5405 46.7101C12.5574 46.7021 14.0509 45.9877 16.7278 45.7609C16.0291 47.0607 15.6224 48.5301 15.6224 50.0715V57.1998C15.6224 57.6784 16.0104 58.0665 16.4891 58.0665H47.6891C48.1681 58.0665 48.5557 57.6784 48.5557 57.1998V50.071C48.5557 48.5082 48.1382 47.0193 47.4208 45.7065C50.6706 45.8261 52.4848 46.6997 52.5014 46.7084ZM51.926 17.0844C51.6924 18.8394 51.0636 20.2029 50.3822 21.2143L47.943 23.6539C47.6332 23.9634 47.6037 24.455 47.8728 24.7999C48.141 25.1448 48.6261 25.2345 49.0018 25.0099C49.0595 24.9752 49.5037 24.7018 50.0995 24.1644C50.0005 26.6561 50.0893 30.4345 51.2175 33.2555C52.7647 37.1235 50.4355 41.116 50.4126 41.1541C50.2923 41.3539 50.2696 41.5998 50.3279 41.8254C50.387 42.0509 50.5454 42.2489 50.7477 42.3649C50.7909 42.3893 51.6356 42.8946 51.926 44.6594C50.7512 44.3116 48.8419 43.9162 46.2892 43.9606C46.2591 43.961 46.2337 43.9758 46.2045 43.9792C45.4076 43.0981 44.4427 42.3633 43.3295 41.8574L36.4046 38.7099C36.4079 38.4828 36.4111 38.2345 36.4139 37.999C39.7335 36.4143 42.257 33.4596 43.2805 29.8987C43.8391 29.9174 44.3866 29.7588 44.9099 29.4329C45.7148 28.932 46.2591 28.1151 46.3657 27.248C46.4731 26.3796 46.204 25.5088 45.6294 24.8584C45.2435 24.4229 44.7459 24.1116 44.1983 23.9532C44.1882 22.6878 44.2215 17.5619 44.2215 17.5619C47.7772 18.3296 50.4149 17.7058 51.926 17.0844ZM22.3053 25.3104C22.5202 25.0944 22.5926 25.0107 22.6099 23.3227C24.4845 23.2308 26.2209 22.6352 27.5794 21.6249C28.9831 23.7209 31.1921 25.2127 33.7836 25.7814C34.5597 25.9519 35.3443 26.0362 36.1305 26.0358C38.2933 26.0358 40.4617 25.3882 42.4797 24.1555C42.5103 25.0714 42.5853 25.1542 42.7406 25.3102C42.9031 25.474 43.1248 25.5667 43.3559 25.5667C43.7284 25.5667 44.0837 25.7266 44.3301 26.0059C44.5805 26.2891 44.6923 26.6546 44.6458 27.0359C44.6018 27.388 44.3589 27.7338 43.994 27.9611C43.6292 28.1879 43.3204 28.2239 42.9267 28.085C42.6914 28.0012 42.4342 28.0241 42.2158 28.145C41.9992 28.2661 41.8443 28.4746 41.791 28.7177C40.947 32.5923 38.0831 35.7576 34.3177 36.9785L33.9327 37.1029C32.8578 37.4515 31.7576 37.4665 30.752 37.1423C26.9194 35.9084 24.0353 32.6874 23.2254 28.7376C23.1756 28.4943 23.0239 28.2839 22.8086 28.1604C22.6758 28.0837 22.5267 28.0449 22.3765 28.0449C22.2834 28.0449 22.1904 28.0597 22.1003 28.0902C21.7664 28.2035 21.4566 28.2198 21.0347 27.9353C20.6506 27.6755 20.4034 27.2844 20.3901 26.9154C20.3774 26.5579 20.5065 26.2201 20.7537 25.9641C21.0014 25.7075 21.3335 25.5667 21.6893 25.5667C21.9198 25.5665 22.1428 25.4737 22.3053 25.3104ZM29.5146 39.2173C29.5118 39.1508 29.5077 38.8533 29.5034 38.5095C29.743 38.6029 29.974 38.7121 30.2205 38.7916C30.8764 39.0033 31.5595 39.1086 32.2518 39.1086C32.9874 39.1086 33.7329 38.9896 34.4668 38.7515L34.673 38.685C34.6698 38.9493 34.6667 39.161 34.6648 39.2065C34.6412 39.5662 34.8425 39.9035 35.1709 40.0524L37.3688 41.0514L35.5291 43.9951C34.7827 45.1884 33.497 45.9011 32.0895 45.9011C30.682 45.9015 29.3959 45.1889 28.6499 43.9951L26.8102 41.0512L29.0081 40.0524C29.3287 39.9068 29.5289 39.5699 29.5146 39.2173ZM26.4029 12.0874C29.9317 10.0371 35.3967 10.1045 39.1121 12.2436C40.6524 13.1307 42.4891 14.7336 42.4891 17.3331C42.4891 17.3331 42.4644 21.2 42.4624 22.079C39.8628 23.9751 36.9296 24.6972 34.155 24.0884C31.6988 23.5493 29.663 22.0216 28.5691 19.8963C28.4421 19.65 28.2051 19.4794 27.9314 19.4368C27.6567 19.3958 27.3796 19.4855 27.1846 19.6818C26.0659 20.8057 24.4379 21.4808 22.6138 21.5876C22.6123 20.9331 22.6036 18.92 22.6036 18.92C22.5893 15.1043 24.6619 13.0984 26.4029 12.0874ZM13.119 44.6594C13.4089 42.8946 14.2507 42.3906 14.2769 42.375C14.4923 42.2671 14.6526 42.0741 14.7204 41.8431C14.7882 41.6122 14.7564 41.3623 14.6333 41.1554C14.6097 41.1156 12.2801 37.123 13.8275 33.2551C14.9557 30.4341 15.0445 26.6557 14.9455 24.164C15.5414 24.7013 15.9857 24.9748 16.0432 25.0094C16.418 25.2341 16.9027 25.1453 17.1722 24.7995C17.4417 24.4545 17.4116 23.9629 17.102 23.6535L14.6996 21.2507C14.0061 20.2334 13.3597 18.8563 13.1208 17.0848C14.6502 17.714 17.3315 18.3452 20.9528 17.5327C20.901 17.9753 20.8685 18.4358 20.8705 18.9261C20.8705 18.9261 20.8768 23.2577 20.8646 23.9454C20.3535 24.0884 19.887 24.3655 19.5066 24.7596C18.9298 25.3572 18.6284 26.1443 18.6577 26.9765C18.691 27.9032 19.2171 28.7987 20.0651 29.3714C20.6014 29.7336 21.1591 29.9219 21.7222 29.8998C22.6285 33.2113 24.8273 35.9905 27.7603 37.6781C27.7653 38.1388 27.7694 38.4733 27.7724 38.7095L20.8484 41.8566C19.7432 42.359 18.7855 43.0874 17.9919 43.96C15.8204 43.9972 14.1725 44.3467 13.119 44.6594ZM46.8224 56.3331H42.4891V52.8665C42.4891 52.3879 42.1014 51.9998 41.6224 51.9998C41.1433 51.9998 40.7557 52.3879 40.7557 52.8665V56.3331H23.4224V52.8665C23.4224 52.3879 23.0343 51.9998 22.5557 51.9998C22.0771 51.9998 21.6891 52.3879 21.6891 52.8665V56.3331H17.3557V50.071C17.3557 47.2024 19.0082 44.5976 21.5656 43.4347L25.2179 41.7747L27.1794 44.9137C28.2445 46.6174 30.0803 47.6348 32.0891 47.6344C34.0982 47.6344 35.9332 46.6172 36.9979 44.9133L38.9596 41.7744L42.6117 43.4345C45.1694 44.5974 46.8224 47.2022 46.8224 50.0708V56.3331Z" fill="url(#paint3_linear_0_547)"/>
<path d="M27.7447 30.1598C28.9333 30.1598 29.9677 29.3969 30.3176 28.2613C30.4584 27.8044 30.2021 27.3188 29.7445 27.178C29.2858 27.0367 28.8016 27.293 28.6612 27.7511C28.5364 28.1547 28.1683 28.4264 27.7447 28.4264C27.3389 28.4264 26.9749 28.1695 26.8399 27.7875C26.6795 27.3355 26.1823 27.0993 25.7338 27.2592C25.2823 27.4191 25.0461 27.9142 25.2056 28.3653C25.5856 29.4387 26.6059 30.1598 27.7447 30.1598Z" fill="#155172"/>
<path d="M27.7447 30.1598C28.9333 30.1598 29.9677 29.3969 30.3176 28.2613C30.4584 27.8044 30.2021 27.3188 29.7445 27.178C29.2858 27.0367 28.8016 27.293 28.6612 27.7511C28.5364 28.1547 28.1683 28.4264 27.7447 28.4264C27.3389 28.4264 26.9749 28.1695 26.8399 27.7875C26.6795 27.3355 26.1823 27.0993 25.7338 27.2592C25.2823 27.4191 25.0461 27.9142 25.2056 28.3653C25.5856 29.4387 26.6059 30.1598 27.7447 30.1598Z" fill="url(#paint4_linear_0_547)"/>
<path d="M37.2774 30.1598C38.4656 30.1598 39.4999 29.3971 39.8503 28.2618C39.9915 27.8048 39.7361 27.3193 39.2781 27.178C38.822 27.0367 38.3351 27.293 38.1947 27.7506C38.0695 28.1547 37.7014 28.4264 37.2774 28.4264C36.8711 28.4264 36.508 28.1695 36.3725 27.7879C36.2135 27.3372 35.72 27.0993 35.2671 27.2595C34.816 27.4189 34.579 27.914 34.7389 28.3653C35.1183 29.4387 36.1381 30.1598 37.2774 30.1598Z" fill="#155172"/>
<path d="M37.2774 30.1598C38.4656 30.1598 39.4999 29.3971 39.8503 28.2618C39.9915 27.8048 39.7361 27.3193 39.2781 27.178C38.822 27.0367 38.3351 27.293 38.1947 27.7506C38.0695 28.1547 37.7014 28.4264 37.2774 28.4264C36.8711 28.4264 36.508 28.1695 36.3725 27.7879C36.2135 27.3372 35.72 27.0993 35.2671 27.2595C34.816 27.4189 34.579 27.914 34.7389 28.3653C35.1183 29.4387 36.1381 30.1598 37.2774 30.1598Z" fill="url(#paint5_linear_0_547)"/>
<defs>
<linearGradient id="paint0_linear_0_547" x1="51.9771" y1="50.2666" x2="57.4663" y2="50.3167" gradientUnits="userSpaceOnUse">
<stop stop-color="#D46412"/>
<stop offset="1" stop-color="#FCA85B"/>
</linearGradient>
<linearGradient id="paint1_linear_0_547" x1="7.77734" y1="6.93311" x2="13.2661" y2="6.98319" gradientUnits="userSpaceOnUse">
<stop stop-color="#D46412"/>
<stop offset="1" stop-color="#FCA85B"/>
</linearGradient>
<linearGradient id="paint2_linear_0_547" x1="53.7559" y1="9.5332" x2="55.5696" y2="9.55235" gradientUnits="userSpaceOnUse">
<stop stop-color="#D46412"/>
<stop offset="1" stop-color="#FCA85B"/>
</linearGradient>
<linearGradient id="paint3_linear_0_547" x1="11.2891" y1="8.87842" x2="55.7275" y2="9.28333" gradientUnits="userSpaceOnUse">
<stop stop-color="#D46412"/>
<stop offset="1" stop-color="#FCA85B"/>
</linearGradient>
<linearGradient id="paint4_linear_0_547" x1="25.1558" y1="27.1392" x2="30.5963" y2="27.238" gradientUnits="userSpaceOnUse">
<stop stop-color="#D46412"/>
<stop offset="1" stop-color="#FCA85B"/>
</linearGradient>
<linearGradient id="paint5_linear_0_547" x1="34.689" y1="27.1392" x2="40.1293" y2="27.238" gradientUnits="userSpaceOnUse">
<stop stop-color="#D46412"/>
<stop offset="1" stop-color="#FCA85B"/>
</linearGradient>
</defs>
</svg>
