<svg width="21" height="21" viewBox="0 0 21 21" fill="none" xmlns="http://www.w3.org/2000/svg">
<path d="M19.5052 14.2797L14.7074 12.1297C14.4901 12.0365 14.2529 11.9991 14.0174 12.0207C13.7819 12.0423 13.5555 12.1224 13.3587 12.2536C13.3387 12.2664 13.3197 12.2806 13.3018 12.2962L10.7942 14.429C10.7682 14.4432 10.7393 14.4512 10.7096 14.4522C10.68 14.4533 10.6506 14.4474 10.6236 14.4351C9.01181 13.6572 7.34212 11.9976 6.56111 10.4082C6.5481 10.3816 6.54134 10.3524 6.54134 10.3229C6.54134 10.2933 6.5481 10.2641 6.56111 10.2375L8.70103 7.69848C8.71638 7.6797 8.73062 7.66003 8.74368 7.63958C8.87306 7.44204 8.95121 7.2154 8.97107 6.9801C8.99093 6.7448 8.95187 6.50827 8.85743 6.29184L6.72259 1.50216C6.60135 1.21941 6.39169 0.98362 6.12506 0.830162C5.85843 0.676704 5.54922 0.61386 5.24384 0.651062C3.91665 0.825542 2.69839 1.47731 1.81674 2.48457C0.935083 3.49183 0.450355 4.78565 0.453137 6.12426C0.453137 14.0766 6.92267 20.5461 14.875 20.5461C16.2136 20.5487 17.5073 20.0639 18.5145 19.1823C19.5217 18.3007 20.1735 17.0825 20.3482 15.7554C20.3853 15.4515 20.3233 15.1437 20.1715 14.8778C20.0196 14.6119 19.7859 14.4021 19.5052 14.2797ZM14.875 19.3274C7.59501 19.3274 1.67189 13.4043 1.67189 6.12426C1.66849 5.08216 2.04463 4.07447 2.73001 3.28946C3.4154 2.50446 4.36315 1.99584 5.39618 1.85864H5.41954C5.46047 1.8594 5.50021 1.87252 5.53356 1.89626C5.56691 1.92 5.5923 1.95326 5.60642 1.99169L7.74939 6.7763C7.76161 6.8029 7.76794 6.83183 7.76794 6.8611C7.76794 6.89038 7.76161 6.9193 7.74939 6.9459L5.6054 9.49106C5.58941 9.50923 5.57481 9.52858 5.56173 9.54895C5.42757 9.75376 5.34857 9.98974 5.33238 10.234C5.31619 10.4783 5.36335 10.7227 5.46931 10.9434C6.37017 12.7878 8.22876 14.6322 10.0934 15.533C10.3155 15.6384 10.561 15.6844 10.8061 15.6666C11.0512 15.6488 11.2875 15.5678 11.492 15.4315C11.5113 15.4182 11.5306 15.404 11.5488 15.3888L14.0554 13.256C14.0802 13.2427 14.1075 13.2349 14.1355 13.2331C14.1636 13.2314 14.1917 13.2357 14.2179 13.2458L19.0167 15.3959C19.0559 15.4126 19.0889 15.4412 19.1109 15.4776C19.133 15.5141 19.143 15.5566 19.1396 15.599C19.0031 16.6325 18.495 17.581 17.7102 18.2671C16.9253 18.9533 15.9175 19.3302 14.875 19.3274Z" fill="url(#paint0_linear1)"/>
<defs>
<linearGradient id="paint0_linear1" x1="0.453125" y1="0.640625" x2="21.2823" y2="0.860453" gradientUnits="userSpaceOnUse">
<stop offset="0" stop-color="#D46412"/>
<stop offset="1" stop-color="#FCA85B"/>
</linearGradient>
</defs>
</svg>
