<svg width="20" height="21" viewBox="0 0 20 21" fill="none" xmlns="http://www.w3.org/2000/svg">
<g clip-path="url(#clip0_509_103)">
<path d="M10 20.3975C15.5228 20.3975 20 15.9203 20 10.3975C20 4.87461 15.5228 0.397461 10 0.397461C4.47715 0.397461 0 4.87461 0 10.3975C0 15.9203 4.47715 20.3975 10 20.3975Z" fill="url(#paint0_linear_509_103)"/>
<path fill-rule="evenodd" clip-rule="evenodd" d="M4.52636 10.2914C7.44156 9.02132 9.3855 8.18398 10.3581 7.77944C13.1352 6.62437 13.7123 6.4237 14.0884 6.41706C14.1711 6.41562 14.3561 6.43612 14.4759 6.53335C14.6536 6.67757 14.6546 6.99062 14.6349 7.1978C14.4844 8.77905 13.8332 12.6163 13.5019 14.3873C13.3618 15.1367 13.0857 15.388 12.8186 15.4125C12.2378 15.466 11.7969 15.0287 11.2344 14.6601C10.3543 14.0831 9.85707 13.724 9.00273 13.161C8.01543 12.5104 8.65546 12.1528 9.21812 11.5684C9.36539 11.4155 11.924 9.08816 11.9736 8.87702C11.9798 8.85062 11.9855 8.75218 11.927 8.70023C11.8686 8.64827 11.7823 8.66601 11.72 8.68015C11.6317 8.70019 10.2257 9.62952 7.50195 11.4681C7.10285 11.7422 6.74136 11.8757 6.4175 11.8687C6.06043 11.861 5.37363 11.6668 4.86304 11.5009C4.23679 11.2973 3.73906 11.1896 3.78242 10.8439C3.805 10.6638 4.05296 10.4797 4.52636 10.2914Z" fill="white"/>
</g>
<defs>
<linearGradient id="paint0_linear_509_103" x1="10" y1="0.397461" x2="10" y2="20.2412" gradientUnits="userSpaceOnUse">
<stop stop-color="#2AABEE"/>
<stop offset="1" stop-color="#229ED9"/>
</linearGradient>
<clipPath id="clip0_509_103">
<rect width="20" height="20" fill="white" transform="translate(0 0.397461)"/>
</clipPath>
</defs>
</svg>
