<svg width="24" height="24" viewBox="0 0 24 24" fill="none" xmlns="http://www.w3.org/2000/svg">
<path d="M12 23.375C5.7275 23.375 0.625 18.2725 0.625 12C0.625 5.7275 5.7275 0.625 12 0.625C18.2725 0.625 23.375 5.7275 23.375 12C23.375 18.2725 18.2725 23.375 12 23.375ZM12 2.25C6.62125 2.25 2.25 6.62125 2.25 12C2.25 17.3787 6.62125 21.75 12 21.75C17.3787 21.75 21.75 17.3787 21.75 12C21.75 6.62125 17.3787 2.25 12 2.25Z" fill="url(#paint0_linear_603_365)"/>
<path d="M15.2501 16.0625C15.1038 16.0625 14.9576 16.03 14.8276 15.9488L10.7651 13.5113C10.6447 13.4389 10.5454 13.3364 10.477 13.2138C10.4086 13.0912 10.3734 12.9529 10.3751 12.8125V6.3125C10.3751 5.8575 10.7326 5.5 11.1876 5.5C11.6426 5.5 12.0001 5.8575 12.0001 6.3125V12.3575L15.6726 14.5512C15.8238 14.644 15.9407 14.7835 16.0056 14.9486C16.0704 15.1137 16.0797 15.2955 16.0319 15.4664C15.9841 15.6373 15.882 15.7879 15.7409 15.8955C15.5998 16.003 15.4275 16.0617 15.2501 16.0625Z" fill="url(#paint1_linear_603_365)"/>
<defs>
<linearGradient id="paint0_linear_603_365" x1="0.625" y1="0.625" x2="24.4306" y2="0.87624" gradientUnits="userSpaceOnUse">
<stop offset="0" stop-color="#D46412"/>
<stop offset="1" stop-color="#FCA85B"/>
</linearGradient>
<linearGradient id="paint1_linear_603_365" x1="10.375" y1="5.5" x2="16.3264" y2="5.53382" gradientUnits="userSpaceOnUse">
<stop offset="0" stop-color="#D46412"/>
<stop offset="1" stop-color="#FCA85B"/>
</linearGradient>
</defs>
</svg>
