<svg width="17" height="18" viewBox="0 0 17 18" fill="none" xmlns="http://www.w3.org/2000/svg">
<path d="M10.2105 0.447388H6.78945C3.47366 0.447388 0.802612 3.11844 0.802612 6.43423V9.00002C0.802612 11.3158 2.13156 13.4211 4.22366 14.4079V17.2763C4.22366 17.4211 4.35524 17.5527 4.5263 17.5527C4.59209 17.5527 4.67103 17.5263 4.72366 17.4737L7.19735 14.9869H10.2105C13.5263 14.9869 16.1973 12.3158 16.1973 9.00002V6.43423C16.1973 3.11844 13.5263 0.447388 10.2105 0.447388ZM12.4605 11.6711L11.6052 12.5263C10.6842 13.4211 8.31577 12.3948 6.22366 10.2632C4.13156 8.1316 3.19735 5.7237 4.07893 4.82897L4.93419 3.9737C5.2763 3.65791 5.81577 3.67107 6.15788 4.00002L7.39472 5.28949C7.71051 5.6316 7.71051 6.14476 7.3684 6.48686C7.2763 6.57897 7.17103 6.6316 7.05261 6.68423C6.6184 6.81581 6.39472 7.23686 6.49998 7.67107C6.71051 8.61844 7.90788 9.80265 8.81577 10.0395C9.23682 10.1448 9.67103 9.90791 9.81577 9.50002C9.96051 9.07897 10.4342 8.84212 10.8816 8.98686C11.0131 9.02633 11.1184 9.11844 11.2237 9.19739L12.4605 10.4869C12.7763 10.8027 12.7763 11.329 12.4605 11.6711ZM9.26314 4.51318C9.17103 4.51318 9.09209 4.51318 9.01314 4.53949C8.8684 4.56581 8.71051 4.44739 8.69735 4.27633C8.68419 4.10528 8.78945 3.9737 8.94735 3.96055C9.05261 3.93423 9.15788 3.93423 9.26314 3.93423C10.8421 3.93423 12.1052 5.2237 12.1316 6.77633C12.1316 6.8816 12.1316 6.98686 12.1052 7.09212C12.0789 7.23686 11.9605 7.36844 11.7895 7.34212C11.6184 7.31581 11.5131 7.19739 11.5395 7.02633C11.5395 6.93423 11.5658 6.85528 11.5658 6.77633C11.5526 5.53949 10.5263 4.51318 9.26314 4.51318ZM10.9737 6.80265C10.9473 6.94739 10.8289 7.07897 10.6579 7.05265C10.5263 7.02633 10.4079 6.92107 10.4079 6.80265C10.4079 6.18423 9.89472 5.67107 9.2763 5.67107C9.13156 5.69739 8.97366 5.56581 8.96051 5.40791C8.93419 5.26318 9.06577 5.10528 9.21051 5.09212H9.24998C10.2368 5.09212 10.9737 5.85528 10.9737 6.80265ZM13.1579 7.71054C13.1316 7.85528 12.9868 7.96055 12.8421 7.94739C12.6973 7.93423 12.5921 7.77633 12.6052 7.6316C12.6052 7.60528 12.6052 7.60528 12.6052 7.59212C12.671 7.34212 12.6973 7.07897 12.6973 6.80265C12.6973 4.92107 11.1579 3.3816 9.2763 3.3816C9.18419 3.3816 9.10524 3.3816 9.0263 3.3816C8.88156 3.40791 8.72366 3.27633 8.72366 3.11844C8.69735 2.9737 8.82893 2.81581 8.97366 2.81581C9.07893 2.81581 9.18419 2.78949 9.2763 2.78949C11.4737 2.78949 13.2763 4.57897 13.2763 6.78949C13.2631 7.09212 13.2237 7.42107 13.1579 7.71054Z" fill="url(#paint0_linear_306_1734)"/>
<defs>
<linearGradient id="paint0_linear_306_1734" x1="2.14761" y1="2.60357" x2="13.6135" y2="14.0695" gradientUnits="userSpaceOnUse">
<stop stop-color="#7E57C2"/>
<stop offset="1" stop-color="#4527A0"/>
</linearGradient>
</defs>
</svg>
