<svg width="30" height="30" viewBox="0 0 30 30" fill="none" xmlns="http://www.w3.org/2000/svg">
<path fill-rule="evenodd" clip-rule="evenodd" d="M13.5929 6.66491L8.85664 3.93116C8.21071 3.55803 7.44289 3.45678 6.72289 3.6499C6.00196 3.84303 5.38789 4.31459 5.01477 4.96053C4.75602 5.40959 4.47477 5.89615 4.21508 6.34522C3.84196 6.99115 3.74164 7.75897 3.93383 8.47897C4.12696 9.1999 4.59852 9.81396 5.24446 10.1871L8.70946 12.1877H5.86227C5.05789 12.1877 4.29289 12.5318 3.75946 13.1327C3.22508 13.7346 2.97477 14.5352 3.06946 15.334L4.30133 25.6465C4.47008 27.0602 5.67008 28.1252 7.09414 28.1252H22.906C24.3301 28.1252 25.5301 27.0602 25.6988 25.6465L26.3504 20.193C26.5866 19.9896 26.7891 19.7458 26.9485 19.4702L27.7482 18.0855C28.1213 17.4396 28.2216 16.6718 28.0285 15.9508C27.8363 15.2308 27.3648 14.6168 26.7188 14.2437L21.9826 11.509C22.5826 11.5137 23.1254 11.4771 23.5163 11.3721C24.9535 10.9868 25.8066 9.50741 25.4223 8.07116C25.037 6.63397 23.5576 5.7799 22.1213 6.16521C21.0132 6.46146 19.1204 7.84147 18.0076 8.70678C18.1998 7.30991 18.4482 4.98115 18.152 3.87303C17.7666 2.43678 16.2873 1.58272 14.8501 1.96709C13.4138 2.3524 12.5598 3.83178 12.9441 5.26803C13.0491 5.65897 13.2891 6.14741 13.5929 6.66491ZM18.7501 17.9843V26.2502H22.906C23.3804 26.2502 23.7807 25.8949 23.837 25.4243L24.3807 20.8737C23.9363 20.8521 23.4985 20.7265 23.1066 20.4996L18.7501 17.9843ZM16.8751 16.9015L13.1251 14.7368V26.2502H16.8751V16.9015ZM11.2501 14.0627H5.86227C5.59414 14.0627 5.33914 14.1771 5.16102 14.3777C4.98289 14.5783 4.89946 14.8455 4.93133 15.1118L6.16321 25.4243C6.21946 25.8949 6.61977 26.2502 7.09414 26.2502H11.2501V14.0627ZM7.91914 5.55491L25.7813 15.8674C25.996 15.9912 26.1535 16.1965 26.2182 16.4365C26.282 16.6765 26.2482 16.9324 26.1245 17.148L25.3248 18.5327C25.2001 18.7483 24.9957 18.9049 24.7557 18.9696C24.7182 18.9799 24.6807 18.9874 24.6432 18.9921L24.6057 18.9883L24.6048 18.9968C24.4107 19.0155 24.2148 18.9743 24.0441 18.8758L6.18196 8.56334C5.96727 8.43866 5.80977 8.23428 5.74508 7.99428C5.68133 7.75428 5.71508 7.49834 5.83883 7.28272L6.63852 5.89803C6.76321 5.6824 6.96758 5.5249 7.20758 5.46115C7.44758 5.39646 7.70352 5.43022 7.91914 5.55491ZM19.967 9.53272C20.8529 8.86803 21.9057 8.16397 22.606 7.97647C23.0438 7.85928 23.4938 8.11897 23.611 8.55584C23.7282 8.99365 23.4685 9.44365 23.0307 9.56084C22.3304 9.74834 21.0666 9.6649 19.967 9.53272ZM16.3126 7.4224C15.6479 6.53647 14.9429 5.48365 14.7554 4.78334C14.6382 4.34553 14.8988 3.89553 15.3357 3.77834C15.7735 3.66115 16.2235 3.92084 16.3407 4.35866C16.5282 5.05897 16.4448 6.32272 16.3126 7.4224Z" fill="url(#paint0_linear_0_408)"/>
<defs>
<linearGradient id="paint0_linear_0_408" x1="3.0498" y1="1.875" x2="29.2883" y2="2.13952" gradientUnits="userSpaceOnUse">
<stop stop-color="#D46412"/>
<stop offset="1" stop-color="#FCA85B"/>
</linearGradient>
</defs>
</svg>
