<svg width="30" height="31" viewBox="0 0 30 31" fill="none" xmlns="http://www.w3.org/2000/svg">
<mask id="mask0_0_393" style="mask-type:luminance" maskUnits="userSpaceOnUse" x="0" y="0" width="30" height="31">
<path d="M0 0.5H30V30.5H0V0.5Z" fill="white"/>
</mask>
<g mask="url(#mask0_0_393)">
<path fill-rule="evenodd" clip-rule="evenodd" d="M14.5572 30.4131C14.841 30.529 15.159 30.529 15.4429 30.4131C22.8288 27.3984 27.6563 20.214 27.6563 12.2364V6.44006C27.6563 5.96643 27.3712 5.53937 26.9337 5.35776L15.4494 0.589575C15.1617 0.470139 14.8383 0.470139 14.5506 0.589575L3.06627 5.35776C2.62885 5.53937 2.34375 5.96643 2.34375 6.44006V12.2364C2.34375 20.214 7.1711 27.3984 14.5572 30.4131ZM15 28.0552C8.74627 25.2985 4.6875 19.1009 4.6875 12.2364V7.22237L15 2.94074L25.3125 7.22237V12.2364C25.3125 19.1009 21.2537 25.2985 15 28.0552Z" fill="url(#paint0_linear_0_393)"/>
<path fill-rule="evenodd" clip-rule="evenodd" d="M12.8761 18.6724C13.3337 19.13 14.0757 19.13 14.5334 18.6724L20.3989 12.8069C20.8566 12.3492 20.8566 11.6072 20.399 11.1496C19.9413 10.6919 19.1993 10.6919 18.7417 11.1496L13.7047 16.1865L11.2583 13.7401C10.8007 13.2824 10.0587 13.2824 9.60105 13.7401C9.1434 14.1977 9.1434 14.9397 9.60105 15.3974L12.8761 18.6724Z" fill="url(#paint1_linear_0_393)"/>
</g>
<defs>
<linearGradient id="paint0_linear_0_393" x1="2.34375" y1="30.5" x2="28.8316" y2="30.2641" gradientUnits="userSpaceOnUse">
<stop stop-color="#D46412"/>
<stop offset="1" stop-color="#FCA85B"/>
</linearGradient>
<linearGradient id="paint1_linear_0_393" x1="9.25781" y1="19.0156" x2="21.2738" y2="18.8382" gradientUnits="userSpaceOnUse">
<stop stop-color="#D46412"/>
<stop offset="1" stop-color="#FCA85B"/>
</linearGradient>
</defs>
</svg>
