<svg width="30" height="30" viewBox="0 0 30 30" fill="none" xmlns="http://www.w3.org/2000/svg">
<g clip-path="url(#clip0_0_418)">
<path d="M14.9963 0C6.72317 0 0 6.72317 0 14.9963C0 23.2695 6.72317 30 14.9963 30C23.2695 30 30 23.2695 30 14.9963C30 6.72317 23.2695 0 14.9963 0ZM14.9963 1.875C22.2562 1.875 28.125 7.7365 28.125 14.9963C28.125 22.2562 22.2562 28.125 14.9963 28.125C7.7365 28.125 1.875 22.2562 1.875 14.9963C1.875 7.7365 7.7365 1.875 14.9963 1.875ZM14.9963 2.80884C8.27647 2.80884 2.80884 8.27647 2.80884 14.9963C2.80884 21.7162 8.27647 27.1912 14.9963 27.1912C21.7162 27.1912 27.1912 21.7162 27.1912 14.9963C27.1912 8.27647 21.7162 2.80884 14.9963 2.80884ZM14.9963 4.68567C20.7029 4.68567 25.3162 9.2898 25.3162 14.9963C25.3162 20.7029 20.7029 25.3162 14.9963 25.3162C9.2898 25.3162 4.68567 20.7029 4.68567 14.9963C4.68567 9.2898 9.2898 4.68567 14.9963 4.68567ZM14.9689 5.61218C14.7212 5.61654 14.4853 5.71874 14.3127 5.89646C14.1402 6.07418 14.0449 6.31297 14.0478 6.56067V7.50183C14.0478 7.75071 14.1467 7.9894 14.3227 8.16539C14.4987 8.34138 14.7374 8.44025 14.9863 8.44025C15.2351 8.44025 15.4738 8.34138 15.6498 8.16539C15.8258 7.9894 15.9247 7.75071 15.9247 7.50183V6.56067C15.9262 6.43508 15.9024 6.31047 15.8548 6.19425C15.8072 6.07802 15.7367 5.97254 15.6476 5.88408C15.5584 5.79561 15.4524 5.72595 15.3358 5.67925C15.2192 5.63254 15.0944 5.60973 14.9689 5.61218ZM10.2356 6.55334C9.523 6.60384 9.12654 7.40099 9.51599 7.99988L12.8082 13.2623C12.4258 13.7426 12.1875 14.3402 12.1875 14.9963C12.1875 16.5384 13.4543 17.8143 14.9963 17.8143C15.4291 17.8143 15.8365 17.7054 16.2048 17.5269L19.0247 20.354C19.1119 20.4413 19.2156 20.5106 19.3296 20.5578C19.4437 20.6051 19.5659 20.6294 19.6894 20.6294C19.8128 20.6294 19.935 20.6051 20.0491 20.5579C20.1632 20.5106 20.2668 20.4414 20.3541 20.3541C20.4414 20.2668 20.5106 20.1632 20.5579 20.0491C20.6051 19.935 20.6294 19.8128 20.6294 19.6894C20.6294 19.5659 20.6051 19.4437 20.5578 19.3296C20.5106 19.2156 20.4413 19.1119 20.354 19.0247L17.5269 16.2048C17.7054 15.8365 17.8143 15.4291 17.8143 14.9963C17.8143 13.4543 16.5384 12.1875 14.9963 12.1875C14.7874 12.1875 14.5866 12.2149 14.3903 12.2589L11.1072 7.00378C10.9244 6.70158 10.5878 6.5271 10.2356 6.55334ZM6.47095 14.0625C6.22621 14.0797 5.99794 14.1921 5.835 14.3755C5.67205 14.5589 5.58738 14.7988 5.59911 15.0439C5.61083 15.2889 5.71803 15.5197 5.89774 15.6867C6.07745 15.8537 6.31541 15.9437 6.56067 15.9375H7.50183C7.6267 15.9403 7.75086 15.9181 7.86702 15.8722C7.98319 15.8263 8.08902 15.7577 8.17831 15.6704C8.2676 15.5831 8.33854 15.4788 8.38698 15.3637C8.43541 15.2485 8.46036 15.1249 8.46036 15C8.46036 14.8751 8.43541 14.7515 8.38698 14.6363C8.33854 14.5212 8.2676 14.4169 8.17831 14.3296C8.08902 14.2423 7.98319 14.1737 7.86702 14.1278C7.75086 14.0819 7.6267 14.0597 7.50183 14.0625H6.56067C6.53078 14.0611 6.50084 14.0611 6.47095 14.0625ZM14.9963 14.0625C15.5254 14.0625 15.9375 14.4673 15.9375 14.9963C15.9375 15.5254 15.5254 15.9375 14.9963 15.9375C14.4673 15.9375 14.0625 15.5254 14.0625 14.9963C14.0625 14.4673 14.4673 14.0625 14.9963 14.0625ZM22.4084 14.0625C22.1637 14.0797 21.9354 14.1921 21.7725 14.3755C21.6096 14.5589 21.5249 14.7988 21.5366 15.0439C21.5483 15.2889 21.6555 15.5197 21.8352 15.6867C22.015 15.8537 22.2529 15.9437 22.4982 15.9375H23.4393C23.5642 15.9403 23.6884 15.9181 23.8045 15.8722C23.9207 15.8263 24.0265 15.7577 24.1158 15.6704C24.2051 15.5831 24.276 15.4788 24.3245 15.3637C24.3729 15.2485 24.3979 15.1249 24.3979 15C24.3979 14.8751 24.3729 14.7515 24.3245 14.6363C24.276 14.5212 24.2051 14.4169 24.1158 14.3296C24.0265 14.2423 23.9207 14.1737 23.8045 14.1278C23.6884 14.0819 23.5642 14.0597 23.4393 14.0625H22.4982C22.4683 14.0611 22.4383 14.0611 22.4084 14.0625ZM14.9689 21.5497C14.7212 21.554 14.4853 21.6562 14.3127 21.834C14.1402 22.0117 14.0449 22.2505 14.0479 22.4982V23.4393C14.0479 23.6882 14.1467 23.9269 14.3227 24.1029C14.4987 24.2789 14.7374 24.3777 14.9863 24.3777C15.2351 24.3777 15.4738 24.2789 15.6498 24.1029C15.8258 23.9269 15.9247 23.6882 15.9247 23.4393V22.4982C15.9262 22.3726 15.9024 22.248 15.8548 22.1317C15.8072 22.0155 15.7367 21.91 15.6476 21.8216C15.5584 21.7331 15.4524 21.6634 15.3358 21.6167C15.2192 21.57 15.0944 21.5472 14.9689 21.5497Z" fill="url(#paint0_linear_0_418)"/>
</g>
<defs>
<linearGradient id="paint0_linear_0_418" x1="0" y1="0" x2="31.392" y2="0.331305" gradientUnits="userSpaceOnUse">
<stop stop-color="#D46412"/>
<stop offset="1" stop-color="#FCA85B"/>
</linearGradient>
<clipPath id="clip0_0_418">
<rect width="30" height="30" fill="white"/>
</clipPath>
</defs>
</svg>
