<svg width="20" height="21" viewBox="0 0 20 21" fill="none" xmlns="http://www.w3.org/2000/svg">
<g clip-path="url(#clip0_509_100)">
<path d="M10.0025 0.397461H9.9975C4.48375 0.397461 0 4.88246 0 10.3975C0 12.585 0.705 14.6125 1.90375 16.2587L0.6575 19.9737L4.50125 18.745C6.0825 19.7925 7.96875 20.3975 10.0025 20.3975C15.5162 20.3975 20 15.9112 20 10.3975C20 4.88371 15.5162 0.397461 10.0025 0.397461Z" fill="#4CAF50"/>
<path d="M15.8212 14.5192C15.5799 15.2004 14.6224 15.7654 13.8587 15.9304C13.3362 16.0417 12.6537 16.1304 10.3562 15.1779C7.41744 13.9604 5.52494 10.9742 5.37744 10.7804C5.23619 10.5867 4.18994 9.19918 4.18994 7.76418C4.18994 6.32918 4.91869 5.63043 5.21244 5.33043C5.45369 5.08418 5.85244 4.97168 6.23494 4.97168C6.35869 4.97168 6.46994 4.97793 6.56994 4.98293C6.86369 4.99543 7.01119 5.01293 7.20494 5.47668C7.44619 6.05793 8.03369 7.49293 8.10369 7.64043C8.17494 7.78793 8.24619 7.98793 8.14619 8.18168C8.05244 8.38168 7.96994 8.47043 7.82244 8.64043C7.67494 8.81043 7.53494 8.94043 7.38744 9.12293C7.25244 9.28168 7.09994 9.45168 7.26994 9.74543C7.43994 10.0329 8.02744 10.9917 8.89244 11.7617C10.0087 12.7554 10.9137 13.0729 11.2374 13.2079C11.4787 13.3079 11.7662 13.2842 11.9424 13.0967C12.1662 12.8554 12.4424 12.4554 12.7237 12.0617C12.9237 11.7792 13.1762 11.7442 13.4412 11.8442C13.7112 11.9379 15.1399 12.6442 15.4337 12.7904C15.7274 12.9379 15.9212 13.0079 15.9924 13.1317C16.0624 13.2554 16.0624 13.8367 15.8212 14.5192Z" fill="#FAFAFA"/>
</g>
<defs>
<clipPath id="clip0_509_100">
<rect width="20" height="20" fill="white" transform="translate(0 0.397461)"/>
</clipPath>
</defs>
</svg>
