<svg width="19" height="24" viewBox="0 0 19 24" fill="none" xmlns="http://www.w3.org/2000/svg">
<circle cx="9.5" cy="9.5" r="6.5" fill="white"/>
<path fill-rule="evenodd" clip-rule="evenodd" d="M14.3402 1.35022C11.4028 -0.421445 7.75813 -0.451559 4.79295 1.27134C1.82777 2.99424 -0.00195907 6.20523 1.57411e-06 9.68248C0.0893505 12.2361 0.948092 14.6998 2.45961 16.739C4.26598 19.182 6.49048 21.2728 9.02608 22.9107C9.18699 23.0083 9.36923 23.0636 9.55636 23.0716C9.75079 23.0413 9.93816 22.9751 10.1092 22.8762C11.77 21.7861 13.2999 20.5017 14.6674 19.0491C17.0367 16.5437 18.9322 13.3027 18.9999 9.85487C19.0164 6.38428 17.2487 3.15797 14.3402 1.35022ZM9.5 15C12.5376 15 15 12.5376 15 9.5C15 6.46243 12.5376 4 9.5 4C6.46244 4 4 6.46243 4 9.5C4 12.5376 6.46244 15 9.5 15Z" fill="#E95019"/>
<circle cx="9.5" cy="9.5" r="2.5" fill="#000F36"/>
</svg>
