<svg width="190" height="46" viewBox="0 0 190 46" fill="none" xmlns="http://www.w3.org/2000/svg">
<path d="M4.92875 45.468C8.30513 45.468 10.7501 43.7604 12.186 39.8407L20.724 16.594H16.261L12.4577 27.2665L10.8277 31.8848L8.96489 27.2665L4.57947 16.594H0L8.77084 37.3569L8.34394 38.5212C7.45134 40.8885 6.48111 41.5483 4.65708 41.5483C3.80329 41.5483 3.10472 41.4318 2.44497 41.199L1.35832 44.8082C2.48378 45.2351 3.68686 45.468 4.92875 45.468Z" fill="#E95019"/>
<path d="M30.0503 36.6583C32.8058 36.6583 35.2895 35.6493 36.9195 33.8641L36.9583 36.3867H40.9557V23.8513C40.9557 19.0002 37.8509 16.3224 32.2236 16.3224C29.6622 16.3224 27.4501 16.8657 24.5394 18.1464L25.7425 21.6392C27.9546 20.669 30.0115 20.1645 31.9132 20.1645C35.3672 20.1645 36.8419 21.2899 36.8419 23.8901V24.8992C34.9015 24.2394 32.9222 23.8901 31.0205 23.8901C26.1694 23.8901 22.9871 26.4903 22.9871 30.4877C22.9871 34.1745 25.8201 36.6583 30.0503 36.6583ZM27.1785 30.2936C27.1785 28.4308 28.7308 27.383 31.5251 27.383C33.0386 27.383 34.8238 27.6934 36.8807 28.3532C36.5702 31.031 34.2417 33.0491 30.8653 33.0491C28.4592 33.0491 27.1785 32.0012 27.1785 30.2936Z" fill="#000F36"/>
<path d="M55.5573 36.8524C59.2053 36.8524 62.3877 35.4164 64.1729 32.8162L61.3786 30.2548C60.0203 32.0012 57.9634 32.9327 55.7125 32.9327C51.948 32.9327 49.5807 30.2548 49.5807 26.4904C49.5807 22.7259 52.1033 20.048 55.6737 20.048C57.6918 20.048 59.7098 20.9018 61.1458 22.4154L63.7072 19.7376C61.8443 17.4478 58.8948 16.1283 55.5961 16.1283C49.6583 16.1283 45.3893 20.5138 45.3893 26.4904C45.3893 32.4669 49.6971 36.8524 55.5573 36.8524Z" fill="#000F36"/>
<path d="M68.0074 36.3867H72.1988V25.8694C72.1988 22.4154 74.2556 20.2421 77.6708 20.2421C80.6591 20.2421 82.2503 21.9885 82.2503 25.2097V36.3867H86.4417V24.4723C86.4417 19.5823 83.2205 16.3224 78.447 16.3224C75.8856 16.3224 73.9452 17.1374 72.1988 18.9614V7.66797H68.0074V36.3867Z" fill="#000F36"/>
<path d="M99.1189 36.6583C100.361 36.6583 101.991 36.3867 103.504 35.6493L102.185 32.0789C101.176 32.5058 100.322 32.7386 99.5458 32.7386C97.7994 32.7386 96.9068 31.652 96.9068 29.7115V20.2421H102.495V16.594H96.9068V11.9758H92.7154V16.594H89.145V20.2421H92.7154V29.9055C92.7154 33.9805 95.1216 36.6583 99.1189 36.6583Z" fill="#000F36"/>
<path d="M115.75 36.8524C121.92 36.8524 126.267 32.5834 126.267 26.4904C126.267 20.3973 121.92 16.1283 115.75 16.1283C109.579 16.1283 105.233 20.3973 105.233 26.4904C105.233 32.5834 109.579 36.8524 115.75 36.8524ZM109.424 26.4904C109.424 22.6483 112.063 20.048 115.75 20.048C119.437 20.048 122.076 22.6483 122.076 26.4904C122.076 30.3324 119.437 32.9327 115.75 32.9327C112.063 32.9327 109.424 30.3324 109.424 26.4904Z" fill="#000F36"/>
<path d="M130.958 36.3867H135.15V26.9172C135.15 23.4244 136.663 20.5526 140.273 20.5526C141.01 20.5526 141.825 20.669 142.756 20.9795L143.843 16.7881C142.873 16.4388 141.98 16.3224 141.165 16.3224C138.371 16.3224 136.43 17.6807 135.072 19.2331V16.594H130.958V36.3867Z" fill="#000F36"/>
<path d="M147.066 36.3867H151.257V26.9172C151.257 23.4244 152.771 20.5526 156.38 20.5526C157.117 20.5526 157.932 20.669 158.864 20.9795L159.95 16.7881C158.98 16.4388 158.087 16.3224 157.272 16.3224C154.478 16.3224 152.538 17.6807 151.179 19.2331V16.594H147.066V36.3867Z" fill="#000F36"/>
<path d="M163.173 36.3867H167.364V16.594H163.173V36.3867Z" fill="#000F36"/>
<path d="M178.957 36.6583C181.713 36.6583 184.196 35.6493 185.826 33.8641L185.865 36.3867H189.863V23.8513C189.863 19.0002 186.758 16.3224 181.131 16.3224C178.569 16.3224 176.357 16.8657 173.446 18.1464L174.649 21.6392C176.862 20.669 178.918 20.1645 180.82 20.1645C184.274 20.1645 185.749 21.2899 185.749 23.8901V24.8992C183.808 24.2394 181.829 23.8901 179.927 23.8901C175.076 23.8901 171.894 26.4903 171.894 30.4877C171.894 34.1745 174.727 36.6583 178.957 36.6583ZM176.085 30.2936C176.085 28.4308 177.638 27.383 180.432 27.383C181.946 27.383 183.731 27.6934 185.788 28.3532C185.477 31.031 183.149 33.0491 179.772 33.0491C177.366 33.0491 176.085 32.0012 176.085 30.2936Z" fill="#000F36"/>
<path d="M159.976 7.86882C159.976 7.86882 164.198 8.455 165.724 0.54568C165.724 0.54568 164.718 7.51092 170.65 6.84479C170.65 6.84479 165.265 7.03854 164.881 13.521C164.881 13.521 164.699 7.94023 159.967 7.87012L159.976 7.86882Z" fill="#E95019"/>
</svg>
