<svg width="191" height="46" viewBox="0 0 191 46" fill="none" xmlns="http://www.w3.org/2000/svg">
<path d="M5.62736 45.8C9.00374 45.8 11.4487 44.0924 12.8846 40.1727L21.4226 16.9261H16.9596L13.1563 27.5986L11.5263 32.2168L9.6635 27.5986L5.27808 16.9261H0.698608L9.46945 37.6889L9.04255 38.8532C8.14994 41.2205 7.17972 41.8803 5.35569 41.8803C4.50189 41.8803 3.80333 41.7639 3.14358 41.531L2.05692 45.1403C3.18239 45.5672 4.38547 45.8 5.62736 45.8Z" fill="#E95019"/>
<path d="M30.7489 36.9904C33.5044 36.9904 35.9882 35.9813 37.6181 34.1961L37.6569 36.7187H41.6543V24.1834C41.6543 19.3322 38.5495 16.6544 32.9222 16.6544C30.3608 16.6544 28.1487 17.1977 25.238 18.4784L26.4411 21.9713C28.6532 21.001 30.7101 20.4965 32.6118 20.4965C36.0658 20.4965 37.5405 21.622 37.5405 24.2222V25.2312C35.6001 24.5715 33.6208 24.2222 31.7192 24.2222C26.868 24.2222 23.6857 26.8224 23.6857 30.8197C23.6857 34.5066 26.5187 36.9904 30.7489 36.9904ZM27.8771 30.6257C27.8771 28.7628 29.4294 27.715 32.2237 27.715C33.7372 27.715 35.5224 28.0255 37.5793 28.6852C37.2688 31.363 34.9403 33.3811 31.5639 33.3811C29.1578 33.3811 27.8771 32.3333 27.8771 30.6257Z" fill="white"/>
<path d="M56.2559 37.1844C59.9039 37.1844 63.0863 35.7485 64.8715 33.1483L62.0772 30.5869C60.7189 32.3333 58.662 33.2647 56.4111 33.2647C52.6466 33.2647 50.2793 30.5869 50.2793 26.8224C50.2793 23.0579 52.8019 20.3801 56.3723 20.3801C58.3904 20.3801 60.4084 21.2339 61.8444 22.7474L64.4058 20.0696C62.5429 17.7799 59.5934 16.4604 56.2947 16.4604C50.3569 16.4604 46.0879 20.8458 46.0879 26.8224C46.0879 32.799 50.3957 37.1844 56.2559 37.1844Z" fill="white"/>
<path d="M68.706 36.7187H72.8974V26.2014C72.8974 22.7474 74.9542 20.5741 78.3694 20.5741C81.3577 20.5741 82.9489 22.3205 82.9489 25.5417V36.7187H87.1403V24.8043C87.1403 19.9144 83.9191 16.6544 79.1456 16.6544C76.5842 16.6544 74.6438 17.4694 72.8974 19.2934V8H68.706V36.7187Z" fill="white"/>
<path d="M99.8175 36.9904C101.059 36.9904 102.689 36.7187 104.203 35.9813L102.883 32.4109C101.874 32.8378 101.021 33.0706 100.244 33.0706C98.498 33.0706 97.6054 31.984 97.6054 30.0435V20.5741H103.194V16.9261H97.6054V12.3078H93.414V16.9261H89.8436V20.5741H93.414V30.2376C93.414 34.3125 95.8202 36.9904 99.8175 36.9904Z" fill="white"/>
<path d="M116.448 37.1844C122.619 37.1844 126.966 32.9154 126.966 26.8224C126.966 20.7294 122.619 16.4604 116.448 16.4604C110.278 16.4604 105.931 20.7294 105.931 26.8224C105.931 32.9154 110.278 37.1844 116.448 37.1844ZM110.123 26.8224C110.123 22.9803 112.762 20.3801 116.448 20.3801C120.135 20.3801 122.774 22.9803 122.774 26.8224C122.774 30.6645 120.135 33.2647 116.448 33.2647C112.762 33.2647 110.123 30.6645 110.123 26.8224Z" fill="white"/>
<path d="M131.657 36.7187H135.848V27.2493C135.848 23.7565 137.362 20.8846 140.971 20.8846C141.708 20.8846 142.523 21.001 143.455 21.3115L144.542 17.1201C143.571 16.7708 142.679 16.6544 141.864 16.6544C139.069 16.6544 137.129 18.0127 135.771 19.5651V16.9261H131.657V36.7187Z" fill="white"/>
<path d="M147.764 36.7187H151.956V27.2493C151.956 23.7565 153.469 20.8846 157.078 20.8846C157.816 20.8846 158.631 21.001 159.562 21.3115L160.649 17.1201C159.679 16.7708 158.786 16.6544 157.971 16.6544C155.177 16.6544 153.236 18.0127 151.878 19.5651V16.9261H147.764V36.7187Z" fill="white"/>
<path d="M163.872 36.7187H168.063V16.9261H163.872V36.7187Z" fill="white"/>
<path d="M179.656 36.9904C182.411 36.9904 184.895 35.9813 186.525 34.1961L186.564 36.7187H190.561V24.1834C190.561 19.3322 187.456 16.6544 181.829 16.6544C179.268 16.6544 177.056 17.1977 174.145 18.4784L175.348 21.9713C177.56 21.001 179.617 20.4965 181.519 20.4965C184.973 20.4965 186.447 21.622 186.447 24.2222V25.2312C184.507 24.5715 182.528 24.2222 180.626 24.2222C175.775 24.2222 172.593 26.8224 172.593 30.8197C172.593 34.5066 175.426 36.9904 179.656 36.9904ZM176.784 30.6257C176.784 28.7628 178.336 27.715 181.131 27.715C182.644 27.715 184.429 28.0255 186.486 28.6852C186.176 31.363 183.847 33.3811 180.471 33.3811C178.065 33.3811 176.784 32.3333 176.784 30.6257Z" fill="white"/>
<path d="M160.675 8.20085C160.675 8.20085 164.897 8.78704 166.423 0.877711C166.423 0.877711 165.417 7.84295 171.349 7.17682C171.349 7.17682 165.964 7.37057 165.58 13.853C165.58 13.853 165.398 8.27226 160.666 8.20216L160.675 8.20085Z" fill="#E95019"/>
</svg>
