<svg  class="main-svg-sprite main-svg-sprite--colored" xmlns="http://www.w3.org/2000/svg" xmlns:xlink="http://www.w3.org/1999/xlink"><symbol fill="none" viewBox="0 0 28 32" id="loc" xmlns="http://www.w3.org/2000/svg"><path d="M12.444 15.398v7.934a1.555 1.555 0 103.112 0v-7.934a7.778 7.778 0 10-3.112 0zM14 3.11a4.667 4.667 0 110 9.333 4.667 4.667 0 010-9.333zm6.549 16.208a1.59 1.59 0 00-.653 3.111c3.53.7 4.993 1.96 4.993 2.458 0 .902-3.811 3.111-10.889 3.111-7.078 0-10.889-2.209-10.889-3.11 0-.498 1.462-1.759 4.993-2.52a1.59 1.59 0 10-.653-3.112C2.722 20.346 0 22.383 0 24.887c0 4.091 7.047 6.223 14 6.223s14-2.132 14-6.223c0-2.504-2.722-4.542-7.451-5.569z" fill="#E95019"/></symbol><symbol fill="none" viewBox="0 0 13 16" id="location" xmlns="http://www.w3.org/2000/svg"><path fill-rule="evenodd" clip-rule="evenodd" d="M9.891 1.49a6.086 6.086 0 00-6.214-.052C1.747 2.56.556 4.65.557 6.913a8.197 8.197 0 001.601 4.593 16.356 16.356 0 004.274 4.017c.105.064.224.1.345.105.127-.02.249-.063.36-.127a16.54 16.54 0 002.967-2.491c1.542-1.631 2.776-3.74 2.82-5.985.01-2.259-1.14-4.359-3.033-5.536zm-3.15 8.884a3.58 3.58 0 100-7.16 3.58 3.58 0 000 7.16z" fill="#7198B6"/></symbol><symbol id="marmelad" viewBox="0 0 512 512" xmlns="http://www.w3.org/2000/svg"><style>.cst6{fill:#fff}</style><path fill="#f7e018" d="M272 274.8c-37.5 0-67.9-30.4-67.9-67.9 0-31.4-25.6-57-57-57-37.5 0-67.9-30.4-67.9-67.9s30.4-67.9 67.9-67.9c106.3 0 192.8 86.5 192.8 192.8 0 37.5-30.4 67.9-67.9 67.9z"/><path fill="#1988c6" d="M243.8 394.9c0-37.5 30.4-67.9 67.9-67.9 31.4 0 57-25.6 57-57 0-37.5 30.4-67.9 67.9-67.9s67.9 30.4 67.9 67.9c0 106.3-86.5 192.8-192.8 192.8-37.5 0-67.9-30.4-67.9-67.9z"/><path fill="#f16524" d="M133.5 200.3c31.3 20.7 39.9 62.8 19.2 94.1-17.3 26.2-10.1 61.6 16.1 79 31.3 20.7 39.9 62.8 19.2 94.1s-62.8 39.9-94.1 19.2C5.2 427.9-19.2 308.1 39.4 219.5c20.7-31.3 62.8-39.9 94.1-19.2z"/><path fill="#e5cd1a" d="M234.1 206.9c0-31.4-25.6-57-57-57-37.5 0-67.9-30.4-67.9-67.9 0-33.7 24.5-61.7 56.7-67-6.2-.6-12.5-.9-18.8-.9-37.5 0-67.9 30.4-67.9 67.9s30.4 67.9 67.9 67.9c31.4 0 57 25.6 57 57 0 37.5 30.4 67.9 67.9 67.9 5.2 0 10.2-.6 15-1.7-30.3-6.8-52.9-33.8-52.9-66.2z"/><path fill="#1c73ba" d="M273.8 394.9c0-37.5 30.4-67.9 67.9-67.9 31.4 0 57-25.6 57-57 0-32.3 22.6-59.4 52.9-66.2-4.8-1.1-9.8-1.7-15-1.7-37.5 0-67.9 30.4-67.9 67.9 0 31.4-25.6 57-57 57-37.5 0-67.9 30.4-67.9 67.9s30.4 67.9 67.9 67.9c6.4 0 12.6-.3 18.8-.9-32.1-5.3-56.7-33.3-56.7-67z"/><path fill="#e54c21" d="M123.9 486.6C35.2 427.9 10.8 308.1 69.4 219.5c10.1-15.2 25.2-25.1 41.7-28.8-26.8-6.1-55.7 4.5-71.7 28.8C-19.2 308.2 5.2 428 93.9 486.6c16.1 10.6 35 13.5 52.4 9.6-7.8-1.8-15.4-5-22.4-9.6z"/><path d="M347.4 206.9c0-110.4-89.8-200.3-200.3-200.3-41.6 0-75.4 33.8-75.4 75.4s33.8 75.4 75.4 75.4c27.3 0 49.5 22.2 49.5 49.5 0 41.6 33.8 75.4 75.4 75.4 41.6 0 75.4-33.8 75.4-75.4zm-135.8 0c0-35.6-28.9-64.5-64.5-64.5-33.3 0-60.4-27.1-60.4-60.4s27.1-60.4 60.4-60.4c102.2 0 185.3 83.1 185.3 185.3 0 33.3-27.1 60.4-60.4 60.4s-60.4-27.1-60.4-60.4z"/><path d="M120.7 82h-15c0 22.9 18.6 41.4 41.4 41.4 17.7 0 34.7 5.5 49 15.9l8.8-12.1c-16.9-12.3-36.9-18.8-57.8-18.8-14.5.1-26.4-11.8-26.4-26.4zm186.7 80.2c-12.8-45.8-44.8-84.1-87.7-105l-6.6 13.5c39.1 19 68.2 53.8 79.8 95.5l14.5-4zM190.9 62.1c4.5 1.4 9.1 3 13.5 4.8l5.7-13.9c-4.8-2-9.8-3.8-14.8-5.3l-4.4 14.4zM185.2 45c-5.1-1.2-10.3-2.2-15.5-2.9l-2 14.9c4.7.6 9.4 1.5 14.1 2.6l3.4-14.6z" class="cst6"/><path d="M436.6 194.7c-41.6 0-75.4 33.8-75.4 75.4 0 27.3-22.2 49.5-49.5 49.5-41.6 0-75.4 33.8-75.4 75.4s33.8 75.4 75.4 75.4c110.4 0 200.3-89.8 200.3-200.3 0-41.6-33.8-75.4-75.4-75.4zM311.7 455.3c-33.3 0-60.4-27.1-60.4-60.4s27.1-60.4 60.4-60.4c35.6 0 64.5-28.9 64.5-64.5 0-33.3 27.1-60.4 60.4-60.4S497 236.7 497 270c0 102.2-83.1 185.3-185.3 185.3z"/><path d="M407.5 312.4l14.1 5.1c1.8-5.1 3.3-10.3 4.3-15.6l-14.7-2.8c-.9 4.6-2.1 9-3.7 13.3zm-10.7 20.3l12.2 8.7c3.1-4.4 5.9-9.1 8.3-13.9l-13.4-6.6c-2 4.1-4.4 8-7.1 11.8z"/><path d="M363.3 326.9c-14.2 12.9-32.5 19.9-51.6 19.9-26.5 0-48.1 21.6-48.1 48.1h15c0-18.2 14.8-33.1 33.1-33.1 22.8 0 44.7-8.5 61.6-23.8l-10-11.1z" class="cst6"/><path d="M365.6 418.5l5.1 14.1c4.9-1.8 9.8-3.8 14.5-6l-6.4-13.6c-4.3 2.1-8.7 3.9-13.2 5.5zm-22.9 6.4l2.9 14.7c5.1-1 10.2-2.3 15.2-3.8l-4.3-14.4c-4.5 1.5-9.2 2.6-13.8 3.5zm-23.7 2.9l.7 15c5.2-.2 10.5-.7 15.6-1.4l-2-14.9c-4.8.7-9.5 1.1-14.3 1.3z"/><path d="M481.9 254.1l-14.1 5c1.2 3.5 1.9 7.2 1.9 11 0 32.2-9.7 63.3-28 89.7l12.3 8.5c20.1-29 30.7-63 30.7-98.3 0-5.4-1-10.8-2.8-15.9zM454 225.3c-5.5-2.2-11.4-3.3-17.4-3.3v15c4.1 0 8.1.8 11.9 2.2l5.5-13.9zm10.2 26.5l12.5-8.3c-3.3-5-7.4-9.2-12.3-12.7l-8.7 12.2c3.4 2.5 6.2 5.4 8.5 8.8z" class="cst6"/><path d="M172.9 367c-22.8-15-29-45.8-14-68.6 11.1-16.8 15-36.9 11-56.6-4-19.7-15.5-36.7-32.3-47.8-16.8-11.1-36.9-15-56.6-11-19.7 4-36.7 15.5-47.8 32.3-60.9 92.1-35.5 216.6 56.6 277.5 12.5 8.3 26.8 12.5 41.4 12.5 5.1 0 10.2-.5 15.2-1.5 19.7-4 36.7-15.5 47.8-32.3s15-36.9 11-56.6c-4-19.8-15.5-36.8-32.3-47.9zm8.8 96.2c-8.9 13.5-22.5 22.6-38.3 25.9-15.8 3.2-31.9.1-45.4-8.8C12.8 424-10.7 308.8 45.7 223.6c8.9-13.5 22.5-22.6 38.3-25.9 4.1-.8 8.1-1.2 12.2-1.2 11.7 0 23.2 3.4 33.2 10 13.5 8.9 22.6 22.5 25.9 38.3 3.2 15.8.1 31.9-8.8 45.4-19.6 29.7-11.4 69.7 18.2 89.4 13.5 8.9 22.6 22.5 25.9 38.3 3.1 15.8 0 31.9-8.9 45.3z"/><path d="M116.8 452C100.1 441 86 427.1 75 410.8l-12.4 8.4c12.2 18 27.6 33.2 45.9 45.3 6.9 4.5 14.7 6.9 22.8 6.9 2.8 0 5.6-.3 8.4-.9l-3-14.7c-7 1.5-14.1.1-19.9-3.8zm5.1-200.4c.4 1.8.5 3.6.5 5.4 0 5.1-1.5 10.2-4.4 14.5-10.7 16.2-16.3 34.8-16.3 54.1 0 6.6.7 13.3 2 19.9l14.7-3c-1.1-5.6-1.7-11.3-1.7-16.9 0-16.3 4.8-32.1 13.8-45.8 4.5-6.8 6.9-14.7 6.9-22.8 0-2.8-.3-5.6-.8-8.4-.3-1.3-.6-2.6-1-3.9l-14.3 4.4c.3.8.5 1.7.6 2.5zm-3.9-9.5l12.4-8.4c-3-4.5-6.9-8.3-11.5-11.4-.6-.4-1.1-.7-1.7-1.1l-7.7 12.9c.4.2.7.5 1.1.7 3 2 5.4 4.4 7.4 7.3zm-15.7-10.9l3.6-14.6c-5.9-1.5-12.1-1.6-18.2-.3l3 14.7c3.9-.8 7.9-.7 11.6.2z" class="cst6"/></symbol><symbol fill="none" viewBox="0 0 30 30" id="phone" xmlns="http://www.w3.org/2000/svg"><path d="M19.454 6.786h5.375l-1.186 1.202a1.501 1.501 0 000 2.116 1.501 1.501 0 002.117 0l3.753-3.753a1.501 1.501 0 000-2.117L25.76.481a1.501 1.501 0 00-2.117 2.117l1.186 1.186h-5.375a1.501 1.501 0 000 3.002zm6.756 9.67c-.33 0-.675-.106-1.005-.181a14.174 14.174 0 01-1.967-.586 3.003 3.003 0 00-3.723 1.502l-.33.675a18.29 18.29 0 01-3.994-3.002 18.286 18.286 0 01-3.003-3.994l.63-.42a3.002 3.002 0 001.502-3.724 15.515 15.515 0 01-.586-1.966c-.075-.33-.135-.676-.18-1.021A4.504 4.504 0 009.05 0H4.546A4.504 4.504 0 00.042 5.12a28.525 28.525 0 0024.802 24.712h.57a4.504 4.504 0 003.003-1.141 4.505 4.505 0 001.502-3.378v-4.504a4.504 4.504 0 00-3.709-4.354zm.751 9.007a1.502 1.502 0 01-.51 1.126 1.59 1.59 0 01-1.231.375A25.523 25.523 0 013.135 4.774a1.637 1.637 0 01.375-1.23 1.501 1.501 0 011.126-.51H9.14a1.501 1.501 0 011.502 1.185c.06.41.135.816.225 1.216.173.792.404 1.57.69 2.327l-2.101.976a1.501 1.501 0 00-.736 1.997 21.755 21.755 0 0010.51 10.51 1.5 1.5 0 001.14 0 1.501 1.501 0 00.856-.781l.93-2.102a20.58 20.58 0 002.373.69c.4.09.806.166 1.216.226a1.5 1.5 0 011.186 1.5l.03 4.685z" fill="#E95019"/></symbol></svg>