<svg  class="main-svg-sprite main-svg-sprite--icons" xmlns="http://www.w3.org/2000/svg" xmlns:xlink="http://www.w3.org/1999/xlink"><symbol viewBox="0 0 46 14" id="arr-lng-r" xmlns="http://www.w3.org/2000/svg"><path d="M39 14a1 1 0 01-.71-.29 1 1 0 010-1.42L42.59 8H1a1 1 0 010-2h41.59l-4.3-4.29A1 1 0 0139.71.29l6 6a1 1 0 01.21.33A1 1 0 0146 7a1 1 0 01-.08.38 1 1 0 01-.21.33l-6 6A1 1 0 0139 14z"/></symbol><symbol viewBox="0 0 30 10" id="arrow-long-right" xmlns="http://www.w3.org/2000/svg"><path d="M1.591 4.75h27.5m0 0L25.34 1m3.75 3.75L25.34 8.5" stroke="#fff" stroke-width="1.3" stroke-linecap="round" stroke-linejoin="round"/></symbol><symbol viewBox="0 0 26 11" id="arrow-right" xmlns="http://www.w3.org/2000/svg"><path d="M1 5.5h24m0 0l-4-4m4 4l-4 4" stroke="#fff" stroke-width="1.5" stroke-linecap="round" stroke-linejoin="round"/></symbol><symbol viewBox="0 0 11 12" id="arrow-right2" xmlns="http://www.w3.org/2000/svg"><path d="M8.593 6.736l-3.576 3.576a.666.666 0 10.942.942l4.712-4.712a.667.667 0 000-.942L5.959.888a.666.666 0 10-.942.943l3.576 3.576-7.817-.005a.666.666 0 00-.619.926.666.666 0 00.62.412l7.816-.004z"/></symbol><symbol viewBox="0 0 14 10" id="check" xmlns="http://www.w3.org/2000/svg"><path d="M12.752 1.168a.857.857 0 00-1.218 0L5.147 7.564 2.463 4.872a.876.876 0 00-1.218 1.26l3.293 3.293a.857.857 0 001.217 0l6.997-6.997a.858.858 0 000-1.26z"/></symbol><symbol viewBox="0 0 9 5" id="chevron-down" xmlns="http://www.w3.org/2000/svg"><path d="M1.546 1.022L4.764 4.24l3.218-3.218" stroke="#A7BCCC" stroke-linecap="round" stroke-linejoin="round"/></symbol><symbol viewBox="0 0 10 17" id="chevron-left" xmlns="http://www.w3.org/2000/svg"><path d="M.405 7.49L7.535.373a1.26 1.26 0 111.789 1.776L3.088 8.447l6.236 6.235a1.26 1.26 0 010 1.776 1.26 1.26 0 01-.895.378 1.261 1.261 0 01-.894-.378L.405 9.341a1.26 1.26 0 010-1.851z"/></symbol><symbol viewBox="0 0 10 17" id="chevron-right" xmlns="http://www.w3.org/2000/svg"><path d="M9.284 7.49L2.155.373A1.26 1.26 0 10.366 2.149l6.235 6.298-6.235 6.235a1.26 1.26 0 000 1.776 1.26 1.26 0 00.895.378 1.261 1.261 0 00.894-.378l7.13-7.117a1.26 1.26 0 000-1.851z"/></symbol><symbol viewBox="0 0 19 19" id="close" xmlns="http://www.w3.org/2000/svg"><path d="M10.591 9.003l7.086-7.075A1.13 1.13 0 0016.08.331L9.005 7.417 1.93.331A1.13 1.13 0 00.333 1.928l7.086 7.075-7.086 7.075a1.125 1.125 0 000 1.597 1.125 1.125 0 001.597 0l7.075-7.086 7.075 7.086a1.124 1.124 0 001.597 0 1.125 1.125 0 000-1.597l-7.086-7.075z"/></symbol><symbol viewBox="0 0 27 20" id="menu" xmlns="http://www.w3.org/2000/svg"><rect y=".68" width="27" height="3" rx="1.5"/><rect y="8.68" width="27" height="3" rx="1.5"/><rect y="16.68" width="27" height="3" rx="1.5"/></symbol><symbol viewBox="0 0 20 23" id="play" xmlns="http://www.w3.org/2000/svg"><path d="M19.932 11.879L.803 22.923V.835l19.13 11.044z"/></symbol><symbol viewBox="0 0 116 71" id="play-icon" xmlns="http://www.w3.org/2000/svg"><rect width="115.806" height="71" rx="27.573"/><path d="M68.932 36.879L49.803 47.923V25.835l19.13 11.044z"/></symbol><symbol viewBox="0 0 32 32" id="search" xmlns="http://www.w3.org/2000/svg"><path d="M19.427 20.427a8.5 8.5 0 112-2l5.585 5.585c.55.55.546 1.431 0 1.976l-.023.023a1.398 1.398 0 01-1.976 0l-5.585-5.585zM14.5 20a6.5 6.5 0 100-13 6.5 6.5 0 000 13z"/></symbol></svg>