<svg  class="main-svg-sprite main-svg-sprite--icons" xmlns="http://www.w3.org/2000/svg" xmlns:xlink="http://www.w3.org/1999/xlink"><symbol viewBox="0 0 29 28" id="certificate" xmlns="http://www.w3.org/2000/svg"><g clip-path="url(#aclip0_555_302)"><g clip-path="url(#aclip1_555_302)"><path d="M26.56 1.893H2.44c-1.07 0-1.94.87-1.94 1.94v16.364c0 1.07.87 1.94 1.94 1.94h14.065l-.425 2.59c-.08.487.082.929.432 1.181s.82.266 1.256.035l3.035-1.597a.637.637 0 01.403 0l3.034 1.597c.208.11.423.164.629.164.228 0 .445-.067.628-.2.35-.251.512-.693.432-1.18l-.425-2.59h1.057c1.069 0 1.94-.87 1.94-1.94V3.833c-.001-1.07-.871-1.94-1.94-1.94zm-5.555 16.92a3.384 3.384 0 01-3.38-3.38 3.384 3.384 0 013.38-3.381 3.384 3.384 0 013.38 3.38 3.384 3.384 0 01-3.38 3.38zm.975 4.062c-.565-.298-1.386-.298-1.951 0l-2.146 1.13.683-4.161a5.01 5.01 0 002.439.63c.884 0 1.715-.229 2.439-.63l.265 1.622.002.008.415 2.53-2.146-1.13zm4.858-2.678a.28.28 0 01-.277.277h-1.33l-.303-1.852-.005-.021a5.018 5.018 0 001.124-3.169 5.048 5.048 0 00-5.042-5.043 5.048 5.048 0 00-5.043 5.043c0 1.2.422 2.302 1.124 3.169l-.005.021-.304 1.854-.027-.002H2.44a.28.28 0 01-.278-.277V3.833a.28.28 0 01.277-.278h24.122a.28.28 0 01.277.278v16.364z"/><path d="M23.62 6.677H4.78a.831.831 0 100 1.662h18.84a.831.831 0 100-1.662zM12.76 11.184H4.78a.831.831 0 100 1.662h7.98a.831.831 0 100-1.662z"/></g></g><defs><clipPath id="aclip0_555_302"><path transform="translate(.5)" d="M0 0h28v28H0z"/></clipPath><clipPath id="aclip1_555_302"><path transform="translate(.5)" d="M0 0h28v28H0z"/></clipPath></defs></symbol><symbol viewBox="0 0 32 25" id="check" xmlns="http://www.w3.org/2000/svg"><path d="M31.4 4.3L12 23.7c-.8.8-2 .8-2.8 0L.6 15.1c-1.8-1.8 1-4.6 2.8-2.8l7.2 7.2 18-18c1.8-2 4.6 1 2.8 2.8z"/></symbol><symbol viewBox="0 0 17 23" id="clip" xmlns="http://www.w3.org/2000/svg"><path d="M16.313 8.375v8.594a5.468 5.468 0 11-10.938 0V6.812a3.125 3.125 0 016.25 0v9.375a.781.781 0 11-1.563 0V6.813a1.562 1.562 0 10-3.124 0V16.97a3.906 3.906 0 007.812 0V8.375a6.25 6.25 0 00-12.5 0v7.813a.781.781 0 11-1.563 0V8.375a7.812 7.812 0 0115.626 0z"/></symbol><symbol viewBox="0 0 20 20" id="close" xmlns="http://www.w3.org/2000/svg"><path d="M10 10L5.833 5.833M10 10l4.167 4.167M10 10l4.167-4.167M10 10l-4.167 4.167"/></symbol><symbol viewBox="0 0 31 31" id="map-locator" xmlns="http://www.w3.org/2000/svg"><g clip-path="url(#eclip0_509_82)"><path d="M15.605.397C9.242.397 4.064 5.575 4.064 11.94c0 6.015 9.58 16.372 10.672 17.534l.87.925.87-.925c1.091-1.161 10.671-11.518 10.671-17.534C27.147 5.575 21.97.397 15.606.397zm0 16.318a4.781 4.781 0 01-4.775-4.775 4.781 4.781 0 014.775-4.776 4.781 4.781 0 014.776 4.776 4.781 4.781 0 01-4.776 4.775z"/></g><defs><clipPath id="eclip0_509_82"><path transform="translate(.605 .397)" d="M0 0h30v30H0z"/></clipPath></defs></symbol><symbol viewBox="0 0 24 24" id="menu" xmlns="http://www.w3.org/2000/svg"><path d="M3 18h18v-2H3v2zm0-5h18v-2H3v2zm0-7v2h18V6H3z"/></symbol><symbol viewBox="0 0 24 24" id="menu-line" xmlns="http://www.w3.org/2000/svg"><path d="M6 8h12M6 12h12M6 16h12" stroke="#155172" stroke-width="2" stroke-linecap="round" stroke-linejoin="round"/></symbol><symbol viewBox="0 0 32 32" id="search" xmlns="http://www.w3.org/2000/svg"><path d="M19.427 20.427a8.5 8.5 0 112-2l5.585 5.585c.55.55.546 1.431 0 1.976l-.023.023a1.398 1.398 0 01-1.976 0l-5.585-5.585zM14.5 20a6.5 6.5 0 100-13 6.5 6.5 0 000 13z"/></symbol><symbol viewBox="0 0 30 31" id="telephone" xmlns="http://www.w3.org/2000/svg"><g clip-path="url(#iclip0_0_218)"><path d="M22.808 20.812c-.98-.968-2.204-.968-3.178 0-.743.736-1.486 1.473-2.216 2.222-.2.206-.368.25-.612.112-.48-.262-.992-.474-1.454-.761-2.154-1.355-3.958-3.097-5.556-5.057-.793-.974-1.499-2.016-1.992-3.19-.1-.237-.081-.393.113-.587.742-.718 1.467-1.454 2.197-2.19 1.018-1.025 1.018-2.223-.006-3.253-.58-.587-1.161-1.162-1.742-1.748-.6-.6-1.192-1.205-1.798-1.798-.98-.955-2.204-.955-3.177.006-.75.737-1.467 1.492-2.23 2.216C.453 7.452.098 8.27.023 9.225c-.119 1.555.262 3.021.799 4.451 1.099 2.96 2.772 5.587 4.8 7.997 2.741 3.259 6.012 5.837 9.839 7.697 1.723.837 3.508 1.48 5.45 1.586 1.336.075 2.497-.262 3.427-1.305.637-.711 1.355-1.36 2.029-2.041.999-1.011 1.005-2.235.012-3.234-1.186-1.192-2.378-2.378-3.57-3.564zM21.615 15.836l2.304-.393a10.296 10.296 0 00-2.878-5.556 10.24 10.24 0 00-5.868-2.928l-.325 2.316a7.945 7.945 0 014.545 2.266 7.943 7.943 0 012.222 4.295zM25.218 5.823a16.986 16.986 0 00-9.74-4.857l-.324 2.316a14.728 14.728 0 018.416 4.195 14.716 14.716 0 014.126 7.96l2.303-.394a17.11 17.11 0 00-4.781-9.22z"/></g><defs><clipPath id="iclip0_0_218"><path transform="translate(0 .966)" d="M0 0h30v30H0z"/></clipPath></defs></symbol></svg>