<svg  class="main-svg-sprite main-svg-sprite--colored" xmlns="http://www.w3.org/2000/svg" xmlns:xlink="http://www.w3.org/1999/xlink"><symbol fill="none" viewBox="0 0 26 26" id="calendar" xmlns="http://www.w3.org/2000/svg"><mask id="aa" style="mask-type:luminance" maskUnits="userSpaceOnUse" x="0" y="0" width="26" height="26"><path d="M0 0h26v26H0V0z" fill="#fff"/></mask><g mask="url(#aa)" stroke="#FF9432" stroke-miterlimit="10" stroke-linecap="round" stroke-linejoin="round"><path d="M24.318 17.863v6.233c0 .841-.682 1.523-1.524 1.523H3.206a1.523 1.523 0 01-1.524-1.523v-2.12"/><path d="M18.65 24.096H3.208a1.526 1.526 0 01-1.526-1.526V3.647c0-.842.683-1.526 1.526-1.526h19.584c.843 0 1.526.684 1.526 1.526v14.78c0 .405-.161.794-.447 1.08l-4.142 4.142a1.526 1.526 0 01-1.08.447z"/><path d="M18.024 24.096c.69 0 1.25-.56 1.25-1.25v-2.543c0-.69.56-1.25 1.251-1.25h2.542c.69 0 1.25-.56 1.25-1.25M6.185 7.564H1.682M24.318 7.564H7.708M5.995 4.4a.777.777 0 01-.778-.778V1.158c0-.43.348-.777.778-.777h.174c.43 0 .778.348.778.777v.963M19.83 4.4a.777.777 0 01-.777-.778V1.158c0-.43.348-.777.777-.777h.175c.43 0 .778.348.778.777v.963M6.144 12.388H4.33a.363.363 0 01-.363-.362v-1.814c0-.2.163-.363.363-.363h1.814c.2 0 .362.163.362.363v1.814c0 .2-.162.362-.362.362zM11.319 12.388H9.505a.363.363 0 01-.362-.362v-1.814c0-.2.162-.363.362-.363h1.814c.2 0 .363.163.363.363v1.814c0 .2-.163.362-.363.362zM16.495 12.388H14.68a.363.363 0 01-.363-.362v-1.814c0-.2.163-.363.363-.363h1.814c.2 0 .362.163.362.363v1.814c0 .2-.162.362-.362.362zM21.67 12.388h-1.814a.363.363 0 01-.362-.362v-1.814c0-.2.162-.363.362-.363h1.814c.2 0 .363.163.363.363v1.814c0 .2-.163.362-.363.362zM6.144 17.1H4.33a.363.363 0 01-.363-.363v-1.814c0-.2.163-.363.363-.363h1.814c.2 0 .362.163.362.363v1.814c0 .2-.162.362-.362.362zM11.319 17.1H9.505a.363.363 0 01-.362-.363v-1.814c0-.2.162-.363.362-.363h1.814c.2 0 .363.163.363.363v1.814c0 .2-.163.362-.363.362zM16.495 17.1H14.68a.363.363 0 01-.363-.363v-1.814c0-.2.163-.363.363-.363h1.814c.2 0 .362.163.362.363v1.814c0 .2-.162.362-.362.362zM21.67 17.212h-1.814a.363.363 0 01-.362-.362v-1.814c0-.2.162-.362.362-.362h1.814c.2 0 .363.162.363.362v1.814c0 .2-.163.362-.363.362zM6.144 21.81H4.33a.363.363 0 01-.363-.362v-1.814c0-.2.163-.363.363-.363h1.814c.2 0 .362.163.362.363v1.814c0 .2-.162.363-.362.363zM11.319 21.81H9.505a.363.363 0 01-.362-.362v-1.814c0-.2.162-.363.362-.363h1.814c.2 0 .363.163.363.363v1.814c0 .2-.163.363-.363.363zM14.318 20.157v-.523c0-.2.163-.363.363-.363h1.814c.2 0 .362.163.362.363v1.814c0 .2-.162.363-.362.363H14.68a.363.363 0 01-.363-.363"/></g></symbol><symbol viewBox="0 0 14 14" id="gift" xmlns="http://www.w3.org/2000/svg"><path fill-rule="evenodd" clip-rule="evenodd" d="M3.646 3.208A1.896 1.896 0 017 1.997a1.896 1.896 0 013.057 2.232h.443a1.604 1.604 0 011.604 1.604V7a1.02 1.02 0 01-.747.984 12.893 12.893 0 01-.146 3.193 1.434 1.434 0 01-1.254 1.183l-.534.06c-1.61.18-3.236.18-4.847 0l-.533-.06a1.434 1.434 0 01-1.254-1.183 12.898 12.898 0 01-.146-3.193A1.02 1.02 0 011.896 7V5.833A1.604 1.604 0 013.5 4.23h.443a1.887 1.887 0 01-.297-1.02zm2.917 0a1.02 1.02 0 10-2.042 0 1.02 1.02 0 002.042 0zM8.459 4.23a1.02 1.02 0 100-2.041 1.02 1.02 0 000 2.041zM2.77 5.833a.73.73 0 01.73-.729h3.062v2.042H2.917A.146.146 0 012.77 7V5.833zm4.667 2.188h3.044a12.032 12.032 0 01-.133 3.008.56.56 0 01-.49.461l-.533.06c-.627.07-1.258.111-1.888.125V8.02zm0-.875h3.646A.146.146 0 0011.229 7V5.833a.73.73 0 00-.729-.729H7.438v2.042zm-.875.875v3.654a20.92 20.92 0 01-1.89-.125l-.532-.06a.56.56 0 01-.49-.46 12.023 12.023 0 01-.133-3.01h3.045z"/></symbol><symbol fill="none" viewBox="0 0 26 26" id="price" xmlns="http://www.w3.org/2000/svg"><g clip-path="url(#cclip0_0_827)"><mask id="ca" style="mask-type:luminance" maskUnits="userSpaceOnUse" x="0" y="0" width="26" height="26"><path d="M0 0h26v26H0V0z" fill="#fff"/></mask><g mask="url(#ca)" stroke="#FF9432" stroke-width="1.2" stroke-miterlimit="10" stroke-linecap="round" stroke-linejoin="round"><path d="M23.873 12.64L22.34 3.664l-8.976-1.533a1.551 1.551 0 00-1.357.432L1.814 12.755a3.589 3.589 0 000 5.075l6.36 6.36a3.588 3.588 0 005.075 0l10.192-10.192c.356-.356.517-.862.433-1.358z"/><path d="M19.228 10.333a2.515 2.515 0 11-3.557-3.557 2.515 2.515 0 013.557 3.557zM17.558 8.447L25.24.764"/></g></g><defs><clipPath id="cclip0_0_827"><path fill="#fff" d="M0 0h26v26H0z"/></clipPath></defs></symbol><symbol fill="none" viewBox="0 0 26 26" id="size" xmlns="http://www.w3.org/2000/svg"><g clip-path="url(#dclip0_0_766)" stroke="#FF9432" stroke-linecap="round" stroke-linejoin="round"><path d="M20.82 5.18H.508v20.312H20.82V5.18zM1.777 3.047l-1.27-1.27 1.27-1.27M19.55 3.047l1.27-1.27-1.27-1.27M.762 1.777h19.804M22.953 6.45l1.27-1.27 1.27 1.27M22.953 24.223l1.27 1.27 1.27-1.27M24.223 5.434v19.804" stroke-miterlimit="22.926"/><path d="M17.773 8.227H3.555v14.218h14.218V8.227zM3.72 8.392l1.773 1.773m3.232 3.232l8.883 8.883M17.608 8.392L3.72 22.28" stroke-miterlimit="22.926"/><path d="M7.109 11.781h.001" stroke-miterlimit="2.613"/></g><defs><clipPath id="dclip0_0_766"><path fill="#fff" d="M0 0h26v26H0z"/></clipPath></defs></symbol></svg>