<svg width="1018" height="796" viewBox="0 0 1018 796" fill="none" xmlns="http://www.w3.org/2000/svg">
<path d="M875.508 0H234.052C249.59 39.2609 271.927 76.8064 301.062 111.493L458.392 299.602C459.606 301.127 459.363 303.223 457.663 304.557L392.838 355.444C391.138 356.778 388.467 356.969 386.525 356.016L146.889 232.516C101.244 209.264 51.7147 191.349 0 179.151V681.538L80.1214 722.705C172.14 770.161 280.182 795.128 389.681 795.128C408.619 795.128 427.8 794.365 446.98 792.841C575.417 782.549 696.571 737.38 787.86 665.529L852.686 614.642C943.976 542.981 1001.52 447.879 1014.87 347.058C1027.98 246.238 996.419 143.893 925.524 59.2725L875.508 0Z" fill="#CA84A7"/>
</svg>
