<svg width="1440" height="1114" viewBox="0 0 1440 1114" fill="none" xmlns="http://www.w3.org/2000/svg">
<path d="M835.933 0C818.209 38.6891 806.313 79.0935 800.971 120.26C785.675 236.899 822.337 355.254 904.401 453.215L1110.53 699.834C1134.81 728.803 1129.71 767.493 1098.39 791.888L1013.41 858.593C982.337 882.988 932.807 886.99 896.146 868.122L581.973 706.314C457.178 642.087 306.404 613.308 157.815 625.124C103.672 629.508 50.7436 639.228 0 653.903V1083.68L37.8756 1113.41H118.968L158.3 1082.53C189.378 1058.14 238.907 1054.13 275.569 1073L353.991 1113.41H1439.76V294.838L1371.29 212.885C1347.01 183.916 1352.11 145.227 1383.43 120.832L1439.76 76.4253V39.4514L1389.5 0H835.933Z" fill="#D86666"/>
</svg>
