<svg width="1440" height="1114" viewBox="0 0 1440 1114" fill="none" xmlns="http://www.w3.org/2000/svg">
<path d="M1170.02 98.9145C1153.51 79.0935 1156.9 52.6019 1178.27 35.8303L1223.92 0H607.709C606.252 7.05171 605.281 14.294 604.31 21.3457C589.742 132.839 624.704 245.666 703.126 339.244L892.989 566.424C909.499 586.245 906.1 612.736 884.735 629.508L806.555 690.877C785.19 707.648 751.442 710.317 726.191 697.357L436.783 548.318C317.572 486.949 173.596 459.314 31.8058 470.749C21.1229 471.702 10.4401 472.655 0 473.989V960.557L50.258 921.105C71.6237 904.334 105.372 901.666 130.622 914.625L419.788 1064.05C458.877 1084.25 500.637 1100.64 544.097 1113.41H978.209C1061.49 1089.01 1137.97 1050.89 1201.34 1001.15L1279.51 939.783C1356.24 879.558 1411.11 804.657 1439.76 723.276V465.413C1422.76 416.241 1395.81 369.166 1359.88 326.094L1170.02 98.9145Z" fill="#D3707C"/>
</svg>
