<svg width="1240" height="970" viewBox="0 0 1240 970" fill="none" xmlns="http://www.w3.org/2000/svg">
<path d="M981.608 0H406.191C412.747 80.0464 445.766 157.996 502.094 225.464L675.69 433.203C684.674 443.876 682.731 458.17 671.32 467.318L599.697 523.351C588.285 532.309 569.833 533.833 556.237 526.781L291.593 390.512C204.431 345.724 103.429 319.804 0 315.04V764.443L250.076 893.28C346.95 943.213 460.577 969.514 575.66 969.514C595.812 969.514 615.721 968.752 635.873 967.037C771.108 956.173 898.574 908.527 994.476 833.054L1065.86 777.022C1162 701.549 1222.46 601.491 1236.54 495.525C1250.38 389.369 1217.12 281.878 1142.58 192.683L981.608 0Z" fill="#CF7A91"/>
</svg>
