<svg width="1440" height="709" viewBox="0 0 1440 709" fill="none" xmlns="http://www.w3.org/2000/svg">
<path d="M1140.29 0.138672H471.855C479.47 58.5936 517.828 115.517 583.261 164.787L784.921 316.491C795.356 324.285 793.1 334.723 779.844 341.404L696.642 382.322C683.386 388.864 661.951 389.977 646.156 384.827L338.731 285.315C237.479 252.608 120.15 233.68 0 230.2V558.383L290.502 652.467C403.037 688.932 535.032 708.139 668.72 708.139C692.129 708.139 715.256 707.582 738.666 706.329C895.763 698.396 1043.83 663.602 1155.24 608.487L1238.16 567.569C1349.85 512.454 1420.08 439.385 1436.44 362.002C1452.51 284.48 1413.87 205.983 1327.29 140.848L1140.29 0.138672Z" fill="#E47D8D"/>
</svg>
