<svg width="842" height="582" viewBox="0 0 842 582" fill="none" xmlns="http://www.w3.org/2000/svg">
<path d="M724.304 0.138672H193.63C206.485 28.8266 224.964 56.2612 249.067 81.6068L379.225 219.058C380.23 220.172 380.029 221.704 378.623 222.679L324.993 259.862C323.587 260.837 321.377 260.976 319.771 260.28L121.521 170.038C83.759 153.048 42.7834 139.957 0 131.045V498.139L66.2841 528.219C142.41 562.895 231.793 581.139 322.382 581.139C338.049 581.139 353.917 580.582 369.785 579.468C476.04 571.947 576.27 538.942 651.794 486.441L705.423 449.258C780.947 396.895 828.551 327.404 839.598 253.734C850.445 180.065 824.333 105.281 765.682 43.4491L724.304 0.138672Z" fill="#E6898E"/>
</svg>
