<svg width="1440" height="1126" viewBox="0 0 1440 1126" fill="none" xmlns="http://www.w3.org/2000/svg">
<path d="M1170.26 100.129C1153.75 80.1038 1157.15 53.3386 1178.51 36.3937L1224.16 0.193359H607.951C606.494 7.3179 605.523 14.635 604.552 21.7595C589.984 134.404 624.946 248.397 703.368 342.942L893.232 572.467C909.741 592.493 906.342 619.258 884.977 636.203L806.798 698.206C785.432 715.151 751.684 717.846 726.433 704.753L437.025 554.175C317.814 492.172 173.839 464.251 32.048 475.805C21.3651 476.767 10.6822 477.73 0.242188 479.078V970.671L50.5002 930.813C71.8659 913.868 105.614 911.172 130.864 924.266L420.03 1075.23C459.119 1095.64 500.88 1112.2 544.339 1125.1H978.452C1061.73 1100.45 1138.21 1061.94 1201.58 1011.69L1279.76 949.683C1356.48 888.836 1411.35 813.161 1440 730.94V470.413C1423 420.734 1396.05 373.173 1360.12 329.655L1170.26 100.129Z" fill="#D3707C"/>
</svg>
