<svg width="1240" height="980" viewBox="0 0 1240 980" fill="none" xmlns="http://www.w3.org/2000/svg">
<path d="M981.608 0.193359H406.191C412.747 81.0665 445.766 159.822 502.094 227.986L675.69 437.871C684.674 448.654 682.731 463.096 671.32 472.339L599.697 528.95C588.285 538 569.833 539.54 556.237 532.416L291.593 394.739C204.431 349.488 103.429 323.301 0 318.487V772.532L250.076 902.699C346.95 953.149 460.577 979.722 575.66 979.722C595.812 979.722 615.721 978.951 635.873 977.218C771.108 966.243 898.574 918.104 994.476 841.852L1065.86 785.241C1162 708.989 1222.46 607.897 1236.54 500.837C1250.38 393.584 1217.12 284.982 1142.58 194.867L981.608 0.193359Z" fill="#CF7A91"/>
</svg>
