<svg width="1018" height="804" viewBox="0 0 1018 804" fill="none" xmlns="http://www.w3.org/2000/svg">
<path d="M875.508 0.193359H234.052C249.59 39.8597 271.927 77.7931 301.062 112.838L458.392 302.89C459.606 304.431 459.363 306.549 457.663 307.897L392.838 359.309C391.138 360.657 388.467 360.849 386.525 359.886L146.889 235.111C101.244 211.619 51.7147 193.519 0 181.195V688.771L80.1214 730.363C172.14 778.309 280.182 803.534 389.681 803.534C408.619 803.534 427.8 802.763 446.98 801.223C575.417 790.825 696.571 745.189 787.86 672.596L852.686 621.184C943.976 548.783 1001.52 452.698 1014.87 350.836C1027.98 248.975 996.419 145.573 925.524 60.078L875.508 0.193359Z" fill="#CA84A7"/>
</svg>
