<svg width="1440" height="1126" viewBox="0 0 1440 1126" fill="none" xmlns="http://www.w3.org/2000/svg">
<path d="M835.933 0.193359C818.209 39.2821 806.313 80.1038 800.971 121.696C785.675 239.539 822.337 359.116 904.401 458.09L1110.53 707.256C1134.81 736.524 1129.71 775.613 1098.39 800.26L1013.41 867.654C982.337 892.301 932.807 896.345 896.146 877.282L581.973 713.803C457.178 648.912 306.404 619.836 157.815 631.774C103.672 636.203 50.7436 646.023 0 660.85V1095.06L37.8756 1125.1H118.968L158.3 1093.91C189.378 1069.26 238.907 1065.22 275.569 1084.28L353.991 1125.1H1439.76V298.076L1371.29 215.277C1347.01 186.009 1352.11 146.92 1383.43 122.273L1439.76 77.408V40.0523L1389.5 0.193359H835.933Z" fill="#D86666"/>
</svg>
