<svg width="1614" height="802" viewBox="0 0 1614 802" fill="none" xmlns="http://www.w3.org/2000/svg">
<path d="M1388.1 0H371.083C395.719 39.5917 431.134 77.4536 477.326 112.433L726.768 302.127C728.693 303.664 728.308 305.778 725.613 307.124L622.834 358.439C620.14 359.785 615.905 359.977 612.826 359.016L232.889 234.475C160.52 211.027 81.9924 192.961 0 180.661V687.281L127.03 728.794C272.923 776.65 444.222 801.827 617.83 801.827C647.855 801.827 678.266 801.059 708.676 799.521C912.31 789.143 1104.39 743.593 1249.13 671.137L1351.91 619.821C1496.65 547.557 1587.88 451.653 1609.05 349.983C1629.84 248.313 1579.8 145.105 1467.39 59.7719L1388.1 0Z" fill="#7D5BC5"/>
</svg>
