<svg width="375" height="742" viewBox="0 0 375 742" fill="none" xmlns="http://www.w3.org/2000/svg">
<path d="M550.371 0.046875H147.132C156.9 38.9652 170.942 76.1832 189.257 110.567L288.159 297.035C288.922 298.547 288.769 300.625 287.701 301.947L246.95 352.39C245.881 353.713 244.202 353.902 242.981 352.957L92.339 230.534C63.6452 207.485 32.5094 189.727 0 177.635V675.639L50.3667 716.447C108.212 763.489 176.131 788.238 244.965 788.238C256.87 788.238 268.928 787.482 280.985 785.971C361.725 775.769 437.885 730.994 495.273 659.769L536.024 609.327C593.412 538.291 629.584 444.018 637.979 344.077C646.22 244.137 626.379 142.684 581.812 58.8022L550.371 0.046875Z" fill="#7D5BC5"/>
</svg>
