<svg width="842" height="581" viewBox="0 0 842 581" fill="none" xmlns="http://www.w3.org/2000/svg">
<path d="M724.304 0H193.63C206.485 28.6879 224.964 56.1225 249.067 81.4681L379.225 218.919C380.23 220.034 380.029 221.565 378.623 222.54L324.993 259.723C323.587 260.698 321.377 260.837 319.771 260.141L121.521 169.899C83.759 152.909 42.7834 139.819 0 130.906V498L66.2841 528.081C142.41 562.757 231.793 581 322.382 581C338.049 581 353.917 580.443 369.785 579.329C476.04 571.809 576.27 538.804 651.794 486.302L705.423 449.119C780.947 396.757 828.551 327.265 839.599 253.596C850.445 179.926 824.333 105.143 765.682 43.3104L724.304 0Z" fill="#F77278"/>
</svg>
