<svg width="1440" height="713" viewBox="0 0 1440 713" fill="none" xmlns="http://www.w3.org/2000/svg">
<path d="M836.074 0C818.347 24.7756 806.449 50.6496 801.106 77.0118C785.808 151.705 822.476 227.496 904.553 290.228L1110.72 448.158C1135 466.709 1129.9 491.484 1098.58 507.106L1013.59 549.823C982.503 565.445 932.965 568.008 896.297 555.925L582.071 452.307C457.255 411.177 306.455 392.748 157.841 400.315C103.69 403.122 50.7521 409.346 0 418.744V693.961L37.882 713H118.988L158.327 693.228C189.41 677.606 238.948 675.043 275.616 687.126L354.051 713H1440V188.807L1371.52 136.327C1347.24 117.776 1352.34 93 1383.66 77.378L1440 48.9409V25.2638L1389.73 0H836.074Z" fill="#FA6882"/>
</svg>
