<svg width="662" height="691" viewBox="0 0 662 691" fill="none" xmlns="http://www.w3.org/2000/svg">
<path d="M875.508 -112.807H234.052C249.59 -73.1403 271.927 -35.2069 301.062 -0.161865L458.392 189.89C459.605 191.431 459.363 193.549 457.663 194.897L392.838 246.309C391.138 247.657 388.467 247.849 386.525 246.886L146.889 122.111C101.244 98.6189 51.7147 80.5188 0 68.1952V575.771L80.1214 617.363C172.14 665.309 280.182 690.534 389.681 690.534C408.619 690.534 427.8 689.763 446.98 688.223C575.417 677.825 696.571 632.189 787.86 559.596L852.686 508.184C943.976 435.783 1001.52 339.698 1014.87 237.836C1027.98 135.975 996.419 32.5725 925.524 -52.922L875.508 -112.807Z" fill="#CA84A7"/>
</svg>
