<svg width="662" height="786" viewBox="0 0 662 786" fill="none" xmlns="http://www.w3.org/2000/svg">
<path d="M981.608 -112.807H406.191C412.747 -31.9335 445.766 46.8216 502.094 114.986L675.69 324.871C684.674 335.654 682.731 350.096 671.32 359.339L599.696 415.95C588.285 425 569.833 426.54 556.237 419.416L291.593 281.739C204.431 236.488 103.429 210.301 0 205.487V659.532L250.076 789.699C346.95 840.149 460.577 866.721 575.66 866.721C595.812 866.721 615.721 865.951 635.872 864.218C771.108 853.243 898.574 805.104 994.477 728.852L1065.86 672.241C1162 595.989 1222.46 494.897 1236.54 387.837C1250.38 280.584 1217.12 171.982 1142.58 81.8666L981.608 -112.807Z" fill="#CF7A91"/>
</svg>
