<svg width="662" height="708" viewBox="0 0 662 708" fill="none" xmlns="http://www.w3.org/2000/svg">
<path d="M1140.29 0H471.855C479.47 58.4549 517.828 115.379 583.261 164.648L784.921 316.352C795.356 324.146 793.1 334.585 779.844 341.265L696.642 382.184C683.386 388.725 661.951 389.838 646.156 384.689L338.731 285.176C237.479 252.469 120.15 233.541 0 230.062V558.244L290.502 652.329C403.037 688.793 535.032 708 668.72 708C692.129 708 715.256 707.443 738.666 706.191C895.763 698.258 1043.83 663.463 1155.24 608.348L1238.16 567.43C1349.85 512.315 1420.08 439.247 1436.44 361.864C1452.51 284.341 1413.87 205.845 1327.29 140.709L1140.29 0Z" fill="#FE8467"/>
</svg>
