<svg width="168" height="25" viewBox="0 0 168 25" fill="none" xmlns="http://www.w3.org/2000/svg">
<circle cx="62.3764" cy="3.72796" r="2.89984" fill="#D9FB51"/>
<path d="M0 23.867V3.22013H6.46664L11.2804 17.4003L15.9781 3.22013H22.2997V23.867H18.037V9.1938L12.9623 23.867H9.45347L4.32076 9.33879V23.867H0Z" fill="#2E2E41"/>
<path d="M39.9373 19.2272C39.4734 20.8318 38.6131 22.0787 37.3565 22.968C36.1192 23.8573 34.6403 24.3019 32.9197 24.3019C30.6192 24.3019 28.7633 23.5867 27.352 22.1561C25.9601 20.7255 25.2642 18.8309 25.2642 16.4724C25.2642 14.1525 25.9698 12.2386 27.381 10.7307C28.7923 9.2228 30.5902 8.46884 32.7747 8.46884C35.0366 8.46884 36.8345 9.24213 38.1684 10.7887C39.5023 12.316 40.1693 14.3942 40.1693 17.0234V17.4293H29.4399C29.4592 18.7246 29.7686 19.7105 30.3679 20.3872C30.9865 21.0638 31.8468 21.4021 32.9487 21.4021C34.3986 21.4021 35.4136 20.6771 35.9935 19.2272H39.9373ZM35.9935 14.8195C35.8969 13.8335 35.5779 13.0312 35.0366 12.4126C34.4953 11.7746 33.7413 11.4557 32.7747 11.4557C31.8661 11.4557 31.1122 11.7553 30.5129 12.3546C29.9136 12.9539 29.5559 13.7755 29.4399 14.8195H35.9935Z" fill="#2E2E41"/>
<path d="M57.1107 23.867H53.2249V21.9531C52.239 23.4997 50.7311 24.2729 48.7012 24.2729C46.6326 24.2729 44.9797 23.5577 43.7425 22.1271C42.5245 20.6771 41.9156 18.7439 41.9156 16.3274C41.9156 13.9689 42.5052 12.0743 43.6845 10.6437C44.8831 9.21313 46.478 8.49784 48.4692 8.49784C49.3971 8.49784 50.2671 8.69116 51.079 9.0778C51.9103 9.46445 52.558 10.0251 53.0219 10.7597V3.22013H57.1107V23.867ZM53.1669 16.3564C53.1669 14.9065 52.8479 13.7755 52.21 12.9636C51.5913 12.1516 50.7214 11.7457 49.6001 11.7457C48.4789 11.7457 47.6089 12.1516 46.9903 12.9636C46.3716 13.7755 46.0623 14.8968 46.0623 16.3274C46.0623 17.7773 46.3716 18.9179 46.9903 19.7492C47.6282 20.5612 48.4982 20.9671 49.6001 20.9671C50.7407 20.9671 51.6203 20.5708 52.239 19.7782C52.8576 18.9662 53.1669 17.8256 53.1669 16.3564Z" fill="#2E2E41"/>
<path d="M64.4858 8.90381V23.867H60.368V8.90381H64.4858Z" fill="#2E2E41"/>
<path d="M81.6474 23.867H77.4716C77.3363 23.4803 77.2396 22.997 77.1817 22.4171C75.9251 23.6736 74.3108 24.3019 72.3389 24.3019C70.6763 24.3019 69.3714 23.9056 68.4241 23.113C67.4769 22.3011 67.0032 21.1895 67.0032 19.7782C67.0032 19.1402 67.0806 18.5796 67.2352 18.0963C67.4092 17.613 67.6799 17.207 68.0472 16.8784C68.4338 16.5497 68.7915 16.2791 69.1201 16.0664C69.4681 15.8538 69.9417 15.6798 70.541 15.5444C71.1403 15.4091 71.6236 15.3125 71.9909 15.2545C72.3583 15.1771 72.8706 15.0998 73.5279 15.0225C74.9778 14.8291 75.9444 14.6262 76.4277 14.4135C76.9303 14.2008 77.1817 13.8045 77.1817 13.2246C77.1817 11.8906 76.2827 11.2237 74.4848 11.2237C73.5375 11.2237 72.8416 11.3977 72.3969 11.7457C71.9523 12.0743 71.6623 12.6639 71.527 13.5146H67.6702C67.9022 10.1507 70.2124 8.46884 74.6008 8.46884C78.9506 8.46884 81.1254 10.0927 81.1254 13.3406V19.8072C81.1254 21.7018 81.2994 23.055 81.6474 23.867ZM77.1526 16.5884C76.6693 16.8784 75.7027 17.1393 74.2528 17.3713C73.0349 17.5647 72.2423 17.8063 71.875 18.0963C71.4496 18.4636 71.237 18.9662 71.237 19.6042C71.237 20.2228 71.4303 20.7158 71.817 21.0831C72.2229 21.4311 72.7836 21.6051 73.4989 21.6051C74.6008 21.6051 75.4804 21.3151 76.1377 20.7351C76.8143 20.1358 77.1526 19.3142 77.1526 18.2703V16.5884Z" fill="#2E2E41"/>
<path d="M100.097 9.36779H95.8049C95.631 7.31857 94.326 6.29396 91.8902 6.29396C90.8462 6.29396 90.0246 6.50661 89.4253 6.93192C88.8453 7.3379 88.5554 7.9082 88.5554 8.64283C88.5554 8.89415 88.594 9.11647 88.6713 9.30979C88.7487 9.50311 88.8937 9.68677 89.1063 9.86076C89.319 10.0154 89.5316 10.1507 89.7443 10.2667C89.9569 10.3634 90.2663 10.4794 90.6722 10.6147C91.0975 10.7307 91.4745 10.837 91.8032 10.9337C92.1512 11.0304 92.6345 11.156 93.2531 11.3107C93.8717 11.4653 94.413 11.6103 94.877 11.7457C96.9069 12.3256 98.4148 13.0506 99.4007 13.9205C100.406 14.7905 100.909 16.0374 100.909 17.6613C100.909 18.8406 100.667 19.8749 100.184 20.7641C99.7004 21.6341 99.0431 22.3301 98.2118 22.852C97.3999 23.3547 96.5009 23.722 95.515 23.954C94.5483 24.2053 93.5141 24.3309 92.4121 24.3309C89.609 24.3309 87.4147 23.693 85.8295 22.4171C84.2636 21.1218 83.471 19.3046 83.4516 16.9654H87.9464C88.0237 19.5559 89.58 20.8511 92.6151 20.8511C93.7944 20.8511 94.7223 20.6095 95.399 20.1262C96.0949 19.6235 96.4429 18.9469 96.4429 18.0963C96.4429 17.381 96.1239 16.859 95.486 16.5304C94.8673 16.2017 93.5527 15.7474 91.5422 15.1675C91.4262 15.1481 91.3392 15.1288 91.2812 15.1095C91.2232 15.0901 91.1459 15.0708 91.0492 15.0515C90.9526 15.0128 90.8656 14.9838 90.7882 14.9645C90.0923 14.7711 89.609 14.6358 89.3383 14.5585C89.0677 14.4618 88.6327 14.3072 88.0334 14.0945C87.4534 13.8819 87.0281 13.6885 86.7575 13.5146C86.4868 13.3406 86.1485 13.0989 85.7425 12.7896C85.3559 12.4803 85.0755 12.1613 84.9016 11.8326C84.7276 11.4847 84.5632 11.069 84.4086 10.5857C84.2733 10.0831 84.2056 9.54178 84.2056 8.96181C84.2056 7.08658 84.9306 5.58833 86.3805 4.46706C87.8304 3.34579 89.754 2.78516 92.1511 2.78516C94.471 2.78516 96.3656 3.33613 97.8348 4.43806C99.3041 5.52067 100.058 7.16391 100.097 9.36779Z" fill="#2E2E41"/>
<path d="M117.276 19.2272C116.812 20.8318 115.951 22.0787 114.695 22.968C113.458 23.8573 111.979 24.3019 110.258 24.3019C107.958 24.3019 106.102 23.5867 104.69 22.1561C103.299 20.7255 102.603 18.8309 102.603 16.4724C102.603 14.1525 103.308 12.2386 104.719 10.7307C106.131 9.2228 107.929 8.46884 110.113 8.46884C112.375 8.46884 114.173 9.24213 115.507 10.7887C116.841 12.316 117.508 14.3942 117.508 17.0234V17.4293H106.778C106.798 18.7246 107.107 19.7105 107.706 20.3872C108.325 21.0638 109.185 21.4021 110.287 21.4021C111.737 21.4021 112.752 20.6771 113.332 19.2272H117.276ZM113.332 14.8195C113.235 13.8335 112.916 13.0312 112.375 12.4126C111.834 11.7746 111.08 11.4557 110.113 11.4557C109.205 11.4557 108.451 11.7553 107.851 12.3546C107.252 12.9539 106.894 13.7755 106.778 14.8195H113.332Z" fill="#2E2E41"/>
<path d="M133.956 23.867H129.78V15.1385C129.78 14.0752 129.606 13.2729 129.258 12.7316C128.91 12.171 128.234 11.8906 127.229 11.8906C125.063 11.8906 123.981 13.2052 123.981 15.8344V23.867H119.892V8.90381H123.807V10.9917C125.044 9.32912 126.697 8.49784 128.765 8.49784C130.37 8.49784 131.636 8.96181 132.564 9.88976C133.492 10.8177 133.956 12.142 133.956 13.8625V23.867Z" fill="#2E2E41"/>
<path d="M151.32 18.0963C151.068 20.0295 150.305 21.5374 149.029 22.62C147.772 23.7026 146.148 24.2439 144.157 24.2439C141.856 24.2439 140.01 23.5383 138.618 22.1271C137.226 20.7158 136.53 18.8406 136.53 16.5014C136.53 14.0849 137.226 12.142 138.618 10.6727C140.03 9.20346 141.895 8.46884 144.215 8.46884C146.206 8.46884 147.83 8.98114 149.087 10.0058C150.343 11.011 151.059 12.3836 151.233 14.1235H147.202C146.893 12.4029 145.907 11.5427 144.244 11.5427C143.123 11.5427 142.243 11.9776 141.605 12.8476C140.987 13.6982 140.677 14.8871 140.677 16.4144C140.677 17.903 140.977 19.0629 141.576 19.8942C142.195 20.7061 143.055 21.1121 144.157 21.1121C145.955 21.1121 147.018 20.1068 147.347 18.0963H151.32Z" fill="#2E2E41"/>
<path d="M167.768 19.2272C167.304 20.8318 166.444 22.0787 165.187 22.968C163.95 23.8573 162.471 24.3019 160.75 24.3019C158.45 24.3019 156.594 23.5867 155.183 22.1561C153.791 20.7255 153.095 18.8309 153.095 16.4724C153.095 14.1525 153.8 12.2386 155.212 10.7307C156.623 9.2228 158.421 8.46884 160.605 8.46884C162.867 8.46884 164.665 9.24213 165.999 10.7887C167.333 12.316 168 14.3942 168 17.0234V17.4293H157.271C157.29 18.7246 157.599 19.7105 158.199 20.3872C158.817 21.0638 159.677 21.4021 160.779 21.4021C162.229 21.4021 163.244 20.6771 163.824 19.2272H167.768ZM163.824 14.8195C163.728 13.8335 163.409 13.0312 162.867 12.4126C162.326 11.7746 161.572 11.4557 160.605 11.4557C159.697 11.4557 158.943 11.7553 158.344 12.3546C157.744 12.9539 157.387 13.7755 157.271 14.8195H163.824Z" fill="#2E2E41"/>
</svg>
