<svg width="120" height="610" viewBox="0 0 120 610" fill="none" xmlns="http://www.w3.org/2000/svg">
<path d="M60.6956 -11.3457C36.6209 -11.3457 18.001 9.7662 21.0091 33.6522L34.5644 141.289C34.6381 141.875 34.6186 142.469 34.5064 143.049C33.3937 148.797 25.311 149.177 23.6636 143.559L0.219698 63.6022C0.198412 63.4914 0 63.5145 0 63.6274V569.254C0 575.101 1.19001 580.932 4.00268 586.058C12.5472 601.628 21.5749 609.597 30.6845 609.597C33.3942 609.597 36.1404 608.834 38.85 607.499C57.2314 597.583 74.5144 554.864 87.5864 486.782L96.3377 441.203C109.41 373.12 117.612 283.106 119.516 187.371C120.579 132.754 119.569 77.7644 116.602 25.6066C115.414 4.74064 97.9959 -11.3457 77.0962 -11.3457H60.6956Z" fill="#A487E3"/>
</svg>
