<svg width="375" height="1142" viewBox="0 0 375 1142" fill="none" xmlns="http://www.w3.org/2000/svg">
<path d="M307.993 98.2272C303.647 76.2704 304.542 46.9243 310.166 28.3455C316.148 8.58428 301.359 -11.3457 280.712 -11.3457H183.635C170.383 -11.3457 159.511 -0.945122 159.078 12.3001C155.243 135.807 164.446 260.792 185.09 364.454L235.069 616.112C239.415 638.069 238.521 667.415 232.896 685.994L212.317 753.976C206.692 772.555 197.808 775.51 191.162 761.154L114.978 596.056C83.5972 528.074 45.6973 497.461 8.37251 510.129C3.11598 512.102 0 517.22 0 522.834V1007.05C0 1014.83 10.9765 1016.46 13.2298 1009.01C18.8541 990.434 27.7379 987.478 34.3848 1001.83L110.504 1167.35C117.378 1182.3 124.565 1195.37 131.989 1206.61C138.644 1216.69 150.245 1222.04 162.321 1222.04H238.445C250.501 1222.04 262.079 1216.71 268.718 1206.65C286.291 1180.01 302.445 1143.25 316.238 1097.68L336.818 1029.7C357.014 962.988 371.458 880.016 379 789.867V504.217C374.526 449.747 367.432 397.6 357.973 349.886L307.993 98.2272Z" fill="#6F41D2"/>
</svg>
