<svg width="375" height="959" viewBox="0 0 375 959" fill="none" xmlns="http://www.w3.org/2000/svg">
<path d="M307.803 18.7624C303.282 1.04872 287.327 -11.3457 269.045 -11.3457H165.203C142.72 -11.3457 124.582 7.18814 125.929 29.6309C129.865 95.2038 139.242 158.349 153.511 214.292L206.587 422.191C209.333 432.872 208.739 447.177 205.25 456.332L183.352 512.408C179.863 521.372 174.222 522.898 170.065 515.841L89.1522 379.467C74.4748 354.78 58.5139 335.822 41.8523 322.973C22.477 308.032 0 325.953 0 350.42V742.717C0 749.897 1.93241 756.944 5.59445 763.12L76.4586 882.621C106.077 932.593 140.817 958.914 176.003 958.914C182.164 958.914 188.251 958.151 194.413 956.435C235.76 945.563 274.731 897.88 304.053 822.349L325.877 766.274C355.273 690.743 373.756 590.608 378.062 484.561C382.293 378.322 372.123 270.749 349.334 181.486L307.803 18.7624Z" fill="#8057D7"/>
</svg>
