<svg width="1440" height="931" viewBox="0 0 1440 931" fill="none" xmlns="http://www.w3.org/2000/svg">
<path d="M836.074 0.0273438C818.347 37.4156 806.449 76.4616 801.106 116.244C785.808 228.962 822.476 343.337 904.553 438.005L1110.72 676.332C1135 704.327 1129.9 741.716 1098.58 765.29L1013.59 829.753C982.503 853.328 932.965 857.196 896.297 838.962L582.071 682.594C457.255 620.526 306.455 592.715 157.841 604.134C103.69 608.37 50.7521 617.763 0 631.945V1047.27L37.882 1076H118.988L158.327 1046.16C189.41 1022.59 238.948 1018.72 275.616 1036.95L354.051 1076H1440V284.952L1371.52 205.755C1347.24 177.76 1352.34 140.372 1383.66 116.797L1440 73.8831V38.1524L1389.73 0.0273438H836.074Z" fill="#6130CA"/>
</svg>
