<svg width="379" height="1234" viewBox="0 0 379 1234" fill="none" xmlns="http://www.w3.org/2000/svg">
<path d="M255.932 0C235.516 0 218.326 15.3708 216.558 35.7101C213.795 67.4999 211.867 100.137 210.847 133.219C206.82 262.426 216.471 393.534 238.073 502.051L292.335 775.244C298.726 807.335 297.384 850.193 289.139 877.217L266.77 951.11C258.589 978.134 245.551 982.567 235.9 961.666L153.198 782.423C120.347 711.274 80.6573 679.394 41.543 692.484C30.6702 696.188 19.9833 703.333 9.59598 713.731C3.04967 720.283 0 729.427 0 738.689V1194.72C0 1198.52 0.558735 1202.29 1.65823 1205.92L6.87783 1223.17C8.71427 1229.23 14.3054 1233.38 20.6437 1233.38V1233.38C26.9819 1233.38 32.5731 1229.23 34.4095 1223.17L41.6708 1199.18C49.8516 1172.16 62.8897 1167.72 72.5404 1188.62L82.4619 1210.13C88.998 1224.31 103.179 1233.38 118.785 1233.38H339C361.091 1233.38 379 1215.47 379 1193.38V330.54C379 327.925 378.743 325.316 378.234 322.751L360.976 235.825C354.585 203.734 355.927 160.876 364.172 133.852L377.298 90.3069C378.426 86.5628 379 82.6734 379 78.7629V49.6243C379 45.6978 378.422 41.7928 377.284 38.0347L374.37 28.4104C369.263 11.5391 353.714 0 336.086 0H255.932Z" fill="#6130CA"/>
</svg>
