<svg width="842" height="695" viewBox="0 0 842 695" fill="none" xmlns="http://www.w3.org/2000/svg">
<path d="M724.304 0.0273438H193.63C206.485 34.3245 224.964 67.1232 249.067 97.4245L379.225 261.751C380.23 263.083 380.029 264.914 378.623 266.08L324.993 310.533C323.587 311.698 321.377 311.865 319.771 311.032L121.521 203.146C83.759 182.834 42.7834 167.184 0 156.529V595.399L66.2841 631.361C142.41 672.817 231.793 694.628 322.382 694.628C338.049 694.628 353.917 693.962 369.785 692.63C476.04 683.639 576.27 644.181 651.794 581.414L705.423 536.961C780.947 474.36 828.551 391.281 839.599 303.207C850.445 215.134 824.333 125.728 765.682 51.806L724.304 0.0273438Z" fill="#926FDD"/>
</svg>
