<svg width="1440" height="847" viewBox="0 0 1440 847" fill="none" xmlns="http://www.w3.org/2000/svg">
<path d="M1140.29 0.0273438H471.855C479.47 69.9116 517.828 137.966 583.261 196.868L784.921 378.235C795.356 387.552 793.1 400.032 779.844 408.019L696.642 456.938C683.386 464.758 661.951 466.089 646.156 459.933L338.731 340.963C237.479 301.861 120.15 279.232 0 275.072V667.422L290.502 779.903C403.037 823.497 535.032 846.459 668.72 846.459C692.129 846.459 715.256 845.794 738.666 844.296C895.763 834.812 1043.83 793.214 1155.24 727.323L1238.16 678.404C1349.85 612.513 1420.08 525.158 1436.44 432.644C1452.51 339.965 1413.87 246.12 1327.29 168.249L1140.29 0.0273438Z" fill="#8057D7"/>
</svg>
