<svg width="222" height="785" viewBox="0 0 222 785" fill="none" xmlns="http://www.w3.org/2000/svg">
<path d="M196.647 21.4356C193.163 2.44542 176.611 -11.3457 157.304 -11.3457H94.5525C71.1079 -11.3457 52.6222 8.7365 55.3835 32.018C58.1939 55.7125 61.5837 78.5667 65.5531 100.3L99.8099 288.667C100.074 290.194 100.021 292.293 99.6513 293.629L85.5363 344.585C85.1662 345.921 84.5847 346.112 84.1618 345.158L31.9836 221.488C23.2468 201.021 0 208.361 0 230.615V663.01C0 668.366 1.07557 673.667 3.16293 678.599L17.4456 712.348C37.4816 759.87 61.0067 784.871 84.849 784.871C88.9725 784.871 93.1489 784.107 97.3253 782.58C125.291 772.275 151.671 727.044 171.548 655.094L185.663 604.138C205.541 532.379 218.07 437.146 220.977 336.188C223.832 235.229 216.96 132.744 201.523 48.0079L196.647 21.4356Z" fill="#926FDD"/>
</svg>
