<svg width="1632" height="803" viewBox="0 0 1632 803" fill="none" xmlns="http://www.w3.org/2000/svg">
<path d="M1292.31 0H534.759C543.389 66.2476 586.86 130.76 661.017 186.597L889.56 358.526C901.387 367.359 898.83 379.189 883.806 386.76L789.512 433.133C774.489 440.547 750.197 441.809 732.297 435.972L383.888 323.194C269.137 286.127 136.167 264.675 0 260.732V632.665L329.23 739.292C456.767 780.618 606.358 802.385 757.868 802.385C784.398 802.385 810.609 801.754 837.139 800.334C1015.18 791.344 1182.99 751.911 1309.25 689.449L1403.22 643.075C1529.8 580.613 1609.39 497.804 1627.93 410.104C1646.15 322.247 1602.36 233.286 1504.23 159.468L1292.31 0Z" fill="#FE8467"/>
</svg>
