<svg width="1632" height="1020" viewBox="0 0 1632 1020" fill="none" xmlns="http://www.w3.org/2000/svg">
<path d="M947.533 0C927.443 35.4427 913.958 72.4567 907.903 110.169C890.565 217.021 932.121 325.444 1025.14 415.186L1258.79 641.111C1286.31 667.649 1280.53 703.092 1245.03 725.44L1148.71 786.548C1113.48 808.896 1057.34 812.563 1015.78 795.278L659.668 647.047C518.212 588.209 347.31 561.845 178.884 572.67C117.513 576.686 57.518 585.59 0 599.034V992.744L42.9321 1019.98H134.851L179.434 991.697C214.66 969.349 270.802 965.682 312.358 982.967L401.25 1019.98H1631.97V270.098L1554.36 195.022C1526.84 168.484 1532.62 133.041 1568.12 110.693L1631.97 70.0124V36.1411L1575 0H947.533Z" fill="#FE7848"/>
</svg>
