<svg width="955" height="659" viewBox="0 0 955 659" fill="none" xmlns="http://www.w3.org/2000/svg">
<path d="M820.863 0H219.443C234.012 32.5124 254.955 63.6043 282.271 92.3288L429.781 248.104C430.919 249.367 430.691 251.103 429.098 252.208L368.318 294.347C366.725 295.452 364.221 295.61 362.4 294.821L137.721 192.549C94.9251 173.294 48.4869 158.458 0 148.357V564.389L75.1206 598.48C161.395 637.779 262.694 658.454 365.359 658.454C383.115 658.454 401.098 657.823 419.082 656.56C539.502 648.038 653.094 610.633 738.686 551.132L799.465 508.992C885.057 449.649 939.007 370.894 951.527 287.403C963.82 203.913 934.227 119.159 867.756 49.0842L820.863 0Z" fill="#FF9086"/>
</svg>
