<svg  class="main-svg-sprite main-svg-sprite--colored" xmlns="http://www.w3.org/2000/svg" xmlns:xlink="http://www.w3.org/1999/xlink"><symbol fill="none" viewBox="0 0 64 64" id="close-round" xmlns="http://www.w3.org/2000/svg"><path d="M25.058 23.353a1.206 1.206 0 10-1.705 1.705l6.735 6.735-6.735 6.735a1.205 1.205 0 101.705 1.705l6.735-6.735 6.735 6.735a1.205 1.205 0 101.705-1.705l-6.735-6.735 6.735-6.735a1.206 1.206 0 00-1.705-1.705l-6.735 6.735-6.735-6.735z" fill="#4E5257"/><rect x=".39" y="63.61" width="63.219" height="63.219" rx="31.61" transform="rotate(-90 .39 63.61)" stroke="#666" stroke-opacity=".5" stroke-width=".78"/></symbol><symbol viewBox="0 0 24 24" id="close2" xmlns="http://www.w3.org/2000/svg"><path d="M18.75 5.25l-13.5 13.5M18.75 18.75L5.25 5.25"/></symbol><symbol fill="none" viewBox="0 0 24 24" id="paperclip" xmlns="http://www.w3.org/2000/svg"><path d="M19.655 11.47a.75.75 0 010 1.06l-7.692 7.688a5.25 5.25 0 01-7.425-7.425l9.306-9.443a3.751 3.751 0 015.307 5.302l-9.308 9.442a2.254 2.254 0 11-3.187-3.188l7.81-7.933a.75.75 0 111.068 1.052l-7.81 7.942a.749.749 0 101.056 1.065l9.307-9.438a2.252 2.252 0 00-3.181-3.187l-9.304 9.438a3.75 3.75 0 005.3 5.308l7.693-7.687a.75.75 0 011.06.004z" fill="#FF9086"/></symbol></svg>