<svg  class="main-svg-sprite main-svg-sprite--icons" xmlns="http://www.w3.org/2000/svg" xmlns:xlink="http://www.w3.org/1999/xlink"><symbol viewBox="0 0 11.5 6.5" id="arr-d" xmlns="http://www.w3.org/2000/svg"><g data-name="Layer 2"><path d="M5.75 6.5a.74.74 0 01-.53-.22l-5-5A.75.75 0 011.28.22l4.47 4.47L10.22.22a.75.75 0 011.06 1.06l-5 5a.74.74 0 01-.53.22z" data-name="Layer 1"/></g></symbol><symbol viewBox="0 0 9 9" id="arr-rt" xmlns="http://www.w3.org/2000/svg"><g data-name="Layer 2"><g data-name="Layer 1"><path d="M.5 9a.47.47 0 01-.35-.15.48.48 0 010-.7l8-8a.48.48 0 01.7 0 .48.48 0 010 .7l-8 8A.47.47 0 01.5 9z"/><path d="M8.5 7.5A.5.5 0 018 7V1H2a.5.5 0 01-.5-.5A.5.5 0 012 0h6.5a.5.5 0 01.5.5V7a.5.5 0 01-.5.5z"/></g></g></symbol><symbol viewBox="0 0 24 24" id="close" xmlns="http://www.w3.org/2000/svg"><path d="M18.75 5.25l-13.5 13.5M18.75 18.75L5.25 5.25" stroke="#000" stroke-width="2" stroke-linecap="round" stroke-linejoin="round"/></symbol><symbol viewBox="0 0 24 24" id="menu" xmlns="http://www.w3.org/2000/svg"><path d="M10 12h10M3.75 6h16.5M3.75 18h16.5" stroke="#000" stroke-width="1.6" stroke-linecap="round" stroke-linejoin="round"/></symbol><symbol viewBox="0 0 19 21" id="play" xmlns="http://www.w3.org/2000/svg"><path d="M17.83 9.172L2.3.206A1.534 1.534 0 000 1.534v17.933a1.533 1.533 0 002.3 1.328l15.53-8.967a1.533 1.533 0 000-2.656z"/></symbol><symbol viewBox="0 0 21 20" id="search" xmlns="http://www.w3.org/2000/svg"><path d="M20.03 18.47l-4.694-4.693a8.26 8.26 0 10-1.06 1.06l4.693 4.695a.75.75 0 101.06-1.061zM2.25 8.502A6.75 6.75 0 119 15.251a6.758 6.758 0 01-6.75-6.75z"/></symbol></svg>