<svg width="360" height="1448" viewBox="0 0 360 1448" fill="none" xmlns="http://www.w3.org/2000/svg">
<path d="M309.337 0.205078H82.6958C88.186 71.6634 96.0782 140 106.372 203.133L161.96 545.508C162.389 548.283 162.303 552.099 161.703 554.527L138.799 647.145C138.198 649.573 137.255 649.92 136.568 648.186L51.8994 423.405C35.772 381.085 18.272 348.477 0 326.277V1240.67L28.3087 1315.59C60.8209 1401.97 98.9948 1447.41 137.683 1447.41C144.375 1447.41 151.152 1446.02 157.928 1443.25C203.308 1424.51 246.115 1342.3 278.369 1211.53L301.274 1118.91C333.528 988.48 353.859 815.384 358.577 631.882C363.21 448.38 352.058 262.103 327.009 108.086L309.337 0.205078Z" fill="#926FDD"/>
</svg>
