<svg width="1042" height="758" viewBox="0 0 1042 758" fill="none" xmlns="http://www.w3.org/2000/svg">
<path d="M895.821 0.0390625H239.482C255.381 37.4325 278.236 73.1922 308.047 106.229L469.027 285.391C470.269 286.843 470.02 288.84 468.281 290.11L401.952 338.576C400.213 339.847 397.48 340.029 395.493 339.121L150.297 221.495C103.593 199.35 52.9145 182.287 0 170.669V649.159L81.9803 688.368C176.133 733.567 286.683 757.346 398.722 757.346C418.099 757.346 437.725 756.62 457.351 755.168C588.767 745.366 712.732 702.345 806.139 633.912L872.469 585.445C965.877 517.193 1024.75 426.614 1038.42 330.589C1051.83 234.565 1019.54 137.088 946.996 56.4922L895.821 0.0390625Z" fill="#926FDD"/>
</svg>
