<svg width="615" height="2242" viewBox="0 0 615 2242" fill="none" xmlns="http://www.w3.org/2000/svg">
<path d="M499.777 199.16C492.724 159.251 494.176 105.912 503.303 72.1427L522.8 0H259.585C258.963 14.1983 258.548 28.7803 258.133 42.9786C251.911 267.465 266.845 494.638 300.343 683.053L381.444 1140.47C388.496 1180.38 387.044 1233.72 377.918 1267.49L344.523 1391.05C335.397 1424.82 320.981 1430.19 310.195 1404.1L186.574 1104.01C135.652 980.45 74.1524 924.808 13.586 947.832C9.02274 949.751 4.45951 951.669 0 954.356V1934.04L21.4679 1854.6C30.5943 1820.84 45.01 1815.46 55.7958 1841.56L179.314 2142.41C196.011 2183.08 213.849 2216.09 232.413 2241.8H417.846C453.418 2192.68 486.087 2115.93 513.155 2015.77L546.55 1892.21C579.322 1770.95 602.76 1620.14 614.998 1456.28V937.087C607.738 838.083 596.227 743.3 580.878 656.575L499.777 199.16Z" fill="#6F41D2"/>
</svg>
