<svg width="1781" height="1174" viewBox="0 0 1781 1174" fill="none" xmlns="http://www.w3.org/2000/svg">
<path d="M1447.32 104.218C1426.9 83.3345 1431.1 55.4225 1457.53 37.7515L1514 0H751.742C749.94 7.42983 748.739 15.0605 747.537 22.4903C729.517 139.962 772.765 258.839 869.774 357.435L1104.64 596.796C1125.06 617.68 1120.86 645.592 1094.43 663.263L997.717 727.922C971.288 745.593 929.541 748.404 898.306 734.749L540.305 577.719C392.84 513.06 214.741 483.943 39.3441 495.991C26.1293 496.995 12.9145 497.999 0 499.405V1012.06L62.1696 970.496C88.5992 952.825 130.346 950.014 161.581 963.668L519.282 1121.1C567.636 1142.39 619.294 1159.66 673.054 1173.11H1210.06C1313.07 1147.41 1407.68 1107.24 1486.06 1054.83L1582.77 990.175C1677.68 926.72 1745.55 847.803 1780.99 762.059V490.368C1759.97 438.561 1726.63 388.961 1682.18 343.579L1447.32 104.218Z" fill="#6F41D2"/>
</svg>
