<svg width="1781" height="923" viewBox="0 0 1781 923" fill="none" xmlns="http://www.w3.org/2000/svg">
<path d="M1410.32 0H583.591C593.009 76.1933 640.45 150.391 721.378 214.611L970.791 412.351C983.698 422.51 980.907 436.116 964.512 444.824L861.608 498.159C845.213 506.685 818.702 508.137 799.167 501.424L418.944 371.714C293.714 329.082 148.601 304.41 0 299.875V727.646L359.294 850.281C498.477 897.811 661.729 922.846 827.074 922.846C856.026 922.846 884.63 922.12 913.583 920.488C1107.88 910.147 1291.02 864.794 1428.8 792.955L1531.36 739.619C1669.5 667.78 1756.35 572.538 1776.59 471.673C1796.47 370.626 1748.68 268.309 1641.59 183.408L1410.32 0Z" fill="#8057D7"/>
</svg>
