<svg width="615" height="1764" viewBox="0 0 615 1764" fill="none" xmlns="http://www.w3.org/2000/svg">
<path d="M486.998 0H201.521C204.773 145.604 221.155 287.395 249.1 410.119L335.225 787.997C339.682 807.411 338.719 833.411 333.057 850.052L297.523 951.975C291.862 968.269 282.707 971.042 275.962 958.215L144.666 710.341C101.423 628.872 51.3137 581.724 0 573.057V1390.52L124.068 1624.87C172.13 1715.7 228.503 1763.55 285.598 1763.55C295.596 1763.55 305.473 1762.16 315.471 1759.04C382.564 1739.28 445.803 1652.61 493.382 1515.33L528.796 1413.4C576.496 1276.12 606.489 1094.11 613.476 901.36C620.342 708.261 603.839 512.735 566.86 350.49L486.998 0Z" fill="#8057D7"/>
</svg>
