<svg width="120" height="35" fill="none" xmlns="http://www.w3.org/2000/svg"><mask id="b" style="mask-type:alpha" maskUnits="userSpaceOnUse" x="0" y="0" width="120" height="35"><rect y=".672" width="119.344" height="33.967" rx="6.426" fill="url(#a)"/></mask><g mask="url(#b)"><rect y="-2.082" width="119.344" height="37.639" rx="6.426" fill="url(#c)"/><g filter="url(#d)"><ellipse cx="7.344" cy="-12.639" rx="20.197" ry="40.852" transform="rotate(45.806 7.344 -12.64)" fill="#E07A52"/></g><g filter="url(#e)"><path d="M122.407 47.743C106.23 63.471 86.813 69.738 79.037 61.74c-7.775-7.997-.965-27.23 15.212-42.958 16.177-15.728 35.594-21.995 43.369-13.998 7.776 7.998.965 27.231-15.211 42.959Z" fill="#2694FA"/></g></g><defs><linearGradient id="a" x1="19.174" y1="-3.102" x2="26.831" y2="48.222" gradientUnits="userSpaceOnUse"><stop stop-color="#BE19B8"/><stop offset="1" stop-color="#0F0BB7"/></linearGradient><linearGradient id="c" x1="19.174" y1="-6.264" x2="28.529" y2="50.328" gradientUnits="userSpaceOnUse"><stop stop-color="#BE19B8"/><stop offset="1" stop-color="#0F0BB7"/></linearGradient><filter id="d" x="-47.194" y="-66.627" width="109.077" height="107.975" filterUnits="userSpaceOnUse" color-interpolation-filters="sRGB"><feFlood flood-opacity="0" result="BackgroundImageFix"/><feBlend in="SourceGraphic" in2="BackgroundImageFix" result="shape"/><feGaussianBlur stdDeviation="11.016" result="effect1_foregroundBlur_25_80"/></filter><filter id="e" x="26.248" y="-48.266" width="164.159" height="163.057" filterUnits="userSpaceOnUse" color-interpolation-filters="sRGB"><feFlood flood-opacity="0" result="BackgroundImageFix"/><feBlend in="SourceGraphic" in2="BackgroundImageFix" result="shape"/><feGaussianBlur stdDeviation="24.787" result="effect1_foregroundBlur_25_80"/></filter></defs></svg>