<svg width="1500" height="630" fill="none" xmlns="http://www.w3.org/2000/svg"><mask id="a" style="mask-type:alpha" maskUnits="userSpaceOnUse" x="0" y="0" width="1500" height="630"><path opacity=".9" d="M0 30C0 13.431 13.431 0 30 0h1440c16.57 0 30 13.431 30 30v600H0V30Z" fill="#8B83BB"/></mask><g mask="url(#a)"><rect opacity=".9" x="-80" y="-40" width="1952" height="790" rx="30" fill="#7C71BD"/><g filter="url(#b)"><ellipse cx="1390.27" cy="1239.83" rx="313" ry="1281.08" transform="rotate(-31.502 1390.27 1239.83)" fill="#E07A52"/></g><g filter="url(#c)"><ellipse cx="158.5" cy="1215" rx="807.5" ry="1295" fill="url(#d)"/></g><g filter="url(#e)"><ellipse cx="436.273" cy="1064.83" rx="313" ry="1281.08" transform="rotate(-31.502 436.273 1064.83)" fill="#4210B7"/></g><g filter="url(#f)"><ellipse cx="1526.29" cy="1507.21" rx="602.71" ry="1281.08" transform="rotate(-31.502 1526.29 1507.21)" fill="#E07A52" fill-opacity=".6"/></g></g><defs><filter id="b" x="275.443" y="-258.776" width="2229.66" height="2997.22" filterUnits="userSpaceOnUse" color-interpolation-filters="sRGB"><feFlood flood-opacity="0" result="BackgroundImageFix"/><feBlend in="SourceGraphic" in2="BackgroundImageFix" result="shape"/><feGaussianBlur stdDeviation="197" result="effect1_foregroundBlur_25_29"/></filter><filter id="c" x="-1043" y="-474" width="2403" height="3378" filterUnits="userSpaceOnUse" color-interpolation-filters="sRGB"><feFlood flood-opacity="0" result="BackgroundImageFix"/><feBlend in="SourceGraphic" in2="BackgroundImageFix" result="shape"/><feGaussianBlur stdDeviation="197" result="effect1_foregroundBlur_25_29"/></filter><filter id="e" x="-678.557" y="-433.776" width="2229.66" height="2997.22" filterUnits="userSpaceOnUse" color-interpolation-filters="sRGB"><feFlood flood-opacity="0" result="BackgroundImageFix"/><feBlend in="SourceGraphic" in2="BackgroundImageFix" result="shape"/><feGaussianBlur stdDeviation="197" result="effect1_foregroundBlur_25_29"/></filter><filter id="f" x="58.338" y="-253.857" width="2935.9" height="3522.14" filterUnits="userSpaceOnUse" color-interpolation-filters="sRGB"><feFlood flood-opacity="0" result="BackgroundImageFix"/><feBlend in="SourceGraphic" in2="BackgroundImageFix" result="shape"/><feGaussianBlur stdDeviation="312" result="effect1_foregroundBlur_25_29"/></filter><linearGradient id="d" x1="-389.533" y1="-367.778" x2="1580.98" y2="1976.37" gradientUnits="userSpaceOnUse"><stop stop-color="#BE19B8"/><stop offset="1" stop-color="#0F0BB7"/></linearGradient></defs></svg>