<svg  class="main-svg-sprite main-svg-sprite--icons" xmlns="http://www.w3.org/2000/svg" xmlns:xlink="http://www.w3.org/1999/xlink"><symbol id="arr-l" viewBox="0 0 17 17" xml:space="preserve" xmlns="http://www.w3.org/2000/svg"><path d="M8.5 16.5c-.3 0-.6-.1-.8-.3L.1 8.5 7.8.8C8.2.4 8.9.4 9.4.8c.4.4.4 1.1 0 1.6L4.5 7.3h11.3c.6 0 1.1.5 1.1 1.1s-.5 1.1-1.1 1.1H4.2l5.2 5.2c.4.4.4 1.1 0 1.6-.3.1-.6.2-.9.2z"/></symbol><symbol id="arr-r" viewBox="0 0 17 17" xml:space="preserve" xmlns="http://www.w3.org/2000/svg"><path d="M8.5 16.5c-.3 0-.6-.1-.8-.3-.4-.4-.4-1.1 0-1.6l5.2-5.2H1.2C.6 9.5.1 9 .1 8.4s.5-1.1 1.1-1.1h11.3L7.7 2.4c-.4-.4-.4-1.1 0-1.5S8.8.5 9.3.9L17 8.6l-7.7 7.7c-.3.1-.5.2-.8.2z"/></symbol><symbol id="arr-r2" viewBox="0 0 7 12" xml:space="preserve" xmlns="http://www.w3.org/2000/svg"><path d="M1 12c-.3 0-.5-.1-.7-.3-.4-.4-.4-1 0-1.4L4.6 6 .3 1.7C-.1 1.3-.1.7.3.3s1-.4 1.4 0l5 5c.4.4.4 1 0 1.4l-5 5c-.2.2-.4.3-.7.3z"/></symbol><symbol id="arr-r3" viewBox="0 0 28 17" xml:space="preserve" xmlns="http://www.w3.org/2000/svg"><path d="M19.7 16.6c-.3 0-.5-.1-.7-.3-.4-.4-.4-1 0-1.4l5.3-5.3H1.6c-.6 0-1-.4-1-1s.4-1 1-1h22.7L19 2.4c-.4-.4-.4-1 0-1.4s1-.4 1.4 0l7 7 .2.2s0 .1.1.1c0 .1.1.2.1.4 0 .1 0 .2-.1.4 0 .1-.1.2-.2.3l-7 7c-.3.1-.5.2-.8.2z"/></symbol><symbol viewBox="0 0 24 23" id="arr-r4svg" xmlns="http://www.w3.org/2000/svg"><path d="M11.908 21.757L22.287 11.38 11.908 1m7.97 10.154H1" stroke="#1C0DB8" stroke-width="2" stroke-linecap="round"/></symbol><symbol viewBox="0 0 14 14" id="close" xmlns="http://www.w3.org/2000/svg"><path d="M13.461 10.985L9.477 7l3.984-3.985c.324-.323.539-.753.539-1.292 0-.43-.215-.861-.539-1.185C13.14.215 12.708 0 12.277 0c-.43 0-.862.215-1.292.538L7 4.523 3.015.538A1.783 1.783 0 001.723 0C1.185 0 .862.215.538.538.215.862 0 1.292 0 1.723c0 .43.215.97.538 1.292L4.523 7 .538 10.985A1.784 1.784 0 000 12.277c0 .43.215.862.538 1.184.324.324.754.539 1.185.539.43 0 .862-.215 1.292-.539L7 9.477l3.985 3.984c.323.324.754.539 1.292.539.43 0 .862-.215 1.184-.539.324-.322.539-.753.539-1.184 0-.538-.215-.97-.539-1.292z"/></symbol><symbol viewBox="0 0 18 18" id="close-form" xmlns="http://www.w3.org/2000/svg"><path clip-rule="evenodd" d="M17.707 1.707A1 1 0 0016.293.293L9 7.586 1.707.293A1 1 0 00.293 1.707L7.586 9 .293 16.293a1 1 0 101.414 1.414L9 10.414l7.293 7.293a1 1 0 001.414-1.414L10.414 9l7.293-7.293z"/></symbol><symbol viewBox="0 0 16 13" id="menu" xmlns="http://www.w3.org/2000/svg"><rect width="16" height="3" rx="1.5"/><rect y="5" width="16" height="3" rx="1.5"/><rect y="10" width="16" height="3" rx="1.5"/></symbol><symbol viewBox="0 0 14 14" id="phone" xmlns="http://www.w3.org/2000/svg"><path d="M12.883 9.523c-1.955-1.586-2.793-1.027-3.724 0l-.186.186s-.559.28-2.7-1.959-1.862-2.798-1.862-2.798l.186-.187c.931-.933 1.49-1.772 0-3.731C3.946.381 3.387.008 2.828.008 1.898-.085 1.246.661.78 1.221l-.279.186C-.15 2.06-.15 3.366.408 4.952c.652 1.679 1.862 3.451 3.445 5.13C6.553 12.694 9.345 14 11.114 14c.652 0 1.117-.187 1.396-.466l.28-.28c.558-.467 1.21-1.12 1.21-2.052 0-.56-.372-1.12-1.117-1.68z"/></symbol><symbol viewBox="0 0 21.42 21.42" id="search" xmlns="http://www.w3.org/2000/svg"><g data-name="Layer 2"><path d="M13.43 15.43a8.49 8.49 0 112-2L21 19a1.39 1.39 0 010 2 1.39 1.39 0 01-2 0l-5.58-5.58zM8.5 15A6.5 6.5 0 102 8.5 6.5 6.5 0 008.5 15z" data-name="Layer 1"/></g></symbol><symbol viewBox="0 0 16 16" id="zoom-icon" xmlns="http://www.w3.org/2000/svg"><path d="M11.543 0a.962.962 0 00-.693 1.63l.761.789L8.94 5.09a.962.962 0 101.36 1.36l2.648-2.647.789.818a.962.962 0 001.654-.668V.962A.962.962 0 0014.428 0h-2.885zM3.42 15.39a.962.962 0 00.68-1.642l-.549-.549 2.9-2.9a.962.962 0 00-1.36-1.36l-2.9 2.9-.549-.55A.962.962 0 000 11.97v2.458c0 .531.43.962.962.962H3.42z"/></symbol></svg>