<svg width="18" height="55" viewBox="0 0 18 55" fill="none" xmlns="http://www.w3.org/2000/svg">
<path d="M3.1688 47.5069L3.91974 46.8465L3.90871 46.8339L3.89726 46.8218L3.1688 47.5069ZM3.1688 45.8317L3.86679 46.5478L3.87553 46.5392L3.88405 46.5305L3.1688 45.8317ZM3.98721 44.9941L4.70246 45.6929L5.38532 44.9941L4.70247 44.2952L3.98721 44.9941ZM3.1688 44.1565L2.44033 44.8415L2.44687 44.8485L2.45355 44.8553L3.1688 44.1565ZM3.1688 42.4812L3.86679 43.1974L3.87553 43.1888L3.88405 43.1801L3.1688 42.4812ZM3.98721 41.6436L4.70246 42.3425L5.38532 41.6436L4.70246 40.9448L3.98721 41.6436ZM3.1688 40.806L2.44033 41.4911L2.44687 41.4981L2.45355 41.5049L3.1688 40.806ZM3.1688 39.1308L3.86679 39.8469L3.87553 39.8384L3.88405 39.8297L3.1688 39.1308ZM3.98721 38.2932V37.2932H3.5662L3.27196 37.5944L3.98721 38.2932ZM14.0946 38.2932L14.8099 37.5944L14.5156 37.2932H14.0946V38.2932ZM14.913 39.1308L15.6415 38.4458L15.635 38.4388L15.6283 38.432L14.913 39.1308ZM14.913 40.806L14.215 40.0899L14.2063 40.0985L14.1978 40.1072L14.913 40.806ZM14.0946 41.6436L13.3794 40.9448L12.6965 41.6436L13.3794 42.3425L14.0946 41.6436ZM14.913 42.4812L15.6415 41.7962L15.635 41.7892L15.6283 41.7824L14.913 42.4812ZM14.913 44.1565L14.215 43.4403L14.2063 43.4489L14.1978 43.4576L14.913 44.1565ZM14.0946 44.9941L13.3794 44.2952L12.6965 44.9941L13.3794 45.6929L14.0946 44.9941ZM14.913 45.8317L15.6415 45.1466L15.635 45.1396L15.6283 45.1328L14.913 45.8317ZM14.913 47.5069L15.611 48.223L14.913 47.5069ZM5.13299 48.3445V47.3445V48.3445ZM1 30.3958V29.3958H0V30.3958H1ZM17 30.3958H18V29.3958H17V30.3958ZM17 38.3331V39.3331H18V38.3331H17ZM1 38.3331H0V39.3331H1V38.3331ZM6.9335 13.4016C6.38122 13.4016 5.9335 13.8493 5.9335 14.4016C5.9335 14.9539 6.38122 15.4016 6.9335 15.4016V13.4016ZM13.399 15.4016C13.9513 15.4016 14.399 14.9539 14.399 14.4016C14.399 13.8493 13.9513 13.4016 13.399 13.4016V15.4016ZM13.399 11.8917C13.9513 11.8917 14.399 11.444 14.399 10.8917C14.399 10.3394 13.9513 9.89168 13.399 9.89168V11.8917ZM11.5166 9.89168C10.9643 9.89168 10.5166 10.3394 10.5166 10.8917C10.5166 11.444 10.9643 11.8917 11.5166 11.8917V9.89168ZM4.47826 10.8917V11.8917H5.47826V10.8917H4.47826ZM4.47826 14.4016H5.47826V13.4016H4.47826V14.4016ZM4.47826 30.4357H3.47826V31.4357H4.47826V30.4357ZM13.4808 30.4357V31.4357H14.4808V30.4357H13.4808ZM13.4808 14.4016H14.4808V13.4016H13.4808V14.4016ZM7.711 4.19087H6.711V5.19087H7.711V4.19087ZM10.3299 4.19087V5.19087H11.3299V4.19087H10.3299ZM10.3299 2.27635H11.3299H10.3299ZM6.81074 50.7775H5.81074V51.7775H6.81074V50.7775ZM11.1893 50.7775V51.7775H12.1893V50.7775H11.1893ZM3.89726 46.8218C3.8541 46.7759 3.8312 46.715 3.8312 46.6543C3.8312 46.594 3.8526 46.5616 3.86679 46.5478L2.4708 45.1156C1.6014 45.963 1.64476 47.346 2.44033 48.1919L3.89726 46.8218ZM3.88405 46.5305L4.70246 45.6929L3.27196 44.2952L2.45355 45.1328L3.88405 46.5305ZM4.70247 44.2952L3.88405 43.4576L2.45355 44.8553L3.27196 45.6929L4.70247 44.2952ZM3.89726 43.4714C3.8541 43.4255 3.8312 43.3646 3.8312 43.3039C3.8312 43.2436 3.8526 43.2112 3.86679 43.1974L2.4708 41.7651C1.6014 42.6126 1.64476 43.9956 2.44033 44.8415L3.89726 43.4714ZM3.88405 43.1801L4.70246 42.3425L3.27196 40.9448L2.45355 41.7824L3.88405 43.1801ZM4.70246 40.9448L3.88405 40.1072L2.45355 41.5049L3.27196 42.3425L4.70246 40.9448ZM3.89726 40.121C3.85411 40.0751 3.8312 40.0142 3.8312 39.9535C3.8312 39.8931 3.8526 39.8608 3.86679 39.8469L2.4708 38.4147C1.6014 39.2622 1.64476 40.6452 2.44033 41.4911L3.89726 40.121ZM3.88405 39.8297L4.70246 38.9921L3.27196 37.5944L2.45355 38.432L3.88405 39.8297ZM3.98721 39.2932H14.0946V37.2932H3.98721V39.2932ZM13.3794 38.9921L14.1978 39.8297L15.6283 38.432L14.8099 37.5944L13.3794 38.9921ZM14.1846 39.8159C14.2277 39.8618 14.2506 39.9227 14.2506 39.9834C14.2506 40.0437 14.2292 40.0761 14.215 40.0899L15.611 41.5221C16.4804 40.6747 16.4371 39.2917 15.6415 38.4458L14.1846 39.8159ZM14.1978 40.1072L13.3794 40.9448L14.8099 42.3425L15.6283 41.5049L14.1978 40.1072ZM13.3794 42.3425L14.1978 43.1801L15.6283 41.7824L14.8099 40.9448L13.3794 42.3425ZM14.1846 43.1663C14.2277 43.2122 14.2506 43.2731 14.2506 43.3338C14.2506 43.3941 14.2292 43.4265 14.215 43.4403L15.611 44.8726C16.4804 44.0251 16.4371 42.6421 15.6415 41.7962L14.1846 43.1663ZM14.1978 43.4576L13.3794 44.2952L14.8099 45.6929L15.6283 44.8553L14.1978 43.4576ZM13.3794 45.6929L14.1978 46.5305L15.6283 45.1328L14.8099 44.2952L13.3794 45.6929ZM14.1846 46.5167C14.2277 46.5626 14.2506 46.6236 14.2506 46.6842C14.2506 46.7446 14.2292 46.7769 14.215 46.7908L15.611 48.223C16.4804 47.3755 16.4371 45.9925 15.6415 45.1466L14.1846 46.5167ZM14.215 46.7908C13.8445 47.152 13.3912 47.3445 12.9488 47.3445V49.3445C13.9796 49.3445 14.9177 48.8988 15.611 48.223L14.215 46.7908ZM12.9488 47.3445H5.13299V49.3445H12.9488V47.3445ZM5.13299 47.3445C4.63443 47.3445 4.19053 47.1544 3.91974 46.8465L2.41785 48.1672C3.12916 48.9761 4.15841 49.3445 5.13299 49.3445V47.3445ZM1 31.3958H17V29.3958H1V31.3958ZM16 30.3958V38.3331H18V30.3958H16ZM17 37.3331H1V39.3331H17V37.3331ZM2 38.3331V30.3958H0V38.3331H2ZM6.9335 15.4016H13.399V13.4016H6.9335V15.4016ZM13.399 9.89168H11.5166V11.8917H13.399V9.89168ZM14.5217 10.772V6.9031H12.5217V10.772H14.5217ZM14.5217 6.9031C14.5217 5.00858 13.2098 3.19087 11.2711 3.19087V5.19087C11.7877 5.19087 12.5217 5.76629 12.5217 6.9031H14.5217ZM11.2711 3.19087H6.7289V5.19087H11.2711V3.19087ZM6.7289 3.19087C4.7817 3.19087 3.47826 5.0587 3.47826 6.9031H5.47826C5.47826 5.79595 6.22086 5.19087 6.7289 5.19087V3.19087ZM3.47826 6.9031V10.8917H5.47826V6.9031H3.47826ZM4.47826 9.89168C3.78719 9.89168 3.2203 10.3011 2.86871 10.7407C2.49754 11.2047 2.25064 11.8319 2.25064 12.527H4.25064C4.25064 12.3047 4.3311 12.1143 4.43053 11.99C4.47968 11.9285 4.52245 11.8971 4.54334 11.885C4.56552 11.8723 4.5435 11.8917 4.47826 11.8917V9.89168ZM2.25064 12.527V12.7663H4.25064V12.527H2.25064ZM2.25064 12.7663C2.25064 13.4484 2.50199 14.0715 2.86362 14.5313C3.20267 14.9623 3.76892 15.4016 4.47826 15.4016V13.4016C4.55488 13.4016 4.58203 13.4256 4.55743 13.4109C4.53466 13.3973 4.48851 13.3621 4.43561 13.2948C4.32665 13.1563 4.25064 12.9617 4.25064 12.7663H2.25064ZM3.47826 14.4016V30.4357H5.47826V14.4016H3.47826ZM4.47826 31.4357H13.4808V29.4357H4.47826V31.4357ZM14.4808 30.4357V14.4016H12.4808V30.4357H14.4808ZM13.4808 13.4016H13.3581V15.4016H13.4808V13.4016ZM13.3581 15.4016C14.8085 15.4016 15.7084 14.0591 15.7084 12.7663H13.7084C13.7084 13.0045 13.6286 13.1831 13.5417 13.2872C13.4557 13.3903 13.3852 13.4016 13.3581 13.4016V15.4016ZM15.7084 12.7663V12.527H13.7084V12.7663H15.7084ZM15.7084 12.527C15.7084 11.291 14.8226 9.89168 13.3581 9.89168V11.8917C13.3671 11.8917 13.4394 11.8964 13.5365 12.0147C13.6331 12.1324 13.7084 12.3162 13.7084 12.527H15.7084ZM9.02046 0C7.75591 0 6.711 0.982123 6.711 2.27635H8.711C8.711 2.1915 8.74209 2.12932 8.78751 2.08505C8.83377 2.03995 8.90975 2 9.02046 2V0ZM6.711 2.27635V4.19087H8.711V2.27635H6.711ZM7.711 5.19087H10.3299V3.19087H7.711V5.19087ZM11.3299 4.19087V2.27635H9.32992V4.19087H11.3299ZM11.3299 2.27635C11.3299 0.962234 10.2235 0 9.02046 0V2C9.10064 2 9.1836 2.03316 9.2458 2.09251C9.30469 2.14868 9.32992 2.21249 9.32992 2.27635H11.3299ZM5.81074 48.3445V50.7775H7.81074V48.3445H5.81074ZM6.81074 51.7775H11.1893V49.7775H6.81074V51.7775ZM12.1893 50.7775V48.3445H10.1893V50.7775H12.1893ZM1.80051 46.7091V50.6977H3.80051V46.7091H1.80051ZM1.80051 50.6977C1.80051 52.67 3.41831 54.2105 5.37852 54.2105V52.2105C4.47427 52.2105 3.80051 51.5175 3.80051 50.6977H1.80051ZM5.37852 54.2105H9.02046V52.2105H5.37852V54.2105Z" fill="url(#paint0_linear_130_36)"/>
<defs>
<linearGradient id="paint0_linear_130_36" x1="-32.76" y1="-70.5644" x2="-0.511364" y2="-77.3875" gradientUnits="userSpaceOnUse">
<stop stop-color="#B8D217"/>
<stop offset="1" stop-color="#09BA8F"/>
</linearGradient>
</defs>
</svg>
