<svg width="51" height="35" viewBox="0 0 51 35" fill="none" xmlns="http://www.w3.org/2000/svg">
<path d="M23.0161 15.4737C22.4638 15.4737 22.0161 15.9214 22.0161 16.4737C22.0161 17.026 22.4638 17.4737 23.0161 17.4737V15.4737ZM26.4785 16.4737V17.4737H27.4785V16.4737H26.4785ZM25.4247 14.6334L25.6087 13.6504L25.5828 13.6456L25.5566 13.6421L25.4247 14.6334ZM23.2986 13.3416C22.7511 13.2688 22.2482 13.6536 22.1754 14.201C22.1026 14.7485 22.4873 15.2513 23.0348 15.3242L23.2986 13.3416ZM41.1559 13.3189L40.8262 12.3748L40.1559 12.6089V13.3189H41.1559ZM42.6613 12.7931L42.4192 11.8228L42.3748 11.8339L42.3315 11.849L42.6613 12.7931ZM39.6882 10.2391L38.8119 10.721L38.8276 10.7494L38.845 10.7768L39.6882 10.2391ZM37.9946 7.15943L38.8709 6.67755L38.8658 6.66841L37.9946 7.15943ZM24.5591 7.15943L23.6879 6.66838L23.6829 6.67757L24.5591 7.15943ZM22.8656 10.2391L21.9893 9.75729L21.9881 9.75954L22.8656 10.2391ZM19.8925 12.7931L19.446 13.6878L19.5028 13.7162L19.5627 13.7371L19.8925 12.7931ZM21.3979 13.3189H22.3979V12.6089L21.7276 12.3748L21.3979 13.3189ZM25.1613 19.2154V18.2154H24.1613V19.2154H25.1613ZM37.3925 19.2154H38.3925V18.2154H37.3925V19.2154ZM24.5215 9.95273C23.9692 9.95273 23.5215 10.4005 23.5215 10.9527C23.5215 11.505 23.9692 11.9527 24.5215 11.9527V9.95273ZM37.9946 11.9527C38.5469 11.9527 38.9946 11.505 38.9946 10.9527C38.9946 10.4005 38.5469 9.95273 37.9946 9.95273V11.9527ZM39.5328 15.3222C40.0792 15.2418 40.4569 14.7336 40.3764 14.1872C40.296 13.6408 39.7878 13.2631 39.2414 13.3436L39.5328 15.3222ZM37.0914 14.6709L37.2152 15.6632L37.2261 15.6619L37.2371 15.6603L37.0914 14.6709ZM36.0376 16.5112H35.0376V17.5112H36.0376V16.5112ZM39.5 17.5112C40.0523 17.5112 40.5 17.0635 40.5 16.5112C40.5 15.959 40.0523 15.5112 39.5 15.5112V17.5112ZM28.7366 16.5488L27.7427 16.6595L27.8417 17.5488H28.7366V16.5488ZM33.8172 16.5488V17.5488H34.712L34.8111 16.6595L33.8172 16.5488ZM34.043 14.5207L35.0369 14.6314L35.1605 13.5207H34.043V14.5207ZM28.5108 14.5207V13.5207H27.3932L27.5169 14.6314L28.5108 14.5207ZM23.6183 18.2529C23.066 18.2529 22.6183 18.7007 22.6183 19.2529C22.6183 19.8052 23.066 20.2529 23.6183 20.2529V18.2529ZM39.3495 20.2529C39.9017 20.2529 40.3495 19.8052 40.3495 19.2529C40.3495 18.7007 39.9017 18.2529 39.3495 18.2529V20.2529ZM23.1667 18.2529C22.6144 18.2529 22.1667 18.7007 22.1667 19.2529C22.1667 19.8052 22.6144 20.2529 23.1667 20.2529V18.2529ZM8.18817 14.7225C7.63589 14.7225 7.18817 15.1703 7.18817 15.7225C7.18817 16.2748 7.63589 16.7225 8.18817 16.7225V14.7225ZM14.7366 16.7225C15.2888 16.7225 15.7366 16.2748 15.7366 15.7225C15.7366 15.1703 15.2888 14.7225 14.7366 14.7225V16.7225ZM8.18817 17.5018C7.63589 17.5018 7.18817 17.9495 7.18817 18.5018C7.18817 19.0541 7.63589 19.5018 8.18817 19.5018V17.5018ZM14.7366 19.5018C15.2888 19.5018 15.7366 19.0541 15.7366 18.5018C15.7366 17.9495 15.2888 17.5018 14.7366 17.5018V19.5018ZM8.18817 20.281C7.63589 20.281 7.18817 20.7288 7.18817 21.281C7.18817 21.8333 7.63589 22.281 8.18817 22.281V20.281ZM14.7366 22.281C15.2888 22.281 15.7366 21.8333 15.7366 21.281C15.7366 20.7288 15.2888 20.281 14.7366 20.281V22.281ZM1 30.0319V29.0319C0.447715 29.0319 0 29.4797 0 30.0319H1ZM50 30.0319H51C51 29.4797 50.5523 29.0319 50 29.0319V30.0319ZM4.19892 30.0319H3.19892C3.19892 30.5842 3.64664 31.0319 4.19892 31.0319V30.0319ZM46.8011 30.0319V31.0319C47.3534 31.0319 47.8011 30.5842 47.8011 30.0319H46.8011ZM8.03763 6.18293V5.18293H7.03763V6.18293H8.03763ZM14.8871 6.18293H15.8871V5.18293H14.8871V6.18293ZM14.8871 12.7931V13.7931H15.8871V12.7931H14.8871ZM8.03763 12.7931H7.03763V13.7931H8.03763V12.7931ZM23.0161 17.4737H26.4785V15.4737H23.0161V17.4737ZM27.4785 16.4737V15.8728H25.4785V16.4737H27.4785ZM27.4785 15.8728C27.4785 14.7678 26.6613 13.8474 25.6087 13.6504L25.2408 15.6163C25.309 15.6291 25.3714 15.666 25.4165 15.7189C25.4612 15.7713 25.4785 15.8264 25.4785 15.8728H27.4785ZM25.5566 13.6421L23.2986 13.3416L23.0348 15.3242L25.2928 15.6246L25.5566 13.6421ZM36.3925 19.2529V20.943H38.3925V19.2529H36.3925ZM36.3925 20.943C36.3925 22.2692 37.4653 23.4078 38.8602 23.4078V21.4078C38.5992 21.4078 38.3925 21.1943 38.3925 20.943H36.3925ZM38.8602 23.4078H39.6882V21.4078H38.8602V23.4078ZM39.6882 23.4078C41.0121 23.4078 42.1559 22.3401 42.1559 20.943H40.1559C40.1559 21.1985 39.9449 21.4078 39.6882 21.4078V23.4078ZM42.1559 20.943V13.3189H40.1559V20.943H42.1559ZM41.4857 14.2629L42.991 13.7371L42.3315 11.849L40.8262 12.3748L41.4857 14.2629ZM42.9034 13.7633C43.6676 13.5726 43.8871 12.8644 43.8871 12.455H41.8871C41.8871 12.3724 41.9063 12.2601 41.9795 12.1414C42.06 12.0109 42.2081 11.8755 42.4192 11.8228L42.9034 13.7633ZM43.8871 12.455V11.2532H41.8871V12.455H43.8871ZM43.8871 11.2532C43.8871 10.5112 43.2869 9.91518 42.5484 9.91518V11.9152C42.1862 11.9152 41.8871 11.6196 41.8871 11.2532H43.8871ZM42.5484 9.91518H40.8548V11.9152H42.5484V9.91518ZM40.8548 9.91518C40.7579 9.91518 40.6402 9.87216 40.5313 9.70149L38.845 10.7768C39.2631 11.4324 39.9733 11.9152 40.8548 11.9152V9.91518ZM40.5644 9.75729L38.8709 6.67757L37.1184 7.64128L38.8119 10.721L40.5644 9.75729ZM38.8658 6.66841C38.3525 5.75775 37.3825 5.18293 36.3387 5.18293V7.18293C36.6498 7.18293 36.9594 7.35927 37.1235 7.65045L38.8658 6.66841ZM26.2151 5.18293C25.1713 5.18293 24.2013 5.75775 23.688 6.66841L25.4303 7.65045C25.5944 7.35927 25.904 7.18293 26.2151 7.18293V5.18293ZM23.6829 6.67757L21.9893 9.75729L23.7418 10.721L25.4354 7.64128L23.6829 6.67757ZM21.9881 9.75954C21.9447 9.83894 21.8375 9.91518 21.6989 9.91518V11.9152C22.5389 11.9152 23.3349 11.4656 23.7431 10.7188L21.9881 9.75954ZM21.6989 9.91518H20.0054V11.9152H21.6989V9.91518ZM20.0054 9.91518C19.2669 9.91518 18.6667 10.5112 18.6667 11.2532H20.6667C20.6667 11.6196 20.3676 11.9152 20.0054 11.9152V9.91518ZM18.6667 11.2532V12.455H20.6667V11.2532H18.6667ZM18.6667 12.455C18.6667 12.7056 18.7323 12.9693 18.8916 13.2077C19.0466 13.4397 19.2523 13.5912 19.446 13.6878L20.339 11.8983C20.3822 11.9198 20.4749 11.9773 20.5546 12.0967C20.6386 12.2225 20.6667 12.3547 20.6667 12.455H18.6667ZM19.5627 13.7371L21.0681 14.2629L21.7276 12.3748L20.2222 11.849L19.5627 13.7371ZM20.3979 13.3189V20.9055H22.3979V13.3189H20.3979ZM20.3979 20.9055C20.3979 22.2316 21.4706 23.3702 22.8656 23.3702V21.3702C22.6046 21.3702 22.3979 21.1567 22.3979 20.9055H20.3979ZM22.8656 23.3702H23.6935V21.3702H22.8656V23.3702ZM23.6935 23.3702C25.0175 23.3702 26.1613 22.3025 26.1613 20.9055H24.1613C24.1613 21.1609 23.9503 21.3702 23.6935 21.3702V23.3702ZM26.1613 20.9055V19.2154H24.1613V20.9055H26.1613ZM25.1613 20.2154H37.3925V18.2154H25.1613V20.2154ZM36.3925 19.2154V19.2529H38.3925V19.2154H36.3925ZM39.2414 13.3436L36.9457 13.6816L37.2371 15.6603L39.5328 15.3222L39.2414 13.3436ZM36.9676 13.6786C35.8348 13.8199 35.0376 14.7984 35.0376 15.9103H37.0376C37.0376 15.7453 37.1437 15.6722 37.2152 15.6632L36.9676 13.6786ZM35.0376 15.9103V16.5112H37.0376V15.9103H35.0376ZM36.0376 17.5112H39.5V15.5112H36.0376V17.5112ZM28.7366 17.5488H33.8172V15.5488H28.7366V17.5488ZM34.8111 16.6595L35.0369 14.6314L33.0492 14.41L32.8233 16.4381L34.8111 16.6595ZM27.5169 14.6314L27.7427 16.6595L29.7304 16.4381L29.5046 14.41L27.5169 14.6314ZM25.1237 18.2529H23.6183V20.2529H25.1237V18.2529ZM37.3925 20.2529H39.3495V18.2529H37.3925V20.2529ZM25.1237 18.2529H23.1667V20.2529H25.1237V18.2529ZM8.18817 16.7225H14.7366V14.7225H8.18817V16.7225ZM8.18817 19.5018H14.7366V17.5018H8.18817V19.5018ZM8.18817 22.281H14.7366V20.281H8.18817V22.281ZM48.2688 32.8252H2.73118V34.8252H48.2688V32.8252ZM2.73118 32.8252C2.34068 32.8252 2 32.4823 2 32.0976H0C0 33.5908 1.23997 34.8252 2.73118 34.8252V32.8252ZM2 32.0976V30.0319H0V32.0976H2ZM1 31.0319H50V29.0319H1V31.0319ZM49 30.0319V32.0976H51V30.0319H49ZM49 32.0976C49 32.4823 48.6593 32.8252 48.2688 32.8252V34.8252C49.76 34.8252 51 33.5908 51 32.0976H49ZM45.1828 0H5.8172V2H45.1828V0ZM5.8172 0C4.36362 0 3.19892 1.15938 3.19892 2.61497H5.19892C5.19892 2.2678 5.46433 2 5.8172 2V0ZM3.19892 2.61497V30.0319H5.19892V2.61497H3.19892ZM4.19892 31.0319H46.8011V29.0319H4.19892V31.0319ZM47.8011 30.0319V2.61497H45.8011V30.0319H47.8011ZM47.8011 2.61497C47.8011 1.14437 46.5836 0 45.1828 0V2C45.5132 2 45.8011 2.28281 45.8011 2.61497H47.8011ZM8.03763 7.18293H14.8871V5.18293H8.03763V7.18293ZM13.8871 6.18293V12.7931H15.8871V6.18293H13.8871ZM14.8871 11.7931H8.03763V13.7931H14.8871V11.7931ZM9.03763 12.7931V6.18293H7.03763V12.7931H9.03763ZM36.3387 5.18293H26.2151V7.18293H36.3387V5.18293ZM24.5215 11.9527H37.9946V9.95273H24.5215V11.9527ZM34.043 13.5207H28.5108V15.5207H34.043V13.5207Z" fill="url(#paint0_linear_130_37)"/>
<defs>
<linearGradient id="paint0_linear_130_37" x1="-102.39" y1="-43.9932" x2="-52.3538" y2="-95.561" gradientUnits="userSpaceOnUse">
<stop stop-color="#B8D217"/>
<stop offset="1" stop-color="#09BA8F"/>
</linearGradient>
</defs>
</svg>
