<svg width="36" height="42" viewBox="0 0 36 42" fill="none" xmlns="http://www.w3.org/2000/svg">
<path d="M7.22426 40.44H6.22426V41.44H7.22426V40.44ZM28.7368 40.44V41.44H29.7368V40.44H28.7368ZM2.28375 25.824L1.73864 24.9856L1.33314 25.2493L1.2881 25.7309L2.28375 25.824ZM11.6201 19.7533L12.3251 19.0441L11.7522 18.4747L11.075 18.915L11.6201 19.7533ZM24.3799 19.7533L24.925 18.915L24.2323 18.4646L23.6593 19.0599L24.3799 19.7533ZM33.7162 25.824L34.7119 25.7311L34.667 25.2494L34.2614 24.9856L33.7162 25.824ZM12.0731 9.11188C12.1113 8.56092 11.6957 8.08329 11.1447 8.04506C10.5938 8.00684 10.1161 8.42249 10.0779 8.97345L12.0731 9.11188ZM11.8535 11.2467L11.069 11.8668L11.0713 11.8697L11.8535 11.2467ZM15.0435 12.02L15.4239 12.9449L15.4354 12.94L15.0435 12.02ZM21.0343 12.02L20.6424 12.9401L20.6539 12.9448L21.0343 12.02ZM24.2243 11.2467L24.9906 11.8891L24.9998 11.8781L25.0087 11.8668L24.2243 11.2467ZM25.0023 9.04267H24.0023V9.07732L24.0047 9.11188L25.0023 9.04267ZM13.1762 2.972L12.4937 2.24109L12.4876 2.2468L12.4816 2.25261L13.1762 2.972ZM11.1533 8.69467H10.1533V9.69467H11.1533V8.69467ZM18.4143 9.84901C18.9664 9.83506 19.4026 9.37618 19.3887 8.82407C19.3747 8.27196 18.9159 7.8357 18.3638 7.84965L18.4143 9.84901ZM7.22426 41.44H18V39.44H7.22426V41.44ZM18 39.44H17.9611V41.44H18V39.44ZM17.9611 41.44H28.7368V39.44H17.9611V41.44ZM23.4577 19.7533V24.1613H25.4577V19.7533H23.4577ZM23.4577 24.1613C23.4577 26.5807 21.4992 28.536 19.0503 28.536V30.536C22.5923 30.536 25.4577 27.6967 25.4577 24.1613H23.4577ZM16.9497 28.536C14.5008 28.536 12.5423 26.5807 12.5423 24.1613H10.5423C10.5423 27.6967 13.4077 30.536 16.9497 30.536V28.536ZM12.5423 24.1613V19.7533H10.5423V24.1613H12.5423ZM10.0755 9.12V10.2027H12.0755V9.12H10.0755ZM10.0755 10.2027C10.0755 15.1517 13.5607 19.4773 18 19.4773V17.4773C14.9702 17.4773 12.0755 14.3789 12.0755 10.2027H10.0755ZM18 19.4773C22.4393 19.4773 25.9245 15.1517 25.9245 10.2027H23.9245C23.9245 14.3789 21.0298 17.4773 18 17.4773V19.4773ZM25.9245 10.2027V9.12H23.9245V10.2027H25.9245ZM2 40.44C2 40.4404 2 40.4389 2.00007 40.4351C2.00013 40.4314 2.00025 40.4264 2.00046 40.4198C2.00087 40.4063 2.00156 40.3887 2.0026 40.3664C2.00468 40.3217 2.00794 40.2637 2.01244 40.1921C2.02145 40.049 2.03487 39.8609 2.05227 39.6326C2.08703 39.1766 2.13689 38.5709 2.19697 37.866C2.3171 36.4567 2.47738 34.6596 2.6378 32.8887C2.79819 31.1182 2.9586 29.3752 3.07891 28.0748C3.13907 27.4246 3.1892 26.8852 3.22429 26.5082C3.24183 26.3198 3.25561 26.172 3.26501 26.0713C3.26971 26.0209 3.27331 25.9824 3.27573 25.9564C3.27695 25.9434 3.27787 25.9336 3.27848 25.927C3.27879 25.9237 3.27902 25.9212 3.27918 25.9196C3.27925 25.9188 3.27931 25.9181 3.27935 25.9177C3.27937 25.9175 3.27938 25.9174 3.27939 25.9173C3.2794 25.9172 3.27941 25.9171 2.28375 25.824C1.2881 25.7309 1.28809 25.7309 1.28808 25.731C1.28807 25.7311 1.28806 25.7313 1.28804 25.7315C1.288 25.7319 1.28794 25.7326 1.28786 25.7334C1.28771 25.7351 1.28747 25.7376 1.28716 25.7409C1.28654 25.7475 1.28562 25.7574 1.28441 25.7704C1.28197 25.7964 1.27837 25.835 1.27366 25.8855C1.26425 25.9863 1.25046 26.1342 1.2329 26.3229C1.19778 26.7001 1.14762 27.24 1.08742 27.8906C0.967033 29.1917 0.806501 30.936 0.645954 32.7083C0.485438 34.4802 0.32478 36.2815 0.2042 37.6961C0.0867457 39.0741 0 40.1622 0 40.44H2ZM2.82887 26.6624L12.1653 20.5917L11.075 18.915L1.73864 24.9856L2.82887 26.6624ZM10.9152 20.4626C12.848 22.3837 15.3168 23.4213 18 23.4213V21.4213C15.8594 21.4213 13.8934 20.6029 12.3251 19.0441L10.9152 20.4626ZM18 23.4213C20.6668 23.4213 23.1888 22.4332 25.1004 20.4467L23.6593 19.0599C22.1476 20.6308 20.157 21.4213 18 21.4213V23.4213ZM23.8347 20.5917L33.1711 26.6624L34.2614 24.9856L24.925 18.915L23.8347 20.5917ZM33.7162 25.824C32.7206 25.9169 32.7206 25.9169 32.7206 25.917C32.7206 25.9171 32.7206 25.9173 32.7206 25.9175C32.7207 25.9179 32.7207 25.9185 32.7208 25.9193C32.721 25.921 32.7212 25.9235 32.7215 25.9268C32.7221 25.9334 32.723 25.9433 32.7242 25.9563C32.7267 25.9823 32.7303 26.021 32.735 26.0715C32.7444 26.1724 32.7581 26.3206 32.7757 26.5096C32.8108 26.8875 32.8609 27.4283 32.9211 28.08C33.0414 29.3835 33.2018 31.1301 33.3622 32.9031C33.5226 34.6764 33.6829 36.4748 33.803 37.8824C33.8631 38.5865 33.913 39.1906 33.9478 39.6442C33.9652 39.8712 33.9786 40.0579 33.9876 40.1993C33.9921 40.27 33.9954 40.3271 33.9974 40.3708C33.9985 40.3926 33.9992 40.4096 33.9996 40.4224C34 40.4359 34 40.441 34 40.44H36C36 40.1717 35.9132 39.0876 35.7958 37.7123C35.6752 36.2996 35.5146 34.4972 35.3541 32.7229C35.1935 30.9483 35.033 29.2003 34.9126 27.8962C34.8524 27.2441 34.8022 26.7029 34.7671 26.3247C34.7496 26.1356 34.7358 25.9872 34.7264 25.8861C34.7217 25.8356 34.718 25.7969 34.7156 25.7707C34.7144 25.7577 34.7135 25.7478 34.7129 25.7412C34.7126 25.7378 34.7123 25.7353 34.7122 25.7337C34.7121 25.7328 34.712 25.7322 34.712 25.7318C34.712 25.7316 34.7119 25.7314 34.7119 25.7313C34.7119 25.7312 34.7119 25.7311 33.7162 25.824ZM28.7368 32.0547H23.4462V34.0547H28.7368V32.0547ZM28.7368 34.4133H23.4462V36.4133H28.7368V34.4133ZM7.22426 34.0547H12.5538V32.0547H7.22426V34.0547ZM7.22426 36.4133H12.5538V34.4133H7.22426V36.4133ZM11.0755 9.04267C10.0779 8.97345 10.0779 8.97386 10.0779 8.97427C10.0778 8.97441 10.0778 8.97483 10.0778 8.97511C10.0778 8.97569 10.0777 8.97628 10.0777 8.97689C10.0776 8.97811 10.0775 8.9794 10.0774 8.98076C10.0773 8.98349 10.0771 8.98651 10.0769 8.98981C10.0765 8.99641 10.0761 9.00415 10.0758 9.01299C10.075 9.03067 10.0743 9.05279 10.0739 9.07906C10.0732 9.13153 10.0738 9.20085 10.078 9.28454C10.0863 9.45148 10.109 9.6784 10.1651 9.94472C10.2772 10.4773 10.5257 11.1795 11.0691 11.8668L12.638 10.6265C12.3255 10.2312 12.1851 9.83141 12.1221 9.53261C12.0907 9.38326 12.0793 9.26219 12.0755 9.18505C12.0736 9.14669 12.0736 9.11995 12.0737 9.10687C12.0738 9.10036 12.074 9.09733 12.0739 9.09806C12.0739 9.09842 12.0739 9.09974 12.0737 9.10203C12.0737 9.10317 12.0736 9.10456 12.0735 9.1062C12.0734 9.10703 12.0734 9.10791 12.0733 9.10886C12.0733 9.10933 12.0733 9.10982 12.0732 9.11032C12.0732 9.11057 12.0732 9.11097 12.0732 9.11109C12.0731 9.11149 12.0731 9.11188 11.0755 9.04267ZM11.0713 11.8697C12.1067 13.1696 13.9131 13.5662 15.4239 12.9448L14.6631 11.0952C13.9175 11.4018 13.0787 11.1797 12.6358 10.6237L11.0713 11.8697ZM15.4354 12.94C16.2213 12.6052 17.1968 12.2853 18.0389 12.2853V10.2853C16.7803 10.2853 15.4995 10.7388 14.6516 11.1L15.4354 12.94ZM18.0389 12.2853C18.881 12.2853 19.8565 12.6052 20.6424 12.94L21.4262 11.1C20.5783 10.7388 19.2975 10.2853 18.0389 10.2853V12.2853ZM20.6539 12.9448C22.1789 13.572 23.9284 13.156 24.9906 11.8891L23.4579 10.6042C22.9641 11.1933 22.146 11.396 21.4147 11.0952L20.6539 12.9448ZM25.0087 11.8668C25.5521 11.1795 25.8006 10.4773 25.9127 9.94472C25.9688 9.6784 25.9915 9.45148 25.9998 9.28454C26.004 9.20085 26.0046 9.13153 26.0039 9.07906C26.0035 9.05279 26.0028 9.03067 26.002 9.01299C26.0017 9.00415 26.0013 8.99641 26.0009 8.98981C26.0007 8.98651 26.0005 8.98349 26.0004 8.98076C26.0003 8.9794 26.0002 8.97811 26.0001 8.97689C26.0001 8.97628 26 8.97569 26 8.97511C26 8.97483 26 8.97441 25.9999 8.97427C25.9999 8.97386 25.9999 8.97345 25.0023 9.04267C24.0047 9.11188 24.0047 9.11149 24.0046 9.11109C24.0046 9.11097 24.0046 9.11057 24.0046 9.11032C24.0045 9.10982 24.0045 9.10933 24.0045 9.10886C24.0044 9.10791 24.0044 9.10703 24.0043 9.1062C24.0042 9.10456 24.0041 9.10317 24.0041 9.10203C24.0039 9.09974 24.0039 9.09842 24.0039 9.09806C24.0038 9.09733 24.004 9.10036 24.0041 9.10687C24.0042 9.11995 24.0042 9.14669 24.0023 9.18505C23.9985 9.26219 23.9871 9.38326 23.9557 9.53261C23.8927 9.83141 23.7523 10.2312 23.4398 10.6265L25.0087 11.8668ZM26.0023 9.04267V7.99867H24.0023V9.04267H26.0023ZM26.0023 7.99867C26.0023 5.90215 25.2134 3.78253 23.6844 2.26275L22.2744 3.68125C23.3907 4.7908 24.0023 6.38318 24.0023 7.99867H26.0023ZM23.6844 2.26275C22.2473 0.834384 20.2412 0 18.0778 0V2C19.7267 2 21.2218 2.63495 22.2744 3.68125L23.6844 2.26275ZM18.0778 0C15.8932 0 13.9435 0.88742 12.4937 2.24109L13.8587 3.70291C14.9764 2.65925 16.4501 2 18.0778 2V0ZM12.4816 2.25261C10.897 3.78268 10.1533 5.87413 10.1533 7.99867H12.1533C12.1533 6.33387 12.7323 4.79066 13.8708 3.69139L12.4816 2.25261ZM10.1533 7.99867V8.69467H12.1533V7.99867H10.1533ZM11.1533 9.69467C11.108 9.69467 11.0796 9.69138 11.2157 9.70266C11.3043 9.70999 11.4324 9.7204 11.5985 9.7325C11.9307 9.7567 12.4122 9.78751 13.0356 9.81456C14.2823 9.86865 16.0947 9.90763 18.4143 9.84901L18.3638 7.84965C16.093 7.90704 14.3264 7.86868 13.1223 7.81644C12.5203 7.79032 12.0584 7.76071 11.7439 7.73779C11.5866 7.72633 11.4655 7.7165 11.3808 7.70948C11.3437 7.70641 11.2181 7.69467 11.1533 7.69467V9.69467ZM6.22426 22.6147V40.44H8.22426V22.6147H6.22426ZM29.7368 40.44V22.6147H27.7368V40.44H29.7368ZM19.0503 28.536H16.9497V30.536H19.0503V28.536Z" fill="url(#paint0_linear_130_86)"/>
<defs>
<linearGradient id="paint0_linear_130_86" x1="-70.74" y1="-53.06" x2="-17.8719" y2="-84.526" gradientUnits="userSpaceOnUse">
<stop stop-color="#B8D217"/>
<stop offset="1" stop-color="#09BA8F"/>
</linearGradient>
</defs>
</svg>
