<svg width="64" height="64" viewBox="0 0 64 64" fill="none" xmlns="http://www.w3.org/2000/svg">
<path d="M32 63C49.1208 63 63 49.1208 63 32C63 14.8792 49.1208 1 32 1C14.8792 1 1 14.8792 1 32C1 49.1208 14.8792 63 32 63Z" stroke="url(#paint0_linear_105_904)" stroke-width="2" stroke-miterlimit="10"/>
<path d="M25.6524 54.7333C17.681 52.519 11.3333 46.319 9.26667 38.3476C8.97143 37.4619 9.70952 36.4286 10.7429 36.4286H18.5667C19.1571 36.4286 19.7476 36.8714 19.8952 37.3143C21.2238 40.4143 23.7333 42.7762 26.6857 44.1048C27.2762 44.4 27.5714 44.8429 27.5714 45.4333V53.2571C27.5714 54.2905 26.6857 55.0286 25.6524 54.7333Z" stroke="url(#paint1_linear_105_904)" stroke-width="2" stroke-miterlimit="10"/>
<path d="M11.1857 26.981C10.1524 27.2762 9.11905 26.2429 9.41429 25.2095C12.3667 15.4667 21.3714 8.38095 32 8.38095C42.6286 8.38095 51.6333 15.4667 54.5857 25.2095C54.881 26.2429 53.8476 27.2762 52.8143 26.981C47.2048 25.5048 39.9714 24.619 32 24.619C24.0286 24.619 16.7952 25.5048 11.1857 26.981Z" stroke="url(#paint2_linear_105_904)" stroke-width="2" stroke-miterlimit="10"/>
<path d="M36.4286 53.4048V45.581C36.4286 44.9905 36.8714 44.4 37.3143 44.2524C40.4143 42.9238 42.7762 40.4143 44.1048 37.4619C44.4 36.8714 44.8429 36.5762 45.4333 36.5762H53.2571C54.2905 36.5762 54.881 37.4619 54.7333 38.4952C52.519 46.4667 46.319 52.8143 38.3476 54.881C37.3143 55.0286 36.4286 54.2905 36.4286 53.4048Z" stroke="url(#paint3_linear_105_904)" stroke-width="2" stroke-miterlimit="10"/>
<defs>
<linearGradient id="paint0_linear_105_904" x1="-129.82" y1="-83.9828" x2="-41.4062" y2="-145.024" gradientUnits="userSpaceOnUse">
<stop stop-color="#B8D217"/>
<stop offset="1" stop-color="#09BA8F"/>
</linearGradient>
<linearGradient id="paint1_linear_105_904" x1="-129.82" y1="-83.9828" x2="-41.4062" y2="-145.024" gradientUnits="userSpaceOnUse">
<stop stop-color="#B8D217"/>
<stop offset="1" stop-color="#09BA8F"/>
</linearGradient>
<linearGradient id="paint2_linear_105_904" x1="-129.82" y1="-83.9828" x2="-41.4062" y2="-145.024" gradientUnits="userSpaceOnUse">
<stop stop-color="#B8D217"/>
<stop offset="1" stop-color="#09BA8F"/>
</linearGradient>
<linearGradient id="paint3_linear_105_904" x1="-129.82" y1="-83.9828" x2="-41.4062" y2="-145.024" gradientUnits="userSpaceOnUse">
<stop stop-color="#B8D217"/>
<stop offset="1" stop-color="#09BA8F"/>
</linearGradient>
</defs>
</svg>
