<svg width="41" height="41" viewBox="0 0 41 41" fill="none" xmlns="http://www.w3.org/2000/svg">
<circle cx="20.4739" cy="20.1934" r="20.1887" fill="url(#paint0_linear_120_1736)"/>
<path d="M7.54377 20.4391C11.5626 18.6129 23.2663 13.3279 28.9917 11.2715C29.8555 10.9628 30.8036 11.4023 31.1144 12.2605C31.2092 12.5221 31.2355 12.7994 31.1934 13.0715L28.6283 29.6694C28.4755 30.6636 27.5432 31.3491 26.5372 31.1973C26.2791 31.1607 26.0368 31.0665 25.8156 30.9253L18.3942 26.1583C17.5145 25.5932 17.267 24.4316 17.8306 23.5577C17.9148 23.4269 18.0202 23.3013 18.1413 23.1967L24.9834 16.682C25.2731 16.4047 24.8991 15.9495 24.5673 16.1797L14.8177 22.956C13.9013 23.5943 12.7267 23.7252 11.689 23.3118L7.57011 21.6478C7.23301 21.5118 7.06973 21.1298 7.20667 20.7949C7.26988 20.6327 7.39102 20.5071 7.54377 20.4391Z" fill="white"/>
<defs>
<linearGradient id="paint0_linear_120_1736" x1="67.5809" y1="40.3821" x2="0.285156" y2="0.00463867" gradientUnits="userSpaceOnUse">
<stop stop-color="#3C82BA"/>
<stop offset="1" stop-color="#5AABE6"/>
</linearGradient>
</defs>
</svg>
