<svg width="18" height="16" viewBox="0 0 18 16" fill="none" xmlns="http://www.w3.org/2000/svg">
<path d="M0.43512 7.39862C3.30112 6.09629 11.6475 2.32739 15.7305 0.860874C16.3465 0.64071 17.0226 0.954164 17.2442 1.56614C17.3118 1.75272 17.3306 1.9505 17.3006 2.14454L15.4713 13.9811C15.3624 14.6901 14.6975 15.179 13.9801 15.0708C13.796 15.0446 13.6232 14.9775 13.4655 14.8767L8.17295 11.4772C7.54566 11.0742 7.36911 10.2458 7.77103 9.62265C7.83113 9.52936 7.90625 9.4398 7.99265 9.36517L12.872 4.71934C13.0786 4.52156 12.8119 4.19691 12.5752 4.3611L5.62247 9.19351C4.96888 9.64877 4.13125 9.74206 3.39127 9.44726L0.453901 8.26062C0.213503 8.16359 0.0970599 7.89119 0.194722 7.65237C0.239796 7.53669 0.32619 7.44713 0.43512 7.39862Z" fill="white"/>
</svg>
