<svg width="24" height="21" viewBox="0 0 24 21" fill="none" xmlns="http://www.w3.org/2000/svg">
<path d="M0.737321 9.63261C4.6869 7.8379 16.1888 2.64404 21.8156 0.623066C22.6645 0.319663 23.5962 0.751627 23.9016 1.59499C23.9948 1.85211 24.0207 2.12466 23.9793 2.39206L21.4584 18.7039C21.3083 19.6809 20.3921 20.3546 19.4034 20.2055C19.1497 20.1695 18.9116 20.0769 18.6942 19.9381L11.4007 15.2533C10.5362 14.6979 10.2929 13.5563 10.8468 12.6975C10.9296 12.5689 11.0331 12.4455 11.1522 12.3427L17.8763 5.94034C18.161 5.66779 17.7935 5.2204 17.4674 5.44667L7.88591 12.1061C6.98522 12.7335 5.83088 12.8621 4.81114 12.4558L0.763203 10.8205C0.431914 10.6868 0.271446 10.3114 0.406032 9.9823C0.468149 9.82288 0.587206 9.69946 0.737321 9.63261Z" fill="url(#paint0_linear_120_2973)"/>
<defs>
<linearGradient id="paint0_linear_120_2973" x1="39.7584" y1="20.2261" x2="4.46861" y2="-5.1825" gradientUnits="userSpaceOnUse">
<stop stop-color="#1773BD"/>
<stop offset="1" stop-color="#70C3FF"/>
</linearGradient>
</defs>
</svg>
