<svg width="37" height="39" viewBox="0 0 37 39" fill="none" xmlns="http://www.w3.org/2000/svg">
<rect x="0.385742" y="0.5" width="36.1143" height="38.3714" rx="7.52381" fill="#1C80B8"/>
<path d="M8.93707 19.8986C11.8031 18.5963 20.1494 14.8274 24.2324 13.3609C24.8484 13.1407 25.5246 13.4542 25.7462 14.0661C25.8138 14.2527 25.8326 14.4505 25.8025 14.6445L23.9732 26.4811C23.8643 27.1901 23.1995 27.679 22.482 27.5708C22.298 27.5446 22.1252 27.4775 21.9674 27.3767L16.6749 23.9772C16.0476 23.5742 15.8711 22.7458 16.273 22.1226C16.3331 22.0294 16.4082 21.9398 16.4946 21.8652L21.3739 17.2193C21.5805 17.0216 21.3138 16.6969 21.0772 16.8611L14.1244 21.6935C13.4708 22.1488 12.6332 22.2421 11.8932 21.9473L8.95585 20.7606C8.71546 20.6636 8.59901 20.3912 8.69667 20.1524C8.74175 20.0367 8.82814 19.9471 8.93707 19.8986Z" fill="white"/>
</svg>
