<svg width="21" height="22" viewBox="0 0 21 22" fill="none" xmlns="http://www.w3.org/2000/svg">
<path d="M10.4284 0.230469C4.69277 0.230469 0 4.92324 0 10.6589C0 12.6576 0.521419 14.4826 1.47735 16.0468L0.0869032 21.0872L5.30109 19.6968C6.77845 20.5658 8.60342 21.0872 10.4284 21.0872C16.164 21.0872 20.8568 16.3945 20.8568 10.6589C20.8568 4.92324 16.164 0.230469 10.4284 0.230469ZM6.86535 5.79227C7.03916 5.79227 7.21296 5.79227 7.38677 5.79227C7.56058 5.79227 7.73438 5.79227 7.99509 6.22679C8.1689 6.74821 8.69032 8.05176 8.69032 8.13866C8.69032 8.22556 8.77722 8.39937 8.69032 8.57317C8.69032 8.74698 8.60342 8.92079 8.51651 9.00769C8.42961 9.1815 8.2558 9.3553 8.1689 9.44221C7.99509 9.61601 7.82129 9.78982 7.99509 10.0505C8.1689 10.3112 8.69032 11.1803 9.47245 11.8755C10.4284 12.7445 11.2974 13.0052 11.5581 13.179C11.8188 13.2659 11.9926 13.2659 12.0795 13.0921C12.2533 12.9183 12.6879 12.31 12.8617 12.0493C13.0355 11.7886 13.2093 11.8755 13.47 11.9624C13.7307 12.0493 14.9473 12.6576 15.2081 12.8314C15.4688 13.0052 15.6426 13.0052 15.7295 13.0921C15.8164 13.179 15.8164 13.7005 15.5557 14.3088C15.3819 14.9171 14.2521 15.5254 13.8176 15.5254C13.3831 15.6123 12.8617 15.6992 10.6891 14.9171C8.082 13.8743 6.43084 11.1803 6.25703 11.0065C6.17013 10.8327 5.21419 9.61601 5.21419 8.31246C5.21419 7.00892 5.90942 6.4006 6.08322 6.13989C6.43084 5.87918 6.69155 5.79227 6.86535 5.79227Z" fill="#09BA65"/>
</svg>
