<svg width="20" height="20" viewBox="0 0 20 20" fill="none" xmlns="http://www.w3.org/2000/svg">
<path d="M10.186 0.533325C5.01339 0.533325 0.78125 4.76547 0.78125 9.93809C0.78125 11.7407 1.25149 13.3865 2.11359 14.7972L0.859623 19.3428L5.562 18.0889C6.89435 18.8726 8.54018 19.3428 10.186 19.3428C15.3586 19.3428 19.5908 15.1107 19.5908 9.93809C19.5908 4.76547 15.3586 0.533325 10.186 0.533325ZM6.97272 5.5492C7.12946 5.5492 7.28621 5.5492 7.44296 5.5492C7.5997 5.5492 7.75645 5.5492 7.99157 5.94106C8.14831 6.4113 8.61855 7.5869 8.61855 7.66527C8.61855 7.74364 8.69693 7.90039 8.61855 8.05714C8.61855 8.21388 8.54018 8.37063 8.46181 8.449C8.38343 8.60575 8.22669 8.76249 8.14831 8.84087C7.99157 8.99761 7.83482 9.15436 7.99157 9.38948C8.14831 9.6246 8.61855 10.4083 9.32391 11.0353C10.186 11.819 10.9697 12.0542 11.2049 12.2109C11.44 12.2893 11.5967 12.2893 11.6751 12.1325C11.8318 11.9758 12.2237 11.4272 12.3805 11.1921C12.5372 10.9569 12.6939 11.0353 12.9291 11.1137C13.1642 11.1921 14.2614 11.7407 14.4965 11.8974C14.7316 12.0542 14.8884 12.0542 14.9668 12.1325C15.0451 12.2109 15.0451 12.6811 14.81 13.2298C14.6533 13.7784 13.6344 14.327 13.2426 14.327C12.8507 14.4053 12.3805 14.4837 10.4211 13.7784C8.06994 12.8379 6.58085 10.4083 6.42411 10.2516C6.34573 10.0948 5.48363 8.99761 5.48363 7.82202C5.48363 6.64642 6.11062 6.09781 6.26736 5.86269C6.58085 5.62757 6.81597 5.5492 6.97272 5.5492Z" fill="white"/>
</svg>
