<svg width="37" height="39" viewBox="0 0 37 39" fill="none" xmlns="http://www.w3.org/2000/svg">
<rect x="0.5" y="0.5" width="36.1143" height="38.3714" rx="7.52381" fill="#09BA45"/>
<path d="M18.6855 10.0333C13.5129 10.0333 9.28076 14.2655 9.28076 19.4381C9.28076 21.2407 9.751 22.8865 10.6131 24.2972L9.35913 28.8428L14.0615 27.5889C15.3939 28.3726 17.0397 28.8428 18.6855 28.8428C23.8581 28.8428 28.0903 24.6107 28.0903 19.4381C28.0903 14.2655 23.8581 10.0333 18.6855 10.0333ZM15.4722 15.0492C15.629 15.0492 15.7857 15.0492 15.9425 15.0492C16.0992 15.0492 16.256 15.0492 16.4911 15.4411C16.6478 15.9113 17.1181 17.0869 17.1181 17.1653C17.1181 17.2436 17.1964 17.4004 17.1181 17.5571C17.1181 17.7139 17.0397 17.8706 16.9613 17.949C16.8829 18.1057 16.7262 18.2625 16.6478 18.3409C16.4911 18.4976 16.3343 18.6544 16.4911 18.8895C16.6478 19.1246 17.1181 19.9083 17.8234 20.5353C18.6855 21.319 19.4693 21.5542 19.7044 21.7109C19.9395 21.7893 20.0962 21.7893 20.1746 21.6325C20.3314 21.4758 20.7232 20.9272 20.88 20.6921C21.0367 20.4569 21.1935 20.5353 21.4286 20.6137C21.6637 20.6921 22.7609 21.2407 22.996 21.3974C23.2312 21.5542 23.3879 21.5542 23.4663 21.6325C23.5447 21.7109 23.5447 22.1811 23.3095 22.7298C23.1528 23.2784 22.1339 23.827 21.7421 23.827C21.3502 23.9053 20.88 23.9837 18.9206 23.2784C16.5695 22.3379 15.0804 19.9083 14.9236 19.7516C14.8452 19.5948 13.9831 18.4976 13.9831 17.322C13.9831 16.1464 14.6101 15.5978 14.7669 15.3627C15.0804 15.1276 15.3155 15.0492 15.4722 15.0492Z" fill="white"/>
</svg>
