<svg width="50" height="50" viewBox="0 0 50 50" fill="none" xmlns="http://www.w3.org/2000/svg">
<path d="M24.9974 49.9949C38.8031 49.9949 49.9949 38.8031 49.9949 24.9974C49.9949 11.1917 38.8031 0 24.9974 0C11.1917 0 0 11.1917 0 24.9974C0 38.8031 11.1917 49.9949 24.9974 49.9949Z" fill="url(#paint0_linear_111_3271)"/>
<path d="M21.7493 27.6709L25.0748 17.5508L28.4618 27.6709H21.7493ZM35.8466 34.0704L33.0959 26.5162H34.7381C35.0526 26.5135 35.3533 26.3871 35.5752 26.1642C35.7971 25.9414 35.9222 25.6401 35.9236 25.3256C35.9236 25.1774 35.8944 25.0305 35.8376 24.8936C35.7809 24.7566 35.6977 24.6321 35.5929 24.5273C35.4881 24.4224 35.3636 24.3393 35.2266 24.2825C35.0896 24.2258 34.9428 24.1966 34.7946 24.1966H32.2286L31.8181 23.0214H34.7381C35.0459 23.0215 35.3415 22.9014 35.562 22.6866C35.7825 22.4719 35.9104 22.1795 35.9184 21.8719C35.9191 21.716 35.8889 21.5615 35.8296 21.4174C35.7703 21.2733 35.683 21.1423 35.5727 21.0321C35.4625 20.9219 35.3316 20.8346 35.1874 20.7752C35.0433 20.7159 34.8888 20.6857 34.733 20.6864H30.9405L28.8878 15.0413C28.5811 14.2348 28.0742 13.5195 27.4149 12.9629C26.7635 12.4272 25.938 12.1496 25.0953 12.1829C24.2504 12.156 23.4238 12.4327 22.7654 12.9629C22.1057 13.5203 21.5973 14.2352 21.2874 15.0413L19.1372 20.7377H15.3652C15.064 20.7377 14.7749 20.857 14.5614 21.0696C14.3479 21.2821 14.2273 21.5706 14.2259 21.8719C14.2259 22.1849 14.3503 22.4851 14.5717 22.7065C14.793 22.9278 15.0932 23.0522 15.4063 23.0522H18.2699L17.8285 24.1966H15.2626C14.9604 24.1966 14.6706 24.3166 14.457 24.5303C14.2433 24.7439 14.1233 25.0337 14.1233 25.3359C14.1233 25.6453 14.2459 25.9422 14.4642 26.1614C14.6825 26.3807 14.9788 26.5046 15.2882 26.506H16.9356L14.1387 34.0704C13.9668 34.4968 13.8713 34.9502 13.8564 35.4098C13.8856 36.0544 14.1655 36.6622 14.6365 37.1033C15.1547 37.5522 15.8189 37.7967 16.5045 37.791C17.0804 37.8225 17.6496 37.6552 18.1168 37.317C18.5839 36.9787 18.9206 36.4902 19.0704 35.9332L20.1533 32.7053H30.1143L31.1971 36.0102C31.3666 36.5485 31.7113 37.0147 32.1762 37.3345C32.6412 37.6544 33.1997 37.8097 33.763 37.7756C34.1943 37.7842 34.6199 37.6761 34.9947 37.4625C35.3198 37.2212 35.6085 36.9343 35.8517 36.6106C36.0637 36.2464 36.1719 35.8311 36.1648 35.4098C36.0968 34.9618 35.9904 34.5206 35.8466 34.0909V34.0704Z" fill="#FEFEFE"/>
<defs>
<linearGradient id="paint0_linear_111_3271" x1="10.4126" y1="9.20148" x2="44.3293" y2="45.9355" gradientUnits="userSpaceOnUse">
<stop stop-color="#FC8F55"/>
<stop offset="0.44" stop-color="#FE7A6A"/>
<stop offset="1" stop-color="#FE687C"/>
</linearGradient>
</defs>
</svg>
