<svg width="160" height="160" viewBox="0 0 160 160" fill="none" xmlns="http://www.w3.org/2000/svg">
<path d="M155.544 98.9865L155.45 99.3629C144.873 140.924 102.68 166.17 61.0149 155.782C19.2421 145.364 -6.18806 103.039 4.23389 61.257L4.23401 61.2565C14.6468 19.4661 56.9691 -5.96563 98.7464 4.45164L98.7466 4.45167C140.534 14.869 165.963 57.1985 155.544 98.9865Z" stroke="white" stroke-width="4"/>
<path d="M115.277 68.6022C116.869 57.956 108.764 52.2332 97.6804 48.4156L101.276 33.9943L92.4972 31.8068L88.9971 45.8484C86.6892 45.2728 84.3192 44.7305 81.9636 44.1928L85.4892 30.0585L76.716 27.8711L73.1185 42.2877C71.2086 41.8529 69.3329 41.4231 67.513 40.9703L67.5232 40.9249L55.4172 37.9019L53.0819 47.278C53.0819 47.278 59.595 48.771 59.4577 48.8629C63.0126 49.7502 63.6555 52.1034 63.5487 53.9686L59.453 70.3979C59.6978 70.46 60.0153 70.55 60.3657 70.6907C60.0728 70.618 59.7612 70.5386 59.4378 70.4612L53.697 93.4762C53.2626 94.5562 52.1599 96.1771 49.6745 95.5616C49.7625 95.6891 43.294 93.9693 43.294 93.9693L38.9355 104.018L50.3596 106.866C52.4848 107.399 54.5675 107.957 56.6184 108.481L52.9857 123.068L61.7543 125.255L65.3518 110.823C67.7472 111.473 70.0719 112.073 72.3477 112.639L68.7623 127.003L77.5414 129.19L81.1737 114.631C96.1432 117.464 107.399 116.322 112.137 102.782C115.955 91.8804 111.947 85.5926 104.071 81.4922C109.807 80.1694 114.128 76.3967 115.28 68.6034L115.277 68.6014L115.277 68.6022ZM95.2196 96.7276C92.5066 107.629 74.1523 101.736 68.2016 100.258L73.0223 80.9334C78.9726 82.419 98.055 85.3588 95.22 96.7276H95.2196ZM97.9346 68.4443C95.4597 78.3601 80.1832 73.3224 75.2277 72.0871L79.5983 54.5606C84.5538 55.7959 100.513 58.1014 97.9353 68.4443H97.9346Z" fill="white"/>
</svg>
