<svg width="140" height="140" viewBox="0 0 140 140" fill="none" xmlns="http://www.w3.org/2000/svg">
<path d="M137.816 87.0179C128.467 124.518 90.4854 147.34 52.9806 137.989C15.4915 128.64 -7.33044 90.6557 2.02267 53.1583C11.3676 15.6539 49.3493 -7.16984 86.8425 2.17917C124.345 11.5282 147.165 49.5165 137.815 87.0186L137.816 87.0179H137.816Z" fill="#F7931A"/>
<path d="M100.867 60.027C102.261 50.7115 95.1686 45.7041 85.4706 42.3636L88.6167 29.745L80.9353 27.831L77.8727 40.1174C75.8533 39.6137 73.7795 39.1392 71.7184 38.6687L74.8032 26.3012L67.1267 24.3872L63.9789 37.0017C62.3078 36.6212 60.6665 36.2452 59.0741 35.849L59.083 35.8093L48.4903 33.1641L46.4469 41.3683C46.4469 41.3683 52.1458 42.6746 52.0257 42.755C55.1363 43.5314 55.6988 45.5905 55.6054 47.2225L52.0216 61.5981C52.2358 61.6525 52.5137 61.7312 52.8202 61.8544C52.564 61.7908 52.2913 61.7213 52.0083 61.6535L46.9851 81.7917C46.605 82.7367 45.6401 84.1549 43.4654 83.6164C43.5424 83.7279 37.8825 82.2231 37.8825 82.2231L34.0688 91.0158L44.0649 93.5077C45.9245 93.9741 47.7468 94.462 49.5414 94.9208L46.3628 107.684L54.0352 109.598L57.183 96.9703C59.2791 97.5393 61.3132 98.0642 63.3045 98.5589L60.1673 111.127L67.849 113.041L71.0272 100.302C84.1256 102.781 93.9744 101.781 98.12 89.9339C101.46 80.3954 97.9537 74.8935 91.0627 71.3057C96.0818 70.1482 99.8622 66.8471 100.87 60.028L100.868 60.0263L100.867 60.027ZM83.3174 84.6367C80.9435 94.1752 64.8835 89.019 59.6766 87.726L63.8947 70.8168C69.1013 72.1166 85.7983 74.6889 83.3177 84.6367H83.3174ZM85.693 59.8887C83.5275 68.5651 70.1606 64.1571 65.8245 63.0762L69.6487 47.7406C73.9848 48.8214 87.9488 50.8388 85.6936 59.8887H85.693Z" fill="white"/>
</svg>
