<svg width="60" height="60" viewBox="0 0 60 60" fill="none" xmlns="http://www.w3.org/2000/svg">
<path d="M30 60C46.5685 60 60 46.5685 60 30C60 13.4315 46.5685 0 30 0C13.4315 0 0 13.4315 0 30C0 46.5685 13.4315 60 30 60Z" fill="url(#paint0_radial_31_542)"/>
<path d="M25.3784 36.2702L42.2973 19.3243C42.2973 19.3243 34.5676 9.94592 22.4324 15.1892C22.4324 15.1892 11.973 19.6216 13.1527 31.3421C13.5792 35.5789 15.3568 39.5751 18.5054 42.4416C21.3749 45.054 25.8195 47.4208 32.1892 46.5946C32.1892 46.5946 36.8378 46.054 40.3513 42.5946L44.2973 46.4865C44.2973 46.4865 34.0541 57.1892 18.5676 49.1621C18.5676 49.1621 10.1892 44.9729 7.81081 33.5135C7.81081 33.5135 5.37838 18.5405 19 10.8648C19 10.8648 33.4865 2.37836 45.2162 14.4865L47.2162 12.7567C47.2162 12.7567 37.2973 1.72971 22.2432 6.75673C22.2432 6.75673 8.72973 10.8648 5.97297 23.6757C5.97297 23.6757 2.02703 38.4054 12.5135 47.7027C12.5135 47.7027 23.6216 59 38.9189 52.7838C38.9189 52.7838 43.1892 51.5405 47.8108 46.5405L40.4054 39.0811C40.4054 39.0811 35.4595 46.3513 25.9189 43.6216C25.9189 43.6216 13.4324 40.9189 15.9459 26.5946C15.9459 26.5946 17.8378 16.9459 29.0811 15.9729C29.0811 15.9729 34.4324 15.5675 38.5676 19.2162L23.5946 34.4054L25.3784 36.2702Z" fill="white"/>
<defs>
<radialGradient id="paint0_radial_31_542" cx="0" cy="0" r="1" gradientUnits="userSpaceOnUse" gradientTransform="translate(24.0074 12.8019) scale(64.0173)">
<stop stop-color="#F2EC05"/>
<stop offset="0.06" stop-color="#EDEB07"/>
<stop offset="0.13" stop-color="#DFE70C"/>
<stop offset="0.2" stop-color="#C8E114"/>
<stop offset="0.28" stop-color="#A8D820"/>
<stop offset="0.35" stop-color="#7ECD2F"/>
<stop offset="0.43" stop-color="#4CBF41"/>
<stop offset="0.47" stop-color="#2FB74B"/>
<stop offset="0.55" stop-color="#33B765"/>
<stop offset="0.62" stop-color="#37B77A"/>
<stop offset="0.67" stop-color="#38B782"/>
<stop offset="0.84" stop-color="#0AAEA4"/>
</radialGradient>
</defs>
</svg>
