<svg width="60" height="60" viewBox="0 0 60 60" fill="none" xmlns="http://www.w3.org/2000/svg">
<path d="M29.9969 59.9938C46.5638 59.9938 59.9938 46.5638 59.9938 29.9969C59.9938 13.4301 46.5638 0 29.9969 0C13.4301 0 0 13.4301 0 29.9969C0 46.5638 13.4301 59.9938 29.9969 59.9938Z" fill="url(#paint0_linear_31_510)"/>
<path d="M26.0987 33.2053L30.0893 21.0612L34.1537 33.2053H26.0987ZM43.0155 40.8846L39.7147 31.8196H41.6853C42.0627 31.8164 42.4235 31.6647 42.6898 31.3972C42.9561 31.1298 43.1063 30.7683 43.1079 30.3909C43.1079 30.213 43.0728 30.0368 43.0047 29.8725C42.9367 29.7081 42.8369 29.5587 42.7111 29.4329C42.5852 29.3071 42.4359 29.2073 42.2715 29.1392C42.1071 29.0712 41.931 29.0361 41.7531 29.0361H38.6739L38.1813 27.6259H41.6853C42.0546 27.626 42.4094 27.4818 42.674 27.2242C42.9386 26.9665 43.0921 26.6156 43.1017 26.2464C43.1025 26.0594 43.0663 25.874 42.9951 25.7011C42.9239 25.5281 42.8191 25.371 42.6869 25.2387C42.5546 25.1064 42.3975 25.0017 42.2245 24.9305C42.0515 24.8593 41.8662 24.823 41.6792 24.8239H37.1282L34.6649 18.0498C34.2969 17.0819 33.6886 16.2236 32.8975 15.5557C32.1158 14.9128 31.1252 14.5797 30.1139 14.6196C29.1 14.5874 28.1082 14.9195 27.3181 15.5557C26.5264 16.2245 25.9164 17.0824 25.5445 18.0498L22.9642 24.8854H18.4379C18.0763 24.8854 17.7295 25.0286 17.4733 25.2837C17.2171 25.5387 17.0723 25.8849 17.0707 26.2464C17.0707 26.6221 17.2199 26.9823 17.4856 27.248C17.7512 27.5136 18.1115 27.6628 18.4871 27.6628H21.9234L21.3938 29.0361H18.3147C17.9521 29.0361 17.6044 29.1801 17.348 29.4365C17.0916 29.6929 16.9475 30.0407 16.9475 30.4032C16.9475 30.7746 17.0946 31.1308 17.3566 31.3939C17.6186 31.6571 17.9742 31.8057 18.3455 31.8073H20.3223L16.966 40.8846C16.7597 41.3964 16.6451 41.9404 16.6273 42.4919C16.6623 43.2655 16.9982 43.9948 17.5634 44.5242C18.1853 45.0628 18.9823 45.3562 19.805 45.3494C20.496 45.3872 21.1791 45.1864 21.7397 44.7805C22.3003 44.3747 22.7044 43.7884 22.8841 43.1201L24.1835 39.2465H36.1367L37.4361 43.2124C37.6395 43.8584 38.0531 44.4178 38.6111 44.8016C39.169 45.1855 39.8392 45.3718 40.5152 45.3309C41.0328 45.3413 41.5435 45.2115 41.9932 44.9552C42.3834 44.6657 42.7297 44.3214 43.0217 43.933C43.276 43.4959 43.4059 42.9975 43.3973 42.4919C43.3158 41.9544 43.188 41.4249 43.0155 40.9093V40.8846Z" fill="#FEFEFE"/>
<defs>
<linearGradient id="paint0_linear_31_510" x1="12.4951" y1="11.0418" x2="53.1951" y2="55.1227" gradientUnits="userSpaceOnUse">
<stop stop-color="#FC8F55"/>
<stop offset="0.44" stop-color="#FE7A6A"/>
<stop offset="1" stop-color="#FE687C"/>
</linearGradient>
</defs>
</svg>
