<svg width="60" height="60" viewBox="0 0 60 60" fill="none" xmlns="http://www.w3.org/2000/svg">
<path d="M30 60C46.5685 60 60 46.5685 60 30C60 13.4315 46.5685 0 30 0C13.4315 0 0 13.4315 0 30C0 46.5685 13.4315 60 30 60Z" fill="#47B95C"/>
<path d="M30 11.25C19.65 11.25 11.25 19.65 11.25 30C11.25 30.2494 11.2744 30.4875 11.2875 30.7369H20.0869L24.3375 23.4244L30 31.5375L35.6494 23.4244L39.9 30.7369H48.6994C48.7125 30.4875 48.7369 30.2494 48.7369 30C48.75 19.65 40.35 11.25 30 11.25ZM42.9244 28.4756C42.1631 22.0125 36.6619 16.9875 30 16.9875C23.3381 16.9875 17.8369 22.0256 17.0756 28.4756H14.7994C15.5625 20.7619 22.0875 14.7244 30 14.7244C37.9125 14.7244 44.4244 20.7619 45.2006 28.4756H42.9244Z" fill="white"/>
<path d="M35.4881 27.6244L30 35.4994L24.5118 27.6244L21.3881 33H11.5125C12.9506 41.925 20.6625 48.75 30 48.75C39.3375 48.75 47.0493 41.925 48.4875 32.9869H38.6118L35.4881 27.6244ZM41.9006 35.25H44.325C42.1743 41.0869 36.5756 45.2756 30 45.2756C23.4243 45.2756 17.8256 41.0869 15.675 35.25H18.0993C20.1243 39.8119 24.6881 43.0125 30 43.0125C35.3118 43.0125 39.8756 39.8119 41.9006 35.25Z" fill="white"/>
</svg>
