<svg width="60" height="60" viewBox="0 0 60 60" fill="none" xmlns="http://www.w3.org/2000/svg">
<path d="M29.8071 0C13.35 0 0 13.3714 0 29.8286C0 46.2857 13.3714 59.6571 29.8286 59.6571C46.2857 59.6571 59.6571 46.3071 59.6571 29.8286C59.6571 13.35 46.2857 0 29.8071 0Z" fill="#0066CC"/>
<path d="M29.8071 54.0643C43.1921 54.0643 54.0428 43.2136 54.0428 29.8285C54.0428 16.4435 43.1921 5.59283 29.8071 5.59283C16.4221 5.59283 5.57141 16.4435 5.57141 29.8285C5.57141 43.2136 16.4221 54.0643 29.8071 54.0643Z" fill="#002352"/>
<path d="M37.2857 17.6786L38.1429 15.45C38.2286 15.2143 38.0572 14.9786 37.8215 14.9786H34.6286L33.6 17.6143H32.1857L33 15.45C33.0857 15.2143 32.9143 14.9786 32.6786 14.9786H29.4857L28.5 17.6143H18.4929C18.0429 17.6143 17.6143 17.8714 17.3786 18.2571L14.8929 22.65H33.5572C34.1786 22.65 34.7786 22.7571 35.3572 22.9929C36.4715 23.4429 37.7786 24.4714 37.4357 26.7857C36.9 30.6643 32.9357 37.5214 24.3643 37.6286L28.8 26.1C28.9715 25.6286 28.6286 25.1357 28.1143 25.1357H22.1786L15 42.75C15 42.75 16.4357 42.9214 18.7072 42.9214L17.9786 44.7643H21.2572C21.5143 44.7643 21.75 44.6143 21.8357 44.3572L22.4572 42.7714C22.95 42.7286 23.4215 42.6643 23.9357 42.6214L23.1215 44.7643H26.4C26.6572 44.7643 26.8929 44.6143 26.9786 44.3572L27.9215 41.9357C33.3 40.7143 39.0429 38.0357 42.4929 32.4214C49.4143 21.1071 42.2357 18.1929 37.2857 17.6786Z" fill="white"/>
</svg>
