<svg width="60" height="60" viewBox="0 0 60 60" fill="none" xmlns="http://www.w3.org/2000/svg">
<path d="M59.9463 29.9895C59.9463 46.4761 46.5821 59.8403 30.0955 59.8403C13.6095 59.8403 0.244774 46.4761 0.244774 29.9895C0.244774 13.5033 13.6095 0.138794 30.0955 0.138794C46.5821 0.138794 59.9463 13.5033 59.9463 29.9895Z" fill="#1BA27A"/>
<path d="M44.1054 15.1913H15.8397V22.0152H26.5606V32.0451H33.3845V22.0152H44.1054V15.1913Z" fill="white"/>
<path d="M30.0373 33.1134C21.1686 33.1134 13.9785 31.7098 13.9785 29.9782C13.9785 28.2468 21.1683 26.843 30.0373 26.843C38.906 26.843 46.0958 28.2468 46.0958 29.9782C46.0958 31.7098 38.906 33.1134 30.0373 33.1134ZM48.0687 30.5009C48.0687 28.268 39.9958 26.4582 30.0373 26.4582C20.0791 26.4582 12.0057 28.268 12.0057 30.5009C12.0057 32.4672 18.2657 34.1054 26.5609 34.4683V48.8666H33.3842V34.474C41.7433 34.1224 48.0687 32.4773 48.0687 30.5009Z" fill="white"/>
</svg>
