<svg width="15" height="18" viewBox="0 0 15 18" fill="none" xmlns="http://www.w3.org/2000/svg">
<path fill-rule="evenodd" clip-rule="evenodd" d="M4.16667 0.666687C3.70643 0.666687 3.33333 1.03978 3.33333 1.50002V2.33335H2.5C1.11929 2.33335 0 3.45264 0 4.83335V6.50002V14.8334C0 16.2141 1.11929 17.3334 2.5 17.3334H12.5C13.8807 17.3334 15 16.2141 15 14.8334V6.50002V4.83335C15 3.45264 13.8807 2.33335 12.5 2.33335H11.6667V1.50002C11.6667 1.03978 11.2936 0.666687 10.8333 0.666687C10.3731 0.666687 10 1.03978 10 1.50002V2.33335H5V1.50002C5 1.03978 4.6269 0.666687 4.16667 0.666687ZM10.8333 4.00002H4.16667H2.5C2.03976 4.00002 1.66667 4.37312 1.66667 4.83335V5.66669H13.3333V4.83335C13.3333 4.37312 12.9602 4.00002 12.5 4.00002H10.8333ZM1.66667 14.8334V7.33335L13.3333 7.33335V14.8334C13.3333 15.2936 12.9602 15.6667 12.5 15.6667H2.5C2.03976 15.6667 1.66667 15.2936 1.66667 14.8334Z" fill="#315BEF"/>
</svg>
