<svg width="17" height="18" viewBox="0 0 17 18" fill="none" xmlns="http://www.w3.org/2000/svg">
<path fill-rule="evenodd" clip-rule="evenodd" d="M5.36718 4.00686C5.45845 4.00232 5.55031 4.00002 5.64269 4.00002H8.85698C11.3572 4.00002 13.4561 5.69083 14.1168 7.98179C14.738 7.68091 15.1665 7.04435 15.1665 6.30771V5.47061C15.1665 3.73795 13.7619 2.33335 12.0292 2.33335H7.86258C6.73552 2.33335 5.76999 3.02493 5.36718 4.00686ZM14.3308 9.68257C14.2483 12.5015 12.0401 14.812 9.24558 14.9944L7.08976 16.8989C5.9765 17.8824 4.229 17.088 4.229 15.5985V14.9087C1.91262 14.4464 0.166504 12.3927 0.166504 9.92919V9.50301C0.166504 7.21162 1.56016 5.24733 3.54215 4.4194C3.83887 2.29871 5.66013 0.666687 7.86258 0.666687H12.0292C14.6824 0.666687 16.8332 2.81747 16.8332 5.47061V6.30771C16.8332 7.89901 15.7789 9.24408 14.3308 9.68257ZM8.39005 13.5202L5.98932 15.641C5.95288 15.6732 5.89567 15.6472 5.89567 15.5985V14.0116C5.89567 14.0003 5.89539 13.9891 5.89485 13.9779C5.88819 13.8404 5.8409 13.7136 5.76479 13.6094C5.64157 13.4407 5.4428 13.3312 5.21859 13.3312C3.34887 13.3312 1.83317 11.8081 1.83317 9.92919V9.50301C1.83317 7.38877 3.53875 5.67484 5.64269 5.67484H8.85698C10.9609 5.67484 12.6665 7.40487 12.6665 9.51911C12.6665 11.6156 10.9752 13.3312 8.88889 13.3312C8.70527 13.3312 8.52795 13.3984 8.39005 13.5202Z" fill="#315BEF"/>
</svg>
