<svg width="80" height="80" viewBox="0 0 80 80" fill="none" xmlns="http://www.w3.org/2000/svg">
<path d="M78.743 49.7348C73.4007 71.1636 51.6968 84.2047 30.2655 78.861C8.84317 73.5188 -4.19796 51.8135 1.14667 30.3865C6.48661 8.95536 28.1905 -4.08676 49.6152 1.25553C71.0449 6.59782 84.0853 28.3054 78.7424 49.7352L78.7428 49.7348H78.743Z" fill="#F7931A"/>
<path d="M57.6384 34.3011C58.4346 28.978 54.3819 26.1166 48.8402 24.2078L50.638 16.9971L46.2486 15.9034L44.4986 22.9242C43.3446 22.6364 42.1596 22.3652 40.9818 22.0964L42.7446 15.0293L38.358 13.9355L36.5592 21.1438C35.6043 20.9264 34.6664 20.7116 33.7565 20.4851L33.7616 20.4625L27.7086 18.9509L26.541 23.639C26.541 23.639 29.7975 24.3855 29.7289 24.4314C31.5063 24.8751 31.8277 26.0517 31.7744 26.9843L29.7265 35.1989C29.8489 35.23 30.0077 35.275 30.1829 35.3454C30.0364 35.309 29.8806 35.2693 29.7189 35.2306L26.8485 46.7381C26.6313 47.2781 26.0799 48.0885 24.8372 47.7808C24.8812 47.8445 21.647 46.9847 21.647 46.9847L19.4678 52.009L25.1798 53.433C26.2424 53.6995 27.2837 53.9783 28.3092 54.2405L26.4929 61.5338L30.8771 62.6275L32.6759 55.4116C33.8736 55.7367 35.036 56.0367 36.1739 56.3194L34.3812 63.5013L38.7707 64.595L40.5869 57.3153C48.0716 58.7319 53.6996 58.1608 56.0684 51.3908C57.9773 45.9402 55.9734 42.7963 52.0357 40.7461C54.9037 40.0847 57.064 38.1983 57.64 34.3017L57.6386 34.3007L57.6384 34.3011ZM47.6098 48.3638C46.2533 53.8144 37.0762 50.868 34.1008 50.1291L36.5111 40.4667C39.4863 41.2095 49.0275 42.6794 47.61 48.3638H47.6098ZM48.9673 34.2221C47.7299 39.18 40.0916 36.6612 37.6138 36.0436L39.7991 27.2803C42.2769 27.898 50.2563 29.0507 48.9677 34.2221H48.9673Z" fill="white"/>
</svg>
