<svg width="80" height="80" viewBox="0 0 80 80" fill="none" xmlns="http://www.w3.org/2000/svg">
<path d="M79.8658 40.094C79.8658 62.0761 62.0465 79.895 40.0649 79.895C18.0828 79.895 0.26387 62.0761 0.26387 40.094C0.26387 18.1123 18.0828 0.292969 40.0649 0.292969C62.0465 0.292969 79.8658 18.1123 79.8658 40.094Z" fill="#020100"/>
<path d="M64.9936 29.7301C62.7451 28.1575 60.3407 26.4809 57.9883 24.8174C57.9363 24.7784 57.8844 24.7394 57.8194 24.7004C57.5594 24.5054 57.2605 24.2975 56.8966 24.1805L56.8706 24.1675C50.5802 22.6469 44.1858 21.0873 37.9993 19.5797C32.3847 18.215 26.7831 16.8504 21.1685 15.4857C21.0256 15.4467 20.8826 15.4077 20.7266 15.3687C20.2198 15.2258 19.6349 15.0698 19.0111 15.1478C18.8291 15.1738 18.6732 15.2388 18.5302 15.3297L18.3742 15.4597C18.1273 15.6936 17.9973 15.9926 17.9323 16.1615L17.8934 16.2655V16.8633L17.9193 16.9543C21.4675 26.8968 25.1066 36.9823 28.6157 46.7429C31.319 54.255 34.1263 62.0401 36.8686 69.6821C37.0376 70.202 37.5185 70.5399 38.1163 70.5919H38.2463C38.8051 70.5919 39.299 70.319 39.5459 69.8771L49.8394 54.8658C52.3477 51.2138 54.8561 47.5487 57.3645 43.8966C58.3912 42.402 59.418 40.8943 60.4447 39.3997C62.1343 36.9303 63.8759 34.383 65.6044 31.9006L65.6954 31.7706V31.6147C65.7344 31.1598 65.7474 30.224 64.9936 29.7301ZM52.9326 35.2018C50.5152 36.4624 48.0458 37.7621 45.5634 39.0488C47.0061 37.5022 48.4617 35.9426 49.9044 34.396C51.7109 32.4464 53.5954 30.432 55.441 28.4564L55.48 28.4175C55.6359 28.2095 55.8309 28.0146 56.0388 27.8066C56.1818 27.6636 56.3377 27.5207 56.4807 27.3517C57.4425 28.0146 58.4172 28.6904 59.353 29.3532C60.0288 29.8341 60.7177 30.315 61.4195 30.7959C58.5602 32.2515 55.7009 33.7461 52.9326 35.2018ZM46.7201 34.5779C44.8616 36.5924 42.9381 38.6589 41.0276 40.6994C37.3235 36.2025 33.5414 31.6407 29.8764 27.2348C28.2128 25.2333 26.5362 23.2188 24.8726 21.2173L24.8596 21.2043C24.4827 20.7754 24.1188 20.3075 23.7549 19.8656C23.521 19.5667 23.274 19.2807 23.0271 18.9818C24.5347 19.3717 26.0553 19.7356 27.5499 20.0865C28.8626 20.3985 30.2273 20.7234 31.5659 21.0613C39.1041 22.8938 46.6552 24.7264 54.1933 26.5589C51.6849 29.2363 49.1635 31.9526 46.7201 34.5779ZM40.1828 59.9086C40.3257 58.5439 40.4817 57.1403 40.6117 55.7626C40.7286 54.6579 40.8456 53.5272 40.9626 52.4485C41.1445 50.7199 41.3395 48.9263 41.4955 47.1718L41.5344 46.8598C41.6644 45.7421 41.7944 44.5854 41.8724 43.4287C42.0153 43.3507 42.1713 43.2727 42.3402 43.2078C42.5352 43.1168 42.7301 43.0388 42.9251 42.9218C45.9273 41.3492 48.9296 39.7766 51.9448 38.217C54.9471 36.6574 58.0273 35.0458 61.0816 33.4472C58.3003 37.4762 55.506 41.5442 52.8026 45.5082C50.4762 48.9003 48.0848 52.3965 45.7064 55.8406C44.7706 57.2183 43.7959 58.6219 42.8731 59.9736C41.8334 61.4812 40.7676 63.0278 39.7279 64.5744C39.8579 63.0148 40.0138 61.4422 40.1828 59.9086ZM22.0653 22.0491C21.8964 21.5812 21.7144 21.1003 21.5584 20.6454C25.0676 24.8823 28.6027 29.1453 32.0468 33.2782C33.8274 35.4227 35.6079 37.5542 37.3885 39.7116C37.7394 40.1145 38.0903 40.5434 38.4282 40.9593C38.8701 41.4922 39.312 42.0511 39.7929 42.5839C39.6369 43.9226 39.507 45.2742 39.364 46.5739C39.273 47.4837 39.182 48.3935 39.0781 49.3162V49.3292C39.0391 49.9141 38.9611 50.4989 38.8961 51.0708C38.8051 51.8636 38.5972 53.6571 38.5972 53.6571L38.5842 53.7481C38.3502 56.3735 38.0643 59.0248 37.7914 61.5982C37.6744 62.6639 37.5704 63.7556 37.4535 64.8474C37.3885 64.6524 37.3105 64.4574 37.2455 64.2755C37.0506 63.7556 36.8556 63.2098 36.6737 62.6769L35.283 58.8169C30.8771 46.5609 26.4712 34.318 22.0653 22.0491Z" fill="white"/>
</svg>
