<svg width="80" height="80" viewBox="0 0 80 80" fill="none" xmlns="http://www.w3.org/2000/svg">
<path d="M0.764359 79.49V60.8403H11.6688V18.3435H0.815314V0.458182H2.39493C17.0701 0.458182 31.6433 0.509137 46.3185 0.407227C49.5796 0.407227 52.4332 1.27347 55.2867 2.39449C61.0446 4.58557 66.0892 7.99958 70.1147 12.7894C73.6816 17.0696 76.1274 22.0123 77.4013 27.4136C79.5414 36.7894 79.5924 46.2671 76.8917 55.541C73.3249 67.6174 65.6816 75.9231 52.9937 78.7257C50.8026 79.2353 48.4586 79.541 46.1656 79.541H2.5478C1.98729 79.49 1.42678 79.49 0.764359 79.49ZM33.8854 60.7894C36.3822 60.7894 38.7771 60.9423 41.172 60.7384C44.2803 60.4327 47.0828 59.4646 49.172 56.7639C50.9554 54.4709 52.5351 52.1779 53.2994 49.4773C54.9809 43.5665 54.3185 37.5537 53.1465 31.5919C52.4841 28.0251 50.8026 24.7639 48.5605 22.0633C47.2357 20.5346 45.4013 18.8021 43.5669 18.4964C40.5096 17.9359 37.1975 18.3435 33.8854 18.3435V60.7894Z" fill="#C2A633"/>
</svg>
