<svg width="80" height="80" viewBox="0 0 80 80" fill="none" xmlns="http://www.w3.org/2000/svg">
<g clip-path="url(#clip0_31_1157)">
<path fill-rule="evenodd" clip-rule="evenodd" d="M14.6573 7.02355L0.0640335 37.8421C0.0056788 37.9537 -0.0144194 38.0816 0.0068541 38.2059C0.0281276 38.3303 0.0895846 38.444 0.1817 38.5297L39.5751 76.5082C39.6884 76.6109 39.8356 76.6678 39.9882 76.6678C40.1408 76.6678 40.288 76.6109 40.4013 76.5082L79.8182 38.5297C79.9094 38.4434 79.9702 38.3297 79.9914 38.2057C80.0127 38.0816 79.9932 37.954 79.9359 37.8421L65.3427 7.02355C65.3039 6.91635 65.2325 6.8242 65.1386 6.76022C65.0447 6.69624 64.9331 6.66371 64.8197 6.66725H15.175C15.0631 6.67033 14.9545 6.70551 14.8618 6.76863C14.7691 6.83176 14.6964 6.9202 14.652 7.02355H14.6573Z" fill="url(#paint0_linear_31_1157)"/>
<path fill-rule="evenodd" clip-rule="evenodd" d="M45.0688 40.9953C44.7864 41.019 43.3247 41.1136 40.0706 41.1136C37.478 41.1136 35.6385 41.0426 34.9782 40.9953C24.9596 40.5457 17.4865 38.7905 17.4865 36.704C17.4865 34.6176 24.9596 32.8401 34.9782 32.3904V39.2415C35.6319 39.2888 37.5015 39.4071 40.0941 39.4071C43.2057 39.4071 44.7615 39.2651 45.0452 39.2415V32.3904C55.0403 32.8401 62.5135 34.5952 62.5135 36.6804C62.5135 38.7655 55.0613 40.5457 45.0688 40.9953ZM45.0688 31.7028V25.5617H59.0253V16.1982H21.023V25.5617H34.9782V31.7028C23.6391 32.2287 15.1057 34.4756 15.1057 37.2023C15.1057 39.9291 23.6391 42.1575 34.9782 42.7018V62.3557H45.0688V42.7018C56.3844 42.1759 64.8955 39.9277 64.8955 37.226C64.8955 34.5242 56.3844 32.2234 45.0688 31.7041V31.7028Z" fill="white"/>
</g>
<defs>
<linearGradient id="paint0_linear_31_1157" x1="-1.26741" y1="40.4389" x2="76.3273" y2="40.4389" gradientUnits="userSpaceOnUse">
<stop stop-color="#D8B35D"/>
<stop offset="1" stop-color="#F5E7BF"/>
</linearGradient>
<clipPath id="clip0_31_1157">
<rect width="80" height="80" fill="white"/>
</clipPath>
</defs>
</svg>
