<svg width="80" height="80" viewBox="0 0 80 80" fill="none" xmlns="http://www.w3.org/2000/svg">
<path d="M49.6564 49.4969V49.2705" stroke="#ABABAB" stroke-width="0.3333" stroke-miterlimit="1.3333"/>
<path d="M67.5455 28.244L80 6.66699C76.8945 7.05518 73.8536 7.99332 71.0392 9.38434C68.6454 14.075 68.5807 18.798 65.7016 23.0034C55.5762 37.8841 38.5605 42.5101 23.6474 32.7406C15.0748 27.1441 9.93126 12.6516 8.96078 9.38434C6.14638 7.99332 3.10554 7.05518 0 6.66699C4.14072 13.8486 8.31379 21.0625 12.4545 28.244C27.6264 33.5817 37.7194 51.9885 39.9191 66.0928C41.8601 49.8211 53.3441 34.5522 67.5455 28.244Z" fill="url(#paint0_linear_31_1143)"/>
<path d="M67.5456 28.2422C46.8096 33.871 34.5169 55.1892 40.0163 75.9575L67.5456 28.2422Z" fill="url(#paint1_linear_31_1143)"/>
<path d="M12.4544 28.2422L39.9838 75.9575C45.4832 55.1892 33.1904 33.9033 12.4544 28.2422Z" fill="url(#paint2_linear_31_1143)"/>
<path d="M66.478 23.1979C69.0659 19.0249 70.651 14.3019 71.0716 9.38477C64.3106 12.7491 59.1347 18.669 56.7408 25.8182C51.3708 41.8959 28.6616 41.8959 23.2916 25.8182C20.8654 18.669 15.7218 12.7491 8.96078 9.41712C10.4165 26.5623 25.4913 39.2756 42.6365 37.8199C52.4383 36.9788 61.2697 31.5764 66.478 23.1979Z" fill="url(#paint3_linear_31_1143)"/>
<defs>
<linearGradient id="paint0_linear_31_1143" x1="40.0077" y1="6.67588" x2="40.0077" y2="66.1215" gradientUnits="userSpaceOnUse">
<stop stop-color="#0090FF"/>
<stop offset="1" stop-color="#0A3979"/>
</linearGradient>
<linearGradient id="paint1_linear_31_1143" x1="38.7001" y1="52.1023" x2="67.5421" y2="52.1023" gradientUnits="userSpaceOnUse">
<stop stop-color="#0090FF"/>
<stop offset="0.96" stop-color="#084A93"/>
<stop offset="1" stop-color="#084A93"/>
</linearGradient>
<linearGradient id="paint2_linear_31_1143" x1="26.8828" y1="28.25" x2="26.8828" y2="75.9511" gradientUnits="userSpaceOnUse">
<stop stop-color="#0090FF"/>
<stop offset="0.96" stop-color="#084A93"/>
<stop offset="1" stop-color="#084A93"/>
</linearGradient>
<linearGradient id="paint3_linear_31_1143" x1="39.9979" y1="37.9217" x2="39.9979" y2="9.39123" gradientUnits="userSpaceOnUse">
<stop stop-color="#13D5D2"/>
<stop offset="0.43" stop-color="#12E0E4"/>
<stop offset="1" stop-color="#76BDFF"/>
</linearGradient>
</defs>
</svg>
