<svg width="80" height="80" viewBox="0 0 80 80" fill="none" xmlns="http://www.w3.org/2000/svg">
<path fill-rule="evenodd" clip-rule="evenodd" d="M65.8663 14.4944L67.0608 10.5462C66.501 10.0315 65.9269 9.53236 65.3384 9.0498L64.1528 12.8662C64.7415 13.3906 65.313 13.9333 65.8663 14.4944Z" fill="#FBC531"/>
<path fill-rule="evenodd" clip-rule="evenodd" d="M14.4428 65.8174L13.2552 69.7427C13.8199 70.2508 14.3995 70.7423 14.9925 71.2179L16.1715 67.4229C15.5777 66.9065 15.0017 66.3706 14.4428 65.8174Z" fill="#FBC531"/>
<path fill-rule="evenodd" clip-rule="evenodd" d="M3.67105 40C3.67105 19.9361 19.9361 3.67105 40 3.67105C46.3731 3.67105 52.3615 5.31397 57.5686 8.19653L58.6535 4.61005C53.0838 1.66813 46.7372 0 40 0C17.9087 0 0 17.9085 0 40C0 48.5339 2.67434 56.4422 7.22794 62.9364L8.64895 58.3616C5.48639 52.9735 3.67105 46.6992 3.67105 40Z" fill="#FBC531"/>
<path fill-rule="evenodd" clip-rule="evenodd" d="M73.0579 17.4766L71.6203 22.1047C74.6164 27.3872 76.3289 33.4937 76.3289 40.0008C76.3289 60.0649 60.0641 76.3297 40 76.3297C33.7677 76.3297 27.9026 74.7595 22.7771 71.9944L21.694 75.5743C27.1795 78.4028 33.4029 80.0008 40 80.0008C62.0913 80.0008 80 62.0921 80 40.0008C80 31.6468 77.4376 23.8921 73.0579 17.4766Z" fill="#FBC531"/>
<path fill-rule="evenodd" clip-rule="evenodd" d="M63.455 15.1122C64.0427 15.6661 64.6106 16.2409 65.1578 16.8349L65.8663 14.4934C65.3131 13.9323 64.7416 13.3896 64.1529 12.8652L63.455 15.1122Z" fill="#FBC531"/>
<path fill-rule="evenodd" clip-rule="evenodd" d="M15.1463 63.4922L14.4427 65.8177C15.0017 66.3709 15.5777 66.9068 16.1715 67.4231L16.8659 65.1872C16.2731 64.6423 15.6996 64.0772 15.1463 63.4922Z" fill="#FBC531"/>
<path fill-rule="evenodd" clip-rule="evenodd" d="M40 76.3303C60.0641 76.3303 76.3289 60.0654 76.3289 40.0013C76.3289 33.4943 74.6164 27.3878 71.6202 22.1052L73.0579 17.4771C71.3274 14.9423 69.3132 12.6174 67.0608 10.5469L54.3377 52.6002L58.3375 64.8669L70.7287 24.9754C72.9506 29.5111 74.2 34.6099 74.2 40.0013C74.2 58.8893 58.888 74.2013 40 74.2013C33.9786 74.2013 28.3218 72.6431 23.4075 69.9111L30.8491 45.3144L26.8493 33.0477L14.9925 71.2187C17.0674 72.8828 19.3103 74.3456 21.694 75.5748L22.7771 71.9949C27.9026 74.76 33.7676 76.3303 40 76.3303Z" fill="white"/>
<path fill-rule="evenodd" clip-rule="evenodd" d="M56.3289 65.3341H50.7985C49.2915 65.3341 47.9614 64.3498 47.5211 62.9087L32.7956 14.7341H37.9896C39.6181 14.7341 41.0562 15.7958 41.536 17.352L56.3289 65.3341ZM41.1618 65.3341C39.6549 65.3341 38.3249 64.3498 37.8844 62.9087L23.1591 14.7341H28.3528C29.9813 14.7341 31.4197 15.7958 31.8995 17.352L46.6924 65.3341H41.1618ZM63.4549 15.1133L53.1507 48.2864L49.1508 36.02L56.9371 10.2837C51.9437 7.43165 46.1623 5.80078 40 5.80078C21.1118 5.80078 5.79997 21.1126 5.79997 40.0008C5.79997 45.5959 7.1439 50.8768 9.52582 55.539L21.6624 16.4674L25.6623 28.7341L15.1463 63.4921C15.6995 64.0771 16.273 64.6422 16.8659 65.1871L26.8493 33.0472L30.8491 45.3138L23.4075 69.9106C28.3218 72.6426 33.9786 74.2008 40 74.2008C58.888 74.2008 74.2 58.8888 74.2 40.0008C74.2 34.6094 72.9507 29.5106 70.7287 24.9748L58.3375 64.8664L54.3377 52.5997L65.1578 16.836C64.6106 16.2421 64.0427 15.6673 63.4549 15.1133Z" fill="#FBC531"/>
<path fill-rule="evenodd" clip-rule="evenodd" d="M15.1463 63.4921L25.6623 28.7342L21.6625 16.4675L9.52585 55.5391C7.14393 50.8768 5.8 45.5959 5.8 40.0008C5.8 21.1126 21.1118 5.80082 40 5.80082C46.1624 5.80082 51.9437 7.43169 56.9372 10.2837L49.1509 36.02L53.1507 48.2865L65.3384 9.04996C63.2727 7.35699 61.0338 5.86804 58.6535 4.61087L57.5686 8.19735C52.3615 5.3148 46.3731 3.67188 40 3.67188C19.9361 3.67188 3.67105 19.9369 3.67105 40.0008C3.67105 46.7 5.48639 52.9743 8.64895 58.3625L7.22795 62.9373C8.97516 65.4291 10.9987 67.7126 13.2552 69.7429L15.1463 63.4921Z" fill="white"/>
<path fill-rule="evenodd" clip-rule="evenodd" d="M37.9896 14.7334H32.7956L47.5211 62.908C47.9615 64.3491 49.2915 65.3334 50.7985 65.3334H56.329L41.5361 17.3513C41.0563 15.7951 39.6181 14.7334 37.9896 14.7334Z" fill="white"/>
<path fill-rule="evenodd" clip-rule="evenodd" d="M28.3529 14.7334H23.1591L37.8844 62.908C38.3249 64.3491 39.655 65.3334 41.1618 65.3334H46.6924L31.8995 17.3513C31.4197 15.7951 29.9814 14.7334 28.3529 14.7334Z" fill="white"/>
</svg>
