<svg  class="main-svg-sprite main-svg-sprite--icons" xmlns="http://www.w3.org/2000/svg" xmlns:xlink="http://www.w3.org/1999/xlink"><symbol viewBox="0 0 12 8" id="arr-d" xmlns="http://www.w3.org/2000/svg"><path clip-rule="evenodd" d="M.41.91a.833.833 0 000 1.18l5 5a.833.833 0 001.18 0l5-5A.833.833 0 1010.41.91L6 5.322 1.59.911a.833.833 0 00-1.18 0z"/></symbol><symbol viewBox="0 0 8 14" id="arr-l" xmlns="http://www.w3.org/2000/svg"><path clip-rule="evenodd" d="M7.707.293a1 1 0 00-1.414 0l-6 6a1 1 0 000 1.414l6 6a1 1 0 001.414-1.414L2.414 7l5.293-5.293a1 1 0 000-1.414z"/></symbol><symbol viewBox="0 0 8 14" id="arr-r" xmlns="http://www.w3.org/2000/svg"><path clip-rule="evenodd" d="M.602.852a.917.917 0 011.296 0l5.5 5.5a.917.917 0 010 1.296l-5.5 5.5a.917.917 0 11-1.296-1.296L5.454 7 .602 2.148a.917.917 0 010-1.296z"/></symbol><symbol viewBox="0 0 10 52" id="arr-r2" xmlns="http://www.w3.org/2000/svg"><path d="M1 1l8 25-8 25" stroke="#E0E0E0"/></symbol><symbol viewBox="0 0 24 14" id="arr-t" xmlns="http://www.w3.org/2000/svg"><path clip-rule="evenodd" d="M.821 13.179a1.667 1.667 0 010-2.357l10-10c.651-.651 1.706-.651 2.357 0l10 10a1.667 1.667 0 11-2.357 2.357L12 4.357 3.178 13.18c-.65.65-1.706.65-2.357 0z"/></symbol><symbol viewBox="0 0 18 18" id="close" xmlns="http://www.w3.org/2000/svg"><path clip-rule="evenodd" d="M17.707 1.707A1 1 0 0016.293.293L9 7.586 1.707.293A1 1 0 00.293 1.707L7.586 9 .293 16.293a1 1 0 101.414 1.414L9 10.414l7.293 7.293a1 1 0 001.414-1.414L10.414 9l7.293-7.293z"/></symbol><symbol viewBox="0 0 18 12" id="menu" xmlns="http://www.w3.org/2000/svg"><g data-name="Layer 2"><path d="M0 12h18v-2H0zm0-5h18V5H0zm0-7v2h18V0z" data-name="Layer 1"/></g></symbol><symbol viewBox="0 0 24 28" id="play" xmlns="http://www.w3.org/2000/svg"><path d="M22.5 11.176c2 1.155 2 4.042 0 5.196l-18 10.393c-2 1.154-4.5-.289-4.5-2.598V3.382C0 1.072 2.5-.37 4.5.784l18 10.392z"/></symbol><symbol viewBox="0 0 18 18" id="search" xmlns="http://www.w3.org/2000/svg"><path clip-rule="evenodd" d="M18 6.75a6.75 6.75 0 01-10.886 5.335.898.898 0 01-.178.251l-5.4 5.4a.9.9 0 11-1.272-1.272l5.4-5.4a.898.898 0 01.251-.178A6.75 6.75 0 1118 6.75zm-1.8 0a4.95 4.95 0 10-9.9 0 4.95 4.95 0 009.9 0z"/></symbol><symbol viewBox="0 0 14.78 14.06" id="star" xmlns="http://www.w3.org/2000/svg"><defs><style>.jcls-1{fill:#ffd15f}</style></defs><g id="jLayer_2" data-name="Layer 2"><path class="jcls-1" d="M7.39 0l2.74 4 4.65 1.37-2.95 3.84.17 4.85-4.61-1.62-4.57 1.62L3 9.21 0 5.37 4.65 4z" id="jLayer_1-2" data-name="Layer 1"/></g></symbol></svg>