<svg width="18" height="18" viewBox="0 0 18 18" fill="none" xmlns="http://www.w3.org/2000/svg">
<path fill-rule="evenodd" clip-rule="evenodd" d="M15.6665 9.00002C15.6665 12.6819 12.6817 15.6667 8.99984 15.6667C5.31794 15.6667 2.33317 12.6819 2.33317 9.00002C2.33317 5.31812 5.31794 2.33335 8.99984 2.33335C12.6817 2.33335 15.6665 5.31812 15.6665 9.00002ZM17.3332 9.00002C17.3332 13.6024 13.6022 17.3334 8.99984 17.3334C4.39746 17.3334 0.666504 13.6024 0.666504 9.00002C0.666504 4.39765 4.39746 0.666687 8.99984 0.666687C13.6022 0.666687 17.3332 4.39765 17.3332 9.00002ZM9.83317 4.83335C9.83317 4.37312 9.46008 4.00002 8.99984 4.00002C8.5396 4.00002 8.1665 4.37312 8.1665 4.83335V9.00002C8.1665 9.26232 8.29 9.50931 8.49984 9.66669L11.8332 12.1667C12.2014 12.4428 12.7237 12.3682 12.9998 12C13.276 11.6318 13.2014 11.1095 12.8332 10.8334L9.83317 8.58335V4.83335Z" fill="#315BEF"/>
</svg>
