<svg width="885" height="587" viewBox="0 0 885 587" fill="none" xmlns="http://www.w3.org/2000/svg">
<path d="M637.021 -437.737C729.914 -416.881 817.004 -395.303 902.738 -353.897C1015.65 -299.365 1159.89 -272.414 1213.8 -159.179C1269.15 -42.9241 1223.08 96.5613 1173.85 215.541C1125.76 331.777 1047.58 433.978 940.858 500.531C835.755 566.077 709.628 601.698 587.475 581.227C472.433 561.947 396.649 462.135 302.305 393.519C201.554 320.245 61.5657 282.789 17.0937 166.398C-28.3481 47.4697 25.7948 -84.2288 74.8749 -201.702C122.514 -315.726 177.864 -443.233 291.78 -491.064C401.842 -537.277 520.553 -463.885 637.021 -437.737Z" fill="#FFD15F"/>
</svg>
