<svg width="18" height="18" viewBox="0 0 18 18" fill="none" xmlns="http://www.w3.org/2000/svg">
<path fill-rule="evenodd" clip-rule="evenodd" d="M8.99984 17.3334C4.39746 17.3334 0.666504 13.6024 0.666504 9.00002C0.666504 4.39765 4.39746 0.666687 8.99984 0.666687C13.6022 0.666687 17.3332 4.39765 17.3332 9.00002C17.3332 13.6024 13.6022 17.3334 8.99984 17.3334ZM8.99984 2.33335C5.31794 2.33335 2.33317 5.31812 2.33317 9.00002C2.33317 10.9077 3.13447 12.6283 4.41885 13.8435C5.0951 12.456 6.51916 11.5 8.1665 11.5H10.2498C11.7849 11.5 13.1045 12.4223 13.6847 13.743C14.9083 12.5344 15.6665 10.8557 15.6665 9.00002C15.6665 5.31812 12.6817 2.33335 8.99984 2.33335ZM12.285 14.8024C12.0802 13.8669 11.2468 13.1667 10.2498 13.1667H8.1665C7.07128 13.1667 6.14054 13.871 5.80248 14.8513C6.75172 15.3712 7.84127 15.6667 8.99984 15.6667C10.1943 15.6667 11.3154 15.3526 12.285 14.8024ZM8.99984 10.6667C7.15889 10.6667 5.6665 9.1743 5.6665 7.33335C5.6665 5.4924 7.15889 4.00002 8.99984 4.00002C10.8408 4.00002 12.3332 5.4924 12.3332 7.33335C12.3332 9.1743 10.8408 10.6667 8.99984 10.6667ZM8.99984 5.66669C8.07936 5.66669 7.33317 6.41288 7.33317 7.33335C7.33317 8.25383 8.07936 9.00002 8.99984 9.00002C9.92031 9.00002 10.6665 8.25383 10.6665 7.33335C10.6665 6.41288 9.92031 5.66669 8.99984 5.66669Z" fill="#315BEF"/>
</svg>
