<svg width="356" height="253" viewBox="0 0 356 253" fill="none" xmlns="http://www.w3.org/2000/svg">
<path d="M232.548 0.0859541V0H124.187L122.674 0.0859541C101.832 0.902499 81.3356 6.79022 63.3475 17.1904H62.1368V17.878C23.7823 40.6983 0 82.2132 0 126.479C0 194.037 54.8723 250.421 122.63 252.871V253H233.11L234.624 252.871C267.097 251.324 297.409 237.743 320.11 214.408C343.244 190.685 356 159.441 356 126.479C356 58.4904 300.738 2.06285 232.505 0.042977L232.548 0.0859541ZM228.743 19.2533C284.221 19.2533 331.093 61.8855 336.153 116.594H254.168C251.228 79.2908 231.294 44.6521 200.42 22.9922C209.63 20.4996 219.143 19.2103 228.743 19.2103V19.2533ZM155.623 23.0352C149.353 27.4187 143.429 32.4469 137.981 37.9479C127.56 30.6849 116.188 25.2699 104.123 21.7889C121.16 18.0499 138.932 18.5227 155.623 23.0352ZM140.402 65.0657C154.542 79.2478 163.839 96.9969 167.428 116.637H121.333C123.063 98.0713 129.635 80.3222 140.402 65.0657ZM68.7958 36.4867H71.8227C90.9783 36.4867 109.485 42.1165 125.441 52.7316C111.82 71.5121 103.691 93.5589 101.875 116.637H19.8907C22.9175 84.1471 41.1218 54.3217 68.8391 36.4867H68.7958ZM127.257 233.79C71.52 233.79 24.6039 190.943 19.8042 135.933H101.832C104.642 173.408 124.576 208.305 155.623 230.051C146.413 232.543 136.9 233.833 127.3 233.833L127.257 233.79ZM121.247 135.933H168.984L169.071 215.826C141.829 197.776 124.144 168.208 121.29 135.933H121.247ZM152.899 50.325C160.336 43.019 168.768 36.8305 177.978 31.9312C210.279 49.0786 231.337 80.6231 234.667 116.637H187.016C183.21 91.539 171.146 68.117 152.899 50.325ZM188.356 135.933H234.71C231.943 167.521 214.776 197.69 188.443 215.783V135.933H188.356ZM228.656 233.79C219.057 233.79 209.544 232.543 200.334 230.008C231.381 208.262 251.314 173.408 254.125 135.89H336.109C331.266 190.9 284.394 233.747 228.656 233.747V233.79Z" fill="url(#paint0_linear_425_1506)"/>
<defs>
<linearGradient id="paint0_linear_425_1506" x1="-26.8166" y1="-200.762" x2="455.003" y2="401.141" gradientUnits="userSpaceOnUse">
<stop offset="0" stop-color="#FAE0B3"/>
<stop offset="1" stop-color="#7D6932"/>
</linearGradient>
</defs>
</svg>
