<svg width="64" height="55" viewBox="0 0 64 55" fill="none" xmlns="http://www.w3.org/2000/svg">
<path d="M62.5391 26.1153C61.9654 25.8002 61.2462 26.0022 60.9311 26.5759L54.7577 37.7267H34.25C33.5954 37.7267 33.0621 38.26 33.0621 38.9145C33.0621 39.569 33.5954 40.1023 34.25 40.1023H36.876L34.4116 43.5122H26.8484L21.7901 17.0411C24.3839 17.0573 26.8888 18.3905 26.913 18.4067C27.2282 18.5764 27.5999 18.5925 27.9312 18.4632C27.9554 18.4552 27.9796 18.4471 27.9958 18.4309C28.0281 18.4148 28.0685 18.3905 28.1008 18.3744C28.2705 18.2693 28.416 18.132 28.521 17.9542C29.4745 16.3139 31.0906 15.2473 33.4581 14.6897C35.3327 14.2534 38.2578 15.1503 39.1385 15.8048C39.1951 15.8452 39.2597 15.8856 39.3244 15.918C39.5668 16.0634 39.8658 16.128 40.1728 16.0715C40.8112 15.9422 41.2313 15.32 41.1101 14.6817C40.1567 9.84157 37.1669 5.69637 32.6985 3.00563C28.2544 0.347216 22.8729 -0.590099 17.5157 0.363376C17.5076 0.363376 17.4995 0.363376 17.4914 0.363376L16.7157 0.516902C16.7157 0.516902 16.6995 0.516902 16.6915 0.516902C11.3746 1.67238 6.7527 4.58129 3.67411 8.71841C0.555111 12.904 -0.632693 17.8734 0.320782 22.7135C0.433906 23.2791 0.926804 23.667 1.48434 23.667C1.55707 23.667 1.63787 23.667 1.71867 23.6427C2.01764 23.5862 2.27621 23.4165 2.4459 23.1821C2.49438 23.1256 2.53478 23.069 2.57519 23.0044C3.14081 22.0671 5.50833 20.1278 7.4072 19.8207C9.80705 19.441 11.7059 19.8127 13.2089 20.9681C13.2977 21.0328 13.3947 21.0813 13.4997 21.1217C13.5321 21.1297 13.5644 21.1459 13.5886 21.154C13.621 21.1621 13.6452 21.1701 13.6694 21.1782C13.6937 21.1782 13.7179 21.1782 13.7502 21.1863C13.8068 21.1944 13.8634 21.2025 13.9118 21.2025C13.9118 21.2025 13.928 21.2025 13.9361 21.2025C14.0007 21.2025 14.0573 21.1944 14.1138 21.1863C14.13 21.1863 14.1462 21.1863 14.1623 21.1863C14.2189 21.1782 14.2674 21.154 14.3239 21.1378C14.3482 21.1297 14.3805 21.1217 14.4047 21.1136C14.4532 21.0974 14.4936 21.0651 14.534 21.0409C14.5663 21.0247 14.5906 21.0085 14.6229 20.9924C14.6633 20.9681 14.6956 20.9358 14.728 20.9035C14.7522 20.8793 14.7845 20.855 14.8088 20.8227C14.8249 20.8065 14.8411 20.7985 14.8572 20.7823C14.8815 20.7581 16.845 18.3663 19.4388 17.4451L24.4162 43.5203H8.18291C7.52841 43.5203 6.99511 44.0536 6.99511 44.7081C6.99511 45.3626 7.52841 45.8959 8.18291 45.8959H14.8653L11.9079 52.449C11.6413 53.0469 11.9079 53.7499 12.4978 54.0166C12.6594 54.0893 12.821 54.1216 12.9826 54.1216C13.4351 54.1216 13.8634 53.863 14.0654 53.4267L17.4591 45.9039H43.6069L47.0007 53.4267C47.1946 53.863 47.6309 54.1216 48.0834 54.1216C48.245 54.1216 48.4147 54.0893 48.5682 54.0166C49.1662 53.7499 49.4328 53.0469 49.1581 52.449L46.2088 45.8959H52.2367C52.3094 45.8959 52.3821 45.8878 52.4468 45.8716C52.4629 45.8716 52.4791 45.8716 52.5033 45.8635C52.568 45.8474 52.6326 45.8312 52.6973 45.807C52.6973 45.807 52.7134 45.807 52.7215 45.7989C52.7781 45.7747 52.8266 45.7423 52.8831 45.71C52.8993 45.7019 52.9154 45.6939 52.9235 45.6858C52.9801 45.6454 53.0286 45.605 53.077 45.5565C53.1255 45.508 53.1659 45.4514 53.2063 45.3949C53.2144 45.3787 53.2306 45.3626 53.2387 45.3464C53.2548 45.3302 53.2629 45.306 53.2791 45.2898L62.9916 27.7475C63.3067 27.1738 63.1047 26.4547 62.531 26.1395L62.5391 26.1153ZM38.0719 12.7747C36.4559 12.2818 34.4762 12.0152 32.8925 12.3869C30.9451 12.8474 29.3452 13.6312 28.1089 14.7301C28.1008 14.6897 28.0847 14.6574 28.0766 14.617C28.02 14.4231 27.9716 14.2292 27.9069 14.0272C27.8908 13.9787 27.8746 13.9302 27.8665 13.8736C27.7938 13.6393 27.7211 13.3969 27.6403 13.1626C27.616 13.0979 27.5918 13.0252 27.5675 12.9606C27.5029 12.7747 27.4383 12.5889 27.3736 12.403C27.3494 12.3303 27.3251 12.2576 27.2928 12.1929C27.2039 11.9586 27.115 11.7162 27.0181 11.4819C26.9938 11.4253 26.9696 11.3768 26.9534 11.3203C26.8726 11.1263 26.7918 10.9324 26.711 10.7466C26.6787 10.6658 26.6383 10.585 26.606 10.5122C26.5171 10.3021 26.4201 10.1001 26.3232 9.89813C26.307 9.85773 26.2909 9.82541 26.2666 9.785C26.1535 9.55068 26.0323 9.31635 25.9111 9.0901C25.8707 9.0093 25.8303 8.93657 25.7899 8.85577C25.6929 8.678 25.604 8.50024 25.499 8.33055C25.4586 8.26591 25.4263 8.19319 25.3859 8.12854C25.2566 7.9023 25.1273 7.67605 24.9899 7.45788C24.9495 7.38516 24.901 7.32051 24.8606 7.24779C24.7556 7.07811 24.6506 6.9165 24.5455 6.75489C24.497 6.67409 24.4405 6.60137 24.392 6.52056C24.2465 6.3024 24.1011 6.09231 23.9476 5.87414C23.9153 5.82566 23.8748 5.77718 23.8344 5.7287C23.7132 5.55901 23.584 5.38932 23.4547 5.21964C23.3981 5.13883 23.3335 5.06611 23.2688 4.98531C23.1476 4.83178 23.0183 4.67018 22.8891 4.51665C22.8406 4.46009 22.7921 4.40353 22.7436 4.34696C22.5739 4.15304 22.4042 3.95911 22.2345 3.77326C22.1699 3.70054 22.0972 3.62782 22.0325 3.55509C21.9113 3.42581 21.7821 3.29653 21.6528 3.16724C21.5881 3.09452 21.5154 3.02988 21.4508 2.96523C21.273 2.78747 21.0871 2.61778 20.9013 2.44809C20.8851 2.43193 20.869 2.41577 20.8447 2.39961C28.6018 2.13296 35.5994 6.35088 38.08 12.7909L38.0719 12.7747ZM7.01935 17.4855C5.41137 17.7441 3.68219 18.738 2.38126 19.8046C2.23581 12.904 7.11631 6.35088 14.3886 3.66014C14.3805 3.68438 14.3643 3.70862 14.3563 3.73286C14.2512 3.95911 14.1462 4.18536 14.0492 4.41161C14.0088 4.50049 13.9684 4.59745 13.928 4.69442C13.8634 4.85602 13.7906 5.01763 13.7341 5.18732C13.6937 5.28428 13.6614 5.38124 13.621 5.47013C13.5321 5.70445 13.4513 5.94686 13.3705 6.18927C13.3462 6.26199 13.322 6.3428 13.2977 6.41552C13.2412 6.60137 13.1846 6.78721 13.1281 6.97306C13.0957 7.07002 13.0715 7.16699 13.0472 7.26395C12.9907 7.46596 12.9422 7.65989 12.8937 7.86189C12.8776 7.92654 12.8614 7.99118 12.8452 8.05582C12.7887 8.30631 12.7321 8.5568 12.6756 8.81537C12.6594 8.91233 12.6352 9.00122 12.619 9.09818C12.5786 9.28403 12.5463 9.47795 12.514 9.6638C12.4978 9.7446 12.4816 9.83349 12.4735 9.91429C12.4331 10.1729 12.3927 10.4233 12.3604 10.6819C12.3523 10.7627 12.3443 10.8435 12.3281 10.9243C12.3039 11.1183 12.2796 11.3122 12.2635 11.5142C12.2554 11.6031 12.2473 11.692 12.2392 11.7808C12.215 12.0394 12.1907 12.298 12.1746 12.5565C12.1746 12.605 12.1746 12.6454 12.1746 12.6939C12.1584 12.9202 12.1503 13.1383 12.1423 13.3646C12.1423 13.4535 12.1423 13.5423 12.1423 13.6231C12.1423 13.8332 12.1423 14.0352 12.1342 14.2453C12.1342 14.3019 12.1342 14.3665 12.1342 14.4231C12.1342 14.6817 12.1342 14.9322 12.1503 15.1826C12.1503 15.2634 12.1503 15.3362 12.1584 15.4089C12.1584 15.6028 12.1746 15.7967 12.1907 15.9907C12.1907 16.0634 12.1907 16.1361 12.2069 16.2088C12.2231 16.4593 12.2473 16.7098 12.2635 16.9522C12.2635 17.0088 12.2715 17.0573 12.2796 17.1138C12.3039 17.3158 12.32 17.5179 12.3443 17.7118C12.3443 17.7522 12.3523 17.7926 12.3604 17.833C10.8009 17.2835 9.02326 17.1623 7.04359 17.4774L7.01935 17.4855ZM14.6956 17.5987C14.6956 17.5987 14.6956 17.5421 14.6876 17.5179C14.6552 17.2593 14.6229 16.9926 14.5987 16.726C14.5987 16.726 14.5987 16.7098 14.5987 16.7017C14.5744 16.4351 14.5583 16.1604 14.5421 15.8856C14.5421 15.8452 14.5421 15.8048 14.5421 15.7725C14.5259 15.4978 14.5179 15.223 14.5098 14.9483C14.5098 14.9079 14.5098 14.8594 14.5098 14.819C14.5017 14.2373 14.5098 13.6555 14.5421 13.0575C14.5421 13.0252 14.5421 12.9848 14.5421 12.9525C14.5583 12.6616 14.5825 12.3707 14.6067 12.0798C14.6067 12.0394 14.6067 11.999 14.6148 11.9586C14.6714 11.3526 14.7522 10.7466 14.8492 10.1486C14.8492 10.1163 14.8572 10.084 14.8653 10.0517C14.9138 9.75268 14.9704 9.46179 15.035 9.1709C15.035 9.13858 15.0512 9.09818 15.0592 9.06586C15.1885 8.45984 15.3421 7.86189 15.5279 7.28011C15.536 7.25587 15.5441 7.22355 15.5521 7.19931C15.641 6.90842 15.738 6.62561 15.843 6.3428C15.8511 6.31048 15.8673 6.28624 15.8754 6.25391C16.0935 5.67213 16.3279 5.11459 16.6026 4.56513C16.6107 4.54089 16.6268 4.51665 16.6349 4.50049C16.7723 4.23384 16.9096 3.96719 17.0632 3.70862C17.0793 3.68438 17.0874 3.66014 17.1036 3.6359C17.2571 3.37733 17.4187 3.11876 17.5884 2.86019C17.8389 3.02988 18.0894 3.20764 18.3318 3.39349C18.3479 3.40965 18.3722 3.42581 18.3883 3.44197C18.6227 3.62782 18.857 3.81366 19.0832 4.01567C19.0994 4.03183 19.1156 4.04799 19.1398 4.06415C19.6004 4.46817 20.0367 4.89642 20.4569 5.34892C20.4811 5.37316 20.4973 5.3974 20.5215 5.42164C20.7235 5.64789 20.9255 5.87414 21.1195 6.10847C21.1356 6.13271 21.1599 6.15695 21.176 6.17311C21.5639 6.64985 21.9356 7.14275 22.283 7.65181C22.3073 7.68413 22.3234 7.71645 22.3477 7.74069C22.5174 7.99118 22.679 8.24167 22.8406 8.49216C22.8567 8.52448 22.8729 8.54872 22.8971 8.58104C23.2203 9.09818 23.5193 9.63148 23.8021 10.1648C23.8183 10.2052 23.8425 10.2375 23.8587 10.2779C23.9961 10.5365 24.1253 10.795 24.2465 11.0617C24.2627 11.094 24.2789 11.1344 24.295 11.1667C24.4162 11.4334 24.5455 11.7 24.6586 11.9667C24.7718 12.2333 24.8849 12.5 24.9818 12.7666C24.998 12.807 25.0142 12.8555 25.0303 12.8959C25.1273 13.1545 25.2243 13.4131 25.3131 13.6635C25.3293 13.704 25.3374 13.7444 25.3535 13.7848C25.4424 14.0352 25.5232 14.2938 25.604 14.5443C25.604 14.5524 25.604 14.5685 25.6121 14.5766C25.6929 14.8352 25.7656 15.0857 25.8303 15.3362C25.8303 15.3604 25.8464 15.3927 25.8545 15.417C24.2869 14.8918 22.0972 14.4231 19.9721 14.8594C17.8227 15.2634 15.9723 16.5321 14.7199 17.6067L14.6956 17.5987ZM39.785 40.1023H53.4407L51.5499 43.5122H37.3205L39.785 40.1023Z" fill="white"/>
</svg>
