<svg width="64" height="58" viewBox="0 0 64 58" fill="none" xmlns="http://www.w3.org/2000/svg">
<path d="M52.2174 32.027V51.5435C52.2174 54.1448 43.47 56.2609 32.6739 56.2609C21.8778 56.2609 13.1304 54.1448 13.1304 51.5435V32M22.5652 12.2274C24.2096 9.03304 27.2152 6.90348 30.6522 6.90348M6.3913 17.8883C8.03565 14.6939 11.0413 12.5643 14.4783 12.5643M34.6957 34.6957H38.7391C41.7987 34.6957 44.5617 33.4152 46.5161 31.3665C47.527 31.5957 48.5917 31.7304 49.6835 31.7304C57.0291 31.7304 63 26.1909 63 19.3439C63 12.497 57.0426 6.95739 49.6835 6.95739C47.2843 6.95739 45.0335 7.56391 43.0926 8.58826C41.0843 4.12696 36.34 1 30.8139 1C25.2878 1 20.9748 3.87087 18.8317 8.02217C17.4165 7.55043 15.8935 7.26739 14.303 7.26739C6.95739 7.26739 1 12.8204 1 19.6539C1 26.4874 6.95739 32.0404 14.3165 32.0404C16.5135 32.0404 18.5757 31.5417 20.3952 30.6657" stroke="white" stroke-width="2" stroke-miterlimit="10"/>
</svg>
