<svg width="76" height="76" viewBox="0 0 76 76" fill="none" xmlns="http://www.w3.org/2000/svg">
<path d="M9.82609 45.8261V30.1739C9.82609 14.6157 22.4417 2 38 2C53.5583 2 66.1739 14.6157 66.1739 30.1739V45.8261M66.1739 47.3913H70.8696C72.5913 47.3913 74 45.9826 74 44.2609V34.8696C74 33.1478 72.5913 31.7391 70.8696 31.7391H66.1739V47.3913ZM66.1739 47.3913V50.5217C66.1739 56.5791 61.2748 61.4783 55.2174 61.4783H42.6957M59.913 41.1304V52.087C59.913 53.0261 59.8504 53.9496 59.7409 54.8574M14.5217 36.4348H30.1739C38.8139 36.4348 45.8261 29.4226 45.8261 20.7826C45.8261 28.9061 52.0087 35.6522 59.913 36.4348M16.087 41.1304V52.087C16.087 64.1861 25.9009 74 38 74C44.7304 74 50.7565 70.9635 54.7635 66.1739M42.6957 61.4783C42.6957 64.0716 40.5933 66.1739 38 66.1739C35.4067 66.1739 33.3043 64.0716 33.3043 61.4783C33.3043 58.8849 35.4067 56.7826 38 56.7826C40.5933 56.7826 42.6957 58.8849 42.6957 61.4783ZM9.82609 47.3913H5.13043C3.4087 47.3913 2 45.9826 2 44.2609V34.8696C2 33.1478 3.4087 31.7391 5.13043 31.7391H9.82609V47.3913Z" stroke="url(#paint0_linear_337_869)" stroke-width="3" stroke-miterlimit="10"/>
<defs>
<linearGradient id="paint0_linear_337_869" x1="2" y1="7.14833" x2="49.7001" y2="88.3393" gradientUnits="userSpaceOnUse">
<stop stop-color="#E5D8C5"/>
<stop offset="1" stop-color="#9E773D"/>
</linearGradient>
</defs>
</svg>
