<svg width="80" height="80" viewBox="0 0 80 80" fill="none" xmlns="http://www.w3.org/2000/svg">
<path d="M60.2667 40C60.2667 51.193 51.193 60.2667 40 60.2667M60.2667 40C60.2667 28.807 51.193 19.7333 40 19.7333M60.2667 40H19.7333M40 60.2667C28.807 60.2667 19.7333 51.193 19.7333 40M40 60.2667C44.1974 60.2667 47.6 51.193 47.6 40C47.6 28.807 44.1974 19.7333 40 19.7333M40 60.2667C35.8026 60.2667 32.4 51.193 32.4 40C32.4 28.807 35.8026 19.7333 40 19.7333M19.7333 40C19.7333 28.807 28.807 19.7333 40 19.7333M62.4263 9.372C56.1373 4.75817 48.398 2 40 2C19.0145 2 2 19.0145 2 40C2 60.9855 19.0145 78 40 78C60.9855 78 78 60.9855 78 40C78 32.8877 76.0113 26.2535 72.6103 20.563M75.4667 14.6667C75.4667 18.864 72.064 22.2667 67.8667 22.2667C63.6693 22.2667 60.2667 18.864 60.2667 14.6667C60.2667 10.4693 63.6693 7.06667 67.8667 7.06667C72.064 7.06667 75.4667 10.4693 75.4667 14.6667Z" stroke="url(#paint0_linear_337_865)" stroke-width="3" stroke-linecap="round" stroke-linejoin="round"/>
<defs>
<linearGradient id="paint0_linear_337_865" x1="2" y1="7.43435" x2="52.3501" y2="93.1359" gradientUnits="userSpaceOnUse">
<stop stop-color="#E5D8C5"/>
<stop offset="1" stop-color="#9E773D"/>
</linearGradient>
</defs>
</svg>
