<svg width="40" height="34" viewBox="0 0 40 34" fill="none" xmlns="http://www.w3.org/2000/svg">
<path d="M0.798129 16.038C7.37659 13.0487 26.5343 4.39774 35.9062 1.03159C37.3202 0.526235 38.8721 1.24572 39.3808 2.65043C39.536 3.07869 39.5791 3.53265 39.5102 3.97804L35.3113 31.1471C35.0613 32.7745 33.5352 33.8966 31.8885 33.6482C31.466 33.5882 31.0694 33.4341 30.7073 33.2028L18.5591 25.3998C17.1193 24.4748 16.714 22.5733 17.6366 21.1429C17.7745 20.9287 17.947 20.7232 18.1453 20.5519L29.345 9.88809C29.8192 9.43413 29.2071 8.68895 28.6639 9.06582L12.7049 20.1579C11.2047 21.2028 9.28201 21.417 7.58351 20.7403L0.841238 18.0165C0.289441 17.7938 0.0221642 17.1686 0.246332 16.6204C0.349794 16.3549 0.548096 16.1493 0.798129 16.038Z" fill="black"/>
</svg>
