<svg width="41" height="40" viewBox="0 0 41 40" fill="none" xmlns="http://www.w3.org/2000/svg">
<path d="M20.5664 0.0397949C9.73828 0.0397949 0.878906 8.89917 0.878906 19.7273C0.878906 23.5007 1.86328 26.946 3.66797 29.8992L1.04297 39.4148L10.8867 36.7898C13.6758 38.4304 17.1211 39.4148 20.5664 39.4148C31.3945 39.4148 40.2539 30.5554 40.2539 19.7273C40.2539 8.89917 31.3945 0.0397949 20.5664 0.0397949ZM13.8398 10.5398C14.168 10.5398 14.4961 10.5398 14.8242 10.5398C15.1523 10.5398 15.4805 10.5398 15.9727 11.3601C16.3008 12.3445 17.2852 14.8054 17.2852 14.9695C17.2852 15.1335 17.4492 15.4617 17.2852 15.7898C17.2852 16.1179 17.1211 16.446 16.957 16.6101C16.793 16.9382 16.4648 17.2664 16.3008 17.4304C15.9727 17.7585 15.6445 18.0867 15.9727 18.5789C16.3008 19.071 17.2852 20.7117 18.7617 22.0242C20.5664 23.6648 22.207 24.157 22.6992 24.4851C23.1914 24.6492 23.5195 24.6492 23.6836 24.321C24.0117 23.9929 24.832 22.8445 25.1602 22.3523C25.4883 21.8601 25.8164 22.0242 26.3086 22.1882C26.8008 22.3523 29.0977 23.5007 29.5898 23.8289C30.082 24.157 30.4102 24.157 30.5742 24.321C30.7383 24.4851 30.7383 25.4695 30.2461 26.6179C29.918 27.7664 27.7852 28.9148 26.9648 28.9148C26.1445 29.0789 25.1602 29.2429 21.0586 27.7664C16.1367 25.7976 13.0195 20.7117 12.6914 20.3835C12.5273 20.0554 10.7227 17.7585 10.7227 15.2976C10.7227 12.8367 12.0352 11.6882 12.3633 11.196C13.0195 10.7039 13.5117 10.5398 13.8398 10.5398Z" fill="black"/>
</svg>
