<svg width="16" height="10" viewBox="0 0 16 10" fill="none" xmlns="http://www.w3.org/2000/svg">
<path d="M15.6661 1.5621C15.575 1.25962 15.3964 0.983765 15.1482 0.762159C14.9 0.540553 14.5909 0.380964 14.2518 0.299363C13.0036 7.45058e-08 8 0 8 0C8 0 2.99643 -7.45058e-08 1.74821 0.297771C1.40897 0.379107 1.09969 0.538607 0.851439 0.760254C0.603191 0.981901 0.424713 1.25789 0.333929 1.56051C-7.94729e-08 2.67516 0 5 0 5C0 5 -7.94729e-08 7.32484 0.333929 8.4379C0.517857 9.05255 1.06071 9.53662 1.74821 9.70064C2.99643 10 8 10 8 10C8 10 13.0036 10 14.2518 9.70064C14.9411 9.53662 15.4821 9.05255 15.6661 8.4379C16 7.32484 16 5 16 5C16 5 16 2.67516 15.6661 1.5621ZM6.41071 7.13376V2.86624L10.5536 4.98408L6.41071 7.13376Z" fill="#F7BF72"/>
</svg>
