<svg width="600" height="480" viewBox="0 0 600 480" fill="none" xmlns="http://www.w3.org/2000/svg">
<path d="M244 28.8001C243.52 29.1001 242.08 29.4001 240.82 29.4001C238.96 29.4001 238.36 29.7001 237.4 31.3201C235.48 34.4401 232.72 43.8601 230.38 55.5001C229.18 61.4401 228.16 66.3601 228.1 66.4201C228.04 66.5401 225.88 65.9401 223.24 65.1601C220.66 64.3801 218.32 63.9001 218.14 64.1401C217.6 64.6201 211.6 81.4801 211.6 82.3801C211.6 82.8001 207.64 94.0201 202.72 107.4L193.9 131.7L186.4 134.7C170.74 141 153.46 147.66 152.02 147.96C151.18 148.08 149.2 148.74 147.58 149.46C144.22 150.9 140.14 152.4 139.42 152.4C139.12 152.4 139 151.38 139.12 150.12L139.3 147.9L145.12 147.3C151.18 146.64 152.2 146.1 154.66 142.74C155.98 140.88 157 135.78 155.86 136.44C155.5 136.68 155.02 136.44 154.78 135.9C154.6 135.3 154.78 134.7 155.14 134.4C155.68 134.1 155.38 133.38 154 131.76C152.2 129.78 152.2 129.6 153.34 129.6C155.38 129.6 154.78 128.52 152.08 127.2C149.08 125.76 146.8 125.94 140.92 128.16C137.44 129.48 137.2 129.48 137.8 128.4C138.76 126.6 138.52 122.4 137.2 119.76C135.46 116.16 131.86 114 127.54 114C123.7 114 121 115.44 118.78 118.74C114.82 124.62 117.94 133.2 124.72 135L127.18 135.72L122.62 139.92C118.96 143.22 118 144.42 118 145.8C118 148.5 119.2 149.04 123.46 148.26C125.5 147.84 127.24 147.6 127.36 147.72C127.96 148.38 123.52 154.2 121.36 155.52C120.04 156.36 115.96 158.88 112.3 161.1C108.7 163.32 104.08 166.14 102.1 167.4C100.12 168.66 89.2 175.38 77.8 182.4C66.4 189.42 55.6 196.08 53.8 197.28C36.46 208.44 33.88 231.54 48.22 247.02C53.92 253.26 62.2 256.8 71.08 256.8C76.24 256.8 82.66 255.48 84.4 254.1C84.88 253.68 86.8 252.54 88.6 251.58C90.4 250.56 98.68 246.12 106.96 241.56C115.24 237.06 122.2 233.4 122.44 233.4C122.68 233.4 122.62 233.88 122.32 234.42C121.24 236.4 119.8 244.14 119.8 247.62C119.8 251.04 120.46 255.06 126.1 287.1C127.6 295.68 128.98 303.9 129.1 305.4C129.22 306.9 129.76 310.62 130.3 313.74C130.84 316.8 131.2 319.38 131.08 319.44C130.96 319.5 124.72 319.08 117.22 318.42C104.56 317.4 103.42 317.4 102.04 318.3C99.16 320.16 99.1 321.3 101.2 331.2C102.22 336.18 103 340.38 102.88 340.5C102.64 340.74 101.44 340.56 77.32 336.9C69.58 335.76 62.8 334.8 62.14 334.8C61.48 334.8 60.22 335.52 59.38 336.36C57.94 337.86 57.88 338.16 58.18 342.36C58.42 344.82 58.36 346.8 58.12 346.8C57.88 346.8 53.92 345.84 49.36 344.7C38.86 342.06 37.6 342.06 35.56 344.46L34 346.32V378C34 406.14 34.12 409.74 34.96 410.46C35.62 411 36.16 411.06 36.88 410.58C37.48 410.28 40.3 403.26 43.48 394.44L49.12 378.9L49 370.74C48.94 365.46 49.12 362.4 49.54 362.1C50.26 361.68 50.5 364.92 50.26 371.82L50.08 376.14L52.12 376.44C53.2 376.68 55.96 377.1 58.3 377.46C60.58 377.76 62.56 378.18 62.68 378.3C62.8 378.42 63.7 384.66 64.72 392.22C65.74 399.72 66.64 406.02 66.76 406.08C66.88 406.32 73.84 407.28 123.7 414.3C145.36 417.36 148.42 417.66 154.9 417.42C163.36 417.06 167.26 416.04 174.82 412.5C181.36 409.44 185.86 406.14 191.26 400.38C194.5 396.9 195.34 395.58 196.48 392.04C200.98 377.52 200.02 354.3 193.66 324.6C190.96 312 188.74 304.44 181.3 282.9C178.36 274.32 177.22 271.32 175.54 267.3C173.26 261.84 170.2 253.56 170.32 253.08C170.5 252.66 172.6 257.22 174.4 261.9C174.64 262.56 175.3 264.18 175.9 265.5C177.52 269.34 180.94 278.52 186.64 294.48C188.74 300.36 192.94 314.46 193.96 318.9C194.74 322.32 195.22 324.78 197.86 337.8C200.86 352.74 201.4 375.18 199.06 387.3C198.76 388.92 198.28 390.78 198.1 391.32C197.8 392.1 197.98 392.4 198.64 392.4C199.18 392.4 199.6 392.16 199.6 391.92C199.6 391.62 201.16 390.78 203.08 390C218.68 383.7 228.04 375.84 233.5 364.56C238.66 353.82 239.32 339.3 235.18 327C229.12 309.18 207.58 261.48 200.8 251.1C191.44 236.7 187.48 231.42 181.9 225.84C172.3 216.18 164.5 211.8 155.98 211.32C149.2 210.96 141.1 213.42 135.58 217.62L133.6 219.06L132.88 217.44C132.22 216.06 132.28 215.76 133.3 215.04C137.32 212.34 139.6 210.36 139.6 209.58C139.6 207.9 137.74 205.2 136.6 205.2C135.94 205.2 133.9 205.92 132.04 206.76C127.18 208.98 127.42 208.14 132.34 205.44C136.96 202.98 137.62 201.54 135.64 198.72C134.5 197.1 133.6 197.04 131.08 198.54C128.44 200.16 127.6 199.38 130.12 197.7C132.52 196.08 133.48 195.84 135.1 196.38C136.72 196.92 138.52 200.4 138.28 202.56C138.1 204.24 138.16 204.3 140.5 204.12C149.32 203.46 156.94 194.82 157.48 185.04L157.72 180.84L184.18 169.86C198.76 163.8 211.84 158.22 213.22 157.44C215.8 155.94 219.16 152.22 220.78 149.04C221.74 147.12 224.8 137.28 232 112.8C234.4 104.7 236.68 97.4401 237.1 96.6001C238 94.8001 245.2 70.9201 245.26 69.6001C245.26 68.7001 246.52 71.7001 250.54 82.8001C251.86 86.2801 253.18 89.8201 253.54 90.7201C254.08 92.2201 253.96 92.4601 251.5 94.0201C250 94.9201 248.8 95.9401 248.8 96.3001C248.8 97.0201 258.16 110.46 259.24 111.3C259.66 111.6 262.66 115.68 265.9 120.3C272.8 130.14 288.34 151.68 295.3 161.1C300.58 168.18 306.94 174.6 311.2 177.12C312.7 177.96 315.94 179.34 318.4 180.06C322.42 181.38 324.04 181.5 334 181.5C345.4 181.5 360.58 180.9 366.4 180.24L369.7 179.88L372.52 184.62L375.4 189.3L379.12 189.18C381.22 189.12 387.88 189 394.06 189C400.18 188.94 405.46 188.7 405.88 188.46C406.3 188.22 406.6 185.64 406.6 180.9C406.72 172.62 407.26 169.92 409.12 168.18C412.18 165.36 415.84 165.96 418.06 169.62C419.2 171.48 419.5 173.34 420.22 184.92C420.82 194.28 420.88 198.36 420.46 198.78C419.98 199.26 419.8 198.9 419.74 197.64C419.74 196.68 419.62 195.24 419.5 194.4C419.44 193.56 419.2 189.54 418.96 185.4C418.36 173.64 418 171.72 416.38 169.74C414.64 167.7 412.78 167.52 410.62 169.2C408.7 170.7 408.46 172.14 408.22 182.1L408.1 189.9L406.3 190.02C405.34 190.08 398.14 190.14 390.28 190.2C377.2 190.26 376.06 190.38 375.1 191.4C373.6 193.08 373.78 197.16 375.46 198.96C376.18 199.74 376.9 200.34 377.14 200.28C379.36 200.04 383.8 200.52 383.5 201C382.84 202.08 384.16 201.6 385.3 200.4C386.14 199.44 387.16 199.2 389.86 199.2C393.76 199.2 395.44 200.34 391.78 200.52C390.52 200.58 388.84 200.64 388.06 200.7C386.2 200.76 385 202.56 385 205.38C385 208.44 385.96 210.12 387.58 210C388.3 209.94 391.48 209.94 394.6 210C399.76 210.12 400 210.18 397.3 210.6C395.68 210.9 392.86 211.14 391.12 211.14C388.3 211.2 387.88 211.38 387.4 212.76C386.56 214.92 386.68 218.76 387.58 219.48C388 219.84 389.5 220.32 390.88 220.56C394.66 221.16 394.78 222.18 391.06 221.82C387.4 221.46 385.6 220.14 385.6 217.74C385.6 216.84 385.36 215.94 385.06 215.7C384.7 215.52 381.22 216.18 377.26 217.2C373.3 218.16 369.16 219.12 368.08 219.24C358.9 220.5 326.98 228.78 320.86 231.48C305.38 238.32 292.72 250.98 285.88 266.46C283 272.94 280.6 282.18 280.6 286.74C280.54 289.8 276.76 323.28 270.46 375.9C266.74 406.56 265.84 415.26 266.2 415.5C266.38 415.62 267.58 415.44 268.9 415.2C280.36 412.74 280.84 412.68 293.2 411.84C296.32 411.6 298.78 411.6 298.6 411.78C298.06 412.32 276.82 415.2 273.1 415.2C272.62 415.2 272.2 415.68 272.2 416.22C272.2 418.2 269.14 423.84 266.92 426.18C265.72 427.44 260.14 431.22 254.5 434.52C248.92 437.82 243.7 440.94 242.92 441.42C238.9 443.94 238 450.78 241.18 454.98C243.52 458.1 247.42 459.42 251.44 458.52C255.22 457.68 270.4 453.6 286.6 449.16C293.38 447.3 305.86 443.88 314.44 441.54C330.4 437.22 332.38 436.56 334.12 434.58C336.46 432 336.94 429.42 337.54 415.74C338.56 393.48 339.46 364.8 339.16 364.32C338.8 363.72 340.3 314.76 341.2 298.8C341.5 292.68 341.8 287.4 341.8 287.04C341.8 286.38 345.46 285.42 364.6 280.98C368.38 280.14 372.04 279.12 372.7 278.82C373.36 278.46 382.54 276 393.1 273.3L412.24 268.38L413.74 262.14C415.84 253.14 416.86 249.48 417.22 249.84C417.64 250.26 416.38 257.7 414.64 264.9C413.86 268.2 408.58 289.14 402.94 311.4C391.72 355.86 391.24 358.56 392.74 368.94C395.56 388.14 404.68 401.64 420.1 409.26C429.1 413.7 436.18 415.38 446.2 415.38C454.66 415.44 456.76 415.08 463.6 412.38C469 410.22 473.92 406.8 479.26 401.4C489.94 390.72 500.56 373.8 507.46 356.52C508.9 352.98 512.5 345.48 515.56 339.9C528.58 315.72 541.9 291.12 543.22 288.66C544 287.22 544.6 285.96 544.48 285.9C544.36 285.84 542.74 285.3 540.82 284.76C536.62 283.56 536.68 283.26 542.8 277.62C550.48 270.48 562.24 266.04 569.98 267.24C577.84 268.5 582.94 258.9 577.96 252.3C574.96 248.4 574.54 248.28 552.4 247.38C541.36 246.96 531.76 246.72 531.16 246.84C530.5 247.02 521.5 246.84 511.12 246.48L492.28 245.76L489.82 247.08C488.44 247.86 486.82 249.12 486.22 249.96C484.66 252.06 479.56 266.58 468.7 299.7C458.8 330 451.54 351.12 451.18 350.82C451 350.64 453.16 342.06 460.36 314.1C462.16 307.14 467.56 285.96 472.42 267C477.22 248.04 481.24 232.44 481.24 232.38C481.3 232.32 486.46 232.08 492.7 231.9C506.02 231.36 509.32 230.46 515.5 225.72C519.82 222.42 521.32 220.5 523.48 215.28C524.68 212.22 525.04 210.18 525.28 204.66C525.52 198.42 525.4 197.28 523.66 190.86C519.94 177 515.86 161.52 513.64 152.7C509.98 138.12 506.26 132.12 498.58 128.4C491.38 124.98 488.8 124.74 471.4 125.7C463 126.18 450.76 126.78 444.22 127.02L432.28 127.38L445.72 140.88C453.1 148.26 458.44 153.96 457.6 153.6C456.82 153.18 448.36 148.14 438.88 142.44C429.4 136.68 421.36 132 421.06 132C420.76 132 411.82 136.62 401.2 142.26C390.64 147.96 381.88 152.46 381.7 152.34C381.58 152.22 388.18 146.52 396.4 139.74L411.28 127.38L421.06 126.96C426.46 126.72 430.96 126.42 431.08 126.3C431.2 126.24 431.02 125.04 430.66 123.78C430.3 122.52 429.88 120.3 429.7 118.92C429.46 116.88 429.52 116.52 430.3 116.76C432.22 117.54 434.74 113.58 433 112.5C432.7 112.32 432.4 110.94 432.4 109.44C432.4 103.8 429.94 101.58 419.8 97.9201C412.78 95.3401 410.56 94.9201 409.9 96.0001C409.66 96.4201 409.12 96.3601 408.28 95.9401C405.58 94.5001 402.58 96.9001 403.18 100.08C403.36 100.92 403.12 102.18 402.7 102.84C401.32 105.12 401.02 106.8 402.04 106.8C402.58 106.8 403 107.22 403 107.7C403 108.18 402.58 108.6 402.04 108.6C401.26 108.6 401.14 108.96 401.44 110.22C401.98 112.5 403.6 114.6 406.06 116.28C407.8 117.48 408.64 117.66 411.52 117.42L414.88 117.12L414.4 118.74C414.1 119.58 413.5 121.5 413.02 123L412.18 125.7L408.94 125.88C380.8 127.2 344.68 129.06 341.14 129.3L336.58 129.66L333.94 126.42C332.5 124.62 325.36 116.16 318.1 107.64C310.9 99.0601 302.92 89.7001 300.4 86.7601C297.94 83.8201 294.46 79.7401 292.66 77.7601C290.92 75.7201 288.88 73.3801 288.22 72.4201C287.5 71.5201 286.66 70.8001 286.3 70.8001C286 70.8001 284.26 71.7601 282.46 72.9601L279.28 75.1201L274.18 69.8401C264.58 59.8801 260.5 53.4601 254.2 38.5801C251.14 31.3201 248.8 28.2001 246.52 28.2001C245.62 28.2001 244.48 28.5001 244 28.8001ZM249.52 43.3201C250 43.7401 251.62 47.4601 253 51.6001C254.44 55.7401 255.7 59.4601 255.88 59.8201C256 60.2401 255.88 60.6001 255.52 60.6001C254.86 60.6001 253.72 58.0201 250.9 50.1001C249.4 45.8401 248.68 44.6401 247.72 44.5201C246.7 44.3401 246.4 44.7001 246.16 46.3201C245.98 47.4001 245.44 50.4601 245.02 53.1001L244.18 57.9001L243.7 54.1201C243.34 51.1201 243.04 50.4001 242.2 50.4001C241.36 50.4001 241 51.0601 240.7 52.9201C240.46 54.3601 239.92 57.0001 239.5 58.8001C239.08 60.6001 238.54 62.8801 238.3 63.8401C238.12 64.8601 237.7 65.3401 237.4 65.0401C236.86 64.5001 238.6 53.7001 239.68 50.8801C240.34 49.2601 242.56 48.1201 243.4 49.0201C243.64 49.2601 244 50.0401 244.18 50.7001C244.36 51.3601 244.48 50.3401 244.54 48.4201C244.6 43.6801 246.94 41.3401 249.52 43.3201ZM411.88 107.22C411.64 108.54 410.56 108.42 410.32 107.16C410.2 106.56 410.5 106.2 411.1 106.2C411.7 106.2 412 106.62 411.88 107.22ZM147.7 131.34C147.34 131.58 145.84 132.3 144.28 132.9C140.86 134.16 139.9 135.18 139.06 138.42C138.7 139.8 137.68 141.78 136.78 142.8C135.1 144.78 131.32 147 129.58 147C128.98 147 129.7 146.4 131.2 145.74C135.04 144 137.14 141.78 138.16 138.24C139.24 134.52 140.2 133.56 144.46 132.06C148.3 130.68 148.42 130.68 147.7 131.34ZM147.4 137.64C146.62 138.42 145.3 137.22 145.9 136.2C146.2 135.72 146.56 135.72 147.16 136.26C147.76 136.74 147.88 137.16 147.4 137.64ZM137.08 155.1C135.4 156.66 134.32 157.2 132.88 157.14C130.42 157.14 125.62 155.22 125.32 154.2C125.14 153.66 125.38 153.54 126.04 153.78C126.58 154.02 128.5 154.62 130.3 155.1C133.24 156 133.72 156 135.34 155.16C136.3 154.62 137.32 153.96 137.5 153.6C137.68 153.3 138.22 153 138.58 153C139 153 138.28 153.96 137.08 155.1ZM469.9 173.52C471.4 178.32 473.86 186.72 474.16 188.22L474.58 190.2H464.86C459.58 190.2 455.2 189.96 455.2 189.72C455.2 189.42 456.1 189.18 457.18 189.18C468.76 188.94 472.6 188.82 472.6 188.64C472.6 188.28 470.32 179.64 469.24 176.16C468.22 172.62 468.22 172.8 469 172.8C469.36 172.8 469.72 173.16 469.9 173.52ZM108.46 184.74C109.3 185.34 111.16 188.22 112.6 191.04C114.1 193.86 115.6 196.2 115.9 196.2C116.26 196.2 119.08 194.7 122.2 192.9C132.94 186.66 136.12 185.22 137.92 185.94C140.32 186.84 141.7 189.84 140.8 192.06C140.38 193.02 139.96 193.8 139.9 193.8C139.84 193.8 138.7 194.22 137.44 194.7C136.06 195.24 135.52 195.3 136.24 194.82C139.24 192.78 140.2 191.82 140.2 190.56C140.2 188.7 138.58 186.6 137.14 186.6C136.48 186.6 131.32 189.24 125.68 192.42C120.04 195.66 115.3 198.24 115.12 198.18C114.94 198.12 113.56 195.78 112 192.9C108.52 186.42 107.62 185.4 105.52 185.4C101.2 185.4 101.44 188.22 106.6 198.6C108.94 203.22 110.8 207.24 110.8 207.6C110.8 208.62 109.78 208.26 109.24 207C108.7 205.86 108.16 206.04 98.8 210.6C88.18 215.82 87.34 216 94.9 211.32C105.28 204.96 107.2 203.7 107.2 203.16C107.2 202.86 105.7 199.68 103.9 196.08C102.1 192.48 100.6 189 100.6 188.34C100.6 187.62 101.14 186.3 101.86 185.34C103.36 183.24 106.24 183 108.46 184.74ZM473.68 230.34C478.12 230.4 481 230.64 481 231C481 231.72 441.52 231.84 439.78 231.12C438.7 230.7 455.38 229.98 462.4 230.22C464.56 230.28 469.6 230.34 473.68 230.34ZM169.54 246.96C169.48 250.32 169.3 251.28 168.88 250.5C168.22 249.36 167.68 243.66 168.16 242.88C169.12 241.38 169.66 242.88 169.54 246.96ZM506.8 276.36C511.24 277.26 533.98 282.48 535.48 282.96C535.9 283.08 536.14 283.44 535.96 283.68C535.6 284.28 529.24 283.14 522.1 281.28C519.46 280.62 514.6 279.36 511.3 278.58C501.52 276.24 500.5 275.94 499.9 275.28C499.48 274.8 499.72 274.74 500.8 275.04C501.64 275.28 504.34 275.82 506.8 276.36ZM133.36 327.6C133.84 330.42 134.98 335.46 135.76 338.76C137.56 346.5 137.62 347.04 135.82 346.56C135.04 346.38 131.62 345.84 128.14 345.3C124.72 344.76 120.94 344.1 119.8 343.8C118.66 343.56 116.2 343.08 114.4 342.84C112.6 342.6 110.98 342.36 110.8 342.3C110.62 342.24 109.06 342 107.38 341.76C104.56 341.34 103.06 340.56 103.72 339.9C103.84 339.78 105.1 339.9 106.6 340.2C108.1 340.44 111.22 340.98 113.5 341.34C118.66 342.12 131.5 344.34 133.78 344.82C135.64 345.18 135.82 344.4 134.8 340.8C134.02 338.1 131.8 325.2 131.8 323.4C131.8 320.94 132.34 322.44 133.36 327.6Z" fill="#333946"/>
<path d="M152.924 36.6172C152.264 36.9772 151.484 37.5772 151.244 37.9372C150.584 38.8972 151.364 45.9772 152.444 48.6772C153.164 50.4772 153.284 52.2172 152.984 56.5972C152.684 60.7372 152.864 63.0772 153.524 65.7172C154.064 67.7572 154.604 73.0972 154.784 78.7972C154.964 84.0772 155.204 89.2972 155.384 90.4372C155.564 91.5772 155.864 94.5172 155.984 97.0372C156.164 99.5572 156.344 102.317 156.464 103.217C156.584 104.117 156.284 105.557 155.864 106.397C154.664 108.797 154.244 111.797 154.724 115.397C155.024 118.037 155.324 118.697 156.224 118.697C156.824 118.697 157.904 119.237 158.684 119.897C160.004 120.977 160.064 121.157 159.104 121.697C158.144 122.297 158.204 122.477 159.524 124.517C162.044 128.237 161.384 133.937 158.084 136.937C156.704 138.197 156.344 139.997 157.604 139.517C177.584 131.777 197.444 123.857 197.804 123.497C198.284 123.077 199.784 119.057 209.564 92.0572C212.924 82.8772 215.624 75.1372 215.624 74.8372C215.624 74.5972 214.064 73.2772 212.144 71.9572C210.224 70.6372 208.184 68.8972 207.584 68.0572C207.044 67.2172 204.764 65.5972 202.544 64.4572C200.324 63.3172 195.944 60.9172 192.884 59.0572C189.284 56.9572 186.524 55.6972 185.384 55.6972C183.344 55.6972 180.464 54.1372 177.944 51.7372C175.304 49.2772 166.784 43.8172 164.924 43.3972C163.904 43.2172 162.584 42.9172 161.864 42.7972C160.244 42.4372 158.564 40.8772 156.884 38.1172C155.444 35.7772 154.844 35.5372 152.924 36.6172Z" fill="#E7E0FF"/>
<path d="M524.094 45.8657C522.654 49.1057 521.274 50.3057 517.554 51.6257C513.654 53.0057 506.394 58.8257 504.114 62.4257C502.614 64.7057 501.054 66.2057 498.834 67.4657C497.094 68.4257 495.354 69.5057 494.994 69.8057C492.054 72.3857 484.254 77.7257 483.414 77.7257C482.814 77.7257 481.014 78.7457 479.394 79.9457C477.774 81.1457 474.834 83.3657 472.854 84.8657C470.874 86.3657 466.974 89.5457 464.154 91.9457C461.334 94.3457 457.374 97.4657 455.394 98.8457C453.354 100.286 450.354 102.626 448.734 104.126C447.114 105.626 444.294 108.026 442.554 109.526C438.894 112.586 437.334 114.086 435.774 115.886C434.754 117.146 434.754 117.386 435.714 120.986L436.734 124.826L449.994 124.406C457.314 124.166 468.114 123.686 474.054 123.326C492.474 122.306 497.994 122.726 502.314 125.546C503.094 126.026 503.934 126.266 504.294 126.086C504.594 125.846 505.314 123.746 505.854 121.346C506.394 119.006 507.654 115.646 508.614 113.906C509.874 111.686 510.534 109.526 510.894 106.406C511.434 101.726 513.354 94.3457 515.214 89.4257C515.874 87.8057 516.774 84.3257 517.254 81.6257C517.734 78.9857 518.394 75.8057 518.814 74.4857C519.174 73.2257 519.534 71.7257 519.654 71.1857C520.074 68.8457 521.334 64.7657 521.694 64.2257C521.994 63.8657 523.074 60.8057 524.154 57.3257C525.234 53.8457 526.914 49.8857 527.874 48.4457C530.154 45.1457 529.974 43.2857 527.394 43.0457C525.654 42.8657 525.354 43.1057 524.094 45.8657Z" fill="#E7E0FF"/>
<path d="M240.57 107.981C239.79 110.681 238.41 115.301 237.45 118.301C236.55 121.241 233.85 130.301 231.51 138.401C226.71 154.541 225.27 157.841 221.49 161.141C218.19 164.081 216.87 164.681 197.61 172.601C188.73 176.261 178.29 180.581 174.51 182.201C170.73 183.821 166.65 185.501 165.45 185.981C163.29 186.881 163.29 186.941 162.99 190.961C162.57 196.601 160.29 201.521 156.45 205.121C153.51 207.881 148.29 210.401 145.65 210.401C144.63 210.401 144.51 210.641 144.87 211.421C145.11 212.021 145.35 213.581 145.35 214.841C145.41 217.061 145.23 217.301 142.11 219.161C140.31 220.241 138.57 221.261 138.27 221.381C137.97 221.441 137.91 222.161 138.15 222.881C138.57 224.141 138.63 224.141 141.75 222.041C148.89 217.301 159.03 215.321 165.81 217.301C173.31 219.461 180.87 224.561 188.31 232.361C192.57 236.861 199.05 245.561 202.17 250.961L203.55 253.481L205.23 251.861C209.49 247.781 211.83 245.201 213.93 242.261C214.83 241.061 217.17 238.481 219.21 236.501C221.19 234.521 223.35 232.061 224.01 231.101C224.61 230.081 227.13 227.201 229.53 224.681L233.97 220.001L233.61 217.181C233.43 215.561 233.13 210.521 232.95 205.901C232.53 194.501 232.53 193.481 232.71 192.101C233.07 189.281 231.33 167.021 230.61 165.281C229.95 163.661 231.99 163.181 233.01 164.681C233.49 165.341 234.57 166.061 235.41 166.241C236.31 166.481 238.65 167.861 240.69 169.301C242.67 170.801 244.89 172.001 245.61 172.001C246.27 172.001 247.89 172.841 249.15 173.801C250.47 174.821 251.85 175.601 252.27 175.601C252.69 175.601 253.41 176.081 253.83 176.681C254.49 177.641 258.09 179.861 268.47 185.501C269.85 186.281 272.67 188.141 274.77 189.701C276.87 191.261 279.99 193.181 281.61 193.901C283.29 194.681 284.97 195.701 285.39 196.181C285.81 196.661 287.31 197.501 288.81 198.101C290.31 198.641 291.51 199.301 291.51 199.541C291.51 199.781 292.41 200.261 293.55 200.681C295.65 201.461 303.75 206.501 308.19 209.861C309.63 210.941 312.69 212.741 314.97 213.821C317.25 214.901 319.11 216.041 319.11 216.401C319.11 216.701 319.89 217.001 320.85 217.001C322.05 217.001 322.77 216.641 323.01 215.861C323.19 215.261 324.15 214.421 325.11 214.001C326.01 213.641 327.81 212.201 329.07 210.881C330.27 209.561 332.49 207.941 333.93 207.281C335.43 206.621 338.01 204.701 339.75 203.021C341.49 201.281 344.67 198.821 346.77 197.501C348.87 196.181 351.45 194.381 352.41 193.481C353.43 192.581 355.41 190.781 356.91 189.401L359.61 187.001L355.71 187.421C353.55 187.601 346.71 187.841 340.41 187.841C327.63 187.901 323.55 187.181 317.01 183.761C308.97 179.561 304.23 173.861 277.83 136.721C263.19 116.141 264.45 117.641 258.75 113.741C255.81 111.701 252.51 109.121 251.37 107.981C249.63 106.241 243.81 103.001 242.43 103.001C242.19 103.001 241.35 105.221 240.57 107.981Z" fill="#E7E0FF"/>
<path d="M375 198.3C375 198.96 374.04 203.28 372.84 207.9C369.72 219.96 369.84 219.18 371.16 218.82C371.82 218.58 375.12 217.74 378.6 216.9C382.08 216.06 385.5 215.16 386.16 214.86C387.9 214.08 388.32 211.56 386.88 210.36C386.22 209.76 385.8 208.56 385.74 207.18C385.5 201.24 385.32 201 381.24 201C377.94 201 377.04 200.58 375.72 198.3C375.06 197.1 375.06 197.1 375 198.3Z" fill="#E7E0FF"/>
<path d="M522.421 223.875C515.881 229.575 512.701 230.535 498.901 230.955C492.781 231.135 487.561 231.495 487.321 231.675C486.961 232.095 485.461 237.735 474.721 279.915C471.601 292.095 466.861 310.455 464.221 320.715C461.581 330.915 459.241 339.975 459.121 340.815C458.281 344.595 461.881 334.395 469.081 312.315C479.461 280.695 486.421 260.055 488.761 253.995C490.921 248.415 493.921 245.175 497.461 244.455C498.661 244.275 508.021 244.395 518.281 244.815C530.581 245.295 537.121 245.355 537.361 244.935C537.841 244.155 548.641 238.575 551.461 237.615C554.461 236.655 560.641 233.595 561.121 232.875C561.301 232.575 560.821 231.915 559.981 231.495C559.201 231.075 557.761 230.235 556.801 229.695C555.781 229.155 553.381 228.495 551.461 228.315C546.121 227.775 544.921 227.475 537.421 224.655C528.721 221.355 525.541 221.175 522.421 223.875Z" fill="#E7E0FF"/>
<path d="M109.417 240.669C105.637 242.709 97.5974 247.149 91.5373 250.389C79.4773 256.929 77.7973 258.429 74.2573 265.329C72.8173 268.209 71.7973 269.349 69.4573 270.789C66.0373 272.829 59.4973 280.389 57.6973 284.289C56.3173 287.289 49.2373 293.829 45.6373 295.269C43.2973 296.289 42.3973 298.029 43.4173 299.889C44.1973 301.329 45.2773 301.389 48.9973 300.069C51.3973 299.229 52.2373 299.169 54.3973 299.769C55.7773 300.189 58.4173 300.789 60.2173 301.149C62.0173 301.509 63.9373 302.049 64.4773 302.289C65.7373 302.949 71.3173 303.909 76.7174 304.389C78.9974 304.629 81.1574 304.929 81.4574 305.169C81.8174 305.349 87.8773 305.589 95.0173 305.649C108.877 305.769 111.637 306.009 116.437 307.389C119.917 308.409 124.417 308.589 124.417 307.689C124.417 307.389 123.337 301.089 122.077 293.769C113.917 247.929 114.277 250.509 115.657 243.609C116.197 240.909 116.797 238.269 116.977 237.789C117.577 236.349 116.737 236.649 109.417 240.669Z" fill="#E7E0FF"/>
<path d="M215.664 264.087C215.664 264.267 217.824 268.947 220.524 274.527C228.144 290.427 235.884 308.427 240.504 321.267C243.744 330.147 244.884 338.907 243.864 347.067C241.584 365.307 231.624 377.547 212.124 386.067L205.524 388.947L205.704 392.607C205.764 394.647 205.524 397.527 205.104 399.087C204.744 400.647 204.204 404.427 203.964 407.487C203.664 411.327 203.124 414.087 202.104 416.367C200.604 419.907 199.464 427.347 199.464 433.767C199.464 437.487 198.864 440.007 195.804 448.647C194.724 451.767 194.724 451.827 195.864 452.967C198.024 455.127 199.464 454.347 200.544 450.507C201.384 447.447 206.424 440.427 210.444 436.767C212.304 435.087 214.464 432.627 215.184 431.367C218.424 425.907 223.164 419.907 225.204 418.707C228.144 416.907 229.644 415.287 231.564 411.807C235.524 404.487 242.364 396.147 246.804 393.207C250.044 391.107 252.264 388.227 252.264 386.247C252.264 384.267 254.544 381.207 260.604 374.967C263.364 372.147 266.544 368.367 267.744 366.567C270.564 362.187 276.204 355.227 277.404 354.567C278.184 354.207 278.604 352.407 279.144 346.947C280.164 337.347 285.804 287.967 286.044 286.347L286.284 285.087L284.604 286.347C283.644 287.007 282.204 288.627 281.364 289.947C280.464 291.207 279.084 293.007 278.184 293.967C275.244 297.027 274.164 298.467 273.384 300.267C272.904 301.227 271.524 302.967 270.204 304.047C268.884 305.187 266.904 307.527 265.764 309.267C264.684 311.007 262.644 313.647 261.264 315.087C256.524 320.067 252.324 325.287 251.544 327.027C250.764 328.767 249.864 329.367 249.864 328.167C249.864 327.807 250.284 326.547 250.764 325.347C251.244 324.207 251.664 321.987 251.664 320.427C251.664 318.927 251.964 316.587 252.324 315.267C253.404 311.247 254.184 305.247 254.124 301.767C254.064 298.527 254.244 297.387 256.224 288.687C256.764 286.287 257.064 283.467 256.884 282.387C256.764 281.367 256.944 279.627 257.364 278.607C257.784 277.587 258.204 275.007 258.324 272.907L258.564 269.067L255.864 269.007C252.624 269.007 245.904 268.227 241.764 267.447C237.624 266.667 227.244 265.167 224.364 264.927C223.044 264.807 220.524 264.507 218.844 264.267C217.104 264.027 215.664 263.907 215.664 264.087Z" fill="#E7E0FF"/>
<path d="M394.061 277.744C384.041 280.324 375.281 282.724 374.561 283.024C373.661 283.444 372.881 285.184 371.561 289.804C370.601 293.224 369.761 296.404 369.701 296.824C369.581 297.244 369.101 298.924 368.501 300.484L367.481 303.424L365.981 301.684C363.941 299.164 359.381 291.124 358.961 289.084C358.721 288.124 358.181 287.344 357.701 287.344C356.261 287.344 344.021 290.464 343.421 291.004C342.701 291.664 342.101 303.064 340.961 338.344L340.001 368.584L342.521 370.924C343.961 372.244 346.001 375.244 347.501 378.124C348.821 380.824 350.561 383.284 351.221 383.644C353.501 384.784 354.401 385.744 358.481 391.684C360.701 394.864 363.281 398.404 364.181 399.604C365.141 400.804 366.041 402.784 366.281 404.104C366.761 407.464 367.841 409.324 370.481 411.244C373.241 413.344 373.901 414.124 375.461 417.364C376.901 420.184 378.101 421.444 379.001 420.904C379.301 420.664 380.021 419.224 380.561 417.604C381.101 415.924 382.781 413.224 384.401 411.364C387.761 407.524 390.761 401.644 392.081 396.124C392.681 393.724 393.701 391.564 394.901 390.184L396.761 388.024L395.141 383.104C393.101 376.924 392.021 367.744 392.561 361.144C392.861 357.664 396.101 343.564 402.761 316.744C412.481 277.624 413.561 272.884 412.781 273.004C412.541 273.004 404.141 275.164 394.061 277.744Z" fill="#E7E0FF"/>
<path d="M247.92 43.9198C247.5 44.3398 247.26 45.4798 247.26 46.4398L247.32 48.2998L247.74 46.5598C248.52 42.9598 251.46 43.0798 252.18 46.7398C252.6 48.8398 256.92 60.1198 257.16 59.8198C257.58 59.4598 251.94 44.1598 251.22 43.6798C250.14 43.0198 248.76 43.0798 247.92 43.9198Z" fill="#ECECEC"/>
<path d="M242.76 49.6798C242.16 50.6398 240 59.0398 240.3 59.2798C240.66 59.6398 241.8 56.6398 241.8 55.3798C241.8 52.9798 243.24 49.8598 244.44 49.6198C245.7 49.3798 245.7 49.3798 244.38 49.2598C243.66 49.2598 242.94 49.4398 242.76 49.6798Z" fill="#ECECEC"/>
<path d="M401.58 137.58C394.74 143.28 388.32 148.74 387.3 149.64L385.5 151.26L388.2 149.82C389.7 148.98 392.82 147.36 395.1 146.1C397.44 144.9 404.64 141.06 411.18 137.58L423.06 131.22L441.18 142.14L459.3 153.06L446.4 140.1L433.5 127.2H423.84H414.12L401.58 137.58Z" fill="#ECECEC"/>
<path d="M127.2 153.96C127.2 154.08 128.34 154.74 129.72 155.4C132.9 156.9 136.98 157.02 138.06 155.52C138.72 154.68 138.72 154.62 138 155.22C136.8 156.36 133.68 156.18 130.2 154.86C128.58 154.2 127.2 153.84 127.2 153.96Z" fill="#ECECEC"/>
<path d="M412.26 167.76C409.8 169.5 409.2 172.08 409.2 180.9V189H402.06C398.1 189 394.74 189.18 394.62 189.42C394.44 189.72 397.8 189.84 402.06 189.72L409.8 189.54V181.14C409.8 172.14 410.28 170.16 412.92 168.36C414.78 167.04 416.04 167.16 418.14 168.96C420.12 170.58 420.78 170.1 418.86 168.36C417.18 166.86 413.94 166.56 412.26 167.76Z" fill="#ECECEC"/>
<path d="M420.42 173.4C420.6 174.9 420.84 176.22 420.96 176.34C421.44 176.88 421.08 173.04 420.6 171.9C420.24 171.12 420.18 171.6 420.42 173.4Z" fill="#ECECEC"/>
<path d="M472.2 177.12C472.2 177.48 474.3 185.52 474.9 187.62C475.32 188.82 475.08 188.94 472.14 189.18L468.9 189.36L472.38 189.48C474.42 189.54 475.8 189.36 475.8 188.94C475.8 188.16 472.8 177.36 472.44 177.06C472.32 176.94 472.2 176.94 472.2 177.12Z" fill="#ECECEC"/>
<path d="M421.02 182.1C421.2 184.38 421.44 186.42 421.56 186.54C422.04 187.08 421.68 180.24 421.2 179.1C420.9 178.38 420.84 179.58 421.02 182.1Z" fill="#ECECEC"/>
<path d="M105.78 184.2C102.72 185.46 102.48 188.7 105.12 193.74C107.64 198.48 107.94 198.12 105.54 193.26C102.9 187.98 103.56 184.8 107.34 184.8C109.26 184.8 111.36 187.02 113.64 191.4C115.74 195.36 116.82 196.86 115.98 194.52C114.72 191.1 111.48 186.12 109.8 184.92C107.64 183.48 107.64 183.48 105.78 184.2Z" fill="#ECECEC"/>
<path d="M124.86 192.96C121.08 195.12 117.6 196.68 117.18 196.56C116.34 196.2 116.1 197.16 116.88 197.64C117.36 197.94 130.44 190.8 131.7 189.54C132.66 188.58 131.88 189 124.86 192.96Z" fill="#ECECEC"/>
<path d="M375.96 191.04C375.42 191.94 375 193.62 375.06 195.12L375.12 197.7L375.6 194.82C375.9 193.2 376.44 191.52 376.86 191.04C377.22 190.56 377.46 190.02 377.28 189.84C377.1 189.72 376.5 190.26 375.96 191.04Z" fill="#ECECEC"/>
<path d="M421.98 194.1C421.98 195.72 422.1 196.38 422.22 195.42C422.34 194.52 422.34 193.2 422.22 192.42C422.1 191.7 421.98 192.42 421.98 194.1Z" fill="#ECECEC"/>
<path d="M134.04 197.16C132.96 198.06 132.96 198.06 134.22 197.46C135.9 196.62 136.92 197.04 138.18 199.14C139.62 201.6 139.44 202.5 137.28 204.3C135.48 205.74 135.42 205.8 136.92 205.14C139.08 204.18 140.04 204.66 141.24 207.24C141.78 208.44 142.38 209.4 142.56 209.4C143.16 209.4 140.88 204.9 140.04 204.42C139.5 204.12 139.32 203.46 139.56 202.44C140.22 199.86 138 196.2 135.78 196.2C135.48 196.2 134.7 196.62 134.04 197.16Z" fill="#ECECEC"/>
<path d="M387.06 201.36C385.26 203.64 385.38 207.6 387.24 209.82C388.26 211.02 388.5 211.86 388.14 212.7C386.7 216.42 388.56 221.52 391.38 221.34C392.7 221.22 392.7 221.22 391.38 220.98C389.28 220.56 388.38 218.76 388.56 215.4C388.74 211.86 389.04 211.2 390.78 211.2C391.5 211.2 392.52 210.9 393 210.6C393.6 210.24 393.12 210.12 391.38 210.3C388.02 210.6 386.94 209.64 386.7 206.28C386.4 201.78 387.24 200.76 391.8 200.34L395.7 199.98L391.98 199.92C388.62 199.8 388.14 199.98 387.06 201.36Z" fill="#ECECEC"/>
<path d="M109.62 203.22C109.14 203.64 110.28 205.8 110.94 205.8C111.54 205.8 111.12 203.52 110.4 203.1C110.16 202.98 109.8 202.98 109.62 203.22Z" fill="#ECECEC"/>
<path d="M453.72 230.7C454.26 231.24 475.38 231.54 476.7 231C477.36 230.76 472.38 230.52 465.66 230.46C458.88 230.46 453.54 230.52 453.72 230.7Z" fill="#ECECEC"/>
<path d="M479.28 230.82C480 230.94 481.08 230.94 481.68 230.82C482.22 230.64 481.62 230.52 480.3 230.58C478.98 230.58 478.5 230.7 479.28 230.82Z" fill="#ECECEC"/>
<path d="M170.58 245.7C170.58 247.32 170.7 247.98 170.82 247.02C170.94 246.12 170.94 244.8 170.82 244.02C170.7 243.3 170.58 244.02 170.58 245.7Z" fill="#ECECEC"/>
<path d="M416.22 262.32C415.68 264.72 415.08 267.78 414.96 269.1C414.72 271.02 414.78 270.9 415.5 268.2C416.4 264.78 416.58 264 417.3 260.22C418.08 256.26 417.18 257.88 416.22 262.32Z" fill="#ECECEC"/>
<path d="M512.1 277.86C520.26 280.08 531.72 282.66 532.32 282.48C532.74 282.3 531 281.76 528.54 281.16C526.14 280.62 521.94 279.66 519.3 279C516.66 278.4 513.42 277.74 512.1 277.56L509.7 277.26L512.1 277.86Z" fill="#ECECEC"/>
<path d="M186.96 292.2C187.14 293.04 187.62 294.12 187.92 294.6C188.28 295.2 188.34 295.02 188.04 294C187.86 293.16 187.38 292.08 187.08 291.6C186.72 291 186.66 291.18 186.96 292.2Z" fill="#ECECEC"/>
<path d="M188.46 296.1C188.4 296.46 189.18 299.04 190.14 301.8C191.1 304.62 191.94 306.6 191.94 306.3C192 305.94 191.22 303.36 190.26 300.6C189.3 297.78 188.46 295.8 188.46 296.1Z" fill="#ECECEC"/>
<path d="M192.06 307.62C192 308.34 194.7 318.18 195.3 319.5C195.42 319.8 195.42 319.08 195.24 317.88C194.82 315.24 192.12 306.54 192.06 307.62Z" fill="#ECECEC"/>
<path d="M195.84 322.8C196.08 323.94 196.5 326.1 196.74 327.6C197.04 329.1 197.7 332.46 198.24 335.1C198.78 337.74 199.74 343.8 200.34 348.6C200.94 353.4 201.48 356.1 201.54 354.6C201.6 349.26 197.04 322.14 195.84 321.06C195.6 320.88 195.6 321.66 195.84 322.8Z" fill="#ECECEC"/>
<path d="M136.26 336C136.26 336.48 136.62 338.22 137.04 339.9C137.52 341.52 137.94 342.48 137.94 342C137.94 341.52 137.58 339.72 137.16 338.1C136.68 336.42 136.26 335.52 136.26 336Z" fill="#ECECEC"/>
<path d="M115.5 341.88C115.68 342.12 117.66 342.6 119.88 343.02C122.1 343.38 126.18 344.1 129 344.64C134.76 345.72 135.9 345.78 133.92 345C133.14 344.64 129.12 343.86 124.92 343.2C120.72 342.54 116.82 341.88 116.22 341.7C115.56 341.58 115.26 341.64 115.5 341.88Z" fill="#ECECEC"/>
<path d="M138 344.34C138 345 137.52 345.66 136.98 345.78C136.14 346.02 136.26 346.08 137.28 346.14C138.3 346.2 138.6 345.9 138.6 344.7C138.6 343.86 138.48 343.2 138.3 343.2C138.12 343.2 138 343.74 138 344.34Z" fill="#ECECEC"/>
<path d="M201.84 367.8C201.84 372.6 201.96 374.52 202.02 372.12C202.14 369.78 202.14 365.82 202.02 363.42C201.96 361.08 201.84 363 201.84 367.8Z" fill="#ECECEC"/>
<path d="M51.7798 370.8C51.7798 373.62 51.8998 374.76 52.0198 373.32C52.1398 371.94 52.1398 369.66 52.0198 368.22C51.8998 366.84 51.7798 367.98 51.7798 370.8Z" fill="#ECECEC"/>
<path d="M198.18 394.02C197.28 395.94 197.22 396.6 197.88 396.6C198.42 396.6 199.8 393.96 199.8 393C199.8 391.86 198.9 392.46 198.18 394.02Z" fill="#ECECEC"/>
<path d="M285 413.1C281.52 413.58 278.04 413.94 277.2 414C276.36 414.06 276 414.24 276.42 414.36C277.14 414.72 294.06 412.92 294.54 412.5C294.96 412.08 291.96 412.26 285 413.1Z" fill="#ECECEC"/>
<path d="M135 341L132 321.5L136.5 345L108 339L135 341Z" fill="#E0FB52"/>
<path d="M411 263L416 249.5L413 268L342.5 285.5L411 263Z" fill="#E0FB52"/>
<path d="M481 233H467L476 236L472.5 267L481 233Z" fill="#E0FB52"/>
</svg>
