<svg width="400" height="320" viewBox="0 0 400 320" fill="none" xmlns="http://www.w3.org/2000/svg">
<path d="M164 19.1999C163.68 19.3999 162.72 19.5999 161.88 19.5999C160.64 19.5999 160.24 19.7999 159.6 20.8799C158.32 22.9599 156.48 29.2399 154.92 36.9999C154.12 40.9599 153.44 44.2399 153.4 44.2799C153.36 44.3599 151.92 43.9599 150.16 43.4399C148.44 42.9199 146.88 42.5999 146.76 42.7599C146.4 43.0799 142.4 54.3199 142.4 54.9199C142.4 55.1999 139.76 62.6799 136.48 71.5999L130.6 87.7999L125.6 89.7999C115.16 93.9999 103.64 98.4399 102.68 98.6399C102.12 98.7199 100.8 99.1599 99.72 99.6399C97.48 100.6 94.76 101.6 94.28 101.6C94.08 101.6 94 100.92 94.08 100.08L94.2 98.5999L98.08 98.1999C102.12 97.7599 102.8 97.3999 104.44 95.1599C105.32 93.9199 106 90.5199 105.24 90.9599C105 91.1199 104.68 90.9599 104.52 90.5999C104.4 90.1999 104.52 89.7999 104.76 89.5999C105.12 89.3999 104.92 88.9199 104 87.8399C102.8 86.5199 102.8 86.3999 103.56 86.3999C104.92 86.3999 104.52 85.6799 102.72 84.7999C100.72 83.8399 99.2 83.9599 95.28 85.4399C92.96 86.3199 92.8 86.3199 93.2 85.5999C93.84 84.3999 93.68 81.5999 92.8 79.8399C91.64 77.4399 89.24 75.9999 86.36 75.9999C83.8 75.9999 82 76.9599 80.52 79.1599C77.88 83.0799 79.96 88.7999 84.48 89.9999L86.12 90.4799L83.08 93.2799C80.64 95.4799 80 96.2799 80 97.1999C80 98.9999 80.8 99.3599 83.64 98.8399C85 98.5599 86.16 98.3999 86.24 98.4799C86.64 98.9199 83.68 102.8 82.24 103.68C81.36 104.24 78.64 105.92 76.2 107.4C73.8 108.88 70.72 110.76 69.4 111.6C68.08 112.44 60.8 116.92 53.2 121.6C45.6 126.28 38.4 130.72 37.2 131.52C25.64 138.96 23.92 154.36 33.48 164.68C37.28 168.84 42.8 171.2 48.72 171.2C52.16 171.2 56.44 170.32 57.6 169.4C57.92 169.12 59.2 168.36 60.4 167.72C61.6 167.04 67.12 164.08 72.64 161.04C78.16 158.04 82.8 155.6 82.96 155.6C83.12 155.6 83.08 155.92 82.88 156.28C82.16 157.6 81.2 162.76 81.2 165.08C81.2 167.36 81.64 170.04 85.4 191.4C86.4 197.12 87.32 202.6 87.4 203.6C87.48 204.6 87.84 207.08 88.2 209.16C88.56 211.2 88.8 212.92 88.72 212.96C88.64 213 84.48 212.72 79.48 212.28C71.04 211.6 70.28 211.6 69.36 212.2C67.44 213.44 67.4 214.2 68.8 220.8C69.48 224.12 70 226.92 69.92 227C69.76 227.16 68.96 227.04 52.88 224.6C47.72 223.84 43.2 223.2 42.76 223.2C42.32 223.2 41.48 223.68 40.92 224.24C39.96 225.24 39.92 225.44 40.12 228.24C40.28 229.88 40.24 231.2 40.08 231.2C39.92 231.2 37.28 230.56 34.24 229.8C27.24 228.04 26.4 228.04 25.04 229.64L24 230.88V252C24 270.76 24.08 273.16 24.64 273.64C25.08 274 25.44 274.04 25.92 273.72C26.32 273.52 28.2 268.84 30.32 262.96L34.08 252.6L34 247.16C33.96 243.64 34.08 241.6 34.36 241.4C34.84 241.12 35 243.28 34.84 247.88L34.72 250.76L36.08 250.96C36.8 251.12 38.64 251.4 40.2 251.64C41.72 251.84 43.04 252.12 43.12 252.2C43.2 252.28 43.8 256.44 44.48 261.48C45.16 266.48 45.76 270.68 45.84 270.72C45.92 270.88 50.56 271.52 83.8 276.2C98.24 278.24 100.28 278.44 104.6 278.28C110.24 278.04 112.84 277.36 117.88 275C122.24 272.96 125.24 270.76 128.84 266.92C131 264.6 131.56 263.72 132.32 261.36C135.32 251.68 134.68 236.2 130.44 216.4C128.64 208 127.16 202.96 122.2 188.6C120.24 182.88 119.48 180.88 118.36 178.2C116.84 174.56 114.8 169.04 114.88 168.72C115 168.44 116.4 171.48 117.6 174.6C117.76 175.04 118.2 176.12 118.6 177C119.68 179.56 121.96 185.68 125.76 196.32C127.16 200.24 129.96 209.64 130.64 212.6C131.16 214.88 131.48 216.52 133.24 225.2C135.24 235.16 135.6 250.12 134.04 258.2C133.84 259.28 133.52 260.52 133.4 260.88C133.2 261.4 133.32 261.6 133.76 261.6C134.12 261.6 134.4 261.44 134.4 261.28C134.4 261.08 135.44 260.52 136.72 260C147.12 255.8 153.36 250.56 157 243.04C160.44 235.88 160.88 226.2 158.12 218C154.08 206.12 139.72 174.32 135.2 167.4C128.96 157.8 126.32 154.28 122.6 150.56C116.2 144.12 111 141.2 105.32 140.88C100.8 140.64 95.4 142.28 91.72 145.08L90.4 146.04L89.92 144.96C89.48 144.04 89.52 143.84 90.2 143.36C92.88 141.56 94.4 140.24 94.4 139.72C94.4 138.6 93.16 136.8 92.4 136.8C91.96 136.8 90.6 137.28 89.36 137.84C86.12 139.32 86.28 138.76 89.56 136.96C92.64 135.32 93.08 134.36 91.76 132.48C91 131.4 90.4 131.36 88.72 132.36C86.96 133.44 86.4 132.92 88.08 131.8C89.68 130.72 90.32 130.56 91.4 130.92C92.48 131.28 93.68 133.6 93.52 135.04C93.4 136.16 93.44 136.2 95 136.08C100.88 135.64 105.96 129.88 106.32 123.36L106.48 120.56L124.12 113.24C133.84 109.2 142.56 105.48 143.48 104.96C145.2 103.96 147.44 101.48 148.52 99.3599C149.16 98.0799 151.2 91.5199 156 75.1999C157.6 69.7999 159.12 64.9599 159.4 64.3999C160 63.1999 164.8 47.2799 164.84 46.3999C164.84 45.7999 165.68 47.7999 168.36 55.1999C169.24 57.5199 170.12 59.8799 170.36 60.4799C170.72 61.4799 170.64 61.6399 169 62.6799C168 63.2799 167.2 63.9599 167.2 64.1999C167.2 64.6799 173.44 73.6399 174.16 74.1999C174.44 74.3999 176.44 77.1199 178.6 80.1999C183.2 86.7599 193.56 101.12 198.2 107.4C201.72 112.12 205.96 116.4 208.8 118.08C209.8 118.64 211.96 119.56 213.6 120.04C216.28 120.92 217.36 121 224 121C231.6 121 241.72 120.6 245.6 120.16L247.8 119.92L249.68 123.08L251.6 126.2L254.08 126.12C255.48 126.08 259.92 126 264.04 126C268.12 125.96 271.64 125.8 271.92 125.64C272.2 125.48 272.4 123.76 272.4 120.6C272.48 115.08 272.84 113.28 274.08 112.12C276.12 110.24 278.56 110.64 280.04 113.08C280.8 114.32 281 115.56 281.48 123.28C281.88 129.52 281.92 132.24 281.64 132.52C281.32 132.84 281.2 132.6 281.16 131.76C281.16 131.12 281.08 130.16 281 129.6C280.96 129.04 280.8 126.36 280.64 123.6C280.24 115.76 280 114.48 278.92 113.16C277.76 111.8 276.52 111.68 275.08 112.8C273.8 113.8 273.64 114.76 273.48 121.4L273.4 126.6L272.2 126.68C271.56 126.72 266.76 126.76 261.52 126.8C252.8 126.84 252.04 126.92 251.4 127.6C250.4 128.72 250.52 131.44 251.64 132.64C252.12 133.16 252.6 133.56 252.76 133.52C254.24 133.36 257.2 133.68 257 134C256.56 134.72 257.44 134.4 258.2 133.6C258.76 132.96 259.44 132.8 261.24 132.8C263.84 132.8 264.96 133.56 262.52 133.68C261.68 133.72 260.56 133.76 260.04 133.8C258.8 133.84 258 135.04 258 136.92C258 138.96 258.64 140.08 259.72 140C260.2 139.96 262.32 139.96 264.4 140C267.84 140.08 268 140.12 266.2 140.4C265.12 140.6 263.24 140.76 262.08 140.76C260.2 140.8 259.92 140.92 259.6 141.84C259.04 143.28 259.12 145.84 259.72 146.32C260 146.56 261 146.88 261.92 147.04C264.44 147.44 264.52 148.12 262.04 147.88C259.6 147.64 258.4 146.76 258.4 145.16C258.4 144.56 258.24 143.96 258.04 143.8C257.8 143.68 255.48 144.12 252.84 144.8C250.2 145.44 247.44 146.08 246.72 146.16C240.6 147 219.32 152.52 215.24 154.32C204.92 158.88 196.48 167.32 191.92 177.64C190 181.96 188.4 188.12 188.4 191.16C188.36 193.2 185.84 215.52 181.64 250.6C179.16 271.04 178.56 276.84 178.8 277C178.92 277.08 179.72 276.96 180.6 276.8C188.24 275.16 188.56 275.12 196.8 274.56C198.88 274.4 200.52 274.4 200.4 274.52C200.04 274.88 185.88 276.8 183.4 276.8C183.08 276.8 182.8 277.12 182.8 277.48C182.8 278.8 180.76 282.56 179.28 284.12C178.48 284.96 174.76 287.48 171 289.68C167.28 291.88 163.8 293.96 163.28 294.28C160.6 295.96 160 300.52 162.12 303.32C163.68 305.4 166.28 306.28 168.96 305.68C171.48 305.12 181.6 302.4 192.4 299.44C196.92 298.2 205.24 295.92 210.96 294.36C221.6 291.48 222.92 291.04 224.08 289.72C225.64 288 225.96 286.28 226.36 277.16C227.04 262.32 227.64 243.2 227.44 242.88C227.2 242.48 228.2 209.84 228.8 199.2C229 195.12 229.2 191.6 229.2 191.36C229.2 190.92 231.64 190.28 244.4 187.32C246.92 186.76 249.36 186.08 249.8 185.88C250.24 185.64 256.36 184 263.4 182.2L276.16 178.92L277.16 174.76C278.56 168.76 279.24 166.32 279.48 166.56C279.76 166.84 278.92 171.8 277.76 176.6C277.24 178.8 273.72 192.76 269.96 207.6C262.48 237.24 262.16 239.04 263.16 245.96C265.04 258.76 271.12 267.76 281.4 272.84C287.4 275.8 292.12 276.92 298.8 276.92C304.44 276.96 305.84 276.72 310.4 274.92C314 273.48 317.28 271.2 320.84 267.6C327.96 260.48 335.04 249.2 339.64 237.68C340.6 235.32 343 230.32 345.04 226.6C353.72 210.48 362.6 194.08 363.48 192.44C364 191.48 364.4 190.64 364.32 190.6C364.24 190.56 363.16 190.2 361.88 189.84C359.08 189.04 359.12 188.84 363.2 185.08C368.32 180.32 376.16 177.36 381.32 178.16C386.56 179 389.96 172.6 386.64 168.2C384.64 165.6 384.36 165.52 369.6 164.92C362.24 164.64 355.84 164.48 355.44 164.56C355 164.68 349 164.56 342.08 164.32L329.52 163.84L327.88 164.72C326.96 165.24 325.88 166.08 325.48 166.64C324.44 168.04 321.04 177.72 313.8 199.8C307.2 220 302.36 234.08 302.12 233.88C302 233.76 303.44 228.04 308.24 209.4C309.44 204.76 313.04 190.64 316.28 178C319.48 165.36 322.16 154.96 322.16 154.92C322.2 154.88 325.64 154.72 329.8 154.6C338.68 154.24 340.88 153.64 345 150.48C347.88 148.28 348.88 147 350.32 143.52C351.12 141.48 351.36 140.12 351.52 136.44C351.68 132.28 351.6 131.52 350.44 127.24C347.96 118 345.24 107.68 343.76 101.8C341.32 92.0799 338.84 88.0799 333.72 85.5999C328.92 83.3199 327.2 83.1599 315.6 83.7999C310 84.1199 301.84 84.5199 297.48 84.6799L289.52 84.9199L298.48 93.9199C303.4 98.8399 306.96 102.64 306.4 102.4C305.88 102.12 300.24 98.7599 293.92 94.9599C287.6 91.1199 282.24 87.9999 282.04 87.9999C281.84 87.9999 275.88 91.0799 268.8 94.8399C261.76 98.6399 255.92 101.64 255.8 101.56C255.72 101.48 260.12 97.6799 265.6 93.1599L275.52 84.9199L282.04 84.6399C285.64 84.4799 288.64 84.2799 288.72 84.1999C288.8 84.1599 288.68 83.3599 288.44 82.5199C288.2 81.6799 287.92 80.1999 287.8 79.2799C287.64 77.9199 287.68 77.6799 288.2 77.8399C289.48 78.3599 291.16 75.7199 290 74.9999C289.8 74.8799 289.6 73.9599 289.6 72.9599C289.6 69.1999 287.96 67.7199 281.2 65.2799C276.52 63.5599 275.04 63.2799 274.6 63.9999C274.44 64.2799 274.08 64.2399 273.52 63.9599C271.72 62.9999 269.72 64.5999 270.12 66.7199C270.24 67.2799 270.08 68.1199 269.8 68.5599C268.88 70.0799 268.68 71.1999 269.36 71.1999C269.72 71.1999 270 71.4799 270 71.7999C270 72.1199 269.72 72.3999 269.36 72.3999C268.84 72.3999 268.76 72.6399 268.96 73.4799C269.32 74.9999 270.4 76.3999 272.04 77.5199C273.2 78.3199 273.76 78.4399 275.68 78.2799L277.92 78.0799L277.6 79.1599C277.4 79.7199 277 80.9999 276.68 81.9999L276.12 83.7999L273.96 83.9199C255.2 84.7999 231.12 86.0399 228.76 86.1999L225.72 86.4399L223.96 84.2799C223 83.0799 218.24 77.4399 213.4 71.7599C208.6 66.0399 203.28 59.7999 201.6 57.8399C199.96 55.8799 197.64 53.1599 196.44 51.8399C195.28 50.4799 193.92 48.9199 193.48 48.2799C193 47.6799 192.44 47.1999 192.2 47.1999C192 47.1999 190.84 47.8399 189.64 48.6399L187.52 50.0799L184.12 46.5599C177.72 39.9199 175 35.6399 170.8 25.7199C168.76 20.8799 167.2 18.7999 165.68 18.7999C165.08 18.7999 164.32 18.9999 164 19.1999ZM167.68 28.8799C168 29.1599 169.08 31.6399 170 34.3999C170.96 37.1599 171.8 39.6399 171.92 39.8799C172 40.1599 171.92 40.3999 171.68 40.3999C171.24 40.3999 170.48 38.6799 168.6 33.3999C167.6 30.5599 167.12 29.7599 166.48 29.6799C165.8 29.5599 165.6 29.7999 165.44 30.8799C165.32 31.5999 164.96 33.6399 164.68 35.3999L164.12 38.5999L163.8 36.0799C163.56 34.0799 163.36 33.5999 162.8 33.5999C162.24 33.5999 162 34.0399 161.8 35.2799C161.64 36.2399 161.28 37.9999 161 39.1999C160.72 40.3999 160.36 41.9199 160.2 42.5599C160.08 43.2399 159.8 43.5599 159.6 43.3599C159.24 42.9999 160.4 35.7999 161.12 33.9199C161.56 32.8399 163.04 32.0799 163.6 32.6799C163.76 32.8399 164 33.3599 164.12 33.7999C164.24 34.2399 164.32 33.5599 164.36 32.2799C164.4 29.1199 165.96 27.5599 167.68 28.8799ZM275.92 71.4799C275.76 72.3599 275.04 72.2799 274.88 71.4399C274.8 71.0399 275 70.7999 275.4 70.7999C275.8 70.7999 276 71.0799 275.92 71.4799ZM99.8 87.5599C99.56 87.7199 98.56 88.1999 97.52 88.5999C95.24 89.4399 94.6 90.1199 94.04 92.2799C93.8 93.1999 93.12 94.5199 92.52 95.1999C91.4 96.5199 88.88 97.9999 87.72 97.9999C87.32 97.9999 87.8 97.5999 88.8 97.1599C91.36 95.9999 92.76 94.5199 93.44 92.1599C94.16 89.6799 94.8 89.0399 97.64 88.0399C100.2 87.1199 100.28 87.1199 99.8 87.5599ZM99.6 91.7599C99.08 92.2799 98.2 91.4799 98.6 90.7999C98.8 90.4799 99.04 90.4799 99.44 90.8399C99.84 91.1599 99.92 91.4399 99.6 91.7599ZM92.72 103.4C91.6 104.44 90.88 104.8 89.92 104.76C88.28 104.76 85.08 103.48 84.88 102.8C84.76 102.44 84.92 102.36 85.36 102.52C85.72 102.68 87 103.08 88.2 103.4C90.16 104 90.48 104 91.56 103.44C92.2 103.08 92.88 102.64 93 102.4C93.12 102.2 93.48 102 93.72 102C94 102 93.52 102.64 92.72 103.4ZM314.6 115.68C315.6 118.88 317.24 124.48 317.44 125.48L317.72 126.8H311.24C307.72 126.8 304.8 126.64 304.8 126.48C304.8 126.28 305.4 126.12 306.12 126.12C313.84 125.96 316.4 125.88 316.4 125.76C316.4 125.52 314.88 119.76 314.16 117.44C313.48 115.08 313.48 115.2 314 115.2C314.24 115.2 314.48 115.44 314.6 115.68ZM73.64 123.16C74.2 123.56 75.44 125.48 76.4 127.36C77.4 129.24 78.4 130.8 78.6 130.8C78.84 130.8 80.72 129.8 82.8 128.6C89.96 124.44 92.08 123.48 93.28 123.96C94.88 124.56 95.8 126.56 95.2 128.04C94.92 128.68 94.64 129.2 94.6 129.2C94.56 129.2 93.8 129.48 92.96 129.8C92.04 130.16 91.68 130.2 92.16 129.88C94.16 128.52 94.8 127.88 94.8 127.04C94.8 125.8 93.72 124.4 92.76 124.4C92.32 124.4 88.88 126.16 85.12 128.28C81.36 130.44 78.2 132.16 78.08 132.12C77.96 132.08 77.04 130.52 76 128.6C73.68 124.28 73.08 123.6 71.68 123.6C68.8 123.6 68.96 125.48 72.4 132.4C73.96 135.48 75.2 138.16 75.2 138.4C75.2 139.08 74.52 138.84 74.16 138C73.8 137.24 73.44 137.36 67.2 140.4C60.12 143.88 59.56 144 64.6 140.88C71.52 136.64 72.8 135.8 72.8 135.44C72.8 135.24 71.8 133.12 70.6 130.72C69.4 128.32 68.4 126 68.4 125.56C68.4 125.08 68.76 124.2 69.24 123.56C70.24 122.16 72.16 122 73.64 123.16ZM317.12 153.56C320.08 153.6 322 153.76 322 154C322 154.48 295.68 154.56 294.52 154.08C293.8 153.8 304.92 153.32 309.6 153.48C311.04 153.52 314.4 153.56 317.12 153.56ZM114.36 164.64C114.32 166.88 114.2 167.52 113.92 167C113.48 166.24 113.12 162.44 113.44 161.92C114.08 160.92 114.44 161.92 114.36 164.64ZM339.2 184.24C342.16 184.84 357.32 188.32 358.32 188.64C358.6 188.72 358.76 188.96 358.64 189.12C358.4 189.52 354.16 188.76 349.4 187.52C347.64 187.08 344.4 186.24 342.2 185.72C335.68 184.16 335 183.96 334.6 183.52C334.32 183.2 334.48 183.16 335.2 183.36C335.76 183.52 337.56 183.88 339.2 184.24ZM90.24 218.4C90.56 220.28 91.32 223.64 91.84 225.84C93.04 231 93.08 231.36 91.88 231.04C91.36 230.92 89.08 230.56 86.76 230.2C84.48 229.84 81.96 229.4 81.2 229.2C80.44 229.04 78.8 228.72 77.6 228.56C76.4 228.4 75.32 228.24 75.2 228.2C75.08 228.16 74.04 228 72.92 227.84C71.04 227.56 70.04 227.04 70.48 226.6C70.56 226.52 71.4 226.6 72.4 226.8C73.4 226.96 75.48 227.32 77 227.56C80.44 228.08 89 229.56 90.52 229.88C91.76 230.12 91.88 229.6 91.2 227.2C90.68 225.4 89.2 216.8 89.2 215.6C89.2 213.96 89.56 214.96 90.24 218.4Z" fill="#333946"/>
<path d="M101.949 24.4115C101.509 24.6515 100.989 25.0515 100.829 25.2915C100.389 25.9315 100.909 30.6515 101.629 32.4515C102.109 33.6515 102.189 34.8115 101.989 37.7315C101.789 40.4915 101.909 42.0515 102.349 43.8115C102.709 45.1715 103.069 48.7315 103.189 52.5315C103.309 56.0515 103.469 59.5315 103.589 60.2915C103.709 61.0515 103.909 63.0115 103.989 64.6915C104.109 66.3715 104.229 68.2115 104.309 68.8115C104.389 69.4115 104.189 70.3715 103.909 70.9315C103.109 72.5315 102.829 74.5315 103.149 76.9315C103.349 78.6915 103.549 79.1315 104.149 79.1315C104.549 79.1315 105.269 79.4915 105.789 79.9315C106.669 80.6515 106.709 80.7715 106.069 81.1315C105.429 81.5315 105.469 81.6515 106.349 83.0115C108.029 85.4915 107.589 89.2915 105.389 91.2915C104.469 92.1315 104.229 93.3315 105.069 93.0115C118.389 87.8515 131.629 82.5715 131.869 82.3315C132.189 82.0515 133.189 79.3715 139.709 61.3715C141.949 55.2515 143.749 50.0915 143.749 49.8915C143.749 49.7315 142.709 48.8515 141.429 47.9715C140.149 47.0915 138.789 45.9315 138.389 45.3715C138.029 44.8115 136.509 43.7315 135.029 42.9715C133.549 42.2115 130.629 40.6115 128.589 39.3715C126.189 37.9715 124.349 37.1315 123.589 37.1315C122.229 37.1315 120.309 36.0915 118.629 34.4915C116.869 32.8515 111.189 29.2115 109.949 28.9315C109.269 28.8115 108.389 28.6115 107.909 28.5315C106.829 28.2915 105.709 27.2515 104.589 25.4115C103.629 23.8515 103.229 23.6915 101.949 24.4115Z" fill="#E7E0FF"/>
<path d="M349.396 30.5773C348.436 32.7373 347.516 33.5373 345.036 34.4173C342.436 35.3373 337.596 39.2173 336.076 41.6173C335.076 43.1373 334.036 44.1373 332.556 44.9773C331.396 45.6173 330.236 46.3373 329.996 46.5373C328.036 48.2573 322.836 51.8173 322.276 51.8173C321.876 51.8173 320.676 52.4973 319.596 53.2973C318.516 54.0973 316.556 55.5773 315.236 56.5773C313.916 57.5773 311.316 59.6973 309.436 61.2973C307.556 62.8973 304.916 64.9773 303.596 65.8973C302.236 66.8573 300.236 68.4173 299.156 69.4173C298.076 70.4173 296.196 72.0173 295.036 73.0173C292.596 75.0573 291.556 76.0573 290.516 77.2573C289.836 78.0973 289.836 78.2573 290.476 80.6573L291.156 83.2173L299.996 82.9373C304.876 82.7773 312.076 82.4573 316.036 82.2173C328.316 81.5373 331.996 81.8173 334.876 83.6973C335.396 84.0173 335.956 84.1773 336.196 84.0573C336.396 83.8973 336.876 82.4973 337.236 80.8973C337.596 79.3373 338.436 77.0973 339.076 75.9373C339.916 74.4573 340.356 73.0173 340.596 70.9373C340.956 67.8173 342.236 62.8973 343.476 59.6173C343.916 58.5373 344.516 56.2173 344.836 54.4173C345.156 52.6573 345.596 50.5373 345.876 49.6573C346.116 48.8173 346.356 47.8173 346.436 47.4573C346.716 45.8973 347.556 43.1773 347.796 42.8173C347.996 42.5773 348.716 40.5373 349.436 38.2173C350.156 35.8973 351.276 33.2573 351.916 32.2973C353.436 30.0973 353.316 28.8573 351.596 28.6973C350.436 28.5773 350.236 28.7373 349.396 30.5773Z" fill="#E7E0FF"/>
<path d="M160.38 71.9878C159.86 73.7878 158.94 76.8678 158.3 78.8678C157.7 80.8278 155.9 86.8678 154.34 92.2678C151.14 103.028 150.18 105.228 147.66 107.428C145.46 109.388 144.58 109.788 131.74 115.068C125.82 117.508 118.86 120.388 116.34 121.468C113.82 122.548 111.1 123.668 110.3 123.988C108.86 124.588 108.86 124.628 108.66 127.308C108.38 131.068 106.86 134.348 104.3 136.748C102.34 138.588 98.8596 140.268 97.0996 140.268C96.4196 140.268 96.3396 140.428 96.5796 140.948C96.7396 141.348 96.8996 142.388 96.8996 143.228C96.9396 144.708 96.8196 144.868 94.7396 146.108C93.5396 146.828 92.3796 147.508 92.1796 147.588C91.9796 147.628 91.9396 148.108 92.0996 148.588C92.3796 149.428 92.4196 149.428 94.4996 148.028C99.2596 144.868 106.02 143.548 110.54 144.868C115.54 146.308 120.58 149.708 125.54 154.908C128.38 157.908 132.7 163.708 134.78 167.308L135.7 168.988L136.82 167.908C139.66 165.188 141.22 163.468 142.62 161.508C143.22 160.708 144.78 158.988 146.14 157.668C147.46 156.348 148.9 154.708 149.34 154.068C149.74 153.388 151.42 151.468 153.02 149.788L155.98 146.668L155.74 144.788C155.62 143.708 155.42 140.348 155.3 137.268C155.02 129.668 155.02 128.988 155.14 128.068C155.38 126.188 154.22 111.348 153.74 110.188C153.3 109.108 154.66 108.788 155.34 109.788C155.66 110.228 156.38 110.708 156.94 110.828C157.54 110.988 159.1 111.908 160.46 112.868C161.78 113.868 163.26 114.668 163.74 114.668C164.18 114.668 165.26 115.228 166.1 115.868C166.98 116.548 167.9 117.068 168.18 117.068C168.46 117.068 168.94 117.388 169.22 117.788C169.66 118.428 172.06 119.908 178.98 123.668C179.9 124.188 181.78 125.428 183.18 126.468C184.58 127.508 186.66 128.788 187.74 129.268C188.86 129.788 189.98 130.468 190.26 130.788C190.54 131.108 191.54 131.668 192.54 132.068C193.54 132.428 194.34 132.868 194.34 133.028C194.34 133.188 194.94 133.508 195.7 133.788C197.1 134.308 202.5 137.668 205.46 139.908C206.42 140.628 208.46 141.828 209.98 142.548C211.5 143.268 212.74 144.028 212.74 144.268C212.74 144.468 213.26 144.668 213.9 144.668C214.7 144.668 215.18 144.428 215.34 143.908C215.46 143.508 216.1 142.948 216.74 142.668C217.34 142.428 218.54 141.468 219.38 140.588C220.18 139.708 221.66 138.628 222.62 138.188C223.62 137.748 225.34 136.468 226.5 135.348C227.66 134.188 229.78 132.548 231.18 131.668C232.58 130.788 234.3 129.588 234.94 128.988C235.62 128.388 236.94 127.188 237.94 126.268L239.74 124.668L237.14 124.948C235.7 125.068 231.14 125.228 226.94 125.228C218.42 125.268 215.7 124.788 211.34 122.508C205.98 119.708 202.82 115.908 185.22 91.1478C175.46 77.4278 176.3 78.4278 172.5 75.8278C170.54 74.4678 168.34 72.7478 167.58 71.9878C166.42 70.8278 162.54 68.6678 161.62 68.6678C161.46 68.6678 160.9 70.1478 160.38 71.9878Z" fill="#E7E0FF"/>
<path d="M250 132.2C250 132.64 249.36 135.52 248.56 138.6C246.48 146.64 246.56 146.12 247.44 145.88C247.88 145.72 250.08 145.16 252.4 144.6C254.72 144.04 257 143.44 257.44 143.24C258.6 142.72 258.88 141.04 257.92 140.24C257.48 139.84 257.2 139.04 257.16 138.12C257 134.16 256.88 134 254.16 134C251.96 134 251.36 133.72 250.48 132.2C250.04 131.4 250.04 131.4 250 132.2Z" fill="#E7E0FF"/>
<path d="M348.281 149.25C343.921 153.05 341.801 153.69 332.601 153.97C328.521 154.09 325.041 154.33 324.881 154.45C324.641 154.73 323.641 158.49 316.481 186.61C314.401 194.73 311.241 206.97 309.481 213.81C307.721 220.61 306.161 226.65 306.081 227.21C305.521 229.73 307.921 222.93 312.721 208.21C319.641 187.13 324.281 173.37 325.841 169.33C327.281 165.61 329.281 163.45 331.641 162.97C332.441 162.85 338.681 162.93 345.521 163.21C353.721 163.53 358.081 163.57 358.241 163.29C358.561 162.77 365.761 159.05 367.641 158.41C369.641 157.77 373.761 155.73 374.081 155.25C374.201 155.05 373.881 154.61 373.321 154.33C372.801 154.05 371.841 153.49 371.201 153.13C370.521 152.77 368.921 152.33 367.641 152.21C364.081 151.85 363.281 151.65 358.281 149.77C352.481 147.57 350.361 147.45 348.281 149.25Z" fill="#E7E0FF"/>
<path d="M72.9447 160.446C70.4247 161.806 65.0647 164.766 61.0247 166.926C52.9847 171.286 51.8647 172.286 49.5047 176.886C48.5447 178.806 47.8647 179.566 46.3047 180.526C44.0247 181.886 39.6647 186.926 38.4647 189.526C37.5447 191.526 32.8247 195.886 30.4247 196.846C28.8647 197.526 28.2647 198.686 28.9447 199.926C29.4647 200.886 30.1847 200.926 32.6647 200.046C34.2647 199.486 34.8247 199.446 36.2647 199.846C37.1847 200.126 38.9447 200.526 40.1447 200.766C41.3447 201.006 42.6247 201.366 42.9847 201.526C43.8247 201.966 47.5447 202.606 51.1447 202.926C52.6647 203.086 54.1047 203.286 54.3047 203.446C54.5447 203.566 58.5847 203.726 63.3447 203.766C72.5847 203.846 74.4247 204.006 77.6247 204.926C79.9447 205.606 82.9447 205.726 82.9447 205.126C82.9447 204.926 82.2247 200.726 81.3847 195.846C75.9447 165.286 76.1847 167.006 77.1047 162.406C77.4647 160.606 77.8647 158.846 77.9847 158.526C78.3847 157.566 77.8247 157.766 72.9447 160.446Z" fill="#E7E0FF"/>
<path d="M143.776 176.058C143.776 176.178 145.216 179.298 147.016 183.018C152.096 193.618 157.256 205.618 160.336 214.178C162.496 220.098 163.256 225.938 162.576 231.378C161.056 243.538 154.416 251.698 141.416 257.378L137.016 259.298L137.136 261.738C137.176 263.098 137.016 265.018 136.736 266.058C136.496 267.098 136.136 269.618 135.976 271.658C135.776 274.218 135.416 276.058 134.736 277.578C133.736 279.938 132.976 284.898 132.976 289.178C132.976 291.658 132.576 293.338 130.536 299.098C129.816 301.178 129.816 301.218 130.576 301.978C132.016 303.418 132.976 302.898 133.696 300.338C134.256 298.298 137.616 293.618 140.296 291.178C141.536 290.058 142.976 288.418 143.456 287.578C145.616 283.938 148.776 279.938 150.136 279.138C152.096 277.938 153.096 276.858 154.376 274.538C157.016 269.658 161.576 264.098 164.536 262.138C166.696 260.738 168.176 258.818 168.176 257.498C168.176 256.178 169.696 254.138 173.736 249.978C175.576 248.098 177.696 245.578 178.496 244.378C180.376 241.458 184.136 236.818 184.936 236.378C185.456 236.138 185.736 234.938 186.096 231.298C186.776 224.898 190.536 191.978 190.696 190.898L190.856 190.058L189.736 190.898C189.096 191.338 188.136 192.418 187.576 193.298C186.976 194.138 186.056 195.338 185.456 195.978C183.496 198.018 182.776 198.978 182.256 200.178C181.936 200.818 181.016 201.978 180.136 202.698C179.256 203.458 177.936 205.018 177.176 206.178C176.456 207.338 175.096 209.098 174.176 210.058C171.016 213.378 168.216 216.858 167.696 218.018C167.176 219.178 166.576 219.578 166.576 218.778C166.576 218.538 166.856 217.698 167.176 216.898C167.496 216.138 167.776 214.658 167.776 213.618C167.776 212.618 167.976 211.058 168.216 210.178C168.936 207.498 169.456 203.498 169.416 201.178C169.376 199.018 169.496 198.258 170.816 192.458C171.176 190.858 171.376 188.978 171.256 188.258C171.176 187.578 171.296 186.418 171.576 185.738C171.856 185.058 172.136 183.338 172.216 181.938L172.376 179.378L170.576 179.338C168.416 179.338 163.936 178.818 161.176 178.298C158.416 177.778 151.496 176.778 149.576 176.618C148.696 176.538 147.016 176.338 145.896 176.178C144.736 176.018 143.776 175.938 143.776 176.058Z" fill="#E7E0FF"/>
<path d="M262.707 185.163C256.027 186.883 250.187 188.483 249.707 188.683C249.107 188.963 248.587 190.123 247.707 193.203C247.067 195.483 246.507 197.603 246.467 197.883C246.387 198.163 246.067 199.283 245.667 200.323L244.987 202.283L243.987 201.123C242.627 199.443 239.587 194.083 239.307 192.723C239.147 192.083 238.787 191.563 238.467 191.563C237.507 191.563 229.347 193.643 228.947 194.003C228.467 194.443 228.067 202.043 227.307 225.563L226.667 245.723L228.347 247.283C229.307 248.163 230.667 250.163 231.667 252.083C232.547 253.883 233.707 255.523 234.147 255.763C235.667 256.523 236.267 257.163 238.987 261.123C240.467 263.243 242.187 265.603 242.787 266.403C243.427 267.203 244.027 268.523 244.187 269.403C244.507 271.643 245.227 272.883 246.987 274.163C248.827 275.563 249.267 276.083 250.307 278.243C251.267 280.123 252.067 280.963 252.667 280.603C252.867 280.443 253.347 279.483 253.707 278.403C254.067 277.283 255.187 275.483 256.267 274.243C258.507 271.683 260.507 267.763 261.387 264.083C261.787 262.483 262.467 261.043 263.267 260.123L264.507 258.683L263.427 255.403C262.067 251.283 261.347 245.163 261.707 240.763C261.907 238.443 264.067 229.043 268.507 211.163C274.987 185.083 275.707 181.923 275.187 182.003C275.027 182.003 269.427 183.443 262.707 185.163Z" fill="#E7E0FF"/>
<path d="M165.28 29.2799C165 29.5599 164.84 30.3199 164.84 30.9599L164.88 32.1999L165.16 31.0399C165.68 28.6399 167.64 28.7199 168.12 31.1599C168.4 32.5599 171.28 40.0799 171.44 39.8799C171.72 39.6399 167.96 29.4399 167.48 29.1199C166.76 28.6799 165.84 28.7199 165.28 29.2799Z" fill="#ECECEC"/>
<path d="M161.84 33.1202C161.44 33.7602 160 39.3602 160.2 39.5202C160.44 39.7602 161.2 37.7602 161.2 36.9202C161.2 35.3202 162.16 33.2402 162.96 33.0802C163.8 32.9202 163.8 32.9202 162.92 32.8402C162.44 32.8402 161.96 32.9602 161.84 33.1202Z" fill="#ECECEC"/>
<path d="M267.72 91.72C263.16 95.52 258.88 99.16 258.2 99.76L257 100.84L258.8 99.88C259.8 99.32 261.88 98.24 263.4 97.4C264.96 96.6 269.76 94.04 274.12 91.72L282.04 87.48L294.12 94.76L306.2 102.04L297.6 93.4L289 84.8H282.56H276.08L267.72 91.72Z" fill="#ECECEC"/>
<path d="M84.8 102.64C84.8 102.72 85.56 103.16 86.48 103.6C88.6 104.6 91.32 104.68 92.04 103.68C92.48 103.12 92.48 103.08 92 103.48C91.2 104.24 89.12 104.12 86.8 103.24C85.72 102.8 84.8 102.56 84.8 102.64Z" fill="#ECECEC"/>
<path d="M274.84 111.84C273.2 113 272.8 114.72 272.8 120.6V126H268.04C265.4 126 263.16 126.12 263.08 126.28C262.96 126.48 265.2 126.56 268.04 126.48L273.2 126.36V120.76C273.2 114.76 273.52 113.44 275.28 112.24C276.52 111.36 277.36 111.44 278.76 112.64C280.08 113.72 280.52 113.4 279.24 112.24C278.12 111.24 275.96 111.04 274.84 111.84Z" fill="#ECECEC"/>
<path d="M280.28 115.6C280.4 116.6 280.56 117.48 280.64 117.56C280.96 117.92 280.72 115.36 280.4 114.6C280.16 114.08 280.12 114.4 280.28 115.6Z" fill="#ECECEC"/>
<path d="M314.8 118.08C314.8 118.32 316.2 123.68 316.6 125.08C316.88 125.88 316.72 125.96 314.76 126.12L312.6 126.24L314.92 126.32C316.28 126.36 317.2 126.24 317.2 125.96C317.2 125.44 315.2 118.24 314.96 118.04C314.88 117.96 314.8 117.96 314.8 118.08Z" fill="#ECECEC"/>
<path d="M280.68 121.4C280.8 122.92 280.96 124.28 281.04 124.36C281.36 124.72 281.12 120.16 280.8 119.4C280.6 118.92 280.56 119.72 280.68 121.4Z" fill="#ECECEC"/>
<path d="M70.52 122.8C68.48 123.64 68.32 125.8 70.08 129.16C71.76 132.32 71.96 132.08 70.36 128.84C68.6 125.32 69.04 123.2 71.56 123.2C72.84 123.2 74.24 124.68 75.76 127.6C77.16 130.24 77.88 131.24 77.32 129.68C76.48 127.4 74.32 124.08 73.2 123.28C71.76 122.32 71.76 122.32 70.52 122.8Z" fill="#ECECEC"/>
<path d="M83.24 128.64C80.72 130.08 78.4 131.12 78.12 131.04C77.56 130.8 77.4 131.44 77.92 131.76C78.24 131.96 86.96 127.2 87.8 126.36C88.44 125.72 87.92 126 83.24 128.64Z" fill="#ECECEC"/>
<path d="M250.64 127.36C250.28 127.96 250 129.08 250.04 130.08L250.08 131.8L250.4 129.88C250.6 128.8 250.96 127.68 251.24 127.36C251.48 127.04 251.64 126.68 251.52 126.56C251.4 126.48 251 126.84 250.64 127.36Z" fill="#ECECEC"/>
<path d="M281.32 129.4C281.32 130.48 281.4 130.92 281.48 130.28C281.56 129.68 281.56 128.8 281.48 128.28C281.4 127.8 281.32 128.28 281.32 129.4Z" fill="#ECECEC"/>
<path d="M89.36 131.44C88.64 132.04 88.64 132.04 89.48 131.64C90.6 131.08 91.28 131.36 92.12 132.76C93.08 134.4 92.96 135 91.52 136.2C90.32 137.16 90.28 137.2 91.28 136.76C92.72 136.12 93.36 136.44 94.16 138.16C94.52 138.96 94.92 139.6 95.04 139.6C95.44 139.6 93.92 136.6 93.36 136.28C93 136.08 92.88 135.64 93.04 134.96C93.48 133.24 92 130.8 90.52 130.8C90.32 130.8 89.8 131.08 89.36 131.44Z" fill="#ECECEC"/>
<path d="M258.04 134.24C256.84 135.76 256.92 138.4 258.16 139.88C258.84 140.68 259 141.24 258.76 141.8C257.8 144.28 259.04 147.68 260.92 147.56C261.8 147.48 261.8 147.48 260.92 147.32C259.52 147.04 258.92 145.84 259.04 143.6C259.16 141.24 259.36 140.8 260.52 140.8C261 140.8 261.68 140.6 262 140.4C262.4 140.16 262.08 140.08 260.92 140.2C258.68 140.4 257.96 139.76 257.8 137.52C257.6 134.52 258.16 133.84 261.2 133.56L263.8 133.32L261.32 133.28C259.08 133.2 258.76 133.32 258.04 134.24Z" fill="#ECECEC"/>
<path d="M73.08 135.48C72.76 135.76 73.52 137.2 73.96 137.2C74.36 137.2 74.08 135.68 73.6 135.4C73.44 135.32 73.2 135.32 73.08 135.48Z" fill="#ECECEC"/>
<path d="M302.48 153.8C302.84 154.16 316.92 154.36 317.8 154C318.24 153.84 314.92 153.68 310.44 153.64C305.92 153.64 302.36 153.68 302.48 153.8Z" fill="#ECECEC"/>
<path d="M319.52 153.88C320 153.96 320.72 153.96 321.12 153.88C321.48 153.76 321.08 153.68 320.2 153.72C319.32 153.72 319 153.8 319.52 153.88Z" fill="#ECECEC"/>
<path d="M113.72 163.8C113.72 164.88 113.8 165.32 113.88 164.68C113.96 164.08 113.96 163.2 113.88 162.68C113.8 162.2 113.72 162.68 113.72 163.8Z" fill="#ECECEC"/>
<path d="M277.48 174.88C277.12 176.48 276.72 178.52 276.64 179.4C276.48 180.68 276.52 180.6 277 178.8C277.6 176.52 277.72 176 278.2 173.48C278.72 170.84 278.12 171.92 277.48 174.88Z" fill="#ECECEC"/>
<path d="M341.4 185.24C346.84 186.72 354.48 188.44 354.88 188.32C355.16 188.2 354 187.84 352.36 187.44C350.76 187.08 347.96 186.44 346.2 186C344.44 185.6 342.28 185.16 341.4 185.04L339.8 184.84L341.4 185.24Z" fill="#ECECEC"/>
<path d="M124.64 194.8C124.76 195.36 125.08 196.08 125.28 196.4C125.52 196.8 125.56 196.68 125.36 196C125.24 195.44 124.92 194.72 124.72 194.4C124.48 194 124.44 194.12 124.64 194.8Z" fill="#ECECEC"/>
<path d="M125.64 197.4C125.6 197.64 126.12 199.36 126.76 201.2C127.4 203.08 127.96 204.4 127.96 204.2C128 203.96 127.48 202.24 126.84 200.4C126.2 198.52 125.64 197.2 125.64 197.4Z" fill="#ECECEC"/>
<path d="M128.04 205.08C128 205.56 129.8 212.12 130.2 213C130.28 213.2 130.28 212.72 130.16 211.92C129.88 210.16 128.08 204.36 128.04 205.08Z" fill="#ECECEC"/>
<path d="M130.56 215.2C130.72 215.96 131 217.4 131.16 218.4C131.36 219.4 131.8 221.64 132.16 223.4C132.52 225.16 133.16 229.2 133.56 232.4C133.96 235.6 134.32 237.4 134.36 236.4C134.4 232.84 131.36 214.76 130.56 214.04C130.4 213.92 130.4 214.44 130.56 215.2Z" fill="#ECECEC"/>
<path d="M90.84 224C90.84 224.32 91.08 225.48 91.36 226.6C91.68 227.68 91.96 228.32 91.96 228C91.96 227.68 91.72 226.48 91.44 225.4C91.12 224.28 90.84 223.68 90.84 224Z" fill="#ECECEC"/>
<path d="M77 227.92C77.12 228.08 78.44 228.4 79.92 228.68C81.4 228.92 84.12 229.4 86 229.76C89.84 230.48 90.6 230.52 89.28 230C88.76 229.76 86.08 229.24 83.28 228.8C80.48 228.36 77.88 227.92 77.48 227.8C77.04 227.72 76.84 227.76 77 227.92Z" fill="#ECECEC"/>
<path d="M92 229.56C92 230 91.68 230.44 91.32 230.52C90.76 230.68 90.84 230.72 91.52 230.76C92.2 230.8 92.4 230.6 92.4 229.8C92.4 229.24 92.32 228.8 92.2 228.8C92.08 228.8 92 229.16 92 229.56Z" fill="#ECECEC"/>
<path d="M134.56 245.2C134.56 248.4 134.64 249.68 134.68 248.08C134.76 246.52 134.76 243.88 134.68 242.28C134.64 240.72 134.56 242 134.56 245.2Z" fill="#ECECEC"/>
<path d="M34.52 247.2C34.52 249.08 34.6 249.84 34.68 248.88C34.76 247.96 34.76 246.44 34.68 245.48C34.6 244.56 34.52 245.32 34.52 247.2Z" fill="#ECECEC"/>
<path d="M132.12 262.68C131.52 263.96 131.48 264.4 131.92 264.4C132.28 264.4 133.2 262.64 133.2 262C133.2 261.24 132.6 261.64 132.12 262.68Z" fill="#ECECEC"/>
<path d="M190 275.4C187.68 275.72 185.36 275.96 184.8 276C184.24 276.04 184 276.16 184.28 276.24C184.76 276.48 196.04 275.28 196.36 275C196.64 274.72 194.64 274.84 190 275.4Z" fill="#ECECEC"/>
<path d="M90 227.333L88 214.333L91 230L72 226L90 227.333Z" fill="#E0FB52"/>
<path d="M274 175.333L277.333 166.333L275.333 178.667L228.333 190.333L274 175.333Z" fill="#E0FB52"/>
<path d="M320.667 155.333H311.333L317.333 157.333L315 178L320.667 155.333Z" fill="#E0FB52"/>
</svg>
