<svg width="360" height="318" viewBox="0 0 360 318" fill="none" xmlns="http://www.w3.org/2000/svg">
<g clip-path="url(#clip0_793_2387)">
<path d="M144.375 118.859C143.901 119.333 143.513 120.151 143.513 120.668C143.513 121.229 145.366 124.848 147.607 128.684C149.848 132.562 151.701 135.794 151.701 135.837C151.701 135.88 151.141 136.354 150.408 136.871L149.158 137.819L147.995 135.88C146.142 132.648 143.427 131.872 141.359 133.941C140.109 135.191 140.281 137.087 141.876 140.017C143.169 142.516 143.212 142.602 142.393 143.206C141.316 144.024 141.402 144.068 139.204 142.301C137.739 141.137 137.007 140.836 135.8 140.922C133.99 141.094 132.482 142.818 132.87 144.369C133.042 144.886 136.532 149.713 140.669 155.056L148.21 164.709L153.037 177.809C155.665 184.962 157.777 190.909 157.691 191.038C157.605 191.124 156.441 190.909 155.148 190.564C140.583 186.729 123.691 194.356 116.882 207.844C116.064 209.525 110.376 224.348 100.421 250.721C97.7926 257.702 95.4656 263.95 95.2071 264.553L94.7762 265.674L74.2212 265.975C52.7182 266.234 31.0859 266.406 25.1823 266.277L21.7349 266.234L19.8819 262.959C18.2014 259.899 17.9859 259.21 16.9948 252.531C16.3915 248.308 15.6158 244.817 15.1849 244.084C14.1076 242.232 12.427 241.154 10.2724 240.939C8.63489 240.723 8.20397 240.853 7.64377 241.671C7.25594 242.232 6.9112 242.404 6.69574 242.145C6.13554 241.24 2.17106 239.517 0.662835 239.517C-1.53487 239.517 -3 241.068 -3 243.352C-3 249.04 9.92765 300.018 12.7717 305.491C13.7198 307.344 17.9428 310.92 20.1405 311.739C21.9073 312.386 23.9757 312.515 33.8007 312.687C43.0655 312.817 45.4787 312.73 45.7373 312.256C45.9527 311.955 46.1251 311.912 46.1251 312.17C46.1251 312.946 59.3975 313.42 78.2288 313.334C153.338 313.032 218.968 312.73 222.415 312.773C225.432 312.773 226.552 312.644 226.552 312.213C226.595 311.955 227.371 309.154 228.362 306.094C229.353 302.992 230.258 299.932 230.344 299.286C230.473 298.639 230.775 297.734 230.991 297.346C231.206 296.959 231.68 295.45 232.068 294.028C233.835 287.608 238.618 282.264 244.694 280.066C247.409 279.075 254.691 278.3 273.221 277.007C285.761 276.145 288.519 276.016 288.26 276.274C288.131 276.447 282.443 277.05 275.548 277.653C255.725 279.334 249.003 280.023 247.15 280.454C243.617 281.273 241.117 282.738 238.316 285.582C235.127 288.814 233.878 291.27 231.809 298.122C229.482 306.008 227.457 312.127 227.026 312.644C226.811 312.903 226.509 314.497 226.38 316.178C226.121 319.108 226.164 319.237 227.155 319.582C227.716 319.797 229.784 320.142 231.723 320.315L235.3 320.616L235.731 319.453C235.946 318.849 236.162 317.557 236.162 316.652C236.162 314.928 237.023 313.635 238.144 313.635C238.618 313.635 238.747 314.325 238.747 316.566C238.747 318.289 238.963 319.711 239.264 320.013C239.954 320.702 247.452 320.702 248.141 320.013C248.443 319.711 248.658 318.16 248.658 316.135C248.658 313.118 248.745 312.773 249.477 312.773C250.339 312.773 250.813 314.239 250.813 316.824C250.813 318.936 251.416 319.237 255.553 319.237C260.164 319.237 260.724 318.806 260.724 315.23V312.773L272.488 312.73C278.909 312.687 295.758 312.515 309.849 312.343C330.663 312.084 335.877 311.912 337.644 311.394C344.883 309.197 350.528 304.241 352.769 298.122C353.114 297.045 353.631 294.933 353.846 293.425C354.234 290.84 354.105 290.107 350.83 276.835C348.934 269.25 346.391 258.65 345.185 253.306C339.626 228.83 336.911 218.186 335.791 216.075C333.765 212.282 330.792 209.697 326.871 208.232C323.423 206.982 323.423 206.982 314.805 207.111C307.134 207.241 297.051 207.715 288.045 208.361C285.502 208.533 284.942 208.749 284.382 209.568C283.692 210.688 280.374 215.471 278.047 218.66C275.246 222.538 270.549 228.054 268.782 229.519C266.973 230.984 265.464 231.588 264.387 231.157C263.439 230.812 263.525 226.417 264.559 222.581C265.723 218.315 268.825 209.611 269.558 208.62C269.903 208.189 269.256 210.559 268.093 213.877C265.033 222.84 263.741 230.467 265.206 230.467C265.895 230.467 271.066 226.331 271.066 225.813C271.066 225.641 271.497 225.038 272.057 224.434C273.738 222.538 276.884 218.66 277.659 217.54C278.047 216.936 279.642 214.696 281.193 212.584C283.951 208.792 283.994 208.663 283.822 206.551C283.692 205.345 283.477 202.328 283.304 199.743L283.046 195.132H285.157C288.001 195.132 290.07 194.011 291.061 191.943C291.794 190.392 291.837 190.09 291.276 188.496C290.846 187.203 290.242 186.513 289.165 185.953C288.26 185.522 287.7 184.962 287.786 184.531C288.26 182.161 285.588 179.188 283.003 179.188C280.159 179.188 278.995 180.48 277.142 185.824C276.668 187.203 276.194 188.409 276.108 188.496C276.022 188.582 274.341 188.366 272.402 187.935C268.136 187.074 266.197 187.504 264.258 189.702C262.491 191.727 262.146 194.098 263.267 196.597C264.473 199.355 266.197 200.303 269.903 200.303C273.307 200.303 273.307 200.303 271.497 204.31L270.248 207.111L266.671 206.077C256.415 203.061 243.66 200.174 231.594 198.191C220.993 196.425 218.925 196.209 218.925 196.855C218.925 197.717 220.821 203.966 221.122 204.181C221.596 204.526 223.665 209.007 223.665 209.697C223.665 209.999 223.923 210.774 224.268 211.421C225.001 212.843 225.69 216.247 225.087 215.601C224.742 215.256 223.062 211.076 221.424 206.68C221.036 205.689 220.692 205.474 218.795 205.258C216.942 205.086 201.559 203.75 201.041 203.75C200.74 203.75 192.38 190.133 177.341 165.183C174.755 160.917 170.317 153.634 167.43 149.023C164.542 144.412 159.328 135.88 155.795 130.063C152.261 124.245 149.115 119.16 148.771 118.729C147.866 117.695 145.453 117.781 144.375 118.859ZM264.947 191.124C264.775 192.072 263.999 191.986 263.827 191.081C263.741 190.65 263.956 190.392 264.387 190.392C264.818 190.392 265.033 190.693 264.947 191.124ZM271.066 191.684C271.066 192.589 270.42 192.848 269.989 192.115C269.687 191.598 270.075 190.823 270.678 190.823C270.894 190.823 271.066 191.21 271.066 191.684ZM168.162 217.755C171.48 224.348 176.22 229.132 182.512 232.234C187.252 234.561 191.389 235.509 198.24 235.854C201.429 235.983 204.36 236.199 204.704 236.285C205.049 236.371 208.281 236.543 211.815 236.716C220.045 237.017 223.751 237.362 223.579 237.793C223.406 238.31 219.743 240.809 214.4 244.084C211.815 245.679 209.617 247.144 209.531 247.359C209.444 247.532 209.186 247.704 208.97 247.704C208.755 247.704 207.635 248.264 206.514 248.997C202.938 251.195 202.981 250.419 206.557 248.006C211.858 244.515 215.865 241.887 218.839 240.12C220.605 239.086 221.338 238.396 220.993 238.181C220.692 238.008 216.382 237.75 211.384 237.621C195.957 237.104 191.518 236.673 187.683 235.423C179.323 232.622 174.54 229.045 170.058 222.28C168.162 219.479 165.49 214.394 165.49 213.791C165.534 213.187 166.783 215.083 168.162 217.755ZM306.617 233.915C306.79 234.173 306.703 234.604 306.488 234.906C305.971 235.552 303.816 242.361 303.816 243.352C303.816 243.74 303.428 244.817 302.954 245.765C302.48 246.713 302.093 247.747 302.093 248.135C302.093 248.523 301.489 250.548 300.757 252.66C299.464 256.366 299.464 256.495 300.197 257.098C300.8 257.529 301.619 257.615 303.17 257.357C304.377 257.228 306.574 257.012 308.126 256.926C309.677 256.84 311.53 256.667 312.219 256.538C312.952 256.409 314.115 256.236 314.805 256.15C315.537 256.064 317.864 255.676 319.976 255.288C322.13 254.944 325.621 254.513 327.732 254.384C329.887 254.211 332.602 253.91 333.765 253.694C336.609 253.177 343.073 252.875 342.815 253.306C342.685 253.479 341.393 253.78 339.928 253.953C336.523 254.297 329.672 255.288 325.147 256.107C319.502 257.098 319.286 257.141 314.848 257.831C312.478 258.176 310.28 258.477 309.935 258.477C309.461 258.477 309.375 258.779 309.591 259.641C310.409 263.261 311.573 269.94 311.401 270.328C311.314 270.543 311.142 270.457 311.013 270.112C310.194 267.57 309.375 264.295 308.987 261.838L308.47 258.951L303.73 259.037C299.464 259.124 298.947 259.037 298.387 258.262C297.568 257.228 297.783 254.599 298.775 252.444C299.162 251.626 300.671 247.359 302.136 242.964C303.601 238.569 304.98 234.647 305.195 234.216C305.626 233.398 306.229 233.268 306.617 233.915ZM233.361 239.086C234.74 239.086 234.869 239.258 237.411 244.257C238.876 247.101 239.997 249.428 239.868 249.428C239.781 249.428 236.42 246.972 232.456 243.998L225.173 238.569L228.577 238.827C230.43 238.957 232.628 239.086 233.361 239.086ZM157.561 245.463C170.187 258.865 173.635 262.614 174.54 263.735L175.445 264.941H159.285C150.365 264.941 143.082 264.812 143.082 264.596C143.082 264.295 151.442 239.086 151.529 239.086C151.572 239.086 154.286 241.93 157.561 245.463ZM94.7331 269.552C93.1817 273.732 91.3719 278.084 88.0107 285.798C86.7179 288.728 83.486 291.658 81.5038 291.658C80.8574 291.658 80.1679 291.831 79.9524 292.046C79.4784 292.477 79.1768 292.563 62.1554 298.338C53.0629 301.44 50.4343 302.474 49.0984 303.638C47.03 305.405 46.0389 307.473 46.0389 309.886C46.0389 311.481 45.9958 311.567 45.5649 310.705C44.9616 309.369 45.8234 305.706 47.2455 303.853C48.3228 302.474 52.7613 299.846 54.054 299.846C54.4419 299.846 55.3468 299.501 56.1656 299.027C56.9412 298.596 58.234 298.079 59.0096 297.907C59.7853 297.734 61.4228 297.174 62.6725 296.614C63.8791 296.097 68.8347 294.33 73.661 292.736C79.7801 290.667 82.9258 289.417 84.1324 288.469C85.8992 287.09 85.8561 287.177 90.7255 275.887C93.6127 269.207 95.6811 264.941 96.0689 264.941C96.2844 264.941 95.6811 267.01 94.7331 269.552ZM141.316 268.69C140.885 270.328 140.023 272.784 139.463 274.206C138.558 276.49 135.972 283.471 134.162 288.426C133.257 290.969 131.792 293.899 131.577 293.641C131.318 293.382 134.593 282.609 136.489 277.696C137.308 275.542 138.17 273.172 138.429 272.482C138.687 271.75 139.032 270.974 139.204 270.759C139.377 270.5 139.764 269.595 140.066 268.69C140.497 267.311 141.531 265.803 142.005 265.803C142.091 265.803 141.79 267.096 141.316 268.69ZM241.548 266.277C244.995 266.622 226.164 266.837 199.663 266.794C187.726 266.794 177.987 266.837 177.987 266.923C177.987 267.01 179.452 270.5 181.219 274.637C182.986 278.774 184.451 282.264 184.451 282.437C184.451 282.609 185.313 284.764 186.347 287.306C189.148 293.942 190.656 298.079 190.398 298.338C190.312 298.467 189.579 297.045 188.803 295.192C188.028 293.382 186.649 290.236 185.701 288.211C184.796 286.186 183.762 283.772 183.417 282.824C183.072 281.876 181.435 277.783 179.797 273.775C178.16 269.724 176.867 266.32 176.953 266.148C177.168 265.803 237.928 265.889 241.548 266.277ZM260.293 307.818C260.293 310.834 260.121 312.773 259.862 312.773C259.604 312.773 259.431 310.92 259.431 308.119C259.431 304.026 259.604 302.862 260.164 302.862C260.25 302.862 260.293 305.103 260.293 307.818ZM70.2567 304.931C70.2567 305.146 68.8347 305.534 67.1541 305.792C62.3708 306.568 60.8626 307.085 59.5698 308.507C58.9235 309.24 58.2771 310.533 58.1478 311.394C57.9323 312.989 57.9323 312.989 57.5876 311.825C56.7689 309.024 59.9577 305.965 64.6978 305.06C67.1972 304.543 70.2567 304.5 70.2567 304.931Z" fill="white" fill-opacity="0.1"/>
</g>
<defs>
<clipPath id="clip0_793_2387">
<rect width="360" height="318" fill="white"/>
</clipPath>
</defs>
</svg>
