<svg width="360" height="319" viewBox="0 0 360 319" fill="none" xmlns="http://www.w3.org/2000/svg">
<path d="M134.044 42.2247C123.727 51.7749 119.815 55.572 120.007 55.8405C120.122 56.0323 120.966 56.5309 121.848 56.9144C122.73 57.298 124.648 58.3335 126.105 59.1773C129.672 61.2485 130.861 61.2485 133.853 58.9856C135.118 58.0267 136.653 56.6459 137.266 55.9172C137.842 55.1885 139.069 53.6927 139.951 52.6571C141.83 50.4709 142.367 48.5148 141.562 46.8656C140.948 45.6382 136.921 40.0001 136.614 40.0001C136.499 40.0001 135.348 40.9973 134.044 42.2247Z" fill="white" fill-opacity="0.1"/>
<path d="M139.148 55.7645C138.764 56.4165 137.844 57.2987 137.153 57.7206L135.849 58.4877L136.578 59.4849C137 60.0602 138.802 61.9779 140.605 63.7806C142.408 65.5449 143.904 67.1941 143.904 67.4242C143.904 67.6544 144.402 68.3447 145.054 68.9584C145.668 69.5337 146.282 70.531 146.397 71.1063C146.665 72.2185 147.854 73.3692 148.813 73.3692C149.657 73.3692 156.33 80.6182 156.752 81.9606C157.404 84.0701 158.363 85.2207 159.782 85.4508C160.588 85.6043 161.662 86.333 162.697 87.3686L164.346 89.0562L166.034 87.8672C166.916 87.2151 167.683 86.5631 167.683 86.4097C167.683 86.2563 167.261 85.796 166.801 85.3358C165.957 84.5303 165.804 84.492 164.5 85.0673C162.966 85.7193 161.163 85.8344 161.163 85.2974C161.163 85.1056 162.314 84.492 163.694 83.8783L166.187 82.8044L167.99 84.6454C169.754 86.4097 169.754 86.448 169.026 87.0234C167.76 88.0206 164.615 89.5164 164.27 89.3246C164.116 89.2096 162.199 90.552 160.051 92.2396C156.982 94.7326 156.254 95.4613 156.637 95.8065C156.906 96.075 165.651 101.406 176.083 107.696C186.515 113.948 196.679 120.238 198.712 121.619C204.849 125.8 208.454 127.065 214.322 127.065C222.415 127.065 229.281 123.345 233.691 116.595C234.497 115.329 236.146 111.839 237.335 108.809L239.521 103.286L238.524 101.061C237.412 98.5297 236.913 96.2668 237.335 95.5764C237.488 95.3079 237.795 95.8449 238.102 96.9955C238.677 99.2584 240.442 102.097 243.011 104.781C245.159 107.083 246.195 107.696 249.071 108.233C253.29 109 257.279 107.696 260.539 104.551L262.304 102.825L263.684 106.239C265.104 109.806 266.369 114.178 265.947 113.948C259.887 110.803 258.123 110.42 251.68 110.688C242.59 111.033 237.335 113.91 232.656 121.005C229.396 125.953 227.286 131.783 225.982 139.3C224.525 147.662 225.368 160.626 228.053 170.789C230.009 178.154 234.573 190.043 235.187 189.315C235.341 189.161 235.647 188.241 235.916 187.282C236.184 186.323 237.603 181.759 239.099 177.118C240.595 172.477 242.398 166.762 243.127 164.461C243.855 162.121 246.157 154.987 248.228 148.582L251.986 136.961L251.104 133.816C249.225 127.18 249.417 126.682 251.488 132.819L252.83 136.807L252.217 139.109C251.871 140.413 251.449 141.794 251.296 142.215C250.989 142.983 247.921 153.185 247.652 154.297C247.461 155.179 242.283 171.748 240.097 178.46C239.023 181.72 237.603 185.786 236.913 187.474C236.223 189.161 234.765 192.767 233.653 195.528C232.541 198.251 231.352 201.013 230.968 201.665C230.163 203.007 222.914 220.689 222.914 221.341C222.914 221.571 220.344 228.014 217.199 235.685C214.054 243.356 210.717 251.487 209.758 253.827C208.838 256.128 206.46 261.92 204.504 266.676C196.334 286.466 195.299 289.036 195.299 289.151C195.299 289.228 198.827 289.305 203.123 289.305C207.457 289.305 211.062 289.458 211.177 289.65C211.446 290.033 208.186 290.379 205.041 290.264L202.701 290.187L199.709 294.904C198.098 297.513 196.372 300.044 195.951 300.581C195.49 301.08 194.762 301.923 194.34 302.422C193.726 303.189 192.269 303.688 187.091 304.953C183.562 305.874 180.072 306.833 179.343 307.14C177.464 307.907 174.28 311.052 173.206 313.161C171.557 316.383 170.675 316.153 185.25 316.153H198.175L199.518 313.583C200.975 310.783 201.895 309.939 202.624 310.668C202.969 311.013 202.854 311.704 202.202 313.621C201.704 315.002 201.359 316.191 201.474 316.268C201.857 316.575 205.731 318.109 205.846 317.994C206.268 317.495 212.558 303.726 212.558 303.304C212.558 303.036 212.711 302.729 212.865 302.652C213.057 302.614 214.514 299.775 216.125 296.4L219.078 290.302L223.949 290.379C226.672 290.455 234.037 290.647 240.365 290.839C256.282 291.338 255.668 291.376 255.4 290.532C253.942 286.16 253.137 282.823 252.869 280.1C252.255 274.193 253.405 267.788 256.09 262.457C257.279 260.079 260.309 255.745 261.383 254.824C261.959 254.364 262.994 256.55 271.279 275.689C273.542 280.943 275.996 286.62 276.763 288.231L278.106 291.222H286.16C292.143 291.222 294.215 291.107 294.33 290.762C294.521 290.225 299.699 289.995 301.732 290.379L302.883 290.609L301.732 290.877C301.118 291.031 299.239 291.146 297.628 291.184C295.979 291.184 294.637 291.338 294.637 291.491C294.637 291.606 295.404 293.063 296.362 294.713C297.321 296.362 298.088 297.781 298.088 297.858C298.088 297.973 298.894 299.469 299.853 301.195C300.812 302.921 301.54 304.416 301.425 304.493C301.31 304.608 298.203 305.452 294.483 306.372C289.459 307.638 287.311 308.367 286.083 309.211C284.319 310.4 282.363 313.506 282.363 315.079C282.363 315.999 282.517 316.038 285.316 316.306C286.927 316.421 293.639 316.536 300.198 316.536H312.203L312.471 313.66C312.817 309.901 313.392 309.901 315.233 313.66L316.652 316.536H319.835C321.6 316.536 323.019 316.383 323.019 316.23C323.019 315.923 320.948 310.898 315.655 298.126C314.389 295.058 313.277 292.258 313.162 291.874C312.97 291.261 313.469 291.222 319.912 291.222C323.709 291.222 326.854 291.069 326.854 290.877C326.854 290.033 323.517 281.097 322.137 278.182C319.145 272.007 313.507 263.07 306.757 253.904C300.006 244.699 300.543 245.657 300.275 242.205C299.738 235.225 297.091 225.636 293.678 218.502C290.379 211.56 285.815 205.04 279.947 198.98L277.722 196.679L275.613 198.98C270.32 204.656 267.405 210.87 267.405 216.393C267.405 218.119 267.75 219.845 268.556 222.146C270.128 226.787 270.588 230.392 270.09 234.189C269.553 237.948 268.21 242.666 266.638 246.118C265.41 248.879 262.074 254.172 261.767 253.904C261.69 253.789 262.419 252.024 263.378 249.915C267.597 241.016 268.671 237.219 268.709 231.198C268.747 227.362 268.632 226.634 267.52 223.45C266.523 220.727 266.254 219.346 266.254 217.122C266.254 210.678 269.169 204.656 275.191 198.673C278.643 195.183 281.212 191.041 283.475 185.172C286.774 176.658 287.886 170.866 287.924 161.776C287.924 153.53 287.349 150.04 284.741 142.215L282.938 136.846L290.226 142.139C297.935 147.777 299.699 149.273 302.806 152.955C306.45 157.327 308.252 158.171 310.17 156.483C310.707 156.023 313.392 151.42 316.077 146.281C318.761 141.141 321.293 136.769 321.715 136.501C322.137 136.27 324.706 136.079 328.197 136.04C334.525 136.002 335.446 135.772 338.399 133.547C339.319 132.819 341.276 131.476 342.695 130.556C344.114 129.597 345.264 128.715 345.264 128.561C345.264 128.178 337.057 127.871 319.375 127.641C304.916 127.487 302.077 127.372 301.655 126.95C301.579 126.835 309.326 126.682 318.877 126.528C330.92 126.337 337.594 126.375 340.662 126.682C343.078 126.95 346.99 127.219 349.33 127.334L353.587 127.526L354.393 126.49C355.467 125.148 355.467 123.997 354.431 122.693L353.664 121.696H324.246H294.828L292.105 117.745C286.199 109.269 278.95 95.8065 276.341 88.5192C274.079 82.2674 270.895 77.8183 267.405 76.054C266.024 75.3253 264.643 75.0951 260.309 74.8267C257.356 74.5965 254.825 74.328 254.71 74.1746C254.249 73.7144 253.252 69.7255 253.521 69.4954C253.674 69.3803 254.901 69.0351 256.282 68.7666C259.504 68.153 260.501 67.501 260.501 66.1202C260.501 65.5065 260.233 64.7778 259.887 64.5093C259.542 64.2408 258.392 62.745 257.356 61.1725C254.671 57.222 253.866 56.7617 249.685 57.0302C247.844 57.1069 246.157 57.2987 245.965 57.4137C245.773 57.5288 246.195 58.2192 246.924 58.9479C247.652 59.6766 248.228 60.5588 248.228 60.904C248.228 61.4026 248.458 61.4793 249.417 61.2875C250.26 61.0958 250.797 61.2108 251.334 61.7094C252.14 62.4382 252.332 64.3559 251.641 64.7778C251.373 64.9312 251.296 64.7778 251.449 64.2408C252.025 62.4765 250.107 61.0958 248.995 62.4382C248.266 63.3203 247.959 63.1285 247.384 61.4026C247.077 60.4437 246.348 59.4082 245.466 58.6794C244.277 57.7206 243.855 57.6055 242.705 57.7973C241.017 58.1041 239.099 59.715 238.409 61.3642C237.795 62.7834 237.719 63.5504 238.217 63.2436C238.409 63.1285 238.754 63.282 238.984 63.5504C239.483 64.1641 238.908 64.7778 238.255 64.3559C237.642 63.9723 238.217 66.0818 238.984 67.1941C240.327 69.1502 241.592 69.7255 244.239 69.6872C246.54 69.6488 246.655 69.6872 246.502 70.4542C246.387 70.9145 246.157 72.0268 245.965 72.9089L245.62 74.5965L247.192 75.3253C249.148 76.2074 250.644 76.2458 252.869 75.4787C254.441 74.9417 254.479 74.9417 253.789 75.517C251.334 77.4731 249.033 77.5115 246.617 75.6321C245.006 74.3664 243.165 74.213 239.214 74.9417C233.078 76.054 229.012 79.1991 224.64 86.2179C223.834 87.4836 222.645 89.363 221.955 90.4369C217.007 98.1462 213.287 104.129 213.402 104.206C216.278 106.201 220.497 110.189 219.692 110.189C219.385 110.189 216.393 108.233 214.783 107.006C214.015 106.431 213.287 105.549 213.172 105.05C212.98 104.245 209.183 101.33 208.147 101.138C207.534 101.061 189.967 88.4425 188.395 86.985C187.666 86.333 184.904 84.2235 182.258 82.3825C179.612 80.5031 176.083 77.6649 174.395 76.054C171.979 73.7527 170.752 72.9089 168.642 72.0651C167.185 71.4515 164.346 70.2241 162.39 69.3036C158.938 67.6927 158.632 67.616 155.18 67.616C153.185 67.616 151.574 67.501 151.574 67.3092C151.574 67.1558 149.964 65.3915 148.007 63.3587C146.09 61.3259 143.52 58.526 142.369 57.1452C141.219 55.7645 140.183 54.6139 140.068 54.6139C139.953 54.5755 139.531 55.1125 139.148 55.7645ZM244.584 63.3203C244.584 64.0107 243.817 63.8956 243.702 63.1669C243.587 62.7834 243.74 62.5916 244.085 62.7066C244.354 62.8217 244.584 63.0902 244.584 63.3203ZM259.581 93.0067C259.734 93.5053 260.271 94.8093 260.77 95.96C262.687 100.102 263.071 102.135 262.035 102.135C261.767 102.135 259.235 95.3079 258.737 93.1984C258.43 91.9327 259.159 91.7793 259.581 93.0067Z" fill="white" fill-opacity="0.1"/>
</svg>
