<svg width="360" height="319" viewBox="0 0 360 319" fill="none" xmlns="http://www.w3.org/2000/svg">
<path d="M74.3102 17.4862C69.2882 19.1184 65.9401 23.6382 65.8564 28.8277C65.8564 29.9577 66.4842 34.1009 67.3212 38.0348C68.1164 41.9269 69.623 49.2926 70.6692 54.3565C71.7155 59.4205 73.5988 68.5857 74.8543 74.7378C76.1098 80.8898 77.1561 86.3304 77.1561 86.8744C77.1561 89.2599 80.0438 91.8128 82.6803 91.8128C83.35 91.8128 84.1451 92.4405 85.1914 93.7797L86.698 95.7467L85.3588 96.6674C84.6473 97.1696 83.0989 98.6763 81.9689 100.015C80.1693 102.15 70.8366 112.571 66.3168 117.551C58.407 126.214 58.1141 126.549 53.7616 131.571C52.0458 133.538 50.0369 135.756 49.2418 136.551C47.3585 138.518 45.81 141.824 45.2241 145.13C43.9686 152.454 48.1118 160.699 54.5568 163.712C56.4819 164.633 57.4445 164.8 60.6251 164.842C66.1075 164.842 67.1538 164.256 74.7287 156.807C81.2993 150.362 81.2993 150.362 76.9468 157.1C75.0635 160.029 70.1252 167.73 59.83 183.884C56.2308 189.534 53.3013 194.556 53.3013 195.058C53.3013 196.104 54.6405 197.109 59.1185 199.327C62.1317 200.875 63.0524 200.75 64.015 198.825C65.6053 195.728 74.3939 179.866 74.7287 179.49C74.938 179.239 74.645 180.117 74.101 181.373C71.0459 188.153 59.244 213.807 54.5568 223.851C50.9995 231.426 49.1162 235.779 49.1162 236.365C49.1162 236.657 49.3673 237.16 49.7021 237.411C50.5391 238.122 57.863 241.638 58.4907 241.638C59.3696 241.638 60.2066 240.34 61.4621 237.034C62.0899 235.318 66.4842 224.186 71.1714 212.342C75.9006 200.499 81.7178 185.809 84.1451 179.699C88.372 169.069 93.5615 155.928 102.141 134.249L106.117 124.163L108.502 123.452C114.696 121.569 118.965 115.416 118.504 109.013L118.337 106.628L120.555 104.828C122.857 102.945 123.192 102.024 122.313 100.057L121.894 99.0948L120.43 100.476C119.09 101.731 116.454 102.485 117.123 101.438C117.249 101.187 117.626 101.02 117.918 101.02C118.504 101.02 121.518 97.923 121.518 97.337C121.518 96.1652 120.513 93.9053 119.634 93.0683L118.588 92.1057V93.3194C118.588 94.6168 116.244 97.6718 115.282 97.6718C114.612 97.6718 114.696 97.4626 116.035 96.0397C116.663 95.3282 117.416 94.0309 117.626 93.1938C118.002 91.7709 117.918 91.478 117.165 90.9339C114.947 89.2599 108.837 88.0044 107.54 88.9669C106.87 89.511 106.577 89.4691 105.238 88.7995C103.02 87.6277 98.7928 87.9625 96.5747 89.4691C94.6914 90.7247 93.7707 90.8084 91.8875 89.8039L90.5064 89.0506L92.5989 88.0881C93.7707 87.5859 95.11 86.5815 95.6122 85.87C96.7003 84.3634 97.0769 81.6012 96.4492 79.9272C96.0725 78.9647 95.8633 78.8391 95.3611 79.2576C94.8589 79.6761 94.6914 79.6343 94.4822 79.0484C94.3148 78.6717 94.4403 78.2113 94.7333 78.0021C95.0681 77.7928 94.7751 77.3325 93.7289 76.5373C92.3897 75.5329 91.9293 75.4074 89.7949 75.5748C87.4095 75.7422 86.4469 76.2444 80.546 80.4294C79.6253 81.099 79.1649 83.6101 84.3544 58.3323C86.6143 47.1582 88.8742 36.1516 89.3346 33.8498C90.5901 27.6977 89.9623 24.4334 86.9073 21.0435C83.8522 17.6536 78.4534 16.147 74.3102 17.4862ZM85.568 80.0528C85.1077 80.9735 83.6429 82.6057 82.3455 83.7356C80.546 85.2841 80.0856 85.9537 80.2112 86.6652C80.2949 87.1674 80.2112 87.5022 80.0438 87.3766C79.8345 87.2511 79.6671 86.6652 79.6671 86.0374C79.6671 85.2004 80.253 84.4052 81.8852 82.9823C83.0989 81.936 84.5636 80.1365 85.1077 79.0484C85.7354 77.8347 86.1958 77.2906 86.2795 77.6673C86.3632 78.0439 86.0284 79.1321 85.568 80.0528ZM90.4645 81.6849C90.5482 81.9779 90.2134 82.1871 89.7531 82.1871C88.8742 82.1871 88.6231 81.7268 89.1672 81.1827C89.5438 80.8061 90.2553 81.099 90.4645 81.6849ZM98.4998 94.1146C99.6298 96.793 100.425 97.923 102.35 99.7225C103.689 100.936 105.363 102.736 106.117 103.698L107.456 105.414L105.991 104.075C105.196 103.364 103.647 101.857 102.559 100.811L100.509 98.8855L98.1232 101.522C96.784 102.987 95.0681 104.912 94.3148 105.833C93.5196 106.753 91.9293 108.553 90.7575 109.809C89.6275 111.064 86.7817 114.161 84.4799 116.672C82.1781 119.225 78.7045 122.991 76.7376 125.084C74.7706 127.176 71.1296 131.11 68.6186 133.873C66.1075 136.635 63.9313 138.936 63.7221 139.02C62.8013 139.397 63.5547 138.141 65.6053 135.881C66.819 134.542 70.7111 130.232 74.2684 126.339C77.7838 122.406 80.8389 119.016 81.09 118.765C81.3411 118.472 82.9733 116.798 84.6892 114.998C86.4469 113.157 89.4601 109.892 91.3853 107.716C93.3104 105.54 95.8633 102.694 97.1188 101.438C99.295 99.1785 99.295 99.1366 98.2487 98.8437C97.7047 98.7181 94.6914 98.4252 91.5945 98.2578C83.5592 97.8392 84.187 97.0859 92.3478 97.337L98.751 97.5463L97.5791 94.1564C95.654 88.674 96.1562 88.6321 98.4998 94.1146ZM112.729 93.0683C112.185 94.1146 108.125 98.0485 107.623 98.0904C106.744 98.0904 107.498 97.0022 109.799 94.7842C111.766 92.9427 112.269 92.1894 112.059 91.5617C111.808 90.8084 111.808 90.8084 112.52 91.4361C113.106 92.022 113.148 92.2731 112.729 93.0683ZM116.244 107.842C114.236 109.39 109.423 114.328 107.205 117.132C104.61 120.355 100.09 125.335 99.8809 125.126C99.6298 124.875 108.502 113.784 111.474 110.687C113.44 108.637 116.998 106.042 117.5 106.335C117.709 106.502 117.165 107.172 116.244 107.842Z" fill="white" fill-opacity="0.1"/>
<path d="M308.841 41.9269C309.176 43.2243 309.427 44.8565 309.427 45.5261C309.427 46.4886 311.435 55.7794 312.189 58.3742C312.314 58.8345 312.105 59.0019 311.435 59.0019C310.64 58.9601 310.473 59.253 310.18 60.8434C310.013 61.8896 309.761 64.9029 309.678 67.5394C309.51 72.6034 308.715 83.066 308.38 84.4889C308.255 84.9911 307.418 85.7444 306.288 86.2885C304.53 87.1255 304.363 87.3347 304.572 88.381C304.865 89.8876 305.074 90.9757 305.618 94.7423C306.581 101.564 306.916 104.493 306.916 106.293C306.916 108.009 306.999 108.134 307.878 107.967C308.757 107.758 317.964 106.377 322.107 105.791C323.195 105.665 324.074 105.33 324.074 105.038C324.074 104.786 323.405 101.815 322.526 98.4251C321.229 93.3612 320.81 92.2731 320.266 92.4405C319.889 92.5661 319.596 92.4405 319.554 92.1476C319.513 91.8546 319.052 89.511 318.466 86.9999C313.57 65.1121 313.277 63.7729 313.779 64.2333C313.905 64.3588 314.198 65.3214 314.449 66.3258C316.416 75.4492 319.973 90.6409 320.224 90.9757C320.308 91.1013 321.27 90.1387 322.4 88.8832C323.488 87.6277 326.083 84.6982 328.134 82.3964C330.143 80.0528 333.03 76.7884 334.537 75.0725C336.044 73.3985 339.978 68.9624 343.284 65.2795C346.59 61.5548 349.561 58.2486 349.854 57.9138C350.356 57.3279 349.729 56.9931 345.083 54.9843C342.154 53.7706 339.224 52.5151 338.513 52.264C337.843 51.971 334.914 50.7155 332.026 49.4182C329.138 48.1626 326.251 46.949 325.539 46.6979C324.869 46.4468 322.693 45.5679 320.726 44.7309C317.378 43.308 311.143 40.7133 309.176 39.9181C308.297 39.5833 308.297 39.5833 308.841 41.9269Z" fill="white" fill-opacity="0.1"/>
<path d="M113.649 47.4099C113.189 47.7029 113.231 47.7866 113.775 47.9958C114.947 48.4562 116.328 52.8924 115.282 52.8924C115.072 52.8924 114.821 52.3901 114.696 51.7205C114.57 51.0928 113.942 49.8791 113.273 49.0421C112.268 47.7029 111.85 47.4936 110.427 47.4518C108.544 47.4518 106.158 48.7073 104.861 50.3813C104.191 51.2602 102.685 53.9805 101.345 56.7426C101.178 57.1611 101.01 58.04 101.01 58.7096C101.01 59.714 101.68 60.5091 104.693 63.2294C108 66.2427 112.101 69.2141 112.938 69.2141C113.105 69.2141 113.859 68.7119 114.612 68.0422C117.374 65.7405 118.378 65.029 118.923 65.029C119.174 65.029 119.425 65.1127 119.425 65.2383C119.425 65.7405 113.566 70.0511 112.896 70.0511C112.478 70.0511 111.766 70.344 111.348 70.637C110.678 71.1392 110.636 71.3903 111.096 72.2273C112.143 74.278 117.458 82.1877 117.751 82.1877C117.918 82.1877 121.685 87.6701 126.121 94.3662C132.984 104.745 134.491 106.754 136.123 107.758C138.509 109.265 140.35 109.809 143.28 109.809C146.376 109.809 148.343 109.181 150.478 107.591C152.863 105.75 153.993 103.992 155.04 100.476C155.793 97.9235 155.835 97.2121 155.458 95.2032C154.788 91.9808 153.533 90.0975 148.846 85.3265C146.586 83.0247 141.857 77.626 138.341 73.3154C134.826 68.963 130.85 64.2757 129.511 62.8528C128.213 61.388 127 59.8814 126.832 59.4629C126.456 58.5003 125.744 58.5422 124.572 59.6303L123.652 60.551L123.233 59.5466C121.601 55.3197 118.504 48.0377 118.127 47.5773C117.583 46.9914 114.528 46.824 113.649 47.4099ZM109.339 50.9254C110.594 52.0972 111.222 53.7294 110.636 54.3153C110.343 54.6082 110.218 54.5245 110.218 54.106C110.218 53.3946 107.874 51.0509 106.786 50.6743C106.367 50.5069 106.033 50.1721 106.033 49.921C106.033 49.2095 108.167 49.8791 109.339 50.9254ZM105.991 55.3615C106.87 55.9056 110.176 61.388 109.925 61.8484C109.632 62.3087 108 60.4254 107.079 58.5422C106.074 56.4915 105.363 55.78 104.61 56.073C104.233 56.1985 103.94 56.1567 103.94 55.9056C103.94 55.6545 104.191 55.3615 104.484 55.2778C105.237 54.943 105.363 54.943 105.991 55.3615Z" fill="white" fill-opacity="0.1"/>
<path d="M259.666 93.7382C235.853 97.2536 211.287 101.104 205.051 102.276C198.815 103.448 189.859 105.163 185.13 106.042C180.401 106.921 170.441 108.846 162.949 110.227C139.262 114.705 130.18 116.463 127.586 117.049C123.861 117.928 121.057 119.518 117.751 122.615C113.189 126.968 111.892 129.102 104.275 145.382C101.22 151.827 95.6119 164.591 90.9665 175.514C83.0149 194.221 81.592 199.16 81.0479 210.25C80.7131 217.197 80.5039 215.314 88.4555 279.596C89.6273 288.845 90.548 296.588 90.548 296.839C90.548 297.174 94.2308 297.299 102.308 297.299H114.068L113.775 299.224C113.649 300.312 113.398 301.442 113.273 301.735C113.189 302.028 107.707 304.414 101.178 307.009C89.7947 311.528 89.2506 311.779 89.3762 312.784C89.5017 313.83 89.5017 313.83 93.4775 313.746C95.6537 313.705 106.493 313.454 117.5 313.202C128.548 312.951 137.63 312.7 137.755 312.616C137.839 312.491 137.462 309.185 136.918 305.167L135.956 297.927L125.368 298.094C118.504 298.178 114.821 298.094 114.821 297.843C114.821 297.132 118.253 296.881 127.167 297.048C132.064 297.132 135.872 297.048 135.998 296.839C136.291 296.337 132.524 272.775 131.729 269.887C131.059 267.585 121.099 206.149 121.099 204.391C121.099 203.219 132.608 179.281 135.035 175.43C135.788 174.217 138.927 168.107 142.024 161.829L147.632 150.446L150.813 150.195C156.253 149.734 164.33 148.688 166.716 148.144C167.971 147.851 173.454 146.47 178.853 145.047C184.251 143.666 189.524 142.369 190.571 142.243C195.551 141.448 206.767 137.598 213.798 134.291L217.564 132.534L228.445 132.241C238.406 131.99 245.939 131.571 262.303 130.316C272.263 129.562 297.917 126.089 299.424 125.293C299.759 125.126 301.977 124.624 304.321 124.205C308.213 123.536 308.547 123.41 308.38 122.615C308.296 122.113 307.794 118.43 307.334 114.412C306.873 110.395 306.078 104.829 305.66 102.066C305.199 99.3043 304.613 95.3285 304.404 93.2778C303.86 88.6743 303.567 87.2095 303.232 87.2514C303.065 87.2932 283.479 90.1809 259.666 93.7382Z" fill="white" fill-opacity="0.1"/>
</svg>
