<svg width="360" height="319" viewBox="0 0 360 319" fill="none" xmlns="http://www.w3.org/2000/svg">
<path d="M182.954 32.2155C182.407 32.2937 174.945 33.3095 166.349 34.5207C157.753 35.6928 145.993 37.2947 140.211 38.1152C131.732 39.2873 129.623 39.678 129.271 40.225C128.997 40.6939 128.997 41.0455 129.232 41.2799C129.466 41.5143 134.233 42.7646 139.898 44.1321C145.524 45.4605 150.135 46.6326 150.135 46.7498C150.135 46.867 145.681 48.8596 140.25 51.1648C134.858 53.4309 130.248 55.5798 130.013 55.9314C129.036 57.4943 129.701 57.5333 152.752 56.4003C164.981 55.8533 176.703 55.3063 178.852 55.2672L182.72 55.1891L183.735 62.2999L184.751 69.4499H183.657C182.29 69.4499 181 70.7001 181 71.9895C181 73.4742 182.641 74.9198 184.321 74.9198C185.494 74.9198 185.689 75.037 185.689 75.8575C185.689 76.717 185.494 76.8342 184.048 76.9515C182.837 77.0296 182.251 77.3422 181.665 78.1236C180.922 79.1003 180.922 79.2176 181.508 80.1162C182.016 80.8976 182.602 81.132 184.517 81.3665C186.392 81.6009 186.861 81.7572 186.861 82.3432C186.861 82.8511 186.431 83.0856 185.103 83.2028C182.954 83.4763 182.173 84.0623 182.173 85.4298C182.173 87.1489 182.72 87.5396 185.259 87.735C187.838 87.9303 187.799 87.8522 188.229 91.1341C188.541 93.5174 188.971 94.0644 190.417 94.0644C192.331 94.0644 192.839 93.1267 192.526 90.0792L192.253 87.4224H196.082C200.536 87.4615 201.63 87.8913 202.255 89.8057C202.646 91.056 203.271 91.4076 210.89 95.2365C215.422 97.5026 222.533 101.019 226.713 103.051C230.894 105.082 235.504 107.388 236.95 108.169C238.395 108.989 240.349 109.888 241.247 110.201C242.185 110.552 242.654 110.826 242.341 110.826C242.029 110.865 235.074 110.318 226.909 109.693C210.108 108.364 205.928 108.286 202.763 109.107C192.253 111.842 184.634 122.156 185.415 132.549C185.533 134.034 187.486 143.997 189.713 154.624C191.979 165.251 194.011 175.371 194.245 177.051C194.48 178.77 194.832 180.333 195.027 180.567C195.222 180.801 196.199 184.787 197.176 189.397C203.154 217.684 203.232 218.114 205.771 221.943C210.069 228.468 216.594 232.414 224.095 233.117C226.752 233.351 227.495 233.781 226.283 234.367C225.971 234.524 223.627 235.344 221.048 236.125C216.32 237.649 211.515 239.876 209.249 241.595C206.787 243.471 206.006 244.916 205.693 248.12L205.42 251.05L194.519 245.307C188.502 242.103 183.54 239.368 183.462 239.173C183.071 237.845 174.749 192.718 174.749 191.937C174.749 190.608 171.78 175.136 171.233 173.573C170.998 172.909 169.943 167.713 168.889 161.969C166.583 149.662 163.731 134.503 161.113 120.711C160.059 115.241 159.043 110.63 158.808 110.396C158.574 110.162 158.144 110.083 157.871 110.162C157.441 110.357 135.444 158.023 134.155 161.657C133.881 162.399 133.334 164.001 132.944 165.173C131.967 168.064 128.88 176.465 128.138 178.106C127.825 178.848 126.731 181.622 125.715 184.318C124.7 187.014 123.645 189.827 123.371 190.569C122.238 193.499 121.183 195.765 120.988 195.57C120.91 195.453 121.183 194.398 121.652 193.265C122.121 192.093 123.41 188.498 124.543 185.295C125.676 182.052 127.356 177.48 128.255 175.136C129.818 170.956 132.084 164.9 133.139 161.969C133.686 160.563 133.647 160.485 132.436 159.469C131.732 158.883 126.458 153.843 120.714 148.216C114.932 142.629 109.853 137.785 109.462 137.511C107.782 136.339 108.016 135.675 103.797 154.038C103.054 157.242 102.078 161.461 101.648 163.415C101.218 165.329 100.671 167.283 100.476 167.713C100.163 168.416 96.0998 185.959 84.8475 235.032C82.0735 247.182 80.706 252.496 80.4716 252.066C80.2762 251.715 79.4557 249.488 78.6352 247.104C75.3142 237.298 71.9932 228.038 71.6025 227.296C71.1337 226.436 69.9616 226.241 69.3755 227.022C69.1411 227.256 67.8908 233.625 66.5624 241.166C65.1949 248.667 63.1632 260.037 62.0302 266.366C58.9436 283.44 55.7789 301.178 54.4114 309.149C53.7472 313.017 53.1221 316.494 53.0049 316.846C52.8095 317.51 58.0059 317.549 158.691 317.549C251.914 317.549 264.612 317.471 264.612 316.963C264.612 316.65 263.987 313.446 263.244 309.852C262.463 306.218 261.525 301.608 261.095 299.576C258.048 284.3 254.453 267.187 254.102 266.366C253.164 264.1 247.694 235.266 247.733 232.765C247.733 231.828 247.069 229.015 240.036 201.9C236.793 189.358 235.543 184.201 233.16 173.964C232.339 170.526 231.441 167.088 231.128 166.345C230.503 164.9 225.111 144.387 225.268 144.192C225.424 144.075 235.309 145.091 241.169 145.872C252.109 147.279 265.628 148.763 266.253 148.607C266.604 148.529 269.769 148.802 273.285 149.193C276.802 149.584 280.123 149.936 280.67 149.936C281.842 149.936 281.881 150.443 280.435 144.427C279.771 141.535 279.732 140.949 280.162 140.949C280.67 140.949 283.092 150.6 282.741 151.186C282.662 151.303 283.795 155.796 285.28 161.149C290.32 179.199 297.822 207.799 297.822 208.932C297.822 209.362 299.189 215.301 300.908 222.138C304.972 238.509 308.488 253.512 313.606 276.017C314.388 279.338 315.482 283.088 316.146 284.417C319.115 290.629 325.289 295.747 331.735 297.388C332.712 297.662 333.572 298.053 333.65 298.248C333.845 298.873 332.243 300.748 331.54 300.748C330.485 300.748 322.944 303.444 319.858 304.929C316.459 306.531 313.294 308.875 312.512 310.438C312.239 311.024 311.848 312.86 311.692 314.501L311.418 317.549H314.583H317.748V316.181C317.748 314.931 317.826 314.814 318.92 314.814C320.014 314.814 320.092 314.931 320.092 316.181V317.549H323.022H325.953V316.181V314.814H331.618H337.283V316.181V317.549H340.409H343.535V316.181C343.535 314.931 343.613 314.814 344.707 314.814C345.801 314.814 345.879 314.931 345.879 316.181V317.549H351.583H357.287L357.053 316.494C356.819 315.205 355.49 305.554 354.904 300.748C354.67 298.912 354.201 294.263 353.888 290.395C352.482 274.923 349.981 257.497 347.754 247.847C346.465 242.142 343.691 232.687 341.347 225.928C338.104 216.59 335.408 207.76 334.119 202.29C333.454 199.594 331.54 191.429 329.782 184.122C328.063 176.816 325.796 167.439 324.742 163.259L322.866 155.679L326.109 150.561C327.906 147.748 331.852 141.496 334.939 136.651C337.987 131.807 340.721 127.704 340.995 127.47C341.776 126.845 344.863 121.805 345.879 119.46C346.738 117.585 346.856 116.765 346.856 112.818C346.856 108.521 346.817 108.208 345.644 105.981C343.652 102.191 341.073 99.0655 336.385 94.8068C333.962 92.5797 331.97 90.5481 331.892 90.2746C331.813 89.962 331.54 89.8057 331.227 89.8448C330.719 89.962 323.569 84.7656 320.913 82.3823C320.209 81.7181 319.506 81.1711 319.35 81.1711C319.233 81.1711 318.607 80.7022 317.943 80.1553C317.318 79.6083 316.029 78.5143 315.13 77.7719C314.192 76.9905 313.45 76.2091 313.45 76.0138C313.45 75.8184 313.958 76.0528 314.583 76.5608C315.208 77.0296 316.81 78.2408 318.178 79.2176C321.303 81.4446 326.5 85.547 326.656 85.9377C326.734 86.1331 326.969 86.2503 327.125 86.2503C327.32 86.2503 327.008 85.5079 326.383 84.5702C323.765 80.6241 322.749 74.9589 323.765 70.4657C324.507 67.301 325.171 65.9726 327.047 63.9018C328.141 62.6516 328.297 62.339 327.711 62.4953C327.281 62.6516 324.116 63.6284 320.678 64.6833C317.24 65.7772 312.317 67.301 309.738 68.0824C307.16 68.9029 302.862 70.2313 300.205 71.0909C297.548 71.9113 295.321 72.5365 295.243 72.4583C295.009 72.2239 296.923 65.9335 298.408 62.2218C300.283 57.5333 300.518 55.5407 299.385 54.0951C298.174 52.5713 296.962 52.6886 288.406 55.1891C280.045 57.6115 278.365 58.3538 276.958 60.1901C275.63 61.9483 275.552 63.3158 276.88 61.792C277.74 60.7762 277.896 60.7371 279.302 61.1669C284.499 62.6907 287.39 68.3559 285.436 73.1616C284.968 74.2947 284.85 75.7403 284.889 78.3189C284.968 80.3115 284.929 81.9525 284.811 81.9525C284.694 81.9525 284.382 80.4288 284.147 78.5143C283.561 74.6854 283.522 74.6854 283.17 78.9441C282.897 82.1088 282.35 82.8511 282.428 79.9208C282.584 74.2165 282.506 74.5291 283.522 74.5291C285.476 74.5291 285.983 69.5671 284.342 66.3633C283.327 64.3707 282.037 63.1986 279.654 62.2218C278.365 61.6357 278.208 61.6748 276.997 62.4953C275.512 63.5502 275.239 63.9018 274.926 65.074C274.77 65.6991 274.887 66.1289 275.356 66.4805C276.059 66.9884 275.825 68.1215 275.122 67.6917C274.575 67.3401 274.692 68.5513 275.317 69.7625C276.216 71.4816 277.7 72.6146 279.42 72.849C280.474 73.0053 281.178 73.357 281.568 73.943L282.115 74.8026L276.606 75.2714C264.143 76.4045 262.463 76.8733 260.939 79.6864C260.392 80.6241 259.22 81.6009 256.876 82.9683C255.079 84.0233 251.718 85.9768 249.413 87.3052C247.147 88.6727 245.155 89.7667 244.959 89.7667C244.022 89.7667 233.121 84.7656 222.415 79.4129C210.968 73.6695 208.428 72.6928 207.764 73.7477C207.451 74.2556 202.099 71.9113 197.957 69.4499C192.761 66.3633 189.283 63.5893 189.049 62.4172C188.619 60.3464 185.689 33.7783 185.689 32.1374C185.689 31.942 184.517 31.942 182.954 32.2155ZM281.412 66.5587C281.412 67.1838 280.787 67.301 280.435 66.7149C280.123 66.207 280.592 65.4647 281.061 65.7382C281.256 65.8945 281.412 66.2461 281.412 66.5587ZM314.192 104.574C317.865 107.661 320.874 110.318 320.874 110.513C320.874 110.709 319.076 113.6 316.927 116.921L312.942 122.977L310.832 120.633C309.309 118.952 307.902 117.898 305.91 116.921C302.549 115.28 300.869 114.967 291.961 114.381C288.21 114.147 278.638 113.404 270.707 112.779C262.736 112.154 254.766 111.646 252.93 111.646C248.515 111.646 247.89 111.177 251.445 110.513C254.258 110.005 255.586 109.38 264.221 104.301C275.317 97.8152 277.232 96.7603 277.505 97.0729C277.661 97.2292 278.169 98.4403 278.677 99.7297C279.927 102.855 282.897 105.786 285.983 106.958C287.859 107.661 288.836 107.778 291.571 107.661C295.673 107.466 298.056 106.333 300.674 103.441C302.237 101.722 304.073 98.0887 304.073 96.7603C304.073 96.2133 305.988 97.698 314.192 104.574ZM243.123 229.523C243.357 230.577 243.67 231.632 243.748 231.867C243.826 232.179 244.529 232.375 245.467 232.375C248.437 232.375 246.717 233.039 243.045 233.312C241.052 233.469 238.552 233.664 237.458 233.742C231.597 234.211 227.495 234.289 227.495 233.938C227.495 233.742 227.885 233.547 228.393 233.547C230.034 233.547 230.269 233.039 229.253 231.828C227.338 229.562 228.276 229.366 230.386 231.554C231.831 233.039 231.949 233.078 233.902 232.883C234.996 232.765 235.934 232.609 236.012 232.57C236.09 232.492 235.856 231.789 235.543 231.007C234.879 229.405 234.762 228.468 235.231 228.468C235.504 228.468 236.051 229.523 236.833 231.671C237.262 232.844 238.2 233.039 241.287 232.492C242.576 232.297 242.771 232.14 242.576 231.437C242.498 230.968 242.263 229.952 242.146 229.132C241.755 227.022 242.537 227.335 243.123 229.523ZM214.211 249.8V251.168L216.867 251.05L219.485 250.933L219.602 249.449L219.72 248.003H225.541H231.363L231.48 249.449L231.597 250.933L234.215 251.05L236.833 251.168L236.95 249.683C237.067 248.276 237.145 248.198 238.552 248.081L239.997 247.964V249.527V251.09L244.686 250.855C247.382 250.738 249.374 250.777 249.374 250.972C249.374 251.168 245.311 253.942 240.31 257.185C235.348 260.388 230.816 263.436 230.269 263.905C228.745 265.194 214.211 275.665 210.304 278.244C208.037 279.767 202.919 283.401 201.903 284.222C199.95 285.823 189.362 292.661 190.221 291.801C190.924 291.059 215.5 273.282 218.938 271.016C222.142 268.906 229.057 263.905 229.057 263.67C229.057 263.553 225.658 261.678 221.556 259.529C217.414 257.38 212.179 254.645 209.952 253.473L205.849 251.324L208.467 251.207L211.085 251.09V249.761C211.085 248.55 211.202 248.433 212.374 248.316C214.093 248.12 214.211 248.237 214.211 249.8ZM81.8781 256.208C82.2298 257.185 83.2456 259.998 84.1442 262.459C85.0428 264.921 86.0977 268.007 86.4494 269.297C87.1917 271.719 88.989 276.915 89.575 278.283C89.7704 278.713 90.4346 280.861 91.0988 283.049C92.3491 287.113 92.7007 289.105 91.7239 286.683C90.2783 282.893 86.254 271.68 84.3005 265.78C83.0502 262.108 81.6437 258.044 81.1748 256.716C80.6669 255.387 80.3544 254.215 80.5106 254.098C80.8623 253.746 81.2139 254.254 81.8781 256.208ZM343.378 294.692L344.082 296.88L346.738 296.802L349.434 296.724L349.2 294.614C348.965 292.231 349.63 291.723 349.981 293.989C350.489 296.841 350.489 296.841 352.443 296.88C355.92 296.998 348.301 297.545 341.112 297.701C335.369 297.857 334.158 297.779 334.158 297.349C334.158 297.037 334.353 296.919 334.548 297.037C335.369 297.545 335.642 296.802 335.095 295.474C334.783 294.732 334.548 293.833 334.548 293.442C334.587 292.817 334.626 292.817 335.173 293.52C335.525 293.95 336.033 294.888 336.346 295.552L336.893 296.841H340.018H343.105L342.558 295.239C341.894 293.364 341.815 292.544 342.323 292.544C342.558 292.544 343.027 293.52 343.378 294.692Z" fill="white" fill-opacity="0.1"/>
<path d="M331.228 61.5964C331.931 61.8699 331.853 61.9871 330.602 62.4951C328.727 63.3155 327.203 64.9174 326.187 67.0663C324.976 69.7231 325.015 76.0135 326.266 79.8425C327.789 84.4528 331.345 88.2427 335.33 89.4148C337.362 90.0399 338.573 89.6492 340.565 87.7738C342.988 85.5858 344.043 82.9681 344.238 78.5922C344.433 74.4116 343.887 71.4423 342.363 68.3947C340.019 63.7453 336.58 61.2448 332.595 61.2839C331.11 61.2839 330.681 61.4011 331.228 61.5964ZM335.564 70.2311C336.424 70.7781 337.049 71.6376 337.518 72.8879C337.909 73.9037 338.378 74.9586 338.573 75.2321C338.768 75.5056 338.846 76.5214 338.729 77.4982C338.534 79.4908 337.088 81.3271 335.486 81.7178C333.376 82.2648 330.759 79.9987 329.86 76.834C329.274 74.8414 330.055 71.7939 331.423 70.5046C332.829 69.2543 333.806 69.1762 335.564 70.2311Z" fill="white" fill-opacity="0.1"/>
<path d="M331.852 71.6377C330.797 72.9661 330.797 75.7011 331.773 77.9281C333.414 81.5226 336.345 81.0928 337.673 77.0295C338.064 75.8183 338.025 75.4276 337.126 73.5522C335.68 70.4265 333.414 69.6451 331.852 71.6377Z" fill="white" fill-opacity="0.1"/>
</svg>
