<svg width="360" height="319" viewBox="0 0 360 319" fill="none" xmlns="http://www.w3.org/2000/svg">
<path d="M115.14 47.543C113.5 47.8412 111.078 48.4003 109.736 48.8476C107.276 49.6304 96.6154 54.8114 95.5717 55.6687C95.0499 56.116 91.7326 57.8678 76.264 65.8071C72.7231 67.6335 69.8903 69.2735 69.9648 69.4972C70.0394 69.6835 76.6368 73.0009 84.6133 76.8028C92.5899 80.642 99.3364 83.9593 99.5973 84.2202C100.902 85.413 109.587 89.1031 113.314 90.0349C118.234 91.2276 125.353 91.6377 129.789 90.9295C136.61 89.8485 137.989 89.1776 168.591 72.4045L175.039 68.8262L156.104 59.396C145.667 54.1777 135.864 49.5185 134.336 48.9967C128.298 47.0212 121.216 46.4621 115.14 47.543ZM136.386 54.1032C141.195 56.5632 144.027 59.806 145.257 64.3534C146.897 70.3917 145.406 76.1691 141.083 80.4929C138.026 83.5866 134.858 85.003 130.683 85.2639C125.54 85.5248 121.924 84.2575 118.234 80.9029C111.823 75.0509 111.376 65.0243 117.19 58.0915C118.793 56.1905 121.104 54.5877 123.862 53.4323C125.689 52.6495 126.434 52.575 129.863 52.6868C133.516 52.7613 133.964 52.8732 136.386 54.1032Z" fill="#E6E6E6" fill-opacity="0.1"/>
<path d="M125.875 53.6557C123.714 54.1402 120.62 55.9294 118.793 57.7558C114.097 62.3777 112.718 69.4969 115.439 75.4234C118.048 81.1263 124.832 85.04 130.87 84.3691C136.722 83.6982 140.971 80.7163 143.506 75.4234C147.755 66.7014 142.872 56.3394 133.405 53.8793C131.094 53.2457 127.888 53.1711 125.875 53.6557ZM132.808 62.2286C138.25 64.9868 138.287 72.6652 132.846 75.5725C129.715 77.2498 125.503 76.1316 123.341 73.0752C122.372 71.6961 122.223 71.1742 122.223 68.9378C122.223 66.7014 122.372 66.1796 123.341 64.8005C125.503 61.744 129.64 60.5885 132.808 62.2286Z" fill="#E6E6E6" fill-opacity="0.1"/>
<path d="M251.375 52.4251C249.064 52.8724 245.673 54.8106 243.511 56.9725C238.665 61.8553 237.435 69.3473 240.529 75.3856L241.498 77.3238L237.92 76.802C233.708 76.1684 232.03 76.4293 230.353 77.9202C228.825 79.2248 227.93 81.3121 228.937 81.163C229.272 81.0885 229.608 81.3494 229.682 81.6848C229.757 82.1694 229.57 82.3558 228.974 82.3558C228.266 82.3558 228.191 82.5049 228.415 83.5485C228.676 85.0022 229.57 86.3068 231.024 87.3504C231.807 87.9468 232.59 88.1332 234.416 88.1332H236.764L236.056 89.1023C234.677 91.0778 234.491 91.1151 231.397 90.0341C229.831 89.475 228.489 89.1023 228.378 89.2141C228.079 89.5123 229.235 91.1523 230.912 92.7551C231.732 93.5751 233.298 94.5442 234.602 95.0288C236.541 95.7742 237.323 95.8488 240.119 95.6624C241.908 95.5506 243.772 95.327 244.293 95.1779C244.815 95.0288 245.114 95.0288 245.002 95.1779C244.48 95.737 240.641 96.5197 238.255 96.557C234.863 96.5943 231.844 95.2524 229.533 92.6805C228.639 91.6742 227.781 90.4069 227.669 89.9223C227.371 88.8786 228.415 88.8414 216.897 90.1087C208.474 91.0405 194.533 92.2333 185.215 92.8296C175.449 93.426 171.498 94.917 167.286 99.6134C165.236 101.887 164.752 102.819 160.577 112.436C158.825 116.498 156.812 121.083 156.142 122.611C155.471 124.139 153.868 127.83 152.601 130.811C151.296 133.793 149.991 136.626 149.619 137.148C149.283 137.67 147.27 140.875 145.22 144.304C141.717 150.082 141.307 151.014 139.518 156.679C137.617 162.606 137.579 162.829 138.176 163.761C138.66 164.507 139.145 164.73 140.114 164.73C141.717 164.73 142.238 163.985 143.059 160.258C143.431 158.729 143.953 156.567 144.251 155.486L144.81 153.548L145.891 154.107L147.01 154.704L146.264 156.157C144.289 160.034 142.164 164.879 142.164 165.513C142.164 167.153 144.549 168.271 146.227 167.339C146.637 167.153 147.68 164.879 148.91 161.562C150.029 158.58 151.035 156.157 151.147 156.157C151.259 156.157 151.631 156.381 152.004 156.642C152.638 157.089 152.489 157.462 150.14 162.158C148.277 165.96 147.718 167.451 147.867 168.159C148.165 169.352 149.693 170.06 150.849 169.539C151.631 169.166 157.707 159.81 158.08 158.357C158.49 156.866 158.788 157.797 159.459 162.158C160.093 166.519 160.093 166.706 159.422 167.451C156.626 170.582 138.698 187.281 134.337 190.785C126.285 197.27 120.21 202.898 110.146 213.298C99.933 223.846 95.0129 229.288 86.6264 239.203C79.2462 247.925 76.5625 251.242 76.5625 251.578C76.5625 251.764 78.4262 253.516 80.6626 255.491C82.899 257.504 84.7627 259.293 84.7627 259.48C84.7627 259.666 83.0108 263.021 80.849 266.86L76.9352 273.905V280.465V286.988H79.2835H81.5944L81.259 281.769C80.8862 276.327 81.0726 275.433 82.3399 275.955C82.6754 276.066 84.129 278.601 85.5454 281.583L88.1918 286.988H96.9139H105.636V286.13C105.599 285.534 104.443 284.378 101.238 281.844C98.8521 279.943 96.392 278.005 95.8329 277.52L94.7893 276.7L95.9447 273.569C96.5784 271.817 97.1748 270.364 97.2493 270.252C97.3239 270.177 97.9948 270.624 98.7403 271.295C99.4857 271.929 100.157 272.451 100.268 272.451C100.38 272.451 100.902 272.115 101.424 271.705C105.971 268.127 122.26 253.255 128 247.44C130.348 245.055 134.97 240.545 138.25 237.376C141.53 234.246 148.91 227.052 154.651 221.386C179.027 197.419 185.998 190.598 193.527 183.442C197.925 179.267 202.174 175.391 203.032 174.757C203.852 174.161 205.827 172.446 207.393 170.955C208.958 169.464 210.896 167.675 211.716 166.967C212.499 166.259 214.586 164.395 216.301 162.904C218.985 160.481 219.432 160.183 219.767 160.742C221.221 163.388 228.937 174.086 232.105 177.962C235.087 181.503 246.716 193.207 251.189 197.047C255.886 201.147 262.334 206.067 267.291 209.384C270.534 211.546 270.795 211.844 272.584 215.012C279.554 227.387 291.556 246.695 300.875 260.523C303.819 264.922 306.279 268.724 306.317 268.91C306.391 269.32 315.486 282.179 317.126 284.192L318.058 285.31L319.661 283.745L321.263 282.179L323.313 284.788C326.817 289.299 328.942 291.982 329.464 292.541C329.874 292.951 330.284 292.765 332.035 291.498C333.191 290.64 334.123 289.858 334.123 289.746C334.123 289.597 332.11 287.36 329.65 284.714C327.19 282.067 325.177 279.682 325.177 279.384C325.177 278.713 326.183 277.669 326.78 277.669C327.041 277.669 329.426 279.868 332.073 282.515C334.719 285.198 337.179 287.36 337.477 287.36C337.776 287.36 341.391 284.565 345.491 281.173C356.226 272.265 355.518 272.973 354.4 272.078C353.84 271.594 351.828 272.004 345.976 273.83C345.007 274.128 343.926 274.389 343.553 274.389C343.18 274.426 341.093 273.234 338.894 271.743L334.905 269.022L333.116 270.848C330.88 273.085 330.023 273.793 330.023 273.271C330.023 272.6 333.787 268.724 334.458 268.724C334.794 268.724 336.881 266.934 339.043 264.698L343.068 260.71L339.863 256.423C338.148 254.075 336.396 251.876 336.024 251.578C335.651 251.28 333.936 249.08 332.185 246.732C330.47 244.384 324.842 236.817 319.735 229.959C314.629 223.101 307.584 213.633 304.118 208.937C298.042 200.699 294.389 196.077 286.226 185.976C270.087 166.072 264.794 159.363 265.055 159.139C265.204 158.99 274.932 153.176 286.599 146.205L307.845 133.532L319.959 128.202C326.631 125.295 332.296 122.723 332.557 122.499C333.116 122.052 333.154 120.3 332.557 119.704C331.737 118.884 330.246 119.257 325.96 121.307C323.612 122.462 321.487 123.319 321.301 123.208C321.077 123.133 320.592 122.574 320.257 121.94L319.586 120.859L324.171 118.325C326.668 116.946 329.016 115.567 329.389 115.231C330.023 114.672 330.246 112.696 329.724 111.951C329.426 111.466 328.01 110.684 327.451 110.684C327.227 110.684 324.991 112.1 322.419 113.852C319.847 115.604 317.573 117.02 317.387 117.02C317.014 117.02 316.045 115.567 316.306 115.38C316.381 115.343 318.654 113.479 321.375 111.28C325.55 107.851 326.295 107.068 326.295 106.174C326.295 104.944 325.438 103.974 324.32 103.974C323.873 103.974 320.965 105.726 317.834 107.888C314.74 110.05 312.094 111.802 311.982 111.802C311.833 111.802 312.69 109.975 313.809 107.702C314.927 105.465 315.859 103.304 315.859 102.931C315.859 102.111 314.74 100.993 313.92 100.993C313.063 100.993 312.467 101.887 309.336 107.814C307.77 110.87 305.646 114.709 304.677 116.387L302.925 119.368L289.544 125.034C282.163 128.128 272.51 132.228 267.999 134.129C263.527 136.03 259.725 137.446 259.576 137.26C259.389 137.111 258.905 135.694 258.457 134.166C258.01 132.638 256.817 128.612 255.811 125.22C254.767 121.828 253.015 115.977 251.86 112.175C247.685 98.2716 247.35 97.3397 245.635 95.6252C244.815 94.7679 243.697 93.7988 243.213 93.5006C242.355 92.9415 242.355 92.9042 242.803 90.295C243.25 87.8723 243.399 87.5368 244.629 86.754C245.598 86.1577 246.12 85.4122 246.53 84.2194L247.089 82.5421L249.512 83.3622C252.345 84.3313 254.357 84.4058 257.749 83.6976C261.141 82.9521 263.825 81.4985 266.099 79.2248C271.69 73.4847 272.1 64.949 267.142 58.4634C264.384 54.8479 259.017 52.1269 254.73 52.2015C253.388 52.2387 251.897 52.3506 251.375 52.4251ZM240.082 79.4857C241.051 79.7839 242.318 80.1566 242.877 80.2685C244.07 80.5294 244.778 81.6476 244.405 82.6167C244.182 83.1758 244.107 83.1012 243.921 82.1694C243.734 81.163 243.548 81.0512 242.057 80.8276C238.926 80.3803 235.721 78.5539 235.721 77.212C235.721 76.8766 236.168 77.0629 236.988 77.8084C237.696 78.4048 239.075 79.1875 240.082 79.4857ZM234.975 81.7594C234.975 82.0576 234.826 82.393 234.64 82.5421C234.192 82.8031 233.745 82.0949 234.043 81.6103C234.379 81.0512 234.975 81.163 234.975 81.7594ZM217.941 110.945C218.239 113.293 219.618 116.424 220.998 118.064C221.818 118.996 223.346 120.077 224.837 120.822C227.036 121.903 227.669 122.052 230.316 122.052C232.888 122.052 233.633 121.866 235.795 120.859C238.74 119.48 241.423 117.095 242.989 114.448C244.182 112.473 244.89 111.914 244.293 113.442C242.84 117.281 239.783 120.859 237.622 121.344C237.1 121.456 236.466 121.605 236.242 121.679C236.019 121.754 235.646 123.431 235.422 125.444C235.05 128.612 235.087 129.171 235.571 129.432C239.001 131.37 256.594 149.336 256.594 150.939C256.594 151.051 253.276 147.883 249.251 143.857C245.188 139.832 240.715 135.471 239.299 134.203C237.882 132.936 236.205 131.184 235.534 130.327C234.081 128.426 230.092 126.413 223.01 124.065C217.867 122.35 214.326 121.903 211.008 122.611C208.138 123.208 203.665 125.481 200.609 127.941C197.739 130.215 188.383 139.123 173.697 153.436C168.181 158.841 163.596 163.202 163.559 163.128C163.298 162.904 162.329 155.412 161.956 151.2L161.583 146.802L171.685 130.513C177.238 121.568 181.823 114.187 181.86 114.15C181.935 114.038 190.321 112.92 203.293 111.243C207.504 110.721 211.865 110.125 212.984 109.975C214.102 109.789 215.63 109.64 216.376 109.603C217.68 109.565 217.755 109.64 217.941 110.945ZM226.775 151.461C226.775 152.132 221.333 158.692 220.103 159.475C219.059 160.146 218.985 160.332 221.296 156.754C222.712 154.629 226.029 150.939 226.514 150.939C226.663 150.939 226.775 151.163 226.775 151.461ZM88.2291 261.232C89.7573 262.685 90.0555 263.393 88.8255 262.76C87.4837 262.014 85.1354 259.703 85.3591 259.331C85.62 258.958 86.1791 259.331 88.2291 261.232Z" fill="#E6E6E6" fill-opacity="0.1"/>
<path d="M62.6219 156.903C58.5218 157.648 57.2545 158.207 37.164 168.234C32.6166 170.507 28.9266 172.52 29.0011 172.744C29.1129 173.228 31.163 174.421 32.1321 174.607C32.5421 174.682 38.7295 177.515 45.8488 180.944C53.0053 184.336 60.0127 187.467 61.4664 187.877C66.9456 189.442 73.4312 189.144 78.9477 187.094C79.9913 186.684 86.5515 183.255 93.5216 179.453C100.492 175.651 106.306 172.557 106.456 172.557C106.642 172.557 106.754 172.371 106.754 172.185C106.754 171.961 106.493 171.812 106.157 171.812C105.859 171.812 99.1872 168.718 91.3598 164.954C83.5323 161.152 76.1149 157.797 74.8849 157.462C72.2384 156.753 65.231 156.418 62.6219 156.903ZM76.7858 161.674C79.805 163.202 81.8923 165.587 82.8614 168.644C83.756 171.365 83.8305 172.967 83.1969 175.465C82.1159 179.863 77.904 183.814 73.7294 184.336C67.5047 185.081 62.8455 182.733 60.2736 177.478C59.3791 175.614 59.23 174.98 59.3045 172.259C59.3418 169.501 59.4909 168.942 60.6464 166.855C63.2555 162.233 66.7592 160.183 71.7166 160.369C73.953 160.481 74.9594 160.742 76.7858 161.674Z" fill="#E6E6E6" fill-opacity="0.1"/>
<path d="M67.9887 161.637C64.895 162.718 62.6959 164.656 61.2422 167.526C60.4968 169.055 60.3477 169.949 60.3477 172.558C60.3477 175.354 60.4595 175.95 61.4659 177.702C62.6959 179.976 63.9259 181.131 66.6469 182.548C69.2188 183.852 73.207 183.927 76.0771 182.66C79.3944 181.206 81.8918 177.777 82.5627 173.751C83.1963 169.875 81.0718 165.178 77.7171 163.091C74.5116 161.078 71.0452 160.556 67.9887 161.637ZM74.3625 167.825C77.6799 170.024 77.6799 174.72 74.3625 176.919C71.1197 179.081 66.6842 177.18 65.9387 173.267C65.1187 168.794 70.5233 165.253 74.3625 167.825Z" fill="#E6E6E6" fill-opacity="0.1"/>
<path d="M191.44 222.915C190.135 223.064 187.787 223.66 186.221 224.182C183.24 225.189 156.999 238.533 156.813 239.129C156.701 239.539 184.507 252.92 187.899 254.076C192.782 255.753 197.441 256.014 203.405 254.896C207.691 254.113 209.145 253.405 225.843 244.161C228.117 242.894 231.173 241.254 232.664 240.508C234.118 239.725 235.348 238.943 235.348 238.719C235.348 238.384 215.928 228.804 214.81 228.618C214.512 228.581 212.35 227.611 210.002 226.493C204.075 223.698 201.056 222.729 205.082 224.928C207.505 226.27 209.219 228.469 210.263 231.6C211.269 234.619 211.307 235.402 210.598 237.974C208.66 245.279 201.802 249.193 194.72 247.031C191.626 246.099 188.98 243.751 187.191 240.322C185.998 238.085 185.998 232.867 187.191 230.221C188.383 227.574 191.44 224.704 194.347 223.511C196.77 222.542 196.77 222.542 195.279 222.58C194.459 222.58 192.707 222.729 191.44 222.915Z" fill="#E6E6E6" fill-opacity="0.1"/>
<path d="M194.831 224.293C192.296 225.188 189.91 227.2 188.68 229.437C185.363 235.661 187.525 242.594 193.75 245.576C198.073 247.664 203.888 246.471 207.131 242.818C208.398 241.439 209.703 238.122 209.889 235.885C210.597 228.058 202.285 221.647 194.831 224.293ZM201.055 230.294C202.956 231.263 204.037 233.052 204.037 235.14C204.037 240.992 196.359 242.967 193.712 237.786C192.669 235.773 192.631 234.73 193.601 232.754C194.942 229.959 198.334 228.84 201.055 230.294Z" fill="#E6E6E6" fill-opacity="0.1"/>
</svg>
