<svg width="360" height="318" viewBox="0 0 360 318" fill="none" xmlns="http://www.w3.org/2000/svg">
<g clip-path="url(#clip0_793_2385)">
<path d="M35.5978 14.6996C33.3801 15.7674 32.723 17.5333 32.723 22.3794L32.682 26.4862L31.1625 27.4308C24.4272 31.7019 24.0576 42.0922 30.5054 46.9382L32.5998 48.4577L32.8463 70.7168C33.0105 82.9551 33.1337 99.5057 33.1337 107.473C33.1337 123.079 33.1748 123.572 35.2693 125.009C36.5835 125.954 39.3761 125.83 40.6492 124.845C41.2653 124.352 41.9224 123.284 42.1688 122.463C42.4152 121.477 42.5794 108.294 42.5794 84.7211C42.5794 49.2791 42.5794 48.4988 43.3597 48.2524C43.8115 48.1292 45.0846 47.1436 46.1935 46.0758C49.6843 42.7492 50.8752 37.6978 49.1914 33.3035C48.1647 30.593 46.522 28.4985 44.3454 27.2665L42.5794 26.1987V21.5991C42.5794 16.4655 42.2098 15.521 39.8689 14.5353C38.0619 13.7961 37.3227 13.7961 35.5978 14.6996ZM38.4726 22.4615C38.4726 24.2274 38.2673 25.9523 38.0619 26.2809C37.7745 26.6915 37.6512 25.7059 37.6512 23.0775C37.6512 20.8188 37.8155 19.2992 38.0619 19.2992C38.3083 19.2992 38.4726 20.6134 38.4726 22.4615ZM42.0045 30.4698C47.9183 34.4534 47.097 42.7903 40.526 45.1723C38.1851 46.0347 36.5424 45.9115 34.0783 44.7205C29.2733 42.4207 28.1234 36.3015 31.6963 32.1536C33.5033 30.0181 35.3104 29.1967 37.8977 29.1556C39.6225 29.1556 40.4028 29.402 42.0045 30.4698ZM38.6369 74.454C38.5548 87.8423 38.5137 102.832 38.4726 107.76C38.4726 112.73 38.3494 116.672 38.2262 116.508C38.103 116.385 37.8977 100.861 37.8155 82.0516C37.6923 53.6323 37.7745 48.0471 38.1851 48.9916C38.6369 49.8951 38.719 55.1108 38.6369 74.454Z" fill="white" fill-opacity="0.1"/>
<path d="M34.6949 30.7987C32.4772 31.9896 30.9987 34.1252 30.7523 36.5482C30.5059 39.1355 30.8345 40.2855 32.1486 41.8871C36.2144 46.6921 43.1139 45.2136 44.8798 39.1355C45.4548 37.2053 45.4548 36.5482 45.0441 35.1519C44.5102 33.386 42.2925 31.004 40.6498 30.3469C39.0481 29.7309 36.3376 29.9362 34.6949 30.7987Z" fill="white" fill-opacity="0.1"/>
<path d="M57.9804 22.2562C56.6663 23.0365 56.1734 23.94 56.1324 25.5006C56.1324 27.4719 56.9537 28.4164 61.4302 31.6198C63.4425 33.0982 65.1263 34.3714 65.1263 34.4946C65.1674 34.6178 64.2639 35.6856 63.114 36.8765C60.116 39.9977 59.9517 40.5316 59.6232 47.1025L59.2946 52.9753H60.691C62.4569 52.9753 67.9601 54.1252 68.8225 54.6591C69.6028 55.1109 65.4138 54.7823 63.114 54.1663C62.3337 53.9609 61.1427 53.7967 60.5267 53.7967C59.4178 53.7967 59.3768 53.8788 59.6232 55.1109C60.732 60.1623 65.2085 63.5709 71.2044 63.9816L74.1614 64.187L74.2846 68.7455C74.3667 71.2507 73.915 80.6143 73.34 89.5261C71.3277 119.547 71.1634 123.161 71.6973 125.748C73.2989 133.264 79.6235 139.465 87.0568 140.82C90.5476 141.436 92.3136 140.944 101.513 136.755C111.123 132.401 141.554 117.412 141.554 117.083C141.554 116.96 140.692 115.892 139.665 114.783C138.639 113.633 136.791 111.416 135.559 109.855C134.326 108.253 132.314 105.666 131.082 104.105C128.577 100.902 128.002 99.3825 130.384 102.257C131.205 103.284 132.848 105.132 133.957 106.405C136.626 109.444 142.006 116.097 142.581 117.083C143.895 119.465 148.043 124.845 148.906 125.256C150.056 125.789 150.179 125.748 156.421 120.82C158.926 118.89 161.062 117.494 161.226 117.699C161.965 118.479 166.606 125.214 166.606 125.461C166.606 125.625 169.152 129.362 172.274 133.798C175.354 138.192 178.064 142.052 178.228 142.34C178.434 142.71 177.325 143.695 174.368 145.667C172.068 147.186 168.331 149.691 166.031 151.252C163.772 152.771 155.641 158.028 148.002 162.874C138.392 169.034 134.244 171.909 134.491 172.238C139.337 178.439 141.144 180.821 141.144 181.108C141.144 181.273 137.94 184.353 134.08 187.926C123.977 197.166 124.224 196.879 113.669 210.678C108.371 217.577 103.731 223.491 103.32 223.82C102.95 224.148 100.568 227.105 98.0631 230.39C95.558 233.676 92.601 237.536 91.4511 239.015C87.5086 244.148 77.6932 256.921 73.8328 262.013C66.0298 272.239 59.7875 280.33 58.6786 281.644L57.5698 282.999L53.8736 282.178C51.8613 281.767 46.892 280.617 42.9084 279.714C35.0233 277.865 32.1485 277.66 29.1505 278.687C26.2757 279.672 25.0026 280.699 24.674 282.342C24.1401 285.34 24.7562 285.874 40.7728 294.745C59.3768 305.094 79.8699 315.32 82.8268 315.689C84.9623 315.977 87.6318 314.991 89.2745 313.225C90.2601 312.199 128.864 261.027 149.111 233.881C151.206 231.089 153.957 227.967 155.477 226.694C156.914 225.462 159.091 223.614 160.241 222.587C165.99 217.536 167.592 216.222 167.92 216.099C168.249 215.975 168.988 216.715 170.549 218.85C170.959 219.384 171.986 218.604 176.832 214.168C180.035 211.294 182.787 208.665 182.951 208.419C183.116 208.131 186.319 205.092 190.138 201.684C194.327 197.823 197.079 195.647 197.202 195.975C197.366 196.509 201.514 215.852 201.514 216.181C201.514 216.263 202.582 216.058 203.896 215.77C207.551 214.908 207.469 214.867 209.399 218.563C214.492 228.378 224.512 238.111 234.492 242.875C237.49 244.313 255.026 251.13 291.249 264.888C302.091 268.995 312.276 272.978 313.836 273.718C315.438 274.457 319.914 276.305 323.816 277.865C329.114 279.919 331.044 280.863 331.29 281.479C331.454 281.972 331.824 287.147 332.111 293.02C332.728 305.587 333.179 307.64 335.972 310.72C337.533 312.486 337.943 312.732 339.463 312.732C342.05 312.732 342.912 311.583 344.391 305.956C347.43 294.416 353.221 267.557 355.315 255.237C356.506 248.255 355.89 245.216 352.974 242.957C351.742 242.054 342.338 238.193 341.352 238.193C341.105 238.193 332.522 234.949 322.255 230.965C274.534 212.526 262.213 207.762 258.23 206.201C255.848 205.257 253.876 204.517 253.794 204.517C253.753 204.517 253.466 205.298 253.219 206.283C252.932 207.228 252.439 208.378 252.11 208.83C251.577 209.569 251.577 209.528 251.823 208.214C251.987 207.433 252.193 206.365 252.316 205.873L252.521 204.969L249.893 205.791C241.227 208.501 239.543 208.953 230.714 211.047C228.907 211.458 226.196 212.197 224.636 212.649C220.734 213.84 218.517 214.168 218.147 213.552C217.777 212.936 217.9 212.813 219.379 212.567C220.57 212.361 225.129 210.924 226.771 210.226C227.675 209.856 236.381 207.762 240.324 206.982C241.679 206.694 243.158 206.324 243.609 206.119C244.923 205.503 250.509 204.148 250.837 204.353C251.248 204.6 253.26 203.655 253.26 203.244C253.26 203.08 253.096 202.464 252.891 201.93C252.644 201.355 249.482 187.433 245.868 170.965C242.213 154.537 239.133 140.985 239.092 140.944C239.01 140.862 238.969 143.161 239.01 146.077C239.133 156.796 236.422 161.847 225.539 171.088C223.979 172.402 222.418 173.798 222.048 174.168C221.72 174.538 219.954 176.016 218.147 177.453C216.34 178.891 214.656 180.246 214.41 180.492C212.028 182.669 202.582 190.801 202.295 190.883C201.432 191.211 202.007 190.144 203.28 189.117C203.978 188.501 205.334 187.31 206.237 186.488C208.619 184.271 214.369 179.26 222.089 172.731C230.96 165.133 233.671 162.381 235.355 159.014C237.86 153.962 238.27 151.704 238.229 144.147C238.188 138.274 236.874 124.434 236.176 122.422C236.053 122.052 235.601 122.627 235.026 123.9C232.89 128.418 231.699 128.212 225.129 122.011C222.623 119.67 216.833 114.496 214.286 112.278C213.506 111.621 211.863 110.142 210.631 109.034C209.44 107.884 208.167 106.816 207.839 106.652C207.182 106.282 207.058 105.543 207.674 105.543C207.88 105.543 208.948 106.364 210.015 107.309C212.521 109.609 219.502 115.728 222.911 118.685C224.348 119.917 226.771 122.093 228.332 123.531C230.262 125.256 231.453 126.077 232.028 125.995C233.096 125.831 235.56 121.149 235.56 119.219C235.601 118.315 235.765 117.945 236.135 118.069C236.422 118.192 236.833 117.74 237.079 116.96C237.695 115.194 241.268 106.077 241.967 104.516C242.254 103.818 243.774 100.327 245.293 96.7541C246.772 93.1401 248.414 89.6083 248.825 88.828C250.427 86.1585 250.057 87.3084 247.511 93.0169C245.868 96.7952 245.457 97.7809 243.404 103.079C242.213 106.118 240.324 111.005 239.215 113.88C238.065 116.754 237.203 119.177 237.285 119.26C238.517 120.163 243.979 124.968 245.129 126.118C245.95 126.98 247.429 128.212 248.414 128.828C249.4 129.445 252.685 131.95 255.724 134.332C268.127 144.024 283.117 154.496 297.532 163.531C302.132 166.365 306.033 168.788 306.238 168.87C306.444 168.952 308.004 173.059 309.729 178.028C311.454 182.998 313.179 187.844 313.508 188.829C314.699 192.156 317.286 193.1 319.421 191.006C320.818 189.569 320.859 189.322 319.791 183.901C319.339 181.56 318.97 179.63 318.97 179.589C318.97 179.466 321.885 180.616 324.309 181.642C324.883 181.848 325.541 182.094 325.746 182.135C325.992 182.217 328.497 183.203 331.413 184.353C334.288 185.503 336.917 186.447 337.204 186.447C338.354 186.447 344.802 179.343 345.13 177.782C345.253 177.125 345.664 176.509 346.075 176.386C347.06 176.057 352.522 169.034 353.549 166.776C354.001 165.79 355.644 163.408 357.204 161.478C360.818 157.042 360.9 155.687 357.615 152.936C356.588 152.073 355.767 151.745 354.576 151.745C352.892 151.745 352.522 152.032 349.566 155.769L348.333 157.33L345.664 156.426C343.446 155.646 342.05 154.702 337.45 150.8C331.249 145.543 329.401 144.517 325.828 144.352L323.364 144.188L315.807 137.699C311.618 134.126 307.429 130.553 306.444 129.773C305.499 128.993 300.407 124.722 295.109 120.327C278.928 106.816 268.743 98.5201 266.566 97.1238C265.868 96.672 262.049 93.7151 258.106 90.5528L250.878 84.8033L253.301 77.8627C254.616 74.0023 255.683 70.8811 255.601 70.84C255.56 70.799 252.562 70.0187 248.948 69.0741C245.334 68.1706 239.502 66.6511 236.012 65.7476C216.011 60.614 211.576 59.5462 209.974 59.5462C208.989 59.5462 204.718 60.2033 200.446 60.9836C196.216 61.7639 192.602 62.421 192.438 62.421C192.274 62.421 192.027 62.8728 191.904 63.4067C191.576 64.7209 189.029 68.417 187.017 70.5115C183.608 74.0844 176.832 76.0146 171.329 75.029C168.29 74.4951 163.772 72.1542 161.678 70.0187C159.542 67.842 159.789 66.9796 162.007 69.0741C168.413 75.2343 179.009 76.0147 185.415 70.7579C187.305 69.1973 189.974 65.8297 190.754 63.9406C191.247 62.8317 191.206 62.7906 190.138 62.9138C189.317 62.996 188.783 63.4477 188.167 64.6387C185.908 68.9919 181.226 71.9078 176.011 72.1953C171.575 72.4417 166.524 70.799 163.69 68.1295L162.54 67.0617L158.721 67.6367C128.947 72.1542 116.256 74.6594 114.983 76.3021C114.039 77.4931 114.367 79.0537 116.01 80.9428C118.146 83.448 119.378 85.0497 119.378 85.4604C119.378 85.7478 108.453 92.4009 107.714 92.5241C107.345 92.6062 104.388 81.5999 103.977 78.6841C103.854 77.8217 103.484 76.0557 103.197 74.7826C102.868 73.5095 102.088 70.0597 101.513 67.1439C100.034 59.9569 98.3506 54.8645 95.7222 49.6488C93.5046 45.1313 88.1246 37.6158 86.4408 36.5891C80.4859 32.8929 60.9784 22.0509 60.0339 21.9277C59.3768 21.8455 58.4322 21.9687 57.9804 22.2562ZM77.6932 47.4722C74.7774 53.3449 74.4899 54.4127 75.5577 55.7269C75.763 56.0144 76.5433 56.2608 77.2826 56.2608C78.3503 56.2608 78.8842 55.8912 80.1984 54.3306C81.0608 53.2628 82.4982 51.579 83.4017 50.6344L85.0034 48.8685L85.5373 49.9363C86.3587 51.4558 86.2355 51.9897 85.373 50.9219L84.6338 50.0184L82.0465 53.3449C80.6502 55.193 79.1306 56.8768 78.6789 57.1232C76.7487 58.1499 73.7918 56.1376 73.7918 53.8377C73.7918 52.2361 79.7056 40.8602 80.3216 41.2298C80.4859 41.353 79.2949 44.1456 77.6932 47.4722ZM66.3995 45.0081C70.1777 45.7473 71.3687 46.5687 68.0422 46.158C64.0175 45.6651 60.8963 44.9259 60.732 44.4331C60.5677 43.8992 60.8552 43.9403 66.3995 45.0081ZM108.453 96.7952C109.685 103.161 109.891 104.475 110.137 106.775C110.548 110.471 109.727 108.294 108.741 103.079C108.248 100.491 107.673 97.4523 107.468 96.3845C106.975 93.9204 106.934 93.2223 107.427 93.2223C107.632 93.2223 108.084 94.8239 108.453 96.7952ZM204.594 139.178C204.06 139.588 198.681 140.697 194.122 141.272C192.192 141.519 189.728 141.888 188.578 142.094C187.469 142.299 185.498 142.586 184.266 142.71C183.033 142.833 181.391 143.038 180.693 143.161C179.953 143.285 179.337 143.202 179.337 142.997C179.337 142.833 180.693 142.463 182.335 142.217C191.945 140.697 200.98 139.219 201.514 139.055C202.746 138.726 204.964 138.808 204.594 139.178ZM340.161 164.517C341.27 164.886 342.338 165.338 342.543 165.544C343.364 166.283 341.516 166.365 339.298 165.708C337.327 165.174 337.04 164.969 337.45 164.435C338.066 163.737 337.738 163.737 340.161 164.517ZM334.493 173.757C336.424 174.332 336.383 174.291 335.767 175.441C335.274 176.345 334.658 176.262 331.988 175.154C330.633 174.579 330.51 174.455 330.962 173.716C331.249 173.264 331.783 172.977 332.111 173.059C332.44 173.182 333.508 173.47 334.493 173.757ZM143.978 185.092C145.497 186.899 146.277 187.762 150.795 192.772C155.107 197.577 155.518 198.07 156.75 199.63C157.325 200.37 158.639 202.012 159.748 203.244C160.816 204.476 161.678 205.626 161.678 205.791C161.678 205.996 162.54 207.105 163.649 208.296C167.961 213.101 168.783 214.333 168.249 214.99C167.797 215.524 167.633 215.483 166.853 214.456C166.401 213.799 164.717 211.828 163.115 210.062C158.557 205.051 156.052 202.012 154.943 200.287C153.998 198.768 153.341 197.946 150.59 194.866C147.674 191.622 146.893 190.636 146.893 190.226C146.893 190.061 146.154 189.117 145.292 188.131C144.388 187.146 143.444 185.79 143.156 185.174C142.91 184.517 142.54 184.106 142.335 184.23C142.129 184.353 141.965 184.23 141.965 184.024C141.965 183.203 142.622 183.573 143.978 185.092Z" fill="white" fill-opacity="0.1"/>
<path d="M295.15 22.9948C294.411 23.734 294.329 24.3501 294.329 29.689V35.5617L292.563 36.8348C287.84 40.1614 287.758 47.5947 292.44 51.0034L294.123 52.1944L294.329 77.1229L294.534 102.01L295.889 102.791C297.08 103.489 297.491 103.53 298.887 103.119C299.75 102.873 300.653 102.298 300.9 101.846C301.146 101.353 301.31 92.3592 301.31 76.4247C301.31 52.4819 301.352 51.7837 302.091 51.5373C302.542 51.4141 303.528 50.5927 304.308 49.7303C307.758 45.9109 306.937 39.4632 302.666 36.7527L301.352 35.9313L301.31 29.9354C301.31 24.2269 301.269 23.9394 300.366 23.077C299.093 21.886 296.3 21.8449 295.15 22.9948ZM297.779 32.0298C297.696 36.0135 297.204 36.2188 297.204 32.3173C297.204 30.5514 297.368 29.1551 297.532 29.1551C297.696 29.1551 297.82 30.4693 297.779 32.0298ZM300.489 38.5186C301.269 38.8883 302.337 39.8739 302.871 40.6542C304.76 43.4468 303.446 47.9644 300.243 49.4839C298.477 50.3053 297.08 50.2642 295.191 49.3196C293.261 48.2929 292.727 47.6769 292.07 45.4592C291.618 44.0218 291.618 43.4058 292.07 42.1327C293.384 38.3544 297.039 36.7527 300.489 38.5186ZM298.025 75.9729C298.025 90.0594 297.861 99.423 297.655 99.5872C297.121 99.8747 296.998 93.9198 297.039 74.1249C297.121 52.564 297.121 52.0712 297.614 52.3587C297.861 52.5229 298.025 60.8598 298.025 75.9729Z" fill="white" fill-opacity="0.1"/>
<path d="M295.724 39.1763C293.096 40.3263 291.741 43.8581 293.014 46.3633C294.616 49.5666 298.763 50.1416 301.186 47.4721C303.774 44.6384 303.24 41.0244 299.913 39.4227C297.901 38.4782 297.449 38.4371 295.724 39.1763Z" fill="white" fill-opacity="0.1"/>
<path d="M144.47 30.6755C142.704 31.579 142.088 33.1806 142.868 34.7412C143.525 36.0965 147.345 38.3963 155.887 42.7085C160.528 45.0083 162.786 45.9529 163.402 45.7886C164.388 45.5422 166.195 46.5278 165.702 47.0617C165.538 47.1849 164.799 47.1028 164.101 46.8153C162.951 46.3225 162.745 46.3225 162.253 47.0207C161.513 48.0063 161.513 48.4581 162.294 48.4581C162.622 48.4581 162.91 48.7455 162.91 49.0741C162.91 49.8133 161.842 49.8954 161.554 49.1562C161.431 48.9098 161.308 49.4026 161.308 50.2651C161.226 54.0433 164.183 57.0824 167.879 57.0824C170.836 57.0824 170.918 57.2467 169.604 61.8053C168.413 66.1174 168.29 66.2406 165.168 66.7335L163.567 67.0209L164.552 67.8012C167.55 70.1832 171.575 71.251 176.544 70.9635C179.46 70.7992 180.323 70.5939 182.212 69.5261C184.553 68.1708 186.442 66.4049 187.715 64.3104L188.454 63.1194L187.099 63.4069C186.319 63.5712 184.963 63.7765 184.019 63.8997L182.376 64.1462L181.637 61.5588C180.364 57.2056 180.24 56.0146 180.815 54.9879C181.103 54.454 181.349 53.4273 181.39 52.7292C181.39 51.5382 181.226 51.3739 178.885 50.4704C177.489 49.9365 176.421 49.2794 176.462 49.0741C176.544 48.4991 177.53 48.7455 179.83 49.8954L181.719 50.84L181.965 49.8954C182.089 49.3616 182.089 48.6223 181.965 48.2527C181.596 47.3492 171.452 42.2978 169.973 42.2978C169.357 42.2978 168.659 42.4621 168.413 42.6674C168.207 42.9138 166.113 41.805 162.91 39.7926C153.3 33.6735 147.92 30.4291 146.893 30.1827C146.277 30.0595 145.291 30.2648 144.47 30.6755ZM168.659 50.1008C168.659 50.5525 168.495 50.9222 168.29 50.9222C167.715 50.9222 167.345 50.1829 167.632 49.6901C168.043 48.9919 168.659 49.2384 168.659 50.1008Z" fill="white" fill-opacity="0.1"/>
<path d="M323.159 59.2586C322.337 60.1622 322.255 60.6139 322.255 66.0349V71.8256L320.982 72.4826C319.381 73.3451 317.45 76.4252 317.081 78.6429C316.67 81.3945 317.779 84.5978 319.791 86.4048C320.695 87.2262 321.639 87.8833 321.845 87.8833C322.091 87.8833 322.255 93.1811 322.255 102.832C322.255 119.752 322.173 119.342 325.418 119.793C326.937 119.999 327.307 119.875 328.416 118.767L329.648 117.535V102.914V88.294L331.66 86.3637C333.96 84.105 334.822 81.8052 334.412 78.8893C334.083 76.5484 332.44 73.7558 330.88 72.8112L329.648 72.113V66.2813C329.648 61.0246 329.565 60.3675 328.785 59.3819C327.635 57.9034 324.473 57.8213 323.159 59.2586ZM325.582 71.1685C325.294 71.4559 325.212 70.306 325.294 67.9241C325.5 62.2977 325.705 61.8049 325.828 66.4867C325.91 68.9508 325.828 70.9221 325.582 71.1685ZM328.703 74.6182C330.551 75.4806 331.701 77.3698 331.701 79.5464C331.701 81.8052 331.208 82.9551 329.648 84.5157C328.169 86.0352 326.157 86.528 324.144 85.8299C322.255 85.2138 320.202 82.8729 320.243 81.3945L320.284 80.2856L320.613 81.4766C321.434 84.1871 324.391 85.8709 326.896 85.0496C329.976 84.0228 331.742 80.2035 330.387 77.6162C329.607 76.2199 327.307 74.7414 325.787 74.7414C323.405 74.7414 320.613 77.2876 320.613 79.4643C320.613 79.7928 320.407 80.0803 320.161 80.0803C319.463 80.0803 320.038 77.7805 321.064 76.302C322.707 74.0432 325.951 73.304 328.703 74.6182ZM326.034 101.929C325.993 118.068 326.034 117.042 325.541 117.042C325.294 117.042 325.13 111.949 325.13 102.586C325.13 91.5794 325.253 88.2529 325.623 88.6225C325.951 88.951 326.075 92.6472 326.034 101.929Z" fill="white" fill-opacity="0.1"/>
<path d="M15.187 135.524C13.2157 136.345 13.2157 136.14 13.0925 163.614L12.9693 189.446L10.7516 191.541C9.27314 192.978 8.41071 194.169 8.12323 195.278C7.01439 199.426 8.08216 203.04 11.2034 205.668L13.0104 207.147V213.266V219.385L14.2013 220.576C15.8441 222.178 18.185 222.26 19.7456 220.699C20.8133 219.59 20.8133 219.549 20.8133 213.307V207.023L21.9633 206.407C23.6471 205.545 25.413 203.04 26.029 200.699C26.9736 196.921 25.3719 192.485 22.3329 190.596L20.9365 189.734L20.6901 172.814C20.5259 163.491 20.4027 151.581 20.4027 146.366C20.4027 137.618 20.3616 136.838 19.6224 136.181C18.6778 135.318 16.419 134.99 15.187 135.524ZM17.5689 143.409C17.5689 145.955 17.6511 154.127 17.7332 161.602C17.8564 177.619 17.5689 188.912 17.0761 188.912C16.8708 188.912 16.7065 178.358 16.7065 163.861C16.7065 147.433 16.8297 138.809 17.1172 138.809C17.3636 138.809 17.5279 140.657 17.5689 143.409ZM20.608 193.183C22.4561 194.621 23.3596 196.346 23.3596 198.563C23.3596 202.793 18.9653 205.915 14.9816 204.559C13.2978 203.984 12.5997 203.451 11.4087 201.726C10.6284 200.576 10.4641 199.96 10.6284 198.153C11.0801 192.814 16.5422 190.103 20.608 193.183ZM17.5279 210.884C17.5279 212.814 17.4047 214.375 17.2404 214.375C17.0351 214.375 16.9119 213.143 16.9529 211.582C17.0351 208.05 17.0761 207.393 17.3225 207.393C17.4457 207.393 17.5279 208.954 17.5279 210.884Z" fill="white" fill-opacity="0.1"/>
<path d="M14.6527 193.346C13.7492 193.839 12.8868 194.784 12.2707 195.975C11.4083 197.658 11.3672 198.028 11.819 199.753C12.3118 201.765 13.5028 202.915 15.8437 203.737C19.8273 205.133 24.2216 199.589 22.1271 195.81C21.1415 194.044 18.9649 192.607 17.3632 192.607C16.665 192.607 15.433 192.936 14.6527 193.346Z" fill="white" fill-opacity="0.1"/>
<path d="M49.6435 167.678C48.7811 168.582 48.74 168.993 48.74 176.221V183.818L47.0973 185.05C44.9207 186.652 43.4011 189.65 43.4011 192.361C43.4422 195.112 44.51 197.453 46.6866 199.301L48.4525 200.821L48.4936 222.012L48.5347 243.203L49.6846 244.189C51.6969 245.914 55.4341 245.092 55.968 242.833C56.1323 242.217 56.1734 232.566 56.0091 221.355L55.8038 200.944L57.6108 199.63C59.7052 198.151 61.4712 194.948 61.4712 192.566C61.4712 189.486 59.6642 186.2 57.1179 184.722L55.7216 183.9V176.139C55.7216 168.91 55.6806 168.336 54.9003 167.555C53.7093 166.364 50.8345 166.405 49.6435 167.678ZM53.0111 176.672C53.1343 182.627 52.929 184.229 52.2719 182.504C52.1487 182.134 52.0255 179.178 52.0255 175.892C52.0255 167.678 52.8058 168.336 53.0111 176.672ZM55.7627 187.104C57.5697 188.213 58.5964 190.266 58.5964 192.73C58.5964 194.209 58.3089 194.989 57.2411 196.344C55.8038 198.233 54.9003 198.644 52.0665 198.726C46.4402 198.849 43.7707 191.868 47.9186 187.884C50.3417 185.584 52.97 185.297 55.7627 187.104ZM53.0111 213.47C52.97 232.156 52.8468 238.357 52.6415 238.111C52.5183 237.987 52.3129 229.897 52.1897 220.123C51.9844 205.502 52.0665 202.299 52.5183 202.012C52.8058 201.806 53.0522 201.642 53.0522 201.642C53.0522 201.642 53.0522 206.94 53.0111 213.47Z" fill="white" fill-opacity="0.1"/>
<path d="M51.4088 186.941C48.2054 187.639 46.2752 190.801 47.0966 193.922C47.5483 195.565 49.4375 197.372 51.0392 197.783C52.6819 198.193 54.9406 197.536 56.1727 196.345C60.1563 192.321 56.8298 185.75 51.4088 186.941Z" fill="white" fill-opacity="0.1"/>
</g>
<defs>
<clipPath id="clip0_793_2385">
<rect width="360" height="318" fill="white"/>
</clipPath>
</defs>
</svg>
