<svg width="360" height="318" viewBox="0 0 360 318" fill="none" xmlns="http://www.w3.org/2000/svg">
<path d="M323.255 21.4049C319.055 22.6379 315.857 24.8341 313.314 28.2633C311.966 30.0743 308.151 38.5895 303.181 50.7265C302.526 52.4219 301.909 53.8475 301.909 53.886C301.871 53.9245 301.139 53.7319 300.33 53.4236C297.671 52.4604 294.781 52.6916 292.2 54.0401C290.967 54.6566 289.464 55.774 288.886 56.4675C288.308 57.1611 286.42 61.0141 284.686 65.0213C280.91 73.8447 280.525 76.1565 282.143 79.5087C283.145 81.6664 284.378 83.1691 285.919 84.1709C286.42 84.5176 291.005 86.5212 296.091 88.6789C301.139 90.7981 305.416 92.6861 305.531 92.8787C305.994 93.5337 328.958 103.012 330.614 103.205C334.352 103.667 338.359 101.818 340.363 98.8124C340.902 98.0032 342.674 94.1502 344.331 90.2201C347.144 83.4773 347.298 82.9379 347.298 80.2022C347.298 77.8133 347.144 76.9657 346.258 75.2703C345.256 73.3438 343.021 71.3017 341.133 70.5696C340.324 70.2229 340.324 70.1073 342.713 64.5204C351.382 44.0608 351.498 43.6755 350.689 38.3198C349.687 31.9623 345.872 26.9533 339.823 24.0635C338.012 23.2159 335.662 22.1755 334.622 21.8288C332.156 20.9426 325.644 20.7114 323.255 21.4049ZM331.539 25.6433C334.005 26.2983 338.783 28.3789 340.671 29.6504C343.869 31.7696 346.373 36.7785 346.373 41.0939C346.373 43.714 345.603 46.0644 342.058 54.3869C340.478 58.0858 338.513 62.748 337.665 64.6745C336.856 66.6396 336.047 68.2578 335.893 68.2578C335.7 68.2578 333.967 67.5643 332.002 66.7551C330.075 65.9075 323.448 63.1333 317.283 60.5132C311.157 57.9317 306.071 55.774 306.032 55.7355C305.955 55.6969 306.764 53.6934 307.804 51.2659C308.845 48.8385 310.848 44.0993 312.274 40.7086C315.703 32.5017 316.936 30.3054 318.786 28.7642C322.793 25.5277 327.185 24.4488 331.539 25.6433ZM317.476 72.8815C318.747 74.153 318.516 76.0795 316.936 77.3895C315.742 78.3913 315.626 78.6995 315.164 82.2058C314.894 84.2864 314.547 85.9818 314.355 85.9818C313.507 85.9818 308.421 83.6314 308.537 83.2847C308.575 83.0535 309.577 81.6278 310.694 80.0481C312.659 77.428 312.775 77.1198 312.582 75.6171C312.39 74.2686 312.505 73.8447 313.237 73.0741C314.355 71.8797 316.358 71.7641 317.476 72.8815Z" fill="white" fill-opacity="0.1"/>
<path d="M124.208 34.4667C119.083 41.2866 112.726 49.7247 110.106 53.231C100.627 65.8304 98.1613 69.1055 97.9301 69.7605C97.6219 70.5697 87.4113 84.0553 87.1031 84.0553C86.9875 84.0553 85.4848 83.2847 83.7895 82.3214C79.0117 79.6243 78.3182 79.316 77.7402 79.5472C77.1623 79.7399 73.9642 84.8644 73.9642 85.558C73.9642 85.7506 75.0046 86.5597 76.2761 87.3689C78.742 88.9101 78.7805 88.9101 78.2411 90.3742L77.8558 91.3375L75.3128 90.2972C73.5404 89.6036 72.5772 89.411 72.1918 89.6807C71.2671 90.2201 69.148 95.6144 69.5718 96.2694C69.7644 96.5776 71.0359 97.3097 72.423 97.9262C74.5807 98.8509 74.9275 99.1206 74.8119 99.8912C74.6578 101.394 74.1954 101.471 71.8836 100.431C70.6506 99.8912 69.3406 99.5445 68.9938 99.6601C68.2232 99.8912 65.6802 105.786 66.1041 106.441C66.2196 106.673 66.9517 107.135 67.6838 107.443C68.4544 107.751 68.9553 108.175 68.8397 108.445C68.5315 109.293 57.6659 123.51 56.8568 124.165C56.1247 124.782 55.9321 124.743 54.2752 123.896C48.9581 121.237 40.5585 120.351 33.7386 121.776C26.6105 123.241 19.5594 127.517 15.167 133.027C10.1966 139.269 8.00032 145.704 8.00032 153.795C7.96179 163.004 11.3525 171.134 17.8256 177.376C19.0971 178.609 20.253 179.61 20.4071 179.61C20.5612 179.61 22.1024 180.497 23.8748 181.537C25.6472 182.616 28.7682 184.041 30.7717 184.696C34.278 185.852 34.7789 185.929 40.4429 185.968C45.9912 185.968 46.6848 185.891 49.9984 184.851C51.9249 184.234 53.6202 183.81 53.6973 183.887C53.7744 183.964 54.545 187.933 55.4312 192.711C56.3174 197.489 57.165 201.997 57.3577 202.729C57.5503 203.653 61.1336 208.547 68.3388 217.755C74.234 225.269 79.3585 231.781 79.7438 232.166C80.4373 232.898 80.5144 232.859 83.4812 230.625C86.0242 228.66 100.049 217.871 100.512 217.524C100.743 217.332 96.7357 212.092 94.4239 209.471C93.3065 208.2 90.9561 205.426 89.2608 203.307C87.5655 201.187 85.5233 198.683 84.7142 197.72C81.5547 194.021 78.2796 189.628 78.7035 189.628C78.9732 189.628 88.837 201.187 94.578 208.277C96.0807 210.088 97.3522 211.591 97.4677 211.591C97.8531 211.552 111.3 193.751 111.107 193.443C111.03 193.289 105.174 188.665 98.1228 183.232C91.1102 177.761 84.6757 172.791 83.8665 172.174L82.4409 171.057L75.5055 170.864C71.691 170.71 68.57 170.556 68.57 170.479C68.57 170.402 69.0324 169.438 69.5718 168.321C73.5404 160.538 74.1184 151.406 71.2286 143.122C69.9571 139.539 67.337 134.915 65.1793 132.526C64.4473 131.717 63.9464 130.831 64.062 130.561C64.1775 130.215 76.5843 113.531 77.6632 112.221C77.7402 112.144 78.8576 112.529 80.1291 113.107C82.3639 114.109 84.2904 114.417 87.0646 114.109C88.2205 113.993 89.9543 114.841 98.6237 119.696C104.249 122.855 115.5 129.136 123.668 133.721C143.666 144.895 145.9 146.012 149.484 146.551C151.873 146.898 152.874 146.86 155.263 146.32C159.116 145.511 165.705 144.278 180.115 141.697C186.704 140.541 197.069 138.691 203.156 137.612C209.283 136.534 214.561 135.686 214.87 135.763C215.216 135.84 219.262 142.66 224.233 151.676L233.017 167.473L234.482 167.512C235.329 167.55 237.14 167.589 238.604 167.628C240.03 167.628 241.186 167.82 241.186 168.051C241.186 168.283 239.182 168.437 235.946 168.437H230.706L192.137 179.225C170.907 185.159 152.566 190.476 151.41 191.015C150.254 191.555 146.44 194.136 142.934 196.718C139.427 199.338 132.839 204.193 128.292 207.545C123.745 210.936 116.733 216.099 112.687 219.104C108.68 222.071 103.132 226.155 100.435 228.159C97.6989 230.162 91.8809 234.478 87.5269 237.714C83.1345 240.912 76.8155 245.574 73.5019 248.04C70.1497 250.468 67.337 252.625 67.2214 252.818C67.1058 252.972 68.6085 254.475 70.5736 256.132C73.7331 258.79 76.6999 261.449 78.5108 263.221C78.8191 263.53 79.4741 264.069 79.9364 264.377C81.1309 265.148 86.0628 269.81 86.4866 270.542C86.7948 271.043 86.7563 271.043 86.0628 270.542C85.6775 270.234 84.6371 269.348 83.7895 268.538C82.9418 267.768 81.2079 266.342 79.9364 265.418C78.6649 264.454 74.8119 261.179 71.4212 258.135C65.2179 252.587 65.1793 252.548 56.0091 247.539C46.2995 242.222 44.1803 241.413 40.8667 241.837C37.5916 242.261 37.3219 242.376 36.7439 243.802C35.7422 246.191 36.3201 247.039 44.1032 254.513C48.0333 258.289 51.2314 261.564 51.2314 261.834C51.2314 262.913 77.5861 287.264 79.9364 288.305C81.5547 289.037 83.4042 289.191 85.5619 288.767C86.7948 288.536 92.5359 284.297 129.641 256.286C146.517 243.571 146.016 243.956 147.172 242.762C147.711 242.261 152.219 238.755 157.19 235.017L166.244 228.236L182.812 221.57C191.944 217.948 200.421 214.635 201.692 214.288C204.775 213.363 207.973 212.13 208.666 211.552C209.36 210.974 246.272 196.14 246.503 196.333C246.696 196.564 234.674 214.596 234.096 214.981C233.672 215.212 225.003 228.236 219.956 236.134C213.444 246.422 207.164 256.17 202.309 263.53C200.344 266.458 199.804 267.575 199.804 268.77C199.766 270.735 201.268 272.083 203.465 272.083C205.16 272.083 205.314 271.968 208.782 267.922C211.094 265.263 211.132 265.263 211.864 268.616C212.134 269.771 212.481 271.081 212.673 271.505C212.866 271.929 213.675 274.434 214.446 277.092C215.216 279.751 216.103 282.14 216.372 282.448C216.989 283.103 225.735 283.796 227.045 283.296C227.508 283.103 230.359 283.103 233.364 283.296C237.68 283.527 239.259 283.488 240.646 283.064C241.879 282.679 243.421 282.602 245.617 282.756C250.009 283.064 251.435 282.718 252.36 281.215C253.207 279.828 253.361 277.246 252.706 275.821C252.09 274.434 250.973 274.048 247.582 273.933L244.538 273.817L243.498 270.927C242.457 268.038 242.419 267.999 242.573 260.023L242.727 251.97L247.929 246.538L253.169 241.066L252.861 244.534C252.706 246.422 252.591 249.196 252.591 250.699C252.706 256.787 256.444 263.298 261.915 266.92C270.353 272.546 281.604 271.582 288.809 264.608C291.275 262.258 292.277 260.717 309.577 233.168C312.159 229.045 314.702 224.884 315.164 223.92C315.665 222.957 317.168 220.53 318.555 218.526C321.56 214.134 321.791 213.825 321.984 214.057C322.215 214.288 320.597 217.1 317.514 221.801L314.971 225.654L314.124 236.25C312.698 254.013 312.66 255.939 313.392 257.365C315.28 261.025 320.905 260.987 322.6 257.326C322.909 256.671 323.641 252.433 324.18 248.002C324.758 243.532 326.107 233.245 327.147 225.076C329.382 207.892 329.729 203.692 329.035 200.764C327.378 193.79 324.142 189.821 318.208 187.586L314.971 186.392L304.876 186.238L294.743 186.122V163.62C294.743 145.357 294.82 141.119 295.244 140.965C295.514 140.849 298.057 140.541 300.831 140.271C304.414 139.963 305.917 139.655 305.917 139.308C305.917 139.038 305.031 136.418 303.952 133.49C302.873 130.561 300.214 123.241 298.018 117.191C294.666 107.867 293.78 105.748 292.007 103.166C289.696 99.7371 287.153 97.5409 283.762 95.9997C279.793 94.1887 278.175 94.0346 267.579 94.4199C256.752 94.8438 241.34 95.2291 244.769 94.9594C246.31 94.8438 246.965 94.6511 246.965 94.2658C246.965 93.9961 246.233 91.6072 245.309 88.9872C243.652 84.2479 243.652 84.2094 244.345 83.092C244.769 82.3599 245.039 81.1655 245.039 79.9325C245.039 78.0831 244.885 77.7363 243.498 76.3107C242.65 75.4245 241.956 74.6153 241.956 74.4612C241.956 73.7677 239.413 72.8429 236.87 72.6503C234.289 72.4576 233.942 72.4962 232.786 73.3824C231.322 74.4997 231.438 74.5768 235.06 75.0006C238.913 75.4245 239.837 75.9639 236.37 75.7712C226.352 75.1162 225.504 75.1162 225.234 75.5401C224.772 76.2721 225.774 77.1198 226.968 77.1198C228.086 77.1198 228.086 77.1198 227.508 78.2757C226.814 79.6243 226.776 80.4719 227.431 80.7031C227.777 80.8187 227.777 81.0499 227.392 81.8205C226.93 82.6682 226.93 82.9764 227.469 83.9782C228.664 86.29 231.207 87.4074 233.942 86.7909C234.828 86.5597 235.676 86.4827 235.753 86.5983C235.869 86.7139 235.445 88.756 234.828 91.1448L233.711 95.5373L229.627 95.7685C227.392 95.8841 222.19 96.0767 218.068 96.1923C205.545 96.5391 189.594 97.1171 185.394 97.3868L181.464 97.6179L184.238 100.7C185.779 102.396 187.706 104.515 188.515 105.363C189.863 106.827 192.984 110.757 195.258 113.878C195.72 114.533 196.105 115.188 196.105 115.38C196.105 115.843 192.907 112.259 189.979 108.599C188.669 106.981 187.475 105.632 187.243 105.632C187.051 105.632 179.306 107.096 169.982 108.907L153.106 112.182L145.977 109.331C142.086 107.79 134.38 104.669 128.87 102.434C120.509 99.0821 112.456 95.9997 103.401 92.6861C102.323 92.3008 101.629 91.7613 101.205 90.8751C100.858 90.2201 99.9722 88.6789 99.2401 87.4845L97.9301 85.3268L106.407 74.1915C111.03 68.0652 115.924 61.7462 117.234 60.1665C118.544 58.5867 119.969 56.8143 120.393 56.2364L121.164 55.1961L123.399 56.9299C124.632 57.8546 125.865 58.6253 126.096 58.6253C126.365 58.6253 127.676 59.5885 129.063 60.7444C132.877 63.9424 140.737 70.0302 141.739 70.5697C142.317 70.8394 143.357 70.955 144.436 70.8394C147.865 70.4541 149.753 66.7937 148.135 63.6727C147.827 63.0177 143.473 59.4729 137.462 54.9263C131.875 50.7651 127.367 47.1432 127.444 46.9891C127.483 46.7964 129.371 44.2149 131.606 41.2481C134.457 37.4721 135.805 35.9694 136.114 36.2006C136.383 36.3933 140.737 39.6683 145.823 43.4828C156.188 51.2274 157.96 52.1907 160.349 51.1889C161.968 50.4954 163.355 48.5688 163.355 46.9506C163.355 44.292 162.815 43.7911 148.366 32.887C140.699 27.1074 134.226 22.2912 133.956 22.2141C133.686 22.137 129.448 27.4157 124.208 34.4667ZM233.094 80.7802C233.094 81.0884 232.825 81.3581 232.517 81.3581C232.208 81.3581 231.939 81.0884 231.939 80.7802C231.939 80.4719 232.208 80.2022 232.517 80.2022C232.825 80.2022 233.094 80.4719 233.094 80.7802ZM249.046 96.6162C248.237 97.8106 245.694 99.583 243.536 100.469C241.379 101.317 238.219 100.97 235.214 99.4674C233.172 98.4656 231.592 97.0015 232.054 96.5391C232.17 96.4235 233.403 97.0015 234.828 97.7721C239.452 100.315 244.076 100.007 247.775 96.9244C249.663 95.3447 249.894 95.3061 249.046 96.6162ZM46.0298 130.87C53.7744 132.835 60.0933 138.576 62.8675 146.243C64.4473 150.482 64.794 152.986 64.3317 156.492C62.9446 166.741 56.2018 174.409 46.2995 176.952C37.3219 179.225 27.304 175.719 21.7557 168.36C19.3668 165.162 19.0585 164.545 18.0567 160.499C16.0532 152.524 17.4788 145.434 22.3721 138.961C25.2619 135.146 31.5809 131.409 36.5898 130.561C38.9016 130.176 43.9491 130.33 46.0298 130.87ZM263.379 151.676C263.225 156.646 263.071 160.962 262.955 161.232C262.878 161.463 262.686 164.815 262.57 168.629C262.416 172.444 262.146 176.412 261.992 177.491C261.723 179.033 261.877 163.736 262.185 157.263C262.223 156.531 262.378 152.909 262.57 149.249C262.724 145.164 263.033 142.621 263.264 142.621C263.533 142.621 263.572 145.588 263.379 151.676ZM63.3684 179.495C63.6766 180.959 63.5611 180.998 61.9428 180.15L60.7869 179.533L61.6731 178.609C62.6749 177.568 62.9831 177.722 63.3684 179.495ZM278.136 210.704C277.828 211.09 276.287 212.978 274.707 214.943C273.128 216.869 270.276 220.376 268.35 222.764C266.462 225.115 264.034 228.082 262.955 229.353C261.915 230.586 259.411 233.553 257.446 235.942C255.481 238.331 253.67 240.334 253.477 240.411C252.745 240.681 253.207 239.718 254.671 237.945C255.519 236.905 257.985 233.9 260.104 231.241C262.262 228.583 264.728 225.654 265.614 224.691C266.539 223.728 267.926 222.071 268.697 221.031C269.506 219.952 270.276 219.027 270.43 218.911C270.546 218.796 271.509 217.678 272.588 216.407C274.861 213.671 278.214 210.049 278.483 210.049C278.56 210.049 278.406 210.358 278.136 210.704ZM234.52 272.083C235.291 274.202 235.291 274.395 234.674 274.395C234.25 274.395 233.788 273.74 233.249 272.392C232.863 271.274 232.478 270.234 232.401 270.08C232.324 269.926 232.594 269.771 232.979 269.771C233.48 269.771 233.904 270.388 234.52 272.083ZM223.886 272.738C224.387 274.202 224.425 274.78 224.117 274.78C223.308 274.78 222.845 274.241 222.383 272.892C221.767 271.081 221.805 270.465 222.576 270.619C222.922 270.696 223.462 271.544 223.886 272.738Z" fill="white" fill-opacity="0.1"/>
<path d="M200.729 35.5845C197.762 37.0872 196.336 40.2466 197.261 43.3291C197.723 44.8703 199.573 47.1436 200.69 47.4904C201.153 47.6445 201.153 48.261 200.767 51.3049C200.536 53.3084 200.266 56.3523 200.151 58.0477C200.035 59.743 199.804 62.2475 199.65 63.596L199.303 66.0234L200.69 65.7923C201.461 65.6767 204.351 65.3299 207.086 64.9831C209.86 64.6363 212.481 64.2896 212.943 64.2125L213.752 64.0199L212.75 61.053C212.211 59.3962 210.862 55.5432 209.745 52.4993L207.703 46.9509L208.628 45.8335C210.554 43.5603 210.708 40.2081 209.051 37.7036C208.088 36.278 205.314 34.7368 203.619 34.7368C202.964 34.7368 201.654 35.1221 200.729 35.5845Z" fill="white" fill-opacity="0.1"/>
<path d="M36.9365 48.9934C34.8558 50.3419 33.8926 52.1914 33.8926 54.8114C33.8926 58.2792 35.742 60.8607 38.863 61.7084L40.2886 62.0937L41.5601 70.6474C42.2151 75.3866 42.8701 79.8176 42.9857 80.4726C43.1013 81.1662 43.371 81.7441 43.6022 81.7441C43.7949 81.7441 46.6076 80.6268 49.8441 79.2782C53.0422 77.9296 56.3172 76.5425 57.1264 76.1958C57.897 75.8875 58.552 75.4637 58.552 75.3096C58.5135 74.9628 58.1667 74.5004 51.3083 65.4073L46.6846 59.281L47.4167 57.7012C48.3415 55.6976 48.3415 53.8482 47.4167 51.8831C46.1067 49.0319 44.1416 47.8375 40.6739 47.8375C39.0556 47.8375 38.285 48.0686 36.9365 48.9934Z" fill="white" fill-opacity="0.1"/>
<path d="M114.845 146.706C114.113 147.322 113.458 148.401 113.15 149.48L112.611 151.252L106.099 153.41C102.516 154.605 99.6259 155.76 99.7029 155.953C99.8956 156.57 105.367 164.969 105.56 164.969C105.675 164.969 107.91 162.657 110.53 159.806C115.192 154.72 115.308 154.643 116.425 155.028C118.005 155.606 120.278 154.874 121.511 153.372C123.283 151.252 122.59 147.515 120.201 146.282C118.429 145.357 116.232 145.55 114.845 146.706Z" fill="white" fill-opacity="0.1"/>
<path d="M337.165 151.521C336.201 152.485 335.97 153.024 335.97 154.411C335.97 155.375 336.163 156.492 336.356 156.877C336.702 157.494 336.201 158.495 333.427 162.657C331.578 165.392 330.152 167.743 330.229 167.781C330.576 168.051 339.592 171.133 339.708 171.018C339.785 170.902 340.979 159.96 340.979 159.073C340.979 158.919 341.249 158.804 341.596 158.804C341.904 158.804 342.713 158.303 343.329 157.686C344.254 156.723 344.447 156.222 344.447 154.642C344.447 152.909 344.293 152.6 343.098 151.521C341.172 149.826 338.821 149.826 337.165 151.521Z" fill="white" fill-opacity="0.1"/>
<path d="M164.048 158.38C162.969 159.343 162.776 159.767 162.776 161.308C162.776 162.849 162.969 163.273 164.086 164.275C165.204 165.277 165.627 165.392 167.169 165.277L168.98 165.161L172.601 169.207C174.566 171.441 176.3 173.368 176.454 173.561C176.57 173.715 177.88 172.096 179.344 169.977C180.808 167.858 181.926 166.047 181.81 166.009C181.733 165.932 179.229 164.968 176.262 163.928C170.983 162.002 170.867 161.924 170.598 160.692C170.482 159.959 169.827 158.919 169.172 158.341C167.515 156.877 165.704 156.877 164.048 158.38Z" fill="white" fill-opacity="0.1"/>
</svg>
