<svg width="360" height="316" viewBox="0 0 360 316" fill="none" xmlns="http://www.w3.org/2000/svg">
<path d="M248.222 40.9361C237.912 41.6905 234.248 42.0497 233.422 42.4807C229.148 44.7078 227.603 48.3717 228.645 53.9034C228.932 55.3402 228.896 56.813 228.465 59.7943C226.885 71.3607 226.095 77.4672 226.059 78.437C225.987 80.5563 222.826 103.976 222.538 104.695C222.179 105.449 220.024 120.751 220.024 122.368C220.024 123.553 218.695 124.81 211.583 130.378C208.422 132.82 205.261 135.443 204.578 136.125C203.896 136.844 200.088 140.076 196.137 143.309C183.924 153.331 165.748 168.885 163.485 171.291C162.444 172.369 162.444 172.405 163.126 172.944C164.671 174.165 174.477 178.799 177.638 179.84C182.954 181.6 185.971 182.103 192.006 182.355C198.256 182.57 198.472 182.678 198.472 185.085C198.472 186.845 198.22 187.276 194.88 191.335C191.934 194.891 190.138 197.872 189.312 200.638L188.809 202.291L190.497 202.039C195.419 201.321 204.937 198.77 212.66 196.148C215.031 195.322 217.186 194.675 217.438 194.675C218.048 194.675 225.843 191.443 230.621 189.216C235.542 186.881 245.994 181.133 251.131 177.865C261.117 171.579 265.751 167.591 269.989 161.808C271.534 159.689 277.137 149.775 277.137 149.164C277.137 148.949 278.395 146.434 279.903 143.597C281.412 140.795 284.609 134.545 286.98 129.731C289.386 124.918 291.937 119.745 292.727 118.237C294.702 114.25 301.024 99.3427 304.114 91.4043C305.55 87.6326 306.772 84.5435 306.808 84.4717C306.808 84.4357 309.825 83.8251 313.453 83.1785C328.108 80.4845 328.432 80.3767 328.683 79.802C329.078 78.7244 327.893 78.2574 322.361 77.3953C319.308 76.9284 312.483 75.7789 307.203 74.8809C296.427 73.0849 293.625 72.9053 291.541 73.9829C289.925 74.7731 288.381 76.4973 287.626 78.2933C287.339 78.9758 284.25 84.3998 280.729 90.3267C277.245 96.2535 271.642 105.701 268.301 111.34C264.996 116.98 261.512 123.014 260.614 124.81C259.357 127.253 249.443 144.351 246.461 149.2C245.959 150.026 231.052 154.912 229.758 154.696C229.076 154.552 228.034 155.414 223.832 159.545C221.066 162.311 217.546 165.652 216.073 166.945C214.6 168.274 212.265 170.465 210.864 171.866C209.499 173.231 207.631 174.991 206.733 175.745C205.835 176.536 204.147 178.08 202.962 179.194C200.483 181.493 199.549 182.283 199.549 181.996C199.549 181.888 199.945 181.421 200.376 180.954C204.542 176.895 220.707 161.305 222.538 159.581C223.832 158.396 226.166 156.205 227.747 154.696C230.513 152.038 232.201 151.248 230.225 153.511C229.687 154.121 231.483 152.361 234.248 149.595C240.786 143.022 243.588 138.711 246.246 131.24C248.545 124.81 248.545 124.882 248.545 107.209C248.581 98.301 248.437 83.3222 248.257 73.9111C248.114 64.464 248.078 55.3043 248.222 53.5442L248.473 50.3473L249.766 49.8085C251.383 49.126 258.603 45.965 264.206 43.4865C267.726 41.9419 268.337 41.5468 268.337 40.8643C268.337 40.0741 268.229 40.0381 265.104 40.0022C263.344 39.9663 255.729 40.3973 248.222 40.9361Z" fill="white" fill-opacity="0.1"/>
<path d="M165.62 109.751C165.477 112.301 165.369 116.181 165.369 118.372V122.431L166.554 122.934C167.201 123.185 169.5 124.406 171.619 125.628C173.774 126.813 175.894 127.819 176.361 127.819C176.828 127.819 178.192 126.993 179.486 125.915C180.779 124.909 183.545 122.682 185.628 120.994C187.675 119.306 189.4 117.833 189.4 117.689C189.436 117.582 187.711 116.36 185.592 115.031C183.437 113.702 181.389 112.409 180.994 112.158C180.312 111.727 179.953 111.942 176.72 114.744C174.78 116.432 173.128 117.725 173.02 117.653C172.948 117.546 173.379 115.821 173.99 113.81C174.565 111.798 175.067 109.859 175.067 109.499C175.067 109.032 173.882 108.386 170.577 107.021C168.135 106.015 166.051 105.189 165.98 105.189C165.908 105.189 165.728 107.236 165.62 109.751Z" fill="white" fill-opacity="0.1"/>
<path d="M159.874 132.057C144.284 159.5 133.688 181.124 128.874 195.313C128.731 195.708 127.904 195.78 124.312 195.6C101.539 194.451 102.437 194.451 99.7788 195.097C96.1508 195.995 93.8519 197.252 90.9065 199.946C88.7153 201.958 87.7814 203.251 84.8 208.244C82.8603 211.549 80.7051 215.105 80.0585 216.183C79.4119 217.26 77.0412 221.319 74.7423 225.199C72.4434 229.042 70.36 232.419 70.0726 232.67C69.6057 233.029 69.2465 232.814 67.8815 231.485C63.6788 227.426 56.6743 222.54 50.6038 219.451C41.6237 214.889 33.0746 213.668 27.04 216.003C22.5859 217.763 19.6404 220.816 17.6289 225.773C16.228 229.186 15.7969 232.598 16.0843 238.022C16.5513 247.864 19.5686 257.168 26.1779 268.842C29.8418 275.343 31.7815 278.253 36.2716 283.749C48.0175 298.153 62.2061 308.642 74.4908 312.09C79.9148 313.599 86.2009 313.455 90.9424 311.659C93.7082 310.617 97.4799 306.881 98.8808 303.756C102.724 295.315 101.826 282.959 96.4382 269.704L95.3606 267.118L98.6653 267.333C100.497 267.441 107.502 267.728 114.219 267.944C127.617 268.411 129.305 268.303 133.041 266.615C137.208 264.711 140.405 261.478 143.027 256.377C143.781 254.941 145.146 252.57 146.044 251.205C149.708 245.565 155.024 233.388 159.155 221.283L160.879 216.183L159.263 214.566C158.365 213.704 157.539 212.986 157.395 212.95C157.251 212.95 154.809 214.243 152.007 215.787C149.169 217.332 145.793 219.164 144.5 219.775C142.632 220.708 141.913 221.283 141.159 222.54L140.225 224.157L139.219 223.115C138.681 222.54 137.783 221.75 137.244 221.391C136.022 220.601 136.346 220.313 139.04 219.954C140.189 219.81 141.159 219.882 141.662 220.134C142.344 220.493 142.847 220.17 146.655 217.116C148.954 215.249 151.109 213.273 151.36 212.734C152.079 211.441 152.007 209.322 151.217 208.136C150.427 206.879 148.343 205.981 146.942 206.268C146.368 206.376 143.314 208.065 140.189 209.968C135.304 212.986 134.586 213.56 135.017 213.991C135.448 214.422 135.376 214.602 134.657 215.177C133.508 216.075 133.4 216.003 133.831 214.602C134.119 213.704 136.202 211.405 140.944 206.664L147.697 199.946L146.547 198.007L145.434 196.067H143.386C142.093 196.067 141.303 195.923 141.303 195.672C141.303 193.696 156.102 163.056 162.783 151.167C166.411 144.701 172.158 134.967 173.595 132.847C173.954 132.344 174.601 131.339 175.068 130.548L175.894 129.147L174.852 129.363C171.476 129.974 162.424 132.811 161.67 133.494C160.592 134.428 159.874 136.367 160.089 137.625C160.197 138.235 160.628 140.642 161.023 142.905C162.208 149.586 161.957 151.562 159.586 153.358C158.904 153.861 156.246 155.333 153.659 156.627C147.517 159.716 147.194 159.931 146.511 161.727C145.865 163.38 145.865 163.487 147.014 169.486C148.164 175.664 148.199 176.778 147.122 178.43C146.26 179.795 144.248 181.16 141.303 182.417C138.106 183.782 136.202 185.111 135.52 186.44C134.729 187.985 134.622 190.212 135.304 191.864C136.022 193.517 136.382 195.241 135.987 194.81C135.16 193.948 134.047 189.566 134.298 188.165C134.729 185.614 135.771 184.573 140.297 182.238C147.84 178.322 147.876 178.251 146.152 169.306C145.074 163.739 145.038 162.697 145.936 160.901C146.87 159.141 146.906 159.069 152.294 156.339C159.335 152.747 159.514 152.639 160.376 150.987L161.203 149.442L160.197 143.156C159.119 136.511 159.155 135.577 160.448 133.637C161.31 132.38 162.783 131.806 170.326 129.794C172.338 129.255 173.99 128.68 173.99 128.573C173.99 128.465 173.236 127.962 172.302 127.459C171.368 126.956 169.357 125.735 167.848 124.693L165.154 122.861L159.874 132.057ZM128.264 215.105C129.234 216.865 129.305 217.26 128.838 217.26C127.833 217.26 125.929 218.984 125.498 220.313C124.887 222.109 125.426 223.403 128.192 226.779C130.742 229.94 132.574 231.485 134.191 231.808C134.765 231.952 135.196 232.167 135.124 232.311C134.729 233.245 130.203 240.465 129.449 241.327C128.946 241.902 127.581 243.985 126.396 245.961L124.241 249.517L121.367 249.732C119.786 249.876 111.453 250.522 102.868 251.169L87.2426 252.39L86.3446 251.384C85.8417 250.846 84.6563 249.409 83.6865 248.188C82.6807 247.002 81.6749 245.996 81.4235 245.996C81.1361 245.996 80.9565 245.565 80.9565 244.811C80.9565 243.877 82.7166 241.327 91.0142 230.227C96.546 222.864 101.072 216.685 101.072 216.47C101.072 216.29 101.611 215.428 102.257 214.566L103.407 212.986H115.26L127.114 212.95L128.264 215.105ZM39.8277 217.081C41.2286 217.368 43.276 217.943 44.3896 218.338C49.0233 219.882 58.614 225.27 61.0925 227.677C61.7391 228.288 62.6371 228.97 63.1041 229.222C63.571 229.473 65.0797 230.694 66.4447 231.916C68.2766 233.604 68.8154 234.322 68.564 234.682C68.3485 234.933 66.5165 237.304 64.4331 239.926C62.3498 242.584 60.6974 244.883 60.7693 245.063C60.9489 245.601 58.65 251.205 55.022 259.036C53.8725 261.514 53.3337 263.059 53.5493 263.274C53.7648 263.49 55.0579 263.202 57.0335 262.484C58.7577 261.873 60.2305 261.442 60.3382 261.55C60.446 261.622 59.1888 262.232 57.5364 262.915C54.0881 264.316 54.1599 264.352 60.3741 265.034C62.5294 265.25 65.2952 265.645 66.5884 265.932C69.1387 266.435 72.8385 267.046 75.8558 267.405C76.9334 267.549 77.9751 267.836 78.1547 268.052C78.4421 268.375 80.0585 268.303 84.5126 267.836C93.5286 266.902 92.5588 266.687 93.8878 270.135C98.8808 283.102 100.03 292.801 97.4799 300.416C95.9712 304.834 92.451 308.606 88.6794 309.791C84.0097 311.264 77.4004 310.689 71.1502 308.282C67.7737 306.989 66.6961 306.379 69.0309 307.025C71.5454 307.779 74.7064 307.851 77.0053 307.277C86.7397 304.762 88.2843 292.477 80.9924 275.056C80.3818 273.547 79.3401 271.464 78.6935 270.422L77.5441 268.483L74.1316 268.016C70.6114 267.549 69.6775 267.405 62.6371 266.148C52.4716 264.388 52.4357 264.352 52.6872 262.771C52.7949 262.161 53.5133 260.257 54.2677 258.569C55.0579 256.88 56.3151 254.15 57.0335 252.462C57.7879 250.774 58.7936 248.547 59.2606 247.469L60.1227 245.529L59.3324 244.631C56.351 241.399 47.9457 235.256 43.1683 232.85C38.6064 230.551 35.5891 229.724 31.3505 229.689C27.8303 229.653 27.4351 229.724 25.4595 230.73C21.6879 232.634 19.7123 236.334 19.2453 242.189L18.9938 245.458L18.3832 242.225C17.4852 237.411 17.593 234.143 18.8502 228.395C20.1074 222.756 24.9207 217.799 29.9496 216.973C32.895 216.506 37.2773 216.542 39.8277 217.081ZM131.82 219.954C132.287 220.924 132.682 222.145 132.682 222.648C132.682 223.834 131.532 226.24 130.563 227.102C129.413 228.144 129.198 227.462 130.311 226.276C132.107 224.372 132.215 220.924 130.563 218.661C129.665 217.44 129.593 216.973 130.419 217.655C130.742 217.943 131.389 218.948 131.82 219.954ZM135.376 226.599C135.484 226.815 135.34 227.066 135.017 227.174C134.334 227.462 133.939 227.174 134.298 226.635C134.586 226.132 135.089 226.132 135.376 226.599ZM138.86 230.623C138.321 231.161 137.926 230.766 138.214 229.976C138.393 229.509 138.537 229.437 138.86 229.76C139.183 230.084 139.183 230.299 138.86 230.623ZM83.2195 249.301C83.5069 250.127 83.2195 250.127 81.7468 249.229C80.9206 248.726 80.5973 248.295 80.741 247.936C80.8488 247.613 80.9565 247.146 80.9565 246.859C80.9565 246.248 82.8603 248.331 83.2195 249.301ZM67.1272 251.959C64.3613 254.294 61.4517 256.377 61.1644 256.198C60.8052 255.982 62.3138 254.617 65.2952 252.534C67.6301 250.882 68.8513 250.522 67.1272 251.959ZM72.3356 258.209C72.3356 258.928 67.5223 260.616 67.1272 260.005C67.0194 259.862 67.2349 259.646 67.5941 259.538C67.9174 259.431 69.0309 259.036 70.0008 258.64C72.156 257.778 72.3356 257.742 72.3356 258.209Z" fill="white" fill-opacity="0.1"/>
<path d="M162.64 182.13C162.496 182.381 162.352 184.105 162.388 186.009C162.424 193.948 166.663 200.916 172.913 203.287C174.924 204.041 180.636 204.975 181.031 204.616C181.318 204.293 178.983 199.874 176.577 196.247C173.99 192.331 170.362 188.129 166.627 184.752C163.286 181.771 162.999 181.555 162.64 182.13Z" fill="white" fill-opacity="0.1"/>
<path d="M149.457 194.486L147.733 195.025L149.241 196.893C150.032 197.935 153.3 202.101 156.461 206.196C159.658 210.291 162.352 213.56 162.532 213.488C162.676 213.38 163.178 212.375 163.609 211.225C164.22 209.681 164.436 208.387 164.436 205.945C164.472 203.107 164.364 202.461 163.466 200.665C160.987 195.636 154.629 192.834 149.457 194.486Z" fill="white" fill-opacity="0.1"/>
</svg>
