<svg width="360" height="319" viewBox="0 0 360 319" fill="none" xmlns="http://www.w3.org/2000/svg">
<path d="M246.604 5.20414C253.03 6.04959 258.863 10.615 261.231 16.6177C262.499 19.8305 262.626 26.0022 261.484 29.2995C260.47 32.2163 257.511 36.2322 254.974 38.0922C251.212 40.8399 244.026 42.1504 239.714 40.8822C238.192 40.4172 238.192 40.3749 238.826 41.9813C241.616 49.2522 238.53 58.5944 231.809 63.2444C227.878 65.9498 221.241 67.0067 216.675 65.6117L214.731 65.0198L215.154 66.0767C215.619 67.3448 215.619 69.9235 215.111 71.0648C214.9 71.5298 214.731 71.6566 214.731 71.3607C214.689 71.1071 214.393 70.8535 214.012 70.8535C213.589 70.8535 213.42 71.1494 213.505 71.5721C213.589 71.9948 213.97 72.2907 214.308 72.2062C214.646 72.1216 214.35 72.6289 213.674 73.3475C211.222 75.9262 207.883 76.0953 204.67 73.8125C202.683 72.3753 202.725 72.333 202.091 75.588L201.711 77.5325L203.529 78.9275C204.628 79.7307 206.53 80.5762 208.221 81.0412C211.476 81.8443 231.09 91.2289 236.121 94.3993C245.801 100.402 250.367 107.462 250.367 116.508C250.367 120.524 249.563 123.736 247.577 127.626C246.224 130.331 246.266 131.303 247.746 131.303C248.295 131.303 250.113 132.064 251.846 133.036C253.579 133.966 255.228 134.685 255.524 134.601C255.82 134.516 258.314 132.276 261.062 129.612C263.809 126.949 266.642 124.455 267.318 124.117C268.037 123.779 268.924 123.06 269.347 122.553C269.727 122.046 271.122 121.116 272.391 120.524C274.504 119.467 275.35 119.34 281.775 119.044C285.706 118.833 288.877 118.748 288.919 118.748C289.046 118.96 275.35 146.521 275.138 146.521C274.885 146.521 269.432 136.926 267.825 133.713C267.233 132.487 266.937 131.05 266.937 129.105L266.895 126.315L265.627 127.837C264.951 128.682 262.922 130.838 261.104 132.571C259.286 134.305 257.807 135.869 257.807 136.038C257.807 136.165 258.652 136.799 259.667 137.391C260.723 137.982 261.949 138.997 262.414 139.589C263.471 140.941 263.598 143.393 262.668 144.704C261.907 145.803 259.54 146.564 258.145 146.183C257.215 145.972 257.215 145.972 258.314 147.282C258.906 148.001 259.54 149.185 259.709 149.861C260.258 152.482 257.722 154.891 254.847 154.469C253.579 154.257 253.579 154.257 254.382 155.145C255.312 156.16 256.116 158.02 256.116 159.203C256.116 159.668 255.608 160.598 254.932 161.275C253.875 162.458 252.945 162.754 250.832 162.627C250.028 162.585 238.573 156.455 237.262 155.356C236.924 155.06 236.543 154.976 236.417 155.103C236.29 155.23 236.839 155.948 237.685 156.667C239.798 158.527 244.237 163.938 246.351 167.235C250.282 173.28 253.368 181.143 254.932 188.963C256.242 195.684 256.073 202.998 254.256 218.385C253.452 225.487 252.353 234.787 251.888 239.098C251.381 243.41 250.282 253.471 249.352 261.503C246.435 287.12 246.012 291.305 246.097 291.939C246.308 293.461 244.913 304.198 244.533 304.198C243.011 304.198 227.539 301.873 227.37 301.62C226.821 300.859 219.127 299.675 218.747 300.351C218.535 300.647 221.494 301.366 225.341 301.915C227.286 302.169 227.37 302.254 227.793 303.945C229.188 309.229 228.765 308.764 235.022 311.596C240.602 314.132 241.658 315.02 240.559 316.119C240.263 316.415 234.092 316.457 222.298 316.246L204.416 315.908L204.628 308.637L204.839 301.324L195.581 308.299C186.366 315.189 184.675 316.119 184.337 314.301C184.252 313.921 185.647 311.131 187.38 308.045L190.593 302.465L189.24 298.914C188.48 296.927 187.719 295.321 187.507 295.321C187.296 295.321 185.859 296.082 184.252 297.012C182.646 297.942 181.251 298.703 181.166 298.703C181.04 298.703 179.687 294.771 178.123 289.91C170.894 267.59 161.467 243.368 151.491 221.767C147.813 213.777 146.926 209.846 146.926 201.476C146.883 196.107 147.179 193.529 149.124 180.974C150.35 173.069 151.406 165.46 151.491 164.065C151.576 162.67 152.294 157.132 153.097 151.805C153.943 146.437 155 139.335 155.465 135.996C155.972 132.614 156.479 129.781 156.564 129.655C156.733 129.486 162.524 130.077 166.498 130.669C166.836 130.711 168.442 130.881 170.091 131.05C171.697 131.219 174.022 131.557 175.206 131.811L177.362 132.276L176.643 135.066C175.798 138.363 176.728 138.194 166.54 136.841C160.368 136.038 157.451 135.869 159.311 136.503C160.326 136.841 167.216 137.982 171.444 138.532C173.642 138.828 175.375 139.251 175.375 139.504C175.375 139.758 174.783 142.167 174.107 144.83C173.388 147.494 172.627 150.622 172.416 151.805C172.162 152.947 171.697 154.849 171.359 156.033C169.457 162.543 167.343 170.363 167.343 170.828C167.343 171.082 167.047 172.265 166.709 173.449L166.075 175.647L164.68 175.224C160.918 174.083 151.998 171.885 151.829 172.054C151.702 172.181 152.336 172.434 153.224 172.688C154.831 173.111 164.807 175.985 166.117 176.408C166.582 176.535 166.878 176.112 167.216 174.759C167.808 172.477 168.611 169.518 170.26 163.642C170.979 161.063 172.331 155.948 173.261 152.228C174.191 148.508 175.248 144.408 175.629 143.14C177.742 135.615 178.63 131.515 178.165 131.261C177.911 131.134 173.135 130.458 167.555 129.824C161.975 129.19 157.282 128.513 157.071 128.344C156.648 127.964 157.705 125.047 159.058 122.933L160.157 121.2L142.487 121.073C125.113 120.946 124.817 120.946 122.112 119.932C108.5 114.944 102.92 99.0916 110.233 86.3675C112.685 82.098 117.842 78.0398 122.619 76.5603C124.648 75.9262 139.443 74.9539 179.053 72.7557C184.506 72.4598 184.548 72.4598 182.773 75.8416C182.223 76.9407 181.082 79.4348 180.236 81.4216C179.391 83.4084 178.25 85.4798 177.742 86.0716C176.178 87.7625 172.416 93.1311 172.416 93.6384C172.416 93.892 174.191 91.9475 176.305 89.242C179.814 84.9302 180.49 83.7889 182.519 78.843C183.787 75.7994 185.055 73.2207 185.394 73.0939C185.69 72.9671 186.915 73.1362 188.057 73.4321L190.128 74.0239L187.676 79.7307C186.239 83.0702 185.351 85.6066 185.563 85.818C185.774 86.0293 185.985 86.1561 186.112 86.0293C186.366 85.7334 189.367 78.378 190.086 76.2644C190.551 74.8694 190.974 74.2775 191.439 74.3621C191.861 74.4044 193.256 73.1362 194.905 71.1071L197.61 67.7676L196.849 66.2458C195.285 63.2444 197.019 59.1017 200.189 58.214C201.457 57.8335 202.26 57.9603 204.67 58.8058L207.544 59.778L206.868 58.8903C205.6 57.1149 204.163 53.6062 203.698 50.9431C202.218 42.869 207.249 34.0763 214.984 31.1172C217.859 29.9759 223.058 29.5531 225.426 30.2295C226.356 30.4831 227.159 30.61 227.243 30.5677C227.286 30.4831 227.074 29.5109 226.736 28.3695C226.398 27.2704 226.102 24.9454 226.102 23.2123C226.102 14.335 232.274 7.02186 241.109 5.37323C243.603 4.90823 244.237 4.90823 246.604 5.20414ZM199.978 61.2153C199.09 62.103 199.428 62.568 200.316 61.7649C201.161 61.004 201.246 61.004 203.486 62.103C206.107 63.3712 208.644 63.9208 210.25 63.498C212.068 63.033 211.434 62.6103 208.855 62.568C207.333 62.568 205.769 62.2299 204.543 61.6803C202.345 60.6658 200.696 60.4967 199.978 61.2153ZM208.348 68.1057C208.348 68.4439 208.644 68.7398 208.982 68.7398C209.32 68.7398 209.616 68.4439 209.616 68.1057C209.616 67.7676 209.32 67.4717 208.982 67.4717C208.644 67.4717 208.348 67.7676 208.348 68.1057ZM199.428 87.5089C198.414 89.5379 197.357 91.3134 197.061 91.4402C196.765 91.567 195.454 91.1443 194.144 90.5525C191.565 89.3689 191.016 89.242 191.016 89.8339C191.016 90.2989 194.863 92.2011 196.638 92.6238C197.737 92.9198 197.822 92.7929 200.104 87.9739C203.613 80.4916 203.106 80.1534 199.428 87.5089ZM208.897 85.3107C209.278 85.8602 210.926 88.5234 212.659 91.2711C214.984 95.0334 215.872 96.1747 216.379 95.9634C218.789 94.8643 222.932 93.6807 225.172 93.427L227.793 93.1734L221.79 90.2989C218.451 88.7348 214.308 86.748 212.575 85.9025C208.813 84.0848 207.925 83.958 208.897 85.3107ZM199.724 99.3452C197.23 104.587 196.258 107.25 197.314 106.109C197.906 105.432 200.189 101.036 201.626 97.8234C202.345 96.1325 203.486 93.5961 204.12 92.2011C206.234 87.5934 207.079 85.5643 207.079 84.888C207.079 84.2116 204.12 90.0029 199.724 99.3452ZM156.775 96.217C150.138 96.9356 144.051 97.4852 143.248 97.5275C139.866 97.6543 145.784 98.2461 154.873 98.7534C159.988 99.0493 164.257 99.3452 164.342 99.4297C164.426 99.472 163.665 104.249 162.693 109.956C161.721 115.662 160.96 120.439 161.045 120.524C161.129 120.566 165.314 120.777 170.302 120.946L179.433 121.242L180.744 120.143C181.462 119.509 182.181 118.495 182.35 117.818C182.604 116.719 183.618 116.254 184.252 116.973C184.379 117.1 185.52 117.818 186.789 118.579C188.057 119.382 190.889 121.327 193.003 122.891L196.934 125.808L199.47 120.735L202.007 115.705L199.682 111.393C198.414 109.026 197.314 106.997 197.23 106.912C197.145 106.827 195.962 107.419 194.609 108.222C191.946 109.871 189.959 110.294 186.197 110.082C183.83 109.956 183.66 109.871 183.365 108.73C183.153 108.053 182.604 107.081 182.096 106.532L181.166 105.559L182.265 105.137C184.506 104.291 185.394 101.247 183.999 99.2184C182.9 97.6543 180.87 97.0625 176.728 97.0625C172.881 97.0625 171.993 96.7243 171.993 95.287C171.993 94.6529 171.74 94.5684 170.387 94.7375C169.541 94.8643 163.412 95.5407 156.775 96.217ZM204.966 109.448C203.486 112.323 202.429 114.944 202.514 115.282C202.641 115.662 202.979 115.324 203.444 114.394C203.824 113.591 205.093 111.182 206.234 109.11C208.305 105.306 208.686 104.249 207.967 104.249C207.756 104.249 206.403 106.616 204.966 109.448ZM191.565 137.095C186.704 147.029 186.281 148.085 186.493 149.776C186.577 150.791 187.042 152.017 187.465 152.524C188.733 153.961 222.002 170.194 223.65 170.194C226.44 170.194 227.582 168.968 230.583 162.796L233.373 157.047L237.896 153.158C240.39 151.002 243.349 148.508 244.448 147.578C245.59 146.648 246.731 145.676 246.985 145.465C247.238 145.211 248.676 143.985 250.155 142.717C253.41 139.885 256.919 135.404 255.947 135.192C255.143 135.023 252.353 136.926 249.775 139.335C247.703 141.28 240.982 147.113 239.418 148.339C238.488 149.015 238.53 148.846 239.925 145.591C242.123 140.476 243.011 137.982 243.011 137.01C243.011 136.418 242.673 136.756 241.912 138.067C241.32 139.124 240.771 140.138 240.728 140.392C240.644 140.857 238.868 144.281 237.558 146.521C237.051 147.325 236.121 149.185 235.402 150.622L234.134 153.243L224.961 146.479C219.888 142.801 211.814 136.883 206.953 133.375C202.134 129.824 198.075 126.78 197.949 126.611C197.822 126.4 197.526 126.231 197.314 126.231C197.061 126.231 194.482 131.092 191.565 137.095ZM187.042 167.446C186.915 169.983 186.028 178.733 185.055 186.892L183.322 201.687L188.902 212.255C191.946 218.047 195.285 224.345 196.3 226.205C197.272 228.065 199.344 231.954 200.865 234.871C202.387 237.788 204.924 242.607 206.53 245.651C209.404 251.104 209.404 251.146 209.151 253.682C208.728 257.445 208.348 260.361 208.136 261.08C208.052 261.418 207.84 263.405 207.714 265.519C207.333 271.521 207.037 274.65 206.614 276.848C206.403 277.947 206.276 279.004 206.276 279.173C206.53 280.737 206.023 281.498 203.486 283.315C200.189 285.64 200.104 286.275 203.402 284.203L205.684 282.724L205.473 285.979C205.219 290.333 206.149 289.53 206.657 284.922C206.826 283.104 207.291 279.3 207.629 276.51C208.263 271.479 208.813 266.364 209.616 257.698C210.588 247.13 212.871 225.022 215.323 202.068C216.041 195.558 216.253 191.922 215.999 191.626C215.788 191.33 209.32 186.469 201.626 180.762L187.634 170.405L187.845 168.926C188.057 167.193 188.184 162.5 188.057 160.683C187.888 158.315 187.254 162.374 187.042 167.446Z" fill="white" fill-opacity="0.1"/>
<path d="M179.265 105.814C178.293 105.898 176.771 105.898 175.884 105.814C175.038 105.729 175.841 105.644 177.701 105.644C179.561 105.644 180.28 105.729 179.265 105.814Z" fill="white" fill-opacity="0.1"/>
<path d="M181.293 113.549C181.293 113.761 180.998 113.972 180.659 113.972C180.321 113.972 180.025 113.761 180.025 113.549C180.025 113.296 180.321 113.127 180.659 113.127C180.998 113.127 181.293 113.296 181.293 113.549Z" fill="white" fill-opacity="0.1"/>
<path d="M178.419 113.845C177.658 113.93 176.517 113.93 175.883 113.845C175.249 113.761 175.883 113.676 177.278 113.676C178.673 113.676 179.18 113.761 178.419 113.845Z" fill="white" fill-opacity="0.1"/>
</svg>
