<svg width="7" height="13" viewBox="0 0 7 13" fill="none" xmlns="http://www.w3.org/2000/svg">
<path fill-rule="evenodd" clip-rule="evenodd" d="M3.49997 2.25875C4.18472 2.25875 4.74197 2.81525 4.74197 3.50075C4.74197 4.18475 4.18472 4.742 3.49997 4.742C3.17082 4.7416 2.85526 4.61073 2.62245 4.37805C2.38963 4.14538 2.25856 3.8299 2.25797 3.50075C2.25797 2.81525 2.81522 2.25875 3.49997 2.25875ZM3.49997 6.5C5.15447 6.5 6.49997 5.1545 6.49997 3.5C6.49997 1.8455 5.15447 0.5 3.49997 0.5C1.84547 0.5 0.49997 1.8455 0.49997 3.5C0.49997 5.1545 1.84547 6.5 3.49997 6.5ZM4.71647 9.2195C5.33724 9.07363 5.92817 8.82168 6.46322 8.47475C6.66214 8.34245 6.80203 8.1382 6.8535 7.90491C6.90497 7.67162 6.86401 7.42747 6.73922 7.22375C6.67978 7.12351 6.60071 7.0363 6.50675 6.96736C6.41278 6.89841 6.30587 6.84916 6.1924 6.82255C6.07894 6.79593 5.96127 6.7925 5.84646 6.81247C5.73164 6.83244 5.62203 6.87539 5.52422 6.93875C4.9212 7.32897 4.21824 7.53657 3.49997 7.53657C2.7817 7.53657 2.07874 7.32897 1.47572 6.93875C1.37791 6.87539 1.2683 6.83244 1.15348 6.81247C1.03867 6.7925 0.920998 6.79593 0.807536 6.82255C0.694074 6.84916 0.587156 6.89841 0.493193 6.96736C0.39923 7.0363 0.320159 7.12351 0.26072 7.22375C0.135934 7.42747 0.0949712 7.67162 0.14644 7.90491C0.197908 8.1382 0.337801 8.34245 0.536719 8.47475C1.07163 8.82142 1.66227 9.07336 2.28272 9.2195L0.60197 10.9513C0.436498 11.1237 0.344104 11.3535 0.344104 11.5925C0.344104 11.8315 0.436498 12.0613 0.60197 12.2338C0.682699 12.3174 0.77946 12.384 0.886477 12.4294C0.993494 12.4749 1.10857 12.4983 1.22484 12.4983C1.34112 12.4983 1.45619 12.4749 1.56321 12.4294C1.67023 12.384 1.76699 12.3174 1.84772 12.2338L3.49997 10.5335L5.15297 12.2352C5.23347 12.3192 5.33011 12.386 5.43709 12.4316C5.54407 12.4772 5.65917 12.5008 5.77547 12.5008C5.89177 12.5008 6.00687 12.4772 6.11385 12.4316C6.22083 12.386 6.31747 12.3192 6.39797 12.2352C6.74297 11.8805 6.74297 11.3053 6.39797 10.952L4.71647 9.2195Z" fill="white"/>
</svg>
