<svg width="46" height="61" viewBox="0 0 46 61" fill="none" xmlns="http://www.w3.org/2000/svg">
<path d="M5.97937 0.226425C4.68042 0.572018 3.7628 1.07253 2.53535 2.0974C1.55815 2.90776 0.473702 4.8979 0.187693 6.39945C-0.0625645 7.73416 -0.0625645 53.2811 0.187693 54.6158C0.4022 55.736 1.02189 57.0945 1.73691 58.0121C2.78561 59.3826 4.71617 60.5743 6.39647 60.8961C6.92082 60.9914 11.5446 61.0152 23.3187 60.9914L39.5258 60.9557L40.3958 60.6339C43.1129 59.6448 45.0434 57.4282 45.6035 54.6277C45.7704 53.7935 45.7823 51.7319 45.7584 35.8107L45.7227 17.9351L37.059 17.8994L28.3834 17.8756V8.93778V0L17.5747 0.0119171C7.62393 0.0119171 6.6944 0.0357513 5.97937 0.226425ZM24.1767 33.5465C25.142 33.8325 26.2026 34.6309 26.7984 35.4889C27.5135 36.5376 27.7161 37.3003 27.6446 38.778C27.5969 39.8148 27.5373 40.0889 27.2155 40.7682C26.5243 42.2221 25.2135 43.235 23.5928 43.5687C20.8161 44.1526 18.1109 42.6034 17.3601 39.9936C17.0861 39.0402 17.1576 37.3837 17.527 36.4304C17.8607 35.5724 18.9332 34.3926 19.7912 33.9159C21.0068 33.2605 22.7586 33.1055 24.1767 33.5465ZM34.9497 33.4154C36.7611 33.7967 38.0481 34.9765 38.3341 36.49L38.4176 36.9071L37.3569 37.1097C36.7849 37.2288 36.1891 37.348 36.058 37.3718C35.8554 37.4195 35.772 37.3599 35.6766 37.062C35.331 36.0967 34.616 35.5962 33.5554 35.6081C32.8285 35.6081 32.3637 35.8226 31.8751 36.3946C31.3865 36.9309 31.1958 37.5506 31.1958 38.492C31.1958 39.4454 31.3865 40.0532 31.8751 40.6014C32.3637 41.1495 32.8523 41.3521 33.7103 41.3521C34.5564 41.3521 35.1523 40.9946 35.474 40.3153C35.5932 40.0651 35.7005 39.8506 35.7124 39.8267C35.7481 39.7791 38.072 40.2915 38.2269 40.3868C38.4891 40.5298 37.929 41.7096 37.2974 42.3293C35.3668 44.2718 31.5533 44.1169 29.7181 42.0076C28.2047 40.2915 28.0974 37.0739 29.5036 35.2387C30.6953 33.6656 32.8046 32.9625 34.9497 33.4154ZM12.355 33.5465C14.9529 34.0946 16.3472 35.8226 16.3472 38.492C16.3472 40.935 15.2508 42.4842 12.9866 43.2827C12.3431 43.4972 11.9021 43.5449 9.82858 43.5925L7.40942 43.6402V38.504V33.3677H9.47107C10.8177 33.3677 11.8068 33.4273 12.355 33.5465Z" fill="#333946"/>
<path d="M21.8856 35.6195C20.253 36.0246 19.3711 37.8599 19.9789 39.5759C20.396 40.7676 21.2064 41.3516 22.4219 41.3516C23.5183 41.3516 24.2333 40.9106 24.7576 39.9215C25.0913 39.2899 25.0675 37.6454 24.7219 36.9899C24.4478 36.4775 23.8639 35.9174 23.4468 35.7506C23.0178 35.5956 22.2551 35.5241 21.8856 35.6195Z" fill="#333946"/>
<path d="M10.0303 38.4796V41.3755L10.8406 41.2921C12.4613 41.1371 13.3432 40.5175 13.5935 39.3377C13.7603 38.5631 13.7603 38.4201 13.5935 37.6574C13.3432 36.4776 12.4375 35.8221 10.8883 35.6791L10.0303 35.5957V38.4796Z" fill="#333946"/>
<path d="M28.3848 8.99729V17.8755H36.9293H45.4738L45.1163 17.4941C44.7945 17.1366 38.1925 10.2247 35.2966 7.20974C34.6055 6.4828 33.5568 5.3626 32.9728 4.70716C31.6024 3.18178 28.5993 0.119101 28.4801 0.119101C28.4324 0.119101 28.3848 4.11131 28.3848 8.99729Z" fill="#E0FB52"/>
<path d="M33.5438 43.6999C33.651 43.7237 33.8417 43.7237 33.9609 43.6999C34.0681 43.6641 33.9728 43.6403 33.7464 43.6403C33.52 43.6403 33.4246 43.6641 33.5438 43.6999Z" fill="#E0FB52"/>
<path d="M35.4752 7.26816C35.7969 7.58992 36.0829 7.86401 36.1187 7.86401C36.1544 7.86401 35.9161 7.58992 35.5943 7.26816C35.2726 6.93448 34.9866 6.67231 34.9508 6.67231C34.9151 6.67231 35.1534 6.93448 35.4752 7.26816Z" fill="#ECECEC"/>
<path d="M38.633 10.5456C39.2526 11.1653 39.7889 11.6777 39.8247 11.6777C39.8485 11.6777 39.3718 11.1653 38.7521 10.5456C38.1324 9.92593 37.5962 9.4135 37.5604 9.4135C37.5366 9.4135 38.0133 9.92593 38.633 10.5456Z" fill="#ECECEC"/>
<path d="M42.8045 14.8956C44.3418 16.5044 45.6527 17.8391 45.7123 17.8629C45.8553 17.9106 41.3626 13.2391 40.5284 12.4526C40.2424 12.1904 41.2672 13.2868 42.8045 14.8956Z" fill="#ECECEC"/>
<path d="M21.0552 33.5336C19.6847 33.8673 18.2904 35.0113 17.7184 36.2626C17.0987 37.6092 17.1226 39.504 17.778 40.8268C19.2676 43.8776 23.7365 44.5568 26.1795 42.1019C28.4676 39.8258 27.9313 35.6786 25.1547 34.046C24.0821 33.4144 22.4018 33.1999 21.0552 33.5336ZM23.5697 35.7382C24.4635 36.1434 25.1666 37.347 25.1666 38.4911C25.1666 39.1942 24.8448 40.076 24.392 40.6004C23.8438 41.2439 23.1407 41.518 22.1873 41.4465C21.2697 41.375 20.6262 40.946 20.1137 40.0403C19.792 39.4683 19.7443 39.2776 19.7562 38.4911C19.7562 37.7641 19.8158 37.49 20.078 36.9776C20.3998 36.3698 20.9122 35.8693 21.4723 35.6429C21.9609 35.4522 23.0334 35.4999 23.5697 35.7382Z" fill="#ECECEC"/>
<path d="M32.211 33.5451C30.7214 33.9622 29.482 35.0228 28.9577 36.3217C28.7313 36.9057 28.6836 37.2155 28.6836 38.4906C28.6836 40.302 28.91 40.9932 29.8276 42.0062C31.9727 44.3538 36.4535 44.0678 37.824 41.5057C38.4079 40.4212 38.4436 40.4808 37.0255 40.159C36.3343 40.016 35.7623 39.9088 35.7385 39.9326C35.7266 39.9564 35.6074 40.1948 35.4763 40.457C35.0235 41.3627 33.6768 41.7321 32.6043 41.2435C32.0204 40.9813 31.4483 40.314 31.2577 39.6943C31.067 39.0507 31.0908 37.7756 31.3053 37.1679C31.7701 35.857 33.2717 35.1539 34.4991 35.6782C34.952 35.857 35.6193 36.5839 35.7266 37.001C35.7623 37.1679 35.8577 37.2989 35.9411 37.2989C36.2271 37.287 38.1696 36.8461 38.2411 36.7746C38.2887 36.7388 38.2291 36.3932 38.11 36.0238C37.812 35.0943 36.8348 34.1171 35.8338 33.7238C34.9043 33.3782 33.1406 33.2829 32.211 33.5451Z" fill="#ECECEC"/>
<path d="M7.53027 38.4902V43.4954H9.65151C11.9038 43.4954 12.8334 43.3524 13.7629 42.8876C15.5504 41.9819 16.3012 40.528 16.2059 38.1446C16.1701 37.0244 16.1225 36.798 15.7769 36.0949C15.3479 35.213 14.752 34.5933 13.8582 34.1405C12.7738 33.5923 12.0707 33.485 9.71109 33.485H7.53027V38.4902ZM11.9515 35.7731C12.595 35.9638 13.2981 36.5954 13.5484 37.2032C13.7986 37.8467 13.7986 39.1576 13.5484 39.7653C13.1194 40.7783 12.3328 41.243 10.9028 41.3265L9.91368 41.386V38.5021V35.6301H10.7002C11.1411 35.6301 11.7012 35.6897 11.9515 35.7731Z" fill="#ECECEC"/>
</svg>
