<svg width="42" height="58" viewBox="0 0 42 58" fill="none" xmlns="http://www.w3.org/2000/svg">
<path d="M17.913 20.8696H4.79958C4.40896 18.7305 3.60542 14.3072 3.51614 13.7268C3.40453 13.0014 3.96255 10.2113 4.79958 9.76493C5.6366 9.31852 9.93333 8.31419 10.2681 8.14678C10.6029 7.97938 14.6765 8.8722 15.2345 9.03961C15.7925 9.20701 17.4665 11.6065 17.913 11.9971C18.2701 12.3096 18.3222 15.4754 18.3036 17.0192L17.913 20.8696Z" fill="#E0FB52"/>
<path d="M4.51294 0.279108C3.70939 0.602758 3.18486 1.01569 2.638 1.74111C1.80098 2.83482 1.8233 2.54465 1.8233 10.6024V17.8008L2.07999 18.4481C2.42596 19.2851 3.35226 20.2896 4.15581 20.6802C4.49062 20.8476 4.79195 20.9815 4.81427 20.9815C4.83659 20.9815 4.89239 19.5865 4.91471 17.8789C4.97051 14.7875 4.97051 14.7875 5.30532 13.8166C6.59992 10.1002 10.5953 8.44847 14.1443 10.1783C15.1599 10.6694 16.354 11.8635 16.8897 12.9349C17.5259 14.2072 17.6152 14.8322 17.6152 18.1133V20.9927L17.8719 20.9257C18.4745 20.7471 19.3673 20.0887 19.8472 19.4526C20.7735 18.2472 20.7512 18.5486 20.7177 10.3234L20.6843 3.06919L20.3271 2.38841C19.8807 1.54023 19.1441 0.803644 18.3071 0.379551L17.671 0.0559025L11.4212 0.0335808L5.1714 0.000101089L4.51294 0.279108Z" fill="#333946"/>
<path d="M25.9072 0.212166C24.4229 0.71438 23.3962 1.93086 23.0837 3.51562C22.9944 3.99552 22.9721 6.17178 22.9944 10.993L23.0279 17.8008L23.385 18.5486C24.0434 19.9436 25.193 20.8365 26.655 21.0931C27.146 21.1713 29.166 21.2047 32.9606 21.1824C38.4961 21.1489 38.5407 21.1489 39.188 20.8923C40.4268 20.39 41.3643 19.4079 41.7995 18.1468C41.9893 17.6223 42.0004 17.0196 42.0004 10.4908V3.40402L41.7437 2.7902C41.3866 1.90854 40.8063 1.18312 40.1143 0.71438C39.0206 -0.0110416 39.0876 0.000120163 32.4695 0.000120163C27.0121 0.0112801 26.4318 0.02244 25.9072 0.212166Z" fill="#333946"/>
<path d="M10.6845 12.7228C9.71356 12.8902 8.9435 13.4705 8.49709 14.3745L8.1846 15.0106L8.15112 28.4588L8.10648 41.907L7.13553 37.7777C6.59983 35.501 6.05298 33.4475 5.93021 33.202C5.64005 32.6551 5.21595 32.2422 4.55749 31.9074C4.12224 31.673 3.91019 31.6395 2.96157 31.6507C2.0241 31.673 1.78973 31.7065 1.25404 31.9743C0.405852 32.3873 0.0598821 32.9341 0.00408046 33.9162C-0.0294005 34.5412 0.126844 35.3782 1.08663 39.5076C1.71161 42.1749 2.33659 44.898 2.48167 45.5453C3.30754 49.1054 5.47264 53.0004 8.51941 56.3931L9.18903 57.1409H18.6418H28.0835L28.7196 56.0806C30.8512 52.4982 32.2574 48.2126 32.6704 44.0386C32.7485 43.3132 32.7931 40.0656 32.7931 36.1037C32.7931 28.4588 32.8154 28.6932 31.9003 27.7892C30.6615 26.5393 28.5745 26.5951 27.4027 27.8897C27.1572 28.1575 26.9005 28.5258 26.8112 28.7267L26.6661 29.0726L26.6549 28.4477C26.6549 27.5325 26.3648 26.8183 25.7621 26.2268C24.5456 24.9991 22.4921 25.0326 21.2757 26.2937C21.0525 26.5393 20.7846 26.9075 20.6953 27.1196L20.5279 27.5102L20.5168 26.941C20.5168 26.5393 20.4163 26.171 20.1708 25.6799C19.6574 24.6643 18.8316 24.1175 17.6597 24.017C16.3986 23.9166 15.2268 24.5527 14.6576 25.6576L14.3897 26.171L14.3786 20.6912C14.3786 14.5531 14.3786 14.5865 13.5974 13.6937C12.9054 12.9125 11.7894 12.5442 10.6845 12.7228Z" fill="#333946"/>
</svg>
