<svg width="63" height="57" viewBox="0 0 63 57" fill="none" xmlns="http://www.w3.org/2000/svg">
<path d="M56.9486 47.8506V23.1065L54.4621 21.7723C52.865 21.6106 49.5133 21.2871 48.8825 21.2871C48.0941 21.2871 40.9984 23.713 40.028 23.8949C39.0577 24.0769 35.4795 30.93 35.4795 32.992C35.4795 35.054 36.8744 37.7225 37.3596 39.7239C37.8447 41.7252 41.059 45.0002 42.5752 46.2738C44.0914 47.5474 49.5496 48.2751 50.0348 48.2751C50.423 48.2751 54.8057 47.9921 56.9486 47.8506Z" fill="#E0FB52"/>
<path d="M28.2499 5.17913L19.6016 10.3705L25.8604 10.4069C29.3051 10.419 34.9696 10.419 38.4386 10.4069L44.758 10.3705L41.9561 5.5794C40.4278 2.94731 39.0693 0.691235 38.9602 0.557811C38.6569 0.230316 38.0504 -0.000143051 37.4318 -0.000143051C36.9467 -0.000143051 36.1704 0.436517 28.2499 5.17913Z" fill="#333946"/>
<path d="M6.24756 2.72913C3.80955 3.26282 1.96587 4.65771 0.874222 6.78036C-0.0597452 8.58765 0.000901951 6.87739 0.000901951 29.8506C0.000901951 52.6296 -0.0597452 50.9679 0.813575 52.7631C1.42005 54.0245 2.96049 55.5528 4.25834 56.1957C6.02923 57.069 4.3675 57.0205 29.9849 56.9841L53.0672 56.9477L53.892 56.5596C55.4446 55.8197 56.5847 54.3763 56.888 52.7752C56.9486 52.4234 57.0093 50.883 57.0093 49.3668V46.6013L52.861 46.5407C49.5375 46.5043 48.5429 46.4558 47.9365 46.2981C43.8367 45.2186 40.6831 42.3196 39.4458 38.4503C38.9971 37.0676 38.9 36.2428 38.9728 34.484C39.0456 32.519 39.2882 31.5365 40.0887 29.8991C41.6777 26.6726 44.6736 24.368 48.2154 23.6403C49.1494 23.4462 49.8772 23.4098 53.1642 23.4098H57.0093V20.523C57.0093 17.4179 56.9244 16.7993 56.3422 15.647C55.9176 14.81 54.9715 13.9125 54.0133 13.4394L53.1885 13.0391L30.2032 12.9785C8.13976 12.9179 7.20579 12.9057 6.76913 12.6874C5.90794 12.2629 5.21656 11.244 5.21656 10.3828C5.21656 9.53374 5.87155 8.53912 6.70848 8.13885C7.21792 7.89626 7.41199 7.88413 11.8756 7.88413H16.5212L20.8757 5.26418C23.2652 3.8329 25.2301 2.63209 25.2301 2.5957C25.2301 2.57144 21.1183 2.54718 16.1088 2.55931C9.01308 2.55931 6.81765 2.60783 6.24756 2.72913Z" fill="#333946"/>
<path d="M45.0746 3.46897C46.7363 6.44069 49.0773 10.4191 49.1622 10.4313C49.332 10.4313 49.2471 7.41104 49.0531 6.54985C48.6285 4.66979 46.9183 2.99593 45.1353 2.71695L44.6016 2.63204L45.0746 3.46897Z" fill="#333946"/>
<path d="M48.6768 27.352C45.9598 27.9463 43.5824 30.2873 42.8789 33.0528C42.6484 33.9868 42.6484 36.0003 42.8789 36.9343C43.4126 39.0326 45.0258 41.0219 46.9544 41.9437C48.701 42.7928 49.1377 42.8292 55.3965 42.7928C60.7334 42.7564 60.879 42.7443 61.2186 42.5017C61.4006 42.3682 61.6795 42.065 61.8372 41.8467L62.1041 41.4464V34.9572C62.1041 28.5771 62.1041 28.4679 61.8493 28.0555C61.7038 27.8372 61.3884 27.5461 61.1216 27.4126C60.6849 27.1822 60.3938 27.1701 55.0447 27.1822C50.8116 27.1822 49.2469 27.2307 48.6768 27.352ZM51.8789 32.9437C52.8129 33.7078 53.1647 34.6054 52.8857 35.6C52.3399 37.5529 49.8291 38.1229 48.5555 36.5825C47.7185 35.5636 47.7307 34.3143 48.5919 33.3682C49.2105 32.6768 49.6471 32.4949 50.6054 32.5313C51.2967 32.5677 51.4787 32.6283 51.8789 32.9437Z" fill="#333946"/>
</svg>
