<svg width="14" height="14" viewBox="0 0 14 14" fill="none" xmlns="http://www.w3.org/2000/svg">
<path fill-rule="evenodd" clip-rule="evenodd" d="M1.83529 6.15999C1.83529 6.15999 1.36489 6.32379 1.40199 6.62479C1.43909 6.92579 1.82339 7.06369 1.82339 7.06369L4.32519 7.91699L10.3333 4.05299C10.3333 4.05299 10.6798 3.83949 10.6672 4.05299C10.6672 4.05299 10.7295 4.09079 10.5433 4.26649C10.3578 4.44149 5.82389 8.56939 5.82389 8.56939L5.81479 8.64639L9.89929 11.8181C10.5811 12.1191 10.8289 11.4919 10.8289 11.4919L12.5999 2.44789C12.5999 1.84519 11.7823 2.20919 11.7823 2.20919L1.83529 6.15999Z" fill="white"/>
<path fill-rule="evenodd" clip-rule="evenodd" d="M8.0598 9.67821L5.7624 11.354C5.7624 11.354 5.6364 11.452 5.4978 11.3904L5.7624 8.57571L8.0598 9.67821Z" fill="white"/>
</svg>
