<svg width="17" height="17" viewBox="0 0 17 17" fill="none" xmlns="http://www.w3.org/2000/svg">
<path fill-rule="evenodd" clip-rule="evenodd" d="M13.2831 2.87726C12.9635 2.58826 11.5865 1.72466 8.71176 1.71191C8.71176 1.71191 5.30922 1.48836 3.65682 2.98181C2.73712 3.88791 2.42772 5.23431 2.39372 6.87906L2.38947 7.04736C2.35122 8.72866 2.28406 11.6909 5.19701 12.4984L5.18511 15.0348C5.18511 15.1785 5.20722 15.2762 5.28966 15.2966C5.34916 15.3111 5.43672 15.2805 5.51237 15.2057C5.99432 14.7229 7.53706 12.8656 7.53706 12.8656C9.60681 13.0008 11.2541 12.5928 11.4301 12.535C11.4726 12.5214 11.5321 12.5078 11.6069 12.4899C12.2809 12.3335 14.145 11.9 14.4892 9.12646C14.8845 5.95086 14.3447 3.78336 13.2839 2.87726H13.2831ZM8.83331 5.54881C8.83617 5.49814 8.85896 5.45066 8.8967 5.41674C8.93445 5.38282 8.98408 5.36521 9.03476 5.36776C9.43171 5.38816 9.76151 5.50801 9.99696 5.75026C10.2307 5.99166 10.3455 6.32826 10.3659 6.73456C10.3683 6.78551 10.3505 6.83535 10.3162 6.87313C10.2819 6.91091 10.2341 6.93353 10.1831 6.93601C10.1322 6.93849 10.0823 6.92063 10.0445 6.88636C10.0068 6.85208 9.98414 6.80421 9.98166 6.75326C9.96466 6.40646 9.86861 6.17016 9.72071 6.01716C9.57281 5.86416 9.34671 5.76811 9.01521 5.75026C8.9644 5.74762 8.9167 5.72493 8.8826 5.68716C8.84849 5.64939 8.83077 5.59963 8.83331 5.54881ZM8.74831 4.33926C8.7224 4.33583 8.69606 4.33772 8.67091 4.34481C8.64575 4.35191 8.62231 4.36407 8.60202 4.38054C8.58172 4.39701 8.565 4.41745 8.55288 4.44061C8.54076 4.46377 8.53349 4.48916 8.53152 4.51522C8.52955 4.54129 8.53292 4.56748 8.54143 4.59219C8.54993 4.61691 8.56339 4.63963 8.58098 4.65896C8.59857 4.6783 8.61992 4.69384 8.64372 4.70464C8.66753 4.71544 8.69328 4.72126 8.71942 4.72176C9.45127 4.77446 10.0004 5.01926 10.3939 5.44681C10.7883 5.87691 10.9813 6.41241 10.9677 7.06946C10.9671 7.09469 10.9715 7.11978 10.9807 7.1433C10.9898 7.16682 11.0035 7.18831 11.0209 7.20654C11.0384 7.22477 11.0592 7.23939 11.0823 7.24956C11.1054 7.25973 11.1303 7.26525 11.1555 7.26581C11.1807 7.26637 11.2058 7.26195 11.2294 7.25281C11.2529 7.24367 11.2744 7.22999 11.2926 7.21255C11.3108 7.19511 11.3254 7.17424 11.3356 7.15115C11.3458 7.12806 11.3513 7.10319 11.3519 7.07796C11.368 6.33336 11.1453 5.69841 10.677 5.18841C10.2044 4.67331 9.55497 4.39791 8.74747 4.33841L8.74831 4.33926ZM8.20261 3.53431C8.20346 3.42806 8.29016 3.34306 8.39642 3.34391C9.51162 3.35156 10.4534 3.72216 11.2108 4.45741C11.9741 5.20031 12.3515 6.21096 12.3608 7.46641C12.3612 7.51736 12.3412 7.56635 12.3055 7.60262C12.2697 7.63888 12.2209 7.65945 12.17 7.65978C12.119 7.66012 12.07 7.64021 12.0338 7.60442C11.9975 7.56863 11.977 7.51991 11.9766 7.46896C11.9681 6.29256 11.6171 5.38816 10.9422 4.73196C10.2622 4.07066 9.41641 3.73406 8.39387 3.72726C8.36864 3.72715 8.34368 3.72207 8.32042 3.71231C8.29715 3.70256 8.27604 3.68831 8.25828 3.67039C8.24052 3.65248 8.22646 3.63124 8.21691 3.60789C8.20736 3.58454 8.2025 3.55954 8.20261 3.53431ZM9.47847 9.15536C9.33396 9.33386 9.06366 9.31176 9.06366 9.31176C7.08912 8.80856 6.56041 6.81276 6.56041 6.81276C6.56041 6.81276 6.53661 6.54416 6.71681 6.39881L7.07381 6.11576C7.25061 5.97976 7.36281 5.64996 7.18347 5.32781C7.04516 5.08583 6.8948 4.85093 6.73296 4.62401C6.56325 4.40203 6.38867 4.18381 6.20936 3.96951C6.03256 3.76296 5.77331 3.71451 5.49961 3.85646L5.49707 3.85731H5.49452C5.22055 4.0152 4.97373 4.2161 4.76352 4.45231C4.59437 4.65546 4.49747 4.85436 4.47366 5.04986C4.45996 5.16488 4.47157 5.2815 4.50767 5.39156L4.51617 5.39836C4.60117 5.70011 4.81452 6.20331 5.27861 7.04226C5.54382 7.52676 5.84981 7.98916 6.19321 8.42266C6.36491 8.64026 6.54937 8.84766 6.74486 9.04401L6.75166 9.05081L6.76612 9.06526L6.78652 9.08566L6.80777 9.10691L6.82902 9.12731C7.02537 9.32281 7.23361 9.50726 7.45121 9.67896C7.88642 10.0207 8.34881 10.3267 8.83501 10.591C9.67652 11.0534 10.1806 11.2659 10.4823 11.3518L10.4891 11.3603C10.5995 11.3963 10.7164 11.4079 10.8317 11.3943C11.0272 11.3713 11.2278 11.2753 11.4309 11.1053L11.4335 11.1036L11.436 11.101C11.6698 10.8919 11.8695 10.6471 12.0259 10.376V10.3734L12.0276 10.37C12.1696 10.098 12.1211 9.83876 11.912 9.66281L11.8661 9.62456C11.6664 9.45881 11.4632 9.29728 11.2567 9.14006C11.0297 8.9783 10.7948 8.82794 10.5529 8.68956C10.2299 8.51106 9.89836 8.62326 9.76236 8.80006L9.47847 9.15536Z" fill="white"/>
</svg>
