<svg width="12" height="11" viewBox="0 0 12 11" fill="none" xmlns="http://www.w3.org/2000/svg">
<g clip-path="url(#clip0_408_6488)">
<path d="M2.7 0.103131C1.725 0.254381 1.26 0.433131 0.8625 0.797506C0.27 1.34063 0.0075 2.38563 0 4.26251V5.39688L1.3125 5.34876C3.2475 5.28001 4.0575 5.06688 4.7625 4.43438C5.505 3.77438 5.76 2.99063 5.835 1.20313L5.8875 6.19888e-06L4.575 0.00688124C3.855 0.0137563 3.0075 0.055006 2.7 0.103131Z" fill="white"/>
<path d="M6.16505 1.24438C6.19505 1.93188 6.25505 2.58501 6.29255 2.70188C6.33755 2.81188 6.37505 2.97001 6.37505 3.03876C6.37505 3.30001 6.84005 4.07688 7.19255 4.40001C7.89755 5.04626 8.76755 5.28001 10.71 5.34876L12.0075 5.39688L12 4.29688C11.9925 3.20376 11.925 2.52313 11.76 1.92501C11.3625 0.453756 10.3575 0.0137563 7.38755 6.19888e-06H6.11255L6.16505 1.24438Z" fill="white"/>
<path d="M0 6.7375C0.0075 8.61438 0.27 9.65937 0.8625 10.2025C1.4625 10.7594 2.6025 11 4.65 11H5.8875L5.835 9.75563C5.805 9.06813 5.745 8.415 5.7075 8.29813C5.6625 8.18813 5.625 8.03 5.625 7.96125C5.625 7.7 5.16 6.92312 4.8075 6.6C4.1025 5.95375 3.2325 5.71313 1.3125 5.65125L0 5.60313V6.7375Z" fill="white"/>
<path d="M10.6275 5.64438C9.88505 5.67188 9.18005 5.72688 9.06005 5.76813C8.93255 5.80938 8.76005 5.84375 8.68505 5.84375C8.40005 5.84375 7.55255 6.27 7.20005 6.59313C6.49505 7.23938 6.23255 8.03688 6.16505 9.79688L6.11255 11H7.38755C9.12755 11 10.29 10.8006 10.8675 10.4156C11.6925 9.86563 11.985 8.88938 12 6.6825C12 6.07063 11.9925 5.57563 11.985 5.5825C11.97 5.5825 11.3625 5.61688 10.6275 5.64438Z" fill="white"/>
</g>
<defs>
<clipPath id="clip0_408_6488">
<rect width="12" height="11" fill="white"/>
</clipPath>
</defs>
</svg>
