<svg width="21" height="19" viewBox="0 0 21 19" fill="none" xmlns="http://www.w3.org/2000/svg">
<path d="M8.96309 1.179L3.2426 6.89949C2.11738 8.02471 1.48524 9.55084 1.48524 11.1421C1.48524 12.7334 2.11738 14.2596 3.2426 15.3848C4.36781 16.51 5.89394 17.1421 7.48524 17.1421C9.07653 17.1421 10.6027 16.51 11.7279 15.3848L18.7989 8.31371C19.5491 7.56356 19.9705 6.54615 19.9705 5.48528C19.9705 4.42441 19.5491 3.407 18.7989 2.65685C18.0488 1.90671 17.0314 1.48528 15.9705 1.48528C14.9097 1.48528 13.8922 1.90671 13.1421 2.65685L6.64944 9.14951C6.46372 9.33523 6.3164 9.5557 6.21589 9.79835C6.11538 10.041 6.06365 10.3011 6.06365 10.5637C6.06365 10.8264 6.11538 11.0864 6.21589 11.3291C6.3164 11.5717 6.46372 11.7922 6.64944 11.9779C7.02451 12.353 7.53322 12.5637 8.06365 12.5637C8.59408 12.5637 9.10279 12.353 9.47786 11.9779L14.5563 6.89949" stroke="#B8B7B4" stroke-width="2" stroke-linecap="round" stroke-linejoin="round"/>
</svg>
