<svg  class="main-svg-sprite main-svg-sprite--icons" xmlns="http://www.w3.org/2000/svg" xmlns:xlink="http://www.w3.org/1999/xlink"><symbol viewBox="0 0 14.17 15.59" id="cart" xmlns="http://www.w3.org/2000/svg"><g><path d="M12 15.59H2.13A2.13 2.13 0 010 13.46V3.54a.71.71 0 01.14-.42L2.27.28A.69.69 0 012.83 0h8.51a.69.69 0 01.56.28L14 3.12a.71.71 0 01.14.42v9.92A2.13 2.13 0 0112 15.59zM1.42 3.78v9.68a.7.7 0 00.2.5.71.71 0 00.51.21H12a.72.72 0 00.71-.71V3.78L11 1.42H3.19z"/><path d="M13.46 4.25H.71a.71.71 0 010-1.42h12.75a.71.71 0 110 1.42zM7.08 9.92a3.55 3.55 0 01-3.54-3.54.71.71 0 011.46 0 2.12 2.12 0 00.62 1.5 2.19 2.19 0 003 0 2.12 2.12 0 00.62-1.5.71.71 0 111.42 0 3.55 3.55 0 01-3.58 3.54z"/></g></symbol><symbol viewBox="0 0 18 13" id="check" xmlns="http://www.w3.org/2000/svg"><path d="M7.322 12.249l10.108-9.63L14.926.233 7.322 7.477 3.26 3.607.755 5.993l6.567 6.256z"/></symbol><symbol viewBox="0 0 10 5" id="chevron-down" xmlns="http://www.w3.org/2000/svg"><path d="M1 1l4 3 4-3" stroke="#000" stroke-linecap="square" stroke-linejoin="round"/></symbol><symbol viewBox="0 0 13.97 13.97" id="close" xmlns="http://www.w3.org/2000/svg"><g data-name="Layer 2"><path d="M14 1.41L8.39 7 14 12.56 12.56 14 7 8.39 1.41 14 0 12.56 5.58 7 0 1.41 1.41 0 7 5.58 12.56 0z" data-name="Layer 1"/></g></symbol><symbol viewBox="0 0 10 13" id="comparison" xmlns="http://www.w3.org/2000/svg"><path clip-rule="evenodd" d="M4.96 0c.39 0 .708.317.708.708v11.336a.708.708 0 11-1.417 0V.708c0-.39.317-.708.708-.708zm4.25 4.25c.392 0 .709.318.709.71v7.084a.708.708 0 11-1.417 0V4.96c0-.39.317-.708.708-.708zM1.417 7.794a.708.708 0 10-1.417 0v4.251a.708.708 0 101.417 0v-4.25z"/></symbol><symbol viewBox="0 0 44 33" id="delivery" xmlns="http://www.w3.org/2000/svg"><path d="M3.28 15.408h18.598v2.931H3.28v-2.931zM.181 8.079H15.68v2.931H.18V8.08z"/><path d="M43.45 16.296L38.8 6.036a1.488 1.488 0 00-.57-.647 1.613 1.613 0 00-.854-.242h-4.65V2.216c0-.389-.163-.762-.453-1.037A1.596 1.596 0 0031.177.75H6.381v2.932h23.246v18.404a6.093 6.093 0 00-1.818 1.519 5.725 5.725 0 00-1.061 2.063h-9.739c-.377-1.382-1.274-2.586-2.523-3.387a6.478 6.478 0 00-4.26-.963 6.315 6.315 0 00-3.87 1.94 5.684 5.684 0 00-1.548 3.876c0 1.427.55 2.805 1.548 3.876a6.315 6.315 0 003.87 1.94 6.478 6.478 0 004.26-.964c1.249-.8 2.146-2.005 2.523-3.386h9.739a5.818 5.818 0 002.19 3.17A6.398 6.398 0 0032.728 33a6.398 6.398 0 003.788-1.23 5.818 5.818 0 002.19-3.17h3.32c.411 0 .805-.155 1.096-.43.29-.275.454-.647.454-1.036v-10.26c0-.2-.043-.396-.126-.578zm-32.42 13.77a3.227 3.227 0 01-1.722-.495 2.973 2.973 0 01-1.141-1.315 2.784 2.784 0 01-.177-1.694c.12-.569.415-1.091.849-1.501.433-.41.985-.69 1.587-.802a3.265 3.265 0 011.79.166c.567.222 1.05.598 1.391 1.08a2.82 2.82 0 01.523 1.629c-.001.777-.328 1.522-.909 2.072a3.195 3.195 0 01-2.19.86zM32.727 8.078h3.626l3.323 7.329h-6.95v-7.33zm0 21.986a3.227 3.227 0 01-1.722-.494 2.973 2.973 0 01-1.142-1.315 2.784 2.784 0 01-.176-1.694c.12-.569.415-1.091.848-1.501.433-.41.986-.69 1.587-.802a3.265 3.265 0 011.79.166c.567.222 1.051.598 1.392 1.08a2.82 2.82 0 01.522 1.629c0 .777-.327 1.522-.909 2.072a3.195 3.195 0 01-2.19.86zm7.748-4.397h-1.77a5.842 5.842 0 00-2.195-3.164 6.421 6.421 0 00-3.783-1.233v-2.932h7.748v7.329z"/></symbol><symbol viewBox="0 0 16.29 14.88" id="heart" xmlns="http://www.w3.org/2000/svg"><path d="M8.15 14.88a.7.7 0 01-.51-.22L1.35 8.13a4.86 4.86 0 010-6.72 4.51 4.51 0 016.55 0l.25.25.24-.25a4.55 4.55 0 011.5-1 4.49 4.49 0 013.56 0 4.55 4.55 0 011.5 1A4.81 4.81 0 0116 3a4.9 4.9 0 01.34 1.82A4.9 4.9 0 0116 6.59a4.81 4.81 0 01-1 1.54l-6.34 6.53a.72.72 0 01-.51.22zM4.62 1.42a3.08 3.08 0 00-2.25 1 3.46 3.46 0 000 4.76l5.78 6 5.78-6a3.29 3.29 0 00.7-1.09 3.45 3.45 0 000-2.58 3.29 3.29 0 00-.7-1.09 3.24 3.24 0 00-1-.72 3 3 0 00-2.44 0 3.24 3.24 0 00-1 .72l-.75.78a.72.72 0 01-1 0l-.76-.78a3.09 3.09 0 00-2.36-1z"/></symbol><symbol viewBox="0 0 18 12" id="menu" xmlns="http://www.w3.org/2000/svg"><g data-name="Layer 2"><path d="M0 12h18v-2H0zm0-5h18V5H0zm0-7v2h18V0z" data-name="Layer 1"/></g></symbol><symbol viewBox="0 0 21.19 21.23" id="phone" xmlns="http://www.w3.org/2000/svg"><path d="M18.54 21.23h-.24a20.67 20.67 0 01-8.93-3.17 20.34 20.34 0 01-6.19-6.2A20.62 20.62 0 010 2.9a2.73 2.73 0 01.14-1.1A2.71 2.71 0 01.69.86a2.67 2.67 0 01.89-.63A2.64 2.64 0 012.65 0h3A2.74 2.74 0 017.4.64a2.68 2.68 0 01.89 1.64A12.15 12.15 0 009 5a2.8 2.8 0 01.11 1.49A2.68 2.68 0 018.4 7.8l-.92.91a15.33 15.33 0 005.08 5.08l.92-.91a2.68 2.68 0 011.31-.71 2.61 2.61 0 011.49.11 12.35 12.35 0 002.66.67 2.65 2.65 0 012.29 2.68v3a2.84 2.84 0 01-.23 1.01 2.7 2.7 0 01-.64.89 2.64 2.64 0 01-.94.56 2.75 2.75 0 01-.88.14zM5.67 1.3h-3a1.3 1.3 0 00-.55.12 1.28 1.28 0 00-.45.32 1.44 1.44 0 00-.28.48 1.28 1.28 0 00-.06.55 19.22 19.22 0 003 8.38A19 19 0 0010.08 17a19.12 19.12 0 008.35 3 1.25 1.25 0 00.54-.06 1.32 1.32 0 00.48-.29 1.2 1.2 0 00.32-.45 1.3 1.3 0 00.12-.55v-3a1.34 1.34 0 00-.32-.9 1.4 1.4 0 00-.84-.47 13.26 13.26 0 01-3-.73 1.41 1.41 0 00-.76-.06 1.46 1.46 0 00-.67.36L13.09 15a.65.65 0 01-.78.11 16.67 16.67 0 01-6.25-6.23.65.65 0 01.11-.78l1.27-1.27a1.34 1.34 0 00.3-1.42A13.71 13.71 0 017 2.46a1.3 1.3 0 00-.45-.83 1.37 1.37 0 00-.88-.33z"/></symbol><symbol viewBox="0 0 10 11" id="play" xmlns="http://www.w3.org/2000/svg"><path d="M0 10.702L9.607 5.35 0 0v10.702z"/></symbol><symbol viewBox="0 0 15 14" id="plus" xmlns="http://www.w3.org/2000/svg"><path d="M7.438 1v11.864M1.167 6.932H13.71"/></symbol><symbol viewBox="0 0 22 22" id="rooms" xmlns="http://www.w3.org/2000/svg"><path clip-rule="evenodd" d="M1.485.061A1.99 1.99 0 00.052 1.54c-.07.324-.07 18.596 0 18.92a1.992 1.992 0 001.49 1.49c.32.068 18.591.068 18.917 0a1.985 1.985 0 001.49-1.49c.068-.324.068-18.596 0-18.92a1.983 1.983 0 00-1.49-1.49C20.114-.024 1.78-.011 1.485.06zm5.005 1.97c0 .663.009.755.085.88.261.429.872.41 1.106-.032.09-.17.097-.24.097-.888V1.29l6.247.011c6.234.011 6.247.011 6.366.1.065.048.158.142.207.207.087.117.089.163.1 3.295l.012 3.175-1.021.001c-.903.001-1.042.01-1.197.081-.458.208-.487.855-.05 1.122.13.079.218.085 1.203.085h1.064l-.011 5.453c-.011 5.432-.012 5.454-.1 5.572a1.224 1.224 0 01-.207.207l-.119.088H1.728l-.119-.088a1.229 1.229 0 01-.207-.207c-.087-.116-.089-.171-.1-2.5L1.29 15.51l1.816.002 1.816.001 1.374 1.228c.821.733 1.45 1.262 1.56 1.312.54.245 1.094-.388.783-.897-.112-.186-3.014-2.766-3.214-2.859-.144-.067-.357-.074-2.146-.075l-1.987-.001V9.366h10.352v4.848l-.748.014c-.68.013-.76.023-.87.104-.414.307-.416.84-.004 1.092.131.08.219.085 1.3.085 1.082 0 1.17-.005 1.3-.085a.803.803 0 00.225-.225c.083-.136.086-.222.086-2.986V9.366h.741c.664 0 .756-.009.881-.085.437-.267.408-.914-.05-1.122-.167-.075-.35-.08-3.448-.08l-3.272-.002-.014-.748c-.013-.677-.023-.76-.103-.868-.301-.403-.819-.413-1.08-.02-.093.137-.098.188-.098.891v.745H1.292V4.966c0-2.1.015-3.152.046-3.233A.721.721 0 011.7 1.35c.102-.045.613-.057 2.46-.059l2.33-.001v.74z"/></symbol><symbol viewBox="0 0 15.58 14.17" id="rotate-arr" xmlns="http://www.w3.org/2000/svg"><g><path d="M5 6.37H.71A.71.71 0 010 5.66V1.41a.71.71 0 011.42 0V5H5a.71.71 0 010 1.37z"/><path d="M8.51 14.17a7.1 7.1 0 01-6.69-4.73A.71.71 0 113.15 9 5.68 5.68 0 104.5 3.07L1.19 6.18a.71.71 0 01-1 0 .72.72 0 010-1l3.32-3.13A7.11 7.11 0 0111.93.88a7.23 7.23 0 013 3.31 7.09 7.09 0 01-6.06 10z"/></g></symbol><symbol viewBox="0 0 20 20" id="search" xmlns="http://www.w3.org/2000/svg"><path d="M20 18.954l-5.587-5.587a8.151 8.151 0 10-1.046 1.046L18.954 20 20 18.954zM1.506 8.164a6.658 6.658 0 116.658 6.658 6.666 6.666 0 01-6.658-6.658z"/></symbol><symbol viewBox="0 0 16 16" id="subscribe" xmlns="http://www.w3.org/2000/svg"><path d="M15.344.293a1 1 0 01.229 1.058l-4.766 13.616a1 1 0 01-1.857.075L6.379 9.259.594 6.687A1 1 0 01.67 4.829L14.285.063a1.001 1.001 0 011.059.23zM10.83 3.392L3.71 5.883l3.204 1.424 3.916-3.916zm-2.502 5.33l3.916-3.916-2.492 7.12L8.329 8.72z"/></symbol></svg>