<svg width="57" height="57" viewBox="0 0 57 57" fill="none" xmlns="http://www.w3.org/2000/svg">
<path d="M24.51 41.61L44.6025 21.5175L40.6125 17.5275L24.51 33.63L16.3875 25.5075L12.3975 29.4975L24.51 41.61ZM28.5 57C24.5575 57 20.8525 56.2514 17.385 54.7542C13.9175 53.2589 10.9012 51.2288 8.33625 48.6637C5.77125 46.0988 3.7411 43.0825 2.2458 39.615C0.7486 36.1475 0 32.4425 0 28.5C0 24.5575 0.7486 20.8525 2.2458 17.385C3.7411 13.9175 5.77125 10.9012 8.33625 8.33625C10.9012 5.77125 13.9175 3.74015 17.385 2.24295C20.8525 0.74765 24.5575 0 28.5 0C32.4425 0 36.1475 0.74765 39.615 2.24295C43.0825 3.74015 46.0988 5.77125 48.6637 8.33625C51.2288 10.9012 53.2589 13.9175 54.7542 17.385C56.2514 20.8525 57 24.5575 57 28.5C57 32.4425 56.2514 36.1475 54.7542 39.615C53.2589 43.0825 51.2288 46.0988 48.6637 48.6637C46.0988 51.2288 43.0825 53.2589 39.615 54.7542C36.1475 56.2514 32.4425 57 28.5 57Z" fill="#4ECB8F"/>
</svg>
