<svg width="23" height="22" viewBox="0 0 23 22" fill="none" xmlns="http://www.w3.org/2000/svg">
<g clip-path="url(#clip0_2270_385)">
<path d="M21.9636 5.89399C21.7142 4.9673 20.9836 4.23685 20.0571 3.98731C18.3643 3.52405 11.5931 3.52405 11.5931 3.52405C11.5931 3.52405 4.82209 3.52405 3.1293 3.96965C2.2206 4.21902 1.47215 4.96747 1.22278 5.89399C0.777344 7.58662 0.777344 11.097 0.777344 11.097C0.777344 11.097 0.777344 14.625 1.22278 16.3C1.47232 17.2265 2.20278 17.9571 3.12946 18.2066C4.83992 18.6699 11.5933 18.6699 11.5933 18.6699C11.5933 18.6699 18.3643 18.6699 20.0571 18.2243C20.9838 17.9749 21.7142 17.2443 21.9638 16.3178C22.4092 14.625 22.4092 11.1148 22.4092 11.1148C22.4092 11.1148 22.427 7.58662 21.9636 5.89399Z" fill="#FF0000"/>
<path d="M9.4375 14.3401L15.0681 11.0971L9.4375 7.85406V14.3401Z" fill="white"/>
</g>
<defs>
<clipPath id="clip0_2270_385">
<rect width="21.6319" height="21.6319" fill="white" transform="translate(0.777344 0.270813)"/>
</clipPath>
</defs>
</svg>
