<svg width="62" height="62" viewBox="0 0 62 62" fill="none" xmlns="http://www.w3.org/2000/svg">
<path d="M24.9737 41.0532V20.1701H15.7145V24.4273H19.6065V41.0532H24.9737Z" fill="#D20E26"/>
<path d="M28.9598 35.2357C28.9598 36.1553 29.1691 37.0026 29.5667 37.7362C29.9642 38.4802 30.5501 39.1209 31.3034 39.6375C32.0567 40.1645 32.9774 40.5675 34.0341 40.8465C35.0908 41.1255 36.294 41.2701 37.6122 41.2701C38.9305 41.2701 40.1337 41.1255 41.1903 40.8362C42.2471 40.5572 43.1677 40.1438 43.921 39.6065C44.6743 39.0692 45.2602 38.4286 45.6578 37.6742C46.0554 36.9199 46.2646 36.0726 46.2646 35.1323C46.2646 34.5537 46.1704 33.9957 46.003 33.4584C45.8356 32.9314 45.5741 32.4354 45.2497 31.9807C44.9254 31.5261 44.5278 31.1128 44.0675 30.7614C43.6072 30.3998 43.084 30.1001 42.4981 29.8625C42.9166 29.6351 43.2828 29.3665 43.6176 29.0668C43.942 28.7672 44.2244 28.4158 44.4546 28.0542C44.6848 27.6822 44.8626 27.2895 44.9777 26.8659C45.0928 26.4422 45.1556 26.0083 45.1556 25.5536C45.1556 24.696 44.9777 23.921 44.622 23.2287C44.2767 22.5467 43.7641 21.9474 43.105 21.4617C42.4458 20.9761 41.6507 20.5937 40.7195 20.3354C39.7884 20.0771 38.7422 19.9428 37.5808 19.9428C36.43 19.9428 35.3942 20.0771 34.4735 20.3251C33.5528 20.5731 32.7577 20.9451 32.0985 21.4204C31.4394 21.8957 30.9268 22.4744 30.5815 23.1357C30.2362 23.8073 30.0479 24.5616 30.0479 25.3986C30.0479 25.8533 30.1212 26.2976 30.2572 26.7212C30.3932 27.1449 30.592 27.5582 30.8431 27.9405C31.0942 28.3229 31.408 28.6845 31.7638 29.0048C32.1195 29.3252 32.5275 29.6145 32.9669 29.8625C32.3601 30.1001 31.7951 30.4101 31.3139 30.7718C30.8221 31.1334 30.3932 31.5468 30.0479 32.0117C29.7027 32.4767 29.4306 32.9831 29.2423 33.5204C29.054 34.068 28.9598 34.6467 28.9598 35.2357ZM37.6122 23.4457C38.104 23.4457 38.5329 23.4973 38.92 23.6007C39.2967 23.704 39.621 23.859 39.8721 24.0656C40.1337 24.2723 40.322 24.5203 40.458 24.82C40.594 25.1196 40.6568 25.4606 40.6568 25.8533C40.6568 26.2252 40.594 26.5559 40.458 26.8452C40.322 27.1346 40.1337 27.3722 39.8721 27.5789C39.6105 27.7855 39.2967 27.9302 38.92 28.0335C38.5434 28.1369 38.104 28.1885 37.6122 28.1885C37.1205 28.1885 36.6915 28.1369 36.3044 28.0335C35.9278 27.9302 35.6034 27.7855 35.3523 27.5789C35.0908 27.3825 34.892 27.1346 34.7665 26.8452C34.6304 26.5559 34.5677 26.2252 34.5677 25.8533C34.5677 25.4709 34.6304 25.1196 34.7665 24.82C34.9025 24.5203 35.0908 24.2723 35.3523 24.0656C35.6139 23.859 35.9278 23.704 36.3044 23.6007C36.6915 23.4973 37.131 23.4457 37.6122 23.4457ZM37.6122 31.9911C38.1876 31.9911 38.7108 32.0531 39.1606 32.1667C39.6105 32.2907 39.9872 32.4664 40.301 32.6937C40.6045 32.9211 40.8451 33.2104 41.002 33.541C41.159 33.8717 41.2427 34.2643 41.2427 34.6983C41.2427 35.1427 41.159 35.5353 41.002 35.8763C40.8451 36.2173 40.6045 36.5066 40.301 36.7339C39.9976 36.9613 39.6105 37.1369 39.1606 37.2609C38.7108 37.3746 38.1981 37.4366 37.6122 37.4366C37.0368 37.4366 36.5137 37.3746 36.0742 37.2506C35.6244 37.1266 35.2477 36.9509 34.9443 36.7236C34.6409 36.486 34.4107 36.207 34.2538 35.866C34.0969 35.525 34.0236 35.1323 34.0236 34.6983C34.0236 34.2643 34.1073 33.882 34.2538 33.541C34.4107 33.2104 34.6409 32.9211 34.9443 32.6937C35.2477 32.4664 35.6244 32.2907 36.0742 32.1667C36.5241 32.0531 37.0368 31.9911 37.6122 31.9911Z" fill="#D20E26"/>
<path d="M60.891 22.526H55.1995C55.4192 23.177 55.618 23.8383 55.7854 24.4996C55.9528 25.1609 56.0888 25.8326 56.2038 26.5146C56.3189 27.1862 56.4026 27.8682 56.4549 28.5605C56.5073 29.2528 56.5387 29.9348 56.5387 30.6271C56.5387 34.1094 55.8272 37.4263 54.5299 40.4435C53.2325 43.4607 51.3598 46.1783 49.0476 48.4619C46.7354 50.7455 43.9838 52.5951 40.9183 53.8764C37.8633 55.1577 34.5049 55.8604 30.9791 55.8604C27.4533 55.8604 24.0948 55.1577 21.0398 53.8764C17.9848 52.5951 15.2332 50.7455 12.921 48.4619C10.6088 46.1783 8.73608 43.4607 7.43874 40.4435C6.14141 37.4263 5.42997 34.1094 5.42997 30.6271C5.42997 27.1449 6.14141 23.828 7.43874 20.8107C8.73608 17.7935 10.6088 15.0759 12.921 12.782C15.2332 10.4984 17.9848 8.64875 21.0398 7.36745C24.0948 6.08616 27.4533 5.38351 30.9791 5.38351C31.6801 5.38351 32.381 5.41451 33.0716 5.46618C33.7621 5.51784 34.4526 5.60051 35.1431 5.71417C35.8232 5.82783 36.5032 5.96216 37.1833 6.12749C37.8529 6.29282 38.5224 6.48915 39.1816 6.70614V1.0953C38.512 0.91964 37.8424 0.754312 37.1728 0.619982C36.4927 0.485653 35.8127 0.371989 35.1326 0.278992C34.4526 0.185995 33.7621 0.123996 33.0716 0.0723312C32.381 0.0309991 31.6801 0 30.9895 0C26.7209 0 22.6406 0.857642 18.9369 2.4076C15.2332 3.95755 11.8853 6.19982 9.08134 8.97941C6.27742 11.759 4.00709 15.0552 2.42727 18.7131C0.868377 22.3814 0 26.4009 0 30.6271C0 34.843 0.868377 38.8729 2.43773 42.5308C4.00709 46.1887 6.27742 49.4952 9.0918 52.2645C11.8957 55.0338 15.2332 57.276 18.9474 58.8363C22.651 60.3863 26.7314 61.2439 31 61.2439C35.2686 61.2439 39.349 60.3863 43.0527 58.8363C46.7563 57.2863 50.1043 55.0441 52.9082 52.2645C55.7121 49.4952 57.9825 46.199 59.5623 42.5308C61.1316 38.8729 62 34.843 62 30.6271C62 29.9348 61.9791 29.2528 61.9268 28.5708C61.8849 27.8889 61.8117 27.2069 61.7175 26.5352C61.6234 25.8636 61.5083 25.1919 61.3723 24.5203C61.2362 23.8486 61.0793 23.177 60.891 22.526Z" fill="#D20E26"/>
<path d="M49.3824 18.3101H53.6615V12.441H59.6041V8.2251H53.6615V2.35593H49.3824V8.2251H43.4816V12.441H49.3824V18.3101Z" fill="#D20E26"/>
</svg>
