<svg width="48" height="44" viewBox="0 0 48 44" fill="none" xmlns="http://www.w3.org/2000/svg">
<path d="M6 21C6 17.6 6.2 17 8 15.5C9.3 14.4 10 13.7 10 12V2C10 1.4 10.4 1 11 1H14C14.6 1 15 1.4 15 2V12C15 13.7 15.7 14.4 17 15.5C18.8 17 19 17.7 19 21M10 11H15M32.5 15C33.4 14.1 34 13.4 34 12V2C34 1.4 34.4 1 35 1H38C38.6 1 39 1.4 39 2V12C39 13.7 39.7 14.4 41 15.5C42.8 17 43 17.7 43 21M34 11H39M20.5 15C21.4 14.1 22 13.4 22 12V2C22 1.4 22.4 1 23 1H26C26.6 1 27 1.4 27 2V12C27 13.7 27.7 14.4 29 15.5C30.8 17 31 17.7 31 21M22 11H27M1 32V23H47V32M47 34V43H1V34M3 33H45M4 28H6M42 28H44M4 38H6M42 38H44" stroke="#D20E26" stroke-width="2" stroke-miterlimit="10"/>
</svg>
