<svg width="120" height="120" viewBox="0 0 120 120" fill="none" xmlns="http://www.w3.org/2000/svg">
<path d="M57.576 84.0151C56.2737 85.3176 54.5372 86.0232 52.8008 86.0232C51.0644 86.0232 49.3279 85.3719 48.0256 84.0151L31.5836 67.5704C28.9247 64.9111 28.9247 60.6235 31.5836 57.9641C34.2425 55.3048 38.5294 55.3048 41.1883 57.9641L52.8551 69.6328L96.5918 25.8346C100.607 21.8184 100.173 15.0886 95.615 11.7237C85.739 4.39684 73.4753 0.055012 60.2892 0.000739168C27.4053 -0.162079 0.273329 26.5944 0.00200935 59.4838C-0.26931 93.0244 26.9712 120.269 60.5063 119.998C92.739 119.727 119.22 93.6757 119.98 61.4376C120.142 55.2505 119.328 49.2805 117.755 43.6361C115.801 36.7435 107.173 34.4097 102.072 39.5114L57.576 84.0151Z" fill="#D20E26"/>
</svg>
