<svg width="30" height="32" viewBox="0 0 30 32" fill="none" xmlns="http://www.w3.org/2000/svg">
<path d="M15.3539 8.43453H14.6074C14.7512 8.43453 14.8894 8.36838 14.9779 8.25815C15.0719 8.36838 15.2101 8.43453 15.3539 8.43453Z" fill="#D52237"/>
<path d="M14.9834 8.25264C14.8949 8.36838 14.7567 8.42901 14.6129 8.42901H15.3594C15.2101 8.43453 15.0719 8.36838 14.9834 8.25264Z" fill="#D52237"/>
<path d="M27.5679 7.47547H22.9786C23.0063 7.45893 23.0339 7.4424 23.0616 7.42586C24.0458 6.81956 24.56 6.14711 24.6319 5.35892C24.7038 4.54317 24.2835 3.73293 23.8578 3.04946C23.2551 2.07386 22.7077 1.51166 22.0884 1.21953C21.2922 0.844724 20.3965 0.960472 19.4289 1.55575C18.1074 2.3715 15.6967 4.59829 14.9889 6.48334C14.2757 4.59277 11.8649 2.36599 10.5434 1.55575C9.7417 1.05969 9.01737 0.899842 8.33174 1.05969C7.30331 1.30772 6.60663 2.25575 6.11453 3.05497C5.69431 3.73844 5.26856 4.54317 5.34044 5.36443C5.41232 6.15263 5.92101 6.82507 6.90521 7.43137C6.93285 7.44791 6.9605 7.46444 6.98814 7.48098H2.4376C1.64692 7.48098 1 8.12035 1 8.90854V12.6842C1 13.4723 1.64139 14.1117 2.4376 14.1117H3.36098V29.4677C3.36098 30.311 4.05213 31 4.8981 31H25.1074C25.9534 31 26.6445 30.311 26.6445 29.4677V14.1172H27.5679C28.3586 14.1172 29 13.4779 29 12.6897V8.91406C29.0055 8.12035 28.3586 7.47547 27.5679 7.47547ZM19.932 2.3715C20.8444 1.8093 21.3641 1.93607 21.6793 2.08489C22.1161 2.28883 22.5474 2.75733 23.0395 3.55104C23.515 4.31718 23.7085 4.84632 23.6698 5.27073C23.6422 5.56837 23.4984 6.03136 22.5529 6.61011C22.0884 6.89672 21.4139 7.20539 20.684 7.47547H15.7298C15.6911 6.1857 18.1848 3.44631 19.932 2.3715ZM14.9834 8.25264C15.0719 8.36838 15.2101 8.42901 15.3539 8.42901H17.654V13.1527H12.3404V8.42901H14.6074C14.7567 8.43453 14.8949 8.36838 14.9834 8.25264ZM6.29699 5.27624C6.25829 4.85183 6.45734 4.32269 6.92732 3.55655C7.51895 2.603 8.01658 2.12347 8.54738 1.9967C8.97313 1.89748 9.4597 2.01875 10.0347 2.37701C11.782 3.45182 14.2757 6.1857 14.2314 7.48098H9.27724C8.54738 7.2109 7.87282 6.90224 7.40836 6.61562C6.4684 6.03136 6.32464 5.57388 6.29699 5.27624ZM2.4376 13.1582C2.17219 13.1582 1.96208 12.9487 1.96208 12.6842V8.90854C1.96208 8.64949 2.17772 8.43453 2.4376 8.43453H11.3894V13.1582H2.4376ZM4.31753 29.4677V14.1172H12.5892V30.0465H4.8981C4.5774 30.0465 4.31753 29.7874 4.31753 29.4677ZM13.5458 14.1172H16.4542V30.0465H13.5458V14.1172ZM25.6824 29.4677C25.6824 29.7874 25.4226 30.0465 25.1074 30.0465H17.4163V14.1172H25.6824V29.4677ZM28.0434 12.6842C28.0434 12.9487 27.8278 13.1582 27.5679 13.1582H18.6161V8.43453H27.5679C27.8278 8.43453 28.0434 8.64949 28.0434 8.90854V12.6842Z" fill="#D52237"/>
<path d="M14.9834 8.25264C14.8949 8.36838 14.7567 8.42901 14.6129 8.42901H15.3594C15.2101 8.43453 15.0719 8.36838 14.9834 8.25264ZM14.9834 8.25264C15.0719 8.36838 15.2101 8.42901 15.3539 8.42901H17.654V13.1527H12.3404V8.42901H14.6074C14.7567 8.43453 14.8949 8.36838 14.9834 8.25264ZM15.3539 8.43453H14.6074C14.7512 8.43453 14.8894 8.36839 14.9779 8.25815C15.0719 8.36839 15.2101 8.43453 15.3539 8.43453ZM27.5679 7.47547H22.9786C23.0063 7.45893 23.0339 7.4424 23.0616 7.42586C24.0458 6.81956 24.56 6.14711 24.6319 5.35892C24.7038 4.54317 24.2835 3.73293 23.8578 3.04946C23.2551 2.07386 22.7077 1.51166 22.0884 1.21953C21.2922 0.844724 20.3965 0.960472 19.4289 1.55575C18.1074 2.3715 15.6967 4.59829 14.9889 6.48334C14.2757 4.59277 11.8649 2.36599 10.5434 1.55575C9.7417 1.05969 9.01737 0.899842 8.33174 1.05969C7.30331 1.30772 6.60663 2.25575 6.11453 3.05497C5.69431 3.73844 5.26856 4.54317 5.34044 5.36443C5.41232 6.15263 5.92101 6.82507 6.90521 7.43137C6.93285 7.44791 6.9605 7.46444 6.98814 7.48098H2.4376C1.64692 7.48098 1 8.12035 1 8.90854V12.6842C1 13.4723 1.64139 14.1117 2.4376 14.1117H3.36098V29.4677C3.36098 30.311 4.05213 31 4.8981 31H25.1074C25.9534 31 26.6445 30.311 26.6445 29.4677V14.1172H27.5679C28.3586 14.1172 29 13.4779 29 12.6897V8.91406C29.0055 8.12035 28.3586 7.47547 27.5679 7.47547ZM19.932 2.3715C20.8444 1.8093 21.3641 1.93607 21.6793 2.08489C22.1161 2.28883 22.5474 2.75733 23.0395 3.55104C23.515 4.31718 23.7085 4.84632 23.6698 5.27073C23.6422 5.56837 23.4984 6.03136 22.5529 6.61011C22.0884 6.89672 21.4139 7.20539 20.684 7.47547H15.7298C15.6911 6.1857 18.1848 3.44631 19.932 2.3715ZM6.29699 5.27624C6.25829 4.85183 6.45734 4.32269 6.92732 3.55655C7.51895 2.603 8.01658 2.12347 8.54738 1.9967C8.97313 1.89748 9.4597 2.01875 10.0347 2.37702C11.782 3.45182 14.2757 6.1857 14.2314 7.48098H9.27724C8.54738 7.2109 7.87282 6.90224 7.40836 6.61562C6.4684 6.03136 6.32464 5.57388 6.29699 5.27624ZM2.4376 13.1582C2.17219 13.1582 1.96208 12.9487 1.96208 12.6842V8.90854C1.96208 8.64949 2.17772 8.43453 2.4376 8.43453H11.3894V13.1582H2.4376ZM4.31753 29.4677V14.1172H12.5892V30.0465H4.8981C4.5774 30.0465 4.31753 29.7874 4.31753 29.4677ZM13.5458 14.1172H16.4542V30.0465H13.5458V14.1172ZM25.6824 29.4677C25.6824 29.7874 25.4226 30.0465 25.1074 30.0465H17.4163V14.1172H25.6824V29.4677ZM28.0434 12.6842C28.0434 12.9487 27.8278 13.1582 27.5679 13.1582H18.6161V8.43453H27.5679C27.8278 8.43453 28.0434 8.64949 28.0434 8.90854V12.6842Z" stroke="#D42237" stroke-width="0.6"/>
</svg>
