<svg width="1733" height="1095" viewBox="0 0 1733 1095" fill="none" xmlns="http://www.w3.org/2000/svg">
<path opacity="0.6" d="M497.892 62.6974C497.022 65.2073 497.188 68.6636 495.198 70.5152M497.892 62.6974C498.514 60.9281 497.644 59.0354 495.82 58.2948C495.447 58.1713 494.908 57.801 494.286 57.3895C493.457 56.8135 492.503 56.1551 492.006 56.0317C489.021 55.2499 487.032 56.2374 484.171 55.4557C481.601 54.7562 479.611 53.6041 477.041 52.8223C462.201 48.4197 447.319 44.6342 431.898 43.6467C429.95 43.5233 428.002 43.441 426.219 42.6592C424.519 41.9186 423.151 40.643 421.742 39.5321C412.249 32.0023 399.357 29.7393 387.211 30.768C382.941 31.1383 378.299 31.7555 374.775 29.369C370.174 26.2419 368.764 18.7944 363.251 18.0126C360.142 17.56 357.323 19.6585 354.711 21.3455C353.053 22.3741 352.349 25.1721 350.607 25.995C347.042 27.6408 342.234 26.9825 338.379 27.6408C334.026 28.3815 329.425 28.4638 325.238 27.0236C323.207 26.3242 321.175 25.2544 319.02 25.1721C317.113 25.0898 317.071 27.3117 315.247 27.8466C310.77 29.2044 302.231 27.7231 297.464 27.7231C283.204 27.682 268.861 25.5424 255.72 25.0075C249.875 24.7606 245.108 23.4851 239.304 25.1721C240.009 25.5012 240.672 25.9127 241.294 26.3653C239.636 32.4138 235.076 37.5982 229.272 39.9847C227.946 40.5196 226.578 40.9722 225.583 41.9597C223.635 43.9347 224.215 47.3087 225.542 49.7363C226.91 52.2051 228.858 54.3859 229.438 57.1015C229.563 57.6776 229.646 58.2536 230.019 58.6651C230.516 59.2411 231.387 59.2411 232.091 59.488C233.501 59.9818 234.247 61.4219 234.91 62.7385C238.102 69.2396 241.709 75.5762 245.647 81.6658C245.937 82.0773 246.268 82.4887 246.724 82.7356C250.455 84.9575 252.901 76.8928 257.544 79.0736C259.326 79.9377 260.321 81.9127 260.114 83.8877C259.699 87.5086 256.425 89.7305 253.15 91.006C249.916 92.2815 246.351 92.981 243.698 95.3263C243.657 95.3675 243.574 95.4498 243.533 95.4909C243.45 95.5732 243.367 95.6967 243.284 95.779C243.035 96.1493 242.828 96.5607 242.745 97.0133C242.413 99.0706 244.486 100.058 246.186 100.758C251.077 102.733 256.259 106.93 255.388 112.114C255.264 112.772 255.057 113.431 254.808 114.048C255.969 114.048 257.088 114.254 258.083 114.83C260.114 115.941 261.192 118.162 263.016 119.603C264.798 121.002 268.239 120.96 268.695 118.697C268.902 117.71 268.405 116.599 268.902 115.735C269.4 114.788 270.643 114.665 271.721 114.624C278.271 114.459 284.82 114.295 291.37 114.13C293.774 114.089 296.593 113.801 297.795 111.744C298.583 110.386 298.417 108.699 298.583 107.135C299.329 100.922 307.744 97.1779 312.885 100.758C314.709 102.033 316.615 104.173 318.771 103.473C320.719 102.856 321.673 100.058 323.745 100.058C326.191 100.058 327.518 104.049 329.922 103.473C330.958 103.226 331.58 102.157 332.202 101.293C335.394 97.0545 342.773 97.0133 346.006 101.21C346.835 102.28 347.374 103.514 348.12 104.667C352.639 111.785 364.163 112.978 370.091 106.971C371.624 105.407 372.868 103.473 374.816 102.445C380.164 99.6878 386.382 105.819 392.351 104.749C394.258 104.42 395.916 103.391 397.575 102.486C404.373 98.8238 412.125 96.8076 419.835 97.2191C423.525 97.3836 427.255 98.1243 430.903 97.5071C434.551 96.8899 438.241 94.38 438.697 90.718C438.987 88.4138 438.324 85.3278 440.438 84.3815C441.433 83.97 442.552 84.258 443.588 84.2169C448.314 84.0523 451.755 77.3866 456.232 78.9502C457.807 79.5262 458.843 80.9663 460.004 82.1596C460.833 83.0236 461.911 83.3528 463.071 83.5997M497.892 62.6974C498.514 60.9281 497.644 59.0354 495.861 58.377C495.53 58.2536 494.949 57.8833 494.327 57.4718C503.447 56.4843 512.94 58.2536 522.143 57.1427C537.895 55.2088 551.948 45.0045 567.825 44.2639C569.4 44.1816 571.556 44.8811 571.224 46.4035C571.1 46.9796 570.602 47.391 570.105 47.7613C569.607 48.1316 569.151 48.502 568.654 48.8723C566.747 50.3535 568.157 53.4807 570.561 52.9046C571.97 52.5754 573.338 51.9171 574.416 50.9707C576.157 49.4895 577.235 47.4322 578.769 45.7863C583.702 40.3962 593.153 39.9847 598.542 44.8811C599.661 45.9098 600.656 47.1853 602.024 47.9259C603.475 48.7488 605.299 48.9957 606.294 50.2712C606.791 50.8884 606.999 51.6702 607.496 52.2874C608.74 53.851 611.103 53.851 613.092 53.8098C621.093 53.6864 630.005 56.4432 633.819 63.438C633.861 63.5203 633.902 63.6438 633.985 63.7261C635.146 66.236 635.229 69.7334 632.783 70.8032C631.746 71.2558 630.544 71.0912 629.425 71.0089C627.435 70.8444 625.446 70.9266 623.497 71.2147C618.979 71.9142 614.626 73.8069 611.061 76.6871C609.942 77.5923 608.864 78.621 608.118 79.8554C605.962 83.4351 606.626 87.92 607.413 92.0346C601.651 93.269 595.433 92.3638 590.251 89.5659C588.427 88.5784 586.272 87.3028 584.365 88.1669C583.37 88.6195 582.707 89.5247 582.085 90.4299C579.142 94.7503 575.95 99.729 570.768 100.552C569.151 100.799 567.41 100.675 566.042 101.539C565.213 102.074 564.633 102.897 564.011 103.679C561.275 107.135 557.42 109.563 554.601 112.978C551.782 116.352 550.207 121.536 552.777 125.075C554.311 127.215 556.923 128.243 559.41 129.107C561.897 129.971 564.509 130.918 566.167 132.975C567.825 134.991 567.949 138.53 565.711 139.888C564.343 140.752 562.602 140.546 561.026 140.957C559.451 141.369 557.959 143.097 558.829 144.455C556.591 144.743 554.311 144.743 552.114 144.496C551.285 144.414 550.456 144.249 549.875 143.632C548.176 141.822 550.87 137.954 548.715 136.719C547.222 135.896 545.647 137.748 545.191 139.394C544.735 141.04 544.362 143.097 542.704 143.591C538.932 144.702 538.434 136.185 534.538 136.514C535.74 135.567 536.071 133.757 535.242 132.44C534.455 131.165 532.672 130.63 531.263 131.247C529.895 131.864 528.651 133.469 527.283 132.852C526.454 132.481 526.205 131.412 526.04 130.506C525.501 127.256 525.003 124.005 524.464 120.714C524.257 119.438 524.008 118.08 523.055 117.216C521.355 115.694 518.702 116.64 516.464 116.311C510.246 115.323 509.251 105.16 503.074 104.008C500.836 103.597 498.639 104.543 496.483 105.325C490.016 107.67 482.969 108.411 476.129 107.506C475.01 107.341 473.766 107.094 473.02 106.23C472.233 105.284 472.274 103.926 471.901 102.733C470.699 99.1941 465.807 98.4123 463.652 95.3263C461.994 92.981 462.284 89.8127 462.657 86.9737C462.823 85.8627 462.947 84.7106 463.071 83.5997M495.198 70.5152C493.996 71.6261 492.255 71.9553 490.638 72.161M495.198 70.5152C493.996 71.6673 492.296 71.9553 490.638 72.161M490.638 72.161C488.565 72.4079 485.705 73.848 483.052 74.136M490.638 72.161C488.524 72.4079 485.705 73.848 483.052 74.136M483.052 74.136C480.772 74.3829 478.699 73.4366 477.249 74.3418M483.052 74.136C480.814 74.3829 478.699 73.4366 477.249 74.3418M477.249 74.3418C475.549 75.4116 476.046 77.7158 475.549 79.7731M475.549 79.7731C475.134 81.5424 475.342 83.6408 474.015 84.8752M475.549 79.7731C475.093 81.5424 475.342 83.6408 474.015 84.8752M474.015 84.8752C473.352 85.4924 472.44 85.7804 471.528 85.9039M474.015 84.8752C473.352 85.4924 472.44 85.7393 471.528 85.9039M471.528 85.9039C469.497 86.233 467.756 84.8341 465.807 84.2169C464.895 83.9288 463.983 83.8054 463.071 83.5997M587.888 743.461C587.806 743.297 587.723 743.132 587.681 742.968M587.888 743.461C587.847 743.297 587.764 743.132 587.681 742.968M587.888 743.461C592.573 752.884 610.647 749.51 611.185 738.812C618.896 746.959 632.99 748.111 641.944 741.322C644.39 743.914 646.836 746.506 649.281 749.057C658.277 744.86 667.314 740.663 676.309 736.467C682.735 737.207 689.118 737.907 695.502 738.606C694.59 743.914 698.114 749.592 703.254 751.238C711.213 764.528 710.716 782.303 702.011 795.1C709.68 799.955 718.136 803.576 726.924 805.798C725.017 802.547 723.857 798.926 725.764 795.882C726.883 794.071 728.873 793.001 730.406 791.52C735.464 786.706 735.92 777.86 742.055 774.527C744.666 773.087 748.231 772.799 749.807 770.248C750.636 768.931 750.76 767.162 751.962 766.174C753.206 765.145 754.988 765.392 756.564 765.516C764.108 766.215 771.86 763.993 777.912 759.467C780.524 757.492 782.887 755.065 785.954 753.789C788.98 752.514 793.084 752.843 794.867 755.599C795.613 756.752 795.862 758.192 796.691 759.303C798.39 761.525 801.748 761.607 804.443 760.825C812.07 758.603 817.666 750.744 817.252 742.844C816.879 735.808 812.526 727.949 816.837 722.353C818.413 720.296 821.066 718.609 820.858 716.058C820.734 714.988 820.112 714.001 819.988 712.931C819.781 710.956 821.356 709.187 823.138 708.24C826.289 706.553 830.268 706.553 833.377 708.281C837.689 701.245 847.389 698.077 855.058 701.163C856.094 701.575 857.213 702.233 857.503 703.303C857.752 704.208 857.379 705.237 857.669 706.142C857.959 707.088 858.871 707.705 859.742 708.199C862.768 709.968 865.753 711.696 868.737 713.466C871.39 711.12 878.064 711.738 879.308 707.911C880.179 705.237 877.567 702.85 876.448 700.422C872.302 692.522 880.552 679.767 872.8 675.282C867.494 672.237 859.742 677.504 854.892 673.76C851.658 671.332 851.783 666.353 849.088 663.35C847.264 661.334 844.445 660.511 842.622 658.494C839.139 654.668 840.756 648.578 843.243 644.052C845.731 639.526 848.964 634.835 848.176 629.733C847.099 622.821 839.347 619.282 832.548 617.431C825.75 615.579 817.915 613.481 814.972 607.144C813.811 604.593 813.604 601.754 813.728 598.956C814.226 586.735 822.019 573.569 834.248 572.087C835.782 571.923 837.481 571.841 838.559 570.771C839.388 569.907 839.637 568.672 839.844 567.52C841.171 560.237 842.456 552.954 843.741 545.672C844.694 540.24 846.808 533.863 850.746 530.653C850.042 529.954 849.627 529.09 849.627 528.061C854.643 527.032 858.623 522.342 858.83 517.24C847.264 516.046 836.528 508.763 831.18 498.518C830.559 502.633 829.978 506.747 829.356 510.862C823.387 511.356 817.418 506.583 816.671 500.658C809.997 503.62 802.743 498.395 797.313 493.498C791.592 488.314 785.623 482.759 783.591 475.353C781.56 467.946 785.415 458.4 793.084 457.331C789.561 456.96 790.639 451.076 793.789 449.472C796.94 447.867 801.043 447.908 803.448 445.316C804.857 443.794 805.313 441.654 805.645 439.638C809.997 411.411 788.898 384.872 764.274 370.06C762.036 368.743 759.59 367.426 756.978 367.673C756.356 367.755 755.735 367.879 755.154 368.085C754.574 369.319 753.703 370.43 752.957 371.582C751.879 373.228 750.967 375.285 751.589 377.137C751.796 377.754 752.17 378.33 752.17 378.947C752.211 380.264 750.677 381.21 749.351 381.004C748.066 380.799 746.988 379.852 746.117 378.824C745.454 378.042 744.832 377.178 743.92 376.684C743.008 376.149 741.723 376.108 741.06 376.89C740.811 377.178 740.645 377.589 740.397 377.877C739.609 378.824 738.241 378.783 737.039 378.7C737.205 377.918 736.168 377.507 735.381 377.384C734.386 377.219 733.391 377.054 732.396 377.219C731.401 377.342 730.406 377.836 729.909 378.7C729.577 379.194 729.494 379.811 729.121 380.264C728.417 381.169 727.09 381.21 725.929 381.128C724.893 381.087 723.857 381.004 722.82 380.963C722.157 380.922 721.494 380.881 720.996 380.47C720.499 380.099 720.292 379.482 719.794 379.153C719.421 378.947 719.007 378.865 718.592 378.824C717.639 378.7 716.436 378.659 715.939 379.482C715.732 379.77 715.69 380.14 715.524 380.428C715.027 381.416 713.618 381.58 712.581 381.21C711.503 380.84 710.633 380.14 709.597 379.729C708.519 379.317 707.275 379.194 706.57 378.289C705.617 377.096 706.197 374.956 704.871 374.215C704.208 373.845 703.296 373.968 702.798 373.392C702.508 373.063 702.467 372.569 702.425 372.117C702.384 370.8 702.301 369.483 702.218 368.167C701.596 367.838 700.601 367.55 700.269 368.208C700.145 368.496 700.228 368.866 700.187 369.195C700.062 369.977 699.233 370.389 698.528 370.677C697.658 371.047 696.746 371.376 695.793 371.335C694.839 371.294 693.844 370.677 693.637 369.772C693.471 369.031 693.844 368.29 693.969 367.55C694.134 366.48 693.43 365.904 692.766 365.204C691.979 364.422 691.233 363.558 690.818 362.53C690.362 361.419 690.238 360.143 689.533 359.197C688.455 357.757 686.465 357.469 684.766 356.934C683.025 356.399 681.201 355 681.491 353.272C680.662 353.272 679.874 352.902 679.045 352.696C678.258 352.49 677.263 352.49 676.682 353.066C676.392 353.395 676.226 353.766 675.895 354.054C675.397 354.465 674.693 354.506 674.071 354.506C672.454 354.506 670.796 354.506 669.221 354.095C667.645 353.683 666.112 352.819 665.283 351.42C664.578 350.227 664.412 348.787 664.246 347.429C664.163 346.853 664.08 346.277 663.749 345.783C662.961 344.672 661.096 344.796 660.018 345.701C658.94 346.606 658.484 348.005 658.028 349.322C657.904 349.651 657.779 349.98 657.531 350.227C657.158 350.597 656.577 350.68 656.038 350.68C653.924 350.762 651.686 350.268 649.737 351.05C649.199 351.297 648.701 351.626 648.162 351.832C645.841 352.819 643.229 351.996 640.866 351.215C637.674 350.145 634.441 349.075 631.083 349.198C630.088 349.24 629.135 348.993 628.14 349.24C628.14 349.61 626.731 350.062 624.824 351.338C623.456 352.243 622.046 354.013 620.015 354.547C617.652 355.165 614.004 353.066 611.849 354.136C610.191 354.918 610.356 358.415 609.237 360.061C608.284 361.46 605.921 361.131 605.755 361.213C605.506 361.337 605.299 361.542 605.05 361.707C603.226 363.024 601.444 364.423 599.744 365.904C598.915 366.644 598.086 367.467 597.796 368.455C597.713 368.619 597.672 368.784 597.672 368.99C597.589 369.854 597.962 370.718 598.376 371.5C599.661 373.968 601.651 376.108 604.014 377.63C604.47 377.96 604.967 378.248 605.34 378.659C605.796 379.153 606.045 379.811 606.253 380.47C606.833 382.239 607.455 383.967 608.035 385.736C608.367 386.724 608.698 387.794 608.491 388.822C608.159 390.386 606.667 391.497 606.335 393.06C606.087 394.171 606.501 395.364 606.211 396.434C605.879 397.833 604.594 398.78 604.138 400.137C603.807 401.248 604.014 402.4 604.097 403.553C604.221 405.61 603.765 407.667 602.853 409.519C602.439 410.301 602.024 410.959 601.775 411.782C601.485 412.769 600.739 413.51 600.283 414.415C599.537 416.02 599.827 418.036 601.029 419.312C601.693 420.011 602.605 420.505 603.268 421.204C604.47 422.439 604.884 424.29 604.719 426.018C604.553 427.747 603.848 429.392 603.061 430.915C602.895 431.162 602.77 431.45 602.853 431.697C602.936 432.067 603.309 432.232 603.641 432.355C605.299 432.972 607.082 433.384 608.864 433.589C610.025 433.713 611.393 433.877 611.932 434.906C612.429 435.811 611.973 437.087 612.595 437.91C613.175 438.609 614.253 438.609 615.041 439.062C615.994 439.638 616.367 440.872 616.45 441.983C616.533 443.094 616.409 444.287 616.74 445.357C617.486 447.62 620.098 449.06 620.43 451.406C620.513 451.858 620.471 452.311 620.678 452.722C621.134 453.669 622.378 453.751 623.414 453.915C626.109 454.327 628.389 456.179 629.632 458.524C630.959 461.034 630.213 463.873 631.332 466.383C632.285 468.605 634.731 469.798 636.265 471.732C636.721 472.308 637.094 472.966 637.218 473.666C637.55 475.517 636.141 477.245 635.768 479.097C635.602 479.879 635.602 480.661 635.394 481.442C634.98 482.8 633.861 483.829 632.907 484.899C632.202 485.722 631.539 486.627 631.166 487.655C630.669 489.054 630.793 490.577 630.917 492.058C631 492.84 631.042 493.58 631.125 494.362C631.125 494.486 631.166 494.65 631.249 494.774C631.332 494.856 631.456 494.897 631.539 494.938C633.197 495.473 634.897 494.239 635.933 492.84C636.97 491.441 637.716 489.795 639.167 488.808C640.452 489.795 640.908 491.482 641.322 493.046C642.068 495.72 642.98 498.353 644.017 500.946C644.431 502.015 645.136 503.332 644.514 504.402C643.934 505.389 643.022 506.13 642.815 507.282C642.732 507.941 642.815 508.599 642.939 509.216C643.063 509.957 643.229 510.738 643.354 511.479C643.395 511.767 643.478 512.096 643.644 512.384C644.183 513.207 645.592 513.043 646.214 513.824C646.628 514.4 646.463 515.265 646.007 515.799C645.509 516.334 644.846 516.664 644.183 516.952C641.861 517.98 639.374 519.009 636.928 518.515C635.519 518.227 634.234 517.445 632.783 517.24C631.705 517.075 630.586 517.281 629.632 517.733C628.803 518.104 628.099 518.721 627.352 519.256C625.114 520.737 622.378 521.478 619.683 521.231C618.606 521.148 617.528 520.86 616.699 520.161C616.118 519.667 615.704 518.927 615.082 518.474C614.087 517.733 612.553 517.816 611.641 518.639C610.771 519.461 610.522 520.778 609.61 521.601C608.242 522.835 606.087 522.383 604.304 521.848C602.522 521.313 600.366 520.86 598.998 522.095C598.418 522.63 598.086 523.37 597.63 524.029C597.008 524.893 596.386 525.016 595.392 524.975C594.272 524.934 593.112 525.181 591.992 525.304C591.122 525.386 590.251 525.51 589.547 526.004C589.174 526.292 588.883 526.662 588.552 526.95C587.764 527.65 586.686 527.896 585.816 528.472C584.904 529.049 584.199 529.913 583.867 530.9C583.702 531.394 583.577 531.929 583.204 532.299C582.582 532.875 581.629 532.711 580.841 533.04C580.054 533.328 579.515 534.11 578.81 534.603C577.898 535.22 576.696 535.22 575.618 535.467C573.131 536.002 571.058 537.607 569.442 539.541C568.322 540.899 567.286 542.462 565.628 543.079C563.762 543.738 561.731 542.956 559.99 542.051C559.12 541.557 558.208 541.063 557.627 540.24C557.047 539.458 556.84 538.265 557.42 537.442C557.959 536.702 558.912 536.414 559.783 536.208C561.98 535.632 564.218 535.097 566.415 534.521C567.659 534.233 568.944 533.863 569.856 532.999C570.478 532.423 570.892 531.641 571.473 531.024C572.219 530.242 573.255 529.789 574.084 529.131C574.54 528.802 574.913 528.349 575.162 527.814C575.494 527.032 575.328 526.251 575.66 525.469C575.908 524.852 576.323 524.276 576.737 523.741C577.691 522.589 578.852 521.642 579.971 520.696C581.919 519.05 584.448 516.993 584.116 514.112C583.785 510.985 580.178 509.298 577.028 508.928C573.877 508.558 570.436 508.887 567.701 507.282C565.835 506.171 564.509 504.32 562.56 503.332C560.985 502.55 559.203 502.427 557.461 502.221C549.046 501.151 541.087 496.996 535.367 490.783C535.864 493.416 532.009 495.638 529.978 493.869C528.029 492.182 528.237 488.437 525.749 487.614C524.34 487.162 522.931 487.985 521.687 488.766C519.448 490.206 517.168 491.729 515.759 493.951C514.806 495.473 513.728 497.572 511.945 497.243C510.785 497.037 510.163 495.802 509.707 494.733C508.422 491.77 507.178 488.849 505.934 485.927C503.613 485.351 501.582 487.573 500.546 489.713C499.468 491.852 498.473 494.403 496.234 495.185C495.074 495.597 493.747 495.432 492.586 495.844C491.053 496.378 490.016 497.736 488.565 498.353C487.322 498.888 485.912 498.847 484.544 498.806C483.135 498.724 481.767 498.683 480.358 498.641C476.668 498.518 472.937 498.353 469.248 498.23C469.87 496.049 470.243 493.58 469.041 491.688C467.839 489.795 464.439 489.384 463.527 491.441C462.74 490.412 461.952 489.342 461.165 488.314C456.812 490.042 456.397 496.625 452.252 498.765C449.848 499.999 446.283 499.794 445.246 502.262C444.915 503.085 444.956 503.99 444.873 504.855C444.459 508.763 440.438 511.849 436.541 511.314C437.66 508.475 434.841 504.937 431.774 505.389C430.074 505.636 428.706 506.83 427.463 507.94C425.224 509.916 423.027 511.891 420.789 513.866C420.333 514.236 419.918 514.606 419.379 514.812C418.011 515.306 416.56 514.318 415.358 513.454C410.467 510.039 404.331 508.434 398.362 508.887C398.155 516.705 397.243 524.522 393.471 531.106C392.476 532.834 391.191 534.48 391.025 536.414C390.569 541.845 398.03 543.861 403.544 543.902C401.761 547.153 399.896 550.774 400.725 554.395C401.554 558.015 406.57 560.608 409.14 557.892C410.84 556.123 411.171 552.584 413.659 552.461C415.234 552.378 416.353 553.983 416.975 555.464C419.794 562.295 418.965 570.524 414.819 576.655C413.659 578.383 412.208 580.111 412.249 582.168C412.291 584.267 413.949 585.995 415.482 587.476C420.001 591.838 424.519 596.199 429.038 600.561C436.665 607.926 447.858 615.826 456.895 610.23C459.05 608.913 460.791 606.938 463.071 605.868C465.393 604.84 468.75 605.251 469.621 607.597C470.201 609.037 469.621 610.641 468.875 611.999C466.595 616.237 462.657 619.529 458.055 621.01C462.408 628.046 466.761 635.041 471.113 642.077C468.087 643.6 464.605 641.336 461.289 640.678C456.853 639.773 451.92 642.159 449.848 646.192C447.775 650.224 448.77 655.573 452.169 658.618C447.236 658.577 442.262 658.577 437.329 658.536C436.002 663.72 439.235 669.686 444.334 671.414C446.117 672.032 448.148 672.278 449.309 673.677C452.293 677.257 446.614 681.372 442.676 683.841C435.836 688.079 432.105 695.567 429.204 703.179C429.535 703.179 429.867 703.262 430.199 703.344C431.94 703.838 432.479 706.183 433.681 707.212C436.126 709.269 438.614 708.569 441.806 709.145C442.718 709.31 443.339 710.133 443.298 711.038C443.215 712.725 443.091 714.412 443.008 716.099C448.148 719.062 453.661 721.037 458.097 723.3C467.797 728.237 475.342 732.64 484.047 738.771C487.156 740.951 488.897 745.601 492.379 748.152C494.535 749.674 499.799 751.197 502.038 752.925C503.033 751.773 507.758 755.97 509.458 755.887C511.987 755.805 511.323 751.608 510.494 749.51C515.386 751.732 521.272 750.662 526.537 751.649C538.103 753.789 549.461 755.558 560.488 751.567C563.472 750.497 566.498 749.181 569.69 749.098C573.628 749.016 577.442 750.785 581.38 750.58C585.153 750.374 589.174 746.753 587.888 743.461ZM587.888 743.461C587.806 743.297 587.764 743.132 587.681 742.968M264.011 193.131L263.928 194.242C263.513 195.476 263.513 199.961 262.394 201.772C261.441 203.335 259.907 204.446 259.824 205.269C259.617 207.614 257.502 208.684 255.388 209.713C252.901 210.947 249.916 211.071 247.595 212.593C244.486 214.568 243.159 218.436 240.589 221.069C238.724 223.003 236.237 224.279 234.371 226.212C232.506 228.146 231.345 231.232 232.796 233.495C235.366 232.837 237.688 235.676 237.563 238.309C237.439 241.231 235.325 243.658 233.542 245.921C233.376 246.127 233.252 246.292 233.086 246.497C232.423 247.32 231.635 248.02 230.682 248.473C225.003 251.024 222.806 242.013 217.997 242.835C215.22 243.329 214.225 246.786 214.349 249.583C214.473 252.381 215.054 255.509 213.354 257.73C211.903 259.664 209.25 260.199 206.846 260.611C202.949 261.269 199.053 261.927 195.115 262.544C193.664 262.791 192.13 263.038 190.679 262.75C187.363 262.051 184.71 258.636 181.352 259.129C178.782 259.5 177.041 262.051 174.305 262.133C173.186 262.174 172.108 261.516 171.735 260.487C171.03 258.553 173.642 257.936 172.895 256.043C172.647 255.385 172.108 254.891 171.445 254.603C162.449 250.818 151.713 251.558 143.256 256.414C143.588 254.027 143.919 251.435 142.22 249.419C141.349 248.39 139.981 247.896 138.738 248.349C136.831 249.049 136.706 251.147 135.877 252.711C135.048 254.233 133.514 255.262 132.022 256.126C125.431 259.952 116.394 262.051 110.59 256.907C108.02 254.644 106.611 251.27 106.818 247.855C107.233 240.614 114.155 235.923 119.213 231.191C120.125 230.327 120.498 229.01 120.042 227.858C118.84 224.69 113.658 227.241 112.124 224.649C111.254 223.168 112.456 221.316 112.332 219.588C112.124 216.749 108.311 215.556 105.616 216.42C102.88 217.325 100.807 219.464 98.2373 220.699C94.4235 222.592 89.9051 222.427 85.5939 222.509C78.298 222.674 71.0022 223.702 63.955 225.595C63.0845 225.842 62.1725 226.089 61.4678 226.706C60.0998 227.899 60.0584 229.957 59.5609 231.685C57.6541 238.392 49.4462 240.12 43.3111 243.864C40.4922 245.592 36.8029 243.905 36.264 240.655C35.7665 237.692 35.6836 234.606 36.0152 231.603C36.4712 227.447 36.7199 221.481 38.461 217.695C39.6217 215.185 42.2333 213.087 45.0107 213.375C43.0209 211.441 45.0521 208.19 47.0834 206.298C51.1873 202.471 55.457 198.768 60.4315 196.093C62.5871 194.941 64.9499 193.954 66.4423 192.02C67.9761 190.127 68.1833 186.918 66.1935 185.519C59.3537 191.979 50.2753 196.011 40.9068 196.834C39.7875 195.312 40.1192 193.09 41.1969 191.526C42.2747 189.963 43.8914 188.893 45.5081 187.864C50.524 184.655 55.5399 181.445 60.5558 178.236C61.758 177.454 62.2969 175.932 61.7165 174.656C60.7631 172.517 58.0686 173.298 56.369 174.45C54.4207 175.767 52.6382 177.413 50.3997 178.112C48.1612 178.812 45.218 178.154 44.3889 175.973C43.5184 173.71 45.1351 170.624 43.3111 168.937C41.57 167.332 38.0465 168.731 36.7614 166.756C37.9636 162.971 43.9743 164.082 47.0005 161.489C50.3997 158.568 48.5343 152.478 51.5189 149.146C52.4724 148.076 53.8403 147.459 55.0425 146.636C56.2446 145.854 57.4054 144.743 57.6126 143.344C57.737 142.439 57.3224 141.534 56.5763 140.999C55.0839 139.929 54.3792 141.369 53.26 141.41C51.9749 141.492 51.2702 139.764 49.9851 139.476C47.7881 138.941 46.4616 142.727 44.2231 142.398C43.4769 142.274 42.8551 141.698 42.1089 141.534C40.6995 141.204 39.4559 142.48 38.8341 143.755C38.2123 145.031 37.9221 146.512 36.8858 147.541C35.2276 149.187 32.16 149.187 31.1237 151.285C30.1703 153.301 31.5382 156.593 29.507 157.498C25.03 156.593 23.7449 150.956 23.4133 146.389C27.0612 144.29 29.2997 140.011 28.9266 135.855C28.8437 134.744 28.595 133.633 28.8437 132.564C29.2583 130.918 30.7506 129.807 32.16 128.819C35.3105 126.721 38.4196 124.581 41.5286 122.401C37.7977 120.796 33.7353 120.014 29.6728 120.138C28.3878 120.179 26.9369 120.384 26.1078 121.372C25.4031 122.236 25.1129 123.635 24.0351 123.758C23.4548 123.8 22.9573 123.429 22.5013 123.182C21.2992 122.524 20.3043 121.578 19.6825 120.343C18.356 117.751 19.8068 117.298 20.5115 116.27C22.5842 113.266 16.9051 109.234 18.7705 106.107C18.273 103.144 15.7029 100.675 12.7182 100.223C9.73358 99.7701 6.54165 101.416 5.17367 104.09C3.84715 104.296 2.85227 102.733 3.01808 101.416C3.1839 100.099 4.09588 99.0295 4.80059 97.9185C7.61944 93.4748 7.78526 87.5086 5.25658 82.9413C5.5053 80.2257 8.73869 79.2793 11.2674 78.2095C13.796 77.1397 16.5734 76.646 18.8534 75.1647C19.3508 74.8355 19.8483 74.4241 19.9726 73.8892C20.097 73.272 19.7654 72.6959 19.5167 72.1199C18.5632 70.186 18.1487 67.8818 18.8949 65.8245C19.641 63.8083 21.7137 62.1625 23.9108 62.4094C26.0663 62.6563 27.9732 64.6313 30.1288 64.261C32.3673 63.8906 33.4866 61.2161 35.5592 60.2698C38.005 59.1588 41.6529 60.4755 43.1038 58.2536C44.6376 55.9494 41.7358 52.6577 42.9795 50.189C44.0987 47.8848 47.4565 48.2139 49.8193 47.1441C50.7313 46.7327 51.5189 46.0332 52.4309 45.6629C54.5036 44.7577 56.9908 45.4571 58.8562 46.7327C60.7216 47.9671 62.214 49.7363 63.9136 51.2176C64.5768 51.8348 65.3645 52.4108 66.235 52.5754C68.432 52.9869 70.1731 50.9296 72.2043 49.9832C76.0595 48.1728 80.7023 50.5181 84.8477 49.4895C89.7392 48.2139 92.9726 42.4123 98.03 42.7415C98.4031 42.7826 98.7347 42.8238 99.0663 42.9884C101.056 43.8936 99.4809 46.6092 101.429 47.5967C101.927 47.8436 102.507 47.8848 103.046 47.7202C107.067 46.6504 105.616 39.6967 111.751 40.9311C113.741 41.3425 115.026 43.1941 115.067 45.2103C115.109 46.8973 117.72 49.6129 119.047 50.5593C119.462 50.8473 120.042 50.6004 120.125 50.1067C120.664 46.5681 121.327 41.1779 123.731 38.5446C124.063 38.2154 123.856 37.6394 123.4 37.5982L117.347 37.1045C116.933 37.0633 114.985 36.693 114.321 36.3227C113.326 35.7466 113.036 35.0883 111.337 32.7841C109.554 30.3565 109.844 26.7356 110.425 24.6372C111.544 20.646 112.829 20.3991 116.353 18.2184C123.483 13.7334 130.447 6.98544 137.494 2.37707C138.116 1.96561 136.499 -1.40838 137.121 -1.81984C137.535 -2.10787 144.79 -1.81984 145.204 -2.10787C147.153 -3.3834 150.469 -2.88965 151.588 -3.75372C153.205 -4.90581 153.039 -5.64644 154.904 -7.49802C155.816 -8.40324 157.35 -8.03292 157.723 -6.79854C158.013 -5.81103 157.889 -5.81103 157.433 -4.86466C156.604 -3.13652 156.853 -1.65526 156.148 0.114026C155.609 1.43071 153.827 3.03541 154.946 3.98177C155.526 4.47552 156.355 4.35209 156.894 3.85833C160.376 0.484343 164.356 -0.750043 168.501 -3.25996C169.04 -3.58913 173.02 -4.94696 173.6 -5.19383C180.399 -7.95063 181.891 -2.47818 183.839 3.28228C184.088 3.98177 185 4.10521 185.414 3.48802C187.031 1.10154 190.14 -0.215142 193.125 -0.13285C196.773 -0.00941129 200.13 1.84217 202.949 4.14636C206.017 6.65627 208.587 9.70109 210.577 13.1162C211.945 15.5027 213.064 18.1361 215.095 20.0288C221.272 25.7893 232.05 21.7569 239.511 25.2544C240.216 25.5835 240.879 25.9538 241.501 26.4476C239.885 32.4961 235.283 37.6805 229.48 40.067C228.195 40.6019 226.785 41.0134 225.79 42.042C223.842 44.0582 224.422 47.391 225.749 49.8186C227.075 52.2463 229.065 54.4682 229.646 57.1838C229.77 57.7187 229.853 58.3359 230.226 58.7474C230.723 59.2823 231.594 59.2823 232.299 59.5703C233.708 60.064 234.454 61.5042 235.117 62.8208C238.309 69.3219 241.916 75.6585 245.854 81.7481C246.144 82.1596 246.476 82.571 246.932 82.8179C250.663 85.0809 253.067 77.0163 257.751 79.1559C259.575 80.0199 260.57 81.995 260.321 83.97C259.907 87.5909 256.632 89.8127 253.357 91.0883C250.124 92.3638 246.559 93.0633 243.906 95.4086C243.823 95.4498 243.781 95.5321 243.74 95.5732C243.657 95.6555 243.574 95.7789 243.491 95.8612C243.201 96.2316 242.994 96.643 242.952 97.0956C242.621 99.1529 244.693 100.14 246.393 100.84C251.284 102.856 256.466 107.012 255.596 112.196C255.471 112.855 255.264 113.513 255.015 114.13C254.518 115.323 253.896 116.517 253.523 117.751C251.657 123.676 255.305 131.165 251.077 135.732C248.88 138.118 245.315 138.612 242.165 139.476C239.014 140.34 235.532 142.233 235.2 145.484C235.035 147.171 235.781 148.816 235.905 150.462C236.237 154.165 233.832 157.457 232.091 160.749C230.35 164.041 229.438 168.567 232.174 171.076C235.573 174.245 241.087 171.488 245.771 171.735C250.787 172.023 255.181 176.549 255.222 181.528C255.222 182.556 255.098 183.626 255.305 184.614C256.01 187.864 259.782 189.181 262.56 190.991C263.14 191.567 263.886 192.226 264.011 193.131ZM781.104 68.9928C779.943 71.7084 774.886 71.0089 773.974 73.848C773.601 75.0413 774.223 76.3579 774.057 77.5923C773.767 79.6496 771.446 80.7606 769.414 81.1309C767.383 81.5424 765.103 81.6247 763.569 83.0648C760.294 86.1096 763.196 91.9112 761.165 95.8612C759.465 99.1941 754.905 100.017 752.543 102.98C750.055 106.107 750.719 110.756 748.853 114.336C746.822 118.204 742.096 120.014 737.702 120.014C735.754 120.014 733.598 119.726 731.94 120.755C727.422 123.511 731.277 130.918 728.748 135.526C727.795 137.254 725.929 138.571 725.639 140.546C725.349 142.603 726.924 144.866 725.805 146.677C725.017 147.952 723.235 148.24 722.281 149.392C719.463 152.725 726.095 158.28 723.359 161.654C721.991 163.341 719.297 162.971 717.307 162.107C715.317 161.243 713.245 159.967 711.13 160.42C709.68 160.708 708.519 161.736 707.441 162.683C705.493 164.452 703.379 167.373 705.12 169.348C706.488 170.912 708.892 170.254 710.84 169.184C711.296 168.937 711.835 169.225 711.918 169.719C712.332 172.969 712.54 176.22 712.54 179.47C712.54 180.088 712.54 180.787 712.208 181.322C711.586 182.392 710.218 182.556 708.975 182.597C708.892 182.597 708.767 182.597 708.685 182.597C701.555 182.597 694.425 182.639 687.294 182.639C686.383 182.639 685.388 182.639 684.641 182.104C683.729 181.445 683.439 180.252 683.315 179.141C682.983 175.397 684.02 171.406 681.615 168.155C680.413 166.509 678.216 165.851 676.351 166.674C673.449 167.949 675.066 171.282 673.408 172.969C671.874 174.615 669.013 173.175 667.894 171.241C666.775 169.307 666.443 166.88 664.827 165.316C664.205 164.699 663.459 164.246 662.878 163.588C662.754 163.464 662.63 163.3 662.505 163.135C661.676 161.86 661.883 160.132 661.096 158.815C659.52 156.058 654.38 155.935 654.173 152.766C654.132 151.902 654.463 151.038 654.173 150.257C653.883 149.475 653.012 149.063 652.225 148.775C648.494 147.376 644.514 146.636 640.535 146.636C639.415 146.636 638.172 146.677 637.26 145.977C636.389 145.36 636.016 144.249 635.768 143.221C634.897 139.764 634.69 136.061 635.933 132.687C637.177 129.354 639.996 126.433 643.519 125.775C644.804 125.528 646.172 125.569 647.416 125.075C650.359 123.923 651.313 119.849 649.862 117.052C648.411 114.254 645.219 112.69 642.11 112.279C639.623 111.949 636.597 111.991 635.312 109.851C634.69 108.822 634.648 107.547 634.69 106.312C634.731 102.856 634.731 99.3587 634.773 95.9024C634.773 94.092 634.773 92.1992 633.778 90.6768C632.368 88.5372 629.549 87.8789 627.352 86.5622C623.953 84.5049 621.963 80.3903 622.461 76.4814C622.668 74.7944 623.248 72.9428 623.539 71.2147C625.487 70.9266 627.477 70.8444 629.467 71.0089C630.586 71.0912 631.788 71.2558 632.824 70.8032C635.27 69.7334 635.187 66.236 634.026 63.8084C637.633 62.4094 641.613 61.6276 644.597 63.7672C646.421 65.0839 648.825 67.3881 650.359 65.7422C651.437 64.549 650.401 62.6974 650.028 61.1339C649.074 56.9781 653.593 53.5218 657.779 52.7812C662.008 52.0405 666.485 52.7812 670.464 51.2588C671.625 50.8062 672.744 50.189 673.988 50.2301C677.014 50.3535 678.589 54.2213 681.532 54.8796C682.61 55.1265 683.729 54.8796 684.849 54.9208C686.756 54.9619 688.538 55.826 690.279 56.6901C698.072 60.4755 705.866 64.3021 713.659 68.0876C715.317 68.9105 717.017 69.7334 718.799 70.2272C720.54 70.7209 722.364 70.9266 724.147 71.0501C738.2 71.9553 752.501 68.0464 764.067 60.1052C765.393 59.2 766.72 58.2125 768.254 57.6776C770.616 56.8546 773.394 57.225 775.467 58.6651C774.555 62.2448 780.814 64.5078 781.312 67.5938C781.353 68.0053 781.311 68.499 781.104 68.9928ZM883.951 117.257C883.288 118.739 881.588 119.356 880.137 120.055C880.013 120.096 879.93 120.179 879.805 120.22C874.416 123.141 871.39 129.807 872.8 135.773C873.049 136.843 873.422 137.954 873.173 138.982C872.966 139.764 872.468 140.381 871.971 140.999C868.779 144.949 865.255 149.063 860.405 150.709C857.628 151.655 853.938 152.273 853.192 155.112C852.861 156.346 853.192 157.869 852.363 158.856C851.037 160.378 848.591 159.144 846.56 159.103C840.715 159.062 840.549 168.649 835.492 171.611C834.165 172.393 832.548 172.64 831.222 173.463C827.988 175.438 827.905 180.828 831.015 182.927C825.708 184.737 821.978 190.251 822.226 195.805C822.309 197.451 822.682 199.138 822.434 200.743C822.185 202.389 821.273 203.829 820.485 205.269C814.765 215.967 815.345 229.71 821.936 239.914C824.299 239.009 827.242 240.161 828.403 242.383C821.687 244.029 823.387 254.932 818.081 259.335C815.345 261.598 811.448 261.557 807.925 261.392C805.769 261.31 803.614 261.187 801.499 260.775C798.763 260.24 796.152 259.253 793.582 258.224C787.198 255.714 780.773 253.245 774.389 250.736C773.311 250.324 772.233 249.871 771.197 249.337C769.87 248.637 768.627 247.814 767.673 246.621C765.476 243.864 765.559 239.75 767.383 236.787C769.248 233.824 772.606 231.973 776.088 231.438C779.695 230.903 784.338 231.068 785.664 227.735C787.198 223.826 782.265 220.74 778.493 218.971C773.435 216.584 768.792 213.251 764.937 209.26C761.041 205.228 757.476 200.29 752.045 198.85C750.097 198.356 748.024 198.356 746.242 197.451C744.459 196.546 743.133 194.242 744.21 192.596C739.029 193.625 733.101 194.489 728.955 191.238C727.67 190.209 726.676 188.893 725.308 187.988C722.654 186.177 719.172 186.259 715.939 185.848C713.327 185.519 710.509 184.531 709.058 182.556C710.301 182.515 711.711 182.351 712.291 181.281C712.623 180.746 712.623 180.046 712.623 179.429C712.623 176.179 712.415 172.928 712.001 169.678C711.918 169.184 711.379 168.896 710.923 169.143C708.975 170.212 706.57 170.871 705.203 169.307C703.461 167.332 705.576 164.37 707.524 162.642C708.602 161.654 709.804 160.667 711.213 160.378C713.369 159.967 715.4 161.201 717.39 162.065C719.38 162.93 722.074 163.3 723.442 161.613C726.178 158.198 719.545 152.684 722.364 149.351C723.318 148.24 725.1 147.911 725.888 146.636C726.966 144.866 725.432 142.562 725.722 140.505C726.012 138.53 727.878 137.254 728.831 135.485C731.36 130.877 727.505 123.47 732.023 120.714C733.681 119.685 735.837 119.973 737.785 119.973C742.179 119.973 746.905 118.162 748.936 114.295C750.802 110.756 750.138 106.107 752.626 102.938C754.947 100.017 759.507 99.1529 761.248 95.8201C763.279 91.8289 760.336 86.0273 763.652 83.0236C765.186 81.6247 767.466 81.5012 769.497 81.0898C771.528 80.6783 773.85 79.6085 774.14 77.5512C774.306 76.3168 773.684 75.0001 774.057 73.8069C774.928 70.9678 779.985 71.6673 781.187 68.9516C781.394 68.4579 781.436 68.0053 781.394 67.5115C785.167 67.6761 788.607 68.8282 790.017 72.0787C790.514 73.2308 790.721 74.5886 791.675 75.4527C792.919 76.5637 795.074 76.2345 796.193 74.959C797.313 73.7246 797.561 71.873 797.23 70.2683C803.448 68.8282 810.453 71.7907 813.77 77.222C817.045 82.6533 816.423 90.1831 812.236 94.9972C811.241 96.1081 810.08 97.1368 809.624 98.5769C808.795 101.087 810.661 103.802 813.024 104.913C815.428 106.024 818.205 105.86 820.817 105.654C821.19 102.28 821.604 98.9061 821.978 95.5732C823.014 94.1742 825.294 95.8201 825.543 97.5482C825.791 99.2764 825.335 101.21 826.413 102.568C828.196 104.79 831.844 103.021 834.662 103.597C837.44 104.173 839.305 107.094 842.083 107.506C843.534 107.752 845.026 107.259 846.477 107.423C848.508 107.629 850.166 109.028 851.824 110.139C858.042 114.295 866.126 115.611 873.339 113.554C875.66 112.896 878.023 111.908 880.386 112.279C882.666 112.608 884.946 115.077 883.951 117.257ZM1036.79 219.218C1033.02 231.438 1029.29 243.658 1025.52 255.879C1024.6 258.883 1023.65 261.886 1022.03 264.561C1018.05 271.062 1010.51 274.518 1005.41 280.196C1000.31 285.874 999.192 296.778 1006.32 299.576C1008.19 300.317 1010.43 300.399 1011.84 301.798C1013.95 303.938 1012.75 307.641 1010.63 309.78C1008.56 311.92 1005.74 313.401 1004.08 315.87C999.358 323.112 1007.4 332.205 1007.11 340.846C1006.7 353.231 989.285 361.583 992.021 373.68C992.643 376.437 994.259 378.783 995.544 381.292C1002.18 394.212 997.658 411.041 986.963 420.587C983.481 423.673 979.377 426.018 974.817 427.212C973.035 420.793 961.884 424.949 957.158 420.258C955.956 419.065 955.293 417.337 953.883 416.349C950.981 414.374 946.919 416.843 945.219 419.929C943.52 423.015 943.022 426.718 940.867 429.516C938.711 432.314 933.695 433.425 931.954 430.38C931.208 432.725 930.42 435.071 929.674 437.416C931.913 439.309 934.939 440.173 937.841 439.802C941.654 444.123 939.54 450.747 937.675 456.179C935.81 461.61 935.063 468.934 940.038 471.814C935.146 476.505 933.322 483.5 929.094 488.808C924.866 494.115 915.621 496.831 911.808 491.276C909.818 499.423 907.828 507.57 905.838 515.758C900.947 516.993 895.807 517.198 890.832 516.375C890.832 518.885 890.832 521.354 890.791 523.864C883.785 528.102 881.547 538.512 886.231 545.26C884.863 549.745 877.567 547.194 875.536 542.997C873.463 538.759 872.717 533.122 868.323 531.353C865.006 529.995 861.317 531.641 857.794 532.299C855.306 532.752 852.197 532.176 850.539 530.53C849.876 529.83 849.461 529.007 849.42 527.938C854.436 526.909 858.457 522.177 858.623 517.116C847.057 515.923 836.321 508.64 830.973 498.395C830.351 502.509 829.729 506.624 829.149 510.738C823.138 511.232 817.21 506.459 816.464 500.534C809.79 503.497 802.494 498.271 797.105 493.375C791.385 488.231 785.415 482.636 783.384 475.229C781.353 467.823 785.25 458.277 792.877 457.207C789.354 456.837 790.39 450.994 793.582 449.348C796.732 447.744 800.836 447.785 803.24 445.193C804.65 443.67 805.106 441.572 805.438 439.514C809.749 411.247 788.69 384.708 764.067 369.936C761.828 368.578 759.382 367.262 756.771 367.55C756.149 367.632 755.569 367.755 754.947 367.961C753.123 368.537 751.34 369.442 749.475 369.113C747.361 368.784 745.786 366.974 744.625 365.163C737.329 354.054 737.702 338.5 745.495 327.72C748.522 328.42 750.967 331.135 751.258 334.221C756.771 337.389 762.16 328.996 761.082 322.783C760.004 316.569 756.273 310.233 758.595 304.349C768.212 305.542 777.456 295.667 775.549 286.245C774.928 283.241 773.435 280.484 772.233 277.645C769.58 271.226 768.627 264.149 769.414 257.237C769.704 254.562 770.285 251.929 771.072 249.378C772.109 249.913 773.187 250.324 774.264 250.777C780.648 253.287 787.074 255.755 793.457 258.265C796.028 259.294 798.639 260.281 801.375 260.816C803.489 261.228 805.645 261.31 807.8 261.434C811.324 261.598 815.221 261.639 817.957 259.376C823.263 254.974 821.605 244.111 828.279 242.424C827.118 240.202 824.175 239.091 821.812 239.955C815.221 229.751 814.64 216.008 820.361 205.31C821.149 203.829 822.06 202.389 822.309 200.784C822.599 199.138 822.185 197.492 822.102 195.847C821.853 190.292 825.584 184.778 830.89 182.968C827.74 180.869 827.864 175.479 831.097 173.504C832.424 172.681 834.041 172.434 835.367 171.653C840.424 168.69 840.59 159.103 846.435 159.144C848.466 159.144 850.912 160.42 852.239 158.897C853.068 157.91 852.736 156.428 853.068 155.153C853.814 152.314 857.503 151.738 860.281 150.75C865.131 149.104 868.613 144.99 871.846 141.04C872.344 140.423 872.841 139.805 873.049 139.024C873.339 137.954 872.966 136.884 872.675 135.814C871.266 129.889 874.334 123.223 879.681 120.261C884.78 125.61 890.169 130.877 896.884 133.963C904.305 137.419 913.839 137.666 920.098 132.44C921.549 131.247 922.917 129.683 924.783 129.354C928.306 128.696 930.876 132.358 932.991 135.279C940.66 145.895 954.878 151.326 967.729 148.611C970.631 147.993 973.408 147.006 976.351 146.471C979.626 145.854 982.942 145.854 986.259 145.813C992.601 145.772 998.943 145.73 1005.33 145.689C1012.21 145.648 1019.55 145.73 1025.93 148.035C1028.38 148.899 1030.66 150.092 1032.73 151.738C1040.19 157.622 1041.52 171.447 1032.89 175.479C1044.92 185.519 1041.39 204.323 1036.79 219.218ZM1303.09 192.349C1301.14 193.789 1298.45 193.254 1296.04 193.583C1289 194.612 1286.34 205.598 1292.15 209.672C1293.64 210.741 1295.42 211.317 1296.79 212.552C1300.19 215.72 1299.07 221.193 1299.07 225.801C1299.07 231.027 1300.89 236.458 1299.19 241.395C1298.07 244.646 1295.59 247.197 1293.14 249.583C1272.87 269.416 1249.32 285.874 1223.75 298.177C1219.06 300.44 1214.25 302.58 1210.36 305.995C1201.24 313.977 1198.46 327.761 1188.43 334.592C1184.41 337.348 1179.56 338.665 1174.87 339.982C1142.25 349.116 1110.25 360.349 1079.07 373.557C1075.88 374.915 1072.69 376.273 1069.91 378.33C1065.89 381.251 1062.95 385.407 1060.05 389.481C1055.28 396.229 1050.47 402.976 1045.7 409.724C1050.39 411.247 1054.78 413.716 1058.55 416.884C1060.38 418.406 1062.2 420.669 1061.41 422.932C1061.04 424.002 1060.17 424.784 1059.26 425.442C1050.35 431.943 1036.42 431.162 1030.08 440.173C1028.71 442.107 1027.67 444.493 1025.85 445.81C1025.43 446.098 1024.98 446.345 1024.44 446.509C1020.87 447.661 1017.6 444.411 1014.9 441.819C1012.13 439.144 1009.02 436.84 1005.91 434.577C1004.83 433.795 1003.79 433.013 1002.72 432.231C997.451 428.405 992.228 424.537 987.005 420.711C997.7 411.165 1002.22 394.377 995.586 381.416C994.301 378.906 992.684 376.519 992.062 373.804C989.326 361.707 1006.7 353.354 1007.15 340.969C1007.44 332.328 999.4 323.235 1004.13 315.993C1005.74 313.484 1008.56 312.043 1010.67 309.904C1012.75 307.764 1013.95 304.061 1011.88 301.921C1010.47 300.481 1008.23 300.44 1006.36 299.7C999.234 296.902 1000.35 285.998 1005.45 280.32C1010.55 274.641 1018.05 271.185 1022.07 264.684C1023.73 262.01 1024.64 258.965 1025.56 256.002C1029.33 243.782 1033.06 231.561 1036.83 219.341C1041.39 204.446 1044.96 185.642 1032.98 175.561C1041.6 171.529 1040.31 157.704 1032.81 151.82C1030.74 150.174 1028.46 148.981 1026.01 148.117C1027.8 144.331 1028.83 140.381 1028.21 136.308C1027.71 133.099 1026.22 129.56 1027.92 126.803C1030.08 123.306 1035.26 123.882 1039.24 124.993C1050.55 128.161 1061.7 131.864 1072.65 136.143C1075.96 137.419 1079.28 138.777 1082.8 139.394C1086.24 139.97 1089.81 139.805 1093.21 140.711C1105.36 143.961 1109.79 158.691 1110.79 171.159C1110.91 172.969 1111.08 174.862 1112.19 176.302C1115.51 180.499 1121.94 176.343 1126.41 173.422C1137.65 166.098 1154.39 169.019 1162.44 179.717C1163.51 181.157 1164.51 182.762 1166.04 183.75C1171.6 187.288 1177.73 180.581 1183.45 177.331C1199 168.484 1217.61 186.383 1235.35 183.873C1236.93 183.667 1238.67 183.091 1239.25 181.651C1239.91 180.005 1238.67 178.113 1239 176.343C1239.33 174.45 1241.28 173.34 1242.98 172.475C1252.89 167.538 1263.96 162.436 1274.69 165.275C1280.25 166.756 1285.39 170.295 1291.15 170.007C1289.33 174.533 1294.67 178.401 1298.9 180.91C1303.05 183.297 1307.03 189.428 1303.09 192.349ZM1005.53 697.007C999.399 703.879 991.523 709.187 982.818 712.314C980.87 713.013 978.756 713.672 977.47 715.276C975.937 717.21 975.937 719.926 974.776 722.106C972.745 725.933 967.895 727.044 963.708 728.402C953.013 731.817 943.727 739.429 938.338 749.222C937.426 750.868 936.514 752.678 934.773 753.378C933.074 754.077 931.125 753.46 929.343 753.912C921.052 755.929 928.762 771.893 921.384 776.09C920.016 776.872 918.357 776.996 916.865 777.572C912.015 779.423 910.067 785.266 909.942 790.409C909.818 795.552 910.854 800.86 909.362 805.798C902.564 804.152 902.522 818.923 897.258 821.022C896.594 821.31 895.807 821.351 894.936 821.145C892.822 820.652 891.62 818.512 890.045 817.072C887.889 815.097 884.946 814.274 882.624 812.587C874.582 806.662 875.453 791.808 865.918 788.804C869.815 784.155 873.836 779.259 875.328 773.416C876.862 767.532 875.163 760.372 869.815 757.451C867.618 756.258 864.924 755.723 863.39 753.748C861.773 751.608 862.188 748.605 863.017 746.054C864.716 740.869 867.825 736.22 869.566 731.035C871.307 725.851 871.39 719.555 867.618 715.564C867.701 714.659 868.116 714.001 868.696 713.507C871.349 711.162 878.023 711.779 879.267 707.952C880.137 705.278 877.526 702.891 876.241 700.422C872.137 692.522 880.344 679.767 872.593 675.282C867.286 672.196 859.535 677.504 854.685 673.76C851.493 671.291 851.576 666.312 848.881 663.35C847.099 661.334 844.238 660.469 842.414 658.494C838.932 654.668 840.549 648.578 843.036 644.052C845.523 639.526 848.757 634.794 847.969 629.733C846.891 622.821 839.139 619.282 832.341 617.431C825.543 615.579 817.708 613.481 814.765 607.144C813.604 604.593 813.397 601.754 813.521 598.956C814.018 586.735 821.77 573.528 834.041 572.087C835.574 571.882 837.274 571.841 838.352 570.771C839.181 569.948 839.43 568.713 839.637 567.52C840.922 560.237 842.207 552.954 843.533 545.672C844.487 540.24 846.601 533.863 850.539 530.653C852.156 532.299 855.265 532.875 857.794 532.422C861.317 531.764 865.006 530.118 868.323 531.476C872.675 533.287 873.463 538.882 875.536 543.12C877.608 547.359 884.904 549.868 886.231 545.384C881.588 538.677 883.785 528.267 890.791 523.988C890.791 521.478 890.791 519.009 890.832 516.499C895.807 517.322 900.947 517.116 905.838 515.882C907.828 507.735 909.818 499.547 911.808 491.4C915.621 496.954 924.907 494.239 929.094 488.931C933.322 483.664 935.146 476.628 940.038 471.938C935.063 469.016 935.81 461.692 937.675 456.302C939.54 450.871 941.654 444.246 937.841 439.926C934.939 440.337 931.913 439.432 929.674 437.539C930.42 435.194 931.208 432.849 931.954 430.503C933.695 433.548 938.711 432.437 940.867 429.639C943.022 426.841 943.52 423.138 945.219 420.052C946.919 416.966 950.981 414.497 953.883 416.472C955.293 417.419 955.956 419.147 957.158 420.381C961.884 425.072 973.076 420.916 974.817 427.335C979.419 426.142 983.523 423.797 986.963 420.711C992.186 424.537 997.451 428.405 1002.67 432.231C1003.75 433.013 1004.79 433.795 1005.87 434.577C1008.98 436.84 1012.08 439.144 1014.86 441.819C1017.56 444.411 1020.83 447.661 1024.4 446.509C1024.89 446.345 1025.35 446.098 1025.81 445.81C1018.05 467.494 1004.58 486.709 991.233 505.595C988.539 509.381 985.72 513.331 981.616 515.553C979.709 516.581 977.512 517.24 976.02 518.762C971.377 523.494 976.061 532.587 971.708 537.566C970.257 539.212 968.06 540.035 966.195 541.269C960.226 545.342 958.816 553.242 956.288 559.949C951.396 572.951 940.618 583.979 939.54 597.804C938.96 605.334 941.323 612.74 943.686 619.899C946.463 628.375 949.24 636.852 952.018 645.328C955.79 656.849 960.143 669.192 970.092 676.27C981.491 684.334 999.068 684.746 1005.53 697.007ZM905.299 856.202C900.905 859.823 895.143 861.757 889.671 863.567C887.226 864.349 884.738 865.172 882.168 864.884C876.696 864.267 871.473 858.753 866.623 861.304C864.509 862.415 863.431 864.76 861.98 866.653C860.53 868.546 858.042 870.192 855.887 869.204C853.855 868.258 853.192 865.378 851.078 864.719C848.964 864.061 846.974 865.871 844.86 866.53C842 867.435 838.849 866.036 835.865 866.571C833.294 867.065 831.222 868.916 829.273 870.685C825.874 873.813 822.351 877.145 820.734 881.466C820.278 882.7 819.946 884.058 819.076 885.087C817.003 887.555 812.858 886.856 810.246 888.79C808.671 889.942 807.759 891.999 805.894 892.575C804.608 892.946 803.572 892.616 802.619 891.876C800.67 890.394 799.095 887.308 796.94 885.621C793.333 882.823 788.11 884.428 783.633 883.564C776.586 882.206 772.399 875.17 769.248 868.793C763.279 856.819 757.476 842.871 762.699 830.568C763.818 827.976 765.227 824.602 763.155 822.668C762.243 821.845 760.999 821.639 759.756 821.516C753.372 820.94 746.615 822.421 740.687 819.952C735.712 817.895 732.272 813.369 729.038 809.09C728.292 808.102 727.546 807.032 726.883 805.921C724.976 802.671 723.815 799.009 725.722 796.005C726.841 794.195 728.831 793.125 730.365 791.644C735.422 786.829 735.878 777.983 742.013 774.65C744.666 773.21 748.19 772.922 749.765 770.371C750.594 769.054 750.719 767.285 751.921 766.298C753.164 765.269 754.905 765.516 756.522 765.639C764.067 766.339 771.86 764.117 777.871 759.591C780.524 757.616 782.887 755.188 785.913 753.912C788.939 752.637 793.043 752.966 794.825 755.723C795.572 756.875 795.82 758.315 796.649 759.426C798.308 761.648 801.707 761.73 804.401 760.949C812.07 758.727 817.666 750.909 817.21 742.968C816.837 735.932 812.485 728.073 816.796 722.477C818.371 720.419 821.066 718.732 820.817 716.181C820.734 715.112 820.071 714.124 819.946 713.054C819.739 711.079 821.314 709.31 823.097 708.364C826.206 706.677 830.227 706.718 833.336 708.405C837.647 701.369 847.347 698.201 855.016 701.286C856.052 701.698 857.172 702.356 857.462 703.426C857.711 704.331 857.338 705.36 857.628 706.265C857.918 707.212 858.83 707.788 859.7 708.323C862.685 710.092 865.67 711.82 868.696 713.589C868.116 714.083 867.701 714.782 867.618 715.647C871.39 719.638 871.307 725.933 869.566 731.117C867.825 736.302 864.716 740.951 863.017 746.136C862.188 748.687 861.773 751.691 863.39 753.83C864.924 755.805 867.618 756.299 869.815 757.533C875.163 760.496 876.862 767.655 875.328 773.498C873.795 779.382 869.815 784.237 865.918 788.887C875.453 791.932 874.582 806.785 882.624 812.669C884.946 814.397 887.93 815.22 890.045 817.154C891.62 818.594 892.822 820.734 894.936 821.228C895.807 821.433 896.553 821.392 897.258 821.104C898.501 824.725 896.802 829.087 894.895 832.625C892.698 836.658 890.169 841.225 891.578 845.586C893.154 850.647 898.833 852.581 904.388 853.322C905.88 853.445 906.419 855.256 905.299 856.202ZM802.66 891.711C798.266 895.208 796.276 900.681 792.918 904.96C790.1 908.581 785.83 910.844 783.84 915.37C782.514 918.374 782.389 923.641 781.229 926.603C779.488 930.923 780.192 934.874 778.907 938.782C778.41 940.264 775.715 941.704 775.384 943.226C774.72 945.859 775.591 948.699 774.14 951.497C772.772 954.171 768.046 954.582 765.227 957.627C763.486 959.479 763.445 964.087 762.45 965.61C760.709 968.202 758.844 970.753 756.854 973.181C752.46 978.53 747.817 984.66 741.516 981.739C738.531 980.381 736.749 976.431 734.427 974.086C732.52 972.193 730.862 969.518 728.417 968.449C726.8 967.749 723.318 966.309 721.328 966.762C719.338 967.214 718.799 969.519 716.685 969.683C713.576 969.93 709.845 967.461 706.985 967.832C704 968.243 700.269 970.671 698.197 972.563C695.005 975.444 695.544 981.04 692.518 984.043C691.647 984.866 689.491 984.743 688.497 985.401C682.403 989.516 675.066 987.541 667.562 986.347C664.992 985.936 661.137 979.599 658.65 979.147C644.763 976.596 629.176 978.694 615.206 980.052C612.968 980.258 612.885 983.344 610.647 983.303C607.455 983.261 601.485 986.635 598.293 986.594C594.894 986.553 594.231 983.138 590.832 983.138C586.894 983.097 582.955 980.834 579.017 980.793C577.608 980.793 576.199 983.056 574.789 983.015C568.115 983.015 562.394 979.641 555.762 979.723C551.741 979.764 546.808 983.179 542.828 983.261C539.802 983.303 535.242 979.682 532.216 979.723C530.102 979.764 529.273 980.175 526.537 982.315C525.749 982.932 522.06 984.002 521.936 984.002C513.355 984.208 509.873 984.084 501.333 984.455C496.234 984.66 494.618 981.986 490.845 985.401C488.275 987.705 482.555 997.292 480.689 1000.21C479.57 1001.94 472.357 1001.45 471.155 1002.97C467.465 1007.54 469.58 1009.97 463.61 1011.86C459.258 1013.22 454.117 1013.75 448.977 1014.08C444.086 1014.37 441.474 1011.04 437.121 1011.41C434.676 1011.61 429.825 1015.36 427.297 1015.77C415.938 1017.58 408.518 1022.02 401.72 1029.76C399.44 1032.35 394.134 1036.63 393.097 1040.17C391.771 1044.77 390.03 1048.68 388.165 1052.55C387.294 1054.36 388.04 1057.86 385.843 1058.35C384.185 1058.72 377.925 1055.18 376.433 1056.05C374.651 1057.12 376.143 1060.45 375.438 1062.43C374.568 1064.85 376.392 1067.69 374.733 1069.63C370.422 1074.65 360.722 1077.16 354.048 1076.99C353.509 1070.74 343.353 1070.94 337.342 1069.01C329.01 1066.34 328.554 1055.27 319.973 1053.42C316.823 1052.76 313.506 1054.03 310.397 1053.33C307.122 1052.63 304.635 1049.96 302.645 1047.28C301.153 1045.31 302.728 1042.35 301.485 1040.25C300.075 1037.9 296.137 1035.6 294.686 1033.21C290.707 1026.63 286.561 1020.99 285.774 1013.5C285.567 1011.65 289.836 1010.87 290.251 1008.77C290.748 1006.3 287.349 1002.48 286.396 1000.54C283.991 995.77 279.141 992.848 274.664 989.886C272.965 988.734 271.472 991.532 269.897 990.133C267.451 987.87 265.213 981.204 264.508 977.995C263.886 975.156 266.042 972.934 268.032 970.876C268.861 970.012 268.902 968.325 269.98 967.996C271.431 967.502 272.136 965.857 271.348 964.54C265.171 953.801 257.668 941.909 247.885 934.051C238.724 926.685 228.07 921.954 218.121 915.699C211.696 911.667 204.442 908.828 197.021 907.1C186.534 904.672 175.631 907.264 164.853 908.005C162.366 908.17 159.589 908.128 157.806 906.4C156.272 904.96 155.941 902.697 155.651 900.599C154.283 890.065 155.402 879.203 154.034 868.669C153.122 861.551 148.894 861.057 149.142 854.145C149.225 850.935 154.739 844.311 157.64 838.098C157.723 837.974 157.931 831.226 158.594 830.197C162.864 823.614 166.512 823.82 171.9 818.101C176.295 813.451 181.352 805.098 180.108 799.214C179.694 797.157 181.269 795.223 183.383 795.141C190.347 794.812 195.488 795.429 201.208 791.602C203.695 789.915 208.504 791.479 210.204 789.092C213.686 784.196 213.561 775.103 214.473 768.519C214.556 767.82 214.681 767.162 214.805 766.503C220.443 768.231 226.08 769.918 231.718 771.646C231.428 775.103 231.138 778.518 230.889 781.974C234.91 781.398 240.423 784.031 244.362 785.06C246.683 785.636 250.124 784.772 252.155 785.595C255.554 787.035 253.025 791.273 255.14 794.236C256.756 796.499 261.648 795.84 264.798 796.087C267.078 796.252 267.907 795.429 268.736 794.03C269.731 792.384 270.021 790.203 271.845 790.944C272.55 791.232 277.483 791.849 278.146 792.22C281.172 794.03 281.421 797.898 284.323 799.996C293.028 806.333 304.221 805.551 313.921 801.025C316.781 799.708 322.212 801.601 324.492 799.379C326.979 796.91 327.145 791.067 328.761 787.611C330.212 784.484 332.617 780.822 334.896 778.6C338.669 774.856 344.638 774.074 349.737 775.72C351.602 776.296 352.473 778.394 351.644 780.164C350.4 782.838 350.442 786.089 351.934 788.64C362.795 788.969 372.454 778.024 370.754 767.367C370.091 763.129 367.935 759.22 367.272 754.982C365.945 745.93 373.366 740.293 380.869 734.985C385.097 731.982 386.631 724.616 391.232 721.366C394.258 719.226 398.404 719.473 401.43 717.704C405.161 715.482 410.259 713.095 412 709.598C412.747 708.076 412.415 706.265 412.083 704.372C411.752 702.603 413.576 701.204 415.234 701.986C417.514 703.056 419.172 704.578 421.825 704.249C424.602 703.92 427.172 703.097 429.287 703.303C429.618 703.344 429.95 703.385 430.281 703.467C432.023 703.961 432.561 706.306 433.764 707.335C436.209 709.392 438.697 708.734 441.889 709.269C442.8 709.433 443.422 710.256 443.381 711.162C443.298 712.849 443.174 714.535 443.091 716.222C448.231 719.185 453.744 721.16 458.18 723.423C467.88 728.361 475.425 732.763 484.13 738.894C487.239 741.075 488.98 745.766 492.462 748.275C494.576 749.798 499.882 751.32 502.121 753.048C503.074 751.855 507.841 756.052 509.541 756.011C512.07 755.929 511.406 751.732 510.577 749.633C515.427 751.855 521.355 750.826 526.62 751.773C538.144 753.912 549.544 755.641 560.57 751.691C563.597 750.621 566.581 749.304 569.773 749.222C573.711 749.14 577.525 750.909 581.463 750.703C585.235 750.497 589.256 746.876 587.971 743.585C592.656 753.007 610.729 749.633 611.268 738.935C618.979 747.082 633.073 748.234 642.027 741.445C644.473 743.996 646.919 746.588 649.364 749.181C658.401 744.984 667.397 740.787 676.392 736.59C682.776 737.289 689.16 737.989 695.585 738.729C694.715 744.037 698.197 749.716 703.337 751.361C711.296 764.61 710.757 782.427 702.093 795.223C709.762 800.078 718.219 803.699 727.007 805.921C727.67 807.032 728.417 808.102 729.163 809.09C732.355 813.41 735.837 817.895 740.811 819.952C746.739 822.421 753.496 820.94 759.88 821.516C761.082 821.639 762.367 821.845 763.279 822.668C765.352 824.602 763.942 827.934 762.823 830.568C757.6 842.871 763.404 856.86 769.373 868.793C772.565 875.17 776.752 882.206 783.757 883.564C788.234 884.428 793.457 882.823 797.064 885.621C799.095 887.144 800.67 890.23 802.66 891.711ZM471.196 642.118C468.17 643.641 464.688 641.378 461.372 640.719C456.895 639.814 451.962 642.2 449.931 646.233C447.858 650.265 448.894 655.614 452.252 658.659C447.319 658.618 442.345 658.618 437.412 658.577C436.085 663.761 439.318 669.686 444.417 671.455C446.158 672.073 448.189 672.278 449.392 673.719C452.376 677.298 446.739 681.413 442.759 683.882C435.919 688.12 432.188 695.608 429.287 703.22C427.214 703.056 424.602 703.879 421.825 704.167C419.172 704.455 417.514 702.932 415.234 701.904C413.576 701.122 411.752 702.521 412.083 704.29C412.456 706.142 412.788 707.993 412 709.516C410.259 713.013 405.161 715.4 401.43 717.621C398.404 719.391 394.258 719.185 391.232 721.284C386.589 724.534 385.097 731.899 380.869 734.903C373.366 740.211 365.904 745.848 367.272 754.9C367.894 759.138 370.049 763.047 370.754 767.285C372.454 777.942 362.753 788.846 351.934 788.558C350.442 786.007 350.4 782.756 351.644 780.081C352.473 778.353 351.561 776.255 349.737 775.638C344.638 773.992 338.669 774.774 334.896 778.518C332.617 780.74 330.212 784.443 328.761 787.529C327.186 790.985 327.02 796.828 324.492 799.297C322.212 801.519 316.781 799.626 313.921 800.943C304.221 805.427 293.028 806.209 284.323 799.914C281.421 797.815 281.172 793.907 278.146 792.137C277.483 791.726 272.55 791.15 271.845 790.862C270.021 790.121 269.773 792.302 268.736 793.948C267.907 795.347 267.078 796.17 264.798 796.005C261.689 795.758 256.798 796.416 255.14 794.153C253.025 791.191 255.596 786.912 252.155 785.513C250.165 784.69 246.683 785.554 244.362 784.978C240.465 783.99 234.91 781.316 230.889 781.892C231.179 778.436 231.469 775.02 231.718 771.564C226.08 769.836 220.443 768.149 214.805 766.421C214.681 767.038 214.556 767.738 214.473 768.437C212.732 768.026 210.743 768.108 209.126 768.725C205.105 770.247 199.965 772.716 197.063 769.548C195.736 768.108 195.529 766.009 195.115 764.117C192.337 751.896 178.326 743.955 177.372 731.488C177.082 727.743 178.036 724.04 179.031 720.419C180.606 714.494 182.181 708.528 183.756 702.603C184.585 699.435 185.497 696.184 187.487 693.592C190.057 690.259 194.161 688.49 197.602 686.062C204.193 681.454 208.587 674.418 212.815 667.629C215.676 662.979 218.66 658.042 218.619 652.569C218.577 647.138 214.059 641.378 208.628 642.077C206.431 642.365 204.11 643.599 202.162 642.489C201.333 641.995 200.794 641.172 200.296 640.39C192.627 628.211 186.824 614.879 183.134 600.972C181.684 595.5 180.481 589.821 177.207 585.213C172.191 578.136 162.739 574.186 160.169 565.957C159.672 562.788 164.107 560.978 167.175 562.007C170.242 563.035 172.605 565.504 175.673 566.533C180.606 568.22 185.912 565.751 191.135 565.257C196.4 564.763 201.664 566.368 206.97 566.533C212.276 566.738 218.329 564.928 220.484 560.073C222.433 555.588 220.318 550.198 222.184 545.671C223.386 542.75 226.039 540.693 228.153 538.306C235.573 529.789 234.786 515.429 226.454 507.735C224.008 505.472 220.982 503.702 219.489 500.74C216.256 494.444 222.142 486.709 229.024 484.857C231.428 484.199 233.874 484.035 236.361 484.117C240.921 484.24 245.605 485.269 250.207 485.886C257.254 486.832 265.379 486.38 270.104 481.113C271.928 479.097 273.089 476.505 275.12 474.653C277.4 472.555 280.509 471.649 283.328 470.374C290.292 467.206 296.096 461.569 303.516 459.553C304.884 459.182 305.879 455.438 307.33 455.52C309.734 455.602 311.765 459.141 313.921 460.869C317.486 463.749 320.512 465.889 320.056 469.716C319.89 470.909 319.476 472.184 320.056 473.295C321.009 475.147 323.704 474.777 325.694 475.394C331.041 477.04 331.912 486.298 337.508 486.298C340.741 486.298 342.773 482.965 344.721 480.373C346.255 478.315 348.991 476.505 351.229 476.957C352.017 477.122 352.431 478.027 352.058 478.727C351.892 479.056 352.141 480.578 352.1 480.949C351.975 482.471 352.473 483.088 353.799 483.993C355.872 485.351 358.484 485.516 360.847 486.298C362.049 486.709 365.489 486.709 366.526 487.408C369.883 489.589 370.298 493.416 373.78 495.514C377.304 497.613 382.071 498.641 385.429 496.996C387.377 496.049 387.833 492.963 389.906 491.852C390.735 491.4 392.144 491.77 393.346 491.688C394.797 491.605 396.455 491.976 397.45 492.552C399.108 493.416 397.823 494.815 397.782 496.831C397.74 498.395 398.694 499.711 398.694 501.192C398.694 503.785 398.694 506.418 398.652 509.093C398.445 516.91 397.533 524.769 393.761 531.312C392.766 532.999 391.481 534.644 391.315 536.619C390.859 542.051 398.321 544.067 403.834 544.108C402.052 547.359 400.186 551.021 401.015 554.6C401.844 558.221 406.86 560.813 409.43 558.098C411.13 556.328 411.462 552.749 413.949 552.666C415.565 552.584 416.685 554.189 417.265 555.67C420.125 562.5 419.296 570.73 415.109 576.86C413.949 578.547 412.498 580.317 412.539 582.374C412.581 584.514 414.239 586.201 415.773 587.682C420.291 592.043 424.81 596.405 429.328 600.766C436.956 608.131 448.148 616.032 457.185 610.436C459.34 609.119 461.04 607.103 463.362 606.074C465.641 605.045 468.999 605.457 469.911 607.802C470.45 609.242 469.87 610.847 469.165 612.205C466.885 616.402 462.906 619.694 458.346 621.216C462.491 628.087 466.844 635.082 471.196 642.118ZM646.09 515.758C645.634 516.293 644.929 516.622 644.265 516.91C641.986 517.939 639.498 518.968 637.011 518.474C635.602 518.186 634.317 517.404 632.866 517.198C631.788 517.034 630.71 517.198 629.715 517.692C628.886 518.104 628.181 518.721 627.435 519.214C625.197 520.737 622.461 521.436 619.766 521.189C618.689 521.107 617.569 520.819 616.782 520.12C616.201 519.585 615.787 518.885 615.165 518.433C614.17 517.692 612.636 517.774 611.724 518.597C610.812 519.42 610.564 520.737 609.693 521.56C608.325 522.794 606.17 522.342 604.387 521.807C602.605 521.272 600.449 520.819 599.081 522.054C598.501 522.589 598.169 523.37 597.713 523.987C597.05 524.852 596.428 524.934 595.475 524.934C594.355 524.893 593.195 525.14 592.075 525.263C591.205 525.345 590.334 525.428 589.63 525.963C589.256 526.251 588.966 526.621 588.635 526.909C587.847 527.608 586.769 527.855 585.899 528.431C584.987 529.007 584.323 529.871 583.95 530.859C583.785 531.353 583.66 531.888 583.287 532.258C582.707 532.834 581.712 532.669 580.924 532.999C580.137 533.328 579.598 534.109 578.893 534.562C577.981 535.179 576.779 535.22 575.701 535.426C573.255 535.961 571.141 537.566 569.524 539.5C568.405 540.857 567.369 542.462 565.711 543.038C563.845 543.697 561.814 542.956 560.073 542.009C559.161 541.557 558.291 541.022 557.71 540.199C557.13 539.376 556.923 538.224 557.503 537.401C558 536.66 558.954 536.372 559.866 536.167C562.063 535.632 564.301 535.056 566.498 534.48C567.742 534.192 569.027 533.821 569.939 532.957C570.561 532.381 570.975 531.6 571.556 530.982C572.302 530.201 573.338 529.748 574.167 529.09C574.623 528.719 574.996 528.267 575.245 527.773C575.577 527.032 575.411 526.25 575.743 525.428C575.991 524.81 576.406 524.234 576.82 523.699C577.732 522.547 578.934 521.601 580.054 520.655C582.043 518.968 584.531 516.952 584.199 514.071C583.867 510.944 580.261 509.216 577.111 508.887C573.96 508.516 570.519 508.846 567.783 507.241C565.918 506.13 564.591 504.278 562.643 503.291C561.068 502.509 559.285 502.386 557.544 502.18C549.129 501.11 541.17 496.954 535.45 490.741C535.947 493.375 532.133 495.597 530.061 493.827C528.112 492.14 528.319 488.396 525.832 487.573C524.464 487.12 523.013 487.943 521.77 488.725C519.531 490.165 517.251 491.647 515.842 493.91C514.888 495.432 513.811 497.572 512.028 497.201C510.867 496.996 510.246 495.761 509.79 494.691C508.546 491.77 507.302 488.849 506.017 485.886C503.696 485.269 501.665 487.532 500.628 489.672C499.592 491.811 498.597 494.321 496.317 495.144C495.156 495.555 493.83 495.391 492.669 495.802C491.177 496.296 490.099 497.654 488.648 498.312C487.405 498.847 485.995 498.806 484.627 498.765C483.218 498.724 481.85 498.683 480.44 498.6C482.099 494.033 483.715 489.507 485.373 484.94C485.788 483.829 486.203 482.677 487.197 481.977C489.519 480.331 493.208 482.553 495.53 480.825C498.017 478.932 496.234 474.53 498.307 472.184C499.716 470.58 502.204 470.744 504.359 470.703C506.515 470.703 509.168 469.88 509.5 467.782C509.707 466.547 508.961 465.354 508.546 464.161C506.515 458.277 512.443 452.599 513.023 446.386C513.313 443.341 512.401 439.967 514.184 437.498C516.091 437.375 515.427 440.666 516.588 442.189C517.21 443.012 518.288 443.217 519.324 443.3C522.35 443.547 525.418 443.012 528.195 441.777C525.293 439.761 525.625 435.276 527.449 432.273C529.273 429.269 532.175 427.047 533.999 424.043C534.703 422.85 535.284 421.492 536.403 420.669C539.429 418.365 544.155 421.081 547.513 419.312C551.16 417.378 550.497 412.193 550.497 408.079C550.497 402.853 552.487 397.628 556.011 393.76C556.84 392.855 557.71 392.032 558.829 391.538C560.819 390.633 563.058 390.962 565.255 390.838C569.069 390.633 569.898 387.094 572.468 384.296C573.09 383.638 577.442 378.577 577.898 377.795C578.893 376.273 580.966 377.096 581.463 376.766C582.044 376.355 582.748 373.434 584.24 371.747C585.774 370.018 587.888 369.072 590.003 368.373C592.863 367.467 595.143 367.879 597.754 368.373C597.713 368.537 597.672 368.743 597.63 368.907C597.547 369.772 597.92 370.636 598.335 371.417C599.661 373.886 601.61 376.026 603.973 377.548C604.429 377.836 604.926 378.124 605.299 378.577C605.755 379.071 606.004 379.77 606.211 380.387C606.791 382.157 607.413 383.885 607.993 385.654C608.325 386.641 608.657 387.711 608.45 388.74C608.159 390.303 606.626 391.414 606.294 392.978C606.045 394.089 606.418 395.241 606.17 396.352C605.838 397.751 604.511 398.697 604.097 400.055C603.724 401.166 603.973 402.318 604.055 403.47C604.18 405.528 603.765 407.626 602.812 409.436C602.397 410.218 601.983 410.877 601.734 411.699C601.444 412.687 600.656 413.428 600.242 414.333C599.496 415.896 599.786 417.913 600.988 419.229C601.651 419.929 602.522 420.422 603.226 421.122C604.428 422.356 604.884 424.208 604.677 425.936C604.511 427.664 603.807 429.269 603.019 430.832C602.895 431.079 602.77 431.367 602.812 431.614C602.895 431.943 603.268 432.149 603.599 432.273C605.299 432.89 607.04 433.301 608.823 433.507C609.983 433.63 611.351 433.795 611.89 434.824C612.346 435.77 611.89 437.004 612.553 437.827C613.134 438.527 614.212 438.527 614.999 438.979C615.994 439.555 616.367 440.79 616.409 441.901C616.492 443.012 616.367 444.205 616.699 445.275C617.403 447.538 620.057 448.978 620.388 451.323C620.43 451.776 620.43 452.228 620.637 452.64C621.093 453.586 622.337 453.669 623.373 453.833C626.026 454.245 628.347 456.096 629.591 458.442C630.917 460.951 630.171 463.791 631.29 466.301C632.285 468.522 634.731 469.716 636.223 471.65C636.679 472.226 637.053 472.843 637.177 473.583C637.509 475.435 636.141 477.163 635.726 479.015C635.56 479.796 635.56 480.619 635.353 481.36C634.938 482.718 633.819 483.746 632.866 484.816C632.12 485.639 631.456 486.544 631.125 487.573C630.627 488.972 630.752 490.494 630.876 491.976C630.959 492.757 631 493.498 631.083 494.28C631.083 494.445 631.125 494.568 631.208 494.691C631.291 494.774 631.373 494.815 631.498 494.856C633.156 495.391 634.856 494.156 635.892 492.757C636.928 491.359 637.674 489.713 639.125 488.725C640.41 489.713 640.866 491.4 641.281 492.963C642.027 495.638 642.939 498.271 643.975 500.863C644.39 501.933 645.095 503.25 644.473 504.32C643.892 505.307 642.98 506.007 642.773 507.2C642.649 507.817 642.773 508.475 642.898 509.134C643.022 509.874 643.188 510.656 643.312 511.397C643.354 511.726 643.436 512.055 643.602 512.302C644.183 513.125 645.551 512.96 646.172 513.742C646.753 514.359 646.587 515.223 646.09 515.758ZM785.623 227.776C784.296 231.109 779.612 230.944 776.047 231.479C772.565 231.973 769.207 233.824 767.342 236.828C765.476 239.791 765.435 243.905 767.632 246.662C768.585 247.814 769.829 248.678 771.155 249.378C770.326 251.929 769.787 254.562 769.497 257.237C765.849 258.142 762.326 259.459 758.968 261.187C755.071 257.648 749.599 255.879 744.335 256.455C744.584 253.945 744.832 251.353 744.293 248.884C743.754 246.415 742.262 244.029 739.899 243C739.402 242.794 738.863 242.63 738.531 242.177C737.122 240.284 742.262 238.721 741.516 236.458C738.2 235.141 734.137 233.907 731.318 236.129C730.075 237.116 728.541 238.844 727.256 237.898C726.758 237.528 726.551 236.869 726.385 236.252C725.515 232.919 723.069 228.969 719.67 229.71C718.509 229.957 717.514 230.78 716.395 231.109C713.535 231.932 709.555 229.916 707.897 232.425C707.441 233.125 707.317 234.071 706.653 234.565C705.741 235.265 704.415 234.73 703.296 234.935C700.477 235.347 700.228 239.132 699.523 241.889C698.28 246.868 692.974 250.448 687.875 249.83C685.097 249.501 682.196 248.061 679.626 249.213C679.335 249.337 679.004 249.501 678.672 249.583C677.677 249.748 676.807 248.802 676.682 247.814C676.558 246.827 676.973 245.88 677.346 244.975C678.092 243.247 678.879 241.519 679.626 239.791C680.082 238.803 680.538 237.733 680.455 236.622C680.289 233.989 676.765 232.508 674.444 233.742C672.122 234.977 671.21 238.063 671.915 240.572C672.164 241.395 672.537 242.177 672.495 243C672.413 244.934 670.257 246.086 668.35 246.58C666.443 247.074 664.288 247.403 663.168 249.007C661.635 249.295 660.432 247.567 660.225 246.004C660.018 244.44 660.267 242.753 659.479 241.395C657.448 237.898 651.603 240.367 648.079 238.351C644.846 236.499 644.887 231.808 642.566 228.846C641.654 227.653 640.327 226.747 639.788 225.348C639.125 223.538 639.954 221.604 640.618 219.794C642.11 215.597 642.607 211.071 642.068 206.709C641.903 205.475 641.654 204.24 642.027 203.047C642.524 201.442 644.1 200.331 644.68 198.727C645.177 197.41 644.929 195.97 644.68 194.612C644.058 190.868 643.395 187.165 642.773 183.42C642.234 180.211 641.447 176.59 638.669 174.821C640.576 173.916 642.524 172.969 643.768 171.282C645.012 169.595 645.219 166.962 643.644 165.604C642.815 164.905 641.488 163.917 642.234 163.094C642.524 162.765 643.022 162.765 643.478 162.765C645.675 162.806 647.831 162.888 650.028 162.93C650.898 162.971 651.893 163.012 652.39 163.711C652.888 164.37 652.722 165.316 653.012 166.057C653.593 167.62 655.831 167.908 657.365 167.209C658.899 166.509 660.018 165.151 661.427 164.246C661.883 163.958 662.339 163.711 662.878 163.506C663.459 164.123 664.205 164.617 664.827 165.234C666.402 166.838 666.775 169.225 667.894 171.159C669.013 173.093 671.874 174.533 673.408 172.887C675.024 171.2 673.449 167.867 676.351 166.592C678.216 165.769 680.413 166.427 681.615 168.073C684.061 171.323 682.983 175.315 683.315 179.059C683.398 180.17 683.729 181.404 684.641 182.021C685.388 182.556 686.383 182.556 687.294 182.556C694.425 182.556 701.555 182.515 708.685 182.515C708.767 182.515 708.892 182.515 708.975 182.515C710.426 184.531 713.286 185.519 715.856 185.807C719.048 186.218 722.53 186.095 725.225 187.946C726.551 188.852 727.587 190.209 728.873 191.197C733.018 194.448 738.946 193.583 744.127 192.555C743.05 194.201 744.376 196.505 746.159 197.41C747.941 198.315 750.014 198.315 751.962 198.809C757.393 200.208 760.958 205.187 764.854 209.219C768.751 213.251 773.352 216.543 778.41 218.93C782.223 220.781 787.156 223.867 785.623 227.776ZM758.636 304.349C756.315 310.233 760.046 316.569 761.124 322.783C762.201 328.996 756.771 337.389 751.299 334.221C751.009 331.135 748.563 328.42 745.537 327.72C737.744 338.5 737.371 354.013 744.666 365.163C745.827 366.974 747.402 368.743 749.517 369.113C751.382 369.401 753.164 368.537 754.988 367.961C754.408 369.195 753.538 370.306 752.791 371.459C751.714 373.104 750.802 375.121 751.423 377.013C751.631 377.63 751.962 378.207 752.004 378.824C752.045 380.14 750.511 381.087 749.185 380.881C747.858 380.675 746.781 379.729 745.952 378.7C745.288 377.918 744.666 377.054 743.754 376.561C742.842 376.067 741.599 376.026 740.894 376.766C740.645 377.054 740.48 377.466 740.231 377.754C739.485 378.659 738.075 378.659 736.873 378.577C737.039 377.795 736.003 377.384 735.215 377.26C734.22 377.096 733.225 376.972 732.23 377.096C731.235 377.219 730.24 377.713 729.743 378.577C729.453 379.071 729.329 379.688 728.955 380.14C728.251 381.046 726.883 381.046 725.764 381.004C724.727 380.963 723.691 380.881 722.654 380.84C722.033 380.799 721.328 380.758 720.831 380.346C720.375 379.976 720.126 379.359 719.628 379.029C719.297 378.783 718.841 378.741 718.426 378.7C717.473 378.577 716.271 378.536 715.773 379.359C715.566 379.647 715.524 380.017 715.359 380.305C714.861 381.292 713.452 381.416 712.415 381.087C711.379 380.716 710.467 380.017 709.431 379.605C708.394 379.194 707.109 379.071 706.405 378.165C705.493 376.972 706.032 374.874 704.705 374.092C704.042 373.722 703.13 373.845 702.632 373.269C702.342 372.94 702.301 372.446 702.259 371.993C702.176 370.677 702.093 369.36 702.052 368.043C701.43 367.673 700.435 367.426 700.104 368.085C699.938 368.373 700.062 368.743 700.021 369.072C699.896 369.854 699.067 370.265 698.363 370.553C697.492 370.924 696.58 371.253 695.627 371.212C694.673 371.171 693.678 370.594 693.471 369.648C693.305 368.907 693.678 368.167 693.803 367.426C693.969 366.356 693.264 365.78 692.601 365.081C691.813 364.299 691.108 363.435 690.652 362.406C690.196 361.295 690.072 360.061 689.367 359.074C688.289 357.633 686.3 357.345 684.6 356.81C682.9 356.276 681.035 354.918 681.325 353.148C680.496 353.148 679.708 352.778 678.879 352.572C678.05 352.367 677.097 352.367 676.517 352.943C676.226 353.231 676.061 353.642 675.729 353.93C675.231 354.342 674.568 354.383 673.905 354.383C672.288 354.383 670.63 354.383 669.055 353.971C667.48 353.56 665.987 352.696 665.117 351.297C664.412 350.104 664.246 348.705 664.08 347.306C663.998 346.73 663.915 346.154 663.583 345.66C662.795 344.508 660.93 344.631 659.852 345.578C658.774 346.483 658.318 347.882 657.862 349.198C657.738 349.528 657.614 349.857 657.365 350.104C656.992 350.474 656.411 350.556 655.873 350.556C653.758 350.639 651.561 350.104 649.572 350.927C649.033 351.132 648.535 351.461 647.996 351.708C645.716 352.655 643.063 351.873 640.701 351.091C637.55 350.021 634.275 348.952 630.917 349.075C629.881 349.116 628.928 348.869 627.974 349.116C628.016 349.486 626.565 349.939 624.658 351.215C623.331 352.12 621.881 353.889 619.849 354.424C617.486 355.041 613.838 352.943 611.683 354.013C610.025 354.835 610.191 358.292 609.071 359.938C608.118 361.337 605.755 361.007 605.589 361.09C605.34 361.213 605.133 361.419 604.884 361.583C603.061 362.9 601.278 364.299 599.578 365.78C598.749 366.48 597.92 367.303 597.63 368.331C595.019 367.838 592.697 367.426 589.878 368.331C587.764 369.031 585.609 369.977 584.116 371.705C582.624 373.392 581.919 376.314 581.339 376.725C580.841 377.054 578.727 376.19 577.774 377.754C577.318 378.495 572.924 383.597 572.343 384.255C569.773 387.012 568.944 390.55 565.13 390.797C562.975 390.921 560.695 390.592 558.705 391.497C557.586 391.99 556.674 392.813 555.886 393.719C552.363 397.586 550.331 402.812 550.373 408.038C550.373 412.152 551.036 417.337 547.388 419.27C544.03 421.04 539.305 418.324 536.279 420.628C535.159 421.492 534.62 422.809 533.874 424.002C532.05 427.006 529.149 429.228 527.325 432.231C525.501 435.235 525.169 439.72 528.071 441.736C525.293 442.971 522.226 443.506 519.2 443.259C518.163 443.176 517.086 442.971 516.464 442.148C515.303 440.625 515.966 437.334 514.059 437.457C512.277 439.926 513.189 443.341 512.899 446.345C512.318 452.558 506.349 458.236 508.422 464.12C508.836 465.313 509.582 466.506 509.375 467.741C509.044 469.839 506.39 470.621 504.235 470.662C502.079 470.662 499.592 470.539 498.183 472.143C496.11 474.489 497.892 478.932 495.405 480.784C493.125 482.512 489.436 480.29 487.073 481.936C486.12 482.636 485.664 483.788 485.249 484.899C483.591 489.466 481.974 493.992 480.316 498.559C476.627 498.436 472.896 498.271 469.206 498.148C469.828 496.008 470.201 493.539 468.999 491.605C467.797 489.713 464.398 489.301 463.486 491.358C462.698 490.33 461.911 489.26 461.123 488.231C456.77 489.96 456.356 496.543 452.21 498.683C449.806 499.917 446.283 499.711 445.205 502.18C444.873 503.003 444.915 503.908 444.832 504.772C444.376 508.64 440.355 511.726 436.5 511.232C437.66 508.393 434.8 504.813 431.732 505.307C430.074 505.554 428.706 506.747 427.421 507.858C425.183 509.833 422.986 511.808 420.747 513.783C420.333 514.154 419.877 514.524 419.338 514.73C417.928 515.223 416.519 514.195 415.317 513.372C410.425 509.957 404.29 508.311 398.321 508.805C398.404 506.171 398.362 503.497 398.362 500.904C398.362 499.423 397.409 498.148 397.45 496.543C397.492 494.527 398.777 493.169 397.118 492.264C396.082 491.729 394.465 491.317 393.015 491.4C391.812 491.482 390.403 491.112 389.574 491.564C387.501 492.716 387.045 495.761 385.097 496.707C381.739 498.353 376.972 497.325 373.448 495.226C369.966 493.128 369.552 489.342 366.194 487.12C365.158 486.462 361.676 486.421 360.515 486.01C358.152 485.187 355.54 485.063 353.468 483.705C352.141 482.8 351.602 482.183 351.768 480.661C351.81 480.29 351.561 478.768 351.727 478.439C352.1 477.739 351.685 476.793 350.898 476.669C348.659 476.258 345.923 478.068 344.389 480.084C342.441 482.677 340.451 486.01 337.176 486.01C331.58 486.01 330.71 476.752 325.362 475.106C323.372 474.489 320.678 474.859 319.724 473.007C319.186 471.938 319.559 470.662 319.724 469.428C320.222 465.601 317.154 463.461 313.589 460.581C311.434 458.853 309.402 455.314 306.998 455.232C305.547 455.15 304.552 458.894 303.184 459.264C295.806 461.239 290.002 466.918 282.996 470.086C280.178 471.361 277.069 472.267 274.789 474.365C272.757 476.217 271.597 478.809 269.773 480.825C265.006 486.092 256.922 486.544 249.875 485.598C245.274 484.981 240.631 483.952 236.029 483.829C236.112 481.607 236.361 479.344 237.605 477.533C239.677 474.489 244.237 473.131 245.066 469.551C246.393 463.873 237.149 458.976 239.636 453.71C240.714 451.447 243.864 449.842 243.325 447.373C243.118 446.262 242.123 445.439 241.584 444.411C240.175 441.736 241.874 438.609 242.952 435.811C246.393 426.8 242.828 416.514 244.859 407.091C245.356 404.828 246.144 402.483 245.398 400.261C245.025 399.15 244.32 398.204 243.657 397.257C239.553 391.456 236.776 384.749 235.656 377.754C237.066 375.491 240.589 377.589 243.201 377.219C245.191 376.931 246.6 375.244 247.678 373.557C253.15 365.328 256.383 354.918 264.923 349.816C269.068 347.347 273.96 346.442 278.519 344.919C283.121 343.397 287.764 340.887 289.795 336.525C290.914 334.139 291.37 331.012 293.733 329.819C294.977 329.16 296.51 329.284 297.837 328.913C304.221 327.185 303.806 317.927 307.744 312.661C310.024 309.616 314.087 307.435 314.253 303.691C314.335 302.045 313.548 300.44 312.636 299.041C307.537 291.347 296.759 288.014 288.178 291.47C286.893 291.964 285.567 292.622 284.199 292.458C283.121 292.293 282.209 291.635 281.421 290.853C275.784 285.34 276.447 275.835 280.385 269.004C281.877 266.453 283.411 262.503 280.758 261.146C280.178 260.858 279.514 260.775 278.934 260.446C277.442 259.664 277.069 257.566 277.69 256.002C278.312 254.439 279.68 253.287 280.965 252.217C280.758 250.653 278.893 249.83 277.359 249.995C275.783 250.201 274.416 251.065 272.965 251.682C266.581 254.439 258.29 251.394 255.264 245.181C253.73 249.995 247.636 252.093 242.703 250.941C239.138 250.118 236.112 248.061 233.252 245.716C235.034 243.494 237.149 241.025 237.273 238.104C237.397 235.47 235.035 232.631 232.506 233.29C231.013 231.068 232.174 227.941 234.081 226.007C235.946 224.073 238.434 222.838 240.299 220.863C242.869 218.189 244.196 214.362 247.305 212.387C249.626 210.906 252.611 210.741 255.098 209.507C257.254 208.478 259.326 207.409 259.534 205.063C259.617 204.24 261.15 203.129 262.104 201.566C263.223 199.755 263.223 195.27 263.638 194.036L263.72 192.925C263.596 192.02 262.808 191.32 262.062 190.827C259.285 189.016 255.513 187.658 254.808 184.449C254.601 183.42 254.766 182.392 254.725 181.363C254.684 176.384 250.289 171.817 245.274 171.57C240.589 171.323 235.117 174.08 231.677 170.912C228.941 168.361 229.894 163.835 231.594 160.584C233.335 157.293 235.739 154.001 235.408 150.298C235.242 148.611 234.496 146.965 234.703 145.319C235.034 142.068 238.517 140.176 241.667 139.312C244.818 138.448 248.341 137.954 250.58 135.567C254.808 131 251.16 123.47 253.025 117.586C253.44 116.352 254.062 115.2 254.518 113.966C255.637 113.966 256.756 114.171 257.793 114.747C259.824 115.858 260.943 118.121 262.726 119.52C264.55 120.96 267.99 120.878 268.405 118.615C268.612 117.628 268.115 116.517 268.612 115.653C269.109 114.747 270.394 114.583 271.431 114.542C277.981 114.377 284.53 114.212 291.08 114.048C293.484 114.007 296.303 113.678 297.505 111.661C298.293 110.304 298.086 108.617 298.293 107.053C298.998 100.84 307.454 97.0956 312.594 100.675C314.46 101.951 316.325 104.049 318.481 103.391C320.429 102.774 321.424 100.017 323.455 99.9759C325.901 99.9759 327.269 103.967 329.632 103.391C330.668 103.144 331.249 102.074 331.912 101.21C335.104 96.9722 342.482 96.931 345.716 101.128C346.545 102.198 347.125 103.473 347.83 104.584C352.349 111.703 363.914 112.896 369.801 106.888C371.334 105.325 372.578 103.35 374.526 102.362C379.874 99.6055 386.133 105.695 392.061 104.667C393.927 104.337 395.585 103.309 397.284 102.403C404.083 98.7415 411.835 96.7253 419.545 97.1368C423.234 97.3425 426.965 98.0831 430.613 97.4248C434.261 96.8076 437.95 94.2977 438.406 90.6357C438.697 88.3315 438.033 85.2455 440.147 84.2992C441.101 83.8465 442.22 84.1757 443.298 84.1346C448.024 83.97 451.464 77.3043 455.941 78.8679C457.517 79.4028 458.553 80.884 459.714 82.0773C460.543 82.9413 461.62 83.2705 462.781 83.5174C462.657 84.6283 462.491 85.7804 462.367 86.8914C461.994 89.7305 461.703 92.8987 463.362 95.244C465.517 98.33 470.409 99.1118 471.611 102.65C472.025 103.802 471.942 105.201 472.73 106.148C473.476 107.012 474.678 107.259 475.839 107.423C482.679 108.329 489.726 107.547 496.193 105.243C498.307 104.461 500.545 103.514 502.784 103.926C508.961 105.078 509.956 115.282 516.174 116.229C518.412 116.599 521.065 115.653 522.765 117.134C523.718 117.998 523.967 119.356 524.174 120.631C524.713 123.882 525.21 127.132 525.749 130.424C525.915 131.329 526.164 132.399 526.993 132.769C528.361 133.387 529.605 131.782 530.972 131.165C532.34 130.547 534.164 131.082 534.952 132.358C535.74 133.633 535.408 135.485 534.247 136.431C538.144 136.143 538.641 144.619 542.414 143.509C544.072 143.015 544.445 140.957 544.901 139.312C545.357 137.666 546.932 135.814 548.425 136.637C550.58 137.83 547.886 141.698 549.585 143.55C550.124 144.126 550.995 144.29 551.824 144.414C554.062 144.661 556.342 144.661 558.539 144.373C557.669 143.015 559.161 141.287 560.736 140.875C562.312 140.464 564.053 140.669 565.421 139.805C567.659 138.406 567.535 134.909 565.877 132.893C564.218 130.877 561.607 129.93 559.12 129.025C556.632 128.12 554.021 127.091 552.487 124.993C549.917 121.413 551.492 116.27 554.311 112.896C557.13 109.522 560.985 107.053 563.721 103.597C564.343 102.815 564.923 101.992 565.752 101.457C567.12 100.593 568.903 100.758 570.478 100.47C575.66 99.6467 578.852 94.668 581.795 90.3477C582.417 89.4424 583.08 88.5372 584.075 88.0846C585.982 87.2617 588.096 88.4961 589.961 89.4836C595.143 92.2815 601.361 93.1867 607.123 91.9524C606.377 87.8789 605.672 83.3528 607.828 79.7731C608.574 78.5387 609.652 77.51 610.771 76.6048C614.336 73.7246 618.647 71.8319 623.207 71.1324C622.917 72.8605 622.336 74.7121 622.129 76.3991C621.632 80.308 623.663 84.4226 627.021 86.4799C629.218 87.7966 632.037 88.4549 633.446 90.5945C634.441 92.1169 634.441 94.0097 634.441 95.8201C634.4 99.2764 634.4 102.774 634.358 106.23C634.358 107.464 634.358 108.74 634.98 109.769C636.306 111.908 639.291 111.867 641.778 112.196C644.929 112.608 648.079 114.171 649.53 116.969C650.981 119.767 649.986 123.8 647.084 124.993C645.841 125.486 644.514 125.445 643.188 125.692C639.664 126.351 636.845 129.272 635.602 132.605C634.358 135.938 634.565 139.682 635.436 143.138C635.685 144.167 636.058 145.278 636.928 145.895C637.84 146.553 639.084 146.512 640.203 146.553C644.183 146.553 648.162 147.294 651.893 148.693C652.681 148.981 653.551 149.392 653.841 150.174C654.131 150.956 653.8 151.861 653.841 152.684C654.049 155.852 659.189 155.976 660.764 158.733C661.51 160.049 661.344 161.777 662.174 163.053C662.298 163.218 662.422 163.382 662.547 163.506C662.049 163.711 661.552 163.958 661.096 164.246C659.686 165.151 658.567 166.509 657.033 167.209C655.5 167.908 653.261 167.62 652.681 166.057C652.39 165.275 652.556 164.37 652.059 163.711C651.561 163.012 650.566 162.93 649.696 162.93C647.54 162.888 645.343 162.806 643.146 162.765C642.69 162.765 642.193 162.765 641.903 163.094C641.156 163.876 642.483 164.863 643.312 165.604C644.887 166.962 644.68 169.595 643.436 171.282C642.193 172.969 640.244 173.916 638.338 174.821C641.115 176.59 641.903 180.211 642.442 183.42C643.063 187.165 643.727 190.868 644.348 194.612C644.597 195.97 644.804 197.41 644.348 198.727C643.768 200.331 642.193 201.442 641.695 203.047C641.322 204.199 641.571 205.475 641.737 206.709C642.317 211.112 641.82 215.638 640.286 219.794C639.623 221.604 638.794 223.538 639.457 225.348C639.996 226.747 641.322 227.694 642.234 228.846C644.514 231.767 644.514 236.458 647.748 238.351C651.271 240.367 657.116 237.898 659.147 241.395C659.935 242.753 659.686 244.44 659.894 246.004C660.101 247.567 661.303 249.295 662.837 249.007C663.956 247.403 666.153 247.074 668.018 246.58C669.925 246.086 672.039 244.934 672.164 243C672.205 242.177 671.832 241.354 671.584 240.572C670.879 238.021 671.791 234.977 674.112 233.742C676.434 232.508 679.957 234.03 680.123 236.622C680.206 237.733 679.75 238.762 679.294 239.791C678.548 241.519 677.76 243.247 677.014 244.975C676.599 245.88 676.226 246.827 676.351 247.814C676.475 248.802 677.346 249.748 678.34 249.583C678.672 249.542 678.962 249.378 679.294 249.213C681.864 248.102 684.766 249.501 687.543 249.83C692.642 250.448 697.948 246.827 699.192 241.889C699.896 239.132 700.145 235.347 702.964 234.935C704.083 234.771 705.41 235.265 706.322 234.565C706.985 234.071 707.109 233.125 707.565 232.425C709.223 229.957 713.162 231.973 716.063 231.109C717.224 230.78 718.177 229.957 719.338 229.71C722.737 228.928 725.183 232.919 726.054 236.252C726.22 236.869 726.385 237.528 726.924 237.898C728.209 238.844 729.743 237.157 730.987 236.129C733.764 233.907 737.868 235.141 741.184 236.458C741.93 238.721 736.79 240.284 738.2 242.177C738.531 242.589 739.07 242.753 739.568 243C741.889 243.988 743.381 246.415 743.962 248.884C744.501 251.353 744.252 253.904 744.003 256.455C749.268 255.879 754.74 257.648 758.636 261.187C761.953 259.459 765.518 258.142 769.166 257.237C768.378 264.149 769.29 271.226 771.984 277.645C773.145 280.484 774.679 283.241 775.301 286.245C777.498 295.667 768.254 305.542 758.636 304.349ZM1118.29 654.01C1116.09 654.38 1114.02 655.244 1112.24 656.519C1112.65 657.466 1113.4 658.33 1114.27 658.906C1112.98 660.264 1113.02 662.486 1113.85 664.173C1114.68 665.86 1116.17 667.135 1117.58 668.328C1117.92 668.575 1118.25 668.863 1118.66 668.904C1119.16 668.946 1119.53 668.575 1119.95 668.328C1122.27 666.724 1125.5 666.929 1128.11 668.123C1129.73 668.904 1131.18 669.974 1132.51 671.209C1133.63 672.237 1135.41 671.497 1135.49 670.015C1135.53 669.275 1135.53 668.493 1135.57 667.752C1135.74 665.86 1136.53 663.679 1138.35 663.103C1139.02 662.897 1139.72 662.938 1140.38 662.733C1142.29 662.198 1143.2 660.058 1144.03 658.289C1145.07 656.149 1148.96 653.475 1150.54 651.664C1152.86 649.031 1153.19 647.55 1156.38 646.027C1155.22 644.834 1154.02 643.682 1152.86 642.489C1152.53 642.159 1152.16 641.748 1152.11 641.295C1152.07 640.76 1152.49 640.308 1152.74 639.814C1153.77 637.798 1151.99 635.288 1149.79 634.671C1147.6 634.054 1145.27 634.753 1143.12 635.453C1138.93 636.81 1134.75 638.168 1130.56 639.526C1127.41 640.555 1122.85 642.283 1121.81 645.821C1120.73 649.607 1123.93 653.104 1118.29 654.01ZM1239.83 555.217C1242.69 552.337 1245.59 549.375 1249.24 547.523C1252.1 546.042 1255.46 545.26 1257.66 542.915C1258.82 541.722 1259.56 540.24 1260.39 538.8C1264.41 531.846 1270.8 526.251 1278.22 523.123C1280.91 521.971 1283.81 521.107 1285.97 519.173C1287.79 517.528 1289 515.223 1291.11 513.989C1293.02 512.878 1295.38 512.837 1297.62 512.672C1305.74 512.137 1313.7 509.751 1320.75 505.76C1320.25 509.175 1316.52 511.068 1313.25 512.302C1311.79 512.878 1310.26 513.495 1309.31 514.688C1308.31 515.882 1308.15 517.898 1309.39 518.885C1311.75 519.215 1313.41 516.334 1315.77 516.005C1318.14 515.676 1320.17 518.721 1318.92 520.737C1317.52 523.082 1313.25 523.411 1313.08 526.168C1313.04 527.074 1313.49 527.896 1313.99 528.637C1316.73 532.669 1321.16 535.714 1326.01 536.043C1330.9 536.373 1336.04 533.575 1337.66 529.007C1339.44 531.023 1342.43 531.394 1345.08 531.97C1347.74 532.546 1350.72 533.904 1351.22 536.578C1351.38 537.36 1351.26 538.142 1351.18 538.882C1350.93 541.022 1350.68 543.12 1350.47 545.26C1350.43 545.795 1350.35 546.33 1350.01 546.783C1349.02 548.181 1346.66 547.194 1345.12 547.935C1343.84 548.593 1343.51 550.28 1343.71 551.679C1343.92 553.078 1344.54 554.436 1344.58 555.876C1344.67 558.633 1342.59 560.978 1340.44 562.706C1338.28 564.434 1335.8 565.998 1334.47 568.425C1332.11 572.746 1334.14 578.342 1332.02 582.785C1331.07 584.802 1329.37 586.365 1327.71 587.888C1324.02 591.22 1320.33 594.553 1316.69 597.845C1315.07 599.326 1313.37 600.807 1311.3 601.548C1309.22 602.289 1306.65 602.042 1305.2 600.396C1303.71 598.709 1303.84 596.076 1302.55 594.224C1300.64 591.467 1296.66 591.467 1293.31 591.673C1290.11 591.879 1286.8 591.961 1283.77 591.015C1280.7 590.027 1277.89 587.764 1277.18 584.637C1276.85 583.197 1276.93 581.551 1276.02 580.399C1275.07 579.165 1273.16 578.63 1272.83 577.107C1272.41 575.215 1274.86 573.651 1274.57 571.758C1274.44 571.1 1274.03 570.565 1273.57 570.071C1268.97 565.175 1260.39 564.681 1255.25 569.043C1254.63 569.577 1254.05 570.154 1253.68 570.853C1252.68 572.828 1253.43 575.173 1253.18 577.354C1252.93 579.535 1250.53 581.88 1248.78 580.522C1248.16 580.029 1247.91 579.247 1247.71 578.506C1247.13 576.655 1246.42 574.638 1244.81 573.528C1242.73 572.087 1239.87 572.54 1237.43 571.964C1234.77 571.347 1230.5 567.932 1231.04 564.763C1231.54 561.636 1237.68 557.398 1239.83 555.217ZM1385 491.317C1384.63 491.935 1384.01 492.428 1383.59 493.046C1383.22 493.663 1383.18 494.65 1383.84 495.021C1384.42 495.35 1386.49 494.157 1386.99 494.568C1387.28 494.774 1387.32 495.967 1387.41 496.296C1387.86 498.148 1386.99 500.082 1387.07 502.015C1387.12 502.756 1387.16 503.579 1387.7 504.114C1388.03 504.443 1388.48 504.649 1388.94 504.772C1391.18 505.431 1393.71 505.184 1395.78 504.073C1396.4 503.744 1396.94 503.373 1397.6 503.168C1398.35 502.921 1399.14 502.962 1399.88 502.962C1401.5 503.003 1403.12 503.003 1404.73 503.044C1406.27 503.085 1407.84 503.085 1409.29 503.62C1411.03 504.237 1412.49 505.472 1413.98 506.583C1416.96 508.763 1420.32 510.368 1423.64 511.973C1425.13 512.672 1426.62 513.413 1428.11 514.112C1429.4 514.73 1430.73 515.347 1432.13 515.717C1434.33 516.252 1436.61 516.087 1438.85 515.923C1439.22 515.882 1439.68 515.799 1439.76 515.429C1439.8 515.223 1439.72 514.976 1439.64 514.771C1438.97 513.001 1440.67 510.821 1439.68 509.216C1439.06 508.187 1437.57 507.899 1436.98 506.871C1436.45 505.883 1436.9 504.69 1436.9 503.579C1436.9 502.838 1435.78 502.386 1435.45 501.686C1435.12 500.946 1435.62 499.958 1435.24 499.259C1434.83 498.477 1434.08 498.189 1433.79 497.366C1433.54 496.625 1433.83 495.35 1433.71 494.609C1433.5 493.539 1433.67 492.922 1432.84 492.223C1431.76 491.359 1430.14 491.77 1428.74 491.605C1426.99 491.4 1425.21 489.589 1423.8 488.561C1421.65 486.956 1418.46 486.586 1416.01 485.516C1415.39 485.228 1415.59 483.993 1414.93 483.911C1414.1 483.788 1413.27 483.952 1412.44 484.076C1411.99 484.117 1411.82 485.187 1411.37 485.351C1409.79 485.927 1407.84 486.01 1406.35 485.968C1404.53 485.968 1401 485.187 1399.26 485.639C1396.82 486.256 1396.61 486.627 1394.08 487.038C1391.55 487.45 1388.9 486.915 1386.41 487.491C1384.63 487.82 1385.79 490.001 1385 491.317Z" stroke="#D9C5A6" stroke-miterlimit="10"/>
</svg>
