<svg width="62" height="82" viewBox="0 0 62 82" fill="none" xmlns="http://www.w3.org/2000/svg">
<path d="M41.1501 38.5525C42.3053 38.5525 43.4732 38.4263 44.6411 38.1738L46.5453 45.293C45.1235 45.6843 43.7398 46.2776 42.648 46.7573C42.2545 46.934 41.899 47.0855 41.6325 47.1865C41.3913 47.2748 41.1374 47.3758 40.8708 47.4768C38.5476 48.3856 34.2441 50.0644 32.8985 48.5876C31.3497 46.8835 31.959 46.2776 32.2002 46.0504C33.9775 44.2832 37.4051 43.0714 37.9891 42.8695C40.0202 42.6928 41.3786 42.8442 42.3434 42.9831C42.8004 43.0462 43.232 42.7432 43.3082 42.2762C43.3843 41.8218 43.067 41.3926 42.5973 41.3169C41.5182 41.1528 40.0075 40.9887 37.7352 41.1907C37.6717 41.1907 37.6082 41.2033 37.5574 41.2285C37.3797 41.279 33.2412 42.6296 31.0069 44.8386C30.258 45.5707 29.3566 47.1865 31.6544 49.6984C33.7871 52.021 38.4334 50.2159 41.5055 49.0168C41.7721 48.9158 42.026 48.8148 42.2545 48.7264C42.5465 48.6128 42.9146 48.4614 43.3462 48.272C45.5044 47.3379 49.5159 45.6086 51.052 47.2243C51.2043 47.3884 51.3693 47.6661 51.2932 48.0574C51.217 48.4361 50.7854 49.4333 48.4749 50.4558C47.472 50.8975 45.5297 51.9831 43.816 52.9424C43.1685 53.3085 42.5465 53.6619 42.0133 53.9523C40.0583 55.0252 38.7507 56.8429 37.3797 58.7615C35.6405 61.1725 33.8506 63.6591 30.5626 65.0476C29.9914 65.2875 27.0081 66.575 24.0121 68.1402C23.5932 68.3548 23.4409 68.8723 23.6567 69.2763C23.809 69.5666 24.101 69.7307 24.4057 69.7307C24.5326 69.7307 24.6723 69.7054 24.7992 69.6297C27.7317 68.0897 30.6642 66.8275 31.2228 66.6002C34.955 65.0224 36.9735 62.2201 38.7507 59.7461C40.0202 57.9915 41.2135 56.3253 42.8258 55.4417C43.3589 55.1514 43.9937 54.798 44.6411 54.4319C46.3168 53.4978 48.221 52.4249 49.1478 52.021C51.9279 50.7966 52.7404 49.3828 52.9435 48.4109C53.1085 47.5651 52.8673 46.7068 52.2707 46.0883C51.2297 45.0027 49.7698 44.7755 48.2337 44.9649L46.2787 37.7446C54.6827 35.056 59.5828 26.2201 57.2724 17.6492C55.749 11.969 51.0139 5.53138 47.2181 0.343434C47.015 0.0657331 46.6596 -0.0604944 46.3168 0.0278648L25.6371 5.54401C25.2943 5.63237 25.0531 5.92269 25.015 6.2635C24.266 13.1808 23.5932 21.0069 25.0023 26.2453C27.0081 33.6549 33.7744 38.5525 41.1501 38.5525ZM26.6399 7.02087L46.2026 1.80767C49.6809 6.55383 54.2383 12.8778 55.6475 18.091C56.6884 21.941 56.1553 25.9676 54.1495 29.4136C52.1437 32.8596 48.9066 35.3337 45.0346 36.3688C41.1628 37.4038 37.1131 36.8737 33.6474 34.8793C30.4484 33.0364 28.0871 30.1584 26.9319 26.7124C29.5978 28.0125 31.7432 28.5427 33.5332 28.5427C37.3924 28.5427 39.614 26.1065 41.7848 23.7208C44.3491 20.9059 46.7611 18.2425 52.0802 19.0377C52.5373 19.1008 52.9689 18.7853 53.045 18.3309C53.1212 17.8764 52.7911 17.4473 52.3341 17.3715C46.1264 16.4374 43.1558 19.7067 40.5407 22.5973C37.2401 26.2201 34.6376 29.0854 26.3861 24.5286C25.4593 19.732 25.9925 13.0672 26.6399 7.02087Z" fill="#D20E26"/>
<path d="M50.6838 54.1416L50.4807 53.3716C50.3538 52.9172 49.8967 52.6521 49.4397 52.7783C48.9827 52.9046 48.7161 53.359 48.8431 53.8134L49.0462 54.5834C49.0589 55.366 48.9192 61.5764 42.7115 64.2524C42.3053 64.4291 42.1022 64.8836 42.2545 65.3001C42.3814 65.6409 42.6988 65.8681 43.0543 65.8681C43.1304 65.8681 43.2066 65.8555 43.2701 65.8429L53.5528 63.1037C54.0098 62.9775 54.2764 62.5231 54.1495 62.0687C54.0225 61.6143 53.5655 61.3492 53.1085 61.4754L47.472 62.9775C49.4016 60.92 50.2014 58.5091 50.5315 56.7797C52.1183 58.6227 55.127 61.1346 59.7225 61.1346C60.2049 61.1346 60.7127 61.1094 61.2459 61.0462C61.7156 60.9957 62.0456 60.5792 61.9949 60.1122C61.9441 59.6451 61.5251 59.3169 61.0554 59.3674C54.251 60.1374 51.0774 54.8485 50.6838 54.1416Z" fill="#D20E26"/>
<path d="M52.3976 43.0841C51.9787 43.0336 51.4074 42.9452 50.6584 42.8064C50.2014 42.7306 49.7571 43.0336 49.6809 43.488C49.5921 43.9424 49.8967 44.3842 50.3664 44.4599C51.1408 44.5988 51.7375 44.6998 52.1818 44.7503C52.4865 44.7881 52.7785 44.8134 53.045 44.8134C54.0733 44.8134 54.835 44.5357 55.3301 43.9803C55.8887 43.3618 56.0283 42.5034 55.7617 41.4179C55.5586 40.5974 54.7969 39.2972 50.4807 37.5427C50.0491 37.366 49.554 37.5679 49.3763 38.0097C49.1985 38.4515 49.4016 38.9312 49.8333 39.1079C53.6544 40.6605 54.0606 41.6324 54.1114 41.8218C54.1876 42.1121 54.2637 42.6296 54.0606 42.8569C53.8575 43.0967 53.2228 43.185 52.3976 43.0841Z" fill="#D20E26"/>
<path d="M12.4472 58.143C12.5361 58.1682 12.6249 58.1935 12.7138 58.1935C13.0693 58.1935 13.3993 57.9663 13.5136 57.6255C14.2372 55.4922 14.8338 53.4221 15.3416 51.6044C15.8748 49.7362 16.3826 47.9691 16.9285 46.4796C18.2995 42.7811 18.985 40.9256 20.0387 39.8526C21.0796 38.8176 22.6919 38.3505 25.9037 37.4291C26.7161 37.2019 27.5159 36.9873 28.2649 36.7979C28.7219 36.6843 28.9885 36.2299 28.8742 35.7755C28.76 35.3211 28.303 35.056 27.8459 35.1696C27.0716 35.3589 26.2591 35.5862 25.4212 35.826C18.4518 37.8078 18.2741 37.9971 15.3543 45.8863C14.783 47.4263 14.2753 49.2313 13.7294 51.1374C13.1962 53.0308 12.6376 54.9873 11.9267 57.0827C11.7744 57.5245 12.0029 57.9915 12.4472 58.143Z" fill="#D20E26"/>
<path d="M1.44085 65.4894L8.44836 58.5217L23.5932 73.5933L16.5857 80.561C16.2556 80.8892 16.2556 81.4193 16.5857 81.7475C16.7507 81.9116 16.9665 82 17.1824 82C17.3982 82 17.614 81.9116 17.779 81.7475L25.3832 74.1865C25.7132 73.8583 25.7132 73.3282 25.3832 73L9.04501 56.7419C8.71495 56.4137 8.18177 56.4137 7.85171 56.7419L0.247548 64.3029C-0.0825159 64.6311 -0.0825159 65.1613 0.247548 65.4894C0.577611 65.8176 1.11079 65.8176 1.44085 65.4894Z" fill="#D20E26"/>
<path d="M18.8708 73.5933C18.8708 74.0603 18.4899 74.439 18.0202 74.439C17.5505 74.439 17.1697 74.0603 17.1697 73.5933C17.1697 73.1262 17.5505 72.7475 18.0202 72.7475C18.4899 72.7475 18.8708 73.1262 18.8708 73.5933Z" fill="#D20E26"/>
</svg>
