<svg width="21" height="46" viewBox="0 0 21 46" fill="none" xmlns="http://www.w3.org/2000/svg">
<path d="M17.7959 45.6394C17.7959 45.6696 17.7658 45.6999 17.7357 45.6999L10.5069 45.7982L3.27802 45.8889C3.14262 45.8889 3.02979 45.783 3.02979 45.647V45.6394C3.05236 44.218 4.70724 44.0895 6.21921 43.6586C9.29579 42.8042 9.22809 41.3602 9.20553 38.1545C9.10022 31.4484 9.11526 38.1202 9.07765 32.5482C9.02499 25.0633 9.18296 28.0879 4.49662 24.8823C-0.603441 21.3969 -0.513175 16.9211 0.660291 10.8501C1.33729 7.53104 2.63111 3.15353 4.42892 0.242753C4.44396 0.212511 4.48158 0.204951 4.51166 0.220072C4.54175 0.235193 4.54928 0.272995 4.53423 0.295676C3.09749 3.3123 2.11208 7.73517 1.58552 11.0164C0.637724 16.8077 0.82578 20.7845 5.19619 23.8768C10.0631 27.3546 10.1533 24.6248 10.0405 32.5633C9.96527 38.1732 9.97279 31.4938 9.95023 38.1621C9.91261 41.2165 10.0631 43.3108 6.37717 44.2407C5.13601 44.5583 3.78953 44.6868 3.57891 45.3899L17.7432 45.5789C17.7658 45.5789 17.7959 45.6016 17.7959 45.6394ZM20.865 14.0784C20.1503 7.41007 18.1043 2.24628 16.7578 0.129346L16.7503 0.114225C16.7052 0.0386209 16.6224 -0.00674195 16.5322 0.00081851C15.4114 0.0461813 12.3724 0.152028 10.5069 0.272995C12.3423 0.386402 15.2985 0.492248 16.3667 0.537611C17.3897 2.45797 19.2326 7.62176 19.8043 14.1842C20.2933 19.7563 19.3906 21.9488 13.6361 25.404C11.3945 26.7497 11.1086 27.3168 11.1312 30.0007C11.1463 31.9135 11.3719 35.6026 11.4697 37.1903C11.6578 33.9015 11.7029 31.4599 11.7706 30.0159C11.8985 27.5058 12.1166 27.2412 14.0724 26.1827C20.0225 22.9619 21.4968 19.9907 20.865 14.0784Z" fill="white"/>
<path d="M14.5237 11.1827C10.5069 11.1827 10.5069 14.086 6.49001 14.086C4.68468 14.086 3.69174 13.4962 2.78156 12.8536C1.04392 21.1852 7.14444 24.3531 10.3113 24.3531C14.629 24.3531 19.2176 20.6258 18.7512 15.6812C18.4654 12.6495 17.2543 11.1827 14.5237 11.1827Z" fill="white"/>
<path d="M14.7569 11.9237C19.5711 12.2336 19.1574 21.8581 11.6578 23.4685C17.8034 20.966 17.5326 13.6777 14.7569 11.9237Z" fill="white"/>
</svg>
