<svg width="30" height="24" viewBox="0 0 30 24" fill="none" xmlns="http://www.w3.org/2000/svg">
<path d="M23.5217 17.4348V20.4783C23.5217 21.513 22.7304 22.3043 21.7565 22.3043H2.88696C1.85217 22.3043 1 21.513 1 20.4783V8.91304C1 7.87826 1.85217 7.08696 2.88696 7.08696H5.26087M29 12.5652H6.47826M29 8.91304H6.47826M29 2.82609C29 1.7913 28.2087 1 27.2348 1H8.24348C7.26956 1 6.47826 1.7913 6.47826 2.82609V14.3913C6.47826 15.4261 7.26956 16.2174 8.24348 16.2174H27.1739C28.1478 16.2174 28.9391 15.4261 28.9391 14.3913V2.82609H29Z" stroke="#D20E26" stroke-width="2" stroke-miterlimit="10"/>
</svg>
