<svg width="34" height="29" viewBox="0 0 34 29" fill="none" xmlns="http://www.w3.org/2000/svg">
<path d="M17 1L1 9.16327L1.65306 11.8408H4.00408V14.3878H5.3102C5.37551 15.0408 5.89796 15.5633 6.55102 15.6939V22.8122C5.89796 22.9429 5.37551 23.4653 5.3102 24.0531H4.00408V28.1673H29.9959V24.0531H28.4939C28.3633 23.4 27.9061 22.8776 27.2531 22.8122V15.6939C27.9061 15.5633 28.4286 15.0408 28.4939 14.3878H29.9959V11.8408H32.3469L33 9.16327L17 1ZM12.4939 24.1184C12.3633 23.4653 11.9061 22.9429 11.2531 22.8776V15.6939C11.9061 15.5633 12.4286 15.0408 12.4939 14.3878H13.1469C13.2122 15.0408 13.7347 15.5633 14.3878 15.6939V22.8122C13.7347 22.9429 13.2122 23.4653 13.1469 24.0531H12.4939V24.1184ZM20.3959 24.1184C20.2653 23.4653 19.8082 22.9429 19.1551 22.8776V15.6939C19.8082 15.5633 20.3306 15.0408 20.3959 14.3878H21.2449C21.3102 15.0408 21.8327 15.5633 22.4857 15.6939V22.8122C21.8327 22.9429 21.3102 23.4653 21.2449 24.0531H20.3959V24.1184ZM28.6898 13.0816H27.1878V14.1918C27.1878 14.3225 27.1224 14.3878 26.9918 14.3878H25.9469V24.0531H26.9918C27.1224 24.0531 27.1878 24.1184 27.1878 24.249V25.2939H28.6898V26.7959H21.5061V25.2939H22.551V24.249C22.551 24.1184 22.6163 24.0531 22.7469 24.0531H23.7918V14.3878H22.7469C22.6163 14.3878 22.551 14.3225 22.551 14.1918V13.0816H21.5061V12.4939H20.2V13.0816H19.1551V14.1918C19.1551 14.3225 19.0898 14.3878 18.9592 14.3878H17.9143V24.0531H18.9592C19.0898 24.0531 19.1551 24.1184 19.1551 24.249V25.2939H20.2V26.7959H13.4735V25.2939H14.4531V24.249C14.4531 24.1184 14.5184 24.0531 14.649 24.0531H15.6939V14.3878H14.649C14.5184 14.3878 14.4531 14.3225 14.4531 14.1918V13.0816H13.4735V12.4939H12.1673V13.0816H11.1878V14.1918C11.1878 14.3225 11.1224 14.3878 10.9918 14.3878H9.94694V24.0531H10.9918C11.1224 24.0531 11.1878 24.1184 11.1878 24.249V25.2939H12.1673V26.7959H5.3102V25.2939H6.61633V24.249C6.61633 24.1184 6.68163 24.0531 6.81224 24.0531H7.85714V14.3878H6.81224C6.68163 14.3878 6.61633 14.3225 6.61633 14.1918V13.0816H5.3102V11.9061H28.6898V13.0816ZM31.302 10.5347H2.69796L2.50204 9.81633L17 2.43673L31.498 9.81633L31.302 10.5347ZM14.1918 6.87755C14.1918 8.4449 15.4327 9.68571 17 9.68571C18.5673 9.68571 19.8082 8.4449 19.8082 6.87755C19.8082 5.3102 18.5673 4.06939 17 4.06939C15.4327 4.06939 14.1918 5.37551 14.1918 6.87755ZM18.698 6.87755C18.698 7.85714 17.9143 8.64082 16.9347 8.64082C15.9551 8.64082 15.1714 7.85714 15.1714 6.87755C15.1714 5.89796 15.9551 5.11429 16.9347 5.11429C17.9143 5.11429 18.698 5.89796 18.698 6.87755Z" fill="#D52237" stroke="#D52237" stroke-width="0.4"/>
</svg>
