<svg width="14" height="27" viewBox="0 0 14 27" fill="none" xmlns="http://www.w3.org/2000/svg">
<path d="M5.9322 26.25C2.64972 26.25 0 23.6521 0 20.4339C0 18.4177 1.0678 16.5565 2.76836 15.5096V3.21824C2.76836 1.43464 4.27119 0 6.05085 0C6.9209 0 7.75141 0.348966 8.38418 0.930576C8.9774 1.55096 9.33333 2.32644 9.33333 3.21824V15.6647C10.9153 16.7504 11.904 18.534 11.904 20.4339C11.8644 23.6521 9.21469 26.25 5.9322 26.25ZM6.05085 1.55096C5.14124 1.55096 4.35028 2.28767 4.35028 3.21824V15.9749C4.35028 16.2463 4.19209 16.5177 3.91525 16.6728C2.45198 17.4095 1.54237 18.8829 1.54237 20.4727C1.54237 22.8379 3.48023 24.7378 5.89265 24.7378C8.30508 24.7378 10.2429 22.8379 10.2429 20.4727C10.2429 18.9605 9.41243 17.5646 8.0678 16.7891C7.83051 16.634 7.67232 16.4014 7.67232 16.13V3.21824C7.67232 2.79173 7.51412 2.36521 7.19774 2.05502C6.9209 1.70606 6.52542 1.55096 6.05085 1.55096Z" fill="#D20E26"/>
<path d="M6.05085 23.7685C4.15254 23.7685 2.64972 22.2563 2.64972 20.4339C2.64972 18.5727 4.19209 17.0993 6.05085 17.0993C7.94915 17.0993 9.45198 18.6115 9.45198 20.4339C9.49153 22.2951 7.94915 23.7685 6.05085 23.7685ZM6.05085 18.6115C5.0226 18.6115 4.23164 19.4258 4.23164 20.3951C4.23164 21.4032 5.06215 22.1787 6.05085 22.1787C7.0791 22.1787 7.87006 21.3645 7.87006 20.3951C7.9096 19.4258 7.0791 18.6115 6.05085 18.6115Z" fill="#D20E26"/>
<path d="M6.84181 11.3996H5.25989V17.8748H6.84181V11.3996Z" fill="#D20E26"/>
<path d="M14 3.8774H11.5085V5.42836H14V3.8774Z" fill="#D20E26"/>
<path d="M14 7.21197H11.5085V8.76293H14V7.21197Z" fill="#D20E26"/>
<path d="M14 10.5465H11.5085V12.0975H14V10.5465Z" fill="#D20E26"/>
</svg>
