<svg width="13" height="33" viewBox="0 0 13 33" fill="none" xmlns="http://www.w3.org/2000/svg">
<path d="M1 18.5217H8.5625V27.2826H1M4.4375 8.41304H8.5625M7.875 1C8.2875 1 8.5625 1.26957 8.5625 1.67391V9.76087C8.5625 10.9065 9.59375 11.3783 10.4875 12.1196C11.6563 13.1304 12 14.2087 12 16.5V30.6522C12 31.3935 11.3813 32 10.625 32H2.375C1.61875 32 1 31.3935 1 30.6522V16.5C1 14.2087 1.34375 13.1304 2.5125 12.1196C3.40625 11.3783 4.4375 10.9065 4.4375 9.76087V1.67391C4.4375 1.26957 4.7125 1 5.125 1H7.875Z" stroke="#D20E26" stroke-width="1.7" stroke-miterlimit="10"/>
</svg>
