<svg width="20" height="30" viewBox="0 0 20 30" fill="none" xmlns="http://www.w3.org/2000/svg">
<path d="M6.4 4.97521C4.96 4.73719 3.4 4.97521 3.4 4.97521C3.4 4.97521 3.76 7.95041 5.56 9.08099C7.18 10.1521 8.86 9.55703 10 8.54546C11.08 9.61653 12.58 10.1521 14.26 9.08099C16 7.95041 16.6 4.97521 16.6 4.97521C16.6 4.97521 13.9 4.8562 12.4 5.57025C11.62 5.92727 11.02 6.64132 10.6 7.35537M11.8 4.38017C11.26 2.89256 10 2 10 2C10 2 7.6 3.4876 7.6 5.57025C7.6 6.22479 7.9 6.87934 8.2 7.41488M12.4 25.8017C12.4 27.1162 11.3255 28.1818 10 28.1818C8.67452 28.1818 7.6 27.1162 7.6 25.8017C7.6 24.4871 8.67452 23.4215 10 23.4215C11.3255 23.4215 12.4 24.4871 12.4 25.8017ZM8.8 19.8512C8.8 21.1658 7.72548 22.2314 6.4 22.2314C5.07452 22.2314 4 21.1658 4 19.8512C4 18.5367 5.07452 17.4711 6.4 17.4711C7.72548 17.4711 8.8 18.5367 8.8 19.8512ZM15.4 19.8512C15.4 21.1658 14.3255 22.2314 13 22.2314C11.6745 22.2314 10.6 21.1658 10.6 19.8512C10.6 18.5367 11.6745 17.4711 13 17.4711C14.3255 17.4711 15.4 18.5367 15.4 19.8512ZM12.4 13.9008C12.4 15.2154 11.3255 16.281 10 16.281C8.67452 16.281 7.6 15.2154 7.6 13.9008C7.6 12.5863 8.67452 11.5207 10 11.5207C11.3255 11.5207 12.4 12.5863 12.4 13.9008ZM19 13.9008C19 15.2154 17.9255 16.281 16.6 16.281C15.2745 16.281 14.2 15.2154 14.2 13.9008C14.2 12.5863 15.2745 11.5207 16.6 11.5207C17.9255 11.5207 19 12.5863 19 13.9008ZM5.8 13.9008C5.8 15.2154 4.72548 16.281 3.4 16.281C2.07452 16.281 1 15.2154 1 13.9008C1 12.5863 2.07452 11.5207 3.4 11.5207C4.72548 11.5207 5.8 12.5863 5.8 13.9008Z" stroke="#D42237" stroke-width="1.7" stroke-miterlimit="10"/>
</svg>
