<svg width="23" height="30" viewBox="0 0 23 30" fill="none" xmlns="http://www.w3.org/2000/svg">
<path d="M13.7685 18.1654L17.0093 23.6128M15.5185 9.23434H4.5M22 24.4995C21.9352 23.7394 21.287 23.2327 20.5093 23.3594C19.2778 23.5494 17.5278 23.8028 17.0093 23.6761C16.8796 24.1828 15.7778 25.513 15 26.4631C14.4815 27.0332 14.6759 27.92 15.2593 28.3L22 24.4995ZM9.10185 1C9.10185 1 6.76852 1.63341 4.69444 2.77355C2.68519 3.97703 1 5.56056 1 5.56056C1.90741 8.28422 2.94444 12.5281 4.43519 15.0617C5.14815 16.2652 6.31481 17.532 8.51852 17.532C10.6574 17.532 12.4074 16.2652 14.0926 18.6722C12.7963 16.0118 14.8704 15.1884 15.9074 13.3515C17.0093 11.5146 16.4259 9.86775 15.7778 8.66427C14.287 6.13063 11.0463 3.1536 9.10185 1Z" stroke="#D52237" stroke-width="1.7" stroke-miterlimit="10"/>
</svg>
