<svg width="10" height="20" viewBox="0 0 10 20" fill="none" xmlns="http://www.w3.org/2000/svg">
<path d="M2.85244 4.16933C2.85244 4.65145 2.85244 6.81206 2.85244 6.81206H0.90625V10.0441H2.85244V19.6508H6.84795V10.0441H9.52957C9.52957 10.0441 9.78069 8.49502 9.90177 6.79867C9.55199 6.79867 6.86141 6.79867 6.86141 6.79867C6.86141 6.79867 6.86141 4.91929 6.86141 4.58895C6.86141 4.25861 7.29639 3.8122 7.72688 3.8122C8.15737 3.8122 9.0632 3.8122 9.90625 3.8122C9.90625 3.37026 9.90625 1.85247 9.90625 0.446289C8.78517 0.446289 7.50715 0.446289 6.94661 0.446289C2.75378 0.450753 2.85244 3.68721 2.85244 4.16933Z" fill="#676767"/>
</svg>
