<svg width="19" height="19" viewBox="0 0 19 19" fill="none" xmlns="http://www.w3.org/2000/svg">
<path d="M18.7918 8.97617C18.7918 8.996 18.7918 9.01252 18.7918 9.03235C18.7918 9.05218 18.7918 9.06871 18.7918 9.08854C18.7918 9.10837 18.7918 9.12489 18.7918 9.14472C18.7918 9.16455 18.7918 9.18438 18.7918 9.2009C18.7918 10.4436 18.5374 11.63 18.0781 12.7074C17.6188 13.7848 16.9546 14.7565 16.1351 15.5695C15.3157 16.3858 14.3376 17.0435 13.2504 17.4996C12.1666 17.9556 10.9704 18.2068 9.71809 18.2068C9.32157 18.2068 8.92835 18.1804 8.54504 18.1308C8.16174 18.0812 7.78504 18.0085 7.41826 17.9127C7.05148 17.8168 6.6913 17.6979 6.34435 17.5591C5.99739 17.4202 5.66035 17.2616 5.33322 17.0831L0.310609 18.6827L0.726956 17.4764L1.95617 13.8476C1.748 13.5072 1.56626 13.1536 1.40435 12.7867C1.24243 12.4199 1.10696 12.0398 0.994609 11.6499C0.882261 11.2599 0.799652 10.86 0.740174 10.4502C0.684 10.0404 0.654261 9.62063 0.654261 9.1976C0.654261 9.16455 0.654261 9.1315 0.654261 9.09845C0.654261 9.0654 0.654261 9.03235 0.657565 8.9993C0.657565 8.96625 0.66087 8.93321 0.66087 8.90016C0.66087 8.86711 0.664174 8.83406 0.664174 8.80101C0.717043 7.60463 1.00452 6.46773 1.48365 5.4366C1.96278 4.40546 2.63026 3.48008 3.44643 2.70343C4.26261 1.92677 5.22087 1.29883 6.28487 0.86589C7.34887 0.432945 8.50539 0.2016 9.7247 0.2016C10.9572 0.2016 12.1336 0.446165 13.2075 0.889024C14.2781 1.33188 15.2463 1.97304 16.0657 2.76622C16.8819 3.5594 17.5494 4.50461 18.0219 5.55557C18.4878 6.60324 18.7621 7.75996 18.7918 8.97617ZM9.7247 16.7758C10.7755 16.7758 11.78 16.5643 12.692 16.1809C13.604 15.7975 14.4268 15.2423 15.1174 14.5582C15.808 13.8741 16.3664 13.0577 16.753 12.1522C17.1397 11.2467 17.3544 10.2519 17.3544 9.20751C17.3544 9.15794 17.3544 9.10837 17.3511 9.05879C17.3511 9.00922 17.3478 8.95965 17.3445 8.91007C17.3412 8.8605 17.3379 8.81092 17.3379 8.76135C17.3346 8.71178 17.3313 8.6622 17.328 8.61593C17.252 7.64098 16.9877 6.71891 16.5746 5.87946C16.1616 5.04331 15.5965 4.29309 14.9158 3.66185C14.2351 3.03392 13.4388 2.52496 12.5631 2.17794C11.6875 1.83093 10.7292 1.63594 9.728 1.63594C8.74 1.63594 7.79165 1.82432 6.92591 2.16472C6.05687 2.50513 5.26713 3.00087 4.58974 3.61559C3.91235 4.2303 3.344 4.9673 2.92435 5.78692C2.5047 6.60654 2.23043 7.51539 2.13791 8.47052C2.1313 8.53 2.128 8.5928 2.12139 8.65229C2.11809 8.71178 2.11148 8.77457 2.11148 8.83406C2.10817 8.89355 2.10487 8.95634 2.10487 9.01913C2.10487 9.08193 2.10157 9.14142 2.10157 9.20421C2.10157 9.61732 2.13461 10.0238 2.2007 10.4204C2.26678 10.817 2.36261 11.2037 2.48487 11.5771C2.61043 11.9506 2.76243 12.3108 2.94087 12.6579C3.1193 13.0016 3.32417 13.3321 3.55217 13.646L3.31426 14.35L3.07304 15.0473L2.59722 16.4552L5.53148 15.5166C5.83217 15.7149 6.14939 15.8934 6.47652 16.0454C6.80696 16.2007 7.1473 16.3329 7.50087 16.4387C7.85443 16.5444 8.21461 16.6271 8.588 16.6832C8.95809 16.746 9.33809 16.7758 9.7247 16.7758Z" fill="#676767"/>
<path d="M0 19L1.73478 13.8774C1.54313 13.5535 1.368 13.2164 1.2193 12.876C1.05409 12.4992 0.915304 12.1092 0.802956 11.716C0.687304 11.3161 0.601391 10.9029 0.545217 10.4898C0.485739 10.0668 0.456 9.63715 0.456 9.20751C0.456 9.17447 0.456 9.13811 0.456 9.10506C0.456 9.07201 0.456 9.03566 0.459304 9.00261C0.459304 8.96956 0.462609 8.93651 0.462609 8.90016C0.462609 8.86711 0.465913 8.83406 0.465913 8.80101C0.518783 7.60463 0.799652 6.4446 1.30191 5.36058C1.78435 4.30631 2.46174 3.36772 3.30435 2.56132C4.15026 1.75491 5.12504 1.12367 6.20556 0.684119C7.32243 0.231345 8.50539 0 9.7247 0C10.9572 0 12.1534 0.23465 13.2835 0.700644C14.3739 1.15011 15.3553 1.79457 16.2045 2.6175C17.0504 3.44042 17.7245 4.39885 18.2037 5.46965C18.6993 6.5768 18.967 7.75335 18.9967 8.96956L19 9.08523C19 9.10506 19 9.12489 19 9.14472C19 9.16455 19 9.18438 19 9.20421C19 10.4469 18.7555 11.6532 18.2697 12.7901C17.8038 13.8873 17.133 14.8722 16.2838 15.7149C15.4313 16.561 14.44 17.2253 13.3363 17.6879C12.193 18.1672 10.977 18.4117 9.728 18.4117C9.32817 18.4117 8.92504 18.3853 8.52852 18.3357C8.14191 18.2861 7.752 18.2101 7.3753 18.111C7.00522 18.0151 6.63513 17.8929 6.27826 17.7507C5.95443 17.6218 5.63061 17.4698 5.32 17.3046L0 19ZM9.7247 0.403201C8.55826 0.403201 7.42487 0.62463 6.35756 1.06088C5.32661 1.48061 4.39148 2.08541 3.58191 2.85545C2.77565 3.6255 2.128 4.52444 1.66209 5.52914C1.18296 6.56688 0.912 7.67072 0.862435 8.81753C0.862435 8.85058 0.85913 8.88363 0.85913 8.91668C0.85913 8.94973 0.855826 8.98278 0.855826 9.01252C0.855826 9.04557 0.855826 9.07862 0.852522 9.10837C0.852522 9.14142 0.852522 9.17116 0.852522 9.20421C0.852522 9.61402 0.882261 10.0271 0.938435 10.4303C0.994609 10.8269 1.07722 11.2202 1.18626 11.6036C1.292 11.9803 1.42748 12.3538 1.58609 12.714C1.74139 13.0677 1.92313 13.418 2.1247 13.7485L2.17426 13.8278L0.634435 18.3754L5.35965 16.8716L5.43565 16.9146C5.75287 17.0898 6.08661 17.2451 6.42365 17.3806C6.764 17.5161 7.11757 17.6318 7.47443 17.7243C7.83461 17.8168 8.208 17.8895 8.57809 17.9391C8.95478 17.9887 9.34139 18.0118 9.7247 18.0118C10.9242 18.0118 12.084 17.7805 13.1777 17.3211C14.2351 16.8782 15.1835 16.2437 15.9963 15.434C16.8125 14.6243 17.4503 13.6824 17.8963 12.6347C18.359 11.5507 18.5936 10.3973 18.5936 9.20751C18.5936 9.19099 18.5936 9.17116 18.5936 9.15464C18.5936 9.13481 18.5936 9.11828 18.5936 9.09845L18.5903 8.98608C18.5605 7.82275 18.3061 6.69577 17.8336 5.6382C17.3743 4.61367 16.7332 3.69821 15.9237 2.91164C15.1108 2.12507 14.1723 1.50704 13.1315 1.0774C12.051 0.627935 10.9043 0.403201 9.7247 0.403201ZM9.7247 16.9741C9.33478 16.9741 8.94156 16.9443 8.55496 16.8882C8.17826 16.832 7.80157 16.746 7.43809 16.637C7.08122 16.5279 6.72765 16.3924 6.3873 16.2338C6.08 16.0884 5.78261 15.9264 5.49843 15.7413L2.2767 16.7659L3.32417 13.6758C3.1127 13.3816 2.92435 13.0677 2.75583 12.7471C2.57078 12.3902 2.41217 12.0167 2.28661 11.6399C2.15774 11.2533 2.05861 10.8534 1.99252 10.4535C1.92643 10.0437 1.89009 9.62393 1.89009 9.20421C1.89009 9.14142 1.89009 9.07862 1.89339 9.01252C1.89339 8.94973 1.8967 8.88694 1.9 8.82414C1.9033 8.76135 1.90661 8.69856 1.91322 8.63576C1.91652 8.57297 1.92313 8.51018 1.92974 8.45069C2.02226 7.48565 2.29652 6.55697 2.736 5.69438C3.16557 4.85493 3.74052 4.10471 4.44435 3.46686C5.15148 2.82571 5.95774 2.32336 6.8433 1.97634C7.75861 1.61611 8.72678 1.43434 9.72139 1.43434C10.7259 1.43434 11.704 1.62272 12.6325 1.98956C13.528 2.3465 14.3409 2.85876 15.048 3.51313C15.7551 4.1642 16.3268 4.93094 16.753 5.78692C17.1892 6.66933 17.4503 7.61454 17.5263 8.5961C17.5296 8.64568 17.5329 8.69525 17.5362 8.74483C17.5395 8.7944 17.5428 8.84397 17.5461 8.89685C17.5494 8.94643 17.5494 8.9993 17.5527 9.04888C17.5527 9.09845 17.556 9.15133 17.556 9.2009C17.556 10.2486 17.3478 11.2665 16.9381 12.2249C16.5416 13.1503 15.9765 13.9798 15.2595 14.697C14.5391 15.4109 13.7031 15.9727 12.7713 16.3627C11.8031 16.7692 10.7788 16.9741 9.7247 16.9741ZM5.55791 15.3018L5.63722 15.3547C5.9313 15.5464 6.24191 15.7215 6.55913 15.8702C6.87965 16.0223 7.2167 16.1512 7.55374 16.2536C7.89739 16.3594 8.25426 16.4387 8.61113 16.4916C8.97461 16.5477 9.348 16.5742 9.72139 16.5742C10.7226 16.5742 11.6941 16.3792 12.6094 15.9925C13.495 15.6191 14.288 15.087 14.972 14.4095C15.656 13.732 16.1913 12.9421 16.5647 12.0663C16.9513 11.1574 17.1496 10.1924 17.1496 9.2009C17.1496 9.15464 17.1496 9.10506 17.1463 9.05879C17.1463 9.00922 17.143 8.96295 17.1397 8.91338C17.1363 8.8638 17.1363 8.81753 17.133 8.76796C17.1297 8.71839 17.1264 8.67212 17.1231 8.62254C17.0504 7.69386 16.8026 6.79823 16.3896 5.96208C15.9864 5.14907 15.4445 4.42199 14.7737 3.80397C14.0997 3.18264 13.3297 2.69682 12.4805 2.35641C11.6016 2.00609 10.673 1.82762 9.72139 1.82762C8.77965 1.82762 7.86104 1.99948 6.992 2.34319C6.1527 2.67368 5.38609 3.14959 4.71861 3.7577C4.05113 4.3625 3.50591 5.07306 3.09948 5.86954C2.67983 6.68916 2.42209 7.56827 2.33287 8.48374C2.32626 8.54323 2.32296 8.60271 2.31635 8.6622C2.31304 8.72169 2.30974 8.78118 2.30643 8.84067C2.30313 8.90016 2.29983 8.95965 2.29983 9.01913C2.29983 9.07862 2.29652 9.13811 2.29652 9.1976C2.29652 9.59419 2.32957 9.99409 2.39235 10.3808C2.45513 10.7608 2.54765 11.1409 2.66991 11.5044C2.78887 11.8647 2.94087 12.2183 3.1127 12.5554C3.28452 12.8892 3.48609 13.2131 3.70748 13.5171L3.77026 13.6031L2.91113 16.1379L5.55791 15.3018Z" fill="#676767"/>
<path d="M13.6205 11.0219C13.6767 11.0484 13.7263 11.0748 13.7725 11.0946C13.8188 11.1178 13.8584 11.1376 13.8948 11.1574C13.9311 11.1772 13.9609 11.1971 13.9873 11.2169C14.0137 11.2367 14.0336 11.2566 14.0468 11.2797C14.06 11.3028 14.0699 11.3491 14.0765 11.4119C14.0798 11.4747 14.0798 11.554 14.0732 11.6465C14.0666 11.7391 14.0501 11.8448 14.0237 11.9605C13.9972 12.0762 13.9642 12.2018 13.9179 12.3307C13.8717 12.4596 13.7791 12.5885 13.6635 12.7074C13.5445 12.8264 13.4024 12.9388 13.2504 13.0346C13.0984 13.1305 12.9431 13.2131 12.7977 13.2726C12.6523 13.3321 12.5202 13.3717 12.4177 13.3783C12.3153 13.3882 12.2393 13.4147 12.1468 13.4312C12.0543 13.451 11.9452 13.4643 11.78 13.4477C11.6148 13.4312 11.3901 13.3882 11.063 13.2891C10.7391 13.1933 10.3129 13.0445 9.74783 12.8231C9.18278 12.6017 8.67061 12.291 8.21461 11.9506C7.76191 11.6069 7.3687 11.2334 7.04157 10.8798C6.71444 10.5262 6.4567 10.199 6.27165 9.94782C6.08661 9.69664 5.97757 9.52809 5.94783 9.48843C5.928 9.45869 5.88174 9.3992 5.81896 9.30997C5.75948 9.22073 5.68348 9.10837 5.60417 8.97287C5.52487 8.83736 5.43896 8.68203 5.36296 8.51018C5.28365 8.33832 5.21096 8.15324 5.15478 7.95825C5.13826 7.89877 5.12174 7.83597 5.10852 7.77648C5.0953 7.71369 5.08209 7.6509 5.07217 7.5881C5.06226 7.52531 5.05565 7.46251 5.04904 7.39972C5.04243 7.33693 5.03913 7.27083 5.03913 7.20804C5.03913 6.93703 5.07548 6.69908 5.13165 6.49417C5.18783 6.28927 5.26713 6.11411 5.35304 5.96539C5.43896 5.81666 5.52817 5.69438 5.61078 5.59854C5.69339 5.5027 5.76609 5.42668 5.81896 5.3705C5.86852 5.31432 5.9247 5.27135 5.97756 5.235C6.03043 5.19864 6.0833 5.1722 6.13617 5.14907C6.18904 5.12924 6.23861 5.11602 6.28487 5.10611C6.33113 5.09619 6.37409 5.09289 6.41374 5.09289C6.45009 5.09289 6.48643 5.09289 6.52278 5.09619C6.55913 5.0995 6.59548 5.0995 6.63183 5.1028C6.66817 5.10611 6.70452 5.10611 6.73757 5.10941C6.77061 5.11272 6.80696 5.11272 6.84 5.11272C6.87304 5.11272 6.90609 5.10941 6.94574 5.10941C6.98539 5.10941 7.02504 5.11272 7.068 5.13254C7.11096 5.15237 7.15391 5.18212 7.20017 5.2383C7.24643 5.29449 7.2927 5.3705 7.33896 5.48287C7.38522 5.59193 7.448 5.74396 7.51739 5.9092C7.58678 6.07445 7.66278 6.25622 7.73217 6.42477C7.80157 6.59663 7.87096 6.75526 7.92383 6.87754C7.9767 7.00313 8.01635 7.08906 8.02956 7.1188C8.04278 7.14524 8.056 7.17499 8.06591 7.20473C8.07583 7.23448 8.08243 7.26752 8.08574 7.29727C8.08904 7.33032 8.08904 7.36337 8.08243 7.39642C8.07583 7.42947 8.06591 7.46582 8.04609 7.50217C8.03287 7.52861 8.02296 7.55175 8.00974 7.57488C7.99983 7.59802 7.98661 7.62115 7.9767 7.64098C7.96678 7.66081 7.95356 7.68395 7.94365 7.70377C7.93043 7.7236 7.92052 7.74343 7.9073 7.76326C7.9007 7.77318 7.89409 7.77979 7.89078 7.7897C7.88417 7.79962 7.87756 7.80623 7.87096 7.81614C7.86435 7.82606 7.85774 7.83267 7.85113 7.84258C7.84452 7.8525 7.83461 7.86241 7.828 7.86902C7.80156 7.90207 7.77183 7.93512 7.74539 7.96817C7.71565 8.00122 7.68922 8.03757 7.65948 8.07062C7.62974 8.10367 7.6033 8.13672 7.57687 8.16977C7.55043 8.19951 7.524 8.22926 7.49756 8.25239C7.47113 8.27883 7.44139 8.30858 7.41826 8.33832C7.39513 8.36806 7.372 8.40111 7.35878 8.43747C7.34556 8.47382 7.33896 8.51348 7.34557 8.55644C7.35217 8.59941 7.3687 8.64898 7.40174 8.70517C7.43478 8.76135 7.48765 8.84728 7.55704 8.95634C7.62643 9.0654 7.71565 9.19429 7.82139 9.3331C7.92713 9.47521 8.04939 9.62724 8.18487 9.77927C8.32035 9.93129 8.47235 10.0866 8.64087 10.2353C8.85235 10.4237 9.05722 10.5791 9.24887 10.7079C9.44052 10.8368 9.61565 10.9393 9.77096 11.0252C9.92626 11.1078 10.065 11.1706 10.1774 11.2202C10.2897 11.2698 10.3757 11.3028 10.4318 11.3326C10.488 11.359 10.5376 11.3788 10.5838 11.3921C10.6301 11.4053 10.6697 11.4086 10.7094 11.402C10.749 11.3987 10.7821 11.3855 10.8184 11.3623C10.8515 11.3425 10.8845 11.3128 10.9176 11.2764C10.9506 11.24 11.0002 11.1806 11.063 11.1111C11.1224 11.0417 11.1951 10.9591 11.2645 10.8732C11.3339 10.7873 11.4066 10.7013 11.4694 10.622C11.5322 10.5427 11.5883 10.47 11.6247 10.4138C11.661 10.3576 11.7007 10.318 11.737 10.2915C11.7734 10.2651 11.813 10.2519 11.8527 10.2453C11.8923 10.242 11.9353 10.2453 11.9816 10.2552C12.0278 10.2651 12.0741 10.2816 12.1237 10.3014C12.1732 10.318 12.279 10.3675 12.4144 10.427C12.5499 10.4898 12.7118 10.5658 12.8737 10.6452C13.0357 10.7245 13.2009 10.8038 13.3397 10.8699C13.452 10.9393 13.5643 10.9922 13.6205 11.0219Z" fill="#676767"/>
<path d="M11.9188 13.6559C11.8692 13.6559 11.8163 13.6526 11.7569 13.6493C11.5586 13.6295 11.3108 13.5766 11.0035 13.4841C10.6499 13.3783 10.2137 13.2263 9.67513 13.0148C9.13983 12.8066 8.60783 12.5025 8.09565 12.1158C7.68261 11.8052 7.27948 11.4383 6.89617 11.0219C6.62191 10.7245 6.35756 10.4072 6.10974 10.0734C5.98087 9.89824 5.88835 9.76274 5.83217 9.68012C5.81235 9.65037 5.79583 9.62724 5.78922 9.61732L5.78261 9.61071C5.75948 9.57767 5.71322 9.51818 5.65374 9.43225C5.57443 9.31988 5.49844 9.2009 5.42904 9.08193C5.33652 8.92329 5.25061 8.76135 5.17791 8.59941C5.0887 8.40442 5.016 8.20612 4.95983 8.01774C4.94 7.95164 4.92348 7.88555 4.91026 7.82275C4.89374 7.75665 4.88052 7.68725 4.87061 7.62446C4.8607 7.55505 4.85078 7.48565 4.84417 7.41955C4.83757 7.35015 4.83426 7.27744 4.83426 7.21134C4.83426 6.94364 4.8673 6.68255 4.93339 6.4446C4.98957 6.243 5.06887 6.04801 5.1713 5.86954C5.25061 5.73074 5.33983 5.60184 5.44887 5.47295C5.51496 5.39694 5.57443 5.33415 5.6207 5.28457C5.63722 5.26805 5.65043 5.25152 5.66365 5.2383C5.72313 5.17551 5.78591 5.11933 5.8553 5.07306C5.91809 5.03009 5.98417 4.99374 6.05357 4.9673C6.11304 4.94416 6.17583 4.92433 6.24191 4.91442C6.29809 4.9045 6.35426 4.8979 6.40713 4.8979C6.44348 4.8979 6.48313 4.8979 6.52609 4.9012C6.56243 4.90451 6.60209 4.90451 6.63843 4.90781C6.67478 4.91112 6.70783 4.91111 6.74087 4.91442C6.78383 4.91772 6.82348 4.91772 6.86643 4.91442C6.88956 4.91442 6.9127 4.91112 6.93583 4.91112C7.00852 4.91112 7.07461 4.92433 7.13739 4.95077C7.21339 4.98382 7.28278 5.04001 7.34557 5.11272C7.40835 5.18873 7.46122 5.28457 7.51409 5.40685C7.56035 5.51592 7.62313 5.66794 7.69252 5.83319L7.74209 5.95547C7.79496 6.08436 7.85113 6.21986 7.9073 6.34876C7.9767 6.51731 8.04609 6.67925 8.09565 6.80153C8.17165 6.97669 8.18817 7.01966 8.19478 7.02957C8.21461 7.07253 8.23113 7.10889 8.24435 7.14524C8.26087 7.19151 8.27078 7.23778 8.27409 7.28074C8.28069 7.33362 8.27739 7.3865 8.26748 7.43608C8.25756 7.49226 8.23774 7.54514 8.2113 7.59802L8.17496 7.67073C8.16174 7.69386 8.15183 7.71699 8.13861 7.74013C8.12539 7.76326 8.11548 7.7864 8.10226 7.80953C8.08904 7.83267 8.07583 7.8558 8.0593 7.87894L8.056 7.88224C8.04939 7.89216 8.04278 7.90207 8.03617 7.91198C8.02956 7.9219 8.01965 7.93181 8.01304 7.94173C8.00643 7.95164 7.99652 7.96156 7.98661 7.97478C7.9767 7.98469 7.97009 7.99461 7.96017 8.00783C7.93374 8.03757 7.9073 8.07062 7.88087 8.10367L7.86765 8.12019C7.84452 8.14994 7.81809 8.17968 7.79496 8.20943C7.76522 8.24578 7.73548 8.27883 7.70574 8.31188C7.6727 8.34823 7.64296 8.37798 7.61652 8.40442C7.59339 8.42755 7.57026 8.45069 7.55374 8.47382C7.54052 8.49035 7.53061 8.50357 7.5273 8.51679C7.524 8.5234 7.524 8.53001 7.524 8.53992C7.524 8.54983 7.53061 8.57297 7.55374 8.60932C7.6 8.68864 7.64957 8.76796 7.70574 8.85389C7.78504 8.97947 7.87426 9.10176 7.96348 9.22073C8.07583 9.37276 8.19478 9.51818 8.31704 9.65368C8.45913 9.81562 8.60783 9.96104 8.75322 10.0899C8.94156 10.2585 9.13983 10.4105 9.34139 10.546C9.5033 10.6584 9.67513 10.7608 9.84365 10.8501C10.0056 10.936 10.1443 10.9988 10.2369 11.0384C10.2798 11.0583 10.3162 11.0715 10.3492 11.088C10.4087 11.1145 10.4583 11.1343 10.4979 11.1541C10.5442 11.1772 10.5805 11.1905 10.6103 11.1971C10.6301 11.2037 10.6466 11.2037 10.6631 11.2037C10.6697 11.2037 10.6763 11.2004 10.6896 11.1938C10.7061 11.1839 10.7226 11.1673 10.7424 11.1475C10.7755 11.1111 10.825 11.055 10.8845 10.9823C10.944 10.9129 11.0134 10.8302 11.0828 10.7476C11.1588 10.6551 11.2282 10.5724 11.2843 10.4997C11.3504 10.4171 11.4 10.351 11.4297 10.3047C11.4793 10.2287 11.5322 10.1726 11.5917 10.1329C11.6544 10.0899 11.7271 10.0602 11.7998 10.0536C11.8593 10.047 11.9254 10.0503 11.9948 10.0668C12.051 10.08 12.1071 10.0998 12.16 10.1197C12.193 10.1329 12.2624 10.1593 12.4673 10.2519C12.5896 10.3081 12.7449 10.3808 12.9299 10.47C13.0951 10.5493 13.257 10.6286 13.3958 10.6947C13.5346 10.7608 13.6437 10.817 13.6998 10.8435C13.7395 10.8633 13.7791 10.8798 13.8122 10.8996L13.8485 10.9162C13.8981 10.9393 13.941 10.9624 13.9807 10.9823C14.0303 11.0087 14.0666 11.0318 14.0997 11.0583C14.1459 11.0946 14.179 11.131 14.2054 11.1739L14.2087 11.1772C14.2384 11.2301 14.2583 11.2995 14.2649 11.3954C14.2715 11.4714 14.2682 11.5639 14.2616 11.6631C14.2517 11.7721 14.2351 11.8878 14.2087 12.0035C14.179 12.1357 14.1426 12.2679 14.0963 12.3968C14.0435 12.5455 13.941 12.6975 13.7957 12.8462C13.6734 12.9718 13.5214 13.0908 13.3496 13.2032C13.1943 13.3023 13.0257 13.3915 12.8638 13.4576C12.7482 13.5039 12.5763 13.5634 12.4243 13.5799C12.3715 13.5865 12.3219 13.5965 12.269 13.6097C12.2393 13.6163 12.2096 13.6229 12.1765 13.6295C12.1203 13.6427 12.0344 13.6559 11.9188 13.6559ZM6.41043 5.29449C6.3807 5.29449 6.35096 5.29779 6.31791 5.3044C6.28157 5.31101 6.24191 5.32093 6.20556 5.33745C6.16261 5.35397 6.12296 5.37711 6.0833 5.40024C6.04035 5.42999 5.99739 5.46634 5.96104 5.506C5.94783 5.52253 5.9313 5.53575 5.91478 5.55557C5.87183 5.60184 5.81565 5.66133 5.75948 5.72743C5.66696 5.83649 5.58765 5.94886 5.52157 6.06453C5.43565 6.21656 5.36626 6.3785 5.32 6.54705C5.26383 6.75196 5.23409 6.97339 5.23409 7.20804C5.23409 7.26422 5.23739 7.32371 5.2407 7.3832C5.244 7.43938 5.25391 7.49887 5.26383 7.55836C5.27374 7.61454 5.28365 7.67403 5.29687 7.73352C5.31009 7.7897 5.3233 7.84589 5.33983 7.90537C5.38939 8.07393 5.45548 8.25239 5.53809 8.43086C5.60417 8.57958 5.68348 8.7283 5.76939 8.87702C5.83548 8.98939 5.90487 9.09845 5.97756 9.20421C6.03043 9.28353 6.07339 9.33971 6.09652 9.36946L6.09983 9.37607C6.10974 9.38598 6.12626 9.41572 6.1527 9.45538C6.20556 9.5347 6.29478 9.6669 6.42035 9.83545C6.65826 10.156 6.9127 10.4634 7.17704 10.7476C7.54713 11.1442 7.93043 11.4978 8.32365 11.792C8.80939 12.1588 9.30835 12.443 9.8073 12.638C10.336 12.8462 10.7623 12.995 11.1059 13.0974C11.3901 13.18 11.6115 13.2296 11.7833 13.2461C11.932 13.2593 12.0179 13.2494 12.0906 13.2329C12.117 13.2263 12.1435 13.2197 12.1699 13.2164C12.2327 13.2032 12.2988 13.1833 12.3847 13.1767C12.464 13.1701 12.5797 13.1371 12.7085 13.0842C12.8473 13.028 12.9927 12.952 13.1315 12.8628C13.2769 12.7702 13.409 12.6645 13.5082 12.562C13.6106 12.4563 13.6833 12.3505 13.7163 12.258C13.756 12.1456 13.789 12.0299 13.8155 11.9142C13.8386 11.8151 13.8518 11.716 13.8617 11.6234C13.8717 11.5243 13.8683 11.4582 13.865 11.4218C13.8617 11.3987 13.8617 11.3855 13.8584 11.3755C13.8551 11.3755 13.8551 11.3722 13.8518 11.3689C13.8386 11.359 13.8155 11.3458 13.789 11.3293C13.7593 11.3127 13.7197 11.2929 13.6767 11.2731L13.6403 11.2566C13.604 11.24 13.5643 11.2202 13.5214 11.2004C13.4652 11.1739 13.3562 11.1178 13.2207 11.0517C13.0852 10.9856 12.92 10.9062 12.7581 10.8269C12.573 10.7377 12.421 10.665 12.2988 10.6121C12.1137 10.5262 12.0477 10.4997 12.0245 10.4931C11.9816 10.4766 11.9386 10.4634 11.9023 10.4535C11.8758 10.4469 11.856 10.4469 11.8428 10.4469C11.8362 10.4469 11.8296 10.4502 11.8197 10.4568C11.8064 10.4667 11.7866 10.4832 11.7602 10.5262C11.7238 10.5824 11.6677 10.6551 11.595 10.7443C11.5355 10.8203 11.4661 10.9062 11.3868 11.0021C11.3141 11.088 11.2447 11.1706 11.1852 11.2433C11.1224 11.3161 11.0729 11.3755 11.0398 11.4119C10.9936 11.4648 10.9473 11.5044 10.8944 11.5375C10.835 11.5738 10.7722 11.597 10.7061 11.6036C10.6433 11.6102 10.5772 11.6069 10.5078 11.5871C10.4483 11.5738 10.3856 11.5474 10.3162 11.5143C10.2864 11.5011 10.2402 11.4813 10.1873 11.4582C10.151 11.4416 10.1146 11.4251 10.0717 11.4086C9.97583 11.3656 9.82713 11.2995 9.652 11.207C9.46696 11.1078 9.28522 10.9988 9.11009 10.8798C8.8953 10.7344 8.68383 10.5691 8.48226 10.3907C8.32365 10.2519 8.16504 10.0932 8.00974 9.91807C7.88087 9.77596 7.7553 9.62063 7.63635 9.45869C7.54052 9.3331 7.4513 9.2009 7.36539 9.06871C7.30922 8.97947 7.25304 8.89355 7.20678 8.81092C7.16383 8.73491 7.13409 8.6589 7.12417 8.58619C7.11426 8.51348 7.12417 8.44077 7.15061 8.37137C7.17043 8.31849 7.20017 8.26892 7.24313 8.21934C7.27287 8.17968 7.30922 8.14663 7.33565 8.11689C7.35878 8.09706 7.38191 8.07062 7.40835 8.04088C7.43478 8.01113 7.46122 7.98139 7.48765 7.94834C7.51078 7.9219 7.53391 7.89215 7.55704 7.86241L7.57026 7.84589C7.6 7.80953 7.62643 7.77648 7.65617 7.74343L7.65948 7.74013C7.66609 7.73352 7.6727 7.7236 7.6793 7.71699C7.68591 7.71038 7.69252 7.70377 7.69583 7.69716C7.70243 7.69055 7.70574 7.68395 7.71235 7.67734C7.71565 7.67073 7.72226 7.66412 7.72556 7.65751C7.73548 7.64098 7.74539 7.62446 7.7553 7.60793C7.76522 7.59141 7.77513 7.57158 7.78504 7.55505C7.79496 7.53522 7.80487 7.51539 7.81809 7.49226L7.85443 7.41955C7.86435 7.39972 7.87096 7.3832 7.87426 7.36667C7.87757 7.35345 7.87757 7.33693 7.87426 7.32371C7.87426 7.30718 7.86765 7.29066 7.86435 7.27413C7.85774 7.25431 7.85113 7.23448 7.83791 7.21134C7.828 7.19482 7.80487 7.14524 7.72887 6.96017C7.676 6.83458 7.60991 6.67594 7.53722 6.50409C7.48435 6.3752 7.42817 6.23969 7.372 6.1108L7.32243 5.98852C7.25304 5.82327 7.19026 5.67125 7.144 5.56218C7.10765 5.47626 7.0713 5.41346 7.03496 5.36719C7.02174 5.35067 6.99861 5.32754 6.97878 5.31762C6.96887 5.31432 6.95565 5.31101 6.93583 5.31101C6.9193 5.31101 6.90609 5.31101 6.89287 5.31432C6.83339 5.31762 6.78713 5.31762 6.71774 5.31432C6.68139 5.31101 6.64835 5.31101 6.612 5.30771C6.57565 5.3044 6.5393 5.3044 6.50296 5.3011C6.47322 5.29449 6.44017 5.29449 6.41043 5.29449Z" fill="#676767"/>
</svg>
