<svg width="17" height="17" viewBox="0 0 17 17" fill="none" xmlns="http://www.w3.org/2000/svg">
<path d="M12.7625 0.220215H4.47817C2.38618 0.220215 0.628906 1.97749 0.628906 4.06948V12.3538C0.628906 14.5294 2.38618 16.203 4.47817 16.203H12.7625C14.9381 16.203 16.6117 14.4458 16.6117 12.3538V4.06948C16.6954 1.97749 14.9381 0.220215 12.7625 0.220215ZM11.7583 10.5128C11.0052 12.3538 8.99687 13.1906 7.15592 12.4374C5.31497 11.6843 4.47817 9.67601 5.23129 7.83506C5.9844 5.99411 7.99271 5.15731 9.83366 5.91043C11.5909 6.66355 12.5114 8.67186 11.7583 10.5128ZM13.0972 4.82259C12.3441 4.82259 11.7583 4.23684 11.7583 3.48372C11.7583 2.7306 12.3441 2.14485 13.0972 2.14485C13.8503 2.14485 14.436 2.7306 14.436 3.48372C14.436 4.23684 13.8503 4.82259 13.0972 4.82259Z" fill="#676767"/>
</svg>
