<?xml version="1.0" encoding="utf-8"?>
<!-- Generator: Adobe Illustrator 25.2.1, SVG Export Plug-In . SVG Version: 6.00 Build 0)  -->
<svg version="1.1" id="Layer_1" xmlns="http://www.w3.org/2000/svg" xmlns:xlink="http://www.w3.org/1999/xlink" x="0px" y="0px"
	 viewBox="0 0 26 26" style="enable-background:new 0 0 26 26;" xml:space="preserve">
<style type="text/css">
	.st0{fill:#292D3A;}
</style>
<g>
	<path class="st0" d="M14.2,25.4c-0.8,0-1.7-0.3-2.3-1L1.7,14.3c-0.6-0.6-1-1.4-1-2.3V2c0-0.7,0.6-1.2,1.2-1.2h10
		c0.9,0,1.7,0.3,2.3,1l10.2,10.2c1.3,1.3,1.3,3.3,0,4.6l-8,8C15.8,25.1,15,25.4,14.2,25.4z M3.2,3.2V12c0,0.2,0.1,0.4,0.2,0.5
		l10.2,10.2c0.3,0.3,0.8,0.3,1.1,0l8-8c0.3-0.3,0.3-0.8,0-1.1L12.5,3.5l0,0c-0.1-0.1-0.3-0.2-0.5-0.2H3.2z"/>
</g>
<g>
	<path class="st0" d="M8.8,10.8c-1.1,0-2-0.9-2-2s0.9-2,2-2h0c1.1,0,2,0.9,2,2S9.9,10.8,8.8,10.8z"/>
</g>
</svg>
