<svg width="56" height="56" viewBox="0 0 56 56" fill="none" xmlns="http://www.w3.org/2000/svg">
<path d="M38.2014 17.7986C37.6186 14.6651 36.191 11.7503 34.0728 9.36885C31.9545 6.98736 29.2261 5.22965 26.1819 4.28545C23.1377 3.34125 19.8935 3.24644 16.7994 4.01123C13.7053 4.77603 10.8788 6.37139 8.6251 8.6251C6.37139 10.8788 4.77603 13.7053 4.01123 16.7994C3.24644 19.8935 3.34125 23.1377 4.28545 26.1819C5.22965 29.2261 6.98736 31.9545 9.36885 34.0728C11.7503 36.191 14.6651 37.6186 17.7986 38.2014C18.3814 41.3349 19.809 44.2497 21.9272 46.6312C24.0455 49.0126 26.7739 50.7704 29.8181 51.7146C32.8623 52.6587 36.1065 52.7536 39.2006 51.9888C42.2947 51.224 45.1212 49.6286 47.3749 47.3749C49.6286 45.1212 51.224 42.2947 51.9888 39.2006C52.7536 36.1065 52.6587 32.8623 51.7146 29.8181C50.7704 26.7739 49.0126 24.0455 46.6312 21.9272C44.2497 19.809 41.3349 18.3814 38.2014 17.7986ZM7 21C7.0002 17.5914 8.24386 14.3 10.4977 11.7429C12.7516 9.18591 15.8609 7.53892 19.2425 7.11085C22.6241 6.68277 26.0457 7.50302 28.8657 9.41776C31.6857 11.3325 33.7103 14.2102 34.5598 17.5112C30.0754 17.6289 25.807 19.4629 22.635 22.635C19.4629 25.8071 17.6289 30.0754 17.5112 34.5598C14.5053 33.7819 11.8426 32.0286 9.94033 29.5746C8.03811 27.1207 7.00396 24.1049 7 21ZM35 49C31.8951 48.996 28.8793 47.9619 26.4254 46.0597C23.9714 44.1574 22.2181 41.4947 21.4402 38.4888C25.9246 38.3711 30.193 36.5371 33.365 33.365C36.5371 30.1929 38.3711 25.9246 38.4888 21.4402C41.7898 22.2898 44.6675 24.3144 46.5823 27.1343C48.497 29.9543 49.3172 33.3759 48.8891 36.7575C48.4611 40.1391 46.8141 43.2484 44.257 45.5023C41.7 47.7561 38.4086 48.9998 35 49Z" fill="white"/>
</svg>
