<svg width="56" height="56" viewBox="0 0 56 56" fill="none" xmlns="http://www.w3.org/2000/svg">
<path d="M15.3444 18.1297C15.0473 17.7731 14.6207 17.5492 14.1585 17.5072C13.6962 17.4652 13.2362 17.6085 12.8797 17.9056L2.37965 26.6556C2.18258 26.8198 2.02402 27.0254 1.91521 27.2577C1.8064 27.49 1.75 27.7434 1.75 27.9999C1.75 28.2565 1.8064 28.5099 1.91521 28.7422C2.02402 28.9745 2.18258 29.18 2.37965 29.3443L12.8797 38.0943C13.0561 38.2418 13.26 38.3531 13.4795 38.4219C13.6991 38.4906 13.93 38.5153 14.1591 38.4947C14.3883 38.474 14.6111 38.4084 14.8148 38.3016C15.0185 38.1948 15.1992 38.0488 15.3465 37.8721C15.4938 37.6954 15.6048 37.4913 15.6731 37.2717C15.7415 37.052 15.7658 36.821 15.7448 36.592C15.7238 36.3629 15.6579 36.1402 15.5507 35.9366C15.4435 35.733 15.2973 35.5526 15.1203 35.4056L6.23362 27.9999L15.1203 20.5943C15.4769 20.2972 15.7008 19.8706 15.7428 19.4084C15.7848 18.9462 15.6415 18.4862 15.3444 18.1297Z" fill="white"/>
<path d="M53.6205 26.6555L43.1205 17.9055C42.9441 17.7579 42.7402 17.6466 42.5207 17.5779C42.3011 17.5092 42.0702 17.4845 41.8411 17.5051C41.6119 17.5257 41.3891 17.5913 41.1854 17.6982C40.9816 17.805 40.801 17.9509 40.6537 18.1277C40.5064 18.3044 40.3954 18.5084 40.3271 18.7281C40.2587 18.9477 40.2344 19.1787 40.2554 19.4078C40.2764 19.6369 40.3423 19.8596 40.4495 20.0632C40.5566 20.2667 40.7029 20.4472 40.8799 20.5942L49.7666 27.9998L40.8799 35.4055C40.7029 35.5525 40.5566 35.7329 40.4495 35.9365C40.3423 36.1401 40.2764 36.3628 40.2554 36.5919C40.2344 36.8209 40.2587 37.0519 40.3271 37.2716C40.3954 37.4912 40.5064 37.6953 40.6537 37.872C40.801 38.0487 40.9816 38.1947 41.1854 38.3015C41.3891 38.4083 41.6119 38.4739 41.8411 38.4946C42.0702 38.5152 42.3011 38.4905 42.5207 38.4218C42.7402 38.353 42.9441 38.2417 43.1205 38.0942L53.6205 29.3442C53.8176 29.1799 53.9762 28.9744 54.085 28.7421C54.1938 28.5098 54.2502 28.2564 54.2502 27.9998C54.2502 27.7433 54.1938 27.4899 54.085 27.2576C53.9762 27.0253 53.8176 26.8197 53.6205 26.6555Z" fill="white"/>
<path d="M35.5986 7.10507C35.1624 6.94675 34.6812 6.96804 34.2607 7.16427C33.8402 7.36049 33.5147 7.71561 33.3559 8.15161L19.3559 46.6516C19.2771 46.8676 19.2417 47.0971 19.2516 47.3268C19.2616 47.5565 19.3167 47.782 19.4139 47.9904C19.511 48.1988 19.6483 48.3861 19.8178 48.5414C19.9874 48.6967 20.1858 48.8171 20.4019 48.8957C20.618 48.9743 20.8475 49.0096 21.0772 48.9994C21.3069 48.9893 21.5324 48.934 21.7407 48.8367C21.949 48.7394 22.1362 48.6019 22.2914 48.4323C22.4466 48.2626 22.5668 48.064 22.6452 47.8479L36.6452 9.3479C36.8038 8.91169 36.7827 8.43034 36.5864 8.00973C36.3901 7.58912 36.0348 7.26371 35.5986 7.10507Z" fill="white"/>
</svg>
