<svg width="42" height="50" viewBox="0 0 42 50" fill="none" xmlns="http://www.w3.org/2000/svg">
<path d="M39.1102 5.58618L10.618 0.554933C9.70397 0.394088 8.76348 0.60285 8.00335 1.13531C7.24322 1.66777 6.72568 2.48033 6.56455 3.39431L0.0567406 40.3631C-0.0228561 40.816 -0.0124286 41.2801 0.0874273 41.729C0.187283 42.1778 0.37461 42.6026 0.638702 42.979C0.902795 43.3555 1.23848 43.6762 1.62657 43.9228C2.01465 44.1695 2.44754 44.3372 2.90049 44.4165L31.3927 49.4477C31.8457 49.5277 32.3101 49.5175 32.7592 49.4178C33.2083 49.3181 33.6334 49.1308 34.01 48.8667C34.3867 48.6025 34.7076 48.2668 34.9544 47.8785C35.2012 47.4903 35.369 47.0572 35.4483 46.604L41.9561 9.63525C42.1155 8.72093 41.9053 7.78072 41.3716 7.0214C40.8379 6.26208 40.0245 5.74583 39.1102 5.58618ZM31.9964 46.0002L3.50205 40.969L10.0099 4.00025L38.5021 9.0315L31.9964 46.0002ZM12.5452 9.77962C12.6262 9.32281 12.8854 8.91688 13.2656 8.65108C13.6459 8.38527 14.1161 8.28133 14.573 8.36212L32.7292 11.5668C33.1607 11.6424 33.5482 11.8771 33.8151 12.2245C34.0819 12.5719 34.2088 13.0067 34.1706 13.4432C34.1324 13.8796 33.9319 14.2858 33.6088 14.5815C33.2856 14.8773 32.8633 15.0411 32.4252 15.0406C32.3225 15.0404 32.2201 15.0316 32.1189 15.0143L13.9627 11.8074C13.5059 11.7264 13.0999 11.4672 12.8341 11.087C12.5683 10.7067 12.4644 10.2365 12.5452 9.77962ZM11.3333 16.6746C11.3732 16.4482 11.4573 16.2319 11.5808 16.038C11.7043 15.8442 11.8648 15.6765 12.0531 15.5447C12.2414 15.4128 12.4538 15.3194 12.6783 15.2697C12.9027 15.22 13.1347 15.215 13.3611 15.2549L31.5174 18.4618C31.9519 18.5345 32.343 18.7684 32.6127 19.1168C32.8823 19.4652 33.0106 19.9026 32.9719 20.3414C32.9333 20.7803 32.7305 21.1884 32.4041 21.4843C32.0777 21.7803 31.6517 21.9422 31.2111 21.9377C31.1076 21.938 31.0044 21.9284 30.9027 21.9093L12.7464 18.7046C12.29 18.6226 11.8848 18.3627 11.6198 17.982C11.3548 17.6014 11.2518 17.1312 11.3333 16.6746ZM10.1192 23.5674C10.2018 23.1118 10.4616 22.7075 10.8417 22.4431C11.2218 22.1786 11.6912 22.0756 12.1471 22.1565L21.2208 23.7512C21.6521 23.8267 22.0394 24.0613 22.3063 24.4084C22.5732 24.7556 22.7002 25.1902 22.6623 25.6264C22.6244 26.0627 22.4243 26.4689 22.1015 26.7648C21.7788 27.0607 21.3568 27.2249 20.9189 27.2249C20.8163 27.2249 20.7138 27.2161 20.6127 27.1987L11.5346 25.5952C11.0781 25.5137 10.6728 25.2543 10.4074 24.8741C10.142 24.4939 10.0384 24.024 10.1192 23.5674Z" fill="white"/>
</svg>
