<svg width="46" height="52" viewBox="0 0 46 52" fill="none" xmlns="http://www.w3.org/2000/svg">
<path d="M45.2955 13.4911C45.2901 13.4812 45.286 13.4709 45.2803 13.461C45.2779 13.4568 45.275 13.453 45.2726 13.4488C44.9593 12.9111 44.5083 12.4666 43.9659 12.1614L24.7159 1.33324C24.1914 1.04044 23.6007 0.886719 23 0.886719C22.3993 0.886719 21.8086 1.04044 21.2841 1.33324L2.03407 12.1614C1.48983 12.4678 1.03756 12.9144 0.72425 13.4547C0.720831 13.4606 0.71688 13.4659 0.713568 13.4719C0.708229 13.4815 0.704381 13.4913 0.699256 13.5009C0.405307 14.0233 0.250603 14.6125 0.25 15.2119V36.79C0.250459 37.4109 0.415891 38.0206 0.729367 38.5566C1.04284 39.0926 1.49311 39.5357 2.03407 39.8405L21.2842 50.6686C21.7697 50.9401 22.313 51.0918 22.8689 51.111C22.908 51.1139 22.947 51.1177 22.9869 51.118C22.9921 51.1181 22.9973 51.1181 23.0026 51.1181C23.0576 51.1181 23.1117 51.1149 23.1655 51.1099C23.7096 51.0857 24.2406 50.9346 24.7159 50.6686L43.9659 39.8405C44.5069 39.5357 44.9572 39.0926 45.2706 38.5566C45.5841 38.0206 45.7495 37.4109 45.75 36.79V15.2119C45.7495 14.6087 45.5929 14.0159 45.2955 13.4911ZM23.1991 23.993L5.58289 14.1809L23 4.38378L40.4439 14.196L23.1991 23.993ZM42.25 36.79L24.7765 46.6188L24.9487 27.0245L42.25 17.1953V36.79Z" fill="white"/>
</svg>
