<svg width="33" height="42" viewBox="0 0 33 42" fill="none" xmlns="http://www.w3.org/2000/svg">
<path d="M2.72222 40.6111H30.2778M11.3333 36.3056H21.6667M19.0833 28.5556V27.4361C19.0833 25.3694 19.8583 23.3889 21.3222 21.925C24.8528 18.4806 26.8333 13.7444 26.8333 8.75V1H6.16667V8.75C6.16667 13.7444 8.14722 18.4806 11.6778 22.0111C13.1417 23.475 13.9167 25.4556 13.9167 27.5222V28.5556M26.8333 3.58333H32C32 10.0417 28.9 16.1556 23.6472 20.0306L22.5278 20.8056M6.16667 3.58333H1C1 10.0417 4.1 16.1556 9.35278 20.0306L10.4722 20.8056M6.16667 32H26.8333V40.6111H6.16667V32ZM10.4722 28.5556H22.5278V32H10.4722V28.5556ZM20.8056 10.4722C20.8056 12.8501 18.8779 14.7778 16.5 14.7778C14.1221 14.7778 12.1944 12.8501 12.1944 10.4722C12.1944 8.09433 14.1221 6.16667 16.5 6.16667C18.8779 6.16667 20.8056 8.09433 20.8056 10.4722Z" stroke="#D20E26" stroke-width="1.8" stroke-miterlimit="10"/>
</svg>
