<svg width="44" height="45" viewBox="0 0 44 45" fill="none" xmlns="http://www.w3.org/2000/svg">
<path d="M20.1 20.1L19.7533 19.162C19.4824 19.2621 19.268 19.4745 19.1654 19.7444L20.1 20.1ZM27.9 8.1L28.887 7.93932C28.8209 7.5335 28.5132 7.20948 28.1113 7.12259L27.9 8.1ZM21.5 10.2L20.6207 9.72372C20.3809 10.1664 20.5076 10.7183 20.9165 11.0121C21.3253 11.3059 21.8888 11.2499 22.2319 10.8814L21.5 10.2ZM19.4 1L20.0783 0.265197C19.6839 -0.0988607 19.0724 -0.0866364 18.6929 0.292893L19.4 1ZM15.2 8.1L14.5075 8.82139C14.7787 9.08176 15.173 9.168 15.5282 9.04462C15.8833 8.92124 16.1392 8.60908 16.1906 8.23664L15.2 8.1ZM3.8 3.8L3.85705 2.80163C3.57246 2.78537 3.29446 2.89133 3.09289 3.09289C2.89133 3.29446 2.78537 3.57246 2.80163 3.85705L3.8 3.8ZM8.1 15.1L8.26991 16.0855C8.63806 16.022 8.94013 15.7586 9.05314 15.4025C9.16616 15.0464 9.07127 14.6571 8.80711 14.3929L8.1 15.1ZM1 19.4L0.292893 18.6929C-0.081503 19.0673 -0.0991743 19.6686 0.252591 20.0644L1 19.4ZM10.2 21.5L10.869 22.2433C11.2456 21.9043 11.3092 21.3373 11.017 20.9234C10.7248 20.5094 10.1692 20.3794 9.72372 20.6207L10.2 21.5ZM8.1 27.9L7.12833 28.1364C7.22314 28.5261 7.54168 28.8215 7.93748 28.8867L8.1 27.9ZM28.9 26.6L27.91 26.4586L27.9082 26.472L28.9 26.6ZM21.6 25L20.6862 24.5938L20.6829 24.6013L21.6 25ZM32.5 33.5L31.9188 32.6863L31.9175 32.6872L32.5 33.5ZM32.5 15.5L31.5368 15.2312L31.5362 15.2334L32.5 15.5ZM20.4467 21.038C25.3698 19.2186 27.5234 15.9594 28.405 13.1217C28.8399 11.7217 28.9614 10.4416 28.9749 9.51142C28.9817 9.04508 28.9614 8.66284 28.9387 8.39246C28.9273 8.25715 28.9153 8.14949 28.9057 8.07291C28.9009 8.03461 28.8967 8.00405 28.8934 7.98165C28.8918 7.97045 28.8904 7.96129 28.8894 7.95422C28.8888 7.95068 28.8883 7.94767 28.8879 7.94518C28.8878 7.94394 28.8876 7.94283 28.8874 7.94186C28.8873 7.94137 28.8872 7.94073 28.8872 7.94049C28.8871 7.93989 28.887 7.93932 27.9 8.1C26.913 8.26068 26.9129 8.26018 26.9128 8.25971C26.9128 8.25959 26.9127 8.25916 26.9127 8.25893C26.9126 8.25848 26.9126 8.25815 26.9126 8.25795C26.9125 8.25756 26.9125 8.25767 26.9126 8.25828C26.9128 8.2595 26.9133 8.26272 26.914 8.2679C26.9155 8.27825 26.9181 8.2964 26.9213 8.32191C26.9277 8.37297 26.9368 8.4534 26.9457 8.55988C26.9636 8.7731 26.9808 9.0893 26.9751 9.48233C26.9636 10.2709 26.8601 11.3533 26.495 12.5283C25.7766 14.8406 24.0302 17.5814 19.7533 19.162L20.4467 21.038ZM27.9 8.1C28.1113 7.12259 28.1109 7.12249 28.1104 7.12239C28.1103 7.12235 28.1098 7.12225 28.1094 7.12218C28.1088 7.12203 28.108 7.12187 28.1072 7.1217C28.1056 7.12136 28.1038 7.12097 28.1017 7.12054C28.0976 7.11968 28.0925 7.11864 28.0866 7.11744C28.0747 7.11505 28.0592 7.11202 28.0402 7.10851C28.0024 7.10149 27.9507 7.09249 27.8863 7.08269C27.7576 7.0631 27.5776 7.04014 27.3558 7.02321C26.9134 6.98946 26.2968 6.97905 25.5848 7.07068C24.1581 7.25432 22.3179 7.854 20.7681 9.51858L22.2319 10.8814C23.3821 9.646 24.7419 9.19568 25.8402 9.05432C26.3907 8.98345 26.8678 8.99179 27.2036 9.01741C27.3708 9.03017 27.5009 9.04706 27.5852 9.05989C27.6272 9.0663 27.6577 9.07166 27.6753 9.07494C27.6842 9.07658 27.6898 9.07769 27.692 9.07815C27.6932 9.07837 27.6935 9.07844 27.6929 9.07832C27.6926 9.07827 27.6922 9.07816 27.6914 9.07801C27.6911 9.07794 27.6907 9.07785 27.6902 9.07775C27.69 9.0777 27.6896 9.07762 27.6895 9.07759C27.6891 9.0775 27.6887 9.07741 27.9 8.1ZM22.3793 10.6763C23.1788 9.20023 23.2841 7.23721 22.8905 5.39145C22.4933 3.52847 21.5572 1.63035 20.0783 0.265197L18.7217 1.7348C19.8428 2.76965 20.6067 4.27153 20.9345 5.80855C21.2659 7.36279 21.1212 8.79977 20.6207 9.72372L22.3793 10.6763ZM18.6929 0.292893C16.6681 2.3177 14.657 4.71788 14.2094 7.96336L16.1906 8.23664C16.543 5.68212 18.1319 3.6823 20.1071 1.70711L18.6929 0.292893ZM15.8925 7.37861C14.4952 6.03719 12.3683 4.95359 10.2113 4.18326C8.03936 3.40755 5.71969 2.90806 3.85705 2.80163L3.74295 4.79837C5.38031 4.89193 7.51064 5.34245 9.53866 6.06674C11.5817 6.79641 13.4048 7.76281 14.5075 8.82139L15.8925 7.37861ZM2.80163 3.85705C2.90806 5.71955 3.40752 8.03972 4.1839 10.2006C4.95389 12.3438 6.04039 14.4546 7.39289 15.8071L8.80711 14.3929C7.75961 13.3454 6.79611 11.5562 6.0661 9.52438C5.34248 7.51028 4.89194 5.38045 4.79837 3.74295L2.80163 3.85705ZM7.93009 14.1145C4.70837 14.67 2.32141 16.6644 0.292893 18.6929L1.70711 20.1071C3.67859 18.1356 5.69163 16.53 8.26991 16.0855L7.93009 14.1145ZM0.252591 20.0644C1.62143 21.6043 3.52843 22.5445 5.39835 22.9295C7.25208 23.3111 9.2092 23.174 10.6763 22.3793L9.72372 20.6207C8.7908 21.126 7.34792 21.2889 5.80165 20.9705C4.27156 20.6555 2.77857 19.8957 1.74741 18.7356L0.252591 20.0644ZM9.53104 20.7567C7.8076 22.3078 7.20291 24.1559 7.03198 25.5945C6.94688 26.3108 6.968 26.9309 7.01086 27.3756C7.03236 27.5987 7.05954 27.7797 7.08235 27.9092C7.09377 27.974 7.10412 28.0261 7.11219 28.0643C7.11622 28.0834 7.11968 28.0991 7.12242 28.1111C7.12379 28.1171 7.12498 28.1223 7.12598 28.1265C7.12647 28.1286 7.12692 28.1305 7.12731 28.1321C7.12751 28.1329 7.12769 28.1337 7.12786 28.1344C7.12795 28.1348 7.12806 28.1352 7.12811 28.1354C7.12822 28.1359 7.12833 28.1364 8.1 27.9C9.07167 27.6636 9.07177 27.6641 9.07187 27.6645C9.0719 27.6646 9.072 27.665 9.07206 27.6653C9.07217 27.6657 9.07228 27.6662 9.07237 27.6665C9.07254 27.6673 9.07267 27.6678 9.07274 27.6681C9.07289 27.6688 9.07284 27.6685 9.0726 27.6675C9.07212 27.6654 9.07089 27.6599 9.06907 27.6513C9.06541 27.6339 9.05936 27.6039 9.05203 27.5623C9.03733 27.4789 9.01764 27.3498 9.00164 27.1837C8.9695 26.8503 8.95312 26.3767 9.01802 25.8305C9.14709 24.7441 9.5924 23.3922 10.869 22.2433L9.53104 20.7567ZM8.1 27.9C7.93748 28.8867 7.93806 28.8868 7.93866 28.8869C7.93891 28.8869 7.93955 28.887 7.94004 28.8871C7.94102 28.8873 7.94214 28.8875 7.94338 28.8877C7.94587 28.8881 7.94889 28.8885 7.95242 28.8891C7.95948 28.8902 7.96861 28.8916 7.97975 28.8932C8.00204 28.8965 8.03241 28.9007 8.07044 28.9055C8.14647 28.9152 8.25327 28.9272 8.38748 28.9386C8.65566 28.9614 9.03471 28.9817 9.49749 28.9749C10.4207 28.9613 11.6917 28.8397 13.0855 28.4046C15.9103 27.5227 19.1647 25.371 21.0346 20.4556L19.1654 19.7444C17.5353 24.0291 14.7897 25.7773 12.4895 26.4954C11.3208 26.8603 10.2481 26.9637 9.46814 26.9751C9.07935 26.9808 8.767 26.9636 8.55666 26.9458C8.45161 26.9369 8.37238 26.9278 8.32219 26.9214C8.29711 26.9182 8.27932 26.9157 8.26923 26.9143C8.26418 26.9135 8.26107 26.913 8.25993 26.9129C8.25936 26.9128 8.25929 26.9128 8.25972 26.9128C8.25993 26.9129 8.26027 26.9129 8.26074 26.913C8.26097 26.913 8.26142 26.9131 8.26153 26.9131C8.26201 26.9132 8.26252 26.9133 8.1 27.9ZM14.1 44.5C14.1 39.6824 17.3904 37.0167 21.221 34.6786C23.0659 33.5525 25.124 32.4566 26.689 31.2973C28.2671 30.1284 29.6379 28.6956 29.8918 26.728L27.9082 26.472C27.7621 27.6044 26.9579 28.6091 25.4985 29.6902C24.026 30.7809 22.1841 31.7475 20.179 32.9714C16.3096 35.3333 12.1 38.5176 12.1 44.5H14.1ZM29.8899 26.7414C30.2707 24.0765 28.5572 22.1213 26.4813 21.5709C24.3668 21.0102 21.8899 21.8854 20.6862 24.5939L22.5138 25.4061C23.3101 23.6146 24.7832 23.1898 25.9687 23.5041C27.1928 23.8287 28.1293 24.9235 27.91 26.4586L29.8899 26.7414ZM20.6829 24.6013C20.0547 26.0461 20.1563 27.6908 20.669 29.1959C21.1842 30.7082 22.1408 32.1675 23.3658 33.3168C24.5905 34.4658 26.1283 35.3457 27.8248 35.62C29.5448 35.8981 31.3679 35.5417 33.0825 34.3128L31.9175 32.6872C30.6321 33.6083 29.3427 33.8394 28.144 33.6456C26.9217 33.448 25.7345 32.7967 24.7342 31.8582C23.7342 30.92 22.9658 29.7356 22.5622 28.551C22.1562 27.3592 22.1453 26.2539 22.5171 25.3987L20.6829 24.6013ZM33.0812 34.3137C34.7508 33.1212 35.488 31.5102 35.674 29.7671C35.8547 28.0745 35.519 26.2466 35.082 24.5175C34.8616 23.6454 34.6072 22.7692 34.3665 21.9302C34.1236 21.0838 33.8944 20.2744 33.7123 19.5031C33.3393 17.923 33.2117 16.6781 33.4638 15.7666L31.5362 15.2334C31.1383 16.6719 31.3857 18.352 31.7658 19.9625C31.9603 20.7865 32.2022 21.6389 32.4441 22.4819C32.6881 23.3323 32.9322 24.1734 33.143 25.0075C33.5685 26.6909 33.8266 28.2317 33.6853 29.5548C33.5495 30.8273 33.0492 31.8788 31.9188 32.6863L33.0812 34.3137ZM33.4632 15.7688C33.9495 14.0263 35.3239 13.0293 36.764 12.8823C38.1815 12.7377 39.7295 13.4121 40.5975 15.2307L42.4025 14.3693C41.1705 11.7879 38.8185 10.6623 36.561 10.8927C34.3261 11.1207 32.2505 12.6737 31.5368 15.2312L33.4632 15.7688ZM40.5975 15.2307C41.053 16.185 41.0854 16.8666 40.9805 17.3049C40.8786 17.7311 40.6274 18.0204 40.3044 18.1926C39.614 18.5609 38.59 18.3985 38.037 17.5528L36.363 18.6472C37.51 20.4015 39.686 20.7891 41.2456 19.9574C42.0476 19.5296 42.6839 18.7814 42.9257 17.7701C43.1646 16.7709 42.997 15.615 42.4025 14.3693L40.5975 15.2307Z" fill="#D20E26"/>
</svg>
