<svg width="44" height="44" viewBox="0 0 44 44" fill="none" xmlns="http://www.w3.org/2000/svg">
<path d="M40.2578 39.3448H35.6929M25.6502 8.30378C25.6502 4.2867 22.3635 1 18.3465 1C14.3294 1 11.0427 4.2867 11.0427 8.30378V11.0427C11.0427 15.0598 14.3294 18.3465 18.3465 18.3465C22.0897 18.3465 25.1938 15.6076 25.5589 11.9557M8.30378 43.9097V34.78M11.0427 9.21675H31.1281M21.9984 22.0897C16.8857 21.7245 11.7731 22.0897 6.75172 23.1852C3.37373 23.9156 1 26.8371 1 30.3064V43.9097M31.1281 24.7373H36.6059V29.3021H31.1281V24.7373ZM43 43H24.7406V24.7406H43V43Z" stroke="#D20E26" stroke-width="2" stroke-miterlimit="10"/>
</svg>
