<svg width="49" height="37" viewBox="0 0 49 37" fill="none" xmlns="http://www.w3.org/2000/svg">
<path d="M42.8913 32.6739C42.8913 34.3668 41.519 35.7391 39.8261 35.7391C38.1332 35.7391 36.7609 34.3668 36.7609 32.6739M42.8913 32.6739C42.8913 30.981 41.519 29.6087 39.8261 29.6087C38.1332 29.6087 36.7609 30.981 36.7609 32.6739M42.8913 32.6739H48V24.5L42.8913 23.4783L40.8478 17.3478H35.7391M36.7609 32.6739H19.3913M19.3913 32.6739C19.3913 34.3668 18.019 35.7391 16.3261 35.7391C14.6332 35.7391 13.2609 34.3668 13.2609 32.6739C13.2609 30.981 14.6332 29.6087 16.3261 29.6087C18.019 29.6087 19.3913 30.981 19.3913 32.6739ZM32.6739 32.6739V1H1V32.6739H10.1957M39.8261 23.4783H32.6739M46.9783 27.5652H44.9348M29.6087 27.5652H23.4783M29.6087 23.4783H23.4783M12.2391 1H21.4348V7.13043H12.2391V1Z" stroke="#D20E26" stroke-width="2" stroke-miterlimit="10"/>
</svg>
