<svg width="43" height="64" viewBox="0 0 43 64" fill="none" xmlns="http://www.w3.org/2000/svg">
<path d="M13.3 8.83333C10.02 8.28667 6.46667 8.83333 6.46667 8.83333C6.46667 8.83333 7.28667 15.6667 11.3867 18.2633C15.0767 20.7233 18.9033 19.3567 21.5 17.0333C23.96 19.4933 27.3767 20.7233 31.2033 18.2633C35.1667 15.6667 36.5333 8.83333 36.5333 8.83333C36.5333 8.83333 30.3833 8.56 26.9667 10.2C25.19 11.02 23.8233 12.66 22.8667 14.3M25.6 7.46667C24.37 4.05 21.5 2 21.5 2C21.5 2 16.0333 5.41667 16.0333 10.2C16.0333 11.7033 16.7167 13.2067 17.4 14.4367M26.9667 56.6667C26.9667 59.6858 24.5192 62.1333 21.5 62.1333C18.4808 62.1333 16.0333 59.6858 16.0333 56.6667C16.0333 53.6475 18.4808 51.2 21.5 51.2C24.5192 51.2 26.9667 53.6475 26.9667 56.6667ZM18.7667 43C18.7667 46.0192 16.3192 48.4667 13.3 48.4667C10.2808 48.4667 7.83333 46.0192 7.83333 43C7.83333 39.9808 10.2808 37.5333 13.3 37.5333C16.3192 37.5333 18.7667 39.9808 18.7667 43ZM33.8 43C33.8 46.0192 31.3525 48.4667 28.3333 48.4667C25.3142 48.4667 22.8667 46.0192 22.8667 43C22.8667 39.9808 25.3142 37.5333 28.3333 37.5333C31.3525 37.5333 33.8 39.9808 33.8 43ZM26.9667 29.3333C26.9667 32.3525 24.5192 34.8 21.5 34.8C18.4808 34.8 16.0333 32.3525 16.0333 29.3333C16.0333 26.3142 18.4808 23.8667 21.5 23.8667C24.5192 23.8667 26.9667 26.3142 26.9667 29.3333ZM42 29.3333C42 32.3525 39.5525 34.8 36.5333 34.8C33.5142 34.8 31.0667 32.3525 31.0667 29.3333C31.0667 26.3142 33.5142 23.8667 36.5333 23.8667C39.5525 23.8667 42 26.3142 42 29.3333ZM11.9333 29.3333C11.9333 32.3525 9.48582 34.8 6.46667 34.8C3.44751 34.8 1 32.3525 1 29.3333C1 26.3142 3.44751 23.8667 6.46667 23.8667C9.48582 23.8667 11.9333 26.3142 11.9333 29.3333Z" stroke="#D52237" stroke-width="2" stroke-miterlimit="10"/>
</svg>
