<svg width="24" height="25" viewBox="0 0 24 25" fill="none" xmlns="http://www.w3.org/2000/svg">
<path d="M9 8.91687V11.5395M9 8.91687C10.6569 8.91687 12 7.50785 12 5.76974M9 8.91687C7.34315 8.91687 6 7.50785 6 5.76974M9 0V2.62261M9 2.62261C7.34315 2.62261 6 4.03163 6 5.76974M9 2.62261C10.6569 2.62261 12 4.03163 12 5.76974M14.5 5.76974H12M6 5.76974H3.5M13 1.57357L11 3.67165M5 9.96591L7 7.86783M11 7.86783L13 9.96591M7 3.67165L5 1.57357M0 13.113C9.8 13.113 18 17.7813 20.2 24.128M0 15.6832C7.5 15.6832 13.8 19.25 15.5 24.128M0 18.4107C5.1 18.4107 9.35 20.8235 10.5 24.128M0 20.9809C2.7 20.9809 4.95 22.3971 5.55 24.128M13.75 16.8896C16.5 14.5293 20.1 13.113 24 13.113M15.95 18.5156C18.15 16.7847 20.95 15.7357 24 15.7357M17.9 20.3514C19.6 19.0926 21.7 18.3583 24 18.3583M19.5 22.502C20.75 21.5578 22.3 20.9809 24 20.9809" stroke="#D20E26" stroke-width="1.7" stroke-miterlimit="10"/>
</svg>
