<svg  class="main-svg-sprite main-svg-sprite--icons" xmlns="http://www.w3.org/2000/svg" xmlns:xlink="http://www.w3.org/1999/xlink"><symbol viewBox="0 0 21 30" id="address-marker" xmlns="http://www.w3.org/2000/svg"><path clip-rule="evenodd" d="M17.22 2.585c.99.86 1.804 1.905 2.393 3.077a10.256 10.256 0 01-.128 9.359c-.482.95-1.604 2.338-2.903 3.945-2.73 3.379-6.242 7.725-6.242 11.012 0-3.365-3.586-7.782-6.327-11.158-1.263-1.555-2.346-2.89-2.818-3.8a10.256 10.256 0 01-.128-9.358A10.064 10.064 0 013.46 2.585a10.449 10.449 0 0113.76 0zm-2.368 7.369a4.512 4.512 0 11-9.024 0 4.512 4.512 0 019.024 0z"/></symbol><symbol viewBox="0 0 17.2 9.2" id="arrow-d" xmlns="http://www.w3.org/2000/svg"><path d="M16.02.2a.7.7 0 011 0 .68.68 0 010 1L9.11 9.03a.7.7 0 01-1 0L.2 1.17a.68.68 0 010-1 .7.7 0 011 0l7.4 7.17z"/></symbol><symbol viewBox="0 0 18 18" id="arrow-d2" xmlns="http://www.w3.org/2000/svg"><path d="M8.963 1.185a.238.238 0 01.074.185v14.186l6.408-6.408c.111-.11.26-.11.37 0 .112.111.112.26 0 .37l-6.852 6.853c-.11.11-.259.11-.37 0L1.741 9.519c-.111-.112-.111-.26 0-.37.11-.112.259-.112.37 0l6.408 6.407V1.37c0-.148.111-.26.26-.26.073 0 .129.02.184.075z" stroke="#fff"/></symbol><symbol viewBox="0 0 18 17" id="arrow-l2" xmlns="http://www.w3.org/2000/svg"><path d="M16.572 8.078a.238.238 0 00-.185-.074H2.2l6.408-6.408c.11-.11.11-.259 0-.37-.111-.111-.26-.111-.37 0L1.385 8.078c-.111.111-.111.26 0 .37l6.852 6.853c.111.11.26.11.37 0 .112-.111.112-.26 0-.37L2.202 8.522h14.186c.148 0 .26-.112.26-.26a.238.238 0 00-.075-.185z" stroke="#D42237" stroke-width=".6"/></symbol><symbol viewBox="0 0 18 17" id="arrow-l2-w" xmlns="http://www.w3.org/2000/svg"><path d="M16.572 8.078a.238.238 0 00-.185-.074H2.2l6.408-6.408c.11-.11.11-.259 0-.37-.111-.111-.26-.111-.37 0L1.385 8.078c-.111.111-.111.26 0 .37l6.852 6.853c.111.11.26.11.37 0 .112-.111.112-.26 0-.37L2.202 8.522h14.186c.148 0 .26-.112.26-.26a.238.238 0 00-.075-.185z" stroke="#fff" stroke-width=".6"/></symbol><symbol viewBox="0 0 9.2 17.2" id="arrow-r" xmlns="http://www.w3.org/2000/svg"><path d="M7.34 8.6L.2 1.18a.7.7 0 010-1 .68.68 0 011 0l7.83 7.91a.7.7 0 010 1L1.17 17a.68.68 0 01-1 0 .7.7 0 010-1z"/></symbol><symbol viewBox="0 0 17 17" id="arrow-r2" xmlns="http://www.w3.org/2000/svg"><path d="M1.185 8.593a.238.238 0 01.185-.074h14.186L9.15 2.11c-.112-.111-.112-.26 0-.37.11-.112.259-.112.37 0l6.852 6.852c.111.11.111.26 0 .37L9.52 15.815c-.111.112-.26.112-.37 0-.112-.11-.112-.259 0-.37l6.407-6.408H1.37a.253.253 0 01-.259-.259c0-.074.019-.13.074-.185z" stroke="#fff" stroke-width=".6"/></symbol><symbol viewBox="0 0 17.2 9.2" id="arrow-t" xmlns="http://www.w3.org/2000/svg"><path d="M1.18 9a.7.7 0 01-1 0 .68.68 0 010-1L8.11.2a.7.7 0 011 0l7.91 7.83a.68.68 0 010 1 .7.7 0 01-1 0L8.6 1.86z"/></symbol><symbol viewBox="0 0 13 34" id="bottle" xmlns="http://www.w3.org/2000/svg"><path d="M8.795 7.033V.483C8.795.217 8.564 0 8.281 0H4.719c-.283 0-.514.217-.514.483v6.55c0 1.67-.693 3.24-1.953 4.42C.8 12.817 0 14.631 0 16.56v14.988C0 32.79 1.078 33.8 2.4 33.8h8.2c1.324 0 2.4-1.012 2.4-2.252V16.56c0-1.93-.8-3.74-2.254-5.104-1.258-1.183-1.95-2.752-1.95-4.423zm3.176 24.515c0 .71-.615 1.286-1.372 1.286H2.401c-.757 0-1.372-.577-1.372-1.287V16.56c0-1.671.693-3.24 1.953-4.421 1.454-1.364 2.255-3.177 2.255-5.104V.965h2.532v6.068c0 1.929.8 3.74 2.254 5.104 1.258 1.18 1.953 2.752 1.953 4.42v14.99h-.005z"/><path d="M3.144 17.846c-.409 0-.766-.024-1.085-.067v13.768c0 .177.154.322.342.322h8.198c.19 0 .342-.145.342-.322V16.56a5.49 5.49 0 00-.007-.29 8.409 8.409 0 00-1.079-.065c-3.355 0-3.355 1.641-6.71 1.641z"/></symbol><symbol viewBox="0 0 27 21" id="cart-icon" xmlns="http://www.w3.org/2000/svg"><path d="M23.609 15.156c-.159.535-.77.96-1.335.96H9.355c-.565 0-1.154-.425-1.312-.96L4.876 4.918c-.159-.535-.702-1.16-1.222-1.383L.577 2.085C.079 1.84-.147 1.238.102.747L.192.57C.442.078 1.052-.145 1.55.1l3.96 1.852c.497.245 1.062.87 1.22 1.383l2.987 9.613c.159.535.747.96 1.313.96h9.615c.566 0 1.154-.425 1.335-.96l2.828-8.9c.158-.535.747-.825 1.267-.669l.204.067c.543.156.837.736.678 1.25l-3.348 10.46zM12.681 19.26c0 .96-.792 1.74-1.765 1.74-.972 0-1.764-.78-1.764-1.74 0-.959.792-1.74 1.764-1.74.973.023 1.765.781 1.765 1.74zM22.636 19.26c0 .96-.792 1.74-1.765 1.74-.973 0-1.764-.78-1.764-1.74 0-.959.791-1.74 1.764-1.74.973.023 1.765.781 1.765 1.74z"/><path d="M21.098 10.45c0 .557-.453 1.004-1.019 1.004h-8.574a1.007 1.007 0 01-1.019-1.004v-.2c0-.559.453-1.005 1.019-1.005h8.574c.566 0 1.018.446 1.018 1.004v.2zM21.098 5.208c0 .558-.453 1.004-1.019 1.004h-8.574a1.007 1.007 0 01-1.019-1.004v-.2c0-.558.453-1.004 1.019-1.004h8.574c.566 0 1.018.446 1.018 1.003v.201z"/></symbol><symbol viewBox="0 0 13.97 13.97" id="close" xmlns="http://www.w3.org/2000/svg"><path d="M13.98 1.4L8.39 6.98l5.59 5.58-1.42 1.42-5.58-5.59-5.58 5.59-1.42-1.42 5.59-5.58L-.02 1.4 1.4-.02l5.58 5.59 5.58-5.59z"/></symbol><symbol viewBox="0 0 40 40" id="cookies-icon" xmlns="http://www.w3.org/2000/svg"><path d="M20 28.4v-1.2m0-4.8V11.6m18 14.61c0 .63-.255 1.245-.705 1.695l-9.39 9.39c-.45.45-1.065.705-1.695.705H13.79c-.63 0-1.245-.255-1.695-.705l-9.39-9.39A2.409 2.409 0 012 26.21V13.79c0-.63.255-1.245.705-1.695l9.39-9.39A2.409 2.409 0 0113.79 2h12.405c.63 0 1.245.255 1.695.705l9.39 9.39c.45.45.705 1.065.705 1.695v12.42H38z" stroke="#797979" stroke-width="3" stroke-miterlimit="10" stroke-linecap="round" stroke-linejoin="round"/></symbol><symbol viewBox="0 0 23 6" id="dots" xmlns="http://www.w3.org/2000/svg"><circle cx="2.597" cy="2.597" r="2.597"/><circle cx="11.499" cy="2.597" r="2.597"/><circle cx="20.404" cy="2.597" r="2.597"/></symbol><symbol viewBox="0 0 21 12" id="eye-icon" xmlns="http://www.w3.org/2000/svg"><path clip-rule="evenodd" d="M20.865 6.368c-2.807 3.505-6.42 5.614-10.365 5.614-3.945 0-7.56-2.11-10.365-5.613a.603.603 0 010-.76c5.978-7.478 14.79-7.478 20.732 0a.606.606 0 01-.002.76zM10.5 1.505a4.487 4.487 0 110 8.973 4.487 4.487 0 010-8.973z"/><path clip-rule="evenodd" d="M10.5 2.856c.227 0 .448.024.662.07a1.294 1.294 0 102.009 1.422A3.136 3.136 0 1110.5 2.857z"/></symbol><symbol viewBox="0 0 21 17" id="menu" xmlns="http://www.w3.org/2000/svg"><path d="M0 1.5A1.5 1.5 0 011.5 0h18a1.5 1.5 0 010 3h-18A1.5 1.5 0 010 1.5zM0 8.5A1.5 1.5 0 011.5 7h18a1.5 1.5 0 010 3h-18A1.5 1.5 0 010 8.5zM0 15.5A1.5 1.5 0 011.5 14h18a1.5 1.5 0 010 3h-18A1.5 1.5 0 010 15.5z"/></symbol><symbol viewBox="0 0 20 20" id="search" xmlns="http://www.w3.org/2000/svg"><path d="M6.595 13.486L1 19M19 8.297a7.297 7.297 0 11-14.595 0 7.297 7.297 0 0114.595 0z" stroke="#D20E26" stroke-width="2" stroke-miterlimit="10" stroke-linecap="round"/></symbol><symbol viewBox="0 0 23 28" id="security" xmlns="http://www.w3.org/2000/svg"><path clip-rule="evenodd" d="M22.914 10.396c-.18 4.13-.946 7.603-2.143 9.786-2.018 3.68-6.147 6.053-8.266 6.687l-1.009.313-1.009-.313c-2.127-.634-6.248-3.015-8.266-6.687C1.017 18 .258 14.526.078 10.396 0 8.725 0 6.366 0 6.266V3.558l2.847-.008h.539c1.729 0 3.324-.335 4.724-.992C9.83 1.74 11.496 0 11.496 0s1.666 1.74 3.394 2.557c1.408.657 2.995.992 4.724.992h.539L23 3.557v2.71c-.008.1-.008 2.458-.086 4.13zm-1.54-5.274L20.2 5.13h-.586c-1.979 0-3.809-.382-5.428-1.153-1.697-.802-2.69-1.817-2.69-1.817s-1 1.015-2.69 1.817c-1.627.77-3.457 1.153-5.428 1.153h-.586l-1.173-.008v1.145c0 .1 0 2.42.07 4.06.172 3.901.868 7.13 1.948 9.107 1.697 3.092 5.302 5.328 7.327 5.931l.532.168.532-.168c2.018-.603 5.63-2.84 7.328-5.93 1.087-1.978 1.775-5.207 1.947-9.107.07-1.641.07-3.962.07-4.061V5.122zm-6.656 13.587H8.211c-.5 0-.899-.39-.899-.878v-4.916c0-.48.407-.877.9-.877v-1.603c0-1.748 1.454-3.168 3.253-3.168 1.799 0 3.253 1.427 3.253 3.168v1.603c.5 0 .9.389.9.877v4.916a.884.884 0 01-.9.878zm-3.785-2.137h1.11c.227 0 .274-.046.173-.26-.086-.19-.25-.58-.376-.862a.641.641 0 00.32-.558.67.67 0 00-.672-.656.66.66 0 00-.672.656.66.66 0 00.313.558c-.126.282-.274.671-.368.87-.094.206-.055.252.172.252zm2.237-6.13c0-.916-.767-1.664-1.705-1.664-.939 0-1.705.748-1.705 1.664v1.603h3.41v-1.603z"/></symbol><symbol viewBox="0 0 14 14" id="star" xmlns="http://www.w3.org/2000/svg"><path d="M13.982 5.103a.337.337 0 00-.272-.229L9.28 4.228 7.304.188A.332.332 0 007.002 0a.332.332 0 00-.303.188l-1.98 4.036L.29 4.87a.343.343 0 00-.273.23.331.331 0 00.086.345L3.31 8.587l-.755 4.434a.335.335 0 00.134.33c.105.076.24.087.355.027l3.961-2.093 3.962 2.093a.346.346 0 00.355-.026.335.335 0 00.134-.33l-.755-4.435 3.207-3.142a.344.344 0 00.075-.342z"/></symbol><symbol viewBox="0 0 17 17" id="zoom" xmlns="http://www.w3.org/2000/svg"><path d="M15.399 16.601a.85.85 0 101.202-1.202l-1.202 1.202zm-2.745-5.15a.85.85 0 10-1.202 1.203l1.202-1.202zM8.166 4.159a.85.85 0 00-1.7 0h1.7zm-1.7 6.316a.85.85 0 001.7 0h-1.7zm4.008-2.308a.85.85 0 000-1.7v1.7zm-6.316-1.7a.85.85 0 000 1.7v-1.7zm8.624.85a5.466 5.466 0 01-5.466 5.466v1.7a7.166 7.166 0 007.166-7.166h-1.7zm-5.466 5.466A5.466 5.466 0 011.85 7.316H.15a7.166 7.166 0 007.166 7.166v-1.7zM1.85 7.316A5.466 5.466 0 017.316 1.85V.15A7.166 7.166 0 00.15 7.316h1.7zM7.316 1.85a5.466 5.466 0 015.466 5.466h1.7A7.166 7.166 0 007.316.15v1.7zM16.6 15.399l-3.947-3.947-1.202 1.202 3.947 3.947 1.202-1.202zM6.466 4.158v6.316h1.7V4.158h-1.7zm4.008 2.308H4.158v1.7h6.316v-1.7z"/></symbol></svg>