<?xml version="1.0" encoding="utf-8"?>
<!-- Generator: Adobe Illustrator 25.2.1, SVG Export Plug-In . SVG Version: 6.00 Build 0)  -->
<svg version="1.1" id="Layer_1" xmlns="http://www.w3.org/2000/svg" xmlns:xlink="http://www.w3.org/1999/xlink" x="0px" y="0px"
	 viewBox="0 0 20.7 13.4" style="enable-background:new 0 0 20.7 13.4;" xml:space="preserve">
<path fill="#ee1e1e1" d="M14,5.1c0-0.1-0.1-0.2-0.3-0.2L9.3,4.2l-2-4C7.2,0.1,7.1,0,7,0C6.9,0,6.8,0.1,6.7,0.2l-2,4L0.3,4.9C0.2,4.9,0.1,5,0,5.1
	c0,0.1,0,0.3,0.1,0.3l3.2,3.1L2.6,13c0,0.1,0,0.3,0.1,0.3c0.1,0.1,0.2,0.1,0.4,0l4-2.1l4,2.1c0,0,0.1,0,0.2,0c0.1,0,0.1,0,0.2-0.1
	c0.1-0.1,0.2-0.2,0.1-0.3l-0.8-4.4l3.2-3.1C14,5.4,14,5.2,14,5.1z"/>
</svg>
