<svg width="19" height="17" viewBox="0 0 19 17" fill="none" xmlns="http://www.w3.org/2000/svg">
<path d="M18.1201 6.44083C18.0668 6.28431 17.9312 6.17523 17.7666 6.15151L12.0278 5.33574L9.46593 0.237144C9.39329 0.0901147 9.24316 0 9.07366 0C8.90416 0 8.75403 0.0901147 8.68139 0.237144L6.11469 5.33099L0.375922 6.14677C0.211266 6.17048 0.0756661 6.28431 0.0223948 6.43608C-0.0308764 6.5926 0.0127092 6.7586 0.13378 6.87243L4.28894 10.8375L3.31068 16.4341C3.28163 16.5953 3.34943 16.7566 3.48503 16.8514C3.62062 16.9463 3.79497 16.9605 3.9451 16.8846L9.07851 14.2429L14.2119 16.8846C14.2749 16.9178 14.3475 16.9321 14.4153 16.9321C14.5073 16.9321 14.5945 16.9036 14.672 16.8514C14.8076 16.7566 14.8754 16.5953 14.8463 16.4341L13.8681 10.8375L18.0232 6.87243C18.1298 6.76334 18.1734 6.5926 18.1201 6.44083Z" fill="black"/>
</svg>
