<svg width="73" height="73" viewBox="0 0 73 73" fill="none" xmlns="http://www.w3.org/2000/svg">
<path d="M63.8125 36.5H71M2 36.5H9.1875M36.5 2V9.1875M36.5 63.8125V71M60.1469 22.8438L66.3712 19.25M6.62875 53.75L12.8531 50.1562M19.25 6.62875L22.8438 12.8531M50.1562 60.1469L53.75 66.3712M50.1562 12.8531L53.75 6.62875M19.25 66.3712L22.8438 60.1469M6.62875 19.25L12.8531 22.8438M60.1469 50.1562L66.3712 53.75M56.625 36.5C56.625 47.6147 47.6147 56.625 36.5 56.625C25.3853 56.625 16.375 47.6147 16.375 36.5C16.375 25.3853 25.3853 16.375 36.5 16.375C47.6147 16.375 56.625 25.3853 56.625 36.5Z" stroke="#797362" stroke-width="3.5" stroke-miterlimit="10" stroke-linecap="round"/>
</svg>
