<svg width="264" height="33" viewBox="0 0 264 33" fill="none" xmlns="http://www.w3.org/2000/svg">
<mask id="mask0_337_3110" style="mask-type:alpha" maskUnits="userSpaceOnUse" x="0" y="0" width="264" height="33">
<path d="M194.797 18.695C194.718 18.8245 194.679 18.9685 194.679 19.1232C194.679 19.278 194.718 19.4219 194.797 19.5515C194.877 19.681 194.984 19.7962 195.125 19.8897C195.265 19.9869 195.434 20.0589 195.625 20.1129C195.816 20.1632 196.028 20.192 196.262 20.192C196.496 20.192 196.708 20.1632 196.906 20.1021C197.104 20.0409 197.284 19.9509 197.446 19.8322L197.979 20.1812C197.77 20.3468 197.518 20.4727 197.219 20.5591C196.921 20.6455 196.586 20.6887 196.219 20.6887C195.881 20.6887 195.567 20.6491 195.28 20.5735C194.992 20.4979 194.74 20.3864 194.527 20.2496C194.315 20.1093 194.15 19.9437 194.031 19.753C193.912 19.5623 193.854 19.3535 193.854 19.1268C193.854 18.9001 193.912 18.6914 194.031 18.5006C194.15 18.3099 194.315 18.1444 194.531 18.004C194.747 17.8637 194.999 17.7557 195.283 17.6801C195.571 17.6046 195.884 17.565 196.226 17.565C196.59 17.565 196.921 17.6082 197.219 17.6945C197.518 17.7809 197.773 17.9069 197.979 18.076L197.446 18.4179C197.284 18.2991 197.108 18.2092 196.906 18.1516C196.708 18.0904 196.492 18.0616 196.262 18.0616C196.032 18.0616 195.819 18.0868 195.625 18.1408C195.434 18.1912 195.265 18.2667 195.125 18.3603C194.984 18.4575 194.873 18.569 194.797 18.6986V18.695ZM214.99 17.6046H215.807V20.6419H215.13L212.686 18.5834V20.6419H211.87V17.6046H212.546L214.99 19.663V17.6046ZM221.291 12.9335H220.481L218.545 9.89618H219.438L220.909 12.2389L222.399 9.89618H223.223L221.291 12.9335ZM228.445 12.462H230.946V12.9335H227.621V9.89618H230.856V10.3676H228.445V11.1557H230.586V11.62H228.445V12.4584V12.462ZM223.95 19.3895C224.044 19.4939 224.094 19.627 224.094 19.7854C224.094 19.9437 224.03 20.0985 223.9 20.2352C223.77 20.372 223.572 20.4835 223.306 20.5663C223.04 20.6491 222.705 20.6887 222.299 20.6887C221.953 20.6887 221.622 20.6563 221.305 20.5879C220.989 20.5195 220.737 20.4331 220.553 20.3252L220.837 19.8861C221.014 19.9833 221.233 20.0625 221.496 20.1237C221.759 20.1884 222.025 20.2208 222.299 20.2208C222.529 20.2208 222.72 20.2028 222.864 20.1704C223.007 20.1345 223.112 20.0877 223.18 20.0301C223.249 19.9689 223.281 19.9041 223.281 19.8286C223.281 19.735 223.231 19.663 223.137 19.6054C223.04 19.5479 222.914 19.5047 222.759 19.4723C222.604 19.4399 222.435 19.4075 222.245 19.3787C222.057 19.3499 221.87 19.3176 221.68 19.278C221.492 19.2384 221.32 19.188 221.169 19.1268C221.014 19.0656 220.888 18.9829 220.791 18.8785C220.694 18.7741 220.647 18.641 220.647 18.4791C220.647 18.3171 220.712 18.1624 220.841 18.0256C220.971 17.8889 221.165 17.7773 221.431 17.6945C221.694 17.6118 222.029 17.5722 222.435 17.5722C222.702 17.5722 222.964 17.5938 223.227 17.6406C223.49 17.6873 223.716 17.7521 223.911 17.8385L223.652 18.2775C223.454 18.1948 223.249 18.1372 223.036 18.0976C222.824 18.058 222.622 18.04 222.428 18.04C222.201 18.04 222.014 18.058 221.874 18.0976C221.734 18.1336 221.629 18.184 221.564 18.2451C221.5 18.3063 221.467 18.3747 221.467 18.4539C221.467 18.5474 221.514 18.6194 221.611 18.677C221.705 18.7346 221.831 18.7777 221.985 18.8101C222.14 18.8425 222.313 18.8749 222.5 18.9037C222.691 18.9325 222.878 18.9685 223.065 19.0045C223.252 19.0405 223.425 19.0908 223.58 19.152C223.734 19.2132 223.857 19.296 223.954 19.4003L223.95 19.3895ZM235.614 20.1704H238.115V20.6419H234.79V17.6046H238.025V18.076H235.614V18.8641H237.755V19.3283H235.614V20.1668V20.1704ZM202.995 12.0482H203.996C204.053 12.0482 204.111 12.0482 204.168 12.0446L205.072 12.9335H205.957L204.938 11.9366C204.96 11.9294 204.985 11.9258 205.003 11.9186C205.284 11.8323 205.5 11.7099 205.651 11.548C205.802 11.386 205.878 11.1953 205.878 10.9722C205.878 10.7491 205.802 10.5583 205.651 10.3964C205.5 10.2345 205.284 10.1085 205.003 10.0221C204.723 9.93576 204.384 9.89258 203.992 9.89258H202.167V12.9299H202.992V12.0446L202.995 12.0482ZM202.995 10.3712H203.956C204.319 10.3712 204.593 10.4252 204.777 10.5259C204.96 10.6303 205.054 10.7779 205.054 10.9722C205.054 11.1665 204.96 11.3105 204.777 11.4184C204.593 11.5264 204.319 11.5804 203.956 11.5804H202.995V10.3676V10.3712ZM252.153 18.695C252.074 18.8245 252.035 18.9685 252.035 19.1232C252.035 19.278 252.074 19.4183 252.153 19.5479C252.232 19.6774 252.34 19.7926 252.484 19.8897C252.628 19.9869 252.797 20.0625 252.992 20.1129C253.186 20.1632 253.402 20.192 253.636 20.192C253.855 20.192 254.068 20.1668 254.273 20.1201C254.366 20.0985 254.46 20.0661 254.55 20.0301V19.0872H255.327V20.3C255.093 20.4259 254.827 20.5231 254.521 20.5879C254.215 20.6527 253.906 20.6851 253.593 20.6851C253.247 20.6851 252.931 20.6455 252.639 20.5699C252.351 20.4943 252.099 20.3828 251.883 20.246C251.667 20.1057 251.502 19.9401 251.383 19.7494C251.264 19.5587 251.207 19.3499 251.207 19.1232C251.207 18.8965 251.264 18.6878 251.383 18.4971C251.502 18.3063 251.667 18.1408 251.887 18.0004C252.103 17.8601 252.358 17.7521 252.65 17.6765C252.941 17.601 253.258 17.5614 253.607 17.5614C253.981 17.5614 254.32 17.6046 254.622 17.6873C254.924 17.7701 255.176 17.8925 255.385 18.058L254.867 18.4071C254.694 18.2883 254.507 18.202 254.305 18.1444C254.104 18.0868 253.884 18.058 253.643 18.058C253.402 18.058 253.197 18.0832 252.999 18.1372C252.801 18.1876 252.628 18.2631 252.484 18.3567C252.34 18.4539 252.229 18.5654 252.153 18.695ZM263.666 20.1704V20.6419H260.34V17.6046H263.576V18.076H261.164V18.8641H263.306V19.3283H261.164V20.1668H263.666V20.1704ZM245.798 19.6306C246.079 19.5443 246.295 19.4219 246.446 19.26C246.597 19.098 246.672 18.9073 246.672 18.6842C246.672 18.4611 246.597 18.2703 246.446 18.1084C246.295 17.9465 246.079 17.8205 245.798 17.7341C245.517 17.6478 245.179 17.6046 244.787 17.6046H242.962V20.6419H243.786V19.7566H244.787C244.844 19.7566 244.902 19.7566 244.96 19.753L245.863 20.6419H246.748L245.73 19.645C245.751 19.6378 245.776 19.6342 245.794 19.627L245.798 19.6306ZM245.571 19.134C245.388 19.242 245.114 19.296 244.751 19.296H243.79V18.0832H244.751C245.114 18.0832 245.388 18.1372 245.571 18.2379C245.755 18.3423 245.848 18.4899 245.848 18.6842C245.848 18.8785 245.755 19.0225 245.571 19.1304V19.134ZM236.621 12.4584H238.939V12.9371H235.797V9.89978H236.621V12.462V12.4584ZM228.845 17.6082H229.669V20.6455H228.845V17.6082ZM195.334 10.3748H193.865V9.89618H197.626V10.3748H196.158V12.9371H195.334V10.3748ZM214.054 12.9371H214.914L212.913 9.89978H212.103L210.11 12.9371H210.959L211.398 12.2353H213.615L214.054 12.9371ZM211.672 11.7927L212.503 10.4648L213.334 11.7927H211.672ZM206.389 18.0112C206.173 17.8709 205.921 17.7629 205.633 17.6837C205.345 17.6046 205.025 17.5686 204.679 17.5686C204.334 17.5686 204.021 17.6082 203.729 17.6837C203.438 17.7629 203.186 17.8709 202.97 18.0112C202.754 18.1516 202.589 18.3171 202.47 18.5042C202.351 18.695 202.293 18.9001 202.293 19.1268C202.293 19.3535 202.351 19.5587 202.47 19.7494C202.589 19.9401 202.754 20.1021 202.97 20.246C203.186 20.3864 203.438 20.4943 203.729 20.5735C204.021 20.6527 204.337 20.6923 204.687 20.6923C205.036 20.6923 205.345 20.6527 205.633 20.5735C205.921 20.4943 206.173 20.3864 206.389 20.2496C206.605 20.1093 206.77 19.9473 206.889 19.753C207.008 19.5623 207.065 19.3535 207.065 19.1268C207.065 18.9001 207.008 18.695 206.889 18.5042C206.77 18.3135 206.605 18.1516 206.389 18.0112ZM206.119 19.5551C206.04 19.6846 205.932 19.7962 205.791 19.8933C205.651 19.9905 205.489 20.0661 205.298 20.1165C205.108 20.1668 204.902 20.1956 204.679 20.1956C204.456 20.1956 204.248 20.1704 204.06 20.1165C203.87 20.0661 203.708 19.9905 203.567 19.8933C203.427 19.7962 203.319 19.681 203.24 19.5515C203.161 19.4219 203.121 19.278 203.121 19.1268C203.121 18.9757 203.161 18.8281 203.24 18.6986C203.319 18.569 203.427 18.4575 203.567 18.3603C203.708 18.2631 203.873 18.1876 204.06 18.1372C204.248 18.0832 204.453 18.058 204.679 18.058C204.906 18.058 205.111 18.0832 205.298 18.1372C205.489 18.1876 205.655 18.2631 205.791 18.3603C205.932 18.4575 206.04 18.569 206.119 18.6986C206.198 18.8281 206.238 18.9685 206.238 19.1268C206.238 19.2852 206.198 19.4255 206.119 19.5551Z" fill="url(#paint0_linear_337_3110)"/>
<path d="M74.2408 15.2764V25.7738H72.6357V15.2764C72.6357 10.3966 68.6556 6.42726 63.765 6.42726C58.8744 6.42726 54.8942 10.3966 54.8942 15.2764V25.7738H53.2892V4.82944H54.8942V9.72366C56.8087 6.68637 60.1663 4.82225 63.765 4.82225C69.5409 4.82225 74.2408 9.51134 74.2408 15.28V15.2764ZM49.2335 15.2836V25.781H47.6284V15.2836C47.6284 10.4038 43.6483 6.43446 38.7577 6.43446H37.6133V4.82944H38.7577C44.5336 4.82944 49.2335 9.51854 49.2335 15.2872V15.2836ZM161.685 15.3448V25.781H160.08V15.3448C160.08 10.465 156.1 6.49564 151.21 6.49564C146.319 6.49564 142.339 10.465 142.339 15.3448V25.781H140.734L140.712 0H142.317L142.324 9.81363C144.235 6.76554 147.596 4.89062 151.21 4.89062C156.985 4.89062 161.685 9.57972 161.685 15.3484V15.3448ZM166.9 4.83664H185.818V6.44166H166.9V15.3484C166.9 20.2282 170.88 24.1976 175.771 24.1976H176.246V25.8026H175.771C169.995 25.8026 165.295 21.1135 165.295 15.3448V0.0215921H166.9V4.83664ZM112.57 15.3412L112.578 25.7774H110.973L110.965 15.3448C110.965 10.465 106.985 6.49564 102.095 6.49564H100.853V4.89062H102.095C107.871 4.89062 112.57 9.57972 112.57 15.3484V15.3412ZM80.3513 9.58691C79.7144 10.6269 79.6028 11.7461 80.0455 12.7394C80.8408 14.5171 84.5474 14.5135 86.721 14.4919H87.3184C87.5739 14.4883 87.8258 14.4847 88.1065 14.4811C89.9526 14.4631 92.6589 14.4164 94.4474 15.2872C95.2859 15.6867 95.9733 16.2805 96.3619 17.155C97.0313 18.6664 96.8873 20.3362 95.9553 21.8549C94.4762 24.2624 91.3094 25.7594 87.6855 25.7594C82.91 25.7594 80.0455 22.7437 78.7607 20.9444L78.3001 20.2966L79.5308 19.343L79.9843 19.9799C81.0963 21.5382 83.5722 24.1508 87.6819 24.1508C91.3957 24.1508 93.7889 22.5134 94.7281 20.984C95.3651 19.9439 95.4838 18.8212 95.034 17.8315C94.2279 16.0574 90.5284 16.0574 88.3548 16.079H87.7574C87.5019 16.0826 87.25 16.0862 86.9693 16.0898C85.1232 16.1077 82.3882 16.1329 80.6248 15.2836C79.7863 14.8842 79.099 14.2904 78.7103 13.4159C78.041 11.9045 78.1849 10.2347 79.117 8.71603C80.5961 6.30851 83.7629 4.81505 87.3868 4.81505C92.1622 4.81505 95.0268 7.83075 96.3115 9.6301L96.7722 10.2779L95.5414 11.2315L95.088 10.5945C93.976 9.03631 91.5001 6.42366 87.3904 6.42366C83.6765 6.42366 81.287 8.06107 80.3477 9.59051L80.3513 9.58691ZM135.483 4.81145V9.74526C133.572 6.71156 130.226 4.84744 126.634 4.84744C120.869 4.84744 116.176 9.53653 116.176 15.3052C116.176 18.9903 118.094 22.2363 120.984 24.1004C122.614 25.1513 124.55 25.763 126.631 25.763C130.222 25.763 133.569 23.8989 135.48 20.8652V22.5458C135.48 27.4256 131.5 31.395 126.609 31.395C122.841 31.395 119.343 28.8003 118.141 25.1692L116.637 25.7378C118.084 30.0419 122.107 33 126.609 33C132.374 33 137.074 28.3181 137.085 22.5638V4.81145H135.48H135.483ZM126.634 24.1544C125.324 24.1544 124.083 23.8665 122.96 23.3519C119.908 21.9556 117.781 18.8715 117.781 15.3016C117.781 10.4218 121.751 6.45245 126.631 6.45245C131.51 6.45245 135.48 10.4218 135.48 15.3016C135.48 20.1815 131.51 24.1508 126.631 24.1508L126.634 24.1544Z" fill="url(#paint1_linear_337_3110)"/>
<path d="M19.3538 4.84753V4.84033H10.3354L10.2095 4.84753C8.47492 4.9159 6.76914 5.40893 5.27208 6.27981H5.17132V6.33739C1.97928 8.24829 0 11.7246 0 15.4313C0 21.0884 4.56674 25.8099 10.2059 26.015V26.0258H19.4005L19.5265 26.015C22.2291 25.8855 24.7518 24.7483 26.6411 22.7942C28.5664 20.8077 29.628 18.1915 29.628 15.4313C29.628 9.73815 25.0289 5.01307 19.3502 4.84393L19.3538 4.84753ZM19.0371 6.45255C23.6542 6.45255 27.5552 10.0224 27.9762 14.6036H21.1531C20.9084 11.4799 19.2494 8.57937 16.6799 6.76563C17.4465 6.55691 18.2382 6.44895 19.0371 6.44895V6.45255ZM12.9517 6.76923C12.4299 7.1363 11.9369 7.55734 11.4834 8.01798C10.6161 7.4098 9.66968 6.95636 8.66565 6.66487C10.0835 6.35178 11.5626 6.39137 12.9517 6.76923ZM11.685 10.2888C12.8617 11.4763 13.6354 12.9626 13.9341 14.6072H10.0979C10.2419 13.0525 10.7889 11.5663 11.685 10.2888ZM5.72552 7.89562H5.97743C7.57165 7.89562 9.11189 8.36705 10.4398 9.25593C9.30622 10.8286 8.62966 12.6747 8.47852 14.6072H1.6554C1.90731 11.8866 3.42236 9.38908 5.72912 7.89562H5.72552ZM10.5909 24.4172C5.95224 24.4172 2.04766 20.8293 1.6482 16.223H8.47492C8.70883 19.3611 10.3678 22.2832 12.9517 24.1041C12.1852 24.3129 11.3935 24.4208 10.5945 24.4208L10.5909 24.4172ZM10.0907 16.223H14.0637L14.0709 22.913C11.8037 21.4015 10.3318 18.9256 10.0943 16.223H10.0907ZM12.725 9.0544C13.3439 8.44262 14.0457 7.92441 14.8122 7.51416C17.5004 8.95004 19.253 11.5915 19.5301 14.6072H15.5643C15.2477 12.5055 14.2436 10.5443 12.725 9.0544ZM15.6759 16.223H19.5337C19.3034 18.868 17.8747 21.3943 15.6831 22.9094V16.223H15.6759ZM19.0299 24.4172C18.231 24.4172 17.4393 24.3129 16.6727 24.1005C19.2566 22.2796 20.9156 19.3611 21.1495 16.2194H27.9726C27.5696 20.8257 23.6686 24.4136 19.0299 24.4136V24.4172Z" fill="url(#paint2_linear_337_3110)"/>
</mask>
<g mask="url(#mask0_337_3110)">
<rect x="-11.4209" y="-9.93115" width="286.51" height="52.6345" fill="url(#paint3_linear_337_3110)"/>
</g>
<defs>
<linearGradient id="paint0_linear_337_3110" x1="212.721" y1="6.39877" x2="230.909" y2="17.0082" gradientUnits="userSpaceOnUse">
<stop stop-color="#FAE0B3"/>
<stop offset="1" stop-color="#9C874C"/>
</linearGradient>
<linearGradient id="paint1_linear_337_3110" x1="77.6654" y1="-10.6759" x2="122.116" y2="7.33825" gradientUnits="userSpaceOnUse">
<stop stop-color="#FAE0B3"/>
<stop offset="1" stop-color="#9C874C"/>
</linearGradient>
<linearGradient id="paint2_linear_337_3110" x1="8.00693" y1="-2.0134" x2="18.1903" y2="-0.728268" gradientUnits="userSpaceOnUse">
<stop stop-color="#FAE0B3"/>
<stop offset="1" stop-color="#9C874C"/>
</linearGradient>
<linearGradient id="paint3_linear_337_3110" x1="40.4688" y1="-0.744962" x2="210.538" y2="48.1654" gradientUnits="userSpaceOnUse">
<stop stop-color="#DECDA2"/>
<stop offset="1" stop-color="#917D52"/>
</linearGradient>
</defs>
</svg>
