<svg width="388" height="49" viewBox="0 0 388 49" fill="none" xmlns="http://www.w3.org/2000/svg">
<mask id="mask0_337_927" style="mask-type:alpha" maskUnits="userSpaceOnUse" x="0" y="0" width="388" height="49">
<path d="M286.656 27.5114C286.54 27.702 286.481 27.9139 286.481 28.1416C286.481 28.3693 286.54 28.5811 286.656 28.7718C286.773 28.9624 286.931 29.1319 287.138 29.2696C287.344 29.4125 287.593 29.5185 287.874 29.5979C288.155 29.672 288.467 29.7144 288.811 29.7144C289.156 29.7144 289.468 29.672 289.759 29.582C290.051 29.492 290.315 29.3596 290.554 29.1848L291.337 29.6985C291.03 29.9421 290.66 30.1275 290.22 30.2546C289.781 30.3817 289.288 30.4452 288.748 30.4452C288.25 30.4452 287.789 30.387 287.366 30.2757C286.942 30.1645 286.571 30.0004 286.259 29.7991C285.946 29.5926 285.703 29.349 285.528 29.0683C285.353 28.7877 285.269 28.4805 285.269 28.1469C285.269 27.8132 285.353 27.5061 285.528 27.2254C285.703 26.9447 285.946 26.7011 286.264 26.4946C286.582 26.2881 286.953 26.1292 287.371 26.018C287.795 25.9068 288.255 25.8485 288.758 25.8485C289.293 25.8485 289.781 25.9121 290.22 26.0392C290.66 26.1663 291.036 26.3516 291.337 26.6005L290.554 27.1036C290.315 26.9289 290.056 26.7965 289.759 26.7117C289.468 26.6217 289.15 26.5793 288.811 26.5793C288.472 26.5793 288.16 26.6164 287.874 26.6958C287.593 26.77 287.344 26.8812 287.138 27.0189C286.931 27.1619 286.767 27.326 286.656 27.5167V27.5114ZM316.37 25.9068H317.572V30.3764H316.577L312.981 27.3472V30.3764H311.779V25.9068H312.774L316.37 28.9359V25.9068ZM325.643 19.033H324.451L321.602 14.5634H322.916L325.082 18.0109L327.274 14.5634H328.487L325.643 19.033ZM336.171 18.3392H339.851V19.033H334.958V14.5634H339.719V15.2571H336.171V16.4169H339.322V17.1H336.171V18.3339V18.3392ZM329.556 28.5335C329.694 28.687 329.768 28.883 329.768 29.116C329.768 29.349 329.673 29.5767 329.482 29.7779C329.292 29.9792 329 30.1434 328.609 30.2652C328.217 30.387 327.724 30.4452 327.126 30.4452C326.617 30.4452 326.13 30.3975 325.664 30.2969C325.198 30.1963 324.827 30.0692 324.557 29.9103L324.976 29.2643C325.235 29.4072 325.558 29.5238 325.945 29.6138C326.331 29.7091 326.723 29.7568 327.126 29.7568C327.465 29.7568 327.745 29.7303 327.957 29.6826C328.169 29.6297 328.323 29.5608 328.423 29.4761C328.524 29.3861 328.571 29.2907 328.571 29.1795C328.571 29.0418 328.497 28.9359 328.36 28.8512C328.217 28.7665 328.031 28.7029 327.804 28.6553C327.576 28.6076 327.327 28.5599 327.046 28.5176C326.771 28.4752 326.496 28.4275 326.215 28.3693C325.94 28.311 325.685 28.2369 325.463 28.1469C325.235 28.0568 325.05 27.935 324.907 27.7815C324.764 27.6279 324.695 27.432 324.695 27.1936C324.695 26.9553 324.79 26.7276 324.981 26.5264C325.172 26.3252 325.458 26.161 325.849 26.0392C326.236 25.9174 326.729 25.8591 327.327 25.8591C327.719 25.8591 328.105 25.8909 328.492 25.9597C328.879 26.0286 329.212 26.1239 329.498 26.251L329.117 26.8971C328.826 26.7753 328.524 26.6906 328.211 26.6323C327.899 26.574 327.602 26.5476 327.316 26.5476C326.983 26.5476 326.707 26.574 326.501 26.6323C326.294 26.6853 326.141 26.7594 326.045 26.8494C325.95 26.9395 325.902 27.0401 325.902 27.1566C325.902 27.2943 325.971 27.4002 326.114 27.4849C326.252 27.5696 326.437 27.6332 326.665 27.6809C326.893 27.7285 327.147 27.7762 327.422 27.8185C327.703 27.8609 327.978 27.9139 328.254 27.9668C328.529 28.0198 328.783 28.0939 329.011 28.1839C329.239 28.274 329.419 28.3958 329.562 28.5493L329.556 28.5335ZM346.72 29.6826H350.4V30.3764H345.507V25.9068H350.268V26.6005H346.72V27.7603H349.871V28.4434H346.72V29.6773V29.6826ZM298.72 17.7302H300.192C300.277 17.7302 300.361 17.7302 300.446 17.7249L301.775 19.033H303.078L301.579 17.5661C301.611 17.5555 301.648 17.5502 301.675 17.5396C302.088 17.4125 302.405 17.2324 302.628 16.9941C302.85 16.7558 302.962 16.4751 302.962 16.1468C302.962 15.8185 302.85 15.5378 302.628 15.2995C302.405 15.0612 302.088 14.8758 301.675 14.7488C301.262 14.6217 300.764 14.5581 300.187 14.5581H297.502V19.0277H298.714V17.7249L298.72 17.7302ZM298.72 15.2624H300.134C300.668 15.2624 301.071 15.3419 301.341 15.4901C301.611 15.6437 301.749 15.8608 301.749 16.1468C301.749 16.4328 301.611 16.6446 301.341 16.8035C301.071 16.9624 300.668 17.0418 300.134 17.0418H298.72V15.2571V15.2624ZM371.059 27.5114C370.942 27.702 370.884 27.9139 370.884 28.1416C370.884 28.3693 370.942 28.5758 371.059 28.7665C371.175 28.9571 371.334 29.1266 371.546 29.2696C371.758 29.4125 372.007 29.5238 372.293 29.5979C372.579 29.672 372.896 29.7144 373.241 29.7144C373.564 29.7144 373.876 29.6773 374.178 29.6085C374.316 29.5767 374.453 29.529 374.586 29.4761V28.0886H375.73V29.8733C375.385 30.0586 374.994 30.2016 374.543 30.2969C374.093 30.3922 373.638 30.4399 373.177 30.4399C372.669 30.4399 372.203 30.3817 371.774 30.2704C371.35 30.1592 370.979 29.9951 370.662 29.7938C370.344 29.5873 370.1 29.3437 369.926 29.063C369.751 28.7824 369.666 28.4752 369.666 28.1416C369.666 27.8079 369.751 27.5008 369.926 27.2201C370.1 26.9395 370.344 26.6958 370.667 26.4893C370.985 26.2828 371.361 26.1239 371.79 26.0127C372.219 25.9015 372.685 25.8432 373.198 25.8432C373.749 25.8432 374.247 25.9068 374.692 26.0286C375.137 26.1504 375.507 26.3304 375.814 26.574L375.052 27.0877C374.798 26.913 374.522 26.7859 374.226 26.7011C373.929 26.6164 373.606 26.574 373.251 26.574C372.896 26.574 372.595 26.6111 372.303 26.6906C372.012 26.7647 371.758 26.8759 371.546 27.0136C371.334 27.1566 371.17 27.3207 371.059 27.5114ZM388 29.6826V30.3764H383.107V25.9068H387.867V26.6005H384.319V27.7603H387.47V28.4434H384.319V29.6773H388V29.6826ZM361.707 28.8883C362.12 28.7612 362.437 28.5811 362.66 28.3428C362.882 28.1045 362.994 27.8238 362.994 27.4955C362.994 27.1672 362.882 26.8865 362.66 26.6482C362.437 26.4099 362.12 26.2245 361.707 26.0974C361.294 25.9703 360.796 25.9068 360.219 25.9068H357.534V30.3764H358.746V29.0736H360.219C360.303 29.0736 360.388 29.0736 360.473 29.0683L361.802 30.3764H363.105L361.606 28.9095C361.638 28.8989 361.675 28.8936 361.701 28.883L361.707 28.8883ZM361.373 28.1575C361.103 28.3163 360.7 28.3958 360.166 28.3958H358.752V26.6111H360.166C360.7 26.6111 361.103 26.6906 361.373 26.8388C361.643 26.9924 361.781 27.2095 361.781 27.4955C361.781 27.7815 361.643 27.9933 361.373 28.1522V28.1575ZM348.203 18.3339H351.613V19.0383H346.99V14.5687H348.203V18.3392V18.3339ZM336.759 25.9121H337.971V30.3817H336.759V25.9121ZM287.445 15.2677H285.284V14.5634H290.818V15.2677H288.658V19.0383H287.445V15.2677ZM314.993 19.0383H316.259L313.315 14.5687H312.123L309.189 19.0383H310.439L311.085 18.0056H314.347L314.993 19.0383ZM311.488 17.3542L312.711 15.4001L313.934 17.3542H311.488ZM303.713 26.5052C303.396 26.2987 303.025 26.1398 302.601 26.0233C302.178 25.9068 301.706 25.8538 301.198 25.8538C300.69 25.8538 300.229 25.9121 299.8 26.0233C299.371 26.1398 299 26.2987 298.683 26.5052C298.365 26.7117 298.121 26.9553 297.946 27.2307C297.772 27.5114 297.687 27.8132 297.687 28.1469C297.687 28.4805 297.772 28.7824 297.946 29.063C298.121 29.3437 298.365 29.582 298.683 29.7938C299 30.0004 299.371 30.1592 299.8 30.2757C300.229 30.3922 300.695 30.4505 301.209 30.4505C301.722 30.4505 302.178 30.3922 302.601 30.2757C303.025 30.1592 303.396 30.0004 303.713 29.7991C304.031 29.5926 304.275 29.3543 304.45 29.0683C304.624 28.7877 304.709 28.4805 304.709 28.1469C304.709 27.8132 304.624 27.5114 304.45 27.2307C304.275 26.95 304.031 26.7117 303.713 26.5052ZM303.316 28.7771C303.2 28.9677 303.041 29.1319 302.834 29.2749C302.628 29.4178 302.39 29.529 302.109 29.6032C301.828 29.6773 301.526 29.7197 301.198 29.7197C300.87 29.7197 300.563 29.6826 300.287 29.6032C300.006 29.529 299.768 29.4178 299.562 29.2749C299.355 29.1319 299.196 28.9624 299.08 28.7718C298.963 28.5811 298.905 28.3693 298.905 28.1469C298.905 27.9245 298.963 27.7073 299.08 27.5167C299.196 27.326 299.355 27.1619 299.562 27.0189C299.768 26.8759 300.012 26.7647 300.287 26.6906C300.563 26.6111 300.864 26.574 301.198 26.574C301.532 26.574 301.833 26.6111 302.109 26.6906C302.39 26.7647 302.633 26.8759 302.834 27.0189C303.041 27.1619 303.2 27.326 303.316 27.5167C303.433 27.7073 303.491 27.9139 303.491 28.1469C303.491 28.3799 303.433 28.5864 303.316 28.7771Z" fill="url(#paint0_linear_337_927)"/>
<path d="M109.25 22.4802V37.9278H106.888V22.4802C106.888 15.2993 101.031 9.45812 93.8344 9.45812C86.6376 9.45812 80.7805 15.2993 80.7805 22.4802V37.9278H78.4187V7.10683H80.7805V14.309C83.5978 9.83941 88.5387 7.09624 93.8344 7.09624C102.334 7.09624 109.25 13.9965 109.25 22.4855V22.4802ZM72.4504 22.4908V37.9384H70.0885V22.4908C70.0885 15.3099 64.2315 9.46871 57.0346 9.46871H55.3506V7.10683H57.0346C65.5342 7.10683 72.4504 14.0071 72.4504 22.4961V22.4908ZM237.93 22.5809V37.9384H235.569V22.5809C235.569 15.3999 229.712 9.55874 222.515 9.55874C215.318 9.55874 209.461 15.3999 209.461 22.5809V37.9384H207.099L207.067 0H209.429L209.44 14.4414C212.252 9.95591 217.198 7.19686 222.515 7.19686C231.014 7.19686 237.93 14.0972 237.93 22.5862V22.5809ZM245.604 7.11742H273.443V9.4793H245.604V22.5862C245.604 29.7671 251.461 35.6083 258.658 35.6083H259.357V37.9702H258.658C250.158 37.9702 243.242 31.0699 243.242 22.5809V0.0317742H245.604V7.11742ZM165.655 22.5756L165.665 37.9331H163.303L163.293 22.5809C163.293 15.3999 157.436 9.55874 150.239 9.55874H148.412V7.19686H150.239C158.739 7.19686 165.655 14.0972 165.655 22.5862V22.5756ZM118.242 14.1077C117.305 15.6382 117.141 17.2852 117.792 18.7468C118.963 21.3629 124.417 21.3576 127.616 21.3258H128.495C128.871 21.3205 129.241 21.3152 129.655 21.3099C132.371 21.2834 136.354 21.2146 138.986 22.4961C140.219 23.084 141.231 23.9577 141.803 25.2446C142.788 27.4688 142.576 29.926 141.204 32.1608C139.028 35.7036 134.368 37.9066 129.035 37.9066C122.008 37.9066 117.792 33.4688 115.902 30.821L115.224 29.8677L117.035 28.4644L117.702 29.4017C119.339 31.6948 122.982 35.5394 129.03 35.5394C134.495 35.5394 138.016 33.1299 139.399 30.8792C140.336 29.3488 140.511 27.6965 139.849 26.2402C138.663 23.6294 133.219 23.6294 130.02 23.6612H129.141C128.765 23.6665 128.394 23.6718 127.981 23.6771C125.264 23.7035 121.24 23.7406 118.645 22.4908C117.411 21.903 116.399 21.0292 115.827 19.7424C114.842 17.5182 115.054 15.061 116.426 12.8262C118.602 9.28336 123.263 7.08565 128.595 7.08565C135.623 7.08565 139.838 11.5234 141.729 14.1713L142.407 15.1245L140.595 16.5279L139.928 15.5905C138.292 13.2975 134.648 9.45282 128.601 9.45282C123.136 9.45282 119.619 11.8624 118.237 14.113L118.242 14.1077ZM199.372 7.08035V14.3408C196.56 9.87648 191.635 7.13331 186.35 7.13331C177.867 7.13331 170.961 14.0336 170.961 22.5226C170.961 27.9454 173.784 32.7221 178.036 35.4653C180.435 37.0116 183.284 37.9119 186.345 37.9119C191.63 37.9119 196.555 35.1687 199.367 30.7045V33.1776C199.367 40.3585 193.51 46.1997 186.313 46.1997C180.769 46.1997 175.621 42.3815 173.852 37.0381L171.639 37.8748C173.768 44.2085 179.688 48.5616 186.313 48.5616C194.797 48.5616 201.713 41.6719 201.729 33.204V7.08035H199.367H199.372ZM186.35 35.5447C184.423 35.5447 182.596 35.1211 180.943 34.3638C176.453 32.3091 173.323 27.7706 173.323 22.5173C173.323 15.3363 179.164 9.49519 186.345 9.49519C193.526 9.49519 199.367 15.3363 199.367 22.5173C199.367 29.6983 193.526 35.5394 186.345 35.5394L186.35 35.5447Z" fill="url(#paint1_linear_337_927)"/>
<path d="M28.4803 7.13364V7.12305H15.2092L15.0239 7.13364C12.4714 7.23426 9.96121 7.95977 7.7582 9.24133H7.60992V9.32606C2.91263 12.1381 0 17.2537 0 22.7083C0 31.0331 6.72024 37.9811 15.0186 38.2829V38.2988H28.5491L28.7345 38.2829C32.7115 38.0923 36.4238 36.4189 39.2041 33.5433C42.0373 30.6201 43.5995 26.7701 43.5995 22.7083C43.5995 14.3305 36.8316 7.37724 28.475 7.12834L28.4803 7.13364ZM28.0142 9.49552C34.8086 9.49552 40.5492 14.7489 41.1688 21.4903H31.1281C30.768 16.8936 28.3267 12.6253 24.5456 9.95625C25.6735 9.6491 26.8386 9.49022 28.0142 9.49022V9.49552ZM19.0592 9.96154C18.2913 10.5017 17.5658 11.1213 16.8986 11.7991C15.6223 10.9042 14.2295 10.2369 12.752 9.80797C14.8385 9.34724 17.0151 9.40549 19.0592 9.96154ZM17.1951 15.1407C18.9268 16.8883 20.0654 19.0754 20.5049 21.4956H14.8597C15.0716 19.2078 15.8765 17.0207 17.1951 15.1407ZM8.42546 11.6191H8.79616C11.1422 11.6191 13.4087 12.3128 15.3628 13.6209C13.6947 15.9351 12.6991 18.6518 12.4767 21.4956H2.43602C2.80672 17.492 5.03621 13.8168 8.43075 11.6191H8.42546ZM15.5852 35.9317C8.75909 35.9317 3.01325 30.6518 2.42543 23.8733H12.4714C12.8156 28.4912 15.2569 32.7913 19.0592 35.4709C17.9312 35.7781 16.7662 35.9369 15.5905 35.9369L15.5852 35.9317ZM14.8491 23.8733H20.6956L20.7062 33.718C17.3699 31.4939 15.204 27.8504 14.8544 23.8733H14.8491ZM18.7256 13.3243C19.6365 12.424 20.6691 11.6615 21.7971 11.0578C25.753 13.1707 28.332 17.0578 28.7398 21.4956H22.9039C22.4379 18.4029 20.9604 15.5167 18.7256 13.3243ZM23.0681 23.8733H28.7451C28.4061 27.7657 26.3037 31.4833 23.0787 33.7128V23.8733H23.0681ZM28.0037 35.9317C26.828 35.9317 25.663 35.7781 24.535 35.4656C28.3373 32.786 30.7786 28.4912 31.1228 23.868H41.1635C40.5704 30.6465 34.8298 35.9264 28.0037 35.9264V35.9317Z" fill="url(#paint2_linear_337_927)"/>
</mask>
<g mask="url(#mask0_337_927)">
<rect x="-16.8066" y="-14.6143" width="421.618" height="77.4549" fill="url(#paint3_linear_337_927)"/>
</g>
<defs>
<linearGradient id="paint0_linear_337_927" x1="313.032" y1="9.41675" x2="339.797" y2="25.0292" gradientUnits="userSpaceOnUse">
<stop stop-color="#FAE0B3"/>
<stop offset="1" stop-color="#9C874C"/>
</linearGradient>
<linearGradient id="paint1_linear_337_927" x1="114.29" y1="-15.7102" x2="179.701" y2="10.7987" gradientUnits="userSpaceOnUse">
<stop stop-color="#FAE0B3"/>
<stop offset="1" stop-color="#9C874C"/>
</linearGradient>
<linearGradient id="paint2_linear_337_927" x1="11.7827" y1="-2.96265" x2="26.7682" y2="-1.0715" gradientUnits="userSpaceOnUse">
<stop stop-color="#FAE0B3"/>
<stop offset="1" stop-color="#9C874C"/>
</linearGradient>
<linearGradient id="paint3_linear_337_927" x1="59.5522" y1="-1.09617" x2="462" y2="109" gradientUnits="userSpaceOnUse">
<stop stop-color="#9D8A6D"/>
<stop offset="1" stop-color="#7B683C"/>
</linearGradient>
</defs>
</svg>
