<svg width="53" height="63" viewBox="0 0 53 63" fill="none" xmlns="http://www.w3.org/2000/svg">
<path d="M26.4512 0.00195312C11.971 0.00195312 0 11.5806 0 25.906C0 33.1248 2.6222 39.8266 6.94647 45.5069C11.6727 51.7727 17.5483 57.232 24.1996 61.5171C25.8608 62.5822 27.2269 62.5075 28.7405 61.5171C35.3541 57.232 41.2297 51.7727 45.9968 45.5069C50.3179 39.8266 52.9433 33.1248 52.9433 25.906C52.9433 11.5806 40.9722 0.00195312 26.4512 0.00195312Z" fill="#130F26"/>
<path d="M31.9767 13.009V13H20.7023L20.5448 13.009C18.3763 13.0945 16.2438 13.7108 14.3722 14.7996H14.2463V14.8716C10.2557 17.2605 7.78125 21.6065 7.78125 26.2405C7.78125 33.3128 13.4904 39.2155 20.5403 39.4719V39.4854H32.0352L32.1926 39.4719C35.5714 39.31 38.7251 37.8883 41.0871 35.4453C43.4941 32.9619 44.8213 29.6912 44.8213 26.2405C44.8213 19.1231 39.0716 13.216 31.9722 13.0045L31.9767 13.009ZM31.5808 15.0155C37.353 15.0155 42.2298 19.4785 42.7562 25.2057H34.2262C33.9202 21.3006 31.8462 17.6744 28.634 15.4069C29.5922 15.146 30.582 15.011 31.5808 15.011V15.0155ZM23.973 15.4114C23.3207 15.8703 22.7043 16.3967 22.1375 16.9726C21.0532 16.2123 19.87 15.6454 18.6148 15.281C20.3874 14.8896 22.2364 14.9391 23.973 15.4114ZM22.3894 19.8114C23.8606 21.2961 24.8278 23.1542 25.2013 25.2102H20.4054C20.5853 23.2666 21.2692 21.4086 22.3894 19.8114ZM14.9391 16.8196H15.254C17.2471 16.8196 19.1726 17.409 20.8328 18.5202C19.4156 20.4863 18.5698 22.7942 18.3808 25.2102H9.85078C10.1657 21.809 12.0598 18.6867 14.9436 16.8196H14.9391ZM21.0217 37.4744C15.2225 37.4744 10.3412 32.9889 9.84178 27.2302H18.3763C18.6688 31.1533 20.7428 34.8065 23.973 37.083C23.0148 37.3439 22.025 37.4789 21.0262 37.4789L21.0217 37.4744ZM20.3964 27.2302H25.3632L25.3722 35.5938C22.5379 33.7042 20.6978 30.609 20.4009 27.2302H20.3964ZM23.6896 18.2683C24.4634 17.5035 25.3407 16.8556 26.299 16.3427C29.6597 18.1378 31.8507 21.4401 32.1971 25.2102H27.2393C26.8434 22.5828 25.5882 20.1309 23.6896 18.2683ZM27.3788 27.2302H32.2016C31.9137 30.537 30.1276 33.6952 27.3878 35.5893V27.2302H27.3788ZM31.5718 37.4744C30.573 37.4744 29.5832 37.3439 28.625 37.0785C31.8552 34.802 33.9292 31.1533 34.2217 27.2257H42.7517C42.2478 32.9844 37.371 37.4699 31.5718 37.4699V37.4744Z" fill="#E8D4B5"/>
</svg>
