<svg  class="main-svg-sprite main-svg-sprite--icons" xmlns="http://www.w3.org/2000/svg" xmlns:xlink="http://www.w3.org/1999/xlink"><symbol viewBox="0 0 7.06 4.03" id="arr-d" xmlns="http://www.w3.org/2000/svg"><path d="M3.53 4a.47.47 0 01-.35-.15l-3-3a.48.48 0 010-.7.48.48 0 01.7 0l2.65 2.67L6.21.15a.48.48 0 01.7 0 .48.48 0 010 .7l-3 3a.47.47 0 01-.38.15z"/></symbol><symbol viewBox="0 0 11 23" id="arr-d2" xmlns="http://www.w3.org/2000/svg"><path d="M5.21 21l.707.707-.707.707-.707-.707L5.21 21zm-1-20a1 1 0 012 0h-2zm5.918 16.497l-4.21 4.21-1.415-1.414 4.21-4.21 1.415 1.414zm-5.625 4.21l-4.21-4.21 1.414-1.415 4.21 4.21-1.414 1.415zM4.21 21V1h2v20h-2z"/></symbol><symbol viewBox="0 0 23 11" id="arr-r2" xmlns="http://www.w3.org/2000/svg"><path d="M21 5.21l.707-.707.707.708-.707.707L21 5.21zm-20 1a1 1 0 010-2v2zM17.497.294l4.21 4.21-1.414 1.415-4.21-4.21L17.496.292zm4.21 5.625l-4.21 4.21-1.415-1.414 4.21-4.21 1.415 1.414zM21 6.21H1v-2h20v2z"/></symbol><symbol viewBox="0 0 20 9" id="arr-r3" xmlns="http://www.w3.org/2000/svg"><path d="M19.05 4.934l.278-.278.278.278-.278.277-.278-.277zm-17.682.393a.393.393 0 010-.786v.786zM15.605.933l3.723 3.723-.556.555L15.05 1.49l.555-.556zm3.723 4.278l-3.723 3.723-.555-.556 3.722-3.722.556.555zm-.278.116H1.368V4.54H19.05v.786z"/></symbol><symbol viewBox="0 0 13.97 13.97" id="close" xmlns="http://www.w3.org/2000/svg"><g data-name="Layer 2"><path d="M14 1.41L8.39 7 14 12.56 12.56 14 7 8.39 1.41 14 0 12.56 5.58 7 0 1.41 1.41 0 7 5.58 12.56 0z" data-name="Layer 1"/></g></symbol><symbol viewBox="0 0 13 12" id="close2" xmlns="http://www.w3.org/2000/svg"><path d="M1.965 1.095l9.224 9.224m-9.224 0l9.224-9.224" stroke="#C09D84" stroke-width="2" stroke-miterlimit="10" stroke-linecap="round" stroke-linejoin="round"/></symbol><symbol viewBox="0 0 14 17" id="location-icon" xmlns="http://www.w3.org/2000/svg"><path clip-rule="evenodd" d="M3.532.937a6.89 6.89 0 017.034.058C12.71 2.327 14.012 4.705 14 7.26c-.05 2.54-1.447 4.929-3.193 6.775a18.727 18.727 0 01-3.358 2.82A1.174 1.174 0 017.04 17a.82.82 0 01-.39-.119 18.515 18.515 0 01-4.839-4.547A9.28 9.28 0 010 7.134C-.001 4.572 1.347 2.206 3.532.937zm1.262 7.258a2.378 2.378 0 002.198 1.497 2.339 2.339 0 001.683-.702c.446-.453.696-1.07.694-1.712a2.423 2.423 0 00-1.462-2.243 2.346 2.346 0 00-2.594.52 2.455 2.455 0 00-.519 2.64z"/></symbol><symbol viewBox="0 0 64 46" id="logo-icon" xmlns="http://www.w3.org/2000/svg"><path d="M41.545.015V0H22.186l-.27.015A22.934 22.934 0 0011.317 3.09h-.216v.124C4.249 7.316 0 14.778 0 22.734c0 12.144 9.803 22.28 21.908 22.72v.023h19.737l.27-.023a22.652 22.652 0 0015.273-6.914A22.607 22.607 0 0063.6 22.735C63.6 10.514 53.727.37 41.537.008l.008.007zm-.68 3.446c9.911 0 18.285 7.663 19.19 17.497H45.407c-.526-6.705-4.087-12.932-9.603-16.825a19.25 19.25 0 015.06-.68v.008zm-13.063.68a23.053 23.053 0 00-3.151 2.68 20.422 20.422 0 00-6.05-2.904 19.3 19.3 0 019.201.224zm-2.719 7.555a17.534 17.534 0 014.828 9.27h-8.235a19.219 19.219 0 013.407-9.27zM12.291 6.559h.54c3.422 0 6.729 1.012 9.58 2.92a22.636 22.636 0 00-4.21 11.487H3.552c.541-5.84 3.793-11.202 8.745-14.407h-.008zm10.444 35.465c-9.958 0-18.34-7.702-19.197-17.59h14.654c.503 6.736 4.064 13.01 9.61 16.918-1.645.448-3.345.68-5.06.68l-.007-.008zm-1.074-17.59h8.528l.016 14.361c-4.867-3.245-8.026-8.56-8.536-14.36h-.008zm5.655-15.388a19.378 19.378 0 014.48-3.306c5.77 3.082 9.533 8.752 10.128 15.226H33.41a21.178 21.178 0 00-6.095-11.92zm6.334 15.388h8.281c-.494 5.678-3.56 11.101-8.265 14.353V24.434h-.016zm7.2 17.59c-1.715 0-3.415-.224-5.06-.68 5.547-3.909 9.108-10.174 9.61-16.918h14.647c-.866 9.889-9.24 17.59-19.197 17.59v.008z"/></symbol><symbol viewBox="0 0 30 18" id="menu" xmlns="http://www.w3.org/2000/svg"><rect width="30" height="2" rx="1"/><rect y="8" width="30" height="2" rx="1"/><rect y="16" width="30" height="2" rx="1"/></symbol><symbol viewBox="0 0 9 9" id="phone" xmlns="http://www.w3.org/2000/svg"><path d="M2.25 0H.5C.225 0 0 .225 0 .5A8.5 8.5 0 008.5 9c.275 0 .5-.225.5-.5V6.755c0-.275-.225-.5-.5-.5-.62 0-1.225-.1-1.785-.285a.512.512 0 00-.51.12l-1.1 1.1A7.574 7.574 0 011.81 3.895l1.1-1.1c.14-.14.18-.335.125-.51A5.68 5.68 0 012.75.5c0-.275-.225-.5-.5-.5z"/></symbol><symbol viewBox="0 0 32 32" id="search" xmlns="http://www.w3.org/2000/svg"><path d="M19.427 20.427a8.5 8.5 0 112-2l5.585 5.585c.55.55.546 1.431 0 1.976l-.023.023a1.398 1.398 0 01-1.976 0l-5.585-5.585zM14.5 20a6.5 6.5 0 100-13 6.5 6.5 0 000 13z"/></symbol></svg>