<svg width="61" height="66" viewBox="0 0 61 66" fill="none" xmlns="http://www.w3.org/2000/svg">
<mask id="mask0" mask-type="alpha" maskUnits="userSpaceOnUse" x="0" y="0" width="61" height="66">
<path d="M48.7619 26.2857V18.2786C48.7619 9.99048 40.4738 1 29.7976 1C19.1214 1 10.8333 9.99048 10.8333 18.2786V22.0714M10.8333 22.0714H8.02381C6.47857 22.0714 5.21429 23.3357 5.21429 24.881V31.9048C5.21429 33.45 6.47857 34.7143 8.02381 34.7143H10.8333V22.0714ZM43.1429 27.6905V30.5C43.1429 34.5738 41.4571 38.9286 37.5238 41.5976M22.0714 9.42857C22.0714 17.2952 37.9452 27.6905 45.9524 27.6905M22.0714 16.4524C18.7 17.8571 15.0476 21.5095 15.0476 26.2857V30.5C15.0476 35.4167 18.7 40.3333 24.4595 42.8619M34.7143 47.3571C34.7143 48.9024 33.45 50.1667 31.9048 50.1667H29.0952C27.55 50.1667 26.2857 48.9024 26.2857 47.3571C26.2857 45.8119 27.55 44.5476 29.0952 44.5476H31.9048C33.5905 44.5476 34.7143 45.8119 34.7143 47.3571ZM34.7143 47.3571H33.3095M34.7143 47.3571C42.4405 47.3571 48.7619 42.019 48.7619 34.5738M1 65.619L2.26429 61.6857C3.24762 58.8762 5.49524 56.769 8.44524 56.0667C8.44524 56.0667 14.9071 54.6619 16.4524 54.2405C18.419 53.819 20.6667 52.1333 20.6667 48.6214C20.6667 46.6548 20.6667 40.1929 20.6667 40.1929M60 65.619L58.7357 61.6857C57.7524 58.8762 55.5048 56.769 52.5548 56.0667C52.5548 56.0667 46.0929 54.6619 44.5476 54.2405C42.8619 53.819 41.0357 52.5548 40.4738 50.0262M51.5714 22.0714H48.7619V34.7143H51.5714C53.1167 34.7143 54.381 33.45 54.381 31.9048V24.881C54.381 23.3357 53.2571 22.0714 51.5714 22.0714Z" stroke="#119937" stroke-width="2" stroke-miterlimit="10"/>
</mask>
<g mask="url(#mask0)">
<rect x="-21" y="-21" width="106" height="104" fill="#23266D"/>
<path d="M24.5 45.5064L31.5 39.0064L34.5 42.0063C35.8333 42.673 38.7 43.9063 39.5 43.5063C40.3 43.1063 43.5 41.0064 45 40.0064C45.6667 36.5064 47 29.3063 47 28.5063V24.5063L41 11.5064C46.1667 2.17303 56.7 -16.3936 57.5 -15.9936C58.5 -15.4936 69.5 13.0064 70 13.5064C70.4 13.9064 63.8333 30.673 60.5 39.0064L44 47.0064L38.5 49.5064L33 54.5064L24 52.0064L24.5 45.5064Z" fill="#119937"/>
<path d="M49 15H37.5L35.5 8.5L28.5 5.5L18 8L13 20.5V36C13 36.5 10.5 47 8 49C5.5 51 -5 49 -9 45C-13 41 -18 25 -18.5 17.5C-19 10 -4 -4.49996 0.999998 -6.99996C6 -9.49996 23.5 -14.5 27.5 -13.5C31.5 -12.5 47 -5.49996 51 -2.49996C54.2 -0.0999565 51 10.1667 49 15Z" fill="#119937"/>
</g>
</svg>
