<svg width="70" height="67" viewBox="0 0 70 67" fill="none" xmlns="http://www.w3.org/2000/svg">
<mask id="mask0" mask-type="alpha" maskUnits="userSpaceOnUse" x="0" y="0" width="70" height="67">
<path d="M11.7447 24.4894H33.766M0 36.234H22.0213M7.34043 47.9787H29.3617M41.1064 6.87234H35.234V1H49.9149V6.87234H44.0426M45.5106 9.80851V12.8915C58.7234 14.3596 69 25.517 69 39.1702C69 53.7043 57.1085 65.5957 42.5745 65.5957H20.5532M19.6723 52.383C21.434 55.3191 23.6362 57.9617 26.4255 60.1638M16.1489 40.6383C16.2957 43.134 16.7362 45.6298 17.617 47.8319M18.2043 28.8936C17.1766 31.2426 16.5894 33.5915 16.2957 36.234M39.6383 9.80851V12.8915C31.7106 13.7723 24.8106 18.1766 20.5532 24.4894M45.5106 36.234L57.2553 24.4894M67.5319 17.1489L63.1277 12.7447M60.1915 20.0851L64.5957 15.6809M60.3383 28.8936C62.1 31.9766 63.1277 35.5 63.1277 39.1702C63.1277 50.4745 53.8787 59.7234 42.5745 59.7234H36.7021M17.617 65.5957H14.6809M46.9787 39.1702C46.9787 41.6026 45.0069 43.5745 42.5745 43.5745C40.1421 43.5745 38.1702 41.6026 38.1702 39.1702C38.1702 36.7378 40.1421 34.766 42.5745 34.766C45.0069 34.766 46.9787 36.7378 46.9787 39.1702Z" stroke="#119937" stroke-width="2" stroke-miterlimit="10"/>
</mask>
<g mask="url(#mask0)">
<circle cx="44.0425" cy="43.5745" r="54.3191" fill="#119937"/>
<ellipse cx="49.9149" cy="39.9041" rx="14.6809" ry="19.8191" fill="#23266D"/>
<ellipse cx="44.0425" cy="53.851" rx="14.6809" ry="8.80851" fill="#23266D"/>
</g>
</svg>
