<svg width="66" height="68" viewBox="0 0 66 68" fill="none" xmlns="http://www.w3.org/2000/svg">
<mask id="mask0" mask-type="alpha" maskUnits="userSpaceOnUse" x="0" y="0" width="66" height="68">
<path d="M48.6377 11.9372L49.3106 11.1975L49.3053 11.1927L48.6377 11.9372ZM46.6872 11.9372L47.3604 12.6768L47.3669 12.6708L46.6872 11.9372ZM31.264 25.9764L31.934 26.7187L31.9372 26.7159L31.264 25.9764ZM64.0609 25.9584L63.3878 26.698L63.3909 26.7008L64.0609 25.9584ZM33.131 17.1735C33.6166 16.9104 33.797 16.3035 33.5339 15.8179C33.2708 15.3323 32.6639 15.1519 32.1783 15.415L33.131 17.1735ZM26.135 19.8264L25.6586 18.9471L25.6464 18.9539L26.135 19.8264ZM24.7082 21.6553L23.7398 21.4057L23.7375 21.4152L24.7082 21.6553ZM16.0575 56.6365L15.0868 56.3964L15.0865 56.3977L16.0575 56.6365ZM18.1705 60.1149L17.9244 61.0842L17.9338 61.0865L18.1705 60.1149ZM25.808 63.005C26.3445 63.1357 26.8855 62.8067 27.0163 62.2701C27.147 61.7335 26.818 61.1926 26.2814 61.0618L25.808 63.005ZM31.5277 11.9798C32.0761 11.914 32.4672 11.4161 32.4014 10.8677C32.3355 10.3194 31.8376 9.92824 31.2892 9.99409L31.5277 11.9798ZM24.6902 11.7938L24.7998 12.7878L24.8094 12.7867L24.6902 11.7938ZM22.6855 12.9772L23.4964 13.5625L23.5018 13.5549L22.6855 12.9772ZM1.53733 42.2747L0.726491 41.6894L0.723281 41.6939L1.53733 42.2747ZM2.20555 46.273L2.78539 45.4583L2.78078 45.455L2.20555 46.273ZM11.7032 54.2597C12.1531 54.58 12.7775 54.4748 13.0977 54.0248C13.418 53.5749 13.3128 52.9505 12.8628 52.6303L11.7032 54.2597ZM55.5593 16.8813L49.3106 11.1975L47.9648 12.677L54.2136 18.3608L55.5593 16.8813ZM49.3053 11.1927C48.3719 10.3557 46.9389 10.3407 46.0075 11.2037L47.3669 12.6708C47.5191 12.5297 47.7837 12.5147 47.9701 12.6818L49.3053 11.1927ZM46.0141 11.1977L30.5909 25.2369L31.9372 26.7159L47.3604 12.6768L46.0141 11.1977ZM30.594 25.234C29.7876 25.9618 29.3249 27.0027 29.3249 28.0921H31.3249C31.3249 27.5678 31.5484 27.0667 31.934 26.7187L30.594 25.234ZM29.3249 28.0921V64.1312H31.3249V28.0921H29.3249ZM29.3249 64.1312C29.3249 66.2681 31.0797 68 33.2145 68V66C32.1707 66 31.3249 65.15 31.3249 64.1312H29.3249ZM33.2145 68H62.1104V66H33.2145V68ZM62.1104 68C64.2451 68 66 66.2681 66 64.1312H64C64 65.15 63.1542 66 62.1104 66V68ZM66 64.1312V28.0742H64V64.1312H66ZM66 28.0742C66 26.9847 65.5373 25.9439 64.7309 25.2161L63.3909 26.7008C63.7765 27.0488 64 27.5499 64 28.0742H66ZM64.734 25.2189L58.4491 19.4992L57.103 20.9784L63.3878 26.698L64.734 25.2189ZM44.4117 44.4662H37.9101V46.4662H44.4117V44.4662ZM37.9101 44.4662C38.2569 44.4662 38.5489 44.7457 38.5489 45.1076H36.5489C36.5489 45.8639 37.166 46.4662 37.9101 46.4662V44.4662ZM38.5489 45.1076V38.6528H36.5489V45.1076H38.5489ZM38.5489 38.6528C38.5489 39.0147 38.2569 39.2942 37.9101 39.2942V37.2942C37.166 37.2942 36.5489 37.8965 36.5489 38.6528H38.5489ZM37.9101 39.2942H44.4117V37.2942H37.9101V39.2942ZM44.4117 39.2942C44.0649 39.2942 43.7729 39.0147 43.7729 38.6528H45.7729C45.7729 37.8965 45.1558 37.2942 44.4117 37.2942V39.2942ZM43.7729 38.6528V45.1076H45.7729V38.6528H43.7729ZM43.7729 45.1076C43.7729 44.7457 44.0649 44.4662 44.4117 44.4662V46.4662C45.1558 46.4662 45.7729 45.8639 45.7729 45.1076H43.7729ZM57.4148 54.5069H50.9132V56.5069H57.4148V54.5069ZM50.9132 54.5069C51.26 54.5069 51.552 54.7865 51.552 55.1483H49.552C49.552 55.9046 50.1691 56.5069 50.9132 56.5069V54.5069ZM51.552 55.1483V48.6936H49.552V55.1483H51.552ZM51.552 48.6936C51.552 49.0554 51.26 49.335 50.9132 49.335V47.335C50.1691 47.335 49.552 47.9372 49.552 48.6936H51.552ZM50.9132 49.335H57.4148V47.335H50.9132V49.335ZM57.4148 49.335C57.068 49.335 56.776 49.0554 56.776 48.6936H58.776C58.776 47.9372 58.1589 47.335 57.4148 47.335V49.335ZM56.776 48.6936V55.1483H58.776V48.6936H56.776ZM56.776 55.1483C56.776 54.7865 57.068 54.5069 57.4148 54.5069V56.5069C58.1589 56.5069 58.776 55.9046 58.776 55.1483H56.776ZM42.75 57.4402L54.3083 37.3587L52.5749 36.361L41.0166 56.4425L42.75 57.4402ZM39.4294 14.9192C38.8725 13.7321 38.5489 12.4241 38.5489 11.0407H36.5489C36.5489 12.7414 36.9476 14.338 37.6188 15.7686L39.4294 14.9192ZM38.5489 11.0407C38.5489 6.05949 42.6274 2 47.6624 2V0C41.5365 0 36.5489 4.94132 36.5489 11.0407H38.5489ZM47.6624 2C52.6975 2 56.776 6.05949 56.776 11.0407H58.776C58.776 4.94132 53.7884 0 47.6624 0V2ZM56.776 11.0407C56.776 16.022 52.6975 20.0815 47.6624 20.0815V22.0815C53.7884 22.0815 58.776 17.1402 58.776 11.0407H56.776ZM46.6624 18.2127V23.9503H48.6624V18.2127H46.6624ZM32.1783 15.415L25.6586 18.9472L26.6113 20.7057L33.131 17.1735L32.1783 15.415ZM25.6464 18.9539C24.7137 19.4762 24.0095 20.3594 23.7399 21.4057L25.6766 21.9048C25.8043 21.4091 26.1476 20.9655 26.6236 20.6989L25.6464 18.9539ZM23.7375 21.4152L15.0868 56.3964L17.0283 56.8766L25.679 21.8953L23.7375 21.4152ZM15.0865 56.3977C14.5734 58.4836 15.8494 60.5571 17.9244 61.0841L18.4167 59.1457C17.3854 58.8838 16.7831 57.8734 17.0286 56.8753L15.0865 56.3977ZM17.9338 61.0865L25.808 63.005L26.2814 61.0618L18.4073 59.1433L17.9338 61.0865ZM31.2892 9.99409L24.5709 10.8009L24.8094 12.7867L31.5277 11.9798L31.2892 9.99409ZM24.5805 10.7998C23.4808 10.9211 22.5024 11.505 21.8693 12.3995L23.5018 13.5549C23.8078 13.1225 24.2742 12.8458 24.7998 12.7878L24.5805 10.7998ZM21.8747 12.3919L0.726503 41.6894L2.34815 42.8599L23.4964 13.5625L21.8747 12.3919ZM0.723281 41.6939C-0.51425 43.4284 -0.132131 45.8516 1.63031 47.091L2.78078 45.455C1.94259 44.8656 1.74679 43.7028 2.35137 42.8555L0.723281 41.6939ZM1.62571 47.0878L11.7032 54.2597L12.8628 52.6303L2.78538 45.4583L1.62571 47.0878Z" fill="#119937"/>
</mask>
<g mask="url(#mask0)">
<rect x="-3" y="-4" width="84" height="85" fill="#119937"/>
<path d="M28.5 53.9999V72.4999C25.1667 77.4999 17.7 87.4 14.5 87C10.5 86.5 -10 72.4999 -14 67.5C-18 62.5001 -12.5 42.5 -10 28.5C-7.50001 14.5 9.99999 -7.9155e-05 16.5 -1.00008C23 -2.00008 35 5.99992 35 7.99992V17.9999L28.5 23.4999V53.9999Z" fill="#23266D"/>
</g>
</svg>
