<svg width="64" height="55" viewBox="0 0 64 55" fill="none" xmlns="http://www.w3.org/2000/svg">
<mask id="mask0" mask-type="alpha" maskUnits="userSpaceOnUse" x="0" y="0" width="64" height="55">
<path d="M55.9545 1H56.9545V0H55.9545V1ZM1 1V0H0V1H1ZM1 54H0V55H1V54ZM55.9545 54V55H56.9545V54H55.9545ZM20.7273 1V0H19.7273V1H20.7273ZM36.2273 1H37.2273V0H36.2273V1ZM36.2273 7.97368V8.97368H37.2273V7.97368H36.2273ZM20.7273 7.97368H19.7273V8.97368H20.7273V7.97368ZM57.3636 19.1316L58.0671 18.4209C57.6785 18.0362 57.053 18.035 56.6629 18.4182L57.3636 19.1316ZM39.0455 37.1237L38.342 37.8344C38.7306 38.2191 39.3561 38.2203 39.7462 37.8371L39.0455 37.1237ZM32 30.15L32.7035 29.4393C32.3138 29.0536 31.6862 29.0536 31.2965 29.4393L32 30.15ZM26.3636 35.7289L25.6602 35.0182C25.2694 35.405 25.2642 36.0346 25.6483 36.4278L26.3636 35.7289ZM38.7636 48.4211L38.0483 49.1199C38.2338 49.3097 38.487 49.418 38.7523 49.421C39.0176 49.424 39.2733 49.3214 39.4629 49.1359L38.7636 48.4211ZM63 24.7105L63.6993 25.4253C63.8909 25.2379 63.9992 24.9815 64 24.7135C64.0008 24.4454 63.894 24.1883 63.7035 23.9998L63 24.7105ZM56.9545 14.9474V1H54.9545V14.9474H56.9545ZM55.9545 0H1V2H55.9545V0ZM0 1V54H2V1H0ZM1 55H55.9545V53H1V55ZM56.9545 54V38.6579H54.9545V54H56.9545ZM20.7273 2H36.2273V0H20.7273V2ZM35.2273 1V7.97368H37.2273V1H35.2273ZM36.2273 6.97368H20.7273V8.97368H36.2273V6.97368ZM21.7273 7.97368V1H19.7273V7.97368H21.7273ZM6.63636 49.4211H9.45455V47.4211H6.63636V49.4211ZM12.2727 49.4211H15.0909V47.4211H12.2727V49.4211ZM56.6629 18.4182L38.3447 36.4103L39.7462 37.8371L58.0644 19.845L56.6629 18.4182ZM39.7489 36.413L32.7035 29.4393L31.2965 30.8607L38.342 37.8344L39.7489 36.413ZM31.2965 29.4393L25.6602 35.0182L27.0671 36.4397L32.7035 30.8607L31.2965 29.4393ZM25.6483 36.4278L38.0483 49.1199L39.4789 47.7222L27.0789 35.0301L25.6483 36.4278ZM39.4629 49.1359L63.6993 25.4253L62.3007 23.9957L38.0643 47.7062L39.4629 49.1359ZM63.7035 23.9998L58.0671 18.4209L56.6602 19.8423L62.2965 25.4212L63.7035 23.9998Z" fill="#119937"/>
</mask>
<g mask="url(#mask0)">
<rect x="-12" y="-18" width="93" height="85" fill="#23266D"/>
<path d="M35 51.5L21 38.5C20 35.3333 18.2 28.8 19 28C20 27 28.5 22.5 31 22C33 21.6 44.5 18.5 50 17H58L68 20.5C67.5 23.8333 66.3 30.7 65.5 31.5C64.7 32.3 56.8334 36.5 53 38.5L42 51.5H35Z" fill="#119937"/>
</g>
</svg>
