<svg width="72" height="72" viewBox="0 0 72 72" fill="none" xmlns="http://www.w3.org/2000/svg">
<path d="M33.4161 35.9597C36.6577 40.1275 36.8121 45.0671 30.3289 52.7852C23.8456 60.349 28.0134 67.1409 33.4161 71M47.1544 32.8725C48.3893 36.5772 48.2349 41.2081 44.2215 46.7651C40.5168 51.8591 38.6644 56.7987 42.6779 62.2013M21.0671 20.5235L17.9799 26.698M22.6107 34.4161L14.8926 40.5906V46.7651L8.71812 43.6779L5.63087 46.7651L1 45.2215V39.047L2.54362 37.5034V34.4161H5.63087L13.349 25.1544V20.5235L22.6107 12.8054L17.9799 3.2349L33.4161 9.25503V2L44.3758 9.25503L47.3087 4.93289L55.0268 14.9664L58.1141 10.7987L62.5906 23.6107L67.2215 19.443L65.6779 32.255L70 31.0201L65.8322 46.4564M39.5906 26.698C39.5906 35.0336 31.5638 37.5034 27.2416 37.5034L19.5235 43.6779" stroke="#119937" stroke-width="2" stroke-miterlimit="10"/>
</svg>
