<svg width="76" height="64" viewBox="0 0 76 64" fill="none" xmlns="http://www.w3.org/2000/svg">
<mask id="mask0" mask-type="alpha" maskUnits="userSpaceOnUse" x="0" y="0" width="76" height="64">
<path d="M74.9358 23.1671H72.9701C72.9701 23.0204 72.9405 22.8737 72.8666 22.7416L62.816 2.30315C62.816 2.28847 62.8012 2.28847 62.8012 2.2738L63.555 2.02437C64.1019 1.83363 64.3975 1.24674 64.2054 0.703871C64.0132 0.160997 63.422 -0.132448 62.8751 0.0582911L43.0992 6.76351C42.0646 4.90014 40.0692 3.62365 37.7931 3.62365C34.4527 3.62365 31.748 6.32335 31.748 9.6246C31.748 9.94739 31.7775 10.2702 31.8219 10.5783L12.0163 17.2835C11.4695 17.4743 11.1739 18.0612 11.366 18.604C11.5138 19.0295 11.9129 19.3083 12.3563 19.3083C12.4745 19.3083 12.578 19.2936 12.6962 19.2496L13.0805 19.1176L3.10385 39.3946C3.07429 39.4533 3.05951 39.4973 3.04473 39.556H1.0494C0.472968 39.556 0 40.0255 0 40.5977C0 43.1654 1.53715 45.5423 4.31583 47.303C6.94671 48.9609 10.4201 49.8706 14.1151 49.8706C17.7954 49.8706 21.2835 48.9609 23.9144 47.303C26.6931 45.557 28.2303 43.1654 28.2303 40.5977C28.2303 40.0255 27.7573 39.556 27.1809 39.556H25.1708C25.156 39.4973 25.1412 39.4533 25.1116 39.3946L15.0611 18.9562C15.0611 18.9415 15.0463 18.9415 15.0463 18.9268C15.0315 18.8975 15.0019 18.8681 14.9872 18.8388C14.9724 18.8094 14.9576 18.7801 14.928 18.7654C14.9133 18.7361 14.8837 18.7214 14.8541 18.6921C14.8246 18.6627 14.8098 18.648 14.7802 18.6187C14.7655 18.604 14.7507 18.5894 14.7211 18.5747L32.5017 12.5444C33.3738 14.0996 34.9257 15.2294 36.7437 15.5375V53.8761H20.3376C19.1848 53.8761 18.2536 54.8005 18.2536 55.9449V62.9583C18.2536 63.5305 18.7266 64 19.303 64H55.1599C55.7363 64 56.2093 63.5305 56.2093 62.9583V55.9449C56.2093 54.8005 55.2781 53.8761 54.1252 53.8761H38.8277V15.5375C41.6655 15.0387 43.8382 12.5884 43.8382 9.6246C43.8382 9.31649 43.8086 9.00837 43.7643 8.71492L60.5842 3.00742L50.8884 22.7416C50.8145 22.8737 50.7849 23.0204 50.7849 23.1671H48.8191C48.2427 23.1671 47.7697 23.6366 47.7697 24.2088C47.7697 26.7765 49.3069 29.1534 52.0856 30.9141C54.7165 32.572 58.1898 33.4817 61.8849 33.4817C65.5652 33.4817 69.0533 32.572 71.6842 30.9141C74.4629 29.1681 76 26.7765 76 24.2088C75.9852 23.6366 75.5123 23.1671 74.9358 23.1671ZM25.9837 41.6248C25.1116 45.0581 20.0272 47.7872 14.1004 47.7872C8.17347 47.7872 3.08907 45.0581 2.21704 41.6248H25.9837ZM22.8503 39.556H5.35045L14.1004 21.7732L22.8503 39.556ZM54.1105 55.9449V61.9312H20.3376V55.9449H54.1105ZM37.7783 13.5568C35.5908 13.5568 33.8172 11.7961 33.8172 9.6246C33.8172 7.45311 35.5908 5.69244 37.7783 5.69244C39.9658 5.69244 41.7394 7.45311 41.7394 9.6246C41.7394 11.7961 39.9658 13.5568 37.7783 13.5568ZM61.8849 5.12022L70.7678 23.1671H53.0019L61.8849 5.12022ZM61.8849 31.3982C55.958 31.3982 50.8736 28.6692 50.0016 25.2359H73.7682C72.8962 28.6692 67.8117 31.3982 61.8849 31.3982Z" fill="#119937"/>
</mask>
<g mask="url(#mask0)">
<rect x="-7" y="-7" width="101" height="84" fill="#23266D"/>
<rect x="-20.9805" y="-22.8787" width="41.1189" height="60.4197" transform="rotate(-16.4048 -20.9805 -22.8787)" fill="#119937"/>
<rect x="-24" y="0.612793" width="41.1189" height="60.4197" transform="rotate(-16.4048 -24 0.612793)" fill="#119937"/>
</g>
</svg>
