<svg width="135" height="82" viewBox="0 0 135 82" fill="none" xmlns="http://www.w3.org/2000/svg">
<path d="M133.954 45.1341C133.954 43.686 133.592 42.1171 132.868 40.7897L120.921 16.8951C119.955 14.8436 117.904 13.6368 115.732 13.6368H93.2853V7.12009C93.2853 3.25835 90.5096 0 87.0099 0H25.8254C22.3257 0 19.4294 3.25835 19.4294 7.12009C19.4294 8.2062 20.2742 9.05096 21.3603 9.05096C22.4464 9.05096 23.2912 8.2062 23.2912 7.12009C23.2912 5.3099 24.4979 3.74106 25.8254 3.74106H86.8892C88.2167 3.74106 89.4235 5.3099 89.4235 7.12009V13.5161V64.2015H61.5466C59.857 58.6502 54.6678 54.5471 48.5132 54.5471C42.3585 54.5471 37.1693 58.6502 35.4798 64.2015H25.8254C24.4979 64.2015 23.2912 62.6326 23.2912 60.8225C23.2912 59.7363 22.4464 58.8916 21.3603 58.8916C20.2742 58.8916 19.4294 59.7363 19.4294 60.8225C19.4294 64.8049 22.3257 67.9425 25.8254 67.9425H34.9971V68.0632C34.9971 75.5454 41.031 81.7 48.6338 81.7C56.2367 81.7 62.2706 75.666 62.2706 68.0632V67.9425H89.6649H93.4059H94.2507V68.0632C94.2507 75.5454 100.285 81.7 107.887 81.7C115.37 81.7 121.524 75.666 121.524 68.0632V67.9425H128.524C130.092 67.9425 131.541 67.3391 132.627 66.253C133.713 65.1669 134.316 63.5981 134.316 62.0293L133.954 45.1341ZM48.5132 77.9589C43.0826 77.9589 38.7381 73.6145 38.7381 68.1839C38.7381 66.7357 38.9795 65.529 39.5829 64.3222C39.7036 64.0808 39.8242 63.8394 39.9449 63.7188C40.0656 63.5981 40.0656 63.4774 40.1863 63.3567C40.307 63.236 40.307 63.1154 40.4276 62.9947C40.5483 62.874 40.5483 62.7533 40.669 62.6326C40.7897 62.512 40.7897 62.3913 40.9104 62.2706C41.031 62.1499 41.1517 62.0292 41.1517 61.9086C41.2724 61.7879 41.3931 61.5465 41.6344 61.4259C41.7551 61.3052 41.7551 61.3052 41.8758 61.1845C41.9965 61.0638 42.1172 60.9431 42.2378 60.8225C42.3585 60.7018 42.4792 60.7018 42.4792 60.5811C42.5999 60.4604 42.7205 60.3397 42.9619 60.2191C43.0826 60.2191 43.0826 60.0984 43.2033 60.0984C43.4446 59.9777 43.686 59.857 43.9273 59.7363C44.048 59.7363 44.048 59.6157 44.1687 59.6157C44.2894 59.495 44.5307 59.495 44.6514 59.3743C44.7721 59.3743 44.7721 59.2536 44.8928 59.2536C45.1341 59.1329 45.3755 59.1329 45.6169 59.0123H45.7375C45.9789 58.8916 46.3409 58.8916 46.5823 58.7709C46.703 58.7709 46.703 58.7709 46.8237 58.7709C47.065 58.7709 47.3064 58.6502 47.427 58.6502C47.5477 58.6502 47.5477 58.6502 47.6684 58.6502C47.9098 58.6502 48.2718 58.6502 48.5132 58.6502C48.8752 58.6502 49.1166 58.6502 49.3579 58.6502C49.4786 58.6502 49.4786 58.6502 49.5993 58.6502C49.8406 58.6502 50.082 58.6502 50.2027 58.7709C50.3234 58.7709 50.3234 58.7709 50.444 58.7709C50.6854 58.8916 51.0474 58.8916 51.2888 59.0123H51.4095C51.6508 59.1329 51.8922 59.1329 52.1336 59.2536C52.2542 59.2536 52.3749 59.3743 52.3749 59.3743C52.4956 59.495 52.7369 59.495 52.8576 59.6157C52.9783 59.6157 52.9783 59.7363 53.099 59.7363C53.3403 59.857 53.5817 59.9777 53.8231 60.0984C53.9437 60.0984 53.9437 60.2191 54.0644 60.2191C54.1851 60.3397 54.4265 60.4604 54.5471 60.5811C54.6678 60.7018 54.7885 60.7018 54.7885 60.8225C54.9092 60.9431 55.0299 61.0638 55.1505 61.1845C55.2712 61.3052 55.2712 61.3052 55.3919 61.4259C55.5126 61.5465 55.7539 61.7879 55.8746 61.9086C55.9953 62.0292 56.116 62.1499 56.116 62.2706C56.2367 62.3913 56.2367 62.512 56.3573 62.6326C56.478 62.7533 56.478 62.874 56.5987 62.9947C56.7194 63.1154 56.7194 63.236 56.84 63.3567C56.9607 63.4774 56.9607 63.5981 57.0814 63.7188C57.2021 63.9601 57.3228 64.2015 57.4434 64.3222C57.9262 65.529 58.2882 66.8564 58.2882 68.1839C58.4089 73.6145 53.9437 77.9589 48.5132 77.9589ZM107.767 77.9589C102.336 77.9589 97.9917 73.6145 97.9917 68.1839C97.9917 66.8564 98.2331 65.529 98.8365 64.3222C98.9572 64.0808 99.0779 63.8394 99.1985 63.7188C99.3192 63.5981 99.3192 63.4774 99.4399 63.3567C99.5606 63.236 99.5606 63.1154 99.6813 62.9947C99.8019 62.874 99.8019 62.7533 99.9226 62.6326C100.043 62.512 100.043 62.3913 100.164 62.2706C100.285 62.1499 100.285 62.0292 100.405 61.9086C100.526 61.7879 100.647 61.5465 100.888 61.4259C101.009 61.3052 101.009 61.3052 101.129 61.1845C101.25 61.0638 101.371 60.9431 101.491 60.8225C101.612 60.7018 101.733 60.7018 101.733 60.5811C101.853 60.4604 102.095 60.3397 102.216 60.2191C102.336 60.2191 102.336 60.0984 102.457 60.0984C102.698 59.9777 102.94 59.857 103.181 59.7363C103.302 59.7363 103.302 59.6157 103.422 59.6157C103.543 59.495 103.784 59.495 103.905 59.3743C104.026 59.3743 104.026 59.2536 104.146 59.2536C104.388 59.1329 104.629 59.1329 104.87 59.0123H104.991C105.233 58.8916 105.595 58.8916 105.836 58.7709C105.957 58.7709 105.957 58.7709 106.077 58.7709C106.319 58.7709 106.56 58.6502 106.681 58.6502C106.801 58.6502 106.801 58.6502 106.922 58.6502C107.163 58.6502 107.525 58.6502 107.767 58.6502C108.008 58.6502 108.37 58.6502 108.612 58.6502C108.732 58.6502 108.732 58.6502 108.853 58.6502C109.094 58.6502 109.336 58.6502 109.456 58.7709C109.577 58.7709 109.577 58.7709 109.698 58.7709C109.939 58.8916 110.301 58.8916 110.542 59.0123H110.663C110.904 59.1329 111.146 59.1329 111.387 59.2536C111.508 59.2536 111.629 59.3743 111.629 59.3743C111.749 59.495 111.991 59.495 112.111 59.6157C112.232 59.6157 112.232 59.7363 112.353 59.7363C112.594 59.857 112.835 59.9777 113.077 60.0984C113.197 60.0984 113.197 60.2191 113.318 60.2191C113.439 60.3397 113.68 60.4604 113.801 60.5811C113.921 60.7018 114.042 60.7018 114.042 60.8225C114.163 60.9431 114.283 61.0638 114.404 61.1845C114.525 61.3052 114.525 61.3052 114.646 61.4259C114.766 61.5465 115.008 61.7879 115.128 61.9086C115.249 62.0292 115.37 62.1499 115.37 62.2706C115.49 62.3913 115.49 62.512 115.611 62.6326C115.732 62.7533 115.732 62.874 115.852 62.9947C115.973 63.1154 115.973 63.236 116.094 63.3567C116.214 63.4774 116.214 63.5981 116.335 63.7188C116.456 63.9601 116.576 64.2015 116.697 64.3222C117.18 65.529 117.542 66.8564 117.542 68.1839C117.542 73.6145 113.197 77.9589 107.767 77.9589ZM129.851 63.7188C129.489 64.0808 128.886 64.3222 128.403 64.3222H120.921C119.231 58.7709 114.042 54.6678 107.887 54.6678C101.733 54.6678 96.5436 58.7709 94.8541 64.3222H93.4059V17.3778H115.732C116.576 17.3778 117.18 17.8606 117.542 18.5846L128.644 40.9103H107.767V25.584C107.767 24.4979 106.922 23.6532 105.836 23.6532C104.75 23.6532 103.905 24.4979 103.905 25.584V44.6514H130.092C130.092 44.8928 130.092 45.0134 130.092 45.2548L130.334 62.2706C130.455 62.7533 130.213 63.236 129.851 63.7188Z" fill="#2C2B6C"/>
<path d="M43.2033 34.5142C43.2033 22.567 33.5489 12.9126 21.6016 12.9126C9.65436 13.0333 0 22.6876 0 34.5142C0 46.3408 9.65436 56.1158 21.6016 56.1158C33.4282 56.1158 43.2033 46.4615 43.2033 34.5142ZM3.74106 34.5142C3.74106 24.7392 11.7059 16.7743 21.4809 16.7743C31.256 16.7743 39.2208 24.7392 39.2208 34.5142C39.2208 44.2893 31.3767 52.3748 21.6016 52.3748C11.7059 52.3748 3.74106 44.4099 3.74106 34.5142Z" fill="#169948"/>
<path d="M23.5325 31.2561C23.5325 30.17 22.6877 29.3252 21.6016 29.3252C20.5155 29.3252 19.6707 30.17 19.6707 31.2561C19.6707 32.3422 20.5155 33.1869 21.6016 33.1869C22.6877 33.1869 23.5325 32.3422 23.5325 31.2561Z" fill="#169948"/>
<path d="M23.0498 46.4615C24.3773 44.772 31.0146 35.8417 31.0146 31.2559C31.0146 26.0667 26.7908 21.8429 21.6016 21.8429C16.4124 21.8429 12.1886 26.0667 12.1886 31.2559C12.1886 35.8417 18.826 44.772 20.1535 46.4615L21.6016 48.3924L23.0498 46.4615ZM15.9297 31.2559C15.9297 28.1182 18.464 25.584 21.6016 25.584C24.7393 25.584 27.2736 28.1182 27.2736 31.2559C27.2736 33.3074 24.3773 38.2553 21.6016 42.117C18.826 38.2553 15.9297 33.3074 15.9297 31.2559Z" fill="#169948"/>
</svg>
