<svg  class="main-svg-sprite main-svg-sprite--icons" xmlns="http://www.w3.org/2000/svg" xmlns:xlink="http://www.w3.org/1999/xlink"><symbol viewBox="0 0 31 34" id="arrow-d" xmlns="http://www.w3.org/2000/svg"><path d="M15.124 31.987a.58.58 0 00.376.161.488.488 0 00.376-.161l13.963-13.963a.52.52 0 000-.752.52.52 0 00-.752 0l-13.05 13.05V1.537c0-.322-.215-.537-.537-.537-.322 0-.537.215-.537.537v28.785l-13.05-13.05a.52.52 0 00-.752 0 .52.52 0 000 .752l13.963 13.963z" stroke="#119937" stroke-width="2" stroke-miterlimit="10"/></symbol><symbol viewBox="0 0 18 16" id="arrow-l" xmlns="http://www.w3.org/2000/svg"><path d="M7.623 1.346l-6.7 6.7m0 0l6.7 6.7m-6.7-6.7h16.154" stroke="#06785A" stroke-width="1.6" stroke-miterlimit="10" stroke-linecap="round" stroke-linejoin="round"/></symbol><symbol viewBox="0 0 18 16" id="arrow-r" xmlns="http://www.w3.org/2000/svg"><path d="M10.377 1.346l6.7 6.7m0 0l-6.7 6.7m6.7-6.7H.923" stroke="#06785A" stroke-width="1.6" stroke-miterlimit="10" stroke-linecap="round" stroke-linejoin="round"/></symbol><symbol viewBox="0 0 22 13" id="arrow-r-2" xmlns="http://www.w3.org/2000/svg"><path d="M15.47 1L21 6.53m0 0l-5.53 5.53M21 6.53H1" stroke="#fff" stroke-width="1.4" stroke-miterlimit="10" stroke-linecap="round" stroke-linejoin="round"/></symbol><symbol viewBox="0 0 17 11" id="arrow-r-3" xmlns="http://www.w3.org/2000/svg"><path d="M11.645 1L16 5.355m0 0L11.645 9.71M16 5.355H1" stroke="#8487BD" stroke-width="1.4" stroke-miterlimit="10" stroke-linecap="round" stroke-linejoin="round"/></symbol><symbol viewBox="0 0 28 28" id="arrow-r-t" xmlns="http://www.w3.org/2000/svg"><path d="M9.558 6.588h11.176m0 0v11.175m0-11.175L6.588 20.734" stroke="#fff" stroke-width="1.4" stroke-miterlimit="10" stroke-linecap="round" stroke-linejoin="round"/></symbol><symbol viewBox="0 0 14 18" id="change" xmlns="http://www.w3.org/2000/svg"><path d="M1.867 12.871l3.645 3.69a.252.252 0 010 .362.244.244 0 01-.357 0l-4.079-4.13a.251.251 0 010-.36l4.079-4.13a.244.244 0 01.357 0 .236.236 0 01.076.18.236.236 0 01-.076.182l-3.645 3.69h10.859c.152 0 .254.103.254.258 0 .155-.102.258-.255.258H1.867zM8.724 1.439l3.645 3.69H1.509c-.152 0-.254.103-.254.258 0 .155.102.258.255.258h10.859l-3.645 3.69a.252.252 0 000 .362.244.244 0 00.356 0l4.079-4.13a.28.28 0 00.076-.18.236.236 0 00-.076-.18L9.08 1.076a.244.244 0 00-.356 0 .252.252 0 000 .362z" stroke="#BABBC7" stroke-miterlimit="10"/></symbol><symbol viewBox="0 0 512.001 512.001" id="close" xmlns="http://www.w3.org/2000/svg"><path d="M284.286 256.002L506.143 34.144c7.811-7.811 7.811-20.475 0-28.285-7.811-7.81-20.475-7.811-28.285 0L256 227.717 34.143 5.859c-7.811-7.811-20.475-7.811-28.285 0-7.81 7.811-7.811 20.475 0 28.285l221.857 221.857L5.858 477.859c-7.811 7.811-7.811 20.475 0 28.285a19.938 19.938 0 0014.143 5.857 19.94 19.94 0 0014.143-5.857L256 284.287l221.857 221.857c3.905 3.905 9.024 5.857 14.143 5.857s10.237-1.952 14.143-5.857c7.811-7.811 7.811-20.475 0-28.285L284.286 256.002z"/></symbol><symbol viewBox="0 0 11 6" id="equally" xmlns="http://www.w3.org/2000/svg"><rect width="11" height="2" rx="1"/><rect y="4" width="11" height="2" rx="1"/></symbol><symbol viewBox="0 0 68 67" id="logo" xmlns="http://www.w3.org/2000/svg"><path d="M36.116 63.222l-.97-31.028L4.79 22.896l62.457-14.15-31.13 54.476zM26.43 23.698l14.197 4.357.474 15.156 14.986-26.215-29.657 6.702z"/></symbol><symbol viewBox="0 0 44 25" id="menu" xmlns="http://www.w3.org/2000/svg"><rect width="44" height="3" rx="1.5"/><rect y="11" width="44" height="3" rx="1.5"/><rect y="22" width="44" height="3" rx="1.5"/></symbol><symbol viewBox="0 0 25 25" id="phone" xmlns="http://www.w3.org/2000/svg"><path d="M24.02 1.429L13.992 11.464M24.021 1.43v5.017m0-5.017h-5.015m.25 21.995l1.798-1.798c.71-.711.627-1.882-.167-2.51l-2.8-2.174c-.627-.46-1.463-.46-2.048 0l-.627.502c-.669.544-1.63.46-2.215-.125L8.182 12.3c-.585-.586-.669-1.547-.125-2.216l.501-.628c.46-.585.502-1.463 0-2.049L6.385 4.607c-.627-.795-1.797-.879-2.507-.168L2.08 6.237C.827 7.45.869 10.921 7.722 17.78c6.854 6.857 10.406 6.774 11.535 5.645z" stroke="#fff" stroke-width="1.823" stroke-miterlimit="10" stroke-linecap="round" stroke-linejoin="round"/></symbol><symbol viewBox="0 0 21.42 21.42" id="search" xmlns="http://www.w3.org/2000/svg"><path d="M13.43 15.43a8.5 8.5 0 112-2L21 19a1.39 1.39 0 010 2 1.4 1.4 0 01-2 0l-5.58-5.58zM8.5 15A6.5 6.5 0 102 8.5 6.5 6.5 0 008.5 15z"/></symbol><symbol viewBox="0 0 21 18" id="telegram" xmlns="http://www.w3.org/2000/svg"><path d="M.903 8.507C4.28 6.954 14.132 2.477 18.95.734c.997-.36 2.016.48 1.852 1.526l-2.158 14.078a1.542 1.542 0 01-2.362 1.064l-6.244-4.041a1.595 1.595 0 01-.213-2.511l5.757-5.524c.243-.235-.071-.621-.35-.426l-8.208 5.745a2.763 2.763 0 01-2.632.298L.925 9.532a.56.56 0 01-.022-1.025z"/></symbol><symbol viewBox="0 0 21 21" id="whatsapp" xmlns="http://www.w3.org/2000/svg"><path d="M10.3.277C4.734.277.18 4.83.18 10.397c0 1.821.506 3.542 1.316 5.06L.18 20.517l5.262-1.215a10.17 10.17 0 004.858 1.215c5.566 0 10.12-4.554 10.12-10.12 0-2.733-1.012-5.263-2.935-7.185C15.562 1.289 13.032.277 10.3.277zm0 2.024c2.125 0 4.15.81 5.768 2.327 1.518 1.62 2.328 3.644 2.328 5.769 0 4.453-3.643 8.096-8.096 8.096-1.316 0-2.732-.304-3.846-1.012l-.708-.405-.708.202-2.024.506.506-1.821.202-.81-.405-.708a8.113 8.113 0 01-1.113-4.048C2.204 5.944 5.847 2.3 10.3 2.3zM6.758 5.74c-.202 0-.506 0-.708.304-.203.203-.911.81-.911 2.125 0 1.316.91 2.43 1.012 2.632.101.202 1.72 2.833 4.351 3.845 2.126.81 2.53.709 3.036.607.506 0 1.518-.607 1.72-1.214.203-.607.203-1.113.102-1.214-.101-.102-.202-.203-.506-.304-.202-.101-1.518-.708-1.72-.81-.203-.1-.405-.1-.608.102-.202.202-.607.81-.81 1.012-.1.202-.303.202-.505.1-.203-.1-1.113-.404-2.024-1.214-.709-.708-1.215-1.518-1.417-1.72-.101-.405.101-.506.202-.607.102-.101.203-.304.405-.405.101-.101.203-.304.203-.405.1-.202 0-.303 0-.405-.102-.303-.608-1.518-.81-2.024-.202-.404-.405-.404-.506-.404h-.506z"/></symbol></svg>