<svg xmlns="http://www.w3.org/2000/svg" width="24" height="24.11" viewBox="0 0 24 24.11">
  <path d="M20.5,3.5A11.83,11.83,0,0,0,12.05,0,12,12,0,0,0,1.69,17.92L0,24.11l6.34-1.66a11.93,11.93,0,0,0,5.71,1.45h0A12,12,0,0,0,20.5,3.5ZM12.05,21.88h0A10,10,0,0,1,7,20.5l-.36-.22-3.76,1,1-3.66-.23-.38A9.93,9.93,0,0,1,12.05,2,9.94,9.94,0,0,1,22,12,9.94,9.94,0,0,1,12.05,21.88Zm5.45-7.43c-.3-.15-1.77-.87-2-1s-.47-.15-.67.14-.78,1-.95,1.18-.35.22-.65.07a8.18,8.18,0,0,1-2.4-1.48,9.32,9.32,0,0,1-1.66-2.07.44.44,0,0,1,.13-.61c.14-.13.3-.35.45-.52a2.14,2.14,0,0,0,.3-.5.53.53,0,0,0,0-.52C9.91,9,9.31,7.55,9.06,7s-.49-.5-.67-.51H7.82A1.1,1.1,0,0,0,7,6.8,3.36,3.36,0,0,0,6,9.29,5.81,5.81,0,0,0,7.2,12.38a13.32,13.32,0,0,0,5.1,4.51c.71.3,1.27.49,1.7.63a4.14,4.14,0,0,0,1.88.11,3.06,3.06,0,0,0,2-1.41,2.42,2.42,0,0,0,.17-1.42C18,14.67,17.8,14.6,17.5,14.45Z" fill="#157d00"/>
</svg>
