<svg width="45" height="46" fill="none" xmlns="http://www.w3.org/2000/svg"><path d="M22.501 16.768V22.5l2.866 2.866m8.6-2.866c0 6.332-5.133 11.466-11.466 11.466-6.333 0-11.466-5.133-11.466-11.466 0-6.333 5.133-11.466 11.466-11.466 6.333 0 11.466 5.133 11.466 11.466Zm8.4 4.3a1.433 1.433 0 0 0 1.418-1.227 22.06 22.06 0 0 0 0-6.146 1.433 1.433 0 0 0-1.419-1.227h-2.128a1.434 1.434 0 0 1-1.367-.996 16.972 16.972 0 0 0-1.043-2.544 1.433 1.433 0 0 1 .26-1.655l1.489-1.49a1.433 1.433 0 0 0 .136-1.868 21.296 21.296 0 0 0-4.36-4.359 1.433 1.433 0 0 0-1.868.136l-1.489 1.489a1.433 1.433 0 0 1-1.66.265 17.146 17.146 0 0 0-2.544-1.04 1.433 1.433 0 0 1-.991-1.375v-2.13a1.433 1.433 0 0 0-1.227-1.419 22.063 22.063 0 0 0-6.146 0 1.433 1.433 0 0 0-1.227 1.419v2.13a1.434 1.434 0 0 1-.996 1.367c-.874.278-1.725.627-2.544 1.041a1.433 1.433 0 0 1-1.655-.258l-1.49-1.489a1.433 1.433 0 0 0-1.868-.136A21.297 21.297 0 0 0 5.29 9.648a1.433 1.433 0 0 0 .136 1.869l1.49 1.489a1.433 1.433 0 0 1 .266 1.66c-.416.819-.764 1.67-1.043 2.544a1.433 1.433 0 0 1-1.374.991h-2.13a1.433 1.433 0 0 0-1.419 1.227 22.064 22.064 0 0 0 0 6.145 1.433 1.433 0 0 0 1.419 1.228h2.13a1.434 1.434 0 0 1 1.367.996c.279.874.627 1.725 1.041 2.544a1.433 1.433 0 0 1-.258 1.655l-1.489 1.49a1.434 1.434 0 0 0-.136 1.868 21.296 21.296 0 0 0 4.36 4.359 1.433 1.433 0 0 0 1.868-.136l1.489-1.49a1.433 1.433 0 0 1 1.66-.266c.819.416 1.67.764 2.544 1.043a1.433 1.433 0 0 1 .991 1.374v2.13a1.433 1.433 0 0 0 1.227 1.419 22.06 22.06 0 0 0 6.145 0 1.433 1.433 0 0 0 1.228-1.42v-2.13a1.433 1.433 0 0 1 .996-1.366 16.969 16.969 0 0 0 2.544-1.043 1.433 1.433 0 0 1 1.655.26l1.49 1.489a1.433 1.433 0 0 0 1.868.136 21.296 21.296 0 0 0 4.359-4.36 1.433 1.433 0 0 0-.136-1.868l-1.49-1.489a1.434 1.434 0 0 1-.264-1.66c.414-.82.762-1.67 1.04-2.544a1.433 1.433 0 0 1 1.375-.991h2.128Z" stroke="#FFE600" stroke-width="2" stroke-linecap="round" stroke-linejoin="round"/></svg>