<svg width="39" height="49" fill="none" xmlns="http://www.w3.org/2000/svg"><path d="m38 46.03-4.608-.312a1.052 1.052 0 0 1-.937-.805 13.426 13.426 0 0 0-1.194-3.078 1.05 1.05 0 0 1 .107-1.176l1.852-2.19a1 1 0 0 0-.056-1.353l-2.171-2.17a1 1 0 0 0-1.35-.057l-2.068 1.737c-.342.288-.833.31-1.217.08a13.343 13.343 0 0 0-3.033-1.337 1.05 1.05 0 0 1-.757-.908l-.239-2.855a1 1 0 0 0-.997-.917h-3.056a1 1 0 0 0-.996.917l-.225 2.685c-.038.448-.37.812-.807.92a13.2 13.2 0 0 0-3.084 1.196 1.05 1.05 0 0 1-1.18-.106l-2.19-1.854a1 1 0 0 0-1.353.056l-2.173 2.172a1 1 0 0 0-.056 1.353l1.743 2.057c.291.344.314.837.082 1.223a13.18 13.18 0 0 0-1.331 3.014c-.126.419-.488.73-.925.76l-4.78.325m9.085 2.768a9.402 9.402 0 0 1 2.757-6.645 9.415 9.415 0 0 1 6.65-2.755m-5.444 9.4a5.444 5.444 0 0 1 5.446-5.279 5.45 5.45 0 0 1 5.446 5.279m12.034-6.337V13.132M24.835 1H3.02a1 1 0 0 0-1 1v39.838m5.175-31.433H20.05M7.195 26.288h10.233M7.195 15.698h23.677M7.195 20.994h23.677M29.525 4.31l4.312 4.312c.63.63.184 1.707-.707 1.707h-4.312a1 1 0 0 1-1-1V5.017c0-.89 1.077-1.337 1.707-.707Z" stroke="#FFE600" stroke-width="2"/></svg>