<svg width="49" height="48" fill="none" xmlns="http://www.w3.org/2000/svg"><path d="m4.739 40.88-2.887-1.69a1 1 0 0 1-.364-1.358l20.43-35.95a1 1 0 0 1 1.375-.37l9.566 5.611a1 1 0 0 1 .364 1.357l-7.089 12.472m-14.643 2.824 5.154 2.824m-.936-10.246 8.27 4.849m-4.051-12.27 8.269 4.848M4.911 39.764l-2.12-3.736a1 1 0 0 1 .363-1.356l35.371-20.747a1 1 0 0 1 1.376.368l5.53 9.732a1 1 0 0 1-.363 1.357L32.35 32.844m-13.624-5.256 2.822 4.962m4.489-9.247 4.772 8.396m2.533-12.682 4.773 8.396M14.68 34.722v9.697m8.437-9.697v9.697m8.437-9.697v9.697m8.437-9.697v9.697M7.798 39.57h1.746m-3.381-6.622H47a1 1 0 0 1 1 1v11.244a1 1 0 0 1-1 1H6.163a1 1 0 0 1-1-1V33.948a1 1 0 0 1 1-1Z" stroke="#FFE600" stroke-width="2"/></svg>