<svg width="998.169922" height="438.932617" viewBox="0 0 998.17 438.933" fill="none" xmlns="http://www.w3.org/2000/svg" xmlns:xlink="http://www.w3.org/1999/xlink">
	<desc>
			Created with Pixso.
	</desc>
	<defs/>
	<mask id="mask9_5" mask-type="alpha" maskUnits="userSpaceOnUse" x="0.000000" y="0.000000" width="998.169922" height="438.932617">
		<path id="Vector" d="M0 172.02C0 266.913 77.2065 343.899 172.371 343.899C182.835 343.899 193.158 342.912 203.056 341.22C218.045 376.47 252.972 401.286 293.837 401.286C330.744 401.286 362.984 380.982 379.811 351.09C413.889 379.431 457.866 396.351 505.66 396.351C517.821 396.351 529.699 395.223 541.294 393.108C567.737 421.308 605.209 438.933 646.923 438.933C722.15 438.933 783.943 381.687 790.73 308.367C795.821 309.072 800.911 309.495 806.143 309.495C861.432 309.495 906.257 264.798 906.257 209.667C906.257 206.847 906.116 204.027 905.833 201.207C957.446 197.259 998.17 154.254 998.17 101.661C998.17 46.5303 953.345 1.83301 898.056 1.83301C842.767 1.83301 797.942 46.5303 797.942 101.661C797.942 104.481 798.083 107.301 798.366 110.121C761.46 112.941 730.068 135.783 715.221 167.79C709.847 164.97 704.333 162.432 698.677 160.176C680.294 70.6406 600.825 3.24316 505.66 3.24316C430.575 3.24316 365.246 45.2607 332.016 106.878C306.281 44.1328 244.487 0 172.371 0C77.2065 0.140625 0 77.127 0 172.02Z" fill="#000000" fill-opacity="1.000000" fill-rule="nonzero"/>
	</mask>
	<g mask="url(#mask9_5)">
		<path id="Vector" d="M-238.407 553.284C-238.407 553.284 -222.428 500.691 -203.622 499.563C-184.815 498.576 -181.704 535.8 -158.514 537.352C-135.324 538.902 -122.88 535.377 -110.861 488.706C-98.6999 442.035 -104.215 439.497 -80.176 360.396C-56.2787 281.437 -54.0163 264.093 -6.22177 255.633C41.5727 247.173 69.8535 303.15 95.3062 382.393C120.759 461.493 128.536 507.177 150.171 520.29C171.947 533.403 173.644 507.459 189.34 489.411C205.177 471.222 208.288 453.879 231.478 455.43C254.668 456.981 261.88 436.536 283.091 383.521C304.301 330.504 295.251 282.142 322.966 289.332C350.682 296.382 341.208 276.783 378.68 366.741C416.293 456.699 416.859 468.12 449.24 503.793" stroke="#FFFFFF" stroke-opacity="1.000000" stroke-width="0.635000"/>
		<path id="Vector" d="M-237.841 551.311C-237.841 551.311 -222.145 498.999 -203.48 497.59C-184.815 496.32 -181.704 532.84 -158.797 534.249C-137.303 535.519 -125.284 532.275 -113.689 494.629C-112.84 491.809 -111.992 488.848 -111.143 485.745C-98.5585 439.639 -103.79 437.806 -79.7518 359.832C-55.8545 281.859 -53.4506 264.375 -6.08034 256.057C2.5453 254.506 10.6053 255.069 18.0997 257.607C47.0875 267.336 68.0153 305.124 86.3978 356.448C89.2258 364.485 92.1953 372.945 94.882 381.688C120.052 459.942 127.97 505.345 149.747 518.457C171.523 531.57 173.361 505.768 189.057 487.578C203.763 470.658 207.581 454.303 227.095 453.456C228.367 453.456 229.781 453.456 231.195 453.456C254.244 454.726 261.597 433.998 282.666 381.405C286.484 372.1 289.312 362.935 291.575 354.333C302.18 313.866 300.342 282.564 323.108 288.769C344.884 294.69 343.329 284.257 360.438 322.186C365.246 332.761 371.327 346.297 379.528 365.896C417.141 455.008 417.848 466.71 449.806 502.102" stroke="#FFFFFF" stroke-opacity="1.000000" stroke-width="0.635000"/>
		<path id="Vector" d="M-236.427 547.926C-236.427 547.926 -220.873 495.756 -202.349 494.205C-183.966 492.654 -180.856 528.75 -158.09 529.878C-136.879 530.865 -124.86 527.481 -113.123 490.257C-112.275 487.578 -111.426 484.617 -110.578 481.515C-97.7101 435.831 -102.518 434.844 -78.6205 357.858C-54.7233 280.872 -52.178 263.388 -5.23192 255.069C3.39371 253.519 11.3123 254.082 18.6653 256.62C47.5117 266.349 68.2981 303.714 86.6806 354.615C89.5087 362.652 92.3367 370.971 95.1648 379.572C120.193 457.122 128.112 502.102 149.888 515.073C171.523 528.045 173.644 502.524 189.34 484.335C204.046 467.415 207.864 451.06 227.236 450.072C228.509 450.072 229.781 450.072 231.195 450.072C254.244 450.918 261.456 429.909 282.666 377.88C286.484 368.574 289.454 359.55 291.858 350.949C302.887 310.905 300.907 280.167 323.815 286.653C345.591 292.998 343.753 282.987 361.428 320.211C366.377 330.786 372.741 343.617 381.083 363.216C418.697 451.482 419.404 463.326 451.078 498.576" stroke="#FFFFFF" stroke-opacity="1.000000" stroke-width="0.635000"/>
		<path id="Vector" d="M-234.165 543.414C-234.165 543.414 -218.893 491.526 -200.511 489.693C-182.27 487.86 -179.159 523.393 -156.675 524.238C-135.606 525.084 -123.728 521.418 -111.85 484.617C-111.002 481.938 -110.012 478.978 -109.164 476.017C-96.0132 430.896 -100.397 430.614 -76.4995 354.615C-52.6022 278.757 -49.9156 260.991 -3.2523 252.813C5.23193 251.263 13.1505 251.826 20.5035 254.364C49.2085 264.094 69.9949 301.176 88.236 351.514C91.0641 359.409 93.8922 367.729 96.7202 376.329C121.607 453.033 129.526 497.73 151.444 510.702C173.078 523.533 175.341 498.294 191.037 480.105C205.601 463.326 209.561 446.971 228.791 445.701C230.064 445.561 231.337 445.561 232.751 445.701C255.658 446.266 262.87 424.975 284.08 373.368C287.898 364.062 291.009 355.038 293.413 346.578C304.867 307.099 302.887 276.783 325.653 283.692C347.429 290.46 345.167 280.731 363.408 317.532C368.64 328.107 375.003 340.233 383.629 359.974C421.242 447.394 421.949 459.52 453.341 494.628" stroke="#FFFFFF" stroke-opacity="1.000000" stroke-width="0.635000"/>
		<path id="Vector" d="M-231.195 537.492C-231.195 537.492 -216.065 485.886 -197.965 483.771C-180.007 481.656 -176.896 516.624 -154.554 517.329C-133.627 517.894 -121.89 514.086 -109.871 477.708C-109.022 475.029 -108.033 472.209 -107.184 469.107C-93.6094 424.551 -97.8515 424.975 -73.8128 350.104C-50.057 275.232 -47.0875 257.466 -0.848404 249.147C7.63582 247.597 15.413 248.16 22.766 250.698C51.3296 260.427 71.9746 297.087 90.2157 347.001C93.0438 354.897 95.8718 363.075 98.6999 371.535C123.446 447.394 131.364 491.809 153.282 504.64C174.917 517.329 177.179 492.372 193.016 474.184C207.581 457.404 211.54 441.189 230.63 439.639C231.902 439.497 233.175 439.639 234.589 439.497C257.496 438.934 264.708 418.206 285.777 367.164C289.595 357.858 292.706 348.976 295.251 340.656C306.988 301.74 305.15 271.849 327.916 279.181C349.692 286.23 347.146 277.065 365.812 313.302C371.327 323.877 377.831 335.157 386.457 355.038C424.07 441.612 424.919 453.879 455.886 488.848" stroke="#FFFFFF" stroke-opacity="1.000000" stroke-width="0.635000"/>
		<path id="Vector" d="M-227.377 530.583C-227.377 530.583 -212.53 479.259 -194.572 477.003C-176.896 474.606 -173.644 509.01 -151.585 509.434C-130.94 509.856 -119.203 505.768 -107.043 469.953C-106.194 467.274 -105.204 464.454 -104.215 461.493C-90.2157 417.501 -94.175 418.488 -70.1363 344.745C-46.3805 270.861 -43.2696 252.954 2.54526 244.776C10.8881 243.226 18.6653 243.789 26.0183 246.327C54.4405 256.056 75.0854 292.435 93.1852 341.784C96.0132 349.539 98.8413 357.717 101.669 366.177C126.274 441.189 134.334 485.322 156.251 498.153C177.886 510.702 180.29 485.886 195.986 467.697C210.409 451.06 214.51 434.703 233.458 433.011C234.73 432.87 236.003 432.87 237.417 432.87C260.183 431.742 267.395 410.874 288.464 360.396C292.282 351.09 295.534 342.349 298.221 334.029C310.382 295.536 308.543 266.208 331.309 273.963C353.085 281.437 350.257 272.694 369.488 308.227C375.144 318.801 381.932 329.376 390.699 349.398C428.312 434.985 429.161 447.534 459.845 482.361" stroke="#FFFFFF" stroke-opacity="1.000000" stroke-width="0.635000"/>
		<path id="Vector" d="M-222.852 522.546C-222.852 522.546 -208.146 471.504 -190.471 468.966C-172.937 466.428 -169.685 500.691 -147.908 500.268C-127.405 499.986 -115.81 496.038 -103.366 460.788C-102.376 458.109 -101.528 455.43 -100.538 452.469C-86.2563 409.041 -89.7915 410.732 -65.7528 337.977C-41.9969 265.221 -38.7446 247.173 6.64598 238.995C14.9888 237.444 22.766 238.008 29.9776 240.546C58.2584 250.275 78.9034 286.371 96.8616 335.157C99.6897 342.912 102.518 350.949 105.346 359.268C129.809 433.434 137.869 477.285 159.786 489.975C181.421 502.383 183.966 477.849 199.662 459.66C213.944 443.021 218.045 426.807 236.993 424.833C238.265 424.692 239.538 424.692 240.952 424.692C263.718 423.141 270.788 402.132 291.999 352.077C295.958 342.771 299.211 334.029 301.897 325.851C314.341 287.922 312.503 258.876 335.269 267.054C357.045 274.809 354.075 266.49 373.589 301.599C379.528 312.314 386.457 322.044 395.365 342.065C432.979 426.807 433.968 439.638 464.229 474.183" stroke="#FFFFFF" stroke-opacity="1.000000" stroke-width="0.635000"/>
		<path id="Vector" d="M-217.621 513.662C-217.621 513.662 -203.197 462.902 -185.522 460.083C-168.271 457.263 -165.018 490.962 -143.384 490.397C-123.021 489.834 -111.568 485.744 -98.9827 450.918C-97.9929 448.238 -97.003 445.56 -96.0132 442.599C-81.3072 399.594 -84.5595 402.272 -60.6623 330.504C-36.765 258.734 -33.5127 240.546 11.4537 232.509C19.6551 230.958 27.4324 231.521 34.5025 234.06C62.6419 243.788 83.1455 279.462 101.104 327.824C103.932 335.438 106.76 343.476 109.588 351.795C133.909 425.114 141.969 468.824 164.028 481.374C185.663 493.781 188.35 469.389 204.046 451.199C218.328 434.702 222.428 418.347 241.235 416.231C242.508 416.091 243.78 416.091 245.053 415.949C267.819 415.104 274.889 392.825 295.958 343.193C299.918 334.028 303.311 325.286 305.998 317.108C318.724 279.743 317.027 251.12 339.794 259.722C361.57 267.899 358.317 260.004 378.397 294.549C384.618 305.265 391.547 314.147 400.597 334.451C438.069 418.347 439.2 431.318 469.178 465.863" stroke="#FFFFFF" stroke-opacity="1.000000" stroke-width="0.635000"/>
		<path id="Vector" d="M-211.823 504.074C-211.823 504.074 -197.683 453.597 -180.149 450.494C-163.039 447.393 -159.786 480.104 -138.434 479.682C-118.214 479.399 -106.901 474.605 -94.175 440.201C-93.1851 437.663 -92.1953 434.844 -91.2055 432.023C-76.2167 389.583 -79.0448 392.967 -55.1475 322.185C-31.2503 251.544 -27.8566 233.214 16.6857 225.177C24.8871 223.626 32.5229 224.189 39.5931 226.728C67.5911 236.457 87.9532 271.848 105.911 319.646C108.74 327.261 111.568 335.156 114.396 343.476C138.576 416.091 146.636 459.378 168.695 471.785C190.33 484.053 193.158 459.941 208.854 441.753C222.994 425.256 227.236 409.041 245.901 406.644C247.174 406.503 248.447 406.503 249.719 406.361C272.344 405.093 279.414 382.532 300.483 333.465C304.442 324.3 307.978 315.558 310.806 307.661C323.956 270.86 322.259 242.66 344.884 251.685C366.66 260.285 363.125 252.812 383.629 286.652C390.133 297.368 397.203 305.547 406.395 325.851C443.867 408.899 445.139 422.013 474.693 456.417" stroke="#FFFFFF" stroke-opacity="1.000000" stroke-width="0.635000"/>
		<path id="Vector" d="M-205.318 493.641C-205.318 493.641 -191.319 443.445 -174.068 440.062C-157.241 436.677 -153.989 468.825 -132.778 468.261C-112.699 467.697 -101.528 462.762 -88.6602 428.922C-87.6704 426.384 -86.6806 423.705 -85.5493 420.885C-70.1363 379.008 -72.6816 383.097 -48.7843 313.302C-24.8871 243.648 -21.352 225.177 22.766 217.281C30.9675 215.73 38.4619 216.294 45.5321 218.832C73.3886 228.562 93.6094 263.67 111.568 310.905C114.396 318.378 117.224 326.274 120.052 334.452C144.091 406.221 152.151 449.227 174.351 461.634C195.986 473.76 198.955 449.931 214.51 431.601C228.65 415.245 232.892 398.889 251.416 396.351C252.689 396.21 253.961 396.069 255.234 396.069C277.859 394.519 284.787 371.676 305.857 323.031C309.816 313.866 313.492 305.265 316.32 297.369C329.754 260.991 328.198 233.355 350.823 242.661C372.599 251.544 368.923 244.494 389.85 277.911C396.496 288.627 403.849 296.1 413.182 316.545C450.654 398.748 451.927 412.143 481.197 446.265" stroke="#FFFFFF" stroke-opacity="1.000000" stroke-width="0.635000"/>
		<path id="Vector" d="M-198.248 482.644C-198.248 482.644 -184.532 432.729 -167.422 429.063C-150.878 425.397 -147.484 456.981 -126.556 456.136C-106.76 455.431 -95.4476 450.214 -82.5798 416.797C-81.59 414.259 -80.6002 411.579 -79.469 408.9C-63.6317 367.446 -65.8942 372.382 -41.9969 303.715C-18.0997 235.048 -14.2818 216.576 29.412 208.681C37.4721 207.13 44.9665 207.693 52.0367 210.231C79.7518 219.96 99.9726 254.787 117.648 301.458C120.476 308.932 123.304 316.687 125.991 324.864C149.888 395.787 158.09 438.511 180.149 450.777C201.642 462.763 204.894 439.074 220.449 420.886C234.448 404.671 238.831 388.314 257.214 385.494C258.486 385.354 259.618 385.213 261.032 385.071C283.515 383.098 290.585 360.114 311.654 311.893C315.613 302.728 319.29 294.126 322.401 286.371C336.117 250.558 334.562 223.345 357.328 233.073C379.104 242.38 375.286 235.753 396.496 268.465C403.425 279.181 410.92 285.808 420.394 306.534C457.724 387.892 459.28 401.428 488.126 435.408" stroke="#FFFFFF" stroke-opacity="1.000000" stroke-width="0.635000"/>
		<path id="Vector" d="M-190.754 471.223C-190.754 471.223 -177.32 421.59 -160.352 417.643C-143.949 413.835 -140.697 444.714 -119.91 443.586C-100.255 442.6 -89.0844 437.241 -76.0753 404.247C-75.0854 401.709 -73.9542 399.171 -72.9644 396.352C-56.8443 355.461 -58.6826 361.102 -34.7853 293.421C-10.8881 225.882 -6.92877 207.129 36.3408 199.233C44.4008 197.683 51.7538 198.246 58.6826 200.784C86.2563 210.513 106.336 244.917 124.011 291.165C126.839 298.497 129.667 306.252 132.354 314.289C156.11 384.366 164.311 426.808 186.512 439.074C208.005 450.918 211.399 427.512 226.953 409.323C240.952 393.108 245.336 376.894 263.577 373.791C264.708 373.65 265.981 373.509 267.395 373.368C289.878 371.112 296.807 347.848 317.876 300.048C321.977 290.883 325.653 282.423 328.764 274.668C342.904 239.418 341.349 212.628 363.974 222.78C385.75 232.509 381.79 226.164 403.284 258.453C410.495 269.169 417.99 275.091 427.605 295.818C464.936 376.329 466.491 390.147 494.914 423.987" stroke="#FFFFFF" stroke-opacity="1.000000" stroke-width="0.635000"/>
		<path id="Vector" d="M-182.552 459.378C-182.552 459.378 -169.26 410.028 -152.433 405.798C-136.313 401.709 -132.92 432.024 -112.416 430.755C-92.9023 429.486 -81.8728 423.846 -68.5809 391.416C-67.591 388.878 -66.4598 386.34 -65.3286 383.661C-48.7843 343.335 -50.3398 349.68 -26.5839 283.128C-2.68666 216.576 1.41403 197.823 44.2594 189.927C52.178 188.517 59.531 188.94 66.4598 191.478C93.8922 201.207 113.971 235.329 131.506 281.013C134.334 288.345 137.162 295.959 139.848 303.996C163.463 373.227 171.664 415.386 193.865 427.512C215.358 439.215 218.893 416.091 234.448 397.902C248.305 381.828 252.83 365.472 270.93 362.229C272.061 361.947 273.334 361.947 274.606 361.806C297.09 359.127 304.018 335.58 324.946 288.345C329.047 279.18 332.865 270.861 335.976 263.247C350.399 228.42 348.985 202.194 371.609 212.769C393.386 222.78 389.285 216.999 411.203 248.724C418.697 259.581 426.333 264.516 436.09 285.525C473.279 365.19 475.117 379.149 503.115 412.848" stroke="#FFFFFF" stroke-opacity="1.000000" stroke-width="0.635000"/>
		<path id="Vector" d="M-174.068 447.252C-174.068 447.252 -161.059 398.184 -144.373 393.672C-128.536 389.301 -125.001 419.052 -104.78 417.501C-85.4079 416.091 -74.5198 410.169 -61.0865 378.161C-60.0966 375.765 -58.9654 373.227 -57.8342 370.548C-40.8657 330.785 -42.2798 337.836 -18.3825 272.271C5.37335 206.847 9.75688 187.952 52.178 180.057C60.0967 178.646 67.4496 179.069 74.237 181.467C101.528 191.195 121.466 225.035 139 270.155C141.828 277.347 144.656 284.961 147.343 292.856C170.816 361.383 179.017 403.26 201.359 415.244C222.853 426.947 226.529 403.965 242.083 385.635C255.8 369.561 260.325 353.346 278.424 349.82C279.555 349.539 280.828 349.539 282.101 349.257C304.584 346.296 311.371 322.467 332.299 275.654C336.4 266.489 340.359 258.171 343.611 250.697C358.317 216.435 357.045 190.632 379.669 201.488C401.446 211.923 397.203 206.424 419.404 237.585C427.181 248.441 434.958 252.672 444.857 273.681C482.046 352.5 483.884 366.6 511.599 400.157" stroke="#FFFFFF" stroke-opacity="1.000000" stroke-width="0.635000"/>
		<path id="Vector" d="M-165.018 434.844C-165.018 434.844 -152.292 386.058 -135.748 381.264C-120.052 376.611 -116.658 405.798 -96.5788 404.105C-77.3479 402.414 -66.6012 396.351 -53.0265 364.908C-52.0366 362.511 -50.764 359.973 -49.6328 357.294C-32.2401 317.955 -33.3713 325.851 -9.47406 261.272C14.2818 196.836 18.8067 177.801 60.8037 170.046C68.5809 168.636 75.9339 169.059 82.7213 171.456C109.871 181.185 129.809 214.602 147.201 259.299C150.03 266.349 152.858 273.963 155.544 281.858C178.734 349.539 187.077 391.134 209.419 402.978C230.913 414.54 234.73 391.839 250.143 373.509C263.86 357.435 268.385 341.22 286.343 337.554C287.474 337.271 288.747 337.131 290.019 336.99C312.361 333.605 319.29 309.636 340.218 263.247C344.318 254.082 348.419 245.904 351.671 238.431C366.66 204.731 365.388 179.352 388.012 190.632C409.788 201.489 405.405 196.413 428.03 227.01C436.09 237.867 443.867 241.392 453.906 262.542C490.954 340.515 493.075 354.896 520.366 388.173" stroke="#FFFFFF" stroke-opacity="1.000000" stroke-width="0.635000"/>
		<path id="Vector" d="M-155.686 422.577C-155.686 422.577 -143.242 374.214 -126.839 368.997C-111.426 364.203 -107.891 392.685 -88.0946 390.711C-69.1465 388.736 -58.3998 382.533 -44.6836 351.513C-43.6938 349.116 -42.4211 346.719 -41.2899 344.04C-23.6144 305.265 -24.3215 313.865 -0.424194 250.416C23.3317 186.966 27.998 167.931 69.5707 160.176C77.3479 158.766 84.5595 159.188 91.3469 161.586C118.355 171.314 138.152 204.45 155.544 248.583C158.372 255.633 161.2 263.105 163.887 271.002C186.936 337.836 195.42 379.148 217.762 390.993C239.255 402.414 243.073 379.854 258.628 361.665C272.202 345.731 276.869 329.517 294.686 325.568C295.817 325.287 297.09 325.146 298.362 325.005C320.704 321.197 327.491 297.087 348.419 251.262C352.52 242.097 356.621 233.919 360.014 226.587C375.427 193.452 374.155 168.495 396.779 180.197C418.555 191.478 414.031 186.684 436.938 216.857C445.281 227.715 453.199 230.394 463.38 251.685C500.428 328.953 502.549 343.335 529.557 376.61" stroke="#FFFFFF" stroke-opacity="1.000000" stroke-width="0.635000"/>
		<path id="Vector" d="M-145.929 410.169C-145.929 410.169 -133.627 362.088 -117.507 356.589C-102.376 351.513 -98.8413 379.431 -79.1862 377.316C-60.3795 375.201 -49.7742 368.574 -35.9166 338.118C-34.7854 335.721 -33.6541 333.324 -32.3815 330.786C-14.2818 292.575 -14.706 301.881 9.19124 239.418C32.9471 177.096 37.7548 157.779 79.0447 150.165C86.6806 148.755 93.8922 149.178 100.538 151.575C127.405 161.304 147.201 194.157 164.453 237.726C167.139 244.635 170.109 252.108 172.796 259.863C195.703 325.851 204.187 366.882 226.529 378.585C248.022 389.865 251.982 367.587 267.536 349.398C280.97 333.465 285.777 317.391 303.453 313.161C304.584 312.879 305.857 312.738 307.129 312.456C329.471 308.367 336.258 283.833 357.045 238.572C361.287 229.407 365.388 221.37 368.923 214.179C384.619 181.467 383.487 157.074 406.112 169.2C427.888 180.762 423.363 176.532 446.553 206.001C455.179 216.999 463.239 218.832 473.562 240.264C510.468 316.686 512.872 331.35 539.456 364.344" stroke="#FFFFFF" stroke-opacity="1.000000" stroke-width="0.635000"/>
		<path id="Vector" d="M-136.031 397.901C-136.031 397.901 -124.011 350.103 -107.891 344.321C-92.9023 338.964 -89.3672 366.317 -69.9949 363.921C-51.3296 361.523 -40.8657 354.756 -26.8667 324.723C-25.7355 322.325 -24.6043 319.929 -23.3316 317.531C-4.80774 279.744 -4.94913 289.896 18.8067 228.42C42.5626 167.085 47.5117 147.768 88.3774 140.013C96.0132 138.603 103.083 139.025 109.729 141.423C136.455 151.151 156.11 183.582 173.361 226.728C176.048 233.637 179.017 240.969 181.704 248.724C204.47 313.865 212.954 354.614 235.437 366.317C256.931 377.457 261.032 355.461 276.586 337.131C290.019 321.339 294.827 305.124 312.361 300.753C313.492 300.471 314.765 300.33 315.896 300.048C338.238 295.536 344.884 270.86 365.67 226.022C369.912 216.999 374.155 208.962 377.69 201.771C393.668 169.623 392.679 145.652 415.162 158.061C436.938 170.046 432.272 166.098 455.745 195.144C464.653 206.142 472.713 207.27 483.177 228.701C519.942 304.277 522.487 319.083 548.788 351.936" stroke="#FFFFFF" stroke-opacity="1.000000" stroke-width="0.635000"/>
		<path id="Vector" d="M-125.708 385.917C-125.708 385.917 -113.972 338.4 -97.9929 332.337C-83.2869 326.838 -79.6104 353.628 -60.5208 350.809C-41.9969 348.271 -31.5331 341.22 -17.5341 311.61C-16.4028 309.354 -15.1302 306.957 -13.999 304.419C4.80774 267.195 5.09055 278.052 28.8464 217.704C52.6023 157.356 57.6928 137.898 98.1343 130.284C105.77 128.874 112.699 129.297 119.345 131.694C145.929 141.423 165.584 173.571 182.694 216.153C185.38 222.921 188.35 230.253 191.037 237.867C213.661 302.163 222.145 342.63 244.629 354.192C265.981 365.19 270.364 343.477 285.919 325.146C299.211 309.354 304.16 293.28 321.552 288.627C322.684 288.345 323.956 288.204 325.088 287.922C347.288 282.987 354.075 258.171 374.862 213.756C379.104 204.732 383.487 196.695 387.022 189.646C403.284 158.062 402.294 134.514 424.919 147.345C446.695 159.753 442.029 156.087 465.643 184.71C474.834 195.708 483.036 195.99 493.641 217.704C530.406 292.435 533.093 307.38 558.97 340.092" stroke="#FFFFFF" stroke-opacity="1.000000" stroke-width="0.635000"/>
		<path id="Vector" d="M-115.103 374.214C-115.103 374.214 -103.649 326.979 -87.8118 320.634C-73.3886 314.854 -69.7121 341.079 -50.764 338.118C-32.3815 335.298 -22.059 328.107 -7.77719 299.062C-6.64597 296.805 -5.37332 294.408 -4.10069 292.011C15.1302 255.21 15.5544 266.913 39.4517 207.552C63.2076 148.332 68.4395 128.733 108.457 121.119C115.951 119.709 123.021 120.132 129.526 122.529C155.969 132.258 175.482 164.124 192.451 206.143C195.137 212.91 197.965 220.102 200.652 227.715C223.135 291.306 231.62 331.35 254.244 342.912C275.596 353.91 280.121 332.337 295.534 314.007C308.826 298.356 313.634 282.282 331.026 277.347C332.158 277.065 333.289 276.924 334.562 276.501C356.762 271.284 363.408 246.187 384.194 202.194C388.436 193.17 392.82 185.274 396.638 178.365C413.182 147.345 412.334 124.221 434.958 137.475C456.734 150.165 452.068 146.922 475.965 174.981C485.44 185.979 493.782 185.556 504.529 207.271C541.153 281.154 543.981 296.382 569.575 328.953" stroke="#FFFFFF" stroke-opacity="1.000000" stroke-width="0.635000"/>
		<path id="Vector" d="M-104.356 362.935C-104.356 362.935 -93.1852 315.981 -77.4893 309.495C-63.3489 303.573 -59.531 329.095 -40.8657 325.852C-22.6246 322.749 -12.4435 315.417 1.97964 286.794C3.11089 284.538 4.3835 282.282 5.65613 279.886C25.3113 243.648 26.0183 256.057 49.9156 197.683C73.6714 139.449 79.0447 119.709 118.638 112.236C126.132 110.826 133.061 111.249 139.424 113.646C165.725 123.375 185.239 154.818 202.066 196.413C204.753 203.04 207.581 210.231 210.268 217.704C232.609 280.449 241.235 320.353 263.718 331.632C285.07 342.489 289.737 321.058 305.15 302.868C318.3 287.217 323.249 271.144 340.5 266.067C341.632 265.785 342.763 265.503 344.036 265.222C366.236 259.581 372.882 234.201 393.527 190.773C397.769 181.749 402.294 173.854 406.112 167.085C423.08 136.488 422.232 113.929 444.715 127.464C466.491 140.577 461.825 137.757 485.864 165.252C495.62 176.392 503.963 175.122 514.993 196.978C551.475 270.016 554.586 285.385 579.756 317.814" stroke="#FFFFFF" stroke-opacity="1.000000" stroke-width="0.635000"/>
		<path id="Vector" d="M-93.3265 352.218C-93.3265 352.218 -82.297 305.547 -66.884 298.778C-52.885 292.574 -49.0671 317.531 -30.6846 314.147C-12.7263 310.904 -2.54527 303.149 12.0193 275.091C13.1506 272.835 14.4232 270.578 15.8372 268.322C35.9166 232.649 36.9064 245.903 60.8037 188.517C84.5595 131.411 90.0743 111.53 129.243 104.058C136.596 102.647 143.525 103.07 149.888 105.468C176.048 115.196 195.42 146.357 212.247 187.389C214.934 194.016 217.762 201.065 220.449 208.538C242.649 270.438 251.275 310.059 273.758 321.339C295.11 332.055 299.918 310.904 315.331 292.716C328.481 277.205 333.43 261.132 350.54 255.773C351.671 255.491 352.803 255.21 354.075 254.928C376.276 248.864 382.78 223.344 403.425 180.339C407.809 171.314 412.334 163.56 416.293 156.792C433.544 126.759 432.837 104.621 455.32 118.58C477.097 132.116 472.43 129.578 496.752 156.65C506.792 167.789 515.276 165.675 526.305 187.671C562.646 259.862 565.898 275.373 590.785 307.661" stroke="#FFFFFF" stroke-opacity="1.000000" stroke-width="0.635000"/>
		<path id="Vector" d="M-82.297 342.066C-82.297 342.066 -71.5503 295.818 -56.1373 288.627C-42.4212 282.282 -38.6032 306.534 -20.3622 302.868C-2.54526 299.344 7.63583 291.447 22.2004 263.812C23.3316 261.556 24.7457 259.44 26.0183 257.043C46.5219 221.793 47.7945 235.894 71.5504 179.493C95.3062 123.375 101.104 103.494 139.848 96.0215C147.201 94.6113 153.989 95.0342 160.352 97.4316C186.37 107.302 205.743 138.039 222.428 178.507C225.115 184.992 227.943 192.042 230.63 199.516C252.547 260.568 261.314 299.907 283.939 311.188C305.291 321.763 310.24 300.895 325.653 282.564C338.662 267.055 343.753 250.98 360.721 245.481C361.852 245.059 362.984 244.917 364.115 244.636C386.315 238.149 392.82 212.487 413.465 169.905C417.848 160.882 422.515 153.268 426.474 146.499C444.008 117.03 443.301 95.3164 465.926 109.698C487.702 123.517 483.036 121.401 507.498 147.909C517.821 159.049 526.446 156.229 537.617 178.365C573.817 249.853 577.352 265.503 601.815 297.511" stroke="#FFFFFF" stroke-opacity="1.000000" stroke-width="0.635000"/>
		<path id="Vector" d="M-71.1261 332.76C-71.1261 332.76 -60.6622 286.794 -45.3906 279.321C-31.9573 272.694 -27.998 296.382 -10.0397 292.435C7.6358 288.627 17.6755 280.59 32.3815 253.519C33.5127 251.263 34.9268 249.147 36.3408 246.892C57.1272 212.205 58.824 227.01 82.5799 171.598C106.336 116.466 112.275 96.4443 150.595 89.1123C157.807 87.7021 164.594 88.125 170.957 90.5225C196.834 100.393 216.065 130.707 232.751 170.751C235.437 177.237 238.266 184.146 240.952 191.479C262.728 251.686 271.495 290.742 294.12 301.881C315.472 312.315 320.563 291.729 335.976 273.399C348.843 258.03 354.075 241.956 370.902 236.175C372.034 235.752 373.165 235.611 374.296 235.188C396.355 228.42 403.001 202.477 423.505 160.317C427.888 151.293 432.696 143.68 436.655 137.193C454.472 108.288 453.906 86.9971 476.39 101.803C498.307 116.043 493.5 114.21 518.245 140.295C528.85 151.435 537.476 147.909 548.93 170.046C584.988 240.688 588.664 256.479 612.703 288.486" stroke="#FFFFFF" stroke-opacity="1.000000" stroke-width="0.635000"/>
		<path id="Vector" d="M-59.9552 324.159C-59.9552 324.159 -49.7742 278.476 -34.644 270.72C-21.4934 263.952 -17.3927 286.936 0.282806 282.846C17.8169 278.898 27.7151 270.579 42.5626 243.93C43.8352 241.815 45.1078 239.56 46.5219 237.444C67.7325 203.322 69.7121 218.832 93.468 164.547C117.082 110.544 123.304 90.3809 161.2 82.9082C168.412 81.498 175.058 81.9209 181.421 84.3184C207.157 94.1885 226.388 124.221 242.932 163.701C245.619 170.046 248.447 176.955 251.133 184.287C272.768 243.789 281.535 282.423 304.301 293.562C325.653 303.855 330.885 283.551 346.157 265.221C359.024 249.853 364.256 233.919 380.942 227.856C382.073 227.434 383.204 227.292 384.336 226.869C406.395 219.678 412.899 193.593 433.403 151.857C437.786 142.833 442.594 135.36 446.836 128.874C464.936 100.533 464.512 79.665 486.995 94.752C508.912 109.416 504.105 107.865 528.992 133.527C539.88 144.666 548.647 140.295 560.101 162.714C596.017 232.509 599.977 248.583 623.591 280.309" stroke="#FFFFFF" stroke-opacity="1.000000" stroke-width="0.635000"/>
		<path id="Vector" d="M-48.6429 316.686C-48.6429 316.686 -38.7447 271.425 -23.7559 263.247C-10.7467 256.196 -6.7874 278.616 10.7467 274.245C28.1393 270.015 38.0376 261.414 53.0264 235.329C54.2991 233.214 55.7131 231.099 56.9857 228.843C78.6205 195.144 80.7416 211.5 104.639 158.202C128.253 105.186 134.616 85.0225 172.088 77.5498C179.159 76.1396 185.805 76.5625 192.026 78.96C217.621 88.8301 236.71 118.581 253.254 157.497C255.941 163.842 258.769 170.609 261.456 177.801C282.949 236.457 291.858 274.809 314.482 285.807C335.693 296.1 341.208 275.796 356.479 257.606C369.205 242.379 374.437 226.305 391.123 220.101C392.254 219.678 393.385 219.396 394.517 219.113C416.576 211.5 423.08 185.133 443.442 143.961C447.826 134.937 452.775 127.604 457.017 121.119C475.4 93.2012 475.117 72.8965 497.6 88.4072C519.518 103.494 514.71 102.225 539.738 127.323C550.909 138.603 559.818 133.386 571.413 155.805C607.188 224.754 611.289 240.969 634.62 272.553" stroke="#FFFFFF" stroke-opacity="1.000000" stroke-width="0.635000"/>
		<path id="Vector" d="M-37.472 310.2C-37.472 310.2 -27.8566 265.221 -13.0091 256.761C-0.282791 249.57 3.81793 271.284 21.0692 266.771C38.3205 262.26 48.0773 253.518 63.2076 227.855C64.4802 225.741 65.8942 223.626 67.3083 221.511C89.3672 188.376 91.7711 205.437 115.527 153.126C139.141 101.238 145.646 80.793 182.694 73.4609C189.764 72.0508 196.41 72.4736 202.49 74.8711C227.943 84.7412 247.033 114.069 263.435 152.562C266.122 158.766 268.95 165.534 271.637 172.725C292.989 230.535 301.897 268.746 324.663 279.603C345.874 289.755 351.53 269.732 366.802 251.403C379.528 236.175 384.76 220.242 401.304 213.756C402.435 213.333 403.567 213.051 404.698 212.628C426.757 204.591 433.12 178.083 453.482 137.475C458.007 128.451 462.956 121.119 467.198 114.773C485.864 87.4199 485.581 67.6797 508.064 83.4717C529.982 98.8408 525.174 97.9951 550.485 122.67C562.08 133.95 570.848 128.028 582.725 150.588C618.359 218.832 622.743 235.047 645.65 266.49" stroke="#FFFFFF" stroke-opacity="1.000000" stroke-width="0.635000"/>
		<path id="Vector" d="M-26.3011 304.842C-26.3011 304.842 -16.9685 260.145 -2.12106 251.403C10.3225 243.93 14.5646 265.08 31.5331 260.286C48.6429 255.492 58.3998 246.609 73.53 221.37C74.8026 219.255 76.2167 217.281 77.6307 215.166C100.114 182.454 102.801 200.361 126.556 149.178C150.171 98.2773 156.817 77.832 193.44 70.5C200.369 69.0898 207.015 69.5127 213.096 71.9102C238.407 81.7803 257.355 110.826 273.758 148.755C276.445 154.959 279.273 161.586 281.959 168.636C303.028 225.6 312.078 263.529 334.844 274.245C356.055 284.256 361.711 264.516 377.124 246.186C389.709 231.099 395.082 215.025 411.485 208.398C412.616 207.975 413.748 207.693 414.879 207.27C436.938 198.81 443.301 172.161 463.663 131.976C468.188 123.093 473.279 115.761 477.662 109.557C496.61 82.7666 496.469 63.4502 518.952 79.5244C540.87 95.3164 536.203 94.752 561.515 118.863C573.393 130.143 582.301 123.375 594.32 146.076C629.813 213.474 634.338 229.971 656.962 261.272" stroke="#FFFFFF" stroke-opacity="1.000000" stroke-width="0.635000"/>
		<path id="Vector" d="M-15.1302 300.753C-15.1302 300.753 -6.08034 256.479 8.62567 247.314C20.7864 239.7 25.0285 260.146 41.8556 255.21C58.8241 250.275 68.4395 241.11 83.7112 216.436C84.9838 214.32 86.3978 212.346 87.9532 210.372C110.861 178.225 113.83 196.836 137.586 146.641C161.2 96.7266 167.988 76.1406 204.187 68.9492C211.116 67.5391 217.621 67.9619 223.701 70.3594C248.871 80.2295 267.819 108.993 284.08 146.358C286.767 152.421 289.595 159.048 292.282 166.099C313.21 222.216 322.26 259.863 345.167 270.579C366.377 280.449 372.175 260.991 387.588 242.661C400.173 227.574 405.546 211.642 421.808 204.732C422.798 204.31 423.929 204.027 425.06 203.604C447.119 194.721 453.482 167.932 473.703 128.169C478.228 119.286 483.318 111.954 487.843 105.892C507.074 79.665 507.074 60.7715 529.558 77.2686C551.475 93.4834 546.809 93.2012 572.403 116.89C584.564 128.169 593.614 120.696 605.633 143.538C640.984 210.09 645.792 226.729 667.992 257.89" stroke="#FFFFFF" stroke-opacity="1.000000" stroke-width="0.635000"/>
		<path id="Vector" d="M-4.24211 297.934C-4.24211 297.934 4.66634 253.941 19.0895 244.494C31.1089 236.739 35.351 256.479 51.8952 251.262C68.5809 246.045 78.1964 236.598 93.6094 212.487C94.882 210.372 96.4375 208.539 97.8515 206.424C121.183 174.84 124.435 194.157 148.191 144.948C171.806 96.1621 178.735 75.4355 214.651 68.2441C221.58 66.834 227.943 67.2568 233.882 69.6543C258.769 79.5244 277.717 107.865 293.837 144.807C296.524 150.87 299.352 157.356 301.897 164.406C322.684 219.819 331.734 257.043 354.641 267.618C375.852 277.347 381.79 258.171 397.062 239.841C409.506 224.896 415.02 208.962 431.14 201.771C432.13 201.348 433.261 201.066 434.393 200.502C456.31 191.196 462.674 164.265 482.894 124.926C487.419 116.043 492.651 108.853 497.176 102.789C516.69 77.127 516.831 58.6562 539.173 75.5762C561.091 92.0732 556.424 92.0732 582.16 115.479C594.603 126.759 603.653 118.581 615.955 141.423C651.165 207.129 656.114 224.049 678.032 254.928" stroke="#FFFFFF" stroke-opacity="1.000000" stroke-width="0.635000"/>
		<path id="Vector" d="M6.50458 296.664C6.50458 296.664 15.1302 252.954 29.412 243.225C41.1485 235.188 45.5321 254.364 61.7935 248.865C78.3378 243.366 87.9532 233.778 103.366 210.09C104.639 208.116 106.194 206.142 107.75 204.168C131.506 173.007 134.899 193.17 158.797 145.089C182.411 97.29 189.481 76.4219 224.974 69.3721C231.761 67.9619 238.124 68.3848 244.063 70.7822C268.809 80.6523 287.757 108.711 303.736 145.089C306.422 151.011 309.25 157.497 311.796 164.406C332.441 218.973 341.49 255.915 364.539 266.49C385.75 276.219 391.83 257.184 407.102 238.713C419.404 223.908 425.06 207.834 441.039 200.502C442.028 200.079 443.16 199.656 444.291 199.233C466.209 189.504 472.572 162.291 492.651 123.516C497.317 114.633 502.549 107.583 507.216 101.521C527.012 76.2812 527.154 58.374 549.637 75.7168C571.554 92.6367 567.029 92.9189 592.765 115.761C605.633 127.041 614.683 118.017 627.126 141.141C662.194 206.142 667.426 223.062 688.92 253.8" stroke="#FFFFFF" stroke-opacity="1.000000" stroke-width="0.635000"/>
		<path id="Vector" d="M17.1099 297.369C17.1099 297.369 25.4527 254.082 39.5931 243.93C51.0468 235.752 55.4303 254.223 71.5504 248.583C87.9532 242.943 97.4272 233.073 113.123 209.809C114.396 207.834 115.951 205.86 117.507 204.027C141.687 173.43 145.363 194.298 169.119 147.204C192.733 100.533 199.945 79.5244 235.013 72.333C241.801 70.9229 248.022 71.3457 253.961 73.6025C278.566 83.4717 297.372 111.249 313.351 147.063C316.038 152.985 318.866 159.33 321.411 166.239C341.915 219.96 351.106 256.761 374.013 267.054C395.224 276.643 401.446 257.748 416.717 239.418C429.019 224.613 434.534 208.68 450.513 201.066C451.503 200.644 452.634 200.22 453.765 199.797C475.683 189.646 482.046 162.291 502.125 123.939C506.791 115.056 512.023 108.006 516.831 102.226C536.911 77.5498 537.193 60.0664 559.535 77.6914C581.453 95.0342 576.928 95.5977 602.946 118.018C616.097 129.438 625.147 119.568 637.731 142.692C672.517 206.847 678.032 223.908 699.242 254.646" stroke="#FFFFFF" stroke-opacity="1.000000" stroke-width="0.635000"/>
		<path id="Vector" d="M27.5737 300.049C27.5737 300.049 35.6338 257.044 49.7741 246.609C61.0865 238.29 65.4699 255.915 81.3072 250.135C97.5686 244.213 107.043 234.201 122.739 211.359C124.153 209.386 125.708 207.553 127.263 205.72C151.868 175.546 155.827 197.26 179.583 151.152C203.197 105.469 210.55 84.3184 245.194 77.2686C251.84 75.8584 258.062 76.2812 264.001 78.5371C288.464 88.4072 307.271 115.762 323.108 151.152C325.653 156.934 328.623 163.278 331.168 170.047C351.389 222.922 360.721 259.44 383.77 269.733C404.839 279.181 411.344 260.568 426.615 242.238C438.776 227.574 444.432 211.642 460.27 203.745C461.259 203.182 462.391 202.899 463.522 202.336C485.44 191.761 491.661 164.266 511.741 126.337C516.407 117.453 521.78 110.545 526.588 104.764C546.809 80.6523 547.374 63.5918 569.716 81.6396C591.634 99.4053 587.25 100.252 613.269 122.247C626.702 133.669 635.893 123.094 648.62 146.358C683.263 209.667 689.061 227.011 709.847 257.467" stroke="#FFFFFF" stroke-opacity="1.000000" stroke-width="0.635000"/>
		<path id="Vector" d="M39.3103 304.842C39.3103 304.842 47.0875 262.26 61.0865 251.402C72.116 242.942 76.6409 259.862 92.1953 253.94C108.315 247.736 117.789 237.585 133.485 215.307C134.899 213.333 136.455 211.5 138.01 209.667C163.039 180.057 167.281 202.476 191.037 157.497C214.651 112.8 222.146 91.6494 256.365 84.5996C263.011 83.1895 269.233 83.6123 275.031 85.8691C299.352 95.7383 318.017 122.811 333.855 157.638C336.4 163.419 339.369 169.623 341.915 176.391C361.994 228.42 371.327 264.656 394.375 274.809C415.445 284.115 422.091 265.785 437.221 247.455C449.382 232.791 455.038 216.857 470.733 208.82C471.723 208.257 472.854 207.975 473.844 207.411C495.762 196.413 501.984 168.776 521.922 131.271C526.588 122.388 532.103 115.479 537.052 109.839C557.555 86.292 558.263 69.6533 580.604 88.125C602.522 106.173 598.28 107.301 624.44 128.874C638.156 140.295 647.488 128.874 660.356 152.279C694.859 214.884 700.798 232.227 721.301 262.542" stroke="#FFFFFF" stroke-opacity="1.000000" stroke-width="0.635000"/>
		<path id="Vector" d="M51.1882 310.765C51.1882 310.765 58.6826 268.464 72.5402 257.325C83.2869 248.583 87.8118 264.939 103.225 258.735C119.203 252.249 128.536 241.815 144.373 220.102C145.787 218.127 147.343 216.436 148.898 214.603C174.351 185.557 178.876 208.821 202.632 164.688C226.105 121.119 233.882 99.8281 267.678 92.7783C274.182 91.3682 280.404 91.791 286.06 94.0469C310.24 103.917 328.905 130.707 344.601 164.971C347.147 170.61 349.975 176.814 352.661 183.441C372.599 234.766 381.932 270.579 405.122 280.731C426.191 289.896 432.979 271.849 448.109 253.377C460.128 238.854 465.926 222.921 481.48 214.603C482.47 214.038 483.601 213.615 484.591 213.192C506.509 201.771 512.73 173.994 532.527 136.911C537.335 128.028 542.849 121.261 547.799 115.62C568.585 92.4961 569.292 76.4219 591.634 95.1748C613.551 113.646 609.309 115.057 635.61 136.206C649.751 147.627 658.942 135.501 672.093 159.048C706.454 220.807 712.675 238.29 732.755 268.464" stroke="#FFFFFF" stroke-opacity="1.000000" stroke-width="0.635000"/>
		<path id="Vector" d="M62.5005 317.392C62.5005 317.392 69.8535 275.515 83.4283 264.094C94.0335 255.21 98.5585 270.861 113.689 264.375C129.526 257.607 138.859 247.032 154.696 225.741C156.11 223.908 157.807 222.075 159.362 220.384C185.239 191.761 189.905 215.871 213.803 172.726C237.276 130.144 245.336 108.711 278.707 101.803C285.212 100.393 291.292 100.815 296.948 103.071C320.987 112.941 339.511 139.309 355.207 173.148C357.752 178.788 360.58 184.852 363.267 191.479C383.063 241.956 392.396 277.488 415.586 287.499C436.655 296.664 443.584 278.758 458.714 260.286C470.733 245.764 476.531 229.972 491.944 221.37C492.934 220.807 494.065 220.384 495.055 219.819C516.831 207.976 523.194 179.916 542.991 143.397C547.799 134.515 553.313 127.888 558.545 122.389C579.614 99.8281 580.463 84.1777 602.805 103.354C624.722 122.247 620.622 123.799 647.064 144.666C661.487 156.087 670.82 143.257 683.97 166.804C718.049 227.856 724.553 245.481 744.209 275.515" stroke="#FFFFFF" stroke-opacity="1.000000" stroke-width="0.635000"/>
		<path id="Vector" d="M73.3886 324.441C73.3886 324.441 80.4588 282.987 93.8922 271.144C104.215 262.119 108.881 277.065 123.728 270.438C139.424 263.529 148.615 252.672 164.594 231.805C166.008 229.972 167.705 228.279 169.26 226.446C195.562 198.387 200.511 223.203 224.267 181.186C247.74 139.731 255.941 118.158 288.888 111.249C295.251 109.839 301.332 110.262 306.988 112.519C330.885 122.389 349.409 148.474 364.963 181.749C367.509 187.248 370.337 193.312 373.023 199.938C392.537 249.57 402.011 284.82 425.343 294.831C446.412 303.855 453.482 286.089 468.612 267.759C480.49 253.377 486.429 237.444 501.701 228.702C502.691 228.139 503.822 227.715 504.812 227.151C526.588 214.884 532.81 186.685 552.606 150.588C557.414 141.846 563.07 135.078 568.302 129.72C589.654 107.725 590.644 92.4961 612.986 112.095C634.904 131.271 630.944 133.245 657.387 153.549C672.234 164.97 681.425 151.293 694.859 175.122C728.796 235.329 735.583 253.095 754.814 282.987" stroke="#FFFFFF" stroke-opacity="1.000000" stroke-width="0.635000"/>
		<path id="Vector" d="M83.8525 332.055C83.8525 332.055 90.6399 290.883 104.073 278.757C114.113 269.592 118.779 283.833 133.485 276.924C149.04 269.733 158.231 258.735 174.351 238.29C175.765 236.457 177.462 234.765 179.159 233.073C205.884 205.438 211.116 231.099 234.872 190.068C258.345 149.601 266.688 127.887 299.211 120.979C305.574 119.568 311.513 119.991 317.169 122.247C340.925 132.117 359.307 157.92 374.862 190.632C377.407 196.131 380.235 202.053 382.922 208.539C402.294 257.325 411.909 292.434 435.1 302.163C456.169 311.046 463.38 293.562 478.511 275.232C490.247 260.85 496.327 245.058 511.458 236.175C512.448 235.611 513.437 235.188 514.569 234.624C536.345 221.934 542.567 193.593 562.222 157.92C567.029 149.178 572.827 142.551 578.059 137.193C599.552 115.62 600.825 100.956 623.025 120.979C644.943 140.577 640.984 142.692 667.568 162.714C682.698 174.135 692.031 159.753 705.605 183.723C739.259 243.084 746.33 261.132 765.278 290.742" stroke="#FFFFFF" stroke-opacity="1.000000" stroke-width="0.635000"/>
		<path id="Vector" d="M93.8922 340.092C93.8922 340.092 100.397 299.343 113.689 286.794C123.587 277.488 128.253 291.023 142.677 283.974C158.09 276.501 167.281 265.361 183.401 245.48C184.815 243.647 186.512 242.097 188.209 240.404C215.5 213.333 220.873 239.7 244.629 199.656C268.102 160.316 276.586 138.462 308.685 131.553C315.048 130.284 320.845 130.565 326.36 132.822C349.975 142.691 368.357 168.071 383.629 200.36C386.174 205.719 389.002 211.641 391.547 218.127C410.778 266.066 420.394 300.894 443.725 310.623C464.795 319.365 472.148 302.163 487.136 283.691C498.873 269.451 504.812 253.518 519.942 244.494C520.932 243.93 521.922 243.507 522.912 242.802C544.688 229.548 550.91 201.207 570.423 166.098C575.372 157.355 581.029 150.729 586.543 145.512C608.32 124.503 609.592 110.262 631.934 130.565C653.852 150.588 650.034 152.984 676.759 172.584C692.172 184.005 701.505 168.918 715.221 192.888C748.734 251.544 755.945 269.592 774.61 299.061" stroke="#FFFFFF" stroke-opacity="1.000000" stroke-width="0.635000"/>
		<path id="Vector" d="M103.649 348.271C103.649 348.271 109.871 307.944 123.021 294.973C132.637 285.525 137.445 298.356 151.585 291.024C166.715 283.27 176.048 271.849 192.168 252.531C193.723 250.698 195.42 249.147 197.117 247.597C224.832 221.088 230.347 248.16 254.244 209.244C277.717 170.893 286.343 148.896 318.017 142.128C324.239 140.859 330.037 141.142 335.551 143.397C359.024 153.268 377.265 178.365 392.537 210.091C395.082 215.448 397.91 221.229 400.456 227.574C419.545 274.81 429.161 309.213 452.492 318.802C473.42 327.402 481.056 310.482 496.045 292.012C507.64 277.771 513.72 261.979 528.709 252.672C529.699 252.108 530.689 251.544 531.678 250.98C553.313 237.304 559.676 208.821 579.19 174.136C584.139 165.394 589.937 158.907 595.452 153.831C617.511 133.387 618.925 119.568 641.266 140.295C663.184 160.74 659.508 163.278 686.233 182.454C702.07 193.734 711.403 177.942 725.26 202.194C758.632 260.004 766.126 278.193 784.367 307.662" stroke="#FFFFFF" stroke-opacity="1.000000" stroke-width="0.635000"/>
		<path id="Vector" d="M112.982 356.729C112.982 356.729 119.062 316.686 131.93 303.432C141.262 293.844 146.07 305.829 160.069 298.497C175.058 290.46 184.249 278.898 200.511 260.004C202.066 258.171 203.763 256.62 205.46 255.069C233.599 228.984 239.397 256.902 263.294 218.973C286.626 181.608 295.534 159.612 326.784 152.844C333.006 151.575 338.804 151.857 344.177 154.113C367.509 164.124 385.75 188.799 400.88 219.96C403.425 225.177 406.253 230.958 408.799 237.303C427.605 283.692 437.362 317.813 460.835 327.402C481.763 336.003 489.399 319.224 504.529 300.753C516.124 286.653 522.205 270.861 537.052 261.273C538.042 260.709 539.031 260.145 540.021 259.581C561.656 245.48 568.019 216.858 587.392 182.595C592.341 173.853 598.28 167.508 603.795 162.432C625.995 142.41 627.692 129.156 649.892 150.306C671.81 171.033 668.275 173.853 695.141 192.747C711.261 204.027 720.594 187.53 734.734 211.782C767.823 268.887 775.6 287.217 793.558 316.404" stroke="#FFFFFF" stroke-opacity="1.000000" stroke-width="0.635000"/>
		<path id="Vector" d="M122.032 365.189C122.032 365.189 127.829 325.569 140.697 311.892C149.888 302.021 154.696 313.443 168.412 305.829C183.259 297.51 192.451 285.807 208.712 267.336C210.268 265.644 211.964 264.093 213.661 262.542C242.225 237.021 248.305 265.644 272.061 228.702C295.393 192.465 304.443 170.187 335.41 163.56C341.49 162.291 347.288 162.573 352.661 164.829C375.851 174.84 393.951 199.092 409.081 229.83C411.627 235.047 414.455 240.687 417 246.891C435.665 292.434 445.422 326.273 468.895 335.721C489.823 344.181 497.6 327.684 512.73 309.213C524.184 295.113 530.406 279.321 545.112 269.592C546.102 269.028 547.092 268.464 548.081 267.759C569.716 253.236 575.938 224.472 595.31 190.632C600.259 181.89 606.198 175.545 611.996 170.61C634.479 151.152 636.176 138.321 658.518 159.753C680.435 180.903 676.9 184.005 703.908 202.476C720.453 213.756 729.785 196.554 744.067 220.947C777.014 277.206 785.074 295.677 802.608 324.723" stroke="#FFFFFF" stroke-opacity="1.000000" stroke-width="0.635000"/>
		<path id="Vector" d="M130.94 373.791C130.94 373.791 136.455 334.593 149.181 320.493C158.09 310.482 163.039 321.198 176.472 313.302C191.178 304.701 200.369 292.856 216.631 274.95C218.186 273.258 220.025 271.707 221.721 270.297C250.709 245.34 257.072 274.668 280.828 238.854C304.16 203.604 313.351 181.326 343.894 174.699C349.975 173.43 355.631 173.712 361.004 175.968C384.053 185.979 402.153 209.949 417.141 240.123C419.687 245.199 422.515 250.839 425.06 257.043C443.584 301.74 453.341 335.438 476.955 344.745C497.883 353.063 505.802 336.708 520.932 318.237C532.386 304.278 538.607 288.486 553.172 278.475C554.162 277.77 555.152 277.347 556.141 276.642C577.635 261.555 583.998 232.791 603.229 199.374C608.32 190.632 614.258 184.428 620.056 179.634C642.822 160.74 644.66 148.332 667.002 170.187C688.92 191.76 685.526 195.003 712.676 213.051C729.503 224.331 738.835 206.424 753.258 230.817C785.923 286.371 794.266 304.842 811.517 333.747" stroke="#FFFFFF" stroke-opacity="1.000000" stroke-width="0.635000"/>
		<path id="Vector" d="M139.424 382.251C139.424 382.251 144.798 343.335 157.241 328.953C166.008 318.801 170.816 328.812 184.108 320.775C198.672 312.033 207.864 299.907 224.125 282.423C225.681 280.731 227.519 279.321 229.216 277.911C258.769 253.518 265.132 283.692 289.03 248.724C312.361 214.603 321.694 192.042 351.813 185.556C357.752 184.287 363.408 184.569 368.64 186.825C391.547 196.836 409.506 220.524 424.494 250.134C427.04 255.21 429.868 260.709 432.413 266.913C450.654 310.764 460.694 344.181 484.167 353.487C505.095 361.665 513.155 345.591 528.143 327.12C539.456 313.161 545.819 297.51 560.242 287.217C561.232 286.512 562.222 286.089 563.07 285.384C584.564 269.874 590.927 240.828 610.158 207.975C615.248 199.233 621.329 193.029 627.126 188.376C650.034 169.905 652.155 158.062 674.355 180.339C696.273 202.335 693.02 205.719 720.17 223.485C737.421 234.765 746.754 216.012 761.318 240.688C793.7 295.396 802.467 314.148 819.294 342.912" stroke="#FFFFFF" stroke-opacity="1.000000" stroke-width="0.635000"/>
		<path id="Vector" d="M147.908 390.57C147.908 390.57 152.999 352.077 165.301 337.272C173.785 326.979 178.734 336.285 191.744 327.967C206.167 318.942 215.358 306.676 231.761 289.614C233.316 287.923 235.155 286.513 236.993 285.103C266.97 261.133 273.616 292.152 297.514 258.172C320.845 225.036 330.319 202.477 360.014 195.85C365.953 194.58 371.468 194.722 376.7 197.118C399.466 207.13 417.424 230.395 432.272 259.581C434.817 264.517 437.645 270.016 440.19 276.078C458.29 319.225 468.33 352.219 491.944 361.384C512.872 369.421 521.073 353.629 536.062 335.157C547.233 321.34 553.596 305.548 568.019 295.113C569.009 294.408 569.999 293.845 570.847 293.14C592.341 277.206 598.704 248.02 617.793 215.59C622.884 206.848 628.964 200.784 635.045 196.132C658.235 178.225 660.497 166.804 682.698 189.505C704.615 211.782 701.505 215.448 728.654 232.791C746.188 244.071 755.521 224.613 770.368 249.288C802.608 303.291 811.517 322.044 828.061 350.667" stroke="#FFFFFF" stroke-opacity="1.000000" stroke-width="0.635000"/>
		<path id="Vector" d="M156.251 398.466C156.251 398.466 161.2 360.396 173.22 345.168C181.562 334.734 186.512 343.194 199.238 334.875C213.52 325.569 222.57 313.161 239.114 296.523C240.811 294.831 242.649 293.562 244.346 292.152C274.748 268.746 281.676 300.471 305.574 267.618C328.905 235.611 338.521 212.91 367.791 206.283C373.589 205.014 379.104 205.155 384.336 207.552C406.96 217.563 424.777 240.546 439.625 269.169C442.17 273.963 444.998 279.462 447.543 285.525C465.501 327.825 475.541 360.537 499.156 369.702C519.942 377.739 528.426 362.088 543.415 343.617C554.586 329.799 560.949 314.148 575.231 303.432C576.079 302.727 577.211 302.163 578.059 301.458C599.411 284.961 605.916 255.774 624.864 223.767C629.954 215.166 636.176 209.104 642.256 204.45C665.729 186.966 667.992 176.109 690.334 199.092C712.251 221.793 709.282 225.6 736.573 242.661C754.531 253.8 763.864 233.778 778.711 258.594C810.668 311.751 820.001 330.786 836.121 359.127" stroke="#FFFFFF" stroke-opacity="1.000000" stroke-width="0.635000"/>
		<path id="Vector" d="M164.311 406.079C164.311 406.079 168.978 368.433 180.997 352.781C189.057 342.207 194.006 349.962 206.591 341.36C220.731 331.772 229.781 319.224 246.326 303.009C248.022 301.316 249.861 300.048 251.699 298.778C282.666 275.937 289.737 308.366 313.492 276.501C336.683 245.48 346.581 222.639 375.427 216.152C381.225 214.884 386.598 215.024 391.83 217.422C414.313 227.433 432.13 250.134 446.836 278.192C449.382 282.986 452.21 288.345 454.755 294.267C472.43 335.721 482.611 368.292 506.367 377.175C527.154 385.07 535.779 369.701 550.768 351.09C561.798 337.412 568.302 321.762 582.443 310.764C583.291 310.059 584.281 309.494 585.271 308.79C606.623 291.869 613.127 262.542 631.934 230.958C637.166 222.356 643.388 216.294 649.609 211.923C673.224 195.003 675.769 184.568 697.97 207.975C719.887 231.099 717.059 235.188 744.35 251.825C762.591 262.965 771.924 242.237 787.054 267.054C818.87 319.506 828.344 338.541 844.181 366.74" stroke="#FFFFFF" stroke-opacity="1.000000" stroke-width="0.635000"/>
		<path id="Vector" d="M172.513 413.271C172.513 413.271 177.038 375.906 188.774 359.974C196.693 349.257 201.642 356.308 213.944 347.424C227.802 337.555 236.993 324.864 253.537 309.213C255.234 307.662 257.072 306.394 258.91 304.983C290.302 282.705 297.514 315.84 321.411 285.103C344.601 255.21 354.641 232.228 383.063 225.741C388.719 224.473 394.234 224.613 399.183 227.011C421.525 237.021 439.342 259.299 453.765 286.936C456.31 291.588 458.997 296.946 461.542 302.868C479.076 343.477 489.257 375.766 513.013 384.648C533.8 392.403 542.567 377.176 557.555 358.704C568.585 345.027 575.089 329.376 589.089 318.237C589.937 317.532 590.927 316.969 591.917 316.122C613.127 298.779 619.773 269.311 638.58 238.149C643.812 229.548 650.034 223.626 656.397 219.255C680.294 202.758 682.981 192.889 705.181 216.718C727.099 240.123 724.412 244.494 751.844 260.709C770.51 271.849 779.842 250.275 795.114 275.373C826.647 327.12 836.545 346.155 851.817 374.355" stroke="#FFFFFF" stroke-opacity="1.000000" stroke-width="0.635000"/>
		<path id="Vector" d="M180.573 419.898C180.573 419.898 184.815 382.956 196.41 366.6C204.046 355.743 208.995 361.947 221.156 353.064C234.872 342.912 244.063 330.081 260.607 314.853C262.304 313.302 264.284 312.033 266.122 310.764C297.938 289.05 305.432 322.89 329.33 293.139C352.52 264.234 362.701 241.11 390.84 234.765C396.497 233.496 401.87 233.637 406.819 236.034C429.019 246.045 446.695 268.041 461.118 295.113C463.663 299.766 466.35 304.983 468.895 310.764C486.288 350.667 496.469 382.533 520.366 391.275C541.153 398.889 550.061 383.943 564.909 365.472C575.797 351.936 582.443 336.285 596.3 324.864C597.149 324.159 598.138 323.454 598.987 322.749C620.197 304.842 626.843 275.373 645.509 244.635C650.741 236.034 657.104 230.112 663.467 225.882C687.506 209.949 690.475 200.502 712.676 224.613C734.593 248.442 731.906 252.954 759.48 268.887C778.428 279.885 787.761 257.748 803.174 282.846C834.424 333.747 844.605 353.064 859.594 380.982" stroke="#FFFFFF" stroke-opacity="1.000000" stroke-width="0.635000"/>
		<path id="Vector" d="M188.633 425.961C188.633 425.961 192.733 389.441 204.046 372.804C211.54 361.806 216.489 367.305 228.367 358.14C241.942 347.706 251.133 334.733 267.678 319.929C269.374 318.378 271.354 317.108 273.192 315.98C305.574 294.831 313.21 329.376 337.107 300.612C360.297 272.693 370.761 249.57 398.335 243.225C403.991 241.956 409.223 242.097 414.172 244.494C436.231 254.505 453.906 276.219 468.188 302.727C470.592 307.239 473.42 312.456 475.965 318.237C493.075 357.294 503.539 388.878 527.295 397.62C548.081 405.233 557.131 390.429 571.979 371.958C582.867 358.422 589.513 342.912 603.229 331.209C604.077 330.504 605.067 329.799 605.916 329.094C627.126 310.764 633.631 281.154 652.296 250.979C657.528 242.379 664.033 236.598 670.537 232.368C694.859 216.857 697.828 207.975 720.028 232.509C741.946 256.761 739.401 261.414 767.116 277.064C786.488 288.062 795.821 265.221 811.375 290.46C842.484 340.656 852.948 359.973 867.513 387.75" stroke="#FFFFFF" stroke-opacity="1.000000" stroke-width="0.635000"/>
		<path id="Vector" d="M196.693 431.178C196.693 431.178 200.511 395.082 211.682 378.021C219.035 366.882 223.984 371.676 235.579 362.37C249.012 351.654 258.203 338.541 274.889 324.159C276.586 322.608 278.566 321.479 280.404 320.352C313.21 299.766 320.987 335.157 345.025 307.38C368.074 280.59 378.821 257.184 405.971 250.979C411.485 249.711 416.717 249.852 421.666 252.108C443.584 262.119 461.118 283.41 475.4 309.495C477.804 314.007 480.632 319.083 483.177 324.864C500.146 363.075 510.609 394.377 534.507 402.978C555.293 410.451 564.484 395.928 579.332 377.315C590.078 363.921 596.866 348.27 610.441 336.426C611.289 335.721 612.279 335.016 613.127 334.311C634.196 315.417 640.842 285.807 659.366 256.056C664.74 247.455 671.103 241.674 677.749 237.726C702.212 222.78 705.464 214.32 727.664 239.277C749.582 263.952 747.178 268.746 774.893 283.974C794.69 294.831 803.881 271.425 819.718 296.664C850.544 346.014 861.291 365.613 875.573 393.107" stroke="#FFFFFF" stroke-opacity="1.000000" stroke-width="0.635000"/>
		<path id="Vector" d="M204.894 435.55C204.894 435.55 208.571 399.876 219.6 382.393C226.67 371.112 231.62 375.201 243.073 365.613C256.365 354.615 265.557 341.361 282.242 327.402C284.08 325.852 286.06 324.724 287.898 323.596C321.128 303.433 329.188 339.669 353.086 312.879C376.134 287.076 387.022 263.67 413.748 257.325C419.263 256.057 424.353 256.197 429.302 258.453C451.078 268.465 468.612 289.474 482.753 314.994C485.157 319.365 487.985 324.441 490.53 330.081C507.357 367.446 517.821 398.607 541.718 407.067C562.363 414.399 571.837 400.158 586.685 381.546C597.431 368.151 604.077 352.642 617.652 340.516C618.501 339.811 619.49 339.105 620.339 338.26C641.267 318.942 648.054 289.191 666.437 259.863C671.81 251.263 678.314 245.622 684.96 241.675C709.706 227.151 713.1 219.255 735.3 244.636C757.218 269.593 754.955 274.668 782.67 289.614C802.75 300.472 812.083 276.22 828.061 301.74C858.604 350.386 869.775 369.984 883.633 397.479" stroke="#FFFFFF" stroke-opacity="1.000000" stroke-width="0.635000"/>
		<path id="Vector" d="M213.096 439.074C213.096 439.074 216.489 403.824 227.377 385.917C234.306 374.496 239.255 377.739 250.426 368.151C263.577 356.871 272.768 343.477 289.454 330.081C291.292 328.671 293.272 327.543 295.11 326.415C328.905 306.816 337.107 343.758 361.004 317.955C384.053 293.28 395.082 269.592 421.383 263.389C426.757 262.119 431.847 262.26 436.655 264.517C458.29 274.527 475.683 295.254 489.823 320.211C492.227 324.582 495.055 329.518 497.6 335.157C514.144 371.817 524.75 402.556 548.788 410.874C569.433 418.065 579.049 404.106 593.755 385.494C604.36 372.24 611.147 356.589 624.581 344.322C625.429 343.477 626.419 342.912 627.268 342.066C648.195 322.186 654.983 292.435 673.365 263.529C678.739 254.929 685.385 249.288 692.172 245.481C717.059 231.522 720.594 224.19 742.794 249.711C764.712 275.091 762.591 280.309 790.448 294.973C810.951 305.688 820.142 280.872 836.262 306.394C866.523 354.333 877.977 373.933 891.551 401.286" stroke="#FFFFFF" stroke-opacity="1.000000" stroke-width="0.635000"/>
		<path id="Vector" d="M221.58 441.472C221.58 441.472 224.832 406.503 235.437 388.314C242.083 376.752 247.033 379.29 258.062 369.42C270.93 357.858 280.262 344.322 296.948 331.351C298.786 329.94 300.766 328.812 302.746 327.825C336.965 308.79 345.308 346.438 369.347 321.763C392.254 298.074 403.567 274.387 429.444 268.183C434.817 266.913 439.766 267.055 444.574 269.311C466.067 279.462 483.46 299.625 497.459 324.159C499.863 328.39 502.691 333.324 505.236 338.823C521.639 374.638 532.244 405.094 556.283 413.412C576.928 420.462 586.685 406.645 601.391 388.173C611.855 374.919 618.783 359.409 632.075 346.86C632.924 346.015 633.914 345.31 634.621 344.604C655.407 324.3 662.336 294.408 680.577 265.926C686.092 257.466 692.596 251.826 699.525 248.02C724.695 234.483 728.371 227.715 750.572 253.659C772.489 279.462 770.51 284.82 798.366 299.062C819.153 309.777 828.344 284.256 844.747 309.918C874.866 357.013 886.602 376.894 899.753 403.965" stroke="#FFFFFF" stroke-opacity="1.000000" stroke-width="0.635000"/>
		<path id="Vector" d="M230.206 442.881C230.206 442.881 233.316 408.336 243.639 389.724C250.143 378.021 255.093 379.854 265.839 369.702C278.566 357.858 288.04 344.181 304.584 331.632C306.422 330.222 308.402 329.235 310.381 328.107C345.167 309.636 353.651 347.988 377.69 324.3C400.597 301.74 412.051 277.77 437.645 271.707C442.877 270.438 447.967 270.579 452.634 272.835C473.986 282.987 491.237 302.868 505.236 326.838C507.64 331.068 510.468 335.862 513.013 341.361C529.133 376.329 539.88 406.503 563.919 414.681C584.564 421.73 594.462 408.054 609.168 389.442C619.632 376.329 626.561 360.819 639.711 347.988C640.56 347.142 641.408 346.437 642.256 345.591C663.043 324.864 669.972 294.831 688.071 266.771C693.586 258.312 700.232 252.672 707.161 249.146C732.472 236.034 736.431 229.83 758.632 256.197C780.549 282.423 778.711 287.781 806.709 301.881C827.92 312.456 837.111 286.371 853.655 312.033C883.491 358.422 895.511 378.303 908.378 405.234" stroke="#FFFFFF" stroke-opacity="1.000000" stroke-width="0.635000"/>
		<path id="Vector" d="M238.973 443.022C238.973 443.022 241.942 408.9 251.982 389.865C258.345 378.021 263.153 379.008 273.758 368.856C286.343 356.73 295.817 342.912 312.361 330.786C314.199 329.376 316.32 328.39 318.3 327.402C353.51 309.637 362.135 348.553 386.315 325.852C409.223 304.278 420.818 280.309 445.988 274.245C451.22 272.977 456.169 273.117 460.835 275.373C482.046 285.525 499.297 304.983 513.155 328.53C515.559 332.619 518.387 337.413 520.932 342.771C536.911 377.034 547.657 406.927 571.837 414.963C592.482 421.872 602.381 408.478 617.228 389.865C627.55 376.752 634.621 361.242 647.63 348.271C648.478 347.424 649.327 346.72 650.175 345.873C670.82 324.582 677.89 294.549 695.849 266.913C701.363 258.453 708.009 252.954 715.221 249.43C740.815 236.88 744.916 231.1 766.975 257.748C788.892 284.256 787.054 289.896 815.193 303.714C836.828 314.289 845.878 287.499 862.564 313.303C892.117 358.986 904.561 378.867 917.004 405.798" stroke="#FFFFFF" stroke-opacity="1.000000" stroke-width="0.635000"/>
		<path id="Vector" d="M248.022 442.035C248.022 442.035 250.709 408.336 260.749 388.878C266.829 376.893 271.778 377.175 282.101 366.741C294.544 354.333 304.018 340.515 320.704 328.812C322.684 327.402 324.663 326.556 326.643 325.569C362.277 308.367 371.185 347.988 395.224 326.415C417.99 305.97 429.868 281.718 454.613 275.796C459.704 274.527 464.653 274.668 469.319 276.924C490.247 287.076 507.64 306.252 521.356 329.235C523.76 333.324 526.588 337.977 528.992 343.335C544.688 376.752 555.717 406.362 579.756 414.258C600.401 421.026 610.44 407.913 625.288 389.301C635.61 376.329 642.681 360.819 655.548 347.564C656.397 346.719 657.245 346.014 658.094 345.168C678.597 323.454 685.809 293.28 703.767 266.067C709.282 257.606 716.069 252.108 723.281 248.724C749.016 236.598 753.258 231.381 775.459 258.453C797.376 285.384 795.68 291.165 823.96 304.56C845.878 314.994 854.928 287.499 871.896 313.443C901.167 358.281 913.893 378.444 926.054 405.093" stroke="#FFFFFF" stroke-opacity="1.000000" stroke-width="0.635000"/>
		<path id="Vector" d="M257.355 439.497C257.355 439.497 259.9 406.221 269.657 386.34C275.596 374.214 280.404 373.791 290.585 363.216C302.746 350.525 312.361 336.566 329.047 325.287C331.026 324.018 333.006 323.03 334.986 322.185C371.185 305.547 380.094 345.873 404.274 325.287C427.04 305.829 439.059 281.577 463.38 275.514C468.471 274.245 473.279 274.386 477.804 276.642C498.59 286.794 515.841 305.688 529.416 328.106C531.82 332.055 534.507 336.708 537.052 341.925C552.606 374.496 563.636 403.823 587.816 411.72C608.319 418.347 618.642 405.516 633.348 386.903C643.529 373.932 650.741 358.562 663.467 345.026C664.315 344.181 665.164 343.335 666.012 342.488C686.516 320.211 693.727 290.037 711.544 263.247C717.2 254.787 723.988 249.429 731.199 246.045C757.218 234.342 761.601 229.688 783.66 257.184C805.578 284.538 804.022 290.46 832.303 303.572C854.645 313.866 863.695 285.807 880.805 311.892C909.792 356.024 922.943 376.188 934.68 402.695" stroke="#FFFFFF" stroke-opacity="1.000000" stroke-width="0.635000"/>
		<path id="Vector" d="M267.112 435.549C267.112 435.549 269.516 402.555 278.99 382.392C284.787 370.125 289.595 368.855 299.493 358.14C311.513 345.168 321.128 331.067 337.814 320.211C339.794 318.941 341.915 318.096 343.894 317.108C380.518 301.034 389.709 342.206 413.889 322.467C436.655 303.995 448.816 279.603 472.713 273.681C477.662 272.411 482.47 272.553 486.995 274.809C507.64 284.961 524.891 303.432 538.325 325.428C540.728 329.376 543.415 333.888 545.96 339.104C561.232 370.829 572.403 399.876 596.583 407.631C617.087 414.258 627.55 401.567 642.256 382.814C652.438 369.983 659.508 354.474 672.234 340.797C673.082 339.95 673.931 339.104 674.638 338.259C695 315.558 702.353 285.242 720.029 258.876C725.685 250.415 732.472 245.058 739.966 241.955C766.268 230.676 770.792 226.587 792.852 254.505C814.769 282.141 813.355 288.345 841.636 301.034C864.26 311.327 873.31 282.563 890.703 308.648C919.408 352.076 932.841 372.381 944.295 398.606" stroke="#FFFFFF" stroke-opacity="1.000000" stroke-width="0.635000"/>
		<path id="Vector" d="M278.424 429.485C278.424 429.485 280.687 396.914 289.878 376.328C295.534 363.921 300.2 361.946 309.957 350.948C321.835 337.694 331.451 323.453 348.136 313.02C350.116 311.751 352.237 310.904 354.217 310.059C391.406 294.549 400.597 336.426 424.919 317.813C447.543 300.471 459.987 275.937 483.46 270.015C488.409 268.745 493.075 268.887 497.6 271.143C518.104 281.295 535.214 299.483 548.647 320.915C551.051 324.723 553.738 329.234 556.283 334.451C571.413 365.472 582.584 394.095 606.905 401.85C627.409 408.336 638.014 395.786 652.72 377.175C662.76 364.484 669.972 348.975 682.557 335.016C683.405 334.17 684.253 333.323 684.96 332.478C705.181 309.213 712.676 278.897 730.21 252.953C735.866 244.493 742.795 239.276 750.289 236.175C776.732 225.459 781.398 221.793 803.598 249.992C825.516 278.052 824.243 284.256 852.665 296.805C875.714 306.956 884.623 277.629 902.157 303.854C930.579 346.437 944.437 366.882 955.325 393.107" stroke="#FFFFFF" stroke-opacity="1.000000" stroke-width="0.635000"/>
		<path id="Vector" d="M290.868 422.577C290.868 422.577 292.989 390.429 301.897 369.42C307.271 356.871 312.078 354.192 321.552 343.053C333.148 329.518 342.904 315.276 359.59 305.124C361.57 303.855 363.691 303.15 365.812 302.305C403.425 287.358 412.899 329.94 437.079 312.315C459.704 295.959 472.289 271.284 495.338 265.503C500.287 264.234 504.812 264.375 509.337 266.631C529.699 276.783 546.809 294.69 560.101 315.559C562.505 319.365 565.191 323.736 567.737 328.812C582.584 358.986 593.896 387.468 618.218 394.941C638.721 401.286 649.468 389.02 664.174 370.407C674.214 357.717 681.425 342.349 693.869 328.107C694.717 327.261 695.566 326.415 696.273 325.428C716.352 301.74 723.988 271.284 741.522 245.904C747.319 237.585 754.248 232.228 761.884 229.267C788.609 218.974 793.417 215.871 815.476 244.494C837.394 272.977 836.121 279.321 864.685 291.588C888.158 301.6 897.066 271.707 914.742 297.934C943.022 339.811 957.021 360.255 967.627 386.34" stroke="#FFFFFF" stroke-opacity="1.000000" stroke-width="0.635000"/>
		<path id="Vector" d="M303.594 415.104C303.594 415.104 305.574 383.379 314.341 361.946C319.573 349.257 324.239 345.731 333.572 334.451C345.025 320.634 354.782 306.252 371.468 296.664C373.448 295.535 375.71 294.689 377.69 293.984C415.869 279.743 425.343 322.89 449.664 306.252C472.147 290.883 485.015 266.208 507.781 260.427C512.589 259.157 517.255 259.299 521.497 261.555C541.718 271.707 558.828 289.19 571.979 309.636C574.383 313.302 577.069 317.673 579.614 322.749C594.32 352.076 605.633 380.276 630.096 387.75C650.599 393.953 661.487 381.969 676.193 363.356C686.091 350.808 693.445 335.298 705.747 320.916C706.595 320.069 707.302 319.083 708.151 318.236C728.23 293.984 735.866 263.528 753.258 238.571C759.056 230.253 765.985 225.035 773.762 222.216C800.629 212.346 805.719 209.808 827.778 238.854C849.696 267.759 848.565 274.244 877.27 286.089C901.025 295.959 909.934 265.503 927.892 291.869C955.89 333.042 970.313 353.628 980.494 379.431" stroke="#FFFFFF" stroke-opacity="1.000000" stroke-width="0.635000"/>
		<path id="Vector" d="M316.462 407.35C316.462 407.35 318.159 376.048 326.784 354.192C331.875 341.221 336.541 337.132 345.591 325.71C356.903 311.61 366.802 297.088 383.346 287.923C385.467 286.795 387.588 285.948 389.709 285.243C428.312 271.566 438.069 315.417 462.391 299.907C484.874 285.666 497.883 260.851 520.225 255.069C525.033 253.801 529.558 253.941 533.8 256.197C553.879 266.35 570.847 283.552 583.998 303.433C586.402 307.099 589.089 311.328 591.634 316.264C606.057 344.887 617.652 372.663 641.974 379.995C662.477 386.199 673.507 374.355 688.071 355.743C697.828 343.194 705.323 327.825 717.483 313.161C718.19 312.175 719.039 311.328 719.887 310.482C739.825 285.666 747.602 255.21 764.854 230.677C770.651 222.357 777.721 217.141 785.499 214.462C812.648 205.015 817.88 203.04 839.939 232.51C861.857 261.696 860.867 268.323 889.572 280.026C913.752 289.896 922.519 258.735 940.619 285.243C968.334 325.711 983.04 346.297 992.938 371.958" stroke="#FFFFFF" stroke-opacity="1.000000" stroke-width="0.635000"/>
		<path id="Vector" d="M329.471 399.312C329.471 399.312 331.026 368.433 339.369 346.296C344.318 333.183 348.843 328.389 357.752 316.686C368.781 302.304 378.821 287.78 395.507 278.897C397.628 277.77 399.749 277.064 401.87 276.359C440.897 263.247 450.796 307.803 475.258 293.279C497.6 280.025 511.034 255.068 532.81 249.429C537.476 248.16 542.001 248.301 546.243 250.557C566.181 260.85 583.15 277.629 596.159 296.945C598.563 300.471 601.249 304.701 603.795 309.636C618.076 337.413 629.671 365.049 654.134 372.239C674.496 378.303 685.809 366.74 700.373 347.987C710.13 335.58 717.625 320.211 729.644 305.265C730.351 304.277 731.199 303.432 731.906 302.444C751.703 277.206 759.622 246.608 776.731 222.498C782.67 214.179 789.599 209.103 797.659 206.424C824.95 197.399 830.324 195.989 852.383 225.74C874.3 255.351 873.452 262.119 902.157 273.54C926.761 283.269 935.387 251.402 953.769 278.052C981.201 317.673 996.332 338.541 1005.81 364.062" stroke="#FFFFFF" stroke-opacity="1.000000" stroke-width="0.635000"/>
		<path id="Vector" d="M342.48 391.134C342.48 391.134 343.894 360.537 351.954 338.118C356.621 324.864 361.287 319.224 369.912 307.521C380.801 292.716 390.84 278.193 407.526 269.733C409.647 268.605 411.909 267.9 413.889 267.336C453.482 254.928 463.522 300.048 487.985 286.512C510.327 274.245 523.901 249.288 545.253 243.507C549.92 242.238 554.303 242.379 558.545 244.635C578.342 254.928 595.31 271.284 608.178 290.178C610.582 293.703 613.269 297.792 615.814 302.586C629.813 329.518 641.549 356.871 666.012 364.062C686.374 369.984 697.828 358.704 712.393 339.951C722.008 327.543 729.644 312.174 741.522 297.087C742.229 296.101 743.077 295.254 743.784 294.268C763.44 268.464 771.499 237.867 788.609 214.179C794.548 205.86 801.619 200.784 809.679 198.246C837.252 189.646 842.767 188.799 864.826 218.973C886.744 249.006 886.037 255.915 914.883 266.913C939.77 276.501 948.396 244.071 967.061 270.861C994.211 309.777 1009.62 330.646 1018.81 356.025" stroke="#FFFFFF" stroke-opacity="1.000000" stroke-width="0.635000"/>
		<path id="Vector" d="M355.348 382.675C355.348 382.675 356.621 352.5 364.398 329.658C368.923 316.264 373.448 309.918 381.932 297.934C392.537 282.847 402.718 268.323 419.404 260.146C421.525 259.158 423.787 258.453 425.908 257.748C465.926 245.904 476.107 291.729 500.57 279.321C522.77 268.041 536.628 242.943 557.555 237.304C562.08 236.034 566.464 236.176 570.706 238.432C590.361 248.725 607.188 264.799 620.056 283.129C622.46 286.513 625.146 290.602 627.55 295.396C641.408 321.621 653.144 348.553 677.749 355.603C698.111 361.384 709.706 350.244 724.271 331.633C733.886 319.365 741.38 303.996 753.258 288.628C753.965 287.641 754.814 286.795 755.521 285.808C775.035 259.581 783.377 228.844 800.204 205.578C806.143 197.26 813.355 192.184 821.415 189.928C849.13 181.891 854.786 181.468 876.987 212.064C898.904 242.521 898.197 249.43 927.185 260.286C952.496 269.733 961.122 236.739 979.929 263.529C1006.8 301.74 1022.63 322.608 1031.4 347.848" stroke="#FFFFFF" stroke-opacity="1.000000" stroke-width="0.635000"/>
		<path id="Vector" d="M368.074 374.214C368.074 374.214 369.206 344.463 376.841 321.198C381.225 307.662 385.75 300.612 393.951 288.345C404.415 272.976 414.596 258.312 431.282 250.698C433.403 249.711 435.665 249.006 437.786 248.442C478.228 237.162 488.55 283.551 513.155 272.271C535.355 262.119 549.354 236.88 569.858 231.24C574.383 229.971 578.625 230.112 582.725 232.368C602.239 242.661 619.066 258.312 631.651 276.219C634.055 279.604 636.742 283.551 639.146 288.345C652.72 313.725 664.598 340.374 689.202 347.424C709.565 353.205 721.301 342.207 735.866 323.595C745.34 311.328 752.976 296.1 764.712 280.449C765.419 279.462 766.268 278.475 766.974 277.488C786.347 250.698 794.831 219.96 811.517 197.118C817.597 188.94 824.667 183.864 833.01 181.608C861.008 173.994 866.806 174.135 888.865 205.014C910.782 235.893 910.217 242.943 939.346 253.518C965.081 262.824 973.566 229.266 992.514 256.197C1019.1 293.703 1035.22 314.712 1043.7 339.669" stroke="#FFFFFF" stroke-opacity="1.000000" stroke-width="0.635000"/>
		<path id="Vector" d="M380.518 365.895C380.518 365.895 381.508 336.566 388.861 312.879C393.103 299.202 397.486 291.306 405.546 279.039C415.869 263.388 426.05 248.724 442.735 241.392C444.998 240.404 447.26 239.841 449.381 239.276C490.389 228.702 500.852 275.654 525.457 265.361C547.516 256.196 561.797 230.816 582.018 225.317C586.402 224.049 590.644 224.189 594.745 226.445C614.117 236.738 630.803 252.107 643.388 269.45C645.791 272.693 648.337 276.642 650.882 281.295C664.174 305.829 676.193 332.337 700.939 339.104C721.301 344.745 733.179 334.028 747.602 315.275C757.076 303.149 764.712 287.78 776.307 271.988C777.014 271.002 777.863 270.015 778.57 269.027C797.801 241.814 806.426 210.936 822.97 188.517C829.051 180.339 836.262 175.263 844.605 173.147C872.886 165.957 878.825 166.662 900.884 197.964C922.802 229.125 922.377 236.457 951.507 246.608C977.525 255.773 986.009 221.651 1005.24 248.583C1031.54 285.384 1048.09 306.393 1056.15 331.35" stroke="#FFFFFF" stroke-opacity="1.000000" stroke-width="0.635000"/>
		<path id="Vector" d="M392.679 357.717C392.679 357.717 393.527 328.671 400.597 304.701C404.698 290.883 408.94 282.282 416.859 269.733C426.898 253.8 437.221 238.995 453.906 232.086C456.169 231.099 458.431 230.535 460.552 230.112C501.984 220.102 512.589 267.759 537.335 258.594C559.394 250.416 573.817 225.036 593.613 219.537C597.997 218.269 602.239 218.409 606.198 220.524C625.429 230.817 642.115 245.904 654.558 262.683C656.962 265.785 659.508 269.733 662.053 274.386C675.203 298.215 687.223 324.3 711.968 331.068C732.331 336.567 744.35 326.133 758.773 307.38C768.106 295.254 775.883 280.026 787.337 263.952C788.044 262.965 788.751 261.979 789.458 260.991C808.547 233.214 817.314 202.335 833.859 180.339C839.939 172.161 847.292 167.227 855.635 165.111C884.057 158.343 890.137 159.612 912.338 191.337C934.255 222.921 933.831 230.253 963.243 240.264C989.686 249.288 998.028 214.603 1017.54 241.674C1043.56 277.771 1060.39 298.779 1068.16 323.595" stroke="#FFFFFF" stroke-opacity="1.000000" stroke-width="0.635000"/>
		<path id="Vector" d="M404.274 349.539C404.274 349.539 405.122 320.916 411.768 296.523C415.586 282.564 419.969 273.258 427.605 260.568C437.504 244.354 447.967 229.548 464.653 222.921C466.916 222.075 469.178 221.511 471.44 220.947C513.296 211.641 524.043 259.863 548.93 251.685C570.847 244.494 585.553 218.973 604.926 213.615C609.309 212.346 613.41 212.487 617.369 214.602C636.459 224.896 653.144 239.559 665.447 255.915C667.85 259.017 670.396 262.824 672.941 267.336C685.809 290.319 698.111 316.122 722.856 322.749C743.077 328.248 755.379 317.955 769.803 299.202C779.135 287.217 786.912 271.848 798.225 255.633C798.932 254.646 799.639 253.659 800.346 252.531C819.435 224.331 828.202 193.311 844.605 171.738C850.827 163.56 858.039 158.625 866.664 156.792C895.369 150.447 901.591 152.421 923.65 184.428C945.568 216.435 945.285 223.908 974.697 233.637C1001.42 242.521 1009.76 207.271 1029.42 234.342C1055.16 269.592 1072.41 290.883 1079.76 315.417" stroke="#FFFFFF" stroke-opacity="1.000000" stroke-width="0.635000"/>
		<path id="Vector" d="M415.445 341.784C415.445 341.784 416.152 313.584 422.515 288.768C426.191 274.526 430.433 264.516 437.928 251.685C447.543 235.188 458.148 220.383 474.834 214.179C477.097 213.333 479.5 212.769 481.622 212.346C524.043 203.604 534.931 252.39 559.677 245.34C581.453 239.136 596.441 213.614 615.39 208.257C619.632 206.987 623.732 207.129 627.55 209.244C646.498 219.537 663.043 233.919 675.345 249.711C677.749 252.672 680.294 256.479 682.839 260.99C695.424 283.269 707.868 308.648 732.613 315.275C752.834 320.634 765.278 310.623 779.701 291.87C788.892 279.885 796.811 264.656 807.982 248.16C808.689 247.173 809.396 246.045 810.103 245.058C829.051 216.294 837.959 185.273 854.221 164.124C860.443 155.945 867.796 151.011 876.421 149.318C905.409 143.396 911.772 145.935 933.831 178.224C955.749 210.513 955.607 218.127 985.019 227.573C1012.17 236.315 1020.37 200.502 1040.31 227.715C1065.76 262.26 1083.3 283.551 1090.37 307.943" stroke="#FFFFFF" stroke-opacity="1.000000" stroke-width="0.635000"/>
		<path id="Vector" d="M425.909 334.312C425.909 334.312 426.474 306.394 432.696 281.296C436.231 266.913 440.332 256.197 447.685 243.085C457.159 226.306 467.764 211.359 484.45 205.578C486.712 204.732 489.116 204.31 491.379 203.887C534.224 195.85 545.253 245.199 570.14 239.277C591.917 234.061 607.047 208.398 625.571 203.04C629.813 201.771 633.772 201.912 637.59 204.027C656.397 214.32 672.941 228.279 685.102 243.648C687.364 246.609 690.051 250.275 692.596 254.646C705.04 276.078 717.483 301.317 742.37 307.662C762.591 312.88 775.176 303.15 789.599 284.257C798.791 272.412 806.709 257.185 817.739 240.405C818.446 239.419 819.153 238.29 819.86 237.304C838.666 208.116 847.716 176.955 863.836 156.369C870.199 148.332 877.552 143.397 886.32 141.705C915.449 136.206 922.095 139.309 944.154 172.021C966.071 204.732 965.93 212.487 995.625 221.652C1023.2 230.254 1031.26 194.017 1051.48 221.089C1076.65 254.929 1094.61 276.36 1101.25 300.612" stroke="#FFFFFF" stroke-opacity="1.000000" stroke-width="0.635000"/>
		<path id="Vector" d="M435.665 327.402C435.665 327.402 436.09 299.907 442.029 274.386C445.422 259.863 449.523 248.442 456.593 235.188C465.784 218.127 476.531 203.182 493.217 197.683C495.621 196.836 497.883 196.413 500.146 196.131C543.415 188.658 554.586 238.713 579.615 233.778C601.249 229.548 616.662 203.886 634.762 198.528C638.863 197.4 642.822 197.4 646.64 199.516C665.305 209.949 681.849 223.485 693.869 238.29C696.131 241.11 698.818 244.776 701.363 249.147C713.524 269.733 726.109 294.69 750.996 301.035C771.217 306.111 783.943 296.523 798.225 277.771C807.275 265.926 815.335 250.839 826.223 233.778C826.93 232.65 827.637 231.663 828.344 230.535C846.868 200.784 856.201 169.623 872.179 149.46C878.542 141.423 885.895 136.488 894.804 134.938C924.216 129.861 930.862 133.527 952.921 166.662C974.838 199.797 974.838 207.552 1004.53 216.576C1032.39 224.896 1040.45 188.235 1060.81 215.448C1085.7 248.583 1103.94 270.016 1110.16 294.126" stroke="#FFFFFF" stroke-opacity="1.000000" stroke-width="0.635000"/>
		<path id="Vector" d="M444.574 320.916C444.574 320.916 444.857 293.844 450.513 267.899C453.765 253.235 457.724 240.969 464.653 227.573C473.703 210.23 484.45 195.284 501.135 190.067C503.539 189.362 505.802 188.939 508.064 188.517C551.758 181.749 563.212 232.227 588.24 228.42C609.875 225.177 625.429 199.374 643.246 194.156C647.347 193.028 651.165 193.028 654.983 195.144C673.507 205.577 689.909 218.69 701.929 233.072C704.191 235.893 706.878 239.418 709.423 243.789C721.301 263.67 734.027 288.204 759.056 294.407C779.277 299.483 792.144 290.037 806.426 271.283C815.335 259.581 823.536 244.353 834.283 227.292C834.99 226.164 835.697 225.177 836.262 224.049C854.645 193.875 864.26 162.714 880.098 142.833C886.461 134.796 893.955 130.002 902.864 128.592C932.558 123.938 939.346 128.169 961.405 161.586C983.322 195.144 983.322 203.04 1013.3 211.641C1041.58 219.818 1049.5 182.595 1070.14 209.808C1094.75 242.237 1113.41 263.67 1119.21 287.64" stroke="#FFFFFF" stroke-opacity="1.000000" stroke-width="0.635000"/>
		<path id="Vector" d="M452.775 314.994C452.775 314.994 452.917 288.204 458.29 261.979C461.401 247.173 465.219 234.201 472.006 220.665C480.773 203.04 491.661 187.953 508.347 183.159C510.751 182.454 513.155 182.031 515.417 181.749C559.677 175.545 571.13 226.729 596.3 224.049C617.793 221.793 633.631 195.99 651.023 190.773C654.983 189.646 658.801 189.646 662.619 191.76C680.86 202.194 697.404 215.025 709.282 228.843C711.544 231.522 714.09 235.047 716.635 239.277C728.23 258.312 741.098 282.564 766.126 288.769C786.347 293.703 799.356 284.538 813.638 265.785C822.546 254.223 830.748 238.995 841.353 221.652C842.06 220.524 842.767 219.537 843.333 218.409C861.574 187.671 871.331 156.51 887.026 137.052C893.531 129.015 901.025 124.221 910.075 122.952C939.911 118.722 946.982 123.516 969.041 157.356C990.958 191.196 991.1 199.233 1021.08 207.693C1049.78 215.73 1057.56 177.942 1078.49 205.296C1102.81 237.021 1121.76 258.594 1127.27 282.282" stroke="#FFFFFF" stroke-opacity="1.000000" stroke-width="0.635000"/>
		<path id="Vector" d="M459.845 309.776C459.845 309.776 459.845 283.41 464.936 256.761C467.764 241.674 471.723 228.138 478.228 214.32C486.712 196.413 497.742 181.326 514.569 176.955C516.972 176.25 519.376 175.968 521.639 175.686C566.322 170.187 578.059 221.793 603.087 220.242C624.581 218.973 640.56 193.029 657.528 187.953C661.487 186.825 665.305 186.825 668.84 188.939C686.94 199.374 703.484 211.923 715.221 225.177C717.483 227.855 720.028 231.24 722.574 235.47C734.027 253.8 747.037 277.77 772.065 283.691C792.144 288.485 805.436 279.603 819.718 260.709C828.485 249.146 836.687 233.919 847.292 216.435C847.999 215.307 848.565 214.179 849.272 213.051C867.371 181.89 877.27 150.588 892.824 131.553C899.328 123.657 906.823 118.722 916.014 117.594C946.133 113.787 953.345 119.145 975.262 153.408C997.18 187.671 997.321 195.849 1027.58 203.886C1056.57 211.782 1064.35 173.43 1085.56 200.784C1109.6 231.804 1128.97 253.377 1134.06 277.064" stroke="#FFFFFF" stroke-opacity="1.000000" stroke-width="0.635000"/>
		<path id="Vector" d="M465.784 305.406C465.784 305.406 465.643 279.462 470.592 252.39C473.279 237.162 477.097 222.921 483.46 208.962C491.803 190.773 502.832 175.686 519.659 171.597C522.063 171.033 524.467 170.61 526.871 170.328C571.979 165.534 583.857 217.704 609.026 217.14C630.52 216.717 646.64 190.773 663.184 185.838C667.002 184.71 670.82 184.71 674.355 186.825C692.313 197.259 708.858 209.385 720.311 222.216C722.574 224.754 725.119 228.279 727.664 232.227C738.835 249.711 751.986 273.399 777.014 279.321C797.094 283.974 810.527 275.373 824.667 256.479C833.434 245.058 841.636 229.83 852.1 212.064C852.807 210.936 853.372 209.808 854.079 208.68C872.038 176.955 882.077 145.653 897.49 127.041C904.136 119.145 911.631 114.351 920.822 113.223C951.224 109.839 958.435 115.761 980.494 150.447C1002.41 185.133 1002.69 193.311 1032.96 201.207C1062.37 208.821 1070 170.046 1091.35 197.541C1115.11 227.856 1134.77 249.57 1139.57 272.976" stroke="#FFFFFF" stroke-opacity="1.000000" stroke-width="0.635000"/>
		<path id="Vector" d="M470.733 301.739C470.733 301.739 470.451 276.078 475.117 248.724C477.662 233.354 481.339 218.268 487.561 204.168C495.621 185.696 506.792 170.609 523.619 166.803C526.164 166.238 528.568 165.957 530.83 165.675C576.362 161.444 588.523 214.179 613.693 214.884C635.045 215.447 651.448 189.504 667.568 184.428C671.386 183.3 675.062 183.3 678.597 185.415C696.414 195.989 712.817 207.692 724.271 219.96C726.533 222.498 729.078 225.882 731.624 229.83C742.512 246.608 755.804 270.015 780.974 275.654C801.053 280.308 814.486 271.848 828.768 252.954C837.394 241.532 845.737 226.445 856.059 208.397C856.766 207.27 857.332 206.142 858.039 205.014C875.856 172.865 886.037 141.423 901.45 123.233C908.096 115.338 915.731 110.544 925.064 109.697C955.749 106.736 963.102 113.223 985.161 148.19C1007.08 183.158 1007.36 191.478 1037.76 199.232C1067.46 206.706 1075.09 167.508 1096.73 194.861C1120.2 224.472 1140.14 246.186 1144.66 269.45" stroke="#FFFFFF" stroke-opacity="1.000000" stroke-width="0.635000"/>
		<path id="Vector" d="M474.268 299.061C474.268 299.061 473.986 273.822 478.228 246.186C480.632 230.676 484.308 214.884 490.247 200.502C498.166 181.749 509.195 166.662 526.164 163.137C528.709 162.573 531.113 162.291 533.517 162.15C579.473 158.625 591.917 211.782 617.086 213.615C638.438 215.166 654.983 189.081 670.678 184.146C674.355 183.018 678.031 183.018 681.567 185.133C699.242 195.708 715.645 206.988 726.957 218.832C729.22 221.229 731.765 224.613 734.31 228.42C744.916 244.353 758.349 267.477 783.519 273.117C803.598 277.629 817.173 269.31 831.455 250.557C840.08 239.277 848.423 224.049 858.604 205.86C859.311 204.731 859.877 203.604 860.443 202.335C878.118 169.623 888.44 138.321 903.712 120.414C910.358 112.518 917.994 107.865 927.468 107.019C958.294 104.48 965.93 111.531 987.847 146.922C1009.76 182.312 1010.19 190.772 1040.73 198.104C1070.85 205.437 1078.2 165.675 1100.26 193.17C1123.31 222.075 1143.82 243.789 1147.92 266.913" stroke="#FFFFFF" stroke-opacity="1.000000" stroke-width="0.635000"/>
		<path id="Vector" d="M476.531 297.228C476.531 297.228 476.107 272.411 480.066 244.353C482.329 228.561 485.864 212.204 491.661 197.682C499.438 178.646 510.609 163.419 527.578 160.316C530.123 159.894 532.527 159.611 534.931 159.471C581.453 156.51 593.896 210.371 619.207 213.191C640.559 215.729 657.245 189.645 672.658 184.71C676.335 183.581 679.87 183.581 683.263 185.696C700.797 196.271 717.2 207.27 728.371 218.55C730.634 220.946 733.038 224.189 735.724 227.996C746.047 243.225 759.622 265.926 784.933 271.425C805.012 275.796 818.728 267.759 833.01 248.864C841.494 237.585 849.979 222.497 860.018 204.026C860.584 202.898 861.291 201.63 861.857 200.502C879.391 167.366 889.996 135.924 904.985 118.439C911.772 110.685 919.408 105.891 928.882 105.186C959.991 103.07 967.768 110.685 989.686 146.498C1011.6 182.312 1012.03 190.772 1042.71 197.964C1073.11 205.014 1080.47 164.828 1102.67 192.323C1125.43 220.523 1146.22 242.379 1150.04 265.361" stroke="#FFFFFF" stroke-opacity="1.000000" stroke-width="0.635000"/>
		<path id="Vector" d="M477.38 296.664C477.38 296.664 474.41 167.366 527.436 158.766C580.463 150.023 593.189 209.808 619.773 214.038C646.216 218.268 666.012 176.955 683.405 187.529C700.798 198.104 717.059 208.68 728.23 219.537C739.401 230.394 752.693 264.233 784.65 271.002C816.466 277.91 833.01 253.94 859.594 203.604C886.178 153.267 897.208 106.596 928.599 104.903C959.991 103.212 967.768 111.39 989.827 147.485C1011.74 183.723 1012.31 192.323 1043.14 199.232C1073.96 206.142 1081.17 165.533 1103.66 193.028C1126.14 220.523 1147.35 242.379 1150.74 265.221" stroke="#FFFFFF" stroke-opacity="1.000000" stroke-width="0.635000"/>
	</g>
</svg>
