<svg width="600.000000" height="856.000000" viewBox="0 0 600 856" fill="none" xmlns="http://www.w3.org/2000/svg" xmlns:xlink="http://www.w3.org/1999/xlink">
	<desc>
			Created with Pixso.
	</desc>
	<defs>
		<clipPath id="clip1442_799">
			<rect id="Frame" width="600.000000" height="856.000000" fill="white" fill-opacity="0"/>
		</clipPath>
	</defs>
	<g clip-path="url(#clip1442_799)">
		<path id="Vector" d="M171.422 0L257.157 0L257.157 85.6244L171.422 85.6244L171.422 0Z" fill="#2A2E84" fill-opacity="1.000000" fill-rule="evenodd"/>
		<path id="Vector" d="M428.578 0C428.578 47.2713 390.224 85.6244 342.843 85.6244L428.578 85.6244L428.578 0Z" fill="#69D6B7" fill-opacity="1.000000" fill-rule="nonzero"/>
		<path id="Vector" d="M428.578 0L342.843 0L342.843 85.6244C390.176 85.6244 428.578 47.2713 428.578 0Z" fill="#E8195A" fill-opacity="1.000000" fill-rule="nonzero"/>
		<path id="Vector" d="M428.578 0L514.265 0L428.578 85.6244L428.578 0Z" fill="#2A2E84" fill-opacity="1.000000" fill-rule="nonzero"/>
		<path id="Vector" d="M514.265 0L514.265 85.6244L428.578 85.6244L514.265 0Z" fill="#F3F5FF" fill-opacity="1.000000" fill-rule="nonzero"/>
		<path id="Vector" d="M0 171.2C0 123.929 38.3539 85.5756 85.7352 85.5756L0 85.5756L0 171.2Z" fill="#E8195A" fill-opacity="1.000000" fill-rule="nonzero"/>
		<path id="Vector" d="M0 171.2L85.7352 171.2L85.7352 85.5756C38.3539 85.6244 0 123.929 0 171.2Z" fill="#2A2E84" fill-opacity="1.000000" fill-rule="nonzero"/>
		<path id="Vector" d="M257.108 128.412C257.108 152.043 237.926 171.2 214.265 171.2C190.603 171.2 171.422 152.043 171.422 128.412C171.422 104.781 190.603 85.6244 214.265 85.6244C237.926 85.6244 257.108 104.781 257.108 128.412Z" fill="#F3F5FF" fill-opacity="1.000000" fill-rule="evenodd"/>
		<path id="Vector" d="M257.153 171.225L257.153 85.6007L299.996 85.6007L299.996 171.225L257.153 171.225Z" fill="#E8195A" fill-opacity="1.000000" fill-rule="evenodd"/>
		<path id="Vector" d="M300.009 171.189L300.009 85.5649L342.852 85.5649L342.852 171.189L300.009 171.189Z" fill="#E8195A" fill-opacity="1.000000" fill-rule="evenodd"/>
		<path id="Vector" d="M171.422 813.212C171.422 836.843 152.24 856 128.578 856C104.917 856 85.7352 836.843 85.7352 813.212C85.7352 789.581 104.917 770.424 128.578 770.424C152.24 770.424 171.422 789.581 171.422 813.212Z" fill="#2A2E84" fill-opacity="1.000000" fill-rule="evenodd"/>
		<path id="Vector" d="M428.545 85.5893L428.545 171.214L385.702 171.214L385.702 85.5893L428.545 85.5893Z" fill="#2A2E84" fill-opacity="1.000000" fill-rule="evenodd"/>
		<path id="Vector" d="M385.689 85.6022L385.689 171.227L342.845 171.227L342.845 85.6022L385.689 85.6022Z" fill="#E8195A" fill-opacity="1.000000" fill-rule="evenodd"/>
		<path id="Vector" d="M428.578 171.2C428.578 123.929 466.932 85.5756 514.314 85.5756L428.578 85.5756L428.578 171.2Z" fill="#69D6B7" fill-opacity="1.000000" fill-rule="nonzero"/>
		<path id="Vector" d="M428.578 171.2L514.314 171.2L514.314 85.6244C466.932 85.6244 428.578 123.929 428.578 171.2Z" fill="#E8195A" fill-opacity="1.000000" fill-rule="nonzero"/>
		<path id="Vector" d="M514.265 85.6244L600 85.6244L600 171.249L514.265 171.249L514.265 85.6244Z" fill="#272727" fill-opacity="1.000000" fill-rule="evenodd"/>
		<path id="Vector" d="M428.578 256.824C428.578 304.096 390.224 342.449 342.843 342.449L428.578 342.449L428.578 256.824Z" fill="#69D6B7" fill-opacity="1.000000" fill-rule="nonzero"/>
		<path id="Vector" d="M428.578 256.824L342.843 256.824L342.843 342.449C390.176 342.4 428.578 304.096 428.578 256.824Z" fill="#2A2E84" fill-opacity="1.000000" fill-rule="nonzero"/>
		<path id="Vector" d="M342.829 513.604L257.094 513.604L257.094 470.816L342.829 470.816L342.829 513.604Z" fill="#2A2E84" fill-opacity="1.000000" fill-rule="evenodd"/>
		<path id="Vector" d="M342.829 470.791L257.094 470.791L257.094 428.003L342.829 428.003L342.829 470.791Z" fill="#F3F5FF" fill-opacity="1.000000" fill-rule="evenodd"/>
		<path id="Vector" d="M342.843 513.6L428.578 513.6L428.578 599.224L342.843 599.224L342.843 513.6Z" fill="#E8195A" fill-opacity="1.000000" fill-rule="evenodd"/>
		<path id="Vector" d="M85.7266 684.789L85.7266 599.164L171.462 599.164L171.462 684.789L85.7266 684.789Z" fill="#E8195A" fill-opacity="1.000000" fill-rule="evenodd"/>
		<path id="Vector" d="M85.7352 256.824C38.3539 256.824 0 218.471 0 171.2L0 256.824L85.7352 256.824Z" fill="#F3F5FF" fill-opacity="1.000000" fill-rule="nonzero"/>
		<path id="Vector" d="M85.7352 256.824L85.7352 171.2L0 171.2C0 218.471 38.3539 256.824 85.7352 256.824Z" fill="#2A2E84" fill-opacity="1.000000" fill-rule="nonzero"/>
		<path id="Vector" d="M171.422 256.824C124.089 256.824 85.6864 218.52 85.6864 171.2L85.6864 256.824L171.422 256.824Z" fill="#2A2E84" fill-opacity="1.000000" fill-rule="nonzero"/>
		<path id="Vector" d="M171.422 256.824L171.422 171.2L85.7352 171.2C85.7352 218.471 124.089 256.824 171.422 256.824Z" fill="#2A2E84" fill-opacity="1.000000" fill-rule="nonzero"/>
		<path id="Vector" d="M171.422 171.2L257.157 171.2L171.422 256.824L171.422 171.2Z" fill="#69D6B7" fill-opacity="1.000000" fill-rule="nonzero"/>
		<path id="Vector" d="M257.157 171.2L257.157 256.824L171.422 256.824L257.157 171.2Z" fill="#272727" fill-opacity="1.000000" fill-rule="nonzero"/>
		<path id="Vector" d="M257.127 256.827L257.127 171.202L299.97 171.202L299.97 256.827L257.127 256.827Z" fill="#272727" fill-opacity="1.000000" fill-rule="evenodd"/>
		<path id="Vector" d="M299.983 256.791L299.983 171.166L342.827 171.166L342.827 256.791L299.983 256.791Z" fill="#69D6B7" fill-opacity="1.000000" fill-rule="evenodd"/>
		<path id="Vector" d="M342.84 256.804L342.84 171.179L385.683 171.179L385.683 256.804L342.84 256.804Z" fill="#69D6B7" fill-opacity="1.000000" fill-rule="evenodd"/>
		<path id="Vector" d="M385.696 256.816L385.696 171.192L428.539 171.192L428.539 256.816L385.696 256.816Z" fill="#E8195A" fill-opacity="1.000000" fill-rule="evenodd"/>
		<path id="Vector" d="M428.578 256.824L428.578 171.2L514.265 256.824L428.578 256.824Z" fill="#E8195A" fill-opacity="1.000000" fill-rule="nonzero"/>
		<path id="Vector" d="M428.578 171.2L514.265 171.2L514.265 256.824L428.578 171.2Z" fill="#2A2E84" fill-opacity="1.000000" fill-rule="nonzero"/>
		<path id="Vector" d="M514.265 171.2L600 171.2L514.265 256.824L514.265 171.2Z" fill="#272727" fill-opacity="1.000000" fill-rule="nonzero"/>
		<path id="Vector" d="M600 171.2L600 256.824L514.265 256.824L600 171.2Z" fill="#E8195A" fill-opacity="1.000000" fill-rule="nonzero"/>
		<path id="Vector" d="M257.123 256.795L257.123 342.419L214.28 342.419L214.28 256.795L257.123 256.795Z" fill="#E8195A" fill-opacity="1.000000" fill-rule="evenodd"/>
		<path id="Vector" d="M214.267 256.808L214.267 342.432L171.424 342.432L171.424 256.808L214.267 256.808Z" fill="#272727" fill-opacity="1.000000" fill-rule="evenodd"/>
		<path id="Vector" d="M342.843 342.4L257.157 342.4L342.843 256.824L342.843 342.4Z" fill="#F3F5FF" fill-opacity="1.000000" fill-rule="nonzero"/>
		<path id="Vector" d="M257.157 342.4L257.157 256.824L342.843 256.824L257.157 342.4Z" fill="#F3F5FF" fill-opacity="1.000000" fill-rule="nonzero"/>
		<path id="Vector" d="M85.7352 342.4C38.3539 342.4 0 304.096 0 256.824L0 342.449L85.7352 342.449L85.7352 342.4Z" fill="#E8195A" fill-opacity="1.000000" fill-rule="nonzero"/>
		<path id="Vector" d="M85.7352 342.4L85.7352 256.824L0 256.824C0 304.096 38.3539 342.4 85.7352 342.4Z" fill="#F3F5FF" fill-opacity="1.000000" fill-rule="nonzero"/>
		<path id="Vector" d="M85.7323 342.383L85.7323 256.758L171.468 256.758L171.468 342.383L85.7323 342.383Z" fill="#2A2E84" fill-opacity="1.000000" fill-rule="evenodd"/>
		<path id="Vector" d="M514.265 256.824L514.265 342.4L428.578 256.824L514.265 256.824Z" fill="#2A2E84" fill-opacity="1.000000" fill-rule="nonzero"/>
		<path id="Vector" d="M514.265 342.4L428.578 342.4L428.578 256.824L514.265 342.4Z" fill="#272727" fill-opacity="1.000000" fill-rule="nonzero"/>
		<path id="Vector" d="M0 342.4C47.3325 342.4 85.7352 380.704 85.7352 428.024L85.7352 342.4L0 342.4Z" fill="#69D6B7" fill-opacity="1.000000" fill-rule="nonzero"/>
		<path id="Vector" d="M0 342.4L0 428.024L85.7352 428.024C85.7352 380.753 47.3325 342.4 0 342.4Z" fill="#69D6B7" fill-opacity="1.000000" fill-rule="nonzero"/>
		<path id="Vector" d="M600 342.4L514.265 342.4L600 256.824L600 342.4Z" fill="#2A2E84" fill-opacity="1.000000" fill-rule="nonzero"/>
		<path id="Vector" d="M514.265 342.4L514.265 256.824L600 256.824L514.265 342.4Z" fill="#69D6B7" fill-opacity="1.000000" fill-rule="nonzero"/>
		<path id="Vector" d="M171.422 385.188C171.422 408.819 152.24 427.976 128.578 427.976C104.917 427.976 85.7352 408.819 85.7352 385.188C85.7352 361.557 104.917 342.4 128.578 342.4C152.24 342.4 171.422 361.557 171.422 385.188Z" fill="#E8195A" fill-opacity="1.000000" fill-rule="evenodd"/>
		<path id="Vector" d="M599.998 342.391L599.998 428.015L557.155 428.015L557.155 342.391L599.998 342.391Z" fill="#69D6B7" fill-opacity="1.000000" fill-rule="evenodd"/>
		<path id="Vector" d="M557.142 342.404L557.142 428.028L514.298 428.028L514.298 342.404L557.142 342.404Z" fill="#E8195A" fill-opacity="1.000000" fill-rule="evenodd"/>
		<path id="Vector" d="M257.157 428.024C209.824 428.024 171.422 389.72 171.422 342.4L171.422 428.024L257.157 428.024Z" fill="#69D6B7" fill-opacity="1.000000" fill-rule="nonzero"/>
		<path id="Vector" d="M257.157 428.024L257.157 342.4L171.422 342.4C171.422 389.671 209.776 428.024 257.157 428.024Z" fill="#272727" fill-opacity="1.000000" fill-rule="nonzero"/>
		<path id="Vector" d="M342.829 428.026L257.094 428.026L257.094 385.238L342.829 385.238L342.829 428.026Z" fill="#2A2E84" fill-opacity="1.000000" fill-rule="evenodd"/>
		<path id="Vector" d="M342.829 385.212L257.094 385.212L257.094 342.424L342.829 342.424L342.829 385.212Z" fill="#E8195A" fill-opacity="1.000000" fill-rule="evenodd"/>
		<path id="Vector" d="M428.578 342.4C428.578 389.671 390.224 428.024 342.843 428.024L428.578 428.024L428.578 342.4Z" fill="#E8195A" fill-opacity="1.000000" fill-rule="nonzero"/>
		<path id="Vector" d="M428.578 342.4L342.843 342.4L342.843 428.024C390.176 428.024 428.578 389.671 428.578 342.4Z" fill="#E8195A" fill-opacity="1.000000" fill-rule="nonzero"/>
		<path id="Vector" d="M514.265 385.188C514.265 408.819 495.083 427.976 471.422 427.976C447.76 427.976 428.578 408.819 428.578 385.188C428.578 361.557 447.76 342.4 471.422 342.4C495.083 342.4 514.265 361.557 514.265 385.188Z" fill="#F3F5FF" fill-opacity="1.000000" fill-rule="evenodd"/>
		<path id="Vector" d="M85.6864 470.812C85.6864 494.443 66.5049 513.6 42.8432 513.6C19.1816 513.6 0 494.443 0 470.812C0 447.181 19.1816 428.024 42.8432 428.024C66.5049 428.024 85.6864 447.181 85.6864 470.812Z" fill="#69D6B7" fill-opacity="1.000000" fill-rule="evenodd"/>
		<path id="Vector" d="M85.7352 428.024L171.47 428.024L171.47 470.812L85.7352 470.812L85.7352 428.024Z" fill="#2A2E84" fill-opacity="1.000000" fill-rule="evenodd"/>
		<path id="Vector" d="M85.7352 470.812L171.47 470.812L171.47 513.6L85.7352 513.6L85.7352 470.812Z" fill="#2A2E84" fill-opacity="1.000000" fill-rule="evenodd"/>
		<path id="Vector" d="M171.442 513.612L171.442 427.987L257.177 427.987L257.177 513.612L171.442 513.612Z" fill="#2A2E84" fill-opacity="1.000000" fill-rule="evenodd"/>
		<path id="Vector" d="M342.843 428.024L428.578 428.024L428.578 513.649L342.843 513.649L342.843 428.024Z" fill="#272727" fill-opacity="1.000000" fill-rule="evenodd"/>
		<path id="Vector" d="M514.265 513.6C514.265 466.329 552.619 427.976 600 427.976L514.265 427.976L514.265 513.6Z" fill="#2A2E84" fill-opacity="1.000000" fill-rule="nonzero"/>
		<path id="Vector" d="M514.265 513.6L600 513.6L600 428.024C552.668 428.024 514.265 466.329 514.265 513.6Z" fill="#E8195A" fill-opacity="1.000000" fill-rule="nonzero"/>
		<path id="Vector" d="M514.256 513.604L428.521 513.604L428.521 470.816L514.256 470.816L514.256 513.604Z" fill="#E8195A" fill-opacity="1.000000" fill-rule="evenodd"/>
		<path id="Vector" d="M514.256 470.791L428.521 470.791L428.521 428.003L514.256 428.003L514.256 470.791Z" fill="#272727" fill-opacity="1.000000" fill-rule="evenodd"/>
		<path id="Vector" d="M0 599.224C0 551.953 38.3539 513.6 85.7352 513.6L0 513.6L0 599.224Z" fill="#2A2E84" fill-opacity="1.000000" fill-rule="nonzero"/>
		<path id="Vector" d="M0 599.224L85.7352 599.224L85.7352 513.6C38.3539 513.6 0 551.953 0 599.224Z" fill="#F3F5FF" fill-opacity="1.000000" fill-rule="nonzero"/>
		<path id="Vector" d="M171.402 599.219L85.6664 599.219L85.6664 513.594L171.402 513.594L171.402 599.219Z" fill="#E8195A" fill-opacity="1.000000" fill-rule="evenodd"/>
		<path id="Vector" d="M342.843 513.6C342.843 560.871 304.489 599.224 257.108 599.224L342.843 599.224L342.843 513.6Z" fill="#2A2E84" fill-opacity="1.000000" fill-rule="nonzero"/>
		<path id="Vector" d="M342.843 513.6L257.157 513.6L257.157 599.224C304.489 599.224 342.843 560.871 342.843 513.6Z" fill="#E8195A" fill-opacity="1.000000" fill-rule="nonzero"/>
		<path id="Vector" d="M257.157 513.6C257.157 560.871 218.803 599.224 171.422 599.224L257.157 599.224L257.157 513.6Z" fill="#F3F5FF" fill-opacity="1.000000" fill-rule="nonzero"/>
		<path id="Vector" d="M257.157 513.6L171.422 513.6L171.422 599.224C218.754 599.224 257.157 560.871 257.157 513.6Z" fill="#272727" fill-opacity="1.000000" fill-rule="nonzero"/>
		<path id="Vector" d="M514.265 599.224L428.578 599.224L514.265 513.6L514.265 599.224Z" fill="#2A2E84" fill-opacity="1.000000" fill-rule="nonzero"/>
		<path id="Vector" d="M428.578 599.224L428.578 513.6L514.265 513.6L428.578 599.224Z" fill="#2A2E84" fill-opacity="1.000000" fill-rule="nonzero"/>
		<path id="Vector" d="M514.265 513.6C561.597 513.6 600 551.904 600 599.224L600 513.6L514.265 513.6Z" fill="#E8195A" fill-opacity="1.000000" fill-rule="nonzero"/>
		<path id="Vector" d="M514.265 513.6L514.265 599.224L600 599.224C600 551.953 561.597 513.6 514.265 513.6Z" fill="#E8195A" fill-opacity="1.000000" fill-rule="nonzero"/>
		<path id="Vector" d="M0.00793457 684.805L0.00793457 599.181L42.8511 599.181L42.8511 684.805L0.00793457 684.805Z" fill="#E8195A" fill-opacity="1.000000" fill-rule="evenodd"/>
		<path id="Vector" d="M42.8641 684.818L42.8641 599.194L85.7073 599.194L85.7073 684.818L42.8641 684.818Z" fill="#F3F5FF" fill-opacity="1.000000" fill-rule="evenodd"/>
		<path id="Vector" d="M257.157 599.224L257.157 684.8L171.422 599.224L257.157 599.224Z" fill="#F3F5FF" fill-opacity="1.000000" fill-rule="nonzero"/>
		<path id="Vector" d="M257.157 684.8L171.422 684.8L171.422 599.224L257.157 684.8Z" fill="#E8195A" fill-opacity="1.000000" fill-rule="nonzero"/>
		<path id="Vector" d="M257.145 684.834L257.145 599.209L299.988 599.209L299.988 684.834L257.145 684.834Z" fill="#F3F5FF" fill-opacity="1.000000" fill-rule="evenodd"/>
		<path id="Vector" d="M300.001 684.798L300.001 599.173L342.844 599.173L342.844 684.798L300.001 684.798Z" fill="#F3F5FF" fill-opacity="1.000000" fill-rule="evenodd"/>
		<path id="Vector" d="M342.843 684.8L342.843 599.224L428.578 684.8L342.843 684.8Z" fill="#E8195A" fill-opacity="1.000000" fill-rule="nonzero"/>
		<path id="Vector" d="M342.843 599.224L428.578 599.224L428.578 684.8L342.843 599.224Z" fill="#69D6B7" fill-opacity="1.000000" fill-rule="nonzero"/>
		<path id="Vector" d="M257.157 770.424L171.422 770.424L257.157 684.8L257.157 770.424Z" fill="#69D6B7" fill-opacity="1.000000" fill-rule="nonzero"/>
		<path id="Vector" d="M171.422 770.424L171.422 684.8L257.157 684.8L171.422 770.424Z" fill="#69D6B7" fill-opacity="1.000000" fill-rule="nonzero"/>
		<path id="Vector" d="M514.265 684.8L428.578 684.8L514.265 599.224L514.265 684.8Z" fill="#2A2E84" fill-opacity="1.000000" fill-rule="nonzero"/>
		<path id="Vector" d="M428.578 684.8L428.578 599.224L514.265 599.224L428.578 684.8Z" fill="#272727" fill-opacity="1.000000" fill-rule="nonzero"/>
		<path id="Vector" d="M514.265 599.224L600 599.224L600 684.849L514.265 684.849L514.265 599.224Z" fill="#2A2E84" fill-opacity="1.000000" fill-rule="evenodd"/>
		<path id="Vector" d="M-0.0114746 770.413L-0.0114746 684.789L85.7238 684.789L85.7238 770.413L-0.0114746 770.413Z" fill="#69D6B7" fill-opacity="1.000000" fill-rule="evenodd"/>
		<path id="Vector" d="M171.422 684.8L171.422 770.424L85.7352 684.8L171.422 684.8Z" fill="#2A2E84" fill-opacity="1.000000" fill-rule="nonzero"/>
		<path id="Vector" d="M171.422 770.424L85.7352 770.424L85.7352 684.8L171.422 770.424Z" fill="#272727" fill-opacity="1.000000" fill-rule="nonzero"/>
		<path id="Vector" d="M342.843 727.588C342.843 751.219 323.662 770.376 300 770.376C276.338 770.376 257.157 751.219 257.157 727.588C257.157 703.957 276.338 684.8 300 684.8C323.662 684.8 342.843 703.957 342.843 727.588Z" fill="#69D6B7" fill-opacity="1.000000" fill-rule="evenodd"/>
		<path id="Vector" d="M342.831 770.412L342.831 684.788L385.674 684.788L385.674 770.412L342.831 770.412Z" fill="#2A2E84" fill-opacity="1.000000" fill-rule="evenodd"/>
		<path id="Vector" d="M385.687 770.425L385.687 684.801L428.53 684.801L428.53 770.425L385.687 770.425Z" fill="#2A2E84" fill-opacity="1.000000" fill-rule="evenodd"/>
		<path id="Vector" d="M428.55 770.396L428.55 684.771L514.285 684.771L514.285 770.396L428.55 770.396Z" fill="#F3F5FF" fill-opacity="1.000000" fill-rule="evenodd"/>
		<path id="Vector" d="M599.951 727.588C599.951 751.219 580.77 770.376 557.108 770.376C533.446 770.376 514.265 751.219 514.265 727.588C514.265 703.957 533.446 684.8 557.108 684.8C580.77 684.8 599.951 703.957 599.951 727.588Z" fill="#F3F5FF" fill-opacity="1.000000" fill-rule="evenodd"/>
		<path id="Vector" d="M85.7007 770.413L85.7007 856.037L-0.0344238 856.037L-0.0344238 770.413L85.7007 770.413Z" fill="#E8195A" fill-opacity="1.000000" fill-rule="evenodd"/>
		<path id="Vector" d="M171.43 856.011L171.43 770.386L214.273 770.386L214.273 856.011L171.43 856.011Z" fill="#F3F5FF" fill-opacity="1.000000" fill-rule="evenodd"/>
		<path id="Vector" d="M214.286 856.024L214.286 770.399L257.129 770.399L257.129 856.024L214.286 856.024Z" fill="#F3F5FF" fill-opacity="1.000000" fill-rule="evenodd"/>
		<path id="Vector" d="M342.843 813.212C342.843 836.843 323.662 856 300 856C276.338 856 257.157 836.843 257.157 813.212C257.157 789.581 276.338 770.424 300 770.424C323.662 770.424 342.843 789.581 342.843 813.212Z" fill="#69D6B7" fill-opacity="1.000000" fill-rule="evenodd"/>
		<path id="Vector" d="M342.843 770.424C390.176 770.424 428.578 808.729 428.578 856.049L428.578 770.424L342.843 770.424Z" fill="#E8195A" fill-opacity="1.000000" fill-rule="nonzero"/>
		<path id="Vector" d="M342.843 770.424L342.843 856.049L428.578 856.049C428.578 808.729 390.176 770.424 342.843 770.424Z" fill="#E8195A" fill-opacity="1.000000" fill-rule="nonzero"/>
		<path id="Vector" d="M514.265 813.212C514.265 836.843 495.083 856 471.422 856C447.76 856 428.578 836.843 428.578 813.212C428.578 789.581 447.76 770.424 471.422 770.424C495.083 770.424 514.265 789.581 514.265 813.212Z" fill="#272727" fill-opacity="1.000000" fill-rule="evenodd"/>
		<path id="Vector" d="M599.951 813.212C599.951 836.843 580.77 856 557.108 856C533.446 856 514.265 836.843 514.265 813.212C514.265 789.581 533.446 770.424 557.108 770.424C580.77 770.424 599.951 789.581 599.951 813.212Z" fill="#69D6B7" fill-opacity="1.000000" fill-rule="evenodd"/>
		<path id="Vector" d="M514.265 0L600 0L514.265 85.6244L514.265 0Z" fill="#F3F5FF" fill-opacity="1.000000" fill-rule="nonzero"/>
		<path id="Vector" d="M600 0L600 85.6244L514.265 85.6244L600 0Z" fill="#F3F5FF" fill-opacity="1.000000" fill-rule="nonzero"/>
		<path id="Vector" d="M342.843 0L342.843 85.6244L257.157 0L342.843 0Z" fill="#272727" fill-opacity="1.000000" fill-rule="nonzero"/>
		<path id="Vector" d="M342.843 85.6244L257.157 85.6244L257.157 0L342.843 85.6244Z" fill="#69D6B7" fill-opacity="1.000000" fill-rule="nonzero"/>
		<path id="Vector" d="M171.422 85.6244L85.7352 85.6244L171.422 0L171.422 85.6244Z" fill="#E8195A" fill-opacity="1.000000" fill-rule="nonzero"/>
		<path id="Vector" d="M85.7352 85.6244L85.7352 0L171.422 0L85.7352 85.6244Z" fill="#2A2E84" fill-opacity="1.000000" fill-rule="nonzero"/>
		<path id="Vector" d="M85.7352 0L85.7352 85.6244L0 0L85.7352 0Z" fill="#69D6B7" fill-opacity="1.000000" fill-rule="nonzero"/>
		<path id="Vector" d="M85.7352 85.6244L0 85.6244L0 0L85.7352 85.6244Z" fill="#E8195A" fill-opacity="1.000000" fill-rule="nonzero"/>
		<path id="Vector" d="M171.422 85.6244C171.422 132.896 133.068 171.249 85.6864 171.249L171.422 171.249L171.422 85.6244Z" fill="#69D6B7" fill-opacity="1.000000" fill-rule="nonzero"/>
		<path id="Vector" d="M171.422 85.6244L85.7352 85.6244L85.7352 171.249C133.068 171.2 171.422 132.896 171.422 85.6244Z" fill="#2A2E84" fill-opacity="1.000000" fill-rule="nonzero"/>
	</g>
</svg>
