<svg width="105.000000" height="40.000000" viewBox="0 0 105 40" fill="none" xmlns="http://www.w3.org/2000/svg" xmlns:xlink="http://www.w3.org/1999/xlink">
	<desc>
			Created with Pixso.
	</desc>
	<defs/>
	<path id="Vector" d="M33.4722 5.74902C33.6514 6.36035 34.5005 6.75293 35.0815 6.88379C37.9873 7.625 41.3853 8.89062 41.6982 12.2061C41.9663 15.042 40.8037 17.0488 38.1665 18.1836C35.7075 19.2734 31.9526 19.2305 29.5386 17.5723C27.3477 16.0889 29.1362 13.5586 31.4604 14.2129C32.8911 14.6055 36.9595 16.0459 37.1826 13.3408C37.2275 12.4678 36.8701 11.9004 36.0654 11.5518C32.6675 10.1553 27.9736 9.71973 28.9126 4.57129C29.7173 0.208984 35.0815 -0.708008 38.6133 0.470703C39.7759 0.863281 40.938 1.86621 40.5356 3.1748C39.9097 5.22559 37.3169 4.26562 35.8418 3.83008C35.6182 3.78613 35.2158 3.78613 34.6792 3.91699C33.562 4.22266 33.1597 4.78906 33.4722 5.74902Z" fill="#FFFFFF" fill-opacity="1.000000" fill-rule="nonzero"/>
	<path id="Vector" d="M4.37012 10.8975L4.37012 14.8672C4.37012 14.9551 4.41455 14.998 4.50391 14.998L7.18652 14.998C8.34863 14.998 9.33203 14.1689 9.33203 13.1221L9.33203 12.6426C9.33203 11.5957 8.39355 10.7666 7.23096 10.7666L4.54883 10.7666C4.41455 10.7666 4.37012 10.8096 4.37012 10.8975ZM4.37012 4.00391L4.3252 7.27637C4.3252 7.31934 4.37012 7.36328 4.41455 7.36328L6.60547 7.40723C7.67822 7.40723 8.57227 6.66504 8.57227 5.74902L8.57227 5.61816C8.57227 4.70215 7.72266 3.95996 6.6499 3.91699L4.45947 3.87305C4.41455 3.87305 4.37012 3.95996 4.37012 4.00391ZM11.0757 9.06445C13.5347 9.71973 14.1157 11.6826 13.8472 13.9951C13.4897 16.9619 11.0757 18.5322 8.21484 18.6631C6.1582 18.75 4.14648 18.75 2.13477 18.6631C0.749023 18.6191 0.0336914 17.9209 0.0336914 16.5254C0.0336914 11.8574 0.0336914 7.14551 0.0336914 2.43359C0.0336914 0.732422 1.28564 0.208008 2.8501 0.208008C5.48779 0.208008 8.08057 -0.0966797 10.6289 1.08105C13.7578 2.56445 13.8472 7.10156 11.0312 8.84668C10.9863 8.93359 10.9863 9.06445 11.0757 9.06445Z" fill="#FFFFFF" fill-opacity="1.000000" fill-rule="nonzero"/>
	<path id="Vector" d="M20.8213 11.3779C20.7319 11.3779 20.687 11.4209 20.687 11.5088L20.687 14.6494C20.687 14.6934 20.7319 14.7803 20.8213 14.7803C22.1621 14.7803 23.5034 14.7803 24.8447 14.7803C28.0635 14.7803 28.1973 18.5322 25.0684 18.6631C22.8774 18.751 20.687 18.751 18.4966 18.707C16.9766 18.6631 16.2612 17.8779 16.2168 16.3516C16.1719 11.29 16.1719 6.79688 16.2168 2.82617C16.2168 1.16895 17.0659 0.339844 18.7202 0.339844C21.0449 0.339844 23.1904 0.339844 25.0684 0.383789C27.9741 0.470703 27.8398 4.30957 24.6211 4.2666C23.2798 4.2666 22.0283 4.22266 20.7764 4.2666C20.7319 4.2666 20.687 4.30957 20.687 4.39746L20.687 7.32031C20.687 7.40723 20.7319 7.45117 20.8213 7.45117C22.252 7.40723 24.04 7.32031 25.4258 7.71289C26.6777 8.10547 27.1694 9.58887 26.3647 10.5488C25.3364 11.7266 22.252 11.4209 20.8213 11.3779Z" fill="#FFFFFF" fill-opacity="1.000000" fill-rule="nonzero"/>
	<path id="Vector" d="M50.6841 4.44043C50.6841 8.71582 50.6396 12.8164 50.5947 16.7432C50.5947 18.0957 49.8794 18.7939 48.5381 18.8379C48.5381 18.8379 48.4937 18.8379 48.4487 18.8379C47.063 18.9248 46.3477 18.1396 46.3477 16.5693C46.3032 12.5117 46.3032 8.49805 46.3477 4.44043C46.3477 4.26562 46.2583 4.17871 46.0796 4.17871C44.8276 4.22266 42.2798 4.48438 41.7432 2.91309C41.2964 1.47363 42.3242 0.339844 43.7998 0.339844C46.8394 0.295898 49.8794 0.295898 53.0088 0.339844C54.4395 0.382812 55.1548 0.950195 55.2441 2.12793C55.3779 4.44043 52.7407 4.39648 51.0415 4.22266C50.7734 4.13477 50.6841 4.22266 50.6841 4.44043Z" fill="#FFFFFF" fill-opacity="1.000000" fill-rule="nonzero"/>
	<path id="Vector" d="M100.574 3.00098C100.574 4.39648 99.4121 5.53125 97.9814 5.53125L84.3911 5.4873C82.9604 5.4873 81.7983 4.35254 81.7983 2.95703L81.7983 2.78223C81.7983 1.38672 82.9604 0.251953 84.3911 0.251953L97.9814 0.295898C99.4121 0.295898 100.574 1.42969 100.574 2.82617L100.574 3.00098Z" fill="#FFFFFF" fill-opacity="1.000000" fill-rule="nonzero"/>
	<path id="Vector" d="M78.8926 3.39355C78.8926 4.79004 77.7305 5.88086 76.3442 5.88086L62.7544 5.88086C61.3237 5.88086 60.2061 4.74609 60.2061 3.39355L60.2061 3.21875C60.2061 1.82324 61.3682 0.732422 62.7544 0.732422L76.3442 0.732422C77.7749 0.732422 78.8926 1.86719 78.8926 3.21875L78.8926 3.39355Z" fill="#E8195A" fill-opacity="1.000000" fill-rule="nonzero"/>
	<path id="Vector" d="M89.4429 13.5586C89.4429 14.9551 88.2808 16.0889 86.8501 16.0889L73.3491 16.0459C71.9185 16.0459 70.7563 14.9111 70.8013 13.5146L70.8013 13.3408C70.8013 11.9443 71.9634 10.8105 73.394 10.8535L86.8945 10.8975C88.3252 10.8975 89.4878 12.0312 89.4429 13.4277L89.4429 13.5586Z" fill="#69D6B7" fill-opacity="1.000000" fill-rule="nonzero"/>
	<path id="Vector" d="M65.3022 13.6016C65.3022 14.9756 64.1616 16.0889 62.7544 16.0889C61.3467 16.0889 60.2061 14.9756 60.2061 13.6016C60.2061 12.2285 61.3467 11.1152 62.7544 11.1152C64.1616 11.1152 65.3022 12.2285 65.3022 13.6016Z" fill="#69D6B7" fill-opacity="1.000000" fill-rule="evenodd"/>
	<path id="Vector" d="M100.172 13.6016C100.172 14.9756 99.0312 16.0889 97.624 16.0889C96.2163 16.0889 95.0757 14.9756 95.0757 13.6016C95.0757 12.2285 96.2163 11.1152 97.624 11.1152C99.0312 11.1152 100.172 12.2285 100.172 13.6016Z" fill="#69D6B7" fill-opacity="1.000000" fill-rule="evenodd"/>
	<path id="Vector" d="M4.05713 31.7949C4.01221 31.8828 4.05713 32.0137 4.19092 32.0137L8.03564 32.0137C8.125 32.0137 8.16992 31.9697 8.16992 31.8828L8.21436 25.7744C8.21436 25.6436 8.03564 25.6006 7.94629 25.6875L4.05713 31.7949ZM7.94629 35.6348C6.47119 35.5908 4.77246 35.6348 2.93945 35.6348C-0.905273 35.7217 -0.324219 32.2754 1.01709 30.1807C2.44775 27.9561 4.01221 25.5566 5.62158 23.0264C6.69434 21.3682 8.52734 20.4961 10.4053 21.4121C11.8804 22.1104 12.2378 23.8115 12.1934 25.2949C12.1484 27.5635 12.1484 29.7451 12.1934 31.752C12.1934 31.9258 12.2827 32.0137 12.417 32.0137C15.0098 32.0566 14.9648 35.5039 12.4614 35.6348C12.2827 35.6348 12.1484 35.7656 12.1484 35.9404L12.1484 38.165C12.1484 39.3428 11.5674 39.9541 10.3154 39.9971L9.91309 39.9971C8.97461 40.041 8.43799 39.6045 8.25928 38.6885C8.08057 37.7725 8.03564 36.8564 8.125 35.9404C8.21436 35.7656 8.08057 35.6348 7.94629 35.6348Z" fill="#69D6B7" fill-opacity="1.000000" fill-rule="nonzero"/>
	<path id="Vector" d="M30.6562 31.4023C30.6118 31.4893 30.7012 31.5771 30.7905 31.5771L33.9199 31.5771C34.0093 31.5771 34.0986 31.4893 34.0542 31.4023L32.5342 26.0801C32.4893 25.9492 32.3105 25.9492 32.2656 26.0801L30.6562 31.4023ZM34.9033 35.2852L29.7178 35.2852C29.5391 35.2852 29.4048 35.3721 29.3599 35.5469C29.1367 36.4629 28.8682 37.292 28.5552 38.1211C27.8848 39.7354 25.6494 39.6045 25.2026 37.9463C25.0684 37.3789 25.0684 36.8125 25.2471 36.2451C26.5435 32.3623 28.0635 27.9121 29.8521 22.9824C30.5225 21.1494 32.668 20.3643 34.2773 21.6738C34.7695 22.0664 35.1719 22.8076 35.4844 23.8115C36.8257 27.9121 38.167 32.1875 39.5977 36.6377C39.9102 37.6406 39.5972 38.8193 38.4351 39.124C36.0659 39.7793 35.6636 37.1611 35.2612 35.5908C35.2612 35.3721 35.127 35.2852 34.9033 35.2852Z" fill="#FFFFFF" fill-opacity="1.000000" fill-rule="nonzero"/>
	<path id="Vector" d="M51.6675 31.6641C51.6675 28.8711 51.6675 26.0361 51.6675 23.2002C51.7119 20.3203 55.4224 20.3643 55.4224 23.2002C55.4673 27.3008 55.4673 31.9688 55.4673 37.2041C55.4673 39.6914 53.1875 40.2148 51.8013 38.2949C49.4771 35.0234 47.2417 31.8818 45.1406 28.8711C44.917 28.5664 44.8276 28.6094 44.8276 28.959C44.8721 31.1836 44.8721 34.0635 44.7383 37.5537C44.6489 39.9092 41.0723 39.9092 41.0278 37.1611C40.9829 31.6201 40.9829 26.9521 41.0278 23.1123C41.0723 21.6729 41.7432 21.0186 43.1733 21.1494C43.7993 21.1934 44.3804 21.8477 44.7383 22.3271C46.8394 25.2939 49.0298 28.4355 51.3545 31.751C51.5781 31.9688 51.6675 31.9258 51.6675 31.6641Z" fill="#FFFFFF" fill-opacity="1.000000" fill-rule="nonzero"/>
	<path id="Vector" d="M20.2397 25.1201C20.1504 25.1201 20.106 25.1641 20.106 25.251L20.106 28.0869C20.106 28.1738 20.1504 28.2178 20.2397 28.2178C21.4468 28.1738 22.5645 28.1738 23.5928 28.2617C25.9175 28.4355 26.0518 31.5332 23.8608 31.8828C22.833 32.0566 21.7153 32.1006 20.4634 31.9697C20.2397 31.9697 20.106 32.0566 20.106 32.2754C20.1504 33.7148 20.1504 35.2852 20.106 37.0742C20.061 38.4707 19.48 39.168 18.1836 39.2119C16.9766 39.2119 16.3955 38.5576 16.3955 37.2051C16.3506 32.2754 16.3506 27.6943 16.3955 23.4189C16.3955 22.0664 17.0659 21.3682 18.4072 21.3252C20.1953 21.2812 21.9834 21.2812 23.8164 21.3252C26.6772 21.4121 26.6328 24.9893 23.6377 25.0771C22.4751 25.1641 21.3574 25.1641 20.2397 25.1201Z" fill="#FFFFFF" fill-opacity="1.000000" fill-rule="nonzero"/>
	<path id="Vector" d="M70.6665 24.6406C70.6665 25.8623 69.6387 26.9092 68.3867 26.9092L62.4858 26.9092C61.2339 26.9092 60.1611 25.9053 60.1611 24.6846L60.1611 24.0732C60.1611 22.8516 61.1895 21.8047 62.4409 21.8047L68.3423 21.8047C69.5938 21.8047 70.6665 22.8086 70.6665 24.0293L70.6665 24.6406Z" fill="#FFFFFF" fill-opacity="1.000000" fill-rule="nonzero"/>
	<path id="Vector" d="M96.104 24.4219C96.104 25.8184 94.9419 26.9092 93.5557 26.9092L77.1494 26.9092C75.7188 26.9092 74.6011 25.7744 74.6011 24.4219L74.6011 24.291C74.6011 22.8955 75.7632 21.8047 77.1494 21.8047L93.5557 21.8047C94.9863 21.8047 96.104 22.9395 96.104 24.291L96.104 24.4219Z" fill="#E8195A" fill-opacity="1.000000" fill-rule="nonzero"/>
	<path id="Vector" d="M105 35.3291C105 36.6816 103.838 37.8164 102.452 37.8164L80.1445 37.8164C78.7583 37.8164 77.5962 36.7256 77.5962 35.3291L77.5962 35.1543C77.5962 33.8027 78.7583 32.668 80.1445 32.668L102.452 32.668C103.838 32.668 105 33.8027 105 35.1543L105 35.3291Z" fill="#FFFFFF" fill-opacity="1.000000" fill-rule="nonzero"/>
	<path id="Vector" d="M70.667 35.6348C70.667 36.8994 69.6387 37.9033 68.3423 37.9033L62.4414 37.9033C61.145 37.9033 60.1167 36.8994 60.1167 35.6348L60.1167 35.0234C60.1167 33.7588 61.145 32.7549 62.4414 32.7549L68.3423 32.7549C69.6387 32.7549 70.667 33.7588 70.667 35.0234L70.667 35.6348Z" fill="#E8195A" fill-opacity="1.000000" fill-rule="nonzero"/>
</svg>
