<svg width="104.000000" height="40.000000" viewBox="0 0 104 40" fill="none" xmlns="http://www.w3.org/2000/svg" xmlns:xlink="http://www.w3.org/1999/xlink">
	<desc>
			Created with Pixso.
	</desc>
	<defs/>
	<path id="Vector" d="M33.1537 5.74929C33.3309 6.36008 34.1722 6.75273 34.7478 6.88361C37.6259 7.62528 40.9911 8.89048 41.3011 12.2062C41.5668 15.042 40.4155 17.0489 37.803 18.1832C35.3677 19.2739 31.6483 19.2302 29.2573 17.5724C27.0876 16.0891 28.8587 13.5586 31.1613 14.2131C32.5781 14.6057 36.6075 16.0454 36.8289 13.3405C36.8732 12.468 36.519 11.9008 35.7219 11.5518C32.3568 10.1557 27.7075 9.71941 28.6373 4.57134C29.4343 0.208575 34.7478 -0.707606 38.2458 0.470342C39.3971 0.86299 40.5483 1.86643 40.1498 3.17526C39.5299 5.22576 36.9617 4.26595 35.5005 3.82967C35.2792 3.78605 34.8807 3.78605 34.3493 3.91693C33.2423 4.22232 32.8438 4.78948 33.1537 5.74929Z" fill="#2A2E84" fill-opacity="1.000000" fill-rule="nonzero"/>
	<path id="Vector" d="M4.32837 10.8974L4.32837 14.8675C4.32837 14.9547 4.37268 14.9984 4.46118 14.9984L7.11792 14.9984C8.26917 14.9984 9.24335 14.1694 9.24335 13.1224L9.24335 12.6425C9.24335 11.5954 8.31348 10.7665 7.16223 10.7665L4.50549 10.7665C4.37268 10.7665 4.32837 10.8101 4.32837 10.8974ZM4.32837 4.00418L4.28412 7.27626C4.28412 7.31989 4.32837 7.36352 4.37268 7.36352L6.5423 7.40714C7.60498 7.40714 8.4906 6.66547 8.4906 5.74929L8.4906 5.61841C8.4906 4.70223 7.64929 3.96056 6.58661 3.91693L4.41693 3.8733C4.37268 3.8733 4.32837 3.96056 4.32837 4.00418ZM10.9702 9.065C13.4055 9.71941 13.9811 11.6827 13.7155 13.9949C13.3613 16.9616 10.9702 18.5322 8.13635 18.6631C6.09955 18.7503 4.10699 18.7503 2.11444 18.6631C0.74176 18.6195 0.0333252 17.9214 0.0333252 16.5253C0.0333252 11.8572 0.0333252 7.14538 0.0333252 2.43359C0.0333252 0.732108 1.27313 0.208576 2.82288 0.208576C5.43536 0.208576 8.00354 -0.0968175 10.5274 1.08113C13.627 2.56447 13.7155 7.10175 10.9259 8.84686C10.8817 8.93411 10.8817 9.065 10.9702 9.065Z" fill="#2A2E84" fill-opacity="1.000000" fill-rule="nonzero"/>
	<path id="Vector" d="M20.623 11.3773C20.5344 11.3773 20.4902 11.4209 20.4902 11.5081L20.4902 14.6493C20.4902 14.693 20.5344 14.7802 20.623 14.7802C21.9514 14.7802 23.2797 14.7802 24.6081 14.7802C27.7961 14.7802 27.929 18.5322 24.8295 18.6631C22.6598 18.7503 20.4902 18.7503 18.3205 18.7067C16.815 18.6631 16.1066 17.8778 16.0623 16.3508C16.018 11.29 16.018 6.79636 16.0623 2.82624C16.0623 1.16839 16.9036 0.339459 18.5419 0.339459C20.8444 0.339459 22.9698 0.339459 24.8295 0.383087C27.7076 0.470343 27.5748 4.30958 24.3867 4.26595C23.0583 4.26595 21.8185 4.22232 20.5787 4.26595C20.5344 4.26595 20.4902 4.30958 20.4902 4.39683L20.4902 7.31989C20.4902 7.40714 20.5344 7.45077 20.623 7.45077C22.0399 7.40714 23.811 7.31989 25.1837 7.71254C26.4235 8.10519 26.9106 9.58853 26.1135 10.5483C25.0952 11.7263 22.0399 11.4209 20.623 11.3773Z" fill="#2A2E84" fill-opacity="1.000000" fill-rule="nonzero"/>
	<path id="Vector" d="M50.2012 4.44046C50.2012 8.71597 50.1569 12.817 50.1126 16.7435C50.1126 18.0959 49.4042 18.794 48.0758 18.8376C48.0758 18.8376 48.0315 18.8376 47.9872 18.8376C46.6146 18.9249 45.9061 18.1396 45.9061 16.569C45.8618 12.5116 45.8618 8.49784 45.9061 4.44046C45.9061 4.26595 45.8176 4.1787 45.6404 4.1787C44.4006 4.22232 41.8768 4.48409 41.3454 2.91349C40.9026 1.47378 41.921 0.339458 43.3822 0.339458C46.3932 0.295831 49.4042 0.295831 52.5037 0.339458C53.9206 0.383086 54.629 0.950246 54.7176 2.12819C54.8505 4.44046 52.238 4.39683 50.5554 4.22232C50.2897 4.13507 50.2012 4.22232 50.2012 4.44046Z" fill="#2A2E84" fill-opacity="1.000000" fill-rule="nonzero"/>
	<path id="Vector" d="M99.6163 3.00075C99.6163 4.39683 98.4651 5.53115 97.0482 5.53115L83.5874 5.48753C82.1705 5.48753 81.0192 4.35321 81.0192 2.95712L81.0192 2.78261C81.0192 1.38652 82.1705 0.252204 83.5874 0.252204L97.0482 0.295832C98.4651 0.295832 99.6163 1.43015 99.6163 2.82624L99.6163 3.00075Z" fill="#2A2E84" fill-opacity="1.000000" fill-rule="nonzero"/>
	<path id="Vector" d="M78.1411 3.3934C78.1411 4.78948 76.9899 5.88017 75.6172 5.88017L62.1565 5.88017C60.7396 5.88017 59.6326 4.74585 59.6326 3.3934L59.6326 3.21889C59.6326 1.8228 60.7838 0.732107 62.1565 0.732107L75.6172 0.732107C77.0342 0.732107 78.1411 1.86643 78.1411 3.21889L78.1411 3.3934Z" fill="#E8195A" fill-opacity="1.000000" fill-rule="nonzero"/>
	<path id="Vector" d="M88.5909 13.5586C88.5909 14.9547 87.4397 16.0891 86.0228 16.0891L72.6506 16.0454C71.2336 16.0454 70.0824 14.9111 70.1266 13.515L70.1266 13.3405C70.1266 11.9444 71.2779 10.8101 72.6948 10.8537L86.067 10.8974C87.4839 10.8974 88.6352 12.0317 88.5909 13.4278L88.5909 13.5586Z" fill="#69D6B7" fill-opacity="1.000000" fill-rule="nonzero"/>
	<path id="Vector" d="M64.6804 13.6023C64.6804 14.9757 63.5504 16.0891 62.1565 16.0891C60.7626 16.0891 59.6326 14.9757 59.6326 13.6023C59.6326 12.2289 60.7626 11.1155 62.1565 11.1155C63.5504 11.1155 64.6804 12.2289 64.6804 13.6023Z" fill="#69D6B7" fill-opacity="1.000000" fill-rule="evenodd"/>
	<path id="Vector" d="M99.2178 13.6023C99.2178 14.9757 98.0878 16.0891 96.694 16.0891C95.3 16.0891 94.17 14.9757 94.17 13.6023C94.17 12.2289 95.3 11.1155 96.694 11.1155C98.0878 11.1155 99.2178 12.2289 99.2178 13.6023Z" fill="#69D6B7" fill-opacity="1.000000" fill-rule="evenodd"/>
	<path id="Vector" d="M4.01837 31.795C3.97406 31.8823 4.01837 32.0132 4.15118 32.0132L7.95917 32.0132C8.04773 32.0132 8.09204 31.9695 8.09204 31.8823L8.13629 25.7744C8.13629 25.6435 7.95917 25.5999 7.87061 25.6871L4.01837 31.795ZM7.87061 35.6343C6.40942 35.5906 4.72681 35.6343 2.91138 35.6343C-0.896606 35.7215 -0.320984 32.2749 1.00739 30.1808C2.42432 27.9558 3.97406 25.5563 5.56812 23.0259C6.6308 21.368 8.44623 20.4954 10.306 21.4116C11.7672 22.1097 12.1214 23.8112 12.0771 25.2945C12.0328 27.5631 12.0328 29.7445 12.0771 31.7514C12.0771 31.9259 12.1656 32.0132 12.2985 32.0132C14.8667 32.0568 14.8224 35.5034 12.3428 35.6343C12.1656 35.6343 12.0328 35.7651 12.0328 35.9397L12.0328 38.1647C12.0328 39.3426 11.4572 39.9534 10.2174 39.997L9.81891 39.997C8.88904 40.0407 8.35767 39.6044 8.18054 38.6882C8.00348 37.772 7.95917 36.8558 8.04773 35.9397C8.13629 35.7651 8.00348 35.6343 7.87061 35.6343Z" fill="#69D6B7" fill-opacity="1.000000" fill-rule="nonzero"/>
	<path id="Vector" d="M30.3643 31.4024C30.3201 31.4896 30.4086 31.5769 30.4971 31.5769L33.5967 31.5769C33.6852 31.5769 33.7738 31.4896 33.7295 31.4024L32.2241 26.0798C32.1797 25.9489 32.0026 25.9489 31.9584 26.0798L30.3643 31.4024ZM34.5708 35.2852L29.4344 35.2852C29.2573 35.2852 29.1245 35.3725 29.0803 35.547C28.8588 36.4632 28.5931 37.2921 28.2832 38.121C27.619 39.7353 25.4051 39.6044 24.9623 37.9465C24.8295 37.3794 24.8295 36.8122 25.0066 36.245C26.2906 32.3622 27.7961 27.9122 29.5673 22.9822C30.2315 21.1499 32.3569 20.3646 33.9509 21.6734C34.438 22.066 34.8365 22.8077 35.1464 23.8111C36.4748 27.9122 37.8032 32.1877 39.2201 36.6377C39.53 37.6411 39.2201 38.8191 38.0688 39.1245C35.722 39.7789 35.3235 37.1612 34.925 35.5906C34.925 35.3725 34.7922 35.2852 34.5708 35.2852Z" fill="#2A2E84" fill-opacity="1.000000" fill-rule="nonzero"/>
	<path id="Vector" d="M51.1754 31.6641C51.1754 28.872 51.1754 26.0362 51.1754 23.2004C51.2196 20.3209 54.8948 20.3646 54.8948 23.2004C54.939 27.3014 54.939 31.9695 54.939 37.2048C54.939 39.6916 52.6808 40.2152 51.3082 38.2955C49.0057 35.0235 46.7917 31.8823 44.7106 28.872C44.4892 28.5666 44.4007 28.6102 44.4007 28.9592C44.4449 31.1842 44.4449 34.0637 44.3121 37.5539C44.2236 39.9098 40.6813 39.9098 40.637 37.1612C40.5927 31.6205 40.5927 26.9523 40.637 23.1131C40.6813 21.6734 41.3455 21.019 42.7623 21.1499C43.3823 21.1935 43.9579 21.8479 44.3121 22.3278C46.3932 25.2945 48.5629 28.4357 50.8654 31.7514C51.0868 31.9695 51.1754 31.9259 51.1754 31.6641Z" fill="#2A2E84" fill-opacity="1.000000" fill-rule="nonzero"/>
	<path id="Vector" d="M20.0473 25.12C19.9587 25.12 19.9145 25.1636 19.9145 25.2509L19.9145 28.0867C19.9145 28.1739 19.9587 28.2176 20.0473 28.2176C21.2429 28.1739 22.3498 28.1739 23.3682 28.2612C25.6707 28.4357 25.8035 31.5333 23.6339 31.8823C22.6155 32.0568 21.5085 32.1004 20.2687 31.9695C20.0473 31.9695 19.9145 32.0568 19.9145 32.2749C19.9587 33.7146 19.9587 35.2852 19.9145 37.074C19.8702 38.4701 19.2946 39.1681 18.0105 39.2117C16.8149 39.2117 16.2393 38.5573 16.2393 37.2049C16.1951 32.2749 16.1951 27.694 16.2393 23.4185C16.2393 22.066 16.9035 21.368 18.2319 21.3244C20.0031 21.2808 21.7742 21.2808 23.5896 21.3244C26.4235 21.4116 26.3792 24.9891 23.4125 25.0764C22.2612 25.1636 21.1543 25.1636 20.0473 25.12Z" fill="#2A2E84" fill-opacity="1.000000" fill-rule="nonzero"/>
	<path id="Vector" d="M69.9938 24.6401C69.9938 25.8617 68.9754 26.9087 67.7356 26.9087L61.8908 26.9087C60.651 26.9087 59.5883 25.9053 59.5883 24.6837L59.5883 24.0729C59.5883 22.8513 60.6068 21.8043 61.8466 21.8043L67.6913 21.8043C68.9312 21.8043 69.9938 22.8077 69.9938 24.0293L69.9938 24.6401Z" fill="#2A2E84" fill-opacity="1.000000" fill-rule="nonzero"/>
	<path id="Vector" d="M95.1885 24.4219C95.1885 25.818 94.0373 26.9087 92.6647 26.9087L76.4143 26.9087C74.9974 26.9087 73.8904 25.7744 73.8904 24.4219L73.8904 24.2911C73.8904 22.895 75.0417 21.8043 76.4143 21.8043L92.6647 21.8043C94.0816 21.8043 95.1885 22.9386 95.1885 24.2911L95.1885 24.4219Z" fill="#E8195A" fill-opacity="1.000000" fill-rule="nonzero"/>
	<path id="Vector" d="M104 35.3289C104 36.6813 102.849 37.8156 101.476 37.8156L79.3809 37.8156C78.0083 37.8156 76.8571 36.7249 76.8571 35.3289L76.8571 35.1544C76.8571 33.8019 78.0083 32.6676 79.3809 32.6676L101.476 32.6676C102.849 32.6676 104 33.8019 104 35.1544L104 35.3289Z" fill="#2A2E84" fill-opacity="1.000000" fill-rule="nonzero"/>
	<path id="Vector" d="M69.9938 35.6343C69.9938 36.8995 68.9754 37.9029 67.6913 37.9029L61.8465 37.9029C60.5624 37.9029 59.544 36.8995 59.544 35.6343L59.544 35.0235C59.544 33.7583 60.5624 32.7548 61.8465 32.7548L67.6913 32.7548C68.9754 32.7548 69.9938 33.7583 69.9938 35.0235L69.9938 35.6343Z" fill="#E8195A" fill-opacity="1.000000" fill-rule="nonzero"/>
</svg>
