<svg width="32.000000" height="32.000000" viewBox="0 0 32 32" fill="none" xmlns="http://www.w3.org/2000/svg" xmlns:xlink="http://www.w3.org/1999/xlink">
	<desc>
			Created with Pixso.
	</desc>
	<defs>
		<clipPath id="clip1448_464">
			<rect id="print 1" width="32.000000" height="32.000000" fill="white" fill-opacity="0"/>
		</clipPath>
	</defs>
	<g clip-path="url(#clip1448_464)">
		<path id="Vector" d="M25.3333 5.33325C25.3333 3.91895 24.7714 2.56226 23.7712 1.56201C22.771 0.562012 21.4145 0 20 0L12 0C10.5855 0 9.22896 0.562012 8.22878 1.56201C7.22858 2.56226 6.66667 3.91895 6.66667 5.33325L6.66667 6.66675L25.3333 6.66675L25.3333 5.33325Z" fill="#FFFFFF" fill-opacity="1.000000" fill-rule="nonzero"/>
		<path id="Vector" d="M10.6667 20L21.3333 20C23.5425 20 25.3333 21.7908 25.3333 24L25.3333 28C25.3333 30.2092 23.5425 32 21.3333 32L10.6667 32C8.45753 32 6.66667 30.2092 6.66667 28L6.66667 24C6.66667 21.7908 8.45753 20 10.6667 20Z" fill="#FFFFFF" fill-opacity="1.000000" fill-rule="evenodd"/>
		<path id="Vector" d="M25.3333 9.33325L6.66667 9.33325C4.8992 9.33545 3.20474 10.0383 1.95496 11.2883C0.70517 12.5381 0.00212097 14.2324 0 16L0 21.3333C0.00170898 22.6289 0.380936 23.896 1.09134 24.9797C1.80173 26.0632 2.81248 26.9163 4 27.4346L4 24C4.00212 22.2324 4.70517 20.5381 5.95496 19.2883C7.20474 18.0383 8.8992 17.3354 10.6667 17.3333L21.3333 17.3333C23.1008 17.3354 24.7953 18.0383 26.045 19.2883C27.2948 20.5381 27.9979 22.2324 28 24L28 27.4346C29.1875 26.9163 30.1983 26.0632 30.9087 24.9797C31.6191 23.896 31.9983 22.6289 32 21.3333L32 16C31.9979 14.2324 31.2948 12.5381 30.045 11.2883C28.7953 10.0383 27.1008 9.33545 25.3333 9.33325ZM24 14.6665L21.3333 14.6665C20.9797 14.6665 20.6406 14.5261 20.3905 14.2761C20.1405 14.0261 20 13.6868 20 13.3333C20 12.9797 20.1405 12.6404 20.3905 12.3904C20.6406 12.1404 20.9797 12 21.3333 12L24 12C24.3536 12 24.6928 12.1404 24.9428 12.3904C25.1929 12.6404 25.3333 12.9797 25.3333 13.3333C25.3333 13.6868 25.1929 14.0261 24.9428 14.2761C24.6928 14.5261 24.3536 14.6665 24 14.6665Z" fill="#FFFFFF" fill-opacity="1.000000" fill-rule="nonzero"/>
	</g>
</svg>
