<svg  class="main-svg-sprite main-svg-sprite--icons" xmlns="http://www.w3.org/2000/svg" xmlns:xlink="http://www.w3.org/1999/xlink"><symbol viewBox="0 0 17 14.728" id="arr-l" xmlns="http://www.w3.org/2000/svg"><path d="M8.071 1.707A1 1 0 106.657.293L.294 6.656H.293a.998.998 0 00-.009 1.406l.009.009 6.364 6.364a1 1 0 101.414-1.414L3.414 8.364H16a1 1 0 000-2H3.414l4.657-4.657z"/></symbol><symbol viewBox="0 0 17 14.728" id="arr-r" xmlns="http://www.w3.org/2000/svg"><path d="M10.343.293A1 1 0 108.93 1.707l4.657 4.657H1a1 1 0 000 2h12.586L8.929 13.02a1 1 0 101.414 1.414l6.364-6.364A.995.995 0 0017 7.364v-.01a.998.998 0 00-.29-.695c-.002 0-.002-.001-.003-.002L10.343.292z"/></symbol><symbol viewBox="0 0 15.4 15.4" id="close" xmlns="http://www.w3.org/2000/svg"><path d="M1.837.315A1.076 1.076 0 00.315 1.837L6.178 7.7.315 13.563a1.076 1.076 0 001.522 1.522L7.7 9.222l5.863 5.863a1.076 1.076 0 001.522-1.522L9.222 7.7l5.863-5.863A1.077 1.077 0 0013.563.315L7.7 6.178 1.837.315z"/></symbol><symbol viewBox="0 0 25.666 25.667" id="close-2" xmlns="http://www.w3.org/2000/svg"><path d="M3.062.525A1.793 1.793 0 10.525 3.061l9.772 9.772-9.772 9.772a1.793 1.793 0 102.537 2.536l9.772-9.771 9.771 9.771a1.793 1.793 0 102.537-2.536l-9.772-9.772 9.772-9.772A1.794 1.794 0 0022.605.525l-9.771 9.772L3.062.525z"/></symbol><symbol viewBox="0 0 10.5 8.25" id="email" xmlns="http://www.w3.org/2000/svg"><path d="M9.188 0H1.311A1.314 1.314 0 000 1.313v5.625A1.314 1.314 0 001.313 8.25h7.875A1.314 1.314 0 0010.5 6.937V1.313A1.314 1.314 0 009.187 0zm-.333 2.171L5.48 4.796a.375.375 0 01-.46 0L1.645 2.171a.375.375 0 11.46-.592L5.25 4.025l3.145-2.446a.375.375 0 01.46.592z"/></symbol><symbol viewBox="0 0 17.73 21.73" id="fileupload" xmlns="http://www.w3.org/2000/svg"><path d="M2.865 0A2.865 2.865 0 000 2.865v16a2.864 2.864 0 002.865 2.865h12a2.864 2.864 0 002.865-2.865v-12c0-.23-.09-.45-.253-.612l-6-6A.865.865 0 0010.865 0h-8zm-.802 2.063c.212-.213.501-.333.802-.333H10v5.135c0 .478.387.865.865.865H16v11.135A1.134 1.134 0 0114.865 20h-12a1.134 1.134 0 01-1.135-1.135v-16c0-.3.12-.59.333-.802zm9.668.891L14.775 6H11.73V2.954zM8.864 10a.865.865 0 00-.865.865V13H5.865a.865.865 0 100 1.73H8v2.135a.865.865 0 101.73 0V14.73h2.135a.865.865 0 100-1.73H9.73v-2.135A.865.865 0 008.865 10z"/></symbol><symbol viewBox="0 0 7.5 10.5" id="marker" xmlns="http://www.w3.org/2000/svg"><path d="M3.75 0C1.68 0 0 1.512 0 3.375c0 3 3.75 7.125 3.75 7.125S7.5 6.375 7.5 3.375C7.5 1.512 5.82 0 3.75 0zm0 5.25a1.5 1.5 0 11-.055-3 1.5 1.5 0 01.055 3z"/></symbol><symbol viewBox="0 0 16.8 14.4" id="menu" xmlns="http://www.w3.org/2000/svg"><path d="M0 1.2A1.2 1.2 0 011.2 0h14.4a1.2 1.2 0 110 2.4H1.2A1.2 1.2 0 010 1.2zm0 6A1.2 1.2 0 011.2 6h7.2a1.2 1.2 0 110 2.4H1.2A1.2 1.2 0 010 7.2zm0 6A1.2 1.2 0 011.2 12h14.4a1.198 1.198 0 011.109 1.66 1.196 1.196 0 01-1.109.74H1.2A1.2 1.2 0 010 13.2z"/></symbol><symbol viewBox="0 0 9.6 9.6" id="phone" xmlns="http://www.w3.org/2000/svg"><path d="M0 .6A.6.6 0 01.6 0h1.292a.6.6 0 01.591.501l.444 2.662a.6.6 0 01-.324.636l-.929.464a6.622 6.622 0 003.663 3.663l.465-.93a.6.6 0 01.635-.324l2.662.445a.6.6 0 01.501.591V9a.6.6 0 01-.6.6H7.8A7.8 7.8 0 010 1.8V.6z"/></symbol><symbol viewBox="0 0 17.916 20" id="trash" xmlns="http://www.w3.org/2000/svg"><path d="M6.958 0a2 2 0 00-2 2v2.042H2.245a.997.997 0 00-.573 0H.958a.958.958 0 100 1.916h.077l.923 11.088a3.002 3.002 0 003 2.954h8a3 3 0 003-2.954l.924-11.088h.076a.958.958 0 100-1.916h-.713a.997.997 0 00-.573 0h-2.713V2a2 2 0 00-2-2h-4zm4.714 5.958a1 1 0 00.573 0h2.63l-.913 10.959a.962.962 0 00-.003.083 1 1 0 01-1 1h-8a1 1 0 01-1-1c0-.028-.002-.055-.004-.083L3.042 5.958h2.63a1 1 0 00.573 0h5.427zm-.713-1.916V2h-4v2.042h4zM7.959 9a1 1 0 00-2 0v6a1 1 0 002 0V9zm4 0a1 1 0 00-2 0v6a1 1 0 102 0V9z"/></symbol></svg>