<svg width="109.969604" height="95.082031" viewBox="0 0 109.97 95.082" fill="none" xmlns="http://www.w3.org/2000/svg" xmlns:xlink="http://www.w3.org/1999/xlink">
	<desc>
			Created with Pixso.
	</desc>
	<defs/>
	<path id="Vector" d="M45.1376 30.0981C46.9592 21.8105 52.6261 15.8481 59.811 12.2095C67.9067 8.16699 77.824 6.95459 85.9196 8.47021C88.7531 9.07666 91.4854 9.98633 94.0153 11.1992C97.7595 12.917 101.403 15.1406 104.843 17.667C105.147 17.8691 105.248 18.3745 105.046 18.6777C104.843 18.981 104.337 19.082 104.034 18.8799C100.998 17.2627 97.9619 15.7471 94.8248 14.6353C91.6877 13.5234 88.5507 12.6138 85.2112 12.3105C77.8239 11.0981 68.9187 12.3105 61.6326 16.0503C55.662 19.1831 50.9058 24.0342 49.2867 30.8057C51.1082 31.2095 52.8285 31.6138 54.5488 32.3213C57.7871 33.6353 60.823 35.5557 63.3529 38.5874C65.1744 40.7095 67.0972 44.146 67.4008 47.2788C67.7043 50.0073 66.996 52.6353 64.4661 54.2524C59.5074 57.5874 54.7512 55.9702 51.1082 51.8267C46.858 47.1777 44.2269 39.396 44.3281 34.3428C42.5065 34.1406 40.7862 34.0396 38.9647 33.9385C31.6786 33.5342 24.2913 35.8584 18.2195 40.5073C12.8561 44.7524 8.20111 50.917 5.6712 58.4971C3.54608 64.5605 3.64728 71.0288 4.65924 76.8906C5.36761 80.9331 6.58197 84.6724 7.79633 87.9067C8.90948 90.8374 10.0226 93.1616 11.237 94.8799C11.3382 94.981 11.3382 95.082 11.237 95.082C11.1358 95.082 11.0346 95.082 11.0346 95.082C9.31427 93.7681 7.39154 91.7471 5.6712 89.0181C3.74847 85.8853 2.12933 81.9438 1.11737 77.6992C-0.400574 71.332 -0.50177 64.0557 1.62335 57.1831C4.45685 48.6938 9.51666 41.8213 15.7908 37.1724C22.6721 32.0181 30.9702 29.2896 39.3694 29.7949C41.2922 29.7949 43.2149 29.896 45.1376 30.0981ZM48.8819 35.0503C50.2986 35.3535 51.7154 35.7573 53.0309 36.2627C55.662 37.2734 58.0907 38.8906 60.1146 41.3159C61.2278 42.6299 62.4421 44.6514 62.9481 46.5713C63.3529 48.0874 63.4541 49.6035 62.1385 50.5127C59.3051 52.4331 56.5728 51.1191 54.4476 48.7949C51.2094 45.2573 48.8819 39.1938 48.8819 35.0503Z" fill="#69D6B7" fill-opacity="1.000000" fill-rule="evenodd"/>
	<path id="Vector" d="M103.528 18.8799C102.617 17.7681 101.706 16.6562 100.897 15.5449C99.8846 14.231 98.7715 12.917 97.8607 11.6035C95.3308 8.16699 93.1046 4.62988 90.6759 1.19385C90.3723 0.890625 90.4735 0.486328 90.7771 0.183105C91.0807 -0.120117 91.4855 -0.019043 91.7891 0.28418C94.319 2.70947 97.0511 5.03418 99.5811 7.45947C100.694 8.47021 101.807 9.58203 102.819 10.6938C105.147 13.2202 107.171 15.9492 109.195 18.5767C109.397 18.8799 109.802 19.4863 109.903 20.0928C110.004 20.6992 110.004 21.3052 109.802 21.8105C109.599 22.3159 109.296 22.8213 108.486 23.2256C108.082 23.3267 107.272 23.5288 106.159 23.5288C102.415 23.5288 93.2058 22.2148 91.2831 22.0127L87.4376 21.3052C87.2352 21.2041 86.9316 21.2041 86.6281 21.0024C86.2233 20.8003 85.8185 20.4971 85.6161 20.1938C85.5149 19.9917 85.8185 19.8906 85.6161 19.8906C85.5149 19.8906 85.6161 19.6885 85.7173 19.7896C85.8185 20.0928 85.9197 19.5874 86.0209 19.6885C86.3245 19.9917 86.0209 19.3853 86.3245 19.3853C86.4257 19.3853 86.2233 19.2842 86.4257 19.2842C86.6281 19.2842 86.2233 19.1831 86.4257 19.082C86.5269 18.981 86.2233 18.981 86.3245 18.8799C86.4257 18.7788 86.1221 18.981 86.2233 18.7788C86.3245 18.6777 86.1221 18.8799 86.1221 18.8799C86.1221 18.8799 86.1221 18.6777 86.0209 19.082C86.1221 19.1831 86.1221 19.2842 86.0209 19.2842C85.9197 19.3853 85.8185 19.3853 85.8185 19.2842C84.9077 19.8906 85.7173 19.2842 85.3125 19.3853C85.2113 19.3853 85.3125 19.2842 85.2113 19.2842C84.7053 19.1831 85.4137 19.082 85.2113 18.7788C85.1101 18.6777 85.4137 18.7788 85.3125 18.6777C85.2113 18.4756 85.5149 18.8799 85.6161 18.4756C85.6161 18.2734 85.7173 18.6777 85.9197 18.3745C86.1221 18.1724 85.8185 18.2734 86.3245 18.0713C86.6281 17.9702 87.4376 18.1724 87.7412 18.0713L91.3843 18.1724C93.0034 18.1724 99.2775 18.7788 103.528 18.8799Z" fill="#69D6B7" fill-opacity="1.000000" fill-rule="evenodd"/>
</svg>
