<svg width="232.428711" height="232.496094" viewBox="0 0 232.429 232.496" fill="none" xmlns="http://www.w3.org/2000/svg" xmlns:xlink="http://www.w3.org/1999/xlink">
	<desc>
			Created with Pixso.
	</desc>
	<defs/>
	<path id="Vector" d="M124.543 1.9248L122.732 3.09619C118.766 5.66211 113.663 5.66211 109.697 3.09619L107.886 1.9248C102.855 -1.3291 96.196 -0.374512 92.2825 4.16113L90.8467 5.8252C87.7689 9.39209 82.8887 10.8281 78.3696 9.49658L76.3644 8.90576C70.6102 7.20996 64.4879 10.0244 62.0281 15.4956L61.1094 17.5386C59.1785 21.8335 54.9141 24.6021 50.2052 24.6177L48.024 24.625C42.0697 24.645 37.0305 29.0283 36.1858 34.9229L35.843 37.3149C35.1769 41.9634 31.8605 45.7959 27.3561 47.123L25.2063 47.7568C19.5023 49.4375 15.8895 55.042 16.7139 60.9312L17.0607 63.4087C17.7062 68.02 15.6254 72.5889 11.7225 75.1294L9.6532 76.4761C4.68469 79.71 2.82214 86.0874 5.26941 91.4873L6.31519 93.7944C8.2373 98.0352 7.53271 103.005 4.50757 106.545L2.87793 108.452C-0.959229 112.941 -0.959229 119.555 2.87793 124.044L4.50757 125.951C7.53271 129.491 8.2373 134.461 6.31519 138.702L5.26941 141.009C2.82214 146.409 4.68457 152.786 9.6532 156.02L11.7225 157.367C15.6254 159.907 17.7062 164.476 17.0607 169.088L16.7091 171.599C15.8868 177.473 19.4801 183.067 25.1646 184.762L27.3893 185.425C31.876 186.763 35.1749 190.588 35.8391 195.223L36.1808 197.606C37.0277 203.516 42.0897 207.904 48.0594 207.904L50.1765 207.904C54.9 207.904 59.1842 210.675 61.1211 214.983L62.0281 217C64.4879 222.472 70.6102 225.286 76.3644 223.59L78.3695 223C82.8887 221.668 87.7689 223.104 90.8467 226.671L92.2825 228.335C96.196 232.871 102.855 233.825 107.886 230.571L109.697 229.4C113.663 226.834 118.766 226.834 122.732 229.4L124.543 230.571C129.573 233.825 136.233 232.871 140.146 228.335L141.582 226.671C144.66 223.104 149.54 221.668 154.059 223L156.064 223.59C161.818 225.286 167.941 222.472 170.401 217L171.308 214.983C173.245 210.675 177.529 207.904 182.252 207.904L184.369 207.904C190.339 207.904 195.401 203.516 196.248 197.606L196.59 195.223C197.254 190.588 200.553 186.763 205.039 185.425L207.264 184.762C212.949 183.067 216.542 177.473 215.719 171.599L215.368 169.087C214.723 164.476 216.803 159.907 220.706 157.367L222.776 156.02C227.744 152.786 229.607 146.409 227.159 141.009L226.114 138.702C224.191 134.461 224.896 129.491 227.921 125.951L229.551 124.044C233.388 119.555 233.388 112.941 229.551 108.452L227.921 106.545C224.896 103.005 224.191 98.0352 226.114 93.7944L227.159 91.4873C229.607 86.0874 227.744 79.71 222.776 76.4761L220.706 75.1294C216.803 72.5889 214.723 68.02 215.368 63.4087L215.715 60.9307C216.539 55.042 212.926 49.4375 207.222 47.7568L205.073 47.123C200.568 45.7959 197.252 41.9634 196.586 37.3149L196.243 34.9229C195.398 29.0288 190.359 24.645 184.405 24.625L182.224 24.6177C177.515 24.6021 173.25 21.8335 171.319 17.5386L170.401 15.4956C167.941 10.0244 161.818 7.20996 156.064 8.90576L154.059 9.49658C149.54 10.8281 144.66 9.39209 141.582 5.8252L140.146 4.16113C136.233 -0.374512 129.573 -1.3291 124.543 1.9248Z" fill="#69D6B7" fill-opacity="1.000000" fill-rule="nonzero"/>
</svg>
