<svg width="25" height="25" viewBox="0 0 25 25" fill="none" xmlns="http://www.w3.org/2000/svg">
<path d="M13.7852 0.00153799C14.6974 -0.00196228 15.6096 0.00720536 16.5215 0.0290381L16.764 0.037788C17.044 0.0477881 17.3202 0.060288 17.654 0.075288C18.984 0.137788 19.8915 0.347788 20.6877 0.656538C21.5127 0.974038 22.2077 1.40404 22.9027 2.09904C23.5382 2.72355 24.03 3.47897 24.344 4.31279C24.6527 5.10904 24.8627 6.01779 24.9252 7.34779C24.9402 7.68029 24.9527 7.95779 24.9627 8.23779L24.9702 8.48029C24.9924 9.39178 25.002 10.3035 24.999 11.2153L25.0002 12.1478V13.7853C25.0033 14.6975 24.9937 15.6096 24.9715 16.5215L24.964 16.764C24.954 17.044 24.9415 17.3203 24.9265 17.654C24.864 18.984 24.6515 19.8915 24.344 20.6878C24.031 21.5225 23.5391 22.2785 22.9027 22.9028C22.2777 23.5382 21.5219 24.03 20.6877 24.344C19.8915 24.6528 18.984 24.8628 17.654 24.9253C17.3202 24.9403 17.044 24.9528 16.764 24.9628L16.5215 24.9703C15.6096 24.9925 14.6974 25.0021 13.7852 24.999L12.8527 25.0003H11.2165C10.3043 25.0034 9.39214 24.9938 8.48023 24.9715L8.23773 24.964C7.941 24.9533 7.64432 24.9408 7.34773 24.9265C6.01773 24.864 5.11023 24.6515 4.31273 24.344C3.47859 24.0307 2.72303 23.5388 2.09898 22.9028C1.46279 22.2781 0.970513 21.5222 0.656483 20.6878C0.347733 19.8915 0.137733 18.984 0.0752329 17.654C0.0613115 17.3574 0.0488114 17.0608 0.0377329 16.764L0.0314831 16.5215C0.00843757 15.6096 -0.00198021 14.6975 0.00023297 13.7853V11.2153C-0.00325574 10.3035 0.0059119 9.39178 0.0277331 8.48029L0.036483 8.23779C0.046483 7.95779 0.058983 7.68029 0.073983 7.34779C0.136483 6.01654 0.346483 5.11029 0.655233 4.31279C0.969449 3.47856 1.46269 2.72334 2.10023 2.10029C2.72385 1.46373 3.47893 0.971004 4.31273 0.656538C5.11023 0.347788 6.01648 0.137788 7.34773 0.075288L8.23773 0.037788L8.48023 0.0315382C9.39171 0.00850422 10.3035 -0.00191356 11.2152 0.000288085L13.7852 0.00153799ZM12.5002 6.25154C11.6721 6.23983 10.8499 6.39282 10.0815 6.70162C9.31298 7.01043 8.61354 7.46889 8.02379 8.05036C7.43404 8.63183 6.96573 9.32471 6.64609 10.0887C6.32645 10.8528 6.16185 11.6727 6.16185 12.5009C6.16185 13.3291 6.32645 14.1491 6.64609 14.9131C6.96573 15.6771 7.43404 16.37 8.02379 16.9515C8.61354 17.5329 9.31298 17.9914 10.0815 18.3002C10.8499 18.609 11.6721 18.762 12.5002 18.7503C14.1578 18.7503 15.7475 18.0918 16.9197 16.9197C18.0918 15.7476 18.7502 14.1579 18.7502 12.5003C18.7502 10.8427 18.0918 9.25297 16.9197 8.08087C15.7475 6.90877 14.1578 6.25154 12.5002 6.25154ZM12.5002 8.75154C12.9984 8.74236 13.4933 8.83253 13.9562 9.0168C14.4191 9.20106 14.8407 9.47571 15.1962 9.82472C15.5518 10.1737 15.8342 10.5901 16.027 11.0495C16.2199 11.5089 16.3192 12.0021 16.3193 12.5003C16.3194 12.9985 16.2202 13.4917 16.0275 13.9512C15.8348 14.4106 15.5525 14.8271 15.1971 15.1762C14.8417 15.5253 14.4202 15.8001 13.9574 15.9845C13.4946 16.169 12.9996 16.2593 12.5015 16.2503C11.5069 16.2503 10.5531 15.8552 9.84983 15.1519C9.14657 14.4487 8.75148 13.4949 8.75148 12.5003C8.75148 11.5057 9.14657 10.5519 9.84983 9.84864C10.5531 9.14538 11.5069 8.75029 12.5015 8.75029L12.5002 8.75154ZM19.0627 4.37654C18.6595 4.39268 18.2781 4.56423 17.9985 4.85525C17.7189 5.14628 17.5627 5.53421 17.5627 5.93779C17.5627 6.34137 17.7189 6.7293 17.9985 7.02032C18.2781 7.31135 18.6595 7.4829 19.0627 7.49904C19.4771 7.49904 19.8746 7.33442 20.1676 7.04139C20.4606 6.74837 20.6252 6.35094 20.6252 5.93654C20.6252 5.52214 20.4606 5.12471 20.1676 4.83168C19.8746 4.53866 19.4771 4.37404 19.0627 4.37404V4.37654Z" fill="#D9D9D9"/>
</svg>
