<svg width="25" height="25" viewBox="0 0 25 25" fill="none" xmlns="http://www.w3.org/2000/svg">
<path d="M14.8442 2.44493C14.876 2.32595 14.9309 2.21441 15.0059 2.11668C15.0808 2.01894 15.1743 1.93694 15.2809 1.87534C15.3876 1.81374 15.5053 1.77376 15.6274 1.75769C15.7496 1.74161 15.8736 1.74975 15.9926 1.78165C17.7306 2.2351 19.3162 3.14365 20.5863 4.41372C21.8564 5.68379 22.7649 7.26946 23.2184 9.00743C23.2503 9.12639 23.2584 9.25047 23.2423 9.37257C23.2263 9.49468 23.1863 9.61242 23.1247 9.71908C23.0631 9.82573 22.9811 9.9192 22.8833 9.99414C22.7856 10.0691 22.6741 10.124 22.5551 10.1559C22.4759 10.1767 22.3944 10.1873 22.3125 10.1875C22.1061 10.1876 21.9054 10.1195 21.7416 9.99384C21.5778 9.86819 21.4601 9.69199 21.4067 9.49259C21.037 8.07361 20.2956 6.77889 19.2588 5.74193C18.2221 4.70497 16.9275 3.9633 15.5086 3.59337C15.3895 3.56167 15.2779 3.5068 15.18 3.43191C15.0821 3.35702 15 3.26357 14.9383 3.1569C14.8766 3.05024 14.8365 2.93246 14.8203 2.81029C14.8042 2.68812 14.8123 2.56397 14.8442 2.44493ZM14.5711 7.34337C16.1871 7.77462 17.2254 8.81407 17.6567 10.4301C17.7101 10.6295 17.8278 10.8057 17.9916 10.9313C18.1554 11.057 18.3561 11.1251 18.5625 11.125C18.6444 11.1248 18.7259 11.1142 18.8051 11.0934C18.9241 11.0615 19.0356 11.0066 19.1333 10.9316C19.2311 10.8567 19.3131 10.7632 19.3747 10.6566C19.4363 10.5499 19.4763 10.4322 19.4923 10.3101C19.5084 10.188 19.5003 10.0639 19.4684 9.94493C18.8684 7.69962 17.3004 6.13165 15.0551 5.53165C14.9361 5.49987 14.8121 5.49183 14.69 5.508C14.5679 5.52416 14.4503 5.56421 14.3437 5.62585C14.2371 5.6875 14.1437 5.76954 14.0688 5.86728C13.9939 5.96502 13.939 6.07656 13.9072 6.19551C13.8755 6.31447 13.8674 6.43853 13.8836 6.56059C13.8998 6.68266 13.9398 6.80034 14.0014 6.90693C14.0631 7.01352 14.1451 7.10692 14.2429 7.18181C14.3406 7.25669 14.4521 7.31159 14.5711 7.34337ZM23.059 16.5695L17.5383 14.0957L17.5231 14.0887C17.2365 13.9661 16.9238 13.9169 16.6134 13.9455C16.303 13.9742 16.0047 14.0798 15.7453 14.2527C15.7148 14.2729 15.6854 14.2948 15.6574 14.3184L12.8051 16.75C10.9981 15.8723 9.13243 14.0207 8.2547 12.2371L10.6899 9.34141C10.7133 9.31212 10.7356 9.28282 10.7567 9.25118C10.9259 8.99255 11.0286 8.69609 11.0556 8.38818C11.0826 8.08027 11.033 7.77047 10.9113 7.48633V7.47227L8.43048 1.94219C8.26963 1.57102 7.99305 1.26182 7.64203 1.06076C7.29101 0.859689 6.88437 0.777539 6.48282 0.82657C4.8949 1.03552 3.43733 1.81536 2.38235 3.02043C1.32738 4.2255 0.74714 5.7734 0.750011 7.37501C0.750011 16.6797 8.32032 24.25 17.625 24.25C19.2266 24.2529 20.7745 23.6726 21.9796 22.6177C23.1847 21.5627 23.9645 20.1051 24.1735 18.5172C24.2226 18.1158 24.1406 17.7093 23.9397 17.3582C23.7389 17.0072 23.43 16.7306 23.059 16.5695Z" fill="#ED1C24"/>
</svg>
