<svg width="22" height="18" viewBox="0 0 22 18" fill="none" xmlns="http://www.w3.org/2000/svg">
<path fill-rule="evenodd" clip-rule="evenodd" d="M18.977 0.929965C19.2241 0.825956 19.4946 0.790084 19.7603 0.826082C20.0259 0.862081 20.2771 0.968633 20.4877 1.13465C20.6982 1.30067 20.8604 1.52008 20.9573 1.77005C21.0543 2.02002 21.0825 2.29141 21.039 2.55597L18.771 16.313C18.551 17.64 17.095 18.401 15.878 17.74C14.86 17.187 13.348 16.335 11.988 15.446C11.308 15.001 9.22497 13.576 9.48097 12.562C9.70097 11.695 13.201 8.43696 15.201 6.49997C15.986 5.73897 15.628 5.29997 14.701 5.99997C12.399 7.73797 8.70297 10.381 7.48097 11.125C6.40297 11.781 5.84097 11.893 5.16897 11.781C3.94297 11.577 2.80597 11.261 1.87797 10.876C0.623971 10.356 0.684971 8.63197 1.87697 8.12997L18.977 0.929965Z" fill="#ED1C24"/>
</svg>
