<svg width="20" height="20" viewBox="0 0 20 20" fill="none" xmlns="http://www.w3.org/2000/svg">
<path fill-rule="evenodd" clip-rule="evenodd" d="M6.56497 0.608178C8.65334 0.491284 10.7466 0.491284 12.835 0.608178L13.467 0.644178L14.049 0.686178C14.981 0.766178 15.731 0.905178 16.433 1.28318C17.2863 1.76266 17.9906 2.46864 18.468 3.32318C18.883 4.09718 19.006 4.91618 19.078 5.96218L19.131 6.87218C19.2062 8.28985 19.2062 9.71051 19.131 11.1282L19.078 12.0382C19.006 13.0852 18.883 13.9032 18.468 14.6772C17.9906 15.5317 17.2864 16.2377 16.433 16.7172C15.59 17.1712 14.679 17.2802 13.467 17.3562L12.835 17.3932C11.7912 17.4578 10.7458 17.4935 9.69997 17.5002L8.06597 17.5052C7.90097 17.5052 7.73397 17.5032 7.56697 17.5002L7.06597 17.4882L4.82497 19.2812C4.68632 19.3922 4.52059 19.4643 4.34484 19.49C4.16909 19.5158 3.98965 19.4942 3.82498 19.4276C3.66031 19.361 3.51636 19.2518 3.40791 19.1111C3.29947 18.9704 3.23046 18.8034 3.20797 18.6272L3.19997 18.5002V16.8342C3.12113 16.7976 3.04342 16.7586 2.96697 16.7172C2.11358 16.2377 1.40931 15.5317 0.931974 14.6772C0.517974 13.9032 0.393974 13.0852 0.321974 12.0392L0.285974 11.4442L0.268974 11.1282C0.193545 9.71051 0.193545 8.28984 0.268974 6.87218L0.321974 5.96218C0.393974 4.91618 0.517974 4.09718 0.931974 3.32418C1.40931 2.46961 2.11358 1.76361 2.96697 1.28418C3.73897 0.867178 4.56997 0.740178 5.63697 0.664178L6.24197 0.626178L6.56497 0.608178ZM6.16497 4.38518C5.18797 4.80418 4.35197 5.86318 4.39297 6.96518L4.40197 7.12718L4.42097 7.32218C4.42497 7.35718 4.42897 7.39218 4.43497 7.43018L4.47297 7.67018C4.65197 8.64418 5.19897 10.2252 6.83797 11.8632C8.47597 13.5022 10.058 14.0492 11.031 14.2282L11.271 14.2662L11.481 14.2912L11.735 14.3082C12.836 14.3482 13.895 13.5182 14.314 12.5412C14.366 12.4203 14.3846 12.2877 14.3679 12.1572C14.3512 12.0267 14.2998 11.903 14.219 11.7992C13.786 11.2432 13.237 10.8062 12.667 10.3992L12.094 9.99918C11.9344 9.88861 11.7382 9.84413 11.5465 9.87508C11.3549 9.90603 11.1826 10.01 11.066 10.1652L10.431 11.1322C10.3976 11.184 10.3457 11.2212 10.2858 11.236C10.226 11.2509 10.1627 11.2424 10.109 11.2122C9.67897 10.9672 9.05297 10.5492 8.60297 10.0982C8.15297 9.64818 7.75997 9.05018 7.53897 8.64818C7.5114 8.59706 7.50329 8.53768 7.51617 8.48104C7.52904 8.4244 7.56201 8.37436 7.60897 8.34018L8.58497 7.61618C8.72449 7.49524 8.81465 7.3272 8.83825 7.14408C8.86186 6.96095 8.81727 6.77554 8.71297 6.62318L8.38297 6.13818C7.98197 5.55218 7.50897 4.91818 6.88797 4.46418C6.78467 4.38942 6.66369 4.34283 6.53693 4.32898C6.41017 4.31513 6.28199 4.3345 6.16497 4.38518ZM10.793 6.38718C10.5429 6.29886 10.2679 6.31351 10.0286 6.42791C9.78934 6.54231 9.60529 6.74708 9.51697 6.99718C9.42866 7.24728 9.44331 7.52222 9.55771 7.76151C9.6721 8.00081 9.87687 8.18486 10.127 8.27318C10.24 8.31318 10.335 8.39318 10.395 8.49718L10.432 8.57818C10.5203 8.82828 10.7043 9.03305 10.9436 9.14745C11.1829 9.26184 11.4579 9.27649 11.708 9.18818C11.9581 9.09986 12.1628 8.91581 12.2772 8.67651C12.3916 8.43722 12.4063 8.16228 12.318 7.91218C12.1935 7.56042 11.9919 7.24093 11.7281 6.97708C11.4642 6.71323 11.1447 6.51168 10.793 6.38718ZM10.517 4.16718C10.4732 4.29101 10.4543 4.42225 10.4613 4.5534C10.4683 4.68455 10.501 4.81304 10.5577 4.93153C10.6143 5.05002 10.6938 5.15619 10.7914 5.24398C10.8891 5.33177 11.0031 5.39946 11.127 5.44318C11.6189 5.61797 12.0657 5.9002 12.4348 6.26935C12.804 6.63849 13.0862 7.08526 13.261 7.57718C13.3047 7.70101 13.3724 7.81503 13.4602 7.9127C13.548 8.01038 13.6542 8.0898 13.7726 8.14645C13.8911 8.20309 14.0196 8.23584 14.1508 8.24283C14.2819 8.24982 14.4131 8.23091 14.537 8.18718C14.6608 8.14345 14.7748 8.07575 14.8725 7.98796C14.9702 7.90017 15.0496 7.794 15.1062 7.67551C15.1629 7.55703 15.1956 7.42854 15.2026 7.2974C15.2096 7.16625 15.1907 7.03502 15.147 6.91118C14.8728 6.13774 14.4294 5.43528 13.8491 4.85503C13.2689 4.27477 12.5664 3.83138 11.793 3.55718C11.6691 3.51344 11.5379 3.49452 11.4068 3.50151C11.2756 3.50849 11.1471 3.54124 11.0286 3.59788C10.9101 3.65453 10.804 3.73396 10.7162 3.83164C10.6284 3.92932 10.5607 4.04334 10.517 4.16718Z" fill="#ED1C24"/>
</svg>
