<svg width="21" height="23" viewBox="0 0 21 23" fill="none" xmlns="http://www.w3.org/2000/svg">
<path d="M16.2502 3.775C15.3957 2.79953 14.9248 1.54679 14.9252 0.25H11.0627V15.75C11.0329 16.5888 10.6788 17.3833 10.0749 17.9662C9.47102 18.5491 8.66451 18.8749 7.8252 18.875C6.0502 18.875 4.5752 17.425 4.5752 15.625C4.5752 13.475 6.6502 11.8625 8.7877 12.525V8.575C4.4752 8 0.700195 11.35 0.700195 15.625C0.700195 19.7875 4.1502 22.75 7.8127 22.75C11.7377 22.75 14.9252 19.5625 14.9252 15.625V7.7625C16.4914 8.88731 18.3719 9.49081 20.3002 9.4875V5.625C20.3002 5.625 17.9502 5.7375 16.2502 3.775Z" fill="#D4D4D4"/>
</svg>
