<svg width="30" height="21" viewBox="0 0 30 21" fill="none" xmlns="http://www.w3.org/2000/svg">
<path d="M12.0832 14.8753L19.6519 10.5003L12.0832 6.12533V14.8753ZM28.9415 3.45658C29.1311 4.14199 29.2623 5.06074 29.3498 6.22741C29.4519 7.39407 29.4957 8.40032 29.4957 9.27532L29.5832 10.5003C29.5832 13.6941 29.3498 16.042 28.9415 17.5441C28.5769 18.8566 27.7311 19.7024 26.4186 20.067C25.7332 20.2566 24.479 20.3878 22.554 20.4753C20.6582 20.5774 18.9228 20.6212 17.3186 20.6212L14.9998 20.7087C8.88942 20.7087 5.08317 20.4753 3.58109 20.067C2.26859 19.7024 1.42275 18.8566 1.05817 17.5441C0.868587 16.8587 0.737337 15.9399 0.649837 14.7732C0.547754 13.6066 0.504004 12.6003 0.504004 11.7253L0.416504 10.5003C0.416504 7.30657 0.649837 4.95866 1.05817 3.45658C1.42275 2.14408 2.26859 1.29824 3.58109 0.933659C4.2665 0.744076 5.52067 0.612825 7.44567 0.525325C9.3415 0.423242 11.0769 0.379492 12.6811 0.379492L14.9998 0.291992C21.1103 0.291992 24.9165 0.525326 26.4186 0.933659C27.7311 1.29824 28.5769 2.14408 28.9415 3.45658Z" fill="#D9D9D9"/>
</svg>
