<svg width="96" height="163" viewBox="0 0 96 163" fill="none" xmlns="http://www.w3.org/2000/svg">
<path d="M50.4196 75.4387C48.6213 64.2829 46.7524 53.1979 45.1653 42.1121C44.8886 40.4176 43.2762 37.8087 46.2368 37.0934C49.0562 36.5199 48.9767 39.5577 49.465 41.1809C52.2557 50.2146 54.7647 59.249 57.3439 68.354C57.6934 69.2712 58.6072 69.9043 58.6064 70.1868C58.6068 70.0455 58.4684 69.1983 58.7527 68.3497C56.261 53.5227 53.699 38.6252 51.2073 23.7982C50.9306 22.1036 49.74 19.776 52.1371 19.0625C54.8164 18.2068 55.3724 20.7481 55.9304 22.5831C59.0681 33.3817 62.1356 44.1099 65.2733 54.9085C66.2544 56.601 66.8125 58.4359 67.1569 61.0486C66.8827 58.5064 65.9723 56.7431 66.5413 54.9047C64.8793 45.3026 63.147 35.63 61.6966 25.9566C61.4211 23.8382 59.2477 20.3833 62.7017 19.596C65.8032 18.8803 65.7914 22.8362 66.5602 24.8824C69.4931 33.4918 72.2144 42.1724 75.0767 50.8527C75.5654 52.3346 75.4892 54.2422 77.8098 55.5774C77.3956 52.753 76.9797 50.4938 76.6344 48.1637C74.1414 33.7605 71.5777 19.4281 69.0847 5.0249C68.808 3.33036 67.125 0.792336 70.0856 0.0770684C72.7641 -0.496074 73.1081 2.25788 73.5959 4.02243C75.8299 10.7972 77.7821 17.5729 79.8045 24.419C81.628 27.0978 82.0414 30.2048 82.5263 32.9583C82.816 30.2731 80.2881 27.5963 81.5653 24.4843C80.945 19.8945 80.1838 15.3052 79.5635 10.7154C79.4256 9.72686 78.9369 8.24487 80.6287 7.81596C82.3206 7.38706 83.0923 8.44435 83.5107 9.85591C83.8598 10.9145 83.9267 12.1152 84.1344 13.3154C87.9437 35.1319 91.6824 57.0193 95.4211 78.9067C95.6284 80.2482 95.8357 81.5898 95.9728 82.8609C96.0397 84.0616 96.1065 85.2623 94.556 85.5495C93.1463 85.8363 92.3738 85.0615 91.9549 83.7913C91.1866 81.6037 90.3476 79.487 89.6499 77.2286C87.6279 70.2412 85.6059 63.2539 83.7248 56.2661C82.673 54.6445 81.6919 52.9521 81.7684 50.9033C81.6221 52.7404 82.885 54.4319 82.1751 56.2707C83.766 66.085 85.4978 75.8988 87.0181 85.784C87.2948 87.4785 88.7659 90.2291 86.087 90.9435C82.9144 91.8713 82.9245 88.4806 82.366 86.7869C79.0151 76.6246 76.0166 66.3908 72.8074 55.9456C70.9713 57.5051 72.0929 59.3385 72.4403 60.9621C74.9333 75.3653 77.4263 89.7685 79.7784 104.172C80.1253 105.937 82.0186 108.828 78.7762 109.544C75.8862 110.188 75.6844 107.01 75.1263 105.175C72.0576 94.8707 69.2004 84.4951 66.2023 74.1199C65.0799 72.5692 64.4511 70.8051 64.4541 69.8161C64.6631 70.5925 65.2216 72.2862 64.5824 74.0542C66.5892 86.1277 68.7369 98.2008 70.7438 110.274C70.9507 111.757 71.2283 113.169 71.3645 114.723C71.5008 116.276 72.4104 118.322 70.2248 118.965C67.5455 119.82 67.342 117.207 66.8533 115.725C65.0387 110.079 63.3653 104.292 61.6915 98.6457C60.7848 95.6109 59.9483 92.6465 59.0416 89.6117C58.7628 88.6235 57.6379 87.9205 57.7102 87.2845C57.6387 87.6379 57.9175 88.6261 57.6328 89.6159C59.503 100.277 61.3029 110.868 63.0322 121.529C63.3094 123.082 64.4999 125.41 61.8913 126.195C59.2124 126.909 59.0088 124.296 58.5202 122.814C55.3804 112.722 52.4521 102.559 49.3829 92.3956C47.3374 93.32 48.7408 95.1525 48.9481 96.494C50.2606 105.179 51.8549 113.863 53.3083 122.547C53.5859 123.959 54.5658 126.076 52.1687 126.789C49.9128 127.361 49.4965 125.243 49.0078 123.761C46.3571 115.01 43.8473 106.258 41.2668 97.5766C40.988 96.5885 39.7928 95.815 40.0771 94.9665C40.0754 95.5316 40.2133 96.5201 39.9286 97.51C41.5217 106.618 43.1143 115.867 44.6367 125.046C44.913 126.882 46.1733 129.421 43.3536 130.136C41.1684 130.637 40.5418 128.166 39.9833 126.472C36.2842 114.969 32.5855 103.324 28.8868 91.6799C26.98 93.3103 28.2425 95.1432 28.449 96.7673C30.595 109.406 32.8824 121.902 34.9578 134.611C35.2349 136.164 36.5664 138.492 33.8172 139.136C31.3499 139.779 30.8642 137.308 30.3053 135.755C27.0952 125.593 24.0261 115.43 20.8867 105.196C19.1915 106.755 20.3841 108.376 20.5911 109.859C23.2905 125.887 26.1309 141.914 28.7597 158.012C29.0369 159.565 30.3679 162.033 27.9002 162.818C25.1502 163.744 24.736 160.92 24.3184 159.226C20.2735 145.534 16.3696 131.841 11.4088 118.222C13.623 131.637 15.8372 145.053 18.0514 158.468C15.2337 158.476 13.7567 157.703 13.3429 154.738C9.25942 130.379 4.96479 105.95 0.811053 81.521C0.535174 79.5439 -1.35729 76.3708 1.8149 75.5842C4.8462 74.7981 5.0468 78.4002 5.60445 80.3764C8.88429 90.7508 12.0228 101.267 15.232 111.712C16.7069 113.191 16.3482 115.382 17.2586 117.145C16.5593 115.452 16.283 113.616 16.7111 111.778C14.2181 97.375 11.6544 83.0427 9.23166 68.7099C8.95494 67.0154 7.34299 64.2652 10.0219 63.5508C12.7714 62.7655 13.1848 65.8724 13.8131 67.7778C16.325 75.8233 18.6961 83.8693 21.1373 91.9856C21.626 93.4676 21.4797 95.3047 23.7283 97.1346C23.1068 92.9687 22.5533 89.5796 21.9296 86.1201C20.4767 77.2944 18.8828 68.4691 17.4298 59.6434C17.1531 57.9488 15.6114 55.2691 18.3609 54.4838C21.3926 53.5564 21.6647 56.8051 22.2934 58.5692C25.5047 68.308 28.5045 78.118 31.5749 87.8572C32.1334 89.5509 32.6919 91.2446 34.1667 92.7237C33.9602 91.0996 33.824 89.5459 33.4766 87.9222C31.4693 75.9899 29.3212 64.0581 27.3139 52.1259C27.0372 50.4313 25.4955 47.7516 28.5264 47.1068C31.3457 46.5332 31.4075 49.4293 31.966 51.123C33.9897 57.5452 35.872 64.1091 37.7544 70.6731C39.9307 73.139 39.2865 76.6023 40.406 79.142C39.9206 76.5298 38.7313 73.7783 39.3744 70.7389C38.4752 65.161 37.5761 59.5831 36.8179 54.0047C36.6105 52.6632 35.9116 50.8286 37.886 50.1163C40.2129 49.3323 40.7706 51.3086 41.2592 52.7905C43.7022 60.3418 45.9336 67.9643 48.3059 75.5863C49.4288 76.9958 50.0579 78.6186 50.0558 79.325C50.4806 78.6174 49.7808 77.0654 50.4196 75.4387Z" fill="#F35D2D"/>
<path d="M81.5653 24.4843C82.4682 28.7907 83.3711 33.0971 84.274 37.4034C81.8206 33.3843 80.4954 28.9379 79.8045 24.419C80.368 24.4173 81.0018 24.486 81.5653 24.4843Z" fill="#F35D2D"/>
<path d="M39.8681 70.5255C40.771 74.8318 41.6739 79.1382 42.5768 83.4446C40.1233 79.4254 38.8684 75.0495 38.2481 70.4597C38.741 70.5288 39.3045 70.5272 39.8681 70.5255Z" fill="#F35D2D"/>
<path d="M64.5121 73.9837C63.8876 70.8068 63.1222 67.6302 62.4977 64.4533C65.0958 67.2005 65.6493 70.5896 66.2027 73.9787C65.5685 74.0512 65.0757 73.982 64.5121 73.9837Z" fill="#F35D2D"/>
<path d="M50.4196 75.4387C51.4672 78.4731 51.9508 81.6505 51.8003 84.9004C49.9776 81.939 49.142 78.692 48.7996 75.3729C49.2925 75.4421 49.8561 75.4404 50.4196 75.4387Z" fill="#F35D2D"/>
<path d="M82.1751 56.2707C81.4799 53.1646 80.7852 49.9172 80.09 46.8111C82.5473 49.5588 83.2416 52.9474 83.6542 56.3369C83.1613 56.2678 82.7386 56.269 82.1751 56.2707Z" fill="#F35D2D"/>
<path d="M17.0639 111.565C17.7591 114.671 18.4543 117.777 19.0085 120.884C16.9037 118.065 15.8565 114.889 15.5146 111.429C16.0777 111.568 16.5706 111.637 17.0639 111.565Z" fill="#F35D2D"/>
<path d="M66.5413 54.9047C67.1662 57.9404 67.8614 61.0465 68.4863 64.0822C66.5223 61.2624 65.4045 58.1576 65.2031 54.8381C65.696 54.9072 66.1186 54.906 66.5413 54.9047Z" fill="#F35D2D"/>
<path d="M57.6332 89.4746C56.7951 87.0753 56.3094 84.6044 56.6693 81.9896C58.0714 84.2459 58.9092 86.7864 58.9714 89.5412C58.5488 89.5425 58.0559 89.4733 57.6332 89.4746Z" fill="#F35D2D"/>
<path d="M39.9291 97.3687C39.0203 95.0403 38.6754 92.5689 38.8281 88.6126C40.3668 92.2812 41.205 94.6805 41.2672 97.4353C40.7744 97.3662 40.3517 97.3674 39.9291 97.3687Z" fill="#F35D2D"/>
<path d="M58.6821 68.4206C59.5202 70.8198 60.006 73.2908 59.646 75.9056C58.2439 73.6493 57.4061 71.1087 57.3439 68.354C57.7665 68.3527 58.2594 68.4218 58.6821 68.4206Z" fill="#F35D2D"/>
</svg>
