<svg width="141" height="21" viewBox="0 0 141 21" fill="none" xmlns="http://www.w3.org/2000/svg">
<path d="M96.7744 13.1392C96.6529 13.2869 96.5618 13.4347 96.4403 13.5824C95.1346 15.2075 95.4686 16.4781 97.5639 16.9213C99.3859 17.3055 101.269 17.4828 103.121 17.5123C107.676 17.5419 112.231 17.601 116.756 17.3646C122.859 17.0395 128.842 16.0644 134.277 13.1392C135.887 12.2527 137.223 10.8049 138.559 9.50478C139.44 8.64788 139.106 7.79097 137.952 7.52503C135.947 7.08181 133.882 6.46133 131.878 6.52043C124.772 6.75681 117.606 7.02273 110.561 7.76143C100.267 8.85471 90.0026 10.3321 79.7386 11.7504C69.4443 13.1687 59.15 14.7053 48.8254 16.1236C41.0819 17.1873 33.308 18.251 25.5341 19.0784C20.2807 19.6398 14.9665 19.8466 9.65235 19.9944C7.76962 20.0534 5.82615 19.6398 3.97378 19.167C-0.247188 18.1033 -1.21892 14.8234 1.60518 11.5436C3.88268 8.88428 6.82826 7.05229 9.92566 5.48624C14.5718 3.1224 19.4304 1.31995 24.7446 1.02447C26.7184 0.906279 28.7834 1.23131 30.7268 1.67453C32.6399 2.11775 32.974 3.74288 31.5467 5.01345C28.7226 7.49549 25.1394 8.55922 21.6168 9.5934C24.2284 8.20464 26.8095 6.81589 29.4211 5.39759C29.6033 5.30894 29.7855 5.19076 29.9069 5.04302C30.3321 4.48161 30.7268 3.89063 31.152 3.32922C30.5143 3.00419 29.9069 2.50187 29.2085 2.38368C25.3519 1.79271 21.6472 2.53143 18.0336 3.7429C13.1749 5.36805 8.58953 7.52506 4.67223 10.8344C3.85233 11.5436 3.06278 12.3414 2.45545 13.2278C1.18005 15.0598 1.66591 16.6259 3.82195 17.2464C5.64395 17.7782 7.58743 18.2215 9.47016 18.1919C13.8733 18.1624 18.2765 18.0146 22.6493 17.5418C31.0305 16.6259 39.4117 15.5621 47.7625 14.4098C55.8097 13.3165 63.8265 11.9868 71.8737 10.864C80.8319 9.59342 89.7597 8.29331 98.7482 7.28867C108.04 6.25449 117.363 5.3976 126.686 4.74754C130.117 4.51116 133.64 5.04301 137.101 5.24985C137.648 5.27939 138.195 5.48623 138.68 5.69307C141.14 6.72725 141.656 8.50015 140.168 10.6572C138.043 13.7597 134.824 15.4735 131.332 16.5963C120.977 19.9648 110.379 20.7035 99.6288 18.7533C98.3838 18.5169 97.0477 18.0442 96.0456 17.3055C95.3775 16.8327 94.922 15.6508 94.9524 14.8234C94.9827 14.1438 95.8634 13.4642 96.3796 12.8142C96.5011 12.9323 96.6225 13.0505 96.7744 13.1392Z" fill="#F7BF72" stroke="#F7BF72"/>
</svg>
