<svg width="239" height="34" viewBox="0 0 239 34" fill="none" xmlns="http://www.w3.org/2000/svg">
<path d="M177.768 25.4012C177.853 27.2421 177.927 28.8528 178.001 30.4635C179.527 30.315 181.23 30.6751 182.631 30.0149C195.845 24.0368 209.055 17.9435 222.213 11.8533C224.866 10.6571 227.522 9.5184 230.095 7.69241C229.226 7.68645 228.352 7.56544 227.539 7.6715C212.004 9.86528 196.514 11.9409 180.986 14.3073C170.126 15.9344 159.337 18.0187 148.533 19.7578C136.814 21.609 125.157 23.6873 113.414 25.0208C105.485 25.9542 97.4687 26.0853 89.5002 26.1558C87.9688 26.1893 85.6039 24.7725 85.0762 23.3041C84.4976 21.8388 85.2954 19.1955 86.2456 17.6391C88.8627 13.4455 91.9033 9.57271 95.1695 5.05197C93.6811 4.90983 92.544 4.63141 91.4792 4.81017C83.0138 6.29468 74.4227 7.26752 66.0938 9.49381C45.4472 14.9914 24.9292 21.0582 4.34952 26.8979C3.59308 27.1159 2.88226 27.2159 2 26.9223C4.75772 25.7776 7.45917 24.5208 10.2758 23.5455C31.7924 15.8618 53.4937 8.85938 75.6394 3.73404C81.0497 2.48906 86.5375 1.81627 92.0254 1.14351C94.3642 0.888928 97.1644 0.664567 98.464 3.35606C99.7661 6.10509 97.3434 7.86449 96.0497 9.7297C94.1844 12.4942 92.1555 15.0377 90.2365 17.7477C89.4206 18.8923 88.7146 20.2034 87.6221 21.9989C89.4753 22.2924 90.7732 22.7343 92.0446 22.6009C103.798 21.4976 115.613 20.6213 127.291 19.0032C144.149 16.673 160.927 13.7131 177.774 11.1528C192.438 8.89552 207.105 6.69579 221.777 4.6111C225.484 4.10204 229.263 4.05014 232.983 3.82871C233.595 3.79231 234.252 3.63781 234.724 3.89815C235.879 4.57926 236.89 5.44206 238 6.24125C237.235 7.38279 236.703 9.14499 235.654 9.6689C230.061 12.4823 224.408 15.1261 218.748 17.5973C207.98 22.3339 197.209 27.0128 186.433 31.5768C184.628 32.3188 182.648 32.6097 180.72 32.8975C178.743 33.2459 176.882 32.7799 176.105 30.3457C175.347 28.3142 176.292 26.6428 177.768 25.4012Z" fill="#F35D2D" stroke="#F35D2D"/>
</svg>
