<svg width="97" height="124" viewBox="0 0 97 124" fill="none" xmlns="http://www.w3.org/2000/svg">
<path d="M0.00701904 85.6289C0.108633 84.5074 -0.0438014 82.8251 0.413461 81.2448C5.799 60.8538 11.2862 40.4628 16.7733 20.0719C18.2467 14.6173 19.7201 9.16269 21.1427 3.75908C21.6508 1.71999 22.6161 -0.0642309 25.0548 0.649454C27.2395 1.31216 27.2903 3.09637 26.7315 5.08449C19.6693 31.3379 12.6071 57.6932 5.54497 83.9466C4.78287 86.9543 2.49656 87.9229 0.00701904 85.6289Z" fill="#F7BF72"/>
<path d="M33.0316 83.0801C40.2462 75.8413 47.3592 68.6025 54.6754 61.4656C55.6915 60.4461 58.1303 59.7324 59.1464 60.2422C61.3819 61.4656 60.569 63.5047 59.0448 65.034C55.5391 68.6534 51.9318 72.1709 48.3753 75.7393C37.8075 86.3426 27.2396 96.9459 16.621 107.6C15.8589 108.365 15.1984 109.537 14.2839 109.741C12.9629 110.047 11.5403 109.741 10.1177 109.639C10.2193 108.314 9.81285 106.581 10.4733 105.816C13.3693 102.502 16.621 99.4438 19.771 96.2832C24.242 91.8992 28.6114 87.5151 33.0316 83.0801Z" fill="#F7BF72"/>
<path d="M20.1775 123.913C18.0436 121.568 18.9073 119.172 21.4985 118.408C27.5953 116.674 33.6922 115.043 39.789 113.412C52.2367 109.996 64.6844 106.683 77.1321 103.267C77.945 103.063 78.9103 102.503 79.52 102.706C80.7394 103.114 82.416 103.879 82.6192 104.797C82.8224 105.714 81.7555 107.702 80.841 108.008C77.4877 109.232 73.982 109.996 70.5272 111.016C55.0819 115.196 39.6366 119.478 24.1912 123.556C22.7687 123.964 21.1936 123.811 20.1775 123.913Z" fill="#F7BF72"/>
<path d="M96.2355 71.4572C94.9653 72.3239 94.4064 72.7827 93.7459 73.1395C81.8571 80.0724 70.0191 86.9544 58.1303 93.8873C57.7238 94.0912 57.2665 94.55 56.8601 94.55C55.3867 94.3971 53.9641 94.0912 52.4907 93.8363C52.9988 92.409 53.1004 90.3699 54.1165 89.7582C59.6545 86.2407 65.3957 83.0291 71.0352 79.7156C77.8434 75.7394 84.5499 71.6612 91.5104 67.8379C92.6282 67.2261 94.7113 67.583 95.8798 68.2457C96.5403 68.5005 96.1847 70.5906 96.2355 71.4572Z" fill="#F7BF72"/>
<path d="M77.8941 38.0671C81.7046 34.2437 85.5152 30.4204 89.3257 26.5971C90.7991 25.1188 92.6281 23.7934 94.1015 25.9854C94.762 26.954 94.3048 29.5538 93.3902 30.5734C86.0232 38.271 78.4022 45.8156 70.8828 53.3603C69.4094 54.8386 67.7327 56.0111 65.9037 54.2779C64.0746 52.5446 65.294 50.8114 66.7674 49.3331C70.4255 45.5607 74.1852 41.7884 77.8941 38.0671Z" fill="#F7BF72"/>
<path d="M40.1447 37.8122C41.0084 37.8632 42.8375 37.3534 43.3964 38.0161C44.1585 38.8827 44.5649 40.9218 44.1076 41.9924C42.3802 45.6627 40.2463 49.1292 38.214 52.5957C35.3689 57.5915 32.4729 62.5363 29.6785 67.4811C28.6623 69.2143 27.1889 70.5907 25.4107 69.1124C24.547 68.3477 24.0897 65.9518 24.6994 64.9322C29.3736 56.368 34.3019 47.8548 39.1794 39.3925C39.3318 39.0357 39.535 38.7298 40.1447 37.8122Z" fill="#F7BF72"/>
<path d="M60.2134 2.38284C61.1787 2.33187 62.8553 1.77112 63.465 2.38285C64.2779 3.09653 65.0908 5.13564 64.6336 5.9003C61.7884 11.4059 58.74 16.8095 55.4883 22.1111C55.0311 22.8758 52.8464 23.2326 51.881 22.8758C51.2206 22.6209 50.4584 20.4289 50.8649 19.6132C53.7609 13.9547 56.9109 8.44916 60.2134 2.38284Z" fill="#F7BF72"/>
</svg>
