<svg width="983" height="100" viewBox="0 0 983 100" fill="none" xmlns="http://www.w3.org/2000/svg">
<path d="M0.999997 64.5631C5.16666 82.5631 22.5315 92.4746 58 86.5631C115 77.0631 88 27.0627 165 45.5627C208.5 45.5627 202.052 -7.24961 239.5 2.11232C283.5 13.1122 269 55.0628 296.5 64.5628C324.667 82.5793 389.7 113.012 424.5 90.6123C468 62.6123 575.987 76.1316 563 39C542.5 -19.6123 452.05 106.934 575.5 94.8877C694.5 83.2754 617.5 71.6123 640.5 47.6123C663.5 23.6123 728.5 6.1123 767.5 31.6123C806.5 57.1123 808.5 92.1123 848.5 95.6123C888.5 99.1123 940.5 -9.8877 981.5 67.1123" stroke="#F35D2D" stroke-width="2" stroke-dasharray="6 6"/>
</svg>
