<svg width="535" height="554" viewBox="0 0 535 554" fill="none" xmlns="http://www.w3.org/2000/svg">
<path d="M324.022 1.72903C361.848 11.9914 372.453 61.9509 400.063 89.7898C423.511 113.432 456.821 126.217 475.098 154.058C493.711 182.411 496.209 217.397 505.292 250.083C515.772 287.796 542.246 324.782 533.117 362.845C524.077 400.533 487.117 424.471 457.481 449.418C429.988 472.562 397.362 486.681 365.739 503.741C331.992 521.948 301.987 553.184 263.658 553.985C225.363 554.785 194.884 523.16 159.682 508.045C123.897 492.68 80.4316 491.248 53.0359 463.551C25.5716 435.785 17.5774 394.356 9.43198 356.144C1.6905 319.826 -5.83684 280.956 6.66045 245.991C18.8821 211.798 58.9849 196.145 77.7328 165.053C96.142 134.523 88.6986 89.9893 115.139 66.0887C141.244 42.4904 182.563 50.2601 216.182 39.9015C253.026 28.5496 286.815 -8.36554 324.022 1.72903Z" fill="#F7BF72"/>
</svg>
