<svg width="393" height="20" viewBox="0 0 393 20" fill="none" xmlns="http://www.w3.org/2000/svg">
<path d="M392.752 17.9325C380.6 17.262 368.696 15.9768 356.874 13.6858C334.72 9.38326 312.069 6.92465 289.17 5.41595C249.159 2.7897 209.148 3.12495 169.22 5.36005C136.732 7.14814 104.326 9.55089 71.9205 12.2889C49.2697 14.1887 26.8668 17.2061 4.29866 19.6647C2.97598 19.8324 1.57067 19.8882 0.247992 20C0.165324 19.7765 0.0826672 19.553 0 19.3295C7.10938 18.1002 14.1361 16.4797 21.3281 15.6416C53.403 11.8977 85.4779 8.04219 117.718 4.91304C156.572 1.16924 195.756 -0.451201 235.106 0.107576C271.066 0.610474 306.943 2.00739 342.16 7.20401C356.874 9.38323 371.341 12.4565 385.891 15.1945C388.371 15.6416 390.603 16.4797 393 17.1503C393 17.3738 392.835 17.6531 392.752 17.9325Z" fill="#F35D2D"/>
</svg>
