<svg width="90" height="126" viewBox="0 0 90 126" fill="none" xmlns="http://www.w3.org/2000/svg">
<path d="M90 111.209C89.3587 112.06 88.8599 113.196 88.0048 113.479C87.2209 113.834 85.867 113.692 85.0831 113.196C84.228 112.699 83.7292 111.564 83.2304 110.641C70.6176 88.9988 58.0047 67.4274 45.4632 45.785C45.0356 45.0754 44.323 44.3658 44.323 43.6562C44.323 42.379 44.8218 41.1017 45.1069 39.8245C46.4608 40.1793 47.886 40.3212 49.0974 40.8888C49.7387 41.1727 50.0237 42.2371 50.4513 42.9466C63.0641 64.589 75.6769 86.1604 88.2185 107.803C88.8599 108.867 89.3587 109.861 90 111.209Z" fill="#F7BF72"/>
<path d="M2.28028 35.78C3.49169 36.5606 4.56057 37.1282 5.34442 37.9088C21.8765 54.3712 38.3373 70.9045 54.7981 87.3669C56.2233 88.7861 57.506 90.4182 55.7957 92.1921C53.8717 94.179 52.2328 92.7598 50.6651 91.2697C34.2755 74.8782 17.886 58.4868 1.49643 41.9534C0.570065 41.031 0.142518 39.328 0 37.9798C0 37.4121 1.42518 36.6315 2.28028 35.78Z" fill="#F7BF72"/>
<path d="M78.3134 122.562C78.1709 125.684 75.8906 126.749 73.5391 125.472C68.0522 122.42 62.6365 119.298 57.2208 116.176C46.1044 109.861 35.0593 103.474 23.9429 97.1591C23.2303 96.7334 22.1614 96.4495 21.8764 95.8819C21.3063 94.7465 20.665 93.0435 21.1638 92.263C21.6626 91.4824 23.8004 90.8438 24.6555 91.2695C27.8621 92.7597 30.855 94.6756 33.9904 96.3786C47.7434 104.255 61.5676 112.06 75.2493 120.008C76.532 120.717 77.5296 121.924 78.3134 122.562Z" fill="#F7BF72"/>
<path d="M89.2162 77.2907C88.5748 77.8584 87.4347 79.4904 86.7934 79.3485C85.5107 78.9937 83.8005 77.8584 83.4442 76.6521C81.449 70.2658 79.8813 63.7376 78.0998 57.2804C76.4608 51.1779 74.8219 45.0046 73.1116 38.9021C72.5416 36.8443 72.4703 34.9284 74.7506 34.2188C77.1734 33.5093 78.0285 35.2832 78.5986 37.2701C82.019 49.9007 85.4394 62.4604 88.8599 75.091C88.9311 75.5167 89.0024 75.9425 89.2162 77.2907Z" fill="#F7BF72"/>
<path d="M73.1116 17.4726C72.399 18.1822 71.6151 19.6723 70.76 19.6723C69.6199 19.6723 67.7672 18.8208 67.4821 17.8983C65.9857 12.9312 64.703 7.89319 63.6341 2.85513C63.4916 2.00363 64.703 0.158702 65.4869 0.0167849C66.5558 -0.125132 68.551 0.655411 68.836 1.50691C70.4037 6.54497 71.6151 11.725 73.1116 17.4726Z" fill="#F7BF72"/>
</svg>
