<svg width="94" height="100" viewBox="0 0 94 100" fill="none" xmlns="http://www.w3.org/2000/svg">
<path d="M25.7071 83.8024C23.5362 86.3545 21.2532 88.8293 19.2287 91.4931C18.1863 92.8679 17.1525 93.985 15.4811 93.0054C13.7151 91.9657 13.4308 90.2041 14.4904 88.4855C16.782 84.7477 19.1942 81.0785 21.5461 77.375C22.0888 76.5243 22.5971 75.6564 22.6747 74.4104C20.116 77.2719 17.6866 80.2708 14.9384 82.9346C13.7495 84.086 11.837 84.4469 10.3811 85.3577C9.15774 86.1225 8.05502 87.1021 7.00399 88.0989C5.61698 89.4308 4.58318 92.1547 2.22267 90.608C-0.1723 89.0441 1.96422 86.9646 2.67926 85.2117C3.17893 84.0001 3.98874 82.9088 4.85024 81.4308C0.956264 79.7982 2.30882 77.1601 3.49769 74.4104C5.55667 69.6586 7.47782 64.8465 9.05436 59.8111C6.25449 63.6436 3.45461 67.4846 0.646125 71.317C0.43075 71.2139 0.215375 71.1022 0 70.9991C0.48244 69.6242 0.749505 68.129 1.48178 66.9003C7.30552 57.0958 12.5865 46.8875 19.2459 37.6759C27.9643 25.6201 37.7681 14.3376 47.1929 2.79742C48.2957 1.44833 49.4328 -1.08656 51.6641 0.511711C52.1983 0.89839 51.3281 4.06916 50.4063 5.52136C38.9226 23.7125 27.2923 41.8262 15.7138 59.9658C15.1193 60.9024 14.611 61.8992 14.4473 63.2139C15.5328 61.9078 16.6356 60.6017 17.7038 59.2784C28.6793 45.7016 39.6031 32.0991 50.6389 18.5739C52.8272 15.893 55.3858 13.5127 57.798 11.0122C58.2891 10.5052 58.8404 9.80061 59.4435 9.70609C60.529 9.52564 62.0969 9.328 62.6827 9.91231C63.2427 10.4709 63.2341 12.3097 62.7258 13.0831C60.3653 16.6491 57.7291 20.0519 55.1963 23.5062C50.4494 29.9853 45.7026 36.4643 41.3261 43.33C41.9292 42.7715 42.5667 42.2559 43.1267 41.663C49.3295 35.1582 55.5236 28.6362 61.7178 22.1228C62.9153 20.8682 64.0525 19.5363 65.3275 18.3763C66.6714 17.1475 67.9206 14.6814 70.0744 16.2624C72.4263 17.9896 70.4879 19.9402 69.3421 21.5299C66.1287 26.0068 62.8378 30.4149 59.7278 35.0293C61.4766 33.388 63.2254 31.7468 64.9657 30.1056C65.629 29.4783 66.189 28.4987 66.973 28.2753C68.0154 27.9659 69.3249 27.9917 70.3242 28.3698C70.686 28.5073 70.6774 30.1399 70.4965 31.0164C70.2984 31.9702 69.7039 32.8467 69.2818 33.7747C69.5316 33.8521 69.7384 33.981 69.8073 33.9294C71.3149 32.7264 73.0552 30.8875 74.7437 32.8123C75.3554 33.5169 74.4163 36.1807 73.5204 37.4954C69.971 42.6855 66.1632 47.6866 62.967 53.2032C66.1201 49.7231 69.2732 46.243 72.4176 42.7629C73.9253 41.0959 75.2864 39.257 77.0094 37.8392C77.8882 37.1174 79.413 37.1603 80.645 36.8596C80.6105 38.054 81.024 39.5234 80.4727 40.3912C76.2083 47.1109 71.7629 53.7102 67.3779 60.3525C66.7748 61.2633 66.1976 62.1914 65.9823 63.4631C67.128 62.3031 68.2825 61.1516 69.4282 59.9916C75.0194 54.3117 80.5933 48.6232 86.193 42.9519C86.977 42.1528 87.7523 41.2162 88.7345 40.7779C89.596 40.3912 91.1208 40.185 91.6549 40.6748C92.2924 41.2505 92.5078 42.6941 92.3355 43.6651C92.1718 44.576 91.3103 45.3923 90.7073 46.2C84.4356 54.6038 78.1466 62.9991 72.2195 71.8154C75.5104 69.5125 78.7497 67.1237 82.1181 64.9239C83.9876 63.7037 86.0983 61.375 88.3468 63.4115C90.423 65.2934 88.5018 67.6994 87.5284 69.5469C85.702 73.0184 83.4707 76.2751 80.9293 80.4082C84.4011 78.4061 87.0459 76.7219 89.8286 75.3471C90.8968 74.8229 92.3011 74.9776 93.5502 74.8229C93.6708 76.0603 94.2911 77.5296 93.8345 78.492C91.8875 82.6252 89.6218 86.6037 87.5111 90.5736C88.2348 91.3985 89.7855 92.4211 89.6821 93.246C89.5615 94.2256 88.0539 95.0677 87.0718 95.8754C86.529 96.3223 85.8484 96.7691 85.1851 96.855C83.9531 97.0097 82.6867 96.8894 81.4375 96.8894C81.584 95.7895 81.4376 94.5349 81.92 93.6069C84.5045 88.6488 87.2441 83.7767 89.6132 78.4491C86.3739 80.752 83.1605 83.0978 79.8868 85.3406C78.1897 86.5092 76.3375 88.8207 74.356 87.1193C73.641 86.5092 74.6834 83.2869 75.5277 81.5511C77.1128 78.2858 79.1373 75.2267 80.5674 71.6349C79.8265 72.1763 79.0684 72.7004 78.3534 73.2676C73.2102 77.2976 68.1446 81.4222 62.8981 85.3062C61.847 86.0881 59.6675 86.7068 58.8749 86.1569C57.9014 85.4866 57.8411 83.5017 57.3845 82.0925C57.7463 82.2385 58.1168 82.3932 58.4786 82.5393C53.8265 86.7756 49.1572 91.0033 44.5223 95.2567C43.2817 96.3996 42.2221 98.3502 40.2234 96.898C38.1817 95.42 38.9829 93.5124 40.0683 91.7422C41.1711 89.9463 42.2307 88.1332 43.3076 86.3287C42.9716 86.028 42.6442 85.7272 42.3082 85.4265C40.4216 87.6263 38.7158 90.0151 36.5965 91.9743C34.1929 94.1998 32.4441 93.6928 30.7038 90.4275C28.6707 92.7132 26.7323 94.913 24.7767 97.0956C24.0272 97.9291 23.3897 99.0376 22.4421 99.4758C21.391 99.9656 20.0557 99.8539 18.841 100C18.7807 98.797 18.2466 97.3448 18.7376 96.4426C20.5554 93.1429 22.7177 90.0409 24.7423 86.8529C25.2678 86.0194 25.7502 85.1601 26.2585 84.318C26.0948 84.1376 25.8967 83.9743 25.7071 83.8024Z" fill="white"/>
</svg>
