<svg width="526" height="169" viewBox="0 0 526 169" fill="none" xmlns="http://www.w3.org/2000/svg">
<path d="M572.215 253.029C585.991 297.641 577.149 349.369 555.058 390.504C533.297 431.023 490.068 454.542 450.978 478.779C417.243 499.697 378.008 506.683 341.724 522.779C304.662 539.22 273.964 577.311 233.47 575.266C192.805 573.212 164.98 533.731 130.478 512.111C99.345 492.602 65.2418 478.665 38.7282 453.231C10.9274 426.563 -7.81949 393.215 -27.8012 360.279C-52.1038 320.221 -89.9417 283.945 -92.3622 237.155C-94.7709 190.591 -69.589 145.453 -40.8117 108.765C-12.9537 73.2489 26.1307 46.5781 68.7612 31.7392C108.293 17.9789 151.14 30.4536 192.888 27.4182C230.271 24.7002 265.946 16.7084 303.373 14.6814C350.548 12.1265 405.904 -14.6928 443.555 13.8426C481.156 42.3406 458.096 107.335 480.446 148.885C502.607 190.083 558.413 208.332 572.215 253.029Z" fill="#F35D2D"/>
</svg>
