<svg width="136" height="126" viewBox="0 0 136 126" fill="none" xmlns="http://www.w3.org/2000/svg">
<path d="M15.7842 65.8598C21.2598 66.7873 26.7452 67.7929 32.2207 68.7203C32.3164 68.2302 32.4897 67.7296 32.5854 67.2395C25.3335 64.7239 18.159 62.1979 10.9071 59.6824C11.5759 55.6157 13.724 54.5291 17.4655 55.4532C20.635 56.2162 23.999 57.2709 27.1415 54.6977C27.8571 54.1235 29.4179 54.6276 30.542 54.7932C52.2314 58.6908 73.9983 62.5779 95.6876 66.4756C97.7809 66.8279 99.9418 67.0915 102.025 67.3656C102.063 67.0424 102.101 66.7191 102.139 66.3959C68.2282 59.941 34.2298 53.4184 0.318751 46.9635C0.346896 46.5621 0.442647 46.072 0.470791 45.6706C13.8433 47.3561 27.3032 49.1093 40.6757 50.7949C40.7235 50.5498 40.7813 50.3829 40.8292 50.1379C29.9541 47.6365 19.1566 45.1247 8.28161 42.6233C8.29002 42.0656 8.38577 41.5755 8.39419 41.0177C15.9093 39.9986 23.5019 38.969 31.017 37.9499C31.0452 37.5485 31.1508 37.1365 31.179 36.7351C26.04 34.7283 20.8236 32.7319 15.6946 30.8033C18.9007 30.6071 22.1787 32.2301 24.4563 28.4223C24.6492 28.0781 26.4326 28.4724 27.4117 28.7372C59.0591 36.6124 90.6488 44.6544 122.229 52.6183C124.429 53.1946 126.629 53.771 128.82 54.2691C128.724 54.7592 128.716 55.317 128.62 55.8071C122.942 55.1458 117.341 54.4739 111.653 53.7344C111.595 53.9012 111.537 54.0681 111.557 54.2245C117.558 56.1939 123.636 58.1529 129.637 60.1223C129.532 60.5343 129.426 60.9462 129.33 61.4363C127.324 61.1517 125.173 60.9662 123.225 60.5147C107.494 57.0019 91.8115 53.2441 76.0907 49.8094C72.8535 49.1351 69.4728 49.1959 66.1399 49.0117C66.0342 49.4237 65.9385 49.9138 65.9103 50.3152C80.7128 54.59 95.4378 58.8754 111.142 63.4256C109.564 64.0372 108.964 64.2776 107.609 64.7794C114.462 66.6333 120.744 68.3262 126.947 70.0296C126.929 70.5092 126.901 70.9106 126.883 71.3902C121.273 71.2762 115.751 71.2298 110.142 71.1157C110.094 71.3607 110.046 71.6058 109.999 71.8508C118.656 74.8914 127.402 77.9996 136.059 81.0402C102.861 77.1128 70.2376 70.2448 37.7676 62.7197C37.6718 63.2099 37.5761 63.7 37.4704 64.1119C42.8403 65.4512 48.2004 66.7124 53.5125 68.2187C54.4915 68.4835 57.3863 67.6934 55.7947 70.6924C56.7935 71.1136 57.812 71.6912 58.8685 71.9455C81.8976 77.0929 104.994 82.1515 128.101 87.2883C129.4 87.5893 130.631 87.979 131.939 88.3582C131.911 88.7596 131.883 89.161 131.855 89.5624C130.77 89.7095 129.57 90.1903 128.514 89.936C113.686 87.3345 98.8484 84.6548 84.0884 81.9646C66.8278 78.8183 49.5772 75.7501 32.4322 72.2701C26.6947 71.1396 21.2064 68.862 15.6223 67.0746C15.573 66.6837 15.6786 66.2718 15.7842 65.8598Z" fill="#F7BF72"/>
<path d="M118.807 119.8C90.1506 115.018 61.5714 110.226 32.9148 105.444C32.8654 105.053 32.8936 104.652 32.8442 104.261C34.4614 103.962 36.0785 103.663 38.7704 103.139C34.6894 102.023 31.5002 101.104 27.4192 99.987C29.1321 99.198 30.1097 98.8269 31.4549 98.2469C28.3135 97.0825 25.4919 95.9542 21.6039 94.4934C24.548 94.0942 26.2524 93.863 28.3443 93.5794C27.5567 92.3343 26.9538 91.3028 25.6802 89.3284C56.371 93.9934 86.0461 99.3528 115.738 107.97C114.743 108.821 114.182 109.374 112.828 110.512C114.03 110.667 114.999 110.854 115.958 110.962C115.746 111.15 115.523 111.26 115.388 111.437C103.796 108.874 92.194 106.233 80.6019 103.669C80.4963 104.081 80.4583 104.405 80.3527 104.817C86.5072 106.129 92.7293 107.353 98.9134 108.9C101.356 109.523 103.835 109.187 106.022 112.151C107.829 114.609 112.451 115.016 115.854 116.384C117.018 116.862 118.201 117.497 119.307 118.142C119.144 118.721 118.971 119.221 118.807 119.8Z" fill="#F7BF72"/>
<path d="M28.0341 25.5515C30.309 24.8454 32.584 24.1393 34.8589 23.4332C34.9645 23.0213 34.9927 22.6199 35.0983 22.208C30.9976 20.9351 26.8194 19.6726 22.7188 18.3997C22.7469 17.9983 22.6976 17.6074 22.7257 17.206C23.6456 17.0017 24.5358 16.5629 25.4176 16.6819C32.2778 17.342 39.1282 17.924 45.9504 18.9074C62.7347 21.4026 79.8655 22.8966 96.1795 27.2846C105.553 29.751 114.985 32.6865 124.341 35.6325C124.593 35.7573 124.729 36.2159 125.537 37.6174C122.166 37.7564 119.251 38.3902 116.586 37.8768C105.218 35.84 93.9556 33.3912 82.5679 31.1979C80.3097 30.7884 77.8587 30.7232 75.5527 30.5588C75.5147 30.882 75.4865 31.2834 75.3711 31.6172C83.3583 33.7149 91.3356 35.7345 99.313 37.754C104.683 39.0934 110.246 40.0885 115.52 41.9179C118.894 43.0509 121.796 45.4406 124.948 47.3192C124.698 47.8303 124.457 48.4196 124.206 48.9307C92.046 41.3636 59.9732 33.8643 27.813 26.2972C28.0158 26.0311 27.9862 25.7966 28.0341 25.5515ZM72.1043 30.7083C72.1226 30.2287 72.2183 29.7386 72.2366 29.259C69.2038 28.9546 66.0934 28.6607 63.0507 28.2781C63.0226 28.6795 62.9944 29.0809 62.9663 29.4823C65.9315 29.8754 69.0517 30.2475 72.1043 30.7083Z" fill="#F7BF72"/>
<path d="M38.9521 80.8489C66.1805 88.051 93.4089 95.253 120.637 102.455C120.647 102.533 120.647 102.533 120.58 102.622C90.1677 97.0444 59.7657 91.545 29.751 85.9932C31.0005 85.9032 32.7923 85.7398 34.594 85.6545C34.6419 85.4095 34.6799 85.0862 34.6503 84.8517C31.4511 83.8541 28.252 82.8566 25.1304 81.8485C25.1684 81.5252 25.2064 81.202 25.2444 80.8788C27.1813 80.6161 29.1182 80.3535 31.1325 80.0803C31.1706 79.7571 31.2086 79.4338 31.3241 79.1001C28.0277 77.9567 24.8089 76.8027 21.5125 75.6593C21.5407 75.2579 21.5012 74.9452 21.5294 74.5438C24.1058 74.3534 26.778 73.673 29.2009 74.1396C54.3119 78.9251 79.3652 83.8774 104.496 88.8193C106.512 89.1821 108.422 89.9568 110.256 91.378C86.5229 87.519 62.8769 83.7277 39.1436 79.8687C39.0281 80.2025 38.9901 80.5257 38.9521 80.8489Z" fill="#F7BF72"/>
<path d="M32.3687 112.357C36.4888 109.413 39.5118 109.639 43.5449 111.001C53.3367 114.285 63.3975 116.579 73.4104 119.117C77.4815 120.156 81.5328 121.038 85.594 121.998C85.4307 122.577 85.3546 123.223 85.1913 123.802C67.8519 120.03 50.5124 116.259 32.3687 112.357Z" fill="#F7BF72"/>
<path d="M71.9343 15.6224C59.869 13.6801 47.8037 11.7377 35.8159 9.78491C35.9116 9.2948 35.9299 8.81519 36.0355 8.40327C48.0811 10.1892 60.1943 11.8865 72.2398 13.6725C72.0863 14.3294 72.0103 14.9759 71.9343 15.6224Z" fill="#F7BF72"/>
<path d="M61.8105 125.859C54.6236 126.357 38.1053 121.599 35.0159 117.724C43.9441 120.41 52.8823 123.174 61.8105 125.859Z" fill="#F7BF72"/>
<path d="M98.0189 22.5024C88.3568 20.8704 78.7045 19.3165 69.0424 17.6845C69.1382 17.1944 69.2339 16.7043 69.3198 16.136C78.9721 17.6898 88.6243 19.2437 98.2765 20.7976C98.2005 21.444 98.1047 21.9342 98.0189 22.5024Z" fill="#F7BF72"/>
<path d="M58.7231 3.97487C53.5195 3.32865 48.3158 2.68243 43.0347 2.04672C43.1305 1.55661 43.1488 1.07701 43.2445 0.586896C48.458 1.3113 53.6715 2.0357 58.885 2.7601C58.7695 3.09384 58.7513 3.57345 58.7231 3.97487Z" fill="#F7BF72"/>
<path d="M100.491 14.6128C104.755 15.3069 109.096 15.9905 113.36 16.6846C113.274 17.2529 113.188 17.8212 113.093 18.3113C108.819 17.539 104.545 16.7667 100.193 16.0049C100.299 15.593 100.395 15.1029 100.491 14.6128Z" fill="#F7BF72"/>
</svg>
