<svg width="118" height="155" viewBox="0 0 118 155" fill="none" xmlns="http://www.w3.org/2000/svg">
<path d="M97.5147 151.002C91.6782 141.436 89.9385 129.688 93.1226 118.868C93.446 117.739 93.8103 116.635 94.2565 115.577C99.6287 116.106 105.059 114.64 109.492 111.119C115.753 106.132 118.974 98.1828 117.74 90.2901C117.434 88.3595 115.206 88.0584 113.812 88.6776C104.112 92.718 95.9996 100.252 91.1283 109.549C90.2147 109.24 89.2601 108.908 88.3766 108.452C76.3292 102.367 75.4067 86.2685 84.7537 77.256C87.3206 74.7933 83.6318 71.3462 80.9615 73.4203C75.091 77.9199 68.2291 82.3398 60.5834 82.2511C53.595 82.1585 47.4755 77.9096 46.5369 70.7355C46.4077 69.7292 46.3604 68.7701 46.3778 67.7936C48.2678 66.6936 50.0996 65.5052 51.8323 64.2046C60.968 57.2622 67.5978 47.2823 70.1678 36.1071C70.709 33.844 68.2785 32.0009 66.2419 33.0711C55.0937 38.96 42.8824 51.1402 41.1266 64.5946C37.0019 66.5406 32.5819 67.7679 27.9854 68.0712C19.1976 68.6377 11.3735 64.8834 7.67661 56.7183C4.1995 49.1185 4.83424 39.7846 8.23996 32.2712C13.4757 20.8279 23.3765 12.4643 32.7643 4.51667C35.4238 2.27191 31.6316 -1.56382 28.9721 0.680938C19.3601 8.82784 9.2934 17.4792 3.79257 29.0981C-0.317949 37.7388 -1.3687 47.9833 2.04143 57.0241C5.53772 66.3888 13.3658 72.5021 23.3775 73.41C29.4069 73.9349 35.4582 72.7185 41.1108 70.3949C41.227 71.613 41.4488 72.8373 41.8172 74.0915C44.0465 82.3403 51.5537 87.1172 59.8135 87.5609C65.0112 87.8243 69.8901 86.3689 74.3985 84.0417C70.7833 95.3253 75.085 108.499 87.0787 113.731C87.6993 113.98 88.3199 114.229 88.9232 114.413C88.5417 115.453 88.1838 116.452 87.8842 117.54C84.3464 129.635 86.282 143.031 92.8338 153.722C94.6242 156.675 99.346 153.978 97.5147 151.002ZM62.7714 41.6431C59.5769 49.169 54.2684 55.9116 47.6156 60.7264C50.1356 53.1396 56.2478 46.423 62.7714 41.6431ZM112.63 95.1744C112.192 99.9086 109.495 104.489 105.677 107.324C103.036 109.251 99.9677 110.218 96.8452 110.332C100.585 103.943 106.119 98.7012 112.63 95.1744Z" fill="#FFEED5"/>
</svg>
