<svg width="133" height="128" viewBox="0 0 133 128" fill="none" xmlns="http://www.w3.org/2000/svg">
<path d="M24.4444 98.4492C29.3511 95.848 34.3132 93.3028 39.2199 90.7017C38.9972 90.2547 38.8295 89.7522 38.6067 89.3052C31.3238 91.7297 24.096 94.0986 16.8131 96.523C14.8653 92.8909 15.9065 90.7205 19.4361 89.1732C22.4142 87.8469 25.7242 86.6333 26.6479 82.6781C26.8654 81.7868 28.4101 81.2354 29.4024 80.6818C48.9749 70.5557 68.6024 60.3741 88.1749 50.248C90.0494 49.2518 91.9234 48.1441 93.7424 47.0919C93.5755 46.8124 93.4087 46.533 93.2419 46.2535C62.4205 61.7992 31.4887 77.3445 0.667308 92.8902C0.445018 92.5548 0.22229 92.1078 0 91.7724C11.6301 84.9603 23.3708 78.1486 35.0009 71.3365C34.8895 71.113 34.8336 70.9455 34.7223 70.7221C24.5753 75.3655 14.4833 79.9533 4.33636 84.5967C4.00315 84.1493 3.78042 83.7024 3.4472 83.255C8.78495 77.8676 14.1777 72.4246 19.5155 67.0373C19.2932 66.7018 19.1259 66.3108 18.9036 65.9754C13.6061 67.5156 8.25356 69.1113 3.01151 70.7075C5.43406 68.5983 9.02222 67.8877 8.50781 63.4807C8.45104 63.0901 10.1054 62.3161 11.043 61.9295C40.935 48.8892 70.8829 36.0165 100.775 23.0877C102.871 22.2039 104.967 21.3201 107.007 20.3803C107.23 20.8273 107.563 21.2747 107.786 21.7216C102.881 24.6574 98.0304 27.5375 93.0696 30.4173C93.1255 30.5848 93.1814 30.7523 93.2923 30.8642C99.2506 28.7691 105.264 26.6184 111.222 24.5232C111.389 24.9142 111.557 25.3052 111.779 25.7522C110.016 26.7488 108.197 27.9125 106.377 28.7417C91.7637 35.5419 77.0389 42.1187 62.481 48.9749C59.5033 50.4128 56.8598 52.5211 54.1049 54.406C54.2722 54.797 54.4949 55.2439 54.7172 55.5794C69.0589 49.949 83.3457 44.3741 98.5701 38.4127C97.6918 39.8589 97.3625 40.4152 96.5938 41.6388C103.157 38.9328 109.169 36.4475 115.126 34.0178C115.404 34.4092 115.626 34.7446 115.904 35.1361C111.387 38.4636 106.98 41.7917 102.463 45.1192C102.575 45.3427 102.686 45.5662 102.797 45.7897C111.515 42.9249 120.343 40.0605 129.061 37.1957C100.345 54.311 70.2924 68.7446 39.9616 82.5638C40.1843 83.0107 40.407 83.4577 40.5743 83.8487C45.6482 81.6385 50.6667 79.3723 55.7965 77.3297C56.7341 76.9431 58.5479 74.5526 59.1134 77.9004C60.162 77.6258 61.3215 77.4631 62.3142 77.021C83.7105 67.0695 105.106 57.0064 126.558 46.9993C127.771 46.4466 128.985 46.0053 130.253 45.5085C130.476 45.844 130.698 46.1794 130.92 46.5148C130.15 47.2924 129.491 48.405 128.498 48.8471C115.156 55.8197 101.759 62.7363 88.4162 69.5973C72.8131 77.6203 57.2655 85.6993 41.5507 93.3874C36.3125 95.9872 30.573 97.5256 25.0563 99.511C24.7789 99.2311 24.6117 98.8401 24.4444 98.4492Z" fill="#FFEED5"/>
<path d="M139 78.4411C113.364 92.1116 87.7838 105.727 62.1481 119.397C61.8708 119.117 61.6485 118.782 61.3712 118.502C62.4713 117.28 63.5715 116.057 65.3865 114.001C61.4704 115.603 58.3814 116.817 54.4652 118.419C55.3426 116.749 55.8916 115.859 56.6048 114.58C53.4045 115.571 50.4797 116.396 46.5068 117.606C48.5978 115.496 49.8085 114.274 51.2942 112.774C49.9111 112.267 48.8045 111.817 46.5916 111.027C73.7689 96.0246 100.564 82.1914 129.358 70.9311C129.087 72.2124 128.979 72.9926 128.599 74.7197C129.647 74.1105 130.529 73.6679 131.356 73.1694C131.301 73.448 131.192 73.6706 131.193 73.8936C120.44 78.9249 109.631 83.9002 98.8777 88.9315C99.045 89.3225 99.2118 89.602 99.3791 89.993C105.059 87.2833 110.738 84.4622 116.584 81.9206C118.9 80.9261 120.661 79.1488 124.201 80.1666C127.132 81.0146 131.045 78.521 134.577 77.5314C135.791 77.2017 137.116 76.9839 138.386 76.8217C138.609 77.3801 138.777 77.8826 139 78.4411Z" fill="#FFEED5"/>
<path d="M9.59533 59.0243C10.9689 57.0782 12.3424 55.1321 13.7159 53.186C13.5487 52.795 13.3264 52.4595 13.1591 52.0686C9.13203 53.558 5.04992 55.1031 1.02284 56.5925C0.800553 56.2571 0.523233 55.9772 0.300943 55.6418C0.905819 54.9193 1.3443 54.0289 2.11601 53.5859C7.95772 49.929 13.744 46.2162 19.7525 42.8388C34.5812 34.5897 49.0746 25.3356 64.6838 18.8738C73.6188 15.1177 82.8867 11.6975 92.0995 8.33286C92.3755 8.2782 92.7633 8.55854 94.2573 9.17782C91.6692 11.3421 89.7446 13.6206 87.3185 14.8377C77.0637 20.1497 66.6415 25.0708 56.2757 30.271C54.2358 31.3223 52.2526 32.7641 50.324 34.0389C50.4908 34.3184 50.7131 34.6538 50.8249 34.9888C58.4362 31.7851 65.9921 28.5253 73.5479 25.2656C78.6219 23.0554 83.639 20.4547 88.9357 18.6915C92.3011 17.5339 96.0583 17.6604 99.7028 17.2288C99.8154 17.7868 99.9836 18.4008 100.096 18.9589C69.9855 32.5558 39.9852 46.1533 9.87439 59.7502C9.87308 59.4157 9.70669 59.2477 9.59533 59.0243ZM47.6809 36.2588C47.4031 35.8674 47.1804 35.4204 46.9026 35.029C44.3124 36.6357 41.6671 38.2979 39.0214 39.8487C39.2437 40.1841 39.466 40.5195 39.6883 40.855C42.2789 39.3598 44.9797 37.7535 47.6809 36.2588Z" fill="#FFEED5"/>
<path d="M51.9478 96.2166C77.9258 85.3354 103.904 74.4542 129.882 63.573C129.937 63.6289 129.937 63.629 129.938 63.7405C102.425 77.8496 74.9686 92.0147 47.787 105.902C48.7229 105.069 50.044 103.848 51.4206 102.683C51.3092 102.459 51.1424 102.18 50.976 102.012C47.8316 103.17 44.6871 104.329 41.5977 105.431C41.4309 105.152 41.264 104.873 41.0972 104.593C42.4729 103.205 43.8486 101.816 45.2794 100.372C45.1125 100.093 44.9457 99.8131 44.8339 99.4781C41.5235 100.58 38.2681 101.627 34.9577 102.729C34.7354 102.393 34.5136 102.169 34.2913 101.834C36.2181 100.113 37.9223 97.9451 40.1278 96.8387C62.9543 85.3316 85.8368 73.992 108.774 62.5969C110.594 61.6562 112.58 61.1065 114.901 61.1158C93.7311 72.5179 72.672 83.9205 51.5023 95.3227C51.6141 95.6577 51.781 95.9372 51.9478 96.2166Z" fill="#FFEED5"/>
<path d="M65.9275 125.211C67.4002 120.366 69.935 118.703 73.9625 117.325C83.7278 113.963 93.1026 109.651 102.589 105.562C106.45 103.905 110.199 102.136 114.005 100.422C114.228 100.981 114.561 101.54 114.784 102.098C98.7377 109.673 82.6909 117.249 65.9275 125.211Z" fill="#FFEED5"/>
<path d="M38.3534 24.4008C27.6033 30.2127 16.8532 36.0247 6.15807 41.7811C5.93534 41.3341 5.65759 40.9427 5.49033 40.5517C16.1295 34.6278 26.7683 28.5924 37.4075 22.6685C37.6861 23.2829 38.0197 23.8419 38.3534 24.4008Z" fill="#FFEED5"/>
<path d="M97.4995 117.976C92.1041 122.75 76.1076 129.043 71.2966 127.853C80.0124 124.542 88.7837 121.287 97.4995 117.976Z" fill="#FFEED5"/>
<path d="M63.2282 13.9612C54.5727 18.5548 45.9726 23.2044 37.317 27.7979C37.0943 27.351 36.8715 26.904 36.5934 26.4011C45.1935 21.7515 53.7935 17.102 62.3936 12.4524C62.7273 13.0113 62.95 13.4583 63.2282 13.9612Z" fill="#FFEED5"/>
<path d="M20.7808 23.2157C16.2611 25.8742 11.7414 28.5326 7.16661 31.2466C6.94388 30.7997 6.66613 30.4083 6.4434 29.9613C11.0186 27.3588 15.5938 24.7563 20.169 22.1539C20.2808 22.4889 20.5585 22.8803 20.7808 23.2157Z" fill="#FFEED5"/>
<path d="M60.3804 6.19941C64.1843 4.15145 68.0433 2.04796 71.8472 0C72.1254 0.502937 72.4036 1.00587 72.6263 1.45283C68.7669 3.44481 64.9075 5.43679 60.9931 7.4843C60.8259 7.09333 60.6031 6.64637 60.3804 6.19941Z" fill="#FFEED5"/>
</svg>
