<svg width="114" height="120" viewBox="0 0 114 120" fill="none" xmlns="http://www.w3.org/2000/svg">
<path d="M31.1768 100.563C28.5439 103.625 25.7751 106.595 23.3199 109.792C22.0557 111.441 20.8019 112.782 18.775 111.606C16.6332 110.359 16.2884 108.245 17.5735 106.183C20.3527 101.697 23.2781 97.2942 26.1304 92.85C26.7886 91.8291 27.405 90.7877 27.4991 89.2925C24.396 92.7262 21.4497 96.3249 18.1168 99.5215C16.675 100.903 14.3555 101.336 12.5898 102.429C11.1062 103.347 9.76886 104.523 8.4942 105.719C6.81208 107.317 5.55832 110.586 2.69558 108.73C-0.208959 106.853 2.38214 104.358 3.24932 102.254C3.8553 100.8 4.83741 99.4905 5.88221 97.717C1.15972 95.7578 2.80006 92.5922 4.24188 89.2925C6.73894 83.5903 9.06884 77.8159 10.9808 71.7734C7.58523 76.3723 4.18964 80.9815 0.783598 85.5804C0.522399 85.4566 0.261199 85.3226 0 85.1989C0.585086 83.549 0.908974 81.7548 1.79705 80.2803C8.85988 68.5149 15.2645 56.2649 23.3408 45.2111C33.9141 30.7441 45.8039 17.2052 57.234 3.3569C58.5713 1.738 59.9505 -1.30388 62.6565 0.614053C63.3043 1.07807 62.249 4.88299 61.1311 6.62563C47.2039 28.455 33.0992 50.1915 19.0571 71.959C18.3362 73.0829 17.7198 74.279 17.5213 75.8567C18.8377 74.2894 20.175 72.722 21.4706 71.134C34.7813 54.842 48.0293 38.5189 61.4132 22.2887C64.067 19.0715 67.17 16.2153 70.0955 13.2146C70.691 12.6063 71.3597 11.7607 72.091 11.6473C73.4075 11.4308 75.309 11.1936 76.0194 11.8948C76.6986 12.565 76.6881 14.7717 76.0717 15.6997C73.2089 19.979 70.0119 24.0623 66.9402 28.2075C61.1833 35.9823 55.4265 43.7571 50.1189 51.996C50.8503 51.3258 51.6234 50.7071 52.3026 49.9956C59.8251 42.1898 67.3372 34.3634 74.8493 26.5473C76.3015 25.0419 77.6807 23.4436 79.227 22.0516C80.8569 20.577 82.3718 17.6176 84.9838 19.5149C87.8361 21.5875 85.4853 23.9282 84.0957 25.8359C80.1986 31.2081 76.2075 36.4979 72.4358 42.0351C74.5567 40.0657 76.6777 38.0962 78.7882 36.1267C79.5927 35.3739 80.2718 34.1984 81.2225 33.9303C82.4867 33.5591 84.0748 33.5901 85.2868 34.0438C85.7256 34.2088 85.7152 36.1679 85.4958 37.2197C85.2555 38.3643 84.5346 39.416 84.0226 40.5297C84.3256 40.6225 84.5763 40.7771 84.6599 40.7153C86.4883 39.2717 88.5988 37.065 90.6466 39.3748C91.3884 40.2203 90.2496 43.4169 89.163 44.9945C84.8584 51.2226 80.2404 57.2239 76.3642 63.8439C80.1882 59.6677 84.0122 55.4916 87.8257 51.3154C89.6541 49.315 91.3048 47.1084 93.3944 45.407C94.4601 44.5408 96.3094 44.5924 97.8035 44.2315C97.7617 45.6648 98.2632 47.428 97.5945 48.4695C92.4228 56.533 87.0316 64.4522 81.7136 72.423C80.9822 73.516 80.2822 74.6296 80.021 76.1557C81.4106 74.7637 82.8106 73.3819 84.2002 71.9899C90.9809 65.174 97.7408 58.3479 104.532 51.5423C105.483 50.5833 106.423 49.4594 107.614 48.9335C108.659 48.4695 110.508 48.222 111.156 48.8098C111.929 49.5006 112.19 51.233 111.981 52.3981C111.783 53.4912 110.738 54.4707 110.007 55.44C102.401 65.5246 94.7736 75.5989 87.5854 86.1784C91.5765 83.415 95.5049 80.5484 99.5901 77.9087C101.857 76.4444 104.417 73.65 107.144 76.0938C109.662 78.3521 107.332 81.2393 106.151 83.4562C103.936 87.6221 101.23 91.5301 98.1483 96.4899C102.359 94.0873 105.566 92.0663 108.941 90.4165C110.237 89.7875 111.94 89.9731 113.455 89.7875C113.601 91.2723 114.353 93.0356 113.799 94.1904C111.438 99.1502 108.69 103.924 106.131 108.688C107.008 109.678 108.889 110.905 108.763 111.895C108.617 113.071 106.789 114.081 105.598 115.05C104.939 115.587 104.114 116.123 103.31 116.226C101.815 116.412 100.28 116.267 98.7647 116.267C98.9423 114.947 98.7647 113.442 99.3498 112.328C102.484 106.379 105.807 100.532 108.68 94.1389C104.751 96.9024 100.854 99.7174 96.884 102.409C94.8258 103.811 92.5795 106.585 90.1765 104.543C89.3093 103.811 90.5735 99.9442 91.5974 97.8613C93.5198 93.943 95.9751 90.2721 97.7094 85.9619C96.8109 86.6115 95.8915 87.2405 95.0243 87.9211C88.7869 92.7571 82.6435 97.7066 76.2806 102.367C75.006 103.306 72.3627 104.048 71.4015 103.388C70.2208 102.584 70.1477 100.202 69.5939 98.5109C70.0328 98.6862 70.482 98.8718 70.9208 99.0471C65.2789 104.131 59.6161 109.204 53.9951 114.308C52.4906 115.679 51.2055 118.02 48.7816 116.278C46.3054 114.504 47.2771 112.215 48.5935 110.091C49.9309 107.936 51.216 105.76 52.522 103.594C52.1145 103.234 51.7175 102.873 51.31 102.512C49.0219 105.152 46.9532 108.018 44.383 110.369C41.468 113.04 39.3471 112.431 37.2366 108.513C34.7709 111.256 32.4201 113.896 30.0484 116.515C29.1394 117.515 28.3662 118.845 27.217 119.371C25.9423 119.959 24.3229 119.825 22.8497 120C22.7766 118.556 22.1288 116.814 22.7243 115.731C24.9289 111.771 27.5513 108.049 30.0066 104.223C30.6439 103.223 31.229 102.192 31.8454 101.182C31.6469 100.965 31.4066 100.769 31.1768 100.563Z" fill="#FFEED5"/>
</svg>
