<svg width="145" height="83" viewBox="0 0 145 83" fill="none" xmlns="http://www.w3.org/2000/svg">
<path d="M144.729 48.4956C143.879 45.421 140.478 42.1185 137.416 44.8516C135.149 46.9013 137.076 50.4885 139.344 50.2038L139.401 50.3745C139.231 51.1147 139.117 51.9119 138.947 52.6521C138.437 54.4172 137.757 56.1253 137.02 57.7765C135.489 61.0789 133.448 64.0967 131.011 66.7728C126.249 72.0681 119.276 76.794 111.963 77.1925C103.573 77.648 101.022 70.246 102.326 63.0718C102.382 62.6732 102.496 62.2747 102.609 61.8761C107.995 56.8655 112.246 50.6023 115.818 44.2253C117.348 41.5492 113.834 39.3855 111.623 40.695C104.933 44.6807 100.058 51.0009 97.6772 58.4029C90.2509 65.0077 81.0672 68.9934 70.9198 65.2355C60.659 61.4206 56.8608 50.887 55.6136 40.2965C58.9583 37.5065 62.0762 34.4888 65.024 31.3002C71.1465 24.5815 81.0105 13.4217 74.3211 4.02684C71.3733 -0.186594 66.1578 -0.983786 61.6794 1.12293C57.371 3.11577 54.3097 6.93066 52.4957 11.258C49.0943 19.2863 48.9809 29.0227 49.7746 37.7912C47.9038 39.2716 45.9764 40.6381 43.9923 41.9477C37.1328 46.5028 29.1963 50.6593 20.7496 50.4315C16.4412 50.3177 12.2461 48.7803 9.58171 45.1932C6.97399 41.6061 6.23704 36.9371 5.84021 32.6098C5.10325 25.094 5.61346 13.9341 13.7767 10.5747C17.1214 9.20822 15.194 3.85601 11.8493 5.22253C2.72228 8.98045 0.0578579 19.0016 0.00116843 28.1117C-0.0555211 37.5065 1.92861 48.6095 10.7722 53.6201C19.5023 58.5737 30.897 55.6129 39.287 51.3425C43.2553 49.3497 47.0535 46.9583 50.6249 44.3391C51.9288 52.0827 54.7066 59.7694 60.4889 65.2924C68.4821 72.9791 80.557 73.7762 90.4776 69.7906C92.5751 68.9365 94.5025 67.9685 96.3733 66.7728C96.3733 72.1819 98.074 77.5341 102.779 80.6088C109.639 85.1069 118.596 82.5447 125.172 78.7868C132.314 74.7441 138.153 68.3671 141.838 61.022C143.426 57.4919 145.807 52.4813 144.729 48.4956ZM55.1034 27.4854C55.3301 20.2542 56.4072 9.72067 63.9469 6.30437C68.6522 4.19765 71.4866 8.52495 70.5229 12.9092C69.5025 17.4073 66.0444 21.2791 63.1533 24.7523C60.6589 27.77 57.9379 30.56 55.0467 33.1792C55.0467 31.1864 55.0467 29.2505 55.1034 27.4854Z" fill="#FFEED5"/>
</svg>
