<svg width="91" height="145" viewBox="0 0 91 145" fill="none" xmlns="http://www.w3.org/2000/svg">
<path d="M81.3929 140.068C77.0678 136.558 72.9247 130.542 74.3173 124.697C80.2733 124.445 86.0749 121.942 90.1737 117.538C91.4279 116.155 91.2734 113.902 89.5795 112.958C82.9985 109.308 74.7029 112.409 70.7247 118.484C65.0183 117.392 59.9335 113.3 58.2198 106.784C54.7076 93.5013 68.6991 81.6541 80.0641 77.3837C80.5239 77.2387 80.9124 77.0748 81.3723 76.9298C84.8823 75.6867 83.5274 70.1048 79.9199 71.2839C79.3695 71.4812 78.8643 71.6523 78.3139 71.8496C71.7989 74.1645 65.0699 76.4226 58.1209 76.1064C51.7618 75.8702 44.5657 72.5149 42.1204 66.3009C41.5399 64.7746 41.3093 63.2268 41.4287 61.6572C43.6701 61.1455 45.8142 60.5699 47.9582 59.9943C56.7417 57.6323 66.4313 54.748 73.5273 48.7366C78.5921 44.4363 84.7612 32.9564 74.5602 30.6729C70.3838 29.7188 65.3833 31.1006 61.4134 32.4887C57.055 34.0406 52.9897 36.204 49.3602 39.0165C43.7381 43.3979 38.4382 49.6946 36.4586 56.7186C31.807 57.6592 27.0638 58.2323 22.4228 58.1464C15.8112 57.9958 7.37829 55.1133 5.98653 47.6917C5.27763 43.9584 6.94131 40.3581 8.62527 37.1063C10.6186 33.1359 12.9234 29.2861 15.3516 25.5452C20.2986 18.0113 26.174 11.1428 32.7185 4.90902C35.4476 2.31536 31.2767 -1.76339 28.5476 0.830267C21.2464 7.74038 14.8157 15.5293 9.43016 23.9763C4.92276 31.0167 -1.55597 40.3941 0.338181 49.2068C2.16675 57.6973 10.5334 62.659 18.6249 63.6973C24.1683 64.4036 29.9228 63.9078 35.6242 62.9023C35.8457 71.5387 42.9524 78.1871 50.9245 80.795C54.6478 82.0103 58.479 82.2629 62.3478 81.9537C54.445 89.3906 49.3873 99.4495 53.1587 109.941C55.6446 116.852 61.3167 122.587 68.6255 124.257C67.3275 131.728 71.65 139.621 77.404 144.348C80.1575 146.603 84.2959 142.476 81.3929 140.068ZM48.1693 47.9269C53.2505 42.2966 60.0468 38.3788 67.471 36.8004C69.0906 36.4671 70.8722 36.1004 72.5448 36.2767C74.6648 36.4953 74.3757 37.5624 73.5631 39.2914C72.0864 42.4838 69.2985 44.8713 66.3149 46.7112C60.1211 50.5218 52.8213 52.6287 45.858 54.4817C44.9576 54.7006 44.0832 54.9646 43.1828 55.1835C44.4985 52.4441 46.3657 49.9271 48.1693 47.9269Z" fill="#F7BF72"/>
</svg>
