<svg width="87" height="97" viewBox="0 0 87 97" fill="none" xmlns="http://www.w3.org/2000/svg">
<path d="M53.3891 62.581C53.2916 60.6134 54.6748 58.8729 56.5528 58.7223C58.6185 58.5567 62.2587 61.8204 62.3706 63.9843C62.4681 65.9519 61.0307 67.598 59.1528 67.7486C56.8559 67.9822 53.5154 64.9413 53.3891 62.581Z" fill="#F7BF72"/>
<path d="M18.8208 32.9265C18.6134 29.5656 21.0407 27.7136 23.4346 28.6049C24.1832 28.8896 24.8057 29.4287 25.4246 29.9191C33.4622 36.8336 41.4073 43.8042 49.4449 50.7187C50.9457 51.9729 51.8314 53.4215 51.1569 55.3824C50.3341 57.9421 47.4214 58.5103 45.0386 56.4924C40.3732 52.4979 35.7521 48.4511 31.0867 44.4566C27.6107 41.4467 24.0866 38.4406 20.6551 35.3783C19.8139 34.5136 19.1951 33.3869 18.8208 32.9265Z" fill="#F7BF72"/>
<path d="M6.4358 21.3411C6.33578 19.3912 7.75514 17.6662 9.68215 17.517C11.8019 17.3528 15.5372 20.5873 15.652 22.7319C15.752 24.6818 14.2771 26.3131 12.3501 26.4624C9.99323 26.6938 6.56544 23.6802 6.4358 21.3411Z" fill="#F7BF72"/>
<path d="M72.9663 14.7513C74.2544 12.4159 76.732 12.2541 78.0173 13.9089C78.4166 14.4302 78.6199 15.0657 78.8413 15.6671C81.485 23.8411 84.0403 32.0115 86.684 40.1855C87.1934 41.6871 87.192 43.0462 85.8872 44.0567C84.224 45.4013 81.9559 44.4911 81.1585 42.0893C79.6159 37.3574 78.1265 32.6102 76.5838 27.8783C75.4489 24.3303 74.2789 20.7634 73.1973 17.2001C72.9807 16.2505 73.0304 15.2244 72.9663 14.7513Z" fill="#F7BF72"/>
<path d="M69.2097 1.46191C69.9712 0.115951 71.6936 -0.407252 73.0975 0.346178C74.6418 1.17495 75.8614 4.98776 75.0273 6.47021C74.2658 7.81617 72.5447 8.2523 71.1408 7.49887C69.4028 6.61004 68.303 3.08084 69.2097 1.46191Z" fill="#F7BF72"/>
<path d="M18.3318 89.702C22.4113 89.8278 26.9774 89.9059 31.5518 90.0277C34.9458 90.1034 38.3047 90.2312 41.707 90.3506C44.3369 90.4366 45.8798 91.6815 45.853 93.6794C45.8512 95.8085 44.2858 97.0589 41.5254 96.9979C33.878 96.8295 26.2139 96.5738 18.5934 96.3098C16.4667 96.2635 15.0294 94.8625 14.9754 93.1518C14.9214 91.441 16.0623 90.0906 18.3318 89.702Z" fill="#F7BF72"/>
<path d="M5.78341 95.7698C2.72283 96.2644 0.448994 95.2045 0.0511996 93.1066C-0.280296 91.3584 1.03862 89.521 2.82983 89.2238C5.97739 88.7126 8.30299 89.8078 8.68216 92.0452C8.95154 93.9412 7.79205 95.431 5.78341 95.7698Z" fill="#F7BF72"/>
</svg>
