<svg width="77" height="131" viewBox="0 0 77 131" fill="none" xmlns="http://www.w3.org/2000/svg">
<path d="M43.9283 65.8608C45.0857 72.7836 46.2914 79.6582 47.4488 86.5809C47.5453 87.3501 47.8346 88.2154 47.69 88.9365C47.5936 89.6096 47.0151 90.7633 46.7258 90.7633C45.9544 90.7633 44.8455 90.3306 44.5562 89.7537C43.6883 88.0229 43.0614 86.2442 42.531 84.3693C40.2646 76.6292 38.0464 68.8411 35.2497 61.1492C36.4554 68.2161 37.7093 75.235 38.8667 82.2538C39.7348 87.3497 40.6511 92.4937 41.4228 97.6857C41.5675 98.7914 40.8925 100.041 40.6515 101.243C39.7354 100.33 38.3372 99.5124 38.0479 98.3586C35.5887 90.8108 33.5151 83.167 31.297 75.5712C30.9112 74.3212 30.5736 73.0232 29.4647 71.9175C31.9725 86.3398 34.432 100.81 36.9398 115.136C34.1436 116.771 33.2274 115.184 32.6488 113.357C30.4789 106.098 28.4053 98.8388 26.2836 91.5315C25.4156 88.5509 24.6441 85.5702 23.1011 82.7819C24.6926 91.7718 26.3323 100.714 27.7791 109.752C28.0685 111.578 29.8043 114.078 27.008 115.232C26.5741 115.376 24.4526 112.588 23.8739 110.857C21.2218 103.309 18.8108 95.6174 16.3034 88.0216C15.9176 86.8678 15.4836 85.7621 14.4229 84.8005C15.7732 92.3002 17.1236 99.7998 18.4739 107.299C19.8242 114.03 21.0781 120.856 22.1873 127.635C22.3802 128.692 21.5607 129.894 21.2232 131C20.3553 130.135 19.0053 129.462 18.6678 128.452C16.4497 121.433 14.4244 114.414 12.3509 107.347C11.8204 105.665 11.3864 103.982 10.2775 102.492C11.3867 109.655 12.5924 116.914 13.7981 124.269C10.134 125.231 10.1821 122.875 9.84449 121.096C7.81899 109.943 5.88993 98.7896 3.96086 87.6364C2.7552 80.8579 1.54954 74.0794 0.392094 67.2528C0.199185 66.0991 -0.0419348 64.9933 0.00622326 63.8876C0.0544051 63.2627 0.632913 62.3012 1.06682 62.157C1.59716 62.0128 2.65786 62.4936 2.94717 63.0705C3.67043 64.3686 4.20084 65.7627 4.53839 67.1569C6.6119 74.32 8.6372 81.5312 10.6625 88.7424C11.0965 90.2327 11.5305 91.7231 12.6394 93.0211C11.3373 85.7619 10.0352 78.5026 8.78133 71.2915C8.20261 67.8301 7.43103 64.3688 7.04516 60.9074C6.90047 59.8978 7.67182 58.7441 8.00925 57.6384C8.82891 58.3596 10.1307 58.8884 10.4682 59.8019C12.4934 65.5708 14.2776 71.3879 16.1582 77.2049C17.4119 81.2432 18.5692 85.2815 20.4497 89.1756C18.0384 75.8109 15.7235 62.4462 13.4087 49.0815C13.1193 47.5431 12.8782 45.9567 12.7335 44.3702C12.6852 43.8414 13.3119 42.928 13.6494 42.88C14.2762 42.8319 15.3369 43.1204 15.6262 43.6012C16.3977 44.9473 17.0727 46.3895 17.4585 47.9279C20.1589 57.4467 22.7628 66.8694 25.3668 76.3881C25.6561 77.4458 26.0419 78.5034 26.958 79.4169C25.9935 73.7441 25.0289 68.0713 24.0162 62.4466C22.6658 54.8508 21.3637 47.3032 20.0134 39.7074C19.8687 38.6978 19.6276 37.6883 19.7722 36.6787C19.8203 36.1499 20.3989 35.2846 20.8328 35.2366C21.4595 35.1885 22.472 35.5251 22.7131 36.0539C23.6775 37.9769 24.449 39.9961 25.124 42.0152C26.8118 47.5438 28.2584 53.1205 29.8497 58.6491C30.1873 59.7548 30.573 60.9086 31.5856 61.822C29.9941 53.3128 28.4991 44.8037 27.0041 36.2945C26.7147 34.7561 26.3771 33.1697 26.3289 31.5832C26.2806 30.8621 27.0038 30.141 27.4376 29.4199C28.1609 29.8526 29.1733 30.0931 29.5109 30.718C30.3788 32.4487 31.0538 34.2756 31.5843 36.0544C33.6096 42.881 35.5866 49.7556 37.5155 56.5822C37.853 57.688 38.287 58.7937 39.1549 59.7552C37.6599 51.3422 36.2131 42.8811 34.7663 34.5161C34.5733 33.2662 34.284 32.0163 34.3322 30.8144C34.3803 30.1895 34.9106 29.1799 35.3927 29.0838C35.9713 28.9877 37.032 29.4685 37.2731 29.9973C38.0928 31.4876 38.7196 33.0741 39.1536 34.6606C40.9378 40.7661 42.5773 46.8235 44.3133 52.977C44.6026 54.0347 44.9884 54.9962 45.9045 55.9096C44.5059 48.1696 43.1556 40.4777 41.8052 32.6897C41.5159 31.2474 41.2265 29.8052 41.1783 28.3149C41.13 27.69 41.8531 26.4881 42.1424 26.4882C42.8656 26.5363 43.8781 26.969 44.2638 27.5459C45.0353 28.7958 45.5657 30.19 45.9997 31.5842C48.6518 39.9973 51.304 48.4103 53.9079 56.8715C54.2454 57.8811 54.6312 58.9387 55.5955 59.8041C55.0167 56.3427 54.438 52.8814 53.8593 49.42C52.3161 40.9589 50.6764 32.4978 49.326 24.0367C49.0849 22.4503 47.3973 19.9023 50.2418 19.2775C50.965 19.1333 52.7972 21.7294 53.3277 23.3158C55.6904 30.479 57.764 37.8344 59.9339 45.0937C60.3197 46.3436 60.7054 47.5935 61.7662 48.7474C60.5605 42.065 59.4513 35.3827 58.2456 28.7003C56.7988 20.2393 55.2556 11.7782 53.857 3.26899C53.7123 2.25943 54.339 1.15376 54.6282 0C55.5443 0.817303 56.9907 1.39426 57.2801 2.35575C60.6073 13.2687 63.7417 24.2778 66.9243 35.2388C67.2136 36.2965 67.5511 37.306 68.5154 38.1714C66.5382 26.7778 64.6091 15.4322 62.5836 3.79824C64.8495 3.65413 66.0067 4.03877 66.4407 6.39442C69.913 26.4895 73.53 46.5366 76.9541 66.5836C77.1952 67.7854 76.4239 69.1315 76.0865 70.4295C75.0739 69.4199 73.4829 68.6025 73.0971 67.3526C69.9628 57.4011 67.0213 47.4496 64.0316 37.4501C63.6941 36.4405 63.3565 35.431 62.4887 34.5656C63.839 41.8729 65.1893 49.1802 66.4914 56.4395C67.6971 63.2179 68.9509 70.0445 70.012 76.8711C70.2049 77.9287 69.4817 79.1305 69.1925 80.2843C68.3246 79.4189 66.9264 78.6977 66.5889 77.592C63.8885 69.3232 61.4293 60.9101 58.8736 52.5932C58.536 51.5836 58.1985 50.574 57.4753 49.6606C59.4043 60.8138 61.3334 71.8709 63.2625 83.0242C63.3589 83.6973 63.6964 84.4184 63.6001 84.9953C63.4555 85.8125 62.9251 86.5336 62.5877 87.2547C61.7681 86.822 60.6591 86.5816 60.177 85.9085C59.4055 84.6585 58.9715 83.2644 58.5375 81.8702C56.0783 74.2263 53.6673 66.5344 51.3045 58.8905C50.9669 57.8809 50.6294 56.8713 49.5205 56.054C50.2439 60.3326 50.9673 64.6113 51.7871 68.8899C52.9928 75.7645 54.2948 82.4469 55.3076 89.1292C55.5006 90.4753 54.8257 91.9175 54.4882 93.3116C53.4757 92.2059 51.8846 91.1962 51.4989 89.8501C49.1843 82.2543 47.1107 74.6105 44.989 67.0147C44.8925 66.6301 44.6997 66.2455 44.555 65.8128C44.314 65.8609 44.1211 65.8608 43.9283 65.8608Z" fill="#F7BF72"/>
</svg>
