<svg width="132" height="140" viewBox="0 0 132 140" fill="none" xmlns="http://www.w3.org/2000/svg">
<path d="M36.0968 117.335C33.0484 120.908 29.8427 124.373 27 128.102C25.5363 130.027 24.0847 131.591 21.7379 130.219C19.2581 128.764 18.8589 126.298 20.3468 123.891C23.5645 118.658 26.9516 113.521 30.254 108.336C31.0161 107.145 31.7298 105.93 31.8387 104.185C28.246 108.191 24.8347 112.39 20.9758 116.12C19.3065 117.732 16.621 118.237 14.5766 119.512C12.8589 120.583 11.3105 121.954 9.83468 123.35C7.8871 125.215 6.43548 129.028 3.12097 126.863C-0.241935 124.673 2.75806 121.762 3.7621 119.308C4.46371 117.611 5.60081 116.084 6.81048 114.014C1.34274 111.728 3.24194 108.035 4.91129 104.185C7.80242 97.5323 10.5 90.7952 12.7137 83.7453C8.78226 89.1109 4.85081 94.4886 0.907258 99.8542C0.604839 99.7099 0.302419 99.5535 0 99.4091C0.677419 97.4842 1.05242 95.3909 2.08065 93.6705C10.2581 79.9436 17.6734 65.6513 27.0242 52.7545C39.2661 35.8756 53.0323 20.0794 66.2661 3.9223C67.8145 2.0335 69.4113 -1.51552 72.5444 0.722167C73.2944 1.26354 72.0726 5.70283 70.7782 7.736C54.6532 33.2048 38.3226 58.5653 22.0645 83.9618C21.2298 85.2732 20.5161 86.6687 20.2863 88.5094C21.8105 86.6808 23.3589 84.8521 24.8589 82.9994C40.2702 63.9911 55.6089 44.9466 71.1048 26.0105C74.1774 22.2569 77.7702 18.9245 81.1573 15.4236C81.8468 14.7137 82.621 13.7272 83.4677 13.5949C84.9919 13.3423 87.1936 13.0656 88.0161 13.8836C88.8024 14.6656 88.7903 17.2402 88.0766 18.3229C84.7621 23.3156 81.0605 28.0797 77.504 32.916C70.8387 41.9871 64.1734 51.0582 58.0282 60.6706C58.875 59.8886 59.7702 59.1668 60.5565 58.3367C69.2661 49.2295 77.9637 40.0983 86.6613 30.9791C88.3428 29.2226 89.9395 27.3579 91.7298 25.7338C93.6169 24.0134 95.371 20.5606 98.3952 22.7742C101.698 25.1924 98.9758 27.9233 97.3669 30.149C92.8548 36.4169 88.2339 42.5886 83.8669 49.0491C86.3226 46.7512 88.7782 44.4534 91.2218 42.1555C92.1532 41.2773 92.9395 39.9058 94.0403 39.593C95.504 39.1599 97.3427 39.196 98.746 39.7253C99.254 39.9178 99.2419 42.2037 98.9879 43.4308C98.7097 44.7662 97.875 45.9933 97.2823 47.2926C97.6331 47.4009 97.9234 47.5813 98.0202 47.5091C100.137 45.8249 102.581 43.2503 104.952 45.9452C105.81 46.9317 104.492 50.6612 103.234 52.5018C98.25 59.7683 92.9032 66.7701 88.4153 74.4938C92.8428 69.6214 97.2702 64.749 101.685 59.8766C103.802 57.5427 105.714 54.9681 108.133 52.9831C109.367 51.9725 111.508 52.0326 113.238 51.6116C113.19 53.2838 113.77 55.3411 112.996 56.5561C107.008 65.9641 100.766 75.2036 94.6089 84.5032C93.7621 85.7785 92.9516 87.0778 92.6492 88.8583C94.2581 87.2342 95.879 85.6221 97.4879 83.9979C105.339 76.0457 113.165 68.0815 121.028 60.1413C122.129 59.0224 123.218 57.7111 124.597 57.0975C125.806 56.5561 127.948 56.2674 128.698 56.9532C129.593 57.7592 129.895 59.7803 129.653 61.1398C129.423 62.4151 128.214 63.558 127.367 64.6888C118.56 76.4548 109.73 88.2086 101.407 100.552C106.028 97.3278 110.577 93.9833 115.306 90.9035C117.931 89.1951 120.895 85.9349 124.052 88.7861C126.968 91.4208 124.27 94.7894 122.903 97.376C120.339 102.236 117.206 106.796 113.637 112.583C118.512 109.779 122.226 107.421 126.133 105.497C127.633 104.763 129.605 104.979 131.359 104.763C131.528 106.495 132.399 108.552 131.758 109.9C129.024 115.687 125.843 121.257 122.879 126.815C123.895 127.97 126.073 129.401 125.927 130.556C125.758 131.928 123.641 133.107 122.262 134.238C121.5 134.863 120.544 135.489 119.613 135.609C117.883 135.826 116.105 135.657 114.351 135.657C114.556 134.117 114.351 132.361 115.028 131.062C118.657 124.12 122.504 117.299 125.831 109.84C121.282 113.064 116.77 116.348 112.173 119.488C109.79 121.124 107.19 124.361 104.407 121.979C103.403 121.124 104.867 116.613 106.052 114.183C108.278 109.611 111.121 105.328 113.129 100.299C112.089 101.057 111.024 101.791 110.02 102.585C102.798 108.228 95.6855 114.002 88.3186 119.44C86.8427 120.535 83.7823 121.401 82.6694 120.631C81.3024 119.693 81.2177 116.914 80.5766 114.941C81.0847 115.145 81.6048 115.362 82.1129 115.566C75.5806 121.497 69.0242 127.416 62.5161 133.371C60.7742 134.972 59.2863 137.702 56.4798 135.669C53.6129 133.6 54.7379 130.929 56.2621 128.451C57.8105 125.937 59.2984 123.398 60.8105 120.872C60.3387 120.451 59.879 120.03 59.4073 119.608C56.7581 122.688 54.3629 126.033 51.3871 128.776C48.0121 131.892 45.5565 131.182 43.1129 126.61C40.2581 129.81 37.5363 132.89 34.7903 135.946C33.7379 137.113 32.8427 138.665 31.5121 139.279C30.0363 139.964 28.1613 139.808 26.4556 140.012C26.371 138.328 25.621 136.295 26.3105 135.032C28.8629 130.412 31.8992 126.069 34.7419 121.606C35.4798 120.439 36.1573 119.236 36.871 118.057C36.6411 117.804 36.3629 117.575 36.0968 117.335Z" fill="#FFEED5"/>
</svg>
