<svg width="141" height="114" viewBox="0 0 141 114" fill="none" xmlns="http://www.w3.org/2000/svg">
<path d="M139.897 7.51504C142.832 10.7405 137.992 15.5808 135.056 12.3553C126.107 2.53463 109.057 6.97523 102.656 17.6118C99.1153 23.5585 98.1297 30.7046 98.9793 37.4593C99.3098 40.0165 99.8819 42.5246 100.695 44.9838C100.985 45.0795 101.274 45.2718 101.563 45.3675C106.769 47.7659 112.691 52.7205 110.887 59.1449C109.912 62.5262 106.387 63.3568 103.447 61.9654C100.169 60.4302 98.393 56.9119 96.9057 53.7789C96.3298 52.6221 95.8505 51.4652 95.3714 50.2116C93.7801 49.6852 92.3814 49.3513 91.5134 49.0642C84.6173 47.0084 76.4162 45.5837 70.3692 50.4757C69.7402 51.0084 69.1594 51.5892 68.6751 52.1698C73.5902 54.9552 77.9237 58.6111 81.1923 63.3318C87.7301 72.5802 89.5297 84.738 84.6254 95.1289C83.7998 96.9171 81.5306 97.1649 79.9399 96.4454C71.6008 92.6561 66.6512 84.996 63.586 76.6065C61.3347 70.5797 58.7995 62.5266 59.8808 55.6699C58.0486 54.9994 56.2162 54.4254 54.3832 54.0445C45.3153 51.9465 34.3593 51.8329 25.5178 54.9952C15.6133 58.5467 10.7074 69.5169 8.45998 79.0799C6.01763 89.3191 6.85623 99.935 10.593 109.771C12.1741 113.869 5.5085 115.625 4.02392 111.527C0.191728 101.305 -0.645251 90.1102 1.50888 79.3892C3.71224 68.3302 9.39624 55.3307 20.0295 50.0878C30.1312 45.0878 43.2594 45.0504 54.1133 47.095C56.9595 47.6178 59.6602 48.3824 62.3119 49.3885C68.3738 39.2838 81.9361 39.3901 93.0285 42.4476C90.7427 31.5461 92.0307 19.8622 99.2474 11.0091C108.742 -0.987661 129.119 -4.32761 139.897 7.51504ZM69.0542 71.6196C71.0624 78.2745 74.2299 84.6366 79.8656 88.6266C81.7186 81.9607 80.0981 74.7255 76.4951 68.7991C73.997 64.6554 70.4829 61.4316 66.4838 58.9814C66.4236 63.1807 67.9549 67.8098 69.0542 71.6196Z" fill="#FFEED5"/>
</svg>
