<svg width="132" height="84" viewBox="0 0 132 84" fill="none" xmlns="http://www.w3.org/2000/svg">
<path d="M44.5101 28.6692C44.4358 27.8197 44.3651 27.2449 44.2981 26.9451C44.0759 25.8027 43.4861 24.8861 42.5289 24.1954C41.5698 23.4844 40.5002 23.1397 39.3199 23.1615C38.261 23.1726 37.1854 23.2259 36.0931 23.3215C35.0413 23.4135 34.3377 23.526 33.9825 23.659C33.8427 23.6916 33.7459 23.751 33.6923 23.8372C33.6572 23.9015 33.6458 24.0044 33.6582 24.146C33.7103 24.5083 33.9735 27.3999 34.4477 32.8209L35.2824 42.0117C35.3249 42.4972 35.6209 42.7362 36.1706 42.7289L37.1996 42.6083C37.4221 42.5888 37.5848 42.5848 37.6877 42.5962L37.9331 42.6053C38.3983 42.5646 38.6079 42.2813 38.5619 41.7554C38.4974 41.2514 38.4493 40.8174 38.4174 40.4533C38.404 40.0672 38.3867 39.7528 38.3655 39.5101C38.3574 39.1847 38.3242 38.6882 38.2658 38.0207C38.2144 37.4341 38.1654 36.99 38.1186 36.6884C38.1027 36.5063 38.1123 36.3832 38.1474 36.3189C38.2028 36.253 38.3206 36.2019 38.5009 36.1657C38.6812 36.1296 39.1134 36.0612 39.7976 35.9606C40.4801 35.8397 40.9971 35.6926 41.3488 35.5191C42.4611 34.953 43.3068 34.1351 43.8858 33.0653C44.4648 31.9955 44.7048 30.8942 44.6057 29.7615L44.5101 28.6692ZM37.7443 32.4102C37.5125 29.7604 37.3357 27.972 37.2138 27.0451C37.1855 26.7215 37.323 26.5464 37.6264 26.5198C37.6871 26.5145 37.8995 26.4959 38.2636 26.4641C38.6277 26.4322 38.9632 26.4233 39.2702 26.4372C39.7829 26.4738 40.2637 26.7273 40.7125 27.1976C41.1815 27.6661 41.4465 28.1321 41.5074 28.5956C41.5588 29.1822 41.5634 29.7015 41.5215 30.1536C41.4979 30.5837 41.3816 31.0015 41.1725 31.4071C40.7912 32.1742 40.0342 32.6073 38.9015 32.7064C38.5374 32.7383 38.2313 32.7345 37.9833 32.6951C37.941 32.6784 37.8869 32.6423 37.8209 32.587C37.7752 32.5298 37.7496 32.4709 37.7443 32.4102Z" fill="#F35D2D"/>
<path d="M46.3486 23.1274C46.5114 24.9884 46.8188 28.3857 47.2709 33.3195C47.7211 38.233 47.9688 40.8305 48.0138 41.1119C48.1028 41.4302 48.3117 41.6056 48.6407 41.6379C48.7031 41.6528 48.9366 41.6426 49.3412 41.6072C49.9076 41.5577 50.3416 41.5095 50.6432 41.4627C50.9062 41.4397 51.2096 41.4132 51.5535 41.3831C51.8956 41.3328 52.2293 41.3036 52.5547 41.2955C53.465 41.2159 54.2291 40.8636 54.847 40.2389C55.4852 39.6123 55.9456 38.8179 56.2283 37.8556C56.511 36.8933 56.6064 35.8862 56.5143 34.8343C56.4188 33.7421 56.117 32.7391 55.6091 31.8256C55.1213 30.9103 54.427 30.1965 53.5261 29.6843C52.6455 29.1702 51.5882 28.9672 50.3544 29.0751C50.0492 29.0814 49.9044 28.9412 49.9201 28.6545L49.79 27.1678L49.3892 22.5862C49.3626 22.2828 49.1876 22.1453 48.8639 22.1736C48.7241 22.2062 48.5328 22.2331 48.2901 22.2544C48.1283 22.2685 47.9361 22.2853 47.7136 22.3048C47.4893 22.304 47.2061 22.3288 46.864 22.3791C46.6433 22.4188 46.4978 22.5029 46.4275 22.6313C46.3554 22.7396 46.3291 22.9049 46.3486 23.1274ZM56.7083 22.3739C56.7224 22.5358 56.7817 23.2134 56.8861 24.4068C57.0108 25.5985 57.1527 27.1045 57.312 28.925C57.8836 35.4585 58.1881 39.172 58.2255 40.0656C58.2485 40.3285 58.3278 40.5356 58.4633 40.6868C58.5988 40.838 58.7677 40.9048 58.97 40.8871C59.2514 40.8421 59.4933 40.8107 59.6955 40.793C59.8996 40.7956 60.0724 40.7906 60.214 40.7783C60.5174 40.7517 60.739 40.7221 60.8789 40.6895C61.3186 40.5899 61.5154 40.2771 61.4694 39.7512C61.4436 39.2235 61.0414 34.5096 60.2627 25.6095L59.9229 21.7258C59.9159 21.6449 59.8666 21.5473 59.775 21.433C59.6835 21.3187 59.5669 21.2678 59.4254 21.2802C59.3242 21.289 59.0107 21.3164 58.4848 21.3624C57.9773 21.3865 57.593 21.4201 57.3318 21.4633C56.8719 21.5647 56.664 21.8682 56.7083 22.3739ZM50.1791 31.9644C50.8466 31.906 51.5705 32.0261 52.3508 32.3247C53.1293 32.6031 53.5814 33.4604 53.707 34.8965C53.7955 35.9079 53.6495 36.685 53.2689 37.2279C52.9068 37.7487 52.4884 38.0911 52.0135 38.2549C51.5369 38.3985 51.1755 38.4607 50.9292 38.4415C50.887 38.4248 50.832 38.3787 50.7642 38.3031C50.7167 38.2257 50.6894 38.1465 50.6823 38.0656L50.3573 34.7004C50.1981 32.8799 50.1386 31.9679 50.1791 31.9644Z" fill="#F35D2D"/>
<path d="M67.4871 39.7751C67.6287 39.7627 67.6972 39.614 67.6926 39.329C67.7065 39.0221 67.6901 38.7178 67.6433 38.4161C67.6168 38.1127 67.5982 37.9003 67.5876 37.779L67.1079 31.2476C67.0849 30.9847 67.1948 30.8426 67.4375 30.8213C68.1472 30.7796 69.2101 30.6968 70.626 30.573C70.7693 30.5808 70.8639 30.6133 70.9097 30.6704C70.9757 30.7258 71.014 30.8142 71.0246 30.9355C71.0539 31.5037 71.1694 32.9407 71.3712 35.2467L71.6727 39.042C71.6939 39.2847 71.7622 39.4826 71.8775 39.6355C72.013 39.7867 72.1819 39.8535 72.3842 39.8358C73.1933 39.765 73.9087 39.6718 74.5304 39.5563C74.8118 39.5113 74.9886 39.4347 75.0606 39.3265C75.1327 39.2183 75.1757 39.0107 75.1896 38.7037L74.7884 33.419C74.1422 25.5672 73.8084 21.2855 73.7869 20.574L73.7789 20.483C73.7542 20.1998 73.5918 20.0917 73.292 20.1587C72.9701 20.2072 72.4349 20.2643 71.6865 20.3297C71.4456 20.3712 71.0925 20.4123 70.6272 20.453C70.4654 20.4671 70.3467 20.5081 70.2711 20.5759C70.2157 20.6419 70.1951 20.7558 70.2093 20.9176L70.4391 23.8937C70.4737 24.5225 70.5193 25.1606 70.576 25.8078C70.6326 26.4551 70.6676 26.9718 70.681 27.3579C70.5632 27.409 70.4942 27.4354 70.4739 27.4372C70.2532 27.4769 69.9406 27.5144 69.536 27.5498L68.7471 27.6188C68.5853 27.633 68.3729 27.6516 68.11 27.6746C67.8452 27.6773 67.5216 27.7057 67.139 27.7595L67.0784 27.7648C66.9772 27.7737 66.9038 27.7495 66.858 27.6924C66.8105 27.615 66.7924 27.5249 66.8038 27.422L66.6164 24.9313C66.466 23.212 66.3316 21.9091 66.2133 21.0226C66.2116 21.0024 66.1786 20.9747 66.1143 20.9395C66.0483 20.8842 65.9841 20.849 65.9217 20.8341L64.0075 20.971C63.4209 21.0223 63.1092 21.07 63.0722 21.114C63.0169 21.18 62.9936 21.2635 63.0024 21.3647C63.0113 21.4658 63.0166 21.5265 63.0184 21.5467L63.2254 23.9133L64.266 35.8071L64.5527 39.084C64.5598 39.1649 64.5722 39.3065 64.5899 39.5088C64.626 39.6891 64.678 39.817 64.7457 39.8926C64.8319 39.9462 64.9771 39.9743 65.1811 39.9768C65.3447 39.9829 65.6288 39.9682 66.0333 39.9328L67.4871 39.7751Z" fill="#F35D2D"/>
<path d="M76.8836 24.1248C76.8643 24.3711 76.8981 24.9898 76.9848 25.9809C77.0379 26.5877 77.2461 28.618 77.6094 32.0716L77.7937 33.8287C77.9123 35.184 78.3334 36.5025 79.057 37.7845C79.7806 39.0664 81.2651 39.6091 83.5103 39.4127C84.6835 39.3101 85.6362 38.9006 86.3685 38.1843C87.1007 37.468 87.6218 36.6683 87.9318 35.7851C88.2418 34.9019 88.3721 34.1771 88.3225 33.6107C88.2039 32.2555 88.0408 30.5067 87.8329 28.3643C87.6454 26.2202 87.4822 24.4714 87.3434 23.1179C87.2938 22.5516 87.1048 21.9057 86.7764 21.1803C86.4462 20.4346 85.9005 19.7894 85.1395 19.2445C84.3969 18.6776 83.4188 18.4472 82.2051 18.5534C80.7487 18.6808 79.6417 19.0732 78.8839 19.7306C78.1445 20.366 77.6616 21.0197 77.4351 21.6918C77.2085 22.3639 77.0247 23.1748 76.8836 24.1248ZM84.1355 24.1935C84.1611 24.2524 84.2181 24.7876 84.3066 25.7989C84.4357 27.2756 84.558 28.9056 84.6732 30.6892C84.807 32.4508 84.8639 33.5668 84.8439 34.0374C84.8388 34.4455 84.6574 34.818 84.2996 35.1551C83.9401 35.4719 83.5479 35.6489 83.1231 35.686C82.9815 35.6984 82.8795 35.6972 82.8171 35.6822C82.2198 35.6122 81.7765 35.437 81.487 35.1566C81.2177 34.8744 81.0565 34.4299 81.0034 33.8231L80.884 32.4577L80.5469 28.6043C80.3274 26.0961 80.2264 24.7088 80.2439 24.4423C80.2568 23.8908 80.3827 23.3499 80.6216 22.8194C80.7385 22.5238 80.912 22.2946 81.1424 22.1318C81.3912 21.947 81.6673 21.8413 81.9707 21.8147C82.4562 21.7723 82.8995 21.9475 83.3008 22.3404C83.5463 22.5839 83.7228 22.8538 83.8302 23.1501C83.9579 23.4447 84.0597 23.7925 84.1355 24.1935Z" fill="#F35D2D"/>
<path d="M93.7768 24.4812C93.6691 23.7161 93.4816 21.8064 93.2144 18.752L93.2064 18.661C93.1941 18.5194 93.1558 18.431 93.0915 18.3959C93.0255 18.3405 92.9116 18.3199 92.7498 18.3341C91.8229 18.4559 91.056 18.5434 90.4492 18.5965C90.2671 18.6124 90.1493 18.6635 90.0957 18.7497C90.0623 18.8342 90.0545 18.9775 90.0722 19.1798L91.6808 37.5667C91.695 37.7285 91.7342 37.827 91.7984 37.8621C91.9251 37.9122 92.2514 37.9142 92.7773 37.8682C93.4852 37.8062 94.0195 37.7391 94.3801 37.6668C94.6799 37.5998 94.8184 37.4348 94.7954 37.1719L94.1086 28.2739C94.0608 27.7278 94.2493 27.4361 94.6741 27.3989C94.8562 27.383 95.0923 27.4031 95.3826 27.4593C95.8162 27.5232 96.2099 27.713 96.5636 28.0285C96.9156 28.3239 97.1431 28.7116 97.2463 29.1918C97.3363 29.7546 97.4954 31.3407 97.7237 33.95C97.7988 34.5753 97.8726 35.3026 97.9452 36.132C98.0132 36.6763 98.0626 37.0083 98.0935 37.1279C98.1445 37.2457 98.2013 37.3121 98.2638 37.327C98.3447 37.32 98.82 37.2784 99.6898 37.2023C100.317 37.1474 100.7 37.1037 100.84 37.0711C100.881 37.0675 100.918 37.0336 100.954 36.9694C100.987 36.885 101.001 36.8124 100.996 36.7517C101.002 36.5881 100.914 35.4747 100.734 33.4115L100.402 29.6188C100.381 28.6831 100.171 27.9066 99.7703 27.2894C99.3038 26.6168 98.7723 26.1334 98.1759 25.8391C98.0475 25.7688 97.9806 25.7033 97.9753 25.6426C97.9682 25.5617 98.0227 25.4856 98.1387 25.4143C98.6196 25.0868 98.9668 24.6284 99.1802 24.0391C99.3919 23.4295 99.4975 22.8903 99.4973 22.4215C99.4927 22.1365 99.4259 21.2558 99.2967 19.7791L99.2038 18.7172C99.1499 18.3346 99.0799 18.1166 98.9937 18.063C98.9259 17.9874 98.6999 17.9664 98.3156 18L96.9805 18.1168C96.4344 18.1646 96.1521 18.1995 96.1336 18.2215C96.1152 18.2435 96.1281 18.5073 96.1723 19.013C96.2368 19.5169 96.2849 19.9509 96.3168 20.315C96.3706 20.6976 96.4197 21.1417 96.4639 21.6474C96.5188 22.2744 96.4232 22.8127 96.1772 23.2623C95.9294 23.6916 95.6112 24.015 95.2226 24.2325C94.8542 24.4481 94.5081 24.5701 94.1845 24.5984C93.9216 24.6214 93.7856 24.5824 93.7768 24.4812Z" fill="#F35D2D"/>
<path d="M27.3769 66.4216C27.3911 66.5834 27.6657 66.9263 28.2007 67.4502C28.7155 67.9758 29.3784 68.4478 30.1896 68.866C31.0191 69.2622 31.8992 69.4196 32.8296 69.3382C33.9017 69.2444 34.8544 68.8349 35.6878 68.1098C36.5414 67.3829 37.1736 66.339 37.5845 64.9782C38.0139 63.5954 38.1436 61.9331 37.9737 59.9912C37.7773 57.746 37.6203 56.068 37.5027 54.9572C37.4178 53.9863 37.1178 53.0036 36.6028 52.0092C36.0877 51.0147 35.4158 50.2073 34.587 49.5868C33.7582 48.9663 32.8381 48.7003 31.8267 48.7888C31.0378 48.8578 30.2354 49.1216 29.4195 49.5803C28.622 50.0169 27.9482 50.5854 27.398 51.2858C27.3092 51.4362 27.2702 51.5722 27.2808 51.6935C27.2914 51.8149 27.3543 51.952 27.4696 52.105C28.4183 53.1634 28.9485 53.7489 29.0603 53.8614C29.1518 53.9757 29.2609 54.0579 29.3876 54.1079C29.5125 54.1378 29.6008 54.0995 29.6527 53.993C29.8231 53.6112 30.1259 53.2281 30.561 52.8435C31.0146 52.4369 31.4134 52.2186 31.7572 52.1885C32.4045 52.1319 32.902 52.3431 33.2497 52.8223C33.6175 53.2997 33.8213 53.6487 33.861 53.8694C33.9209 54.0884 34.0611 54.759 34.2816 55.8811C34.2905 55.9822 34.2571 56.0667 34.1815 56.1344C34.1059 56.2022 34.0193 56.2607 33.9217 56.31C33.8223 56.3391 33.7524 56.3554 33.7119 56.3589L31.8057 56.5869C31.7855 56.5886 31.7459 56.6023 31.687 56.6278C31.6264 56.6331 31.5683 56.6688 31.513 56.7348C31.4576 56.8008 31.4361 56.9046 31.4485 57.0462L31.7018 59.5922C31.7124 59.7135 31.7507 59.8019 31.8167 59.8573C31.8827 59.9127 31.9469 59.9478 32.0094 59.9627C32.0701 59.9574 32.1105 59.9539 32.1307 59.9521L33.9182 59.7651C34.2419 59.7368 34.4376 59.7605 34.5053 59.8361C34.5933 59.9099 34.6524 60.1188 34.6824 60.4626C34.7798 61.5751 34.7254 62.7009 34.5193 63.84C34.3132 64.979 33.7753 65.5866 32.9055 65.6627C31.8555 65.775 31.1513 65.5308 30.793 64.9303C30.433 64.3096 30.2411 63.9799 30.2173 63.9412C29.992 63.6959 29.8055 63.6613 29.6579 63.8373L28.9854 64.5382C28.5907 64.9192 28.2273 65.3077 27.895 65.7036C27.5408 66.0811 27.3681 66.3204 27.3769 66.4216Z" fill="#F35D2D"/>
<path d="M42.1234 48.6828L41.1221 48.7704C40.8389 48.7952 40.7097 48.9492 40.7345 49.2324C40.8309 60.3527 40.8569 66.241 40.8124 66.8971C40.7993 66.9798 40.798 67.0818 40.8086 67.2032C40.8546 67.7291 41.1745 68.0068 41.7681 68.0364C42.0531 68.0319 42.3767 68.0036 42.7391 67.9515C43.1198 67.8774 43.381 67.8342 43.5226 67.8218C43.7654 67.8005 43.8862 67.6677 43.8852 67.4232C43.8827 65.9966 43.8721 64.2447 43.8534 62.1673C43.833 60.0697 43.8083 58.3903 43.7795 57.1291C43.753 56.8257 43.77 56.6713 43.8307 56.666C43.8509 56.6643 43.8738 56.6928 43.8994 56.7518C43.9434 56.7887 43.9671 56.8274 43.9707 56.8678C44.1257 57.2415 44.528 58.1133 45.1778 59.4832C45.3055 59.7778 45.5336 60.2878 45.862 61.0132C46.2089 61.7166 46.499 62.3537 46.7324 62.9243C46.8328 63.1398 46.9397 63.3139 47.0533 63.4466C47.1853 63.5573 47.3533 63.614 47.5573 63.6165C47.7631 63.6393 48.0279 63.6365 48.3515 63.6082C48.7358 63.5746 49.0955 63.4921 49.4305 63.3609C49.4894 63.3354 49.5606 63.217 49.644 63.0059C49.7695 62.3427 49.9743 61.3057 50.2585 59.8948C50.5629 58.4822 50.8476 57.1936 51.1126 56.029C51.1592 55.8618 51.2027 55.7765 51.2431 55.7729C51.3038 55.7676 51.3504 55.8349 51.3831 55.9747C51.6281 56.9113 52.0393 58.6995 52.6168 61.3395C53.1924 63.9592 53.5425 65.6305 53.6669 66.3534C53.7427 66.7544 53.8568 67.0094 54.009 67.1184C54.163 67.2476 54.4303 67.2751 54.8111 67.201C54.892 67.194 55.2416 67.1124 55.8598 66.9564C56.5 66.8189 56.8139 66.6793 56.8015 66.5377C56.8129 66.4348 56.3507 63.9478 55.415 59.0768C54.4995 54.204 53.7843 50.455 53.2692 47.83C53.2622 47.7491 53.2265 47.6911 53.1623 47.6559C53.0963 47.6005 53.0321 47.5654 52.9696 47.5505C52.9072 47.5355 52.8658 47.529 52.8456 47.5307L50.2362 47.759C50.1958 47.7626 50.1074 47.8009 49.9711 47.874C49.8551 47.9453 49.7914 48.0324 49.78 48.1353L47.8202 56.8368C47.7755 57.0241 47.7227 57.1204 47.6621 57.1258C47.5812 57.1328 47.4989 57.0075 47.4152 56.7499C47.003 55.7668 46.2916 54.1577 45.2807 51.9226C44.2681 49.6672 43.7314 48.5421 43.6708 48.5475L42.1234 48.6828Z" fill="#F35D2D"/>
<path d="M57.7168 51.5683C57.6976 51.8146 57.7313 52.4333 57.8181 53.4245C57.8711 54.0313 58.0793 56.0615 58.4426 59.5151L58.6269 61.2722C58.7455 62.6275 59.1666 63.9461 59.8902 65.228C60.6139 66.5099 62.0983 67.0527 64.3436 66.8562C65.5168 66.7536 66.4695 66.3441 67.2017 65.6278C67.934 64.9115 68.4551 64.1118 68.7651 63.2286C69.0751 62.3454 69.2053 61.6207 69.1558 61.0543C69.0372 59.699 68.874 57.9502 68.6662 55.8079C68.4786 53.6638 68.3154 51.915 68.1766 50.5615C68.1271 49.9951 67.9381 49.3492 67.6096 48.6238C67.2794 47.8782 66.7338 47.2329 65.9727 46.688C65.2301 46.1211 64.252 45.8908 63.0384 45.9969C61.582 46.1244 60.4749 46.5168 59.7171 47.1742C58.9778 47.8095 58.4948 48.4633 58.2683 49.1353C58.0417 49.8074 57.8579 50.6184 57.7168 51.5683ZM64.9688 51.637C64.9943 51.696 65.0513 52.2311 65.1398 53.2425C65.269 54.7191 65.3912 56.3492 65.5065 58.1328C65.6402 59.8943 65.6971 61.0104 65.6771 61.4809C65.6721 61.889 65.4906 62.2616 65.1329 62.5986C64.7733 62.9154 64.3811 63.0924 63.9564 63.1296C63.8148 63.142 63.7128 63.1407 63.6503 63.1258C63.0531 63.0557 62.6097 62.8805 62.3202 62.6001C62.0509 62.3179 61.8898 61.8734 61.8367 61.2666L61.7172 59.9012L61.3801 56.0479C61.1606 53.5397 61.0597 52.1523 61.0771 51.8858C61.09 51.3343 61.2159 50.7934 61.4549 50.2629C61.5717 49.9673 61.7453 49.7381 61.9756 49.5753C62.2244 49.3905 62.5005 49.2848 62.8039 49.2583C63.2894 49.2158 63.7328 49.391 64.134 49.7839C64.3795 50.0274 64.556 50.2973 64.6635 50.5937C64.7911 50.8882 64.8929 51.236 64.9688 51.637Z" fill="#F35D2D"/>
<path d="M75.6404 61.9545C75.5393 61.9633 75.4653 61.8169 75.4185 61.5153C75.3902 61.1916 75.3707 60.9691 75.3601 60.8478L74.0147 46.1679C74.0111 46.1274 73.9434 46.0518 73.8114 45.9411C73.6794 45.8303 73.5334 45.7921 73.3733 45.8265C72.9152 45.9481 72.3 46.0223 71.5278 46.0491C71.3255 46.0668 71.1589 46.1426 71.0279 46.2763C70.897 46.4101 70.8394 46.568 70.8554 46.75C70.8642 46.8511 70.9076 47.3467 70.9854 48.2367C71.0835 49.125 71.2396 50.7929 71.4538 53.2404C72.1242 60.4379 72.4793 64.147 72.519 64.3677C72.6459 64.8866 72.8857 65.1815 73.2385 65.2526C73.3211 65.2657 73.9693 65.2192 75.183 65.113L81.3396 64.5438C81.483 64.5516 81.5766 64.574 81.6206 64.6109C81.6866 64.6663 81.7249 64.7547 81.7356 64.876L81.8019 65.6346C81.8636 65.8738 81.9503 66.0496 82.0621 66.1621C82.1756 66.2949 82.3344 66.3625 82.5384 66.365C82.7425 66.3676 82.9549 66.349 83.1756 66.3093C83.3981 66.2898 83.5903 66.273 83.7521 66.2589C83.9526 66.2209 84.245 66.1852 84.6293 66.1515C84.8721 66.1303 85.0149 66.0159 85.0579 65.8083C85.1009 65.6007 85.1034 65.3967 85.0655 65.1962C85.0496 65.0141 85.0398 64.9029 85.0363 64.8624C84.9842 64.5001 84.9254 63.9447 84.86 63.1963C84.7963 62.4681 84.7384 61.9229 84.6863 61.5605C84.6175 61.2404 84.4415 61.0928 84.1584 61.1175C84.0168 61.1299 83.7942 61.1494 83.4908 61.1759C83.1857 61.1823 82.9328 61.2044 82.7323 61.2423L82.6413 61.2503C82.5199 61.2609 82.4262 61.2385 82.3602 61.1831C82.3145 61.126 82.2744 61.0174 82.24 60.8573C82.0676 59.1195 81.8068 56.6047 81.4577 53.313C81.127 49.9992 80.8574 47.3832 80.6488 45.4652C80.6073 45.2242 80.456 45.1253 80.1948 45.1686L77.8388 45.497C77.6365 45.5147 77.546 45.6449 77.5672 45.8876C77.6034 46.0679 77.6431 46.2886 77.6863 46.5498C77.7278 46.7908 77.7636 47.0832 77.7937 47.4271C77.8864 48.2546 77.9886 49.3056 78.1001 50.5799C78.2098 51.834 78.3287 53.0771 78.4569 54.3093C78.8126 58.375 79.0245 60.6801 79.0925 61.2244C79.1173 61.5076 78.9881 61.6616 78.7049 61.6864L77.6733 61.7766L75.6404 61.9545Z" fill="#F35D2D"/>
<path d="M90.111 54.9406C90.0346 55.2327 89.9389 55.5366 89.8239 55.8524C89.7088 56.1682 89.621 56.3287 89.5603 56.3341C89.4996 56.3394 89.456 56.1903 89.4294 55.8869L88.5121 45.0524L88.5095 45.022C88.5006 44.9209 88.4605 44.8123 88.3892 44.6962C88.3179 44.5802 88.2511 44.5147 88.1886 44.4998C87.7401 44.4983 87.3843 44.509 87.1214 44.532L86.3958 44.6261C86.1162 44.6913 85.921 44.7899 85.8102 44.9219C85.6977 45.0336 85.6336 45.2329 85.6179 45.5196C85.6232 45.5803 85.6326 45.8037 85.646 46.1898C85.6779 46.5539 85.7371 47.2315 85.8239 48.2226C86.0734 51.0747 86.3366 53.9664 86.6134 56.8976C86.8884 59.8086 87.0954 61.9408 87.2342 63.2943C87.2643 63.6382 87.4447 63.8364 87.7754 63.889C88.2679 63.9275 88.7772 63.9237 89.3031 63.8777C89.6672 63.8458 89.9072 63.7942 90.0233 63.7229C90.178 63.6279 90.7059 62.2059 91.6068 59.457C92.5059 56.6878 93.2018 54.5072 93.6943 52.915C93.8357 52.4338 93.9266 52.1915 93.967 52.188C94.0075 52.1844 94.0414 52.2222 94.0687 52.3014C94.0942 52.3603 94.1088 52.41 94.1123 52.4504L95.0145 62.0633C95.0825 62.6077 95.142 62.9388 95.1931 63.0566C95.2442 63.1744 95.4223 63.2302 95.7275 63.2239L96.8527 63.156C97.6416 63.087 98.0299 62.9817 98.0175 62.8401L96.8309 49.2775L96.3876 44.2105C96.3717 44.0284 96.3206 43.9106 96.2344 43.857C96.1684 43.8016 96.0453 43.792 95.865 43.8282C95.7252 43.8608 95.5642 43.8851 95.3822 43.901C95.2186 43.8949 95.066 43.8981 94.9244 43.9105L94.2872 43.9662C93.6197 44.0246 93.2803 44.1053 93.2689 44.2082C92.9564 45.2954 92.3919 47.2302 91.5754 50.0125C90.7774 52.7728 90.2893 54.4155 90.111 54.9406Z" fill="#F35D2D"/>
<path d="M104.334 53.6963C104.257 53.9884 104.161 54.2923 104.046 54.6081C103.931 54.9239 103.843 55.0844 103.783 55.0897C103.722 55.0951 103.679 54.946 103.652 54.6426L102.735 43.8081L102.732 43.7777C102.723 43.6766 102.683 43.568 102.612 43.4519C102.54 43.3359 102.474 43.2704 102.411 43.2555C101.963 43.254 101.607 43.2647 101.344 43.2877L100.618 43.3817C100.339 43.447 100.143 43.5456 100.033 43.6776C99.9202 43.7893 99.8561 43.9886 99.8404 44.2753C99.8458 44.336 99.8551 44.5594 99.8685 44.9455C99.9004 45.3095 99.9596 45.9872 100.046 46.9783C100.296 49.8304 100.559 52.7221 100.836 55.6533C101.111 58.5643 101.318 60.6965 101.457 62.05C101.487 62.3939 101.667 62.5921 101.998 62.6447C102.49 62.6831 103 62.6794 103.526 62.6333C103.89 62.6015 104.13 62.5499 104.246 62.4786C104.401 62.3835 104.928 60.9616 105.829 58.2126C106.728 55.4435 107.424 53.2629 107.917 51.6707C108.058 51.1895 108.149 50.9472 108.19 50.9437C108.23 50.9401 108.264 50.9779 108.291 51.0571C108.317 51.116 108.331 51.1656 108.335 51.2061L109.237 60.819C109.305 61.3634 109.365 61.6945 109.416 61.8123C109.467 61.9301 109.645 61.9859 109.95 61.9796L111.075 61.9117C111.864 61.8427 112.252 61.7374 112.24 61.5958L111.053 48.0332L110.61 42.9662C110.594 42.7841 110.543 42.6663 110.457 42.6127C110.391 42.5573 110.268 42.5477 110.087 42.5839C109.948 42.6165 109.787 42.6408 109.605 42.6567C109.441 42.6506 109.288 42.6538 109.147 42.6662L108.51 42.7219C107.842 42.7803 107.503 42.861 107.491 42.9639C107.179 44.0511 106.614 45.9859 105.798 48.7682C105 51.5284 104.512 53.1712 104.334 53.6963Z" fill="#F35D2D"/>
<path d="M103.319 39.6103C103.511 39.6341 103.617 39.6858 103.638 39.7653C103.699 40.1529 103.825 40.4399 104.018 40.6263C104.21 40.8127 104.528 40.8865 104.972 40.8477C105.308 40.8183 105.57 40.6395 105.758 40.3114C105.959 39.9687 106.064 39.6208 106.074 39.2677C106.067 39.187 106.177 39.1366 106.406 39.1166C106.675 39.0931 106.968 39.1149 107.286 39.1819C107.616 39.2478 107.779 39.3217 107.772 39.4036C107.74 39.8128 107.673 40.2049 107.57 40.5797C107.468 40.9545 107.222 41.3215 106.833 41.6807C106.445 42.0399 105.874 42.2524 105.121 42.3183C103.938 42.4218 103.123 42.2425 102.676 41.7802C102.229 41.318 101.979 40.7844 101.926 40.1793L101.918 39.8548C101.912 39.7876 101.982 39.734 102.127 39.6942C102.272 39.6409 102.452 39.6049 102.667 39.586C102.922 39.5637 103.14 39.5718 103.319 39.6103Z" fill="#F35D2D"/>
<mask id="path-3-outside-1_772_7300" maskUnits="userSpaceOnUse" x="39.3306" y="2.71829" width="18.7109" height="13.3319" fill="black">
<rect fill="white" x="39.3306" y="2.71829" width="18.7109" height="13.3319"/>
<path d="M42.5585 10.5338C42.5247 11.143 42.5024 11.6912 42.4741 12.2415C42.4485 12.7625 42.0046 13.187 41.5053 13.1271C41.4204 13.1154 41.276 12.9405 41.282 12.846C41.3267 11.6572 41.3856 10.4703 41.4587 9.28546C41.4769 8.96615 41.6477 8.73343 41.9597 8.64831C42.2835 8.55887 42.5393 8.70739 42.7549 8.94869C43.6437 9.96823 44.5348 10.994 45.4237 12.0136C45.779 12.4172 46.1367 12.8271 46.4861 13.2329C46.7108 13.4993 46.6747 13.6403 46.3669 13.7737C45.7667 14.0277 45.584 13.9876 45.1415 13.4736C44.3668 12.583 43.5921 11.6925 42.8257 10.806C42.7522 10.7333 42.6786 10.6606 42.5585 10.5338Z"/>
<path d="M52.7451 6.81903C52.7036 7.57319 52.662 8.23496 52.6182 8.98284C52.4693 8.88781 52.3871 8.84667 52.3241 8.78434C52.1363 8.58264 51.9249 8.38958 51.7919 8.15371C51.6613 7.92412 51.5526 7.64391 51.5453 7.38365C51.5334 6.8337 51.5818 6.28313 51.616 5.7306C51.637 5.38187 51.7448 5.08682 52.0951 4.95931C52.4596 4.83376 52.7327 5.01148 52.9716 5.27984C54.1866 6.67811 55.4016 8.07638 56.6165 9.47464C56.9148 9.81377 56.8787 9.95481 56.4772 10.108C55.9154 10.3196 55.7693 10.2875 55.3628 9.81727C54.6114 8.95377 53.8601 8.09027 53.1064 7.22049C52.9991 7.11033 52.8977 6.99801 52.7451 6.81903Z"/>
<path d="M49.3475 8.06989C49.305 8.80306 49.2657 9.47111 49.2219 10.219C49.0707 10.1177 48.9826 10.0787 48.9255 10.0142C48.7377 9.81251 48.5203 9.62161 48.3874 9.38575C48.2568 9.15616 48.154 8.87379 48.1467 8.61353C48.1348 8.06358 48.1891 7.51084 48.2175 6.96048C48.2362 6.60547 48.3462 6.31669 48.6966 6.18919C49.0432 6.07012 49.3154 6.22686 49.5461 6.4911C50.7821 7.91015 52.0158 9.32292 53.2435 10.7378C53.4998 11.0354 53.466 11.1827 53.1261 11.3206C52.5297 11.5662 52.3648 11.5196 51.9267 11.0181C51.1603 10.1317 50.3857 9.24115 49.611 8.35059C49.5411 8.26944 49.4653 8.19044 49.3475 8.06989Z"/>
<path d="M45.9571 9.30388C45.9183 10.0286 45.8754 10.7051 45.8357 11.4089C45.2117 11.1172 44.7207 10.3224 44.754 9.74886C44.7773 9.22164 44.8065 8.69226 44.8358 8.16289C44.8545 7.80787 44.9847 7.51889 45.3359 7.41237C45.673 7.3039 45.931 7.45869 46.1594 7.71666C47.3871 9.13159 48.6186 10.5381 49.8463 11.953C50.1153 12.2672 50.0852 12.4061 49.7216 12.5527C49.1347 12.7876 48.9781 12.7451 48.5505 12.2541C47.7631 11.3469 46.9757 10.4397 46.1882 9.53243C46.1252 9.4701 46.0562 9.40993 45.9571 9.30388Z"/>
</mask>
<path d="M42.5585 10.5338C42.5247 11.143 42.5024 11.6912 42.4741 12.2415C42.4485 12.7625 42.0046 13.187 41.5053 13.1271C41.4204 13.1154 41.276 12.9405 41.282 12.846C41.3267 11.6572 41.3856 10.4703 41.4587 9.28546C41.4769 8.96615 41.6477 8.73343 41.9597 8.64831C42.2835 8.55887 42.5393 8.70739 42.7549 8.94869C43.6437 9.96823 44.5348 10.994 45.4237 12.0136C45.779 12.4172 46.1367 12.8271 46.4861 13.2329C46.7108 13.4993 46.6747 13.6403 46.3669 13.7737C45.7667 14.0277 45.584 13.9876 45.1415 13.4736C44.3668 12.583 43.5921 11.6925 42.8257 10.806C42.7522 10.7333 42.6786 10.6606 42.5585 10.5338Z" fill="#5BB0FF"/>
<path d="M52.7451 6.81903C52.7036 7.57319 52.662 8.23496 52.6182 8.98284C52.4693 8.88781 52.3871 8.84667 52.3241 8.78434C52.1363 8.58264 51.9249 8.38958 51.7919 8.15371C51.6613 7.92412 51.5526 7.64391 51.5453 7.38365C51.5334 6.8337 51.5818 6.28313 51.616 5.7306C51.637 5.38187 51.7448 5.08682 52.0951 4.95931C52.4596 4.83376 52.7327 5.01148 52.9716 5.27984C54.1866 6.67811 55.4016 8.07638 56.6165 9.47464C56.9148 9.81377 56.8787 9.95481 56.4772 10.108C55.9154 10.3196 55.7693 10.2875 55.3628 9.81727C54.6114 8.95377 53.8601 8.09027 53.1064 7.22049C52.9991 7.11033 52.8977 6.99801 52.7451 6.81903Z" fill="#5BB0FF"/>
<path d="M49.3475 8.06989C49.305 8.80306 49.2657 9.47111 49.2219 10.219C49.0707 10.1177 48.9826 10.0787 48.9255 10.0142C48.7377 9.81251 48.5203 9.62161 48.3874 9.38575C48.2568 9.15616 48.154 8.87379 48.1467 8.61353C48.1348 8.06358 48.1891 7.51084 48.2175 6.96048C48.2362 6.60547 48.3462 6.31669 48.6966 6.18919C49.0432 6.07012 49.3154 6.22686 49.5461 6.4911C50.7821 7.91015 52.0158 9.32292 53.2435 10.7378C53.4998 11.0354 53.466 11.1827 53.1261 11.3206C52.5297 11.5662 52.3648 11.5196 51.9267 11.0181C51.1603 10.1317 50.3857 9.24115 49.611 8.35059C49.5411 8.26944 49.4653 8.19044 49.3475 8.06989Z" fill="#5BB0FF"/>
<path d="M45.9571 9.30388C45.9183 10.0286 45.8754 10.7051 45.8357 11.4089C45.2117 11.1172 44.7207 10.3224 44.754 9.74886C44.7773 9.22164 44.8065 8.69226 44.8358 8.16289C44.8545 7.80787 44.9847 7.51889 45.3359 7.41237C45.673 7.3039 45.931 7.45869 46.1594 7.71666C47.3871 9.13159 48.6186 10.5381 49.8463 11.953C50.1153 12.2672 50.0852 12.4061 49.7216 12.5527C49.1347 12.7876 48.9781 12.7451 48.5505 12.2541C47.7631 11.3469 46.9757 10.4397 46.1882 9.53243C46.1252 9.4701 46.0562 9.40993 45.9571 9.30388Z" fill="#5BB0FF"/>
<path d="M42.5585 10.5338L42.7037 10.3962L42.3845 10.0592L42.3588 10.5227L42.5585 10.5338ZM42.4741 12.2415L42.2743 12.2313L42.2743 12.2317L42.4741 12.2415ZM41.5053 13.1271L41.478 13.3252L41.4815 13.3257L41.5053 13.1271ZM41.282 12.846L41.4816 12.8585L41.4818 12.8535L41.282 12.846ZM41.4587 9.28546L41.6583 9.29777L41.6583 9.29688L41.4587 9.28546ZM41.9597 8.64831L42.0123 8.84126L42.0129 8.8411L41.9597 8.64831ZM42.7549 8.94869L42.9056 8.81725L42.904 8.81544L42.7549 8.94869ZM45.4237 12.0136L45.2729 12.145L45.2736 12.1457L45.4237 12.0136ZM46.4861 13.2329L46.639 13.1039L46.6376 13.1024L46.4861 13.2329ZM46.3669 13.7737L46.4448 13.9579L46.4464 13.9572L46.3669 13.7737ZM45.1415 13.4736L45.293 13.3431L45.2924 13.3423L45.1415 13.4736ZM42.8257 10.806L42.977 10.6752L42.9719 10.6693L42.9663 10.6638L42.8257 10.806ZM52.7451 6.81903L52.8973 6.68929L52.5729 6.30871L52.5454 6.80803L52.7451 6.81903ZM52.6182 8.98284L52.5106 9.15143L52.7979 9.33481L52.8179 8.99454L52.6182 8.98284ZM52.3241 8.78434L52.1775 8.92072L52.1834 8.92655L52.3241 8.78434ZM51.7919 8.15371L51.9662 8.05552L51.9658 8.0548L51.7919 8.15371ZM51.5453 7.38365L51.3453 7.38797L51.3454 7.38927L51.5453 7.38365ZM51.616 5.7306L51.8156 5.74297L51.8157 5.74262L51.616 5.7306ZM52.0951 4.95931L52.03 4.77019L52.0267 4.77137L52.0951 4.95931ZM52.9716 5.27984L53.1226 5.14865L53.121 5.14686L52.9716 5.27984ZM56.6165 9.47464L56.4655 9.60582L56.4663 9.60673L56.6165 9.47464ZM56.4772 10.108L56.5477 10.2952L56.5485 10.2949L56.4772 10.108ZM55.3628 9.81727L55.5141 9.68648L55.5137 9.68599L55.3628 9.81727ZM53.1064 7.22049L53.2578 7.0893L53.2497 7.08092L53.1064 7.22049ZM49.3475 8.06989L49.4905 7.93009L49.174 7.60631L49.1478 8.05833L49.3475 8.06989ZM49.2219 10.219L49.1106 10.3851L49.4011 10.5798L49.4216 10.2307L49.2219 10.219ZM48.9255 10.0142L49.0753 9.88161L49.0719 9.87796L48.9255 10.0142ZM48.3874 9.38575L48.5617 9.28756L48.5612 9.28684L48.3874 9.38575ZM48.1467 8.61353L47.9467 8.61785L47.9468 8.61914L48.1467 8.61353ZM48.2175 6.96048L48.0177 6.94995L48.0177 6.95021L48.2175 6.96048ZM48.6966 6.18919L48.6316 6L48.6281 6.00125L48.6966 6.18919ZM49.5461 6.4911L49.6969 6.35974L49.6968 6.35958L49.5461 6.4911ZM53.2435 10.7378L53.3951 10.6073L53.3946 10.6068L53.2435 10.7378ZM53.1261 11.3206L53.0509 11.1353L53.05 11.1357L53.1261 11.3206ZM51.9267 11.0181L51.7754 11.149L51.7761 11.1497L51.9267 11.0181ZM49.611 8.35059L49.4594 8.4811L49.4601 8.48185L49.611 8.35059ZM45.9571 9.30388L46.1032 9.16732L45.7825 8.82417L45.7574 9.29319L45.9571 9.30388ZM45.8357 11.4089L45.751 11.59L46.0187 11.7152L46.0353 11.4201L45.8357 11.4089ZM44.754 9.74886L44.9537 9.76047L44.9539 9.75769L44.754 9.74886ZM44.8358 8.16289L45.0355 8.17391L45.0355 8.17342L44.8358 8.16289ZM45.3359 7.41237L45.3939 7.60379L45.3971 7.60276L45.3359 7.41237ZM46.1594 7.71666L46.3105 7.58557L46.3091 7.58408L46.1594 7.71666ZM49.8463 11.953L49.9982 11.8229L49.9974 11.8219L49.8463 11.953ZM49.7216 12.5527L49.796 12.7383L49.7964 12.7382L49.7216 12.5527ZM48.5505 12.2541L48.3995 12.3852L48.3997 12.3854L48.5505 12.2541ZM46.1882 9.53243L46.3393 9.40133L46.3343 9.39558L46.3288 9.39022L46.1882 9.53243ZM42.3588 10.5227C42.3251 11.1313 42.3024 11.6847 42.2743 12.2313L42.6738 12.2518C42.7023 11.6976 42.7244 11.1546 42.7582 10.5448L42.3588 10.5227ZM42.2743 12.2317C42.2535 12.6554 41.8955 12.9725 41.5292 12.9285L41.4815 13.3257C42.1136 13.4015 42.6435 12.8696 42.6738 12.2513L42.2743 12.2317ZM41.5327 12.929C41.5503 12.9314 41.5603 12.9365 41.5612 12.937C41.5628 12.9378 41.5609 12.937 41.5557 12.933C41.545 12.9247 41.5302 12.9106 41.5153 12.892C41.5003 12.8735 41.4895 12.8559 41.4835 12.8431C41.4806 12.8369 41.4799 12.8343 41.4801 12.8351C41.4802 12.8355 41.4825 12.844 41.4816 12.8585L41.0824 12.8334C41.0778 12.9057 41.1013 12.9702 41.1214 13.0131C41.1434 13.0601 41.1729 13.1047 41.2039 13.1431C41.2349 13.1816 41.2718 13.2192 41.3119 13.2501C41.3472 13.2772 41.4055 13.3152 41.478 13.3252L41.5327 12.929ZM41.4818 12.8535C41.5265 11.6663 41.5853 10.4811 41.6583 9.29777L41.259 9.27316C41.1859 10.4596 41.1269 11.6481 41.0821 12.8384L41.4818 12.8535ZM41.6583 9.29688C41.6656 9.17011 41.7022 9.07273 41.7573 9.00132C41.8118 8.93076 41.8935 8.87368 42.0123 8.84126L41.907 8.45537C41.7139 8.50806 41.5542 8.60991 41.4407 8.75681C41.3279 8.90286 41.27 9.0815 41.259 9.27404L41.6583 9.29688ZM42.0129 8.8411C42.2313 8.78077 42.4139 8.86728 42.6057 9.08194L42.904 8.81544C42.6646 8.54749 42.3357 8.33698 41.9064 8.45553L42.0129 8.8411ZM42.6041 9.08012C43.0485 9.58981 43.4934 10.1011 43.9384 10.6124C44.3834 11.1238 44.8284 11.6352 45.2729 12.145L45.5744 11.8822C45.1301 11.3725 44.6852 10.8612 44.2402 10.3498C43.7952 9.83852 43.3501 9.32711 42.9056 8.81726L42.6041 9.08012ZM45.2736 12.1457C45.6285 12.5489 45.9857 12.9583 46.3345 13.3634L46.6376 13.1024C46.2877 12.6959 45.9295 12.2855 45.5738 11.8814L45.2736 12.1457ZM46.3332 13.3618C46.3836 13.4216 46.4102 13.4638 46.4227 13.4921C46.4345 13.5187 46.4285 13.5204 46.4312 13.5088C46.4339 13.4968 46.4391 13.4999 46.4186 13.517C46.3964 13.5356 46.3561 13.5604 46.2874 13.5902L46.4464 13.9572C46.6006 13.8904 46.7779 13.788 46.8212 13.5976C46.8433 13.5007 46.8234 13.4089 46.7884 13.3299C46.7541 13.2527 46.701 13.1774 46.639 13.1039L46.3332 13.3618ZM46.289 13.5895C45.9862 13.7176 45.8471 13.7426 45.7421 13.7172C45.6355 13.6915 45.5164 13.6025 45.293 13.3431L44.9899 13.6041C45.2091 13.8586 45.4027 14.0467 45.6481 14.106C45.8951 14.1657 46.1474 14.0837 46.4448 13.9579L46.289 13.5895ZM45.2924 13.3423C44.5177 12.4517 43.7432 11.5614 42.977 10.6752L42.6744 10.9368C43.4411 11.8235 44.2159 12.7143 44.9906 13.6048L45.2924 13.3423ZM42.9663 10.6638C42.8934 10.5917 42.8216 10.5207 42.7037 10.3962L42.4133 10.6713C42.5357 10.8005 42.611 10.875 42.6851 10.9482L42.9663 10.6638ZM52.5454 6.80803C52.5039 7.5618 52.4624 8.22218 52.4185 8.97114L52.8179 8.99454C52.8616 8.24775 52.9033 7.58458 52.9448 6.83003L52.5454 6.80803ZM52.7258 8.81425C52.6871 8.78954 52.6528 8.76842 52.6229 8.75007C52.5925 8.73136 52.5681 8.71649 52.5463 8.70263C52.5029 8.67497 52.4809 8.65816 52.4647 8.64213L52.1834 8.92655C52.2302 8.97285 52.2808 9.00778 52.3315 9.04003C52.3568 9.05613 52.3848 9.07326 52.4136 9.09094C52.443 9.10898 52.4749 9.12864 52.5106 9.15143L52.7258 8.81425ZM52.4705 8.64809C52.2665 8.42894 52.0837 8.26403 51.9662 8.05552L51.6177 8.2519C51.766 8.51512 52.0062 8.73633 52.1776 8.9206L52.4705 8.64809ZM51.9658 8.0548C51.8433 7.83954 51.7512 7.5924 51.7452 7.37803L51.3454 7.38927C51.354 7.69543 51.4793 8.0087 51.6181 8.25262L51.9658 8.0548ZM51.7452 7.37933C51.7336 6.84032 51.781 6.30262 51.8156 5.74297L51.4164 5.71823C51.3826 6.26363 51.3332 6.82708 51.3453 7.38797L51.7452 7.37933ZM51.8157 5.74262C51.8253 5.58258 51.8541 5.45504 51.9073 5.35843C51.9572 5.26781 52.0336 5.19453 52.1635 5.14725L52.0267 4.77137C51.8063 4.85159 51.6537 4.9896 51.5569 5.16556C51.4633 5.33554 51.4278 5.52988 51.4164 5.71858L51.8157 5.74262ZM52.1603 5.14841C52.295 5.102 52.4028 5.11283 52.5009 5.15537C52.6062 5.20099 52.7113 5.28815 52.8222 5.41282L53.121 5.14686C52.9931 5.00317 52.8422 4.8673 52.66 4.78835C52.4708 4.70633 52.2597 4.69107 52.03 4.77022L52.1603 5.14841ZM52.8207 5.41102C53.4281 6.11015 54.0356 6.80929 54.6431 7.50842C55.2506 8.20755 55.8581 8.90669 56.4655 9.60582L56.7675 9.34346C56.16 8.64433 55.5525 7.9452 54.945 7.24606C54.3376 6.54693 53.7301 5.8478 53.1226 5.14866L52.8207 5.41102ZM56.4663 9.60673C56.537 9.68702 56.5778 9.74474 56.5989 9.786C56.6197 9.82674 56.6109 9.83134 56.6142 9.81688C56.6178 9.80112 56.6254 9.80663 56.5928 9.83029C56.5588 9.85494 56.5006 9.88506 56.4059 9.92119L56.5485 10.2949C56.6546 10.2544 56.7514 10.2094 56.8278 10.154C56.9056 10.0975 56.9788 10.0178 57.0043 9.90522C57.0295 9.79396 56.999 9.69013 56.9552 9.60426C56.9117 9.51891 56.8452 9.43183 56.7667 9.34256L56.4663 9.60673ZM56.4067 9.92087C56.1201 10.0288 56 10.0473 55.9114 10.0246C55.8221 10.0017 55.7209 9.92576 55.5141 9.68648L55.2115 9.94806C55.4111 10.1791 55.5863 10.3542 55.8122 10.4121C56.0387 10.4701 56.2725 10.3988 56.5477 10.2952L56.4067 9.92087ZM55.5137 9.68599C54.7623 8.82246 54.011 7.95911 53.2576 7.08952L52.9553 7.35146C53.7091 8.22142 54.4606 9.08508 55.2119 9.94856L55.5137 9.68599ZM53.2497 7.08092C53.1464 6.97498 53.0481 6.86622 52.8973 6.68929L52.5929 6.94877C52.7472 7.12979 52.8517 7.24568 52.9632 7.36006L53.2497 7.08092ZM49.1478 8.05833C49.1053 8.79141 49.0661 9.45937 49.0222 10.2073L49.4216 10.2307C49.4654 9.48286 49.5047 8.81471 49.5471 8.08146L49.1478 8.05833ZM49.3332 10.0528C49.2555 10.0007 49.1861 9.9596 49.1455 9.93387C49.0995 9.90472 49.0838 9.89136 49.0752 9.88165L48.7757 10.1468C48.8242 10.2016 48.8812 10.2399 48.9313 10.2717C48.9869 10.3069 49.0371 10.3359 49.1106 10.3851L49.3332 10.0528ZM49.0719 9.87796C48.8643 9.65489 48.679 9.49586 48.5617 9.28756L48.2132 9.48394C48.3616 9.74736 48.6112 9.97014 48.7791 10.1505L49.0719 9.87796ZM48.5612 9.28684C48.4406 9.07481 48.3527 8.8248 48.3466 8.60791L47.9468 8.61914C47.9553 8.92278 48.073 9.2375 48.2136 9.48466L48.5612 9.28684ZM48.3466 8.6092C48.335 8.06889 48.3882 7.53375 48.4172 6.97075L48.0177 6.95021C47.9901 7.48794 47.9346 8.05827 47.9467 8.61785L48.3466 8.6092ZM48.4172 6.97101C48.4257 6.80849 48.4546 6.68176 48.5075 6.58668C48.557 6.49752 48.6337 6.42492 48.765 6.37713L48.6281 6.00125C48.4091 6.08096 48.2556 6.2165 48.1578 6.39236C48.0634 6.56229 48.0279 6.75745 48.0177 6.94995L48.4172 6.97101ZM48.7615 6.37834C48.8896 6.33436 48.9943 6.34274 49.0891 6.38153C49.1897 6.42266 49.2912 6.50323 49.3954 6.62262L49.6968 6.35958C49.5703 6.21473 49.4204 6.08481 49.2405 6.01128C49.0549 5.9354 48.8502 5.92494 48.6316 6.00003L48.7615 6.37834ZM49.3953 6.62246C50.6315 8.04176 51.8649 9.45418 53.0925 10.8689L53.3946 10.6068C52.1667 9.19165 50.9327 7.77853 49.6969 6.35974L49.3953 6.62246ZM53.092 10.8683C53.1509 10.9368 53.1839 10.9863 53.2005 11.0211C53.2166 11.0549 53.2102 11.0598 53.2125 11.0486C53.2152 11.0357 53.2213 11.039 53.1984 11.0575C53.1733 11.0777 53.128 11.104 53.0509 11.1353L53.2014 11.506C53.2942 11.4683 53.3805 11.4245 53.4494 11.3689C53.5204 11.3117 53.5826 11.2338 53.6042 11.1297C53.6254 11.0272 53.6006 10.9308 53.5616 10.849C53.5231 10.7682 53.4643 10.6877 53.3951 10.6073L53.092 10.8683ZM53.05 11.1357C52.7487 11.2597 52.6158 11.2811 52.5166 11.2557C52.414 11.2295 52.3003 11.1418 52.0774 10.8866L51.7761 11.1497C51.9912 11.3959 52.179 11.5822 52.4174 11.6433C52.6593 11.7051 52.9071 11.6271 53.2023 11.5056L53.05 11.1357ZM52.078 10.8873C51.3114 10.0006 50.5365 9.10985 49.7619 8.21933L49.4601 8.48185C50.2348 9.37245 51.0092 10.2628 51.7754 11.149L52.078 10.8873ZM49.7626 8.22009C49.688 8.13356 49.6081 8.05042 49.4905 7.93009L49.2044 8.2097C49.3225 8.33046 49.3942 8.40532 49.4594 8.4811L49.7626 8.22009ZM45.7574 9.29319C45.7186 10.0182 45.6758 10.6914 45.636 11.3976L46.0353 11.4201C46.0749 10.7188 46.118 10.0391 46.1568 9.31458L45.7574 9.29319ZM45.9203 11.2277C45.6503 11.1014 45.3981 10.8596 45.2168 10.5767C45.0342 10.2916 44.9403 9.9913 44.9537 9.76047L44.5544 9.73726C44.5345 10.0799 44.6694 10.4638 44.88 10.7924C45.0919 11.1232 45.3971 11.4246 45.751 11.59L45.9203 11.2277ZM44.9539 9.75769C44.9771 9.23175 45.0062 8.70347 45.0355 8.17391L44.6361 8.15186C44.6069 8.68106 44.5776 9.21154 44.5542 9.74004L44.9539 9.75769ZM45.0355 8.17342C45.0438 8.01504 45.0764 7.89002 45.1322 7.79814C45.1847 7.7114 45.2643 7.64307 45.3939 7.60376L45.2778 7.22098C45.0562 7.28819 44.8951 7.41762 44.7901 7.59075C44.6883 7.75874 44.6464 7.95571 44.636 8.15235L45.0355 8.17342ZM45.3971 7.60276C45.5203 7.56312 45.6196 7.57273 45.7103 7.6112C45.807 7.65226 45.9053 7.73135 46.0096 7.84923L46.3091 7.58408C46.1851 7.44399 46.0402 7.3167 45.8665 7.24299C45.6868 7.1667 45.4885 7.15315 45.2746 7.22199L45.3971 7.60276ZM46.0083 7.84773C46.6224 8.55539 47.2373 9.26092 47.8521 9.96624C48.4669 10.6716 49.0815 11.3768 49.6952 12.0841L49.9974 11.8219C49.3833 11.1143 48.7684 10.4088 48.1536 9.70342C47.5388 8.99804 46.9242 8.29285 46.3105 7.58558L46.0083 7.84773ZM49.6944 12.0831C49.7574 12.1567 49.7936 12.2096 49.8121 12.2471C49.8302 12.2839 49.8226 12.2881 49.8254 12.2747C49.8287 12.2594 49.8362 12.2628 49.8098 12.2832C49.7815 12.3051 49.7313 12.3331 49.6469 12.3672L49.7964 12.7382C49.8938 12.6989 49.9836 12.6546 50.0548 12.5994C50.1279 12.5428 50.1944 12.4644 50.2169 12.3568C50.2391 12.251 50.2113 12.1524 50.1708 12.0702C50.1307 11.9887 50.0697 11.9064 49.9982 11.8229L49.6944 12.0831ZM49.6473 12.367C49.3498 12.4861 49.2213 12.5064 49.1261 12.4819C49.0282 12.4568 48.9192 12.373 48.7014 12.1228L48.3997 12.3854C48.6094 12.6262 48.7925 12.8092 49.0266 12.8693C49.2632 12.9301 49.5066 12.8542 49.796 12.7383L49.6473 12.367ZM48.7016 12.123C48.3079 11.6694 47.9141 11.2158 47.5204 10.7622C47.1267 10.3086 46.733 9.85494 46.3393 9.40133L46.0372 9.66353C46.4309 10.1171 46.8246 10.5707 47.2183 11.0244C47.6121 11.478 48.0058 11.9316 48.3995 12.3852L48.7016 12.123ZM46.3288 9.39022C46.256 9.31816 46.1996 9.27046 46.1032 9.16732L45.811 9.44045C45.9128 9.5494 45.9944 9.62204 46.0476 9.67464L46.3288 9.39022Z" fill="#5BB0FF" mask="url(#path-3-outside-1_772_7300)"/>
<path d="M78.1996 8.24655C77.7956 9.17443 77.5951 10.1386 77.6745 11.1737C76.7302 10.7489 75.7679 10.5874 74.753 10.6618C75.1799 9.72186 75.3436 8.75573 75.2752 7.74311C76.2078 8.16229 77.1713 8.33084 78.1996 8.24655Z" fill="#AD9C84" stroke="#AD9C84"/>
<path d="M44.1996 78.247C43.7956 79.1749 43.5951 80.1391 43.6745 81.1741C42.7302 80.7494 41.7679 80.5879 40.753 80.6623C41.1799 79.7224 41.3436 78.7562 41.2752 77.7436C42.2078 78.1628 43.1713 78.3313 44.1996 78.247Z" fill="#AD9C84" stroke="#AD9C84"/>
<path d="M11.3916 67.8158C11.9935 68.2267 12.5164 68.5818 13.0315 68.9281C14.3166 69.7727 15.72 69.1618 15.9326 67.6557C15.9747 67.3858 16.0168 67.116 16.0261 66.8437C16.052 66.1836 16.145 65.6364 16.9604 65.4267C17.5238 65.2801 17.7174 64.5835 17.5055 64.0208C17.2936 63.4582 16.7501 63.1676 16.1472 63.2863C14.7737 63.5602 13.9926 64.3933 13.8116 65.7943C13.7803 66.0236 13.7578 66.2453 13.7213 66.5569C13.1984 66.2018 12.7305 65.8924 12.2626 65.5829C10.8995 64.666 9.56716 65.1996 9.22541 66.7868C9.08118 67.4873 8.93696 68.1878 8.77099 68.9694C8.04031 68.3747 7.37333 67.818 6.69758 67.269C6.04494 66.7465 5.33216 66.7739 4.89148 67.3272C4.47814 67.8413 4.61361 68.5635 5.22566 69.0745C6.09701 69.796 6.95961 70.5251 7.8299 71.263C9.04524 72.2926 10.5662 71.7819 10.8971 70.2352C11.0795 69.455 11.2203 68.6797 11.3916 67.8158Z" fill="#4FC4CB" stroke="white" stroke-width="0.5"/>
<path d="M24.6694 25.8676L24.669 25.8677C23.9923 25.9027 23.4381 25.4034 23.4147 24.7227L23.4147 24.7227L23.4143 24.7146C23.3813 24.0637 23.8519 23.5348 24.5191 23.4885C25.1503 23.4452 25.7375 23.9391 25.793 24.5731C25.8496 25.2199 25.3183 25.8345 24.6694 25.8676Z" fill="#AD9C84" stroke="#AD9C84"/>
<path d="M101.897 71.0234L101.897 71.0234C101.22 71.0585 100.666 70.5591 100.642 69.8785L100.642 69.8785L100.642 69.8704C100.609 69.2195 101.08 68.6906 101.747 68.6442C102.378 68.601 102.965 69.0949 103.021 69.7288C103.077 70.3756 102.546 70.9902 101.897 71.0234Z" fill="#AD9C84" stroke="#AD9C84"/>
<path d="M125.555 51.9434C126.077 51.5016 126.506 51.1264 126.953 50.7668C128.053 49.8746 129.351 50.3402 129.674 51.7177C129.732 51.9669 129.803 52.2082 129.828 52.4604C129.895 53.0699 130.055 53.5233 130.759 53.6634C131.287 53.7712 131.546 54.3945 131.408 54.9088C131.278 55.4361 130.795 55.7645 130.242 55.7174C129.037 55.6218 128.222 54.9173 127.932 53.7157C127.871 53.477 127.823 53.2302 127.75 52.9101C127.298 53.2908 126.884 53.6474 126.462 53.9909C125.362 54.8831 124.1 54.4934 123.677 53.1248C123.479 52.472 123.292 51.8216 123.077 51.1084C122.454 51.738 121.87 52.3436 121.278 52.936C120.905 53.3028 120.482 53.3886 120.017 53.1618C119.61 52.9608 119.406 52.5973 119.461 52.1522C119.496 51.881 119.633 51.5903 119.813 51.3886C120.572 50.5578 121.362 49.7345 122.164 48.9479C123.095 48.0364 124.463 48.396 124.861 49.6465C125.104 50.3778 125.312 51.1227 125.555 51.9434Z" fill="#E2AA5C" stroke="white" stroke-width="0.5"/>
<circle cx="14.7497" cy="51.7496" r="2" transform="rotate(-5 14.7497 51.7496)" fill="#AD9C84" stroke="#AD9C84" stroke-width="1.07621"/>
<path d="M123.663 21.6058C123.887 21.6341 124.107 21.7002 124.329 21.7668C124.488 21.8145 124.647 21.8625 124.811 21.8972L128.954 20.5523M123.663 21.6058L123.652 21.7053C123.652 21.7052 123.652 21.7052 123.652 21.7052M123.663 21.6058C123.087 21.5427 122.767 21.7694 122.665 22.3421L122.569 23.876L122.669 23.8854C122.689 23.6742 122.694 23.4601 122.698 23.2504C122.699 23.2028 122.7 23.1553 122.702 23.1082C122.708 22.8515 122.72 22.6019 122.763 22.3598L122.763 22.3596C122.812 22.0876 122.908 21.9159 123.045 21.8163C123.182 21.7163 123.377 21.6752 123.652 21.7052M123.663 21.6058L123.651 21.7051C123.651 21.7051 123.651 21.7051 123.652 21.7052M123.652 21.7052C123.835 21.7284 124.017 21.7782 124.206 21.8343C124.237 21.8435 124.268 21.8528 124.299 21.8623C124.458 21.9099 124.622 21.9593 124.79 21.995L124.79 21.9951C124.968 22.0326 125.142 22.0761 125.319 22.1202C125.449 22.1528 125.58 22.1857 125.715 22.2166C126.027 22.2879 126.344 22.3452 126.662 22.3487L126.663 22.2487L126.662 22.3487C127.254 22.3563 127.766 22.2049 128.174 21.9027C128.582 21.6006 128.879 21.1531 129.049 20.5811M129.049 20.5811C129.049 20.5811 129.049 20.5812 129.049 20.5813L128.954 20.5523M129.049 20.5811C129.049 20.581 129.049 20.581 129.049 20.5809L128.954 20.5523M129.049 20.5811C129.2 20.0811 129.239 19.5421 129.277 19.0203C129.286 18.9018 129.294 18.7841 129.304 18.668M128.954 20.5523C129.101 20.064 129.139 19.5387 129.177 19.0176C129.186 18.8977 129.195 18.778 129.205 18.6591M129.304 18.668C129.304 18.6682 129.304 18.6684 129.304 18.6686L129.205 18.6591M129.304 18.668C129.304 18.6678 129.304 18.6676 129.304 18.6674L129.205 18.6591M129.304 18.668C129.323 18.47 129.322 18.2691 129.32 18.0745C129.32 18.0619 129.32 18.0493 129.32 18.0367C129.318 17.8282 129.318 17.6268 129.342 17.4315L129.343 17.4312C129.39 17.0369 129.48 16.8182 129.629 16.6893C129.78 16.559 130.014 16.5013 130.403 16.4887L130.404 16.4887C130.611 16.4803 130.863 16.4375 131.049 16.3176L131.05 16.3173C131.224 16.2035 131.338 16.0525 131.396 15.8762C131.452 15.7013 131.45 15.5079 131.402 15.3103L131.401 15.3086L131.401 15.3086C131.301 14.9248 131.043 14.6255 130.634 14.6062L130.632 14.6061L130.632 14.6061C130.232 14.5945 129.828 14.6254 129.429 14.656C129.289 14.6667 129.149 14.6774 129.011 14.6862L128.95 14.69L128.926 14.745C128.905 14.7905 128.896 14.8278 128.892 14.8596C128.255 15.1843 127.805 15.7042 127.634 16.4068L127.634 16.4069C127.503 16.947 127.455 17.5186 127.408 18.0734C127.4 18.1698 127.392 18.2657 127.384 18.3608C127.384 18.3609 127.384 18.361 127.384 18.3611L127.483 18.3699C127.465 18.5612 127.464 18.7548 127.463 18.9481C127.462 19.1689 127.46 19.3894 127.433 19.6056L129.243 17.4191M129.205 18.6591C129.223 18.4662 129.221 18.27 129.22 18.0741C129.218 17.8538 129.216 17.6338 129.243 17.4191M129.243 17.4191C129.34 16.6194 129.615 16.4141 130.4 16.3888C130.6 16.3807 130.831 16.3391 130.995 16.2335L129.243 17.4191ZM116.701 24.9968C117.032 24.9989 117.363 25.0566 117.688 25.1298C117.838 25.1637 117.988 25.2012 118.137 25.2382L118.174 25.2474C118.335 25.2875 118.493 25.3267 118.652 25.361C118.817 25.3942 118.982 25.441 119.143 25.4866C119.179 25.4971 119.216 25.5075 119.252 25.5176C119.449 25.5726 119.64 25.6209 119.83 25.6407C120.067 25.6637 120.241 25.6232 120.366 25.5314C120.493 25.4395 120.586 25.2849 120.641 25.0477L120.641 25.0477L120.641 25.0466C120.71 24.7651 120.726 24.4661 120.743 24.1592C120.748 24.0668 120.753 23.9737 120.76 23.8801C120.775 23.6646 120.78 23.4498 120.786 23.2329C120.789 23.1138 120.792 22.9941 120.796 22.8733C120.809 22.5363 120.834 22.1976 120.908 21.8685C121.057 21.1789 121.397 20.6354 121.88 20.2761C122.362 19.9169 122.981 19.7473 123.68 19.7924C124.066 19.8152 124.458 19.9237 124.836 20.0282C124.966 20.0641 125.093 20.0995 125.219 20.1308L125.219 20.1308L125.22 20.131C125.36 20.1674 125.498 20.2167 125.632 20.2643C125.659 20.2741 125.686 20.2838 125.713 20.2933C125.874 20.3499 126.028 20.4002 126.185 20.4258L126.185 20.4259C126.563 20.49 126.817 20.4514 126.99 20.326C127.162 20.2007 127.278 19.9708 127.334 19.5921L116.699 25.0968M116.701 24.9968C116.701 24.9968 116.7 24.9968 116.7 24.9968L116.699 25.0968M116.701 24.9968C116.701 24.9968 116.701 24.9968 116.701 24.9968L116.699 25.0968M116.701 24.9968C116.135 24.9863 115.642 25.136 115.249 25.4288C114.856 25.7215 114.568 26.1524 114.401 26.6937M116.699 25.0968C115.605 25.0763 114.82 25.6743 114.497 26.7233M114.401 26.6937C114.401 26.6936 114.401 26.6935 114.401 26.6934L114.497 26.7233M114.401 26.6937C114.247 27.1847 114.203 27.7127 114.16 28.2257C114.147 28.381 114.135 28.5349 114.119 28.686L114.119 28.6862C114.103 28.8475 114.103 29.0107 114.104 29.1668C114.104 29.1818 114.104 29.1968 114.104 29.2116C114.105 29.3835 114.103 29.5464 114.08 29.7023L114.08 29.7042L114.08 29.7042C114.049 29.9361 113.991 30.0528 113.91 30.1135C113.828 30.1752 113.697 30.1991 113.468 30.1758C113.297 30.1583 113.125 30.1152 112.949 30.0709C112.894 30.0571 112.838 30.0431 112.782 30.0298M114.401 26.6937C114.401 26.6937 114.401 26.6938 114.401 26.6939L114.497 26.7233M114.497 26.7233L112.782 30.0298M111.567 30.6724C111.567 30.6725 111.567 30.6727 111.567 30.6729L111.664 30.6983L111.567 30.6719C111.567 30.6721 111.567 30.6722 111.567 30.6724ZM111.567 30.6724C111.635 30.4126 111.795 30.2128 112.013 30.0981C112.23 29.9839 112.499 29.9577 112.782 30.0298M111.567 30.6724L112.782 30.0298M112.782 30.0298C112.782 30.0297 112.781 30.0297 112.781 30.0296L112.758 30.1269L112.783 30.03C112.782 30.0299 112.782 30.0299 112.782 30.0298ZM122.335 25.6853L122.431 25.7129C122.431 25.7129 122.431 25.713 122.431 25.713L122.335 25.6853ZM119.992 27.5337C119.992 27.5337 119.992 27.5337 119.992 27.5337L119.995 27.4337L119.992 27.5337ZM118.101 27.0538L118.079 27.1514C118.079 27.1514 118.079 27.1514 118.079 27.1513L118.101 27.0538ZM116.985 26.8904C116.985 26.8904 116.985 26.8903 116.985 26.8903C116.985 26.8903 116.985 26.8903 116.985 26.8903L116.995 26.7908L116.985 26.8904ZM116.117 27.5361C116.117 27.5362 116.117 27.5362 116.117 27.5362L116.019 27.5164L116.117 27.5361ZM116.012 28.7591C116.012 28.7592 116.012 28.7593 116.012 28.7594C116.012 28.7595 116.012 28.7595 116.012 28.7596L115.912 28.75L116.012 28.7591ZM115.821 30.5056C115.821 30.5057 115.821 30.5058 115.821 30.5059L115.724 30.4803L115.821 30.5056ZM113.7 31.9942L113.698 32.0942C113.698 32.0942 113.698 32.0942 113.698 32.0942L113.7 31.9942ZM112.266 31.8555C112.266 31.8554 112.266 31.8553 112.265 31.8553C112.265 31.8552 112.265 31.8551 112.265 31.855L112.292 31.7587L112.266 31.8555Z" fill="#D964A3" stroke="#D964A3" stroke-width="0.2"/>
<path d="M69.577 72.7419L69.577 72.7419C69.3669 72.7553 69.1652 72.7219 68.9982 72.6155C68.8271 72.5066 68.7203 72.3389 68.6724 72.1397C68.61 71.8976 68.6596 71.6588 68.7988 71.4732C68.9369 71.2889 69.1522 71.1709 69.3995 71.1401M69.577 72.7419L60.9859 72.9779M69.577 72.7419L69.5806 72.7417C69.8977 72.7168 70.1861 72.7525 70.4538 72.8755C69.3094 73.9984 67.24 74.7635 65.1099 75.0219C63.9836 75.1586 62.8574 75.1511 61.868 74.9863C61.0008 74.8419 60.2542 74.5794 59.703 74.2012C59.9348 74.0213 60.2053 73.9168 60.5151 73.8586M69.577 72.7419L60.4697 73.6127M69.3995 71.1401C70.9792 70.9368 72.556 72.0398 73.0186 73.6299C73.0779 73.8319 73.1344 74.0518 73.1626 74.2797C73.2177 74.7235 72.9478 75.1252 72.5151 75.1897C72.0693 75.2561 71.7367 74.9348 71.6354 74.5277C71.6002 74.3865 71.5633 74.2462 71.5268 74.1092C69.5746 75.4762 67.564 76.3558 65.4687 76.6422C63.3715 76.9289 61.2048 76.6192 58.9458 75.6299C58.9418 75.7673 58.9394 75.9017 58.9427 76.0389C58.9496 76.2591 58.903 76.4697 58.7878 76.6378C58.6688 76.8115 58.4881 76.9221 58.2701 76.9491C58.0404 76.9776 57.8289 76.9042 57.6712 76.7518C57.5178 76.6037 57.4282 76.3946 57.3995 76.1644M69.3995 71.1401C69.3993 71.1401 69.3991 71.1402 69.3989 71.1402L69.4308 71.3881L69.4001 71.14C69.3999 71.1401 69.3997 71.1401 69.3995 71.1401ZM57.3995 76.1644C57.1629 74.3119 58.4944 72.4853 60.2824 72.2636C60.5098 72.2354 60.7303 72.2784 60.9072 72.4006C61.0864 72.5243 61.2005 72.7157 61.2333 72.9422M57.3995 76.1644C57.3995 76.1645 57.3996 76.1647 57.3996 76.1649L57.6476 76.1331L57.3995 76.1639C57.3995 76.1641 57.3995 76.1642 57.3995 76.1644ZM61.2333 72.9422L60.9859 72.9779M61.2333 72.9422C61.2333 72.9421 61.2333 72.9421 61.2333 72.9421L60.9859 72.9779M61.2333 72.9422C61.2654 73.1636 61.2136 73.377 61.0771 73.5466C60.9427 73.7134 60.7435 73.8169 60.5151 73.8586M60.9859 72.9779C61.032 73.2964 60.8358 73.5462 60.4697 73.6127M60.5151 73.8586C60.5154 73.8585 60.5156 73.8585 60.5158 73.8585L60.4697 73.6127M60.5151 73.8586C60.5149 73.8586 60.5147 73.8587 60.5144 73.8587L60.4697 73.6127M58.7009 75.4635C58.7003 75.4821 58.6996 75.5007 58.699 75.5193L58.9543 75.3603C58.8722 75.3237 58.7899 75.2862 58.7074 75.2477C58.7056 75.32 58.7032 75.3919 58.7009 75.4635Z" fill="#F35D2D" stroke="#F35D2D" stroke-width="0.5"/>
<path d="M19.4768 40.2483L19.4768 40.2483C19.2712 39.8313 19.1232 39.3684 18.9798 38.9202C18.955 38.8424 18.9302 38.765 18.9053 38.6884C18.8528 38.5302 18.8135 38.3664 18.7754 38.2076C18.7726 38.1959 18.7698 38.1842 18.767 38.1726C18.7258 38.0015 18.685 37.8367 18.6286 37.6811C18.5118 37.3808 18.381 37.2255 18.2347 37.1669C18.0896 37.1087 17.8963 37.1327 17.621 37.2749L17.6204 37.2752C17.5074 37.3327 17.4001 37.4101 17.2881 37.4952C17.2694 37.5094 17.2505 37.5238 17.2314 37.5384C17.1385 37.6095 17.0414 37.6839 16.9404 37.7478L16.9396 37.7483L16.9396 37.7482C16.8507 37.8034 16.7602 37.8626 16.6683 37.9229C16.3987 38.0997 16.1166 38.2847 15.8234 38.3961C15.8233 38.3962 15.8232 38.3962 15.8231 38.3963L15.7875 38.3028C14.7648 38.6982 13.8377 38.3226 13.3565 37.2832L19.4768 40.2483ZM19.4768 40.2483C19.7534 40.8088 20.2219 41.1403 20.8028 41.2509M19.4768 40.2483L20.3575 37.9774M15.4466 36.8865C15.0172 37.076 14.7282 36.9644 14.5391 36.5144M15.4466 36.8865C15.6128 36.8098 15.7683 36.7029 15.9253 36.5949C16.0376 36.5177 16.1506 36.44 16.2689 36.3724C16.3983 36.2988 16.5265 36.2193 16.6547 36.1398C16.97 35.9444 17.2854 35.7488 17.6194 35.6407M15.4466 36.8865L15.4063 36.795C15.406 36.7951 15.4057 36.7953 15.4055 36.7954C15.4052 36.7955 15.405 36.7956 15.4047 36.7957L15.4466 36.8865ZM14.5391 36.5144L20.5327 39.0258C20.4705 38.8545 20.4292 38.6719 20.3877 38.4891C20.3509 38.3265 20.314 38.1637 20.2624 38.0084C20.2317 37.9123 20.2018 37.8153 20.1718 37.7181C20.0417 37.2956 19.9105 36.8698 19.7028 36.5005C19.2335 35.6602 18.4952 35.3557 17.6194 35.6407M14.5391 36.5144C14.4408 36.2813 14.3764 36.0302 14.312 35.7788C14.2678 35.6065 14.2236 35.434 14.1684 35.2671L14.5391 36.5144ZM17.6194 35.6407L17.5886 35.5456C17.5886 35.5456 17.5886 35.5456 17.5885 35.5456M17.6194 35.6407L17.5884 35.5456C17.5885 35.5456 17.5885 35.5456 17.5885 35.5456M20.3575 37.9774C20.4106 38.1374 20.4485 38.3045 20.485 38.4658C20.4874 38.4763 20.4898 38.4868 20.4921 38.4973C20.5314 38.6705 20.5704 38.8365 20.6267 38.9917L20.6268 38.992C20.7403 39.308 20.8494 39.4609 20.9799 39.5276C21.1106 39.5943 21.2916 39.5895 21.5924 39.5073L21.5932 39.507L21.5932 39.507C21.7545 39.4645 21.9623 39.4383 22.1358 39.496L22.1364 39.4962C22.4689 39.609 22.613 39.9087 22.6161 40.2611L22.6161 40.2627L22.6161 40.2627C22.6137 40.5978 22.4796 40.9091 22.1705 41.0305C21.9595 41.1919 21.6869 41.2594 21.4399 41.2815C21.187 41.3042 20.9484 41.2805 20.8028 41.2509M20.3575 37.9774C20.3276 37.884 20.2983 37.7888 20.2688 37.6929C20.1385 37.2699 20.0035 36.8313 19.7901 36.4518C19.547 36.0166 19.2297 35.7122 18.8517 35.5562C18.4732 35.4 18.0447 35.3972 17.5885 35.5456M20.3575 37.9774L17.5885 35.5456M20.8028 41.2509C20.8025 41.2509 20.8023 41.2508 20.8021 41.2508L20.8221 41.1528M20.8028 41.2509C20.803 41.2509 20.8032 41.251 20.8034 41.251L20.8221 41.1528M20.8221 41.1528C21.0959 41.2087 21.739 41.2448 22.121 40.9424L19.5665 40.2041C19.8286 40.7352 20.2701 41.0479 20.8221 41.1528ZM8.12406 32.8148L8.21896 32.7833C8.25907 32.904 8.2945 33.0289 8.32924 33.1513C8.34264 33.1985 8.35594 33.2454 8.36937 33.2915C8.41819 33.4592 8.4695 33.6203 8.53636 33.7701C8.62434 33.9666 8.7299 34.0765 8.84549 34.1242C8.96026 34.1717 9.10608 34.1666 9.29407 34.0876L9.33313 34.1796C8.92715 34.3505 8.63287 34.2304 8.44509 33.8109C8.35566 33.6106 8.29402 33.3935 8.23243 33.1765C8.19792 33.0549 8.16342 32.9333 8.12406 32.8148ZM8.12406 32.8148C8.08004 32.6804 8.03981 32.5434 7.99955 32.4064C7.90019 32.0683 7.80071 31.7297 7.64391 31.4271M8.12406 32.8148L8.2191 32.7837C8.17721 32.6558 8.13813 32.5228 8.09851 32.388C7.9981 32.0463 7.89428 31.693 7.73285 31.3813M7.64391 31.4271L7.73285 31.3813M7.64391 31.4271C7.25409 30.6689 6.5705 30.3968 5.80013 30.6549L7.64391 31.4271ZM7.73285 31.3813C7.52916 30.9852 7.2446 30.7086 6.90291 30.5675C6.56113 30.4263 6.17242 30.4247 5.76836 30.5601M7.73285 31.3813L5.76836 30.5601M5.76836 30.5601C5.40037 30.6829 5.04241 30.8838 4.71274 31.101C4.31245 31.3554 4.19912 31.8722 4.40337 32.2587C4.50796 32.4609 4.67363 32.5941 4.87225 32.6393C5.06968 32.6842 5.2872 32.6393 5.49338 32.5103M5.76836 30.5601L12.761 35.6938C12.7377 35.6175 12.7156 35.5413 12.6937 35.4658C12.6213 35.2159 12.5512 34.9737 12.4447 34.7581L12.4442 34.757C12.3568 34.5747 12.2578 34.4749 12.1519 34.4322C12.0471 34.39 11.9145 34.3953 11.7406 34.4693C11.6002 34.5302 11.465 34.6146 11.3251 34.7069C11.2994 34.7239 11.2735 34.7411 11.2473 34.7585C11.1335 34.8343 11.0155 34.9129 10.8942 34.9803M5.49338 32.5103C5.49315 32.5104 5.49291 32.5106 5.49267 32.5107L5.44102 32.4251L5.49414 32.5098C5.49389 32.51 5.49363 32.5101 5.49338 32.5103ZM5.49338 32.5103C5.53439 32.4855 5.57456 32.4606 5.61421 32.436C5.74065 32.3574 5.86181 32.2821 5.98809 32.2275C6.15857 32.1539 6.25418 32.1471 6.31753 32.1738C6.38074 32.2006 6.4461 32.2753 6.51482 32.4611L6.51481 32.4611L6.51547 32.4628C6.56335 32.5853 6.59591 32.7192 6.62882 32.8617C6.63168 32.8741 6.63453 32.8865 6.6374 32.899C6.66711 33.0283 6.69833 33.1641 6.74236 33.2942L6.74244 33.2945C6.78361 33.4153 6.82317 33.5392 6.86313 33.6645C6.99553 34.0793 7.1323 34.5079 7.34649 34.8793M7.34649 34.8793C7.58047 35.2899 7.88789 35.5825 8.25248 35.7341C8.6177 35.886 9.03052 35.8923 9.46678 35.7475M7.34649 34.8793C7.34644 34.8792 7.34639 34.8791 7.34634 34.8791L7.43323 34.8296L7.34661 34.8795C7.34657 34.8795 7.34653 34.8794 7.34649 34.8793ZM9.46678 35.7475C9.72245 35.6662 9.96626 35.5388 10.2013 35.4006C10.3101 35.3367 10.418 35.2699 10.5246 35.2039L10.551 35.1875C10.6663 35.1161 10.7801 35.046 10.8942 34.9803M9.46678 35.7475C9.46657 35.7476 9.46636 35.7476 9.46615 35.7477L9.43586 35.6524L9.4674 35.7473C9.46719 35.7474 9.46698 35.7474 9.46678 35.7475ZM10.8942 34.9803C10.8939 34.9804 10.8937 34.9805 10.8935 34.9807L10.8449 34.8932L10.8949 34.9799C10.8946 34.98 10.8944 34.9801 10.8942 34.9803Z" fill="#702BFE" stroke="#702BFE" stroke-width="0.2"/>
<rect x="103.696" y="12.0637" width="2.38414" height="2.38414" rx="1.19207" transform="rotate(-35 103.696 12.0637)" fill="#AD9C84" stroke="#AD9C84"/>
</svg>
