<svg width="170" height="174" viewBox="0 0 170 174" fill="none" xmlns="http://www.w3.org/2000/svg">
<g filter="url(#filter0_d_779_6989)">
<path d="M90.407 98.5724C106.615 95.9824 119 81.9376 119 65C119 46.2223 103.778 31 85 31C66.2223 31 51 46.2223 51 65C51 82.7179 64.5525 97.2704 81.8566 98.8566L85.2929 102.293C85.6834 102.683 86.3166 102.683 86.7071 102.293L90.2929 98.7071C90.3359 98.6641 90.3738 98.6191 90.407 98.5724Z" fill="#F7BF72"/>
<path d="M90.407 98.5724C106.615 95.9824 119 81.9376 119 65C119 46.2223 103.778 31 85 31C66.2223 31 51 46.2223 51 65C51 82.7179 64.5525 97.2704 81.8566 98.8566L85.2929 102.293C85.6834 102.683 86.3166 102.683 86.7071 102.293L90.2929 98.7071C90.3359 98.6641 90.3738 98.6191 90.407 98.5724Z" stroke="white" stroke-width="2"/>
</g>
<path d="M85 77C86.5926 77 93 69.9679 93 63.6036C93 58.85 89.4074 55 85 55C80.5926 55 77 58.85 77 63.6036C77 69.9679 83.4074 77 85 77ZM80.6296 62.8571C80.6296 62.2286 80.7407 61.6 80.963 61.05C81.1111 60.6964 81.5556 60.6571 81.7407 60.9714C82.037 61.4821 82.5926 61.8357 83.2222 61.8357C84.1852 61.8357 85 60.9714 85 59.95C85 59.5179 84.8889 59.1643 84.6667 58.85C84.4444 58.575 84.6296 58.1429 85 58.1429C87.4074 58.1429 89.3704 60.2643 89.3704 62.8571C89.3704 65.45 87.4074 67.5714 85 67.5714C82.5926 67.5714 80.6296 65.45 80.6296 62.8571Z" fill="#482A1D"/>
<defs>
<filter id="filter0_d_779_6989" x="0" y="0" width="170" height="173.586" filterUnits="userSpaceOnUse" color-interpolation-filters="sRGB">
<feFlood flood-opacity="0" result="BackgroundImageFix"/>
<feColorMatrix in="SourceAlpha" type="matrix" values="0 0 0 0 0 0 0 0 0 0 0 0 0 0 0 0 0 0 127 0" result="hardAlpha"/>
<feOffset dy="20"/>
<feGaussianBlur stdDeviation="25"/>
<feColorMatrix type="matrix" values="0 0 0 0 0 0 0 0 0 0 0 0 0 0 0 0 0 0 0.25 0"/>
<feBlend mode="normal" in2="BackgroundImageFix" result="effect1_dropShadow_779_6989"/>
<feBlend mode="normal" in="SourceGraphic" in2="effect1_dropShadow_779_6989" result="shape"/>
</filter>
</defs>
</svg>
