<svg width="88" height="88" viewBox="0 0 88 88" fill="none" xmlns="http://www.w3.org/2000/svg">
<path d="M84.4395 56.5161C80.2522 52.097 78.8786 48.9158 78.932 43.6582C78.9586 38.8531 80.5722 35.3259 84.6261 31.2129C87.0798 28.7106 88 27.3263 88 26.1683C88 25.6226 87.7866 25.383 86.8131 24.957C85.8397 24.5311 84.9195 24.398 81.8657 24.3315C76.6783 24.225 74.4113 23.5994 71.0908 21.3899C68.0636 19.3933 65.8766 16.4916 64.5031 12.7115C64.0764 11.5268 63.9297 10.1825 63.7697 6.69514C63.6096 3.07471 63.4763 1.96994 63.0762 1.15801C62.0761 -0.865178 60.7559 -0.372692 56.4352 3.74023C54.3549 5.71017 53.2481 6.52211 51.5545 7.37398C46.5937 9.82309 41.3796 9.82309 36.4322 7.37398C34.7386 6.53542 33.6318 5.72348 31.4048 3.60713C29.8445 2.10305 28.1109 0.692142 27.6042 0.452554C27.0841 0.212967 26.4173 0.0133104 26.0973 0C24.8838 0 24.2303 2.36926 24.2303 6.84156C24.2303 12.0193 22.6968 15.9725 19.3629 19.34C18.0694 20.6312 16.8826 21.523 15.4157 22.2817C12.4419 23.799 10.5616 24.225 6.10759 24.3581C3.08047 24.4379 2.08032 24.571 1.16018 24.957C0.213366 25.383 0 25.6093 0 26.1683C0 27.3263 0.920139 28.6973 3.5072 31.3461C8.22791 36.1644 9.98818 41.3954 8.85467 47.0923C8.12123 50.7526 6.80103 53.1086 3.56054 56.5028C0.706774 59.5375 0 60.5358 0 61.614C0 63.0382 1.76027 63.6105 6.1876 63.6371C11.8818 63.6638 15.7757 65.1412 19.2562 68.6019C21.4166 70.7848 22.5501 72.5418 23.4702 75.2039C23.9236 76.5749 24.0703 77.7861 24.2303 81.2468C24.417 85.7724 24.7638 87.2765 25.8439 87.902C26.5774 88.3546 28.4576 87.1966 30.8447 84.854C33.4051 82.3516 34.9253 81.2468 37.219 80.1953C41.3529 78.3318 46.6204 78.3318 50.7544 80.1953C53.1014 81.2468 54.6216 82.3782 57.1287 84.854C59.3957 87.0901 61.2359 88.2481 62.1294 87.9553C63.1029 87.6358 63.5296 85.8789 63.743 81.2468C63.903 77.7994 64.063 76.5616 64.5031 75.2039C66.2367 70.1592 70.1973 66.2327 75.2514 64.5289C76.985 63.9566 77.9985 63.7969 81.6524 63.6371C84.0527 63.5307 86.2397 63.3443 86.5198 63.2378C87.9733 62.6522 88.3067 61.6539 87.5733 60.2164C87.3732 59.7771 85.9464 58.1133 84.4395 56.5161Z" fill="#F7BF72"/>
</svg>
