<svg width="88" height="85" viewBox="0 0 88 85" fill="none" xmlns="http://www.w3.org/2000/svg">
<path d="M11.2388 66.1751C4.57373 66.2853 -0.322679 61.3646 0.0496712 54.8648C0.217229 52.0005 1.57631 49.6686 3.73594 47.7958C4.9647 46.7309 5.85834 45.4824 6.17484 43.885C6.69613 41.2593 5.89558 39.056 3.88488 37.2934C1.96728 35.6042 0.66405 33.6028 0.179994 31.1057C-0.992911 25.1017 3.71732 19.0977 9.91696 18.7855C10.9968 18.7305 12.0952 18.8406 13.175 18.7121C17.1219 18.198 19.5981 15.297 19.4491 11.3677C19.3374 8.35653 20.138 5.67583 22.2418 3.45416C26.5983 -1.15444 33.8405 -1.15444 38.2901 3.47252C39.7609 5.01484 41.4737 6.00633 43.6333 6.09813C46.0163 6.2083 47.9712 5.30861 49.5723 3.58268C52.0112 0.957068 55.0459 -0.218033 58.6577 0.0390205C64.094 0.406239 68.5063 4.99647 68.5622 10.3762C68.5808 11.3494 68.4877 12.3592 68.6925 13.2956C69.3627 16.5271 72.2485 18.7121 75.6741 18.7855C77.089 18.8223 78.5598 18.7672 79.9189 19.116C83.9961 20.1443 86.6212 22.7699 87.6451 26.7726C88.6505 30.7202 87.4962 34.1537 84.4802 36.9262C83.2328 38.0829 82.153 39.3131 81.7992 41.0023C81.2593 43.6646 82.0785 45.8863 84.1264 47.6857C86.044 49.3565 87.3287 51.3762 87.8127 53.8917C88.967 59.8406 84.2381 65.8446 78.113 66.1568C77.0332 66.2119 75.9347 66.1017 74.8549 66.2302C71.0755 66.6525 68.2829 69.7922 68.5063 73.648C68.7484 77.9261 66.9983 81.2678 63.2189 83.4711C58.6763 86.1151 53.2772 85.2705 49.5723 81.3964C46.6307 78.3301 42.3115 77.9812 39.221 80.5885C38.7369 81.0108 38.3087 81.5065 37.8433 81.9472C34.641 85.0135 29.9867 85.8213 25.8536 84.0587C21.7949 82.3144 19.1326 78.5504 19.4678 74.1989C19.8401 69.3883 16.1725 65.7161 11.2388 66.1751Z" fill="#F7BF72"/>
</svg>
