<svg width="91" height="145" viewBox="0 0 91 145" fill="none" xmlns="http://www.w3.org/2000/svg">
<path d="M9.60705 4.93229C13.9321 8.44192 18.0753 14.4576 16.6827 20.3027C10.7267 20.5546 4.92511 23.0585 0.826261 27.4622C-0.427874 28.8455 -0.273447 31.0976 1.4205 32.042C8.00153 35.6919 16.2971 32.5907 20.2753 26.5157C25.9817 27.6083 31.0665 31.7004 32.7802 38.2161C36.2924 51.4987 22.3009 63.3459 10.9359 67.6163C10.4761 67.7613 10.0876 67.9252 9.62771 68.0702C6.11765 69.3133 7.47261 74.8952 11.0801 73.7161C11.6305 73.5188 12.1357 73.3477 12.6861 73.1504C19.2011 70.8356 25.9301 68.5774 32.8791 68.8936C39.2381 69.1298 46.4343 72.4851 48.8796 78.6991C49.4601 80.2254 49.6907 81.7733 49.5713 83.3428C47.3299 83.8545 45.1858 84.4301 43.0418 85.0058C34.2583 87.3677 24.5687 90.252 17.4727 96.2634C12.4079 100.564 6.23879 112.044 16.4398 114.327C20.6162 115.281 25.6167 113.899 29.5866 112.511C33.945 110.959 38.0103 108.796 41.6398 105.983C47.2619 101.602 52.5618 95.3054 54.5414 88.2814C59.193 87.3408 63.9361 86.7677 68.5772 86.8536C75.1888 87.0043 83.6217 89.8867 85.0135 97.3083C85.7224 101.042 84.0587 104.642 82.3747 107.894C80.3814 111.864 78.0766 115.714 75.6484 119.455C70.7014 126.989 64.826 133.857 58.2815 140.091C55.5524 142.685 59.7233 146.763 62.4524 144.17C69.7536 137.26 76.1843 129.471 81.5698 121.024C86.0772 113.983 92.556 104.606 90.6618 95.7932C88.8332 87.3027 80.4666 82.341 72.3751 81.3027C66.8317 80.5964 61.0772 81.0922 55.3758 82.0978C55.1543 73.4613 48.0476 66.8129 40.0755 64.205C36.3522 62.9897 32.521 62.7371 28.6522 63.0463C36.555 55.6094 41.6126 45.5505 37.8413 35.0585C35.3554 28.1476 29.6833 22.413 22.3745 20.7434C23.6725 13.272 19.35 5.37884 13.596 0.651908C10.8425 -1.60262 6.70404 2.5238 9.60705 4.93229ZM42.8306 97.0731C37.7495 102.703 30.9532 106.621 23.529 108.2C21.9094 108.533 20.1278 108.9 18.4552 108.723C16.3352 108.505 16.6243 107.438 17.4369 105.709C18.9135 102.516 21.7015 100.129 24.6851 98.2888C30.8789 94.4782 38.1787 92.3713 45.142 90.5183C46.0424 90.2994 46.9168 90.0354 47.8172 89.8165C46.5015 92.5559 44.6343 95.0729 42.8306 97.0731Z" fill="#F35D2D"/>
</svg>
