<svg width="342" height="18" viewBox="0 0 342 18" fill="none" xmlns="http://www.w3.org/2000/svg">
<path d="M146.835 13.5503C151.771 13.8088 156.781 14.3259 161.717 14.2742C188.461 14.119 215.205 13.9639 241.949 13.602C271.419 13.1883 300.816 12.5678 330.286 11.9473C334.706 11.8439 338.39 12.6712 342 15.1015C335.148 15.8254 328.296 17.0664 321.445 17.1182C274.587 17.5835 227.656 17.8938 180.799 17.9972C169.821 18.0489 158.77 17.3767 147.792 16.6528C145.361 16.4976 141.751 15.3083 141.014 13.9639C139.688 11.5853 143.445 10.2926 145.877 9.15501C149.413 7.50033 153.318 6.15591 157.002 4.65635C157.665 4.39781 158.328 4.03585 158.991 3.7256C158.917 3.41535 158.844 3.1568 158.77 2.84655C153.907 3.00168 148.971 2.89826 144.109 3.36364C115.081 6.05249 86.0526 8.79305 57.0982 11.7404C39.1215 13.5503 21.2921 15.722 3.31538 17.7387C2.28393 17.8421 1.25248 17.7387 0.14735 17.7387C0.0736751 17.4801 0.0736751 17.2216 0 16.963C4.05213 16.3942 8.10427 15.722 12.2301 15.2049C39.4162 11.9473 66.6023 8.58622 93.7884 5.5354C111.397 3.57047 129.153 1.9675 146.908 0.312824C150.887 -0.0491365 155.012 0.0542809 158.991 0.00257218C161.717 -0.0491365 164.443 0.674785 164.517 2.5363C164.59 3.77731 162.675 5.43199 160.98 6.25933C156.265 8.53451 151.255 10.4477 146.319 12.4644C146.614 12.8263 146.687 13.1883 146.835 13.5503Z" fill="#FFECCF" stroke="#FFECCF"/>
</svg>
