<svg  class="main-svg-sprite main-svg-sprite--icons" xmlns="http://www.w3.org/2000/svg" xmlns:xlink="http://www.w3.org/1999/xlink"><symbol viewBox="0 0 9 6" id="arr-d2" xmlns="http://www.w3.org/2000/svg"><path d="M7.727 0H1.273C.403 0-.052 1.034.536 1.676l3.227 3.52a1 1 0 001.474 0l3.227-3.52C9.052 1.034 8.597 0 7.727 0z"/></symbol><symbol viewBox="0 0 21 18" id="arr-l" xmlns="http://www.w3.org/2000/svg"><rect width="16" height="3" rx="1.5" transform="matrix(-1 0 0 1 20.5 7.5)"/><rect width="12" height="3" rx="1.5" transform="scale(-1 1) rotate(45 -4.69 -11.321)"/><rect width="12" height="3" rx="1.5" transform="scale(-1 1) rotate(-45 13.15 21.71)"/></symbol><symbol viewBox="0 0 21 18" id="arr-l-2" xmlns="http://www.w3.org/2000/svg"><rect width="16" height="3" rx="1.5" transform="matrix(-1 0 0 1 20.5 7.5)"/><rect width="12" height="3" rx="1.5" transform="scale(-1 1) rotate(45 -4.69 -11.321)"/><rect width="12" height="3" rx="1.5" transform="scale(-1 1) rotate(-45 13.15 21.71)"/></symbol><symbol viewBox="0 0 21 18" id="arr-r" xmlns="http://www.w3.org/2000/svg"><rect x=".5" y="7.5" width="16" height="3" rx="1.5"/><rect x="11.621" width="12" height="3" rx="1.5" transform="rotate(45 11.621 0)"/><rect x="9.5" y="15.657" width="12" height="3" rx="1.5" transform="rotate(-45 9.5 15.657)"/></symbol><symbol viewBox="0 0 18 16" id="cart" xmlns="http://www.w3.org/2000/svg"><path d="M2.16 1.284c-.514 0-1.002.004-1.486 0a.646.646 0 01-.6-.361C-.044.7-.019.48.131.275.262.09.453.005.682.002c.639 0 1.282-.004 1.92 0 .396.004.634.189.73.563.175.66.342 1.322.522 2.01H16.609c.914 0 1.569.8 1.348 1.652-.51 1.975-1.023 3.945-1.536 5.919-.18.691-.747 1.11-1.493 1.11H5.94c-.78 0-1.331-.419-1.519-1.15-.546-2.115-1.097-4.23-1.644-6.345-.213-.816-.409-1.636-.617-2.477zM8.093 14.484c-.004.836-.718 1.516-1.586 1.512-.863-.004-1.577-.692-1.577-1.524 0-.844.722-1.532 1.598-1.524.868.012 1.57.7 1.565 1.536zM14.44 12.952c.867.004 1.577.688 1.577 1.524 0 .844-.722 1.532-1.598 1.524-.864-.008-1.57-.696-1.57-1.532.009-.836.727-1.52 1.59-1.516z"/></symbol><symbol viewBox="0 0 48 48" id="certificate" xmlns="http://www.w3.org/2000/svg"><path d="M16 29h9v-1.5h-9V29zm0-4.5h14V23H16v1.5zm0-4.5h14v-1.5H16V20zm0-4.5h14V14H16v1.5zm1 21.531L14.977 35H17v2.031zm3-3.531a1.5 1.5 0 00-1.5-1.5H13V9h20v16h3V9c0-1.654-1.346-3-3-3H13c-1.654 0-3 1.346-3 3v24.045c0 .781.289 1.501.812 2.025l6.061 6.085a2.883 2.883 0 002.025.845H29v-3h-9v-5.5zm14.5-1c-.827 0-1.5-.673-1.5-1.5s.673-1.5 1.5-1.5 1.5.673 1.5 1.5-.673 1.5-1.5 1.5zM39 31c0-2.481-2.019-4.5-4.5-4.5A4.505 4.505 0 0030 31c0 1.791 1.059 3.328 2.577 4.052l-2 5.999 2.846.949 1.077-3.231L35.577 42l2.846-.949-2-5.999C37.941 34.328 39 32.791 39 31z"/></symbol><symbol viewBox="0 0 14 14" id="close" xmlns="http://www.w3.org/2000/svg"><path d="M13.461 10.985L9.477 7l3.984-3.985c.324-.323.539-.753.539-1.292 0-.43-.215-.861-.539-1.185C13.14.215 12.708 0 12.277 0c-.43 0-.862.215-1.292.538L7 4.523 3.015.538A1.783 1.783 0 001.723 0C1.185 0 .862.215.538.538.215.862 0 1.292 0 1.723c0 .43.215.97.538 1.292L4.523 7 .538 10.985A1.784 1.784 0 000 12.277c0 .43.215.862.538 1.184.324.324.754.539 1.185.539.43 0 .862-.215 1.292-.539L7 9.477l3.985 3.984c.323.324.754.539 1.292.539.43 0 .862-.215 1.184-.539.324-.322.539-.753.539-1.184 0-.538-.215-.97-.539-1.292z"/></symbol><symbol viewBox="0 0 15 12" id="email" xmlns="http://www.w3.org/2000/svg"><path d="M1.658 0h11.684C14.444 0 15 .59 15 1.79v8.42c0 1.19-.556 1.79-1.658 1.79H1.658C.556 12 0 11.4 0 10.21V1.79C0 .59.556 0 1.658 0zm5.838 8.6l5.943-5.53c.212-.2.38-.66.115-1.07-.256-.41-.723-.42-1.032-.17L7.496 5.69 2.478 1.83c-.309-.25-.776-.24-1.032.17a.864.864 0 00.115 1.07L7.496 8.6z"/></symbol><symbol viewBox="0 0 16 13" id="filter" xmlns="http://www.w3.org/2000/svg"><rect width="16" height="3" rx="1.5"/><rect x="2" y="5" width="12" height="3" rx="1.5"/><rect x="4" y="10" width="8" height="3" rx="1.5"/></symbol><symbol viewBox="0 0 14 14" id="location" xmlns="http://www.w3.org/2000/svg"><path d="M6.634 13.142c.369 1.108 1.068 1.147 1.561.091L13.802 1.22c.493-1.058.035-1.514-1.022-1.021L.767 5.805C-.29 6.298-.25 6.997.857 7.367L5.19 8.81l1.444 4.332z"/></symbol><symbol viewBox="0 0 16 13" id="menu" xmlns="http://www.w3.org/2000/svg"><rect width="16" height="3" rx="1.5"/><rect y="5" width="16" height="3" rx="1.5"/><rect y="10" width="16" height="3" rx="1.5"/></symbol><symbol viewBox="0 0 14 14" id="phone" xmlns="http://www.w3.org/2000/svg"><path d="M12.883 9.523c-1.955-1.586-2.793-1.027-3.724 0l-.186.186s-.559.28-2.7-1.959-1.862-2.798-1.862-2.798l.186-.187c.931-.933 1.49-1.772 0-3.731C3.946.381 3.387.008 2.828.008 1.898-.085 1.246.661.78 1.221l-.279.186C-.15 2.06-.15 3.366.408 4.952c.652 1.679 1.862 3.451 3.445 5.13C6.553 12.694 9.345 14 11.114 14c.652 0 1.117-.187 1.396-.466l.28-.28c.558-.467 1.21-1.12 1.21-2.052 0-.56-.372-1.12-1.117-1.68z"/></symbol><symbol viewBox="0 0 15 19" id="remove" xmlns="http://www.w3.org/2000/svg"><path d="M1.252 7.528h12.403c0 .341.016.674 0 1.007-.175 2.954-.358 5.171-.548 8.125a6.55 6.55 0 01-.128.966c-.127.592-.398.82-.978.884-.183.025-.374.025-.557.025H3.408c-.135 0-.262-.008-.398-.017-.724-.056-1.026-.332-1.106-1.07a33.39 33.39 0 01-.135-1.778c-.175-2.824-.342-4.904-.509-7.728-.008-.13-.008-.26-.008-.414zM.003 5.535c-.016-.69.024-1.34.366-1.932.302-.52.78-.763 1.352-.795.621-.033 1.25-.016 1.87-.024h.47c0-.382-.008-.715 0-1.055C4.091.592 4.585.049 5.69.024a64.368 64.368 0 013.54 0c1.099.033 1.584.552 1.632 1.664.016.349 0 .698 0 1.096h1.464c.302 0 .612-.009.915.024.724.073 1.265.438 1.48 1.16.143.495.183 1.015.278 1.567H.003zM5.46 2.759h4.05c0-.34-.009-.665 0-.982.007-.276-.096-.381-.367-.381-.859.008-1.726 0-2.585 0H5.46v1.363z"/></symbol><symbol viewBox="0 0 15 16" id="search" xmlns="http://www.w3.org/2000/svg"><path d="M13.866 2.906C12.798 1.451 11.245.384 9.498.094 7.655-.197 5.909.19 4.453 1.257c-1.456 1.067-2.33 2.716-2.62 4.462-.291 1.94.29 3.686 1.552 5.14l-.388.389-.776.775c-.582.582-1.262 1.261-1.844 1.94a1.206 1.206 0 00-.097 1.649c.194.194.485.388.776.388.291 0 .583-.097.874-.388l.776-.776.776-.776 1.65-1.649c1.844 1.067 4.076 1.164 5.92.291 1.94-.873 3.299-2.618 3.784-4.655.388-1.843.097-3.686-.97-5.14zM12.7 6.69c0 1.164-.485 2.23-1.261 3.007a4.259 4.259 0 01-3.009 1.26 4.259 4.259 0 01-3.008-1.26c-.873-.873-1.261-1.94-1.261-3.104 0-1.164.485-2.23 1.261-3.007a4.258 4.258 0 013.008-1.26c2.33 0 4.27 1.94 4.27 4.364z"/></symbol><symbol viewBox="0 0 14 14" id="time" xmlns="http://www.w3.org/2000/svg"><path d="M7.019 0A7.002 7.002 0 000 6.969C-.016 10.84 3.113 13.984 6.99 14c3.844.012 6.991-3.113 7.01-6.963C14.022 3.166 10.89.013 7.019 0zm2.318 8.662l-.684.685c-.237.234-.475.237-.71.006-.487-.484-.974-.969-1.459-1.456A1.62 1.62 0 016 6.703c.003-.522 0-1.04 0-1.562V3.5c0-.325.178-.497.503-.5h1c.316 0 .494.178.494.49 0 .876.003 1.75 0 2.626 0 .315.106.578.328.796.337.335.672.67 1.006 1.007.256.256.256.49.006.743z"/></symbol></svg>