<?xml version="1.0" encoding="utf-8"?>
<!-- Generator: Adobe Illustrator 25.2.1, SVG Export Plug-In . SVG Version: 6.00 Build 0)  -->
<svg version="1.1" id="Layer_1" xmlns="http://www.w3.org/2000/svg" xmlns:xlink="http://www.w3.org/1999/xlink" x="0px" y="0px"
	 viewBox="0 0 41.6 250" style="enable-background:new 0 0 41.6 250;" xml:space="preserve">
<style type="text/css">
	.st0{fill:#F7BF72;}
	.st1{fill:#482A1D;}
</style>
<path class="st0" d="M320,252.1c-48.6,53.2,92.4,252.7,169,345.8l-46,111L71.8,368.7l77.1-379l200.1,0
	C262.7,114.2,380.8,185.6,320,252.1z"/>
<path class="st1" d="M273-121c-60.3,22.6-76-37.7-129.5-2.6C84.7-85,24.4-36.1,5.2,30C-14.1,96.2,32.4,162,40.6,230
	c8.6,71.4-42.7,166.7,14.2,212.4c64.6,52.1,169-22.5,249.8,0.2c57.7,16.2,79.9,92.7,137.6,108.9c59.1,16.6,128.1,10.5,181.8-19.3
	c53.2-29.6,68.8-96,107.9-141.8c37.3-43.8,96.3-70.6,118.2-123.2c22.2-53.5-4.3-113.3,3.9-170.4C865.5,15.6,1030,14.8,991-57.6
	c-36.8-68.3-188.6-42.9-315.8-119.8c-109.5-66.3-166.8-25.6-232.2-19.2C380.3-190.5,331.9-143.1,273-121z"/>
</svg>
