<svg width="84" height="167" viewBox="0 0 84 167" fill="none" xmlns="http://www.w3.org/2000/svg">
<g clip-path="url(#clip0_772_7015)">
<rect x="0.703134" y="160.075" width="8" height="8" rx="4" transform="rotate(-38.9233 0.703134 160.075)" fill="#F35D2D" stroke="#F35D2D"/>
<path d="M28.2338 100.312C26.3912 97.9197 27.3018 95.2972 29.5629 94.7317C30.2729 94.5593 31.015 94.6407 31.7299 94.6879C41.2884 95.7056 50.8049 96.8125 60.3634 97.8302C62.1297 97.9927 63.5273 98.6155 63.9996 100.42C64.6598 102.745 62.7375 104.662 59.9199 104.384C54.3812 103.808 48.8499 103.169 43.3112 102.593C39.1677 102.138 34.9896 101.711 30.8535 101.194C29.7824 100.983 28.7484 100.463 28.2338 100.312Z" fill="#F35D2D"/>
<path d="M71.3684 104.796C69.6272 102.602 70.7827 99.5056 73.3011 99.4064C75.7847 99.3348 78.3203 99.613 80.653 100.276C81.6202 100.57 82.5477 102.236 82.7232 103.382C82.9853 104.85 81.8447 106.258 80.311 106.246C77.6492 106.236 74.9776 105.786 72.2639 105.426C71.92 105.419 71.5391 104.94 71.3684 104.796Z" fill="#F35D2D"/>
<path d="M12.9289 98.1008C11.8752 96.7022 12.0857 94.6913 13.4712 93.5916C14.9951 92.382 19.4479 92.8706 20.6104 94.4064C21.664 95.805 21.3645 97.7748 19.9791 98.8745C18.3091 100.256 14.2002 99.7737 12.9289 98.1008Z" fill="#F35D2D"/>
<path d="M38.567 10.9298C35.3294 13.4207 31.6691 16.1581 28.0276 18.9356C25.3171 20.9846 22.6656 23.0549 19.9739 25.144C17.8896 26.7537 17.363 28.6615 18.5492 30.2573C19.7917 31.9735 21.791 32.0652 23.9957 30.3992C30.1042 25.7843 36.1752 21.0891 42.2061 16.4127C43.9052 15.1297 44.2551 13.1579 43.3018 11.7464C42.3485 10.335 40.6354 9.91395 38.567 10.9298Z" fill="#F35D2D"/>
<path d="M52.2879 8.47426C55.0601 7.08057 56.2878 4.8939 55.3878 2.96876C54.6379 1.36448 52.4965 0.654993 50.8696 1.46442C48.0171 2.89563 46.768 5.14116 47.7643 7.16786C48.6508 8.85494 50.4602 9.3775 52.2879 8.47426Z" fill="#F35D2D"/>
</g>
<defs>
<clipPath id="clip0_772_7015">
<rect width="84" height="167" fill="white"/>
</clipPath>
</defs>
</svg>
