<svg width="97" height="185" viewBox="0 0 97 185" fill="none" xmlns="http://www.w3.org/2000/svg">
<path d="M94.5538 17.0189C89.9008 14.0346 85.2525 13.3003 79.9942 14.437C82.967 9.87283 83.7065 5.19566 82.6272 0C87.1325 2.85654 91.7298 3.68435 97 2.48149C94.3312 7.06409 93.2214 11.7114 94.5538 17.0189Z" fill="#F7BF72"/>
<path d="M16.3439 69.9229C14.8426 66.9245 16.3661 64.2744 18.9276 64.1514C19.7308 64.1183 20.5167 64.368 21.2802 64.5744C31.4083 67.7553 41.4726 71.024 51.6008 74.2049C53.4776 74.765 54.8611 75.7447 55.0012 77.8065C55.2376 80.4752 52.7649 82.1394 49.7748 81.2257C43.9033 79.3968 38.0526 77.5025 32.1811 75.6736C27.7934 74.28 23.3627 72.9087 18.9958 71.4496C17.8808 70.9874 16.8695 70.1979 16.3439 69.9229Z" fill="#F7BF72"/>
<path d="M0.37497 64.1684C-0.477232 62.4208 0.1635 60.2828 1.88769 59.3896C3.78429 58.407 8.49938 59.9046 9.44112 61.8247C10.2933 63.5723 9.56473 65.6463 7.84054 66.5396C5.75079 67.677 1.40623 66.2611 0.37497 64.1684Z" fill="#F7BF72"/>
<path d="M37.1335 169.681C39.2647 168.374 41.8427 166.828 44.3863 165.315C49.0954 162.463 53.8046 159.61 58.5137 156.826C60.6792 155.554 62.6029 155.964 63.8041 157.852C64.9367 159.602 64.351 161.696 62.2199 163.002C55.2421 167.23 48.2643 171.458 41.2178 175.617C39.0867 176.854 37.369 176.512 36.0647 174.797C35.0007 173.252 35.2426 171.364 37.1335 169.681Z" fill="#F7BF72"/>
<path d="M22.1426 184.042C20.7349 182.704 20.6335 180.473 21.9401 179.03C23.8314 176.934 26.7865 176.52 28.4001 178.132C29.7391 179.47 29.7718 181.77 28.4308 183.179C26.5053 185.24 23.7564 185.585 22.1426 184.042Z" fill="#F7BF72"/>
</svg>
