<svg width="318" height="31" viewBox="0 0 318 31" fill="none" xmlns="http://www.w3.org/2000/svg">
<path d="M44.5309 8.78725C45.826 7.9859 47.6392 7.43952 49.1934 6.78387C49.582 6.85672 49.9058 6.966 50.2943 6.966C50.2943 9.55218 50.0352 12.1384 50.359 14.7245C50.7476 17.3836 51.2009 20.079 52.496 22.5923C53.9207 25.4335 58.0652 26.162 62.7277 24.8507C63.958 24.4865 65.1884 24.0493 66.095 23.4665C71.9879 19.8605 77.6218 16.1087 83.7089 12.5755C88.2419 9.98928 93.034 7.5488 98.085 5.29044C101.064 3.97914 102.683 4.45267 103.395 6.60175C104.172 8.75083 104.366 10.9363 105.144 13.0854C106.18 15.9994 106.957 18.9498 108.77 21.7181C110.907 24.9964 115.958 25.7978 121.398 24.1222C122.434 23.8308 123.47 23.4301 124.312 22.993C129.816 20.079 135.061 17.0557 140.63 14.1782L140.661 14.1627C148.681 10.0517 156.768 5.90643 166.792 3.32349C174.175 1.42939 176.959 2.44929 177.153 6.966C177.348 10.6085 177.218 14.251 178.06 17.8571C179.549 24.2679 185.442 25.6521 194.897 21.9003C200.919 19.5326 206.359 16.7643 212.252 14.2874L212.738 14.0827C220.285 10.9077 227.899 7.70448 235.823 4.7805C240.097 3.21422 241.522 3.97915 241.846 6.8203C242.234 10.5721 242.364 14.3603 243.788 18.0028C245.666 22.8837 251.624 23.9765 259.006 21.1718C260.237 20.6983 261.402 20.152 262.568 19.6057L262.568 19.6055C270.339 15.9266 277.915 12.1748 285.816 8.60513C289.572 6.89315 293.91 5.54542 297.99 4.01557C298.249 4.16127 298.508 4.27054 298.767 4.37982C298.638 5.14474 298.573 5.90967 298.314 6.63817C297.342 9.95286 297.083 13.2675 298.832 16.5458C300.127 18.9134 302.717 20.4433 305.631 19.9333C309.905 19.1684 313.92 17.9664 318 16.9829C317.87 16.8008 317.741 16.5822 317.611 16.4001C314.374 16.9465 311.071 17.4928 307.833 18.0756C304.725 18.622 303.753 18.367 302.976 16.5822C302.588 15.708 302.394 14.7974 302.458 13.8868C302.717 10.9728 303.365 8.09518 303.559 5.18117C303.689 4.052 303.624 2.63141 302.523 1.83006C300.775 0.555186 298.12 1.35654 295.983 1.90292C294.428 2.30359 292.809 2.70426 291.45 3.28707C284.067 6.45605 276.685 9.58861 269.497 12.8669C264.899 14.9431 260.755 17.3836 256.027 19.3869C251.818 21.1353 249.163 20.6254 248.127 17.7114C246.832 13.996 246.314 10.1714 245.861 6.38319C245.407 2.41286 241.975 1.06514 235.37 2.52214C234.399 2.74069 233.362 2.95924 232.456 3.28707C227.729 5.07189 222.937 6.85672 218.404 8.78725C209.856 12.4662 201.632 16.4001 192.954 19.9697C185.637 22.9566 182.593 22.1188 182.01 17.0922C181.557 13.2675 181.686 9.4429 181.427 5.61827C181.104 1.21083 176.312 -0.865388 168.864 0.336639C165.109 0.955865 161.417 1.97577 158.115 3.17779C146.523 7.36668 136.68 12.6847 127.096 18.2213C124.7 19.6055 122.045 20.8804 119.261 21.9731C116.411 23.0659 114.339 22.7745 113.044 20.9896C111.749 19.2048 110.907 17.3107 110.259 15.4166C109.094 12.1019 108.511 8.71441 107.216 5.39973C106.05 2.41287 101.97 1.42939 97.1137 2.84997C94.9767 3.50562 92.7749 4.27054 91.0913 5.25402C83.8385 9.47932 76.8447 13.8503 69.6567 18.1121C67.0664 19.6419 64.5409 21.2446 61.6268 22.5559C58.907 23.7944 57.0938 23.3937 55.9929 21.5724C55.2806 20.5161 54.8273 19.3505 54.633 18.2213C54.2445 15.7809 54.1149 13.3768 53.9207 10.9363C53.7912 9.66145 53.8559 8.38657 53.6617 7.1117C53.2084 4.41624 51.0066 3.79702 46.9917 5.18117C45.5023 5.69112 44.0129 6.23749 42.8472 6.92957C33.8468 12.4657 24.9112 18.0382 15.9756 23.6107L15.973 23.6123C13.5123 25.1421 11.3105 26.7812 8.84976 28.3111C6.64802 29.6588 5.09384 29.4767 3.86345 27.7647C3.3454 26.9998 2.82735 26.162 2.69783 25.3242L2.6697 25.166C2.09636 21.9416 1.5291 18.7514 1.33795 15.5259C1.07892 11.3734 1.27317 7.18455 1.27317 2.99567C0.6256 3.32349 0.595916 4.12867 0.595916 4.49292C0.336888 11.1587 -0.288263 17.4725 0.153905 23.9622C0.595916 27.9833 4.83038 32.8619 9.30306 30.278C10.7925 29.6224 12.0876 28.7846 13.3828 27.9833L13.3887 27.9796C23.7478 21.57 34.107 15.1604 44.5309 8.78725Z" fill="#F35D2D" stroke="#F35D2D"/>
</svg>
