<svg width="1920" height="113" viewBox="0 0 1920 113" fill="none" xmlns="http://www.w3.org/2000/svg">
<path d="M178.713 49.1004C85.1462 10.7611 42.4172 17.1509 0 25.1383V113H1920V25.1383C1860.12 32.8069 1839.53 18.114 1805.85 7.56539C1719.77 -19.392 1713.22 32.5259 1643.04 56.4881C1572.87 80.4502 1541.99 10.5614 1437.19 40.5135C1366.23 60.7964 1315.25 59.3921 1246.32 40.5135C1190.18 25.1383 1153.49 -0.00177956 1064.8 25.1383C1004.91 42.1115 984.328 101.801 890.76 63.4772C810.224 30.4913 752.281 10.5605 669.942 49.1004C582.537 90.0113 557.933 71.8371 418.246 40.5135C289.123 11.5589 255.439 80.5387 178.713 49.1004Z" fill="#FFEED5" preserveAspectRatio="xMinYMin slice"/>
</svg>
