<svg width="1920" height="122" viewBox="0 0 1920 122" fill="none" xmlns="http://www.w3.org/2000/svg">
<path d="M219 24.8568C151 2.42376 48 -1.51541 0 31.8671V122H1985L2127 79.5354C1978 95.559 1933 58.907 1835 24.8569C1737 -9.1933 1598 105.574 1462 49.0708C1396.5 21.8583 1374 -5.00874 1272 9.01191C1160.55 35.8563 1171 76.1109 1064 62.0903C979.648 51.0373 947 -44.0663 846 24.8568C796.811 58.4239 746.899 81.8377 665 49.0708C622 31.8671 614 -46.0692 467 49.0708C357.043 120.236 304 52.8981 219 24.8568Z" fill="white"/>
</svg>
