<svg width="93" height="94" viewBox="0 0 93 94" fill="none" xmlns="http://www.w3.org/2000/svg">
<path d="M40.8275 2.65868C37.2836 3.42681 34.4206 5.48679 32.9193 8.36726C32.0813 9.9908 32.0289 10.0432 30.8768 10.4272C29.1485 11.0208 28.0137 12.173 27.5249 13.8314C27.2456 14.8265 27.2631 17.0261 27.6471 23.241L27.8042 25.7549L27.2107 26.4531C26.2156 27.6053 25.849 28.8274 25.9363 30.6778C25.9887 31.8475 26.1109 32.4585 26.4076 33.0695C27.3853 35.0946 29.3929 36.5086 31.4878 36.6657L32.6574 36.7356L32.8494 37.7481C33.3557 40.1921 34.8047 42.706 36.8297 44.6612L38.1216 45.9007V47.4544V49.0081L29.4452 52.3949C24.6619 54.2628 20.2277 56.0435 19.5818 56.3752C17.3996 57.5099 15.1476 59.9539 14.0478 62.398C12.9829 64.7547 12.9654 64.9293 13.0178 77.8303L13.0702 89.5443L13.5415 90.1727C13.8208 90.5044 14.2922 90.9758 14.589 91.2027L15.1651 91.6042L22.794 91.6566L30.4054 91.709L30.772 91.2376C31.2434 90.6441 31.2434 90.1204 30.772 89.5268C30.4229 89.0904 30.3705 89.0729 28.328 89.0729H26.2505V77.6383C26.2505 69.6428 26.1982 66.0989 26.0585 65.8022C25.6744 64.9468 24.5572 64.7373 23.8938 65.4181L23.4573 65.8371V77.4637V89.0904L19.9135 89.038C17.2076 89.0031 16.2823 88.9333 16.0729 88.7412C15.7935 88.5317 15.7761 87.5017 15.7761 77.3939C15.7761 65.069 15.7586 65.2785 16.9283 63.0614C17.6789 61.6299 18.9359 60.1983 20.1754 59.3429C20.7689 58.924 23.1606 57.894 26.687 56.5148C29.7595 55.3103 32.3606 54.3326 32.4479 54.3326C32.5527 54.3326 34.1937 55.6245 36.0965 57.2131C39.6927 60.1983 40.0943 60.4253 41.2988 60.1983C41.8226 60.1111 41.9098 60.146 42.2764 60.7919L42.6605 61.4902L41.229 75.2816L39.7975 89.0729H37.4757C35.3808 89.0729 35.1189 89.1078 34.8047 89.4221C34.3333 89.8934 34.3333 90.871 34.8047 91.3424C35.1538 91.6915 35.3109 91.6915 56.5042 91.6566L77.8372 91.6042L78.4133 91.2027C78.7101 90.9758 79.1814 90.5044 79.4608 90.1727L79.9321 89.5443L79.9845 84.3943C80.0369 79.7507 80.0019 79.2269 79.7401 78.9302C79.3211 78.4588 78.0816 78.4763 77.6452 78.9651C77.3484 79.2968 77.3135 79.7332 77.2262 83.9753L77.1389 88.619L76.7025 88.846C76.3883 89.0031 75.2535 89.0729 72.9142 89.0729H69.5449V77.4637V65.8371L69.1085 65.4181C68.4451 64.7373 67.3279 64.9468 66.9438 65.8022C66.8041 66.0989 66.7518 69.6428 66.7518 77.6383V89.0729H59.9783H53.2048L51.7733 75.2816L50.3418 61.4902L50.7258 60.7919C51.0924 60.146 51.1797 60.1111 51.7035 60.1983C52.908 60.4253 53.3095 60.1809 56.8185 57.283C58.6864 55.7292 60.2925 54.4374 60.3973 54.385C60.694 54.2803 71.3954 58.4526 72.4603 59.0985C74.2235 60.146 75.8296 62.171 76.7374 64.4405C77.0866 65.3308 77.1215 65.8371 77.2088 69.8872C77.331 75.0371 77.3484 75.107 78.7276 75.107C80.0369 75.107 80.0543 75.0022 79.9845 69.6603L79.9321 65.069L79.3909 63.5327C79.0767 62.6948 78.5704 61.56 78.2562 61.0014C77.4182 59.5873 74.9393 57.1433 73.63 56.4625C72.792 56.026 61.9859 51.749 55.806 49.4097L54.8807 49.078L54.8982 47.3846V45.6912L55.6314 45.0802C57.6564 43.4218 59.472 40.5064 60.0656 37.975L60.3623 36.7356L61.5145 36.6657C63.6094 36.5086 65.617 35.0946 66.5946 33.0695C66.8914 32.4585 67.0136 31.8475 67.066 30.6778C67.1533 28.8274 66.7867 27.6053 65.8091 26.4531L65.198 25.7549L65.4599 21.5302C65.6345 18.6846 65.8265 16.7643 66.0709 15.6994C66.8216 12.365 66.6819 9.01318 65.617 5.64391C65.006 3.74104 64.4998 3.16495 63.2952 3.04275C62.5969 2.99038 62.2652 3.04275 61.7764 3.33952C60.0307 4.36951 57.9881 4.4568 54.7934 3.65376C50.8655 2.65868 49.3642 2.43174 45.8028 2.37936C42.9224 2.327 42.1542 2.36191 40.8275 2.65868ZM47.1122 5.10272C49.4165 5.32967 50.9004 5.59153 53.9206 6.35966C55.8758 6.84846 56.4868 6.9183 58.3722 6.9183C60.1878 6.9183 60.7464 6.84846 61.6716 6.51678C62.2827 6.30729 62.8064 6.16763 62.8413 6.20254C62.8762 6.23746 63.0857 6.88338 63.2777 7.6515C63.8189 9.60674 63.8189 13.1157 63.2952 15.3153C63.0508 16.3802 62.8588 18.0561 62.7191 20.4653C62.6143 22.4379 62.4921 24.0615 62.4747 24.0964C62.4398 24.1313 61.9859 24.1139 61.4447 24.044L60.4671 23.9218V22.6649C60.4496 20.7097 59.664 19.2956 58.1103 18.4926C56.8709 17.8466 56.2249 17.8292 53.4841 18.318C51.1797 18.737 50.5513 18.7893 46.5011 18.7893C42.451 18.7893 41.8226 18.737 39.5182 18.318C36.7774 17.8292 36.1314 17.8466 34.892 18.4926C33.3382 19.2956 32.5527 20.7097 32.5352 22.6649V23.9218L31.5576 24.044C31.0164 24.1139 30.5625 24.1313 30.5276 24.0964C30.4054 23.9567 30.0563 15.3328 30.161 14.8091C30.3007 14.1282 31.2259 13.203 31.9766 13.0284C33.4255 12.6792 34.2809 11.8937 35.2411 10.0257C36.7075 7.18015 39.3087 5.53916 42.9747 5.10272C44.6856 4.91069 44.9998 4.91069 47.1122 5.10272ZM38.9072 21.0588C43.6905 21.9317 50.7608 21.8444 55.2822 20.8319C55.7885 20.7097 56.1551 20.7271 56.5566 20.9017C57.6914 21.373 57.6739 21.1985 57.6739 28.9321C57.6739 36.7356 57.6215 37.2069 56.4868 39.4938C55.5965 41.3269 53.3794 43.544 51.5638 44.4343C50.848 44.7834 49.7831 45.2024 49.207 45.3421C47.8628 45.6912 45.3315 45.6738 43.9 45.3246C39.9546 44.3645 36.6552 41.1523 35.6775 37.3291C35.3633 36.0547 35.3284 35.3913 35.3284 28.9496C35.3284 22.7522 35.3633 21.8968 35.6077 21.5302C35.9394 21.0763 36.8472 20.6224 37.2487 20.7271C37.3884 20.762 38.139 20.9191 38.9072 21.0588ZM32.5352 30.3287V33.9075H32.0115C31.3306 33.9075 30.3007 33.4885 29.7769 32.9822C28.7644 32.0395 28.3978 30.2414 28.939 28.967C29.4103 27.8497 30.964 26.7848 32.1511 26.7499H32.5352V30.3287ZM61.7415 26.942C62.5445 27.1689 63.6443 28.1116 64.0284 28.9146C64.622 30.1716 64.2553 32.0221 63.2254 32.9822C62.7016 33.4885 61.6716 33.9075 60.9908 33.9075H60.4671V30.3287C60.4671 26.3309 60.3798 26.5579 61.7415 26.942ZM45.9076 48.3448C48.0549 48.4495 50.1847 48.1702 51.5114 47.6115L52.0875 47.3671V48.4495V49.5493L50.0799 51.1903C48.9801 52.0806 48.0723 52.8837 48.0723 52.971C48.0723 53.0408 47.374 53.1106 46.5011 53.1106C45.6457 53.1106 44.93 53.0408 44.93 52.971C44.93 52.9011 44.0222 52.0981 42.9224 51.1903L40.9148 49.5319V48.467V47.4021L42.3637 47.8385C43.3937 48.1353 44.3888 48.2924 45.9076 48.3448ZM40.7926 53.1281C41.8924 54.0359 42.4685 54.6469 42.4161 54.7865C42.2939 55.1182 40.9497 57.0909 40.7751 57.1957C40.6529 57.2655 35.8172 53.3899 35.7125 53.1106C35.6775 53.0233 38.5929 51.7839 38.9945 51.7315C39.0468 51.714 39.8673 52.36 40.7926 53.1281ZM55.7187 52.4123C56.5915 52.744 57.3073 53.0757 57.2724 53.1455C57.1851 53.3899 52.3494 57.2655 52.2272 57.1957C52.0526 57.0909 50.7084 55.1182 50.5862 54.7865C50.5338 54.6469 51.1099 54.0359 52.2097 53.1281C53.135 52.3425 53.9555 51.7315 54.0078 51.749C54.0602 51.7839 54.8283 52.0806 55.7187 52.4123ZM48.4738 56.7592C48.823 57.3353 49.1198 57.8416 49.1198 57.9114C49.1198 57.9813 48.9103 58.3828 48.6484 58.8017L48.1596 59.5699H46.5011H44.8427L44.3713 58.8017C44.092 58.3828 43.8825 57.9813 43.8825 57.9114C43.8825 57.8416 44.1793 57.3353 44.5459 56.7592L45.1918 55.7467H46.5011H47.8105L48.4738 56.7592ZM47.601 62.4853C47.6533 62.5725 47.7406 63.2883 47.793 64.1088L47.9152 65.5927L46.571 64.2485C44.9474 62.6424 44.93 62.3631 46.4837 62.3631C47.0598 62.3631 47.566 62.4154 47.601 62.4853ZM48.4913 70.8125C48.5437 71.1965 48.631 72.0694 48.7008 72.7502L48.8055 73.9722L46.6932 71.8774C44.7729 69.9745 44.5808 69.7475 44.6681 69.2587C44.703 68.9794 44.7903 68.2637 44.8427 67.705L44.9649 66.675L46.6757 68.3859C48.1596 69.8698 48.404 70.184 48.4913 70.8125ZM49.3642 79.3317C49.4165 79.7856 49.5213 80.5886 49.5737 81.0774L49.6784 82.0027L46.7805 79.1222C44.5634 76.9225 43.9174 76.1719 43.9698 75.8926C44.0047 75.7005 44.092 75.0721 44.1444 74.5134L44.2666 73.4834L46.763 75.9798C49.1721 78.389 49.2769 78.5112 49.3642 79.3317ZM50.2719 87.7985L50.3942 89.0729H49.8006C49.2594 89.0729 48.9103 88.7761 46.2218 86.0528L43.2191 83.0501L43.3763 81.8281C43.4461 81.1472 43.5159 80.4489 43.5159 80.2569C43.5334 80.0125 44.4761 80.8505 46.8328 83.2247L50.1497 86.5416L50.2719 87.7985ZM44.0571 87.9382L45.1744 89.0729H43.9174C42.6605 89.0729 42.6605 89.0729 42.6605 88.5841C42.6605 88.1477 42.8525 86.8034 42.9049 86.8034C42.9224 86.8034 43.4461 87.3097 44.0571 87.9382Z" fill="#be4df5"/>
</svg>
