<svg width="93" height="94" viewBox="0 0 93 94" fill="none" xmlns="http://www.w3.org/2000/svg">
<path d="M83.5918 81.9542L71.7314 53.3211C71.4293 52.5918 70.5931 52.2451 69.8636 52.5474C69.1342 52.8497 68.7876 53.6859 69.0899 54.4152L79.812 80.3003L70.0319 77.4665C69.39 77.2803 68.7043 77.5643 68.382 78.15L63.4702 87.0693L51.9655 59.2943C65.244 56.7336 75.3052 45.0265 75.3052 31.0119C75.3054 15.1289 62.3837 2.20703 46.5007 2.20703C30.6177 2.20703 17.6958 15.1289 17.6958 31.0119C17.6958 37.4452 19.8162 43.3922 23.3943 48.1922L9.40959 81.9542C9.19935 82.462 9.29866 83.0453 9.6652 83.4547C10.0316 83.8641 10.6005 84.0273 11.1283 83.8744L22.6666 80.5309L28.4611 91.054C28.7135 91.512 29.1944 91.7939 29.713 91.7939C29.7393 91.7939 29.7658 91.7932 29.7923 91.7918C30.3411 91.7613 30.8237 91.4192 31.0342 90.9114L42.1155 64.1586C42.4176 63.4292 42.0713 62.593 41.3418 62.2909C40.6123 61.9887 39.7761 62.3351 39.474 63.0645L29.5308 87.0693L24.6194 78.15C24.2968 77.5643 23.6108 77.2803 22.9692 77.4665L13.1894 80.3003L25.4641 50.6663C30.7246 56.2931 38.2084 59.8165 46.5007 59.8165C47.3567 59.8165 48.2034 59.7767 49.0406 59.7033L61.9674 90.9114C62.1776 91.4192 62.6605 91.7613 63.209 91.7916C63.2357 91.7932 63.262 91.7939 63.2885 91.7939C63.8072 91.7939 64.2881 91.512 64.5402 91.054L70.335 80.5309L81.8732 83.8744C82.4014 84.0275 82.9698 83.8641 83.3363 83.4547C83.7029 83.0453 83.802 82.462 83.5918 81.9542ZM20.555 31.0119C20.555 16.7054 32.1942 5.06619 46.5007 5.06619C60.8071 5.06619 72.4462 16.7054 72.4462 31.0119C72.4462 45.3183 60.8071 56.9574 46.5007 56.9574C32.1942 56.9574 20.555 45.3183 20.555 31.0119Z" fill="#be4df5"/>
<path d="M63.0199 25.6446C62.8554 25.1379 62.4223 24.7647 61.8968 24.6765L52.2772 23.0622L47.7695 14.4125C47.5232 13.9399 47.0347 13.6435 46.5017 13.6435C45.969 13.6435 45.4803 13.9399 45.234 14.4125L40.726 23.0622L31.1067 24.6765C30.5812 24.7645 30.1483 25.1377 29.9836 25.6446C29.8189 26.1514 29.9497 26.7076 30.3231 27.0879L37.1565 34.048L35.7193 43.6956C35.6408 44.2226 35.8619 44.7494 36.293 45.0628C36.7238 45.3758 37.2935 45.4233 37.7704 45.1859L46.5017 40.8377L55.2328 45.1859C55.4347 45.2864 55.6528 45.336 55.87 45.336C56.1668 45.336 56.4617 45.2437 56.7105 45.063C57.1416 44.7496 57.3627 44.2228 57.2842 43.6958L55.8472 34.0482L62.6806 27.0879C63.0538 26.7076 63.1845 26.1514 63.0199 25.6446ZM53.3081 32.5531C52.9939 32.8731 52.8481 33.3218 52.9142 33.7651L54.0522 41.4037L47.1391 37.961C46.9382 37.8612 46.7202 37.811 46.5017 37.811C46.2835 37.811 46.065 37.861 45.8645 37.961L38.9515 41.4037L40.0894 33.7651C40.1556 33.3218 40.0097 32.8729 39.6956 32.5531L34.2851 27.0421L41.9014 25.7639C42.3436 25.6897 42.7254 25.4124 42.9326 25.0148L46.5017 18.1663L50.0709 25.015C50.2783 25.4126 50.6599 25.6899 51.1021 25.7641L58.7185 27.0423L53.3081 32.5531Z" fill="#be4df5"/>
<path d="M68.1568 32.4539C67.374 32.3493 66.6554 32.9005 66.5519 33.6834C65.2258 43.6918 56.6058 51.2394 46.5012 51.2394C35.3478 51.2394 26.2738 42.1655 26.2738 31.012C26.2738 19.8584 35.3478 10.7846 46.5012 10.7846C56.606 10.7846 65.2258 18.332 66.5519 28.3406C66.6554 29.1234 67.3753 29.675 68.1568 29.57C68.9393 29.4663 69.49 28.7477 69.3861 27.9651C67.8726 16.5406 58.0343 7.92543 46.5012 7.92543C33.7713 7.92543 23.4146 18.2819 23.4146 31.012C23.4146 43.7421 33.7713 54.0983 46.5012 54.0983C58.0343 54.0983 67.8726 45.4831 69.3863 34.0587C69.49 33.2762 68.9395 32.5576 68.1568 32.4539Z" fill="#be4df5"/>
</svg>
