<svg width="93" height="94" viewBox="0 0 93 94" fill="none" xmlns="http://www.w3.org/2000/svg">
<path d="M17.9428 1.83909C17.0925 2.3553 16.9508 2.96051 17.0216 5.63058C17.0748 7.78443 17.1102 8.08704 17.5708 9.01266C17.8365 9.56448 18.3502 10.2765 18.7222 10.6147C19.2536 11.0953 19.4131 11.4157 19.5902 12.2701C19.9799 14.1392 21.3971 15.759 23.1331 16.3642L23.8063 16.5956L23.9125 21.651C24.0188 26.9911 24.1605 28.1303 25.064 30.8716C27.0303 36.7813 31.3172 41.6765 36.8441 44.3465L38.2435 45.0229V48.9568L36.4367 49.8825C31.1755 52.5525 26.9949 57.3764 25.1348 62.9124C24.196 65.6714 24.0365 66.9887 23.948 72.2042C23.8771 76.5653 23.824 77.1527 23.576 77.1527C23.0622 77.1527 21.8399 77.8647 21.1668 78.5412C20.2634 79.4312 19.6434 80.7306 19.5194 81.9232C19.4308 82.7599 19.3245 82.9735 18.7399 83.5075C18.3679 83.8457 17.8365 84.5755 17.5708 85.1273C17.1102 86.0529 17.0748 86.3377 17.0216 88.5628C16.9685 90.5387 17.0039 91.0905 17.2342 91.5533C17.8365 92.7103 15.693 92.6391 46.7465 92.6391C77.7113 92.6391 75.6564 92.7103 76.241 91.5711C76.613 90.8591 76.613 87.1744 76.241 85.9105C75.8867 84.7535 75.0364 83.6143 74.009 82.9379C73.265 82.4573 73.1764 82.3326 73.1055 81.585C72.9461 80.0008 71.7238 78.2742 70.2358 77.5621L69.6335 77.2773L69.5449 72.1864C69.4741 67.8609 69.4032 66.8641 69.0844 65.4934C68.4821 62.9124 68.2518 62.5564 67.2066 62.5564C65.8426 62.5564 65.5946 63.3396 66.1792 65.6892C66.5866 67.2913 66.6398 67.8787 66.7106 72.222L66.7992 76.9747H64.2838L63.9118 76.2271C61.9454 72.3288 57.9243 69.0891 52.4151 66.9531C48.1636 65.2976 46.6756 65.1374 43.8236 65.9919C36.8441 68.1101 31.884 71.688 29.5812 76.2271L29.2092 76.9747H26.7291V73.1832C26.7291 67.4159 27.1543 65.0662 28.8372 61.5773C30.9097 57.2518 34.5412 53.7808 39.0052 51.8405C39.9087 51.4667 40.7413 51.0217 40.8653 50.8615C41.0247 50.6479 41.0778 49.5799 41.0778 47.0522C41.0778 43.7947 41.0601 43.5277 40.7058 43.0827C40.511 42.8335 40.263 42.6199 40.1567 42.6199C39.7847 42.6199 36.6669 41.0356 35.5686 40.288C32.1498 37.9562 29.1029 33.9333 27.8097 30.0172C26.9771 27.5429 26.8709 26.6885 26.7823 21.562L26.6937 16.6312H66.7992L66.7106 21.562C66.6043 27.5785 66.3032 29.145 64.638 32.527C63.1677 35.4819 60.5637 38.4902 57.9243 40.288C56.826 41.0356 53.7082 42.6199 53.3362 42.6199C53.2299 42.6199 52.9819 42.8335 52.7871 43.0827C52.4328 43.5277 52.4151 43.7947 52.4151 47.0522C52.4151 49.5799 52.4682 50.6479 52.6454 50.8615C52.7517 51.0217 53.4957 51.4133 54.2751 51.7515C57.57 53.1755 60.3157 55.2582 62.3883 57.9283C63.5752 59.4769 63.8586 59.7083 64.5672 59.7083C65.3466 59.7083 65.8781 59.1743 65.8781 58.4089C65.8781 57.6256 65.1163 56.5042 63.3449 54.5996C61.5203 52.6771 59.3591 51.0395 57.074 49.8825L55.2494 48.9568V45.0229L56.6311 44.3465C58.9694 43.2251 60.7231 41.9435 62.7957 39.8786C65.8426 36.8347 67.7558 33.5595 68.7832 29.6078C69.4387 27.1335 69.5981 25.3891 69.5981 20.6185V16.3108L70.0587 16.204C70.8204 16.0082 72.5033 14.1748 72.8398 13.178C72.9993 12.6974 73.141 12.1633 73.1587 12.0209C73.1587 11.8607 73.5307 11.4869 73.9913 11.2021C75.0364 10.5257 75.8867 9.38647 76.241 8.22944C76.613 6.96561 76.613 3.28092 76.241 2.5689C75.6564 1.42968 77.0736 1.50088 53.1414 1.50088H31.3526L30.9983 1.96369C30.7857 2.2307 30.6263 2.62231 30.6263 2.83591C30.6263 3.04952 30.7857 3.44113 30.9983 3.70813L31.3526 4.17094H73.6724V5.59498C73.6724 7.26822 73.3181 8.15824 72.397 8.83466L71.8124 9.24407L46.959 9.29747C19.2536 9.35087 21.3794 9.43987 20.3874 8.12264C19.9622 7.55303 19.9091 7.30382 19.8559 5.82638L19.7851 4.17094H23.1685C26.4103 4.17094 26.552 4.15314 26.9063 3.77933C27.1011 3.56573 27.2606 3.15632 27.2606 2.83591C27.2606 2.5155 27.1011 2.10609 26.9063 1.89249C26.552 1.51868 26.428 1.50088 22.5131 1.50088C18.8994 1.50088 18.4388 1.53648 17.9428 1.83909ZM69.9169 12.5727C69.7752 12.8042 69.3855 13.1602 69.0667 13.3738L68.4821 13.7832H46.4453C26.428 13.7832 24.3377 13.7476 23.7885 13.4984C23.2217 13.2314 22.6548 12.644 22.6548 12.3235C22.6548 12.2345 33.3543 12.1811 46.4099 12.1811H70.1649L69.9169 12.5727ZM50.0413 69.1603C53.7437 70.442 56.5071 72.0262 58.686 74.1088C59.7489 75.1413 60.918 76.5831 60.918 76.8679C60.918 76.9213 54.5408 76.9747 46.7465 76.9747C38.9521 76.9747 32.5749 76.9213 32.5749 76.8679C32.5749 76.5831 33.7441 75.1413 34.8069 74.1088C36.8795 72.133 39.643 70.4954 42.9379 69.3205C46.5162 68.0567 46.835 68.0389 50.0413 69.1603ZM68.8895 80.1432C69.4387 80.4102 70.3067 81.4248 70.3067 81.7986C70.3067 81.8876 59.554 81.9588 46.3922 81.9588C26.304 81.9588 22.4777 81.9232 22.4777 81.7096C22.4777 81.3536 23.1685 80.5348 23.7885 80.161C24.32 79.8406 25.0994 79.8228 46.3036 79.8228C66.8701 79.8228 68.3049 79.8406 68.8895 80.1432ZM72.025 85.0917C72.3615 85.2519 72.8398 85.6791 73.1055 86.0173C73.5307 86.587 73.5838 86.8362 73.637 88.3136L73.7078 89.969H19.7851L19.8559 88.3136C19.9091 86.8362 19.9622 86.5692 20.3874 86.0173C21.3794 84.7179 19.2536 84.8069 46.711 84.8069C69.2438 84.8069 71.4581 84.8247 72.025 85.0917Z" fill="#be4df5"/>
<path d="M30.0029 22.7585C29.3333 23.0504 29.2474 23.2908 29.2474 24.7501C29.2474 27.4457 30.2947 31.1027 31.7713 33.5578C33.8831 37.0431 36.6645 39.3781 40.4931 40.889C42.7766 41.7818 43.1543 42.3312 43.3089 45.0096C43.429 47.1214 43.6522 47.6193 44.7511 48.1172C45.7297 48.5636 47.79 48.5636 48.7686 48.1172C49.8674 47.6193 50.0906 47.1214 50.2108 45.0096C50.3653 42.2969 50.7259 41.8161 53.181 40.8203C58.4863 38.6914 62.2463 34.4335 63.6713 28.9565C64.1349 27.1881 64.4096 24.3037 64.2035 23.4796C63.9632 22.501 64.4096 22.5182 46.7255 22.5182C33.5225 22.5353 30.4321 22.5697 30.0029 22.7585ZM61.4393 26.0722C60.6496 31.7551 57.2501 36.2019 52.1681 38.2278C50.331 38.9489 49.8331 39.2408 49.0261 40.0477C48.0132 41.0779 47.6183 42.2282 47.6183 44.1511V45.6963H45.9014V44.1855C45.9014 42.2625 45.5923 41.3182 44.5794 40.2022C43.7553 39.2751 43.2745 38.9832 41.3516 38.2278C37.7976 36.8028 34.8789 34.0557 33.3852 30.7078C32.8701 29.5575 32.2692 27.3942 32.0803 26.0722L31.9773 25.2652H61.5423L61.4393 26.0722Z" fill="#be4df5"/>
<path d="M45.2678 52.5639C44.0317 53.0618 44.5124 55.1393 45.8516 55.1393C47.2766 55.1393 47.7573 53.1649 46.4868 52.5811C45.9889 52.3579 45.7829 52.3579 45.2678 52.5639Z" fill="#be4df5"/>
<path d="M46.9661 56.9076C46.1248 57.8004 46.7086 59.0881 47.9276 59.0881C48.7688 59.0881 49.1981 58.6417 49.1981 57.7832C49.1981 56.5985 47.773 56.0491 46.9661 56.9076Z" fill="#be4df5"/>
<path d="M44.392 60.6333C43.9456 61.0625 43.8941 61.9209 44.289 62.4875C44.4951 62.7794 44.7183 62.8652 45.302 62.8652C46.1776 62.8652 46.5897 62.4532 46.5897 61.5432C46.5897 60.4101 45.2333 59.8607 44.392 60.6333Z" fill="#be4df5"/>
</svg>
