<svg width="93" height="94" viewBox="0 0 93 94" fill="none" xmlns="http://www.w3.org/2000/svg">
<path d="M11.6502 1.89832C10.6535 2.39669 10.0127 3.09085 9.56777 4.15878C9.33638 4.72835 9.30078 8.57292 9.30078 37.7632C9.30078 63.2156 9.35418 70.887 9.51437 71.4565C9.65676 71.9015 10.0661 72.5067 10.5645 73.0228C12.0062 74.4646 11.4011 74.4112 26.6013 74.4112C40.3243 74.4112 40.3955 74.4112 40.9295 73.717C41.3033 73.2364 41.1965 72.3109 40.7159 71.8303L40.2887 71.3853H13.4301L12.3266 70.4598V37.9412C12.3266 1.82712 12.2198 4.83514 13.5369 4.46136C14.4447 4.21218 64.8512 4.21218 65.759 4.46136C67.0761 4.83514 66.9693 2.78827 66.9693 29.2909C66.9693 51.6463 66.9871 53.177 67.2897 53.7644C67.9127 55.0103 69.5146 54.8679 69.9595 53.5152C70.1375 52.9634 70.1731 47.8908 70.1375 28.8637C70.0841 6.33025 70.0663 4.87074 69.7637 4.21218C69.2476 3.05525 68.6424 2.39669 67.6457 1.89832L66.7201 1.43555H12.5758L11.6502 1.89832Z" fill="#be4df5"/>
<path d="M23.4529 15.1409C21.5662 15.4079 19.6617 16.8852 18.8608 18.6651C18.3624 19.822 18.2556 21.7799 18.6294 22.9369C19.6261 25.9271 22.5095 27.6536 25.5888 27.0662C28.3298 26.55 30.4835 24.0582 30.4835 21.3883C30.4835 20.3204 30.1097 19.8042 29.2197 19.6619C28.2764 19.5017 27.6356 20.1246 27.4398 21.3528C27.2619 22.5097 26.6033 23.4352 25.6065 23.8802C24.681 24.2896 24.1826 24.2896 23.2571 23.8802C21.673 23.1504 20.9788 21.2994 21.7442 19.822C22.207 18.8787 22.9011 18.3981 24.0936 18.1489C25.393 17.882 25.6421 17.7218 25.8201 17.0454C26.0515 16.2089 25.7489 15.5147 25.037 15.2121C24.7166 15.0697 24.414 14.9807 24.3962 14.9807C24.3606 14.9985 23.9334 15.0697 23.4529 15.1409Z" fill="#be4df5"/>
<path d="M34.1105 16.992C33.7367 17.3124 33.6121 17.5616 33.6121 18.0777C33.6121 18.5939 33.7367 18.8431 34.1105 19.1635L34.5911 19.5906H53.9919L54.4191 19.1457C54.7216 18.8609 54.864 18.5227 54.864 18.0777C54.864 17.6327 54.7216 17.2946 54.4191 17.0098L53.9919 16.5648H34.5911L34.1105 16.992Z" fill="#be4df5"/>
<path d="M34.1644 22.9725C33.9152 23.1683 33.666 23.5598 33.5948 23.8446C33.4702 24.432 33.8618 25.3575 34.3068 25.5355C34.4669 25.5889 40.3228 25.6423 47.3178 25.6423H60.044L60.4712 25.1973C60.9162 24.7702 61.0407 24.0404 60.8094 23.4175C60.489 22.6165 60.4178 22.6165 47.1576 22.6165C34.8585 22.6165 34.6093 22.6165 34.1644 22.9725Z" fill="#be4df5"/>
<path d="M22.6498 32.0323C21.1013 32.5128 19.5528 33.8833 18.8586 35.3963C18.2713 36.6778 18.3069 39.0984 18.9298 40.4333C19.535 41.7327 20.6385 42.8184 21.92 43.4058C23.3617 44.0821 25.4976 44.0821 26.9393 43.4058C28.8082 42.5514 30.2321 40.6291 30.4279 38.7247C30.5703 37.4431 30.3923 36.9092 29.7694 36.5888C28.6124 35.9836 27.6869 36.571 27.4377 38.0839C27.3487 38.6535 27.0995 39.2764 26.8147 39.6502C26.2986 40.3266 25.1594 40.9495 24.4297 40.9495C23.0414 40.9495 21.5819 39.579 21.4395 38.1195C21.2971 36.5176 22.3294 35.2361 24.0203 34.9157C25.284 34.6665 25.5154 34.5419 25.7646 33.9545C26.0316 33.3316 25.8358 32.4416 25.373 32.0856C25.0526 31.8543 23.3617 31.8187 22.6498 32.0323Z" fill="#be4df5"/>
<path d="M34.1116 33.723C33.453 34.2747 33.4352 35.2181 34.0404 35.8766L34.4497 36.3216H46.3394L46.7666 35.8766C47.0692 35.5919 47.2116 35.2537 47.2116 34.8087C47.2116 34.3637 47.0692 34.0256 46.7666 33.7408L46.3394 33.2958H34.5921L34.1116 33.723Z" fill="#be4df5"/>
<path d="M53.9033 33.5806C52.7464 33.9544 51.1445 35.5385 50.6817 36.7666C50.3614 37.5854 50.3258 38.3507 50.2724 47.357L50.219 57.0396L47.6025 59.7273C44.8437 62.5573 44.2741 63.376 43.7402 65.4407C43.224 67.4164 43.3486 68.2529 45.3243 76.6896C46.8194 83.0261 47.3177 84.8237 47.8339 85.8561C49.418 89.0777 52.3192 91.4271 55.7722 92.2815C56.7512 92.5307 58.2107 92.5663 65.2057 92.5663C74.4611 92.5663 74.5145 92.5663 77.0241 91.3204C79.516 90.0922 81.2247 88.3835 82.4528 85.8917C83.7344 83.3286 83.7165 83.4354 83.6631 72.5959L83.6098 62.9311L83.0758 61.9699C82.5062 60.9198 81.4561 59.9764 80.406 59.5315C79.1956 59.0331 76.686 59.2289 75.7782 59.8874C75.4578 60.1188 75.3689 60.0832 74.6747 59.3713C73.4822 58.1253 72.6634 57.7694 70.8835 57.7694C69.6732 57.7694 69.2104 57.8406 68.5697 58.1609L67.7687 58.5703L66.9678 57.7872C65.3125 56.1675 63.3012 55.7403 61.2187 56.5234C60.9339 56.648 60.9161 56.1141 60.9161 47.1434C60.9161 36.464 60.9339 36.642 59.6346 35.1647C58.2463 33.5806 55.9146 32.9399 53.9033 33.5806ZM56.591 36.6242C56.947 36.7844 57.3741 37.1582 57.5521 37.4608C57.8725 37.9948 57.8903 38.6177 57.8903 51.1304V64.2482L58.2997 64.711C58.8514 65.3517 59.8304 65.3873 60.4711 64.7999C60.8805 64.4084 60.9161 64.266 60.9161 62.7709C60.9161 60.9732 61.1831 60.19 62.0197 59.5849C62.6426 59.1221 63.8173 59.1221 64.4225 59.5671C65.3658 60.2612 65.5438 60.9198 65.5438 63.5184C65.5438 65.7967 65.5616 65.9035 65.9888 66.3129C66.5762 66.918 67.5373 66.918 68.1247 66.3129C68.5341 65.9213 68.5697 65.7433 68.5697 64.266C68.5697 62.3615 68.8366 61.5783 69.6732 61.0622C70.9191 60.279 72.5388 60.9732 73.0016 62.4683C73.1084 62.8421 73.1974 64.1236 73.1974 65.3161C73.1974 67.2206 73.233 67.5054 73.5534 67.8258C74.0339 68.3063 74.6925 68.4309 75.2621 68.1461C76.0274 67.7902 76.2232 67.2206 76.2232 65.3517V63.6964L76.9174 63.0023C77.5225 62.3971 77.7005 62.3081 78.4303 62.3081C79.1244 62.3081 79.3558 62.4149 79.9254 62.9133L80.5839 63.5184L80.6373 72.5781C80.6729 78.4517 80.6195 81.9225 80.4949 82.4921C79.8542 85.4645 77.2555 88.2767 74.3187 89.1845C73.233 89.5227 72.6634 89.5405 65.1879 89.5405C57.7301 89.5405 57.1427 89.5227 56.0748 89.1845C53.7787 88.4725 51.6607 86.657 50.5927 84.5034C50.219 83.7202 49.5426 81.2818 48.3323 76.1913C46.3388 67.8436 46.232 66.8824 47.0686 65.1559C47.3711 64.5686 48.0831 63.6608 48.9018 62.8421L50.2368 61.5249V63.7498C50.2368 66.8824 50.5037 67.4698 51.8921 67.4698C52.2836 67.4698 52.6218 67.3274 52.871 67.0604L53.2448 66.651L53.2982 52.4297C53.3516 38.4753 53.3516 38.1727 53.7076 37.5676C54.0813 36.9446 55.0247 36.3217 55.6298 36.3217C55.8256 36.3217 56.2528 36.4641 56.591 36.6242Z" fill="#be4df5"/>
<path d="M34.398 39.5787C33.4724 40.0414 33.2944 41.2696 34.042 42.0171C34.3802 42.3553 34.6649 42.3731 40.414 42.3731H46.4478L46.8216 41.9637C47.053 41.7145 47.2132 41.323 47.2132 41.0026C47.2132 39.3829 47.053 39.3473 40.414 39.3473C36.2846 39.3473 34.7361 39.4185 34.398 39.5787Z" fill="#be4df5"/>
<path d="M22.1682 48.977C20.9223 49.4576 19.5696 50.7035 18.9644 51.9494C18.5194 52.8394 18.466 53.1598 18.466 54.6549C18.466 56.239 18.5016 56.417 19.0712 57.4671C19.7476 58.713 20.7087 59.603 22.0436 60.2081C22.72 60.5107 23.2362 60.5997 24.4287 60.5997C26.1374 60.5997 27.1519 60.2437 28.4334 59.2114C29.804 58.0901 30.7829 55.527 30.4091 54.0497C30.2845 53.5691 29.5014 53.053 28.8784 53.053C28.2911 53.053 27.4545 53.9963 27.4545 54.6549C27.4545 56.4882 25.4432 58.0367 23.7167 57.5205C22.8268 57.2535 21.9546 56.5238 21.6521 55.7762C20.9401 54.1031 21.9724 52.074 23.7167 51.7003C25.2296 51.3799 25.5322 51.2375 25.7636 50.7035C26.0306 50.0628 25.8526 49.1728 25.372 48.8168C24.9271 48.4965 23.2184 48.5676 22.1682 48.977Z" fill="#be4df5"/>
<path d="M34.1835 50.3652C33.6317 50.8102 33.436 51.4331 33.6851 52.0917C34.0589 53.0528 34.0233 53.035 40.4131 53.0528H46.3402L46.7674 52.6079C47.3191 52.0739 47.3547 51.1305 46.8741 50.5432L46.536 50.116L40.5911 50.0626C34.8421 50.0092 34.6285 50.027 34.1835 50.3652Z" fill="#be4df5"/>
<path d="M34.398 56.3099C33.4724 56.7904 33.2944 58.0008 34.042 58.7483C34.3802 59.0865 34.6471 59.1043 38.9189 59.1043H43.4576L43.8136 58.6415C44.3298 57.983 44.2942 57.1286 43.7246 56.5947C43.2796 56.1675 43.244 56.1675 39.0613 56.1141C35.8931 56.0785 34.7361 56.1319 34.398 56.3099Z" fill="#be4df5"/>
</svg>
