<svg width="93" height="94" viewBox="0 0 93 94" fill="none" xmlns="http://www.w3.org/2000/svg">
<path d="M69.2969 1.76347C64.5077 2.79596 60.0745 5.78664 57.6353 9.6674L57.1012 10.5041H41.0242C23.3627 10.5041 24.1639 10.4507 23.3449 11.59C22.9176 12.1952 22.9176 12.2486 22.9176 16.3786C22.9176 20.4196 22.9354 20.5798 23.3093 21.1139C23.5407 21.4165 24.0036 21.8081 24.3597 21.9861C24.876 22.2176 24.9829 22.36 24.8938 22.6626C24.609 23.9087 23.3271 31.3854 23.1847 32.7917C23.0956 33.6996 23.0066 35.9604 23.0066 37.794C23.0066 41.1051 23.0066 41.1407 23.4517 41.568C23.9858 42.1198 24.9829 42.1732 25.4814 41.6748C25.784 41.3721 25.8196 40.9449 25.8909 37.0107C25.9799 32.7027 25.9977 32.6137 26.9235 27.4512L27.8671 22.2532H54.5018L54.6265 22.9118C54.9113 24.6564 55.303 26.0271 55.9083 27.5047C56.4781 28.8932 56.5671 29.3026 56.5671 30.5309C56.5671 31.8661 56.5137 32.0975 55.5523 34.3049C54.3594 37.0107 54.2526 37.8474 54.9647 38.5417C55.6769 39.2715 56.5493 39.1469 59.2377 37.972C61.2673 37.0819 61.7124 36.9395 62.8875 36.9039C64.0626 36.8505 64.4008 36.9217 65.6471 37.438L67.0714 38.0254L67.1248 52.3023L67.1605 66.5793H52.6324C41.0242 66.5793 38.1222 66.5259 38.2646 66.3479C39.5465 64.6567 43.5168 59.0492 43.7304 58.6041C44.7987 56.5213 43.766 53.5485 41.6118 52.5338C40.6325 52.0709 38.7987 52.0353 37.8195 52.4448C36.9471 52.8008 36.9293 52.8186 31.0362 59.1738L25.9443 64.6745L25.8909 55.4888L25.8552 46.3032L25.3923 45.9472C24.8048 45.4843 24.057 45.4665 23.5229 45.9116L23.0956 46.2498L23.0422 56.735L23.0066 67.2201L21.885 67.861C19.8375 69.0537 14.6387 71.5637 13.3391 71.991C12.4667 72.2936 10.615 72.614 7.60618 72.9701C1.73087 73.6999 1.81989 73.6821 1.33918 74.1628L0.929688 74.5722V91.6974L1.37479 92.1246C1.69526 92.4629 1.99793 92.5697 2.60326 92.5697C3.35103 92.5697 17.3449 90.4335 19.0897 90.0597C19.5348 89.9706 20.4072 89.7214 21.0482 89.5078C22.3657 89.0984 30.7157 84.8794 31.3389 84.3275C31.8552 83.8469 31.873 82.7432 31.3745 82.2447C30.7335 81.6039 30.1282 81.7819 25.8909 83.9893C21.6713 86.1967 20.0868 86.9088 18.6802 87.2292C17.612 87.4606 4.38366 89.5434 3.93856 89.5434C3.61809 89.5434 3.60028 89.2942 3.60028 82.9568V76.388L4.18781 76.2812C4.49048 76.2278 6.16405 76.0319 7.87324 75.8361C13.802 75.1419 14.0334 75.0707 19.5348 72.3114C25.7128 69.2317 25.784 69.1783 31.9976 62.3959C38.6029 55.204 38.7987 55.0082 39.5821 55.0082C40.8462 55.0082 41.6652 56.2187 41.1132 57.3046C40.9708 57.5894 39.6177 59.5298 38.1044 61.6126C36.591 63.7132 35.2557 65.6002 35.1311 65.8138C34.6148 66.8107 35.0955 68.4484 36.0925 69.0715C36.6623 69.4275 36.9293 69.4275 53.3802 69.4275C68.9409 69.4275 70.1337 69.4453 70.7213 69.748C71.5937 70.1752 71.9319 71.1187 71.5402 71.9554C70.9883 73.1303 71.5046 73.0591 59.9498 73.1837C48.3951 73.3083 48.6087 73.2727 44.9589 74.501C42.9649 75.1597 35.2023 79.0048 34.8106 79.5389C34.686 79.6991 34.5792 80.1263 34.5792 80.4824C34.5792 80.9986 34.686 81.23 35.0421 81.5149C35.3092 81.7285 35.683 81.8887 35.8789 81.8887C36.0747 81.8887 38.0154 80.963 40.2052 79.8415C42.4842 78.6666 44.9411 77.5273 46.0093 77.1713C49.4989 76.0142 49.9618 75.9785 61.2851 75.8539L71.5224 75.7471L72.377 75.2487C75.5461 73.3795 75.1366 68.2704 71.7539 67.0599C71.3266 66.8997 70.7747 66.7395 70.5076 66.6861L70.0091 66.5793V38.8621L72.3058 38.9511C75.0298 39.0401 76.9883 38.8087 79.1247 38.0966C82.0802 37.1175 84.2167 35.818 86.4243 33.6818C88.7923 31.4032 90.6973 28.1633 91.5697 25.0124C92.1394 22.894 92.2462 18.675 91.7655 16.3786C91.356 14.3848 90.5905 12.3911 89.5757 10.6465C88.4896 8.79512 87.9911 8.29667 87.2255 8.29667C85.7122 8.29667 85.4273 9.56059 86.5668 11.2874C87.457 12.6759 88.4006 14.7231 88.8279 16.2006C89.0771 17.1085 89.1484 17.9808 89.1306 20.295C89.1306 23.0186 89.0949 23.3391 88.632 24.7454C86.3709 31.6524 80.3176 36.1385 73.2316 36.1385C71.0417 36.1385 69.5106 35.818 66.929 34.8567C65.024 34.1269 64.8459 34.0913 62.9765 34.0913C61.2139 34.0913 60.8935 34.1447 59.665 34.6431L58.3119 35.195L58.846 33.842C59.7896 31.4388 59.7184 29.1424 58.5967 26.5078C57.0122 22.7872 56.9232 18.1232 58.3831 14.4204C60.2347 9.73861 64.1516 6.17828 69.0299 4.77195C70.2583 4.41591 70.8459 4.36251 73.3028 4.36251C76.7034 4.36251 77.5402 4.55833 80.4956 5.98246C82.0624 6.74793 82.6143 6.94375 83.0238 6.85474C83.9674 6.64112 84.3769 5.50181 83.8072 4.68294C83.184 3.79286 79.8013 2.29752 77.2197 1.76347C75.0832 1.31843 71.3978 1.31843 69.2969 1.76347ZM55.5167 13.744C54.9825 15.5954 54.6621 17.0195 54.573 18.1054L54.4662 19.4049H25.6772V13.3523H55.6235L55.5167 13.744Z" fill="#be4df5"/>
<path d="M80.7446 14.5808C80.2817 14.9724 77.7713 17.1976 75.172 19.5474L70.4539 23.802L67.8367 21.2564C65.451 18.9244 65.1483 18.6929 64.5786 18.6929C63.4213 18.6929 62.7448 19.7966 63.2967 20.7579C63.4213 20.9537 64.9347 22.5025 66.6616 24.1758C70.4005 27.8252 70.2759 27.7718 72.0919 26.1874C75.9197 22.8763 83.1303 16.2897 83.3262 15.8981C83.611 15.364 83.4864 14.7232 83.0057 14.2425C82.4538 13.6907 81.7238 13.7975 80.7446 14.5808Z" fill="#be4df5"/>
</svg>
