<svg width="93" height="94" viewBox="0 0 93 94" fill="none" xmlns="http://www.w3.org/2000/svg">
<path d="M14.8683 3.46983C12.5072 4.10288 9.94081 6.20734 8.89714 8.34603C7.87057 10.4334 7.83635 10.7756 7.83635 18.6459V25.7977L8.26409 26.2083C8.52073 26.482 8.88003 26.636 9.20511 26.636C9.53019 26.636 9.88948 26.482 10.1461 26.2083L10.5739 25.7977V18.8683C10.5739 12.555 10.6081 11.8535 10.8989 10.9124C11.532 8.8422 12.781 7.42212 14.7828 6.49821L15.7922 6.01914L48.8135 5.96781C81.5096 5.93359 81.8347 5.93359 82.8613 6.27579C84.846 6.94305 86.5398 8.654 87.2071 10.6729C87.5664 11.7508 87.5664 11.939 87.5664 30.6739V49.5969L78.0022 35.2421C72.7496 27.3546 68.1814 20.6648 67.8734 20.3569C67.5483 20.066 66.864 19.604 66.3507 19.3303C65.4952 18.8855 65.2557 18.8512 63.6132 18.8512C61.5087 18.8683 60.7046 19.1421 59.4042 20.3398C58.8396 20.853 55.9995 24.9935 50.2678 33.6167L41.9526 46.1408L38.1201 40.3749C33.9796 34.1471 33.6032 33.7365 31.7383 33.0521C30.3695 32.5388 28.3848 32.6072 27.1358 33.1718C26.5883 33.4285 25.8697 33.8391 25.5275 34.0958C25.134 34.4037 23.5086 36.6793 21.0448 40.3578L17.1781 46.1408H13.876H10.5739V38.0309C10.5739 28.9458 10.6252 29.288 9.34198 29.0998C8.8287 29.0142 8.64049 29.0656 8.2812 29.4249L7.83635 29.8697V38.1678V46.4488L6.72424 46.9621C5.28704 47.6464 4.03805 48.8954 3.33656 50.384L2.78906 51.5303V68.5542V85.5781L3.33656 86.7244C4.03805 88.2301 5.26993 89.4619 6.77556 90.1634L7.9219 90.7109H32.3029H56.6838L57.6591 90.2319C58.9423 89.5988 60.3453 88.3156 60.9441 87.2035C61.8851 85.4583 61.9022 85.3728 61.9022 74.7478V64.9612H72.0139C80.6884 64.9612 82.2796 64.927 83.1864 64.6875C86.4029 63.8491 89.2089 61.0603 90.0473 57.8266C90.4408 56.3552 90.4408 11.8021 90.0473 10.3307C89.2089 7.07993 86.4201 4.29108 83.1693 3.45272C81.715 3.07632 16.2884 3.09342 14.8683 3.46983ZM65.4952 22.0849C66.0769 22.4613 67.9761 25.216 76.9072 38.664L87.6006 54.7811L87.5322 55.9274C87.3611 58.2885 85.9068 60.393 83.6654 61.5051L82.3651 62.1381L72.1508 62.1895L61.9193 62.2408L61.868 56.9711L61.8167 51.7014L61.2692 50.5379C60.1399 48.1597 58.0868 46.637 55.5717 46.3119C54.8702 46.2264 52.3038 46.1408 49.8914 46.1408C47.4618 46.1408 45.4771 46.0895 45.4771 46.021C45.4771 45.7986 60.8928 22.7522 61.2863 22.3758C62.3471 21.3834 64.2291 21.2466 65.4952 22.0849ZM30.8657 35.7212C31.1394 35.8067 31.6527 36.166 31.9949 36.5253C32.6622 37.2097 38.5307 45.9526 38.4109 46.0724C38.3767 46.1066 34.3731 46.1237 29.4969 46.1066L20.6513 46.0553L23.7139 41.4357C25.5788 38.5955 27.016 36.5937 27.4267 36.2687C28.419 35.4303 29.4114 35.2763 30.8657 35.7212ZM56.5641 49.4943C57.0602 49.7338 57.7275 50.2471 58.0526 50.6406C59.1989 51.958 59.1647 51.7014 59.1305 65.6285L59.0792 78.1868L56.3587 74.0977C54.8702 71.8392 53.4844 69.8374 53.2962 69.615C52.7829 69.0675 51.7734 69.0846 51.3115 69.6834C51.1061 69.9401 50.9522 70.3336 50.9522 70.5902C50.9522 70.8811 52.338 73.1053 55.0755 77.2287C59.1989 83.4223 59.1989 83.4223 59.0963 84.158C58.8396 85.8005 57.4195 87.4773 55.9481 87.8879C55.5375 87.9905 51.6365 88.059 45.135 88.059H34.9548L32.2173 83.9014C30.7288 81.6258 29.36 79.5556 29.1889 79.316L28.8981 78.8712L35.0062 69.7347C40.4127 61.6591 41.1998 60.5641 41.7815 60.2732C42.3974 59.9824 42.5172 59.9653 43.1503 60.1877C43.8004 60.4101 44.0399 60.701 46.0246 63.678C49.0017 68.1265 48.9333 68.0409 49.7545 68.0409C50.6271 68.0409 51.1233 67.579 51.1233 66.7748C51.1233 66.2957 50.6442 65.4745 48.745 62.6172C47.325 60.4614 46.0931 58.7847 45.6311 58.4083C44.3992 57.3475 42.7396 57.0224 41.1313 57.5015C39.3862 58.0319 39.3006 58.1174 33.1926 67.3565C30.0444 72.113 27.4096 76.0652 27.3411 76.1508C27.2556 76.2192 26.0237 74.5425 24.6036 72.4038C22.4478 69.1872 21.8661 68.4344 21.2159 68.0238C19.4023 66.8775 17.469 66.8775 15.6554 68.0409C14.9368 68.4858 14.3037 69.3583 10.1803 75.5862L5.52657 82.6182L5.47525 67.6132C5.44103 52.6253 5.44103 52.6253 5.80033 51.7698C6.22806 50.7946 7.51127 49.5456 8.38385 49.2718C8.77737 49.135 16.3055 49.0836 32.32 49.0665L55.6744 49.0494L56.5641 49.4943ZM19.6761 70.3849C19.8814 70.556 22.636 74.5938 25.8184 79.3674L31.6185 88.059H20.292H8.94846L8.09299 87.6483C7.63104 87.4259 7.04932 87.0495 6.82689 86.7929L6.41627 86.348L11.5833 78.5803C16.5451 71.1377 17.1781 70.2651 17.7598 70.0427C18.2047 69.8545 19.3168 70.0598 19.6761 70.3849Z" fill="#be4df5"/>
<path d="M23.6117 51.2727C20.2583 52.9495 19.5226 57.4835 22.1574 60.1183C23.646 61.6068 26.0755 62.1201 28.0431 61.3844C29.3263 60.8882 30.4555 59.8788 31.0544 58.664C31.465 57.8257 31.5334 57.4835 31.5334 56.2345C31.5334 54.3524 31.0886 53.3088 29.8054 52.1453C28.6761 51.1187 27.7009 50.7594 25.9728 50.7594C24.8436 50.7594 24.5014 50.8279 23.6117 51.2727ZM27.6496 53.9418C28.3511 54.4551 28.9157 55.6699 28.8301 56.4398C28.6419 57.9454 27.1876 59.1089 25.7675 58.9207C23.2353 58.5785 22.5338 55.1566 24.7067 53.8734C25.528 53.3943 26.931 53.4285 27.6496 53.9418Z" fill="#be4df5"/>
<path d="M38.7172 9.59552C36.5614 10.1259 34.8163 11.5118 33.8239 13.5478C33.2764 14.677 33.2422 14.8139 33.2422 16.6275C33.2422 18.4753 33.2593 18.5609 33.8923 19.827C34.8847 21.8288 36.4074 23.0778 38.5803 23.6424C42.6866 24.7203 46.9298 21.9314 47.4944 17.7738C48.0248 13.9242 45.6979 10.451 42.0536 9.62973C40.6848 9.30465 39.8978 9.30465 38.7172 9.59552ZM41.8311 12.4528C43.4565 12.949 44.62 14.5059 44.7569 16.3709C44.8253 17.4145 44.774 17.6712 44.3804 18.4924C42.5326 22.2736 37.3827 21.8288 36.0481 17.7738C35.7915 17.0039 35.9455 15.5667 36.3732 14.7112C36.7325 14.0269 37.7762 12.9832 38.4606 12.6068C39.316 12.1448 40.5993 12.0935 41.8311 12.4528Z" fill="#be4df5"/>
</svg>
