<svg width="32" height="32" viewBox="0 0 32 32" fill="none" xmlns="http://www.w3.org/2000/svg">
<path d="M25.3621 0.106487C25.3121 0.168987 25.2059 0.425237 25.1309 0.675237C24.8121 1.75024 24.1496 2.86899 23.3809 3.63149C22.6809 4.33149 21.9309 4.80024 20.9996 5.12524C20.4934 5.30649 20.3496 5.43149 20.3496 5.71274C20.3496 6.00649 20.4871 6.14399 20.9184 6.27524C21.3496 6.41274 22.1496 6.80024 22.5496 7.07524C22.7121 7.18149 23.0809 7.51274 23.3746 7.80649C24.1934 8.63149 24.6871 9.45024 25.0934 10.6377C25.2121 10.994 25.3559 11.319 25.4184 11.3565C25.5746 11.4752 25.9621 11.4565 26.0746 11.3252C26.1309 11.269 26.2496 10.9815 26.3434 10.6877C27.0371 8.53774 28.4934 6.98774 30.4371 6.31274C30.8621 6.16274 31.1246 5.95024 31.1246 5.75024C31.1246 5.54399 30.9871 5.32524 30.8184 5.25649C30.7309 5.22524 30.4871 5.13774 30.2809 5.06274C29.7246 4.86274 29.1559 4.54399 28.5934 4.12524C28.0434 3.71274 27.8184 3.65649 27.5559 3.86899C27.4496 3.95024 27.4121 4.05024 27.4121 4.21899C27.4121 4.42524 27.4559 4.49399 27.6934 4.70649C28.0246 5.00649 28.5559 5.36899 28.9309 5.55649L29.2059 5.70024L28.7746 5.95649C27.5496 6.68149 26.5559 7.72524 25.9559 8.90024L25.7371 9.33149L25.4871 8.86899C25.1121 8.18149 24.7184 7.65024 24.1434 7.08149C23.6684 6.61274 22.8309 5.99399 22.4184 5.80649L22.2496 5.73149L22.6684 5.48149C23.5184 4.97524 24.2559 4.33149 24.8184 3.59399C25.1559 3.15024 25.6871 2.26274 25.6871 2.12524C25.6934 2.07524 25.7496 2.14399 25.8246 2.28149C26.0246 2.66899 26.1184 2.75024 26.3746 2.75024C26.6434 2.75024 26.8746 2.54399 26.8746 2.30024C26.8746 2.21274 26.7934 1.96274 26.6934 1.74399C26.5934 1.52524 26.4371 1.08774 26.3434 0.781487C26.1371 0.0939875 26.0621 0.000237465 25.7184 0.000237465C25.5496 0.000237465 25.4246 0.0377369 25.3621 0.106487Z" fill="#7715A7"/>
<path d="M13.4256 4.625C13.3631 4.6625 13.2068 5.05625 13.0318 5.6125C11.4131 10.7125 8.37556 14.525 4.25681 16.6188C3.45056 17.025 2.35056 17.475 1.60681 17.6875C0.950558 17.8813 0.763058 18.1188 0.944308 18.525C1.02556 18.7 0.994308 18.6875 1.90056 18.9813C5.23181 20.0563 8.10056 22.125 10.2318 24.9813C10.5193 25.3688 10.8131 25.7188 10.8818 25.7563C11.0443 25.8375 11.4131 25.725 11.5006 25.5625C11.6381 25.3063 11.5693 25.0875 11.1631 24.525C9.93181 22.8 8.30681 21.2563 6.46931 20.0438C5.68806 19.5313 4.05681 18.6813 3.38181 18.4375L2.98806 18.2938L3.28806 18.175C7.96306 16.3438 11.8006 12.3625 13.5006 7.56875L13.7318 6.91875L13.8756 7.35C14.4443 9.0625 15.5193 11.0375 16.7568 12.625C17.3443 13.3813 18.5381 14.6125 19.3443 15.2938C20.5881 16.3375 22.6381 17.575 23.9881 18.0938C24.2318 18.1938 24.4318 18.275 24.4256 18.2813C24.4131 18.2875 24.1256 18.4125 23.7818 18.5563C22.4193 19.1313 20.8068 20.0938 19.6256 21.0375C18.9318 21.5938 17.3881 23.1375 16.8506 23.8125C15.7193 25.2313 14.6318 27.1563 14.0318 28.8L13.7318 29.625L13.4381 28.825C12.9881 27.5938 12.7256 27.075 12.5256 27C12.2068 26.875 11.8193 27.1063 11.8131 27.4188C11.8131 27.4938 11.9131 27.7875 12.0381 28.075C12.3631 28.8 12.7006 29.775 13.0006 30.825C13.3256 31.9438 13.3568 32 13.7131 32C13.8943 32 14.0131 31.9625 14.0818 31.8875C14.1381 31.825 14.2881 31.4375 14.4131 31.025C14.8568 29.5438 15.7193 27.5938 16.4818 26.325C18.6318 22.7438 21.7818 20.1875 25.5318 18.9938C26.0006 18.8438 26.3881 18.6813 26.4568 18.6125C26.5818 18.4688 26.6006 18.1313 26.4881 17.9813C26.4443 17.9188 26.0006 17.7375 25.5006 17.5688C23.4443 16.875 21.8318 15.9875 20.2006 14.6375C17.6068 12.4938 15.5256 9.21875 14.4006 5.50625C14.2818 5.10625 14.1381 4.73125 14.0818 4.675C13.9693 4.55 13.6006 4.525 13.4256 4.625Z" fill="#7715A7"/>
<path d="M3.51875 5.28125C3.44375 5.33125 3.325 5.55 3.25 5.775C3.08125 6.28125 2.73125 6.825 2.35 7.175C2.08125 7.425 1.38125 7.8125 1.20625 7.8125C1.10625 7.8125 0.875 8.11875 0.875 8.25625C0.875 8.53125 1.01875 8.68125 1.4375 8.84375C2.2375 9.15 2.96875 9.925 3.21875 10.7312C3.3625 11.1937 3.51875 11.375 3.79375 11.375C4.03125 11.375 4.3125 11.1437 4.3125 10.9562C4.3125 10.7188 4.75625 9.925 5.075 9.5875C5.43125 9.2125 5.75 9 6.1875 8.84375C6.5625 8.7125 6.6875 8.5875 6.6875 8.33125C6.6875 8.00625 6.59375 7.89375 6.20625 7.75C5.30625 7.41875 4.68125 6.75 4.35 5.76875C4.16875 5.21875 3.8625 5.04375 3.51875 5.28125ZM4.08125 7.43125C4.2375 7.6375 4.50625 7.9125 4.68125 8.05L4.99375 8.29375L4.70625 8.50625C4.55 8.625 4.28125 8.9 4.10625 9.11875L3.7875 9.51875L3.69375 9.36875C3.64375 9.2875 3.3875 9.00625 3.11875 8.74375L2.6375 8.275L2.925 8.0375C3.2125 7.80625 3.75 7.2 3.75 7.1125C3.75 7.01875 3.79375 7.0625 4.08125 7.43125Z" fill="#7715A7"/>
<path d="M25.4194 24.5C25.3319 24.5687 25.2444 24.7188 25.2194 24.8312C25.1944 24.9375 25.0506 25.2937 24.9006 25.6125C24.4381 26.575 23.6944 27.2625 22.7319 27.6188C22.2319 27.8063 22.0819 27.9812 22.1569 28.3125C22.2069 28.5375 22.2506 28.575 22.7819 28.7812C23.9319 29.2375 24.7256 30.1 25.1569 31.3812C25.3256 31.875 25.4381 31.9937 25.7256 32C26.0131 32 26.1069 31.8875 26.3069 31.3313C26.5694 30.5938 26.8381 30.15 27.3381 29.6562C27.7756 29.225 28.3631 28.8563 28.8881 28.6875C29.1569 28.6063 29.3131 28.4188 29.3131 28.1875C29.3131 27.9375 29.1506 27.7687 28.7944 27.6562C28.3131 27.5 27.8569 27.2188 27.4381 26.8312C26.8444 26.2875 26.6131 25.8875 26.1756 24.6813C26.0694 24.3812 25.6881 24.2937 25.4194 24.5ZM26.6256 27.4875C26.8256 27.6813 27.1006 27.9125 27.2444 28C27.3819 28.0875 27.5006 28.1688 27.5006 28.1875C27.5006 28.2062 27.3756 28.3 27.2256 28.3937C26.8756 28.6125 26.1256 29.4 25.9069 29.775L25.7381 30.0625L25.4881 29.6875C25.1944 29.2375 24.6131 28.65 24.2256 28.3875L23.9381 28.2L24.3819 27.875C24.8319 27.5437 25.3319 26.9938 25.5756 26.5625L25.7131 26.325L25.9881 26.725C26.1381 26.95 26.4194 27.2937 26.6256 27.4875Z" fill="#7715A7"/>
</svg>
