<svg width="32" height="32" viewBox="0 0 32 32" fill="none" xmlns="http://www.w3.org/2000/svg">
<path d="M30.6556 0.917969C30.1494 1.03047 30.0806 1.08672 27.4994 3.65547C26.0744 5.07422 24.8369 6.26797 24.7556 6.31172C24.6181 6.38672 24.5869 6.37422 24.5056 6.24297C24.2056 5.75547 22.9306 4.76172 21.7369 4.06797C20.1556 3.16172 18.0744 2.48047 16.1869 2.24922C15.4306 2.16172 13.5806 2.16172 12.8056 2.24922C10.5119 2.52422 8.35565 3.31797 6.4369 4.59297C3.05565 6.83672 0.855646 10.243 0.149396 14.3117C-0.00685377 15.2367 -0.0381038 17.4617 0.0868962 18.493C0.430646 21.1867 1.5744 23.8117 3.2994 25.8742C3.86815 26.5492 4.7619 27.4367 5.40565 27.943C7.1244 29.3117 9.3494 30.3555 11.4431 30.7742C12.6369 31.018 13.2431 31.0742 14.4994 31.0742C16.8431 31.0742 18.8056 30.6242 20.9056 29.593C23.5494 28.2992 25.6431 26.3305 27.1431 23.7117C27.3494 23.3617 27.4369 23.1367 27.4369 22.9805C27.4369 22.6742 27.2619 22.4992 26.9494 22.4992C26.6681 22.4992 26.5556 22.6055 26.2494 23.1555C24.5244 26.2555 21.4556 28.6492 17.9994 29.5867C16.4119 30.018 14.1494 30.1492 12.5619 29.9117C9.51815 29.4555 6.86815 28.0992 4.7744 25.9242C2.80565 23.8805 1.5869 21.3992 1.1494 18.5555C0.999396 17.5867 0.999396 15.7305 1.14315 14.7492C1.59315 11.818 2.89315 9.22422 4.93065 7.19922C7.25565 4.88672 10.1119 3.55547 13.4056 3.24922C14.3306 3.16797 14.9431 3.17422 15.8744 3.28047C18.1369 3.53672 20.0494 4.21172 21.8744 5.40547C23.0431 6.16797 23.8931 6.95547 23.7119 7.11797C23.6806 7.14297 23.1619 7.56797 22.5619 8.06172C20.8119 9.49922 19.0869 11.0555 17.2119 12.893C15.6681 14.4055 15.4181 14.6305 15.0369 14.8117C14.1931 15.2117 13.1869 16.3742 12.5056 17.7305C12.3681 18.018 12.0619 18.6492 11.8369 19.1367C11.6119 19.6305 11.2869 20.3117 11.1119 20.6555C10.7244 21.418 10.6744 21.5742 10.7556 21.8117C10.9056 22.2367 11.3556 22.2992 11.9494 21.968C12.1681 21.8492 12.8056 21.543 13.3744 21.2805C14.5244 20.7555 14.6869 20.6367 14.6869 20.343C14.6869 20.093 14.4244 19.8117 14.1931 19.8117C14.1056 19.8117 13.6681 19.9805 13.2244 20.1867C12.7806 20.393 12.4056 20.5492 12.3931 20.5367C12.3681 20.5117 12.9744 19.168 13.4056 18.3117C13.9744 17.168 14.7431 16.1742 15.3181 15.8492L15.5306 15.7242L15.2681 16.0242C14.9431 16.393 14.9056 16.6992 15.1431 16.9242C15.3806 17.1492 15.6681 17.1055 15.9744 16.8055C16.1244 16.6555 16.2681 16.568 16.3119 16.593C16.3556 16.618 16.1994 16.8242 15.8806 17.1617C15.4431 17.618 15.3744 17.7117 15.3744 17.9055C15.3744 18.1992 15.6056 18.4367 15.8806 18.4367C16.0431 18.4367 16.1681 18.3492 16.5994 17.9242C17.1369 17.4055 17.2619 17.3492 16.9494 17.7867C16.7431 18.068 16.2869 18.493 15.8619 18.8117C15.4181 19.1367 15.3869 19.5305 15.7806 19.7867C15.9931 19.9242 16.1994 19.8617 16.6931 19.493C17.3181 19.0305 17.8306 18.4492 18.1056 17.893C18.3181 17.4555 18.4681 17.2805 19.6931 16.0617L21.0494 14.718L21.2994 14.918C21.7369 15.2492 22.1994 15.393 22.7806 15.3617C23.4494 15.3242 23.8369 15.143 24.4431 14.5742C25.0619 13.9992 25.4431 13.8117 26.0306 13.8117C26.9181 13.8117 27.6431 14.3742 27.8681 15.2305C27.9056 15.368 27.9369 15.9742 27.9431 16.5742C27.9431 17.7992 27.8369 18.6992 27.5556 19.8242C27.2994 20.8617 27.3244 21.068 27.7306 21.1805C28.0431 21.2742 28.2806 21.1242 28.3931 20.768C28.8181 19.4617 28.9681 18.3805 28.9681 16.593C28.9681 15.1055 28.9619 15.0867 28.7931 14.6617C28.5681 14.0992 28.2431 13.668 27.7994 13.3367C27.3119 12.9805 26.8306 12.8055 26.2181 12.768C25.3056 12.7055 24.6181 12.9742 23.8556 13.6805C23.3494 14.1492 23.2056 14.243 22.8869 14.318C22.5244 14.3992 21.8119 14.143 21.8119 13.9305C21.8119 13.8992 22.1869 13.4617 22.6431 12.9555C23.9244 11.5242 23.8744 11.5867 23.8744 11.3117C23.8744 11.0242 23.6556 10.8117 23.3494 10.8117C23.1994 10.8117 23.0931 10.8867 22.8119 11.1867L22.4619 11.5617L21.9119 11.0055L21.3619 10.4555L22.1931 9.74297C22.6556 9.34922 23.5619 8.60547 24.2181 8.08047L25.4056 7.13047L25.5806 7.29922C25.6744 7.38672 25.7494 7.48672 25.7494 7.51797C25.7494 7.54922 25.3994 8.01172 24.9744 8.55547C24.5431 9.09297 24.1744 9.61172 24.1556 9.69922C24.1056 9.88672 24.2556 10.2117 24.4056 10.2742C24.5369 10.3242 24.7744 10.3242 24.8994 10.2742C24.9556 10.2555 25.3869 9.73672 25.8556 9.13047C26.5869 8.18672 27.0681 7.66797 29.2556 5.46797C30.9744 3.73672 31.8369 2.83047 31.9056 2.67422C32.1244 2.14297 31.9681 1.41172 31.5744 1.13047C31.4244 1.02422 30.9244 0.861719 30.8119 0.880468C30.7931 0.886719 30.7244 0.899218 30.6556 0.917969ZM30.9869 2.08672C31.0056 2.16172 30.6806 2.53047 29.9119 3.29922L28.8181 4.40547L28.6744 4.26172L28.5306 4.11797L29.6369 3.02422C30.7369 1.93047 30.9306 1.79297 30.9869 2.08672ZM27.2806 5.93047L26.4994 6.71797L26.3619 6.57422L26.2181 6.43672L26.9994 5.65547L27.7744 4.87422L27.9181 5.01172L28.0681 5.14922L27.2806 5.93047ZM21.1869 11.7805L21.7744 12.3742L21.5619 12.593L21.3494 12.8117L20.7369 12.2055L20.1244 11.5992L20.3244 11.393C20.4369 11.2805 20.5431 11.1867 20.5619 11.1867C20.5806 11.1867 20.8619 11.4555 21.1869 11.7805ZM19.9681 12.9992L20.5931 13.6242L20.3744 13.843L20.1556 14.0617L19.4994 13.4055L18.8494 12.7492L19.0306 12.5617C19.1306 12.4617 19.2431 12.3742 19.2806 12.3742C19.3181 12.3742 19.6244 12.6555 19.9681 12.9992ZM19.2181 15.0617L18.9994 15.2805L18.3306 14.6117L17.6619 13.9367L17.8744 13.718L18.0869 13.4992L18.7619 14.168L19.4369 14.843L19.2181 15.0617ZM17.9931 16.2742L17.7369 16.518L17.0744 15.8555L16.4119 15.1867L16.6556 14.9367L16.8994 14.6867L17.5806 15.3555L18.2556 16.0305L17.9931 16.2742Z" fill="#7715A7"/>
<path d="M10.4994 5.50625C9.71819 5.6625 8.96819 6.28125 8.68694 6.9875C8.24319 8.11875 8.61819 9.38125 9.59319 10.0312C10.0307 10.3188 10.4244 10.4375 10.9744 10.4375C11.9994 10.4375 12.8057 9.95 13.2432 9.05C13.8807 7.7625 13.2432 6.13125 11.9182 5.6375C11.5182 5.4875 10.8744 5.425 10.4994 5.50625ZM11.5932 6.65C12.1494 6.90625 12.4369 7.36875 12.4369 7.98125C12.4369 8.675 11.9557 9.2375 11.2432 9.38125C10.8182 9.46875 10.4869 9.3875 10.1119 9.10625C9.24319 8.44375 9.39944 7.1125 10.4057 6.65C10.8057 6.45625 11.1932 6.45625 11.5932 6.65Z" fill="#7715A7"/>
<path d="M17.375 5.6682C16.9937 5.79945 16.475 6.14945 16.25 6.42445C16.15 6.54945 15.9875 6.8057 15.8937 6.99945C15.7437 7.31195 15.725 7.41195 15.7188 8.0307C15.7188 8.64945 15.7375 8.7557 15.8875 9.07445C16.625 10.6432 18.6937 11.0244 19.9312 9.8182C21.275 8.51195 20.7062 6.18695 18.9125 5.6557C18.5125 5.53695 17.7375 5.5432 17.375 5.6682ZM18.6187 6.6682C19.8687 7.0682 19.975 8.79945 18.7875 9.34945C18.2437 9.6057 17.6687 9.52445 17.2437 9.1432C16.8812 8.81195 16.7312 8.48695 16.725 8.02445C16.725 7.3932 17.1375 6.84945 17.7625 6.6557C18.1187 6.5432 18.2437 6.5432 18.6187 6.6682Z" fill="#7715A7"/>
<path d="M5.4125 10.5001C4.65625 10.6313 3.90625 11.2126 3.575 11.9251C3.425 12.2438 3.40625 12.3563 3.40625 12.9751C3.40625 13.6376 3.4125 13.6813 3.61875 14.0876C4.4125 15.6501 6.5 15.9313 7.7 14.6313C8.16875 14.1313 8.34375 13.6563 8.3375 12.9376C8.33125 12.3251 8.23125 12.0001 7.89375 11.5126C7.375 10.7563 6.35625 10.3376 5.4125 10.5001ZM6.33125 11.5876C7.35 11.9501 7.64375 13.2376 6.875 13.9813C6.56875 14.2813 6.275 14.4001 5.84375 14.4001C4.54375 14.4001 3.9125 12.8188 4.85625 11.9251C5.25625 11.5501 5.8375 11.4126 6.33125 11.5876Z" fill="#7715A7"/>
<path d="M5.07503 17.7171C3.56878 18.1359 2.83128 19.8359 3.53753 21.2421C4.45628 23.0796 7.09378 23.0609 8.00628 21.2109C8.26878 20.6796 8.33128 19.9046 8.15628 19.3671C7.81878 18.3359 6.96253 17.6859 5.90628 17.6421C5.60003 17.6296 5.28128 17.6609 5.07503 17.7171ZM6.16878 18.7234C6.41253 18.7734 6.84378 19.0921 6.99378 19.3296C7.21878 19.6984 7.28128 20.1109 7.16878 20.5046C6.86878 21.5171 5.62503 21.8984 4.83128 21.2171C4.21253 20.6859 4.13753 19.8109 4.66253 19.1984C4.91253 18.9046 5.12503 18.7734 5.48128 18.6921C5.71253 18.6421 5.80628 18.6421 6.16878 18.7234Z" fill="#7715A7"/>
<path d="M22.4361 17.9125C20.8986 18.325 20.1486 20.0437 20.8799 21.4875C21.5299 22.7562 23.2299 23.2 24.4611 22.4125C25.2861 21.8875 25.7361 20.875 25.5674 19.9187C25.3111 18.4312 23.8924 17.525 22.4361 17.9125ZM23.5674 18.9437C24.1049 19.1062 24.5611 19.7312 24.5611 20.3125C24.5611 20.8625 24.1611 21.45 23.6299 21.6687C23.3611 21.7812 22.8236 21.7812 22.5549 21.6687C22.2486 21.5437 21.9486 21.2687 21.8049 20.9937C21.2111 19.825 22.2924 18.5625 23.5674 18.9437Z" fill="#7715A7"/>
<path d="M9.99925 22.8614C9.493 23.0552 9.2055 23.2364 8.93675 23.5427C8.57425 23.9552 8.38675 24.3489 8.31175 24.8614C8.1055 26.1739 8.89925 27.3427 10.2117 27.6677C11.0367 27.8677 11.918 27.6114 12.5555 26.9864C13.5555 26.0052 13.5055 24.3177 12.4555 23.3739C11.9742 22.9489 11.5555 22.7927 10.843 22.7677C10.4242 22.7552 10.2055 22.7802 9.99925 22.8614ZM11.393 23.9177C11.9242 24.1302 12.318 24.8552 12.2242 25.4552C12.1305 26.0114 11.6117 26.5614 11.0805 26.6614C9.98675 26.8677 9.018 25.7802 9.4055 24.7739C9.72425 23.9302 10.5305 23.5864 11.393 23.9177Z" fill="#7715A7"/>
<path d="M17.4238 22.8688C17.2988 22.8937 17.0113 23.0062 16.7863 23.1188C15.255 23.8687 14.9863 26.0187 16.2863 27.175C16.8113 27.6437 17.1925 27.7812 17.9675 27.7812C18.5425 27.7812 18.63 27.7625 19.0175 27.5812C19.53 27.3375 19.9738 26.9 20.2175 26.4C20.3613 26.1 20.3988 25.925 20.4238 25.4625C20.4613 24.6125 20.2488 24.0562 19.6738 23.4938C19.1113 22.95 18.2488 22.7125 17.4238 22.8688ZM18.6238 24.0438C19.03 24.2625 19.2863 24.6063 19.38 25.0625C19.5613 25.9375 18.8675 26.7687 17.9675 26.7563C16.88 26.7437 16.1925 25.6812 16.6488 24.7188C17.0175 23.9375 17.8675 23.65 18.6238 24.0438Z" fill="#7715A7"/>
</svg>
