<svg width="32" height="24" viewBox="0 0 32 24" fill="none" xmlns="http://www.w3.org/2000/svg">
<path d="M8.75 0.611795C8.575 0.693045 8.5125 0.780544 8.44375 1.0118L8.35 1.31179H8.0625C7.9 1.31179 7.50625 1.35555 7.18125 1.41179C4.09375 1.93679 2.35 3.86804 1.60625 7.59305C1.34375 8.89929 0 19.2493 0 19.9555C0 21.6618 1.10625 23.0618 2.71875 23.4055C3.2375 23.5118 3.64375 23.518 4.40625 23.4368C5.225 23.343 5.6375 23.218 6.375 22.8618C6.96875 22.568 7.09375 22.4743 7.69375 21.8805C8.40625 21.168 8.84375 20.568 9.90625 18.8805C10.9875 17.168 11.3625 16.8368 12.4313 16.643C13.1375 16.5118 18.675 16.493 19.4688 16.618C20.6688 16.8055 20.9875 17.1055 22.3938 19.3555C23.1812 20.6118 23.6125 21.1805 24.3062 21.8805C24.9062 22.4743 25.0312 22.568 25.625 22.8618C26.3625 23.218 26.775 23.343 27.5938 23.4368C28.3563 23.518 28.7625 23.5118 29.2812 23.4055C30.8938 23.0618 32 21.6618 32 19.9555C32 19.2493 30.6562 8.89929 30.3938 7.59305C29.65 3.86804 27.9062 1.93679 24.8188 1.41179C24.4937 1.35555 24.1 1.31179 23.9375 1.31179H23.65L23.5562 1.0118C23.4188 0.549295 23.2625 0.499294 22 0.499294C20.7625 0.499294 20.5875 0.555544 20.4375 0.980545L20.35 1.24929H16H11.65L11.5625 0.980545C11.4125 0.555544 11.2375 0.499294 10 0.499294C9.14375 0.499294 8.93125 0.518045 8.75 0.611795ZM24.375 2.71804C26.9062 3.09929 28.2563 4.47429 28.9563 7.37429C29.175 8.29305 29.225 8.63054 30.0063 14.5305C30.5438 18.618 30.6875 19.8618 30.6562 20.1555C30.575 20.918 30.0562 21.6555 29.3875 21.9555C28.6063 22.2993 26.8813 22.093 26.0125 21.543C25.2437 21.0555 24.6125 20.2993 23.475 18.5118C22.3125 16.6805 21.9188 16.1993 21.2313 15.793C20.4062 15.293 19.4813 15.1868 16 15.1868C12.5437 15.1868 11.5875 15.2993 10.7688 15.793C10.0813 16.1993 9.6875 16.6805 8.525 18.5118C7.3875 20.2993 6.75625 21.0555 5.9875 21.543C5.11875 22.093 3.39375 22.2993 2.6125 21.9555C1.94375 21.6555 1.425 20.918 1.34375 20.1555C1.3125 19.8618 1.4625 18.5805 2.025 14.3118C2.8125 8.41179 2.8625 8.04305 3.09375 7.16179C3.8 4.43679 5.15625 3.09304 7.5875 2.71804C8.38125 2.59304 23.5625 2.59304 24.375 2.71804Z" fill="#7715A7"/>
<path d="M7.76869 6.15629C7.43744 6.30004 7.37494 6.51254 7.37494 7.43754V8.25004H6.59369C5.66244 8.25004 5.43119 8.31879 5.26869 8.65629C5.17494 8.85629 5.16869 8.90629 5.24994 9.14379C5.39369 9.55004 5.59994 9.62504 6.58119 9.62504H7.37494V10.45C7.37494 11.1625 7.39369 11.3125 7.49994 11.4813C7.70619 11.825 8.22494 11.8813 8.52494 11.5875C8.71244 11.3938 8.74994 11.2 8.74994 10.3438V9.63754L9.61244 9.61254C10.5124 9.59379 10.6687 9.54379 10.8124 9.28129C10.9124 9.10004 10.9124 8.77504 10.8124 8.59379C10.6687 8.32504 10.3999 8.25004 9.54369 8.25004H8.76244L8.73744 7.38754C8.71244 6.44379 8.67494 6.31879 8.33744 6.15629C8.09369 6.04379 8.02494 6.04379 7.76869 6.15629Z" fill="#7715A7"/>
<path d="M23.2695 6.21778C22.7633 6.35528 22.3758 6.58028 22.007 6.94278C20.9133 8.04278 20.907 9.83028 22.0008 10.924C23.3633 12.2803 25.6883 11.8803 26.507 10.1553C27.1508 8.79278 26.6758 7.24278 25.3695 6.48028C24.8008 6.14278 23.9383 6.03653 23.2695 6.21778ZM24.4945 7.57403C24.607 7.61153 24.8195 7.74278 24.957 7.86778C25.9383 8.75528 25.3258 10.374 24.0008 10.374C22.5508 10.374 21.9883 8.51778 23.2008 7.71778C23.5945 7.45528 23.9633 7.41153 24.4945 7.57403Z" fill="#7715A7"/>
<path d="M14.3304 8.29375C14.2554 8.30625 14.1179 8.40625 14.0304 8.50625C13.8054 8.775 13.8179 9.11875 14.0554 9.3875C14.2304 9.58125 14.2616 9.59375 14.6554 9.59375C15.0491 9.59375 15.0804 9.58125 15.2554 9.3875C15.5054 9.1125 15.5054 8.76875 15.2616 8.49375C15.1179 8.33125 15.0304 8.29375 14.7741 8.28125C14.6054 8.26875 14.4054 8.275 14.3304 8.29375Z" fill="#7715A7"/>
<path d="M16.9631 8.30625C16.5444 8.4875 16.4381 9.04375 16.7444 9.3875C16.9194 9.58125 16.9506 9.59375 17.3444 9.59375C17.7381 9.59375 17.7694 9.58125 17.9444 9.3875C18.1881 9.1125 18.1944 8.76875 17.9569 8.5C17.8131 8.3375 17.7256 8.3 17.4381 8.28125C17.2506 8.2625 17.0319 8.275 16.9631 8.30625Z" fill="#7715A7"/>
<path d="M6.525 15.1173C6.375 15.2111 6.2875 15.3486 6.15625 15.6986C5.85625 16.4798 5.41875 17.2923 4.7 18.3986C4.43125 18.8048 4.375 18.9361 4.375 19.1673C4.375 19.6736 4.85625 19.9611 5.325 19.7423C5.6875 19.5798 7.0125 17.3361 7.40625 16.2298C7.625 15.6236 7.5875 15.3611 7.25625 15.1423C7 14.9673 6.78125 14.9611 6.525 15.1173Z" fill="#7715A7"/>
<path d="M24.7443 15.1423C24.4131 15.3673 24.3818 15.6173 24.6006 16.2548C24.9381 17.2298 26.3381 19.5923 26.6693 19.7423C27.1443 19.9611 27.6256 19.6736 27.6256 19.1673C27.6256 18.9361 27.5693 18.8048 27.3006 18.3986C26.5818 17.2923 26.1443 16.4798 25.8443 15.6986C25.7131 15.3486 25.6256 15.2111 25.4756 15.1173C25.2193 14.9611 25.0006 14.9673 24.7443 15.1423Z" fill="#7715A7"/>
</svg>
