<svg width="32" height="30" viewBox="0 0 32 30" fill="none" xmlns="http://www.w3.org/2000/svg">
<path d="M5.19421 0.468111C3.19421 0.905611 1.56921 2.14311 0.687964 3.90561C0.519214 4.24936 0.300464 4.78061 0.206714 5.09311L0.031714 5.65561L0.012964 12.6556C-0.00578597 20.4119 -0.018286 20.0744 0.400464 21.1994C0.812964 22.2994 1.63796 23.3869 2.61921 24.1244C3.16296 24.5369 4.01921 24.9556 4.75671 25.1681L5.34421 25.3369L9.67546 25.3619L14.0005 25.3806V26.9244C14.0005 28.4119 14.0067 28.4806 14.1505 28.7806C14.4255 29.3744 14.9005 29.6494 15.5942 29.6119L16.0317 29.5931L19.6067 27.4869L23.1817 25.3869L24.9192 25.3556C26.5692 25.3306 26.688 25.3244 27.2442 25.1619C27.5692 25.0681 28.0942 24.8681 28.4005 24.7181C29.8442 24.0056 31.038 22.6931 31.6005 21.1994C31.9192 20.3494 32.0005 19.8306 32.0005 18.6619V17.6306L31.838 17.5056C31.6317 17.3431 31.438 17.3369 31.238 17.4931C31.088 17.6119 31.0817 17.6556 31.038 18.5869C30.9942 19.6681 30.8942 20.2431 30.6442 20.8619C30.3505 21.6056 30.0005 22.1244 29.3755 22.7494C28.7505 23.3744 28.3817 23.6306 27.5817 23.9681C26.7692 24.3181 26.338 24.3744 24.513 24.3744H22.9005L19.2817 26.4994C16.8067 27.9556 15.6067 28.6244 15.488 28.6244C15.3817 28.6244 15.2442 28.5619 15.1567 28.4681L15.0005 28.3181V26.5369C15.0005 25.5619 14.9817 24.7119 14.963 24.6556C14.8505 24.3744 14.8255 24.3744 10.2192 24.3744C5.40046 24.3744 5.35671 24.3744 4.41921 23.9681C3.69421 23.6619 3.28796 23.3994 2.73796 22.8806C1.90671 22.0994 1.33171 21.0931 1.07546 19.9556C0.975464 19.5119 0.969214 18.9119 0.969214 12.8431C0.969214 5.53061 0.950464 5.92436 1.36921 4.84311C1.88796 3.49311 3.11921 2.26186 4.46296 1.74311C5.57546 1.31811 4.76921 1.34311 16.0005 1.34311C27.2317 1.34311 26.4255 1.31811 27.538 1.74311C28.8817 2.26186 30.113 3.49311 30.6317 4.84311C31.0317 5.87436 31.0192 5.68061 31.0442 11.1369L31.0692 16.1244L31.2317 16.2494C31.438 16.4119 31.6255 16.4056 31.838 16.2431L32.0067 16.1119L31.988 10.8869L31.9692 5.65561L31.7942 5.09311C31.113 2.85561 29.5317 1.27436 27.2817 0.580612L26.7192 0.405611L16.1567 0.393112C7.31921 0.386862 5.53171 0.399363 5.19421 0.468111Z" fill="#7715A7"/>
<path d="M10.075 7.1307C9.8375 7.22445 9.31875 7.79945 9.24375 8.0557C9.1375 8.4057 9.2125 8.66195 9.55625 9.1932C10.0312 9.92445 10.3063 10.7245 10.4125 11.6807C10.4438 11.9807 10.4938 12.1245 10.6 12.2307C10.8 12.4245 11.0875 12.4182 11.2938 12.212C11.4438 12.062 11.45 12.0307 11.4125 11.5995C11.3125 10.5245 10.9313 9.3807 10.4188 8.6307L10.2375 8.36195L10.3875 8.2057L10.5438 8.0557L11.05 8.58695C12.4813 10.1057 13.3438 12.1495 13.475 14.3557C13.5062 14.887 13.4938 15.1182 13.4125 15.437C12.9 17.4245 10.5125 18.0307 9.125 16.5245C8.75 16.1182 8.55625 15.6557 8.51875 15.0682C8.4625 14.312 8.66875 13.7307 9.19375 13.1557C9.31875 13.0182 9.44375 12.8432 9.46875 12.762C9.56875 12.4245 9.20625 12.062 8.85 12.1495C8.64375 12.1995 8.13125 12.7745 7.89375 13.2245C7.36875 14.212 7.36875 15.537 7.89375 16.5245C8.7875 18.1995 10.8563 18.8432 12.5813 17.987C13.7875 17.3807 14.4938 16.1807 14.5 14.7495C14.5 12.6307 13.7313 10.3432 12.45 8.6557C12.0687 8.1557 11.2 7.26195 10.9875 7.14945C10.8 7.04945 10.2938 7.03695 10.075 7.1307Z" fill="#7715A7"/>
<path d="M20.0935 7.13002C19.8872 7.24877 19.4372 7.70502 19.3372 7.88627C19.2872 7.98002 19.2497 8.20502 19.2497 8.39252C19.2497 8.68627 19.281 8.77377 19.4997 9.08002C19.6435 9.27377 19.8372 9.61127 19.9372 9.82377C20.1122 10.1988 20.3747 11.0863 20.3747 11.305C20.3747 11.3738 20.2372 11.4488 19.931 11.5488C17.731 12.2363 16.8185 14.8863 18.106 16.8238C18.931 18.0738 20.4185 18.63 21.8997 18.2488C22.5372 18.0863 22.9997 17.8175 23.506 17.3175C23.981 16.8425 24.3185 16.2113 24.4435 15.5738C24.5435 15.0488 24.481 13.5988 24.3185 12.7988C23.9622 11.0425 23.156 9.40502 21.9497 8.03002C21.2622 7.24252 21.0622 7.09877 20.5935 7.08002C20.3872 7.06752 20.1622 7.09252 20.0935 7.13002ZM21.0435 8.53627C22.5685 10.23 23.3747 12.1613 23.481 14.3425C23.5122 15.0113 23.4997 15.2238 23.4122 15.53C23.1997 16.2613 22.731 16.805 22.006 17.1488C21.631 17.3238 21.5372 17.3425 20.9997 17.3425C20.4622 17.3425 20.3685 17.3238 19.9872 17.1425C18.381 16.3863 18.0185 14.355 19.256 13.1113C19.6372 12.73 20.2185 12.4488 20.7372 12.3988C20.9872 12.3675 21.1872 12.3113 21.2935 12.23C21.4497 12.105 21.456 12.0863 21.4185 11.5675C21.3497 10.605 20.9685 9.43627 20.4935 8.72377L20.2435 8.35502L20.381 8.20502C20.4622 8.13002 20.5435 8.06127 20.5685 8.06127C20.5935 8.06127 20.806 8.27377 21.0435 8.53627Z" fill="#7715A7"/>
</svg>
