<svg width="30" height="32" viewBox="0 0 30 32" fill="none" xmlns="http://www.w3.org/2000/svg">
<path d="M13.8004 0.293749C13.3817 0.6875 12.8192 1.39375 12.3379 2.13125C9.00669 7.2 9.31919 14.225 13.0942 18.9062C13.3442 19.2125 13.6379 19.55 13.7442 19.65L13.9379 19.8375V21.1187V22.4062L12.5379 21.0062L11.1442 19.6125L11.1004 19.05C10.9879 17.4437 10.4004 15.7937 9.4192 14.3438C8.87545 13.5437 7.58169 12.2625 6.78169 11.7312C6.06919 11.2625 5.08169 10.775 4.34419 10.5312C3.23794 10.1625 1.51919 9.95 1.15044 10.1437C0.831694 10.3062 0.787944 10.5063 0.875444 11.3875C1.31919 15.9812 5.05045 19.7312 9.63795 20.1937L10.3442 20.2625L12.1379 22.05L13.9379 23.8438V27.0625V30.2812L13.5629 29.9062L13.1942 29.5312L13.1317 28.8687C13.0067 27.5687 12.6879 26.4375 12.1254 25.3063C11.7442 24.55 11.1692 23.65 11.0004 23.5625C10.8129 23.4625 10.5942 23.4875 10.4129 23.6312C10.1442 23.8375 10.1879 24.0938 10.5942 24.6875C11.2129 25.5938 11.6504 26.5875 11.9129 27.65C11.9942 28 12.0629 28.3062 12.0629 28.3438C12.0629 28.375 10.8004 27.1437 9.25045 25.5938C6.45044 22.8 6.43794 22.7812 6.18169 22.7812C5.87544 22.7812 5.68794 22.9688 5.68794 23.2688C5.68794 23.4437 5.99419 23.775 8.48169 26.2625C10.3692 28.15 11.2379 29.0625 11.1567 29.0625C10.9004 29.0625 9.82545 28.75 9.2192 28.5062C6.69419 27.4688 4.62544 25.2375 3.79419 22.65C3.58794 22.0125 3.37544 20.9875 3.37544 20.6375C3.37544 20.4875 3.38169 20.4875 3.73794 20.525C5.57544 20.7375 7.18794 21.4 8.60669 22.5312C9.11294 22.9437 9.40044 22.9937 9.61919 22.7125C9.87545 22.3875 9.76919 22.15 9.18169 21.6875C7.46294 20.3375 5.16919 19.5 3.16919 19.5C2.77544 19.5 2.72544 19.5125 2.55044 19.6937L2.35669 19.8812L2.39419 20.6438C2.45669 21.875 2.75669 23.0062 3.34419 24.2375C4.40669 26.4562 6.13169 28.1812 8.34419 29.225C9.42544 29.7375 10.4567 30.0125 11.7129 30.1375L12.4067 30.2L13.3129 31.1C14.1567 31.9375 14.2379 32 14.4567 32C14.6067 32 14.7317 31.9563 14.8129 31.875C14.9317 31.7562 14.9379 31.6687 14.9379 29.5438V27.3438L15.5817 26.7062L16.2192 26.0687L17.0567 26C19.1754 25.825 21.0442 25.2062 22.8942 24.0563C23.5004 23.6812 24.3629 23.0188 24.4442 22.8687C24.5442 22.675 24.5067 22.4375 24.3442 22.2812C24.1004 22.0312 23.8942 22.075 23.3379 22.5062C21.6567 23.8062 19.6504 24.6562 17.5317 24.9625C17.3004 24.9938 17.4629 24.8187 21.1192 21.1625L24.9567 17.325L24.9192 17.0875C24.8692 16.7937 24.7692 16.6937 24.4754 16.6438L24.2379 16.6062L20.4567 20.3812L16.6754 24.1562L16.7192 23.7812C16.7817 23.2375 17.1004 22.0062 17.3504 21.35C18.3192 18.8125 20.1754 16.5625 22.4879 15.1313C24.1192 14.1187 25.8317 13.5437 27.7942 13.3438L28.1754 13.3L28.1504 13.7C27.9817 16.0062 27.1004 18.2937 25.6754 20.1312C24.9879 21.0125 24.9567 21.1 25.1942 21.4C25.2942 21.525 25.3754 21.5625 25.5567 21.5625C25.8379 21.5625 25.8879 21.525 26.3254 20.9688C28.0692 18.7625 29.0942 16.0125 29.1442 13.4187L29.1567 12.6812L28.9442 12.4875L28.7254 12.2937L28.0067 12.3312C23.1192 12.5938 18.5879 15.8375 16.6192 20.475C16.0442 21.8187 15.7129 23.2063 15.6442 24.5437L15.6067 25.2438L15.2754 25.5687L14.9379 25.9V22.975V20.05L15.3379 19.6C16.9442 17.7937 17.9817 15.7687 18.5254 13.375C18.7567 12.375 18.8817 11.075 18.7629 10.9C18.6942 10.7937 18.4629 10.6875 18.2942 10.6875C17.9879 10.6875 17.8754 10.9187 17.7754 11.7563C17.6067 13.2 17.1567 14.75 16.5254 16.0437C16.2067 16.7 15.4504 17.9 15.0942 18.325L14.9379 18.5125V12.6V6.69375L14.7754 6.56875C14.4942 6.35 14.1817 6.40625 14.0317 6.69375C13.9504 6.84375 13.9379 7.69375 13.9379 12.6V18.3313L13.7442 18.0875C13.3692 17.625 12.8004 16.7188 12.4692 16.0625C10.9942 13.125 10.6442 9.74375 11.4817 6.53125C11.9754 4.64375 12.9504 2.775 14.1942 1.35625L14.4067 1.1125L14.8629 1.66875C16.5004 3.65 17.5254 6.0625 17.7817 8.53125C17.8442 9.125 17.8754 9.25 18.0192 9.375C18.1879 9.5375 18.4442 9.53125 18.6504 9.36875C18.7942 9.25625 18.8129 9.19375 18.8129 8.8875C18.8129 8.69375 18.7567 8.18125 18.6879 7.75C18.2379 4.96875 16.9942 2.4 15.1817 0.481249C14.7317 0.0124989 14.7129 0 14.4192 0C14.1504 0 14.0879 0.03125 13.8004 0.293749ZM3.02544 11.2312C5.33169 11.675 7.53794 13.2312 8.86294 15.3438C9.3442 16.1187 9.86919 17.4563 9.97544 18.2125C10.0129 18.4625 9.94419 18.4 7.36919 15.825C4.81919 13.2875 4.70669 13.1875 4.48169 13.1875C4.17544 13.1875 4.00044 13.3625 4.00044 13.6687C4.00044 13.8937 4.10669 14.0125 6.60669 16.5125C8.04419 17.95 9.18795 19.125 9.14419 19.125C9.00045 19.125 7.88794 18.8125 7.51294 18.6625C6.92545 18.4312 6.10044 17.975 5.53794 17.575C4.89419 17.1187 3.94419 16.1625 3.48169 15.5187C2.61919 14.3062 2.01919 12.775 1.89419 11.4875L1.85669 11.05L2.19419 11.0875C2.38169 11.1125 2.75669 11.175 3.02544 11.2312Z" fill="#7715A7"/>
</svg>
