<svg width="32" height="28" viewBox="0 0 32 28" fill="none" xmlns="http://www.w3.org/2000/svg">
<path d="M15.7634 6.025C7.23214 9.19375 0.194635 11.8375 0.125885 11.8938C-0.0366154 12.0313 -0.0428654 12.4375 0.113385 12.5875C0.182135 12.6438 1.53213 13.2938 3.12588 14.0313C6.16338 15.4375 6.32589 15.5313 6.55714 16.0313C6.62589 16.1688 7.08214 18.2813 7.60088 20.9C8.30089 24.4125 8.55089 25.55 8.63838 25.6375C8.70714 25.7063 8.84464 25.75 8.99464 25.75C9.23839 25.75 9.26338 25.725 11.4759 23.3125C12.7071 21.9688 13.7321 20.875 13.7509 20.875C13.7696 20.875 15.2384 22.4188 17.0196 24.3125C20.1821 27.675 20.2634 27.75 20.4884 27.75C20.6196 27.75 20.7696 27.7125 20.8259 27.675C20.9946 27.5438 32.0009 0.956251 32.0009 0.687502C32.0009 0.387501 31.8446 0.250002 31.5259 0.256252C31.3696 0.262501 25.8634 2.275 15.7634 6.025ZM30.1009 2.8625C30.0759 2.9 20.5071 25.9438 20.3821 26.2563C20.3571 26.3375 19.6009 25.575 17.4384 23.2688C15.8384 21.5688 14.2884 19.925 13.9884 19.6188L13.4446 19.0625L16.2384 16.3375C17.7759 14.8438 19.0696 13.5313 19.1196 13.4313C19.2009 13.2688 19.2009 13.225 19.1071 13.0313C19.0009 12.8 18.7946 12.7063 18.5446 12.775C18.4196 12.8063 13.3321 17.6875 11.9384 19.1125C11.4946 19.5625 11.4009 19.7188 10.3509 21.675C9.73213 22.8125 9.21964 23.7375 9.20714 23.7313C9.19464 23.7188 8.83839 21.9625 8.41339 19.8375C7.98214 17.7125 7.60088 15.875 7.56339 15.7625C7.51964 15.65 7.49464 15.55 7.50713 15.5375C7.51964 15.525 8.02589 15.2313 8.62589 14.875C9.22589 14.525 9.78214 14.1688 9.86339 14.0813C10.0384 13.8875 10.0384 13.675 9.85089 13.4625C9.59464 13.1563 9.41963 13.2125 8.06964 14.0125L6.86339 14.7375L6.60088 14.5625C6.46339 14.4688 5.34463 13.9375 4.12588 13.375C2.90713 12.8188 1.88838 12.3375 1.86338 12.3188C1.83838 12.3 7.29464 10.25 13.9884 7.76875C20.6821 5.2875 26.1634 3.26875 26.1696 3.275C26.1821 3.2875 22.7821 5.3125 18.6134 7.775C14.4446 10.2438 10.9696 12.3188 10.8946 12.3938C10.6884 12.5813 10.6946 12.95 10.9134 13.1188C11.1134 13.275 11.2571 13.2813 11.5071 13.1563C11.6071 13.1 15.2821 10.9313 19.6759 8.3375C24.0634 5.7375 27.7571 3.55625 27.8759 3.48125L28.0946 3.35625L27.8759 3.575C27.7571 3.69375 25.9259 5.475 23.8134 7.53125C21.7009 9.5875 19.9196 11.325 19.8634 11.4C19.6884 11.6063 19.7196 11.9625 19.9134 12.1188C20.0884 12.2563 20.2259 12.2813 20.4134 12.2063C20.4759 12.1813 22.6759 10.0625 25.3071 7.49375C27.9384 4.91875 30.1009 2.81875 30.1134 2.8125C30.1259 2.8125 30.1196 2.83125 30.1009 2.8625ZM13.0571 20.0625C13.0759 20.0625 12.3384 20.875 11.7321 21.525L11.4321 21.8438L11.7821 21.1563C12.3696 20.025 12.4821 19.9063 12.8446 20.0063C12.9446 20.0375 13.0446 20.0625 13.0571 20.0625Z" fill="#7715A7"/>
</svg>
