<svg width="32" height="32" viewBox="0 0 32 32" fill="none" xmlns="http://www.w3.org/2000/svg">
<path d="M12.694 0.630938C11.8628 0.712189 10.9378 1.29969 10.9378 1.74344C10.9378 2.21219 11.4753 2.38094 11.8815 2.03719C12.7065 1.33719 14.044 1.49969 14.969 2.40594C15.144 2.57469 15.369 2.84344 15.4753 2.99969C15.769 3.44344 16.144 3.45594 16.444 3.03719C16.994 2.27469 17.6503 1.79969 18.3753 1.64969C19.644 1.38719 20.6128 2.17469 20.9065 3.71219C21.2628 5.58094 20.4565 9.15594 19.2128 11.1997C18.9315 11.6622 18.9128 11.8997 19.1503 12.1059C19.4815 12.3872 19.6065 12.3247 20.419 11.4934C22.3815 9.47469 24.8628 8.00594 26.719 7.75594C27.6003 7.63719 28.269 7.82469 28.7315 8.33094C29.1753 8.81219 29.344 9.43719 29.244 10.1872C29.1815 10.6434 28.869 11.3372 28.569 11.7122C28.3628 11.9747 28.3128 12.2684 28.4565 12.4559C28.494 12.5122 28.7628 12.6434 29.0378 12.7434C30.2753 13.1809 31.0003 14.0372 31.0003 15.0622C31.0003 16.5497 29.4065 17.5934 26.469 18.0372C25.9253 18.1184 25.3503 18.1497 24.3753 18.1497C23.044 18.1497 22.4628 18.0997 21.6378 17.8934C21.2565 17.7997 21.2315 17.7997 21.0753 17.9184C20.8565 18.0809 20.7815 18.3247 20.8878 18.5372C20.9315 18.6309 21.0128 18.7309 21.0628 18.7559C21.1128 18.7809 21.5378 18.9809 22.0003 19.2059C25.4315 20.8622 28.1815 23.8247 27.8128 25.4684C27.7753 25.6309 27.7065 25.8372 27.6628 25.9309C27.544 26.1559 27.144 26.5434 26.844 26.7184C26.2878 27.0497 25.3503 27.1559 24.6878 26.9622C24.5003 26.9122 24.2003 26.8497 24.0253 26.8309C23.7378 26.7997 23.694 26.8122 23.6003 26.9434C23.5315 27.0434 23.5003 27.2247 23.5003 27.4997C23.5003 28.3559 23.1815 29.1809 22.6565 29.7184C22.2065 30.1747 21.8315 30.3434 21.2503 30.3434C20.6628 30.3434 20.2315 30.1497 19.6753 29.6372C18.1003 28.1809 16.9128 25.5497 16.5378 22.6497C16.4315 21.8684 16.3565 21.7497 15.969 21.7497C15.5815 21.7497 15.5253 21.8497 15.4128 22.7434C15.0503 25.4934 13.9503 28.0434 12.4878 29.5184C11.6878 30.3247 10.994 30.5497 10.1878 30.2809C9.92527 30.1934 9.75027 30.0747 9.43152 29.7559C8.82527 29.1434 8.56277 28.4997 8.56277 27.6184C8.56277 26.8622 8.33152 26.6809 7.68777 26.9059C6.56902 27.2997 5.33777 27.0559 4.66902 26.3122C4.08777 25.6684 4.04402 25.0122 4.51902 24.0372C5.38777 22.2372 7.50652 20.3809 10.1003 19.1434C10.5128 18.9497 10.9065 18.7372 10.9878 18.6684C11.1378 18.5309 11.1628 18.3372 11.0565 18.1059C10.9315 17.8372 10.7628 17.8059 10.0815 17.9372C7.36277 18.4622 4.51902 18.1684 2.50027 17.1559C1.61902 16.7122 1.16277 16.2059 1.00027 15.4747C0.919021 15.1122 1.00027 14.6122 1.20027 14.1934C1.49402 13.5809 2.33777 12.9309 3.08777 12.7434C3.63152 12.6059 3.77527 12.1997 3.43152 11.7747C3.15027 11.4309 2.82527 10.7184 2.74402 10.2809C2.61277 9.57469 2.82527 8.81844 3.28777 8.34344C3.83777 7.77469 4.51902 7.63719 5.62527 7.87469C7.68152 8.31219 9.84402 9.62469 11.7378 11.5872C12.444 12.3184 12.5878 12.3809 12.9128 12.1059C13.1628 11.8872 13.1315 11.6809 12.7565 11.0184C11.5128 8.81844 10.8628 6.15594 11.0565 4.06844C11.1315 3.27469 11.1315 3.22469 11.0128 3.06844C10.844 2.83719 10.494 2.81219 10.2878 3.01844C10.094 3.21219 10.0315 3.71219 10.0378 4.99969C10.0503 6.30594 10.269 7.55594 10.719 8.86844C10.8065 9.12469 10.869 9.34344 10.8565 9.34969C10.844 9.36219 10.644 9.23094 10.4128 9.05594C8.27527 7.44344 5.58152 6.49969 4.05027 6.81844C3.20027 6.99969 2.43777 7.56844 2.06277 8.31219C1.84402 8.74344 1.68777 9.36844 1.68777 9.83094C1.68777 10.2997 1.86277 11.0559 2.08777 11.5122L2.28777 11.9309L1.87527 12.1372C1.37527 12.3934 0.581521 13.1497 0.362771 13.5934C0.0502709 14.2184 -0.0122291 14.5247 0.0127709 15.2372C0.0315209 15.8372 0.0565209 15.9497 0.237771 16.3372C0.494021 16.8747 0.775271 17.2247 1.25027 17.5934C2.45652 18.5247 4.40027 19.0684 6.90027 19.1747L7.82527 19.2184L7.36902 19.5309C5.38152 20.8872 3.84402 22.6809 3.34402 24.2184C3.18777 24.6809 3.17527 24.8122 3.20027 25.3059C3.22527 25.7559 3.26902 25.9434 3.43152 26.2809C3.97527 27.4434 5.40027 28.1997 6.85652 28.0997C7.13777 28.0809 7.40652 28.0434 7.45652 28.0247C7.52527 27.9997 7.56277 28.0559 7.59402 28.2622C7.84402 29.7684 8.83152 30.9872 10.0628 31.3122C10.5065 31.4309 11.2378 31.3997 11.694 31.2497C13.2565 30.7184 14.819 28.6309 15.7503 25.8122C15.8815 25.4184 16.0065 25.1372 16.019 25.1872C16.7128 27.3559 17.519 28.8559 18.6315 30.0309C19.469 30.9122 20.169 31.2997 21.0378 31.3559C22.6065 31.4684 24.1128 30.1809 24.4003 28.4997L24.4753 28.0309L25.1628 28.0497C26.3753 28.0872 27.3503 27.7622 28.0253 27.0872C28.8315 26.2809 29.044 25.1809 28.6253 23.9684C28.1628 22.6247 26.6503 20.9434 24.669 19.5747L24.1065 19.1872H24.7253C27.144 19.1872 29.8878 18.3747 31.0253 17.3184C31.7503 16.6434 32.0378 15.9122 31.9878 14.8747C31.9565 14.2872 31.9378 14.2122 31.6878 13.7059C31.3565 13.0309 30.7878 12.4434 30.144 12.1059L29.7065 11.8809L29.8815 11.5184C29.9753 11.3184 30.1003 10.9809 30.1503 10.7747C30.2753 10.2809 30.2815 9.32469 30.1565 8.84344C29.8565 7.69344 28.9628 6.91219 27.7565 6.73719C26.2128 6.51844 23.5503 7.54344 21.5128 9.13719L21.119 9.44344L21.2128 9.22469C21.3815 8.82469 21.6815 7.66219 21.819 6.90594C22.0753 5.47469 21.994 3.43719 21.644 2.53719C21.169 1.32469 20.1315 0.624689 18.819 0.624689C17.869 0.624689 17.0503 0.943438 16.3503 1.58719L15.9815 1.93094L15.6003 1.59344C14.769 0.849688 13.7815 0.524689 12.694 0.630938Z" fill="#7715A7"/>
<path d="M15.8313 8.04405C15.5125 8.10655 15.5 8.2003 15.5 10.2065C15.5 11.2815 15.525 12.119 15.5625 12.1815C15.5938 12.244 15.7062 12.3315 15.8125 12.3753C16.05 12.4753 16.325 12.3753 16.4313 12.1503C16.475 12.044 16.5 11.3878 16.5 10.1565C16.5 8.39405 16.4938 8.30655 16.375 8.1878C16.3063 8.11905 16.225 8.0628 16.1938 8.0628C16.1625 8.0628 16.1 8.0503 16.05 8.0378C16.0063 8.0253 15.9062 8.03155 15.8313 8.04405Z" fill="#7715A7"/>
<path d="M17.1562 12.6625C16.925 12.7375 16.7562 12.8562 16.4625 13.1625C16.2562 13.3812 16.0562 13.5625 16.025 13.5625C15.9937 13.5625 15.85 13.4187 15.7 13.25C15.3687 12.8625 15.025 12.6812 14.5562 12.6438C13.5937 12.5562 12.8562 13.2438 12.8625 14.225C12.8687 14.625 12.9187 14.7812 13.225 15.2937C13.3812 15.5625 13.3062 15.675 12.8875 15.8063C12.2062 16.0125 11.8125 16.5687 11.8125 17.3062C11.8187 17.9375 12.0562 18.3563 12.6125 18.7C12.9125 18.8875 13.6812 18.9312 14.0312 18.7875C14.275 18.6812 14.2812 18.6875 14.3875 18.8188C14.4625 18.9062 14.5 19.0625 14.5 19.2875C14.5 19.4688 14.5312 19.7 14.575 19.7937C14.8125 20.35 15.4562 20.8125 15.9812 20.8125C16.6812 20.8125 16.7875 19.9437 16.1062 19.8313C15.7187 19.7687 15.5 19.525 15.5 19.15C15.5 18.55 15.2187 18.05 14.7437 17.8125C14.4562 17.6625 14.175 17.6562 13.8125 17.7812C13.4125 17.925 13.1687 17.9 12.975 17.7125C12.6375 17.3687 12.85 16.8063 13.35 16.7125C13.6625 16.6562 14.0562 16.3438 14.1937 16.0437C14.4125 15.5563 14.325 14.9562 13.9875 14.5812C13.9125 14.5062 13.8625 14.35 13.8562 14.2188C13.85 14.0312 13.8875 13.95 14.05 13.8063C14.3812 13.5125 14.5687 13.55 15.025 14.025C15.4125 14.4313 15.675 14.5625 16.0937 14.5625C16.4187 14.5625 16.9125 14.2875 17.1 14C17.3062 13.6875 17.5687 13.5375 17.8187 13.5938C18.2375 13.6875 18.3937 14.2562 18.0937 14.6125C17.8812 14.8688 17.8125 15.075 17.8125 15.475C17.8125 16.0563 18.1125 16.4812 18.6375 16.6375C19.1625 16.7937 19.3437 17.2938 19 17.6375C18.8312 17.8 18.7812 17.8187 18.575 17.7875C17.8812 17.6688 17.6625 17.675 17.375 17.825C16.9562 18.0375 16.7312 18.4062 16.7 18.9125C16.675 19.2687 16.6875 19.3375 16.8187 19.475C17.1375 19.8125 17.6875 19.5625 17.6875 19.075C17.6875 18.7437 17.7937 18.6625 18.1062 18.7437C18.9187 18.9688 19.7937 18.575 20.1 17.8375C20.2062 17.5812 20.2125 17.0687 20.1125 16.7375C20 16.3625 19.5562 15.9062 19.1687 15.7625C18.7625 15.6125 18.7375 15.5 19.0125 15.0625C19.5062 14.275 19.2187 13.15 18.4312 12.7437C18.0937 12.575 17.5437 12.5375 17.1562 12.6625Z" fill="#7715A7"/>
<path d="M21.8008 13.9875C20.8883 14.2875 20.0758 14.5875 20.0071 14.65C19.7258 14.9062 19.9508 15.5 20.3258 15.5C20.5508 15.4937 23.8008 14.4125 23.9383 14.2937C24.1321 14.1313 24.1071 13.7312 23.9008 13.5688C23.8071 13.4937 23.6758 13.4375 23.6008 13.4375C23.5321 13.4437 22.7196 13.6875 21.8008 13.9875Z" fill="#7715A7"/>
<path d="M8.15715 13.7185C7.96965 13.8998 7.9509 14.2123 8.10715 14.3873C8.25715 14.5498 11.6446 15.6498 11.8321 15.5873C12.1696 15.4873 12.2946 15.2248 12.1634 14.906C12.0759 14.6935 12.0634 14.6935 10.3259 14.131C9.36965 13.8185 8.51965 13.5623 8.44465 13.5623C8.36965 13.5623 8.2384 13.631 8.15715 13.7185Z" fill="#7715A7"/>
<path d="M15.8312 15.125C15.3749 15.3063 15.5437 16.0625 16.0374 16.0625C16.5687 16.0625 16.7624 15.3875 16.3062 15.1563C16.1062 15.05 16.0312 15.0438 15.8312 15.125Z" fill="#7715A7"/>
<path d="M15.0883 16.5875C14.6008 16.8 14.782 17.5 15.3258 17.5C15.7445 17.5 15.9508 17.0375 15.6758 16.725C15.4883 16.525 15.3258 16.4875 15.0883 16.5875Z" fill="#7715A7"/>
<path d="M16.6188 16.5686C16.45 16.6311 16.3125 16.8561 16.3125 17.0561C16.3125 17.1186 16.3688 17.2436 16.4438 17.3373C16.7125 17.6811 17.3125 17.4686 17.3125 17.0248C17.3125 16.8436 17.1188 16.5623 17 16.5623C16.975 16.5623 16.9125 16.5498 16.8625 16.5373C16.8188 16.5186 16.7063 16.5373 16.6188 16.5686Z" fill="#7715A7"/>
<path d="M18.4133 19.7434C18.3508 19.8122 18.3008 19.9622 18.3008 20.0872C18.3008 20.2747 18.4695 20.5372 19.3758 21.7809C20.5133 23.3372 20.6195 23.4434 20.9508 23.3059C21.1633 23.2184 21.2508 23.0747 21.2508 22.8247C21.2508 22.6372 21.0945 22.3934 19.707 20.4997L19.0883 19.6559L18.807 19.6372C18.5883 19.6247 18.5008 19.6497 18.4133 19.7434Z" fill="#7715A7"/>
<path d="M13.0822 19.8245C12.8135 20.1183 11.001 22.662 10.9635 22.7933C10.8947 23.0433 10.9885 23.2495 11.2197 23.3558C11.4135 23.4495 11.4572 23.4495 11.626 23.3683C11.8947 23.2433 13.9385 20.4183 13.9385 20.1745C13.9385 19.7558 13.3572 19.5245 13.0822 19.8245Z" fill="#7715A7"/>
</svg>
