<svg width="32" height="32" viewBox="0 0 32 32" fill="none" xmlns="http://www.w3.org/2000/svg">
<path d="M13.0063 0.130381C12.8562 0.21163 12.4625 0.549129 12.1375 0.880381C11.8063 1.21788 11.4625 1.52413 11.3625 1.56788C11.1687 1.64913 10.85 1.62413 10 1.46788C9.16875 1.31163 8.6375 1.43038 8.225 1.86163C8.13125 1.96788 7.8625 2.41163 7.63125 2.84913C7.40625 3.28663 7.15 3.69913 7.0625 3.76163C6.95625 3.83663 6.65 3.91163 6.15625 3.97413C5.25 4.09913 4.84375 4.24288 4.54375 4.54288C4.24375 4.84288 4.1 5.24913 3.975 6.15538C3.9125 6.64913 3.8375 6.95538 3.7625 7.06163C3.7 7.14913 3.2875 7.40538 2.85 7.63038C2.4125 7.86163 1.96875 8.13038 1.8625 8.22413C1.43125 8.63663 1.3125 9.16788 1.46875 9.99913C1.625 10.8491 1.65 11.1679 1.56875 11.3616C1.525 11.4616 1.21875 11.8116 0.88125 12.1366C0.1125 12.8866 -0.025 13.1366 0.0125 13.7679C0.03125 14.1554 0.06875 14.2929 0.3125 14.7491C0.9125 15.9054 0.9 15.8741 0.81875 16.1741C0.78125 16.3179 0.63125 16.6429 0.49375 16.8929C0.1125 17.5616 0 17.8929 0 18.3241C0 18.8804 0.1625 19.1616 0.88125 19.8616C1.21875 20.1866 1.525 20.5366 1.56875 20.6366C1.65 20.8304 1.625 21.1491 1.46875 21.9991C1.3125 22.8304 1.43125 23.3616 1.8625 23.7741C1.96875 23.8679 2.4125 24.1366 2.85 24.3679C3.2875 24.5929 3.7 24.8491 3.7625 24.9366C3.8375 25.0429 3.9125 25.3491 3.975 25.8429C4.09375 26.7241 4.2375 27.1491 4.5125 27.4304C4.85625 27.7804 5.125 27.8741 6.21875 28.0304C6.65625 28.0866 6.9625 28.1679 7.0625 28.2366C7.15 28.2991 7.40625 28.7116 7.63125 29.1491C7.8625 29.5866 8.13125 30.0304 8.225 30.1366C8.6375 30.5679 9.16875 30.6866 10 30.5304C10.85 30.3741 11.1687 30.3491 11.3625 30.4304C11.4625 30.4741 11.8125 30.7804 12.1375 31.1179C12.8875 31.8866 13.1375 32.0241 13.7688 31.9866C14.1438 31.9679 14.3 31.9241 14.6875 31.7241C14.9438 31.5929 15.3125 31.3991 15.5 31.3054C15.9313 31.0804 16.0688 31.0804 16.5 31.3054C16.6875 31.3991 17.0562 31.5929 17.3125 31.7241C17.7 31.9241 17.8563 31.9679 18.2313 31.9866C18.8625 32.0241 19.1125 31.8866 19.8625 31.1179C20.1875 30.7804 20.5375 30.4741 20.6375 30.4304C20.8313 30.3491 21.15 30.3741 22 30.5304C22.8563 30.6929 23.3938 30.5616 23.8062 30.0929C23.9125 29.9679 24.1688 29.5366 24.375 29.1241C24.575 28.7179 24.8188 28.3304 24.9062 28.2616C25 28.1866 25.2437 28.1054 25.5188 28.0679C26.925 27.8554 27.1438 27.7866 27.4813 27.4366C27.7625 27.1491 27.9062 26.7304 28.025 25.8429C28.0875 25.3491 28.1625 25.0429 28.2375 24.9366C28.3 24.8491 28.7125 24.5929 29.15 24.3679C29.5875 24.1366 30.0312 23.8679 30.1375 23.7741C30.5688 23.3616 30.6875 22.8304 30.5312 21.9991C30.375 21.1491 30.35 20.8304 30.4312 20.6366C30.475 20.5366 30.7812 20.1866 31.1187 19.8616C31.8875 19.1116 32.025 18.8616 31.9875 18.2304C31.9688 17.8554 31.925 17.6991 31.725 17.3116C31.5938 17.0554 31.4 16.6866 31.3062 16.4991C31.2063 16.3116 31.125 16.0866 31.125 15.9991C31.125 15.9116 31.2063 15.6866 31.3062 15.4991C31.4 15.3116 31.5938 14.9429 31.725 14.6866C31.925 14.2991 31.9688 14.1429 31.9875 13.7679C32.025 13.1366 31.8875 12.8866 31.1187 12.1366C30.7812 11.8116 30.475 11.4616 30.4312 11.3616C30.35 11.1679 30.375 10.8491 30.5312 9.99913C30.6875 9.16788 30.5688 8.63663 30.1375 8.22413C30.0312 8.13038 29.5875 7.86163 29.15 7.63038C28.7125 7.40538 28.3 7.14913 28.2375 7.06163C28.1625 6.95538 28.0875 6.64913 28.025 6.15538C27.9 5.24913 27.7563 4.84288 27.4563 4.54288C27.1562 4.24288 26.75 4.09913 25.8438 3.97413C25.35 3.91163 25.0438 3.83663 24.9375 3.76163C24.85 3.69913 24.5938 3.28663 24.3687 2.84913C24.1375 2.41163 23.8687 1.96788 23.775 1.86163C23.3625 1.43038 22.8313 1.31163 22 1.46788C21.15 1.62413 20.8313 1.64913 20.6375 1.56788C20.5375 1.52413 20.1875 1.21788 19.8625 0.880381C19.1125 0.111629 18.8625 -0.0258713 18.2313 0.0116291C17.8563 0.0303802 17.7 0.0741291 17.3125 0.27413C17.0562 0.40538 16.6875 0.599131 16.5 0.692881C16.3125 0.792879 16.0875 0.87413 16 0.87413C15.9125 0.87413 15.6875 0.792879 15.5 0.692881C15.3125 0.599131 14.9438 0.40538 14.6875 0.27413C14.2875 0.0678806 14.15 0.0303802 13.75 0.0116291C13.3625 -0.000869751 13.2312 0.0178795 13.0063 0.130381ZM14.6938 1.41788C15.4938 1.83663 15.5125 1.84288 16 1.84288C16.4875 1.84288 16.5063 1.83663 17.3062 1.41788C17.8062 1.16163 18.1938 0.99913 18.3188 0.99913C18.4813 0.99913 18.6187 1.10538 19.2125 1.68038C19.5938 2.04913 20.0063 2.40538 20.125 2.46788C20.4688 2.64913 21.075 2.66163 21.9 2.50538C22.9438 2.30538 22.9875 2.33038 23.475 3.35538C24.0312 4.54288 24.3687 4.79288 25.625 4.96788C26.4625 5.08038 26.5562 5.10538 26.7125 5.24288C26.875 5.38663 26.9188 5.51788 27.0312 6.34913C27.2063 7.63038 27.4375 7.94288 28.6313 8.51788C29.675 9.01788 29.6938 9.05538 29.4937 10.0991C29.3375 10.9241 29.35 11.5304 29.5312 11.8741C29.5938 11.9929 29.95 12.4054 30.3188 12.7866C30.8938 13.3741 31 13.5179 31 13.6804C31 13.7991 30.8375 14.1929 30.5813 14.6866C30.1625 15.4929 30.1562 15.5054 30.1562 15.9991C30.1562 16.4866 30.1625 16.4991 30.5813 17.3054C30.8375 17.8054 31 18.1929 31 18.3179C31 18.4804 30.8938 18.6179 30.3188 19.2116C29.95 19.5929 29.5938 20.0054 29.5312 20.1241C29.3563 20.4679 29.3438 21.1116 29.4937 21.9054C29.5688 22.2804 29.6125 22.6679 29.5875 22.7616C29.5375 22.9929 29.2812 23.1804 28.55 23.5179C27.85 23.8429 27.4438 24.1866 27.2625 24.6116C27.1938 24.7741 27.0875 25.2304 27.0312 25.6241C26.9188 26.4616 26.8938 26.5554 26.7563 26.7116C26.6125 26.8741 26.4813 26.9179 25.65 27.0304C25.2437 27.0866 24.775 27.1929 24.6125 27.2616C24.175 27.4491 23.85 27.8429 23.475 28.6429C22.9875 29.6679 22.9438 29.6929 21.9 29.4929C21.075 29.3366 20.4688 29.3491 20.125 29.5304C20.0063 29.5929 19.5938 29.9491 19.2125 30.3179C18.6187 30.8929 18.4813 30.9991 18.3188 30.9991C18.1938 30.9991 17.8062 30.8366 17.3062 30.5804C16.5063 30.1616 16.4875 30.1554 16 30.1554C15.5125 30.1554 15.4938 30.1616 14.6938 30.5804C14.1938 30.8366 13.8063 30.9991 13.6813 30.9991C13.5188 30.9991 13.3813 30.8929 12.7875 30.3179C12.4062 29.9491 11.9938 29.5929 11.875 29.5304C11.5312 29.3554 10.8875 29.3429 10.0938 29.4929C9.71875 29.5679 9.33125 29.6116 9.2375 29.5866C9.00625 29.5366 8.81875 29.2804 8.48125 28.5491C8.15625 27.8491 7.8125 27.4429 7.3875 27.2616C7.225 27.1929 6.75625 27.0866 6.35 27.0304C5.51875 26.9179 5.3875 26.8741 5.24375 26.7116C5.10625 26.5554 5.08125 26.4616 4.96875 25.6241C4.79375 24.3679 4.54375 24.0304 3.35625 23.4741C2.33125 22.9866 2.30625 22.9429 2.50625 21.8991C2.6625 21.0741 2.65 20.4679 2.46875 20.1241C2.40625 20.0054 2.05 19.5929 1.68125 19.2116C1.10625 18.6241 1 18.4804 1 18.3179C1 18.1991 1.1625 17.8054 1.425 17.3116C1.8375 16.5054 1.84375 16.4929 1.84375 15.9991C1.84375 15.5116 1.8375 15.4991 1.41875 14.6929C1.1625 14.1929 1 13.8054 1 13.6804C1 13.5179 1.10625 13.3804 1.68125 12.7866C2.05 12.4054 2.40625 11.9929 2.46875 11.8741C2.65 11.5304 2.6625 10.9241 2.50625 10.0991C2.30625 9.05538 2.33125 9.01163 3.35625 8.52413C4.15625 8.14913 4.55 7.82413 4.7375 7.38663C4.80625 7.22413 4.9125 6.75538 4.96875 6.34913C5.08125 5.51788 5.125 5.38663 5.2875 5.24288C5.44375 5.10538 5.5375 5.08038 6.375 4.96788C7.63125 4.79288 7.96875 4.54288 8.525 3.35538C9.0125 2.33038 9.05625 2.30538 10.1 2.50538C10.925 2.66163 11.5312 2.64913 11.875 2.46788C11.9938 2.40538 12.4062 2.04913 12.7875 1.68038C13.3813 1.10538 13.5188 0.99913 13.6813 0.99913C13.8063 0.99913 14.1938 1.16163 14.6938 1.41788Z" fill="#7715A7"/>
<path d="M14.2494 3.09212C12.3181 3.35462 10.3181 4.11087 8.7494 5.17337C7.9744 5.69837 7.65565 5.96087 6.91815 6.67962C4.7744 8.76712 3.48065 11.3546 3.0869 14.3421C2.9619 15.2796 2.99315 17.3046 3.1494 18.1546C3.54315 20.3171 4.3619 22.2171 5.61815 23.8671C6.20565 24.6359 6.43065 24.7609 6.7744 24.4921C6.8994 24.3921 6.9369 24.3109 6.9369 24.1296C6.9369 23.9296 6.8744 23.8109 6.5619 23.4234C4.28065 20.5609 3.45565 16.6921 4.3494 13.0609C4.68065 11.7046 5.36815 10.2296 6.2494 8.97962C6.78065 8.22337 8.23065 6.77337 8.9994 6.23587C10.4244 5.22962 11.9306 4.57337 13.6431 4.21087C14.5931 4.01087 16.3869 3.93587 17.3494 4.05462C19.6119 4.33587 21.7244 5.21087 23.4244 6.56087C23.8119 6.87337 23.9306 6.93587 24.1306 6.93587C24.3119 6.93587 24.3931 6.89837 24.4931 6.77337C24.7619 6.42962 24.6369 6.20462 23.8681 5.61712C22.0994 4.27337 19.9306 3.38587 17.7119 3.09212C16.8431 2.97962 15.0806 2.97962 14.2494 3.09212Z" fill="#7715A7"/>
<path d="M25.2247 7.50483C25.0997 7.60483 25.0622 7.68608 25.0622 7.86733C25.0622 8.06108 25.1309 8.19233 25.4684 8.61733C26.6747 10.1548 27.4809 11.9673 27.8559 13.9986C28.0122 14.8423 28.0122 17.1548 27.8559 17.9986C27.4059 20.4361 26.3497 22.5298 24.6934 24.2611C22.7372 26.3111 20.3747 27.5173 17.5872 27.9048C16.6747 28.0361 14.8247 28.0048 13.9684 27.8486C11.9684 27.4861 10.0247 26.6111 8.50593 25.3798C8.18718 25.1236 8.06218 25.0611 7.86843 25.0611C7.68718 25.0611 7.60593 25.0986 7.50593 25.2236C7.23718 25.5673 7.36218 25.7923 8.13093 26.3798C9.77468 27.6298 11.6747 28.4486 13.8434 28.8486C14.6934 28.9986 16.7184 29.0361 17.6559 28.9111C21.4184 28.4111 24.7122 26.3798 26.8247 23.2486C27.8997 21.6548 28.6497 19.6548 28.9059 17.7173C29.0247 16.7923 29.0247 15.2111 28.9059 14.2861C28.6122 12.0673 27.7247 9.89858 26.3809 8.12983C25.7934 7.36108 25.5684 7.23608 25.2247 7.50483Z" fill="#7715A7"/>
<path d="M18.2 12.5187C18.125 12.6 18.0625 12.7312 18.0625 12.8125C18.0625 12.9437 19.2125 18.8187 19.2875 19.0812C19.3313 19.225 19.675 19.4375 19.8625 19.4375C20.1313 19.4375 20.3563 19.2625 20.4625 18.9875C20.5187 18.8375 20.8563 17.7812 21.2125 16.6437L21.85 14.5625L22.5 16.675C22.85 17.8312 23.1813 18.8875 23.2313 19.0125C23.325 19.2437 23.6063 19.4375 23.8563 19.4375C24.0188 19.4375 24.3563 19.2188 24.4 19.0812C24.4938 18.7937 25.625 13.0125 25.625 12.8438C25.625 12.45 25.125 12.2312 24.8187 12.4812C24.7063 12.575 24.6188 12.9375 24.2375 14.8438C23.9938 16.0812 23.775 17.1125 23.7562 17.1375C23.7313 17.1625 23.3938 16.1437 23 14.8688C22.4688 13.125 22.2625 12.5312 22.1625 12.4625C21.9875 12.3438 21.65 12.35 21.5125 12.4875C21.45 12.55 21.0938 13.6 20.6875 14.9187C20.275 16.2375 19.95 17.1937 19.9312 17.1375C19.9125 17.075 19.7 16.05 19.4688 14.8562C19.1625 13.2875 19.0063 12.6375 18.925 12.525C18.7625 12.3187 18.3875 12.3187 18.2 12.5187Z" fill="#7715A7"/>
<path d="M7.13125 12.5057C6.8125 12.6307 6.81875 12.5557 6.8125 15.9745C6.8125 19.112 6.8125 19.1745 6.94375 19.337C7.1125 19.5557 7.48125 19.562 7.675 19.3557C7.80625 19.212 7.8125 19.1745 7.825 16.9182L7.84375 14.6245L9.4625 16.9682C10.35 18.262 11.1312 19.3432 11.1937 19.3745C11.525 19.5557 11.95 19.3807 12.0375 19.0182C12.0625 18.9245 12.0625 17.487 12.0438 15.8245C12 12.537 12 12.562 11.65 12.4745C11.425 12.4182 11.1562 12.5307 11.0687 12.7307C11.0125 12.8495 11.0062 13.487 11.0375 15.1807C11.0625 16.7182 11.0563 17.4495 11.0125 17.4057C10.9813 17.3682 10.2563 16.3307 9.4 15.0932C8.55 13.8557 7.80625 12.7807 7.75625 12.7057C7.68125 12.5995 7.3375 12.4057 7.2875 12.4432C7.28125 12.4432 7.2125 12.4745 7.13125 12.5057Z" fill="#7715A7"/>
<path d="M13.6625 12.6312L13.5 12.7562V16.0062C13.5 19.1687 13.5063 19.2562 13.625 19.375C13.7438 19.4937 13.8313 19.5 15.25 19.5C16.6688 19.5 16.7563 19.4937 16.875 19.375C16.95 19.3 17 19.1687 17 19.0312C17 18.8938 16.95 18.7625 16.875 18.6875C16.7563 18.5687 16.6688 18.5625 15.625 18.5625H14.5V17.5312V16.5H15.5312C16.4813 16.5 16.575 16.4875 16.6875 16.375C16.85 16.2125 16.85 15.875 16.6938 15.6812C16.575 15.5375 16.5375 15.5312 15.5375 15.5125L14.5 15.4938V14.4938V13.5H15.6125C16.7 13.5 16.7313 13.4938 16.8625 13.3562C17.0625 13.1437 17.05 12.8 16.8375 12.6312C16.6813 12.5062 16.5938 12.5 15.25 12.5C13.9062 12.5 13.8187 12.5062 13.6625 12.6312Z" fill="#7715A7"/>
</svg>
