<svg width="28" height="32" viewBox="0 0 28 32" fill="none" xmlns="http://www.w3.org/2000/svg">
<path d="M13.6323 0.11836C13.4511 0.29961 13.4323 0.51836 13.4511 2.07461C13.4698 3.47461 13.4698 3.49336 13.6198 3.64961C13.8323 3.87461 14.1698 3.87461 14.3823 3.64961C14.5323 3.49336 14.5323 3.47461 14.5511 2.07461C14.5636 1.29336 14.5511 0.562109 14.5323 0.44961C14.4761 0.14961 14.3011 -0.000390291 14.0011 -0.000390291C13.8386 -0.000390291 13.7073 0.0433595 13.6323 0.11836Z" fill="#7715A7"/>
<path d="M6.20109 1.9429C5.99484 2.0179 5.85734 2.2804 5.89484 2.5179C5.92609 2.7179 7.17609 5.06165 7.35734 5.26165C7.50109 5.4179 7.77609 5.46165 7.98859 5.34915C8.41984 5.12415 8.36359 4.8804 7.56359 3.4054C7.18859 2.71165 6.82609 2.09915 6.76984 2.04915C6.62609 1.9304 6.36984 1.8804 6.20109 1.9429Z" fill="#7715A7"/>
<path d="M21.5007 1.92415C21.4132 1.93665 21.2944 1.9929 21.2319 2.04915C21.1757 2.09915 20.8132 2.71165 20.4382 3.4054C19.6382 4.8804 19.5819 5.12415 20.0132 5.34915C20.2257 5.46165 20.5007 5.4179 20.6444 5.26165C20.8444 5.03665 22.0757 2.7054 22.1069 2.49915C22.1569 2.1304 21.8819 1.8679 21.5007 1.92415Z" fill="#7715A7"/>
<path d="M13.0938 4.85C11.5125 5.09375 10.3312 5.5125 9.20625 6.23125C8.35625 6.76875 7.375 7.6875 7.375 7.9375C7.375 8.11875 7.5375 8.4125 7.65625 8.4625C7.975 8.58125 8.15625 8.50625 8.6875 8.025C9.23125 7.5375 9.99375 7 10.5438 6.725C12.4375 5.78125 14.7125 5.65 16.7 6.38125C20.175 7.65625 22.3313 11.2688 21.7812 14.9C21.625 15.95 21.2625 16.95 20.7438 17.7875C19.6438 19.5687 19.5625 19.7188 19.5625 19.9437C19.5625 20.2812 19.7375 20.4688 20.0563 20.4688C20.2312 20.4688 20.35 20.425 20.4313 20.3438C20.5437 20.225 21.3 19.0187 21.8438 18.0812C22.9 16.2625 23.2188 13.7812 22.6813 11.5938C21.8438 8.2375 19.1875 5.69375 15.7937 4.99375C15.175 4.86875 13.5438 4.78125 13.0938 4.85Z" fill="#7715A7"/>
<path d="M0.319616 7.35625C0.244616 7.41875 0.169616 7.575 0.144616 7.70625C0.113366 7.91875 0.132116 7.9625 0.350866 8.16875C0.757116 8.54375 2.80712 9.8125 3.00712 9.8125C3.10087 9.8125 3.25712 9.74375 3.35087 9.6625C3.48837 9.55 3.52587 9.4625 3.51962 9.275C3.51337 8.9625 3.41962 8.88125 1.97587 7.9625C0.794616 7.20625 0.594616 7.1375 0.319616 7.35625Z" fill="#7715A7"/>
<path d="M26.0268 7.9625C24.5831 8.88125 24.4893 8.9625 24.4831 9.275C24.4768 9.4625 24.5143 9.55 24.6518 9.6625C24.7456 9.74375 24.9018 9.8125 24.9956 9.8125C25.1956 9.8125 27.2456 8.54375 27.6518 8.16875C27.8706 7.9625 27.8893 7.91875 27.8581 7.70625C27.8331 7.575 27.7581 7.41875 27.6831 7.35625C27.4081 7.1375 27.2081 7.20625 26.0268 7.9625Z" fill="#7715A7"/>
<path d="M6.35178 9.21172C6.02678 9.53047 5.44553 10.9805 5.22053 11.9992C5.08303 12.643 5.02678 14.2055 5.12053 14.893C5.27678 16.0367 5.65803 17.2242 6.15803 18.0805C6.30178 18.3305 6.69553 18.9805 7.03303 19.5305C8.20803 21.443 8.81428 22.618 9.05803 23.4492C9.25803 24.1117 9.25803 24.093 9.02053 24.3242C8.39553 24.918 8.30178 25.9555 8.81428 26.6055C8.92678 26.7492 8.93303 26.7805 8.85178 26.868C8.47053 27.2867 8.38303 28.1555 8.65803 28.7242C8.96428 29.3492 9.44553 29.6305 10.308 29.6805L10.8893 29.718L10.9893 29.968C11.3455 30.8805 12.2143 31.6617 13.1518 31.9117C13.5643 32.0242 14.4393 32.0242 14.8518 31.9117C15.7893 31.6617 16.658 30.8805 17.0143 29.968L17.1143 29.718L17.6955 29.6805C18.558 29.6305 19.0393 29.3492 19.3455 28.7242C19.6205 28.1555 19.533 27.2867 19.1518 26.868C19.0705 26.7805 19.0768 26.7492 19.1893 26.6055C19.4143 26.3242 19.508 25.9992 19.508 25.5555C19.508 25.0617 19.3393 24.6617 18.983 24.3242C18.783 24.1305 18.7705 24.093 18.8205 23.8867C18.8955 23.543 19.1455 22.8492 19.408 22.2617C19.658 21.6992 19.658 21.5305 19.4268 21.3117C19.2643 21.1617 18.958 21.1492 18.758 21.293C18.5143 21.4617 17.7518 23.268 17.7518 23.6805V23.8117H14.008H10.2705L10.2268 23.5555C10.0893 22.6742 8.97053 20.4742 7.52053 18.218C6.78303 17.068 6.39553 16.0742 6.21428 14.8617C5.98928 13.3242 6.23928 11.7867 6.97053 10.2867C7.12678 9.96797 7.25178 9.64922 7.25178 9.56797C7.25178 9.49297 7.17053 9.34297 7.07053 9.24297C6.83928 9.01172 6.55803 8.99922 6.35178 9.21172ZM18.2268 25.1492C18.4518 25.3742 18.4893 25.568 18.3643 25.8367C18.2205 26.1617 18.0455 26.218 17.0518 26.2367C16.1955 26.2617 16.1268 26.268 16.0018 26.4055C15.758 26.6617 15.8518 27.1305 16.1643 27.2492C16.2518 27.2867 16.7018 27.3117 17.1705 27.3117H18.0143L18.2268 27.5242C18.4768 27.7742 18.5018 27.993 18.3143 28.293C18.233 28.4242 18.1205 28.5117 17.958 28.5555C17.633 28.6492 10.3705 28.6492 10.0455 28.5555C9.88303 28.5117 9.77053 28.4242 9.68928 28.293C9.51428 28.0117 9.53303 27.7867 9.74553 27.5492L9.92678 27.343L12.283 27.3117L14.6393 27.2805L14.758 27.1305C14.9268 26.9242 14.9143 26.5555 14.733 26.3867C14.5955 26.2555 14.5393 26.2555 12.3143 26.2367C10.258 26.218 10.0143 26.2055 9.87053 26.1055C9.50803 25.8617 9.47053 25.4555 9.77678 25.1492L9.98928 24.9367H14.0018H18.0143L18.2268 25.1492ZM15.8455 29.8805C15.683 30.1867 15.2643 30.5617 14.883 30.743C14.5893 30.8805 14.4455 30.9055 14.0018 30.9055C13.558 30.9055 13.4143 30.8805 13.1205 30.743C12.7393 30.5617 12.3205 30.1867 12.158 29.8805L12.058 29.6867H14.0018H15.9455L15.8455 29.8805Z" fill="#7715A7"/>
</svg>
