<svg width="32" height="32" viewBox="0 0 32 32" fill="none" xmlns="http://www.w3.org/2000/svg">
<path d="M18.6262 0.1375C18.5137 0.25625 18.5012 0.35625 18.5012 1.04375V1.8125H17.72C17.0012 1.8125 16.9325 1.825 16.8137 1.95C16.6575 2.125 16.6512 2.4375 16.8075 2.63125C16.92 2.775 16.9762 2.78125 17.7137 2.8L18.5012 2.825V3.5625C18.5012 4.45 18.57 4.59375 19.0012 4.59375C19.4325 4.59375 19.5012 4.45 19.5012 3.55625V2.8125H20.1887C21.1075 2.8125 21.3137 2.7125 21.3137 2.25625C21.3137 2.15625 21.2512 2.025 21.17 1.95C21.0387 1.825 20.9575 1.8125 20.2637 1.8125H19.5012V1.06875C19.5012 0.4125 19.4887 0.3125 19.37 0.1625C19.2012 -0.0500002 18.82 -0.0687499 18.6262 0.1375Z" fill="#7715A7"/>
<path d="M29.3373 0.131474C29.2373 0.243973 29.2123 0.381474 29.1998 1.03772L29.1748 1.81272H28.406C27.6435 1.81272 27.631 1.81272 27.506 1.97522C27.356 2.16272 27.3435 2.30022 27.4435 2.51897C27.5498 2.75647 27.756 2.81272 28.4998 2.81272H29.1873V3.50022C29.1873 4.24397 29.2435 4.45022 29.481 4.55647C29.6998 4.65647 29.8373 4.64397 30.0248 4.49397C30.1873 4.36897 30.1873 4.35647 30.1873 3.59397V2.82522L30.9623 2.80022C31.8685 2.77522 31.9998 2.71272 31.9998 2.30022C31.9998 1.86897 31.8748 1.81272 30.9685 1.81272H30.1873V1.03147C30.1873 0.331473 30.1748 0.237723 30.0623 0.125224C29.8873 -0.0497766 29.4998 -0.0435266 29.3373 0.131474Z" fill="#7715A7"/>
<path d="M23.0628 5.03824C22.7378 5.17574 0.287761 27.632 0.125261 27.982C-0.0747387 28.4007 -0.0497387 29.0132 0.181511 29.407C0.412761 29.807 2.31901 31.6945 2.66901 31.8695C3.02526 32.0445 3.65026 32.0507 4.01901 31.8757C4.20651 31.7882 6.31276 29.7195 11.644 24.3882L19.0003 17.032V16.7757C19.0003 16.482 18.8753 16.3382 18.569 16.2757C18.3628 16.232 18.294 16.3007 10.9753 23.6195C3.68151 30.9132 3.58776 31.0007 3.34401 31.0007C3.11276 31.0007 3.05026 30.9507 2.05026 29.9507C1.05026 28.9445 1.00026 28.8882 1.00026 28.6507C1.00026 28.4132 1.09401 28.3132 9.71901 19.6882L18.4378 10.9695L19.7315 12.2632L21.0253 13.557L20.3253 14.2695C19.8815 14.7257 19.6253 15.032 19.6253 15.1132C19.6253 15.4695 19.9378 15.7382 20.2628 15.657C20.494 15.6007 26.844 9.21949 26.969 8.92574C27.1128 8.57574 27.094 7.92574 26.9315 7.60699C26.7503 7.25699 24.8628 5.35074 24.469 5.11949C24.2065 4.96949 24.0878 4.93824 23.719 4.93824C23.4753 4.94449 23.1878 4.98199 23.0628 5.03824ZM25.0128 6.98824C26.0128 7.98824 26.0628 8.05074 26.0628 8.28199C26.0628 8.51949 26.0065 8.58824 23.9253 10.6695L21.7815 12.8132L20.4815 11.5132L19.1878 10.2195L21.3315 8.07574C23.4128 6.00074 23.4815 5.93824 23.719 5.93824C23.9503 5.93824 24.0128 5.98824 25.0128 6.98824Z" fill="#7715A7"/>
<path d="M29.2636 11.5202C29.1386 11.6515 29.1261 11.7327 29.1261 12.4265V13.189H28.3574C27.6324 13.189 27.5761 13.1952 27.4511 13.3327C27.2511 13.5452 27.2636 13.889 27.4761 14.0577C27.6261 14.1765 27.7261 14.189 28.3824 14.189H29.1261V14.964C29.1261 15.7327 29.1261 15.7452 29.2886 15.8702C29.4949 16.0327 29.7574 16.039 29.9449 15.8827C30.0886 15.7702 30.0949 15.714 30.1136 14.9765L30.1386 14.189H30.8824C31.5949 14.189 31.6386 14.1827 31.7824 14.0327C31.8824 13.939 31.9386 13.8077 31.9386 13.689C31.9386 13.5702 31.8824 13.439 31.7824 13.3452C31.6386 13.1952 31.5949 13.189 30.8761 13.189H30.1261V12.439C30.1261 11.7202 30.1199 11.6765 29.9699 11.5327C29.7699 11.3265 29.4511 11.3202 29.2636 11.5202Z" fill="#7715A7"/>
</svg>
