<svg width="32" height="32" viewBox="0 0 32 32" fill="none" xmlns="http://www.w3.org/2000/svg">
<path d="M13.9996 0.094141C11.5809 0.39414 9.13711 1.29414 7.16211 2.61914C6.29961 3.19414 5.98711 3.44414 5.24961 4.11289C3.73086 5.50664 2.61211 6.96289 1.71836 8.71914C0.524609 11.0629 0.00585938 13.2754 0.00585938 16.0004C0.00585938 18.7254 0.524609 20.9379 1.71836 23.2816C2.61211 25.0379 3.73086 26.4941 5.24961 27.8879C6.34336 28.8816 7.38711 29.6066 8.71836 30.2816C11.0621 31.4754 13.2746 31.9941 15.9996 31.9941C18.7246 31.9941 20.9371 31.4754 23.2809 30.2816C25.0371 29.3879 26.4934 28.2691 27.8871 26.7504C28.8809 25.6566 29.6059 24.6129 30.2809 23.2816C31.4746 20.9379 31.9934 18.7254 31.9934 16.0004C31.9934 13.2754 31.4746 11.0629 30.2809 8.71914C29.6059 7.38789 28.8809 6.34414 27.8871 5.25039C26.4934 3.73164 25.0371 2.61289 23.2809 1.71914C21.5496 0.837891 19.8559 0.319139 17.9371 0.0878906C17.0434 -0.0183601 14.8871 -0.0121117 13.9996 0.094141ZM18.1871 1.14414L18.6559 1.21914L17.8121 1.52539C13.4871 3.10039 9.37461 5.58164 6.07461 8.60664C5.68711 8.96289 5.34961 9.24414 5.32461 9.23164C5.29961 9.21914 4.82461 8.95039 4.26836 8.63164L3.24961 8.05039L3.62461 7.50664C6.13086 3.85039 10.1184 1.51289 14.6559 1.03789C15.1434 0.98789 17.7246 1.06289 18.1871 1.14414ZM21.1496 1.90664C21.8496 2.16289 22.8934 2.64414 23.4559 2.97539C23.9934 3.28789 24.9934 3.96289 24.9996 4.00664C24.9996 4.02539 24.6121 4.20664 24.1434 4.40664C22.9496 4.91289 20.1059 6.30039 18.9059 6.96914C16.4746 8.31289 14.0434 9.86914 11.9059 11.4379C11.2871 11.8941 10.7496 12.2754 10.7121 12.2941C10.6559 12.3129 6.48711 9.95039 6.35586 9.81914C6.30586 9.76914 7.34961 8.81289 8.24961 8.08789C10.9059 5.94414 13.9434 4.16289 17.1559 2.86289C17.6121 2.67539 19.6059 1.98789 20.5371 1.68789C20.5434 1.68789 20.8184 1.78789 21.1496 1.90664ZM26.6621 5.45039C27.4059 6.21914 27.9621 6.88789 28.4371 7.59414L28.7434 8.05039L26.7246 9.21289C25.6121 9.85664 24.6621 10.4254 24.6121 10.4879C24.4684 10.6566 24.4371 10.8754 24.5309 11.0629C24.7121 11.4129 25.0059 11.3941 25.6871 11.0004C25.9746 10.8316 26.2184 10.7004 26.2309 10.7066C26.2621 10.7441 26.6371 12.6691 26.7496 13.3754C27.2746 16.7441 27.2871 20.4379 26.7809 23.8129C26.6621 24.6066 26.2871 26.4941 26.1746 26.8504C26.1121 27.0441 25.9809 27.2004 25.6559 27.4816C24.7621 28.2441 23.5621 29.0191 22.4746 29.5379C22.1621 29.6816 21.9059 29.8004 21.8996 29.7941C21.8934 29.7879 21.9434 29.3316 22.0059 28.7816C22.2434 26.6629 22.3246 25.3129 22.3559 22.7129C22.3996 19.4441 22.2621 16.7441 21.9059 14.0441C21.8496 13.6379 21.8246 13.2816 21.8434 13.2504C21.8621 13.2191 22.1684 13.0316 22.5184 12.8316C23.4996 12.2816 23.6809 12.0254 23.3559 11.6566C23.0684 11.3191 23.0684 11.3129 19.4184 13.4316C17.5684 14.5004 16.0309 15.3754 15.9996 15.3754C15.9496 15.3754 12.0496 13.1441 11.7934 12.9691C11.6934 12.9004 11.7684 12.8254 12.4809 12.3004C15.4934 10.0754 18.4496 8.28164 21.9996 6.53789C23.2059 5.94414 25.7996 4.76914 25.9434 4.75664C25.9621 4.75039 26.2871 5.06914 26.6621 5.45039ZM10.3746 13.3441C13.1059 14.9191 15.3809 16.2379 15.4246 16.2754C15.4809 16.3316 15.4996 16.8941 15.4871 18.8254L15.4684 21.3004L14.4059 20.8379C11.5246 19.5816 8.19336 17.7754 5.43711 15.9629C3.61836 14.7691 1.31836 13.0879 1.31836 12.9379C1.31211 12.7629 1.67461 11.4566 1.90586 10.8379C2.03086 10.5004 2.27461 9.93164 2.43711 9.58164L2.74336 8.93789L4.07461 9.70664C4.80586 10.1316 7.64336 11.7691 10.3746 13.3441ZM29.6059 9.66914C31.1809 12.9879 31.4246 16.9691 30.2809 20.6254C29.7996 22.1441 28.8621 23.9066 27.8559 25.1879C27.5434 25.5816 27.4934 25.6254 27.5246 25.4691C28.4434 20.8691 28.3746 15.7066 27.3184 10.9379L27.1496 10.1566L28.1809 9.55039C28.7496 9.21914 29.2246 8.94414 29.2371 8.94414C29.2496 8.93789 29.4121 9.26289 29.6059 9.66914ZM20.9621 14.7004C21.5246 19.4754 21.5059 24.7754 20.8996 29.4691C20.8496 29.8816 20.7996 30.2191 20.7934 30.2254C20.7871 30.2316 20.5434 30.3066 20.2496 30.3941C19.2434 30.6941 18.2121 30.8816 17.0121 30.9754L16.4996 31.0191L16.5121 23.6504L16.5309 16.2879L18.6559 15.0566C19.8246 14.3754 20.7996 13.8191 20.8184 13.8191C20.8371 13.8129 20.9059 14.2129 20.9621 14.7004ZM2.08086 14.8879C5.76211 17.6191 10.2309 20.1691 14.6871 22.0754L15.4684 22.4129L15.4871 24.9566C15.4934 26.3691 15.4746 27.5004 15.4496 27.5004C15.3371 27.5004 13.3559 26.8066 12.6121 26.5066C10.0496 25.4879 7.76836 24.2441 5.46211 22.6191C4.91836 22.2379 4.71211 22.1254 4.54961 22.1254C4.17461 22.1254 3.96211 22.4691 4.09961 22.8441C4.12461 22.9004 4.46836 23.1754 4.86836 23.4566C7.77461 25.5129 10.9746 27.1254 14.2934 28.2066L15.4996 28.5941V29.8066V31.0191L14.8934 30.9754C10.2996 30.6441 6.07461 28.1629 3.48711 24.2816C3.00586 23.5566 2.25586 22.1316 2.00586 21.4566L1.88711 21.1254L2.25586 21.4129C2.58086 21.6691 2.64336 21.7004 2.83711 21.6629C3.09336 21.6129 3.24961 21.4254 3.24961 21.1566C3.24961 21.0004 3.15586 20.8816 2.64336 20.4066C2.30586 20.0941 1.87461 19.6879 1.67461 19.5004L1.31211 19.1566L1.18086 18.4066C1.11211 17.9941 1.03711 17.2066 1.01836 16.6566C0.980859 15.7004 1.03711 14.1879 1.10586 14.1879C1.12461 14.1879 1.56211 14.5004 2.08086 14.8879Z" fill="#7715A7"/>
</svg>
