<svg width="32" height="32" viewBox="0 0 32 32" fill="none" xmlns="http://www.w3.org/2000/svg">
<path d="M4.82593 0.194777C4.32593 0.445266 4.07593 1.05897 4.25093 1.60378C4.31343 1.79791 4.86968 2.39282 6.94468 4.47814C8.38843 5.92472 9.56343 7.14585 9.56343 7.19595C9.56343 7.23979 9.50093 7.35877 9.43218 7.46523L9.29468 7.65309L6.44468 4.79752C4.43218 2.78108 3.55093 1.94194 3.45718 1.94194C3.10093 1.94194 2.80718 2.29889 2.91343 2.60574C2.93843 2.66836 4.21968 3.99595 5.76343 5.54272L8.56968 8.36699L8.40718 8.51728L8.24468 8.66758L5.41968 5.83705C2.75093 3.16934 2.57593 3.00652 2.36968 3.00652C2.08218 3.00652 1.87593 3.21317 1.87593 3.51376C1.87593 3.71415 2.07593 3.92707 4.70718 6.56347L7.53218 9.40026L7.34468 9.55055C7.24468 9.63822 7.13218 9.70711 7.09468 9.70711C7.06343 9.70711 5.86968 8.54233 4.43843 7.11454C3.01343 5.68675 1.75718 4.47814 1.64468 4.42178C1.13843 4.16503 0.413432 4.38421 0.138432 4.87266C-0.0365679 5.18578 -0.0490679 5.70554 0.107182 5.9936C0.269682 6.28793 5.65718 12.6754 5.98843 12.9697C6.32593 13.2641 7.12593 13.6711 7.65718 13.8151C7.92593 13.8903 8.46968 13.9278 9.59468 13.9654C11.6509 14.028 11.7509 14.0656 12.8509 15.2116C13.4259 15.8065 13.5072 15.8691 13.7072 15.8691C14.0197 15.8691 14.1884 15.7001 14.1884 15.3995C14.1884 15.1866 14.1322 15.0926 13.7572 14.6731C12.9384 13.74 12.5072 13.4081 11.7697 13.1388C11.4509 13.0198 11.2072 13.001 9.84468 12.9572C7.90718 12.9008 7.46343 12.7944 6.70718 12.1995C6.45093 11.9928 1.00093 5.54898 1.00093 5.44879C1.00093 5.21082 1.40093 5.56777 3.68218 7.84096C5.07593 9.23744 6.31343 10.4398 6.42593 10.5149C6.67593 10.6903 7.20718 10.7529 7.53843 10.6464C7.72593 10.5901 8.08843 10.2644 9.05093 9.30632C9.75093 8.61748 10.3759 7.94116 10.4447 7.80965C10.5134 7.67814 10.5759 7.43392 10.5759 7.27736C10.5884 6.64487 10.6134 6.67619 7.83843 3.88323C6.41343 2.44918 5.25093 1.24683 5.25093 1.203C5.25093 1.16542 5.29468 1.12785 5.33843 1.12785C5.44468 1.12785 11.7509 6.41943 12.0134 6.72002C12.2322 6.97677 12.5384 7.54664 12.6634 7.93489C12.7384 8.15407 12.7759 8.65505 12.8134 9.80104C12.8634 11.5607 12.9197 11.8363 13.3572 12.5815C13.6259 13.0324 14.7197 14.122 15.0447 14.2535C15.2822 14.3537 15.5009 14.2911 15.6509 14.0781C15.8572 13.7901 15.7884 13.6711 15.0384 12.9259C13.9259 11.8237 13.8197 11.5294 13.8134 9.42531C13.8134 8.23548 13.7447 7.79713 13.4884 7.18343C13.2697 6.66366 12.9009 6.11885 12.5509 5.78695C11.8322 5.12315 6.10718 0.338809 5.86343 0.201039C5.53843 0.025697 5.17593 0.025697 4.82593 0.194777Z" fill="#7715A7"/>
<path d="M28.5375 0.501338C26.8812 0.707992 25.2937 1.37805 24.0312 2.40506C23.8625 2.54283 23.2062 3.10643 22.575 3.6575C21.1312 4.91621 20.7812 5.36709 20.4312 6.41914C20.2875 6.83871 20.2875 6.93891 20.2812 8.73617V10.6148L20.0812 11.0344C19.8437 11.5416 20.525 10.8215 12 19.6011C8.2375 23.4775 4.86875 26.953 4.5125 27.3225C3.65625 28.2117 3.53125 28.4685 3.53125 29.3702C3.53125 29.9777 3.54375 30.0591 3.73125 30.4473C4.21875 31.4869 5.2125 32.0692 6.35 31.9816C6.91875 31.9377 7.4875 31.681 7.85 31.299C7.99375 31.1487 11.2687 27.1033 15.1312 22.3002C21.4125 14.4912 22.1937 13.5456 22.525 13.3264C23.0625 12.9757 23.3812 12.9068 24.8125 12.8066C26.4625 12.6876 26.975 12.5499 27.8062 11.9988C28.4187 11.5917 28.75 11.1972 29.7937 9.65672C31.4875 7.15809 31.9125 6.04341 31.9812 3.97061C32.0375 2.28607 31.8812 1.59097 31.325 1.04615C30.8687 0.595272 30.5437 0.482551 29.6875 0.463765C29.2937 0.457503 28.775 0.470027 28.5375 0.501338ZM30.4875 1.6849C30.875 1.96044 31.0375 2.67433 30.9812 3.91425C30.9 5.76161 30.4875 6.80114 28.9187 9.09312C27.9625 10.4959 27.6437 10.8653 27.1437 11.1847C26.4937 11.6043 26.1625 11.6857 24.5562 11.7984C22.7937 11.9299 22.2312 12.1178 21.4687 12.8567C21.25 13.0696 17.9312 17.1463 14.0937 21.9182C8.7 28.6375 7.0625 30.6352 6.8375 30.7792C6.59375 30.9358 6.4875 30.9608 6.13125 30.9608C5.2625 30.9546 4.6125 30.3534 4.51875 29.4767C4.49375 29.2199 4.5125 29.0759 4.6125 28.8567C4.70625 28.6375 6.49375 26.7651 12.5687 20.5092C16.8812 16.0755 20.525 12.2869 20.6687 12.0927C21.2812 11.2786 21.4125 10.6211 21.3125 8.8301C21.25 7.71543 21.25 7.48372 21.3375 7.07668C21.4562 6.51934 21.7187 5.95574 22.0375 5.58627C22.2437 5.34204 23.7062 4.02071 24.5625 3.31308C25.9 2.1984 27.4125 1.59723 29.0937 1.50956C30.0062 1.46572 30.2187 1.49077 30.4875 1.6849Z" fill="#7715A7"/>
<path d="M20.2507 18.0172C20.0632 18.0861 19.8757 18.3116 19.8757 18.4681C19.8757 18.5558 19.9257 18.7061 19.9882 18.8C20.0445 18.8877 22.4632 21.1233 25.3507 23.7597C31.1945 29.0826 30.8632 28.7319 30.7945 29.4834C30.7445 30.0971 30.4507 30.5229 29.882 30.8172C29.5132 31.0051 28.9382 31.0176 28.5945 30.836C28.4257 30.7483 26.907 29.1202 23.6257 25.5131C20.757 22.357 18.8382 20.3029 18.7382 20.2654C18.382 20.1401 18.0007 20.4971 18.0945 20.8665C18.132 21.0106 27.3007 31.1617 27.6695 31.456C27.982 31.7127 28.1757 31.8129 28.5445 31.9069C29.2007 32.0759 29.8195 32.0008 30.4757 31.6689C31.9007 30.9425 32.2945 28.8446 31.2132 27.7112C30.9195 27.4106 20.7695 18.1487 20.6695 18.0924C20.532 18.0172 20.3445 17.9859 20.2507 18.0172Z" fill="#7715A7"/>
</svg>
