<svg width="26" height="32" viewBox="0 0 26 32" fill="none" xmlns="http://www.w3.org/2000/svg">
<path d="M12.5321 0.0748558C12.4633 0.112356 11.9133 0.518606 11.3133 0.968607L10.2196 1.78736L8.78831 1.60611C7.41331 1.43736 7.34456 1.43111 7.08206 1.53111C6.93206 1.58736 6.74456 1.72486 6.66331 1.83111C6.58206 1.94361 6.31331 2.52486 6.06331 3.12486C5.81331 3.72486 5.56956 4.29361 5.52581 4.38111C5.45706 4.51861 5.20081 4.64986 4.16331 5.09361C3.45706 5.38736 2.81331 5.68736 2.72581 5.75611C2.64456 5.82486 2.52581 5.99986 2.46956 6.14986C2.36956 6.41861 2.36956 6.48111 2.53831 7.86861L2.70706 9.30611L1.87581 10.4186C1.41331 11.0311 1.00081 11.6499 0.950812 11.7874C0.807062 12.2186 0.913312 12.4436 1.85706 13.7061L2.71331 14.8436L2.53206 16.2874C2.33831 17.8749 2.35081 18.0186 2.67581 18.3311C2.76956 18.4186 3.40706 18.7311 4.12581 19.0311C4.83206 19.3311 5.42581 19.5936 5.45081 19.6186C5.47581 19.6374 5.61956 19.9561 5.77581 20.3186L6.05081 20.9811L3.86956 24.7561C1.63206 28.6311 1.57581 28.7436 1.75081 29.0686C1.78831 29.1311 1.90081 29.2249 1.99456 29.2811C2.15706 29.3624 2.34456 29.3624 3.65081 29.2686C4.45706 29.2124 5.13206 29.1749 5.13831 29.1936C5.15081 29.2061 5.43206 29.7811 5.76956 30.4686C6.10081 31.1561 6.43831 31.7811 6.50706 31.8561C6.68831 32.0561 7.11956 32.0561 7.33206 31.8624C7.41956 31.7811 8.40706 30.1186 9.53831 28.1561C10.6633 26.1936 11.6946 24.4061 11.8321 24.1686L12.0758 23.7499L12.3571 23.9499C12.5946 24.1249 12.6883 24.1561 13.0008 24.1561C13.3133 24.1561 13.4071 24.1249 13.6446 23.9499L13.9258 23.7499L15.2571 26.0499C15.9821 27.3124 17.0196 29.0999 17.5508 30.0311C18.0821 30.9561 18.5883 31.7811 18.6696 31.8624C18.8883 32.0624 19.3071 32.0561 19.5071 31.8436C19.5883 31.7561 19.9258 31.1249 20.2508 30.4436L20.8446 29.1936H21.0946C21.2321 29.1874 21.9008 29.2311 22.5821 29.2811C23.6883 29.3686 23.8383 29.3686 24.0008 29.2811C24.1008 29.2311 24.2133 29.1311 24.2508 29.0686C24.4133 28.7561 24.3383 28.5811 23.1446 26.5061C22.4946 25.3874 21.9196 24.4186 21.8633 24.3624C21.7196 24.2124 21.3633 24.2186 21.1821 24.3686C20.8946 24.5999 20.9633 24.7749 22.0133 26.5936C22.5508 27.5186 22.9821 28.2874 22.9758 28.2999C22.9633 28.3061 22.4133 28.2749 21.7508 28.2249C21.0821 28.1749 20.4883 28.1561 20.4133 28.1874C20.1883 28.2686 20.0883 28.4311 19.5633 29.5249C19.2883 30.1061 19.0508 30.5686 19.0383 30.5561C19.0258 30.5436 18.0696 28.8874 16.9071 26.8749C15.7508 24.8624 14.7883 23.1999 14.7758 23.1749C14.7571 23.1499 14.9758 22.9561 15.2571 22.7436C15.7571 22.3624 15.7696 22.3624 16.0758 22.3936C16.2508 22.4186 16.4008 22.4436 16.4071 22.4499C16.4133 22.4624 17.0696 23.6061 17.8696 24.9999C18.6696 26.3936 19.3946 27.5936 19.4758 27.6686C19.6446 27.8249 19.9133 27.8499 20.0696 27.7311C20.2258 27.6124 20.3258 27.3749 20.2883 27.2249C20.2696 27.1499 19.7008 26.1311 19.0258 24.9624C18.3508 23.7999 17.7758 22.7936 17.7383 22.7311C17.6821 22.6186 17.7071 22.6124 18.2008 22.6561C18.7883 22.7061 18.9946 22.6499 19.2821 22.3686L19.4758 22.1874L19.7446 22.6561C20.0133 23.1311 20.1883 23.3124 20.3883 23.3124C20.5946 23.3124 20.8071 23.1686 20.8696 22.9811C20.9508 22.7561 20.8821 22.5874 20.3258 21.6311L19.9508 20.9811L20.2321 20.3186C20.3821 19.9561 20.5258 19.6374 20.5508 19.6124C20.5758 19.5936 21.1696 19.3311 21.8758 19.0374C22.6008 18.7249 23.2321 18.4249 23.3258 18.3311C23.6508 18.0186 23.6633 17.8749 23.4696 16.2874L23.2883 14.8436L24.1446 13.7061C25.0883 12.4436 25.1946 12.2186 25.0508 11.7874C25.0008 11.6499 24.5883 11.0311 24.1258 10.4186L23.2946 9.30611L23.4633 7.86861C23.6321 6.49361 23.6321 6.41236 23.5383 6.15611C23.4821 6.01236 23.3821 5.84361 23.3133 5.78111C23.2446 5.71861 22.5946 5.41236 21.8633 5.09986L20.5321 4.53111L19.9946 3.26236C19.7008 2.56236 19.3946 1.91236 19.3258 1.81236C19.2508 1.71861 19.0696 1.58736 18.9196 1.53111C18.6571 1.43111 18.5883 1.43111 17.2133 1.60611L15.7821 1.78736L14.6883 0.968607C14.0883 0.512356 13.5321 0.112356 13.4571 0.0748558C13.2821 -0.0188942 12.6946 -0.0188942 12.5321 0.0748558ZM14.1321 1.83111C14.6946 2.25611 15.2258 2.64361 15.3071 2.68111C15.3883 2.72486 15.6008 2.76236 15.7821 2.75611C16.0696 2.75611 17.8133 2.55611 18.3508 2.46861L18.5446 2.43736L19.1008 3.75611C19.4383 4.55611 19.7196 5.14986 19.8196 5.24986C19.9258 5.34986 20.4946 5.62486 21.3071 5.96861C22.0321 6.26861 22.6258 6.52486 22.6258 6.52486C22.6258 6.53111 22.5571 7.08111 22.4696 7.74986C22.3821 8.41861 22.3133 9.12486 22.3133 9.31861C22.3133 9.72486 22.2883 9.68736 23.3383 11.0624C23.7383 11.5874 24.0633 12.0374 24.0633 12.0686C24.0633 12.0936 23.6758 12.6249 23.2071 13.2499C22.4008 14.3124 22.3508 14.3936 22.3258 14.7061C22.3071 14.9749 22.4758 16.7061 22.5946 17.4249C22.6258 17.5936 22.6071 17.6374 22.4883 17.6811C21.4758 18.0624 20.0008 18.7436 19.8321 18.8999C19.6883 19.0436 19.5008 19.4186 19.1258 20.3124C18.8508 20.9811 18.6008 21.5686 18.5696 21.6124C18.5321 21.6749 18.2758 21.6624 17.2446 21.5311C15.3696 21.2874 15.5321 21.2499 14.1883 22.2686C13.5758 22.7374 13.0383 23.1249 13.0008 23.1249C12.9633 23.1249 12.4258 22.7374 11.8133 22.2686C10.4696 21.2499 10.6321 21.2874 8.75706 21.5311C8.05706 21.6186 7.47581 21.6811 7.45706 21.6686C7.44456 21.6499 7.20081 21.0874 6.91331 20.4061C6.62581 19.7311 6.33206 19.0936 6.25706 18.9936C6.09456 18.7749 5.95706 18.7061 4.56331 18.1249C3.96331 17.8686 3.45081 17.6499 3.42581 17.6311C3.40081 17.6124 3.45706 17.0311 3.53831 16.3436C3.62581 15.6561 3.68831 14.9311 3.67581 14.7374C3.65081 14.3874 3.63206 14.3561 2.78831 13.2436C2.28831 12.5811 1.94456 12.0749 1.96331 12.0186C1.98206 11.9749 2.34456 11.4749 2.76956 10.9186C3.19456 10.3624 3.57581 9.84361 3.61331 9.76861C3.72581 9.56861 3.70706 9.09986 3.53206 7.75611C3.44456 7.08736 3.38206 6.53111 3.39456 6.52486C3.40081 6.51861 3.99456 6.26236 4.71331 5.96236C5.49456 5.63111 6.08206 5.34361 6.18206 5.24361C6.27581 5.14986 6.56956 4.54361 6.90081 3.75611C7.44456 2.46861 7.46331 2.43111 7.61956 2.46236C7.75081 2.48736 8.76956 2.61236 10.1571 2.77486C10.5071 2.81236 10.7383 2.68111 11.8508 1.84361C12.4633 1.37486 13.0008 1.01236 13.0383 1.02486C13.0758 1.03736 13.5696 1.39986 14.1321 1.83111ZM7.09456 22.6249C7.21956 22.6749 7.46331 22.6811 7.80081 22.6561L8.31956 22.6124L8.12581 22.9749C7.91331 23.3811 7.91331 23.5811 8.13831 23.7624C8.30706 23.9061 8.65706 23.9061 8.80081 23.7624C8.86331 23.6999 9.06956 23.3811 9.25081 23.0561C9.43206 22.7311 9.58831 22.4624 9.59456 22.4499C9.60081 22.4436 9.75081 22.4186 9.92581 22.3936C10.2321 22.3624 10.2446 22.3624 10.7446 22.7436C11.0258 22.9561 11.2446 23.1499 11.2258 23.1749C11.2133 23.1999 10.2571 24.8624 9.09456 26.8749C7.93206 28.8874 6.97581 30.5436 6.96331 30.5561C6.95081 30.5686 6.71331 30.1061 6.43831 29.5249C5.91331 28.4374 5.81331 28.2686 5.58831 28.1874C5.51331 28.1561 4.91956 28.1749 4.25081 28.2249C3.58831 28.2749 3.03831 28.3061 3.02581 28.2999C3.01956 28.2874 3.80706 26.9124 4.76956 25.2374L6.52581 22.1874L6.71956 22.3749C6.81956 22.4749 6.99456 22.5874 7.09456 22.6249Z" fill="#7715A7"/>
<path d="M12.6328 3.22561C12.5141 3.37561 12.5016 3.47561 12.5016 4.11936V4.85061L11.9454 4.92562C10.8453 5.07561 9.62035 5.57561 8.75785 6.22561C8.50785 6.41311 8.2891 6.56312 8.27035 6.56312C8.24535 6.56312 7.99535 6.33811 7.7141 6.06312C7.2641 5.62562 7.1766 5.56312 6.9766 5.56312C6.6766 5.56312 6.5016 5.73811 6.5016 6.05061C6.5016 6.26311 6.5516 6.33811 7.0016 6.78187C7.2766 7.05686 7.5016 7.31312 7.5016 7.35061C7.5016 7.38811 7.4516 7.46311 7.39535 7.50686C7.2141 7.65687 6.57035 8.70061 6.38285 9.15687C6.1141 9.80061 5.88285 10.6381 5.8391 11.1319L5.79535 11.5631H5.0641C4.4141 11.5631 4.3141 11.5756 4.1641 11.6944C3.9516 11.8631 3.93285 12.2444 4.1391 12.4381C4.25785 12.5506 4.35785 12.5631 5.04535 12.5631H5.8141V12.7506C5.8141 13.0131 6.00785 13.1881 6.3016 13.1881C6.7266 13.1881 6.7766 13.0694 6.7891 12.0756C6.8016 11.3756 6.83285 11.1006 6.9641 10.5944C7.25785 9.45686 7.80785 8.50062 8.62035 7.68186C9.67035 6.63811 10.9703 6.01936 12.4266 5.88186C15.6141 5.58186 18.4703 7.75062 19.1328 10.9694C19.2391 11.4944 19.2266 12.7506 19.1078 13.2819C18.8203 14.5631 18.2891 15.5319 17.3828 16.4444C16.1266 17.6944 14.7516 18.2694 13.0016 18.2756C12.0516 18.2756 11.4078 18.1506 10.6079 17.8131C9.27035 17.2381 8.00785 16.0444 7.37035 14.7381C7.1641 14.3131 6.8516 14.2006 6.5391 14.4444C6.29535 14.6381 6.32035 14.9256 6.63285 15.5006C6.7766 15.7569 7.03285 16.1631 7.2016 16.3944L7.52035 16.8194L7.00785 17.3381C6.54535 17.8131 6.5016 17.8819 6.5016 18.1069C6.5016 18.4194 6.67035 18.5881 6.9766 18.5881C7.1641 18.5881 7.2641 18.5194 7.72035 18.0631L8.2391 17.5444L8.67035 17.8631C9.70785 18.6319 11.2828 19.2444 12.2391 19.2506H12.5016V20.0131C12.5078 20.8381 12.5391 20.9444 12.8329 21.0569C13.0266 21.1319 13.2891 21.0569 13.4141 20.8881C13.4704 20.8131 13.4953 20.5444 13.5016 20.0131V19.2506H13.7704C14.7204 19.2444 16.2953 18.6319 17.3328 17.8631L17.7641 17.5444L18.2828 18.0631C18.7391 18.5194 18.8391 18.5881 19.0266 18.5881C19.3328 18.5881 19.5016 18.4194 19.5016 18.1069C19.5016 17.8819 19.4578 17.8131 18.9953 17.3381L18.4891 16.8194L18.8453 16.3319C19.5328 15.3881 20.0703 14.0381 20.1641 12.9819L20.2078 12.5631H20.9704C21.6453 12.5631 21.7453 12.5506 21.8641 12.4381C22.0703 12.2444 22.0516 11.8631 21.8391 11.6944C21.6891 11.5756 21.5891 11.5631 20.9328 11.5631H20.1891V11.3444C20.1891 10.7319 19.7578 9.33186 19.3453 8.59437C19.2203 8.36936 18.9766 8.00062 18.8078 7.77561C18.6391 7.55061 18.5016 7.35061 18.5016 7.32561C18.5016 7.30061 18.7266 7.05686 19.0016 6.78187C19.4516 6.33811 19.5016 6.26311 19.5016 6.05061C19.5016 5.73811 19.3266 5.56312 19.0266 5.56312C18.8266 5.56312 18.7391 5.62562 18.2891 6.06312C18.0078 6.33811 17.7578 6.56312 17.7328 6.56312C17.7141 6.56312 17.4953 6.41311 17.2453 6.22561C16.3828 5.57561 15.1579 5.07561 14.0578 4.92562L13.5016 4.85061V4.11936C13.5016 3.47561 13.4891 3.37561 13.3703 3.22561C13.2704 3.10061 13.1891 3.06311 13.0016 3.06311C12.8141 3.06311 12.7329 3.10061 12.6328 3.22561Z" fill="#7715A7"/>
<path d="M12.5827 6.91253C12.289 7.06253 12.189 7.26253 11.7515 8.63753L11.3515 9.87503H9.95774C8.84524 9.87503 8.52024 9.89378 8.37649 9.96878C7.93899 10.1938 7.77649 10.7 7.99524 11.1438C8.10149 11.3625 8.31399 11.5375 9.22024 12.1875C9.81399 12.6188 10.3077 12.9938 10.3077 13.025C10.314 13.0625 10.1327 13.6375 9.90774 14.3188C9.68274 14.9938 9.50149 15.625 9.50149 15.7125C9.50149 16.325 10.1515 16.775 10.7015 16.5438C10.8265 16.4938 11.389 16.1125 11.964 15.6938L13.0015 14.9375L14.039 15.6938C14.614 16.1125 15.1765 16.4938 15.3015 16.5438C15.8515 16.775 16.5015 16.325 16.5015 15.7125C16.5015 15.625 16.3202 14.9938 16.0952 14.3188C15.8702 13.6375 15.689 13.0625 15.6952 13.025C15.6952 12.9938 16.1827 12.6188 16.7827 12.1875C17.3827 11.75 17.914 11.325 17.9765 11.2188C18.1202 10.9813 18.1202 10.5063 17.9765 10.2875C17.9202 10.1938 17.7827 10.0625 17.6702 10C17.489 9.88753 17.3452 9.87503 16.0577 9.87503H14.6515L14.2577 8.63753C14.039 7.96253 13.8077 7.31878 13.7452 7.21253C13.5202 6.84378 12.9952 6.71253 12.5827 6.91253ZM13.4015 9.29378C13.7515 10.3625 13.8765 10.6125 14.1577 10.7688C14.2327 10.8188 14.7577 10.8563 15.5515 10.875L16.8202 10.9063L15.8452 11.6125C15.314 12 14.8327 12.3875 14.7765 12.4688C14.5702 12.7813 14.5952 12.9875 14.9952 14.1875C15.2015 14.8188 15.364 15.3438 15.3515 15.3563C15.3452 15.3688 14.9077 15.0625 14.3827 14.6813C13.4077 13.9688 13.1577 13.85 12.7952 13.9375C12.6765 13.9625 12.1827 14.275 11.6827 14.6375C10.639 15.4 10.6202 15.4063 10.6515 15.3C10.6702 15.2563 10.839 14.725 11.0327 14.125C11.4015 12.9875 11.4265 12.775 11.2265 12.4688C11.1702 12.3875 10.689 12 10.1577 11.6125L9.18274 10.9063L10.4515 10.875C11.2452 10.8563 11.7702 10.8188 11.8452 10.7688C12.1265 10.6125 12.2515 10.3625 12.6015 9.29378C12.8015 8.68753 12.9827 8.18753 13.0015 8.18753C13.0202 8.18753 13.2015 8.68753 13.4015 9.29378Z" fill="#7715A7"/>
<path d="M7.01289 24.9813C6.88789 25.0938 5.78789 26.9688 5.71289 27.2C5.62539 27.475 5.91914 27.8125 6.25039 27.8125C6.46289 27.8125 6.66289 27.55 7.24414 26.5437C7.85664 25.475 7.92539 25.2375 7.68789 25C7.53164 24.8438 7.18164 24.8375 7.01289 24.9813Z" fill="#7715A7"/>
</svg>
