<svg width="24" height="32" viewBox="0 0 24 32" fill="none" xmlns="http://www.w3.org/2000/svg">
<path d="M9.96778 0.124609C8.69903 0.399609 7.67404 1.13711 7.13654 2.16836C6.83653 2.74961 6.81778 2.76836 6.40528 2.90586C5.78653 3.11836 5.38028 3.53086 5.20529 4.12461C5.10529 4.48086 5.11154 5.26836 5.24903 7.49336L5.30528 8.39336L5.09278 8.64336C4.73654 9.05586 4.60529 9.49336 4.63654 10.1559C4.65528 10.5746 4.69904 10.7934 4.80528 11.0121C5.15528 11.7371 5.87403 12.2434 6.62403 12.2996L7.04279 12.3246L7.11154 12.6871C7.29279 13.5621 7.81153 14.4621 8.53654 15.1621L8.99903 15.6059V16.1621V16.7184L5.89279 17.9309C4.18028 18.5996 2.59279 19.2371 2.36154 19.3559C1.58029 19.7621 0.774035 20.6371 0.380285 21.5121C-0.000965023 22.3559 -0.00721501 22.4184 0.011535 27.0371L0.030285 31.2309L0.199035 31.4559C0.299035 31.5746 0.467785 31.7434 0.574035 31.8246L0.780285 31.9684L3.51153 31.9871L6.23654 32.0059L6.36778 31.8371C6.53653 31.6246 6.53653 31.4371 6.36778 31.2246C6.24278 31.0684 6.22403 31.0621 5.49278 31.0621H4.74903V26.9684C4.74903 24.1059 4.73029 22.8371 4.68028 22.7309C4.54279 22.4246 4.14279 22.3496 3.90528 22.5934L3.74903 22.7434V26.9059V31.0684L2.48029 31.0496C1.51154 31.0371 1.18028 31.0121 1.10529 30.9434C1.00528 30.8684 0.999035 30.4996 0.999035 26.8809C0.999035 22.4684 0.992785 22.5434 1.41154 21.7496C1.68028 21.2371 2.13029 20.7246 2.57404 20.4184C2.78654 20.2684 3.64278 19.8996 4.90528 19.4059C6.00528 18.9746 6.93653 18.6246 6.96778 18.6246C7.00528 18.6246 7.59278 19.0871 8.27404 19.6559C9.56153 20.7246 9.70529 20.8059 10.1365 20.7246C10.324 20.6934 10.3553 20.7059 10.4865 20.9371L10.624 21.1871L10.1115 26.1246L9.59904 31.0621H8.76779C8.01779 31.0621 7.92404 31.0746 7.81153 31.1871C7.64279 31.3559 7.64279 31.7059 7.81153 31.8746C7.93653 31.9996 7.99279 31.9996 15.5803 31.9871L23.2178 31.9684L23.424 31.8246C23.5303 31.7434 23.699 31.5746 23.799 31.4559L23.9678 31.2309L23.9865 29.3871C24.0053 27.7246 23.9928 27.5371 23.899 27.4309C23.749 27.2621 23.3053 27.2684 23.149 27.4434C23.0428 27.5621 23.0303 27.7184 22.999 29.2371L22.9678 30.8996L22.8115 30.9809C22.699 31.0371 22.2928 31.0621 21.4553 31.0621H20.249V26.9059V22.7434L20.0928 22.5934C19.8553 22.3496 19.4553 22.4246 19.3178 22.7309C19.2678 22.8371 19.249 24.1059 19.249 26.9684V31.0621H16.824H14.399L13.8865 26.1246L13.374 21.1871L13.5115 20.9371C13.6428 20.7059 13.674 20.6934 13.8615 20.7246C14.2928 20.8059 14.4365 20.7184 15.6928 19.6809C16.3615 19.1246 16.9365 18.6621 16.974 18.6434C17.0803 18.6059 20.9115 20.0996 21.2928 20.3309C21.924 20.7059 22.499 21.4309 22.824 22.2434C22.949 22.5621 22.9615 22.7434 22.9928 24.1934C23.0365 26.0371 23.0428 26.0621 23.5365 26.0621C24.0053 26.0621 24.0115 26.0246 23.9865 24.1121L23.9678 22.4684L23.774 21.9184C23.6615 21.6184 23.4803 21.2121 23.3678 21.0121C23.0678 20.5059 22.1803 19.6309 21.7115 19.3871C21.4115 19.2309 17.5428 17.6996 15.3303 16.8621L14.999 16.7434L15.0053 16.1371V15.5309L15.2678 15.3121C15.9928 14.7184 16.6428 13.6746 16.8553 12.7684L16.9615 12.3246L17.374 12.2996C18.124 12.2434 18.8428 11.7371 19.1928 11.0121C19.299 10.7934 19.3428 10.5746 19.3615 10.1559C19.3928 9.49336 19.2615 9.05586 18.9115 8.64336L18.6928 8.39336L18.7865 6.88086C18.849 5.86211 18.9178 5.17461 19.0053 4.79336C19.274 3.59961 19.224 2.39961 18.8428 1.19336C18.624 0.51211 18.4428 0.305859 18.0115 0.26211C17.7615 0.243359 17.6428 0.26211 17.4678 0.368359C16.8428 0.737108 16.1115 0.768358 14.9678 0.48086C13.5615 0.124609 13.024 0.0433598 11.749 0.0246086C10.7178 0.00585938 10.4428 0.0183582 9.96778 0.124609ZM12.2178 0.999609C13.0428 1.08086 13.574 1.17461 14.6553 1.44961C15.3553 1.62461 15.574 1.64961 16.249 1.64961C16.899 1.64961 17.099 1.62461 17.4303 1.50586C17.649 1.43086 17.8365 1.38086 17.849 1.39336C17.8615 1.40586 17.9365 1.63711 18.0053 1.91211C18.199 2.61211 18.199 3.86836 18.0115 4.65586C17.924 5.03711 17.8553 5.63711 17.8053 6.49961C17.7678 7.20586 17.724 7.78711 17.7178 7.79961C17.7053 7.81211 17.5428 7.80586 17.349 7.78086L16.999 7.73711V7.28711C16.9928 6.58711 16.7115 6.08086 16.1553 5.79336C15.7115 5.56211 15.4803 5.55586 14.499 5.73086C13.674 5.88086 13.449 5.89961 11.999 5.89961C10.549 5.89961 10.324 5.88086 9.49903 5.73086C8.51779 5.55586 8.28654 5.56211 7.84278 5.79336C7.28653 6.08086 7.00528 6.58711 6.99903 7.28711V7.73711L6.64903 7.78086C6.45529 7.80586 6.29279 7.81211 6.28028 7.79961C6.23654 7.74961 6.11154 4.66211 6.14903 4.47461C6.19904 4.23086 6.53028 3.89961 6.79904 3.83711C7.31778 3.71211 7.62403 3.43086 7.96778 2.76211C8.49279 1.74336 9.42404 1.15586 10.7365 0.999609C11.349 0.930859 11.4615 0.930859 12.2178 0.999609ZM9.28028 6.71211C10.9928 7.02461 13.524 6.99336 15.1428 6.63086C15.324 6.58711 15.4553 6.59336 15.599 6.65586C16.0053 6.82461 15.999 6.76211 15.999 9.53086C15.999 12.3246 15.9803 12.4934 15.574 13.3121C15.2553 13.9684 14.4615 14.7621 13.8115 15.0809C13.5553 15.2059 13.174 15.3559 12.9678 15.4059C12.4865 15.5309 11.5803 15.5246 11.0678 15.3996C9.65528 15.0559 8.47404 13.9059 8.12403 12.5371C8.01153 12.0809 7.99903 11.8434 7.99903 9.53711C7.99903 7.31836 8.01153 7.01211 8.09904 6.88086C8.21778 6.71836 8.54278 6.55586 8.68653 6.59336C8.73654 6.60586 9.00529 6.66211 9.28028 6.71211ZM6.99903 10.0309V11.3121H6.81153C6.56778 11.3121 6.19904 11.1621 6.01154 10.9809C5.64903 10.6434 5.51779 9.99961 5.71153 9.54336C5.88028 9.14336 6.43653 8.76211 6.86154 8.74961H6.99903V10.0309ZM17.4553 8.81836C17.7428 8.89961 18.1365 9.23711 18.274 9.52461C18.4865 9.97461 18.3553 10.6371 17.9865 10.9809C17.799 11.1621 17.4303 11.3121 17.1865 11.3121H16.999V10.0309C16.999 8.59961 16.9678 8.68086 17.4553 8.81836ZM11.7865 16.4809C12.5553 16.5184 13.3178 16.4184 13.7928 16.2184L13.999 16.1309V16.5184V16.9121L13.2803 17.4996C12.8865 17.8184 12.5615 18.1059 12.5615 18.1371C12.5615 18.1621 12.3115 18.1871 11.999 18.1871C11.6928 18.1871 11.4365 18.1621 11.4365 18.1371C11.4365 18.1121 11.1115 17.8246 10.7178 17.4996L9.99903 16.9059V16.5246V16.1434L10.5178 16.2996C10.8865 16.4059 11.2428 16.4621 11.7865 16.4809ZM9.95529 18.1934C10.349 18.5184 10.5553 18.7371 10.5365 18.7871C10.4928 18.9059 10.0115 19.6121 9.94903 19.6496C9.90528 19.6746 8.17404 18.2871 8.13653 18.1871C8.12403 18.1559 9.16778 17.7121 9.31153 17.6934C9.33029 17.6871 9.62403 17.9184 9.95529 18.1934ZM15.299 17.9371C15.6115 18.0559 15.8678 18.1746 15.8553 18.1996C15.824 18.2871 14.0928 19.6746 14.049 19.6496C13.9865 19.6121 13.5053 18.9059 13.4615 18.7871C13.4428 18.7371 13.649 18.5184 14.0428 18.1934C14.374 17.9121 14.6678 17.6934 14.6865 17.6996C14.7053 17.7121 14.9803 17.8184 15.299 17.9371ZM12.7053 19.4934C12.8303 19.6996 12.9365 19.8809 12.9365 19.9059C12.9365 19.9309 12.8615 20.0746 12.7678 20.2246L12.5928 20.4996H11.999H11.4053L11.2365 20.2246C11.1365 20.0746 11.0615 19.9309 11.0615 19.9059C11.0615 19.8809 11.1678 19.6996 11.299 19.4934L11.5303 19.1309H11.999H12.4678L12.7053 19.4934ZM12.3928 21.5434C12.4115 21.5746 12.4428 21.8309 12.4615 22.1246L12.5053 22.6559L12.024 22.1746C11.4428 21.5996 11.4365 21.4996 11.9928 21.4996C12.199 21.4996 12.3803 21.5184 12.3928 21.5434ZM12.7115 24.5246C12.7303 24.6621 12.7615 24.9746 12.7865 25.2184L12.824 25.6559L12.0678 24.9059C11.3803 24.2246 11.3115 24.1434 11.3428 23.9684C11.3553 23.8684 11.3865 23.6121 11.4053 23.4121L11.449 23.0434L12.0615 23.6559C12.5928 24.1871 12.6803 24.2996 12.7115 24.5246ZM13.024 27.5746C13.0428 27.7371 13.0803 28.0246 13.099 28.1996L13.1365 28.5309L12.099 27.4996C11.3053 26.7121 11.074 26.4434 11.0928 26.3434C11.1053 26.2746 11.1365 26.0496 11.1553 25.8496L11.199 25.4809L12.0928 26.3746C12.9553 27.2371 12.9928 27.2809 13.024 27.5746ZM13.349 30.6059L13.3928 31.0621H13.1803C12.9865 31.0621 12.8615 30.9559 11.899 29.9809L10.824 28.9059L10.8803 28.4684C10.9053 28.2246 10.9303 27.9746 10.9303 27.9059C10.9365 27.8184 11.274 28.1184 12.1178 28.9684L13.3053 30.1559L13.349 30.6059ZM11.124 30.6559L11.524 31.0621H11.074C10.624 31.0621 10.624 31.0621 10.624 30.8871C10.624 30.7309 10.6928 30.2496 10.7115 30.2496C10.7178 30.2496 10.9053 30.4309 11.124 30.6559Z" fill="#7715A7"/>
</svg>
