<svg width="32" height="32" viewBox="0 0 32 32" fill="none" xmlns="http://www.w3.org/2000/svg">
<path d="M13.1875 0.0335941C13.1 0.046093 12.7812 0.0898438 12.4688 0.127344C11.7188 0.221094 10.3562 0.564844 9.51875 0.877344C6.625 1.94609 4.03125 4.01484 2.35625 6.58984C0.75 9.06484 0 11.6086 0 14.5898C0 16.3523 0.20625 17.6773 0.73125 19.2461C1.78125 22.4148 3.96875 25.1961 6.80625 26.9773L7.33125 27.3086H6.425C5.58125 27.3086 5.5125 27.3148 5.4 27.4398C5.2875 27.5586 5.28125 27.7023 5.2625 29.3148L5.24375 31.0586H3.86875H2.5V29.6523V28.2461H3.33125C4.29375 28.2461 4.375 28.2086 4.375 27.7648C4.375 27.3273 4.31875 27.3086 2.95625 27.3086C1.83125 27.3086 1.7625 27.3148 1.65 27.4398C1.5375 27.5648 1.53125 27.6961 1.53125 29.6523C1.53125 31.6148 1.5375 31.7398 1.65 31.8648L1.76875 31.9961L14.7438 31.9836L27.7188 31.9648L28.0938 31.8148C28.85 31.5148 29.4375 31.0398 29.8375 30.4148C30.075 30.0461 31.75 26.1461 31.9125 25.5898C31.9875 25.3211 32.0063 25.0648 31.9875 24.5336C31.9375 23.3336 31.675 22.8523 30.2938 21.4148C29.5188 20.6148 29.45 20.5586 29.2313 20.5586C28.925 20.5586 28.75 20.7336 28.75 21.0336C28.75 21.2336 28.8188 21.3398 29.3438 21.9023L29.9375 22.5398L28.95 23.4836L27.9625 24.4211L27.2812 23.7023C26.6438 23.0273 26.6063 22.9773 26.6875 22.8461C27.9813 20.7961 28.6375 19.1711 29 17.1211C29.175 16.1461 29.2437 13.9773 29.1313 12.9898C28.725 9.42109 27.0188 6.07734 24.4375 3.77109C23.9813 3.36484 23.8938 3.30859 23.6812 3.30859C23.3687 3.30859 23.1875 3.48359 23.1875 3.77734C23.1875 3.96484 23.2437 4.05234 23.6375 4.41484C24.6875 5.40234 25.3188 6.13984 25.9625 7.12109C27.4625 9.40234 28.1875 11.8336 28.1875 14.5586C28.1875 15.8211 28.075 16.7711 27.7875 17.8898C27.5063 18.9711 27.275 19.6023 26.7812 20.5898C25.375 23.4336 23.0063 25.7336 20.175 27.0086L19.5 27.3086H14.5938H9.6875L9.05 27.0273C5.3375 25.3773 2.5125 22.1023 1.46875 18.2273C1.14375 17.0398 1.05 16.3461 1.01875 14.9586C0.98125 13.4648 1.075 12.5398 1.375 11.3336C1.99375 8.87734 3.1625 6.82734 4.99375 4.98984C7.18125 2.80859 9.76875 1.51484 12.8125 1.08984C13.6313 0.977343 15.3938 0.958593 16.1562 1.05859C18.075 1.30234 19.7625 1.85859 21.35 2.77734C22.15 3.23359 22.25 3.25234 22.5063 3.00234C22.6688 2.83359 22.6938 2.77109 22.6625 2.60234C22.6187 2.35234 22.45 2.21484 21.6875 1.79609C20.1 0.914843 18.3188 0.333593 16.475 0.0898438C15.8125 0.00234413 13.6562 -0.0289078 13.1875 0.0335941ZM30.8813 23.8648C30.9875 24.1523 31.0063 24.3211 30.9875 24.7773C30.9563 25.4523 30.75 25.9711 30.3 26.4648L30.0188 26.7711L29.9125 26.5711C29.8563 26.4586 29.5562 26.0898 29.25 25.7523L28.6875 25.1336L29.6438 24.2273C30.7063 23.2086 30.6375 23.2273 30.8813 23.8648ZM28.35 26.2961C28.7437 26.7211 29.0562 27.1023 29.0438 27.1398C29 27.2711 28.3938 27.2961 25.1 27.3023L21.8563 27.3086L22.3813 26.9773C23.475 26.2898 24.6625 25.2898 25.4688 24.3711L25.9688 23.8023L26.8 24.6648C27.2563 25.1398 27.95 25.8773 28.35 26.2961ZM29.5 28.7836C29.175 29.5461 28.9188 30.0211 28.8125 30.0898C28.775 30.1148 28.75 29.7961 28.75 29.1961V28.2648L29.05 28.2211C29.2125 28.1961 29.4438 28.1398 29.5625 28.0961C29.6812 28.0523 29.7875 28.0273 29.8 28.0273C29.8062 28.0336 29.675 28.3773 29.5 28.7836ZM9 29.6523V31.0586H7.625H6.25V29.6523V28.2461H7.625H9V29.6523ZM12.75 29.6523V31.0586H11.375H10V29.6523V28.2461H11.375H12.75V29.6523ZM16.5 29.6523V31.0586H15.125H13.75V29.6523V28.2461H15.125H16.5V29.6523ZM20.25 29.6523V31.0586H18.875H17.5V29.6523V28.2461H18.875H20.25V29.6523ZM24 29.6523V31.0586H22.625H21.25V29.6523V28.2461H22.625H24V29.6523ZM27.75 29.5586V30.8648L27.5188 30.9336C27.3875 30.9711 26.7688 31.0211 26.1438 31.0398L25 31.0773V29.6586V28.2461H26.375H27.75V29.5586Z" fill="#7715A7"/>
<path d="M13.1568 1.93984C10.4005 2.36484 8.6818 3.90859 9.1568 5.52734C9.58805 7.00859 11.238 8.83359 12.8943 9.65234C13.4755 9.93984 14.1318 10.1211 14.5943 10.1211C15.3068 10.1211 16.3693 9.71484 17.1818 9.13359C17.7568 8.73359 18.6943 7.80859 19.138 7.22109C19.813 6.32109 20.1755 5.40859 20.1005 4.77734C19.9568 3.54609 18.588 2.48984 16.5318 2.02109C16.013 1.90859 13.738 1.84609 13.1568 1.93984ZM16.5755 3.08359C17.6943 3.36484 18.6943 3.95859 18.9755 4.50859L19.063 4.67734L18.7068 4.52109C18.163 4.27734 16.9693 3.95234 16.238 3.84609C15.8568 3.78984 15.163 3.74609 14.5943 3.74609C14.0255 3.74609 13.3318 3.78984 12.9505 3.84609C12.2193 3.95234 11.0255 4.27734 10.4818 4.52109L10.1255 4.67734L10.213 4.50859C10.3755 4.19609 10.9255 3.74609 11.4568 3.48984C12.8193 2.83984 14.9505 2.67109 16.5755 3.08359ZM16.1568 4.83984C17.1943 5.02734 18.8755 5.58984 18.8755 5.75234C18.8755 5.77109 18.7318 6.01484 18.5568 6.28359C18.1193 6.96484 16.9318 8.12109 16.2818 8.50859C14.9443 9.30234 14.1693 9.28984 12.8193 8.45234C12.2005 8.07109 11.0505 6.93359 10.6318 6.28359C10.4568 6.01484 10.313 5.77109 10.313 5.74609C10.313 5.59609 11.9318 5.03984 12.8755 4.87109C13.7255 4.70859 15.363 4.69609 16.1568 4.83984Z" fill="#7715A7"/>
<path d="M5.76898 6.42069C4.75648 6.78319 3.66898 7.93944 2.96898 9.40194C2.60648 10.1644 2.41898 10.7019 2.21273 11.5894C2.05648 12.2519 2.03773 12.4582 2.04398 13.3707C2.04398 14.2207 2.06898 14.4894 2.17523 14.8832C2.34398 15.5144 2.56898 15.9457 2.92523 16.3207C3.44398 16.8769 4.00023 17.0457 4.93773 16.9269C5.55023 16.8519 6.73773 16.4769 6.93148 16.3019C7.13148 16.1144 7.11273 15.7332 6.90023 15.5644C6.80648 15.4894 6.69398 15.4332 6.64398 15.4332C6.59398 15.4332 6.26273 15.5269 5.91898 15.6457C5.56898 15.7644 5.17523 15.8832 5.05023 15.9019L4.82523 15.9457L4.78148 15.6519C4.75648 15.4957 4.75023 14.8644 4.76898 14.2582C4.81898 12.6519 5.04398 11.7144 5.74398 10.2769C6.15023 9.44569 6.53148 8.85194 7.09398 8.18944L7.46898 7.74569L7.73773 8.03944C8.35648 8.73319 8.98148 9.87694 9.28773 10.9019C9.41273 11.3332 9.45648 11.6082 9.46273 12.0894C9.46898 12.6769 9.45648 12.7457 9.26898 13.1269C9.06273 13.5394 8.59398 14.0769 8.03773 14.5269C7.76898 14.7519 7.73773 14.8019 7.73773 15.0269C7.73773 15.3207 7.91273 15.4957 8.21898 15.4957C8.67523 15.4957 9.70648 14.4957 10.1252 13.6519C10.7127 12.4707 10.569 11.0144 9.69398 9.21444C9.05648 7.91444 8.16898 6.83944 7.44398 6.48319C7.05023 6.28944 6.23148 6.25819 5.76898 6.42069ZM6.25648 7.59569C6.11898 7.75194 5.84398 8.12694 5.63773 8.42069C4.33773 10.3269 3.74398 12.2832 3.74398 14.6707V15.7019L3.59398 15.5582C3.20648 15.1957 2.96898 14.1832 3.02523 13.1207C3.15023 10.7082 4.45648 8.19569 5.98773 7.42694C6.11273 7.36444 6.28773 7.31444 6.36273 7.30819C6.50023 7.30819 6.49398 7.32694 6.25648 7.59569Z" fill="#7715A7"/>
<path d="M21.9251 6.40324C20.8876 6.79699 19.6501 8.47824 19.0314 10.3282C18.4064 12.1907 18.6501 13.522 19.8314 14.7095C21.2314 16.1157 23.7876 17.1782 25.1564 16.9282C26.9064 16.6157 27.6376 14.172 26.8751 11.2157C26.3001 9.00324 25.0251 7.14699 23.6251 6.50949C23.2001 6.31574 22.3001 6.25949 21.9251 6.40324ZM23.2376 7.45949C24.2626 7.97824 25.1751 9.2595 25.7501 10.9782C26.0064 11.7595 26.1876 12.7845 26.1876 13.4407C26.1814 14.297 25.8939 15.2907 25.5689 15.5845C25.4564 15.6907 25.4501 15.6595 25.4189 14.3907C25.4001 13.3782 25.3626 12.947 25.2564 12.4407C24.8876 10.6907 24.0751 8.97824 23.0064 7.69699C22.7314 7.36574 22.7001 7.30949 22.8126 7.30949C22.8814 7.30949 23.0751 7.37824 23.2376 7.45949ZM22.0626 8.15324C23.0064 9.23449 23.7689 10.7032 24.1439 12.1532C24.3689 13.0157 24.4376 13.6095 24.4376 14.6095C24.4376 15.5782 24.3939 15.9345 24.2814 15.9345C24.2376 15.9345 23.9501 15.8595 23.6501 15.772C22.0314 15.3095 20.4376 14.1782 19.9314 13.1532C19.7314 12.7407 19.7189 12.6845 19.7251 12.0907C19.7314 11.6095 19.7751 11.3345 19.9001 10.9032C20.2064 9.8845 20.8126 8.74699 21.4439 8.04074C21.5876 7.87824 21.7126 7.74699 21.7189 7.75949C21.7251 7.77199 21.8814 7.94699 22.0626 8.15324Z" fill="#7715A7"/>
<path d="M14.0004 13.2836C13.4816 13.5086 13.1816 13.9836 13.1816 14.5898C13.1816 15.4273 13.7504 15.9961 14.5941 15.9961C15.4379 15.9961 16.0004 15.4336 16.0004 14.5898C16.0004 13.9711 15.7004 13.5023 15.1754 13.2836C14.8816 13.1586 14.2879 13.1586 14.0004 13.2836ZM14.8879 14.2898C15.0254 14.4148 15.0316 14.7273 14.8941 14.8836C14.7691 15.0211 14.4566 15.0273 14.3004 14.8898C14.1629 14.7648 14.1566 14.4523 14.2941 14.2961C14.4191 14.1586 14.7316 14.1523 14.8879 14.2898Z" fill="#7715A7"/>
<path d="M7.84375 17.5899C6.50625 17.8086 5.24375 18.3211 4.69375 18.8711C4.29375 19.2711 4.125 19.7086 4.125 20.3461C4.125 20.9774 4.20625 21.2836 4.56875 22.0274C4.94375 22.8086 5.33125 23.3149 6.10625 24.0649C8.51875 26.3711 11.8563 27.2024 13.225 25.8274C13.7375 25.3149 13.975 24.3649 13.9187 23.0274C13.8375 21.1774 13.275 19.5524 12.3938 18.6149C11.95 18.1461 11.5 17.8836 10.8125 17.6836C10.1937 17.5024 8.675 17.4586 7.84375 17.5899ZM10.1125 18.5586C10.8063 18.6711 11.1813 18.8524 11.6 19.2711C12.2438 19.9149 12.7 21.0649 12.8813 22.4711C12.95 23.0274 12.9375 24.2086 12.8562 24.2836C12.8375 24.3024 12.5437 24.2461 12.2063 24.1586C9.6875 23.5086 7.50625 21.9024 6.16875 19.7149C6.04375 19.5086 5.9375 19.3024 5.9375 19.2649C5.9375 19.1149 7.24375 18.6899 8.11875 18.5649C8.625 18.4899 9.65625 18.4899 10.1125 18.5586ZM6.34375 21.6774C7.675 23.2586 9.68125 24.5336 11.6875 25.0649C11.9813 25.1399 12.2438 25.2274 12.275 25.2524C12.3625 25.3336 11.6937 25.4961 11.275 25.4961C10.5125 25.4961 9.175 25.0399 8.28125 24.4774C7.33125 23.8774 6.28125 22.9024 5.79375 22.1649C5.3625 21.5149 5.16875 21.0211 5.1375 20.4649L5.1125 19.9649L5.48125 20.5274C5.6875 20.8336 6.075 21.3524 6.34375 21.6774Z" fill="#7715A7"/>
<path d="M18.9256 17.5594C17.5819 17.7907 16.7194 18.4094 16.1131 19.5969C15.2319 21.3157 14.9819 23.9532 15.5819 25.2657C16.3944 27.0407 19.3319 26.8719 22.1131 24.8907C22.6506 24.5094 23.6131 23.5782 24.0131 23.0594C24.3631 22.5969 24.8944 21.5469 24.9944 21.1094C25.1069 20.6282 25.0819 19.9219 24.9319 19.5282C24.5944 18.6157 23.2006 17.8782 21.2819 17.5907C20.6256 17.4907 19.4256 17.4782 18.9256 17.5594ZM21.0319 18.5594C21.9631 18.6969 23.2506 19.1094 23.2506 19.2782C23.2506 19.4219 22.4194 20.6157 21.9569 21.1407C20.9506 22.2844 19.6131 23.2032 18.1006 23.8094C17.5631 24.0219 16.3819 24.3407 16.3319 24.2844C16.2381 24.1907 16.2444 22.9219 16.3381 22.2594C16.5381 20.9219 16.9631 19.9094 17.5944 19.2719C17.9944 18.8657 18.3881 18.6719 19.0194 18.5657C19.4756 18.4907 20.5131 18.4907 21.0319 18.5594ZM23.9381 21.0907C23.3569 22.8407 21.0319 24.8032 18.9006 25.3469C18.5694 25.4282 18.1256 25.4969 17.9131 25.4969C17.5256 25.4969 16.8319 25.3344 16.9006 25.2657C16.9194 25.2407 17.2569 25.1344 17.6444 25.0219C20.1631 24.2969 22.4631 22.5594 23.8194 20.3532L24.0319 20.0094L24.0506 20.3532C24.0631 20.5782 24.0256 20.8282 23.9381 21.0907Z" fill="#7715A7"/>
</svg>
