<svg width="32" height="24" viewBox="0 0 32 24" fill="none" xmlns="http://www.w3.org/2000/svg">
<path d="M1.15676 0.18096C0.869264 0.24971 0.613014 0.40596 0.394264 0.637211C-0.0307364 1.07471 0.000513642 0.39971 0.000513642 10.0497C0.000513642 19.5935 -0.0244864 18.9872 0.356764 19.4372C0.450514 19.5497 0.669264 19.706 0.844264 19.7872L1.15676 19.9372H7.20676H13.2568L13.2193 20.1372C13.2005 20.2497 13.1443 20.5372 13.1068 20.781L13.0255 21.2185L10.7443 21.2497C8.55676 21.281 8.45676 21.2872 8.21301 21.4185C7.85676 21.6122 7.53801 21.9872 7.37551 22.4122C7.16926 22.9497 7.15676 23.2372 7.31301 23.4872C7.56926 23.8997 7.05051 23.8747 16.0005 23.8747C24.9505 23.8747 24.4318 23.8997 24.688 23.4872C25.013 22.9685 24.5005 21.7997 23.788 21.4185C23.5568 21.2935 23.4193 21.281 22.3943 21.2622L21.2568 21.2372L21.0943 21.3997C20.888 21.606 20.888 21.8935 21.0943 22.0935C21.2443 22.2435 21.263 22.2497 22.2568 22.2497H23.263L23.4755 22.4622C23.9255 22.9122 24.5505 22.8747 16.0005 22.8747C7.45051 22.8747 8.07551 22.9122 8.52551 22.4622L8.73801 22.2497H14.088H19.4443L19.5943 22.0935C19.9193 21.7747 19.7255 21.3185 19.2505 21.256L18.9755 21.2185L18.8693 20.6247C18.8068 20.2997 18.7568 20.0122 18.7568 19.981C18.7505 19.956 21.4693 19.9372 24.8005 19.9372H30.8443L31.1568 19.7872C31.4943 19.631 31.7818 19.3435 31.9193 19.0185C31.988 18.8497 32.0005 17.2622 32.0005 10.0622C32.0005 0.39971 32.0318 1.07471 31.6068 0.637211C31.4943 0.518459 31.2943 0.36846 31.1568 0.293461L30.9068 0.15596L16.1255 0.143459C7.99426 0.143459 1.26301 0.15596 1.15676 0.18096ZM30.8568 1.33096L31.0318 1.49971L31.0505 9.79971C31.063 14.3622 31.0505 18.2185 31.0318 18.3685C31.0068 18.531 30.9318 18.6997 30.8443 18.7872L30.6943 18.9372H16.0005H1.30676L1.15676 18.7872C1.06926 18.6997 0.994264 18.531 0.969264 18.3685C0.950514 18.2185 0.938014 14.3622 0.950514 9.80596C0.969264 1.61221 0.969264 1.51221 1.09426 1.37471C1.16301 1.29971 1.27551 1.21221 1.34426 1.18096C1.41301 1.15596 8.04426 1.13721 16.0755 1.14346L30.688 1.15596L30.8568 1.33096ZM17.8068 20.3247C17.8443 20.5435 17.888 20.8372 17.913 20.981L17.9568 21.2497H16.0005H14.0443L14.088 20.981C14.113 20.8372 14.1568 20.5435 14.1943 20.3247L14.263 19.9372H16.0005H17.738L17.8068 20.3247Z" fill="#7715A7"/>
<path d="M1.9375 1.73125C1.8875 1.75 1.78125 1.825 1.70625 1.89375L1.5625 2.01875V10.0437V18.0687L1.71875 18.2188L1.86875 18.375H16H30.1313L30.2812 18.2188L30.4375 18.0687V10.0437V2.01875L30.275 1.86875L30.1125 1.71875H17.4563H4.8L4.68125 1.86875C4.51875 2.06875 4.525 2.38125 4.70625 2.55L4.85 2.6875H17.175H29.5V10.0312V17.375H16H2.5V10.0312V2.6875H2.78125C3.1 2.6875 3.375 2.4875 3.375 2.25625C3.375 2.05 3.24375 1.83125 3.08125 1.75625C2.93125 1.6875 2.1125 1.66875 1.9375 1.73125Z" fill="#7715A7"/>
<path d="M6.5625 3.67464C4.525 4.28089 4.45 4.30589 4.31875 4.47464C4.15 4.68714 4.14375 5.11839 4.3 5.29964C4.35625 5.37464 4.98125 5.86839 5.6875 6.40589C6.39375 6.94339 6.975 7.40589 6.9875 7.43089C7 7.46214 6.90625 7.50589 6.7875 7.52464C6.6625 7.54964 6.30625 7.69964 5.9875 7.85589C5.50625 8.09339 5.30625 8.24339 4.84375 8.71214C4.38125 9.17464 4.225 9.38089 4.0125 9.81214C3.63125 10.5934 3.53125 11.0184 3.53125 11.9059C3.53125 12.4996 3.5625 12.7434 3.66875 13.0934C4.0375 14.2684 5.09375 15.2121 6.46875 15.5934C7.05625 15.7559 8.6 15.7934 9.35625 15.6559C10.0125 15.5371 11.0563 15.2121 11.3812 15.0246C11.7688 14.7996 11.7563 14.2809 11.3625 14.1184C11.2 14.0496 11.1312 14.0559 10.8812 14.1496C9.6625 14.6246 9.01875 14.7621 8.0625 14.7684C6.89375 14.7684 6.01875 14.4809 5.3625 13.8809C3.625 12.2934 4.69375 9.13089 7.1875 8.46839C7.55625 8.36839 8.2875 8.34339 8.3375 8.42464C8.35625 8.45589 8.20625 8.54964 8.00625 8.64339C5.90625 9.60589 5.85 12.7059 7.9125 13.7309C9.625 14.5746 11.6375 13.3746 11.7375 11.4559L11.7625 10.9371L11.9313 10.9871C12.0188 11.0121 12.3313 11.0309 12.625 11.0309C13.3688 11.0246 13.7688 10.8371 14.3938 10.1934C14.925 9.64964 15.0125 9.42464 14.8562 9.04339C14.725 8.73714 14.4938 8.60589 13.9938 8.55589C13.5125 8.49964 13.125 8.34964 12.8313 8.09964C12.7188 8.00589 12.0625 7.13714 11.3688 6.16839C10.675 5.19964 9.975 4.26839 9.81875 4.10589C9.65 3.93089 9.3625 3.72464 9.125 3.60589C8.78125 3.44339 8.6375 3.41214 8.15625 3.39339C7.6375 3.37464 7.51875 3.39339 6.5625 3.67464ZM8.50625 4.44339C8.6375 4.48714 8.84375 4.59964 8.9625 4.69964C9.08125 4.79964 9.75 5.67464 10.4437 6.64339C11.1375 7.61214 11.8375 8.54339 11.9938 8.70589C12.3063 9.03089 13 9.41839 13.3875 9.48089L13.6313 9.51839L13.4625 9.69339C13.1 10.0684 12.3625 10.1684 11.9438 9.89964C11.8125 9.81214 5.775 5.20589 5.6125 5.06214C5.5375 4.99964 7.6875 4.38714 7.99375 4.38089C8.14375 4.37464 8.375 4.40589 8.50625 4.44339ZM9.95625 9.68714C10.2812 9.89339 10.5875 10.3246 10.6937 10.7184C10.775 11.0059 10.7375 11.7871 10.6375 11.8871C10.5938 11.9309 10.5 11.8996 10.3375 11.7934C10.2125 11.7059 9.975 11.5996 9.81875 11.5559C9.53125 11.4871 9.53125 11.4809 9.55 11.2496C9.56875 11.0809 9.54375 10.9809 9.45625 10.8996C9.35 10.7871 9.35 10.7746 9.4875 10.4996C9.6 10.2809 9.63125 10.1371 9.6125 9.85589C9.6 9.66214 9.60625 9.49964 9.63125 9.49964C9.65 9.49964 9.79375 9.58089 9.95625 9.68714ZM8.525 9.70589C8.75625 9.87464 8.5125 10.3059 8.26875 10.1496C8.06875 10.0246 8.025 9.89339 8.15 9.75589C8.2875 9.60589 8.36875 9.59339 8.525 9.70589ZM7.775 11.0309C7.94375 11.1184 8.19375 11.1871 8.325 11.1871C8.45625 11.1871 8.5625 11.2121 8.5625 11.2434C8.5625 11.2746 8.58125 11.3434 8.6 11.3934C8.625 11.4621 8.575 11.4996 8.425 11.5309C8.3125 11.5559 8.08125 11.6496 7.90625 11.7434C7.7375 11.8309 7.575 11.9121 7.55625 11.9246C7.45 11.9746 7.31875 11.0121 7.41875 10.9184C7.46875 10.8621 7.41875 10.8496 7.775 11.0309ZM9.71875 12.6121C9.9 12.6996 9.93125 12.7434 9.8625 12.7934C9.7125 12.9059 9.3625 12.9996 9.05625 12.9996C8.7125 12.9996 8.23125 12.8309 8.26875 12.7246C8.28125 12.6871 8.43125 12.6059 8.6 12.5434C8.9625 12.4121 9.3875 12.4371 9.71875 12.6121Z" fill="#7715A7"/>
<path d="M23.1375 3.50012C22.7 3.65637 22.4563 3.81262 22.15 4.13762C21.8313 4.47512 20.9375 5.71887 20.85 5.95637C20.7688 6.16887 20.8938 6.43137 21.1375 6.54387C21.4438 6.69387 21.6188 6.56262 22.225 5.70637C23 4.61887 23.3125 4.37512 23.975 4.37512C24.2563 4.37512 26.4625 5.00637 26.3875 5.06262C26.2438 5.19387 20.1875 9.80637 20.0563 9.90012C19.6375 10.1689 18.9 10.0689 18.5375 9.69387L18.3688 9.51887L18.6063 9.48137C19.4188 9.34387 20.5 8.43762 20.5 7.89387C20.5 7.61262 20.3125 7.43762 20.0063 7.43762C19.7938 7.43762 19.7375 7.47512 19.4438 7.80637C19.05 8.26887 18.625 8.48762 18.0188 8.55012C17.5063 8.60637 17.275 8.73762 17.1438 9.04387C16.9875 9.42512 17.075 9.65012 17.6063 10.1939C18.2313 10.8376 18.6313 11.0251 19.375 11.0314C19.6688 11.0314 19.9813 11.0126 20.0688 10.9876L20.2375 10.9376L20.2625 11.4689C20.2875 11.9126 20.325 12.0626 20.5188 12.4564C20.8125 13.0439 21.25 13.4939 21.8 13.7626C22.1938 13.9564 22.2563 13.9689 22.9063 13.9689C23.55 13.9689 23.6188 13.9564 24.0125 13.7689C24.8438 13.3751 25.4188 12.6001 25.575 11.6626C25.775 10.4501 25.1438 9.20012 24.0688 8.68137C23.8313 8.56887 23.65 8.45012 23.6625 8.42512C23.7125 8.34387 24.4438 8.36887 24.8125 8.46887C25.45 8.63762 25.9375 8.92512 26.4438 9.43762C28.025 11.0314 27.7938 13.4376 25.9813 14.3376C25.3375 14.6564 24.7938 14.7689 23.9375 14.7689C22.9813 14.7626 22.3375 14.6251 21.1188 14.1501C20.8688 14.0564 20.8 14.0501 20.6375 14.1189C20.25 14.2814 20.2313 14.8001 20.6125 15.0189C20.9188 15.2001 21.8188 15.4876 22.5188 15.6314C23.0625 15.7439 23.3063 15.7564 24.1563 15.7314C25.2938 15.6939 25.6313 15.6251 26.4375 15.2376C26.8563 15.0376 27.0688 14.8814 27.4438 14.5064C28.225 13.7251 28.5438 12.8501 28.4813 11.6876C28.4375 10.9314 28.3188 10.4814 27.9875 9.81262C27.775 9.38762 27.6125 9.16887 27.1563 8.71262C26.6875 8.24387 26.4938 8.10012 26.0125 7.85637C25.6938 7.70012 25.3375 7.55012 25.2125 7.52512C25.0938 7.50637 25 7.46262 25.0125 7.43762C25.025 7.40637 25.6063 6.94387 26.3125 6.40637C27.0188 5.86887 27.6438 5.37512 27.7063 5.30012C27.8563 5.12512 27.85 4.68762 27.6875 4.48137C27.5438 4.30012 27.3438 4.23137 25.575 3.71887C24.2063 3.33137 23.7313 3.28762 23.1375 3.50012ZM24.1063 9.95012C24.3438 10.2001 24.55 10.6376 24.6 11.0189C24.6375 11.2939 24.525 11.9626 24.4438 11.9251C24.425 11.9126 24.2688 11.8314 24.0938 11.7439C23.925 11.6501 23.6938 11.5564 23.5813 11.5376C23.4 11.4939 23.3813 11.4751 23.4188 11.3064C23.4438 11.1689 23.4188 11.0689 23.3188 10.9376L23.1875 10.7564L23.3313 10.5189C23.4313 10.3439 23.4688 10.1814 23.4688 9.90012V9.51262L23.6875 9.62512C23.8063 9.68762 23.9938 9.83137 24.1063 9.95012ZM22.4125 9.75637C22.5375 9.89387 22.4938 10.0251 22.2938 10.1501C22.05 10.3064 21.8063 9.87512 22.0375 9.70637C22.1938 9.59387 22.275 9.60637 22.4125 9.75637ZM21.7063 11.0939C21.8313 11.1439 22.0438 11.1876 22.1813 11.1876C22.3875 11.1876 22.425 11.2126 22.45 11.3376C22.475 11.4626 22.4438 11.4876 22.1875 11.5564C22.025 11.6001 21.7875 11.7064 21.6625 11.7939C21.4938 11.9064 21.4063 11.9314 21.3563 11.8814C21.325 11.8501 21.2813 11.5814 21.2625 11.3001C21.2313 10.7939 21.2375 10.7814 21.3563 10.8876C21.4188 10.9501 21.575 11.0376 21.7063 11.0939ZM23.525 12.5876C23.65 12.6376 23.75 12.7064 23.75 12.7376C23.75 12.8439 23.2625 13.0001 22.9438 13.0001C22.6375 13.0001 22.2875 12.9064 22.1375 12.7939C22.0688 12.7439 22.075 12.7126 22.1688 12.6626C22.5938 12.4251 23.0688 12.3939 23.525 12.5876Z" fill="#7715A7"/>
<path d="M15.5323 8.32396C15.3698 8.44896 15.3635 8.47396 15.4073 8.80521C15.5385 9.69896 15.4573 9.98021 14.9073 10.5615C14.726 10.749 14.5573 10.9677 14.5323 11.049C14.4323 11.3865 14.801 11.7552 15.1385 11.6552C15.3323 11.599 15.901 11.0365 16.126 10.6865C16.501 10.1052 16.5948 9.18646 16.3448 8.58646C16.176 8.17396 15.8573 8.06771 15.5323 8.32396Z" fill="#7715A7"/>
<path d="M16.1937 12.9739C16.025 13.1864 16.0312 13.2614 16.225 13.9489C16.425 14.6426 16.4 14.9176 16.0938 15.5114C15.975 15.7426 15.875 16.0114 15.875 16.1114C15.875 16.4551 16.3 16.6739 16.625 16.4989C16.8 16.4051 17.1688 15.7114 17.2875 15.2489C17.4125 14.7489 17.375 14.2301 17.1625 13.5426C16.975 12.9364 16.8688 12.8114 16.5563 12.8114C16.375 12.8114 16.2938 12.8489 16.1937 12.9739Z" fill="#7715A7"/>
</svg>
