<svg width="32" height="32" viewBox="0 0 32 32" fill="none" xmlns="http://www.w3.org/2000/svg">
<path d="M15.1565 0.106249C14.4565 0.356249 13.9065 0.81875 13.6253 1.4C13.419 1.8375 13.4753 2.1125 13.8128 2.25C14.1003 2.36875 14.3315 2.24375 14.5565 1.84375C14.8753 1.275 15.3565 1 16.0253 1C16.769 1 17.3815 1.475 17.6003 2.225C17.8315 3.025 17.3378 3.93125 16.519 4.2125C16.1503 4.3375 15.919 4.3375 15.5003 4.2125C15.219 4.13125 15.0815 4.03125 14.644 3.5875C14.2378 3.175 14.0878 3.0625 13.9565 3.0625C13.8565 3.06875 11.844 3.93125 9.46901 4.99375L5.16276 6.9125L4.83151 6.58125C4.63151 6.36875 4.35026 6.175 4.08151 6.04375C3.68151 5.85625 3.61901 5.84375 2.93776 5.84375C2.25026 5.84375 2.20026 5.85 1.79401 6.05C0.162757 6.85 -0.230993 8.975 1.00651 10.2812C1.33151 10.625 2.06901 11.0625 2.31901 11.0625C2.43151 11.0625 2.43776 11.225 2.43776 16.025V20.9875L2.11276 21.0938C-0.155993 21.825 -0.362243 25.0062 1.79401 26.025C2.83776 26.525 4.13151 26.275 4.90026 25.4313L5.15651 25.15L7.90651 26.3562C9.41901 27.0187 11.269 27.8375 12.019 28.1625L13.3815 28.7687L13.3378 29.1187C13.219 30.175 13.8628 31.2937 14.8565 31.7687C15.2565 31.9562 15.319 31.9688 16.0003 31.9688C16.6815 31.9688 16.744 31.9562 17.1378 31.7687C18.1378 31.3 18.7878 30.1437 18.6565 29.0875L18.619 28.7687L19.7003 28.2875C20.294 28.025 22.144 27.2125 23.8065 26.4812L26.8315 25.15L27.1003 25.4375C28.1315 26.5375 29.8753 26.5687 30.9378 25.5C32.3378 24.1 31.769 21.7 29.894 21.0938L29.5628 20.9875V16.025C29.5628 11.225 29.569 11.0625 29.6815 11.0625C29.744 11.0625 29.994 10.9625 30.2315 10.8438C32.219 9.85 32.2065 7.03125 30.2065 6.05C29.8003 5.85 29.7503 5.84375 29.0628 5.84375C28.3815 5.84375 28.319 5.85625 27.919 6.04375C27.6503 6.175 27.369 6.36875 27.169 6.58125L26.8378 6.9125L22.7503 5.09375L18.6565 3.26875L18.6503 2.68125C18.6378 1.5125 18.1128 0.68125 17.0815 0.206249C16.6003 -0.0187511 15.644 -0.0687523 15.1565 0.106249ZM14.0003 4.40625L14.2065 4.61875L13.9628 5.01875C13.8315 5.2375 13.369 5.98125 12.9378 6.675L12.1565 7.93125L11.294 7.9375C10.1878 7.9375 10.0003 8.01875 10.0003 8.49375C10.0003 8.59375 10.0628 8.725 10.144 8.8C10.2628 8.9125 10.3753 8.9375 10.8878 8.95L11.494 8.96875L10.619 10.375C10.1315 11.15 9.73151 11.7875 9.72526 11.7937C9.71276 11.8062 5.57526 9.40625 5.52526 9.35625C5.50651 9.3375 5.50651 9.2375 5.53151 9.13125L5.57526 8.9375H7.12526C8.64401 8.9375 8.68776 8.93125 8.81276 8.8C8.96901 8.625 8.97526 8.3125 8.81901 8.11875C8.70026 7.96875 8.69401 7.96875 7.13151 7.95C6.26901 7.9375 5.56276 7.9125 5.56276 7.8875C5.56276 7.85 13.6315 4.2125 13.7565 4.19375C13.7753 4.1875 13.8815 4.2875 14.0003 4.40625ZM22.369 6.03125C24.6065 7.025 26.4378 7.8625 26.4378 7.8875C26.4378 7.91875 24.9565 7.9375 23.144 7.9375L19.844 7.93125L19.0628 6.675C18.6315 5.98125 18.169 5.2375 18.0378 5.01875L17.794 4.61875L18.0065 4.4C18.119 4.28125 18.2315 4.19375 18.2565 4.2C18.2815 4.2125 20.1315 5.03125 22.369 6.03125ZM16.0003 5.3125C16.1565 5.3125 16.4253 5.275 16.6003 5.23125L16.919 5.15L17.7565 6.49375C18.219 7.23125 18.6065 7.85625 18.6128 7.8875C18.6253 7.9125 17.4503 7.9375 16.0003 7.9375C14.5503 7.9375 13.3753 7.9125 13.3878 7.8875C13.4003 7.85625 13.7815 7.23125 14.244 6.49375L15.0815 5.15L15.4003 5.23125C15.5753 5.275 15.844 5.3125 16.0003 5.3125ZM3.51901 6.9C4.06276 7.09375 4.51276 7.6625 4.59401 8.25625C4.65651 8.7 4.49401 9.19375 4.16901 9.54375C3.78151 9.9625 3.50026 10.0938 2.93776 10.0938C2.38776 10.0938 2.08776 9.9625 1.73776 9.575C1.45651 9.2625 1.39401 9.15 1.31276 8.78125C1.13776 8.0125 1.60651 7.2 2.40651 6.89375C2.66276 6.79375 3.23151 6.8 3.51901 6.9ZM29.7628 6.9625C30.3378 7.24375 30.7128 7.83125 30.7065 8.46875C30.7065 8.91875 30.594 9.2125 30.2753 9.5625C29.9128 9.9625 29.619 10.0938 29.0628 10.0938C28.5003 10.0938 28.219 9.9625 27.8315 9.54375C27.0503 8.69375 27.394 7.3 28.4815 6.9C28.794 6.7875 29.4628 6.81875 29.7628 6.9625ZM21.4878 12.4688C22.9315 14.7812 23.6878 16.0375 23.6628 16.1062C23.5628 16.3625 21.9628 18.8687 21.9003 18.8562C21.8503 18.8438 10.719 12.4062 10.6315 12.3375C10.619 12.325 11.0815 11.5562 11.6628 10.625L12.719 8.9375H16.0003H19.2815L21.4878 12.4688ZM26.5003 9.2C26.6065 9.5625 26.794 9.925 27.0065 10.1875C27.1065 10.3062 27.1878 10.425 27.1878 10.4438C27.1878 10.4688 26.544 11.5187 25.7565 12.7812L24.319 15.075L24.169 14.8312C23.9003 14.4062 20.5878 9.09375 20.5378 9.0125C20.5003 8.95625 21.1003 8.9375 23.4565 8.9375H26.419L26.5003 9.2ZM7.13776 11.4812L9.18151 12.6687L8.52526 13.725C8.16276 14.3062 7.82526 14.8438 7.76901 14.925C7.68151 15.0688 7.63776 15.0063 6.24401 12.775C5.19401 11.0938 4.81901 10.45 4.85026 10.3625C4.87526 10.2875 4.92526 10.25 4.98776 10.2687C5.05026 10.2812 6.01276 10.8312 7.13776 11.4812ZM7.06276 16.0375C7.06276 16.0625 3.95026 21.0687 3.91276 21.1062C3.90651 21.1125 3.79401 21.0938 3.66901 21.0562L3.43776 20.9937V16.0375V11.0875L3.67526 11.025L3.90651 10.9688L5.48776 13.4875C6.35026 14.875 7.06276 16.025 7.06276 16.0375ZM28.5628 16.0437V20.9937L28.3315 21.0562C28.2065 21.0938 28.094 21.1125 28.0878 21.1062C28.0815 21.1 27.369 19.9563 26.5003 18.5687C25.0253 16.2063 24.9315 16.0312 25.0065 15.9C25.0565 15.825 25.769 14.6812 26.594 13.3625L28.094 10.9625L28.3253 11.025L28.5628 11.0875V16.0437ZM15.719 16.4688C18.7815 18.2437 21.3065 19.7188 21.3315 19.7437C21.3565 19.7688 20.9128 20.5437 20.3378 21.4563L19.3003 23.125H18.0628C16.9128 23.125 16.819 23.1312 16.6628 23.2562C16.444 23.4312 16.4378 23.7562 16.6565 23.9688C16.8003 24.1188 16.8315 24.125 17.719 24.125C18.294 24.125 18.6253 24.15 18.6128 24.1875C18.6065 24.2188 18.2315 24.8375 17.7815 25.5625C17.1878 26.5187 16.944 26.8625 16.8753 26.8375C16.8253 26.8187 16.6065 26.7687 16.394 26.7312C16.0253 26.6687 15.444 26.7125 15.1253 26.8375C15.0565 26.8625 14.8128 26.5187 14.219 25.5625C13.7753 24.8375 13.4003 24.2188 13.3878 24.1875C13.3753 24.15 13.694 24.125 14.2503 24.125C15.1003 24.125 15.1378 24.1188 15.2815 23.9688C15.5003 23.7562 15.494 23.4312 15.2753 23.2562C15.119 23.1312 15.0253 23.125 13.9065 23.125H12.7003L10.5315 19.65C9.33776 17.7375 8.35026 16.1312 8.33151 16.0875C8.30651 16.0188 8.68151 15.3813 9.91901 13.4187C10.0003 13.2875 10.0878 13.1938 10.1128 13.2125C10.1378 13.225 12.6565 14.6875 15.719 16.4688ZM9.56276 20.0062C10.5753 21.6312 11.4315 22.9937 11.4565 23.0375C11.5003 23.1125 11.019 23.125 8.54401 23.125H5.58151L5.50026 22.8562C5.38776 22.475 5.21276 22.1562 4.97526 21.8875L4.76901 21.6562L6.20651 19.3562C6.99401 18.0938 7.65651 17.0625 7.68151 17.0625C7.70026 17.0625 8.55026 18.3875 9.56276 20.0062ZM25.6003 19.0437C26.2815 20.1375 26.9315 21.175 27.044 21.35C27.2315 21.65 27.2378 21.6812 27.1378 21.7688C27.044 21.85 26.844 21.7562 25.0003 20.675C23.8815 20.025 22.9378 19.475 22.894 19.45C22.844 19.4187 23.0503 19.0375 23.5503 18.2312C23.9503 17.5875 24.3003 17.0625 24.319 17.0625C24.344 17.0625 24.919 17.9563 25.6003 19.0437ZM25.1753 21.95C26.4878 22.7063 26.5065 22.7188 26.469 22.9C26.4503 23 26.4253 23.0938 26.4128 23.1062C26.4065 23.1187 25.069 23.1187 23.4503 23.1125L20.5128 23.0938L21.394 21.6812L22.2753 20.2688L23.0628 20.725C23.494 20.9812 24.444 21.5312 25.1753 21.95ZM3.43776 22.0375C4.06901 22.225 4.62526 22.9688 4.62526 23.6312C4.62526 23.925 4.42526 24.4313 4.20026 24.6875C3.61901 25.375 2.65026 25.4688 1.92526 24.9187C1.00651 24.2125 1.12526 22.7 2.15026 22.175C2.63151 21.925 2.95026 21.8938 3.43776 22.0375ZM29.8065 22.1562C30.869 22.6937 31.019 24.2 30.0753 24.9187C29.344 25.475 28.3815 25.375 27.7878 24.675C27.2128 24.0062 27.2565 23.1062 27.9003 22.4625C28.444 21.9187 29.1315 21.8125 29.8065 22.1562ZM13.1628 25.7812L14.1815 27.4062L13.9753 27.6125L13.769 27.825L10.4003 26.3438C8.55026 25.525 6.70026 24.7188 6.30026 24.5437C5.89401 24.3688 5.56276 24.2 5.56276 24.175C5.56276 24.1437 7.04401 24.1312 8.85651 24.1375L12.1503 24.1562L13.1628 25.7812ZM26.4378 24.175C26.4378 24.2 24.594 25.0312 22.3378 26.025L18.2315 27.825L18.0253 27.6125L17.819 27.4062L18.6628 26.0625C19.1253 25.325 19.5878 24.5875 19.6878 24.4187L19.8753 24.125H23.1565C24.9628 24.125 26.4378 24.1437 26.4378 24.175ZM16.519 27.7875C17.3378 28.0687 17.8315 28.975 17.6003 29.775C17.2128 31.0938 15.519 31.45 14.7065 30.3813C14.1503 29.6562 14.2378 28.725 14.919 28.1312C15.394 27.7125 15.9503 27.5938 16.519 27.7875Z" fill="#7715A7"/>
</svg>
