<svg width="32" height="32" viewBox="0 0 32 32" fill="none" xmlns="http://www.w3.org/2000/svg">
<path d="M2.55626 0.0683613C1.66251 0.274611 0.750009 1.01836 0.306259 1.88711C-0.00624075 2.50586 9.24556e-06 2.24961 9.24556e-06 11.0309C9.24556e-06 18.3496 0.0125093 19.2621 0.100009 19.5684C0.425009 20.6809 1.27501 21.5371 2.43751 21.9121C2.74376 22.0121 3.13126 22.0246 5.78751 22.0559L8.78751 22.0934L7.83126 26.3434C7.30626 28.6809 6.87501 30.7309 6.87501 30.8934C6.87501 31.2621 7.05001 31.6246 7.32501 31.8246C7.51876 31.9621 7.59376 31.9684 8.65626 31.9871L9.78126 32.0059L10.0375 31.8371C10.1813 31.7434 10.3438 31.5934 10.4 31.4934C10.475 31.3684 11.25 28.1496 11.25 27.9684C11.25 27.9496 11.9 27.9371 12.6875 27.9371H14.125V29.5246C14.125 30.4996 14.15 31.1871 14.1938 31.2934C14.275 31.5059 14.5375 31.7934 14.7625 31.9121C15.0063 32.0371 16.9938 32.0371 17.2375 31.9121C17.4625 31.7934 17.725 31.5059 17.8063 31.2934C17.85 31.1871 17.875 30.4996 17.875 29.5246V27.9371H19.3125C20.1063 27.9371 20.75 27.9496 20.75 27.9684C20.75 28.1496 21.525 31.3684 21.6 31.4934C21.6563 31.5934 21.8188 31.7434 21.9625 31.8371L22.2188 32.0059L23.3438 31.9871C24.4063 31.9684 24.4813 31.9621 24.675 31.8246C24.95 31.6246 25.125 31.2621 25.125 30.8934C25.125 30.7309 24.6938 28.6809 24.1688 26.3434L23.2125 22.0934L26.2125 22.0559C28.8688 22.0246 29.2563 22.0121 29.5625 21.9121C30.725 21.5371 31.575 20.6809 31.9 19.5684C31.9875 19.2746 32 18.7434 32 15.7121V12.1934L31.8375 12.0684C31.625 11.9059 31.4375 11.8996 31.2313 12.0621L31.0688 12.1871L31.05 15.6121C31.025 19.4684 31.0313 19.3746 30.5375 20.0434C30.2625 20.4246 29.8563 20.7246 29.375 20.9184C29.1063 21.0246 28.4063 21.0309 16.0313 21.0309C3.61876 21.0309 2.95001 21.0246 2.64376 20.9184C1.95001 20.6746 1.31876 20.0434 1.07501 19.3371C0.981259 19.0559 0.968759 18.3809 0.950009 11.3434C0.937509 6.31836 0.956259 3.48711 0.993759 3.16836C1.15001 1.99961 1.96251 1.16836 3.10626 0.999611C3.68751 0.918362 28.3125 0.918362 28.8938 0.999611C30.0125 1.16211 30.8375 1.98711 31 3.10586C31.0313 3.34336 31.0625 5.06211 31.0625 7.01211V10.4934L31.2 10.6246C31.375 10.7871 31.625 10.7871 31.8375 10.6184L32.0063 10.4871L31.9875 6.50586C31.9688 2.56836 31.9688 2.53086 31.8313 2.19336C31.45 1.26836 30.7313 0.549612 29.8 0.168362L29.4688 0.0308609L16.125 0.018362C8.78751 0.018362 2.68126 0.0371113 2.55626 0.0683613ZM11.4875 22.3246C11.4563 22.4746 11.0063 24.4621 10.4938 26.7496C9.81251 29.7996 9.53751 30.9246 9.45626 30.9809C9.35001 31.0621 8.16251 31.0996 7.97501 31.0246C7.91876 31.0059 7.87501 30.9371 7.87501 30.8809C7.87501 30.8184 8.29376 28.9059 8.80626 26.6184C9.31876 24.3371 9.75626 22.3746 9.78126 22.2621L9.82501 22.0621H10.6875H11.55L11.4875 22.3246ZM14.125 23.3746V24.6871H13.0625C12.4813 24.6871 12 24.6809 12 24.6684C12 24.6559 12.125 24.0809 12.2813 23.3871C12.4375 22.6934 12.5625 22.1121 12.5625 22.0934C12.5625 22.0746 12.9125 22.0621 13.3438 22.0621H14.125V23.3746ZM16.875 23.3746V24.6871H16H15.125V23.3746V22.0621H16H16.875V23.3746ZM19.4375 22.0934C19.4375 22.1121 19.5625 22.6934 19.7188 23.3871C19.875 24.0809 20 24.6559 20 24.6684C20 24.6809 19.525 24.6871 18.9375 24.6871H17.875V23.3746V22.0621H18.6563C19.0875 22.0621 19.4375 22.0746 19.4375 22.0934ZM22.2188 22.2621C22.2438 22.3746 22.6813 24.3371 23.1938 26.6184C23.7063 28.9059 24.125 30.8184 24.125 30.8809C24.125 30.9371 24.0813 31.0059 24.025 31.0246C23.8375 31.0996 22.65 31.0621 22.5438 30.9809C22.4688 30.9246 22.1875 29.7871 21.5063 26.7496C20.9938 24.4621 20.5438 22.4746 20.5125 22.3246L20.45 22.0621H21.3125H22.175L22.2188 22.2621ZM20.3438 26.1684C20.4 26.4371 20.4625 26.7184 20.4813 26.7934L20.5125 26.9371H16H11.4875L11.5188 26.7934C11.5375 26.7184 11.6 26.4371 11.6563 26.1684L11.7625 25.6871H16H20.2375L20.3438 26.1684ZM16.875 29.4371C16.875 30.8496 16.8688 30.9371 16.7563 30.9996C16.6 31.0809 15.4 31.0809 15.2438 30.9996C15.1313 30.9371 15.125 30.8496 15.125 29.4371V27.9371H16H16.875V29.4371Z" fill="#7715A7"/>
<path d="M2.81211 2.30625C2.69336 2.36875 2.51211 2.525 2.40586 2.65L2.21836 2.8875L2.19961 10.8313C2.19336 15.2062 2.19961 18.875 2.21836 18.9875C2.26211 19.225 2.55586 19.5875 2.83711 19.7375C3.01836 19.8375 3.91211 19.8438 15.9371 19.8438C23.0371 19.8438 28.9184 19.825 29.0121 19.7937C29.2496 19.7312 29.6246 19.3875 29.7246 19.1438C29.7996 18.975 29.8121 17.525 29.8121 10.9875C29.8121 3.35625 29.8059 3.01875 29.6934 2.8125C29.6309 2.69375 29.4746 2.5125 29.3496 2.40625L29.1121 2.21875L22.9871 2.2C16.0871 2.18125 16.6246 2.14375 16.6246 2.65625C16.6246 3.1625 16.1184 3.125 22.7246 3.125C27.6996 3.125 28.6184 3.1375 28.7246 3.2125C28.8309 3.29375 28.8434 3.4 28.8621 4.525L28.8809 5.75625L24.4559 10.225C19.5684 15.1625 19.7059 15.0375 18.9684 15.025C18.7621 15.0187 18.4809 14.9688 18.3434 14.9062C18.1746 14.8375 17.5871 14.3 16.5621 13.2875C15.7184 12.45 14.9309 11.7125 14.8121 11.6438C14.3684 11.3812 13.9621 11.2937 13.3121 11.325C12.7621 11.3438 12.6621 11.3687 12.2434 11.5813C11.8434 11.7812 11.5746 12.0125 10.2121 13.3312C8.41211 15.075 8.28711 15.1625 7.54961 15.1125C7.26211 15.0875 7.05586 15.0312 6.88086 14.9313C6.74336 14.85 5.83711 14.05 4.87461 13.1562L3.12461 11.5312L3.14336 7.41875C3.15586 3.425 3.16211 3.3 3.27461 3.2125C3.38086 3.1375 4.29961 3.125 9.28086 3.125C14.9059 3.125 15.1746 3.11875 15.2684 3.0125C15.4121 2.85 15.4059 2.425 15.2621 2.29375C15.1559 2.19375 14.6371 2.1875 9.08711 2.1875C3.30586 2.1875 3.01836 2.19375 2.81211 2.30625ZM28.7809 18.7312L28.6871 18.875H15.9996H3.31211L3.21836 18.7312C3.13711 18.6 3.12461 18.2125 3.13711 15.7625L3.15586 12.9437L4.59336 14.2875C6.31836 15.9 6.59336 16.0687 7.49336 16.1125C8.11211 16.1437 8.59336 16.0375 9.05586 15.7625C9.20586 15.675 10.0184 14.9375 10.8559 14.1312C12.5684 12.4688 12.7996 12.3063 13.4184 12.3063C14.0996 12.3 14.2371 12.4 15.9371 14.0938C17.6121 15.7625 17.7621 15.8687 18.5809 16C19.0996 16.0812 19.6871 16 20.1809 15.775C20.4871 15.6312 21.0496 15.0938 24.6871 11.425L28.8434 7.2375L28.8621 12.9125C28.8746 17.9125 28.8621 18.6 28.7809 18.7312Z" fill="#7715A7"/>
<path d="M18.2876 4.88755C17.3501 5.06255 16.3876 5.81255 15.9688 6.6938C14.7938 9.1813 16.9501 11.925 19.6376 11.3688C21.2376 11.0375 22.3563 9.53755 22.2313 7.88755C22.0876 5.90005 20.2563 4.5063 18.2876 4.88755ZM19.8626 6.0313C20.0626 6.1188 20.3626 6.33755 20.5438 6.51255C21.7251 7.67505 21.3563 9.56255 19.8126 10.2688C19.6001 10.3688 19.3938 10.4 18.9688 10.4C18.4626 10.4063 18.3626 10.3875 18.0001 10.2125C17.4876 9.9688 17.1001 9.5813 16.8501 9.06255C16.6813 8.7063 16.6563 8.5938 16.6626 8.1563C16.6688 7.52505 16.8376 7.06255 17.2313 6.62505C17.9251 5.8563 18.9626 5.6188 19.8626 6.0313Z" fill="#7715A7"/>
</svg>
