<svg width="32" height="30" viewBox="0 0 32 30" fill="none" xmlns="http://www.w3.org/2000/svg">
<path d="M15.1244 0.156473C11.0244 0.662722 7.36194 2.81897 4.88694 6.16897C4.21819 7.07522 3.43069 8.50022 3.06194 9.46897C2.92444 9.82522 2.89319 9.86272 2.48069 10.094C1.33069 10.7502 0.436939 11.9502 0.124439 13.269C-0.0318113 13.9002 -0.0443113 15.0315 0.0931887 15.6252C0.343189 16.7065 0.780689 17.419 1.84944 18.5002L2.61819 19.2815L2.84319 19.9315C4.47444 24.6252 8.35569 28.2127 13.1682 29.469C15.1682 29.994 17.6619 30.0815 19.7182 29.7127C20.5619 29.5565 21.6057 29.2502 21.7244 29.119C21.8682 28.9565 21.8682 28.6065 21.7182 28.4377C21.5619 28.2627 21.3619 28.2752 20.3494 28.5315C19.8744 28.6565 19.4744 28.744 19.4619 28.7315C19.4557 28.7252 19.6557 28.5502 19.9119 28.3502C20.8432 27.619 22.0244 26.3127 22.6869 25.294C22.8307 25.0627 22.9619 24.8752 22.9744 24.8752C22.9869 24.8752 23.0869 24.9315 23.1994 25.0002C23.6869 25.294 24.2869 25.2127 24.7432 24.7815L25.0244 24.5127L25.5057 24.8815C26.2807 25.4877 26.2682 25.419 25.7057 25.869C25.1119 26.344 24.1994 26.9502 23.5307 27.3127C22.9619 27.6252 22.8807 27.7065 22.8744 27.9752C22.8744 28.2315 23.0994 28.4377 23.3744 28.4377C23.6182 28.4377 24.3744 28.044 25.2182 27.4815C28.8244 25.0752 31.1307 21.4252 31.7932 17.0627C31.9244 16.1815 31.9432 14.0065 31.8182 13.1252C31.6557 11.8877 31.3369 10.669 30.8619 9.45647L30.6182 8.81272L30.8307 8.55022C31.6432 7.55022 31.9994 6.54397 31.9994 5.25022C31.9994 4.25647 31.7494 3.31272 31.3182 2.65647C31.1744 2.43772 31.1182 2.40647 30.8932 2.38772C30.6932 2.37522 30.5994 2.40022 30.5057 2.49397C30.3182 2.68147 30.3432 2.91897 30.5932 3.44397C30.8932 4.08772 30.9994 4.55647 30.9994 5.25022C30.9994 5.97522 30.8932 6.42522 30.5494 7.12522C30.3057 7.63147 30.2119 7.73772 28.6682 9.29397C27.7682 10.2002 26.9932 10.9377 26.9369 10.9377C26.8807 10.9377 26.0932 10.1877 25.1807 9.26272C23.3932 7.46272 23.2807 7.30647 22.9932 6.37522C22.8807 6.01272 22.8494 5.75647 22.8494 5.25022C22.8494 4.08147 23.2244 3.20022 24.0869 2.34397C24.8869 1.55022 25.7932 1.16897 26.9057 1.16897C27.5932 1.16272 27.9994 1.25647 28.6807 1.56897C29.2807 1.85022 29.4182 1.86272 29.6494 1.68147C29.8369 1.53147 29.8682 1.23772 29.7182 1.02522C29.5932 0.837723 28.7994 0.462723 28.2119 0.306473C27.5119 0.125223 26.3494 0.118973 25.6557 0.306473C24.9994 0.481472 24.3807 0.781473 23.8619 1.17522L23.4432 1.49397L22.8932 1.25647C21.6432 0.712723 19.9932 0.281473 18.6119 0.131472C17.8057 0.043972 15.9432 0.0564728 15.1244 0.156473ZM14.4932 1.27522C14.4807 1.28772 14.2432 1.47522 13.9682 1.69397C12.7119 2.68772 11.5869 4.03772 10.6619 5.66897C10.4619 6.02522 10.2807 6.31272 10.2494 6.31272C10.0869 6.31272 8.13694 4.95022 7.85569 4.63772C7.74944 4.52522 7.76194 4.50647 8.23069 4.13147C9.79944 2.87522 11.6182 1.96897 13.5932 1.46272C14.3932 1.25647 14.5432 1.22522 14.4932 1.27522ZM20.3807 1.47522C21.0307 1.63772 21.8744 1.91897 22.4244 2.16272L22.7619 2.31272L22.6369 2.48147C22.4557 2.73772 22.2119 3.24397 22.1244 3.53772L22.0432 3.80022L21.7307 3.41272C21.2557 2.85022 20.5369 2.13772 19.9682 1.69397C19.6932 1.47522 19.4557 1.28772 19.4369 1.26897C19.3994 1.23772 19.5244 1.26272 20.3807 1.47522ZM16.4994 4.68772V8.06272L16.1119 8.02522C15.8932 8.00647 15.5119 7.96272 15.2619 7.93147C14.4994 7.83772 14.3369 7.85022 14.1932 8.03772C13.9807 8.31272 14.0682 8.68772 14.3682 8.80647C14.5744 8.88147 15.4807 9.00022 15.8994 9.00022C16.0744 9.00022 16.2807 9.01897 16.3619 9.03772L16.4994 9.07522V11.7877V14.5002H13.3494H10.1994L10.1557 14.0752C10.1057 13.5502 9.91819 12.8252 9.71194 12.369L9.55569 12.019L9.74319 11.0877C9.93069 10.1502 10.2307 9.12522 10.5744 8.23147C10.6744 7.96897 10.7744 7.75022 10.7932 7.75022C10.8057 7.75022 11.1432 7.87522 11.5369 8.03147C11.9244 8.18772 12.3369 8.31272 12.4494 8.31272C12.8557 8.31272 13.0932 7.81897 12.8307 7.51272C12.7682 7.44397 12.5119 7.31272 12.2619 7.22522C12.0057 7.13147 11.6682 7.00022 11.4994 6.93147L11.1994 6.80022L11.4807 6.29397C12.6244 4.22522 14.0557 2.70022 15.8244 1.65022C16.1432 1.46272 16.4244 1.31272 16.4494 1.31272C16.4744 1.31272 16.4994 2.83147 16.4994 4.68772ZM18.8119 2.10022C19.7432 2.75022 20.6182 3.61272 21.4244 4.67522C21.7682 5.13147 21.7744 5.14397 21.8557 5.76897C21.8994 6.11897 21.9807 6.53772 22.0369 6.70647C22.0932 6.87522 22.1119 7.03147 22.0869 7.06272C21.9932 7.15022 20.4932 7.60647 19.8744 7.73772C19.3369 7.85022 18.6244 7.95022 17.7994 8.01897L17.4994 8.05022V4.67522V1.30022L17.9244 1.53772C18.1557 1.66272 18.5557 1.91897 18.8119 2.10022ZM7.46819 5.65647C7.93694 6.05022 8.89319 6.71897 9.44944 7.03147L9.86194 7.26897L9.73694 7.58772C9.48069 8.21897 9.07444 9.48147 8.89944 10.2065L8.72444 10.9377L8.46819 10.694C7.93069 10.1815 7.18069 9.78147 6.34319 9.55647C5.95569 9.45647 5.65569 9.42522 5.01819 9.41897C4.56194 9.41897 4.18694 9.40647 4.18694 9.39397C4.18694 9.37522 4.34319 9.05647 4.53694 8.68147C5.10569 7.56272 5.71819 6.70022 6.82444 5.43147C6.98694 5.24397 6.97444 5.23772 7.46819 5.65647ZM23.3182 8.84397C23.7182 9.25647 23.7494 9.31272 23.8994 9.84397C24.1182 10.6002 24.3494 11.769 24.4369 12.5315C24.4744 12.8752 24.5119 13.2127 24.5244 13.2815C24.5369 13.4002 24.4994 13.4065 23.7557 13.4065C23.2057 13.4065 22.8432 13.444 22.5619 13.519C22.0557 13.6565 21.3244 14.0002 20.9244 14.2815L20.6244 14.5002H19.0619H17.4994V11.7877C17.4994 8.73147 17.4494 9.00022 18.0182 9.00022C19.0182 8.99397 21.0557 8.56272 22.2182 8.10647L22.5932 7.96272L22.7432 8.18147C22.8244 8.30647 23.0807 8.60022 23.3182 8.84397ZM30.0244 10.0752C30.4557 11.2315 30.7619 12.5627 30.8432 13.6002C30.8619 13.8752 30.8932 14.1877 30.9119 14.294L30.9432 14.5002H29.0307H27.1119L26.6432 14.194C26.3869 14.019 26.0369 13.8315 25.8682 13.7752L25.5682 13.6627L25.5307 13.2565C25.4744 12.644 25.3119 11.5252 25.2182 11.069L25.1369 10.669L25.7057 11.2377C26.0244 11.5502 26.3619 11.8377 26.4557 11.869C26.7119 11.969 27.2307 11.9502 27.4619 11.844C27.5682 11.794 28.1369 11.269 28.7182 10.6877C29.2994 10.1002 29.7994 9.62522 29.8182 9.62522C29.8432 9.62522 29.9369 9.82522 30.0244 10.0752ZM6.09944 10.5377C6.78694 10.7127 7.36194 11.0502 7.91194 11.594C8.76819 12.4377 9.14944 13.3315 9.14944 14.469C9.14944 15.2002 9.03694 15.694 8.70569 16.3752C8.49944 16.8002 8.32444 16.994 6.81819 18.5127C5.90569 19.4377 5.11819 20.1877 5.06194 20.1877C5.00569 20.1877 4.23069 19.4502 3.33069 18.544C1.78694 16.9877 1.69319 16.8815 1.44944 16.3752C1.11819 15.694 0.999439 15.2252 0.986939 14.5627C0.980689 13.8377 1.08694 13.3877 1.41819 12.694C1.99944 11.4815 3.16819 10.644 4.59319 10.419C4.89944 10.369 5.69944 10.4315 6.09944 10.5377ZM24.8369 14.5002C25.5807 14.6877 26.1432 15.0127 26.7182 15.594C28.0244 16.894 28.3057 18.7502 27.4557 20.394C27.2557 20.7815 26.9994 21.0752 25.5682 22.5127C24.6557 23.4377 23.8807 24.1877 23.8432 24.1877C23.7369 24.1877 20.6682 21.069 20.4432 20.7315C19.8307 19.8315 19.6119 18.669 19.8494 17.6065C20.1744 16.119 21.3557 14.8877 22.8244 14.5002C23.4369 14.344 24.2182 14.3377 24.8369 14.5002ZM16.4994 18.219V20.9315L16.2994 20.9627C16.1869 20.9815 15.8432 21.0127 15.5307 21.0315C14.3182 21.119 12.7932 21.4752 11.5182 21.9752C11.1369 22.1252 10.8057 22.2502 10.7932 22.2502C10.7432 22.2502 10.4182 21.3815 10.1619 20.5627C9.91819 19.794 9.67444 18.7002 9.53694 17.7565L9.44944 17.169L9.65569 16.744C9.76819 16.5065 9.91194 16.1315 9.96819 15.9065L10.0807 15.5002H13.2869H16.4994V18.219ZM19.5619 15.6877C19.3619 15.969 19.0244 16.7315 18.8994 17.1877C18.8182 17.4877 18.7869 17.8252 18.7869 18.469C18.7869 19.4565 18.8619 19.8127 19.2494 20.6565L19.4807 21.1565L18.9744 21.0815C18.6932 21.044 18.3119 21.0065 18.1244 21.0002C17.9369 21.0002 17.7182 20.9815 17.6432 20.9627L17.4994 20.9252V18.2127V15.5002H18.5994H19.6932L19.5619 15.6877ZM30.8932 15.8877C30.6557 19.1127 29.3932 22.069 27.2619 24.4065L26.9494 24.7502L26.4994 24.3752C26.2557 24.169 25.9869 23.9502 25.8994 23.894L25.7432 23.794L26.8619 22.6627C28.1057 21.4002 28.3619 21.0377 28.6932 20.0565C29.1369 18.7377 28.9557 17.0127 28.2494 15.869C28.1494 15.7002 28.0619 15.5502 28.0619 15.5315C28.0619 15.5127 28.7057 15.5002 29.4932 15.5002H30.9244L30.8932 15.8877ZM8.65569 18.6065C8.75569 19.4252 9.29944 21.3377 9.73694 22.4127L9.86194 22.7315L9.44944 22.969C8.88069 23.2877 7.95569 23.9377 7.42444 24.3815L6.99319 24.744L6.59319 24.3127C5.86194 23.5065 5.04944 22.3377 4.56819 21.3815L4.36819 20.994L4.55569 21.094C4.78694 21.2127 5.31194 21.219 5.58069 21.1002C5.69319 21.0502 6.39944 20.394 7.15569 19.6315C7.91194 18.869 8.54944 18.2502 8.56819 18.2502C8.59319 18.2502 8.63069 18.4127 8.65569 18.6065ZM16.4994 25.3127C16.4994 27.169 16.4744 28.6877 16.4494 28.6877C16.3557 28.6877 15.2557 28.0127 14.8619 27.7127C13.5244 26.694 12.3619 25.3127 11.4807 23.7065L11.1994 23.2002L11.6682 23.0065C12.9744 22.4565 14.4557 22.1127 16.0932 21.9815C16.2307 21.969 16.3807 21.9565 16.4244 21.9502C16.4807 21.9377 16.4994 22.6502 16.4994 25.3127ZM18.7182 22.069C18.9932 22.1002 19.5119 22.1877 19.8744 22.2627L20.5307 22.394L21.3932 23.244L22.2557 24.1002L21.8494 24.7065C20.7744 26.3127 19.3807 27.6377 17.8619 28.494L17.4994 28.694V25.319V21.944L17.8619 21.9752C18.0557 21.994 18.4432 22.0315 18.7182 22.069ZM10.6619 24.3252C11.5869 25.969 12.8244 27.444 14.0432 28.3752C14.2932 28.5627 14.4869 28.719 14.4744 28.7315C14.4369 28.769 12.9369 28.3752 12.4182 28.1877C10.7744 27.6065 9.28069 26.7502 7.91194 25.6127L7.73069 25.4627L8.06819 25.1752C8.69944 24.6502 10.1057 23.6877 10.2494 23.6877C10.2807 23.6877 10.4619 23.9752 10.6619 24.3252Z" fill="#7715A7"/>
<path d="M4.15 12.0187C3.70625 12.1875 3.5 12.3312 3.15 12.7C2.65625 13.2188 2.4375 13.7812 2.4375 14.5125C2.4375 15.9688 3.6 17.125 5.06875 17.125C6.125 17.125 7.025 16.5437 7.49375 15.5625C7.6375 15.2563 7.65625 15.1437 7.65625 14.5C7.65625 13.8062 7.65 13.7625 7.45 13.3563C7.18125 12.8187 6.74375 12.3812 6.20625 12.1125C5.83125 11.9313 5.725 11.9062 5.1625 11.8937C4.625 11.875 4.475 11.8937 4.15 12.0187ZM5.78125 13.0312C6.1125 13.1937 6.46875 13.575 6.6 13.9125C6.76875 14.35 6.7 14.9875 6.4375 15.3625C5.96875 16.05 5.14375 16.3125 4.4375 15.9937C3.13125 15.4062 3.1125 13.6375 4.40625 13.0187C4.7875 12.8375 5.3875 12.8438 5.78125 13.0312Z" fill="#7715A7"/>
<path d="M23.2186 15.8998C22.1936 16.156 21.4186 17.006 21.2374 18.0748C21.1061 18.8935 21.4061 19.781 22.0311 20.3685C23.5749 21.831 26.0874 20.9873 26.4499 18.881C26.7624 17.0435 25.0374 15.4498 23.2186 15.8998ZM24.5499 16.9935C25.5874 17.5248 25.7936 18.7873 24.9811 19.5998C24.6624 19.9185 24.2124 20.1248 23.8436 20.1248C23.5436 20.1248 23.0686 19.9248 22.7936 19.6873C22.0624 19.0435 22.0124 18.056 22.6749 17.3623C23.1874 16.8248 23.9374 16.681 24.5499 16.9935Z" fill="#7715A7"/>
<path d="M26.2688 2.68818C25.575 2.85068 24.8938 3.41318 24.55 4.10693C24.35 4.51318 24.3438 4.55693 24.3438 5.25068C24.3438 5.92568 24.3563 5.99443 24.5375 6.38193C24.7875 6.90068 25.25 7.36943 25.7875 7.63193C26.1375 7.80693 26.2875 7.84443 26.75 7.86318C27.9313 7.91943 28.8313 7.38193 29.3313 6.32568C29.5188 5.93818 29.5312 5.85693 29.5312 5.25068C29.5312 4.64443 29.5188 4.56318 29.3313 4.17568C28.9938 3.45693 28.3938 2.93193 27.6938 2.72568C27.3438 2.61943 26.6188 2.60068 26.2688 2.68818ZM27.5625 3.75693C27.9062 3.91318 28.2188 4.20068 28.3938 4.53193C28.5813 4.88818 28.5813 5.61318 28.3938 5.97568C27.8688 6.96943 26.55 7.17568 25.7625 6.38818C25.4563 6.07568 25.3125 5.73193 25.3125 5.26943C25.3125 4.83818 25.375 4.63818 25.6063 4.29443C26.0125 3.70693 26.9062 3.45693 27.5625 3.75693Z" fill="#7715A7"/>
</svg>
