<svg width="32" height="32" viewBox="0 0 32 32" fill="none" xmlns="http://www.w3.org/2000/svg">
<path d="M8.13815 0.125002C7.37566 0.331251 6.72566 0.706251 6.15691 1.28125C5.27566 2.1625 4.88191 3.05625 4.82565 4.29375C4.7694 5.58125 5.1694 6.69375 6.01315 7.59375L6.45065 8.0625H3.45066H0.444405L0.319405 8.225C0.188155 8.3875 0.188155 8.45625 0.188155 11.2188C0.188155 14.6875 0.0819053 14.375 1.22566 14.375H2.00066V23.025V31.6688L2.13191 31.8375L2.25691 32H12.6569H23.0569L23.1819 31.8375C23.2569 31.7438 23.3132 31.6188 23.3132 31.55C23.3132 31.4125 23.2007 31.175 23.1007 31.1125C23.0632 31.0875 22.2069 31.0625 21.2069 31.0625H19.3757V22.725V14.3938L20.9069 14.4L22.4382 14.4063L22.4069 14.5938C22.3444 14.9 22.1194 15.575 21.9944 15.825C21.8382 16.1313 21.8444 16.4688 22.0007 16.625C22.1632 16.7875 22.4132 16.7875 23.2507 16.625C23.7694 16.525 23.9194 16.5188 23.9757 16.5813C24.0132 16.6188 24.2194 16.95 24.4382 17.3125C25.0632 18.3438 25.0882 18.375 25.4007 18.375C25.7444 18.375 25.8069 18.3 26.0882 17.55C26.3819 16.7625 26.6007 15.8313 26.6944 15.025L26.7694 14.375H27.8819H29.0007V22.7188V31.0625H27.0069H25.0069L24.8819 31.225C24.8069 31.3188 24.7507 31.4438 24.7507 31.5125C24.7507 31.65 24.8632 31.8875 24.9632 31.95C25.0007 31.975 26.0944 32 27.3882 32H29.7444L29.8694 31.8375L30.0007 31.6688V23.025V14.375H30.7757C31.9194 14.375 31.8132 14.6875 31.8132 11.2188C31.8132 8.45625 31.8132 8.3875 31.6819 8.225L31.5569 8.0625H28.5507H25.5507L25.9882 7.59375C26.8319 6.69375 27.2319 5.58125 27.1757 4.29375C27.1194 3.05625 26.7257 2.16875 25.8444 1.275C25.4444 0.875002 25.2319 0.712502 24.7694 0.487501C23.9569 0.0812511 23.4382 -0.0249977 22.4132 0.0187511C20.8632 0.0812511 19.7882 0.575003 18.5944 1.775C17.6694 2.70625 16.8194 4.11875 16.2757 5.6375C16.1382 6.00625 16.0194 6.3125 16.0007 6.3125C15.9819 6.3125 15.8632 6.00625 15.7257 5.6375C15.2194 4.23125 14.3944 2.80625 13.5632 1.91875C12.7757 1.075 11.9569 0.543753 10.9382 0.218752C10.4819 0.0687523 10.2757 0.0437527 9.50066 0.0250015C8.7444 0.00625229 8.5194 0.0187511 8.13815 0.125002ZM10.7382 1.2125C12.3444 1.75625 13.7132 3.30625 14.6507 5.65C14.9507 6.38125 15.2007 7.2125 15.1069 7.1375C15.0632 7.10625 14.1632 6.375 13.1069 5.50625C12.0507 4.64375 11.1319 3.93125 11.0757 3.93125C10.8257 3.9125 10.7132 3.95625 10.5819 4.1C10.4257 4.26875 10.4007 4.4375 10.5007 4.625C10.5382 4.69375 11.4132 5.44375 12.4569 6.2875C13.4944 7.1375 14.4007 7.8875 14.4694 7.95C14.5944 8.06875 14.5444 8.06875 11.6569 8.05C8.8319 8.025 8.7069 8.01875 8.31316 7.8875C6.18816 7.175 5.21941 4.8875 6.19441 2.9C6.5569 2.1625 7.31941 1.48125 8.10066 1.19375C8.8194 0.918753 9.91315 0.931252 10.7382 1.2125ZM23.9069 1.19375C24.6819 1.48125 25.4444 2.16875 25.8069 2.9C26.7819 4.8875 25.8132 7.175 23.6882 7.8875C23.2944 8.01875 23.1694 8.025 20.3444 8.05C18.7319 8.0625 17.4319 8.05 17.4569 8.01875C17.4882 7.99375 18.4007 7.2375 19.4882 6.34375C20.7382 5.3125 21.4882 4.6625 21.5257 4.55625C21.6382 4.23125 21.2507 3.80625 20.9319 3.90625C20.8632 3.93125 19.9382 4.65625 18.8882 5.5125C17.8319 6.375 16.9319 7.10625 16.8944 7.14375C16.8382 7.18125 16.8444 7.10625 16.9132 6.9C17.7507 4.33125 18.7944 2.6875 20.1819 1.7625C21.3194 1 22.7944 0.775002 23.9069 1.19375ZM10.7944 9.05C10.8444 9.08125 10.7382 9.2125 10.4819 9.4375C9.09441 10.6563 8.42565 12.1875 8.5194 13.9375C8.53815 14.3 8.61315 14.8188 8.6819 15.0875C8.7569 15.3625 8.8069 15.5875 8.80065 15.6C8.78815 15.6063 8.55065 15.5688 8.2694 15.5125C7.87565 15.4375 7.7194 15.4313 7.60066 15.4875C7.51315 15.525 7.30065 15.8 7.0819 16.15C6.87566 16.4938 6.70065 16.7125 6.6819 16.6688C6.65691 16.625 6.5819 16.3563 6.50691 16.0625C6.18816 14.75 6.17565 13.5625 6.47566 12.4688C6.67565 11.725 6.6819 11.5313 6.5194 11.3625C6.35066 11.1938 5.97566 11.1875 5.81941 11.35C5.6694 11.5 5.47566 12.1313 5.37566 12.7813C5.3319 13.0563 5.28816 13.3188 5.27566 13.3563C5.25691 13.4188 4.7944 13.4375 3.2194 13.4375H1.18816V11.25V9.0625H4.30065C7.25066 9.0625 7.40065 9.06875 7.27565 9.175C6.96315 9.425 6.94441 9.775 7.2319 10C7.4819 10.1938 7.6819 10.1563 8.06315 9.8375C8.47565 9.5 9.16315 9.15625 9.59441 9.075C9.9819 9 10.6944 8.9875 10.7944 9.05ZM22.3507 9.06875C23.1069 9.20625 23.9632 9.74375 24.5382 10.4438C24.9382 10.9313 25.3569 11.7875 25.5444 12.4875C25.6819 13.0063 25.7069 13.2313 25.7132 14.0625C25.7194 15.05 25.6444 15.575 25.3882 16.4L25.2819 16.75L24.9194 16.15C24.7007 15.8 24.4882 15.525 24.4007 15.4875C24.2819 15.4313 24.1257 15.4375 23.7319 15.5125C23.4507 15.5688 23.2132 15.6063 23.2007 15.6C23.1944 15.5875 23.2444 15.3625 23.3132 15.0875C23.8507 12.9938 23.1882 10.8938 21.5257 9.4375C21.2632 9.2125 21.1569 9.08125 21.2069 9.05C21.3132 8.98125 21.9194 8.9875 22.3507 9.06875ZM19.1444 9.2125L19.4382 9.325V11.3813V13.4375H16.0007H12.5632V11.3813V9.325L12.8632 9.225C13.0257 9.175 13.2132 9.11875 13.2819 9.10625C13.3507 9.0875 14.6319 9.08125 16.1257 9.0875C18.5819 9.09375 18.8757 9.10625 19.1444 9.2125ZM30.8132 11.25V13.4375L28.7694 13.425L26.7257 13.4063L26.6507 12.8625C26.4569 11.5313 25.8194 10.2375 24.9194 9.35625L24.6194 9.0625H27.7132H30.8132V11.25ZM11.5632 11.6563V13.4375H10.5319C9.6444 13.4375 9.50066 13.425 9.50066 13.3438C9.50066 13.0063 9.7319 12.2 9.9819 11.6938C10.2257 11.1875 10.3507 11.0125 10.8694 10.4875C11.2069 10.15 11.5007 9.875 11.5194 9.875C11.5444 9.875 11.5632 10.675 11.5632 11.6563ZM21.2757 10.6313C21.8444 11.2313 22.2507 12 22.4007 12.7625C22.5507 13.5063 22.6507 13.4375 21.4694 13.4375H20.4382V11.65V9.86875L20.6194 9.99375C20.7194 10.0625 21.0132 10.35 21.2757 10.6313ZM5.30691 15.025C5.40066 15.8313 5.61941 16.7625 5.91316 17.55C6.19441 18.3 6.25691 18.375 6.60066 18.375C6.91316 18.375 6.95065 18.3375 7.56315 17.3125C7.7819 16.95 7.98815 16.6188 8.02565 16.5813C8.0819 16.5188 8.2319 16.525 8.75066 16.625C9.58815 16.7875 9.83815 16.7875 10.0007 16.625C10.1569 16.4688 10.1632 16.1313 10.0069 15.825C9.8819 15.575 9.65691 14.9 9.59441 14.575L9.55065 14.375H11.0882H12.6257V22.7188V31.0625H7.81315H3.00065V22.7188V14.375H4.11941H5.2319L5.30691 15.025ZM18.3757 22.75V31.0625H16.0007H13.6257V22.75V14.4375H16.0007H18.3757V22.75Z" fill="#7715A7"/>
</svg>
