<svg width="32" height="32" viewBox="0 0 32 32" fill="none" xmlns="http://www.w3.org/2000/svg">
<path d="M17.1313 0.163238C17.0125 0.319488 17 0.413238 17 1.44449C17 2.14449 17.025 2.61324 17.0688 2.71324C17.1625 2.91324 17.4437 3.01949 17.6687 2.93199C17.9812 2.81324 17.9938 2.74449 18 1.46324C18 0.350738 17.9938 0.263238 17.875 0.138238C17.6813 -0.068012 17.3 -0.049262 17.1313 0.163238Z" fill="#7715A7"/>
<path d="M14.1378 2.14372C13.9066 2.38747 13.9566 2.64372 14.3003 3.01247C14.6628 3.39997 14.9128 3.52497 15.1753 3.43122C15.3628 3.36872 15.5003 3.15622 15.5003 2.93122C15.5003 2.85622 15.3316 2.62497 15.1128 2.39997C14.7816 2.04997 14.7003 1.99997 14.5003 1.99997C14.3441 1.99997 14.2316 2.04372 14.1378 2.14372Z" fill="#7715A7"/>
<path d="M19.8885 2.40012C19.476 2.82512 19.426 2.98762 19.601 3.23762C19.851 3.60012 20.226 3.52512 20.7073 3.01262C20.9385 2.76262 21.001 2.65012 21.001 2.48137C21.001 2.18762 20.8073 2.00012 20.5073 2.00012C20.301 2.00012 20.226 2.04387 19.8885 2.40012Z" fill="#7715A7"/>
<path d="M16.4066 4.0875C16.0878 4.225 15.8003 4.5125 15.6503 4.84375C15.5003 5.15625 15.5003 5.175 15.5003 7.48125C15.5003 10 15.4753 10.225 15.1691 10.875C15.0003 11.2312 14.7691 11.4875 13.3816 12.875C11.2691 14.9875 11.2378 15 9.11908 15H7.88783L7.81283 14.8125C7.70658 14.55 7.25033 14.1625 6.95033 14.075C6.77533 14.025 5.87533 14 3.93158 14H1.15658L0.844077 14.15C0.675327 14.2312 0.456577 14.375 0.362827 14.475C-0.0246735 14.8875 0.000326531 14.3687 0.000326531 23.0437V30.9688L0.187827 31.2937C0.325327 31.5375 0.462827 31.675 0.706577 31.8125L1.03158 32H3.95658H6.88158L7.18783 31.8438C7.50033 31.6875 7.87533 31.2625 7.87533 31.075C7.87533 30.9937 8.21283 30.9875 10.5816 31.0188C13.5753 31.0562 13.5128 31.05 16.0941 31.5625C16.9566 31.7312 17.9378 31.9 18.2816 31.9375C18.6941 31.9812 20.3128 32 23.0628 31.9875L27.2191 31.9688L27.6378 31.7625C28.4378 31.3687 28.9378 30.6187 28.9878 29.7313C29.0253 29.1063 28.9253 28.675 28.6503 28.2188C28.5316 28.0187 28.4441 27.8562 28.4503 27.85C28.7003 27.7562 29.0378 27.525 29.3003 27.2687C29.7441 26.825 29.9503 26.3688 29.9878 25.7312C30.0253 25.1062 29.9253 24.675 29.6503 24.2188C29.5316 24.0187 29.4441 23.85 29.4503 23.8438C29.4628 23.8375 29.5816 23.775 29.7191 23.7125C30.0753 23.55 30.5691 23.0312 30.7816 22.5938C30.9378 22.2812 30.9691 22.1312 30.9878 21.625C31.0128 20.975 30.9066 20.5562 30.5878 20.0938C30.5003 19.9625 30.4378 19.85 30.4503 19.8438C30.4628 19.8375 30.5941 19.7625 30.7441 19.6875C31.1316 19.4937 31.5691 19.0312 31.7878 18.5938C31.9566 18.2437 31.9691 18.1687 31.9691 17.5C31.9691 16.8375 31.9566 16.75 31.7941 16.4187C31.5441 15.9187 31.0941 15.475 30.5816 15.2312L30.1566 15.0312L25.5878 15L21.0191 14.9688L20.7128 14.7812C20.3441 14.55 20.0253 14.1 19.9691 13.7312C19.9378 13.5437 19.9941 13.1313 20.1503 12.3438C20.2691 11.725 20.4003 10.9625 20.4378 10.6562C20.5191 9.90625 20.5191 7.15625 20.4316 6.7375C20.1816 5.51875 19.1191 4.4125 17.9003 4.1C17.4378 3.98125 16.6628 3.975 16.4066 4.0875ZM18.0191 5.20625C18.6566 5.5 19.2003 6.125 19.4003 6.80625C19.4816 7.075 19.5003 7.45625 19.5003 8.59375C19.5003 10.2125 19.4628 10.6187 19.1503 12.2188C18.8878 13.55 18.8941 13.9187 19.1816 14.5375C19.4378 15.0938 19.8003 15.4562 20.3628 15.7375L20.8378 15.9688L25.3691 16C28.8066 16.025 29.9503 16.05 30.0816 16.1125C30.4128 16.2562 30.6816 16.5125 30.8441 16.8313C31.1941 17.5375 30.9566 18.3625 30.2878 18.7812L29.9816 18.9688L27.1628 19C25.6128 19.0188 24.3003 19.0562 24.2378 19.0813C24.0941 19.1562 23.9878 19.45 24.0378 19.65C24.1253 19.9937 24.1503 20 26.4878 20C27.8566 20 28.7316 20.025 28.9066 20.0687C29.2566 20.1562 29.7253 20.5625 29.8816 20.9062C29.9503 21.0562 30.0003 21.3062 30.0003 21.5312C30.0003 22.0375 29.7316 22.5 29.2878 22.7812L28.9816 22.9688L26.1628 23C24.6128 23.0188 23.3003 23.0562 23.2378 23.0813C22.9941 23.2063 22.9503 23.7063 23.1691 23.8875C23.2441 23.95 23.8253 23.975 25.5878 24C27.8128 24.0312 27.9191 24.0375 28.1566 24.1687C28.7003 24.4625 29.0003 24.9375 29.0003 25.5187C29.0003 26.0938 28.7191 26.5687 28.2253 26.8312C27.9753 26.9688 27.9066 26.9688 25.1378 27L22.3003 27.0312L22.1503 27.2062C21.9691 27.4187 21.9566 27.6188 22.1316 27.8375L22.2566 28H24.4316C26.8753 28 27.0691 28.025 27.5003 28.4125C28.3253 29.1625 28.1003 30.4562 27.0691 30.9312C26.8691 31.0188 26.4128 31.0312 22.9378 31.0312C18.5441 31.0312 18.6566 31.0375 16.1941 30.5562C13.7691 30.075 13.6378 30.0625 10.6441 30.0625H8.00033V24.25C8.00033 17.7688 8.02533 18.1062 7.58783 18.025C7.41908 17.9937 7.32533 18.0125 7.20033 18.1062L7.03158 18.2312L7.00033 24.4437C6.97533 29.2938 6.95033 30.6875 6.88783 30.7937C6.74408 31.05 6.48783 31.0687 3.83158 31.05L1.31283 31.0312L1.14408 30.8562L0.969077 30.6875V22.9937V15.3L1.14408 15.15L1.31908 15H3.97533H6.63783L6.81908 15.1812C7.00033 15.3625 7.00033 15.375 7.00033 16.0562C7.00033 16.7188 7.00658 16.7437 7.16283 16.8687C7.36908 17.0312 7.63158 17.0375 7.81908 16.8812C7.93158 16.7937 7.96283 16.6875 7.98783 16.3875L8.01283 16.0125L9.43158 15.9875C10.7691 15.9625 10.8691 15.9562 11.3003 15.8C12.1441 15.4937 12.3753 15.3125 14.0941 13.5938C16.5441 11.15 16.4503 11.3687 16.5003 7.79375L16.5316 5.2375L16.6878 5.1125C16.9003 4.9375 17.5316 4.98125 18.0191 5.20625Z" fill="#7715A7"/>
<path d="M3.56367 26.5812C2.47617 26.8812 2.12617 28.325 2.94492 29.1062C3.23242 29.3813 3.55117 29.5 3.98867 29.5C4.95742 29.5 5.63867 28.65 5.43242 27.6938C5.25742 26.8687 4.38867 26.35 3.56367 26.5812ZM4.15742 27.575C4.64492 27.7937 4.50742 28.4937 3.97617 28.5C3.46367 28.5062 3.32617 27.825 3.78242 27.575C3.94492 27.4875 3.96367 27.4875 4.15742 27.575Z" fill="#7715A7"/>
</svg>
