<svg width="26" height="32" viewBox="0 0 26 32" fill="none" xmlns="http://www.w3.org/2000/svg">
<path d="M12.4693 0.09375C11.0568 0.40625 9.62554 1.2625 8.28179 2.59375C7.80054 3.06875 6.96304 4.03125 6.90679 4.16875C6.90679 4.175 6.65679 4.1 6.36304 4C5.45054 3.7 4.85679 3.6 3.96929 3.6C3.35679 3.6 3.05679 3.625 2.76304 3.7125C2.18804 3.88125 1.98179 4.20625 2.22554 4.55C2.38179 4.775 2.57554 4.81875 2.91929 4.7125C3.74429 4.4625 4.85054 4.5625 6.12554 5.00625C6.51929 5.14375 6.93179 5.275 7.04429 5.29375C7.28179 5.33125 7.37554 5.24375 7.96304 4.475C8.43804 3.85625 9.51304 2.79375 10.1568 2.3125C10.7943 1.83125 11.8943 1.28125 12.5318 1.11875C13.4943 0.88125 14.913 0.975 16.1255 1.375C17.2443 1.7375 18.0755 2.19375 19.9943 3.4875C21.6818 4.61875 22.4818 4.91875 23.3505 4.75C23.5505 4.7125 23.7568 4.675 23.8005 4.66875C23.9943 4.64375 24.513 6.5 24.6255 7.65C24.8193 9.5375 24.3693 11.2625 23.313 12.6875C22.8818 13.2687 22.3193 13.7875 22.088 13.8312C21.9755 13.85 21.8193 13.8875 21.7255 13.9125L21.563 13.95V13.2437C21.563 12.4625 21.5005 12.25 21.2505 12.175C21.163 12.15 20.5068 12.1 19.7818 12.0688C15.6443 11.8562 11.963 10.6812 9.45679 8.76875C8.90054 8.34375 8.68804 8.2875 8.43804 8.4875C8.33179 8.575 8.28804 8.7 8.24429 9.10625C8.05679 10.7687 6.86929 11.95 5.23179 12.1062C4.56304 12.1687 4.53804 12.2062 4.51304 13.1562C4.48804 13.9375 4.48804 13.95 4.35679 13.9125C4.05679 13.825 3.58179 13.8 3.35679 13.8625L3.12554 13.9312L2.66929 13.0125C1.39429 10.4438 1.00679 7.925 1.60054 6.1375C1.68179 5.8875 1.75054 5.60625 1.75054 5.5125C1.75054 5.1375 1.21304 4.9125 0.944294 5.18125C0.788044 5.3375 0.575544 5.925 0.469294 6.475C0.0692942 8.54375 0.538044 11.0562 1.78804 13.55L2.30054 14.5625L2.16929 14.8937C2.06929 15.1437 2.03804 15.3562 2.04429 15.8438C2.04429 16.5562 2.16304 16.9688 2.55054 17.5562C2.93804 18.1375 3.80054 18.7 4.45054 18.7875C4.73804 18.825 4.75054 18.8313 4.85054 19.15C4.90679 19.325 5.05679 19.6625 5.17554 19.9062C6.13179 21.825 7.93804 23.125 10.0193 23.3875L10.6255 23.4625V23.6687C10.6255 23.8625 10.613 23.875 10.1755 24.0062C9.25679 24.275 8.31929 24.65 7.33804 25.1312C5.96929 25.8 5.56929 26.1687 5.35054 26.9437C5.24429 27.3312 5.05679 28.6063 4.87554 30.2C4.71929 31.5938 4.71929 31.7188 4.87554 31.875C5.00054 32 5.08179 32 13.0318 32C20.9818 32 21.063 32 21.188 31.875C21.263 31.8 21.313 31.6687 21.313 31.5312C21.313 31.0687 21.1755 30.0875 21.0943 29.9625C20.913 29.6812 20.4005 29.725 20.2568 30.0375C20.213 30.1375 20.2005 30.35 20.2255 30.6313L20.2693 31.0625H18.9818H17.7005L17.6568 30.8875C17.638 30.7937 17.6505 30.4625 17.6818 30.1562C17.8505 28.7125 18.3255 27.6562 19.1443 26.9437C19.2818 26.8187 19.413 26.75 19.4755 26.775C19.6193 26.8312 19.7943 27.2937 19.8755 27.8438C19.913 28.1187 19.9568 28.425 19.9755 28.5187C20.0568 28.9188 20.538 29.075 20.8005 28.7938C20.9693 28.6187 20.9755 28.4188 20.8443 27.5563C20.7255 26.7625 20.5318 26.35 20.1005 25.9562C19.5318 25.4437 17.838 24.6312 16.263 24.125L15.438 23.8562V23.6562V23.4625L16.0443 23.3875C18.1193 23.125 19.9318 21.825 20.888 19.9062C21.0068 19.6625 21.1568 19.325 21.213 19.15C21.313 18.8313 21.3255 18.825 21.613 18.7875C22.2693 18.7 23.1255 18.1438 23.5255 17.5375C23.888 16.9875 24.0193 16.5625 24.0255 15.875C24.0318 15.175 23.913 14.7625 23.6005 14.4L23.388 14.1562L23.7005 13.8188C24.5755 12.8625 25.2068 11.5875 25.513 10.1687C25.688 9.325 25.7005 7.7125 25.538 6.78125C25.3005 5.45625 24.7005 3.74375 24.3943 3.5C24.1818 3.3375 24.038 3.34375 23.7193 3.525C23.2755 3.7875 22.9443 3.84375 22.5255 3.71875C21.9943 3.5625 21.7318 3.41875 20.2505 2.43125C18.113 1.00625 16.7005 0.356249 15.1943 0.1C14.4818 -0.0187492 13.0068 -0.0250015 12.4693 0.09375ZM10.5318 10.675C11.738 11.3562 13.4568 12.0063 15.0755 12.4062C16.6068 12.7812 17.7443 12.9438 20.0193 13.1L20.5755 13.1375L20.5505 15.5187C20.5255 17.7063 20.513 17.9437 20.3943 18.3812C19.863 20.3 18.4693 21.7188 16.5818 22.2625C16.1068 22.4 16.0255 22.4062 13.0318 22.4062C9.55054 22.4062 9.64429 22.4187 8.53179 21.875C7.45679 21.3562 6.63179 20.5375 6.09429 19.4688C5.56929 18.4187 5.54429 18.25 5.51304 15.4812L5.48804 13.0625H5.64429C5.87554 13.0625 6.60679 12.825 7.00054 12.6187C7.97554 12.125 8.80054 11.1187 9.06929 10.1187L9.14429 9.83125L9.55679 10.0938C9.78179 10.2375 10.2255 10.5 10.5318 10.675ZM4.10054 14.9125C4.28179 15 4.50054 15.2687 4.50054 15.4C4.50054 15.4187 4.32554 15.4312 4.11304 15.4312C3.47554 15.425 3.23804 15.575 3.23804 15.9688C3.23804 16.3187 3.38804 16.4437 3.81304 16.4312C4.05054 16.425 4.21929 16.4563 4.32554 16.525C4.46929 16.6187 4.48804 16.675 4.51304 17.175C4.53179 17.475 4.53804 17.7312 4.52554 17.7375C4.47554 17.8 4.02554 17.5875 3.75679 17.375C3.30679 17.0188 3.03179 16.4437 3.03804 15.85C3.03804 15.3188 3.16929 15.0312 3.45679 14.9062C3.71929 14.7875 3.84429 14.7937 4.10054 14.9125ZM22.5943 14.9C22.8943 15.0312 23.0255 15.3125 23.0318 15.8438C23.0318 16.6 22.5943 17.2937 21.8943 17.65C21.6068 17.7937 21.4755 17.7812 21.5255 17.6062C21.5443 17.5312 21.563 17.2812 21.563 17.0562C21.563 16.675 21.5755 16.6312 21.7318 16.5312C21.8505 16.45 22.0068 16.425 22.2505 16.4312C22.538 16.4375 22.6255 16.4187 22.7193 16.3125C22.8755 16.1375 22.8755 15.7812 22.713 15.625C22.5693 15.475 22.1193 15.3875 21.8005 15.4375C21.6693 15.4625 21.563 15.4562 21.563 15.425C21.563 15.275 21.7693 15.0063 21.9505 14.9187C22.2068 14.7937 22.3193 14.7875 22.5943 14.9ZM14.438 23.9812C14.438 24.6125 14.3255 24.9125 13.9943 25.2312C13.4505 25.7438 12.7005 25.7625 12.1255 25.2687C11.7443 24.9375 11.6255 24.65 11.6255 23.9812V23.4375H13.0318H14.438V23.9812ZM10.8318 25.2125C11.013 25.6125 11.3693 26.0187 11.7318 26.25L11.9943 26.4187L11.3693 27.0312C11.0318 27.3688 10.738 27.6312 10.7193 27.6188C10.6943 27.5875 9.87554 25.3375 9.85679 25.2312C9.85054 25.2 10.0255 25.1062 10.2505 25.0312C10.4755 24.95 10.663 24.8812 10.6693 24.8812C10.6755 24.875 10.7505 25.025 10.8318 25.2125ZM16.2005 25.2562C16.188 25.3063 15.9943 25.8562 15.7693 26.4875C15.2943 27.8063 15.4443 27.75 14.5818 26.9125L14.0693 26.4187L14.3318 26.25C14.6943 26.0187 15.0505 25.6125 15.2318 25.2125L15.3818 24.8875L15.8005 25.0312C16.0755 25.125 16.213 25.2 16.2005 25.2562ZM9.48179 27.225C10.0005 28.6625 10.113 28.9125 10.4693 29.45C10.6943 29.7875 11.0193 30.2375 11.2005 30.45C11.3818 30.6687 11.5693 30.8937 11.6193 30.9562C11.7005 31.0562 11.638 31.0625 10.5818 31.0625H9.46304L9.38804 30.2312C9.24429 28.575 8.74429 27.3312 7.87554 26.4375L7.56304 26.1188L8.08179 25.8812C8.71929 25.5875 8.76929 25.5687 8.84429 25.5875C8.87554 25.5938 9.16304 26.3312 9.48179 27.225ZM17.988 25.8812L18.513 26.1188L18.1943 26.4437C17.5818 27.0687 17.1568 27.8625 16.9005 28.8563C16.7443 29.4688 16.5943 30.6687 16.6443 30.9125L16.6693 31.0625H15.513C14.4255 31.0625 14.363 31.0562 14.4443 30.9562C14.4943 30.8937 14.6818 30.6687 14.863 30.45C15.0443 30.2375 15.3693 29.7875 15.5943 29.45C15.9443 28.9188 16.063 28.6562 16.538 27.3438C16.838 26.5187 17.1005 25.7812 17.1318 25.7C17.2005 25.525 17.238 25.5375 17.988 25.8812ZM7.03804 27.05C7.60054 27.5875 7.95054 28.2 8.18804 29.0812C8.33179 29.6187 8.45679 30.6437 8.40679 30.8875L8.36304 31.0625H7.08804H5.81304V30.9062C5.81304 30.7 6.16929 27.9375 6.25054 27.5125C6.33179 27.0687 6.50054 26.75 6.65054 26.75C6.68804 26.75 6.86304 26.8875 7.03804 27.05ZM13.4005 27.1813L13.6943 27.4812L13.363 27.8L13.0318 28.1187L12.7068 27.7937L12.3755 27.475L12.6693 27.175C12.8318 27.0125 12.9943 26.875 13.0318 26.875C13.0693 26.875 13.2318 27.0125 13.4005 27.1813ZM12.0068 28.5438L12.3255 28.8375L12.0193 29.1063C11.8568 29.25 11.7005 29.3687 11.6818 29.375C11.663 29.375 11.5255 29.2062 11.3818 29.0062L11.1255 28.6375L11.3568 28.4437C11.488 28.3375 11.613 28.25 11.6443 28.25C11.6693 28.25 11.838 28.3812 12.0068 28.5438ZM14.7193 28.4437L14.938 28.6375L14.6755 29.0062C14.538 29.2062 14.4005 29.375 14.3818 29.375C14.363 29.3687 14.2068 29.25 14.0443 29.1L13.7443 28.8312L14.0693 28.5375C14.2443 28.3812 14.413 28.25 14.4443 28.25C14.4693 28.25 14.5943 28.3375 14.7193 28.4437ZM13.4068 30.5437L13.0505 30.8687L12.7693 30.6437C12.313 30.2687 12.3068 30.2188 12.6943 29.875L13.0318 29.575L13.4005 29.8937L13.7693 30.2125L13.4068 30.5437Z" fill="#7715A7"/>
<path d="M9.02556 13.2195C8.41306 13.532 8.31306 14.9945 8.86931 15.5258C9.08806 15.7383 9.43806 15.7633 9.63806 15.582C9.85056 15.3883 10.0131 14.9945 10.0506 14.5945C10.1256 13.6508 9.58806 12.9383 9.02556 13.2195Z" fill="#7715A7"/>
<path d="M16.5637 13.2055C16.2012 13.3867 15.9637 13.993 16.02 14.6055C16.0825 15.2805 16.3825 15.6992 16.795 15.6992C16.9825 15.6992 17.07 15.6555 17.2325 15.4805C17.4887 15.1992 17.5825 14.8305 17.5512 14.2742C17.5137 13.743 17.3262 13.3617 17.0262 13.218C16.7887 13.1055 16.7637 13.1055 16.5637 13.2055Z" fill="#7715A7"/>
<path d="M11.6315 18.3558C11.5627 18.4183 11.4815 18.5558 11.4627 18.662C11.4127 18.9245 11.694 19.2433 12.1752 19.4808C12.4752 19.6308 12.6065 19.6558 13.0315 19.6495C13.644 19.6495 14.0815 19.4745 14.4127 19.112C14.6002 18.8995 14.6315 18.8308 14.6002 18.6683C14.544 18.3808 14.394 18.2495 14.119 18.2495C13.9565 18.2495 13.8252 18.2995 13.694 18.412C13.3002 18.7433 12.8502 18.7495 12.4127 18.4308C12.1252 18.2245 11.8315 18.1933 11.6315 18.3558Z" fill="#7715A7"/>
</svg>
