<svg width="32" height="32" viewBox="0 0 32 32" fill="none" xmlns="http://www.w3.org/2000/svg">
<path d="M9.59425 0.0366974C7.03175 0.417948 4.913 1.45545 3.188 3.1867C1.613 4.75545 0.613 6.65545 0.14425 8.9367C0.00674955 9.61795 -0.0120004 12.0992 0.113 12.7804C0.75675 16.1429 2.68175 18.8679 5.563 20.4867C6.763 21.1617 7.913 21.5554 9.34425 21.7804C10.3505 21.9367 12.2567 21.8804 13.2255 21.6679C17.7005 20.6679 21.0192 17.1867 21.7505 12.7179C21.8193 12.3054 21.8755 11.7742 21.8755 11.5429V11.1179L22.2067 11.1617C23.338 11.2992 24.363 11.6117 25.4692 12.1617C26.5005 12.6679 27.2943 13.2367 28.088 14.0304C29.6068 15.5429 30.588 17.4867 30.913 19.5929C31.063 20.5367 31.0005 22.3117 30.7943 23.1867C30.3318 25.1242 29.4443 26.7367 28.088 28.0867C27.2943 28.8867 26.5005 29.4554 25.4692 29.9617C24.1943 30.5992 23.0755 30.9054 21.763 30.9867C19.9067 31.1054 18.3255 30.7867 16.6567 29.9617C15.6317 29.4554 14.838 28.8867 14.038 28.0929C12.7817 26.8367 11.8818 25.2804 11.438 23.5992C11.2255 22.8117 11.138 22.6867 10.8005 22.6867C10.5068 22.6867 10.313 22.8617 10.313 23.1304C10.313 23.3867 10.5255 24.1929 10.7505 24.8179C12.163 28.6429 15.463 31.3179 19.513 31.9117C20.5442 32.0617 22.3942 32.0054 23.3505 31.7929C26.9567 30.9867 29.8443 28.5679 31.213 25.1992C31.5005 24.4992 31.6693 23.9429 31.8568 23.0617C32.0193 22.2929 32.0193 19.8304 31.8568 19.0617C31.3568 16.7117 30.388 14.8867 28.813 13.3117C27.238 11.7367 25.413 10.7679 23.063 10.2679C22.638 10.1804 22.2442 10.1554 21.063 10.1554C19.413 10.1554 18.8567 10.2367 17.563 10.6679C13.4255 12.0429 10.388 15.9492 10.1442 20.2054L10.1067 20.8742L9.788 20.8367C9.2755 20.7742 8.338 20.5617 7.81925 20.3992C7.10675 20.1617 5.79425 19.4929 5.13175 19.0179C3.3005 17.7054 1.89425 15.6617 1.313 13.4742C1.04425 12.4492 0.98175 11.8179 1.01925 10.5617C1.05675 9.43045 1.1755 8.71795 1.5005 7.7492C1.71925 7.0867 2.40675 5.7617 2.85675 5.1242C4.538 2.7742 7.388 1.18045 10.238 1.0117C13.1818 0.830446 15.913 1.85545 17.963 3.9117C19.2317 5.1742 20.1005 6.6742 20.563 8.3992C20.663 8.7742 20.7942 9.13045 20.8505 9.19295C21.0005 9.35545 21.4005 9.3492 21.563 9.1867C21.7317 9.01795 21.7192 8.78045 21.5317 8.0742C20.4255 4.04295 17.188 1.0117 13.0942 0.180447C12.538 0.0679474 12.1567 0.0429478 11.0942 0.030447C10.3755 0.0179462 9.7005 0.0241966 9.59425 0.0366974ZM20.8567 11.7617C20.7192 13.9617 19.6318 16.2992 17.963 17.9617C17.1692 18.7617 16.3755 19.3304 15.3442 19.8367C14.088 20.4617 12.9505 20.7804 11.7568 20.8554L11.1067 20.8929L11.1442 20.2429C11.2192 19.0492 11.538 17.9117 12.163 16.6554C13.088 14.7742 14.513 13.2929 16.3567 12.2992C17.613 11.6179 19.263 11.1429 20.4317 11.1304L20.8942 11.1242L20.8567 11.7617Z" fill="#7715A7"/>
<path d="M7.83125 6.6875C7.75625 6.71875 7.66875 6.8 7.63125 6.86875C7.5875 6.95 7.5625 7.74375 7.5625 9.15625V11.3188L7.71875 11.4688C7.8625 11.6188 7.9 11.625 8.7375 11.625C9.825 11.625 10.1313 11.5438 10.525 11.15C11.1188 10.5563 11.1437 9.59375 10.5875 9C10.45 8.85 10.4438 8.83125 10.5312 8.59375C10.6562 8.24375 10.6437 7.76875 10.5063 7.4625C10.3563 7.13125 9.9375 6.78125 9.59375 6.69375C9.26875 6.6125 8.03125 6.60625 7.83125 6.6875ZM9.4625 7.75625C9.65625 7.90625 9.675 8.1125 9.50625 8.31875C9.4125 8.4375 9.31875 8.46875 8.975 8.4875L8.5625 8.5125V8.06875V7.625H8.93125C9.20625 7.625 9.3375 7.65625 9.4625 7.75625ZM9.76875 9.625C9.9625 9.78125 10.0312 10.0313 9.93125 10.2625C9.825 10.525 9.58125 10.625 9.03125 10.625H8.5625V10.0625V9.5H9.0875C9.5125 9.5 9.6375 9.525 9.76875 9.625Z" fill="#7715A7"/>
<path d="M20.7254 21.2562C20.5004 21.4375 20.5066 21.5687 20.9316 23.9C21.2754 25.7812 21.3004 25.9062 21.4629 26.0438C21.6816 26.2312 22.0004 26.2312 22.2191 26.0438C22.3504 25.9313 22.4566 25.6562 22.7754 24.5688C22.9941 23.8312 23.1816 23.2562 23.2004 23.2875C23.2191 23.3187 23.4004 23.9188 23.6004 24.625C24.0004 26.0438 24.0816 26.1875 24.4691 26.1875C24.7379 26.1875 24.9129 26.1062 25.0004 25.9375C25.1254 25.7 25.8691 21.6125 25.8129 21.4688C25.7441 21.2875 25.5129 21.125 25.3316 21.125C25.2566 21.125 25.1254 21.1875 25.0379 21.2625C24.9004 21.3875 24.8504 21.5563 24.6629 22.5562C24.5379 23.1875 24.4316 23.7125 24.4191 23.725C24.4066 23.7375 24.2629 23.2625 24.0941 22.6688C23.9316 22.0812 23.7566 21.5187 23.7066 21.425C23.6004 21.2125 23.4441 21.125 23.1691 21.125C22.7754 21.125 22.7066 21.2438 22.3129 22.5625C22.0504 23.4562 21.9441 23.7375 21.9129 23.625C21.8941 23.5375 21.7941 23.0062 21.6879 22.4375C21.5254 21.525 21.4879 21.3875 21.3441 21.2625C21.1441 21.0875 20.9379 21.0875 20.7254 21.2562Z" fill="#7715A7"/>
</svg>
