<svg width="25" height="32" viewBox="0 0 25 32" fill="none" xmlns="http://www.w3.org/2000/svg">
<path d="M11.4617 0.255859C10.4304 0.98086 9.33044 2.06836 8.49294 3.18711C7.06169 5.10586 6.16169 7.32461 5.83044 9.71211C5.70544 10.6184 5.69294 12.6309 5.80544 13.4934C5.84294 13.8121 5.86794 14.0934 5.85544 14.1059C5.79294 14.1621 5.06169 13.4871 4.78669 13.1246C4.32419 12.5059 4.05544 11.9684 3.73669 11.0309C3.56794 10.5496 3.38669 10.1184 3.33044 10.0746C3.16794 9.95586 2.83044 9.98086 2.68669 10.1246C2.54294 10.2684 1.90544 11.5184 1.58669 12.2934C1.08669 13.4871 0.580436 15.2121 0.349186 16.4996C0.0554358 18.1121 -0.0320642 20.4434 0.155436 21.7434C0.924186 26.9996 5.04919 31.1184 10.3304 31.8996C11.1804 32.0309 12.8492 32.0309 13.7554 31.8996C18.5304 31.2371 22.4804 27.7059 23.6867 23.0246C23.9992 21.8184 24.0804 20.9809 24.0429 19.4059C23.9929 17.4684 23.7554 15.8246 23.4929 15.6059C23.2992 15.4496 23.0242 15.4684 22.8304 15.6621C22.6492 15.8434 22.6492 15.8309 22.8742 17.2496C23.0429 18.3371 23.1117 20.3309 23.0054 21.2496C22.9117 22.0559 22.5804 23.3496 22.2867 24.0746C21.3554 26.3746 19.7492 28.2246 17.5429 29.5559L17.3117 29.6996L17.6554 29.2371C18.5429 28.0621 19.0617 26.5059 19.0617 25.0371C19.0617 24.3371 18.9304 23.3934 18.7179 22.5684C18.3929 21.2871 17.5992 19.2621 17.3554 19.0934C17.1367 18.9434 16.9742 18.9809 16.2429 19.3496C15.8617 19.5371 15.5429 19.6871 15.5304 19.6746C15.5242 19.6621 15.4804 19.4746 15.4429 19.2496C15.3367 18.6871 14.9867 17.6559 14.7242 17.1371C14.3179 16.3309 13.6179 15.3684 12.9367 14.6684C12.3804 14.0996 12.2492 13.9996 12.0867 13.9996C11.9742 13.9996 11.8242 14.0559 11.7429 14.1184C11.5929 14.2371 11.5929 14.2621 11.5867 15.3559C11.5804 16.2434 11.5492 16.5996 11.4429 17.1246C11.2617 17.9871 10.9929 18.7621 10.6117 19.5309C10.3179 20.1059 9.75544 21.0121 9.64294 21.0809C9.61169 21.0996 9.33044 20.6684 9.00544 20.1246C8.21169 18.7996 8.08669 18.7434 7.44919 19.4184C6.39919 20.5371 5.43044 22.3934 5.16169 23.8121C5.03669 24.4434 5.03669 25.6121 5.15544 26.2621C5.26169 26.8934 5.54294 27.7309 5.69294 27.8809C5.84919 28.0371 6.25544 28.0434 6.38669 27.8871C6.56794 27.6809 6.56794 27.5246 6.38044 26.9621C6.11169 26.1496 6.04294 25.6559 6.08044 24.7871C6.11794 23.8996 6.29294 23.2246 6.71794 22.3371C6.96794 21.8246 7.80544 20.4871 7.92419 20.4121C7.95544 20.3934 8.21169 20.7809 8.50544 21.2684C9.16794 22.3809 9.26794 22.4996 9.52419 22.4996C9.79294 22.4996 9.93044 22.3871 10.3929 21.7934C11.2804 20.6621 11.9367 19.3496 12.2742 18.0371C12.4054 17.5309 12.4804 17.1246 12.5992 16.1371C12.6429 15.7996 12.6804 15.8246 13.1742 16.5496C14.0117 17.7746 14.4429 18.9246 14.5429 20.1746C14.5867 20.7746 14.7179 20.9996 15.0304 20.9996C15.1179 20.9996 15.5554 20.8184 15.9992 20.5934C16.4429 20.3746 16.8242 20.2121 16.8429 20.2434C16.8617 20.2746 17.0054 20.6309 17.1617 21.0371C18.3367 24.0809 18.3367 26.2309 17.1742 28.1246C16.1804 29.7371 14.4554 30.8246 12.6304 30.9871C11.8992 31.0496 10.7242 30.9746 9.93669 30.8121C5.53669 29.9184 2.20544 26.5934 1.24294 22.1559C1.07419 21.3621 1.01169 19.3621 1.12419 18.2684C1.31794 16.3371 1.81169 14.4184 2.56794 12.5996L2.89919 11.8184L3.22419 12.4934C3.91169 13.9121 4.94294 14.9434 6.08044 15.3684C6.48669 15.5184 6.67419 15.5309 6.81794 15.4184C7.04919 15.2371 7.06794 15.1059 6.93669 14.3559C6.21794 10.1371 7.20544 6.28711 9.80544 3.18086C10.2867 2.59961 11.2242 1.67461 11.4554 1.55586C11.5492 1.49961 11.5617 1.53711 11.5617 1.93086C11.5617 2.47461 11.7117 3.64336 11.8804 4.43711C12.2867 6.29336 13.1617 8.09961 14.3054 9.41836C14.7742 9.95586 14.9617 10.0559 15.2679 9.94336C15.4054 9.89336 15.5492 9.64336 16.0492 8.64336L16.6679 7.40586L16.9679 7.86836C17.9429 9.37461 18.6929 11.6121 18.9929 13.8996C19.0929 14.6496 19.1242 14.7871 19.2492 14.8871C19.5367 15.1184 19.6804 15.0496 20.7867 14.1684C21.3554 13.7184 21.8429 13.3434 21.8617 13.3434C21.8804 13.3434 21.9617 13.5371 22.0429 13.7809C22.2617 14.4496 22.5929 14.6621 22.9617 14.3684C23.1992 14.1809 23.1742 13.9059 22.8429 13.0309C22.3554 11.7246 22.2429 11.7121 20.9367 12.7496C20.4242 13.1621 19.9867 13.4996 19.9679 13.4996C19.9492 13.4996 19.9367 13.4371 19.9367 13.3559C19.9367 13.0246 19.5429 11.3371 19.2804 10.5184C18.7179 8.75586 17.8867 7.18711 17.0429 6.26211C16.8367 6.04336 16.7554 5.99961 16.5617 5.99961C16.4179 5.99961 16.2929 6.04336 16.2367 6.10586C16.1804 6.16836 15.8742 6.74336 15.5554 7.38711C15.2304 8.03711 14.9492 8.56211 14.9304 8.56211C14.8242 8.56211 14.0679 7.38086 13.7492 6.71836C12.9554 5.07461 12.5617 3.28086 12.5617 1.27461C12.5617 0.412109 12.5492 0.312109 12.4304 0.162109C12.2304 -0.0941429 11.9242 -0.0628929 11.4617 0.255859Z" fill="#7715A7"/>
</svg>
