<svg width="32" height="32" viewBox="0 0 32 32" fill="none" xmlns="http://www.w3.org/2000/svg">
<path d="M28.9679 0.043026C27.3242 0.149277 25.0429 0.593027 23.2804 1.14928C21.8617 1.59303 19.9304 2.40553 19.7367 2.63053C19.5804 2.81178 19.5929 3.13053 19.7554 3.30553C19.9492 3.51178 20.2617 3.45553 21.0929 3.08053C21.4742 2.90553 21.8992 2.72428 22.0429 2.66803L22.3117 2.56178L22.6367 3.04928C24.2492 5.44928 26.5492 7.74928 28.9554 9.36803C29.2179 9.54303 29.4367 9.69928 29.4367 9.70553C29.4367 9.80553 28.6929 11.4305 28.3117 12.168C26.2867 16.0805 23.1929 19.368 19.3492 21.6868C17.5617 22.7618 15.2367 23.7493 13.2929 24.2555L12.7367 24.393L10.1742 21.8243L7.60541 19.2618L7.74291 18.7055C9.16791 13.2305 12.8242 8.16803 17.6867 4.93678C18.4992 4.39928 18.5617 4.33678 18.5617 4.05553C18.5617 3.74928 18.3179 3.53678 18.0179 3.58053C17.7742 3.62428 16.2367 4.65553 15.2867 5.41178C13.8554 6.56178 12.5242 7.88678 11.4054 9.28053C11.0992 9.65553 10.8367 9.96178 10.8179 9.95553C10.7929 9.94928 10.5367 9.84303 10.2429 9.72428C9.39916 9.38053 8.56166 9.23053 7.53041 9.23053C7.04916 9.23053 6.47416 9.26178 6.24916 9.30553C3.06166 9.89928 0.680411 12.2618 0.0866605 15.4243C-0.0508395 16.168 -0.00708948 17.818 0.174161 18.4993C0.449161 19.5118 0.76791 20.2243 1.30541 21.0243C1.76791 21.693 2.01166 21.9368 2.23666 21.9368C2.61166 21.9368 2.74916 21.7868 2.84291 21.2805C2.91166 20.893 3.18041 20.4493 3.55541 20.118C4.16166 19.5805 4.89916 19.4055 5.79916 19.5868C6.64291 19.7555 6.63041 19.743 6.20541 20.0618C5.33041 20.718 4.43666 21.7993 3.93666 22.793C3.65541 23.368 3.37416 24.1993 3.37416 24.468C3.37416 24.8868 3.73041 25.0305 4.32416 24.8493L4.61166 24.768L4.36791 25.243C3.88666 26.1743 3.37416 27.693 3.37416 28.168C3.37416 28.3993 3.60541 28.6243 3.83666 28.6243C4.28666 28.6243 5.40541 28.2555 6.47416 27.7493L7.23041 27.393L7.14916 27.6743C7.05541 27.9805 7.03666 28.3055 7.11166 28.4118C7.18041 28.518 7.41166 28.6243 7.57416 28.6243C7.80541 28.6243 8.67416 28.3243 9.20541 28.0618C10.1992 27.5618 11.2804 26.668 11.9367 25.793C12.2554 25.368 12.2429 25.3555 12.4117 26.1993C12.5929 27.0993 12.4179 27.8368 11.8804 28.443C11.5242 28.843 11.1117 29.0805 10.6117 29.1868C10.1992 29.268 10.0617 29.4118 10.0617 29.7368C10.0617 29.9993 10.2929 30.2305 11.0742 30.7493C11.8804 31.2868 12.4617 31.543 13.4992 31.818C14.1742 32.0055 15.7617 32.0493 16.5554 31.9118C18.0804 31.643 19.4304 30.943 20.5804 29.8118C21.1429 29.2493 21.1867 29.193 21.1867 28.9618C21.1867 28.6305 21.0117 28.4368 20.7179 28.4368C20.5304 28.4368 20.4304 28.5118 19.9242 29.018C18.9492 29.9868 17.9679 30.543 16.6742 30.8555C16.3304 30.943 15.9679 30.968 15.2179 30.968C14.3304 30.9618 14.1492 30.943 13.6117 30.7993C12.9617 30.618 12.3804 30.3743 11.9429 30.0993L11.6679 29.9243L11.8804 29.7868C12.8554 29.193 13.4117 28.2493 13.4804 27.093C13.5117 26.5805 13.4117 25.7618 13.2867 25.4368C13.2554 25.3618 13.4179 25.293 14.0742 25.0993C16.4742 24.3993 18.6429 23.393 20.8242 21.9805L21.1742 21.7555L21.2804 22.018C21.6117 22.8243 21.7554 23.5618 21.7554 24.4493C21.7554 25.2743 21.6867 25.7368 21.4554 26.468C21.2554 27.0993 21.2554 27.2993 21.4679 27.4805C21.8367 27.7993 22.1679 27.593 22.3992 26.8868C22.6929 25.9868 22.7679 25.4743 22.7679 24.468C22.7617 23.4743 22.6929 23.0055 22.3992 22.0993C22.3117 21.8243 22.1867 21.4993 22.1242 21.3743L22.0117 21.1493L22.5992 20.693C23.9117 19.668 25.4617 18.1243 26.5679 16.7368C30.0617 12.3555 31.9929 6.93678 31.9992 1.49303C31.9992 -0.125725 32.1242 -0.00697327 30.4929 0.011776C29.8242 0.0180264 29.1429 0.0305271 28.9679 0.043026ZM30.9804 2.10553C30.9179 3.97428 30.6117 5.90553 30.0867 7.73053C29.9617 8.17428 29.8429 8.56178 29.8179 8.60553C29.7367 8.75553 27.9804 7.43053 26.8367 6.36178C25.4929 5.09928 24.0554 3.41803 23.3554 2.27428C23.3054 2.18678 24.0054 1.96178 25.2617 1.66178C27.0679 1.23053 28.6179 1.02428 30.2117 1.00553L31.0179 0.999277L30.9804 2.10553ZM9.18666 10.4305C9.44291 10.5055 9.78666 10.6243 9.94916 10.6993L10.2429 10.8243L10.0179 11.1805C8.60541 13.343 7.60541 15.5118 6.89916 17.9243C6.70541 18.5805 6.63666 18.743 6.56166 18.7118C6.51166 18.693 6.24291 18.6305 5.96791 18.5805C4.39291 18.2805 2.98666 18.8555 2.21166 20.118L2.07416 20.3305L1.89916 20.0555C1.62416 19.618 1.38041 19.0368 1.19916 18.3868C1.04916 17.843 1.03041 17.6805 1.03666 16.7493C1.03666 15.8868 1.05541 15.6305 1.17416 15.1993C1.83041 12.6993 3.69291 10.918 6.25541 10.343C6.88041 10.1993 8.57416 10.2555 9.18666 10.4305ZM9.46166 22.5555L11.5179 24.6118L11.1992 25.043C10.5179 25.9618 9.16791 27.0618 8.46166 27.2743L8.32416 27.318L8.47416 26.8055C8.63666 26.2493 8.62416 26.0493 8.41791 25.9055C8.18666 25.743 7.94291 25.7993 7.34916 26.143C6.70541 26.518 5.41166 27.1368 4.90541 27.3118L4.57416 27.4243L4.68666 27.093C4.86166 26.5868 5.48041 25.293 5.85541 24.6493C6.19916 24.0555 6.25541 23.8118 6.09291 23.5805C5.94916 23.3743 5.74916 23.3618 5.19291 23.5243L4.68041 23.6743L4.72416 23.5368C4.86166 23.068 5.55541 22.093 6.16791 21.4868C6.54916 21.1118 7.29291 20.5055 7.37416 20.4993C7.39291 20.4993 8.33041 21.4243 9.46166 22.5555Z" fill="#7715A7"/>
<path d="M20.0059 6.31272C18.1997 6.56272 16.6309 7.76897 15.9622 9.42522C15.4872 10.6065 15.5122 12.2315 16.0309 13.394C16.5247 14.519 17.4872 15.4815 18.5997 15.9752C19.7684 16.4877 21.3809 16.519 22.5622 16.044C23.7122 15.5752 24.7247 14.619 25.2559 13.4815C25.7122 12.5002 25.8372 11.1377 25.5684 10.094C25.0122 7.94397 23.1747 6.43147 20.9372 6.29397C20.6434 6.27522 20.2247 6.28772 20.0059 6.31272ZM21.6247 7.41272C23.0372 7.74397 24.2559 8.96897 24.5934 10.3877C24.6997 10.8502 24.7122 11.7315 24.6184 12.2002C24.5809 12.3815 24.4247 12.794 24.2684 13.119C23.5684 14.5815 22.0872 15.4502 20.4434 15.3565C19.3872 15.3002 18.5559 14.9315 17.8122 14.1877C17.0684 13.444 16.6997 12.6127 16.6434 11.5565C16.5997 10.7877 16.7309 10.1815 17.0809 9.48147C17.5684 8.50647 18.6309 7.66272 19.6997 7.40647C20.1622 7.29397 21.1372 7.29397 21.6247 7.41272Z" fill="#7715A7"/>
<path d="M19.8865 7.84255C18.899 8.0613 18.0428 8.70505 17.5115 9.6238C17.0803 10.3738 16.974 11.5863 17.274 12.455C17.7865 13.9613 19.099 14.8988 20.6865 14.8925C23.3678 14.88 25.0428 12.105 23.8303 9.6863C23.1178 8.2738 21.4678 7.4988 19.8865 7.84255ZM21.4053 8.90505C22.5678 9.2238 23.3678 10.4988 23.174 11.7175C23.0303 12.6675 22.3115 13.505 21.399 13.78C21.0303 13.8925 20.324 13.8988 19.974 13.7988C19.1553 13.555 18.474 12.8738 18.2053 12.03C18.099 11.6925 18.1053 10.9738 18.2178 10.5988C18.4865 9.70505 19.3303 8.9738 20.249 8.8238C20.6365 8.7613 20.949 8.78005 21.4053 8.90505Z" fill="#7715A7"/>
</svg>
