<svg width="32" height="32" viewBox="0 0 32 32" fill="none" xmlns="http://www.w3.org/2000/svg">
<path d="M8.69372 0.161916C8.57497 0.311915 8.56247 0.411915 8.56247 1.22441V2.12441H8.33122C8.19997 2.13066 7.89997 2.16816 7.66247 2.21192L7.23747 2.29316L6.81247 1.41191C6.58747 0.930665 6.34372 0.486915 6.28747 0.436914C6.11247 0.293164 5.75622 0.324414 5.61872 0.493165C5.43122 0.718164 5.47497 0.930665 5.86872 1.78691L6.23747 2.59316L5.59372 2.91191C4.38122 3.52442 3.29372 4.33066 2.15622 5.47441C1.42497 6.21816 0.59997 7.20566 0.49997 7.46816C0.41872 7.68691 0.52497 7.92441 0.93122 8.43691C2.93122 10.9307 5.34372 12.5932 7.65622 13.0682C8.18747 13.1744 9.49372 13.1619 10.0937 13.0432C11.8875 12.6869 13.6937 11.6182 15.4375 9.87441C16.2875 9.03066 17.0312 8.14941 17.1625 7.83066C17.2687 7.58066 17.2437 7.50566 16.8437 6.96816C15.65 5.37441 13.475 3.51816 12.0812 2.91191C11.9312 2.84316 11.8125 2.78691 11.8125 2.77442C11.8125 2.76191 11.9937 2.35566 12.2187 1.86817C12.4437 1.38066 12.625 0.905664 12.625 0.811914C12.625 0.543164 12.4312 0.349415 12.1687 0.349415C12.05 0.349415 11.9 0.393165 11.8375 0.436914C11.7812 0.486915 11.5375 0.936914 11.3 1.43691C11.0625 1.93067 10.8562 2.34941 10.8437 2.36191C10.8312 2.37441 10.6 2.33692 10.3312 2.28066C10.0625 2.22441 9.78122 2.16816 9.70622 2.14942C9.56247 2.12441 9.56247 2.10566 9.56247 1.19941C9.56247 0.311914 9.55622 0.268166 9.41872 0.136915C9.20622 -0.0630846 8.86247 -0.0505848 8.69372 0.161916ZM9.90622 3.21816C10.5875 3.36191 11.2937 3.63066 11.4625 3.80567C11.7125 4.06816 12.0562 4.68691 12.1937 5.12441C12.375 5.68691 12.375 6.56816 12.1937 7.12441C11.725 8.60566 10.3562 9.62441 8.84372 9.62441C7.28122 9.62441 5.92497 8.58066 5.46247 7.02441C5.16872 6.03066 5.45622 4.69941 6.14372 3.90566C6.51247 3.47441 7.67497 3.13691 8.81247 3.13066C9.17497 3.13066 9.66872 3.16816 9.90622 3.21816ZM4.45622 5.04316C4.38747 5.24941 4.35622 5.58691 4.35622 6.12441C4.35622 6.77441 4.38122 6.99316 4.50622 7.40566C4.74372 8.17441 5.06872 8.70566 5.68747 9.31816C6.56872 10.1994 7.58747 10.6182 8.83122 10.6244C9.56247 10.6244 10.1562 10.4869 10.8687 10.1432C11.3625 9.90566 11.5437 9.77441 12 9.32441C12.3 9.02441 12.6312 8.61816 12.7437 8.42441C13.3187 7.39941 13.4937 6.16816 13.2187 5.08066L13.1375 4.74941L13.5187 5.04941C14.0562 5.45566 15.1 6.47441 15.6312 7.09941L16.075 7.62441L15.9062 7.86191C15.5562 8.33066 13.6437 10.1619 13.0625 10.5807C12.3437 11.0932 11.0125 11.7619 10.375 11.9369C8.88122 12.3432 7.54997 12.1807 5.99997 11.4119C4.84997 10.8432 3.26872 9.57441 2.28122 8.43691C1.53747 7.58066 1.57497 7.66816 1.84997 7.32441C2.34997 6.69941 4.38747 4.74941 4.54372 4.74941C4.54372 4.74941 4.50622 4.88066 4.45622 5.04316Z" fill="#7715A7"/>
<path d="M8.18047 3.84471C7.74922 3.98221 7.31797 4.30721 7.05547 4.69471C6.77422 5.09471 6.66797 5.45096 6.66797 5.93846C6.66797 6.42596 6.77422 6.78221 7.05547 7.18221C8.01172 8.57596 10.0992 8.38221 10.8242 6.83846C10.9805 6.50096 11.0117 6.36971 11.0117 5.93846C11.0117 5.50721 10.9805 5.37596 10.8242 5.03846C10.4555 4.25721 9.78672 3.80721 8.93672 3.76971C8.64297 3.75721 8.36172 3.78846 8.18047 3.84471ZM9.50547 4.97596C10.1555 5.42596 10.1555 6.45721 9.49297 6.91346C8.94297 7.29471 8.21797 7.13221 7.84922 6.54471C7.49297 5.96346 7.69922 5.21971 8.31172 4.88846C8.68047 4.69471 9.14922 4.72596 9.50547 4.97596Z" fill="#7715A7"/>
<path d="M22.1558 0.0942998C20.3308 0.3818 18.6058 1.23805 17.3308 2.48805C17.0121 2.80055 16.9246 2.93805 16.8371 3.22555C16.5496 4.21305 17.2121 5.1318 18.2183 5.1443C18.6871 5.15055 18.9558 5.0318 19.4871 4.5818C20.3433 3.85055 20.9933 3.48805 21.9183 3.21305C22.7121 2.9818 23.9183 2.93805 24.7496 3.11305C25.8058 3.33805 26.7808 3.83805 27.6121 4.57555C28.1183 5.02555 28.3621 5.13805 28.8433 5.13805C29.6996 5.13805 30.3058 4.5318 30.3121 3.6693C30.3121 3.02555 30.0746 2.67555 29.0933 1.9068C28.4871 1.4318 28.1808 1.23805 27.5371 0.92555C26.6996 0.5068 25.7558 0.21305 24.7683 0.0693002C24.1871 -0.0181999 22.7933 -0.00570011 22.1558 0.0942998ZM24.7933 1.10055C26.3308 1.3443 27.8183 2.06305 28.9058 3.08805C29.3621 3.51305 29.4246 3.7193 29.1746 3.9818C28.9433 4.2318 28.6808 4.17555 28.2621 3.7943C27.4996 3.0943 26.4121 2.50055 25.3433 2.2068C24.7558 2.0443 24.6433 2.0318 23.5308 2.03805C22.5183 2.03805 22.2746 2.06305 21.8558 2.17555C20.7121 2.48805 19.8183 2.9568 18.9183 3.71305C18.4058 4.15055 18.2121 4.21305 17.9558 4.0318C17.7871 3.91305 17.7246 3.66305 17.8246 3.47555C17.9371 3.27555 18.6183 2.6818 19.1246 2.3443C20.1496 1.66305 21.2183 1.26305 22.6246 1.0443C23.0246 0.9818 24.2496 1.01305 24.7933 1.10055Z" fill="#7715A7"/>
<path d="M23.4188 4.49447C22.8688 4.77572 21.35 6.16947 20.55 7.11947C18.975 9.00697 18.125 10.9882 18.125 12.782C18.125 14.9882 19.4062 17.4632 21.6688 19.6257C22.7125 20.6195 23.3875 21.1382 23.65 21.1445C23.9313 21.1507 24.5687 20.6695 25.5875 19.6882C26.8188 18.5007 27.7563 17.2945 28.2875 16.232C28.4125 15.9882 28.5188 15.7757 28.5312 15.7632C28.5375 15.757 28.9375 15.932 29.4125 16.157C30.3438 16.5882 30.6062 16.6445 30.8125 16.4382C30.9875 16.2632 31 15.9257 30.8375 15.7445C30.7875 15.6882 30.3313 15.457 29.825 15.2195L28.9 14.7945L29.0188 14.2257C29.0875 13.9132 29.15 13.6195 29.1625 13.5757C29.1813 13.5195 29.425 13.5007 30.1125 13.5007C31 13.5007 31.0437 13.4945 31.175 13.357C31.375 13.1445 31.3625 12.8007 31.15 12.632C31 12.5132 30.9 12.5007 30.0938 12.5007H29.2125L29.1375 11.9445C29.0938 11.632 29.0437 11.3382 29.025 11.2882C28.9938 11.2132 29.1875 11.0945 29.8813 10.7632C30.375 10.5257 30.8125 10.2945 30.8562 10.2445C31 10.0632 30.9812 9.73197 30.8125 9.56322C30.6188 9.36947 30.375 9.41322 29.5813 9.77572C29.175 9.96322 28.8125 10.1257 28.7688 10.1382C28.7312 10.1507 28.5625 9.89447 28.4062 9.56947C27.8063 8.33822 26.8938 7.14447 25.65 5.93822C24.8313 5.15072 24.0125 4.48197 23.7812 4.41322C23.7063 4.39447 23.55 4.42572 23.4188 4.49447ZM24.4375 6.20697C25.2125 6.90072 25.7938 7.50697 26.2625 8.11322L26.5625 8.48822L26.2 8.38822C25.6625 8.23822 24.6 8.25697 23.9625 8.43197C22.7875 8.75697 21.6875 9.65072 21.1562 10.7257C20.3688 12.307 20.5688 14.257 21.6437 15.5945C22.2562 16.3507 23.0438 16.8757 23.9813 17.1382C24.5938 17.307 25.6562 17.3257 26.2 17.1757L26.5625 17.0757L26.2625 17.457C25.9313 17.8945 24.5875 19.257 24.05 19.7132C23.6188 20.0757 23.7063 20.107 22.7375 19.2257C20.7125 17.4007 19.4312 15.3007 19.1812 13.4195C18.8688 11.0257 20.325 8.38197 23.3938 5.76322C23.525 5.65697 23.65 5.56322 23.675 5.56322C23.7 5.56322 24.0438 5.85072 24.4375 6.20697ZM26.125 9.41322C26.75 9.59447 27.4875 10.0507 27.65 10.3695C27.7812 10.6257 28.05 11.482 28.1188 11.9007C28.2688 12.7382 28.175 13.7445 27.8562 14.6757C27.6438 15.282 27.5563 15.4007 27.1125 15.6882C25.6125 16.657 23.8125 16.4382 22.6063 15.132C21.3688 13.7945 21.3625 11.7757 22.5938 10.4507C23.5312 9.43197 24.8313 9.05072 26.125 9.41322Z" fill="#7715A7"/>
<path d="M25.0196 10.6258C24.0258 10.7695 23.2571 11.6195 23.2008 12.6383C23.1696 13.1633 23.2696 13.5508 23.5383 13.982C24.1008 14.8695 25.3071 15.2133 26.2633 14.7695C26.9508 14.4445 27.3758 13.8945 27.5133 13.132C27.6821 12.2383 27.1883 11.257 26.3696 10.8445C26.1196 10.7133 25.9571 10.6695 25.4696 10.6008C25.4008 10.5883 25.2008 10.6008 25.0196 10.6258ZM25.7946 11.6945C26.1758 11.8383 26.5571 12.3758 26.5633 12.7695C26.5633 13.1508 26.2383 13.657 25.8571 13.8508C25.6008 13.9883 25.1258 13.9758 24.8258 13.8195C23.7633 13.2758 24.1321 11.6383 25.3258 11.6258C25.4883 11.6258 25.6946 11.657 25.7946 11.6945Z" fill="#7715A7"/>
<path d="M11.9 13.9628C11.7875 14.0128 11.4062 14.244 11.05 14.4878C7.59375 16.8065 4.69375 20.3753 3.19375 24.169C2.625 25.6003 2.0625 27.8378 2.0625 28.6565C2.0625 30.044 2.9625 31.3315 4.28125 31.8315C4.64375 31.9628 4.73125 31.969 7.40625 31.9878C9.4125 32.0003 10.2312 31.9878 10.4375 31.9315C11.1875 31.7315 11.9625 31.1315 12.275 30.5128C12.6438 29.7878 12.625 30.2378 12.625 21.869C12.625 14.6565 12.6188 14.194 12.5188 14.0753C12.3688 13.9003 12.1375 13.8565 11.9 13.9628ZM11.6125 22.4815L11.5938 29.594L11.45 29.894C11.2312 30.3253 10.8125 30.719 10.4 30.8753C10.0625 31.0003 9.95625 31.0065 7.44375 30.9878L4.84375 30.969L4.425 30.7628C3.69375 30.4003 3.18125 29.6878 3.09375 28.894C3.00625 28.1315 3.55 25.9815 4.28125 24.219C5.575 21.0815 7.96875 18.0565 10.875 15.869C11.2312 15.6003 11.55 15.3753 11.575 15.3753C11.6062 15.3753 11.6188 18.5753 11.6125 22.4815Z" fill="#7715A7"/>
<path d="M9.79936 18.3816C8.79936 19.1191 7.71811 20.3441 6.81811 21.7629C6.09936 22.9004 5.24311 24.7004 5.23061 25.1129C5.22436 25.3879 5.42436 25.5879 5.71811 25.5879C6.01186 25.5879 6.12436 25.4566 6.37436 24.8441C6.62436 24.2191 7.28686 22.9441 7.70561 22.2816C8.53061 20.9816 9.45561 19.9254 10.4181 19.2004C10.7056 18.9816 10.9681 18.7504 10.9994 18.6816C11.0931 18.5129 11.0181 18.2066 10.8556 18.0941C10.5931 17.9129 10.3556 17.9754 9.79936 18.3816Z" fill="#7715A7"/>
<path d="M6.58792 28.0248C5.76917 28.181 5.24417 28.506 5.13167 28.9248C5.01917 29.3123 5.23167 29.6185 5.60667 29.6248C5.76292 29.6248 5.84417 29.5748 5.98167 29.406C6.22542 29.0998 6.65667 28.9748 7.50042 28.9748C8.36917 28.9685 8.76917 29.0748 9.06917 29.381C9.34417 29.656 9.58167 29.6998 9.81917 29.506C9.99417 29.3685 10.0192 28.9873 9.88167 28.7248C9.75667 28.4998 9.28792 28.2123 8.84417 28.0935C8.32542 27.956 7.14417 27.9185 6.58792 28.0248Z" fill="#7715A7"/>
<path d="M15.7063 15.3256C15.55 15.4006 14.8188 16.4881 14.5125 17.1006C14.2938 17.5381 14.125 18.0694 14.125 18.3444C14.125 18.9506 14.575 19.6381 15.1625 19.9381C15.5688 20.1444 16.2687 20.1506 16.7 19.9569C17.4813 19.6006 17.9125 18.6819 17.6813 17.8444C17.5 17.1881 16.4375 15.4194 16.1562 15.3131C15.9563 15.2381 15.8813 15.2381 15.7063 15.3256ZM16.6875 18.0631C16.7687 18.3569 16.7687 18.4131 16.6562 18.6506C16.525 18.9319 16.1187 19.1506 15.8438 19.1006C15.425 19.0194 15.075 18.5694 15.1625 18.2006C15.2125 17.9944 15.55 17.3006 15.7812 16.9381L15.95 16.6756L16.2875 17.2569C16.475 17.5819 16.6562 17.9444 16.6875 18.0631Z" fill="#7715A7"/>
<path d="M19.2496 22.1314C18.6621 22.2127 17.7746 22.5002 17.2621 22.7877C16.8121 23.0377 15.9684 23.7002 15.9121 23.8502C15.8434 24.0314 15.8746 24.9189 15.9684 25.4752C16.5121 28.5877 18.9309 31.0939 22.0621 31.7814C22.6996 31.9189 24.1059 31.9752 24.7621 31.8814C27.9559 31.4189 30.5121 29.1189 31.2996 26.0002C31.4746 25.3189 31.5746 24.1814 31.4871 23.9252C31.4121 23.7189 30.8309 23.2127 30.2934 22.8877C28.3746 21.7314 25.8309 21.8439 23.9871 23.1689L23.6996 23.3752L23.1871 23.0377C22.0746 22.2939 20.6059 21.9564 19.2496 22.1314ZM21.2371 23.2564C21.8559 23.4127 22.6309 23.8252 23.0809 24.2439C23.5996 24.7252 23.7684 24.7252 24.3121 24.2377C24.7871 23.8064 25.5184 23.4127 26.1684 23.2439C26.8684 23.0564 27.8621 23.0564 28.5246 23.2439C28.9871 23.3752 29.8059 23.7564 30.0934 23.9752C30.2184 24.0689 30.2121 24.0752 29.9684 24.2877C29.4996 24.6939 28.7184 25.2064 28.0621 25.5439C25.8121 26.6877 23.2559 26.9127 20.7871 26.1752C19.6684 25.8439 18.2934 25.1064 17.4496 24.3877L17.1246 24.1064L17.3246 23.9502C17.8184 23.5814 18.8246 23.2002 19.5621 23.1064C19.9309 23.0564 20.7559 23.1314 21.2371 23.2564ZM30.3121 25.7689C29.7496 27.9689 28.1121 29.7689 25.9684 30.5377C25.0746 30.8564 24.3809 30.9564 23.4059 30.9189C22.5246 30.8814 21.9371 30.7564 21.1496 30.4377C19.5496 29.8002 18.2184 28.5314 17.4934 26.9627C17.2496 26.4439 16.9684 25.5502 17.0121 25.4377C17.0246 25.4064 17.2559 25.5377 17.5309 25.7252C20.2809 27.6189 23.8309 28.1127 27.0684 27.0627C28.0809 26.7314 29.3184 26.0814 30.1559 25.4502C30.2934 25.3439 30.4121 25.2689 30.4184 25.2752C30.4309 25.2877 30.3809 25.5064 30.3121 25.7689Z" fill="#7715A7"/>
</svg>
