<svg width="27" height="32" viewBox="0 0 27 32" fill="none" xmlns="http://www.w3.org/2000/svg">
<path d="M9.38216 0.161837C9.21341 0.380587 9.21966 0.586838 9.40091 0.899338C9.58216 1.21184 9.87591 2.01809 9.87591 2.19934C9.87591 2.33059 9.86341 2.33059 8.98841 2.29309C7.85716 2.24309 7.07591 2.11184 6.28216 1.83684C5.31966 1.49934 5.22591 1.47434 5.04466 1.52434C4.95091 1.54309 4.83841 1.64309 4.78216 1.74934C4.69466 1.91809 4.70091 1.99309 4.85091 2.69934C5.15091 4.11809 5.64466 5.33684 6.34466 6.36184L6.69466 6.87434H6.51966C6.09466 6.88059 5.53841 7.30559 5.34466 7.77434C5.18841 8.13684 5.21341 8.70559 5.39466 9.05559C5.55716 9.37434 5.98216 9.73684 6.25716 9.79309C6.35716 9.81184 6.43841 9.84934 6.43841 9.87434C6.43841 9.93684 5.97591 10.5931 5.66341 10.9681C5.52591 11.1368 4.93216 11.8306 4.34466 12.4993C2.13216 15.0306 1.50716 15.9618 0.750909 17.8493C-0.0740913 19.9118 -0.249091 22.8243 0.338409 24.8431C1.41966 28.5493 4.81966 31.0931 9.71966 31.8493C10.6634 31.9993 13.6947 32.0181 14.5947 31.8868C19.0384 31.2181 22.1884 29.2493 23.6572 26.2181C24.3072 24.8743 24.5259 23.8618 24.5259 22.1556C24.5259 19.6056 23.9259 17.5743 22.5572 15.4681C21.9884 14.5931 21.7197 14.2556 20.3759 12.7181C19.4072 11.6118 18.9697 11.0931 18.7009 10.7368C18.6322 10.6493 18.6322 10.6368 18.7322 10.6618C20.8759 11.1743 24.3509 11.9368 24.5634 11.9368C24.9009 11.9368 25.4009 11.7118 25.6384 11.4618C25.8822 11.2056 26.0134 10.8368 26.0134 10.4368C26.0134 9.97434 25.8572 9.60559 25.5259 9.31809C25.2322 9.06184 24.9759 8.97434 23.6322 8.67434L22.9822 8.53059L23.5384 8.36184C24.1634 8.16809 24.4947 7.93684 24.6884 7.55559C25.2134 6.53684 24.5072 5.35559 23.3822 5.35559C23.1259 5.35559 22.4572 5.51809 20.8884 5.95559C19.7134 6.28684 18.7197 6.56184 18.6759 6.56184C18.6384 6.56184 18.5197 6.45559 18.4072 6.33059L18.2009 6.09309L18.5322 5.43684C19.0509 4.40559 19.7134 2.84309 19.9634 2.09309C20.3384 0.936838 20.4072 0.374338 20.1884 0.136837C20.0322 -0.0319138 19.8072 -0.0381622 19.0634 0.0930882C17.3759 0.393087 15.5572 0.505587 13.8197 0.424337C12.7072 0.374338 11.2384 0.224337 10.5009 0.0868378C9.77591 -0.050663 9.53216 -0.0319138 9.38216 0.161837ZM11.6884 1.27434C14.1384 1.54934 16.3572 1.53059 18.4884 1.21184C18.8447 1.15559 19.1447 1.12434 19.1634 1.14309C19.2634 1.24309 18.5697 2.98059 17.7697 4.63684C17.2759 5.64934 17.1447 5.87434 17.0384 5.87434C16.6822 5.88059 16.0197 6.38684 15.9072 6.74309C15.8697 6.86809 15.8259 6.87434 15.2447 6.87434H14.6259L14.4322 6.44934C13.7759 5.01809 13.4134 3.86809 13.3134 2.93684C13.2134 1.96184 13.1634 1.92434 12.1009 2.08059C11.7197 2.14309 11.3009 2.19309 11.1697 2.20559L10.9259 2.21809L10.8134 1.78059C10.7509 1.53684 10.6759 1.29309 10.6509 1.22434C10.6134 1.13059 10.6322 1.11809 10.7259 1.14309C10.7884 1.16809 11.2259 1.22434 11.6884 1.27434ZM6.43841 2.95559C7.38841 3.21809 7.93216 3.27434 9.53216 3.27434C10.5884 3.26809 11.2884 3.23684 11.6947 3.17434L12.2947 3.08684L12.3947 3.64934C12.5197 4.33684 12.8259 5.29934 13.2072 6.18684L13.4884 6.84309L10.7634 6.86184C8.23216 6.87434 8.03216 6.86809 7.92591 6.76809C7.32591 6.16184 6.51966 4.74309 6.15716 3.67434C5.92591 2.96809 5.88841 2.78059 6.01966 2.83059C6.05716 2.84309 6.25091 2.89934 6.43841 2.95559ZM23.7697 6.56809C23.9197 6.77434 23.8697 7.08684 23.6572 7.22434C23.5759 7.27434 22.9259 7.48059 22.2072 7.68684L20.9072 8.04934L19.8822 7.81809L18.8634 7.58684L19.9447 7.28059C20.5447 7.11184 21.4947 6.84309 22.0634 6.68059C23.2572 6.33684 23.5759 6.31809 23.7697 6.56809ZM17.5322 6.91184C17.7634 7.00559 17.8134 7.26184 17.8134 8.40559V9.51184L17.6322 9.69309C17.4322 9.88684 17.3197 9.91184 17.1072 9.79934C16.8322 9.65559 16.8197 9.58684 16.8134 8.35559C16.8134 7.19309 16.8134 7.18059 16.9697 7.03059C17.1197 6.88059 17.3259 6.83684 17.5322 6.91184ZM15.8134 8.37434V8.87434H13.3134H10.8072L10.6572 9.03059C10.4134 9.26809 10.4884 9.66809 10.7947 9.80559C10.8947 9.84934 11.7322 9.87434 13.4009 9.87434H15.8572L16.0447 10.1806C16.2884 10.5743 16.6884 10.8118 17.1697 10.8556L17.5322 10.8931L17.8884 11.3681C18.0822 11.6306 18.8072 12.4806 19.4884 13.2618C20.8634 14.8243 21.2697 15.3431 21.8322 16.2306C22.8009 17.7806 23.3197 19.3306 23.5072 21.2181C24.0009 26.2618 20.6447 29.9056 14.6259 30.8556C13.6009 31.0181 10.9009 31.0118 9.87591 30.8493C8.33216 30.6056 6.96966 30.1868 5.71966 29.5618C3.39466 28.3993 1.85091 26.5993 1.25716 24.3743C0.807159 22.6743 0.944659 20.3368 1.60091 18.5181C2.25716 16.7118 2.96966 15.6118 4.96966 13.3431C6.56341 11.5306 6.88841 11.1243 7.40091 10.2681L7.62591 9.88684L8.31966 9.86184C8.95716 9.84309 9.01966 9.83059 9.13216 9.69309C9.28841 9.49934 9.28216 9.19934 9.11341 9.01809C8.98216 8.88059 8.95091 8.87434 7.83216 8.87434C6.41966 8.87434 6.25091 8.81809 6.25091 8.32434C6.25091 8.23684 6.31341 8.09934 6.38841 8.01809L6.51966 7.87434H11.1697H15.8134V8.37434ZM21.9634 9.33684C25.0072 10.0368 25.0009 10.0368 25.0009 10.4493C25.0009 10.6556 24.7572 10.9368 24.5822 10.9368C24.5197 10.9368 23.2072 10.6431 21.6572 10.2931L18.8447 9.64309L18.8259 9.13059L18.8072 8.61184L18.9822 8.64934C19.0759 8.67434 20.4197 8.98059 21.9634 9.33684Z" fill="#7715A7"/>
<path d="M11.9266 11.9369C11.5766 12.0432 11.3203 12.2557 11.1641 12.5744C11.0266 12.8494 11.0016 12.9869 11.0016 13.4432V13.9869L10.6078 14.1182C10.0828 14.2932 9.33283 14.7932 8.97033 15.2057C7.87033 16.4619 7.69533 18.3932 8.55158 19.8057C9.01408 20.5744 9.73283 21.1619 10.6141 21.4807C10.9578 21.6119 11.2078 21.6432 12.0016 21.6869C13.0703 21.7369 13.1891 21.7682 13.5328 22.0744C14.1141 22.5807 14.1578 23.4744 13.6391 24.0182C13.3203 24.3557 13.0391 24.4494 12.2828 24.4869C11.5016 24.5182 11.1641 24.4494 10.8766 24.2119C10.6203 23.9932 10.5641 23.8682 10.4953 23.3994C10.4328 22.9494 10.2641 22.6494 9.96408 22.4369C9.33908 22.0119 8.45158 22.2369 8.12658 22.9057C8.00158 23.1682 7.98908 23.2619 8.02033 23.7119C8.07658 24.4619 8.27033 24.9994 8.69533 25.5807C9.11408 26.1619 9.96408 26.7182 10.6766 26.8807L10.9891 26.9557L11.0141 27.5244C11.0391 28.2057 11.1641 28.5057 11.5516 28.7744C12.0203 29.1057 12.6578 29.0619 13.1078 28.6682C13.4266 28.3869 13.5016 28.1619 13.5016 27.4807V26.8994L13.8641 26.7869C15.3203 26.3307 16.3141 25.0994 16.5078 23.5182C16.7078 21.9244 15.8516 20.3307 14.4328 19.6307C13.7828 19.3119 13.2203 19.1869 12.3828 19.1869C11.6203 19.1869 11.3328 19.1119 11.0078 18.8369C10.2328 18.1682 10.4078 16.9869 11.3453 16.5557C11.5453 16.4619 11.7578 16.4369 12.4328 16.4369C13.2141 16.4369 13.2891 16.4494 13.5328 16.5932C13.8953 16.7994 14.0141 17.0744 14.0453 17.7744C14.0828 18.6119 14.1141 18.7307 14.3516 18.9994C14.9328 19.6432 15.9516 19.5432 16.3828 18.7932C16.5203 18.5494 16.5328 18.4682 16.5266 17.6869C16.5266 17.0057 16.5016 16.7619 16.3891 16.4057C16.0078 15.1807 15.0703 14.2994 13.8328 14.0057L13.5016 13.9244V13.3682C13.5016 12.9369 13.4766 12.7494 13.3766 12.5682C13.1016 12.0244 12.4953 11.7619 11.9266 11.9369ZM12.3891 12.9494C12.4766 13.0182 12.4953 13.1807 12.5141 13.8244C12.5391 14.8057 12.5641 14.8494 13.2391 14.9307C14.2828 15.0619 15.1078 15.7369 15.4203 16.7182C15.4641 16.8557 15.5203 17.2369 15.5391 17.5619C15.5766 18.0994 15.5703 18.1682 15.4516 18.3119C15.3453 18.4369 15.3016 18.4557 15.2078 18.3994C15.1141 18.3432 15.0891 18.2119 15.0516 17.7057C15.0016 16.9369 14.9328 16.6682 14.6891 16.2994C14.4578 15.9494 14.1516 15.7057 13.7453 15.5557C13.4891 15.4557 13.2641 15.4369 12.4516 15.4369C11.3391 15.4369 11.0578 15.4994 10.5453 15.8369C10.1578 16.0994 9.92658 16.3807 9.70158 16.8619C9.55783 17.1682 9.53283 17.2994 9.53908 17.7807C9.53908 18.4807 9.70158 18.9182 10.1078 19.3744C10.6328 19.9557 11.2016 20.1869 12.1578 20.1869C12.9391 20.1869 13.3891 20.2744 13.9016 20.5182C15.3328 21.2057 15.9203 22.9182 15.2203 24.3494C14.8078 25.1869 14.0891 25.7307 13.1203 25.9307C12.5766 26.0432 12.5391 26.1182 12.5141 27.0557C12.5016 27.4869 12.4641 27.8807 12.4266 27.9244C12.3391 28.0244 12.2203 28.0182 12.1016 27.8994C12.0203 27.8244 12.0016 27.6494 12.0016 27.0369C12.0016 26.1057 11.9703 26.0557 11.2641 25.9557C10.0891 25.7807 9.23908 24.9744 9.04533 23.8557C8.97033 23.4119 9.02658 23.2494 9.25158 23.2494C9.40783 23.2494 9.47658 23.3682 9.52658 23.7119C9.60783 24.3369 10.0391 24.9807 10.5641 25.2494C11.0266 25.4869 12.1953 25.5744 13.0266 25.4369C14.9391 25.1244 15.6953 22.7932 14.3328 21.4057C13.8203 20.8932 13.2141 20.6869 12.1703 20.6869C11.1453 20.6869 10.3891 20.3869 9.78908 19.7494C8.25158 18.1057 9.11408 15.4807 11.3641 14.9682C11.9766 14.8244 12.0016 14.7869 12.0016 13.8494C12.0016 13.2432 12.0203 13.0807 12.1078 12.9869C12.2266 12.8557 12.2578 12.8494 12.3891 12.9494Z" fill="#7715A7"/>
</svg>
