<svg width="26" height="32" viewBox="0 0 26 32" fill="none" xmlns="http://www.w3.org/2000/svg">
<path d="M5.01875 0.13125C4.4875 0.393749 4.25 0.824999 4.25 1.53125V2H3.8375C2.8 2 2.275 2.4875 2.20625 3.5L2.16875 3.98125L1.6875 4.01875C0.95625 4.06875 0.575 4.3 0.31875 4.875C0.19375 5.15625 0.1875 5.20625 0.1875 18.0375V30.925L0.3625 31.2562C0.46875 31.4688 0.6375 31.6625 0.80625 31.7812L1.075 31.9688L4.84375 31.9875L8.61875 32L8.74375 31.8625C8.9125 31.6875 8.9125 31.375 8.75 31.2L8.61875 31.0625H5.1625C1.6 31.0625 1.375 31.05 1.25 30.8125C1.20625 30.7375 1.1875 26.1625 1.1875 18.0125C1.1875 5.75625 1.19375 5.31875 1.30625 5.18125C1.39375 5.06875 1.5 5.0375 1.80625 5.0125L2.1875 4.9875V10.525C2.1875 15.2687 2.2 16.0938 2.28125 16.2437C2.425 16.5312 2.74375 16.5875 3.025 16.3687L3.1875 16.2437L3.2 9.7375L3.21875 3.2375L3.36875 3.11875C3.475 3.03125 3.6125 3 3.88125 3H4.25V14.9375C4.25 25.5938 4.2625 26.9062 4.35 27.1125C4.46875 27.4062 4.7125 27.6625 5.03125 27.8312L5.28125 27.9688L14.0563 27.9875L22.825 28L22.8 28.3875C22.75 29.0687 23.8813 29 13 29C3.75625 29 3.5125 29 3.36875 28.8812L3.21875 28.7625L3.2 23.1937L3.1875 17.6312L3.01875 17.5062C2.71875 17.2625 2.30625 17.3938 2.21875 17.7625C2.2 17.8438 2.19375 20.3938 2.2 23.4375L2.21875 28.9688L2.39375 29.2625C2.58125 29.5875 2.85625 29.8187 3.18125 29.9312C3.3375 29.9813 5.75 30 12.0688 30H20.75V30.35C20.75 30.775 20.6875 30.9062 20.4312 30.9937C20.2938 31.0437 18.6938 31.0625 15.1188 31.0625H10.0063L9.88125 31.225C9.7125 31.4375 9.7125 31.625 9.88125 31.8375L10.0125 32L15.4313 31.9875L20.85 31.9688L21.1125 31.7938C21.2563 31.7 21.45 31.5062 21.5438 31.3687C21.6875 31.15 21.7188 31.0312 21.7375 30.5562L21.7625 30H22.2125C23.1875 30 23.7313 29.4875 23.7938 28.5L23.8313 28.0187L24.3125 27.9812C25.0125 27.9375 25.4188 27.6875 25.6625 27.1625L25.8125 26.8438V16.4312V6.01875L25.6812 5.85C25.5 5.61875 25.125 5.61875 24.9438 5.85L24.8125 6.01875V16.3438C24.8125 26.4187 24.8125 26.675 24.6938 26.8187L24.575 26.9688L15.0688 26.9875L5.55625 27L5.40625 26.85L5.25 26.6937V13.9812C5.25 1.55 5.25 1.2625 5.36875 1.11875L5.4875 0.96875L14.825 0.949999C19.9563 0.94375 24.25 0.949999 24.3625 0.96875C24.475 0.987499 24.625 1.0625 24.6938 1.13125C24.8062 1.24375 24.8125 1.35 24.8125 2.86875C24.8125 4.3625 24.8188 4.5 24.9312 4.63125C25.1 4.8375 25.525 4.8375 25.6938 4.63125C25.8062 4.5 25.8125 4.3625 25.8125 2.78125V1.075L25.6375 0.74375C25.5312 0.53125 25.3625 0.3375 25.1938 0.21875L24.925 0.03125L15.1062 0.0124989L5.28125 0L5.01875 0.13125Z" fill="#7715A7"/>
<path d="M6.6875 2.10625C6.56875 2.16875 6.40625 2.3125 6.33125 2.43125L6.1875 2.64375V13.9625C6.1875 25.1438 6.1875 25.2812 6.3125 25.4875C6.38125 25.6 6.525 25.7437 6.6375 25.8125C6.8375 25.9375 6.96875 25.9375 14.9625 25.9375H23.075L23.3125 25.8062C23.4375 25.7375 23.5938 25.5875 23.6625 25.4812C23.7812 25.2875 23.7812 24.9937 23.7812 13.9563V2.63125L23.65 2.4625C23.5813 2.36875 23.4438 2.23125 23.35 2.1625C23.1812 2.03125 23.15 2.03125 15.0437 2.0125C7.39375 2 6.89375 2.00625 6.6875 2.10625ZM22.8125 9.5125L22.8062 16.0312L22.6812 15.875C21.075 13.925 20.5063 13.4375 19.8562 13.4375C19.3938 13.4375 19.1062 13.6125 18.0813 14.5437C17.475 15.1 15.9875 16.6812 14.8063 18.0312C14.4125 18.4812 14.0687 18.85 14.0438 18.8625C14.0188 18.8688 13.7688 18.6062 13.4875 18.2687C12.2938 16.8375 11.3 16 10.8 16C10.5062 16 10.1125 16.2312 9.525 16.7437C9.0625 17.1438 7.83125 18.4437 7.31875 19.0625L7.19375 19.2188L7.1875 11.1062V3H15H22.8125V9.5125ZM20.2625 14.7125C20.6813 15.05 21.6188 16.1625 22.3 17.1062L22.8125 17.825V21.3812V24.9375H15H7.1875V22.8687V20.7937L7.69375 20.1937C9.0625 18.575 10.5563 17.0625 10.7875 17.0625C11.025 17.0625 12.2188 18.2812 13.2063 19.5437C13.4563 19.8562 13.7313 20.15 13.8187 20.1875C14.1188 20.3187 14.275 20.2125 15.0125 19.3562C17.2375 16.7625 19.525 14.4375 19.85 14.4375C19.8938 14.4375 20.075 14.5625 20.2625 14.7125Z" fill="#7715A7"/>
<path d="M10.4937 4.9C9.85 5.06875 9.25 5.59375 8.95 6.2375C8.8 6.55625 8.78125 6.66875 8.78125 7.28125C8.78125 7.90625 8.8 8 8.95 8.31875C9.1875 8.79375 9.63125 9.23125 10.125 9.4625C10.5 9.64375 10.5813 9.65625 11.1875 9.65625C11.7375 9.65625 11.8937 9.63125 12.15 9.5125C13.6438 8.825 14.0813 6.975 13.0563 5.68125C12.5063 4.98125 11.4188 4.65 10.4937 4.9ZM11.9125 6.0375C12.525 6.4125 12.775 7.1625 12.5 7.8C12.2625 8.35625 11.775 8.6875 11.1875 8.6875C10.6313 8.6875 10.1375 8.375 9.86875 7.8625C9.7125 7.55625 9.7125 6.99375 9.86875 6.65C10 6.3625 10.3813 6.0125 10.6938 5.89375C11.0438 5.7625 11.5688 5.825 11.9125 6.0375Z" fill="#7715A7"/>
</svg>
