<svg width="32" height="32" viewBox="0 0 32 32" fill="none" xmlns="http://www.w3.org/2000/svg">
<path d="M6.41836 0.0875006C5.66836 0.29375 4.96211 1.075 4.64336 2.025C4.49336 2.475 4.47461 2.625 4.47461 3.40625C4.47461 4.2 4.48711 4.325 4.64336 4.775C4.96211 5.675 5.37461 6.225 6.01211 6.5625C6.36836 6.75625 6.45586 6.775 6.93711 6.78125C7.39336 6.78125 7.51836 6.75625 7.81836 6.60625C8.22461 6.4125 8.69961 5.95 8.95586 5.5125C9.04961 5.35 9.19961 4.99375 9.28711 4.71875C9.43086 4.29375 9.45586 4.10625 9.45586 3.46875C9.46211 2.60625 9.36211 2.15 9.02461 1.45625C8.76836 0.9375 8.22461 0.375 7.78711 0.181251C7.41836 0.0187502 6.80586 -0.0249996 6.41836 0.0875006ZM7.34336 1.11875C7.88086 1.36875 8.31211 2.0875 8.44336 2.94375C8.61211 4.08125 8.13086 5.3 7.36836 5.6875C7.06211 5.84375 6.85586 5.84375 6.51836 5.68125C6.07461 5.46875 5.69961 4.89375 5.53086 4.175C5.24336 2.9375 5.68711 1.575 6.51836 1.15625C6.89336 0.96875 7.01211 0.962501 7.34336 1.11875Z" fill="#7715A7"/>
<path d="M12.8684 0.0812502C12.0184 0.325 11.3809 1.05 11.0309 2.1875C10.8684 2.725 10.8372 3.75625 10.9684 4.35C11.1934 5.40625 11.7934 6.25625 12.5434 6.6125C12.8434 6.75 12.9934 6.78125 13.4059 6.78125C14.0434 6.78125 14.4559 6.59375 14.9497 6.075C15.5934 5.4 15.8997 4.54375 15.8934 3.40625C15.8934 2.29375 15.5934 1.43125 14.9622 0.75C14.3872 0.13125 13.5934 -0.125 12.8684 0.0812502ZM13.7809 1.11875C14.1247 1.28125 14.3934 1.58125 14.6184 2.0625C15.2372 3.39375 14.8309 5.1625 13.7872 5.7C13.2997 5.95 12.7059 5.69375 12.3247 5.0625C11.6309 3.90625 11.7747 2.20625 12.6372 1.375C13.0184 1 13.3622 0.925 13.7809 1.11875Z" fill="#7715A7"/>
<path d="M1.23125 5.33899C0.4125 5.64524 0 6.34524 0 7.43274C0 8.35149 0.3125 9.15774 0.90625 9.80774C1.75 10.714 2.89375 10.8827 3.675 10.214C4.6625 9.37024 4.53125 7.28899 3.4125 6.07649C2.78125 5.40149 1.8875 5.09524 1.23125 5.33899ZM2.15625 6.37024C2.29375 6.43274 2.53125 6.61399 2.675 6.77649C3.8 8.00149 3.375 10.1452 2.1375 9.50774C1.48125 9.17024 1 8.28274 1 7.42024C1 6.48274 1.46875 6.05774 2.15625 6.37024Z" fill="#7715A7"/>
<path d="M17.9194 5.36923C16.3507 6.00048 15.5007 8.36923 16.3382 9.76298C17.1882 11.1817 19.1382 10.7755 19.9882 9.00048C20.2757 8.38798 20.3757 7.98173 20.3757 7.38173C20.3757 6.51298 19.9757 5.74423 19.3507 5.42548C18.9819 5.23798 18.3132 5.21298 17.9194 5.36923ZM19.0319 6.45673C19.3882 6.81298 19.4694 7.43173 19.2507 8.13798C19.0069 8.92548 18.4194 9.54423 17.8507 9.60673C17.5882 9.63798 17.5507 9.62548 17.3507 9.42548C16.7694 8.84423 16.9569 7.49423 17.7319 6.71923C18.2444 6.20048 18.6882 6.11298 19.0319 6.45673Z" fill="#7715A7"/>
<path d="M9.48781 7.99375C9.21906 8.13125 5.10031 11.525 4.81906 11.8438C4.01906 12.7625 3.96906 14.4125 4.71281 15.425C4.98156 15.8 5.25656 16.0125 5.73781 16.2375C6.06281 16.3937 6.15656 16.4062 6.85656 16.4062H7.61906L8.31281 16.0437C9.12531 15.625 9.54406 15.5 10.1691 15.5C10.7691 15.5 11.1441 15.5875 11.6566 15.8438C12.1691 16.1 12.3316 16.1125 12.5316 15.9062C12.7128 15.7312 12.7316 15.4688 12.5878 15.2625C12.3191 14.875 11.1378 14.5 10.1878 14.5C9.38156 14.5 8.79406 14.6562 7.96906 15.0938C7.35031 15.4125 7.27531 15.4375 6.86906 15.4375C6.17531 15.4375 5.71906 15.1812 5.40031 14.6125C5.23781 14.3125 5.21906 14.225 5.21906 13.7188C5.21906 12.8187 5.26906 12.7562 6.90656 11.3875C9.85031 8.93125 9.91906 8.875 10.1816 8.875C10.4003 8.875 10.5941 9.01875 12.6003 10.6813C15.1441 12.7875 15.1566 12.8 15.1566 13.6562C15.1566 14.0562 15.1253 14.2188 15.0066 14.4625C14.7878 14.9 14.4503 15.2125 14.0253 15.3687C13.6003 15.525 13.5003 15.6312 13.5003 15.9125C13.5003 16.425 13.9378 16.5312 14.6503 16.2C16.1316 15.5062 16.6441 13.4937 15.7066 12.075C15.5441 11.8312 14.9441 11.3 13.3191 9.95C12.1316 8.96875 11.0316 8.09375 10.8816 8.01875C10.5253 7.83125 9.83156 7.825 9.48781 7.99375Z" fill="#7715A7"/>
<path d="M18.2751 15.564C17.3626 15.6952 16.5438 16.589 16.2126 17.814C16.0688 18.3577 16.0626 19.4515 16.2063 20.0015C16.4626 20.9765 17.0501 21.8015 17.7188 22.1265C18.1751 22.3515 18.8438 22.3702 19.3438 22.1827C20.6188 21.7077 21.4063 19.7452 21.0313 17.9702C20.7751 16.7702 19.9126 15.7452 19.0313 15.5952C18.8938 15.5702 18.7376 15.5452 18.6876 15.5327C18.6376 15.5265 18.4501 15.539 18.2751 15.564ZM19.0563 16.6577C19.3376 16.8015 19.7313 17.2952 19.8751 17.6765C20.0813 18.2265 20.1438 18.614 20.1063 19.1577C20.0001 20.7265 18.9688 21.7265 18.0563 21.139C16.7438 20.2952 16.8063 17.364 18.1563 16.664C18.3938 16.539 18.8251 16.539 19.0563 16.6577Z" fill="#7715A7"/>
<path d="M24.2492 15.7011C23.5742 15.9573 22.8992 16.8448 22.643 17.8136C22.4992 18.3573 22.4992 19.4573 22.643 20.0011C22.8055 20.6261 23.168 21.3011 23.5242 21.6573C23.968 22.1011 24.3555 22.2761 24.9367 22.3011C25.6117 22.3323 26.0367 22.1636 26.5367 21.6636C28.143 20.0573 27.7867 16.6886 25.918 15.7511C25.593 15.5886 25.4742 15.5636 25.068 15.5698C24.743 15.5698 24.4867 15.6136 24.2492 15.7011ZM25.493 16.6573C25.593 16.7073 25.7867 16.8761 25.9305 17.0386C26.5367 17.7261 26.7305 19.0573 26.368 20.0323C26.0742 20.8198 25.643 21.2573 25.1055 21.2948C24.8305 21.3198 24.7367 21.2948 24.493 21.1386C23.1742 20.2886 23.2367 17.3636 24.593 16.6636C24.8305 16.5386 25.2617 16.5386 25.493 16.6573Z" fill="#7715A7"/>
<path d="M13.0305 20.8061C12.1805 21.0311 11.6805 21.7311 11.6368 22.7811C11.593 23.7561 11.9118 24.6373 12.5618 25.3311C13.0243 25.8311 13.4993 26.0811 14.043 26.1123C14.568 26.1498 14.7993 26.0936 15.143 25.8686C16.3243 25.0873 16.2555 22.8498 15.0118 21.5498C14.4493 20.9623 13.6243 20.6498 13.0305 20.8061ZM13.918 21.9436C14.368 22.2186 14.7368 22.7686 14.9055 23.4186C15.0743 24.0623 14.9993 24.5373 14.6743 24.9061C14.518 25.0873 14.443 25.1248 14.243 25.1248C13.7243 25.1248 13.1993 24.6811 12.8493 23.9436C12.6743 23.5748 12.6555 23.4686 12.6555 22.9686C12.6555 22.3123 12.7743 22.0373 13.1243 21.8561C13.3743 21.7311 13.6055 21.7623 13.918 21.9436Z" fill="#7715A7"/>
<path d="M29.8181 20.8135C29.2681 20.9322 28.6369 21.4135 28.2431 22.026C27.9306 22.5072 27.7681 22.951 27.6931 23.5322C27.5494 24.7197 27.9869 25.7322 28.7869 26.0385C29.2056 26.1947 29.9369 26.1385 30.3556 25.9135C31.0619 25.526 31.6806 24.6885 31.9056 23.8135C32.0494 23.251 32.0119 22.2697 31.8306 21.8697C31.4681 21.0572 30.6681 20.6385 29.8181 20.8135ZM30.7056 21.9885C30.9306 22.2072 31.0181 22.5572 30.9869 23.1385C30.9431 23.876 30.6056 24.4947 29.9994 24.9322C29.5306 25.2697 29.0619 25.176 28.8181 24.701C28.5681 24.201 28.6056 23.5947 28.9306 22.9072C29.1619 22.4072 29.4306 22.1072 29.8306 21.9072C30.2119 21.7197 30.4369 21.7385 30.7056 21.9885Z" fill="#7715A7"/>
<path d="M21.2809 23.4445C21.1809 23.4883 20.9934 23.5883 20.8747 23.6758C20.5247 23.9383 18.1184 25.932 17.8622 26.1758C17.6247 26.4008 17.5684 26.5945 17.6622 26.8445C17.7247 26.9945 18.0372 27.132 18.2184 27.0883C18.3122 27.0633 19.0872 26.457 19.9559 25.7383C20.8247 25.0195 21.5934 24.4195 21.6747 24.4008C21.7497 24.3758 21.8809 24.382 21.9622 24.4008C22.1684 24.4508 26.2372 27.8195 26.4809 28.1383C27.1747 29.0633 26.7559 30.4883 25.6809 30.882C25.4747 30.957 25.2622 31.0758 25.2184 31.1508C25.0747 31.3508 25.1059 31.6133 25.2872 31.7945C25.4184 31.9258 25.4872 31.9508 25.6872 31.9195C26.3184 31.8383 27.1247 31.2445 27.4684 30.6195C27.9747 29.682 27.9247 28.432 27.3372 27.582C27.1684 27.332 26.5247 26.7633 24.9122 25.4258C23.7059 24.432 22.6372 23.5695 22.5309 23.5195C22.2997 23.3945 21.5372 23.3508 21.2809 23.4445Z" fill="#7715A7"/>
<path d="M16.3753 27.5007C15.9128 27.9632 15.6878 29.1257 15.9065 29.957C16.2003 31.082 16.9565 31.7757 18.0753 31.9507C18.7878 32.057 19.219 31.9632 20.1253 31.4945C20.7065 31.1882 20.9378 31.1007 21.3315 31.0445C21.994 30.9507 22.6065 31.0445 23.2253 31.3382C23.769 31.5945 24.0065 31.6195 24.194 31.432C24.2878 31.3382 24.3128 31.2445 24.3003 31.0445C24.2815 30.807 24.2503 30.7632 23.9815 30.582C23.5503 30.2945 22.769 30.057 22.094 30.0195C21.219 29.9695 20.6315 30.1007 19.6878 30.5757C18.9628 30.9382 18.8753 30.9695 18.5003 30.9695C17.8128 30.9632 17.2628 30.6132 16.9753 30.0007C16.8815 29.7882 16.844 29.5945 16.844 29.2195C16.844 28.782 16.869 28.6695 17.0503 28.3007C17.2753 27.8445 17.2753 27.632 17.044 27.4695C16.8565 27.3382 16.5253 27.3507 16.3753 27.5007Z" fill="#7715A7"/>
</svg>
