<svg width="32" height="32" viewBox="0 0 32 32" fill="none" xmlns="http://www.w3.org/2000/svg">
<path d="M7.90625 3.5C3.64375 5.21875 0.11875 6.66875 0.08125 6.73125C0.025 6.80625 0 7.15625 0 7.95C0 9.175 0.0375 9.34375 0.41875 9.7C0.73125 10 1.0375 10.0625 2.1625 10.0625H3.1875V10.825C3.1875 11.4688 3.20625 11.625 3.31875 11.85C3.4625 12.15 3.75 12.3625 4.0875 12.4187L4.3 12.45L4.275 12.775C4.23125 13.2312 3.5 25.3375 3.5 25.5625C3.5 25.725 3.475 25.75 3.33125 25.75C3.06875 25.75 2.66875 25.975 2.5 26.2312C2.35625 26.4437 2.34375 26.525 2.325 27.2937L2.3 28.125H1.73125C1.01875 28.125 0.74375 28.2 0.4375 28.475C0.0375 28.8375 -0.0125 29.0125 0.0125 29.9688C0.03125 30.7812 0.0375 30.8125 0.21875 31.0687C0.325 31.2125 0.53125 31.4 0.68125 31.4813L0.95625 31.625H16H31.0438L31.3188 31.4813C31.4688 31.4 31.6812 31.2125 31.7812 31.0687C31.9625 30.8125 31.9688 30.7812 31.9875 29.9688C32.0125 29.0125 31.9625 28.8375 31.5625 28.475C31.2563 28.2 30.9813 28.125 30.2688 28.125H29.7L29.675 27.2937C29.6562 26.525 29.6438 26.4437 29.5 26.2312C29.3313 25.975 28.9312 25.75 28.6688 25.75C28.5063 25.75 28.5 25.7375 28.4937 25.3875C28.4937 25.1937 28.4688 24.825 28.4438 24.5687C28.4062 24.1937 28.375 24.0875 28.2563 23.9938C28.05 23.825 27.775 23.8438 27.5875 24.0375C27.425 24.1937 27.425 24.1937 27.4688 24.975L27.5125 25.75H25.9563H24.3938L24.4188 25.45C24.4625 24.8812 25.1875 12.8312 25.1875 12.6375V12.4375H25.9312H26.6812L26.7125 12.7C26.7313 12.85 26.875 15.0688 27.0312 17.6438C27.1812 20.2125 27.3375 22.3687 27.375 22.4375C27.5438 22.75 28.0562 22.7562 28.2188 22.4375C28.3 22.2812 28.2812 21.8 28.0312 17.675C27.8813 15.1562 27.7437 12.95 27.725 12.775L27.7 12.45L27.9125 12.4187C28.25 12.3625 28.5375 12.15 28.6812 11.85C28.7938 11.625 28.8125 11.4688 28.8125 10.825V10.0625H29.8375C30.9625 10.0625 31.2688 10 31.5813 9.7C31.9625 9.34375 32 9.175 32 7.95C32 7.15625 31.975 6.80625 31.925 6.73125C31.8813 6.66875 28.35 5.21875 24.0813 3.5C17.1688 0.71875 16.2812 0.375 15.9875 0.375C15.7 0.38125 14.6813 0.775 7.90625 3.5ZM22.4937 3.95L28.9062 6.53125L17.9688 6.5625C11.95 6.58125 7.025 6.6 7.0125 6.6125C7 6.61875 6.95 6.725 6.9 6.84375C6.7875 7.1125 6.875 7.35625 7.125 7.48125C7.25 7.54375 9.7125 7.5625 19.175 7.5625H31.075L31.05 8.19375C31.0312 8.76875 31.0188 8.8375 30.8813 8.94375C30.7375 9.0625 30.4125 9.0625 16 9.0625C1.5875 9.0625 1.2625 9.0625 1.11875 8.94375C0.98125 8.8375 0.96875 8.76875 0.95 8.19375L0.925 7.56875L3.15625 7.55L5.3875 7.53125L5.50625 7.38125C5.64375 7.2125 5.6625 6.8875 5.5375 6.7125C5.45625 6.60625 5.34375 6.59375 4.26875 6.5625L3.09375 6.53125L9.46875 3.9625C12.975 2.54375 15.9 1.3875 15.9625 1.38125C16.0312 1.375 18.9688 2.5375 22.4937 3.95ZM7.875 10.75V11.4375H6.03125H4.1875V10.75V10.0625H6.03125H7.875V10.75ZM13.125 10.7312C13.125 11.1062 13.1562 11.5187 13.1938 11.6562C13.2937 12.0063 13.65 12.35 13.9875 12.4062L14.2625 12.45L14.225 12.9312C14.2 13.1938 14.0312 15.9625 13.8438 19.0938C13.6562 22.2188 13.4875 24.9938 13.4625 25.2562L13.425 25.7375L13.1687 25.7687C12.875 25.8063 12.65 25.9562 12.4563 26.25C12.325 26.4375 12.3125 26.525 12.3125 27.2875V28.125H11.0312H9.75V27.3438C9.75 26.675 9.73125 26.5187 9.625 26.3063C9.475 26.025 9.2 25.8312 8.8625 25.775C8.65625 25.7375 8.625 25.7062 8.6 25.5375C8.56875 25.3562 7.80625 12.775 7.8125 12.5625C7.8125 12.5 7.9125 12.4375 8.08125 12.3937C8.725 12.2188 8.875 11.9312 8.875 10.8438V10.0625H11H13.125V10.7312ZM17.8625 10.7312L17.8438 11.4062H16H14.1562L14.1375 10.7312L14.1188 10.0625H16H17.8813L17.8625 10.7312ZM23.125 10.8438C23.125 11.9312 23.275 12.2188 23.9188 12.3937C24.0875 12.4375 24.1875 12.5 24.1875 12.5625C24.1938 12.775 23.4312 25.3562 23.4 25.5375C23.375 25.7062 23.3438 25.7375 23.1375 25.775C22.8 25.8312 22.525 26.025 22.375 26.3063C22.2688 26.5187 22.25 26.675 22.25 27.3438V28.125H20.9688H19.6875V27.2875C19.6875 26.525 19.675 26.4375 19.55 26.25C19.35 25.9562 19.125 25.8063 18.8313 25.7687L18.575 25.7375L18.5375 25.2562C18.5125 24.9938 18.3438 22.2188 18.1562 19.0938C17.9688 15.9625 17.8 13.1938 17.775 12.9312L17.7375 12.45L18.0125 12.4062C18.35 12.35 18.7063 12.0063 18.8062 11.6562C18.8438 11.5187 18.875 11.1062 18.875 10.7312V10.0625H21H23.125V10.8438ZM27.8125 10.75V11.4375H25.9688H24.125V10.75V10.0625H25.9688H27.8125V10.75ZM6.8125 12.6375C6.8125 12.8312 7.5375 24.8812 7.58125 25.4562L7.60625 25.75H6.05625H4.5V25.6062C4.5 25.3375 5.25 12.9625 5.2875 12.7L5.31875 12.4375H6.06875H6.8125V12.6375ZM16.75 12.4812C16.75 12.6125 17.5 24.8438 17.5312 25.2625L17.5688 25.75H16H14.4313L14.4688 25.2625C14.5 24.8438 15.25 12.6125 15.25 12.4812C15.25 12.4562 15.5875 12.4375 16 12.4375C16.4125 12.4375 16.75 12.4562 16.75 12.4812ZM8.75 27.4375V28.125H6.03125H3.3125V27.4375V26.75H6.03125H8.75V27.4375ZM18.6875 27.4375V28.125H16H13.3125V27.4375V26.75H16H18.6875V27.4375ZM28.6875 27.4375V28.125H25.9688H23.25V27.4375V26.75H25.9688H28.6875V27.4375ZM30.8813 29.2437C31.0188 29.3563 31.0312 29.4125 31.0312 29.9062C31.0312 30.3687 31.0125 30.4625 30.9125 30.5375C30.725 30.6687 1.275 30.6687 1.0875 30.5375C0.9875 30.4625 0.96875 30.3687 0.96875 29.9062C0.96875 29.4125 0.98125 29.3563 1.11875 29.2437C1.2625 29.125 1.58125 29.125 16 29.125C30.4188 29.125 30.7375 29.125 30.8813 29.2437Z" fill="#7715A7"/>
</svg>
