<svg width="32" height="22" viewBox="0 0 32 22" fill="none" xmlns="http://www.w3.org/2000/svg">
<path d="M9.81214 1.00625C9.33089 1.1 8.74339 1.43125 8.34339 1.8375C8.00589 2.18125 7.85589 2.44375 6.75589 4.5625C6.09339 5.85 5.52464 6.925 5.50589 6.95C5.48089 6.975 5.10589 6.9 4.66839 6.78125C3.74964 6.53125 3.45589 6.5125 2.78714 6.6875C1.58714 6.99375 0.649644 7.8375 0.187144 9.03125C-0.0316061 9.5875 -0.0316061 10.65 0.174644 14.6062C0.349644 17.9813 0.349644 17.9937 0.499644 18.1562C0.587144 18.25 0.712144 18.3125 0.818394 18.3125H0.993394L1.01214 19.5312C1.03089 20.7 1.03714 20.75 1.17464 20.8875L1.31839 21.0312H4.21839C7.08714 21.0312 7.12464 21.0312 7.25589 20.9C7.39964 20.75 7.48089 20.175 7.41214 19.7875C7.28714 19.1375 6.48089 19.15 6.34339 19.8L6.29964 20H4.18089H2.06214V19.1562V18.3125H15.9996H29.9371V19.1562V20H27.8184H25.6996L25.6559 19.8C25.5871 19.4937 25.3934 19.3125 25.1246 19.3125C24.6871 19.3125 24.5121 19.6562 24.5809 20.3875C24.6059 20.6562 24.6496 20.8062 24.7434 20.9C24.8746 21.0312 24.9121 21.0312 27.7809 21.0312H30.6809L30.8246 20.8875C30.9621 20.75 30.9684 20.7 30.9871 19.5312L31.0059 18.3125H31.1809C31.2871 18.3125 31.4121 18.25 31.4996 18.1562C31.6496 17.9937 31.6496 17.9813 31.8246 14.6062C32.0309 10.65 32.0309 9.5875 31.8121 9.03125C31.3496 7.8375 30.4121 6.99375 29.2121 6.6875C28.5434 6.5125 28.2496 6.53125 27.3309 6.78125C26.8934 6.9 26.5184 6.975 26.4934 6.95C26.4746 6.925 25.9059 5.85 25.2434 4.5625C24.1434 2.44375 23.9934 2.18125 23.6559 1.8375C23.2371 1.4125 22.6684 1.1 22.1309 1C21.7121 0.924999 10.2184 0.924999 9.81214 1.00625ZM22.3121 2.2C22.4996 2.29375 22.7621 2.475 22.8871 2.60625C23.0371 2.7625 23.5184 3.61875 24.2684 5.0625C24.9059 6.28125 25.4184 7.2875 25.4059 7.3C25.3996 7.3125 25.0996 7.4 24.7434 7.5C24.0246 7.7 23.8121 7.85625 23.8121 8.19375C23.8121 8.44375 24.0559 8.6875 24.3121 8.6875C24.4246 8.6875 25.3809 8.45 26.4434 8.15C28.3184 7.63125 28.3809 7.61875 28.7309 7.68125C29.7184 7.8625 30.5434 8.61875 30.8496 9.61875C30.9684 10.0062 30.9621 10.3625 30.7809 13.875C30.6934 15.5437 30.6246 16.9812 30.6246 17.075V17.25H15.9996H1.37464V17.075C1.37464 16.9812 1.30589 15.5437 1.21839 13.875C1.03714 10.3625 1.03089 10.0062 1.14964 9.61875C1.45589 8.61875 2.28089 7.8625 3.26839 7.68125C3.61839 7.61875 3.68089 7.63125 5.55589 8.15C6.61839 8.45 7.57464 8.6875 7.68714 8.6875C7.94339 8.6875 8.18714 8.44375 8.18714 8.19375C8.18714 7.85625 7.97464 7.7 7.25589 7.5C6.89964 7.4 6.59964 7.3125 6.59339 7.3C6.54964 7.25625 8.89964 2.83125 9.04964 2.66875C9.29964 2.4 9.53089 2.25 9.89339 2.11875C10.2059 2.00625 10.4684 2.00625 16.0934 2.01875L21.9684 2.03125L22.3121 2.2Z" fill="#7715A7"/>
<path d="M9.46803 7.68086C9.11178 7.83086 9.04928 8.36836 9.36178 8.59961C9.51803 8.72461 22.4805 8.72461 22.6368 8.59961C22.8868 8.41211 22.9055 7.98086 22.6743 7.76836C22.5555 7.66211 22.2243 7.65586 16.068 7.64336C12.5055 7.63711 9.53678 7.65586 9.46803 7.68086Z" fill="#7715A7"/>
<path d="M2.15612 10.1C1.88112 10.4 2.01237 10.8812 2.39362 10.9688C2.46862 10.9875 3.04987 11.0062 3.68737 11.0125C4.78737 11.0312 4.86237 11.0375 5.19362 11.1937C5.38737 11.2875 5.64362 11.4625 5.76862 11.5875C5.98737 11.8062 6.24987 12.2312 6.24987 12.375C6.24987 12.4187 5.62487 12.4375 4.35612 12.4375C2.53737 12.4375 2.45612 12.4438 2.32487 12.5625C2.06862 12.8 2.07487 13.1375 2.33112 13.375C2.45612 13.4937 2.56237 13.5 4.78737 13.5H7.10612L7.27487 13.3375C7.46862 13.1375 7.48737 12.8125 7.33737 12.2312C7.19362 11.6625 6.96237 11.2625 6.53737 10.8375C5.78737 10.0875 5.28112 9.9375 3.54362 9.9375H2.30612L2.15612 10.1Z" fill="#7715A7"/>
<path d="M26.8307 10.0312C26.2995 10.175 25.8745 10.425 25.462 10.8375C25.037 11.2625 24.8057 11.6625 24.662 12.2312C24.512 12.8125 24.5307 13.1375 24.7245 13.3375L24.8932 13.5H27.212C29.437 13.5 29.5432 13.4937 29.6682 13.375C29.9245 13.1375 29.9307 12.8 29.6745 12.5625C29.5432 12.4438 29.462 12.4375 27.6432 12.4375C26.3745 12.4375 25.7495 12.4187 25.7495 12.375C25.7495 12.2312 26.012 11.8062 26.2307 11.5875C26.3557 11.4625 26.612 11.2875 26.8057 11.1937C27.137 11.0375 27.212 11.0312 28.312 11.0125C28.9495 11.0062 29.5307 10.9875 29.6057 10.9688C29.987 10.8812 30.1182 10.4 29.8432 10.1L29.6932 9.9375L28.4245 9.94375C27.5432 9.94375 27.0557 9.975 26.8307 10.0312Z" fill="#7715A7"/>
<path d="M12.9615 10.3996C12.549 10.5809 12.5802 11.2121 12.999 11.3559C13.3115 11.4621 18.6865 11.4621 18.999 11.3559C19.4302 11.2059 19.449 10.5746 19.024 10.3996C18.724 10.2746 13.249 10.2746 12.9615 10.3996Z" fill="#7715A7"/>
<path d="M10.1562 13.9496C9.89375 14.0871 9.875 14.1809 9.875 15.1058C9.875 15.9746 9.88125 16.0121 10.0312 16.1559C10.225 16.3559 10.5 16.3559 10.7312 16.1621C10.8938 16.0184 10.9062 15.9684 10.9312 15.4746L10.95 14.9371H16H21.05L21.0688 15.4746C21.0938 15.9684 21.1062 16.0184 21.2688 16.1621C21.5 16.3559 21.775 16.3559 21.9688 16.1559C22.1188 16.0121 22.125 15.9746 22.125 15.1308C22.125 14.6496 22.1062 14.2121 22.0875 14.1558C21.975 13.8684 22.05 13.8746 15.9875 13.8746C11.975 13.8809 10.2438 13.8996 10.1562 13.9496Z" fill="#7715A7"/>
<path d="M1.76179 4.59279C1.41804 4.74279 1.34929 5.21779 1.63679 5.47404C1.74304 5.57404 1.89304 5.59279 2.70554 5.61154C3.84929 5.64279 4.09304 5.58654 4.22429 5.27404C4.34929 4.98029 4.22429 4.66779 3.93679 4.56779C3.63054 4.46779 2.01804 4.48029 1.76179 4.59279Z" fill="#7715A7"/>
<path d="M28.0249 4.58847C27.7624 4.70722 27.6562 4.99472 27.7749 5.28222C27.9062 5.58847 28.1562 5.64472 29.2937 5.61347C30.1062 5.59472 30.2562 5.57597 30.3624 5.47597C30.6562 5.21347 30.5812 4.74472 30.2187 4.59472C29.9249 4.46972 28.3062 4.46972 28.0249 4.58847Z" fill="#7715A7"/>
</svg>
