<svg width="41" height="41" viewBox="0 0 41 41" fill="none" xmlns="http://www.w3.org/2000/svg">
<path d="M12.6886 5.63425C9.35063 6.2023 6.70364 8.76144 5.97748 12.1229C5.87793 12.5679 5.87207 13.1711 5.87207 20.5382C5.87207 27.9052 5.87793 28.5084 5.97748 28.9535C6.32299 30.5756 7.07844 31.9635 8.24381 33.1289C9.40919 34.2943 10.7971 35.0497 12.4193 35.3953C12.8643 35.4948 13.4675 35.5007 20.8346 35.5007C28.2016 35.5007 28.8048 35.4948 29.2499 35.3953C30.872 35.0497 32.2599 34.2943 33.4253 33.1289C34.5907 31.9635 35.3461 30.5756 35.6916 28.9535C35.7912 28.5084 35.797 27.9052 35.797 20.5382C35.797 13.1711 35.7912 12.5679 35.6916 12.1229C35.3461 10.5007 34.5907 9.11281 33.4253 7.94743C32.2833 6.80548 30.9774 6.09103 29.2967 5.6811C28.9219 5.5874 28.2016 5.58154 21.0102 5.56983C14.8086 5.55812 13.04 5.57569 12.6886 5.63425ZM28.6525 7.4438C30.0522 7.69562 31.0887 8.24024 32.1135 9.25921C33.1325 10.284 33.6771 11.3206 33.9289 12.7202C34.0519 13.4171 34.0519 27.6593 33.9289 28.3561C33.6771 29.7558 33.1325 30.7923 32.1135 31.8171C31.0887 32.8361 30.0522 33.3807 28.6525 33.6325C27.9556 33.7555 13.7135 33.7555 13.0166 33.6325C11.617 33.3807 10.5804 32.8361 9.55559 31.8171C8.53662 30.7923 7.992 29.7558 7.74019 28.3561C7.61721 27.6593 7.61721 13.4171 7.74019 12.7202C7.992 11.3206 8.53662 10.284 9.55559 9.25921C10.5629 8.25781 11.5994 7.70733 12.958 7.44966C13.5905 7.33254 27.9908 7.32668 28.6525 7.4438Z" fill="#F3F3F3"/>
<path d="M29.0387 9.35924C28.3828 9.48808 27.6918 9.98585 27.3639 10.5656C26.8778 11.4382 26.9539 12.5918 27.5454 13.3531C28.0198 13.9622 28.6347 14.2784 29.4252 14.3194C30.7487 14.3838 31.8145 13.5171 32.0312 12.1995C32.3182 10.4836 30.7722 9.01958 29.0387 9.35924ZM29.9347 11.2566C30.0108 11.3093 30.1221 11.4499 30.1807 11.567C30.2685 11.7544 30.2685 11.8071 30.1982 12.0121C30.1045 12.2756 29.8059 12.5157 29.5775 12.5157C29.3315 12.5157 29.0504 12.34 28.9509 12.1351C28.8279 11.8774 28.8338 11.7076 28.9743 11.4733C29.1851 11.1278 29.6009 11.04 29.9347 11.2566Z" fill="#F3F3F3"/>
<path d="M19.8971 12.34C18.8606 12.4688 17.9236 12.7558 17.0335 13.2243C14.7788 14.4014 13.1684 16.5799 12.7175 19.0746C12.5769 19.8242 12.5769 21.2531 12.7175 22.0027C13.3265 25.3641 16.0086 28.0462 19.3701 28.6553C20.1197 28.7958 21.5486 28.7958 22.2981 28.6553C25.6596 28.0462 28.3417 25.3641 28.9507 22.0027C29.0913 21.2531 29.0913 19.8242 28.9507 19.0746C28.4998 16.5799 26.9011 14.4131 24.6348 13.2184C23.973 12.8729 23.0419 12.5567 22.3274 12.4278C21.6715 12.3107 20.4769 12.2697 19.8971 12.34ZM21.9351 14.2198C22.3626 14.2843 23.2586 14.5771 23.6743 14.7879C24.8514 15.3794 25.9934 16.5213 26.5849 17.6984C26.7957 18.1083 27.0885 18.9985 27.1646 19.467C27.2466 19.9764 27.2466 21.1008 27.1646 21.6103C27.0885 22.0788 26.7957 22.9689 26.5849 23.3789C25.9934 24.556 24.8514 25.6979 23.6743 26.2894C23.2644 26.5002 22.3743 26.793 21.9058 26.8691C21.3963 26.9511 20.2719 26.9511 19.7624 26.8691C19.2939 26.793 18.4038 26.5002 17.9939 26.2894C16.8168 25.6979 15.6748 24.556 15.0834 23.3789C14.8725 22.9689 14.5797 22.0788 14.5036 21.6103C14.4216 21.1008 14.4216 19.9764 14.5036 19.467C14.5797 18.9985 14.8725 18.1083 15.0834 17.6984C15.7627 16.3456 17.0217 15.1685 18.3628 14.6239C19.5399 14.1437 20.6291 14.0207 21.9351 14.2198Z" fill="#F3F3F3"/>
</svg>
