<svg width="41" height="41" viewBox="0 0 41 41" fill="none" xmlns="http://www.w3.org/2000/svg">
<path d="M6.44707 8.61418C5.5125 8.90798 4.71328 9.70189 4.43613 10.6146C4.3459 10.9209 4.33301 11.9711 4.33301 20.504C4.33301 29.6995 4.33945 30.062 4.45547 30.4309C4.75195 31.3498 5.56406 32.1312 6.51797 32.4C6.83379 32.4875 8.27754 32.5 20.833 32.5C33.3885 32.5 34.8322 32.4875 35.148 32.4C36.102 32.1312 36.9141 31.3498 37.2105 30.4309C37.3266 30.062 37.333 29.6995 37.333 20.504C37.333 11.9711 37.3201 10.9209 37.2299 10.6146C36.9527 9.68938 36.1471 8.90173 35.1996 8.61418C34.8193 8.50166 34.3746 8.49541 20.8137 8.50166C7.42031 8.50166 6.80156 8.50791 6.44707 8.61418ZM34.3811 10.552C34.5422 10.5833 33.9943 11.0646 27.6908 16.3532L20.833 22.123L13.9752 16.3532C7.67168 11.0646 7.12383 10.5833 7.28496 10.552C7.38164 10.527 13.4789 10.5083 20.833 10.5083C28.1871 10.5083 34.2844 10.527 34.3811 10.552ZM14.0268 19.1537C17.4234 22.0042 20.2594 24.3734 20.3367 24.4172C20.5623 24.536 21.1553 24.5172 21.3809 24.3797C21.4904 24.3172 24.6486 21.6729 28.4063 18.5161L35.2383 12.765L35.2576 20.9603C35.2705 25.4674 35.2576 29.2994 35.2383 29.4807C35.1932 29.8682 34.9998 30.1621 34.6904 30.3371C34.4648 30.4684 34.4455 30.4684 21.123 30.4871C13.7818 30.4996 7.63301 30.4871 7.44609 30.4684C7.04648 30.4246 6.74355 30.2371 6.56309 29.937C6.42773 29.7182 6.42773 29.662 6.4084 21.2291L6.39551 12.7337L7.12383 13.3526C7.52344 13.6901 10.6301 16.2969 14.0268 19.1537Z" fill="#F3F3F3"/>
</svg>
