<svg width="71" height="34" viewBox="0 0 71 34" fill="none" xmlns="http://www.w3.org/2000/svg">
<g clip-path="url(#clip0_637_11283)">
<path fill-rule="evenodd" clip-rule="evenodd" d="M11.6546 22.0854H8.63105C3.91482 22.0854 7.34118 12.0198 11.3118 12.0198H16.0888C16.8545 12.0198 18.2049 12.1613 18.8702 10.2578L19.8982 7.30078H13.3476C9.80013 7.30078 7.03879 8.55633 5.04346 10.6629C1.59673 14.2679 0.427936 19.8982 1.25419 22.5916C2.04027 25.0829 4.17676 26.7232 7.5225 26.7637L10.1226 26.784H13.3275L14.1136 24.4145C14.698 22.7334 13.3877 22.0854 11.6546 22.0854ZM48.4583 17.9134L49.4461 14.6931H38.9048C37.1513 14.6931 36.3652 15.1792 36.0628 16.1918L35.0751 19.4121H45.6166C47.3701 19.4121 48.1562 18.926 48.4583 17.9134ZM33.5032 23.5842L32.5154 26.8041H43.0567C44.7901 26.8041 45.5963 26.3183 45.8986 25.3057L46.8864 22.0854H36.3448C34.6117 22.0854 33.8256 22.5715 33.5032 23.5842ZM50.9175 10.5411L51.905 7.32117H41.3637C39.6103 7.32117 38.8242 7.80696 38.5218 8.81961L37.534 12.0399H48.0756C49.809 12.0399 50.5948 11.5538 50.9175 10.5411ZM34.9944 11.1895C34.5512 8.19198 32.9589 7.32117 29.0891 7.32117H22.0347L17.9229 19.4121H20.523C22.0748 19.4121 22.8609 19.4322 23.6874 17.2045L25.4005 12.0198H28.0207C30.2581 12.0198 29.7541 14.8349 28.6254 17.5688C27.6176 19.9792 25.8641 22.1055 23.7477 22.1055H19.374C17.6205 22.1055 16.8144 22.5916 16.4919 23.6042L15.4034 26.8245H18.608L21.7524 26.8041C24.5338 26.784 26.8114 26.5816 29.4721 24.1713C32.2936 21.5993 35.5591 14.9969 34.9944 11.1895ZM70.4279 7.30078H64.3209L58.5764 13.4373C57.9114 14.1461 57.226 14.855 56.561 15.6854H56.5005L59.3625 7.30078H54.3841L47.6725 26.8041H52.6507L54.7871 20.6677L57.0042 18.7842L58.758 24.3335C59.302 26.0551 59.8666 26.8041 61.0758 26.8041H64.8852L60.9751 15.9082L70.4279 7.30078Z" fill="#060606"/>
</g>
<defs>
<clipPath id="clip0_637_11283">
<rect width="70" height="34" fill="white" transform="translate(0.5)"/>
</clipPath>
</defs>
</svg>
