<svg width="30" height="30" viewBox="0 0 30 30" fill="none" xmlns="http://www.w3.org/2000/svg">
<path d="M8.42104 21.7076C8.61299 21.7076 8.81331 21.6909 9.00534 21.6658C10.3074 21.4816 11.4259 20.6949 12.3441 19.3389C14.6478 23.5491 15.4491 26.8637 15.4658 26.9223C15.5492 27.2822 15.8664 27.5501 16.242 27.5668H16.2837C16.6426 27.5668 16.9598 27.3408 17.0766 26.9976C17.6943 25.3403 18.5123 23.7668 19.5055 22.3104C20.4821 24.1769 21.7258 24.8047 22.6523 24.9805C22.886 25.0223 23.1196 25.0474 23.3618 25.0474C24.7056 25.0474 26.1412 24.3527 27.3265 23.1139C29.5134 20.8121 30.323 14.5177 28.8456 11.3036C28.6536 10.8851 28.1528 10.7009 27.7354 10.9018C27.6854 10.9269 27.6353 10.9604 27.5852 10.9938C26.0744 12.1322 24.7056 12.4838 23.2616 12.852C22.0096 13.1701 20.7325 13.5049 19.4304 14.3586C17.9614 15.338 17.085 16.7525 17.085 18.1587C17.085 18.9204 17.3438 19.9583 18.3787 20.9962C17.6359 22.0341 16.9765 23.1306 16.4172 24.2773C15.6326 22.0509 14.6393 19.9081 13.4624 17.8574C15.4072 16.8614 16.5925 15.5388 16.9597 13.9235C17.5273 11.4626 16.0332 9.22779 15.0984 8.12292C13.5292 6.26474 11.3006 5.72903 8.93844 5.15988C6.85171 4.65767 4.68995 4.13875 2.92038 2.63212C2.72843 2.46474 2.46965 2.39772 2.21925 2.44795C1.96884 2.49817 1.76015 2.65723 1.64332 2.87482C-0.668765 7.25245 0.516504 15.5891 3.08729 18.6275C4.74848 20.6195 6.65984 21.7076 8.42104 21.7076ZM20.3569 15.7564C21.417 15.0533 22.5104 14.7687 23.6789 14.4674C24.8892 14.1577 26.233 13.8061 27.6603 12.9524C28.4366 15.907 27.5685 20.4353 26.1162 21.9587C25.3399 22.7706 24.113 23.5573 22.9695 23.3397C21.801 23.1137 21.0748 21.8666 20.6741 20.8622C20.6658 20.8538 20.6575 20.8371 20.6491 20.8287C21.609 19.7154 22.7609 18.6943 24.1381 18.0079C24.5554 17.807 24.7224 17.3048 24.5221 16.8863C24.3217 16.4679 23.8209 16.3004 23.4036 16.5013C23.4036 16.5013 23.3952 16.5013 23.3952 16.5097C21.8177 17.2965 20.5156 18.4432 19.4305 19.6903C19.0465 19.2634 18.7544 18.7528 18.7544 18.167C18.7543 17.3217 19.3553 16.4177 20.3569 15.7564ZM2.71184 4.59066C4.58149 5.85458 6.66822 6.35679 8.54624 6.80878C10.7248 7.3277 12.6028 7.77969 13.8298 9.21939C15.0818 10.7009 15.6327 12.2829 15.3405 13.5635C15.0818 14.7019 14.1553 15.6644 12.6028 16.4345C10.7665 13.4966 8.52957 10.8349 5.95871 8.52469C5.62481 8.20665 5.09067 8.22336 4.78181 8.56652C4.46466 8.90135 4.48133 9.43699 4.82352 9.74671C4.8319 9.75511 4.84019 9.76342 4.85694 9.77182C7.6865 12.308 9.8233 15.1036 11.4091 17.69C10.6663 19.0795 9.78989 19.8662 8.7799 20.0086C7.46113 20.2011 5.81676 19.2804 4.36442 17.5729C2.31119 15.1538 1.27617 8.56644 2.71184 4.59066Z" fill="#7715A7"/>
</svg>
