<svg width="31" height="30" viewBox="0 0 31 30" fill="none" xmlns="http://www.w3.org/2000/svg">
<g clip-path="url(#clip0_618_7491)">
<path fill-rule="evenodd" clip-rule="evenodd" d="M7.51259 5.80448C7.64353 5.60878 7.86547 5.491 8.10333 5.491H13.6146C13.8525 5.491 14.0744 5.60878 14.2053 5.80448L17.8795 11.2961C18.0353 11.529 18.0353 11.8309 17.8795 12.0638L14.2053 17.5554C14.0744 17.7511 13.8525 17.8689 13.6146 17.8689H8.10333C7.86547 17.8689 7.64353 17.7511 7.51259 17.5554L3.83841 12.0638C3.68261 11.8309 3.68261 11.529 3.83841 11.2961L7.51259 5.80448ZM8.48434 6.88564L5.2767 11.68L8.48434 16.4743H13.2336L16.4412 11.68L13.2336 6.88564H8.48434Z" fill="#7715A7"/>
<path fill-rule="evenodd" clip-rule="evenodd" d="M16.8146 0.322625C16.9445 0.121724 17.1695 9.79223e-05 17.4113 9.79223e-05H22.7388C22.9806 9.79223e-05 23.2056 0.121724 23.3355 0.322625L26.8872 5.81426C27.0351 6.04288 27.0351 6.33523 26.8872 6.56384L23.3355 12.0555C23.2056 12.2564 22.9806 12.378 22.7388 12.378H17.4113C17.1695 12.378 16.9445 12.2564 16.8146 12.0555L13.2629 6.56384C13.115 6.33523 13.115 6.04288 13.2629 5.81426L16.8146 0.322625ZM17.7994 1.39473L14.6987 6.18905L17.7994 10.9834H22.3507L25.4515 6.18905L22.3507 1.39473H17.7994Z" fill="#7715A7"/>
<path fill-rule="evenodd" clip-rule="evenodd" d="M22.4909 22.0696C22.8237 21.8678 23.2595 21.97 23.4643 22.298L26.8936 27.7897C27.0984 28.1177 26.9946 28.5472 26.6618 28.749C26.329 28.9508 25.8931 28.8486 25.6883 28.5206L22.2591 23.0289C22.0543 22.701 22.158 22.2715 22.4909 22.0696Z" fill="#7715A7"/>
<path fill-rule="evenodd" clip-rule="evenodd" d="M4.05831 0.103539C4.39112 -0.0983001 4.82696 0.00396434 5.03177 0.331953L8.46101 5.82359C8.66582 6.15158 8.56205 6.58109 8.22923 6.78293C7.89641 6.98477 7.46058 6.8825 7.25576 6.55452L3.82653 1.06288C3.62172 0.734889 3.72549 0.305379 4.05831 0.103539Z" fill="#7715A7"/>
<path fill-rule="evenodd" clip-rule="evenodd" d="M17.6384 22.058C17.9777 22.2491 18.0955 22.6751 17.9017 23.0095L16.187 25.9665C15.9932 26.3009 15.5609 26.417 15.2216 26.226C14.8823 26.0349 14.7644 25.6089 14.9583 25.2746L16.6729 22.3175C16.8668 21.9831 17.2991 21.867 17.6384 22.058Z" fill="#7715A7"/>
<path fill-rule="evenodd" clip-rule="evenodd" d="M8.25104 16.5916C8.5762 16.8052 8.66406 17.2381 8.44729 17.5586L6.73267 20.0932C6.5159 20.4136 6.07658 20.5002 5.75142 20.2866C5.42627 20.0729 5.3384 19.64 5.55517 19.3196L7.26979 16.785C7.48656 16.4645 7.92588 16.3779 8.25104 16.5916Z" fill="#7715A7"/>
<path fill-rule="evenodd" clip-rule="evenodd" d="M2.00679 11.6809C2.00679 11.2957 2.32359 10.9835 2.71438 10.9835H4.429C4.81979 10.9835 5.13658 11.2957 5.13658 11.6809C5.13658 12.066 4.81979 12.3782 4.429 12.3782H2.71438C2.32359 12.3782 2.00679 12.066 2.00679 11.6809Z" fill="#7715A7"/>
<path fill-rule="evenodd" clip-rule="evenodd" d="M25.5837 17.1718C25.5837 16.7866 25.9005 16.4744 26.2912 16.4744H32.2924C32.6832 16.4744 33 16.7866 33 17.1718C33 17.5569 32.6832 17.8691 32.2924 17.8691H26.2912C25.9005 17.8691 25.5837 17.5569 25.5837 17.1718Z" fill="#7715A7"/>
<path fill-rule="evenodd" clip-rule="evenodd" d="M16.8146 11.3061C16.9445 11.1052 17.1695 10.9835 17.4113 10.9835H22.7388C22.9806 10.9835 23.2056 11.1052 23.3355 11.3061L26.8872 16.7977C27.0351 17.0263 27.0351 17.3187 26.8872 17.5473L23.3355 23.0389C23.2056 23.2398 22.9806 23.3615 22.7388 23.3615H17.4113C17.1695 23.3615 16.9445 23.2398 16.8146 23.0389L13.2629 17.5473C13.115 17.3187 13.115 17.0263 13.2629 16.7977L16.8146 11.3061ZM17.7994 12.3782L14.6987 17.1725L17.7994 21.9668H22.3507L25.4515 17.1725L22.3507 12.3782H17.7994Z" fill="#7715A7"/>
<path d="M13.6447 29C14.2366 29 14.7163 28.6217 14.7163 28.1551C14.7163 27.6885 14.2366 27.3103 13.6447 27.3103C13.0529 27.3103 12.5731 27.6885 12.5731 28.1551C12.5731 28.6217 13.0529 29 13.6447 29Z" fill="#7715A7"/>
<path fill-rule="evenodd" clip-rule="evenodd" d="M13.5184 27.6635C13.4418 27.7239 13.3012 27.8889 13.3012 28.1551C13.3012 28.4214 13.4418 28.5863 13.5184 28.6467C13.5922 28.7049 13.6415 28.7049 13.6447 28.7049C13.6479 28.7049 13.6972 28.7049 13.771 28.6467C13.8476 28.5863 13.9882 28.4214 13.9882 28.1551C13.9882 27.8889 13.8476 27.7239 13.771 27.6635C13.6972 27.6054 13.648 27.6054 13.6447 27.6054C13.6415 27.6054 13.5922 27.6054 13.5184 27.6635ZM14.7163 28.1551C14.7163 28.6217 14.2366 29 13.6447 29C13.0529 29 12.5731 28.6217 12.5731 28.1551C12.5731 27.6885 13.0529 27.3103 13.6447 27.3103C14.2366 27.3103 14.7163 27.6885 14.7163 28.1551Z" fill="#7715A7"/>
<path d="M4.64423 23.5083C5.23608 23.5083 5.71587 23.13 5.71587 22.6634C5.71587 22.1968 5.23608 21.8185 4.64423 21.8185C4.05238 21.8185 3.57259 22.1968 3.57259 22.6634C3.57259 23.13 4.05238 23.5083 4.64423 23.5083Z" fill="#7715A7"/>
<path fill-rule="evenodd" clip-rule="evenodd" d="M4.51794 22.1718C4.44129 22.2322 4.30069 22.3972 4.30069 22.6634C4.30069 22.9297 4.44129 23.0946 4.51794 23.155C4.59172 23.2132 4.64098 23.2132 4.6442 23.2132C4.64741 23.2132 4.69674 23.2132 4.77052 23.155C4.84717 23.0946 4.98777 22.9297 4.98777 22.6634C4.98777 22.3972 4.84717 22.2322 4.77052 22.1718C4.69674 22.1136 4.64748 22.1136 4.64426 22.1136C4.64105 22.1136 4.59172 22.1136 4.51794 22.1718ZM5.71587 22.6634C5.71587 23.13 5.23608 23.5083 4.64423 23.5083C4.05238 23.5083 3.57259 23.13 3.57259 22.6634C3.57259 22.1968 4.05238 21.8185 4.64423 21.8185C5.23608 21.8185 5.71587 22.1968 5.71587 22.6634Z" fill="#7715A7"/>
<path d="M-1.14269 12.5248C-0.669212 12.5248 -0.285382 12.1466 -0.285382 11.68C-0.285382 11.2134 -0.669212 10.8351 -1.14269 10.8351C-1.61617 10.8351 -2 11.2134 -2 11.68C-2 12.1466 -1.61617 12.5248 -1.14269 12.5248Z" fill="#7715A7"/>
<path fill-rule="evenodd" clip-rule="evenodd" d="M-1.14269 11.1302C-1.45079 11.1302 -1.70056 11.3763 -1.70056 11.68C-1.70056 11.9836 -1.45079 12.2297 -1.14269 12.2297C-0.834591 12.2297 -0.584827 11.9836 -0.584827 11.68C-0.584827 11.3763 -0.834591 11.1302 -1.14269 11.1302ZM-0.285382 11.68C-0.285382 12.1466 -0.669212 12.5248 -1.14269 12.5248C-1.61617 12.5248 -2 12.1466 -2 11.68C-2 11.2134 -1.61617 10.8351 -1.14269 10.8351C-0.669212 10.8351 -0.285382 11.2134 -0.285382 11.68Z" fill="#7715A7"/>
</g>
<defs>
<clipPath id="clip0_618_7491">
<rect width="30" height="30" fill="white" transform="translate(0.5)"/>
</clipPath>
</defs>
</svg>
