<svg width="120" height="121" viewBox="0 0 120 121" fill="none" xmlns="http://www.w3.org/2000/svg">
<path d="M70.5 0.681024C70.5 1.02154 71.2661 5.27794 72.2025 10.2154C73.1389 15.1528 73.9051 19.2389 73.9051 19.3241C73.9051 19.4943 74.6712 19.5794 75.6928 19.5794C76.9697 19.5794 77.3102 19.1538 76.9697 18.0471C76.0333 14.9825 73.9051 3.74563 73.9051 1.87282C73.9051 0.595896 73.3943 0 72.2025 0C71.2661 0 70.5 0.255384 70.5 0.681024Z" fill="#F3F3F3"/>
<path d="M95.783 14.8974C92.8036 20.0051 92.3779 22.1333 94.3359 22.1333C95.2723 22.1333 101.997 10.4707 101.316 9.87485C100.039 8.59793 98.6774 9.78972 95.783 14.8974Z" fill="#F3F3F3"/>
<path d="M33.044 24.6872H40.7055V28.518C40.7055 32.1785 40.6204 32.2636 37.5558 32.7744C14.9117 36.4349 -1.43287 56.5251 0.0994361 78.7435C2.7384 116.796 48.7075 133.992 75.2675 106.836C83.61 98.323 87.5259 88.4481 87.5259 75.5938C87.5259 54.2267 72.2029 36.4349 50.7506 32.7744C47.6009 32.2636 47.5157 32.1785 47.5157 28.518V24.6872H54.326V17.877H33.044V24.6872ZM55.3475 40.8616C76.2039 47.3313 86.93 71.5928 77.7362 91.7681C68.968 110.922 45.4727 118.839 26.2337 108.964C21.4666 106.58 13.3794 98.4932 10.9958 93.8112C3.75994 79.5948 5.88814 62.8246 16.5291 51.0769C25.8932 40.6913 41.5568 36.6052 55.3475 40.8616Z" fill="#7715A7"/>
<path d="M41.5564 45.7137C41.5564 48.9486 42.6631 51.0768 44.1954 51.0768C45.3021 51.0768 45.8128 50.4809 45.8128 49.0337C45.8128 47.9271 46.0682 46.3948 46.3236 45.6286C46.7492 44.5219 46.2385 44.2666 44.1954 44.2666C42.2375 44.2666 41.5564 44.6922 41.5564 45.7137Z" fill="#7715A7"/>
<path d="M21.2963 53.8861C20.5302 54.7374 22.3178 57.2061 28.7876 64.3569C35.0019 71.1671 37.2152 74.2317 37.3004 75.9343C37.3004 79.3394 38.1517 80.7866 40.7906 82.2338C43.8552 83.7661 47.005 83.085 49.2183 80.2758C51.4316 77.4666 51.3465 74.8276 49.1332 72.0184C47.9414 70.4861 46.5793 69.8051 44.7065 69.8051C42.4081 69.8051 40.2799 68.2728 32.3629 61.2923C27.1701 56.6102 22.7435 52.7795 22.4881 52.7795C22.3178 52.7795 21.8071 53.2902 21.2963 53.8861Z" fill="#7715A7"/>
<path d="M62.0726 55.2482C60.5403 57.3764 60.4552 57.802 61.5619 58.7384C62.4983 59.5046 63.2644 59.3343 65.3075 57.802C68.3721 55.5036 68.287 55.8441 66.5844 54.1415C64.7116 52.2687 64.0306 52.439 62.0726 55.2482Z" fill="#7715A7"/>
<path d="M12.6129 76.1895C12.6129 78.2326 12.8683 78.4028 15.4221 78.1474C17.4652 77.9772 18.1462 77.4664 18.1462 76.1895C18.1462 74.9126 17.4652 74.4018 15.4221 74.2316C12.8683 73.9762 12.6129 74.1464 12.6129 76.1895Z" fill="#7715A7"/>
<path d="M69.7338 74.8275C67.6056 76.1896 69.3933 78.3178 72.6281 78.3178C75.2671 78.3178 75.6076 78.0624 75.6076 76.1896C75.6076 74.4019 75.182 74.0614 73.3092 74.0614C71.9471 74.0614 70.4148 74.4019 69.7338 74.8275Z" fill="#7715A7"/>
<path d="M22.403 94.8327C20.2748 96.5353 20.0194 97.046 21.0409 98.2378C22.6584 100.196 24.1055 99.9404 25.8081 97.3866C26.9999 95.5137 27.085 95.003 26.0635 93.9814C25.1271 93.045 24.5312 93.1301 22.403 94.8327Z" fill="#7715A7"/>
<path d="M61.3065 93.8963C60.6254 94.7476 60.8808 95.684 62.328 97.4717C64.3711 100.026 64.3711 100.026 66.1588 98.4081L68.0316 96.7055L65.648 94.8327C62.8388 92.5342 62.4983 92.4491 61.3065 93.8963Z" fill="#7715A7"/>
<path d="M42.0672 103.175C41.0457 107.176 41.3862 108.113 44.1954 108.113C46.2385 108.113 46.7492 107.857 46.3236 106.751C46.0682 105.984 45.8128 104.452 45.8128 103.345C45.8128 100.621 42.8334 100.536 42.0672 103.175Z" fill="#7715A7"/>
<path d="M110.51 29.1989C106.084 30.5609 102.253 31.8378 102.083 32.0081C101.912 32.1784 101.997 32.8594 102.253 33.4553C102.678 34.4768 104.211 34.2214 111.276 32.0932C118.853 29.7948 121.407 28.1773 119.278 26.9855C118.853 26.8153 114.937 27.7517 110.51 29.1989Z" fill="#F3F3F3"/>
<path d="M76.5441 33.5406C75.4375 34.7324 74.6713 36.0093 74.8416 36.435C75.0118 36.9457 77.0549 39.2442 79.3533 41.7129L83.4395 46.1395L89.2282 40.5211L84.8015 36.0093C82.3328 33.5406 79.9492 31.4975 79.4385 31.4975C78.8426 31.4975 77.5657 32.4339 76.5441 33.5406Z" fill="#7715A7"/>
<path d="M99.9544 49.1191C99.6138 49.8852 99.5287 50.5662 99.6138 50.6514C102.593 52.6093 112.724 57.036 113.575 56.6954C115.873 55.8442 114.767 54.8226 107.616 51.3324C101.572 48.2678 100.38 47.9273 99.9544 49.1191Z" fill="#F3F3F3"/>
</svg>
