<svg width="121" height="120" viewBox="0 0 121 120" fill="none" xmlns="http://www.w3.org/2000/svg">
<path d="M48.72 0.988432C47.7911 1.49512 48.2133 3.09963 51.169 8.75763C55.4758 17.0335 55.898 17.7091 57.1648 16.4424C58.6004 15.0068 50.3245 -0.0249414 48.72 0.988432Z" fill="#F3F3F3"/>
<path d="M77.0093 3.35284C75.7426 5.46404 72.3647 15.6822 72.787 16.2734C73.7159 17.8779 74.7293 16.8645 76.3338 12.5577C77.2627 10.1931 78.445 7.15299 78.9516 5.88628C79.6272 4.19732 79.5428 3.60619 78.6139 3.18395C77.9383 2.9306 77.2627 3.01505 77.0093 3.35284Z" fill="#F3F3F3"/>
<path d="M61.8091 22.2693C52.9421 24.1271 47.1996 34.5142 50.3242 42.7057L51.1687 44.9013H65.0181C75.9963 44.9013 79.0364 44.648 79.7965 43.719C80.3876 43.0434 80.8098 40.3411 80.8098 37.8077C80.8098 27.0828 72.1962 20.0737 61.8091 22.2693Z" fill="#7715A7"/>
<path d="M93.6459 24.296C90.268 25.8161 87.4812 27.5051 87.4812 27.9273C87.4812 29.8696 89.3391 29.5318 95.3349 26.6606C99.8106 24.5494 101.584 23.2827 101.246 22.4382C100.655 20.9181 100.824 20.9181 93.6459 24.296Z" fill="#F3F3F3"/>
<path d="M34.0258 25.225C32.8435 26.3228 33.5191 27.1673 36.5592 28.434C42.0483 30.7141 43.7373 30.9674 43.3995 29.2785C43.2306 28.434 41.3727 27.1673 38.9237 26.2383C33.9413 24.3805 34.7014 24.5494 34.0258 25.225Z" fill="#F3F3F3"/>
<path d="M11.9849 43.2968C9.62036 45.1547 9.02923 48.7015 10.6337 51.7416C12.2382 54.6128 7.08693 53.0083 4.89128 49.7993C3.62457 48.0259 0.5 47.7725 0.5 49.4615C0.5 53.1772 8.35364 58.3285 14.1805 58.4129C15.8695 58.4129 17.5585 58.7507 17.8118 59.2574C18.9941 61.1153 20.683 59.8486 22.372 55.964C23.3009 53.6839 24.1454 50.3904 24.1454 48.7015C24.1454 42.4523 17.0518 39.3278 11.9849 43.2968ZM19.0785 48.617C19.0785 51.3193 17.5585 52.2483 15.9539 50.5593C14.265 48.8703 15.1095 46.5903 17.3896 46.5903C18.6563 46.5903 19.0785 47.1814 19.0785 48.617Z" fill="#7715A7"/>
<path d="M84.6097 43.8879C84.2719 44.2257 83.4274 45.7458 82.7518 47.3503L81.5696 50.1371L70.0002 49.6304C50.6617 48.7015 47.6216 48.2792 47.1993 46.5058C46.6082 44.3946 45.9326 44.4791 40.0212 47.6036C30.4786 52.6705 24.3984 61.7064 22.9628 72.6002C22.2872 77.9204 24.6518 92.7832 28.6208 108.322L31.3231 118.793H36.7278C42.048 118.793 42.2169 118.709 42.9769 116.26C43.3992 114.824 44.2436 112.544 44.8348 111.108L45.9326 108.49L52.0973 109.673C56.4886 110.517 60.8799 110.771 66.9601 110.348L75.6582 109.842L77.685 114.486L79.7962 119.215H84.9475C90.6055 119.215 90.3521 119.553 91.3655 112.037L92.1255 107.055L98.2902 104.775C106.482 101.735 112.393 98.779 116.869 95.4855L120.5 92.8676L119.993 74.9647L117.038 74.2047C114.335 73.6135 113.913 73.1913 113.069 69.3067C112.14 65.5066 112.224 64.6621 113.575 61.8753C114.504 60.1864 115.433 57.2307 115.771 55.4573C116.109 53.5994 116.531 51.4038 116.784 50.5593C117.291 48.7015 115.518 48.7015 108.677 50.8126L103.273 52.4172L100.655 50.4749C95.2501 46.3369 85.8764 42.5368 84.6097 43.8879ZM108.086 73.7824C109.437 75.9781 107.748 78.2582 104.708 78.2582C102.766 78.2582 102.175 77.8359 102.006 76.3159C101.837 75.2181 101.921 73.7824 102.175 73.1069C102.85 71.4179 106.904 71.9246 108.086 73.7824Z" fill="#7715A7"/>
</svg>
