<svg width="41" height="41" viewBox="0 0 41 41" fill="none" xmlns="http://www.w3.org/2000/svg">
<path d="M34.1357 7.54438C33.7197 7.64371 7.60449 16.2387 7.35254 16.3555C6.71387 16.6535 6.33301 17.2612 6.33301 17.974C6.33301 18.57 6.46191 18.8972 6.85449 19.2828C7.17676 19.5984 7.25879 19.6334 10.5459 21.0649L13.915 22.5315L14.8994 27.0773C15.4385 29.5781 15.9072 31.7108 15.9424 31.8218C16.0361 32.0964 16.2178 32.3009 16.4521 32.4002C16.71 32.5113 16.8857 32.5113 17.1318 32.4061C17.2373 32.3652 18.4736 31.4712 19.8857 30.4195L22.4463 28.5088L25.3584 30.8869C26.958 32.1957 28.3584 33.3 28.4697 33.3468C28.9912 33.563 29.6475 33.5513 30.1221 33.3059C30.3564 33.1832 30.7725 32.7625 30.9014 32.5054C30.9541 32.4119 32.1963 27.2409 33.6611 21.0065C35.6709 12.4992 36.333 9.59525 36.333 9.32063C36.333 8.81814 36.1982 8.46757 35.8584 8.09946C35.4189 7.62034 34.7334 7.39831 34.1357 7.54438ZM34.499 9.47839C33.2275 14.9415 29.2607 31.6699 29.2432 31.6699C29.2197 31.6699 20.4189 24.5064 20.2314 24.337C20.2197 24.3311 22.3115 22.1342 24.8721 19.464C29.8701 14.2521 29.7119 14.4332 29.6182 13.9307C29.5713 13.6853 29.3604 13.4107 29.1084 13.288C28.8799 13.1653 28.5166 13.2062 28.1768 13.3815C28.0361 13.4516 24.9424 15.1636 21.292 17.1852L14.6592 20.8604L11.4072 19.4464C9.62012 18.6635 8.17285 18.0149 8.18457 17.9974C8.22559 17.9565 34.3467 9.36153 34.4521 9.35569C34.5049 9.34985 34.5166 9.39075 34.499 9.47839ZM20.9346 20.9247L18.0693 23.9104L17.8877 24.5006C17.7881 24.8278 17.542 25.675 17.3428 26.382C17.1436 27.089 16.9619 27.685 16.9443 27.7084C16.9268 27.7317 16.6455 26.5398 16.3291 25.0615C16.0127 23.5832 15.7666 22.3621 15.7842 22.3445C15.8369 22.292 23.7061 17.9448 23.7529 17.939C23.7764 17.939 22.5107 19.2828 20.9346 20.9247ZM20.2666 26.7326C20.6592 27.0481 20.9639 27.3286 20.9346 27.3519C20.7295 27.5331 18.5029 29.1632 18.4854 29.1457C18.4736 29.1282 18.667 28.4212 18.9131 27.5623C19.3115 26.16 19.3643 26.0139 19.4521 26.0782C19.5107 26.1191 19.874 26.4112 20.2666 26.7326Z" fill="#F3F3F3"/>
</svg>
